<?xml version="1.0" encoding="utf-8" standalone="no"?>
<!DOCTYPE svg PUBLIC "-//W3C//DTD SVG 1.1//EN"
  "http://www.w3.org/Graphics/SVG/1.1/DTD/svg11.dtd">
<svg xmlns:xlink="http://www.w3.org/1999/xlink" width="561.6pt" height="561.6pt" viewBox="0 0 561.6 561.6" xmlns="http://www.w3.org/2000/svg" version="1.1">
 <metadata>
  <rdf:RDF xmlns:dc="http://purl.org/dc/elements/1.1/" xmlns:cc="http://creativecommons.org/ns#" xmlns:rdf="http://www.w3.org/1999/02/22-rdf-syntax-ns#">
   <cc:Work>
    <dc:type rdf:resource="http://purl.org/dc/dcmitype/StillImage"/>
    <dc:date>2025-12-07T14:08:44.779563</dc:date>
    <dc:format>image/svg+xml</dc:format>
    <dc:creator>
     <cc:Agent>
      <dc:title>Matplotlib v3.10.5, https://matplotlib.org/</dc:title>
     </cc:Agent>
    </dc:creator>
   </cc:Work>
  </rdf:RDF>
 </metadata>
 <defs>
  <style type="text/css">*{stroke-linejoin: round; stroke-linecap: butt}</style>
 </defs>
 <g id="figure_1">
  <g id="patch_1">
   <path d="M 0 561.6 
L 561.6 561.6 
L 561.6 0 
L 0 0 
z
" style="fill: #ffffff"/>
  </g>
  <g id="axes_1">
   <g id="patch_2">
    <path d="M 70.2 206.388 
L 505.44 206.388 
L 505.44 67.392 
L 70.2 67.392 
z
" style="fill: #ffffff"/>
   </g>
   <g id="FillBetweenPolyCollection_1">
    <defs>
     <path id="me5ea99e510" d="M 89.983636 -439.940431 
L 89.983636 -403.731355 
L 93.980327 -401.204431 
L 97.977023 -398.677027 
L 101.973713 -398.7775 
L 105.97041 -399.487756 
L 109.967106 -401.757131 
L 113.963796 -402.336706 
L 117.960493 -404.105113 
L 121.957186 -401.13288 
L 125.953882 -404.721977 
L 129.950576 -400.838583 
L 133.947269 -401.515131 
L 137.943962 -398.423401 
L 141.940659 -400.551251 
L 145.937352 -404.073124 
L 149.934045 -406.132674 
L 153.93074 -402.302349 
L 157.927434 -403.91069 
L 161.924129 -398.356758 
L 165.920823 -401.711773 
L 169.917517 -400.67793 
L 173.914211 -400.689807 
L 177.910906 -404.357027 
L 181.9076 -401.168224 
L 185.904294 -403.303043 
L 189.900988 -408.540033 
L 193.897681 -402.642188 
L 197.894377 -403.886765 
L 201.891071 -402.463006 
L 205.887764 -404.613714 
L 209.884457 -411.965879 
L 213.881154 -400.168802 
L 217.877847 -401.181527 
L 221.874543 -403.782999 
L 225.871234 -404.794574 
L 229.86793 -401.607493 
L 233.864626 -400.612315 
L 237.861317 -406.337894 
L 241.858013 -402.32963 
L 245.854704 -404.862694 
L 249.8514 -405.513401 
L 253.848096 -405.944111 
L 257.844787 -403.366652 
L 261.841483 -402.742981 
L 265.838179 -405.464274 
L 269.83487 -404.228436 
L 273.83156 -404.386185 
L 277.828262 -405.353947 
L 281.824953 -402.250439 
L 285.821643 -405.967765 
L 289.818345 -404.439212 
L 293.815036 -406.804576 
L 297.811726 -402.54083 
L 301.808428 -399.176205 
L 305.805119 -402.308003 
L 309.801809 -401.987738 
L 313.798511 -405.711212 
L 317.795202 -398.829084 
L 321.791892 -401.296773 
L 325.788594 -408.065192 
L 329.785285 -399.556996 
L 333.781975 -401.499565 
L 337.778677 -397.562384 
L 341.775368 -398.769186 
L 345.772058 -397.5504 
L 349.76876 -398.001573 
L 353.765451 -399.40176 
L 357.762141 -396.720547 
L 361.758843 -395.002722 
L 365.755534 -396.515087 
L 369.752224 -398.262239 
L 373.748914 -397.701203 
L 377.745605 -398.955781 
L 381.742319 -397.331159 
L 385.739009 -397.908105 
L 389.7357 -398.085004 
L 393.73239 -397.388459 
L 397.72908 -404.731822 
L 401.725771 -396.839017 
L 405.722485 -397.559499 
L 409.719175 -399.17678 
L 413.715866 -398.229303 
L 417.712556 -397.707631 
L 421.709246 -397.688762 
L 425.705937 -400.356697 
L 429.702627 -395.547488 
L 433.699341 -397.09162 
L 437.696032 -395.021311 
L 441.692722 -396.133542 
L 445.689412 -397.314286 
L 449.686103 -398.073092 
L 453.682793 -397.665653 
L 457.679507 -394.948197 
L 461.676198 -398.196789 
L 465.672888 -400.566863 
L 469.669578 -400.412581 
L 473.666269 -397.725222 
L 477.662959 -397.647502 
L 481.659673 -396.946024 
L 485.656364 -399.153202 
L 485.656364 -435.179609 
L 485.656364 -435.179609 
L 481.659673 -431.497268 
L 477.662959 -431.783035 
L 473.666269 -434.165242 
L 469.669578 -437.400587 
L 465.672888 -435.497796 
L 461.676198 -433.380382 
L 457.679507 -428.606847 
L 453.682793 -429.307533 
L 449.686103 -432.982236 
L 445.689412 -429.731923 
L 441.692722 -430.85162 
L 437.696032 -428.123566 
L 433.699341 -429.990469 
L 429.702627 -431.406976 
L 425.705937 -435.616165 
L 421.709246 -430.860768 
L 417.712556 -432.30783 
L 413.715866 -431.803684 
L 409.719175 -432.205437 
L 405.722485 -431.422437 
L 401.725771 -427.073207 
L 397.72908 -437.740476 
L 393.73239 -428.570963 
L 389.7357 -432.237882 
L 385.739009 -430.456877 
L 381.742319 -428.777729 
L 377.745605 -433.092419 
L 373.748914 -431.009701 
L 369.752224 -430.939294 
L 365.755534 -430.901482 
L 361.758843 -427.275179 
L 357.762141 -431.081604 
L 353.765451 -434.17359 
L 349.76876 -431.997411 
L 345.772058 -429.849755 
L 341.775368 -434.340466 
L 337.778677 -435.179103 
L 333.781975 -437.231259 
L 329.785285 -433.382864 
L 325.788594 -444.573032 
L 321.791892 -442.175662 
L 317.795202 -437.100723 
L 313.798511 -440.756483 
L 309.801809 -434.5349 
L 305.805119 -434.73097 
L 301.808428 -433.55382 
L 297.811726 -436.190625 
L 293.815036 -443.057144 
L 289.818345 -439.904937 
L 285.821643 -445.826698 
L 281.824953 -439.140385 
L 277.828262 -444.913159 
L 273.83156 -439.815479 
L 269.83487 -441.181598 
L 265.838179 -441.386968 
L 261.841483 -438.049644 
L 257.844787 -438.211948 
L 253.848096 -439.884103 
L 249.8514 -439.59913 
L 245.854704 -440.108022 
L 241.858013 -437.64731 
L 237.861317 -442.007664 
L 233.864626 -433.617912 
L 229.86793 -433.567716 
L 225.871234 -439.438858 
L 221.874543 -440.117169 
L 217.877847 -438.486004 
L 213.881154 -434.899193 
L 209.884457 -449.456275 
L 205.887764 -441.131812 
L 201.891071 -439.708964 
L 197.894377 -439.630306 
L 193.897681 -434.303328 
L 189.900988 -445.69892 
L 185.904294 -439.065919 
L 181.9076 -434.507966 
L 177.910906 -441.366112 
L 173.914211 -435.776251 
L 169.917517 -435.623311 
L 165.920823 -440.543136 
L 161.924129 -432.445809 
L 157.927434 -439.00045 
L 153.93074 -438.18037 
L 149.934045 -441.380043 
L 145.937352 -439.220711 
L 141.940659 -436.234538 
L 137.943962 -433.622373 
L 133.947269 -437.895138 
L 129.950576 -435.747647 
L 125.953882 -441.239282 
L 121.957186 -435.616884 
L 117.960493 -440.886108 
L 113.963796 -437.145382 
L 109.967106 -435.847449 
L 105.97041 -433.862344 
L 101.973713 -430.905079 
L 97.977023 -431.985345 
L 93.980327 -435.08463 
L 89.983636 -439.940431 
z
"/>
    </defs>
    <g clip-path="url(#p105939a5a3)">
     <use xlink:href="#me5ea99e510" x="0" y="561.6" style="fill: #1f77b4; fill-opacity: 0.15"/>
    </g>
   </g>
   <g id="FillBetweenPolyCollection_2">
    <defs>
     <path id="m0af15584ba" d="M 89.983636 -440.120587 
L 89.983636 -405.467381 
L 93.980327 -405.553947 
L 97.977023 -407.038758 
L 101.973713 -413.703594 
L 105.97041 -403.369753 
L 109.967106 -407.24553 
L 113.963796 -401.4091 
L 117.960493 -401.947828 
L 121.957186 -403.94755 
L 125.953882 -400.601084 
L 129.950576 -411.826397 
L 133.947269 -407.586665 
L 137.943962 -403.434264 
L 141.940659 -400.042259 
L 145.937352 -402.774279 
L 149.934045 -400.088259 
L 153.93074 -410.079316 
L 157.927434 -414.588844 
L 161.924129 -408.311331 
L 165.920823 -406.639215 
L 169.917517 -399.428543 
L 173.914211 -409.791973 
L 177.910906 -408.808257 
L 181.9076 -406.867483 
L 185.904294 -405.777682 
L 189.900988 -404.397129 
L 193.897681 -400.836506 
L 197.894377 -404.245898 
L 201.891071 -404.885563 
L 205.887764 -411.124403 
L 209.884457 -402.793772 
L 213.881154 -408.434782 
L 217.877847 -422.496606 
L 221.874543 -414.204153 
L 225.871234 -407.938179 
L 229.86793 -415.256757 
L 233.864626 -405.83336 
L 237.861317 -405.288799 
L 241.858013 -408.85984 
L 245.854704 -401.861575 
L 249.8514 -405.568206 
L 253.848096 -412.429561 
L 257.844787 -409.643389 
L 261.841483 -410.128565 
L 265.838179 -407.559248 
L 269.83487 -407.821225 
L 273.83156 -407.758826 
L 277.828262 -402.602835 
L 281.824953 -403.15104 
L 285.821643 -404.014561 
L 289.818345 -403.229538 
L 293.815036 -409.297434 
L 297.811726 -410.415372 
L 301.808428 -405.988362 
L 305.805119 -402.591626 
L 309.801809 -415.341996 
L 313.798511 -403.268785 
L 317.795202 -402.922587 
L 321.791892 -403.49034 
L 325.788594 -402.430655 
L 329.785285 -400.2639 
L 333.781975 -404.411474 
L 337.778677 -406.03236 
L 341.775368 -400.384109 
L 345.772058 -398.607758 
L 349.76876 -401.332374 
L 353.765451 -399.916355 
L 357.762141 -406.172637 
L 361.758843 -403.831813 
L 365.755534 -401.571259 
L 369.752224 -399.761023 
L 373.748914 -402.88577 
L 377.745605 -405.057276 
L 381.742319 -405.213418 
L 385.739009 -400.333795 
L 389.7357 -403.677813 
L 393.73239 -409.806811 
L 397.72908 -400.528766 
L 401.725771 -404.115268 
L 405.722485 -396.890185 
L 409.719175 -397.491718 
L 413.715866 -398.13373 
L 417.712556 -405.467544 
L 421.709246 -400.938302 
L 425.705937 -399.141027 
L 429.702627 -398.936052 
L 433.699341 -397.321868 
L 437.696032 -404.336392 
L 441.692722 -407.339123 
L 445.689412 -403.11392 
L 449.686103 -404.874123 
L 453.682793 -405.79908 
L 457.679507 -399.180636 
L 461.676198 -396.915029 
L 465.672888 -399.515018 
L 469.669578 -403.374948 
L 473.666269 -403.110436 
L 477.662959 -402.528902 
L 481.659673 -400.821615 
L 485.656364 -400.295767 
L 485.656364 -434.466463 
L 485.656364 -434.466463 
L 481.659673 -434.182817 
L 477.662959 -432.930301 
L 473.666269 -437.183825 
L 469.669578 -438.068877 
L 465.672888 -431.343068 
L 461.676198 -433.334312 
L 457.679507 -432.537651 
L 453.682793 -438.765563 
L 449.686103 -443.44236 
L 445.689412 -435.331158 
L 441.692722 -441.676986 
L 437.696032 -438.902694 
L 433.699341 -431.677875 
L 429.702627 -431.129616 
L 425.705937 -432.290125 
L 421.709246 -434.658823 
L 417.712556 -438.7578 
L 413.715866 -431.619042 
L 409.719175 -430.617325 
L 405.722485 -431.662733 
L 401.725771 -438.172124 
L 397.72908 -434.408287 
L 393.73239 -449.284435 
L 389.7357 -437.568559 
L 385.739009 -434.251151 
L 381.742319 -440.186857 
L 377.745605 -438.422416 
L 373.748914 -436.319983 
L 369.752224 -434.186221 
L 365.755534 -437.21053 
L 361.758843 -436.941043 
L 357.762141 -440.48141 
L 353.765451 -434.4947 
L 349.76876 -434.667041 
L 345.772058 -432.272804 
L 341.775368 -435.049164 
L 337.778677 -442.822834 
L 333.781975 -436.598402 
L 329.785285 -433.253323 
L 325.788594 -436.353695 
L 321.791892 -436.341571 
L 317.795202 -436.385252 
L 313.798511 -436.639065 
L 309.801809 -452.150763 
L 305.805119 -437.790763 
L 301.808428 -440.597333 
L 297.811726 -446.153301 
L 293.815036 -444.908551 
L 289.818345 -438.803201 
L 285.821643 -438.413844 
L 281.824953 -438.996562 
L 277.828262 -437.514391 
L 273.83156 -442.874862 
L 269.83487 -444.141202 
L 265.838179 -446.086896 
L 261.841483 -445.436213 
L 257.844787 -443.423958 
L 253.848096 -448.252557 
L 249.8514 -441.304119 
L 245.854704 -436.853104 
L 241.858013 -444.568608 
L 237.861317 -440.931491 
L 233.864626 -440.70794 
L 229.86793 -455.496618 
L 225.871234 -442.71892 
L 221.874543 -451.765332 
L 217.877847 -463.193226 
L 213.881154 -446.871965 
L 209.884457 -437.007294 
L 205.887764 -447.352555 
L 201.891071 -437.575969 
L 197.894377 -438.59804 
L 193.897681 -435.659137 
L 189.900988 -438.019462 
L 185.904294 -438.893045 
L 181.9076 -442.102164 
L 177.910906 -444.823758 
L 173.914211 -445.876734 
L 169.917517 -432.721916 
L 165.920823 -442.806325 
L 161.924129 -443.976484 
L 157.927434 -450.624645 
L 153.93074 -445.690743 
L 149.934045 -435.817333 
L 145.937352 -435.703743 
L 141.940659 -435.250314 
L 137.943962 -437.639397 
L 133.947269 -442.560279 
L 129.950576 -449.615348 
L 125.953882 -436.250047 
L 121.957186 -435.267239 
L 117.960493 -437.59725 
L 113.963796 -436.386775 
L 109.967106 -442.314123 
L 105.97041 -439.454477 
L 101.973713 -449.493971 
L 97.977023 -445.25398 
L 93.980327 -444.567397 
L 89.983636 -440.120587 
z
"/>
    </defs>
    <g clip-path="url(#p105939a5a3)">
     <use xlink:href="#m0af15584ba" x="0" y="561.6" style="fill: #ff7f0e; fill-opacity: 0.15"/>
    </g>
   </g>
   <g id="matplotlib.axis_1">
    <g id="xtick_1">
     <g id="line2d_1">
      <defs>
       <path id="m44ea02d356" d="M 0 0 
L 0 3.5 
" style="stroke: #000000; stroke-width: 0.8"/>
      </defs>
      <g>
       <use xlink:href="#m44ea02d356" x="87.985286" y="206.388" style="stroke: #000000; stroke-width: 0.8"/>
      </g>
     </g>
     <g id="text_1">
      <!-- −200 -->
      <g transform="translate(74.251693 220.986437) scale(0.1 -0.1)">
       <defs>
        <path id="DejaVuSans-2212" d="M 678 2272 
L 4684 2272 
L 4684 1741 
L 678 1741 
L 678 2272 
z
" transform="scale(0.015625)"/>
        <path id="DejaVuSans-32" d="M 1228 531 
L 3431 531 
L 3431 0 
L 469 0 
L 469 531 
Q 828 903 1448 1529 
Q 2069 2156 2228 2338 
Q 2531 2678 2651 2914 
Q 2772 3150 2772 3378 
Q 2772 3750 2511 3984 
Q 2250 4219 1831 4219 
Q 1534 4219 1204 4116 
Q 875 4013 500 3803 
L 500 4441 
Q 881 4594 1212 4672 
Q 1544 4750 1819 4750 
Q 2544 4750 2975 4387 
Q 3406 4025 3406 3419 
Q 3406 3131 3298 2873 
Q 3191 2616 2906 2266 
Q 2828 2175 2409 1742 
Q 1991 1309 1228 531 
z
" transform="scale(0.015625)"/>
        <path id="DejaVuSans-30" d="M 2034 4250 
Q 1547 4250 1301 3770 
Q 1056 3291 1056 2328 
Q 1056 1369 1301 889 
Q 1547 409 2034 409 
Q 2525 409 2770 889 
Q 3016 1369 3016 2328 
Q 3016 3291 2770 3770 
Q 2525 4250 2034 4250 
z
M 2034 4750 
Q 2819 4750 3233 4129 
Q 3647 3509 3647 2328 
Q 3647 1150 3233 529 
Q 2819 -91 2034 -91 
Q 1250 -91 836 529 
Q 422 1150 422 2328 
Q 422 3509 836 4129 
Q 1250 4750 2034 4750 
z
" transform="scale(0.015625)"/>
       </defs>
       <use xlink:href="#DejaVuSans-2212"/>
       <use xlink:href="#DejaVuSans-32" transform="translate(83.789062 0)"/>
       <use xlink:href="#DejaVuSans-30" transform="translate(147.412109 0)"/>
       <use xlink:href="#DejaVuSans-30" transform="translate(211.035156 0)"/>
      </g>
     </g>
    </g>
    <g id="xtick_2">
     <g id="line2d_2">
      <g>
       <use xlink:href="#m44ea02d356" x="167.91917" y="206.388" style="stroke: #000000; stroke-width: 0.8"/>
      </g>
     </g>
     <g id="text_2">
      <!-- 0 -->
      <g transform="translate(164.73792 220.986437) scale(0.1 -0.1)">
       <use xlink:href="#DejaVuSans-30"/>
      </g>
     </g>
    </g>
    <g id="xtick_3">
     <g id="line2d_3">
      <g>
       <use xlink:href="#m44ea02d356" x="247.853053" y="206.388" style="stroke: #000000; stroke-width: 0.8"/>
      </g>
     </g>
     <g id="text_3">
      <!-- 200 -->
      <g transform="translate(238.309303 220.986437) scale(0.1 -0.1)">
       <use xlink:href="#DejaVuSans-32"/>
       <use xlink:href="#DejaVuSans-30" transform="translate(63.623047 0)"/>
       <use xlink:href="#DejaVuSans-30" transform="translate(127.246094 0)"/>
      </g>
     </g>
    </g>
    <g id="xtick_4">
     <g id="line2d_4">
      <g>
       <use xlink:href="#m44ea02d356" x="327.786937" y="206.388" style="stroke: #000000; stroke-width: 0.8"/>
      </g>
     </g>
     <g id="text_4">
      <!-- 400 -->
      <g transform="translate(318.243187 220.986437) scale(0.1 -0.1)">
       <defs>
        <path id="DejaVuSans-34" d="M 2419 4116 
L 825 1625 
L 2419 1625 
L 2419 4116 
z
M 2253 4666 
L 3047 4666 
L 3047 1625 
L 3713 1625 
L 3713 1100 
L 3047 1100 
L 3047 0 
L 2419 0 
L 2419 1100 
L 313 1100 
L 313 1709 
L 2253 4666 
z
" transform="scale(0.015625)"/>
       </defs>
       <use xlink:href="#DejaVuSans-34"/>
       <use xlink:href="#DejaVuSans-30" transform="translate(63.623047 0)"/>
       <use xlink:href="#DejaVuSans-30" transform="translate(127.246094 0)"/>
      </g>
     </g>
    </g>
    <g id="xtick_5">
     <g id="line2d_5">
      <g>
       <use xlink:href="#m44ea02d356" x="407.720821" y="206.388" style="stroke: #000000; stroke-width: 0.8"/>
      </g>
     </g>
     <g id="text_5">
      <!-- 600 -->
      <g transform="translate(398.177071 220.986437) scale(0.1 -0.1)">
       <defs>
        <path id="DejaVuSans-36" d="M 2113 2584 
Q 1688 2584 1439 2293 
Q 1191 2003 1191 1497 
Q 1191 994 1439 701 
Q 1688 409 2113 409 
Q 2538 409 2786 701 
Q 3034 994 3034 1497 
Q 3034 2003 2786 2293 
Q 2538 2584 2113 2584 
z
M 3366 4563 
L 3366 3988 
Q 3128 4100 2886 4159 
Q 2644 4219 2406 4219 
Q 1781 4219 1451 3797 
Q 1122 3375 1075 2522 
Q 1259 2794 1537 2939 
Q 1816 3084 2150 3084 
Q 2853 3084 3261 2657 
Q 3669 2231 3669 1497 
Q 3669 778 3244 343 
Q 2819 -91 2113 -91 
Q 1303 -91 875 529 
Q 447 1150 447 2328 
Q 447 3434 972 4092 
Q 1497 4750 2381 4750 
Q 2619 4750 2861 4703 
Q 3103 4656 3366 4563 
z
" transform="scale(0.015625)"/>
       </defs>
       <use xlink:href="#DejaVuSans-36"/>
       <use xlink:href="#DejaVuSans-30" transform="translate(63.623047 0)"/>
       <use xlink:href="#DejaVuSans-30" transform="translate(127.246094 0)"/>
      </g>
     </g>
    </g>
    <g id="xtick_6">
     <g id="line2d_6">
      <g>
       <use xlink:href="#m44ea02d356" x="487.654704" y="206.388" style="stroke: #000000; stroke-width: 0.8"/>
      </g>
     </g>
     <g id="text_6">
      <!-- 800 -->
      <g transform="translate(478.110954 220.986437) scale(0.1 -0.1)">
       <defs>
        <path id="DejaVuSans-38" d="M 2034 2216 
Q 1584 2216 1326 1975 
Q 1069 1734 1069 1313 
Q 1069 891 1326 650 
Q 1584 409 2034 409 
Q 2484 409 2743 651 
Q 3003 894 3003 1313 
Q 3003 1734 2745 1975 
Q 2488 2216 2034 2216 
z
M 1403 2484 
Q 997 2584 770 2862 
Q 544 3141 544 3541 
Q 544 4100 942 4425 
Q 1341 4750 2034 4750 
Q 2731 4750 3128 4425 
Q 3525 4100 3525 3541 
Q 3525 3141 3298 2862 
Q 3072 2584 2669 2484 
Q 3125 2378 3379 2068 
Q 3634 1759 3634 1313 
Q 3634 634 3220 271 
Q 2806 -91 2034 -91 
Q 1263 -91 848 271 
Q 434 634 434 1313 
Q 434 1759 690 2068 
Q 947 2378 1403 2484 
z
M 1172 3481 
Q 1172 3119 1398 2916 
Q 1625 2713 2034 2713 
Q 2441 2713 2670 2916 
Q 2900 3119 2900 3481 
Q 2900 3844 2670 4047 
Q 2441 4250 2034 4250 
Q 1625 4250 1398 4047 
Q 1172 3844 1172 3481 
z
" transform="scale(0.015625)"/>
       </defs>
       <use xlink:href="#DejaVuSans-38"/>
       <use xlink:href="#DejaVuSans-30" transform="translate(63.623047 0)"/>
       <use xlink:href="#DejaVuSans-30" transform="translate(127.246094 0)"/>
      </g>
     </g>
    </g>
   </g>
   <g id="matplotlib.axis_2">
    <g id="ytick_1">
     <g id="line2d_7">
      <defs>
       <path id="mbc14f90d0c" d="M 0 0 
L -3.5 0 
" style="stroke: #000000; stroke-width: 0.8"/>
      </defs>
      <g>
       <use xlink:href="#mbc14f90d0c" x="70.2" y="181.163928" style="stroke: #000000; stroke-width: 0.8"/>
      </g>
     </g>
     <g id="text_7">
      <!-- 10 -->
      <g transform="translate(50.475 184.963146) scale(0.1 -0.1)">
       <defs>
        <path id="DejaVuSans-31" d="M 794 531 
L 1825 531 
L 1825 4091 
L 703 3866 
L 703 4441 
L 1819 4666 
L 2450 4666 
L 2450 531 
L 3481 531 
L 3481 0 
L 794 0 
L 794 531 
z
" transform="scale(0.015625)"/>
       </defs>
       <use xlink:href="#DejaVuSans-31"/>
       <use xlink:href="#DejaVuSans-30" transform="translate(63.623047 0)"/>
      </g>
     </g>
    </g>
    <g id="ytick_2">
     <g id="line2d_8">
      <g>
       <use xlink:href="#mbc14f90d0c" x="70.2" y="147.504208" style="stroke: #000000; stroke-width: 0.8"/>
      </g>
     </g>
     <g id="text_8">
      <!-- 15 -->
      <g transform="translate(50.475 151.303426) scale(0.1 -0.1)">
       <defs>
        <path id="DejaVuSans-35" d="M 691 4666 
L 3169 4666 
L 3169 4134 
L 1269 4134 
L 1269 2991 
Q 1406 3038 1543 3061 
Q 1681 3084 1819 3084 
Q 2600 3084 3056 2656 
Q 3513 2228 3513 1497 
Q 3513 744 3044 326 
Q 2575 -91 1722 -91 
Q 1428 -91 1123 -41 
Q 819 9 494 109 
L 494 744 
Q 775 591 1075 516 
Q 1375 441 1709 441 
Q 2250 441 2565 725 
Q 2881 1009 2881 1497 
Q 2881 1984 2565 2268 
Q 2250 2553 1709 2553 
Q 1456 2553 1204 2497 
Q 953 2441 691 2322 
L 691 4666 
z
" transform="scale(0.015625)"/>
       </defs>
       <use xlink:href="#DejaVuSans-31"/>
       <use xlink:href="#DejaVuSans-35" transform="translate(63.623047 0)"/>
      </g>
     </g>
    </g>
    <g id="ytick_3">
     <g id="line2d_9">
      <g>
       <use xlink:href="#mbc14f90d0c" x="70.2" y="113.844488" style="stroke: #000000; stroke-width: 0.8"/>
      </g>
     </g>
     <g id="text_9">
      <!-- 20 -->
      <g transform="translate(50.475 117.643707) scale(0.1 -0.1)">
       <use xlink:href="#DejaVuSans-32"/>
       <use xlink:href="#DejaVuSans-30" transform="translate(63.623047 0)"/>
      </g>
     </g>
    </g>
    <g id="ytick_4">
     <g id="line2d_10">
      <g>
       <use xlink:href="#mbc14f90d0c" x="70.2" y="80.184768" style="stroke: #000000; stroke-width: 0.8"/>
      </g>
     </g>
     <g id="text_10">
      <!-- 25 -->
      <g transform="translate(50.475 83.983987) scale(0.1 -0.1)">
       <use xlink:href="#DejaVuSans-32"/>
       <use xlink:href="#DejaVuSans-35" transform="translate(63.623047 0)"/>
      </g>
     </g>
    </g>
    <g id="text_11">
     <!-- ΔLL (bits) -->
     <g transform="translate(44.395313 160.500937) rotate(-90) scale(0.1 -0.1)">
      <defs>
       <path id="DejaVuSans-394" d="M 2188 4044 
L 906 525 
L 3472 525 
L 2188 4044 
z
M 50 0 
L 1831 4666 
L 2547 4666 
L 4325 0 
L 50 0 
z
" transform="scale(0.015625)"/>
       <path id="DejaVuSans-4c" d="M 628 4666 
L 1259 4666 
L 1259 531 
L 3531 531 
L 3531 0 
L 628 0 
L 628 4666 
z
" transform="scale(0.015625)"/>
       <path id="DejaVuSans-20" transform="scale(0.015625)"/>
       <path id="DejaVuSans-28" d="M 1984 4856 
Q 1566 4138 1362 3434 
Q 1159 2731 1159 2009 
Q 1159 1288 1364 580 
Q 1569 -128 1984 -844 
L 1484 -844 
Q 1016 -109 783 600 
Q 550 1309 550 2009 
Q 550 2706 781 3412 
Q 1013 4119 1484 4856 
L 1984 4856 
z
" transform="scale(0.015625)"/>
       <path id="DejaVuSans-62" d="M 3116 1747 
Q 3116 2381 2855 2742 
Q 2594 3103 2138 3103 
Q 1681 3103 1420 2742 
Q 1159 2381 1159 1747 
Q 1159 1113 1420 752 
Q 1681 391 2138 391 
Q 2594 391 2855 752 
Q 3116 1113 3116 1747 
z
M 1159 2969 
Q 1341 3281 1617 3432 
Q 1894 3584 2278 3584 
Q 2916 3584 3314 3078 
Q 3713 2572 3713 1747 
Q 3713 922 3314 415 
Q 2916 -91 2278 -91 
Q 1894 -91 1617 61 
Q 1341 213 1159 525 
L 1159 0 
L 581 0 
L 581 4863 
L 1159 4863 
L 1159 2969 
z
" transform="scale(0.015625)"/>
       <path id="DejaVuSans-69" d="M 603 3500 
L 1178 3500 
L 1178 0 
L 603 0 
L 603 3500 
z
M 603 4863 
L 1178 4863 
L 1178 4134 
L 603 4134 
L 603 4863 
z
" transform="scale(0.015625)"/>
       <path id="DejaVuSans-74" d="M 1172 4494 
L 1172 3500 
L 2356 3500 
L 2356 3053 
L 1172 3053 
L 1172 1153 
Q 1172 725 1289 603 
Q 1406 481 1766 481 
L 2356 481 
L 2356 0 
L 1766 0 
Q 1100 0 847 248 
Q 594 497 594 1153 
L 594 3053 
L 172 3053 
L 172 3500 
L 594 3500 
L 594 4494 
L 1172 4494 
z
" transform="scale(0.015625)"/>
       <path id="DejaVuSans-73" d="M 2834 3397 
L 2834 2853 
Q 2591 2978 2328 3040 
Q 2066 3103 1784 3103 
Q 1356 3103 1142 2972 
Q 928 2841 928 2578 
Q 928 2378 1081 2264 
Q 1234 2150 1697 2047 
L 1894 2003 
Q 2506 1872 2764 1633 
Q 3022 1394 3022 966 
Q 3022 478 2636 193 
Q 2250 -91 1575 -91 
Q 1294 -91 989 -36 
Q 684 19 347 128 
L 347 722 
Q 666 556 975 473 
Q 1284 391 1588 391 
Q 1994 391 2212 530 
Q 2431 669 2431 922 
Q 2431 1156 2273 1281 
Q 2116 1406 1581 1522 
L 1381 1569 
Q 847 1681 609 1914 
Q 372 2147 372 2553 
Q 372 3047 722 3315 
Q 1072 3584 1716 3584 
Q 2034 3584 2315 3537 
Q 2597 3491 2834 3397 
z
" transform="scale(0.015625)"/>
       <path id="DejaVuSans-29" d="M 513 4856 
L 1013 4856 
Q 1481 4119 1714 3412 
Q 1947 2706 1947 2009 
Q 1947 1309 1714 600 
Q 1481 -109 1013 -844 
L 513 -844 
Q 928 -128 1133 580 
Q 1338 1288 1338 2009 
Q 1338 2731 1133 3434 
Q 928 4138 513 4856 
z
" transform="scale(0.015625)"/>
      </defs>
      <use xlink:href="#DejaVuSans-394"/>
      <use xlink:href="#DejaVuSans-4c" transform="translate(68.408203 0)"/>
      <use xlink:href="#DejaVuSans-4c" transform="translate(124.121094 0)"/>
      <use xlink:href="#DejaVuSans-20" transform="translate(179.833984 0)"/>
      <use xlink:href="#DejaVuSans-28" transform="translate(211.621094 0)"/>
      <use xlink:href="#DejaVuSans-62" transform="translate(250.634766 0)"/>
      <use xlink:href="#DejaVuSans-69" transform="translate(314.111328 0)"/>
      <use xlink:href="#DejaVuSans-74" transform="translate(341.894531 0)"/>
      <use xlink:href="#DejaVuSans-73" transform="translate(381.103516 0)"/>
      <use xlink:href="#DejaVuSans-29" transform="translate(433.203125 0)"/>
     </g>
    </g>
   </g>
   <g id="line2d_11">
    <path d="M 167.91917 206.388 
L 167.91917 67.392 
" clip-path="url(#p105939a5a3)" style="fill: none; stroke-dasharray: 2.96,1.28; stroke-dashoffset: 0; stroke: #000000; stroke-width: 0.8"/>
   </g>
   <g id="line2d_12">
    <path d="M 89.983636 139.764107 
L 93.980327 143.45547 
L 97.977023 146.268814 
L 101.973713 146.758711 
L 105.97041 144.92495 
L 109.967106 142.79771 
L 113.963796 141.858956 
L 117.960493 139.104389 
L 121.957186 143.225118 
L 125.953882 138.61937 
L 129.950576 143.306885 
L 133.947269 141.894865 
L 137.943962 145.577113 
L 141.940659 143.207105 
L 145.937352 139.953082 
L 149.934045 137.843641 
L 153.93074 141.35864 
L 157.927434 140.14443 
L 161.924129 146.198717 
L 165.920823 140.472545 
L 169.917517 143.44938 
L 173.914211 143.366971 
L 177.910906 138.738431 
L 181.9076 143.761905 
L 185.904294 140.415519 
L 189.900988 134.480523 
L 193.897681 143.127242 
L 197.894377 139.841464 
L 201.891071 140.514015 
L 205.887764 138.727237 
L 209.884457 130.888923 
L 213.881154 144.066003 
L 217.877847 141.766235 
L 221.874543 139.649916 
L 225.871234 139.483284 
L 229.86793 144.012395 
L 233.864626 144.484887 
L 237.861317 137.427221 
L 241.858013 141.61153 
L 245.854704 139.114642 
L 249.8514 139.043735 
L 253.848096 138.685893 
L 257.844787 140.8107 
L 261.841483 141.203687 
L 265.838179 138.174379 
L 269.83487 138.894983 
L 273.83156 139.499168 
L 277.828262 136.466447 
L 281.824953 140.904588 
L 285.821643 135.702769 
L 289.818345 139.427926 
L 293.815036 136.66914 
L 297.811726 142.234272 
L 301.808428 145.234987 
L 305.805119 143.080513 
L 309.801809 143.338681 
L 313.798511 138.366152 
L 317.795202 143.635097 
L 321.791892 139.863783 
L 325.788594 135.280888 
L 329.785285 145.13007 
L 333.781975 142.234588 
L 337.778677 145.229257 
L 341.775368 145.045174 
L 345.772058 147.899923 
L 349.76876 146.600508 
L 353.765451 144.812325 
L 357.762141 147.698925 
L 361.758843 150.46105 
L 365.755534 147.891715 
L 369.752224 146.999233 
L 373.748914 147.244548 
L 377.745605 145.5759 
L 381.742319 148.545556 
L 385.739009 147.417509 
L 389.7357 146.438557 
L 393.73239 148.620289 
L 397.72908 140.363851 
L 401.725771 149.643888 
L 405.722485 147.109032 
L 409.719175 145.908891 
L 413.715866 146.583506 
L 417.712556 146.59227 
L 421.709246 147.325235 
L 425.705937 143.613569 
L 429.702627 148.122768 
L 433.699341 148.058956 
L 437.696032 150.027562 
L 441.692722 148.107419 
L 445.689412 148.076896 
L 449.686103 146.072336 
L 453.682793 148.113407 
L 457.679507 149.822478 
L 461.676198 145.811414 
L 465.672888 143.56767 
L 469.669578 142.693416 
L 473.666269 145.654768 
L 477.662959 146.884731 
L 481.659673 147.378354 
L 485.656364 144.433594 
" clip-path="url(#p105939a5a3)" style="fill: none; stroke-dasharray: 1,1.65; stroke-dashoffset: 0; stroke: #1f77b4"/>
   </g>
   <g id="line2d_13">
    <path d="M 89.983636 138.806016 
L 93.980327 136.539328 
L 97.977023 135.453631 
L 101.973713 130.001217 
L 105.97041 140.187885 
L 109.967106 136.820174 
L 113.963796 142.702063 
L 117.960493 141.827461 
L 121.957186 141.992606 
L 125.953882 143.174434 
L 129.950576 130.879128 
L 133.947269 136.526528 
L 137.943962 141.063169 
L 141.940659 143.953713 
L 145.937352 142.360989 
L 149.934045 143.647204 
L 153.93074 133.714971 
L 157.927434 128.993255 
L 161.924129 135.456092 
L 165.920823 136.87723 
L 169.917517 145.52477 
L 173.914211 133.765646 
L 177.910906 134.783992 
L 181.9076 137.115176 
L 185.904294 139.264636 
L 189.900988 140.391704 
L 193.897681 143.352179 
L 197.894377 140.178031 
L 201.891071 140.369234 
L 205.887764 132.361521 
L 209.884457 141.699467 
L 213.881154 133.946626 
L 217.877847 118.755084 
L 221.874543 128.615258 
L 225.871234 136.271451 
L 229.86793 126.223313 
L 233.864626 138.32935 
L 237.861317 138.489855 
L 241.858013 134.885776 
L 245.854704 142.242661 
L 249.8514 138.163838 
L 253.848096 131.258941 
L 257.844787 135.066326 
L 261.841483 133.817611 
L 265.838179 134.776928 
L 269.83487 135.618787 
L 273.83156 136.283156 
L 277.828262 141.541387 
L 281.824953 140.526199 
L 285.821643 140.385797 
L 289.818345 140.58363 
L 293.815036 134.497007 
L 297.811726 133.315664 
L 301.808428 138.307152 
L 305.805119 141.408805 
L 309.801809 127.853621 
L 313.798511 141.646075 
L 317.795202 141.946081 
L 321.791892 141.684044 
L 325.788594 142.207825 
L 329.785285 144.841389 
L 333.781975 141.095062 
L 337.778677 137.172403 
L 341.775368 143.883363 
L 345.772058 146.159719 
L 349.76876 143.600293 
L 353.765451 144.394473 
L 357.762141 138.272976 
L 361.758843 141.213572 
L 365.755534 142.209106 
L 369.752224 144.626378 
L 373.748914 141.997124 
L 377.745605 139.860154 
L 381.742319 138.899862 
L 385.739009 144.307527 
L 389.7357 140.976814 
L 393.73239 132.054377 
L 397.72908 144.131473 
L 401.725771 140.456304 
L 405.722485 147.323541 
L 409.719175 147.545478 
L 413.715866 146.723614 
L 417.712556 139.487328 
L 421.709246 143.801438 
L 425.705937 145.884424 
L 429.702627 146.567166 
L 433.699341 147.100129 
L 437.696032 139.980457 
L 441.692722 137.091945 
L 445.689412 142.377461 
L 449.686103 137.441758 
L 453.682793 139.317679 
L 457.679507 145.740857 
L 461.676198 146.47533 
L 465.672888 146.170957 
L 469.669578 140.878088 
L 473.666269 141.45287 
L 477.662959 143.870399 
L 481.659673 144.097784 
L 485.656364 144.218885 
" clip-path="url(#p105939a5a3)" style="fill: none; stroke-dasharray: 1,1.65; stroke-dashoffset: 0; stroke: #ff7f0e"/>
   </g>
   <g id="line2d_14">
    <path d="M 89.983636 113.634795 
L 93.980327 132.412553 
L 97.977023 123.12264 
L 101.973713 159.110255 
L 105.97041 156.945913 
L 109.967106 144.171962 
L 113.963796 99.144061 
L 117.960493 147.189549 
L 121.957186 114.630564 
L 125.953882 115.560665 
L 129.950576 137.373672 
L 133.947269 152.661835 
L 137.943962 142.633005 
L 141.940659 122.334593 
L 145.937352 149.658751 
L 149.934045 154.960136 
L 153.93074 124.544157 
L 157.927434 155.40014 
L 161.924129 124.056133 
L 165.920823 116.083993 
L 169.917517 114.118732 
L 173.914211 104.207267 
L 177.910906 154.613678 
L 181.9076 147.048873 
L 185.904294 163.251901 
L 189.900988 143.295403 
L 193.897681 154.169523 
L 197.894377 137.061023 
L 201.891071 135.427122 
L 205.887764 167.302192 
L 209.884457 101.858651 
L 213.881154 171.034469 
L 217.877847 122.404824 
L 221.874543 115.126476 
L 225.871234 138.893067 
L 229.86793 150.77975 
L 233.864626 136.675117 
L 237.861317 146.565661 
L 241.858013 136.708437 
L 245.854704 156.918348 
L 249.8514 126.193336 
L 253.848096 149.07777 
L 257.844787 130.880748 
L 261.841483 147.898961 
L 265.838179 132.343997 
L 269.83487 102.384965 
L 273.83156 109.756853 
L 277.828262 147.953163 
L 281.824953 147.715295 
L 285.821643 128.896228 
L 289.818345 156.671281 
L 293.815036 109.188813 
L 297.811726 109.005947 
L 301.808428 136.103819 
L 305.805119 136.103387 
L 309.801809 115.389966 
L 313.798511 164.105313 
L 317.795202 138.280176 
L 321.791892 111.101922 
L 325.788594 130.534975 
L 329.785285 111.785694 
L 333.781975 124.976625 
L 337.778677 164.840392 
L 341.775368 147.108245 
L 345.772058 146.588682 
L 349.76876 169.176427 
L 353.765451 126.526986 
L 357.762141 139.733656 
L 361.758843 141.134066 
L 365.755534 105.942684 
L 369.752224 135.919313 
L 373.748914 127.784558 
L 377.745605 144.522331 
L 381.742319 105.789861 
L 385.739009 122.880642 
L 389.7357 132.913515 
L 393.73239 124.494595 
L 397.72908 165.703973 
L 401.725771 172.227247 
L 405.722485 120.581669 
L 409.719175 151.095217 
L 413.715866 142.15357 
L 417.712556 162.344574 
L 421.709246 166.71436 
L 425.705937 139.979101 
L 429.702627 136.986737 
L 433.699341 161.463947 
L 437.696032 139.44641 
L 441.692722 145.714373 
L 445.689412 141.129964 
L 449.686103 114.681175 
L 453.682793 121.548128 
L 457.679507 121.356447 
L 461.676198 117.025054 
L 465.672888 143.137989 
L 469.669578 152.833157 
L 473.666269 152.824175 
L 477.662959 146.732718 
L 481.659673 151.966554 
L 485.656364 166.414241 
" clip-path="url(#p105939a5a3)" style="fill: none; stroke: #1f77b4; stroke-width: 2.2; stroke-linecap: square"/>
   </g>
   <g id="line2d_15">
    <path d="M 89.983636 109.146654 
L 93.980327 131.27816 
L 97.977023 144.060631 
L 101.973713 121.081181 
L 105.97041 109.855155 
L 109.967106 145.337638 
L 113.963796 118.393234 
L 117.960493 148.109374 
L 121.957186 130.400286 
L 125.953882 147.248604 
L 129.950576 127.524213 
L 133.947269 125.069582 
L 137.943962 135.621144 
L 141.940659 145.121371 
L 145.937352 119.594406 
L 149.934045 141.835408 
L 153.93074 125.653295 
L 157.927434 113.368704 
L 161.924129 133.679393 
L 165.920823 77.724103 
L 169.917517 152.248264 
L 173.914211 135.077512 
L 177.910906 130.815429 
L 181.9076 123.910694 
L 185.904294 105.89483 
L 189.900988 151.011658 
L 193.897681 147.913562 
L 197.894377 113.253509 
L 201.891071 112.34749 
L 205.887764 109.476857 
L 209.884457 107.2076 
L 213.881154 147.03898 
L 217.877847 73.71 
L 221.874543 114.085266 
L 225.871234 129.212093 
L 229.86793 95.546042 
L 233.864626 105.000141 
L 237.861317 116.862412 
L 241.858013 124.390624 
L 245.854704 164.042277 
L 249.8514 150.553099 
L 253.848096 123.53133 
L 257.844787 127.667829 
L 261.841483 99.574574 
L 265.838179 124.582168 
L 269.83487 124.456112 
L 273.83156 114.777924 
L 277.828262 120.695936 
L 281.824953 123.551992 
L 285.821643 116.167708 
L 289.818345 141.76557 
L 293.815036 128.165524 
L 297.811726 89.960236 
L 301.808428 108.25512 
L 305.805119 126.518966 
L 309.801809 147.751373 
L 313.798511 145.677136 
L 317.795202 148.293719 
L 321.791892 102.836801 
L 325.788594 130.722001 
L 329.785285 162.50373 
L 333.781975 137.595514 
L 337.778677 125.94014 
L 341.775368 123.393723 
L 345.772058 106.278512 
L 349.76876 103.340736 
L 353.765451 153.855906 
L 357.762141 130.334329 
L 361.758843 130.352126 
L 365.755534 123.332317 
L 369.752224 132.163049 
L 373.748914 171.127038 
L 377.745605 145.818688 
L 381.742319 161.703127 
L 385.739009 133.76958 
L 389.7357 131.312879 
L 393.73239 200.07 
L 397.72908 131.745034 
L 401.725771 177.288063 
L 405.722485 156.53023 
L 409.719175 151.137044 
L 413.715866 131.662209 
L 417.712556 175.416442 
L 421.709246 127.916219 
L 425.705937 123.955554 
L 429.702627 134.613691 
L 433.699341 148.795702 
L 437.696032 126.638273 
L 441.692722 128.992668 
L 445.689412 126.658926 
L 449.686103 140.133143 
L 453.682793 146.345859 
L 457.679507 91.084663 
L 461.676198 159.819721 
L 465.672888 151.371332 
L 469.669578 157.986787 
L 473.666269 92.924841 
L 477.662959 116.884952 
L 481.659673 124.670555 
L 485.656364 145.148596 
" clip-path="url(#p105939a5a3)" style="fill: none; stroke: #ff7f0e; stroke-width: 2.2; stroke-linecap: square"/>
   </g>
   <g id="patch_3">
    <path d="M 70.2 206.388 
L 70.2 67.392 
" style="fill: none; stroke: #000000; stroke-width: 0.8; stroke-linejoin: miter; stroke-linecap: square"/>
   </g>
   <g id="patch_4">
    <path d="M 505.44 206.388 
L 505.44 67.392 
" style="fill: none; stroke: #000000; stroke-width: 0.8; stroke-linejoin: miter; stroke-linecap: square"/>
   </g>
   <g id="patch_5">
    <path d="M 70.2 206.388 
L 505.44 206.388 
" style="fill: none; stroke: #000000; stroke-width: 0.8; stroke-linejoin: miter; stroke-linecap: square"/>
   </g>
   <g id="patch_6">
    <path d="M 70.2 67.392 
L 505.44 67.392 
" style="fill: none; stroke: #000000; stroke-width: 0.8; stroke-linejoin: miter; stroke-linecap: square"/>
   </g>
   <g id="text_12">
    <!-- (SLIP vs SSC) — R-flow — Panel A: overlay + null bands -->
    <g transform="translate(122.014688 61.392) scale(0.12 -0.12)">
     <defs>
      <path id="DejaVuSans-53" d="M 3425 4513 
L 3425 3897 
Q 3066 4069 2747 4153 
Q 2428 4238 2131 4238 
Q 1616 4238 1336 4038 
Q 1056 3838 1056 3469 
Q 1056 3159 1242 3001 
Q 1428 2844 1947 2747 
L 2328 2669 
Q 3034 2534 3370 2195 
Q 3706 1856 3706 1288 
Q 3706 609 3251 259 
Q 2797 -91 1919 -91 
Q 1588 -91 1214 -16 
Q 841 59 441 206 
L 441 856 
Q 825 641 1194 531 
Q 1563 422 1919 422 
Q 2459 422 2753 634 
Q 3047 847 3047 1241 
Q 3047 1584 2836 1778 
Q 2625 1972 2144 2069 
L 1759 2144 
Q 1053 2284 737 2584 
Q 422 2884 422 3419 
Q 422 4038 858 4394 
Q 1294 4750 2059 4750 
Q 2388 4750 2728 4690 
Q 3069 4631 3425 4513 
z
" transform="scale(0.015625)"/>
      <path id="DejaVuSans-49" d="M 628 4666 
L 1259 4666 
L 1259 0 
L 628 0 
L 628 4666 
z
" transform="scale(0.015625)"/>
      <path id="DejaVuSans-50" d="M 1259 4147 
L 1259 2394 
L 2053 2394 
Q 2494 2394 2734 2622 
Q 2975 2850 2975 3272 
Q 2975 3691 2734 3919 
Q 2494 4147 2053 4147 
L 1259 4147 
z
M 628 4666 
L 2053 4666 
Q 2838 4666 3239 4311 
Q 3641 3956 3641 3272 
Q 3641 2581 3239 2228 
Q 2838 1875 2053 1875 
L 1259 1875 
L 1259 0 
L 628 0 
L 628 4666 
z
" transform="scale(0.015625)"/>
      <path id="DejaVuSans-76" d="M 191 3500 
L 800 3500 
L 1894 563 
L 2988 3500 
L 3597 3500 
L 2284 0 
L 1503 0 
L 191 3500 
z
" transform="scale(0.015625)"/>
      <path id="DejaVuSans-43" d="M 4122 4306 
L 4122 3641 
Q 3803 3938 3442 4084 
Q 3081 4231 2675 4231 
Q 1875 4231 1450 3742 
Q 1025 3253 1025 2328 
Q 1025 1406 1450 917 
Q 1875 428 2675 428 
Q 3081 428 3442 575 
Q 3803 722 4122 1019 
L 4122 359 
Q 3791 134 3420 21 
Q 3050 -91 2638 -91 
Q 1578 -91 968 557 
Q 359 1206 359 2328 
Q 359 3453 968 4101 
Q 1578 4750 2638 4750 
Q 3056 4750 3426 4639 
Q 3797 4528 4122 4306 
z
" transform="scale(0.015625)"/>
      <path id="DejaVuSans-2014" d="M 313 1978 
L 6088 1978 
L 6088 1528 
L 313 1528 
L 313 1978 
z
" transform="scale(0.015625)"/>
      <path id="DejaVuSans-52" d="M 2841 2188 
Q 3044 2119 3236 1894 
Q 3428 1669 3622 1275 
L 4263 0 
L 3584 0 
L 2988 1197 
Q 2756 1666 2539 1819 
Q 2322 1972 1947 1972 
L 1259 1972 
L 1259 0 
L 628 0 
L 628 4666 
L 2053 4666 
Q 2853 4666 3247 4331 
Q 3641 3997 3641 3322 
Q 3641 2881 3436 2590 
Q 3231 2300 2841 2188 
z
M 1259 4147 
L 1259 2491 
L 2053 2491 
Q 2509 2491 2742 2702 
Q 2975 2913 2975 3322 
Q 2975 3731 2742 3939 
Q 2509 4147 2053 4147 
L 1259 4147 
z
" transform="scale(0.015625)"/>
      <path id="DejaVuSans-2d" d="M 313 2009 
L 1997 2009 
L 1997 1497 
L 313 1497 
L 313 2009 
z
" transform="scale(0.015625)"/>
      <path id="DejaVuSans-66" d="M 2375 4863 
L 2375 4384 
L 1825 4384 
Q 1516 4384 1395 4259 
Q 1275 4134 1275 3809 
L 1275 3500 
L 2222 3500 
L 2222 3053 
L 1275 3053 
L 1275 0 
L 697 0 
L 697 3053 
L 147 3053 
L 147 3500 
L 697 3500 
L 697 3744 
Q 697 4328 969 4595 
Q 1241 4863 1831 4863 
L 2375 4863 
z
" transform="scale(0.015625)"/>
      <path id="DejaVuSans-6c" d="M 603 4863 
L 1178 4863 
L 1178 0 
L 603 0 
L 603 4863 
z
" transform="scale(0.015625)"/>
      <path id="DejaVuSans-6f" d="M 1959 3097 
Q 1497 3097 1228 2736 
Q 959 2375 959 1747 
Q 959 1119 1226 758 
Q 1494 397 1959 397 
Q 2419 397 2687 759 
Q 2956 1122 2956 1747 
Q 2956 2369 2687 2733 
Q 2419 3097 1959 3097 
z
M 1959 3584 
Q 2709 3584 3137 3096 
Q 3566 2609 3566 1747 
Q 3566 888 3137 398 
Q 2709 -91 1959 -91 
Q 1206 -91 779 398 
Q 353 888 353 1747 
Q 353 2609 779 3096 
Q 1206 3584 1959 3584 
z
" transform="scale(0.015625)"/>
      <path id="DejaVuSans-77" d="M 269 3500 
L 844 3500 
L 1563 769 
L 2278 3500 
L 2956 3500 
L 3675 769 
L 4391 3500 
L 4966 3500 
L 4050 0 
L 3372 0 
L 2619 2869 
L 1863 0 
L 1184 0 
L 269 3500 
z
" transform="scale(0.015625)"/>
      <path id="DejaVuSans-61" d="M 2194 1759 
Q 1497 1759 1228 1600 
Q 959 1441 959 1056 
Q 959 750 1161 570 
Q 1363 391 1709 391 
Q 2188 391 2477 730 
Q 2766 1069 2766 1631 
L 2766 1759 
L 2194 1759 
z
M 3341 1997 
L 3341 0 
L 2766 0 
L 2766 531 
Q 2569 213 2275 61 
Q 1981 -91 1556 -91 
Q 1019 -91 701 211 
Q 384 513 384 1019 
Q 384 1609 779 1909 
Q 1175 2209 1959 2209 
L 2766 2209 
L 2766 2266 
Q 2766 2663 2505 2880 
Q 2244 3097 1772 3097 
Q 1472 3097 1187 3025 
Q 903 2953 641 2809 
L 641 3341 
Q 956 3463 1253 3523 
Q 1550 3584 1831 3584 
Q 2591 3584 2966 3190 
Q 3341 2797 3341 1997 
z
" transform="scale(0.015625)"/>
      <path id="DejaVuSans-6e" d="M 3513 2113 
L 3513 0 
L 2938 0 
L 2938 2094 
Q 2938 2591 2744 2837 
Q 2550 3084 2163 3084 
Q 1697 3084 1428 2787 
Q 1159 2491 1159 1978 
L 1159 0 
L 581 0 
L 581 3500 
L 1159 3500 
L 1159 2956 
Q 1366 3272 1645 3428 
Q 1925 3584 2291 3584 
Q 2894 3584 3203 3211 
Q 3513 2838 3513 2113 
z
" transform="scale(0.015625)"/>
      <path id="DejaVuSans-65" d="M 3597 1894 
L 3597 1613 
L 953 1613 
Q 991 1019 1311 708 
Q 1631 397 2203 397 
Q 2534 397 2845 478 
Q 3156 559 3463 722 
L 3463 178 
Q 3153 47 2828 -22 
Q 2503 -91 2169 -91 
Q 1331 -91 842 396 
Q 353 884 353 1716 
Q 353 2575 817 3079 
Q 1281 3584 2069 3584 
Q 2775 3584 3186 3129 
Q 3597 2675 3597 1894 
z
M 3022 2063 
Q 3016 2534 2758 2815 
Q 2500 3097 2075 3097 
Q 1594 3097 1305 2825 
Q 1016 2553 972 2059 
L 3022 2063 
z
" transform="scale(0.015625)"/>
      <path id="DejaVuSans-41" d="M 2188 4044 
L 1331 1722 
L 3047 1722 
L 2188 4044 
z
M 1831 4666 
L 2547 4666 
L 4325 0 
L 3669 0 
L 3244 1197 
L 1141 1197 
L 716 0 
L 50 0 
L 1831 4666 
z
" transform="scale(0.015625)"/>
      <path id="DejaVuSans-3a" d="M 750 794 
L 1409 794 
L 1409 0 
L 750 0 
L 750 794 
z
M 750 3309 
L 1409 3309 
L 1409 2516 
L 750 2516 
L 750 3309 
z
" transform="scale(0.015625)"/>
      <path id="DejaVuSans-72" d="M 2631 2963 
Q 2534 3019 2420 3045 
Q 2306 3072 2169 3072 
Q 1681 3072 1420 2755 
Q 1159 2438 1159 1844 
L 1159 0 
L 581 0 
L 581 3500 
L 1159 3500 
L 1159 2956 
Q 1341 3275 1631 3429 
Q 1922 3584 2338 3584 
Q 2397 3584 2469 3576 
Q 2541 3569 2628 3553 
L 2631 2963 
z
" transform="scale(0.015625)"/>
      <path id="DejaVuSans-79" d="M 2059 -325 
Q 1816 -950 1584 -1140 
Q 1353 -1331 966 -1331 
L 506 -1331 
L 506 -850 
L 844 -850 
Q 1081 -850 1212 -737 
Q 1344 -625 1503 -206 
L 1606 56 
L 191 3500 
L 800 3500 
L 1894 763 
L 2988 3500 
L 3597 3500 
L 2059 -325 
z
" transform="scale(0.015625)"/>
      <path id="DejaVuSans-2b" d="M 2944 4013 
L 2944 2272 
L 4684 2272 
L 4684 1741 
L 2944 1741 
L 2944 0 
L 2419 0 
L 2419 1741 
L 678 1741 
L 678 2272 
L 2419 2272 
L 2419 4013 
L 2944 4013 
z
" transform="scale(0.015625)"/>
      <path id="DejaVuSans-75" d="M 544 1381 
L 544 3500 
L 1119 3500 
L 1119 1403 
Q 1119 906 1312 657 
Q 1506 409 1894 409 
Q 2359 409 2629 706 
Q 2900 1003 2900 1516 
L 2900 3500 
L 3475 3500 
L 3475 0 
L 2900 0 
L 2900 538 
Q 2691 219 2414 64 
Q 2138 -91 1772 -91 
Q 1169 -91 856 284 
Q 544 659 544 1381 
z
M 1991 3584 
L 1991 3584 
z
" transform="scale(0.015625)"/>
      <path id="DejaVuSans-64" d="M 2906 2969 
L 2906 4863 
L 3481 4863 
L 3481 0 
L 2906 0 
L 2906 525 
Q 2725 213 2448 61 
Q 2172 -91 1784 -91 
Q 1150 -91 751 415 
Q 353 922 353 1747 
Q 353 2572 751 3078 
Q 1150 3584 1784 3584 
Q 2172 3584 2448 3432 
Q 2725 3281 2906 2969 
z
M 947 1747 
Q 947 1113 1208 752 
Q 1469 391 1925 391 
Q 2381 391 2643 752 
Q 2906 1113 2906 1747 
Q 2906 2381 2643 2742 
Q 2381 3103 1925 3103 
Q 1469 3103 1208 2742 
Q 947 2381 947 1747 
z
" transform="scale(0.015625)"/>
     </defs>
     <use xlink:href="#DejaVuSans-28"/>
     <use xlink:href="#DejaVuSans-53" transform="translate(39.013672 0)"/>
     <use xlink:href="#DejaVuSans-4c" transform="translate(102.490234 0)"/>
     <use xlink:href="#DejaVuSans-49" transform="translate(158.203125 0)"/>
     <use xlink:href="#DejaVuSans-50" transform="translate(187.695312 0)"/>
     <use xlink:href="#DejaVuSans-20" transform="translate(247.998047 0)"/>
     <use xlink:href="#DejaVuSans-76" transform="translate(279.785156 0)"/>
     <use xlink:href="#DejaVuSans-73" transform="translate(338.964844 0)"/>
     <use xlink:href="#DejaVuSans-20" transform="translate(391.064453 0)"/>
     <use xlink:href="#DejaVuSans-53" transform="translate(422.851562 0)"/>
     <use xlink:href="#DejaVuSans-53" transform="translate(486.328125 0)"/>
     <use xlink:href="#DejaVuSans-43" transform="translate(549.804688 0)"/>
     <use xlink:href="#DejaVuSans-29" transform="translate(619.628906 0)"/>
     <use xlink:href="#DejaVuSans-20" transform="translate(658.642578 0)"/>
     <use xlink:href="#DejaVuSans-2014" transform="translate(690.429688 0)"/>
     <use xlink:href="#DejaVuSans-20" transform="translate(790.429688 0)"/>
     <use xlink:href="#DejaVuSans-52" transform="translate(822.216797 0)"/>
     <use xlink:href="#DejaVuSans-2d" transform="translate(887.699219 0)"/>
     <use xlink:href="#DejaVuSans-66" transform="translate(923.783203 0)"/>
     <use xlink:href="#DejaVuSans-6c" transform="translate(958.988281 0)"/>
     <use xlink:href="#DejaVuSans-6f" transform="translate(986.771484 0)"/>
     <use xlink:href="#DejaVuSans-77" transform="translate(1047.953125 0)"/>
     <use xlink:href="#DejaVuSans-20" transform="translate(1129.740234 0)"/>
     <use xlink:href="#DejaVuSans-2014" transform="translate(1161.527344 0)"/>
     <use xlink:href="#DejaVuSans-20" transform="translate(1261.527344 0)"/>
     <use xlink:href="#DejaVuSans-50" transform="translate(1293.314453 0)"/>
     <use xlink:href="#DejaVuSans-61" transform="translate(1349.117188 0)"/>
     <use xlink:href="#DejaVuSans-6e" transform="translate(1410.396484 0)"/>
     <use xlink:href="#DejaVuSans-65" transform="translate(1473.775391 0)"/>
     <use xlink:href="#DejaVuSans-6c" transform="translate(1535.298828 0)"/>
     <use xlink:href="#DejaVuSans-20" transform="translate(1563.082031 0)"/>
     <use xlink:href="#DejaVuSans-41" transform="translate(1594.869141 0)"/>
     <use xlink:href="#DejaVuSans-3a" transform="translate(1661.527344 0)"/>
     <use xlink:href="#DejaVuSans-20" transform="translate(1695.21875 0)"/>
     <use xlink:href="#DejaVuSans-6f" transform="translate(1727.005859 0)"/>
     <use xlink:href="#DejaVuSans-76" transform="translate(1788.1875 0)"/>
     <use xlink:href="#DejaVuSans-65" transform="translate(1847.367188 0)"/>
     <use xlink:href="#DejaVuSans-72" transform="translate(1908.890625 0)"/>
     <use xlink:href="#DejaVuSans-6c" transform="translate(1950.003906 0)"/>
     <use xlink:href="#DejaVuSans-61" transform="translate(1977.787109 0)"/>
     <use xlink:href="#DejaVuSans-79" transform="translate(2039.066406 0)"/>
     <use xlink:href="#DejaVuSans-20" transform="translate(2098.246094 0)"/>
     <use xlink:href="#DejaVuSans-2b" transform="translate(2130.033203 0)"/>
     <use xlink:href="#DejaVuSans-20" transform="translate(2213.822266 0)"/>
     <use xlink:href="#DejaVuSans-6e" transform="translate(2245.609375 0)"/>
     <use xlink:href="#DejaVuSans-75" transform="translate(2308.988281 0)"/>
     <use xlink:href="#DejaVuSans-6c" transform="translate(2372.367188 0)"/>
     <use xlink:href="#DejaVuSans-6c" transform="translate(2400.150391 0)"/>
     <use xlink:href="#DejaVuSans-20" transform="translate(2427.933594 0)"/>
     <use xlink:href="#DejaVuSans-62" transform="translate(2459.720703 0)"/>
     <use xlink:href="#DejaVuSans-61" transform="translate(2523.197266 0)"/>
     <use xlink:href="#DejaVuSans-6e" transform="translate(2584.476562 0)"/>
     <use xlink:href="#DejaVuSans-64" transform="translate(2647.855469 0)"/>
     <use xlink:href="#DejaVuSans-73" transform="translate(2711.332031 0)"/>
    </g>
   </g>
   <g id="legend_1">
    <g id="patch_7">
     <path d="M 79.2 83.990437 
L 99.2 83.990437 
L 99.2 76.990437 
L 79.2 76.990437 
z
" style="fill: #1f77b4; fill-opacity: 0.15"/>
    </g>
    <g id="text_13">
     <!-- SLIP→SSC null μ±σ -->
     <g transform="translate(107.2 83.990437) scale(0.1 -0.1)">
      <defs>
       <path id="DejaVuSans-2192" d="M 5050 2147 
L 5050 1866 
L 3822 638 
L 3447 1013 
L 4175 1741 
L 366 1741 
L 366 2272 
L 4175 2272 
L 3447 3000 
L 3822 3375 
L 5050 2147 
z
" transform="scale(0.015625)"/>
       <path id="DejaVuSans-3bc" d="M 544 -1331 
L 544 3500 
L 1119 3500 
L 1119 1325 
Q 1119 872 1334 640 
Q 1550 409 1972 409 
Q 2434 409 2667 671 
Q 2900 934 2900 1459 
L 2900 3500 
L 3475 3500 
L 3475 806 
Q 3475 619 3529 530 
Q 3584 441 3700 441 
Q 3728 441 3778 458 
Q 3828 475 3916 513 
L 3916 50 
Q 3788 -22 3673 -56 
Q 3559 -91 3450 -91 
Q 3234 -91 3106 31 
Q 2978 153 2931 403 
Q 2775 156 2548 32 
Q 2322 -91 2016 -91 
Q 1697 -91 1473 31 
Q 1250 153 1119 397 
L 1119 -1331 
L 544 -1331 
z
" transform="scale(0.015625)"/>
       <path id="DejaVuSans-b1" d="M 2944 4013 
L 2944 2803 
L 4684 2803 
L 4684 2272 
L 2944 2272 
L 2944 1063 
L 2419 1063 
L 2419 2272 
L 678 2272 
L 678 2803 
L 2419 2803 
L 2419 4013 
L 2944 4013 
z
M 678 531 
L 4684 531 
L 4684 0 
L 678 0 
L 678 531 
z
" transform="scale(0.015625)"/>
       <path id="DejaVuSans-3c3" d="M 1959 3044 
Q 1484 3044 1228 2700 
Q 959 2341 959 1747 
Q 959 1119 1226 758 
Q 1494 397 1959 397 
Q 2419 397 2687 759 
Q 2956 1122 2956 1747 
Q 2956 2319 2688 2700 
Q 2441 3044 1959 3044 
z
M 1959 3500 
L 3869 3500 
L 3869 2925 
L 3225 2925 
Q 3566 2438 3566 1747 
Q 3566 888 3138 400 
Q 2709 -91 1959 -91 
Q 1206 -91 781 400 
Q 353 888 353 1747 
Q 353 2613 781 3097 
Q 1134 3500 1959 3500 
z
" transform="scale(0.015625)"/>
      </defs>
      <use xlink:href="#DejaVuSans-53"/>
      <use xlink:href="#DejaVuSans-4c" transform="translate(63.476562 0)"/>
      <use xlink:href="#DejaVuSans-49" transform="translate(119.189453 0)"/>
      <use xlink:href="#DejaVuSans-50" transform="translate(148.681641 0)"/>
      <use xlink:href="#DejaVuSans-2192" transform="translate(208.984375 0)"/>
      <use xlink:href="#DejaVuSans-53" transform="translate(292.773438 0)"/>
      <use xlink:href="#DejaVuSans-53" transform="translate(356.25 0)"/>
      <use xlink:href="#DejaVuSans-43" transform="translate(419.726562 0)"/>
      <use xlink:href="#DejaVuSans-20" transform="translate(489.550781 0)"/>
      <use xlink:href="#DejaVuSans-6e" transform="translate(521.337891 0)"/>
      <use xlink:href="#DejaVuSans-75" transform="translate(584.716797 0)"/>
      <use xlink:href="#DejaVuSans-6c" transform="translate(648.095703 0)"/>
      <use xlink:href="#DejaVuSans-6c" transform="translate(675.878906 0)"/>
      <use xlink:href="#DejaVuSans-20" transform="translate(703.662109 0)"/>
      <use xlink:href="#DejaVuSans-3bc" transform="translate(735.449219 0)"/>
      <use xlink:href="#DejaVuSans-b1" transform="translate(799.072266 0)"/>
      <use xlink:href="#DejaVuSans-3c3" transform="translate(882.861328 0)"/>
     </g>
    </g>
    <g id="patch_8">
     <path d="M 79.2 98.668563 
L 99.2 98.668563 
L 99.2 91.668563 
L 79.2 91.668563 
z
" style="fill: #ff7f0e; fill-opacity: 0.15"/>
    </g>
    <g id="text_14">
     <!-- SSC→SLIP null μ±σ -->
     <g transform="translate(107.2 98.668563) scale(0.1 -0.1)">
      <use xlink:href="#DejaVuSans-53"/>
      <use xlink:href="#DejaVuSans-53" transform="translate(63.476562 0)"/>
      <use xlink:href="#DejaVuSans-43" transform="translate(126.953125 0)"/>
      <use xlink:href="#DejaVuSans-2192" transform="translate(196.777344 0)"/>
      <use xlink:href="#DejaVuSans-53" transform="translate(280.566406 0)"/>
      <use xlink:href="#DejaVuSans-4c" transform="translate(344.042969 0)"/>
      <use xlink:href="#DejaVuSans-49" transform="translate(399.755859 0)"/>
      <use xlink:href="#DejaVuSans-50" transform="translate(429.248047 0)"/>
      <use xlink:href="#DejaVuSans-20" transform="translate(489.550781 0)"/>
      <use xlink:href="#DejaVuSans-6e" transform="translate(521.337891 0)"/>
      <use xlink:href="#DejaVuSans-75" transform="translate(584.716797 0)"/>
      <use xlink:href="#DejaVuSans-6c" transform="translate(648.095703 0)"/>
      <use xlink:href="#DejaVuSans-6c" transform="translate(675.878906 0)"/>
      <use xlink:href="#DejaVuSans-20" transform="translate(703.662109 0)"/>
      <use xlink:href="#DejaVuSans-3bc" transform="translate(735.449219 0)"/>
      <use xlink:href="#DejaVuSans-b1" transform="translate(799.072266 0)"/>
      <use xlink:href="#DejaVuSans-3c3" transform="translate(882.861328 0)"/>
     </g>
    </g>
    <g id="line2d_16">
     <path d="M 221.826563 80.490437 
L 231.826563 80.490437 
L 241.826563 80.490437 
" style="fill: none; stroke: #1f77b4; stroke-width: 2.2; stroke-linecap: square"/>
    </g>
    <g id="text_15">
     <!-- SLIP→SSC -->
     <g transform="translate(249.826563 83.990437) scale(0.1 -0.1)">
      <use xlink:href="#DejaVuSans-53"/>
      <use xlink:href="#DejaVuSans-4c" transform="translate(63.476562 0)"/>
      <use xlink:href="#DejaVuSans-49" transform="translate(119.189453 0)"/>
      <use xlink:href="#DejaVuSans-50" transform="translate(148.681641 0)"/>
      <use xlink:href="#DejaVuSans-2192" transform="translate(208.984375 0)"/>
      <use xlink:href="#DejaVuSans-53" transform="translate(292.773438 0)"/>
      <use xlink:href="#DejaVuSans-53" transform="translate(356.25 0)"/>
      <use xlink:href="#DejaVuSans-43" transform="translate(419.726562 0)"/>
     </g>
    </g>
    <g id="line2d_17">
     <path d="M 221.826563 95.168563 
L 231.826563 95.168563 
L 241.826563 95.168563 
" style="fill: none; stroke: #ff7f0e; stroke-width: 2.2; stroke-linecap: square"/>
    </g>
    <g id="text_16">
     <!-- SSC→SLIP -->
     <g transform="translate(249.826563 98.668563) scale(0.1 -0.1)">
      <use xlink:href="#DejaVuSans-53"/>
      <use xlink:href="#DejaVuSans-53" transform="translate(63.476562 0)"/>
      <use xlink:href="#DejaVuSans-43" transform="translate(126.953125 0)"/>
      <use xlink:href="#DejaVuSans-2192" transform="translate(196.777344 0)"/>
      <use xlink:href="#DejaVuSans-53" transform="translate(280.566406 0)"/>
      <use xlink:href="#DejaVuSans-4c" transform="translate(344.042969 0)"/>
      <use xlink:href="#DejaVuSans-49" transform="translate(399.755859 0)"/>
      <use xlink:href="#DejaVuSans-50" transform="translate(429.248047 0)"/>
     </g>
    </g>
   </g>
  </g>
  <g id="axes_2">
   <g id="patch_9">
    <path d="M 70.2 353.106 
L 505.44 353.106 
L 505.44 237.276 
L 70.2 237.276 
z
" style="fill: #ffffff"/>
   </g>
   <g id="matplotlib.axis_3">
    <g id="xtick_7">
     <g id="line2d_18">
      <g>
       <use xlink:href="#m44ea02d356" x="87.985286" y="353.106" style="stroke: #000000; stroke-width: 0.8"/>
      </g>
     </g>
     <g id="text_17">
      <!-- −200 -->
      <g transform="translate(74.251693 367.704438) scale(0.1 -0.1)">
       <use xlink:href="#DejaVuSans-2212"/>
       <use xlink:href="#DejaVuSans-32" transform="translate(83.789062 0)"/>
       <use xlink:href="#DejaVuSans-30" transform="translate(147.412109 0)"/>
       <use xlink:href="#DejaVuSans-30" transform="translate(211.035156 0)"/>
      </g>
     </g>
    </g>
    <g id="xtick_8">
     <g id="line2d_19">
      <g>
       <use xlink:href="#m44ea02d356" x="167.91917" y="353.106" style="stroke: #000000; stroke-width: 0.8"/>
      </g>
     </g>
     <g id="text_18">
      <!-- 0 -->
      <g transform="translate(164.73792 367.704438) scale(0.1 -0.1)">
       <use xlink:href="#DejaVuSans-30"/>
      </g>
     </g>
    </g>
    <g id="xtick_9">
     <g id="line2d_20">
      <g>
       <use xlink:href="#m44ea02d356" x="247.853053" y="353.106" style="stroke: #000000; stroke-width: 0.8"/>
      </g>
     </g>
     <g id="text_19">
      <!-- 200 -->
      <g transform="translate(238.309303 367.704438) scale(0.1 -0.1)">
       <use xlink:href="#DejaVuSans-32"/>
       <use xlink:href="#DejaVuSans-30" transform="translate(63.623047 0)"/>
       <use xlink:href="#DejaVuSans-30" transform="translate(127.246094 0)"/>
      </g>
     </g>
    </g>
    <g id="xtick_10">
     <g id="line2d_21">
      <g>
       <use xlink:href="#m44ea02d356" x="327.786937" y="353.106" style="stroke: #000000; stroke-width: 0.8"/>
      </g>
     </g>
     <g id="text_20">
      <!-- 400 -->
      <g transform="translate(318.243187 367.704438) scale(0.1 -0.1)">
       <use xlink:href="#DejaVuSans-34"/>
       <use xlink:href="#DejaVuSans-30" transform="translate(63.623047 0)"/>
       <use xlink:href="#DejaVuSans-30" transform="translate(127.246094 0)"/>
      </g>
     </g>
    </g>
    <g id="xtick_11">
     <g id="line2d_22">
      <g>
       <use xlink:href="#m44ea02d356" x="407.720821" y="353.106" style="stroke: #000000; stroke-width: 0.8"/>
      </g>
     </g>
     <g id="text_21">
      <!-- 600 -->
      <g transform="translate(398.177071 367.704438) scale(0.1 -0.1)">
       <use xlink:href="#DejaVuSans-36"/>
       <use xlink:href="#DejaVuSans-30" transform="translate(63.623047 0)"/>
       <use xlink:href="#DejaVuSans-30" transform="translate(127.246094 0)"/>
      </g>
     </g>
    </g>
    <g id="xtick_12">
     <g id="line2d_23">
      <g>
       <use xlink:href="#m44ea02d356" x="487.654704" y="353.106" style="stroke: #000000; stroke-width: 0.8"/>
      </g>
     </g>
     <g id="text_22">
      <!-- 800 -->
      <g transform="translate(478.110954 367.704438) scale(0.1 -0.1)">
       <use xlink:href="#DejaVuSans-38"/>
       <use xlink:href="#DejaVuSans-30" transform="translate(63.623047 0)"/>
       <use xlink:href="#DejaVuSans-30" transform="translate(127.246094 0)"/>
      </g>
     </g>
    </g>
   </g>
   <g id="matplotlib.axis_4">
    <g id="ytick_5">
     <g id="line2d_24">
      <g>
       <use xlink:href="#mbc14f90d0c" x="70.2" y="348.945855" style="stroke: #000000; stroke-width: 0.8"/>
      </g>
     </g>
     <g id="text_23">
      <!-- −10 -->
      <g transform="translate(42.095313 352.745074) scale(0.1 -0.1)">
       <use xlink:href="#DejaVuSans-2212"/>
       <use xlink:href="#DejaVuSans-31" transform="translate(83.789062 0)"/>
       <use xlink:href="#DejaVuSans-30" transform="translate(147.412109 0)"/>
      </g>
     </g>
    </g>
    <g id="ytick_6">
     <g id="line2d_25">
      <g>
       <use xlink:href="#mbc14f90d0c" x="70.2" y="323.881566" style="stroke: #000000; stroke-width: 0.8"/>
      </g>
     </g>
     <g id="text_24">
      <!-- −5 -->
      <g transform="translate(48.457813 327.680785) scale(0.1 -0.1)">
       <use xlink:href="#DejaVuSans-2212"/>
       <use xlink:href="#DejaVuSans-35" transform="translate(83.789062 0)"/>
      </g>
     </g>
    </g>
    <g id="ytick_7">
     <g id="line2d_26">
      <g>
       <use xlink:href="#mbc14f90d0c" x="70.2" y="298.817278" style="stroke: #000000; stroke-width: 0.8"/>
      </g>
     </g>
     <g id="text_25">
      <!-- 0 -->
      <g transform="translate(56.8375 302.616497) scale(0.1 -0.1)">
       <use xlink:href="#DejaVuSans-30"/>
      </g>
     </g>
    </g>
    <g id="ytick_8">
     <g id="line2d_27">
      <g>
       <use xlink:href="#mbc14f90d0c" x="70.2" y="273.752989" style="stroke: #000000; stroke-width: 0.8"/>
      </g>
     </g>
     <g id="text_26">
      <!-- 5 -->
      <g transform="translate(56.8375 277.552208) scale(0.1 -0.1)">
       <use xlink:href="#DejaVuSans-35"/>
      </g>
     </g>
    </g>
    <g id="ytick_9">
     <g id="line2d_28">
      <g>
       <use xlink:href="#mbc14f90d0c" x="70.2" y="248.688701" style="stroke: #000000; stroke-width: 0.8"/>
      </g>
     </g>
     <g id="text_27">
      <!-- 10 -->
      <g transform="translate(50.475 252.487919) scale(0.1 -0.1)">
       <use xlink:href="#DejaVuSans-31"/>
       <use xlink:href="#DejaVuSans-30" transform="translate(63.623047 0)"/>
      </g>
     </g>
    </g>
    <g id="text_28">
     <!-- ΔΔLL (bits) -->
     <g transform="translate(36.015625 322.22225) rotate(-90) scale(0.1 -0.1)">
      <use xlink:href="#DejaVuSans-394"/>
      <use xlink:href="#DejaVuSans-394" transform="translate(68.408203 0)"/>
      <use xlink:href="#DejaVuSans-4c" transform="translate(136.816406 0)"/>
      <use xlink:href="#DejaVuSans-4c" transform="translate(192.529297 0)"/>
      <use xlink:href="#DejaVuSans-20" transform="translate(248.242188 0)"/>
      <use xlink:href="#DejaVuSans-28" transform="translate(280.029297 0)"/>
      <use xlink:href="#DejaVuSans-62" transform="translate(319.042969 0)"/>
      <use xlink:href="#DejaVuSans-69" transform="translate(382.519531 0)"/>
      <use xlink:href="#DejaVuSans-74" transform="translate(410.302734 0)"/>
      <use xlink:href="#DejaVuSans-73" transform="translate(449.511719 0)"/>
      <use xlink:href="#DejaVuSans-29" transform="translate(501.611328 0)"/>
     </g>
    </g>
   </g>
   <g id="line2d_29">
    <path d="M 167.91917 353.106 
L 167.91917 237.276 
" clip-path="url(#p7b6d021ce9)" style="fill: none; stroke-dasharray: 2.96,1.28; stroke-dashoffset: 0; stroke: #000000; stroke-width: 0.8"/>
   </g>
   <g id="line2d_30">
    <path d="M 70.2 298.817278 
L 505.44 298.817278 
" clip-path="url(#p7b6d021ce9)" style="fill: none; stroke-dasharray: 0.8,1.32; stroke-dashoffset: 0; stroke: #000000; stroke-width: 0.8"/>
   </g>
   <g id="line2d_31">
    <path d="M 89.983636 302.159316 
L 93.980327 299.661989 
L 97.977023 283.226065 
L 101.973713 327.135152 
L 105.97041 333.88282 
L 109.967106 297.949272 
L 113.963796 284.483623 
L 117.960493 298.132342 
L 121.957186 287.074552 
L 125.953882 275.221251 
L 129.950576 306.151554 
L 133.947269 319.363504 
L 137.943962 304.038573 
L 141.940659 281.84939 
L 145.937352 321.204316 
L 149.934045 308.590442 
L 153.93074 297.991372 
L 157.927434 330.11546 
L 161.924129 291.651438 
L 165.920823 327.381489 
L 169.917517 270.4246 
L 173.914211 275.830137 
L 177.910906 316.538346 
L 181.9076 316.046833 
L 185.904294 341.527502 
L 189.900988 293.071465 
L 193.897681 303.4757 
L 197.894377 316.545245 
L 201.891071 316.003236 
L 205.887764 341.876189 
L 209.884457 294.83425 
L 213.881154 316.685218 
L 217.877847 335.077268 
L 221.874543 299.592602 
L 225.871234 306.026094 
L 229.86793 339.946366 
L 233.864626 322.403652 
L 237.861317 320.93543 
L 241.858013 307.989584 
L 245.854704 293.512533 
L 249.8514 280.678085 
L 253.848096 317.840115 
L 257.844787 301.209737 
L 261.841483 334.801427 
L 265.838179 304.597027 
L 269.83487 282.382275 
L 273.83156 295.0784 
L 277.828262 319.11403 
L 281.824953 316.810179 
L 285.821643 308.29541 
L 289.818345 309.916629 
L 293.815036 284.686508 
L 297.811726 312.999428 
L 301.808428 319.554462 
L 305.805119 305.954197 
L 309.801809 274.719762 
L 313.798511 312.539589 
L 317.795202 291.360818 
L 321.791892 304.971797 
L 325.788594 298.678011 
L 329.785285 261.050728 
L 333.781975 289.42078 
L 337.778677 327.783864 
L 341.775368 316.475999 
L 345.772058 328.833741 
L 349.76876 347.841 
L 353.765451 278.46714 
L 357.762141 305.816369 
L 361.758843 306.845914 
L 365.755534 285.868305 
L 369.752224 301.614333 
L 373.748914 266.542843 
L 377.745605 297.851961 
L 381.742319 257.182165 
L 385.739009 290.708967 
L 389.7357 300.009171 
L 393.73239 242.541 
L 397.72908 324.104376 
L 401.725771 295.048805 
L 405.722485 272.048633 
L 409.719175 298.786132 
L 413.715866 306.629539 
L 417.712556 289.083475 
L 421.709246 327.707827 
L 425.705937 310.749012 
L 429.702627 300.584337 
L 433.699341 308.250528 
L 437.696032 308.354697 
L 441.692722 311.268886 
L 445.689412 309.592955 
L 449.686103 279.864789 
L 453.682793 280.351958 
L 457.679507 321.358782 
L 461.676198 266.950765 
L 465.672888 292.686422 
L 469.669578 294.979692 
L 473.666269 343.420566 
L 477.662959 321.043043 
L 481.659673 319.142902 
L 485.656364 314.652474 
" clip-path="url(#p7b6d021ce9)" style="fill: none; stroke: #d62728; stroke-width: 2.2; stroke-linecap: square"/>
   </g>
   <g id="line2d_32">
    <defs>
     <path id="m6edc06abea" d="M 0 1.25 
C 0.331504 1.25 0.649475 1.118292 0.883883 0.883883 
C 1.118292 0.649475 1.25 0.331504 1.25 0 
C 1.25 -0.331504 1.118292 -0.649475 0.883883 -0.883883 
C 0.649475 -1.118292 0.331504 -1.25 0 -1.25 
C -0.331504 -1.25 -0.649475 -1.118292 -0.883883 -0.883883 
C -1.118292 -0.649475 -1.25 -0.331504 -1.25 0 
C -1.25 0.331504 -1.118292 0.649475 -0.883883 0.883883 
C -0.649475 1.118292 -0.331504 1.25 0 1.25 
z
" style="stroke: #000000"/>
    </defs>
    <g clip-path="url(#p7b6d021ce9)">
     <use xlink:href="#m6edc06abea" x="89.983636" y="302.159316" style="stroke: #000000"/>
     <use xlink:href="#m6edc06abea" x="113.963796" y="284.483623" style="stroke: #000000"/>
     <use xlink:href="#m6edc06abea" x="165.920823" y="327.381489" style="stroke: #000000"/>
     <use xlink:href="#m6edc06abea" x="173.914211" y="275.830137" style="stroke: #000000"/>
     <use xlink:href="#m6edc06abea" x="185.904294" y="341.527502" style="stroke: #000000"/>
     <use xlink:href="#m6edc06abea" x="201.891071" y="316.003236" style="stroke: #000000"/>
     <use xlink:href="#m6edc06abea" x="209.884457" y="294.83425" style="stroke: #000000"/>
     <use xlink:href="#m6edc06abea" x="217.877847" y="335.077268" style="stroke: #000000"/>
     <use xlink:href="#m6edc06abea" x="233.864626" y="322.403652" style="stroke: #000000"/>
     <use xlink:href="#m6edc06abea" x="261.841483" y="334.801427" style="stroke: #000000"/>
     <use xlink:href="#m6edc06abea" x="269.83487" y="282.382275" style="stroke: #000000"/>
     <use xlink:href="#m6edc06abea" x="309.801809" y="274.719762" style="stroke: #000000"/>
     <use xlink:href="#m6edc06abea" x="321.791892" y="304.971797" style="stroke: #000000"/>
     <use xlink:href="#m6edc06abea" x="329.785285" y="261.050728" style="stroke: #000000"/>
     <use xlink:href="#m6edc06abea" x="345.772058" y="328.833741" style="stroke: #000000"/>
     <use xlink:href="#m6edc06abea" x="349.76876" y="347.841" style="stroke: #000000"/>
     <use xlink:href="#m6edc06abea" x="365.755534" y="285.868305" style="stroke: #000000"/>
     <use xlink:href="#m6edc06abea" x="381.742319" y="257.182165" style="stroke: #000000"/>
     <use xlink:href="#m6edc06abea" x="449.686103" y="279.864789" style="stroke: #000000"/>
     <use xlink:href="#m6edc06abea" x="473.666269" y="343.420566" style="stroke: #000000"/>
     <use xlink:href="#m6edc06abea" x="477.662959" y="321.043043" style="stroke: #000000"/>
    </g>
   </g>
   <g id="patch_10">
    <path d="M 70.2 353.106 
L 70.2 237.276 
" style="fill: none; stroke: #000000; stroke-width: 0.8; stroke-linejoin: miter; stroke-linecap: square"/>
   </g>
   <g id="patch_11">
    <path d="M 505.44 353.106 
L 505.44 237.276 
" style="fill: none; stroke: #000000; stroke-width: 0.8; stroke-linejoin: miter; stroke-linecap: square"/>
   </g>
   <g id="patch_12">
    <path d="M 70.2 353.106 
L 505.44 353.106 
" style="fill: none; stroke: #000000; stroke-width: 0.8; stroke-linejoin: miter; stroke-linecap: square"/>
   </g>
   <g id="patch_13">
    <path d="M 70.2 237.276 
L 505.44 237.276 
" style="fill: none; stroke: #000000; stroke-width: 0.8; stroke-linejoin: miter; stroke-linecap: square"/>
   </g>
   <g id="text_29">
    <!-- Panel B: pair-diff with significance dots -->
    <g transform="translate(171.554063 231.276) scale(0.12 -0.12)">
     <defs>
      <path id="DejaVuSans-42" d="M 1259 2228 
L 1259 519 
L 2272 519 
Q 2781 519 3026 730 
Q 3272 941 3272 1375 
Q 3272 1813 3026 2020 
Q 2781 2228 2272 2228 
L 1259 2228 
z
M 1259 4147 
L 1259 2741 
L 2194 2741 
Q 2656 2741 2882 2914 
Q 3109 3088 3109 3444 
Q 3109 3797 2882 3972 
Q 2656 4147 2194 4147 
L 1259 4147 
z
M 628 4666 
L 2241 4666 
Q 2963 4666 3353 4366 
Q 3744 4066 3744 3513 
Q 3744 3084 3544 2831 
Q 3344 2578 2956 2516 
Q 3422 2416 3680 2098 
Q 3938 1781 3938 1306 
Q 3938 681 3513 340 
Q 3088 0 2303 0 
L 628 0 
L 628 4666 
z
" transform="scale(0.015625)"/>
      <path id="DejaVuSans-70" d="M 1159 525 
L 1159 -1331 
L 581 -1331 
L 581 3500 
L 1159 3500 
L 1159 2969 
Q 1341 3281 1617 3432 
Q 1894 3584 2278 3584 
Q 2916 3584 3314 3078 
Q 3713 2572 3713 1747 
Q 3713 922 3314 415 
Q 2916 -91 2278 -91 
Q 1894 -91 1617 61 
Q 1341 213 1159 525 
z
M 3116 1747 
Q 3116 2381 2855 2742 
Q 2594 3103 2138 3103 
Q 1681 3103 1420 2742 
Q 1159 2381 1159 1747 
Q 1159 1113 1420 752 
Q 1681 391 2138 391 
Q 2594 391 2855 752 
Q 3116 1113 3116 1747 
z
" transform="scale(0.015625)"/>
      <path id="DejaVuSans-68" d="M 3513 2113 
L 3513 0 
L 2938 0 
L 2938 2094 
Q 2938 2591 2744 2837 
Q 2550 3084 2163 3084 
Q 1697 3084 1428 2787 
Q 1159 2491 1159 1978 
L 1159 0 
L 581 0 
L 581 4863 
L 1159 4863 
L 1159 2956 
Q 1366 3272 1645 3428 
Q 1925 3584 2291 3584 
Q 2894 3584 3203 3211 
Q 3513 2838 3513 2113 
z
" transform="scale(0.015625)"/>
      <path id="DejaVuSans-67" d="M 2906 1791 
Q 2906 2416 2648 2759 
Q 2391 3103 1925 3103 
Q 1463 3103 1205 2759 
Q 947 2416 947 1791 
Q 947 1169 1205 825 
Q 1463 481 1925 481 
Q 2391 481 2648 825 
Q 2906 1169 2906 1791 
z
M 3481 434 
Q 3481 -459 3084 -895 
Q 2688 -1331 1869 -1331 
Q 1566 -1331 1297 -1286 
Q 1028 -1241 775 -1147 
L 775 -588 
Q 1028 -725 1275 -790 
Q 1522 -856 1778 -856 
Q 2344 -856 2625 -561 
Q 2906 -266 2906 331 
L 2906 616 
Q 2728 306 2450 153 
Q 2172 0 1784 0 
Q 1141 0 747 490 
Q 353 981 353 1791 
Q 353 2603 747 3093 
Q 1141 3584 1784 3584 
Q 2172 3584 2450 3431 
Q 2728 3278 2906 2969 
L 2906 3500 
L 3481 3500 
L 3481 434 
z
" transform="scale(0.015625)"/>
      <path id="DejaVuSans-63" d="M 3122 3366 
L 3122 2828 
Q 2878 2963 2633 3030 
Q 2388 3097 2138 3097 
Q 1578 3097 1268 2742 
Q 959 2388 959 1747 
Q 959 1106 1268 751 
Q 1578 397 2138 397 
Q 2388 397 2633 464 
Q 2878 531 3122 666 
L 3122 134 
Q 2881 22 2623 -34 
Q 2366 -91 2075 -91 
Q 1284 -91 818 406 
Q 353 903 353 1747 
Q 353 2603 823 3093 
Q 1294 3584 2113 3584 
Q 2378 3584 2631 3529 
Q 2884 3475 3122 3366 
z
" transform="scale(0.015625)"/>
     </defs>
     <use xlink:href="#DejaVuSans-50"/>
     <use xlink:href="#DejaVuSans-61" transform="translate(55.802734 0)"/>
     <use xlink:href="#DejaVuSans-6e" transform="translate(117.082031 0)"/>
     <use xlink:href="#DejaVuSans-65" transform="translate(180.460938 0)"/>
     <use xlink:href="#DejaVuSans-6c" transform="translate(241.984375 0)"/>
     <use xlink:href="#DejaVuSans-20" transform="translate(269.767578 0)"/>
     <use xlink:href="#DejaVuSans-42" transform="translate(301.554688 0)"/>
     <use xlink:href="#DejaVuSans-3a" transform="translate(370.158203 0)"/>
     <use xlink:href="#DejaVuSans-20" transform="translate(403.849609 0)"/>
     <use xlink:href="#DejaVuSans-70" transform="translate(435.636719 0)"/>
     <use xlink:href="#DejaVuSans-61" transform="translate(499.113281 0)"/>
     <use xlink:href="#DejaVuSans-69" transform="translate(560.392578 0)"/>
     <use xlink:href="#DejaVuSans-72" transform="translate(588.175781 0)"/>
     <use xlink:href="#DejaVuSans-2d" transform="translate(622.914062 0)"/>
     <use xlink:href="#DejaVuSans-64" transform="translate(658.998047 0)"/>
     <use xlink:href="#DejaVuSans-69" transform="translate(722.474609 0)"/>
     <use xlink:href="#DejaVuSans-66" transform="translate(750.257812 0)"/>
     <use xlink:href="#DejaVuSans-66" transform="translate(785.462891 0)"/>
     <use xlink:href="#DejaVuSans-20" transform="translate(820.667969 0)"/>
     <use xlink:href="#DejaVuSans-77" transform="translate(852.455078 0)"/>
     <use xlink:href="#DejaVuSans-69" transform="translate(934.242188 0)"/>
     <use xlink:href="#DejaVuSans-74" transform="translate(962.025391 0)"/>
     <use xlink:href="#DejaVuSans-68" transform="translate(1001.234375 0)"/>
     <use xlink:href="#DejaVuSans-20" transform="translate(1064.613281 0)"/>
     <use xlink:href="#DejaVuSans-73" transform="translate(1096.400391 0)"/>
     <use xlink:href="#DejaVuSans-69" transform="translate(1148.5 0)"/>
     <use xlink:href="#DejaVuSans-67" transform="translate(1176.283203 0)"/>
     <use xlink:href="#DejaVuSans-6e" transform="translate(1239.759766 0)"/>
     <use xlink:href="#DejaVuSans-69" transform="translate(1303.138672 0)"/>
     <use xlink:href="#DejaVuSans-66" transform="translate(1330.921875 0)"/>
     <use xlink:href="#DejaVuSans-69" transform="translate(1366.126953 0)"/>
     <use xlink:href="#DejaVuSans-63" transform="translate(1393.910156 0)"/>
     <use xlink:href="#DejaVuSans-61" transform="translate(1448.890625 0)"/>
     <use xlink:href="#DejaVuSans-6e" transform="translate(1510.169922 0)"/>
     <use xlink:href="#DejaVuSans-63" transform="translate(1573.548828 0)"/>
     <use xlink:href="#DejaVuSans-65" transform="translate(1628.529297 0)"/>
     <use xlink:href="#DejaVuSans-20" transform="translate(1690.052734 0)"/>
     <use xlink:href="#DejaVuSans-64" transform="translate(1721.839844 0)"/>
     <use xlink:href="#DejaVuSans-6f" transform="translate(1785.316406 0)"/>
     <use xlink:href="#DejaVuSans-74" transform="translate(1846.498047 0)"/>
     <use xlink:href="#DejaVuSans-73" transform="translate(1885.707031 0)"/>
    </g>
   </g>
   <g id="legend_2">
    <g id="line2d_33">
     <path d="M 79.2 250.374437 
L 89.2 250.374437 
L 99.2 250.374437 
" style="fill: none; stroke: #d62728; stroke-width: 2.2; stroke-linecap: square"/>
    </g>
    <g id="text_30">
     <!-- (A→B − B→A) -->
     <g transform="translate(107.2 253.874437) scale(0.1 -0.1)">
      <use xlink:href="#DejaVuSans-28"/>
      <use xlink:href="#DejaVuSans-41" transform="translate(39.013672 0)"/>
      <use xlink:href="#DejaVuSans-2192" transform="translate(107.421875 0)"/>
      <use xlink:href="#DejaVuSans-42" transform="translate(191.210938 0)"/>
      <use xlink:href="#DejaVuSans-20" transform="translate(259.814453 0)"/>
      <use xlink:href="#DejaVuSans-2212" transform="translate(291.601562 0)"/>
      <use xlink:href="#DejaVuSans-20" transform="translate(375.390625 0)"/>
      <use xlink:href="#DejaVuSans-42" transform="translate(407.177734 0)"/>
      <use xlink:href="#DejaVuSans-2192" transform="translate(475.78125 0)"/>
      <use xlink:href="#DejaVuSans-41" transform="translate(559.570312 0)"/>
      <use xlink:href="#DejaVuSans-29" transform="translate(627.978516 0)"/>
     </g>
    </g>
    <g id="line2d_34">
     <g>
      <use xlink:href="#m6edc06abea" x="89.2" y="265.052563" style="stroke: #000000"/>
     </g>
    </g>
    <g id="text_31">
     <!-- p&lt;0.05 (one-sided) -->
     <g transform="translate(107.2 268.552563) scale(0.1 -0.1)">
      <defs>
       <path id="DejaVuSans-3c" d="M 4684 3150 
L 1459 2003 
L 4684 863 
L 4684 294 
L 678 1747 
L 678 2266 
L 4684 3719 
L 4684 3150 
z
" transform="scale(0.015625)"/>
       <path id="DejaVuSans-2e" d="M 684 794 
L 1344 794 
L 1344 0 
L 684 0 
L 684 794 
z
" transform="scale(0.015625)"/>
      </defs>
      <use xlink:href="#DejaVuSans-70"/>
      <use xlink:href="#DejaVuSans-3c" transform="translate(63.476562 0)"/>
      <use xlink:href="#DejaVuSans-30" transform="translate(147.265625 0)"/>
      <use xlink:href="#DejaVuSans-2e" transform="translate(210.888672 0)"/>
      <use xlink:href="#DejaVuSans-30" transform="translate(242.675781 0)"/>
      <use xlink:href="#DejaVuSans-35" transform="translate(306.298828 0)"/>
      <use xlink:href="#DejaVuSans-20" transform="translate(369.921875 0)"/>
      <use xlink:href="#DejaVuSans-28" transform="translate(401.708984 0)"/>
      <use xlink:href="#DejaVuSans-6f" transform="translate(440.722656 0)"/>
      <use xlink:href="#DejaVuSans-6e" transform="translate(501.904297 0)"/>
      <use xlink:href="#DejaVuSans-65" transform="translate(565.283203 0)"/>
      <use xlink:href="#DejaVuSans-2d" transform="translate(626.806641 0)"/>
      <use xlink:href="#DejaVuSans-73" transform="translate(662.890625 0)"/>
      <use xlink:href="#DejaVuSans-69" transform="translate(714.990234 0)"/>
      <use xlink:href="#DejaVuSans-64" transform="translate(742.773438 0)"/>
      <use xlink:href="#DejaVuSans-65" transform="translate(806.25 0)"/>
      <use xlink:href="#DejaVuSans-64" transform="translate(867.773438 0)"/>
      <use xlink:href="#DejaVuSans-29" transform="translate(931.25 0)"/>
     </g>
    </g>
   </g>
  </g>
  <g id="axes_3">
   <g id="patch_14">
    <path d="M 70.2 499.824 
L 505.44 499.824 
L 505.44 383.994 
L 70.2 383.994 
z
" style="fill: #ffffff"/>
   </g>
   <g id="matplotlib.axis_5">
    <g id="xtick_13">
     <g id="line2d_35">
      <g>
       <use xlink:href="#m44ea02d356" x="87.985286" y="499.824" style="stroke: #000000; stroke-width: 0.8"/>
      </g>
     </g>
     <g id="text_32">
      <!-- −200 -->
      <g transform="translate(74.251693 514.422438) scale(0.1 -0.1)">
       <use xlink:href="#DejaVuSans-2212"/>
       <use xlink:href="#DejaVuSans-32" transform="translate(83.789062 0)"/>
       <use xlink:href="#DejaVuSans-30" transform="translate(147.412109 0)"/>
       <use xlink:href="#DejaVuSans-30" transform="translate(211.035156 0)"/>
      </g>
     </g>
    </g>
    <g id="xtick_14">
     <g id="line2d_36">
      <g>
       <use xlink:href="#m44ea02d356" x="167.91917" y="499.824" style="stroke: #000000; stroke-width: 0.8"/>
      </g>
     </g>
     <g id="text_33">
      <!-- 0 -->
      <g transform="translate(164.73792 514.422438) scale(0.1 -0.1)">
       <use xlink:href="#DejaVuSans-30"/>
      </g>
     </g>
    </g>
    <g id="xtick_15">
     <g id="line2d_37">
      <g>
       <use xlink:href="#m44ea02d356" x="247.853053" y="499.824" style="stroke: #000000; stroke-width: 0.8"/>
      </g>
     </g>
     <g id="text_34">
      <!-- 200 -->
      <g transform="translate(238.309303 514.422438) scale(0.1 -0.1)">
       <use xlink:href="#DejaVuSans-32"/>
       <use xlink:href="#DejaVuSans-30" transform="translate(63.623047 0)"/>
       <use xlink:href="#DejaVuSans-30" transform="translate(127.246094 0)"/>
      </g>
     </g>
    </g>
    <g id="xtick_16">
     <g id="line2d_38">
      <g>
       <use xlink:href="#m44ea02d356" x="327.786937" y="499.824" style="stroke: #000000; stroke-width: 0.8"/>
      </g>
     </g>
     <g id="text_35">
      <!-- 400 -->
      <g transform="translate(318.243187 514.422438) scale(0.1 -0.1)">
       <use xlink:href="#DejaVuSans-34"/>
       <use xlink:href="#DejaVuSans-30" transform="translate(63.623047 0)"/>
       <use xlink:href="#DejaVuSans-30" transform="translate(127.246094 0)"/>
      </g>
     </g>
    </g>
    <g id="xtick_17">
     <g id="line2d_39">
      <g>
       <use xlink:href="#m44ea02d356" x="407.720821" y="499.824" style="stroke: #000000; stroke-width: 0.8"/>
      </g>
     </g>
     <g id="text_36">
      <!-- 600 -->
      <g transform="translate(398.177071 514.422438) scale(0.1 -0.1)">
       <use xlink:href="#DejaVuSans-36"/>
       <use xlink:href="#DejaVuSans-30" transform="translate(63.623047 0)"/>
       <use xlink:href="#DejaVuSans-30" transform="translate(127.246094 0)"/>
      </g>
     </g>
    </g>
    <g id="xtick_18">
     <g id="line2d_40">
      <g>
       <use xlink:href="#m44ea02d356" x="487.654704" y="499.824" style="stroke: #000000; stroke-width: 0.8"/>
      </g>
     </g>
     <g id="text_37">
      <!-- 800 -->
      <g transform="translate(478.110954 514.422438) scale(0.1 -0.1)">
       <use xlink:href="#DejaVuSans-38"/>
       <use xlink:href="#DejaVuSans-30" transform="translate(63.623047 0)"/>
       <use xlink:href="#DejaVuSans-30" transform="translate(127.246094 0)"/>
      </g>
     </g>
    </g>
    <g id="text_38">
     <!-- Time (ms) -->
     <g transform="translate(262.620781 528.100563) scale(0.1 -0.1)">
      <defs>
       <path id="DejaVuSans-54" d="M -19 4666 
L 3928 4666 
L 3928 4134 
L 2272 4134 
L 2272 0 
L 1638 0 
L 1638 4134 
L -19 4134 
L -19 4666 
z
" transform="scale(0.015625)"/>
       <path id="DejaVuSans-6d" d="M 3328 2828 
Q 3544 3216 3844 3400 
Q 4144 3584 4550 3584 
Q 5097 3584 5394 3201 
Q 5691 2819 5691 2113 
L 5691 0 
L 5113 0 
L 5113 2094 
Q 5113 2597 4934 2840 
Q 4756 3084 4391 3084 
Q 3944 3084 3684 2787 
Q 3425 2491 3425 1978 
L 3425 0 
L 2847 0 
L 2847 2094 
Q 2847 2600 2669 2842 
Q 2491 3084 2119 3084 
Q 1678 3084 1418 2786 
Q 1159 2488 1159 1978 
L 1159 0 
L 581 0 
L 581 3500 
L 1159 3500 
L 1159 2956 
Q 1356 3278 1631 3431 
Q 1906 3584 2284 3584 
Q 2666 3584 2933 3390 
Q 3200 3197 3328 2828 
z
" transform="scale(0.015625)"/>
      </defs>
      <use xlink:href="#DejaVuSans-54"/>
      <use xlink:href="#DejaVuSans-69" transform="translate(57.958984 0)"/>
      <use xlink:href="#DejaVuSans-6d" transform="translate(85.742188 0)"/>
      <use xlink:href="#DejaVuSans-65" transform="translate(183.154297 0)"/>
      <use xlink:href="#DejaVuSans-20" transform="translate(244.677734 0)"/>
      <use xlink:href="#DejaVuSans-28" transform="translate(276.464844 0)"/>
      <use xlink:href="#DejaVuSans-6d" transform="translate(315.478516 0)"/>
      <use xlink:href="#DejaVuSans-73" transform="translate(412.890625 0)"/>
      <use xlink:href="#DejaVuSans-29" transform="translate(464.990234 0)"/>
     </g>
    </g>
   </g>
   <g id="matplotlib.axis_6">
    <g id="ytick_10">
     <g id="line2d_41">
      <g>
       <use xlink:href="#mbc14f90d0c" x="70.2" y="471.913646" style="stroke: #000000; stroke-width: 0.8"/>
      </g>
     </g>
     <g id="text_39">
      <!-- −2 -->
      <g transform="translate(48.457813 475.712865) scale(0.1 -0.1)">
       <use xlink:href="#DejaVuSans-2212"/>
       <use xlink:href="#DejaVuSans-32" transform="translate(83.789062 0)"/>
      </g>
     </g>
    </g>
    <g id="ytick_11">
     <g id="line2d_42">
      <g>
       <use xlink:href="#mbc14f90d0c" x="70.2" y="440.587527" style="stroke: #000000; stroke-width: 0.8"/>
      </g>
     </g>
     <g id="text_40">
      <!-- 0 -->
      <g transform="translate(56.8375 444.386746) scale(0.1 -0.1)">
       <use xlink:href="#DejaVuSans-30"/>
      </g>
     </g>
    </g>
    <g id="ytick_12">
     <g id="line2d_43">
      <g>
       <use xlink:href="#mbc14f90d0c" x="70.2" y="409.261408" style="stroke: #000000; stroke-width: 0.8"/>
      </g>
     </g>
     <g id="text_41">
      <!-- 2 -->
      <g transform="translate(56.8375 413.060627) scale(0.1 -0.1)">
       <use xlink:href="#DejaVuSans-32"/>
      </g>
     </g>
    </g>
    <g id="text_42">
     <!-- Z (σ from null) -->
     <g transform="translate(42.378125 477.919938) rotate(-90) scale(0.1 -0.1)">
      <defs>
       <path id="DejaVuSans-5a" d="M 359 4666 
L 4025 4666 
L 4025 4184 
L 1075 531 
L 4097 531 
L 4097 0 
L 288 0 
L 288 481 
L 3238 4134 
L 359 4134 
L 359 4666 
z
" transform="scale(0.015625)"/>
      </defs>
      <use xlink:href="#DejaVuSans-5a"/>
      <use xlink:href="#DejaVuSans-20" transform="translate(68.505859 0)"/>
      <use xlink:href="#DejaVuSans-28" transform="translate(100.292969 0)"/>
      <use xlink:href="#DejaVuSans-3c3" transform="translate(139.306641 0)"/>
      <use xlink:href="#DejaVuSans-20" transform="translate(202.685547 0)"/>
      <use xlink:href="#DejaVuSans-66" transform="translate(234.472656 0)"/>
      <use xlink:href="#DejaVuSans-72" transform="translate(269.677734 0)"/>
      <use xlink:href="#DejaVuSans-6f" transform="translate(308.541016 0)"/>
      <use xlink:href="#DejaVuSans-6d" transform="translate(369.722656 0)"/>
      <use xlink:href="#DejaVuSans-20" transform="translate(467.134766 0)"/>
      <use xlink:href="#DejaVuSans-6e" transform="translate(498.921875 0)"/>
      <use xlink:href="#DejaVuSans-75" transform="translate(562.300781 0)"/>
      <use xlink:href="#DejaVuSans-6c" transform="translate(625.679688 0)"/>
      <use xlink:href="#DejaVuSans-6c" transform="translate(653.462891 0)"/>
      <use xlink:href="#DejaVuSans-29" transform="translate(681.246094 0)"/>
     </g>
    </g>
   </g>
   <g id="line2d_44">
    <path d="M 167.91917 499.824 
L 167.91917 383.994 
" clip-path="url(#p88a9ee7ed2)" style="fill: none; stroke-dasharray: 2.96,1.28; stroke-dashoffset: 0; stroke: #000000; stroke-width: 0.8"/>
   </g>
   <g id="line2d_45">
    <path d="M 89.983636 417.98187 
L 93.980327 430.377088 
L 97.977023 418.818797 
L 101.973713 452.630948 
L 105.97041 451.542425 
L 109.967106 441.850348 
L 113.963796 402.146196 
L 117.960493 447.473602 
L 121.957186 414.61153 
L 125.953882 420.806775 
L 129.950576 435.263279 
L 133.947269 449.858756 
L 137.943962 437.967352 
L 141.940659 422.263688 
L 145.937352 449.237934 
L 149.934045 455.799821 
L 153.93074 425.906324 
L 157.927434 454.206948 
L 161.924129 420.239609 
L 165.920823 420.912743 
L 169.917517 414.294629 
L 173.914211 405.624692 
L 177.910906 454.025035 
L 181.9076 443.675972 
L 185.904294 460.590818 
L 189.900988 448.018749 
L 193.897681 451.512964 
L 197.894377 438.150711 
L 201.891071 436.30914 
L 205.887764 465.099823 
L 209.884457 416.330494 
L 213.881154 464.912545 
L 217.877847 424.328946 
L 221.874543 419.444228 
L 225.871234 440.053839 
L 229.86793 447.220615 
L 233.864626 433.175154 
L 237.861317 448.613142 
L 241.858013 436.238576 
L 245.854704 456.411497 
L 249.8514 428.777507 
L 253.848096 450.179079 
L 257.844787 431.660444 
L 261.841483 446.527962 
L 265.838179 435.503186 
L 269.83487 409.637073 
L 273.83156 414.289761 
L 277.828262 449.683619 
L 281.824953 446.371027 
L 285.821643 435.238098 
L 289.818345 455.818215 
L 293.815036 416.841569 
L 297.811726 409.653772 
L 301.808428 432.266878 
L 305.805119 433.846433 
L 309.801809 413.687339 
L 313.798511 463.59514 
L 317.795202 436.204414 
L 321.791892 418.546873 
L 325.788594 436.515223 
L 329.785285 409.707318 
L 333.781975 425.457402 
L 337.778677 456.919115 
L 341.775368 442.404386 
L 345.772058 439.315796 
L 349.76876 461.390542 
L 353.765451 424.114172 
L 357.762141 433.32579 
L 361.758843 431.534042 
L 365.755534 402.371821 
L 369.752224 429.965673 
L 373.748914 422.285712 
L 377.745605 439.6207 
L 381.742319 397.9956 
L 385.739009 416.972356 
L 389.7357 428.181923 
L 393.73239 416.35072 
L 397.72908 464.635999 
L 401.725771 463.9865 
L 405.722485 416.047443 
L 409.719175 445.506511 
L 413.715866 436.454236 
L 417.712556 454.849253 
L 421.709246 458.897725 
L 425.705937 437.3585 
L 429.702627 430.859317 
L 433.699341 453.351692 
L 437.696032 430.574118 
L 441.692722 438.428282 
L 445.689412 433.874502 
L 449.686103 412.41831 
L 453.682793 414.287349 
L 457.679507 414.094181 
L 461.676198 414.957258 
L 465.672888 440.202188 
L 469.669578 449.175141 
L 473.666269 446.750797 
L 477.662959 440.448025 
L 481.659673 444.747449 
L 485.656364 459.700405 
" clip-path="url(#p88a9ee7ed2)" style="fill: none; stroke: #1f77b4; stroke-width: 2; stroke-linecap: square"/>
   </g>
   <g id="line2d_46">
    <path d="M 89.983636 413.775788 
L 93.980327 436.363036 
L 97.977023 447.642933 
L 101.973713 432.780118 
L 105.97041 414.254869 
L 109.967106 448.196018 
L 113.963796 418.816461 
L 117.960493 446.107615 
L 121.957186 428.992827 
L 125.953882 444.167657 
L 129.950576 437.806385 
L 133.947269 430.325458 
L 137.943962 435.603552 
L 141.940659 441.626442 
L 145.937352 418.929455 
L 149.934045 438.999002 
L 153.93074 433.495955 
L 157.927434 427.005019 
L 161.924129 439.026981 
L 165.920823 389.352084 
L 169.917517 446.913739 
L 173.914211 441.726392 
L 177.910906 437.135688 
L 181.9076 428.84781 
L 185.904294 409.020712 
L 189.900988 450.482199 
L 193.897681 444.690906 
L 197.894377 416.034741 
L 201.891071 413.73523 
L 205.887764 420.799388 
L 209.884457 409.006553 
L 213.881154 451.257732 
L 217.877847 405.91419 
L 221.874543 428.469477 
L 225.871234 434.229345 
L 229.86793 416.705739 
L 233.864626 410.649538 
L 237.861317 421.579315 
L 241.858013 431.380478 
L 245.854704 460.103604 
L 249.8514 451.44796 
L 253.848096 433.829967 
L 257.844787 433.726595 
L 261.841483 410.205966 
L 265.838179 432.298356 
L 269.83487 430.959677 
L 273.83156 421.403259 
L 277.828262 421.882916 
L 281.824953 425.753428 
L 285.821643 418.533034 
L 289.818345 441.628341 
L 293.815036 435.017896 
L 297.811726 402.584282 
L 301.808428 413.386096 
L 305.805119 427.336041 
L 309.801809 457.521519 
L 313.798511 444.371658 
L 317.795202 446.529878 
L 321.791892 403.54376 
L 325.788594 429.980981 
L 329.785285 457.359345 
L 333.781975 437.181571 
L 337.778677 431.023551 
L 341.775368 422.071448 
L 345.772058 403.477123 
L 349.76876 402.753771 
L 353.765451 449.159076 
L 357.762141 433.339031 
L 361.758843 430.311028 
L 365.755534 423.995254 
L 369.752224 429.246192 
L 373.748914 467.880742 
L 377.745605 446.181921 
L 381.742319 461.012679 
L 385.739009 430.854664 
L 389.7357 431.654895 
L 393.73239 494.559 
L 397.72908 429.134618 
L 401.725771 474.466053 
L 405.722485 448.881709 
L 409.719175 443.983987 
L 413.715866 426.497309 
L 417.712556 474.396811 
L 421.709246 425.830274 
L 425.705937 419.864598 
L 429.702627 428.956135 
L 433.699341 442.133566 
L 437.696032 428.496015 
L 441.692722 433.19863 
L 445.689412 425.303762 
L 449.686103 442.773539 
L 453.682793 447.265996 
L 457.679507 389.259 
L 461.676198 452.065732 
L 465.672888 445.705892 
L 469.669578 456.03545 
L 473.666269 395.972217 
L 477.662959 412.781264 
L 481.659673 422.345387 
L 485.656364 441.439843 
" clip-path="url(#p88a9ee7ed2)" style="fill: none; stroke: #ff7f0e; stroke-width: 2; stroke-linecap: square"/>
   </g>
   <g id="patch_15">
    <path d="M 70.2 499.824 
L 70.2 383.994 
" style="fill: none; stroke: #000000; stroke-width: 0.8; stroke-linejoin: miter; stroke-linecap: square"/>
   </g>
   <g id="patch_16">
    <path d="M 505.44 499.824 
L 505.44 383.994 
" style="fill: none; stroke: #000000; stroke-width: 0.8; stroke-linejoin: miter; stroke-linecap: square"/>
   </g>
   <g id="patch_17">
    <path d="M 70.2 499.824 
L 505.44 499.824 
" style="fill: none; stroke: #000000; stroke-width: 0.8; stroke-linejoin: miter; stroke-linecap: square"/>
   </g>
   <g id="patch_18">
    <path d="M 70.2 383.994 
L 505.44 383.994 
" style="fill: none; stroke: #000000; stroke-width: 0.8; stroke-linejoin: miter; stroke-linecap: square"/>
   </g>
   <g id="text_43">
    <!-- Panel C: evidence strength vs null -->
    <g transform="translate(185.80125 377.994) scale(0.12 -0.12)">
     <use xlink:href="#DejaVuSans-50"/>
     <use xlink:href="#DejaVuSans-61" transform="translate(55.802734 0)"/>
     <use xlink:href="#DejaVuSans-6e" transform="translate(117.082031 0)"/>
     <use xlink:href="#DejaVuSans-65" transform="translate(180.460938 0)"/>
     <use xlink:href="#DejaVuSans-6c" transform="translate(241.984375 0)"/>
     <use xlink:href="#DejaVuSans-20" transform="translate(269.767578 0)"/>
     <use xlink:href="#DejaVuSans-43" transform="translate(301.554688 0)"/>
     <use xlink:href="#DejaVuSans-3a" transform="translate(371.378906 0)"/>
     <use xlink:href="#DejaVuSans-20" transform="translate(405.070312 0)"/>
     <use xlink:href="#DejaVuSans-65" transform="translate(436.857422 0)"/>
     <use xlink:href="#DejaVuSans-76" transform="translate(498.380859 0)"/>
     <use xlink:href="#DejaVuSans-69" transform="translate(557.560547 0)"/>
     <use xlink:href="#DejaVuSans-64" transform="translate(585.34375 0)"/>
     <use xlink:href="#DejaVuSans-65" transform="translate(648.820312 0)"/>
     <use xlink:href="#DejaVuSans-6e" transform="translate(710.34375 0)"/>
     <use xlink:href="#DejaVuSans-63" transform="translate(773.722656 0)"/>
     <use xlink:href="#DejaVuSans-65" transform="translate(828.703125 0)"/>
     <use xlink:href="#DejaVuSans-20" transform="translate(890.226562 0)"/>
     <use xlink:href="#DejaVuSans-73" transform="translate(922.013672 0)"/>
     <use xlink:href="#DejaVuSans-74" transform="translate(974.113281 0)"/>
     <use xlink:href="#DejaVuSans-72" transform="translate(1013.322266 0)"/>
     <use xlink:href="#DejaVuSans-65" transform="translate(1052.185547 0)"/>
     <use xlink:href="#DejaVuSans-6e" transform="translate(1113.708984 0)"/>
     <use xlink:href="#DejaVuSans-67" transform="translate(1177.087891 0)"/>
     <use xlink:href="#DejaVuSans-74" transform="translate(1240.564453 0)"/>
     <use xlink:href="#DejaVuSans-68" transform="translate(1279.773438 0)"/>
     <use xlink:href="#DejaVuSans-20" transform="translate(1343.152344 0)"/>
     <use xlink:href="#DejaVuSans-76" transform="translate(1374.939453 0)"/>
     <use xlink:href="#DejaVuSans-73" transform="translate(1434.119141 0)"/>
     <use xlink:href="#DejaVuSans-20" transform="translate(1486.21875 0)"/>
     <use xlink:href="#DejaVuSans-6e" transform="translate(1518.005859 0)"/>
     <use xlink:href="#DejaVuSans-75" transform="translate(1581.384766 0)"/>
     <use xlink:href="#DejaVuSans-6c" transform="translate(1644.763672 0)"/>
     <use xlink:href="#DejaVuSans-6c" transform="translate(1672.546875 0)"/>
    </g>
   </g>
   <g id="legend_3">
    <g id="line2d_47">
     <path d="M 79.2 397.092438 
L 89.2 397.092438 
L 99.2 397.092438 
" style="fill: none; stroke: #1f77b4; stroke-width: 2; stroke-linecap: square"/>
    </g>
    <g id="text_44">
     <!-- z(SLIP→SSC) -->
     <g transform="translate(107.2 400.592438) scale(0.1 -0.1)">
      <defs>
       <path id="DejaVuSans-7a" d="M 353 3500 
L 3084 3500 
L 3084 2975 
L 922 459 
L 3084 459 
L 3084 0 
L 275 0 
L 275 525 
L 2438 3041 
L 353 3041 
L 353 3500 
z
" transform="scale(0.015625)"/>
      </defs>
      <use xlink:href="#DejaVuSans-7a"/>
      <use xlink:href="#DejaVuSans-28" transform="translate(52.490234 0)"/>
      <use xlink:href="#DejaVuSans-53" transform="translate(91.503906 0)"/>
      <use xlink:href="#DejaVuSans-4c" transform="translate(154.980469 0)"/>
      <use xlink:href="#DejaVuSans-49" transform="translate(210.693359 0)"/>
      <use xlink:href="#DejaVuSans-50" transform="translate(240.185547 0)"/>
      <use xlink:href="#DejaVuSans-2192" transform="translate(300.488281 0)"/>
      <use xlink:href="#DejaVuSans-53" transform="translate(384.277344 0)"/>
      <use xlink:href="#DejaVuSans-53" transform="translate(447.753906 0)"/>
      <use xlink:href="#DejaVuSans-43" transform="translate(511.230469 0)"/>
      <use xlink:href="#DejaVuSans-29" transform="translate(581.054688 0)"/>
     </g>
    </g>
    <g id="line2d_48">
     <path d="M 79.2 411.770563 
L 89.2 411.770563 
L 99.2 411.770563 
" style="fill: none; stroke: #ff7f0e; stroke-width: 2; stroke-linecap: square"/>
    </g>
    <g id="text_45">
     <!-- z(SSC→SLIP) -->
     <g transform="translate(107.2 415.270563) scale(0.1 -0.1)">
      <use xlink:href="#DejaVuSans-7a"/>
      <use xlink:href="#DejaVuSans-28" transform="translate(52.490234 0)"/>
      <use xlink:href="#DejaVuSans-53" transform="translate(91.503906 0)"/>
      <use xlink:href="#DejaVuSans-53" transform="translate(154.980469 0)"/>
      <use xlink:href="#DejaVuSans-43" transform="translate(218.457031 0)"/>
      <use xlink:href="#DejaVuSans-2192" transform="translate(288.28125 0)"/>
      <use xlink:href="#DejaVuSans-53" transform="translate(372.070312 0)"/>
      <use xlink:href="#DejaVuSans-4c" transform="translate(435.546875 0)"/>
      <use xlink:href="#DejaVuSans-49" transform="translate(491.259766 0)"/>
      <use xlink:href="#DejaVuSans-50" transform="translate(520.751953 0)"/>
      <use xlink:href="#DejaVuSans-29" transform="translate(581.054688 0)"/>
     </g>
    </g>
   </g>
  </g>
 </g>
 <defs>
  <clipPath id="p105939a5a3">
   <rect x="70.2" y="67.392" width="435.24" height="138.996"/>
  </clipPath>
  <clipPath id="p7b6d021ce9">
   <rect x="70.2" y="237.276" width="435.24" height="115.83"/>
  </clipPath>
  <clipPath id="p88a9ee7ed2">
   <rect x="70.2" y="383.994" width="435.24" height="115.83"/>
  </clipPath>
 </defs>
</svg>
