<?xml version="1.0" encoding="utf-8" standalone="no"?>
<!DOCTYPE svg PUBLIC "-//W3C//DTD SVG 1.1//EN"
  "http://www.w3.org/Graphics/SVG/1.1/DTD/svg11.dtd">
<svg xmlns:xlink="http://www.w3.org/1999/xlink" width="561.6pt" height="561.6pt" viewBox="0 0 561.6 561.6" xmlns="http://www.w3.org/2000/svg" version="1.1">
 <metadata>
  <rdf:RDF xmlns:dc="http://purl.org/dc/elements/1.1/" xmlns:cc="http://creativecommons.org/ns#" xmlns:rdf="http://www.w3.org/1999/02/22-rdf-syntax-ns#">
   <cc:Work>
    <dc:type rdf:resource="http://purl.org/dc/dcmitype/StillImage"/>
    <dc:date>2025-12-07T13:56:34.215003</dc:date>
    <dc:format>image/svg+xml</dc:format>
    <dc:creator>
     <cc:Agent>
      <dc:title>Matplotlib v3.10.5, https://matplotlib.org/</dc:title>
     </cc:Agent>
    </dc:creator>
   </cc:Work>
  </rdf:RDF>
 </metadata>
 <defs>
  <style type="text/css">*{stroke-linejoin: round; stroke-linecap: butt}</style>
 </defs>
 <g id="figure_1">
  <g id="patch_1">
   <path d="M 0 561.6 
L 561.6 561.6 
L 561.6 0 
L 0 0 
z
" style="fill: #ffffff"/>
  </g>
  <g id="axes_1">
   <g id="patch_2">
    <path d="M 70.2 206.388 
L 505.44 206.388 
L 505.44 67.392 
L 70.2 67.392 
z
" style="fill: #ffffff"/>
   </g>
   <g id="FillBetweenPolyCollection_1">
    <defs>
     <path id="m5ad9d36ae6" d="M 89.983636 -451.977524 
L 89.983636 -407.608046 
L 93.980327 -403.512185 
L 97.977023 -409.88569 
L 101.973713 -404.189577 
L 105.97041 -402.159712 
L 109.967106 -402.424743 
L 113.963796 -406.964021 
L 117.960493 -403.187994 
L 121.957186 -407.823431 
L 125.953882 -402.884582 
L 129.950576 -404.619953 
L 133.947269 -406.974192 
L 137.943962 -405.369652 
L 141.940659 -403.533759 
L 145.937352 -398.148913 
L 149.934045 -400.334145 
L 153.93074 -405.246921 
L 157.927434 -408.323848 
L 161.924129 -405.581706 
L 165.920823 -405.51844 
L 169.917517 -405.676044 
L 173.914211 -404.1566 
L 177.910906 -400.917332 
L 181.9076 -405.313834 
L 185.904294 -406.789855 
L 189.900988 -404.062035 
L 193.897681 -407.161268 
L 197.894377 -405.294888 
L 201.891071 -402.141387 
L 205.887764 -409.069715 
L 209.884457 -404.093245 
L 213.881154 -405.169636 
L 217.877847 -405.000839 
L 221.874543 -403.572512 
L 225.871234 -404.00516 
L 229.86793 -404.287556 
L 233.864626 -401.780406 
L 237.861317 -408.442651 
L 241.858013 -405.034953 
L 245.854704 -403.291575 
L 249.8514 -402.408517 
L 253.848096 -403.478396 
L 257.844787 -404.475381 
L 261.841483 -408.077296 
L 265.838179 -405.872178 
L 269.83487 -406.652181 
L 273.83156 -405.511722 
L 277.828262 -405.218916 
L 281.824953 -405.742391 
L 285.821643 -401.097672 
L 289.818345 -402.585736 
L 293.815036 -405.792216 
L 297.811726 -405.55654 
L 301.808428 -404.725171 
L 305.805119 -401.884884 
L 309.801809 -407.482186 
L 313.798511 -404.294049 
L 317.795202 -405.443002 
L 321.791892 -408.683168 
L 325.788594 -403.729177 
L 329.785285 -404.36117 
L 333.781975 -403.724129 
L 337.778677 -407.88617 
L 341.775368 -408.263309 
L 345.772058 -403.737305 
L 349.76876 -403.321066 
L 353.765451 -400.663123 
L 357.762141 -404.864421 
L 361.758843 -404.676169 
L 365.755534 -403.203785 
L 369.752224 -406.698825 
L 373.748914 -402.791557 
L 377.745605 -405.984318 
L 381.742319 -400.902913 
L 385.739009 -402.371278 
L 389.7357 -405.664363 
L 393.73239 -405.80092 
L 397.72908 -400.145244 
L 401.725771 -407.383228 
L 405.722485 -402.994815 
L 409.719175 -403.331111 
L 413.715866 -402.161924 
L 417.712556 -407.297385 
L 421.709246 -404.683179 
L 425.705937 -404.599793 
L 429.702627 -405.756925 
L 433.699341 -405.347348 
L 437.696032 -400.33939 
L 441.692722 -402.842789 
L 445.689412 -403.329836 
L 449.686103 -401.098648 
L 453.682793 -407.127536 
L 457.679507 -400.566674 
L 461.676198 -400.910262 
L 465.672888 -404.181241 
L 469.669578 -406.452915 
L 473.666269 -403.35009 
L 477.662959 -404.896919 
L 481.659673 -404.030894 
L 485.656364 -406.522611 
L 485.656364 -451.2818 
L 485.656364 -451.2818 
L 481.659673 -450.850559 
L 477.662959 -450.49273 
L 473.666269 -454.010564 
L 469.669578 -454.259764 
L 465.672888 -450.107666 
L 461.676198 -448.826326 
L 457.679507 -446.221509 
L 453.682793 -455.100645 
L 449.686103 -449.19376 
L 445.689412 -449.677102 
L 441.692722 -450.344894 
L 437.696032 -451.556571 
L 433.699341 -450.619575 
L 429.702627 -451.256008 
L 425.705937 -450.548404 
L 421.709246 -450.629113 
L 417.712556 -451.55198 
L 413.715866 -456.868455 
L 409.719175 -448.446943 
L 405.722485 -449.880633 
L 401.725771 -452.477207 
L 397.72908 -447.837879 
L 393.73239 -450.466413 
L 389.7357 -450.285747 
L 385.739009 -448.599865 
L 381.742319 -450.298237 
L 377.745605 -451.954691 
L 373.748914 -450.776835 
L 369.752224 -451.791516 
L 365.755534 -449.794002 
L 361.758843 -446.932991 
L 357.762141 -448.875478 
L 353.765451 -449.805816 
L 349.76876 -451.001407 
L 345.772058 -451.623233 
L 341.775368 -453.651825 
L 337.778677 -456.216795 
L 333.781975 -449.891132 
L 329.785285 -449.06644 
L 325.788594 -450.844086 
L 321.791892 -454.236195 
L 317.795202 -452.578811 
L 313.798511 -452.081348 
L 309.801809 -453.53769 
L 305.805119 -450.162081 
L 301.808428 -450.395572 
L 297.811726 -449.849124 
L 293.815036 -451.591648 
L 289.818345 -450.433673 
L 285.821643 -448.436932 
L 281.824953 -450.228937 
L 277.828262 -453.571575 
L 273.83156 -448.415863 
L 269.83487 -455.51499 
L 265.838179 -451.675354 
L 261.841483 -452.557607 
L 257.844787 -450.035642 
L 253.848096 -446.508849 
L 249.8514 -449.634403 
L 245.854704 -448.984326 
L 241.858013 -451.51794 
L 237.861317 -453.297978 
L 233.864626 -446.655369 
L 229.86793 -451.939897 
L 225.871234 -451.727051 
L 221.874543 -450.261181 
L 217.877847 -453.095158 
L 213.881154 -451.34339 
L 209.884457 -446.000356 
L 205.887764 -456.786615 
L 201.891071 -449.111908 
L 197.894377 -454.718576 
L 193.897681 -451.934097 
L 189.900988 -452.258546 
L 185.904294 -455.501252 
L 181.9076 -452.613124 
L 177.910906 -447.425317 
L 173.914211 -447.1926 
L 169.917517 -450.317794 
L 165.920823 -449.513898 
L 161.924129 -452.60759 
L 157.927434 -456.727574 
L 153.93074 -450.742126 
L 149.934045 -448.50215 
L 145.937352 -451.803455 
L 141.940659 -448.467858 
L 137.943962 -455.478847 
L 133.947269 -455.676694 
L 129.950576 -449.940774 
L 125.953882 -449.481464 
L 121.957186 -452.919837 
L 117.960493 -450.9726 
L 113.963796 -453.093515 
L 109.967106 -448.730494 
L 105.97041 -449.554076 
L 101.973713 -449.208548 
L 97.977023 -458.488151 
L 93.980327 -450.72111 
L 89.983636 -451.977524 
z
"/>
    </defs>
    <g clip-path="url(#p41798a8ddf)">
     <use xlink:href="#m5ad9d36ae6" x="0" y="561.6" style="fill: #1f77b4; fill-opacity: 0.15"/>
    </g>
   </g>
   <g id="FillBetweenPolyCollection_2">
    <defs>
     <path id="m655bcacac3" d="M 89.983636 -456.053808 
L 89.983636 -406.552768 
L 93.980327 -407.148764 
L 97.977023 -407.268387 
L 101.973713 -401.2806 
L 105.97041 -403.480698 
L 109.967106 -406.24411 
L 113.963796 -404.315687 
L 117.960493 -403.467728 
L 121.957186 -402.973098 
L 125.953882 -406.059805 
L 129.950576 -403.696265 
L 133.947269 -402.269596 
L 137.943962 -407.695222 
L 141.940659 -406.391142 
L 145.937352 -406.259342 
L 149.934045 -403.635197 
L 153.93074 -404.292923 
L 157.927434 -400.877225 
L 161.924129 -407.114104 
L 165.920823 -405.070753 
L 169.917517 -403.119388 
L 173.914211 -406.138956 
L 177.910906 -406.697638 
L 181.9076 -402.996194 
L 185.904294 -406.771983 
L 189.900988 -402.937604 
L 193.897681 -403.699921 
L 197.894377 -407.745923 
L 201.891071 -406.191513 
L 205.887764 -404.669891 
L 209.884457 -405.277398 
L 213.881154 -402.590831 
L 217.877847 -402.443182 
L 221.874543 -402.387683 
L 225.871234 -404.373841 
L 229.86793 -403.750271 
L 233.864626 -406.28565 
L 237.861317 -404.12677 
L 241.858013 -406.259403 
L 245.854704 -401.964992 
L 249.8514 -406.919842 
L 253.848096 -406.969302 
L 257.844787 -401.613705 
L 261.841483 -399.870574 
L 265.838179 -407.866782 
L 269.83487 -404.018084 
L 273.83156 -404.621687 
L 277.828262 -410.255066 
L 281.824953 -406.162737 
L 285.821643 -409.03685 
L 289.818345 -405.569665 
L 293.815036 -404.951898 
L 297.811726 -404.523737 
L 301.808428 -405.440473 
L 305.805119 -404.958444 
L 309.801809 -401.337592 
L 313.798511 -404.664975 
L 317.795202 -406.965257 
L 321.791892 -405.84307 
L 325.788594 -410.957015 
L 329.785285 -407.606549 
L 333.781975 -403.559392 
L 337.778677 -405.03013 
L 341.775368 -405.950414 
L 345.772058 -404.075916 
L 349.76876 -409.175547 
L 353.765451 -402.639971 
L 357.762141 -406.266656 
L 361.758843 -404.126206 
L 365.755534 -408.007394 
L 369.752224 -411.019146 
L 373.748914 -404.704937 
L 377.745605 -406.483611 
L 381.742319 -405.848222 
L 385.739009 -404.988499 
L 389.7357 -408.217883 
L 393.73239 -404.860236 
L 397.72908 -407.130247 
L 401.725771 -402.17163 
L 405.722485 -407.055358 
L 409.719175 -404.100046 
L 413.715866 -407.393821 
L 417.712556 -406.680173 
L 421.709246 -407.095949 
L 425.705937 -402.838481 
L 429.702627 -403.710856 
L 433.699341 -405.565533 
L 437.696032 -401.834983 
L 441.692722 -408.310865 
L 445.689412 -401.154798 
L 449.686103 -403.961123 
L 453.682793 -400.168055 
L 457.679507 -406.745426 
L 461.676198 -404.896994 
L 465.672888 -406.715338 
L 469.669578 -407.873039 
L 473.666269 -408.211326 
L 477.662959 -404.598487 
L 481.659673 -405.106388 
L 485.656364 -404.513717 
L 485.656364 -455.008766 
L 485.656364 -455.008766 
L 481.659673 -446.122435 
L 477.662959 -448.953869 
L 473.666269 -452.961488 
L 469.669578 -450.027042 
L 465.672888 -446.623494 
L 461.676198 -447.382618 
L 457.679507 -452.998556 
L 453.682793 -446.808018 
L 449.686103 -447.315078 
L 445.689412 -443.549521 
L 441.692722 -450.011402 
L 437.696032 -444.844249 
L 433.699341 -452.891207 
L 429.702627 -447.207145 
L 425.705937 -447.008393 
L 421.709246 -450.239227 
L 417.712556 -447.620264 
L 413.715866 -451.172638 
L 409.719175 -450.958941 
L 405.722485 -452.020532 
L 401.725771 -443.333101 
L 397.72908 -451.608863 
L 393.73239 -448.823691 
L 389.7357 -453.492783 
L 385.739009 -453.221784 
L 381.742319 -452.021028 
L 377.745605 -451.236095 
L 373.748914 -449.328347 
L 369.752224 -460.276967 
L 365.755534 -456.419157 
L 361.758843 -447.830387 
L 357.762141 -450.930791 
L 353.765451 -446.310299 
L 349.76876 -452.485331 
L 345.772058 -449.463008 
L 341.775368 -452.302184 
L 337.778677 -448.031951 
L 333.781975 -448.912847 
L 329.785285 -453.58416 
L 325.788594 -457.321676 
L 321.791892 -451.864521 
L 317.795202 -448.579744 
L 313.798511 -449.391906 
L 309.801809 -446.340393 
L 305.805119 -450.724164 
L 301.808428 -456.476133 
L 297.811726 -446.946679 
L 293.815036 -450.522907 
L 289.818345 -454.074303 
L 285.821643 -450.466045 
L 281.824953 -450.361142 
L 277.828262 -456.596609 
L 273.83156 -450.96969 
L 269.83487 -448.65085 
L 265.838179 -457.033887 
L 261.841483 -445.089624 
L 257.844787 -445.679475 
L 253.848096 -450.516147 
L 249.8514 -450.473383 
L 245.854704 -444.760075 
L 241.858013 -450.875586 
L 237.861317 -449.080862 
L 233.864626 -450.315714 
L 229.86793 -448.473388 
L 225.871234 -448.202089 
L 221.874543 -449.072684 
L 217.877847 -446.459952 
L 213.881154 -448.07397 
L 209.884457 -451.37408 
L 205.887764 -449.217577 
L 201.891071 -448.91946 
L 197.894377 -449.729591 
L 193.897681 -447.390114 
L 189.900988 -451.811634 
L 185.904294 -451.494398 
L 181.9076 -446.094533 
L 177.910906 -450.461897 
L 173.914211 -448.795651 
L 169.917517 -447.797726 
L 165.920823 -450.716721 
L 161.924129 -452.254119 
L 157.927434 -446.896028 
L 153.93074 -447.479629 
L 149.934045 -447.583031 
L 145.937352 -453.807499 
L 141.940659 -453.300962 
L 137.943962 -449.588324 
L 133.947269 -447.061102 
L 129.950576 -448.258495 
L 125.953882 -450.073153 
L 121.957186 -443.614903 
L 117.960493 -451.32552 
L 113.963796 -447.099403 
L 109.967106 -449.66325 
L 105.97041 -445.747014 
L 101.973713 -444.503068 
L 97.977023 -452.851904 
L 93.980327 -449.829577 
L 89.983636 -456.053808 
z
"/>
    </defs>
    <g clip-path="url(#p41798a8ddf)">
     <use xlink:href="#m655bcacac3" x="0" y="561.6" style="fill: #ff7f0e; fill-opacity: 0.15"/>
    </g>
   </g>
   <g id="matplotlib.axis_1">
    <g id="xtick_1">
     <g id="line2d_1">
      <defs>
       <path id="m4ac28097b4" d="M 0 0 
L 0 3.5 
" style="stroke: #000000; stroke-width: 0.8"/>
      </defs>
      <g>
       <use xlink:href="#m4ac28097b4" x="87.985286" y="206.388" style="stroke: #000000; stroke-width: 0.8"/>
      </g>
     </g>
     <g id="text_1">
      <!-- −200 -->
      <g transform="translate(74.251693 220.986437) scale(0.1 -0.1)">
       <defs>
        <path id="DejaVuSans-2212" d="M 678 2272 
L 4684 2272 
L 4684 1741 
L 678 1741 
L 678 2272 
z
" transform="scale(0.015625)"/>
        <path id="DejaVuSans-32" d="M 1228 531 
L 3431 531 
L 3431 0 
L 469 0 
L 469 531 
Q 828 903 1448 1529 
Q 2069 2156 2228 2338 
Q 2531 2678 2651 2914 
Q 2772 3150 2772 3378 
Q 2772 3750 2511 3984 
Q 2250 4219 1831 4219 
Q 1534 4219 1204 4116 
Q 875 4013 500 3803 
L 500 4441 
Q 881 4594 1212 4672 
Q 1544 4750 1819 4750 
Q 2544 4750 2975 4387 
Q 3406 4025 3406 3419 
Q 3406 3131 3298 2873 
Q 3191 2616 2906 2266 
Q 2828 2175 2409 1742 
Q 1991 1309 1228 531 
z
" transform="scale(0.015625)"/>
        <path id="DejaVuSans-30" d="M 2034 4250 
Q 1547 4250 1301 3770 
Q 1056 3291 1056 2328 
Q 1056 1369 1301 889 
Q 1547 409 2034 409 
Q 2525 409 2770 889 
Q 3016 1369 3016 2328 
Q 3016 3291 2770 3770 
Q 2525 4250 2034 4250 
z
M 2034 4750 
Q 2819 4750 3233 4129 
Q 3647 3509 3647 2328 
Q 3647 1150 3233 529 
Q 2819 -91 2034 -91 
Q 1250 -91 836 529 
Q 422 1150 422 2328 
Q 422 3509 836 4129 
Q 1250 4750 2034 4750 
z
" transform="scale(0.015625)"/>
       </defs>
       <use xlink:href="#DejaVuSans-2212"/>
       <use xlink:href="#DejaVuSans-32" transform="translate(83.789062 0)"/>
       <use xlink:href="#DejaVuSans-30" transform="translate(147.412109 0)"/>
       <use xlink:href="#DejaVuSans-30" transform="translate(211.035156 0)"/>
      </g>
     </g>
    </g>
    <g id="xtick_2">
     <g id="line2d_2">
      <g>
       <use xlink:href="#m4ac28097b4" x="167.91917" y="206.388" style="stroke: #000000; stroke-width: 0.8"/>
      </g>
     </g>
     <g id="text_2">
      <!-- 0 -->
      <g transform="translate(164.73792 220.986437) scale(0.1 -0.1)">
       <use xlink:href="#DejaVuSans-30"/>
      </g>
     </g>
    </g>
    <g id="xtick_3">
     <g id="line2d_3">
      <g>
       <use xlink:href="#m4ac28097b4" x="247.853053" y="206.388" style="stroke: #000000; stroke-width: 0.8"/>
      </g>
     </g>
     <g id="text_3">
      <!-- 200 -->
      <g transform="translate(238.309303 220.986437) scale(0.1 -0.1)">
       <use xlink:href="#DejaVuSans-32"/>
       <use xlink:href="#DejaVuSans-30" transform="translate(63.623047 0)"/>
       <use xlink:href="#DejaVuSans-30" transform="translate(127.246094 0)"/>
      </g>
     </g>
    </g>
    <g id="xtick_4">
     <g id="line2d_4">
      <g>
       <use xlink:href="#m4ac28097b4" x="327.786937" y="206.388" style="stroke: #000000; stroke-width: 0.8"/>
      </g>
     </g>
     <g id="text_4">
      <!-- 400 -->
      <g transform="translate(318.243187 220.986437) scale(0.1 -0.1)">
       <defs>
        <path id="DejaVuSans-34" d="M 2419 4116 
L 825 1625 
L 2419 1625 
L 2419 4116 
z
M 2253 4666 
L 3047 4666 
L 3047 1625 
L 3713 1625 
L 3713 1100 
L 3047 1100 
L 3047 0 
L 2419 0 
L 2419 1100 
L 313 1100 
L 313 1709 
L 2253 4666 
z
" transform="scale(0.015625)"/>
       </defs>
       <use xlink:href="#DejaVuSans-34"/>
       <use xlink:href="#DejaVuSans-30" transform="translate(63.623047 0)"/>
       <use xlink:href="#DejaVuSans-30" transform="translate(127.246094 0)"/>
      </g>
     </g>
    </g>
    <g id="xtick_5">
     <g id="line2d_5">
      <g>
       <use xlink:href="#m4ac28097b4" x="407.720821" y="206.388" style="stroke: #000000; stroke-width: 0.8"/>
      </g>
     </g>
     <g id="text_5">
      <!-- 600 -->
      <g transform="translate(398.177071 220.986437) scale(0.1 -0.1)">
       <defs>
        <path id="DejaVuSans-36" d="M 2113 2584 
Q 1688 2584 1439 2293 
Q 1191 2003 1191 1497 
Q 1191 994 1439 701 
Q 1688 409 2113 409 
Q 2538 409 2786 701 
Q 3034 994 3034 1497 
Q 3034 2003 2786 2293 
Q 2538 2584 2113 2584 
z
M 3366 4563 
L 3366 3988 
Q 3128 4100 2886 4159 
Q 2644 4219 2406 4219 
Q 1781 4219 1451 3797 
Q 1122 3375 1075 2522 
Q 1259 2794 1537 2939 
Q 1816 3084 2150 3084 
Q 2853 3084 3261 2657 
Q 3669 2231 3669 1497 
Q 3669 778 3244 343 
Q 2819 -91 2113 -91 
Q 1303 -91 875 529 
Q 447 1150 447 2328 
Q 447 3434 972 4092 
Q 1497 4750 2381 4750 
Q 2619 4750 2861 4703 
Q 3103 4656 3366 4563 
z
" transform="scale(0.015625)"/>
       </defs>
       <use xlink:href="#DejaVuSans-36"/>
       <use xlink:href="#DejaVuSans-30" transform="translate(63.623047 0)"/>
       <use xlink:href="#DejaVuSans-30" transform="translate(127.246094 0)"/>
      </g>
     </g>
    </g>
    <g id="xtick_6">
     <g id="line2d_6">
      <g>
       <use xlink:href="#m4ac28097b4" x="487.654704" y="206.388" style="stroke: #000000; stroke-width: 0.8"/>
      </g>
     </g>
     <g id="text_6">
      <!-- 800 -->
      <g transform="translate(478.110954 220.986437) scale(0.1 -0.1)">
       <defs>
        <path id="DejaVuSans-38" d="M 2034 2216 
Q 1584 2216 1326 1975 
Q 1069 1734 1069 1313 
Q 1069 891 1326 650 
Q 1584 409 2034 409 
Q 2484 409 2743 651 
Q 3003 894 3003 1313 
Q 3003 1734 2745 1975 
Q 2488 2216 2034 2216 
z
M 1403 2484 
Q 997 2584 770 2862 
Q 544 3141 544 3541 
Q 544 4100 942 4425 
Q 1341 4750 2034 4750 
Q 2731 4750 3128 4425 
Q 3525 4100 3525 3541 
Q 3525 3141 3298 2862 
Q 3072 2584 2669 2484 
Q 3125 2378 3379 2068 
Q 3634 1759 3634 1313 
Q 3634 634 3220 271 
Q 2806 -91 2034 -91 
Q 1263 -91 848 271 
Q 434 634 434 1313 
Q 434 1759 690 2068 
Q 947 2378 1403 2484 
z
M 1172 3481 
Q 1172 3119 1398 2916 
Q 1625 2713 2034 2713 
Q 2441 2713 2670 2916 
Q 2900 3119 2900 3481 
Q 2900 3844 2670 4047 
Q 2441 4250 2034 4250 
Q 1625 4250 1398 4047 
Q 1172 3844 1172 3481 
z
" transform="scale(0.015625)"/>
       </defs>
       <use xlink:href="#DejaVuSans-38"/>
       <use xlink:href="#DejaVuSans-30" transform="translate(63.623047 0)"/>
       <use xlink:href="#DejaVuSans-30" transform="translate(127.246094 0)"/>
      </g>
     </g>
    </g>
   </g>
   <g id="matplotlib.axis_2">
    <g id="ytick_1">
     <g id="line2d_7">
      <defs>
       <path id="mf88dc6922c" d="M 0 0 
L -3.5 0 
" style="stroke: #000000; stroke-width: 0.8"/>
      </defs>
      <g>
       <use xlink:href="#mf88dc6922c" x="70.2" y="197.173046" style="stroke: #000000; stroke-width: 0.8"/>
      </g>
     </g>
     <g id="text_7">
      <!-- 10 -->
      <g transform="translate(50.475 200.972264) scale(0.1 -0.1)">
       <defs>
        <path id="DejaVuSans-31" d="M 794 531 
L 1825 531 
L 1825 4091 
L 703 3866 
L 703 4441 
L 1819 4666 
L 2450 4666 
L 2450 531 
L 3481 531 
L 3481 0 
L 794 0 
L 794 531 
z
" transform="scale(0.015625)"/>
       </defs>
       <use xlink:href="#DejaVuSans-31"/>
       <use xlink:href="#DejaVuSans-30" transform="translate(63.623047 0)"/>
      </g>
     </g>
    </g>
    <g id="ytick_2">
     <g id="line2d_8">
      <g>
       <use xlink:href="#mf88dc6922c" x="70.2" y="158.752738" style="stroke: #000000; stroke-width: 0.8"/>
      </g>
     </g>
     <g id="text_8">
      <!-- 15 -->
      <g transform="translate(50.475 162.551956) scale(0.1 -0.1)">
       <defs>
        <path id="DejaVuSans-35" d="M 691 4666 
L 3169 4666 
L 3169 4134 
L 1269 4134 
L 1269 2991 
Q 1406 3038 1543 3061 
Q 1681 3084 1819 3084 
Q 2600 3084 3056 2656 
Q 3513 2228 3513 1497 
Q 3513 744 3044 326 
Q 2575 -91 1722 -91 
Q 1428 -91 1123 -41 
Q 819 9 494 109 
L 494 744 
Q 775 591 1075 516 
Q 1375 441 1709 441 
Q 2250 441 2565 725 
Q 2881 1009 2881 1497 
Q 2881 1984 2565 2268 
Q 2250 2553 1709 2553 
Q 1456 2553 1204 2497 
Q 953 2441 691 2322 
L 691 4666 
z
" transform="scale(0.015625)"/>
       </defs>
       <use xlink:href="#DejaVuSans-31"/>
       <use xlink:href="#DejaVuSans-35" transform="translate(63.623047 0)"/>
      </g>
     </g>
    </g>
    <g id="ytick_3">
     <g id="line2d_9">
      <g>
       <use xlink:href="#mf88dc6922c" x="70.2" y="120.33243" style="stroke: #000000; stroke-width: 0.8"/>
      </g>
     </g>
     <g id="text_9">
      <!-- 20 -->
      <g transform="translate(50.475 124.131648) scale(0.1 -0.1)">
       <use xlink:href="#DejaVuSans-32"/>
       <use xlink:href="#DejaVuSans-30" transform="translate(63.623047 0)"/>
      </g>
     </g>
    </g>
    <g id="ytick_4">
     <g id="line2d_10">
      <g>
       <use xlink:href="#mf88dc6922c" x="70.2" y="81.912122" style="stroke: #000000; stroke-width: 0.8"/>
      </g>
     </g>
     <g id="text_10">
      <!-- 25 -->
      <g transform="translate(50.475 85.71134) scale(0.1 -0.1)">
       <use xlink:href="#DejaVuSans-32"/>
       <use xlink:href="#DejaVuSans-35" transform="translate(63.623047 0)"/>
      </g>
     </g>
    </g>
    <g id="text_11">
     <!-- ΔLL (bits) -->
     <g transform="translate(44.395313 160.500937) rotate(-90) scale(0.1 -0.1)">
      <defs>
       <path id="DejaVuSans-394" d="M 2188 4044 
L 906 525 
L 3472 525 
L 2188 4044 
z
M 50 0 
L 1831 4666 
L 2547 4666 
L 4325 0 
L 50 0 
z
" transform="scale(0.015625)"/>
       <path id="DejaVuSans-4c" d="M 628 4666 
L 1259 4666 
L 1259 531 
L 3531 531 
L 3531 0 
L 628 0 
L 628 4666 
z
" transform="scale(0.015625)"/>
       <path id="DejaVuSans-20" transform="scale(0.015625)"/>
       <path id="DejaVuSans-28" d="M 1984 4856 
Q 1566 4138 1362 3434 
Q 1159 2731 1159 2009 
Q 1159 1288 1364 580 
Q 1569 -128 1984 -844 
L 1484 -844 
Q 1016 -109 783 600 
Q 550 1309 550 2009 
Q 550 2706 781 3412 
Q 1013 4119 1484 4856 
L 1984 4856 
z
" transform="scale(0.015625)"/>
       <path id="DejaVuSans-62" d="M 3116 1747 
Q 3116 2381 2855 2742 
Q 2594 3103 2138 3103 
Q 1681 3103 1420 2742 
Q 1159 2381 1159 1747 
Q 1159 1113 1420 752 
Q 1681 391 2138 391 
Q 2594 391 2855 752 
Q 3116 1113 3116 1747 
z
M 1159 2969 
Q 1341 3281 1617 3432 
Q 1894 3584 2278 3584 
Q 2916 3584 3314 3078 
Q 3713 2572 3713 1747 
Q 3713 922 3314 415 
Q 2916 -91 2278 -91 
Q 1894 -91 1617 61 
Q 1341 213 1159 525 
L 1159 0 
L 581 0 
L 581 4863 
L 1159 4863 
L 1159 2969 
z
" transform="scale(0.015625)"/>
       <path id="DejaVuSans-69" d="M 603 3500 
L 1178 3500 
L 1178 0 
L 603 0 
L 603 3500 
z
M 603 4863 
L 1178 4863 
L 1178 4134 
L 603 4134 
L 603 4863 
z
" transform="scale(0.015625)"/>
       <path id="DejaVuSans-74" d="M 1172 4494 
L 1172 3500 
L 2356 3500 
L 2356 3053 
L 1172 3053 
L 1172 1153 
Q 1172 725 1289 603 
Q 1406 481 1766 481 
L 2356 481 
L 2356 0 
L 1766 0 
Q 1100 0 847 248 
Q 594 497 594 1153 
L 594 3053 
L 172 3053 
L 172 3500 
L 594 3500 
L 594 4494 
L 1172 4494 
z
" transform="scale(0.015625)"/>
       <path id="DejaVuSans-73" d="M 2834 3397 
L 2834 2853 
Q 2591 2978 2328 3040 
Q 2066 3103 1784 3103 
Q 1356 3103 1142 2972 
Q 928 2841 928 2578 
Q 928 2378 1081 2264 
Q 1234 2150 1697 2047 
L 1894 2003 
Q 2506 1872 2764 1633 
Q 3022 1394 3022 966 
Q 3022 478 2636 193 
Q 2250 -91 1575 -91 
Q 1294 -91 989 -36 
Q 684 19 347 128 
L 347 722 
Q 666 556 975 473 
Q 1284 391 1588 391 
Q 1994 391 2212 530 
Q 2431 669 2431 922 
Q 2431 1156 2273 1281 
Q 2116 1406 1581 1522 
L 1381 1569 
Q 847 1681 609 1914 
Q 372 2147 372 2553 
Q 372 3047 722 3315 
Q 1072 3584 1716 3584 
Q 2034 3584 2315 3537 
Q 2597 3491 2834 3397 
z
" transform="scale(0.015625)"/>
       <path id="DejaVuSans-29" d="M 513 4856 
L 1013 4856 
Q 1481 4119 1714 3412 
Q 1947 2706 1947 2009 
Q 1947 1309 1714 600 
Q 1481 -109 1013 -844 
L 513 -844 
Q 928 -128 1133 580 
Q 1338 1288 1338 2009 
Q 1338 2731 1133 3434 
Q 928 4138 513 4856 
z
" transform="scale(0.015625)"/>
      </defs>
      <use xlink:href="#DejaVuSans-394"/>
      <use xlink:href="#DejaVuSans-4c" transform="translate(68.408203 0)"/>
      <use xlink:href="#DejaVuSans-4c" transform="translate(124.121094 0)"/>
      <use xlink:href="#DejaVuSans-20" transform="translate(179.833984 0)"/>
      <use xlink:href="#DejaVuSans-28" transform="translate(211.621094 0)"/>
      <use xlink:href="#DejaVuSans-62" transform="translate(250.634766 0)"/>
      <use xlink:href="#DejaVuSans-69" transform="translate(314.111328 0)"/>
      <use xlink:href="#DejaVuSans-74" transform="translate(341.894531 0)"/>
      <use xlink:href="#DejaVuSans-73" transform="translate(381.103516 0)"/>
      <use xlink:href="#DejaVuSans-29" transform="translate(433.203125 0)"/>
     </g>
    </g>
   </g>
   <g id="line2d_11">
    <path d="M 167.91917 206.388 
L 167.91917 67.392 
" clip-path="url(#p41798a8ddf)" style="fill: none; stroke-dasharray: 2.96,1.28; stroke-dashoffset: 0; stroke: #000000; stroke-width: 0.8"/>
   </g>
   <g id="line2d_12">
    <path d="M 89.983636 131.807215 
L 93.980327 134.483353 
L 97.977023 127.413079 
L 101.973713 134.900937 
L 105.97041 135.743106 
L 109.967106 136.022381 
L 113.963796 131.571232 
L 117.960493 134.519703 
L 121.957186 131.228366 
L 125.953882 135.416977 
L 129.950576 134.319637 
L 133.947269 130.274557 
L 137.943962 131.175751 
L 141.940659 135.599192 
L 145.937352 136.623816 
L 149.934045 137.181852 
L 153.93074 133.605477 
L 157.927434 129.074289 
L 161.924129 132.505352 
L 165.920823 134.083831 
L 169.917517 133.603081 
L 173.914211 135.9254 
L 177.910906 137.428675 
L 181.9076 132.636521 
L 185.904294 130.454446 
L 189.900988 133.43971 
L 193.897681 132.052318 
L 197.894377 131.593268 
L 201.891071 135.973353 
L 205.887764 128.671835 
L 209.884457 136.5532 
L 213.881154 133.343487 
L 217.877847 132.552001 
L 221.874543 134.683154 
L 225.871234 133.733894 
L 229.86793 133.486273 
L 233.864626 137.382112 
L 237.861317 130.729685 
L 241.858013 133.323553 
L 245.854704 135.46205 
L 249.8514 135.57854 
L 253.848096 136.606378 
L 257.844787 134.344488 
L 261.841483 131.282548 
L 265.838179 132.826234 
L 269.83487 130.516414 
L 273.83156 134.636207 
L 277.828262 132.204755 
L 281.824953 133.614336 
L 285.821643 136.832698 
L 289.818345 135.090296 
L 293.815036 132.908068 
L 297.811726 133.897168 
L 301.808428 134.039629 
L 305.805119 135.576518 
L 309.801809 131.090062 
L 313.798511 133.412302 
L 317.795202 132.589094 
L 321.791892 130.140319 
L 325.788594 134.313369 
L 329.785285 134.886195 
L 333.781975 134.79237 
L 337.778677 129.548517 
L 341.775368 130.642433 
L 345.772058 133.919731 
L 349.76876 134.438764 
L 353.765451 136.36553 
L 357.762141 134.730051 
L 361.758843 135.79542 
L 365.755534 135.101107 
L 369.752224 132.35483 
L 373.748914 134.815804 
L 377.745605 132.630495 
L 381.742319 135.999425 
L 385.739009 136.114428 
L 389.7357 133.624945 
L 393.73239 133.466333 
L 397.72908 137.608438 
L 401.725771 131.669783 
L 405.722485 135.162276 
L 409.719175 135.710973 
L 413.715866 132.08481 
L 417.712556 132.175317 
L 421.709246 133.943854 
L 425.705937 134.025902 
L 429.702627 133.093533 
L 433.699341 133.616538 
L 437.696032 135.652019 
L 441.692722 135.006159 
L 445.689412 135.096531 
L 449.686103 136.453796 
L 453.682793 130.485909 
L 457.679507 138.205909 
L 461.676198 136.731706 
L 465.672888 134.455547 
L 469.669578 131.243661 
L 473.666269 132.919673 
L 477.662959 133.905175 
L 481.659673 134.159273 
L 485.656364 132.697794 
" clip-path="url(#p41798a8ddf)" style="fill: none; stroke-dasharray: 1,1.65; stroke-dashoffset: 0; stroke: #1f77b4"/>
   </g>
   <g id="line2d_13">
    <path d="M 89.983636 130.296712 
L 93.980327 133.11083 
L 97.977023 131.539855 
L 101.973713 138.708166 
L 105.97041 136.986144 
L 109.967106 133.64632 
L 113.963796 135.892455 
L 117.960493 134.203376 
L 121.957186 138.305999 
L 125.953882 133.533521 
L 129.950576 135.62262 
L 133.947269 136.934651 
L 137.943962 132.958227 
L 141.940659 131.753948 
L 145.937352 131.56658 
L 149.934045 135.990886 
L 153.93074 135.713724 
L 157.927434 137.713373 
L 161.924129 131.915888 
L 165.920823 133.706263 
L 169.917517 136.141443 
L 173.914211 134.132697 
L 177.910906 133.020232 
L 181.9076 137.054636 
L 185.904294 132.466809 
L 189.900988 134.225381 
L 193.897681 136.054983 
L 197.894377 132.862243 
L 201.891071 134.044513 
L 205.887764 134.656266 
L 209.884457 133.274261 
L 213.881154 136.267599 
L 217.877847 137.148433 
L 221.874543 135.869817 
L 225.871234 135.312035 
L 229.86793 135.48817 
L 233.864626 133.299318 
L 237.861317 134.996184 
L 241.858013 133.032506 
L 245.854704 138.237466 
L 249.8514 132.903388 
L 253.848096 132.857275 
L 257.844787 137.95341 
L 261.841483 139.119901 
L 265.838179 129.149665 
L 269.83487 135.265533 
L 273.83156 133.804312 
L 277.828262 128.174162 
L 281.824953 133.338061 
L 285.821643 131.848553 
L 289.818345 131.778016 
L 293.815036 133.862597 
L 297.811726 135.864792 
L 301.808428 130.641697 
L 305.805119 133.758696 
L 309.801809 137.761007 
L 313.798511 134.571559 
L 317.795202 133.8275 
L 321.791892 132.746205 
L 325.788594 127.460654 
L 329.785285 131.004646 
L 333.781975 135.363881 
L 337.778677 135.068959 
L 341.775368 132.473701 
L 345.772058 134.830538 
L 349.76876 130.769561 
L 353.765451 137.124865 
L 357.762141 133.001276 
L 361.758843 135.621703 
L 365.755534 129.386725 
L 369.752224 125.951943 
L 373.748914 134.583358 
L 377.745605 132.740147 
L 381.742319 132.665375 
L 385.739009 132.494859 
L 389.7357 130.744667 
L 393.73239 134.758036 
L 397.72908 132.230445 
L 401.725771 138.847635 
L 405.722485 132.062055 
L 409.719175 134.070506 
L 413.715866 132.31677 
L 417.712556 134.449782 
L 421.709246 132.932412 
L 425.705937 136.676563 
L 429.702627 136.140999 
L 433.699341 132.37163 
L 437.696032 138.260384 
L 441.692722 132.438867 
L 445.689412 139.247841 
L 449.686103 135.9619 
L 453.682793 138.111964 
L 457.679507 131.728009 
L 461.676198 135.460194 
L 465.672888 134.930584 
L 469.669578 132.64996 
L 473.666269 131.013593 
L 477.662959 134.823822 
L 481.659673 135.985588 
L 485.656364 131.838759 
" clip-path="url(#p41798a8ddf)" style="fill: none; stroke-dasharray: 1,1.65; stroke-dashoffset: 0; stroke: #ff7f0e"/>
   </g>
   <g id="line2d_14">
    <path d="M 89.983636 147.335396 
L 93.980327 121.93871 
L 97.977023 121.545068 
L 101.973713 126.022334 
L 105.97041 125.251377 
L 109.967106 120.538893 
L 113.963796 128.985542 
L 117.960493 127.250163 
L 121.957186 143.994872 
L 125.953882 133.215621 
L 129.950576 118.232698 
L 133.947269 120.895702 
L 137.943962 117.91176 
L 141.940659 138.453667 
L 145.937352 147.562349 
L 149.934045 134.889794 
L 153.93074 126.651848 
L 157.927434 134.462226 
L 161.924129 174.737836 
L 165.920823 130.950028 
L 169.917517 120.457794 
L 173.914211 157.336969 
L 177.910906 89.357003 
L 181.9076 101.649891 
L 185.904294 131.409261 
L 189.900988 164.377448 
L 193.897681 149.895052 
L 197.894377 163.030245 
L 201.891071 96.061263 
L 205.887764 155.131207 
L 209.884457 138.570284 
L 213.881154 128.897457 
L 217.877847 142.819452 
L 221.874543 121.441248 
L 225.871234 118.980626 
L 229.86793 154.821598 
L 233.864626 146.172327 
L 237.861317 148.390377 
L 241.858013 83.638621 
L 245.854704 161.908035 
L 249.8514 110.548797 
L 253.848096 136.444096 
L 257.844787 142.727279 
L 261.841483 121.193143 
L 265.838179 137.000765 
L 269.83487 134.834539 
L 273.83156 93.349361 
L 277.828262 102.745462 
L 281.824953 123.532543 
L 285.821643 149.978074 
L 289.818345 143.3225 
L 293.815036 123.211909 
L 297.811726 141.357443 
L 301.808428 167.659681 
L 305.805119 121.761257 
L 309.801809 142.968958 
L 313.798511 115.866768 
L 317.795202 139.797807 
L 321.791892 103.128391 
L 325.788594 148.588298 
L 329.785285 127.027117 
L 333.781975 122.813411 
L 337.778677 98.639241 
L 341.775368 128.664844 
L 345.772058 164.951153 
L 349.76876 142.765707 
L 353.765451 163.974959 
L 357.762141 142.434045 
L 361.758843 151.028674 
L 365.755534 142.447939 
L 369.752224 135.009562 
L 373.748914 124.111497 
L 377.745605 118.739074 
L 381.742319 123.280172 
L 385.739009 105.720103 
L 389.7357 123.121458 
L 393.73239 116.413841 
L 397.72908 153.57662 
L 401.725771 134.554557 
L 405.722485 141.010876 
L 409.719175 101.358909 
L 413.715866 165.603538 
L 417.712556 121.38083 
L 421.709246 156.261365 
L 425.705937 141.900232 
L 429.702627 156.028228 
L 433.699341 153.143607 
L 437.696032 132.245005 
L 441.692722 101.077482 
L 445.689412 163.580399 
L 449.686103 116.348565 
L 453.682793 200.07 
L 457.679507 153.763038 
L 461.676198 175.690124 
L 465.672888 108.294876 
L 469.669578 132.626209 
L 473.666269 128.064093 
L 477.662959 135.744655 
L 481.659673 108.751297 
L 485.656364 169.906795 
" clip-path="url(#p41798a8ddf)" style="fill: none; stroke: #1f77b4; stroke-width: 2.2; stroke-linecap: square"/>
   </g>
   <g id="line2d_15">
    <path d="M 89.983636 143.157514 
L 93.980327 110.523866 
L 97.977023 102.491574 
L 101.973713 146.608795 
L 105.97041 161.396706 
L 109.967106 103.168201 
L 113.963796 142.07755 
L 117.960493 146.031334 
L 121.957186 77.388925 
L 125.953882 152.492884 
L 129.950576 121.212525 
L 133.947269 148.198144 
L 137.943962 136.371187 
L 141.940659 142.210962 
L 145.937352 93.450002 
L 149.934045 143.239399 
L 153.93074 129.926884 
L 157.927434 146.889393 
L 161.924129 146.687106 
L 165.920823 147.303364 
L 169.917517 117.906137 
L 173.914211 118.428945 
L 177.910906 154.097618 
L 181.9076 134.359394 
L 185.904294 141.849529 
L 189.900988 136.012131 
L 193.897681 117.961371 
L 197.894377 108.805327 
L 201.891071 144.329723 
L 205.887764 134.912358 
L 209.884457 119.477787 
L 213.881154 142.713147 
L 217.877847 135.003716 
L 221.874543 166.769482 
L 225.871234 135.219342 
L 229.86793 137.447382 
L 233.864626 128.627481 
L 237.861317 138.916435 
L 241.858013 114.965285 
L 245.854704 120.476659 
L 249.8514 155.343621 
L 253.848096 124.855728 
L 257.844787 132.951356 
L 261.841483 113.276674 
L 265.838179 73.71 
L 269.83487 124.2913 
L 273.83156 78.038 
L 277.828262 114.7596 
L 281.824953 130.194136 
L 285.821643 92.220203 
L 289.818345 124.487041 
L 293.815036 157.905132 
L 297.811726 163.595598 
L 301.808428 110.602864 
L 305.805119 158.56355 
L 309.801809 117.94337 
L 313.798511 141.226551 
L 317.795202 133.258752 
L 321.791892 138.270787 
L 325.788594 89.835928 
L 329.785285 139.953769 
L 333.781975 137.447563 
L 337.778677 157.386019 
L 341.775368 132.199449 
L 345.772058 155.453959 
L 349.76876 98.735347 
L 353.765451 100.713943 
L 357.762141 118.665943 
L 361.758843 121.666521 
L 365.755534 132.682337 
L 369.752224 153.017339 
L 373.748914 163.299849 
L 377.745605 140.951769 
L 381.742319 100.626505 
L 385.739009 101.102059 
L 389.7357 119.647675 
L 393.73239 113.425053 
L 397.72908 123.515418 
L 401.725771 121.002885 
L 405.722485 130.217031 
L 409.719175 139.885805 
L 413.715866 99.416831 
L 417.712556 139.009166 
L 421.709246 143.3775 
L 425.705937 89.927832 
L 429.702627 132.066604 
L 433.699341 115.19526 
L 437.696032 148.301198 
L 441.692722 150.509006 
L 445.689412 157.974003 
L 449.686103 161.509454 
L 453.682793 138.822371 
L 457.679507 120.000571 
L 461.676198 154.334865 
L 465.672888 126.344173 
L 469.669578 134.536723 
L 473.666269 158.441059 
L 477.662959 118.151506 
L 481.659673 145.910911 
L 485.656364 143.948453 
" clip-path="url(#p41798a8ddf)" style="fill: none; stroke: #ff7f0e; stroke-width: 2.2; stroke-linecap: square"/>
   </g>
   <g id="patch_3">
    <path d="M 70.2 206.388 
L 70.2 67.392 
" style="fill: none; stroke: #000000; stroke-width: 0.8; stroke-linejoin: miter; stroke-linecap: square"/>
   </g>
   <g id="patch_4">
    <path d="M 505.44 206.388 
L 505.44 67.392 
" style="fill: none; stroke: #000000; stroke-width: 0.8; stroke-linejoin: miter; stroke-linecap: square"/>
   </g>
   <g id="patch_5">
    <path d="M 70.2 206.388 
L 505.44 206.388 
" style="fill: none; stroke: #000000; stroke-width: 0.8; stroke-linejoin: miter; stroke-linecap: square"/>
   </g>
   <g id="patch_6">
    <path d="M 70.2 67.392 
L 505.44 67.392 
" style="fill: none; stroke: #000000; stroke-width: 0.8; stroke-linejoin: miter; stroke-linecap: square"/>
   </g>
   <g id="text_12">
    <!-- (SFEF vs SLIP) — R-flow — Panel A: overlay + null bands -->
    <g transform="translate(119.320313 61.392) scale(0.12 -0.12)">
     <defs>
      <path id="DejaVuSans-53" d="M 3425 4513 
L 3425 3897 
Q 3066 4069 2747 4153 
Q 2428 4238 2131 4238 
Q 1616 4238 1336 4038 
Q 1056 3838 1056 3469 
Q 1056 3159 1242 3001 
Q 1428 2844 1947 2747 
L 2328 2669 
Q 3034 2534 3370 2195 
Q 3706 1856 3706 1288 
Q 3706 609 3251 259 
Q 2797 -91 1919 -91 
Q 1588 -91 1214 -16 
Q 841 59 441 206 
L 441 856 
Q 825 641 1194 531 
Q 1563 422 1919 422 
Q 2459 422 2753 634 
Q 3047 847 3047 1241 
Q 3047 1584 2836 1778 
Q 2625 1972 2144 2069 
L 1759 2144 
Q 1053 2284 737 2584 
Q 422 2884 422 3419 
Q 422 4038 858 4394 
Q 1294 4750 2059 4750 
Q 2388 4750 2728 4690 
Q 3069 4631 3425 4513 
z
" transform="scale(0.015625)"/>
      <path id="DejaVuSans-46" d="M 628 4666 
L 3309 4666 
L 3309 4134 
L 1259 4134 
L 1259 2759 
L 3109 2759 
L 3109 2228 
L 1259 2228 
L 1259 0 
L 628 0 
L 628 4666 
z
" transform="scale(0.015625)"/>
      <path id="DejaVuSans-45" d="M 628 4666 
L 3578 4666 
L 3578 4134 
L 1259 4134 
L 1259 2753 
L 3481 2753 
L 3481 2222 
L 1259 2222 
L 1259 531 
L 3634 531 
L 3634 0 
L 628 0 
L 628 4666 
z
" transform="scale(0.015625)"/>
      <path id="DejaVuSans-76" d="M 191 3500 
L 800 3500 
L 1894 563 
L 2988 3500 
L 3597 3500 
L 2284 0 
L 1503 0 
L 191 3500 
z
" transform="scale(0.015625)"/>
      <path id="DejaVuSans-49" d="M 628 4666 
L 1259 4666 
L 1259 0 
L 628 0 
L 628 4666 
z
" transform="scale(0.015625)"/>
      <path id="DejaVuSans-50" d="M 1259 4147 
L 1259 2394 
L 2053 2394 
Q 2494 2394 2734 2622 
Q 2975 2850 2975 3272 
Q 2975 3691 2734 3919 
Q 2494 4147 2053 4147 
L 1259 4147 
z
M 628 4666 
L 2053 4666 
Q 2838 4666 3239 4311 
Q 3641 3956 3641 3272 
Q 3641 2581 3239 2228 
Q 2838 1875 2053 1875 
L 1259 1875 
L 1259 0 
L 628 0 
L 628 4666 
z
" transform="scale(0.015625)"/>
      <path id="DejaVuSans-2014" d="M 313 1978 
L 6088 1978 
L 6088 1528 
L 313 1528 
L 313 1978 
z
" transform="scale(0.015625)"/>
      <path id="DejaVuSans-52" d="M 2841 2188 
Q 3044 2119 3236 1894 
Q 3428 1669 3622 1275 
L 4263 0 
L 3584 0 
L 2988 1197 
Q 2756 1666 2539 1819 
Q 2322 1972 1947 1972 
L 1259 1972 
L 1259 0 
L 628 0 
L 628 4666 
L 2053 4666 
Q 2853 4666 3247 4331 
Q 3641 3997 3641 3322 
Q 3641 2881 3436 2590 
Q 3231 2300 2841 2188 
z
M 1259 4147 
L 1259 2491 
L 2053 2491 
Q 2509 2491 2742 2702 
Q 2975 2913 2975 3322 
Q 2975 3731 2742 3939 
Q 2509 4147 2053 4147 
L 1259 4147 
z
" transform="scale(0.015625)"/>
      <path id="DejaVuSans-2d" d="M 313 2009 
L 1997 2009 
L 1997 1497 
L 313 1497 
L 313 2009 
z
" transform="scale(0.015625)"/>
      <path id="DejaVuSans-66" d="M 2375 4863 
L 2375 4384 
L 1825 4384 
Q 1516 4384 1395 4259 
Q 1275 4134 1275 3809 
L 1275 3500 
L 2222 3500 
L 2222 3053 
L 1275 3053 
L 1275 0 
L 697 0 
L 697 3053 
L 147 3053 
L 147 3500 
L 697 3500 
L 697 3744 
Q 697 4328 969 4595 
Q 1241 4863 1831 4863 
L 2375 4863 
z
" transform="scale(0.015625)"/>
      <path id="DejaVuSans-6c" d="M 603 4863 
L 1178 4863 
L 1178 0 
L 603 0 
L 603 4863 
z
" transform="scale(0.015625)"/>
      <path id="DejaVuSans-6f" d="M 1959 3097 
Q 1497 3097 1228 2736 
Q 959 2375 959 1747 
Q 959 1119 1226 758 
Q 1494 397 1959 397 
Q 2419 397 2687 759 
Q 2956 1122 2956 1747 
Q 2956 2369 2687 2733 
Q 2419 3097 1959 3097 
z
M 1959 3584 
Q 2709 3584 3137 3096 
Q 3566 2609 3566 1747 
Q 3566 888 3137 398 
Q 2709 -91 1959 -91 
Q 1206 -91 779 398 
Q 353 888 353 1747 
Q 353 2609 779 3096 
Q 1206 3584 1959 3584 
z
" transform="scale(0.015625)"/>
      <path id="DejaVuSans-77" d="M 269 3500 
L 844 3500 
L 1563 769 
L 2278 3500 
L 2956 3500 
L 3675 769 
L 4391 3500 
L 4966 3500 
L 4050 0 
L 3372 0 
L 2619 2869 
L 1863 0 
L 1184 0 
L 269 3500 
z
" transform="scale(0.015625)"/>
      <path id="DejaVuSans-61" d="M 2194 1759 
Q 1497 1759 1228 1600 
Q 959 1441 959 1056 
Q 959 750 1161 570 
Q 1363 391 1709 391 
Q 2188 391 2477 730 
Q 2766 1069 2766 1631 
L 2766 1759 
L 2194 1759 
z
M 3341 1997 
L 3341 0 
L 2766 0 
L 2766 531 
Q 2569 213 2275 61 
Q 1981 -91 1556 -91 
Q 1019 -91 701 211 
Q 384 513 384 1019 
Q 384 1609 779 1909 
Q 1175 2209 1959 2209 
L 2766 2209 
L 2766 2266 
Q 2766 2663 2505 2880 
Q 2244 3097 1772 3097 
Q 1472 3097 1187 3025 
Q 903 2953 641 2809 
L 641 3341 
Q 956 3463 1253 3523 
Q 1550 3584 1831 3584 
Q 2591 3584 2966 3190 
Q 3341 2797 3341 1997 
z
" transform="scale(0.015625)"/>
      <path id="DejaVuSans-6e" d="M 3513 2113 
L 3513 0 
L 2938 0 
L 2938 2094 
Q 2938 2591 2744 2837 
Q 2550 3084 2163 3084 
Q 1697 3084 1428 2787 
Q 1159 2491 1159 1978 
L 1159 0 
L 581 0 
L 581 3500 
L 1159 3500 
L 1159 2956 
Q 1366 3272 1645 3428 
Q 1925 3584 2291 3584 
Q 2894 3584 3203 3211 
Q 3513 2838 3513 2113 
z
" transform="scale(0.015625)"/>
      <path id="DejaVuSans-65" d="M 3597 1894 
L 3597 1613 
L 953 1613 
Q 991 1019 1311 708 
Q 1631 397 2203 397 
Q 2534 397 2845 478 
Q 3156 559 3463 722 
L 3463 178 
Q 3153 47 2828 -22 
Q 2503 -91 2169 -91 
Q 1331 -91 842 396 
Q 353 884 353 1716 
Q 353 2575 817 3079 
Q 1281 3584 2069 3584 
Q 2775 3584 3186 3129 
Q 3597 2675 3597 1894 
z
M 3022 2063 
Q 3016 2534 2758 2815 
Q 2500 3097 2075 3097 
Q 1594 3097 1305 2825 
Q 1016 2553 972 2059 
L 3022 2063 
z
" transform="scale(0.015625)"/>
      <path id="DejaVuSans-41" d="M 2188 4044 
L 1331 1722 
L 3047 1722 
L 2188 4044 
z
M 1831 4666 
L 2547 4666 
L 4325 0 
L 3669 0 
L 3244 1197 
L 1141 1197 
L 716 0 
L 50 0 
L 1831 4666 
z
" transform="scale(0.015625)"/>
      <path id="DejaVuSans-3a" d="M 750 794 
L 1409 794 
L 1409 0 
L 750 0 
L 750 794 
z
M 750 3309 
L 1409 3309 
L 1409 2516 
L 750 2516 
L 750 3309 
z
" transform="scale(0.015625)"/>
      <path id="DejaVuSans-72" d="M 2631 2963 
Q 2534 3019 2420 3045 
Q 2306 3072 2169 3072 
Q 1681 3072 1420 2755 
Q 1159 2438 1159 1844 
L 1159 0 
L 581 0 
L 581 3500 
L 1159 3500 
L 1159 2956 
Q 1341 3275 1631 3429 
Q 1922 3584 2338 3584 
Q 2397 3584 2469 3576 
Q 2541 3569 2628 3553 
L 2631 2963 
z
" transform="scale(0.015625)"/>
      <path id="DejaVuSans-79" d="M 2059 -325 
Q 1816 -950 1584 -1140 
Q 1353 -1331 966 -1331 
L 506 -1331 
L 506 -850 
L 844 -850 
Q 1081 -850 1212 -737 
Q 1344 -625 1503 -206 
L 1606 56 
L 191 3500 
L 800 3500 
L 1894 763 
L 2988 3500 
L 3597 3500 
L 2059 -325 
z
" transform="scale(0.015625)"/>
      <path id="DejaVuSans-2b" d="M 2944 4013 
L 2944 2272 
L 4684 2272 
L 4684 1741 
L 2944 1741 
L 2944 0 
L 2419 0 
L 2419 1741 
L 678 1741 
L 678 2272 
L 2419 2272 
L 2419 4013 
L 2944 4013 
z
" transform="scale(0.015625)"/>
      <path id="DejaVuSans-75" d="M 544 1381 
L 544 3500 
L 1119 3500 
L 1119 1403 
Q 1119 906 1312 657 
Q 1506 409 1894 409 
Q 2359 409 2629 706 
Q 2900 1003 2900 1516 
L 2900 3500 
L 3475 3500 
L 3475 0 
L 2900 0 
L 2900 538 
Q 2691 219 2414 64 
Q 2138 -91 1772 -91 
Q 1169 -91 856 284 
Q 544 659 544 1381 
z
M 1991 3584 
L 1991 3584 
z
" transform="scale(0.015625)"/>
      <path id="DejaVuSans-64" d="M 2906 2969 
L 2906 4863 
L 3481 4863 
L 3481 0 
L 2906 0 
L 2906 525 
Q 2725 213 2448 61 
Q 2172 -91 1784 -91 
Q 1150 -91 751 415 
Q 353 922 353 1747 
Q 353 2572 751 3078 
Q 1150 3584 1784 3584 
Q 2172 3584 2448 3432 
Q 2725 3281 2906 2969 
z
M 947 1747 
Q 947 1113 1208 752 
Q 1469 391 1925 391 
Q 2381 391 2643 752 
Q 2906 1113 2906 1747 
Q 2906 2381 2643 2742 
Q 2381 3103 1925 3103 
Q 1469 3103 1208 2742 
Q 947 2381 947 1747 
z
" transform="scale(0.015625)"/>
     </defs>
     <use xlink:href="#DejaVuSans-28"/>
     <use xlink:href="#DejaVuSans-53" transform="translate(39.013672 0)"/>
     <use xlink:href="#DejaVuSans-46" transform="translate(102.490234 0)"/>
     <use xlink:href="#DejaVuSans-45" transform="translate(160.009766 0)"/>
     <use xlink:href="#DejaVuSans-46" transform="translate(223.193359 0)"/>
     <use xlink:href="#DejaVuSans-20" transform="translate(280.712891 0)"/>
     <use xlink:href="#DejaVuSans-76" transform="translate(312.5 0)"/>
     <use xlink:href="#DejaVuSans-73" transform="translate(371.679688 0)"/>
     <use xlink:href="#DejaVuSans-20" transform="translate(423.779297 0)"/>
     <use xlink:href="#DejaVuSans-53" transform="translate(455.566406 0)"/>
     <use xlink:href="#DejaVuSans-4c" transform="translate(519.042969 0)"/>
     <use xlink:href="#DejaVuSans-49" transform="translate(574.755859 0)"/>
     <use xlink:href="#DejaVuSans-50" transform="translate(604.248047 0)"/>
     <use xlink:href="#DejaVuSans-29" transform="translate(664.550781 0)"/>
     <use xlink:href="#DejaVuSans-20" transform="translate(703.564453 0)"/>
     <use xlink:href="#DejaVuSans-2014" transform="translate(735.351562 0)"/>
     <use xlink:href="#DejaVuSans-20" transform="translate(835.351562 0)"/>
     <use xlink:href="#DejaVuSans-52" transform="translate(867.138672 0)"/>
     <use xlink:href="#DejaVuSans-2d" transform="translate(932.621094 0)"/>
     <use xlink:href="#DejaVuSans-66" transform="translate(968.705078 0)"/>
     <use xlink:href="#DejaVuSans-6c" transform="translate(1003.910156 0)"/>
     <use xlink:href="#DejaVuSans-6f" transform="translate(1031.693359 0)"/>
     <use xlink:href="#DejaVuSans-77" transform="translate(1092.875 0)"/>
     <use xlink:href="#DejaVuSans-20" transform="translate(1174.662109 0)"/>
     <use xlink:href="#DejaVuSans-2014" transform="translate(1206.449219 0)"/>
     <use xlink:href="#DejaVuSans-20" transform="translate(1306.449219 0)"/>
     <use xlink:href="#DejaVuSans-50" transform="translate(1338.236328 0)"/>
     <use xlink:href="#DejaVuSans-61" transform="translate(1394.039062 0)"/>
     <use xlink:href="#DejaVuSans-6e" transform="translate(1455.318359 0)"/>
     <use xlink:href="#DejaVuSans-65" transform="translate(1518.697266 0)"/>
     <use xlink:href="#DejaVuSans-6c" transform="translate(1580.220703 0)"/>
     <use xlink:href="#DejaVuSans-20" transform="translate(1608.003906 0)"/>
     <use xlink:href="#DejaVuSans-41" transform="translate(1639.791016 0)"/>
     <use xlink:href="#DejaVuSans-3a" transform="translate(1706.449219 0)"/>
     <use xlink:href="#DejaVuSans-20" transform="translate(1740.140625 0)"/>
     <use xlink:href="#DejaVuSans-6f" transform="translate(1771.927734 0)"/>
     <use xlink:href="#DejaVuSans-76" transform="translate(1833.109375 0)"/>
     <use xlink:href="#DejaVuSans-65" transform="translate(1892.289062 0)"/>
     <use xlink:href="#DejaVuSans-72" transform="translate(1953.8125 0)"/>
     <use xlink:href="#DejaVuSans-6c" transform="translate(1994.925781 0)"/>
     <use xlink:href="#DejaVuSans-61" transform="translate(2022.708984 0)"/>
     <use xlink:href="#DejaVuSans-79" transform="translate(2083.988281 0)"/>
     <use xlink:href="#DejaVuSans-20" transform="translate(2143.167969 0)"/>
     <use xlink:href="#DejaVuSans-2b" transform="translate(2174.955078 0)"/>
     <use xlink:href="#DejaVuSans-20" transform="translate(2258.744141 0)"/>
     <use xlink:href="#DejaVuSans-6e" transform="translate(2290.53125 0)"/>
     <use xlink:href="#DejaVuSans-75" transform="translate(2353.910156 0)"/>
     <use xlink:href="#DejaVuSans-6c" transform="translate(2417.289062 0)"/>
     <use xlink:href="#DejaVuSans-6c" transform="translate(2445.072266 0)"/>
     <use xlink:href="#DejaVuSans-20" transform="translate(2472.855469 0)"/>
     <use xlink:href="#DejaVuSans-62" transform="translate(2504.642578 0)"/>
     <use xlink:href="#DejaVuSans-61" transform="translate(2568.119141 0)"/>
     <use xlink:href="#DejaVuSans-6e" transform="translate(2629.398438 0)"/>
     <use xlink:href="#DejaVuSans-64" transform="translate(2692.777344 0)"/>
     <use xlink:href="#DejaVuSans-73" transform="translate(2756.253906 0)"/>
    </g>
   </g>
   <g id="legend_1">
    <g id="patch_7">
     <path d="M 79.2 83.990437 
L 99.2 83.990437 
L 99.2 76.990437 
L 79.2 76.990437 
z
" style="fill: #1f77b4; fill-opacity: 0.15"/>
    </g>
    <g id="text_13">
     <!-- SFEF→SLIP null μ±σ -->
     <g transform="translate(107.2 83.990437) scale(0.1 -0.1)">
      <defs>
       <path id="DejaVuSans-2192" d="M 5050 2147 
L 5050 1866 
L 3822 638 
L 3447 1013 
L 4175 1741 
L 366 1741 
L 366 2272 
L 4175 2272 
L 3447 3000 
L 3822 3375 
L 5050 2147 
z
" transform="scale(0.015625)"/>
       <path id="DejaVuSans-3bc" d="M 544 -1331 
L 544 3500 
L 1119 3500 
L 1119 1325 
Q 1119 872 1334 640 
Q 1550 409 1972 409 
Q 2434 409 2667 671 
Q 2900 934 2900 1459 
L 2900 3500 
L 3475 3500 
L 3475 806 
Q 3475 619 3529 530 
Q 3584 441 3700 441 
Q 3728 441 3778 458 
Q 3828 475 3916 513 
L 3916 50 
Q 3788 -22 3673 -56 
Q 3559 -91 3450 -91 
Q 3234 -91 3106 31 
Q 2978 153 2931 403 
Q 2775 156 2548 32 
Q 2322 -91 2016 -91 
Q 1697 -91 1473 31 
Q 1250 153 1119 397 
L 1119 -1331 
L 544 -1331 
z
" transform="scale(0.015625)"/>
       <path id="DejaVuSans-b1" d="M 2944 4013 
L 2944 2803 
L 4684 2803 
L 4684 2272 
L 2944 2272 
L 2944 1063 
L 2419 1063 
L 2419 2272 
L 678 2272 
L 678 2803 
L 2419 2803 
L 2419 4013 
L 2944 4013 
z
M 678 531 
L 4684 531 
L 4684 0 
L 678 0 
L 678 531 
z
" transform="scale(0.015625)"/>
       <path id="DejaVuSans-3c3" d="M 1959 3044 
Q 1484 3044 1228 2700 
Q 959 2341 959 1747 
Q 959 1119 1226 758 
Q 1494 397 1959 397 
Q 2419 397 2687 759 
Q 2956 1122 2956 1747 
Q 2956 2319 2688 2700 
Q 2441 3044 1959 3044 
z
M 1959 3500 
L 3869 3500 
L 3869 2925 
L 3225 2925 
Q 3566 2438 3566 1747 
Q 3566 888 3138 400 
Q 2709 -91 1959 -91 
Q 1206 -91 781 400 
Q 353 888 353 1747 
Q 353 2613 781 3097 
Q 1134 3500 1959 3500 
z
" transform="scale(0.015625)"/>
      </defs>
      <use xlink:href="#DejaVuSans-53"/>
      <use xlink:href="#DejaVuSans-46" transform="translate(63.476562 0)"/>
      <use xlink:href="#DejaVuSans-45" transform="translate(120.996094 0)"/>
      <use xlink:href="#DejaVuSans-46" transform="translate(184.179688 0)"/>
      <use xlink:href="#DejaVuSans-2192" transform="translate(241.699219 0)"/>
      <use xlink:href="#DejaVuSans-53" transform="translate(325.488281 0)"/>
      <use xlink:href="#DejaVuSans-4c" transform="translate(388.964844 0)"/>
      <use xlink:href="#DejaVuSans-49" transform="translate(444.677734 0)"/>
      <use xlink:href="#DejaVuSans-50" transform="translate(474.169922 0)"/>
      <use xlink:href="#DejaVuSans-20" transform="translate(534.472656 0)"/>
      <use xlink:href="#DejaVuSans-6e" transform="translate(566.259766 0)"/>
      <use xlink:href="#DejaVuSans-75" transform="translate(629.638672 0)"/>
      <use xlink:href="#DejaVuSans-6c" transform="translate(693.017578 0)"/>
      <use xlink:href="#DejaVuSans-6c" transform="translate(720.800781 0)"/>
      <use xlink:href="#DejaVuSans-20" transform="translate(748.583984 0)"/>
      <use xlink:href="#DejaVuSans-3bc" transform="translate(780.371094 0)"/>
      <use xlink:href="#DejaVuSans-b1" transform="translate(843.994141 0)"/>
      <use xlink:href="#DejaVuSans-3c3" transform="translate(927.783203 0)"/>
     </g>
    </g>
    <g id="patch_8">
     <path d="M 79.2 98.668563 
L 99.2 98.668563 
L 99.2 91.668563 
L 79.2 91.668563 
z
" style="fill: #ff7f0e; fill-opacity: 0.15"/>
    </g>
    <g id="text_14">
     <!-- SLIP→SFEF null μ±σ -->
     <g transform="translate(107.2 98.668563) scale(0.1 -0.1)">
      <use xlink:href="#DejaVuSans-53"/>
      <use xlink:href="#DejaVuSans-4c" transform="translate(63.476562 0)"/>
      <use xlink:href="#DejaVuSans-49" transform="translate(119.189453 0)"/>
      <use xlink:href="#DejaVuSans-50" transform="translate(148.681641 0)"/>
      <use xlink:href="#DejaVuSans-2192" transform="translate(208.984375 0)"/>
      <use xlink:href="#DejaVuSans-53" transform="translate(292.773438 0)"/>
      <use xlink:href="#DejaVuSans-46" transform="translate(356.25 0)"/>
      <use xlink:href="#DejaVuSans-45" transform="translate(413.769531 0)"/>
      <use xlink:href="#DejaVuSans-46" transform="translate(476.953125 0)"/>
      <use xlink:href="#DejaVuSans-20" transform="translate(534.472656 0)"/>
      <use xlink:href="#DejaVuSans-6e" transform="translate(566.259766 0)"/>
      <use xlink:href="#DejaVuSans-75" transform="translate(629.638672 0)"/>
      <use xlink:href="#DejaVuSans-6c" transform="translate(693.017578 0)"/>
      <use xlink:href="#DejaVuSans-6c" transform="translate(720.800781 0)"/>
      <use xlink:href="#DejaVuSans-20" transform="translate(748.583984 0)"/>
      <use xlink:href="#DejaVuSans-3bc" transform="translate(780.371094 0)"/>
      <use xlink:href="#DejaVuSans-b1" transform="translate(843.994141 0)"/>
      <use xlink:href="#DejaVuSans-3c3" transform="translate(927.783203 0)"/>
     </g>
    </g>
    <g id="line2d_16">
     <path d="M 226.317187 80.490437 
L 236.317187 80.490437 
L 246.317187 80.490437 
" style="fill: none; stroke: #1f77b4; stroke-width: 2.2; stroke-linecap: square"/>
    </g>
    <g id="text_15">
     <!-- SFEF→SLIP -->
     <g transform="translate(254.317187 83.990437) scale(0.1 -0.1)">
      <use xlink:href="#DejaVuSans-53"/>
      <use xlink:href="#DejaVuSans-46" transform="translate(63.476562 0)"/>
      <use xlink:href="#DejaVuSans-45" transform="translate(120.996094 0)"/>
      <use xlink:href="#DejaVuSans-46" transform="translate(184.179688 0)"/>
      <use xlink:href="#DejaVuSans-2192" transform="translate(241.699219 0)"/>
      <use xlink:href="#DejaVuSans-53" transform="translate(325.488281 0)"/>
      <use xlink:href="#DejaVuSans-4c" transform="translate(388.964844 0)"/>
      <use xlink:href="#DejaVuSans-49" transform="translate(444.677734 0)"/>
      <use xlink:href="#DejaVuSans-50" transform="translate(474.169922 0)"/>
     </g>
    </g>
    <g id="line2d_17">
     <path d="M 226.317187 95.168563 
L 236.317187 95.168563 
L 246.317187 95.168563 
" style="fill: none; stroke: #ff7f0e; stroke-width: 2.2; stroke-linecap: square"/>
    </g>
    <g id="text_16">
     <!-- SLIP→SFEF -->
     <g transform="translate(254.317187 98.668563) scale(0.1 -0.1)">
      <use xlink:href="#DejaVuSans-53"/>
      <use xlink:href="#DejaVuSans-4c" transform="translate(63.476562 0)"/>
      <use xlink:href="#DejaVuSans-49" transform="translate(119.189453 0)"/>
      <use xlink:href="#DejaVuSans-50" transform="translate(148.681641 0)"/>
      <use xlink:href="#DejaVuSans-2192" transform="translate(208.984375 0)"/>
      <use xlink:href="#DejaVuSans-53" transform="translate(292.773438 0)"/>
      <use xlink:href="#DejaVuSans-46" transform="translate(356.25 0)"/>
      <use xlink:href="#DejaVuSans-45" transform="translate(413.769531 0)"/>
      <use xlink:href="#DejaVuSans-46" transform="translate(476.953125 0)"/>
     </g>
    </g>
   </g>
  </g>
  <g id="axes_2">
   <g id="patch_9">
    <path d="M 70.2 353.106 
L 505.44 353.106 
L 505.44 237.276 
L 70.2 237.276 
z
" style="fill: #ffffff"/>
   </g>
   <g id="matplotlib.axis_3">
    <g id="xtick_7">
     <g id="line2d_18">
      <g>
       <use xlink:href="#m4ac28097b4" x="87.985286" y="353.106" style="stroke: #000000; stroke-width: 0.8"/>
      </g>
     </g>
     <g id="text_17">
      <!-- −200 -->
      <g transform="translate(74.251693 367.704438) scale(0.1 -0.1)">
       <use xlink:href="#DejaVuSans-2212"/>
       <use xlink:href="#DejaVuSans-32" transform="translate(83.789062 0)"/>
       <use xlink:href="#DejaVuSans-30" transform="translate(147.412109 0)"/>
       <use xlink:href="#DejaVuSans-30" transform="translate(211.035156 0)"/>
      </g>
     </g>
    </g>
    <g id="xtick_8">
     <g id="line2d_19">
      <g>
       <use xlink:href="#m4ac28097b4" x="167.91917" y="353.106" style="stroke: #000000; stroke-width: 0.8"/>
      </g>
     </g>
     <g id="text_18">
      <!-- 0 -->
      <g transform="translate(164.73792 367.704438) scale(0.1 -0.1)">
       <use xlink:href="#DejaVuSans-30"/>
      </g>
     </g>
    </g>
    <g id="xtick_9">
     <g id="line2d_20">
      <g>
       <use xlink:href="#m4ac28097b4" x="247.853053" y="353.106" style="stroke: #000000; stroke-width: 0.8"/>
      </g>
     </g>
     <g id="text_19">
      <!-- 200 -->
      <g transform="translate(238.309303 367.704438) scale(0.1 -0.1)">
       <use xlink:href="#DejaVuSans-32"/>
       <use xlink:href="#DejaVuSans-30" transform="translate(63.623047 0)"/>
       <use xlink:href="#DejaVuSans-30" transform="translate(127.246094 0)"/>
      </g>
     </g>
    </g>
    <g id="xtick_10">
     <g id="line2d_21">
      <g>
       <use xlink:href="#m4ac28097b4" x="327.786937" y="353.106" style="stroke: #000000; stroke-width: 0.8"/>
      </g>
     </g>
     <g id="text_20">
      <!-- 400 -->
      <g transform="translate(318.243187 367.704438) scale(0.1 -0.1)">
       <use xlink:href="#DejaVuSans-34"/>
       <use xlink:href="#DejaVuSans-30" transform="translate(63.623047 0)"/>
       <use xlink:href="#DejaVuSans-30" transform="translate(127.246094 0)"/>
      </g>
     </g>
    </g>
    <g id="xtick_11">
     <g id="line2d_22">
      <g>
       <use xlink:href="#m4ac28097b4" x="407.720821" y="353.106" style="stroke: #000000; stroke-width: 0.8"/>
      </g>
     </g>
     <g id="text_21">
      <!-- 600 -->
      <g transform="translate(398.177071 367.704438) scale(0.1 -0.1)">
       <use xlink:href="#DejaVuSans-36"/>
       <use xlink:href="#DejaVuSans-30" transform="translate(63.623047 0)"/>
       <use xlink:href="#DejaVuSans-30" transform="translate(127.246094 0)"/>
      </g>
     </g>
    </g>
    <g id="xtick_12">
     <g id="line2d_23">
      <g>
       <use xlink:href="#m4ac28097b4" x="487.654704" y="353.106" style="stroke: #000000; stroke-width: 0.8"/>
      </g>
     </g>
     <g id="text_22">
      <!-- 800 -->
      <g transform="translate(478.110954 367.704438) scale(0.1 -0.1)">
       <use xlink:href="#DejaVuSans-38"/>
       <use xlink:href="#DejaVuSans-30" transform="translate(63.623047 0)"/>
       <use xlink:href="#DejaVuSans-30" transform="translate(127.246094 0)"/>
      </g>
     </g>
    </g>
   </g>
   <g id="matplotlib.axis_4">
    <g id="ytick_5">
     <g id="line2d_24">
      <g>
       <use xlink:href="#mf88dc6922c" x="70.2" y="325.244688" style="stroke: #000000; stroke-width: 0.8"/>
      </g>
     </g>
     <g id="text_23">
      <!-- −5 -->
      <g transform="translate(48.457813 329.043907) scale(0.1 -0.1)">
       <use xlink:href="#DejaVuSans-2212"/>
       <use xlink:href="#DejaVuSans-35" transform="translate(83.789062 0)"/>
      </g>
     </g>
    </g>
    <g id="ytick_6">
     <g id="line2d_25">
      <g>
       <use xlink:href="#mf88dc6922c" x="70.2" y="294.443285" style="stroke: #000000; stroke-width: 0.8"/>
      </g>
     </g>
     <g id="text_24">
      <!-- 0 -->
      <g transform="translate(56.8375 298.242504) scale(0.1 -0.1)">
       <use xlink:href="#DejaVuSans-30"/>
      </g>
     </g>
    </g>
    <g id="ytick_7">
     <g id="line2d_26">
      <g>
       <use xlink:href="#mf88dc6922c" x="70.2" y="263.641881" style="stroke: #000000; stroke-width: 0.8"/>
      </g>
     </g>
     <g id="text_25">
      <!-- 5 -->
      <g transform="translate(56.8375 267.4411) scale(0.1 -0.1)">
       <use xlink:href="#DejaVuSans-35"/>
      </g>
     </g>
    </g>
    <g id="text_26">
     <!-- ΔΔLL (bits) -->
     <g transform="translate(42.378125 322.22225) rotate(-90) scale(0.1 -0.1)">
      <use xlink:href="#DejaVuSans-394"/>
      <use xlink:href="#DejaVuSans-394" transform="translate(68.408203 0)"/>
      <use xlink:href="#DejaVuSans-4c" transform="translate(136.816406 0)"/>
      <use xlink:href="#DejaVuSans-4c" transform="translate(192.529297 0)"/>
      <use xlink:href="#DejaVuSans-20" transform="translate(248.242188 0)"/>
      <use xlink:href="#DejaVuSans-28" transform="translate(280.029297 0)"/>
      <use xlink:href="#DejaVuSans-62" transform="translate(319.042969 0)"/>
      <use xlink:href="#DejaVuSans-69" transform="translate(382.519531 0)"/>
      <use xlink:href="#DejaVuSans-74" transform="translate(410.302734 0)"/>
      <use xlink:href="#DejaVuSans-73" transform="translate(449.511719 0)"/>
      <use xlink:href="#DejaVuSans-29" transform="translate(501.611328 0)"/>
     </g>
    </g>
   </g>
   <g id="line2d_27">
    <path d="M 167.91917 353.106 
L 167.91917 237.276 
" clip-path="url(#pc8ef717628)" style="fill: none; stroke-dasharray: 2.96,1.28; stroke-dashoffset: 0; stroke: #000000; stroke-width: 0.8"/>
   </g>
   <g id="line2d_28">
    <path d="M 70.2 294.443285 
L 505.44 294.443285 
" clip-path="url(#pc8ef717628)" style="fill: none; stroke-dasharray: 0.8,1.32; stroke-dashoffset: 0; stroke: #000000; stroke-width: 0.8"/>
   </g>
   <g id="line2d_29">
    <path d="M 89.983636 297.792675 
L 93.980327 303.594519 
L 97.977023 309.718393 
L 101.973713 277.939203 
L 105.97041 265.465723 
L 109.967106 308.369297 
L 113.963796 283.947476 
L 117.960493 279.386498 
L 121.957186 347.841 
L 125.953882 278.988782 
L 129.950576 292.05437 
L 133.947269 272.555029 
L 137.943962 279.644438 
L 141.940659 291.431078 
L 145.937352 337.824931 
L 149.934045 287.749441 
L 153.93074 291.817702 
L 157.927434 284.480476 
L 161.924129 316.931441 
L 165.920823 281.332883 
L 169.917517 296.488938 
L 173.914211 325.635688 
L 177.910906 242.541 
L 181.9076 268.220211 
L 185.904294 286.073365 
L 189.900988 317.183643 
L 193.897681 320.044386 
L 197.894377 337.91518 
L 201.891071 255.746658 
L 205.887764 310.652653 
L 209.884457 309.749661 
L 213.881154 283.367303 
L 217.877847 300.709129 
L 221.874543 258.103826 
L 225.871234 281.424773 
L 229.86793 308.372123 
L 233.864626 308.508916 
L 237.861317 302.038505 
L 241.858013 269.328827 
L 245.854704 327.65865 
L 249.8514 258.531458 
L 253.848096 303.733632 
L 257.844787 302.280602 
L 261.841483 300.789886 
L 265.838179 345.183232 
L 269.83487 302.895756 
L 273.83156 306.71834 
L 277.828262 284.8116 
L 281.824953 289.102713 
L 285.821643 340.747533 
L 289.818345 309.543596 
L 293.815036 266.62987 
L 297.811726 276.615047 
L 301.808428 340.185501 
L 305.805119 264.939037 
L 309.801809 314.506197 
L 313.798511 274.112451 
L 317.795202 299.685618 
L 321.791892 266.26977 
L 325.788594 341.544819 
L 329.785285 284.080041 
L 333.781975 282.711146 
L 337.778677 247.346234 
L 341.775368 291.609607 
L 345.772058 302.057147 
L 349.76876 329.742244 
L 353.765451 345.159382 
L 357.762141 313.498075 
L 361.758843 317.982803 
L 365.755534 302.272328 
L 369.752224 280.006523 
L 373.748914 263.026144 
L 377.745605 276.635459 
L 381.742319 312.604637 
L 385.739009 298.145552 
L 389.7357 297.228202 
L 393.73239 296.839384 
L 397.72908 318.543227 
L 401.725771 305.307605 
L 405.722485 303.096667 
L 409.719175 263.55643 
L 413.715866 347.504897 
L 417.712556 280.31072 
L 421.709246 304.772227 
L 425.705937 336.109345 
L 429.702627 313.653221 
L 433.699341 324.866319 
L 437.696032 281.5711 
L 441.692722 254.814235 
L 445.689412 298.937909 
L 449.686103 258.237985 
L 453.682793 343.545258 
L 457.679507 321.510517 
L 461.676198 311.563709 
L 465.672888 279.973238 
L 469.669578 292.911634 
L 473.666269 270.090196 
L 477.662959 308.54764 
L 481.659673 264.652574 
L 485.656364 315.253982 
" clip-path="url(#pc8ef717628)" style="fill: none; stroke: #d62728; stroke-width: 2.2; stroke-linecap: square"/>
   </g>
   <g id="line2d_30">
    <defs>
     <path id="mfef967a016" d="M 0 1.25 
C 0.331504 1.25 0.649475 1.118292 0.883883 0.883883 
C 1.118292 0.649475 1.25 0.331504 1.25 0 
C 1.25 -0.331504 1.118292 -0.649475 0.883883 -0.883883 
C 0.649475 -1.118292 0.331504 -1.25 0 -1.25 
C -0.331504 -1.25 -0.649475 -1.118292 -0.883883 -0.883883 
C -1.118292 -0.649475 -1.25 -0.331504 -1.25 0 
C -1.25 0.331504 -1.118292 0.649475 -0.883883 0.883883 
C -0.649475 1.118292 -0.331504 1.25 0 1.25 
z
" style="stroke: #000000"/>
    </defs>
    <g clip-path="url(#pc8ef717628)">
     <use xlink:href="#mfef967a016" x="121.957186" y="347.841" style="stroke: #000000"/>
     <use xlink:href="#mfef967a016" x="177.910906" y="242.541" style="stroke: #000000"/>
     <use xlink:href="#mfef967a016" x="241.858013" y="269.328827" style="stroke: #000000"/>
     <use xlink:href="#mfef967a016" x="265.838179" y="345.183232" style="stroke: #000000"/>
     <use xlink:href="#mfef967a016" x="285.821643" y="340.747533" style="stroke: #000000"/>
     <use xlink:href="#mfef967a016" x="425.705937" y="336.109345" style="stroke: #000000"/>
    </g>
   </g>
   <g id="patch_10">
    <path d="M 70.2 353.106 
L 70.2 237.276 
" style="fill: none; stroke: #000000; stroke-width: 0.8; stroke-linejoin: miter; stroke-linecap: square"/>
   </g>
   <g id="patch_11">
    <path d="M 505.44 353.106 
L 505.44 237.276 
" style="fill: none; stroke: #000000; stroke-width: 0.8; stroke-linejoin: miter; stroke-linecap: square"/>
   </g>
   <g id="patch_12">
    <path d="M 70.2 353.106 
L 505.44 353.106 
" style="fill: none; stroke: #000000; stroke-width: 0.8; stroke-linejoin: miter; stroke-linecap: square"/>
   </g>
   <g id="patch_13">
    <path d="M 70.2 237.276 
L 505.44 237.276 
" style="fill: none; stroke: #000000; stroke-width: 0.8; stroke-linejoin: miter; stroke-linecap: square"/>
   </g>
   <g id="text_27">
    <!-- Panel B: pair-diff with significance dots -->
    <g transform="translate(171.554063 231.276) scale(0.12 -0.12)">
     <defs>
      <path id="DejaVuSans-42" d="M 1259 2228 
L 1259 519 
L 2272 519 
Q 2781 519 3026 730 
Q 3272 941 3272 1375 
Q 3272 1813 3026 2020 
Q 2781 2228 2272 2228 
L 1259 2228 
z
M 1259 4147 
L 1259 2741 
L 2194 2741 
Q 2656 2741 2882 2914 
Q 3109 3088 3109 3444 
Q 3109 3797 2882 3972 
Q 2656 4147 2194 4147 
L 1259 4147 
z
M 628 4666 
L 2241 4666 
Q 2963 4666 3353 4366 
Q 3744 4066 3744 3513 
Q 3744 3084 3544 2831 
Q 3344 2578 2956 2516 
Q 3422 2416 3680 2098 
Q 3938 1781 3938 1306 
Q 3938 681 3513 340 
Q 3088 0 2303 0 
L 628 0 
L 628 4666 
z
" transform="scale(0.015625)"/>
      <path id="DejaVuSans-70" d="M 1159 525 
L 1159 -1331 
L 581 -1331 
L 581 3500 
L 1159 3500 
L 1159 2969 
Q 1341 3281 1617 3432 
Q 1894 3584 2278 3584 
Q 2916 3584 3314 3078 
Q 3713 2572 3713 1747 
Q 3713 922 3314 415 
Q 2916 -91 2278 -91 
Q 1894 -91 1617 61 
Q 1341 213 1159 525 
z
M 3116 1747 
Q 3116 2381 2855 2742 
Q 2594 3103 2138 3103 
Q 1681 3103 1420 2742 
Q 1159 2381 1159 1747 
Q 1159 1113 1420 752 
Q 1681 391 2138 391 
Q 2594 391 2855 752 
Q 3116 1113 3116 1747 
z
" transform="scale(0.015625)"/>
      <path id="DejaVuSans-68" d="M 3513 2113 
L 3513 0 
L 2938 0 
L 2938 2094 
Q 2938 2591 2744 2837 
Q 2550 3084 2163 3084 
Q 1697 3084 1428 2787 
Q 1159 2491 1159 1978 
L 1159 0 
L 581 0 
L 581 4863 
L 1159 4863 
L 1159 2956 
Q 1366 3272 1645 3428 
Q 1925 3584 2291 3584 
Q 2894 3584 3203 3211 
Q 3513 2838 3513 2113 
z
" transform="scale(0.015625)"/>
      <path id="DejaVuSans-67" d="M 2906 1791 
Q 2906 2416 2648 2759 
Q 2391 3103 1925 3103 
Q 1463 3103 1205 2759 
Q 947 2416 947 1791 
Q 947 1169 1205 825 
Q 1463 481 1925 481 
Q 2391 481 2648 825 
Q 2906 1169 2906 1791 
z
M 3481 434 
Q 3481 -459 3084 -895 
Q 2688 -1331 1869 -1331 
Q 1566 -1331 1297 -1286 
Q 1028 -1241 775 -1147 
L 775 -588 
Q 1028 -725 1275 -790 
Q 1522 -856 1778 -856 
Q 2344 -856 2625 -561 
Q 2906 -266 2906 331 
L 2906 616 
Q 2728 306 2450 153 
Q 2172 0 1784 0 
Q 1141 0 747 490 
Q 353 981 353 1791 
Q 353 2603 747 3093 
Q 1141 3584 1784 3584 
Q 2172 3584 2450 3431 
Q 2728 3278 2906 2969 
L 2906 3500 
L 3481 3500 
L 3481 434 
z
" transform="scale(0.015625)"/>
      <path id="DejaVuSans-63" d="M 3122 3366 
L 3122 2828 
Q 2878 2963 2633 3030 
Q 2388 3097 2138 3097 
Q 1578 3097 1268 2742 
Q 959 2388 959 1747 
Q 959 1106 1268 751 
Q 1578 397 2138 397 
Q 2388 397 2633 464 
Q 2878 531 3122 666 
L 3122 134 
Q 2881 22 2623 -34 
Q 2366 -91 2075 -91 
Q 1284 -91 818 406 
Q 353 903 353 1747 
Q 353 2603 823 3093 
Q 1294 3584 2113 3584 
Q 2378 3584 2631 3529 
Q 2884 3475 3122 3366 
z
" transform="scale(0.015625)"/>
     </defs>
     <use xlink:href="#DejaVuSans-50"/>
     <use xlink:href="#DejaVuSans-61" transform="translate(55.802734 0)"/>
     <use xlink:href="#DejaVuSans-6e" transform="translate(117.082031 0)"/>
     <use xlink:href="#DejaVuSans-65" transform="translate(180.460938 0)"/>
     <use xlink:href="#DejaVuSans-6c" transform="translate(241.984375 0)"/>
     <use xlink:href="#DejaVuSans-20" transform="translate(269.767578 0)"/>
     <use xlink:href="#DejaVuSans-42" transform="translate(301.554688 0)"/>
     <use xlink:href="#DejaVuSans-3a" transform="translate(370.158203 0)"/>
     <use xlink:href="#DejaVuSans-20" transform="translate(403.849609 0)"/>
     <use xlink:href="#DejaVuSans-70" transform="translate(435.636719 0)"/>
     <use xlink:href="#DejaVuSans-61" transform="translate(499.113281 0)"/>
     <use xlink:href="#DejaVuSans-69" transform="translate(560.392578 0)"/>
     <use xlink:href="#DejaVuSans-72" transform="translate(588.175781 0)"/>
     <use xlink:href="#DejaVuSans-2d" transform="translate(622.914062 0)"/>
     <use xlink:href="#DejaVuSans-64" transform="translate(658.998047 0)"/>
     <use xlink:href="#DejaVuSans-69" transform="translate(722.474609 0)"/>
     <use xlink:href="#DejaVuSans-66" transform="translate(750.257812 0)"/>
     <use xlink:href="#DejaVuSans-66" transform="translate(785.462891 0)"/>
     <use xlink:href="#DejaVuSans-20" transform="translate(820.667969 0)"/>
     <use xlink:href="#DejaVuSans-77" transform="translate(852.455078 0)"/>
     <use xlink:href="#DejaVuSans-69" transform="translate(934.242188 0)"/>
     <use xlink:href="#DejaVuSans-74" transform="translate(962.025391 0)"/>
     <use xlink:href="#DejaVuSans-68" transform="translate(1001.234375 0)"/>
     <use xlink:href="#DejaVuSans-20" transform="translate(1064.613281 0)"/>
     <use xlink:href="#DejaVuSans-73" transform="translate(1096.400391 0)"/>
     <use xlink:href="#DejaVuSans-69" transform="translate(1148.5 0)"/>
     <use xlink:href="#DejaVuSans-67" transform="translate(1176.283203 0)"/>
     <use xlink:href="#DejaVuSans-6e" transform="translate(1239.759766 0)"/>
     <use xlink:href="#DejaVuSans-69" transform="translate(1303.138672 0)"/>
     <use xlink:href="#DejaVuSans-66" transform="translate(1330.921875 0)"/>
     <use xlink:href="#DejaVuSans-69" transform="translate(1366.126953 0)"/>
     <use xlink:href="#DejaVuSans-63" transform="translate(1393.910156 0)"/>
     <use xlink:href="#DejaVuSans-61" transform="translate(1448.890625 0)"/>
     <use xlink:href="#DejaVuSans-6e" transform="translate(1510.169922 0)"/>
     <use xlink:href="#DejaVuSans-63" transform="translate(1573.548828 0)"/>
     <use xlink:href="#DejaVuSans-65" transform="translate(1628.529297 0)"/>
     <use xlink:href="#DejaVuSans-20" transform="translate(1690.052734 0)"/>
     <use xlink:href="#DejaVuSans-64" transform="translate(1721.839844 0)"/>
     <use xlink:href="#DejaVuSans-6f" transform="translate(1785.316406 0)"/>
     <use xlink:href="#DejaVuSans-74" transform="translate(1846.498047 0)"/>
     <use xlink:href="#DejaVuSans-73" transform="translate(1885.707031 0)"/>
    </g>
   </g>
   <g id="legend_2">
    <g id="line2d_31">
     <path d="M 79.2 250.374437 
L 89.2 250.374437 
L 99.2 250.374437 
" style="fill: none; stroke: #d62728; stroke-width: 2.2; stroke-linecap: square"/>
    </g>
    <g id="text_28">
     <!-- (A→B − B→A) -->
     <g transform="translate(107.2 253.874437) scale(0.1 -0.1)">
      <use xlink:href="#DejaVuSans-28"/>
      <use xlink:href="#DejaVuSans-41" transform="translate(39.013672 0)"/>
      <use xlink:href="#DejaVuSans-2192" transform="translate(107.421875 0)"/>
      <use xlink:href="#DejaVuSans-42" transform="translate(191.210938 0)"/>
      <use xlink:href="#DejaVuSans-20" transform="translate(259.814453 0)"/>
      <use xlink:href="#DejaVuSans-2212" transform="translate(291.601562 0)"/>
      <use xlink:href="#DejaVuSans-20" transform="translate(375.390625 0)"/>
      <use xlink:href="#DejaVuSans-42" transform="translate(407.177734 0)"/>
      <use xlink:href="#DejaVuSans-2192" transform="translate(475.78125 0)"/>
      <use xlink:href="#DejaVuSans-41" transform="translate(559.570312 0)"/>
      <use xlink:href="#DejaVuSans-29" transform="translate(627.978516 0)"/>
     </g>
    </g>
    <g id="line2d_32">
     <g>
      <use xlink:href="#mfef967a016" x="89.2" y="265.052563" style="stroke: #000000"/>
     </g>
    </g>
    <g id="text_29">
     <!-- p&lt;0.05 (one-sided) -->
     <g transform="translate(107.2 268.552563) scale(0.1 -0.1)">
      <defs>
       <path id="DejaVuSans-3c" d="M 4684 3150 
L 1459 2003 
L 4684 863 
L 4684 294 
L 678 1747 
L 678 2266 
L 4684 3719 
L 4684 3150 
z
" transform="scale(0.015625)"/>
       <path id="DejaVuSans-2e" d="M 684 794 
L 1344 794 
L 1344 0 
L 684 0 
L 684 794 
z
" transform="scale(0.015625)"/>
      </defs>
      <use xlink:href="#DejaVuSans-70"/>
      <use xlink:href="#DejaVuSans-3c" transform="translate(63.476562 0)"/>
      <use xlink:href="#DejaVuSans-30" transform="translate(147.265625 0)"/>
      <use xlink:href="#DejaVuSans-2e" transform="translate(210.888672 0)"/>
      <use xlink:href="#DejaVuSans-30" transform="translate(242.675781 0)"/>
      <use xlink:href="#DejaVuSans-35" transform="translate(306.298828 0)"/>
      <use xlink:href="#DejaVuSans-20" transform="translate(369.921875 0)"/>
      <use xlink:href="#DejaVuSans-28" transform="translate(401.708984 0)"/>
      <use xlink:href="#DejaVuSans-6f" transform="translate(440.722656 0)"/>
      <use xlink:href="#DejaVuSans-6e" transform="translate(501.904297 0)"/>
      <use xlink:href="#DejaVuSans-65" transform="translate(565.283203 0)"/>
      <use xlink:href="#DejaVuSans-2d" transform="translate(626.806641 0)"/>
      <use xlink:href="#DejaVuSans-73" transform="translate(662.890625 0)"/>
      <use xlink:href="#DejaVuSans-69" transform="translate(714.990234 0)"/>
      <use xlink:href="#DejaVuSans-64" transform="translate(742.773438 0)"/>
      <use xlink:href="#DejaVuSans-65" transform="translate(806.25 0)"/>
      <use xlink:href="#DejaVuSans-64" transform="translate(867.773438 0)"/>
      <use xlink:href="#DejaVuSans-29" transform="translate(931.25 0)"/>
     </g>
    </g>
   </g>
  </g>
  <g id="axes_3">
   <g id="patch_14">
    <path d="M 70.2 499.824 
L 505.44 499.824 
L 505.44 383.994 
L 70.2 383.994 
z
" style="fill: #ffffff"/>
   </g>
   <g id="matplotlib.axis_5">
    <g id="xtick_13">
     <g id="line2d_33">
      <g>
       <use xlink:href="#m4ac28097b4" x="87.985286" y="499.824" style="stroke: #000000; stroke-width: 0.8"/>
      </g>
     </g>
     <g id="text_30">
      <!-- −200 -->
      <g transform="translate(74.251693 514.422438) scale(0.1 -0.1)">
       <use xlink:href="#DejaVuSans-2212"/>
       <use xlink:href="#DejaVuSans-32" transform="translate(83.789062 0)"/>
       <use xlink:href="#DejaVuSans-30" transform="translate(147.412109 0)"/>
       <use xlink:href="#DejaVuSans-30" transform="translate(211.035156 0)"/>
      </g>
     </g>
    </g>
    <g id="xtick_14">
     <g id="line2d_34">
      <g>
       <use xlink:href="#m4ac28097b4" x="167.91917" y="499.824" style="stroke: #000000; stroke-width: 0.8"/>
      </g>
     </g>
     <g id="text_31">
      <!-- 0 -->
      <g transform="translate(164.73792 514.422438) scale(0.1 -0.1)">
       <use xlink:href="#DejaVuSans-30"/>
      </g>
     </g>
    </g>
    <g id="xtick_15">
     <g id="line2d_35">
      <g>
       <use xlink:href="#m4ac28097b4" x="247.853053" y="499.824" style="stroke: #000000; stroke-width: 0.8"/>
      </g>
     </g>
     <g id="text_32">
      <!-- 200 -->
      <g transform="translate(238.309303 514.422438) scale(0.1 -0.1)">
       <use xlink:href="#DejaVuSans-32"/>
       <use xlink:href="#DejaVuSans-30" transform="translate(63.623047 0)"/>
       <use xlink:href="#DejaVuSans-30" transform="translate(127.246094 0)"/>
      </g>
     </g>
    </g>
    <g id="xtick_16">
     <g id="line2d_36">
      <g>
       <use xlink:href="#m4ac28097b4" x="327.786937" y="499.824" style="stroke: #000000; stroke-width: 0.8"/>
      </g>
     </g>
     <g id="text_33">
      <!-- 400 -->
      <g transform="translate(318.243187 514.422438) scale(0.1 -0.1)">
       <use xlink:href="#DejaVuSans-34"/>
       <use xlink:href="#DejaVuSans-30" transform="translate(63.623047 0)"/>
       <use xlink:href="#DejaVuSans-30" transform="translate(127.246094 0)"/>
      </g>
     </g>
    </g>
    <g id="xtick_17">
     <g id="line2d_37">
      <g>
       <use xlink:href="#m4ac28097b4" x="407.720821" y="499.824" style="stroke: #000000; stroke-width: 0.8"/>
      </g>
     </g>
     <g id="text_34">
      <!-- 600 -->
      <g transform="translate(398.177071 514.422438) scale(0.1 -0.1)">
       <use xlink:href="#DejaVuSans-36"/>
       <use xlink:href="#DejaVuSans-30" transform="translate(63.623047 0)"/>
       <use xlink:href="#DejaVuSans-30" transform="translate(127.246094 0)"/>
      </g>
     </g>
    </g>
    <g id="xtick_18">
     <g id="line2d_38">
      <g>
       <use xlink:href="#m4ac28097b4" x="487.654704" y="499.824" style="stroke: #000000; stroke-width: 0.8"/>
      </g>
     </g>
     <g id="text_35">
      <!-- 800 -->
      <g transform="translate(478.110954 514.422438) scale(0.1 -0.1)">
       <use xlink:href="#DejaVuSans-38"/>
       <use xlink:href="#DejaVuSans-30" transform="translate(63.623047 0)"/>
       <use xlink:href="#DejaVuSans-30" transform="translate(127.246094 0)"/>
      </g>
     </g>
    </g>
    <g id="text_36">
     <!-- Time (ms) -->
     <g transform="translate(262.620781 528.100563) scale(0.1 -0.1)">
      <defs>
       <path id="DejaVuSans-54" d="M -19 4666 
L 3928 4666 
L 3928 4134 
L 2272 4134 
L 2272 0 
L 1638 0 
L 1638 4134 
L -19 4134 
L -19 4666 
z
" transform="scale(0.015625)"/>
       <path id="DejaVuSans-6d" d="M 3328 2828 
Q 3544 3216 3844 3400 
Q 4144 3584 4550 3584 
Q 5097 3584 5394 3201 
Q 5691 2819 5691 2113 
L 5691 0 
L 5113 0 
L 5113 2094 
Q 5113 2597 4934 2840 
Q 4756 3084 4391 3084 
Q 3944 3084 3684 2787 
Q 3425 2491 3425 1978 
L 3425 0 
L 2847 0 
L 2847 2094 
Q 2847 2600 2669 2842 
Q 2491 3084 2119 3084 
Q 1678 3084 1418 2786 
Q 1159 2488 1159 1978 
L 1159 0 
L 581 0 
L 581 3500 
L 1159 3500 
L 1159 2956 
Q 1356 3278 1631 3431 
Q 1906 3584 2284 3584 
Q 2666 3584 2933 3390 
Q 3200 3197 3328 2828 
z
" transform="scale(0.015625)"/>
      </defs>
      <use xlink:href="#DejaVuSans-54"/>
      <use xlink:href="#DejaVuSans-69" transform="translate(57.958984 0)"/>
      <use xlink:href="#DejaVuSans-6d" transform="translate(85.742188 0)"/>
      <use xlink:href="#DejaVuSans-65" transform="translate(183.154297 0)"/>
      <use xlink:href="#DejaVuSans-20" transform="translate(244.677734 0)"/>
      <use xlink:href="#DejaVuSans-28" transform="translate(276.464844 0)"/>
      <use xlink:href="#DejaVuSans-6d" transform="translate(315.478516 0)"/>
      <use xlink:href="#DejaVuSans-73" transform="translate(412.890625 0)"/>
      <use xlink:href="#DejaVuSans-29" transform="translate(464.990234 0)"/>
     </g>
    </g>
   </g>
   <g id="matplotlib.axis_6">
    <g id="ytick_8">
     <g id="line2d_39">
      <g>
       <use xlink:href="#mf88dc6922c" x="70.2" y="478.475615" style="stroke: #000000; stroke-width: 0.8"/>
      </g>
     </g>
     <g id="text_37">
      <!-- −2 -->
      <g transform="translate(48.457813 482.274834) scale(0.1 -0.1)">
       <use xlink:href="#DejaVuSans-2212"/>
       <use xlink:href="#DejaVuSans-32" transform="translate(83.789062 0)"/>
      </g>
     </g>
    </g>
    <g id="ytick_9">
     <g id="line2d_40">
      <g>
       <use xlink:href="#mf88dc6922c" x="70.2" y="442.772934" style="stroke: #000000; stroke-width: 0.8"/>
      </g>
     </g>
     <g id="text_38">
      <!-- 0 -->
      <g transform="translate(56.8375 446.572153) scale(0.1 -0.1)">
       <use xlink:href="#DejaVuSans-30"/>
      </g>
     </g>
    </g>
    <g id="ytick_10">
     <g id="line2d_41">
      <g>
       <use xlink:href="#mf88dc6922c" x="70.2" y="407.070253" style="stroke: #000000; stroke-width: 0.8"/>
      </g>
     </g>
     <g id="text_39">
      <!-- 2 -->
      <g transform="translate(56.8375 410.869472) scale(0.1 -0.1)">
       <use xlink:href="#DejaVuSans-32"/>
      </g>
     </g>
    </g>
    <g id="text_40">
     <!-- Z (σ from null) -->
     <g transform="translate(42.378125 477.919938) rotate(-90) scale(0.1 -0.1)">
      <defs>
       <path id="DejaVuSans-5a" d="M 359 4666 
L 4025 4666 
L 4025 4184 
L 1075 531 
L 4097 531 
L 4097 0 
L 288 0 
L 288 481 
L 3238 4134 
L 359 4134 
L 359 4666 
z
" transform="scale(0.015625)"/>
      </defs>
      <use xlink:href="#DejaVuSans-5a"/>
      <use xlink:href="#DejaVuSans-20" transform="translate(68.505859 0)"/>
      <use xlink:href="#DejaVuSans-28" transform="translate(100.292969 0)"/>
      <use xlink:href="#DejaVuSans-3c3" transform="translate(139.306641 0)"/>
      <use xlink:href="#DejaVuSans-20" transform="translate(202.685547 0)"/>
      <use xlink:href="#DejaVuSans-66" transform="translate(234.472656 0)"/>
      <use xlink:href="#DejaVuSans-72" transform="translate(269.677734 0)"/>
      <use xlink:href="#DejaVuSans-6f" transform="translate(308.541016 0)"/>
      <use xlink:href="#DejaVuSans-6d" transform="translate(369.722656 0)"/>
      <use xlink:href="#DejaVuSans-20" transform="translate(467.134766 0)"/>
      <use xlink:href="#DejaVuSans-6e" transform="translate(498.921875 0)"/>
      <use xlink:href="#DejaVuSans-75" transform="translate(562.300781 0)"/>
      <use xlink:href="#DejaVuSans-6c" transform="translate(625.679688 0)"/>
      <use xlink:href="#DejaVuSans-6c" transform="translate(653.462891 0)"/>
      <use xlink:href="#DejaVuSans-29" transform="translate(681.246094 0)"/>
     </g>
    </g>
   </g>
   <g id="line2d_42">
    <path d="M 167.91917 499.824 
L 167.91917 383.994 
" clip-path="url(#pde1050dbd2)" style="fill: none; stroke-dasharray: 2.96,1.28; stroke-dashoffset: 0; stroke: #000000; stroke-width: 0.8"/>
   </g>
   <g id="line2d_43">
    <path d="M 89.983636 455.267958 
L 93.980327 433.2858 
L 97.977023 438.462375 
L 101.973713 435.731682 
L 105.97041 434.869402 
L 109.967106 430.834847 
L 113.963796 440.771697 
L 117.960493 437.341435 
L 121.957186 452.880136 
L 125.953882 441.086248 
L 129.950576 430.10002 
L 133.947269 435.897512 
L 137.943962 433.322372 
L 141.940659 445.040976 
L 145.937352 450.051627 
L 149.934045 441.074034 
L 153.93074 437.316025 
L 157.927434 446.747086 
L 161.924129 474.836402 
L 165.920823 440.229827 
L 169.917517 432.25986 
L 173.914211 460.535979 
L 177.910906 405.869861 
L 181.9076 419.383455 
L 185.904294 443.472759 
L 189.900988 465.69078 
L 193.897681 457.00106 
L 197.894377 465.482376 
L 201.891071 412.435424 
L 205.887764 462.570333 
L 209.884457 444.491385 
L 213.881154 439.335154 
L 217.877847 450.394947 
L 221.874543 432.646889 
L 225.871234 431.735416 
L 229.86793 458.758052 
L 233.864626 449.76646 
L 237.861317 456.829994 
L 241.858013 404.610901 
L 245.854704 463.436882 
L 249.8514 423.850495 
L 253.848096 442.638288 
L 257.844787 449.341994 
L 261.841483 434.674546 
L 265.838179 446.026899 
L 269.83487 445.928066 
L 273.83156 408.416084 
L 277.828262 421.020754 
L 281.824953 434.68179 
L 285.821643 452.687013 
L 289.818345 448.915556 
L 293.815036 435.214349 
L 297.811726 448.786397 
L 301.808428 469.055295 
L 305.805119 432.556064 
L 309.801809 451.981571 
L 313.798511 429.664375 
L 317.795202 448.233122 
L 321.791892 421.602041 
L 325.788594 453.590173 
L 329.785285 436.496489 
L 333.781975 433.509154 
L 337.778677 419.939709 
L 341.775368 441.217359 
L 345.772058 465.909271 
L 349.76876 449.008086 
L 353.765451 462.831473 
L 357.762141 449.022573 
L 361.758843 455.643472 
L 365.755534 448.402906 
L 369.752224 444.87485 
L 373.748914 434.808565 
L 377.745605 431.984225 
L 381.742319 433.579524 
L 385.739009 419.299171 
L 389.7357 434.368832 
L 393.73239 429.142284 
L 397.72908 454.726706 
L 401.725771 445.056923 
L 405.722485 447.226534 
L 409.719175 415.588224 
L 413.715866 464.64799 
L 417.712556 434.064411 
L 421.709246 460.114947 
L 425.705937 448.891393 
L 429.702627 460.769563 
L 433.699341 458.172413 
L 437.696032 440.397958 
L 441.692722 417.272069 
L 445.689412 464.714907 
L 449.686103 427.848119 
L 453.682793 494.559 
L 457.679507 454.938814 
L 461.676198 471.801194 
L 465.672888 422.435926 
L 469.669578 443.805436 
L 473.666269 439.350991 
L 477.662959 444.213293 
L 481.659673 423.397894 
L 485.656364 472.45312 
" clip-path="url(#pde1050dbd2)" style="fill: none; stroke: #1f77b4; stroke-width: 2; stroke-linecap: square"/>
   </g>
   <g id="line2d_44">
    <path d="M 89.983636 452.048803 
L 93.980327 423.878843 
L 97.977023 420.021256 
L 101.973713 449.299022 
L 105.97041 463.392722 
L 109.967106 417.711393 
L 113.963796 447.934348 
L 117.960493 451.59678 
L 121.957186 389.259 
L 125.953882 458.152361 
L 129.950576 431.227752 
L 133.947269 451.750906 
L 137.943962 445.681571 
L 141.940659 450.731681 
L 145.937352 414.152182 
L 149.934045 448.661537 
L 153.93074 437.988922 
L 157.927434 449.891947 
L 161.924129 454.455962 
L 165.920823 453.408111 
L 169.917517 428.201011 
L 173.914211 429.629252 
L 177.910906 459.967767 
L 181.9076 440.540194 
L 185.904294 450.263322 
L 189.900988 444.078162 
L 193.897681 427.987226 
L 197.894377 422.315065 
L 201.891071 451.367064 
L 205.887764 442.978179 
L 209.884457 432.087326 
L 213.881154 447.832464 
L 217.877847 441.03332 
L 221.874543 466.403669 
L 225.871234 442.697426 
L 229.86793 444.336982 
L 233.864626 438.984679 
L 237.861317 445.886409 
L 241.858013 428.315215 
L 245.854704 427.955614 
L 249.8514 461.168143 
L 253.848096 436.212719 
L 257.844787 438.720202 
L 261.841483 422.368426 
L 265.838179 402.515435 
L 269.83487 433.994416 
L 273.83156 399.815164 
L 277.828262 432.43802 
L 281.824953 440.233327 
L 285.821643 408.622178 
L 289.818345 437.406285 
L 293.815036 461.609097 
L 297.811726 466.110875 
L 301.808428 428.754499 
L 305.805119 462.123657 
L 309.801809 427.050739 
L 313.798511 448.085193 
L 317.795202 442.284983 
L 321.791892 447.058814 
L 325.788594 413.800359 
L 329.785285 449.722136 
L 333.781975 444.413229 
L 337.778677 461.30189 
L 341.775368 442.56169 
L 345.772058 458.99586 
L 349.76876 416.365337 
L 353.765451 413.005182 
L 357.762141 431.313855 
L 361.758843 431.37271 
L 365.755534 445.20338 
L 369.752224 462.39027 
L 373.748914 465.74867 
L 377.745605 449.32401 
L 381.742319 417.999184 
L 385.739009 419.535721 
L 389.7357 434.022117 
L 393.73239 425.448438 
L 397.72908 435.777441 
L 401.725771 427.294735 
L 405.722485 441.307971 
L 409.719175 447.20372 
L 413.715866 415.94224 
L 417.712556 446.749042 
L 421.709246 451.416636 
L 425.705937 404.985785 
L 429.702627 439.428584 
L 433.699341 429.815011 
L 437.696032 451.107975 
L 441.692722 458.244016 
L 445.689412 458.543156 
L 449.686103 463.811757 
L 453.682793 443.316748 
L 457.679507 433.720553 
L 461.676198 458.634213 
L 465.672888 435.091349 
L 469.669578 444.370943 
L 473.666269 464.65518 
L 477.662959 429.352998 
L 481.659673 451.412495 
L 485.656364 451.335131 
" clip-path="url(#pde1050dbd2)" style="fill: none; stroke: #ff7f0e; stroke-width: 2; stroke-linecap: square"/>
   </g>
   <g id="patch_15">
    <path d="M 70.2 499.824 
L 70.2 383.994 
" style="fill: none; stroke: #000000; stroke-width: 0.8; stroke-linejoin: miter; stroke-linecap: square"/>
   </g>
   <g id="patch_16">
    <path d="M 505.44 499.824 
L 505.44 383.994 
" style="fill: none; stroke: #000000; stroke-width: 0.8; stroke-linejoin: miter; stroke-linecap: square"/>
   </g>
   <g id="patch_17">
    <path d="M 70.2 499.824 
L 505.44 499.824 
" style="fill: none; stroke: #000000; stroke-width: 0.8; stroke-linejoin: miter; stroke-linecap: square"/>
   </g>
   <g id="patch_18">
    <path d="M 70.2 383.994 
L 505.44 383.994 
" style="fill: none; stroke: #000000; stroke-width: 0.8; stroke-linejoin: miter; stroke-linecap: square"/>
   </g>
   <g id="text_41">
    <!-- Panel C: evidence strength vs null -->
    <g transform="translate(185.80125 377.994) scale(0.12 -0.12)">
     <defs>
      <path id="DejaVuSans-43" d="M 4122 4306 
L 4122 3641 
Q 3803 3938 3442 4084 
Q 3081 4231 2675 4231 
Q 1875 4231 1450 3742 
Q 1025 3253 1025 2328 
Q 1025 1406 1450 917 
Q 1875 428 2675 428 
Q 3081 428 3442 575 
Q 3803 722 4122 1019 
L 4122 359 
Q 3791 134 3420 21 
Q 3050 -91 2638 -91 
Q 1578 -91 968 557 
Q 359 1206 359 2328 
Q 359 3453 968 4101 
Q 1578 4750 2638 4750 
Q 3056 4750 3426 4639 
Q 3797 4528 4122 4306 
z
" transform="scale(0.015625)"/>
     </defs>
     <use xlink:href="#DejaVuSans-50"/>
     <use xlink:href="#DejaVuSans-61" transform="translate(55.802734 0)"/>
     <use xlink:href="#DejaVuSans-6e" transform="translate(117.082031 0)"/>
     <use xlink:href="#DejaVuSans-65" transform="translate(180.460938 0)"/>
     <use xlink:href="#DejaVuSans-6c" transform="translate(241.984375 0)"/>
     <use xlink:href="#DejaVuSans-20" transform="translate(269.767578 0)"/>
     <use xlink:href="#DejaVuSans-43" transform="translate(301.554688 0)"/>
     <use xlink:href="#DejaVuSans-3a" transform="translate(371.378906 0)"/>
     <use xlink:href="#DejaVuSans-20" transform="translate(405.070312 0)"/>
     <use xlink:href="#DejaVuSans-65" transform="translate(436.857422 0)"/>
     <use xlink:href="#DejaVuSans-76" transform="translate(498.380859 0)"/>
     <use xlink:href="#DejaVuSans-69" transform="translate(557.560547 0)"/>
     <use xlink:href="#DejaVuSans-64" transform="translate(585.34375 0)"/>
     <use xlink:href="#DejaVuSans-65" transform="translate(648.820312 0)"/>
     <use xlink:href="#DejaVuSans-6e" transform="translate(710.34375 0)"/>
     <use xlink:href="#DejaVuSans-63" transform="translate(773.722656 0)"/>
     <use xlink:href="#DejaVuSans-65" transform="translate(828.703125 0)"/>
     <use xlink:href="#DejaVuSans-20" transform="translate(890.226562 0)"/>
     <use xlink:href="#DejaVuSans-73" transform="translate(922.013672 0)"/>
     <use xlink:href="#DejaVuSans-74" transform="translate(974.113281 0)"/>
     <use xlink:href="#DejaVuSans-72" transform="translate(1013.322266 0)"/>
     <use xlink:href="#DejaVuSans-65" transform="translate(1052.185547 0)"/>
     <use xlink:href="#DejaVuSans-6e" transform="translate(1113.708984 0)"/>
     <use xlink:href="#DejaVuSans-67" transform="translate(1177.087891 0)"/>
     <use xlink:href="#DejaVuSans-74" transform="translate(1240.564453 0)"/>
     <use xlink:href="#DejaVuSans-68" transform="translate(1279.773438 0)"/>
     <use xlink:href="#DejaVuSans-20" transform="translate(1343.152344 0)"/>
     <use xlink:href="#DejaVuSans-76" transform="translate(1374.939453 0)"/>
     <use xlink:href="#DejaVuSans-73" transform="translate(1434.119141 0)"/>
     <use xlink:href="#DejaVuSans-20" transform="translate(1486.21875 0)"/>
     <use xlink:href="#DejaVuSans-6e" transform="translate(1518.005859 0)"/>
     <use xlink:href="#DejaVuSans-75" transform="translate(1581.384766 0)"/>
     <use xlink:href="#DejaVuSans-6c" transform="translate(1644.763672 0)"/>
     <use xlink:href="#DejaVuSans-6c" transform="translate(1672.546875 0)"/>
    </g>
   </g>
   <g id="legend_3">
    <g id="line2d_45">
     <path d="M 79.2 397.092438 
L 89.2 397.092438 
L 99.2 397.092438 
" style="fill: none; stroke: #1f77b4; stroke-width: 2; stroke-linecap: square"/>
    </g>
    <g id="text_42">
     <!-- z(SFEF→SLIP) -->
     <g transform="translate(107.2 400.592438) scale(0.1 -0.1)">
      <defs>
       <path id="DejaVuSans-7a" d="M 353 3500 
L 3084 3500 
L 3084 2975 
L 922 459 
L 3084 459 
L 3084 0 
L 275 0 
L 275 525 
L 2438 3041 
L 353 3041 
L 353 3500 
z
" transform="scale(0.015625)"/>
      </defs>
      <use xlink:href="#DejaVuSans-7a"/>
      <use xlink:href="#DejaVuSans-28" transform="translate(52.490234 0)"/>
      <use xlink:href="#DejaVuSans-53" transform="translate(91.503906 0)"/>
      <use xlink:href="#DejaVuSans-46" transform="translate(154.980469 0)"/>
      <use xlink:href="#DejaVuSans-45" transform="translate(212.5 0)"/>
      <use xlink:href="#DejaVuSans-46" transform="translate(275.683594 0)"/>
      <use xlink:href="#DejaVuSans-2192" transform="translate(333.203125 0)"/>
      <use xlink:href="#DejaVuSans-53" transform="translate(416.992188 0)"/>
      <use xlink:href="#DejaVuSans-4c" transform="translate(480.46875 0)"/>
      <use xlink:href="#DejaVuSans-49" transform="translate(536.181641 0)"/>
      <use xlink:href="#DejaVuSans-50" transform="translate(565.673828 0)"/>
      <use xlink:href="#DejaVuSans-29" transform="translate(625.976562 0)"/>
     </g>
    </g>
    <g id="line2d_46">
     <path d="M 79.2 411.770563 
L 89.2 411.770563 
L 99.2 411.770563 
" style="fill: none; stroke: #ff7f0e; stroke-width: 2; stroke-linecap: square"/>
    </g>
    <g id="text_43">
     <!-- z(SLIP→SFEF) -->
     <g transform="translate(107.2 415.270563) scale(0.1 -0.1)">
      <use xlink:href="#DejaVuSans-7a"/>
      <use xlink:href="#DejaVuSans-28" transform="translate(52.490234 0)"/>
      <use xlink:href="#DejaVuSans-53" transform="translate(91.503906 0)"/>
      <use xlink:href="#DejaVuSans-4c" transform="translate(154.980469 0)"/>
      <use xlink:href="#DejaVuSans-49" transform="translate(210.693359 0)"/>
      <use xlink:href="#DejaVuSans-50" transform="translate(240.185547 0)"/>
      <use xlink:href="#DejaVuSans-2192" transform="translate(300.488281 0)"/>
      <use xlink:href="#DejaVuSans-53" transform="translate(384.277344 0)"/>
      <use xlink:href="#DejaVuSans-46" transform="translate(447.753906 0)"/>
      <use xlink:href="#DejaVuSans-45" transform="translate(505.273438 0)"/>
      <use xlink:href="#DejaVuSans-46" transform="translate(568.457031 0)"/>
      <use xlink:href="#DejaVuSans-29" transform="translate(625.976562 0)"/>
     </g>
    </g>
   </g>
  </g>
 </g>
 <defs>
  <clipPath id="p41798a8ddf">
   <rect x="70.2" y="67.392" width="435.24" height="138.996"/>
  </clipPath>
  <clipPath id="pc8ef717628">
   <rect x="70.2" y="237.276" width="435.24" height="115.83"/>
  </clipPath>
  <clipPath id="pde1050dbd2">
   <rect x="70.2" y="383.994" width="435.24" height="115.83"/>
  </clipPath>
 </defs>
</svg>
