<?xml version="1.0" encoding="utf-8" standalone="no"?>
<!DOCTYPE svg PUBLIC "-//W3C//DTD SVG 1.1//EN"
  "http://www.w3.org/Graphics/SVG/1.1/DTD/svg11.dtd">
<svg xmlns:xlink="http://www.w3.org/1999/xlink" width="561.6pt" height="561.6pt" viewBox="0 0 561.6 561.6" xmlns="http://www.w3.org/2000/svg" version="1.1">
 <metadata>
  <rdf:RDF xmlns:dc="http://purl.org/dc/elements/1.1/" xmlns:cc="http://creativecommons.org/ns#" xmlns:rdf="http://www.w3.org/1999/02/22-rdf-syntax-ns#">
   <cc:Work>
    <dc:type rdf:resource="http://purl.org/dc/dcmitype/StillImage"/>
    <dc:date>2025-12-08T02:09:50.129071</dc:date>
    <dc:format>image/svg+xml</dc:format>
    <dc:creator>
     <cc:Agent>
      <dc:title>Matplotlib v3.10.5, https://matplotlib.org/</dc:title>
     </cc:Agent>
    </dc:creator>
   </cc:Work>
  </rdf:RDF>
 </metadata>
 <defs>
  <style type="text/css">*{stroke-linejoin: round; stroke-linecap: butt}</style>
 </defs>
 <g id="figure_1">
  <g id="patch_1">
   <path d="M 0 561.6 
L 561.6 561.6 
L 561.6 0 
L 0 0 
z
" style="fill: #ffffff"/>
  </g>
  <g id="axes_1">
   <g id="patch_2">
    <path d="M 70.2 206.388 
L 505.44 206.388 
L 505.44 67.392 
L 70.2 67.392 
z
" style="fill: #ffffff"/>
   </g>
   <g id="FillBetweenPolyCollection_1">
    <defs>
     <path id="m6207ed919e" d="M 89.983636 -419.120474 
L 89.983636 -372.598251 
L 93.980327 -373.278023 
L 97.977023 -373.549764 
L 101.973713 -373.669967 
L 105.97041 -371.537844 
L 109.967106 -373.983743 
L 113.963796 -373.155464 
L 117.960493 -373.212139 
L 121.957186 -373.071137 
L 125.953882 -372.278024 
L 129.950576 -373.024449 
L 133.947269 -373.533468 
L 137.943962 -373.507748 
L 141.940659 -373.095733 
L 145.937352 -373.019601 
L 149.934045 -374.703318 
L 153.93074 -372.294992 
L 157.927434 -373.369372 
L 161.924129 -373.346193 
L 165.920823 -374.669328 
L 169.917517 -373.37679 
L 173.914211 -372.00991 
L 177.910906 -373.47063 
L 181.9076 -375.302076 
L 185.904294 -372.7836 
L 189.900988 -373.233281 
L 193.897681 -375.137408 
L 197.894377 -373.250755 
L 201.891071 -372.997821 
L 205.887764 -372.99283 
L 209.884457 -373.500658 
L 213.881154 -374.213358 
L 217.877847 -374.018749 
L 221.874543 -374.496741 
L 225.871234 -372.528026 
L 229.86793 -373.254247 
L 233.864626 -374.059553 
L 237.861317 -373.489585 
L 241.858013 -374.143092 
L 245.854704 -374.128678 
L 249.8514 -372.656937 
L 253.848096 -373.900854 
L 257.844787 -373.315113 
L 261.841483 -372.79167 
L 265.838179 -374.09578 
L 269.83487 -372.894795 
L 273.83156 -373.851133 
L 277.828262 -372.597142 
L 281.824953 -373.802216 
L 285.821643 -371.471412 
L 289.818345 -372.500628 
L 293.815036 -374.402156 
L 297.811726 -374.84236 
L 301.808428 -372.967556 
L 305.805119 -373.197478 
L 309.801809 -372.360822 
L 313.798511 -376.152224 
L 317.795202 -372.321637 
L 321.791892 -373.040072 
L 325.788594 -373.083778 
L 329.785285 -372.713589 
L 333.781975 -373.88555 
L 337.778677 -373.033689 
L 341.775368 -373.363929 
L 345.772058 -372.014148 
L 349.76876 -374.839289 
L 353.765451 -372.81995 
L 357.762141 -373.704548 
L 361.758843 -373.181208 
L 365.755534 -374.362948 
L 369.752224 -373.145789 
L 373.748914 -371.802196 
L 377.745605 -371.646403 
L 381.742319 -373.591027 
L 385.739009 -375.002628 
L 389.7357 -373.318793 
L 393.73239 -374.579799 
L 397.72908 -373.16776 
L 401.725771 -372.603069 
L 405.722485 -372.716612 
L 409.719175 -373.705325 
L 413.715866 -374.161267 
L 417.712556 -372.748437 
L 421.709246 -372.364088 
L 425.705937 -371.094491 
L 429.702627 -372.822509 
L 433.699341 -373.74219 
L 437.696032 -374.468714 
L 441.692722 -372.340598 
L 445.689412 -373.416526 
L 449.686103 -372.859577 
L 453.682793 -371.90195 
L 457.679507 -371.655597 
L 461.676198 -371.261899 
L 465.672888 -372.631629 
L 469.669578 -372.205588 
L 473.666269 -372.969226 
L 477.662959 -372.926216 
L 481.659673 -374.847921 
L 485.656364 -372.924822 
L 485.656364 -419.200626 
L 485.656364 -419.200626 
L 481.659673 -420.45335 
L 477.662959 -417.498258 
L 473.666269 -415.361827 
L 469.669578 -419.99548 
L 465.672888 -422.268934 
L 461.676198 -418.592921 
L 457.679507 -419.493642 
L 453.682793 -420.031214 
L 449.686103 -420.631974 
L 445.689412 -421.071244 
L 441.692722 -418.699923 
L 437.696032 -416.924264 
L 433.699341 -419.491696 
L 429.702627 -419.59552 
L 425.705937 -419.862831 
L 421.709246 -420.29349 
L 417.712556 -421.448135 
L 413.715866 -420.105078 
L 409.719175 -423.483844 
L 405.722485 -419.256019 
L 401.725771 -419.42042 
L 397.72908 -415.5177 
L 393.73239 -419.574045 
L 389.7357 -420.735692 
L 385.739009 -420.621646 
L 381.742319 -420.701698 
L 377.745605 -420.769246 
L 373.748914 -422.836586 
L 369.752224 -420.236597 
L 365.755534 -417.150163 
L 361.758843 -418.427967 
L 357.762141 -423.013476 
L 353.765451 -422.51316 
L 349.76876 -423.092671 
L 345.772058 -420.406191 
L 341.775368 -417.647498 
L 337.778677 -422.50585 
L 333.781975 -417.806698 
L 329.785285 -417.051251 
L 325.788594 -418.704954 
L 321.791892 -416.65311 
L 317.795202 -422.557286 
L 313.798511 -422.324854 
L 309.801809 -420.110227 
L 305.805119 -419.093174 
L 301.808428 -419.723245 
L 297.811726 -418.220109 
L 293.815036 -418.688273 
L 289.818345 -418.437711 
L 285.821643 -420.172926 
L 281.824953 -417.903609 
L 277.828262 -418.586386 
L 273.83156 -419.459723 
L 269.83487 -419.590989 
L 265.838179 -418.980411 
L 261.841483 -420.709307 
L 257.844787 -422.491057 
L 253.848096 -417.357275 
L 249.8514 -421.241473 
L 245.854704 -420.282747 
L 241.858013 -421.287586 
L 237.861317 -419.553926 
L 233.864626 -420.197742 
L 229.86793 -417.543771 
L 225.871234 -420.238507 
L 221.874543 -417.275999 
L 217.877847 -416.96451 
L 213.881154 -417.606694 
L 209.884457 -419.534627 
L 205.887764 -418.058842 
L 201.891071 -418.957403 
L 197.894377 -420.269873 
L 193.897681 -420.768421 
L 189.900988 -420.498826 
L 185.904294 -419.888002 
L 181.9076 -422.262078 
L 177.910906 -421.643491 
L 173.914211 -423.022877 
L 169.917517 -420.572959 
L 165.920823 -418.425817 
L 161.924129 -419.428441 
L 157.927434 -417.658822 
L 153.93074 -417.746113 
L 149.934045 -418.475409 
L 145.937352 -421.469948 
L 141.940659 -419.646731 
L 137.943962 -417.419856 
L 133.947269 -417.566102 
L 129.950576 -419.263104 
L 125.953882 -422.469222 
L 121.957186 -422.593293 
L 117.960493 -418.541159 
L 113.963796 -417.024881 
L 109.967106 -420.334238 
L 105.97041 -421.191447 
L 101.973713 -418.631858 
L 97.977023 -419.449677 
L 93.980327 -420.22929 
L 89.983636 -419.120474 
z
"/>
    </defs>
    <g clip-path="url(#pa0adb8263e)">
     <use xlink:href="#m6207ed919e" x="0" y="561.6" style="fill: #1f77b4; fill-opacity: 0.15"/>
    </g>
   </g>
   <g id="FillBetweenPolyCollection_2">
    <defs>
     <path id="m4b2314066e" d="M 89.983636 -422.605009 
L 89.983636 -372.687353 
L 93.980327 -372.367089 
L 97.977023 -371.004456 
L 101.973713 -372.595219 
L 105.97041 -373.718444 
L 109.967106 -371.704352 
L 113.963796 -373.149593 
L 117.960493 -374.317337 
L 121.957186 -373.510504 
L 125.953882 -373.002899 
L 129.950576 -371.864435 
L 133.947269 -373.80092 
L 137.943962 -374.349132 
L 141.940659 -372.86488 
L 145.937352 -373.306534 
L 149.934045 -373.993361 
L 153.93074 -374.376047 
L 157.927434 -374.589614 
L 161.924129 -373.544264 
L 165.920823 -373.734865 
L 169.917517 -372.084172 
L 173.914211 -374.426856 
L 177.910906 -373.921372 
L 181.9076 -372.188413 
L 185.904294 -371.981362 
L 189.900988 -374.866486 
L 193.897681 -374.11294 
L 197.894377 -373.827354 
L 201.891071 -372.1596 
L 205.887764 -373.457376 
L 209.884457 -373.920714 
L 213.881154 -373.214118 
L 217.877847 -374.768398 
L 221.874543 -373.551082 
L 225.871234 -373.734383 
L 229.86793 -372.747575 
L 233.864626 -371.519394 
L 237.861317 -372.900288 
L 241.858013 -373.201419 
L 245.854704 -372.838329 
L 249.8514 -372.735106 
L 253.848096 -373.931364 
L 257.844787 -373.202026 
L 261.841483 -372.467612 
L 265.838179 -373.484824 
L 269.83487 -372.743066 
L 273.83156 -375.118402 
L 277.828262 -373.293387 
L 281.824953 -373.526597 
L 285.821643 -372.839256 
L 289.818345 -373.452689 
L 293.815036 -375.139989 
L 297.811726 -372.46521 
L 301.808428 -370.988673 
L 305.805119 -371.74728 
L 309.801809 -373.160187 
L 313.798511 -374.336564 
L 317.795202 -374.665581 
L 321.791892 -373.483512 
L 325.788594 -373.881239 
L 329.785285 -373.709991 
L 333.781975 -374.011156 
L 337.778677 -373.183556 
L 341.775368 -372.51267 
L 345.772058 -375.428424 
L 349.76876 -373.941378 
L 353.765451 -372.453805 
L 357.762141 -373.99319 
L 361.758843 -375.273322 
L 365.755534 -372.524576 
L 369.752224 -372.441859 
L 373.748914 -373.930892 
L 377.745605 -373.588556 
L 381.742319 -374.592136 
L 385.739009 -374.145089 
L 389.7357 -373.7434 
L 393.73239 -373.258143 
L 397.72908 -372.040944 
L 401.725771 -371.468958 
L 405.722485 -372.915234 
L 409.719175 -373.473075 
L 413.715866 -372.696361 
L 417.712556 -372.079741 
L 421.709246 -373.084614 
L 425.705937 -374.329569 
L 429.702627 -374.170499 
L 433.699341 -373.210346 
L 437.696032 -374.274551 
L 441.692722 -372.958689 
L 445.689412 -372.113164 
L 449.686103 -373.927192 
L 453.682793 -373.090448 
L 457.679507 -372.874445 
L 461.676198 -375.2089 
L 465.672888 -373.723709 
L 469.669578 -372.514379 
L 473.666269 -373.774277 
L 477.662959 -373.886413 
L 481.659673 -372.610297 
L 485.656364 -371.124869 
L 485.656364 -416.85103 
L 485.656364 -416.85103 
L 481.659673 -414.154445 
L 477.662959 -418.388102 
L 473.666269 -419.417127 
L 469.669578 -419.829834 
L 465.672888 -421.117184 
L 461.676198 -418.916193 
L 457.679507 -416.835018 
L 453.682793 -422.313843 
L 449.686103 -419.12931 
L 445.689412 -420.437634 
L 441.692722 -420.501024 
L 437.696032 -419.83893 
L 433.699341 -419.605387 
L 429.702627 -419.851544 
L 425.705937 -422.303801 
L 421.709246 -421.389948 
L 417.712556 -416.917785 
L 413.715866 -419.122679 
L 409.719175 -420.437293 
L 405.722485 -423.868335 
L 401.725771 -418.208624 
L 397.72908 -419.37623 
L 393.73239 -417.279333 
L 389.7357 -418.298818 
L 385.739009 -420.363437 
L 381.742319 -416.584622 
L 377.745605 -421.515805 
L 373.748914 -418.591962 
L 369.752224 -419.165569 
L 365.755534 -416.258945 
L 361.758843 -418.58275 
L 357.762141 -418.661119 
L 353.765451 -417.235178 
L 349.76876 -419.843346 
L 345.772058 -416.76483 
L 341.775368 -421.470097 
L 337.778677 -421.306308 
L 333.781975 -421.652108 
L 329.785285 -421.35387 
L 325.788594 -417.476013 
L 321.791892 -421.489417 
L 317.795202 -420.008994 
L 313.798511 -421.013889 
L 309.801809 -416.750765 
L 305.805119 -419.794015 
L 301.808428 -421.010688 
L 297.811726 -414.962617 
L 293.815036 -418.930362 
L 289.818345 -421.382736 
L 285.821643 -418.238655 
L 281.824953 -423.29045 
L 277.828262 -421.736739 
L 273.83156 -418.818733 
L 269.83487 -418.760455 
L 265.838179 -420.554872 
L 261.841483 -419.447018 
L 257.844787 -417.967061 
L 253.848096 -420.388352 
L 249.8514 -421.131399 
L 245.854704 -419.713657 
L 241.858013 -418.590443 
L 237.861317 -420.625533 
L 233.864626 -422.827546 
L 229.86793 -418.775129 
L 225.871234 -418.390199 
L 221.874543 -419.786707 
L 217.877847 -420.229326 
L 213.881154 -420.562254 
L 209.884457 -419.717696 
L 205.887764 -418.930787 
L 201.891071 -418.668503 
L 197.894377 -420.912273 
L 193.897681 -420.433163 
L 189.900988 -418.508027 
L 185.904294 -423.087447 
L 181.9076 -416.087749 
L 177.910906 -420.814157 
L 173.914211 -421.799983 
L 169.917517 -419.523236 
L 165.920823 -421.94518 
L 161.924129 -419.232226 
L 157.927434 -421.466817 
L 153.93074 -418.972715 
L 149.934045 -422.498431 
L 145.937352 -425.44629 
L 141.940659 -420.847271 
L 137.943962 -418.832055 
L 133.947269 -421.557989 
L 129.950576 -419.067665 
L 125.953882 -416.285878 
L 121.957186 -420.056904 
L 117.960493 -419.153318 
L 113.963796 -419.780363 
L 109.967106 -418.901445 
L 105.97041 -417.626352 
L 101.973713 -421.278004 
L 97.977023 -422.434991 
L 93.980327 -419.642898 
L 89.983636 -422.605009 
z
"/>
    </defs>
    <g clip-path="url(#pa0adb8263e)">
     <use xlink:href="#m4b2314066e" x="0" y="561.6" style="fill: #ff7f0e; fill-opacity: 0.15"/>
    </g>
   </g>
   <g id="matplotlib.axis_1">
    <g id="xtick_1">
     <g id="line2d_1">
      <defs>
       <path id="mdd151cd15e" d="M 0 0 
L 0 3.5 
" style="stroke: #000000; stroke-width: 0.8"/>
      </defs>
      <g>
       <use xlink:href="#mdd151cd15e" x="87.985286" y="206.388" style="stroke: #000000; stroke-width: 0.8"/>
      </g>
     </g>
     <g id="text_1">
      <!-- −200 -->
      <g transform="translate(74.251693 220.986437) scale(0.1 -0.1)">
       <defs>
        <path id="DejaVuSans-2212" d="M 678 2272 
L 4684 2272 
L 4684 1741 
L 678 1741 
L 678 2272 
z
" transform="scale(0.015625)"/>
        <path id="DejaVuSans-32" d="M 1228 531 
L 3431 531 
L 3431 0 
L 469 0 
L 469 531 
Q 828 903 1448 1529 
Q 2069 2156 2228 2338 
Q 2531 2678 2651 2914 
Q 2772 3150 2772 3378 
Q 2772 3750 2511 3984 
Q 2250 4219 1831 4219 
Q 1534 4219 1204 4116 
Q 875 4013 500 3803 
L 500 4441 
Q 881 4594 1212 4672 
Q 1544 4750 1819 4750 
Q 2544 4750 2975 4387 
Q 3406 4025 3406 3419 
Q 3406 3131 3298 2873 
Q 3191 2616 2906 2266 
Q 2828 2175 2409 1742 
Q 1991 1309 1228 531 
z
" transform="scale(0.015625)"/>
        <path id="DejaVuSans-30" d="M 2034 4250 
Q 1547 4250 1301 3770 
Q 1056 3291 1056 2328 
Q 1056 1369 1301 889 
Q 1547 409 2034 409 
Q 2525 409 2770 889 
Q 3016 1369 3016 2328 
Q 3016 3291 2770 3770 
Q 2525 4250 2034 4250 
z
M 2034 4750 
Q 2819 4750 3233 4129 
Q 3647 3509 3647 2328 
Q 3647 1150 3233 529 
Q 2819 -91 2034 -91 
Q 1250 -91 836 529 
Q 422 1150 422 2328 
Q 422 3509 836 4129 
Q 1250 4750 2034 4750 
z
" transform="scale(0.015625)"/>
       </defs>
       <use xlink:href="#DejaVuSans-2212"/>
       <use xlink:href="#DejaVuSans-32" transform="translate(83.789062 0)"/>
       <use xlink:href="#DejaVuSans-30" transform="translate(147.412109 0)"/>
       <use xlink:href="#DejaVuSans-30" transform="translate(211.035156 0)"/>
      </g>
     </g>
    </g>
    <g id="xtick_2">
     <g id="line2d_2">
      <g>
       <use xlink:href="#mdd151cd15e" x="167.91917" y="206.388" style="stroke: #000000; stroke-width: 0.8"/>
      </g>
     </g>
     <g id="text_2">
      <!-- 0 -->
      <g transform="translate(164.73792 220.986437) scale(0.1 -0.1)">
       <use xlink:href="#DejaVuSans-30"/>
      </g>
     </g>
    </g>
    <g id="xtick_3">
     <g id="line2d_3">
      <g>
       <use xlink:href="#mdd151cd15e" x="247.853053" y="206.388" style="stroke: #000000; stroke-width: 0.8"/>
      </g>
     </g>
     <g id="text_3">
      <!-- 200 -->
      <g transform="translate(238.309303 220.986437) scale(0.1 -0.1)">
       <use xlink:href="#DejaVuSans-32"/>
       <use xlink:href="#DejaVuSans-30" transform="translate(63.623047 0)"/>
       <use xlink:href="#DejaVuSans-30" transform="translate(127.246094 0)"/>
      </g>
     </g>
    </g>
    <g id="xtick_4">
     <g id="line2d_4">
      <g>
       <use xlink:href="#mdd151cd15e" x="327.786937" y="206.388" style="stroke: #000000; stroke-width: 0.8"/>
      </g>
     </g>
     <g id="text_4">
      <!-- 400 -->
      <g transform="translate(318.243187 220.986437) scale(0.1 -0.1)">
       <defs>
        <path id="DejaVuSans-34" d="M 2419 4116 
L 825 1625 
L 2419 1625 
L 2419 4116 
z
M 2253 4666 
L 3047 4666 
L 3047 1625 
L 3713 1625 
L 3713 1100 
L 3047 1100 
L 3047 0 
L 2419 0 
L 2419 1100 
L 313 1100 
L 313 1709 
L 2253 4666 
z
" transform="scale(0.015625)"/>
       </defs>
       <use xlink:href="#DejaVuSans-34"/>
       <use xlink:href="#DejaVuSans-30" transform="translate(63.623047 0)"/>
       <use xlink:href="#DejaVuSans-30" transform="translate(127.246094 0)"/>
      </g>
     </g>
    </g>
    <g id="xtick_5">
     <g id="line2d_5">
      <g>
       <use xlink:href="#mdd151cd15e" x="407.720821" y="206.388" style="stroke: #000000; stroke-width: 0.8"/>
      </g>
     </g>
     <g id="text_5">
      <!-- 600 -->
      <g transform="translate(398.177071 220.986437) scale(0.1 -0.1)">
       <defs>
        <path id="DejaVuSans-36" d="M 2113 2584 
Q 1688 2584 1439 2293 
Q 1191 2003 1191 1497 
Q 1191 994 1439 701 
Q 1688 409 2113 409 
Q 2538 409 2786 701 
Q 3034 994 3034 1497 
Q 3034 2003 2786 2293 
Q 2538 2584 2113 2584 
z
M 3366 4563 
L 3366 3988 
Q 3128 4100 2886 4159 
Q 2644 4219 2406 4219 
Q 1781 4219 1451 3797 
Q 1122 3375 1075 2522 
Q 1259 2794 1537 2939 
Q 1816 3084 2150 3084 
Q 2853 3084 3261 2657 
Q 3669 2231 3669 1497 
Q 3669 778 3244 343 
Q 2819 -91 2113 -91 
Q 1303 -91 875 529 
Q 447 1150 447 2328 
Q 447 3434 972 4092 
Q 1497 4750 2381 4750 
Q 2619 4750 2861 4703 
Q 3103 4656 3366 4563 
z
" transform="scale(0.015625)"/>
       </defs>
       <use xlink:href="#DejaVuSans-36"/>
       <use xlink:href="#DejaVuSans-30" transform="translate(63.623047 0)"/>
       <use xlink:href="#DejaVuSans-30" transform="translate(127.246094 0)"/>
      </g>
     </g>
    </g>
    <g id="xtick_6">
     <g id="line2d_6">
      <g>
       <use xlink:href="#mdd151cd15e" x="487.654704" y="206.388" style="stroke: #000000; stroke-width: 0.8"/>
      </g>
     </g>
     <g id="text_6">
      <!-- 800 -->
      <g transform="translate(478.110954 220.986437) scale(0.1 -0.1)">
       <defs>
        <path id="DejaVuSans-38" d="M 2034 2216 
Q 1584 2216 1326 1975 
Q 1069 1734 1069 1313 
Q 1069 891 1326 650 
Q 1584 409 2034 409 
Q 2484 409 2743 651 
Q 3003 894 3003 1313 
Q 3003 1734 2745 1975 
Q 2488 2216 2034 2216 
z
M 1403 2484 
Q 997 2584 770 2862 
Q 544 3141 544 3541 
Q 544 4100 942 4425 
Q 1341 4750 2034 4750 
Q 2731 4750 3128 4425 
Q 3525 4100 3525 3541 
Q 3525 3141 3298 2862 
Q 3072 2584 2669 2484 
Q 3125 2378 3379 2068 
Q 3634 1759 3634 1313 
Q 3634 634 3220 271 
Q 2806 -91 2034 -91 
Q 1263 -91 848 271 
Q 434 634 434 1313 
Q 434 1759 690 2068 
Q 947 2378 1403 2484 
z
M 1172 3481 
Q 1172 3119 1398 2916 
Q 1625 2713 2034 2713 
Q 2441 2713 2670 2916 
Q 2900 3119 2900 3481 
Q 2900 3844 2670 4047 
Q 2441 4250 2034 4250 
Q 1625 4250 1398 4047 
Q 1172 3844 1172 3481 
z
" transform="scale(0.015625)"/>
       </defs>
       <use xlink:href="#DejaVuSans-38"/>
       <use xlink:href="#DejaVuSans-30" transform="translate(63.623047 0)"/>
       <use xlink:href="#DejaVuSans-30" transform="translate(127.246094 0)"/>
      </g>
     </g>
    </g>
   </g>
   <g id="matplotlib.axis_2">
    <g id="ytick_1">
     <g id="line2d_7">
      <defs>
       <path id="m7a50490ae9" d="M 0 0 
L -3.5 0 
" style="stroke: #000000; stroke-width: 0.8"/>
      </defs>
      <g>
       <use xlink:href="#m7a50490ae9" x="70.2" y="201.720685" style="stroke: #000000; stroke-width: 0.8"/>
      </g>
     </g>
     <g id="text_7">
      <!-- 0.0 -->
      <g transform="translate(47.296875 205.519904) scale(0.1 -0.1)">
       <defs>
        <path id="DejaVuSans-2e" d="M 684 794 
L 1344 794 
L 1344 0 
L 684 0 
L 684 794 
z
" transform="scale(0.015625)"/>
       </defs>
       <use xlink:href="#DejaVuSans-30"/>
       <use xlink:href="#DejaVuSans-2e" transform="translate(63.623047 0)"/>
       <use xlink:href="#DejaVuSans-30" transform="translate(95.410156 0)"/>
      </g>
     </g>
    </g>
    <g id="ytick_2">
     <g id="line2d_8">
      <g>
       <use xlink:href="#m7a50490ae9" x="70.2" y="176.794576" style="stroke: #000000; stroke-width: 0.8"/>
      </g>
     </g>
     <g id="text_8">
      <!-- 2.5 -->
      <g transform="translate(47.296875 180.593795) scale(0.1 -0.1)">
       <defs>
        <path id="DejaVuSans-35" d="M 691 4666 
L 3169 4666 
L 3169 4134 
L 1269 4134 
L 1269 2991 
Q 1406 3038 1543 3061 
Q 1681 3084 1819 3084 
Q 2600 3084 3056 2656 
Q 3513 2228 3513 1497 
Q 3513 744 3044 326 
Q 2575 -91 1722 -91 
Q 1428 -91 1123 -41 
Q 819 9 494 109 
L 494 744 
Q 775 591 1075 516 
Q 1375 441 1709 441 
Q 2250 441 2565 725 
Q 2881 1009 2881 1497 
Q 2881 1984 2565 2268 
Q 2250 2553 1709 2553 
Q 1456 2553 1204 2497 
Q 953 2441 691 2322 
L 691 4666 
z
" transform="scale(0.015625)"/>
       </defs>
       <use xlink:href="#DejaVuSans-32"/>
       <use xlink:href="#DejaVuSans-2e" transform="translate(63.623047 0)"/>
       <use xlink:href="#DejaVuSans-35" transform="translate(95.410156 0)"/>
      </g>
     </g>
    </g>
    <g id="ytick_3">
     <g id="line2d_9">
      <g>
       <use xlink:href="#m7a50490ae9" x="70.2" y="151.868467" style="stroke: #000000; stroke-width: 0.8"/>
      </g>
     </g>
     <g id="text_9">
      <!-- 5.0 -->
      <g transform="translate(47.296875 155.667685) scale(0.1 -0.1)">
       <use xlink:href="#DejaVuSans-35"/>
       <use xlink:href="#DejaVuSans-2e" transform="translate(63.623047 0)"/>
       <use xlink:href="#DejaVuSans-30" transform="translate(95.410156 0)"/>
      </g>
     </g>
    </g>
    <g id="ytick_4">
     <g id="line2d_10">
      <g>
       <use xlink:href="#m7a50490ae9" x="70.2" y="126.942357" style="stroke: #000000; stroke-width: 0.8"/>
      </g>
     </g>
     <g id="text_10">
      <!-- 7.5 -->
      <g transform="translate(47.296875 130.741576) scale(0.1 -0.1)">
       <defs>
        <path id="DejaVuSans-37" d="M 525 4666 
L 3525 4666 
L 3525 4397 
L 1831 0 
L 1172 0 
L 2766 4134 
L 525 4134 
L 525 4666 
z
" transform="scale(0.015625)"/>
       </defs>
       <use xlink:href="#DejaVuSans-37"/>
       <use xlink:href="#DejaVuSans-2e" transform="translate(63.623047 0)"/>
       <use xlink:href="#DejaVuSans-35" transform="translate(95.410156 0)"/>
      </g>
     </g>
    </g>
    <g id="ytick_5">
     <g id="line2d_11">
      <g>
       <use xlink:href="#m7a50490ae9" x="70.2" y="102.016248" style="stroke: #000000; stroke-width: 0.8"/>
      </g>
     </g>
     <g id="text_11">
      <!-- 10.0 -->
      <g transform="translate(40.934375 105.815467) scale(0.1 -0.1)">
       <defs>
        <path id="DejaVuSans-31" d="M 794 531 
L 1825 531 
L 1825 4091 
L 703 3866 
L 703 4441 
L 1819 4666 
L 2450 4666 
L 2450 531 
L 3481 531 
L 3481 0 
L 794 0 
L 794 531 
z
" transform="scale(0.015625)"/>
       </defs>
       <use xlink:href="#DejaVuSans-31"/>
       <use xlink:href="#DejaVuSans-30" transform="translate(63.623047 0)"/>
       <use xlink:href="#DejaVuSans-2e" transform="translate(127.246094 0)"/>
       <use xlink:href="#DejaVuSans-30" transform="translate(159.033203 0)"/>
      </g>
     </g>
    </g>
    <g id="ytick_6">
     <g id="line2d_12">
      <g>
       <use xlink:href="#m7a50490ae9" x="70.2" y="77.090139" style="stroke: #000000; stroke-width: 0.8"/>
      </g>
     </g>
     <g id="text_12">
      <!-- 12.5 -->
      <g transform="translate(40.934375 80.889357) scale(0.1 -0.1)">
       <use xlink:href="#DejaVuSans-31"/>
       <use xlink:href="#DejaVuSans-32" transform="translate(63.623047 0)"/>
       <use xlink:href="#DejaVuSans-2e" transform="translate(127.246094 0)"/>
       <use xlink:href="#DejaVuSans-35" transform="translate(159.033203 0)"/>
      </g>
     </g>
    </g>
    <g id="text_13">
     <!-- ΔLL (bits) -->
     <g transform="translate(34.854687 160.500937) rotate(-90) scale(0.1 -0.1)">
      <defs>
       <path id="DejaVuSans-394" d="M 2188 4044 
L 906 525 
L 3472 525 
L 2188 4044 
z
M 50 0 
L 1831 4666 
L 2547 4666 
L 4325 0 
L 50 0 
z
" transform="scale(0.015625)"/>
       <path id="DejaVuSans-4c" d="M 628 4666 
L 1259 4666 
L 1259 531 
L 3531 531 
L 3531 0 
L 628 0 
L 628 4666 
z
" transform="scale(0.015625)"/>
       <path id="DejaVuSans-20" transform="scale(0.015625)"/>
       <path id="DejaVuSans-28" d="M 1984 4856 
Q 1566 4138 1362 3434 
Q 1159 2731 1159 2009 
Q 1159 1288 1364 580 
Q 1569 -128 1984 -844 
L 1484 -844 
Q 1016 -109 783 600 
Q 550 1309 550 2009 
Q 550 2706 781 3412 
Q 1013 4119 1484 4856 
L 1984 4856 
z
" transform="scale(0.015625)"/>
       <path id="DejaVuSans-62" d="M 3116 1747 
Q 3116 2381 2855 2742 
Q 2594 3103 2138 3103 
Q 1681 3103 1420 2742 
Q 1159 2381 1159 1747 
Q 1159 1113 1420 752 
Q 1681 391 2138 391 
Q 2594 391 2855 752 
Q 3116 1113 3116 1747 
z
M 1159 2969 
Q 1341 3281 1617 3432 
Q 1894 3584 2278 3584 
Q 2916 3584 3314 3078 
Q 3713 2572 3713 1747 
Q 3713 922 3314 415 
Q 2916 -91 2278 -91 
Q 1894 -91 1617 61 
Q 1341 213 1159 525 
L 1159 0 
L 581 0 
L 581 4863 
L 1159 4863 
L 1159 2969 
z
" transform="scale(0.015625)"/>
       <path id="DejaVuSans-69" d="M 603 3500 
L 1178 3500 
L 1178 0 
L 603 0 
L 603 3500 
z
M 603 4863 
L 1178 4863 
L 1178 4134 
L 603 4134 
L 603 4863 
z
" transform="scale(0.015625)"/>
       <path id="DejaVuSans-74" d="M 1172 4494 
L 1172 3500 
L 2356 3500 
L 2356 3053 
L 1172 3053 
L 1172 1153 
Q 1172 725 1289 603 
Q 1406 481 1766 481 
L 2356 481 
L 2356 0 
L 1766 0 
Q 1100 0 847 248 
Q 594 497 594 1153 
L 594 3053 
L 172 3053 
L 172 3500 
L 594 3500 
L 594 4494 
L 1172 4494 
z
" transform="scale(0.015625)"/>
       <path id="DejaVuSans-73" d="M 2834 3397 
L 2834 2853 
Q 2591 2978 2328 3040 
Q 2066 3103 1784 3103 
Q 1356 3103 1142 2972 
Q 928 2841 928 2578 
Q 928 2378 1081 2264 
Q 1234 2150 1697 2047 
L 1894 2003 
Q 2506 1872 2764 1633 
Q 3022 1394 3022 966 
Q 3022 478 2636 193 
Q 2250 -91 1575 -91 
Q 1294 -91 989 -36 
Q 684 19 347 128 
L 347 722 
Q 666 556 975 473 
Q 1284 391 1588 391 
Q 1994 391 2212 530 
Q 2431 669 2431 922 
Q 2431 1156 2273 1281 
Q 2116 1406 1581 1522 
L 1381 1569 
Q 847 1681 609 1914 
Q 372 2147 372 2553 
Q 372 3047 722 3315 
Q 1072 3584 1716 3584 
Q 2034 3584 2315 3537 
Q 2597 3491 2834 3397 
z
" transform="scale(0.015625)"/>
       <path id="DejaVuSans-29" d="M 513 4856 
L 1013 4856 
Q 1481 4119 1714 3412 
Q 1947 2706 1947 2009 
Q 1947 1309 1714 600 
Q 1481 -109 1013 -844 
L 513 -844 
Q 928 -128 1133 580 
Q 1338 1288 1338 2009 
Q 1338 2731 1133 3434 
Q 928 4138 513 4856 
z
" transform="scale(0.015625)"/>
      </defs>
      <use xlink:href="#DejaVuSans-394"/>
      <use xlink:href="#DejaVuSans-4c" transform="translate(68.408203 0)"/>
      <use xlink:href="#DejaVuSans-4c" transform="translate(124.121094 0)"/>
      <use xlink:href="#DejaVuSans-20" transform="translate(179.833984 0)"/>
      <use xlink:href="#DejaVuSans-28" transform="translate(211.621094 0)"/>
      <use xlink:href="#DejaVuSans-62" transform="translate(250.634766 0)"/>
      <use xlink:href="#DejaVuSans-69" transform="translate(314.111328 0)"/>
      <use xlink:href="#DejaVuSans-74" transform="translate(341.894531 0)"/>
      <use xlink:href="#DejaVuSans-73" transform="translate(381.103516 0)"/>
      <use xlink:href="#DejaVuSans-29" transform="translate(433.203125 0)"/>
     </g>
    </g>
   </g>
   <g id="line2d_13">
    <path d="M 167.91917 206.388 
L 167.91917 67.392 
" clip-path="url(#pa0adb8263e)" style="fill: none; stroke-dasharray: 2.96,1.28; stroke-dashoffset: 0; stroke: #000000; stroke-width: 0.8"/>
   </g>
   <g id="line2d_14">
    <path d="M 89.983636 165.740638 
L 93.980327 164.846344 
L 97.977023 165.10028 
L 101.973713 165.449087 
L 105.97041 165.235355 
L 109.967106 164.44101 
L 113.963796 166.509828 
L 117.960493 165.723351 
L 121.957186 163.767785 
L 125.953882 164.226377 
L 129.950576 165.456224 
L 133.947269 166.050215 
L 137.943962 166.136198 
L 141.940659 165.228768 
L 145.937352 164.355226 
L 149.934045 165.010636 
L 153.93074 166.579447 
L 157.927434 166.085903 
L 161.924129 165.212683 
L 165.920823 165.052428 
L 169.917517 164.625126 
L 173.914211 164.083606 
L 177.910906 164.04294 
L 181.9076 162.817923 
L 185.904294 165.264199 
L 189.900988 164.733947 
L 193.897681 163.647086 
L 197.894377 164.839686 
L 201.891071 165.622388 
L 205.887764 166.074164 
L 209.884457 165.082358 
L 213.881154 165.689974 
L 217.877847 166.108371 
L 221.874543 165.71363 
L 225.871234 165.216734 
L 229.86793 166.200991 
L 233.864626 164.471353 
L 237.861317 165.078244 
L 241.858013 163.884661 
L 245.854704 164.394288 
L 249.8514 164.650795 
L 253.848096 165.970935 
L 257.844787 163.696915 
L 261.841483 164.849511 
L 265.838179 165.061904 
L 269.83487 165.357108 
L 273.83156 164.944572 
L 277.828262 166.008236 
L 281.824953 165.747087 
L 285.821643 165.777831 
L 289.818345 166.13083 
L 293.815036 165.054785 
L 297.811726 165.068765 
L 301.808428 165.254599 
L 305.805119 165.454674 
L 309.801809 165.364476 
L 313.798511 162.361461 
L 317.795202 164.160539 
L 321.791892 166.753409 
L 325.788594 165.705634 
L 329.785285 166.71758 
L 333.781975 165.753876 
L 337.778677 163.83023 
L 341.775368 166.094287 
L 345.772058 165.38983 
L 349.76876 162.63402 
L 353.765451 163.933445 
L 357.762141 163.240988 
L 361.758843 165.795413 
L 365.755534 165.843444 
L 369.752224 164.908807 
L 373.748914 164.280609 
L 377.745605 165.392175 
L 381.742319 164.453638 
L 385.739009 163.787863 
L 389.7357 164.572758 
L 393.73239 164.523078 
L 397.72908 167.25727 
L 401.725771 165.588255 
L 405.722485 165.613685 
L 409.719175 163.005416 
L 413.715866 164.466828 
L 417.712556 164.501714 
L 421.709246 165.271211 
L 425.705937 166.121339 
L 429.702627 165.390986 
L 433.699341 164.983057 
L 437.696032 165.903511 
L 441.692722 166.079739 
L 445.689412 164.356115 
L 449.686103 164.854224 
L 453.682793 165.633418 
L 457.679507 166.02538 
L 461.676198 166.67259 
L 465.672888 164.149719 
L 469.669578 165.499466 
L 473.666269 167.434473 
L 477.662959 166.387763 
L 481.659673 163.949365 
L 485.656364 165.537276 
" clip-path="url(#pa0adb8263e)" style="fill: none; stroke-dasharray: 1,1.65; stroke-dashoffset: 0; stroke: #1f77b4"/>
   </g>
   <g id="line2d_15">
    <path d="M 89.983636 163.953819 
L 93.980327 165.595006 
L 97.977023 164.880277 
L 101.973713 164.663388 
L 105.97041 165.927602 
L 109.967106 166.297102 
L 113.963796 165.135022 
L 117.960493 164.864672 
L 121.957186 164.816296 
L 125.953882 166.955612 
L 129.950576 166.13395 
L 133.947269 163.920545 
L 137.943962 165.009407 
L 141.940659 164.743924 
L 145.937352 162.223588 
L 149.934045 163.354104 
L 153.93074 164.925619 
L 157.927434 163.571784 
L 161.924129 165.211755 
L 165.920823 163.759978 
L 169.917517 165.796296 
L 173.914211 163.48658 
L 177.910906 164.232235 
L 181.9076 167.461919 
L 185.904294 164.065596 
L 189.900988 164.912743 
L 193.897681 164.326949 
L 197.894377 164.230186 
L 201.891071 166.185948 
L 205.887764 165.405919 
L 209.884457 164.780795 
L 213.881154 164.711814 
L 217.877847 164.101138 
L 221.874543 164.931105 
L 225.871234 165.537709 
L 229.86793 165.838648 
L 233.864626 164.42653 
L 237.861317 164.837089 
L 241.858013 165.704069 
L 245.854704 165.324007 
L 249.8514 164.666748 
L 253.848096 164.440142 
L 257.844787 166.015457 
L 261.841483 165.642685 
L 265.838179 164.580152 
L 269.83487 165.84824 
L 273.83156 164.631433 
L 277.828262 164.084937 
L 281.824953 163.191476 
L 285.821643 166.061044 
L 289.818345 164.182287 
L 293.815036 164.564825 
L 297.811726 167.886086 
L 301.808428 165.600319 
L 305.805119 165.829353 
L 309.801809 166.644524 
L 313.798511 163.924774 
L 317.795202 164.262713 
L 321.791892 164.113535 
L 325.788594 165.921374 
L 329.785285 164.068069 
L 333.781975 163.768368 
L 337.778677 164.355068 
L 341.775368 164.608617 
L 345.772058 165.503373 
L 349.76876 164.707638 
L 353.765451 166.755508 
L 357.762141 165.272845 
L 361.758843 164.671964 
L 365.755534 167.208239 
L 369.752224 165.796286 
L 373.748914 165.338573 
L 377.745605 164.047819 
L 381.742319 166.011621 
L 385.739009 164.345737 
L 389.7357 165.578891 
L 393.73239 166.331262 
L 397.72908 165.891413 
L 401.725771 166.761209 
L 405.722485 163.208215 
L 409.719175 164.644816 
L 413.715866 165.69048 
L 417.712556 167.101237 
L 421.709246 164.362719 
L 425.705937 163.283315 
L 429.702627 164.588979 
L 433.699341 165.192133 
L 437.696032 164.543259 
L 441.692722 164.870143 
L 445.689412 165.324601 
L 449.686103 165.071749 
L 453.682793 163.897855 
L 457.679507 166.745268 
L 461.676198 164.537453 
L 465.672888 164.179553 
L 469.669578 165.427894 
L 473.666269 165.004298 
L 477.662959 165.462743 
L 481.659673 168.217629 
L 485.656364 167.61205 
" clip-path="url(#pa0adb8263e)" style="fill: none; stroke-dasharray: 1,1.65; stroke-dashoffset: 0; stroke: #ff7f0e"/>
   </g>
   <g id="line2d_16">
    <path d="M 89.983636 142.970382 
L 93.980327 159.446691 
L 97.977023 151.320854 
L 101.973713 181.059288 
L 105.97041 188.05346 
L 109.967106 193.722615 
L 113.963796 87.119002 
L 117.960493 155.293152 
L 121.957186 173.994372 
L 125.953882 121.339549 
L 129.950576 148.640584 
L 133.947269 181.674854 
L 137.943962 181.094625 
L 141.940659 135.156568 
L 145.937352 170.751503 
L 149.934045 180.391601 
L 153.93074 151.950444 
L 157.927434 183.893852 
L 161.924129 189.975298 
L 165.920823 169.489925 
L 169.917517 150.161635 
L 173.914211 190.948881 
L 177.910906 156.616972 
L 181.9076 147.309142 
L 185.904294 186.954539 
L 189.900988 183.223392 
L 193.897681 166.558046 
L 197.894377 155.77197 
L 201.891071 200.07 
L 205.887764 184.794735 
L 209.884457 166.99242 
L 213.881154 192.010005 
L 217.877847 196.620266 
L 221.874543 141.191689 
L 225.871234 168.6677 
L 229.86793 160.135257 
L 233.864626 192.689234 
L 237.861317 190.06236 
L 241.858013 191.707241 
L 245.854704 182.93448 
L 249.8514 153.27765 
L 253.848096 143.064871 
L 257.844787 166.294543 
L 261.841483 185.474413 
L 265.838179 73.71 
L 269.83487 148.882288 
L 273.83156 156.60798 
L 277.828262 86.619334 
L 281.824953 115.129312 
L 285.821643 152.95892 
L 289.818345 168.658492 
L 293.815036 142.513443 
L 297.811726 175.0804 
L 301.808428 183.384044 
L 305.805119 190.140607 
L 309.801809 189.970352 
L 313.798511 179.612834 
L 317.795202 179.668936 
L 321.791892 134.819073 
L 325.788594 179.014256 
L 329.785285 119.522749 
L 333.781975 162.362397 
L 337.778677 148.085641 
L 341.775368 187.545556 
L 345.772058 193.125645 
L 349.76876 177.451157 
L 353.765451 151.92636 
L 357.762141 186.6644 
L 361.758843 138.320628 
L 365.755534 190.856318 
L 369.752224 139.567679 
L 373.748914 178.782749 
L 377.745605 179.701097 
L 381.742319 174.921668 
L 385.739009 157.843412 
L 389.7357 189.766321 
L 393.73239 192.86181 
L 397.72908 175.316754 
L 401.725771 162.876605 
L 405.722485 177.570409 
L 409.719175 139.109836 
L 413.715866 190.491305 
L 417.712556 173.216477 
L 421.709246 177.729861 
L 425.705937 98.246046 
L 429.702627 149.075761 
L 433.699341 166.616201 
L 437.696032 149.509713 
L 441.692722 147.192658 
L 445.689412 173.152339 
L 449.686103 146.309983 
L 453.682793 122.272372 
L 457.679507 108.434484 
L 461.676198 149.02832 
L 465.672888 155.806687 
L 469.669578 180.87656 
L 473.666269 177.975912 
L 477.662959 175.48604 
L 481.659673 170.656339 
L 485.656364 125.372676 
" clip-path="url(#pa0adb8263e)" style="fill: none; stroke: #1f77b4; stroke-width: 2.2; stroke-linecap: square"/>
   </g>
   <g id="line2d_17">
    <path d="M 89.983636 175.230162 
L 93.980327 95.979287 
L 97.977023 168.771585 
L 101.973713 170.523904 
L 105.97041 162.66896 
L 109.967106 172.889697 
L 113.963796 101.697792 
L 117.960493 147.706271 
L 121.957186 176.841606 
L 125.953882 174.225844 
L 129.950576 157.476255 
L 133.947269 157.183024 
L 137.943962 134.811857 
L 141.940659 161.955184 
L 145.937352 182.140683 
L 149.934045 146.295628 
L 153.93074 180.619342 
L 157.927434 162.740307 
L 161.924129 190.036152 
L 165.920823 176.454331 
L 169.917517 174.282066 
L 173.914211 164.178479 
L 177.910906 147.577141 
L 181.9076 152.406582 
L 185.904294 181.279983 
L 189.900988 162.884278 
L 193.897681 188.20057 
L 197.894377 122.23831 
L 201.891071 169.240247 
L 205.887764 100.437765 
L 209.884457 177.979374 
L 213.881154 184.855649 
L 217.877847 165.937997 
L 221.874543 165.683765 
L 225.871234 164.397638 
L 229.86793 182.144019 
L 233.864626 174.897773 
L 237.861317 193.749172 
L 241.858013 178.36373 
L 245.854704 173.504282 
L 249.8514 175.319393 
L 253.848096 161.845338 
L 257.844787 175.105968 
L 261.841483 154.775002 
L 265.838179 125.47121 
L 269.83487 142.662763 
L 273.83156 106.072751 
L 277.828262 181.470069 
L 281.824953 76.913682 
L 285.821643 184.281348 
L 289.818345 180.023719 
L 293.815036 166.687818 
L 297.811726 184.596845 
L 301.808428 151.26599 
L 305.805119 182.829175 
L 309.801809 175.410227 
L 313.798511 179.94819 
L 317.795202 167.006307 
L 321.791892 179.801044 
L 325.788594 167.185864 
L 329.785285 175.49358 
L 333.781975 102.505616 
L 337.778677 138.060175 
L 341.775368 171.39242 
L 345.772058 146.146577 
L 349.76876 133.877276 
L 353.765451 142.040868 
L 357.762141 186.195101 
L 361.758843 171.302431 
L 365.755534 168.192941 
L 369.752224 147.934701 
L 373.748914 189.667702 
L 377.745605 194.027643 
L 381.742319 150.712919 
L 385.739009 173.132141 
L 389.7357 193.080792 
L 393.73239 156.494737 
L 397.72908 170.622578 
L 401.725771 155.832336 
L 405.722485 187.615783 
L 409.719175 162.451863 
L 413.715866 151.515487 
L 417.712556 160.794808 
L 421.709246 166.736144 
L 425.705937 113.534585 
L 429.702627 95.392628 
L 433.699341 175.277603 
L 437.696032 177.482675 
L 441.692722 186.95849 
L 445.689412 162.910359 
L 449.686103 146.300598 
L 453.682793 151.257047 
L 457.679507 184.377133 
L 461.676198 87.527692 
L 465.672888 174.069537 
L 469.669578 148.150453 
L 473.666269 174.881117 
L 477.662959 179.014819 
L 481.659673 193.288016 
L 485.656364 150.115752 
" clip-path="url(#pa0adb8263e)" style="fill: none; stroke: #ff7f0e; stroke-width: 2.2; stroke-linecap: square"/>
   </g>
   <g id="patch_3">
    <path d="M 70.2 206.388 
L 70.2 67.392 
" style="fill: none; stroke: #000000; stroke-width: 0.8; stroke-linejoin: miter; stroke-linecap: square"/>
   </g>
   <g id="patch_4">
    <path d="M 505.44 206.388 
L 505.44 67.392 
" style="fill: none; stroke: #000000; stroke-width: 0.8; stroke-linejoin: miter; stroke-linecap: square"/>
   </g>
   <g id="patch_5">
    <path d="M 70.2 206.388 
L 505.44 206.388 
" style="fill: none; stroke: #000000; stroke-width: 0.8; stroke-linejoin: miter; stroke-linecap: square"/>
   </g>
   <g id="patch_6">
    <path d="M 70.2 67.392 
L 505.44 67.392 
" style="fill: none; stroke: #000000; stroke-width: 0.8; stroke-linejoin: miter; stroke-linecap: square"/>
   </g>
   <g id="text_14">
    <!-- (MFEF vs MLIP) — C-flow — Panel A: overlay + null bands -->
    <g transform="translate(116.324063 61.392) scale(0.12 -0.12)">
     <defs>
      <path id="DejaVuSans-4d" d="M 628 4666 
L 1569 4666 
L 2759 1491 
L 3956 4666 
L 4897 4666 
L 4897 0 
L 4281 0 
L 4281 4097 
L 3078 897 
L 2444 897 
L 1241 4097 
L 1241 0 
L 628 0 
L 628 4666 
z
" transform="scale(0.015625)"/>
      <path id="DejaVuSans-46" d="M 628 4666 
L 3309 4666 
L 3309 4134 
L 1259 4134 
L 1259 2759 
L 3109 2759 
L 3109 2228 
L 1259 2228 
L 1259 0 
L 628 0 
L 628 4666 
z
" transform="scale(0.015625)"/>
      <path id="DejaVuSans-45" d="M 628 4666 
L 3578 4666 
L 3578 4134 
L 1259 4134 
L 1259 2753 
L 3481 2753 
L 3481 2222 
L 1259 2222 
L 1259 531 
L 3634 531 
L 3634 0 
L 628 0 
L 628 4666 
z
" transform="scale(0.015625)"/>
      <path id="DejaVuSans-76" d="M 191 3500 
L 800 3500 
L 1894 563 
L 2988 3500 
L 3597 3500 
L 2284 0 
L 1503 0 
L 191 3500 
z
" transform="scale(0.015625)"/>
      <path id="DejaVuSans-49" d="M 628 4666 
L 1259 4666 
L 1259 0 
L 628 0 
L 628 4666 
z
" transform="scale(0.015625)"/>
      <path id="DejaVuSans-50" d="M 1259 4147 
L 1259 2394 
L 2053 2394 
Q 2494 2394 2734 2622 
Q 2975 2850 2975 3272 
Q 2975 3691 2734 3919 
Q 2494 4147 2053 4147 
L 1259 4147 
z
M 628 4666 
L 2053 4666 
Q 2838 4666 3239 4311 
Q 3641 3956 3641 3272 
Q 3641 2581 3239 2228 
Q 2838 1875 2053 1875 
L 1259 1875 
L 1259 0 
L 628 0 
L 628 4666 
z
" transform="scale(0.015625)"/>
      <path id="DejaVuSans-2014" d="M 313 1978 
L 6088 1978 
L 6088 1528 
L 313 1528 
L 313 1978 
z
" transform="scale(0.015625)"/>
      <path id="DejaVuSans-43" d="M 4122 4306 
L 4122 3641 
Q 3803 3938 3442 4084 
Q 3081 4231 2675 4231 
Q 1875 4231 1450 3742 
Q 1025 3253 1025 2328 
Q 1025 1406 1450 917 
Q 1875 428 2675 428 
Q 3081 428 3442 575 
Q 3803 722 4122 1019 
L 4122 359 
Q 3791 134 3420 21 
Q 3050 -91 2638 -91 
Q 1578 -91 968 557 
Q 359 1206 359 2328 
Q 359 3453 968 4101 
Q 1578 4750 2638 4750 
Q 3056 4750 3426 4639 
Q 3797 4528 4122 4306 
z
" transform="scale(0.015625)"/>
      <path id="DejaVuSans-2d" d="M 313 2009 
L 1997 2009 
L 1997 1497 
L 313 1497 
L 313 2009 
z
" transform="scale(0.015625)"/>
      <path id="DejaVuSans-66" d="M 2375 4863 
L 2375 4384 
L 1825 4384 
Q 1516 4384 1395 4259 
Q 1275 4134 1275 3809 
L 1275 3500 
L 2222 3500 
L 2222 3053 
L 1275 3053 
L 1275 0 
L 697 0 
L 697 3053 
L 147 3053 
L 147 3500 
L 697 3500 
L 697 3744 
Q 697 4328 969 4595 
Q 1241 4863 1831 4863 
L 2375 4863 
z
" transform="scale(0.015625)"/>
      <path id="DejaVuSans-6c" d="M 603 4863 
L 1178 4863 
L 1178 0 
L 603 0 
L 603 4863 
z
" transform="scale(0.015625)"/>
      <path id="DejaVuSans-6f" d="M 1959 3097 
Q 1497 3097 1228 2736 
Q 959 2375 959 1747 
Q 959 1119 1226 758 
Q 1494 397 1959 397 
Q 2419 397 2687 759 
Q 2956 1122 2956 1747 
Q 2956 2369 2687 2733 
Q 2419 3097 1959 3097 
z
M 1959 3584 
Q 2709 3584 3137 3096 
Q 3566 2609 3566 1747 
Q 3566 888 3137 398 
Q 2709 -91 1959 -91 
Q 1206 -91 779 398 
Q 353 888 353 1747 
Q 353 2609 779 3096 
Q 1206 3584 1959 3584 
z
" transform="scale(0.015625)"/>
      <path id="DejaVuSans-77" d="M 269 3500 
L 844 3500 
L 1563 769 
L 2278 3500 
L 2956 3500 
L 3675 769 
L 4391 3500 
L 4966 3500 
L 4050 0 
L 3372 0 
L 2619 2869 
L 1863 0 
L 1184 0 
L 269 3500 
z
" transform="scale(0.015625)"/>
      <path id="DejaVuSans-61" d="M 2194 1759 
Q 1497 1759 1228 1600 
Q 959 1441 959 1056 
Q 959 750 1161 570 
Q 1363 391 1709 391 
Q 2188 391 2477 730 
Q 2766 1069 2766 1631 
L 2766 1759 
L 2194 1759 
z
M 3341 1997 
L 3341 0 
L 2766 0 
L 2766 531 
Q 2569 213 2275 61 
Q 1981 -91 1556 -91 
Q 1019 -91 701 211 
Q 384 513 384 1019 
Q 384 1609 779 1909 
Q 1175 2209 1959 2209 
L 2766 2209 
L 2766 2266 
Q 2766 2663 2505 2880 
Q 2244 3097 1772 3097 
Q 1472 3097 1187 3025 
Q 903 2953 641 2809 
L 641 3341 
Q 956 3463 1253 3523 
Q 1550 3584 1831 3584 
Q 2591 3584 2966 3190 
Q 3341 2797 3341 1997 
z
" transform="scale(0.015625)"/>
      <path id="DejaVuSans-6e" d="M 3513 2113 
L 3513 0 
L 2938 0 
L 2938 2094 
Q 2938 2591 2744 2837 
Q 2550 3084 2163 3084 
Q 1697 3084 1428 2787 
Q 1159 2491 1159 1978 
L 1159 0 
L 581 0 
L 581 3500 
L 1159 3500 
L 1159 2956 
Q 1366 3272 1645 3428 
Q 1925 3584 2291 3584 
Q 2894 3584 3203 3211 
Q 3513 2838 3513 2113 
z
" transform="scale(0.015625)"/>
      <path id="DejaVuSans-65" d="M 3597 1894 
L 3597 1613 
L 953 1613 
Q 991 1019 1311 708 
Q 1631 397 2203 397 
Q 2534 397 2845 478 
Q 3156 559 3463 722 
L 3463 178 
Q 3153 47 2828 -22 
Q 2503 -91 2169 -91 
Q 1331 -91 842 396 
Q 353 884 353 1716 
Q 353 2575 817 3079 
Q 1281 3584 2069 3584 
Q 2775 3584 3186 3129 
Q 3597 2675 3597 1894 
z
M 3022 2063 
Q 3016 2534 2758 2815 
Q 2500 3097 2075 3097 
Q 1594 3097 1305 2825 
Q 1016 2553 972 2059 
L 3022 2063 
z
" transform="scale(0.015625)"/>
      <path id="DejaVuSans-41" d="M 2188 4044 
L 1331 1722 
L 3047 1722 
L 2188 4044 
z
M 1831 4666 
L 2547 4666 
L 4325 0 
L 3669 0 
L 3244 1197 
L 1141 1197 
L 716 0 
L 50 0 
L 1831 4666 
z
" transform="scale(0.015625)"/>
      <path id="DejaVuSans-3a" d="M 750 794 
L 1409 794 
L 1409 0 
L 750 0 
L 750 794 
z
M 750 3309 
L 1409 3309 
L 1409 2516 
L 750 2516 
L 750 3309 
z
" transform="scale(0.015625)"/>
      <path id="DejaVuSans-72" d="M 2631 2963 
Q 2534 3019 2420 3045 
Q 2306 3072 2169 3072 
Q 1681 3072 1420 2755 
Q 1159 2438 1159 1844 
L 1159 0 
L 581 0 
L 581 3500 
L 1159 3500 
L 1159 2956 
Q 1341 3275 1631 3429 
Q 1922 3584 2338 3584 
Q 2397 3584 2469 3576 
Q 2541 3569 2628 3553 
L 2631 2963 
z
" transform="scale(0.015625)"/>
      <path id="DejaVuSans-79" d="M 2059 -325 
Q 1816 -950 1584 -1140 
Q 1353 -1331 966 -1331 
L 506 -1331 
L 506 -850 
L 844 -850 
Q 1081 -850 1212 -737 
Q 1344 -625 1503 -206 
L 1606 56 
L 191 3500 
L 800 3500 
L 1894 763 
L 2988 3500 
L 3597 3500 
L 2059 -325 
z
" transform="scale(0.015625)"/>
      <path id="DejaVuSans-2b" d="M 2944 4013 
L 2944 2272 
L 4684 2272 
L 4684 1741 
L 2944 1741 
L 2944 0 
L 2419 0 
L 2419 1741 
L 678 1741 
L 678 2272 
L 2419 2272 
L 2419 4013 
L 2944 4013 
z
" transform="scale(0.015625)"/>
      <path id="DejaVuSans-75" d="M 544 1381 
L 544 3500 
L 1119 3500 
L 1119 1403 
Q 1119 906 1312 657 
Q 1506 409 1894 409 
Q 2359 409 2629 706 
Q 2900 1003 2900 1516 
L 2900 3500 
L 3475 3500 
L 3475 0 
L 2900 0 
L 2900 538 
Q 2691 219 2414 64 
Q 2138 -91 1772 -91 
Q 1169 -91 856 284 
Q 544 659 544 1381 
z
M 1991 3584 
L 1991 3584 
z
" transform="scale(0.015625)"/>
      <path id="DejaVuSans-64" d="M 2906 2969 
L 2906 4863 
L 3481 4863 
L 3481 0 
L 2906 0 
L 2906 525 
Q 2725 213 2448 61 
Q 2172 -91 1784 -91 
Q 1150 -91 751 415 
Q 353 922 353 1747 
Q 353 2572 751 3078 
Q 1150 3584 1784 3584 
Q 2172 3584 2448 3432 
Q 2725 3281 2906 2969 
z
M 947 1747 
Q 947 1113 1208 752 
Q 1469 391 1925 391 
Q 2381 391 2643 752 
Q 2906 1113 2906 1747 
Q 2906 2381 2643 2742 
Q 2381 3103 1925 3103 
Q 1469 3103 1208 2742 
Q 947 2381 947 1747 
z
" transform="scale(0.015625)"/>
     </defs>
     <use xlink:href="#DejaVuSans-28"/>
     <use xlink:href="#DejaVuSans-4d" transform="translate(39.013672 0)"/>
     <use xlink:href="#DejaVuSans-46" transform="translate(125.292969 0)"/>
     <use xlink:href="#DejaVuSans-45" transform="translate(182.8125 0)"/>
     <use xlink:href="#DejaVuSans-46" transform="translate(245.996094 0)"/>
     <use xlink:href="#DejaVuSans-20" transform="translate(303.515625 0)"/>
     <use xlink:href="#DejaVuSans-76" transform="translate(335.302734 0)"/>
     <use xlink:href="#DejaVuSans-73" transform="translate(394.482422 0)"/>
     <use xlink:href="#DejaVuSans-20" transform="translate(446.582031 0)"/>
     <use xlink:href="#DejaVuSans-4d" transform="translate(478.369141 0)"/>
     <use xlink:href="#DejaVuSans-4c" transform="translate(564.648438 0)"/>
     <use xlink:href="#DejaVuSans-49" transform="translate(620.361328 0)"/>
     <use xlink:href="#DejaVuSans-50" transform="translate(649.853516 0)"/>
     <use xlink:href="#DejaVuSans-29" transform="translate(710.15625 0)"/>
     <use xlink:href="#DejaVuSans-20" transform="translate(749.169922 0)"/>
     <use xlink:href="#DejaVuSans-2014" transform="translate(780.957031 0)"/>
     <use xlink:href="#DejaVuSans-20" transform="translate(880.957031 0)"/>
     <use xlink:href="#DejaVuSans-43" transform="translate(912.744141 0)"/>
     <use xlink:href="#DejaVuSans-2d" transform="translate(982.568359 0)"/>
     <use xlink:href="#DejaVuSans-66" transform="translate(1018.652344 0)"/>
     <use xlink:href="#DejaVuSans-6c" transform="translate(1053.857422 0)"/>
     <use xlink:href="#DejaVuSans-6f" transform="translate(1081.640625 0)"/>
     <use xlink:href="#DejaVuSans-77" transform="translate(1142.822266 0)"/>
     <use xlink:href="#DejaVuSans-20" transform="translate(1224.609375 0)"/>
     <use xlink:href="#DejaVuSans-2014" transform="translate(1256.396484 0)"/>
     <use xlink:href="#DejaVuSans-20" transform="translate(1356.396484 0)"/>
     <use xlink:href="#DejaVuSans-50" transform="translate(1388.183594 0)"/>
     <use xlink:href="#DejaVuSans-61" transform="translate(1443.986328 0)"/>
     <use xlink:href="#DejaVuSans-6e" transform="translate(1505.265625 0)"/>
     <use xlink:href="#DejaVuSans-65" transform="translate(1568.644531 0)"/>
     <use xlink:href="#DejaVuSans-6c" transform="translate(1630.167969 0)"/>
     <use xlink:href="#DejaVuSans-20" transform="translate(1657.951172 0)"/>
     <use xlink:href="#DejaVuSans-41" transform="translate(1689.738281 0)"/>
     <use xlink:href="#DejaVuSans-3a" transform="translate(1756.396484 0)"/>
     <use xlink:href="#DejaVuSans-20" transform="translate(1790.087891 0)"/>
     <use xlink:href="#DejaVuSans-6f" transform="translate(1821.875 0)"/>
     <use xlink:href="#DejaVuSans-76" transform="translate(1883.056641 0)"/>
     <use xlink:href="#DejaVuSans-65" transform="translate(1942.236328 0)"/>
     <use xlink:href="#DejaVuSans-72" transform="translate(2003.759766 0)"/>
     <use xlink:href="#DejaVuSans-6c" transform="translate(2044.873047 0)"/>
     <use xlink:href="#DejaVuSans-61" transform="translate(2072.65625 0)"/>
     <use xlink:href="#DejaVuSans-79" transform="translate(2133.935547 0)"/>
     <use xlink:href="#DejaVuSans-20" transform="translate(2193.115234 0)"/>
     <use xlink:href="#DejaVuSans-2b" transform="translate(2224.902344 0)"/>
     <use xlink:href="#DejaVuSans-20" transform="translate(2308.691406 0)"/>
     <use xlink:href="#DejaVuSans-6e" transform="translate(2340.478516 0)"/>
     <use xlink:href="#DejaVuSans-75" transform="translate(2403.857422 0)"/>
     <use xlink:href="#DejaVuSans-6c" transform="translate(2467.236328 0)"/>
     <use xlink:href="#DejaVuSans-6c" transform="translate(2495.019531 0)"/>
     <use xlink:href="#DejaVuSans-20" transform="translate(2522.802734 0)"/>
     <use xlink:href="#DejaVuSans-62" transform="translate(2554.589844 0)"/>
     <use xlink:href="#DejaVuSans-61" transform="translate(2618.066406 0)"/>
     <use xlink:href="#DejaVuSans-6e" transform="translate(2679.345703 0)"/>
     <use xlink:href="#DejaVuSans-64" transform="translate(2742.724609 0)"/>
     <use xlink:href="#DejaVuSans-73" transform="translate(2806.201172 0)"/>
    </g>
   </g>
   <g id="legend_1">
    <g id="patch_7">
     <path d="M 79.2 83.990437 
L 99.2 83.990437 
L 99.2 76.990437 
L 79.2 76.990437 
z
" style="fill: #1f77b4; fill-opacity: 0.15"/>
    </g>
    <g id="text_15">
     <!-- MFEF→MLIP null μ±σ -->
     <g transform="translate(107.2 83.990437) scale(0.1 -0.1)">
      <defs>
       <path id="DejaVuSans-2192" d="M 5050 2147 
L 5050 1866 
L 3822 638 
L 3447 1013 
L 4175 1741 
L 366 1741 
L 366 2272 
L 4175 2272 
L 3447 3000 
L 3822 3375 
L 5050 2147 
z
" transform="scale(0.015625)"/>
       <path id="DejaVuSans-3bc" d="M 544 -1331 
L 544 3500 
L 1119 3500 
L 1119 1325 
Q 1119 872 1334 640 
Q 1550 409 1972 409 
Q 2434 409 2667 671 
Q 2900 934 2900 1459 
L 2900 3500 
L 3475 3500 
L 3475 806 
Q 3475 619 3529 530 
Q 3584 441 3700 441 
Q 3728 441 3778 458 
Q 3828 475 3916 513 
L 3916 50 
Q 3788 -22 3673 -56 
Q 3559 -91 3450 -91 
Q 3234 -91 3106 31 
Q 2978 153 2931 403 
Q 2775 156 2548 32 
Q 2322 -91 2016 -91 
Q 1697 -91 1473 31 
Q 1250 153 1119 397 
L 1119 -1331 
L 544 -1331 
z
" transform="scale(0.015625)"/>
       <path id="DejaVuSans-b1" d="M 2944 4013 
L 2944 2803 
L 4684 2803 
L 4684 2272 
L 2944 2272 
L 2944 1063 
L 2419 1063 
L 2419 2272 
L 678 2272 
L 678 2803 
L 2419 2803 
L 2419 4013 
L 2944 4013 
z
M 678 531 
L 4684 531 
L 4684 0 
L 678 0 
L 678 531 
z
" transform="scale(0.015625)"/>
       <path id="DejaVuSans-3c3" d="M 1959 3044 
Q 1484 3044 1228 2700 
Q 959 2341 959 1747 
Q 959 1119 1226 758 
Q 1494 397 1959 397 
Q 2419 397 2687 759 
Q 2956 1122 2956 1747 
Q 2956 2319 2688 2700 
Q 2441 3044 1959 3044 
z
M 1959 3500 
L 3869 3500 
L 3869 2925 
L 3225 2925 
Q 3566 2438 3566 1747 
Q 3566 888 3138 400 
Q 2709 -91 1959 -91 
Q 1206 -91 781 400 
Q 353 888 353 1747 
Q 353 2613 781 3097 
Q 1134 3500 1959 3500 
z
" transform="scale(0.015625)"/>
      </defs>
      <use xlink:href="#DejaVuSans-4d"/>
      <use xlink:href="#DejaVuSans-46" transform="translate(86.279297 0)"/>
      <use xlink:href="#DejaVuSans-45" transform="translate(143.798828 0)"/>
      <use xlink:href="#DejaVuSans-46" transform="translate(206.982422 0)"/>
      <use xlink:href="#DejaVuSans-2192" transform="translate(264.501953 0)"/>
      <use xlink:href="#DejaVuSans-4d" transform="translate(348.291016 0)"/>
      <use xlink:href="#DejaVuSans-4c" transform="translate(434.570312 0)"/>
      <use xlink:href="#DejaVuSans-49" transform="translate(490.283203 0)"/>
      <use xlink:href="#DejaVuSans-50" transform="translate(519.775391 0)"/>
      <use xlink:href="#DejaVuSans-20" transform="translate(580.078125 0)"/>
      <use xlink:href="#DejaVuSans-6e" transform="translate(611.865234 0)"/>
      <use xlink:href="#DejaVuSans-75" transform="translate(675.244141 0)"/>
      <use xlink:href="#DejaVuSans-6c" transform="translate(738.623047 0)"/>
      <use xlink:href="#DejaVuSans-6c" transform="translate(766.40625 0)"/>
      <use xlink:href="#DejaVuSans-20" transform="translate(794.189453 0)"/>
      <use xlink:href="#DejaVuSans-3bc" transform="translate(825.976562 0)"/>
      <use xlink:href="#DejaVuSans-b1" transform="translate(889.599609 0)"/>
      <use xlink:href="#DejaVuSans-3c3" transform="translate(973.388672 0)"/>
     </g>
    </g>
    <g id="patch_8">
     <path d="M 79.2 98.668563 
L 99.2 98.668563 
L 99.2 91.668563 
L 79.2 91.668563 
z
" style="fill: #ff7f0e; fill-opacity: 0.15"/>
    </g>
    <g id="text_16">
     <!-- MLIP→MFEF null μ±σ -->
     <g transform="translate(107.2 98.668563) scale(0.1 -0.1)">
      <use xlink:href="#DejaVuSans-4d"/>
      <use xlink:href="#DejaVuSans-4c" transform="translate(86.279297 0)"/>
      <use xlink:href="#DejaVuSans-49" transform="translate(141.992188 0)"/>
      <use xlink:href="#DejaVuSans-50" transform="translate(171.484375 0)"/>
      <use xlink:href="#DejaVuSans-2192" transform="translate(231.787109 0)"/>
      <use xlink:href="#DejaVuSans-4d" transform="translate(315.576172 0)"/>
      <use xlink:href="#DejaVuSans-46" transform="translate(401.855469 0)"/>
      <use xlink:href="#DejaVuSans-45" transform="translate(459.375 0)"/>
      <use xlink:href="#DejaVuSans-46" transform="translate(522.558594 0)"/>
      <use xlink:href="#DejaVuSans-20" transform="translate(580.078125 0)"/>
      <use xlink:href="#DejaVuSans-6e" transform="translate(611.865234 0)"/>
      <use xlink:href="#DejaVuSans-75" transform="translate(675.244141 0)"/>
      <use xlink:href="#DejaVuSans-6c" transform="translate(738.623047 0)"/>
      <use xlink:href="#DejaVuSans-6c" transform="translate(766.40625 0)"/>
      <use xlink:href="#DejaVuSans-20" transform="translate(794.189453 0)"/>
      <use xlink:href="#DejaVuSans-3bc" transform="translate(825.976562 0)"/>
      <use xlink:href="#DejaVuSans-b1" transform="translate(889.599609 0)"/>
      <use xlink:href="#DejaVuSans-3c3" transform="translate(973.388672 0)"/>
     </g>
    </g>
    <g id="line2d_18">
     <path d="M 230.876562 80.490437 
L 240.876562 80.490437 
L 250.876562 80.490437 
" style="fill: none; stroke: #1f77b4; stroke-width: 2.2; stroke-linecap: square"/>
    </g>
    <g id="text_17">
     <!-- MFEF→MLIP -->
     <g transform="translate(258.876562 83.990437) scale(0.1 -0.1)">
      <use xlink:href="#DejaVuSans-4d"/>
      <use xlink:href="#DejaVuSans-46" transform="translate(86.279297 0)"/>
      <use xlink:href="#DejaVuSans-45" transform="translate(143.798828 0)"/>
      <use xlink:href="#DejaVuSans-46" transform="translate(206.982422 0)"/>
      <use xlink:href="#DejaVuSans-2192" transform="translate(264.501953 0)"/>
      <use xlink:href="#DejaVuSans-4d" transform="translate(348.291016 0)"/>
      <use xlink:href="#DejaVuSans-4c" transform="translate(434.570312 0)"/>
      <use xlink:href="#DejaVuSans-49" transform="translate(490.283203 0)"/>
      <use xlink:href="#DejaVuSans-50" transform="translate(519.775391 0)"/>
     </g>
    </g>
    <g id="line2d_19">
     <path d="M 230.876562 95.168563 
L 240.876562 95.168563 
L 250.876562 95.168563 
" style="fill: none; stroke: #ff7f0e; stroke-width: 2.2; stroke-linecap: square"/>
    </g>
    <g id="text_18">
     <!-- MLIP→MFEF -->
     <g transform="translate(258.876562 98.668563) scale(0.1 -0.1)">
      <use xlink:href="#DejaVuSans-4d"/>
      <use xlink:href="#DejaVuSans-4c" transform="translate(86.279297 0)"/>
      <use xlink:href="#DejaVuSans-49" transform="translate(141.992188 0)"/>
      <use xlink:href="#DejaVuSans-50" transform="translate(171.484375 0)"/>
      <use xlink:href="#DejaVuSans-2192" transform="translate(231.787109 0)"/>
      <use xlink:href="#DejaVuSans-4d" transform="translate(315.576172 0)"/>
      <use xlink:href="#DejaVuSans-46" transform="translate(401.855469 0)"/>
      <use xlink:href="#DejaVuSans-45" transform="translate(459.375 0)"/>
      <use xlink:href="#DejaVuSans-46" transform="translate(522.558594 0)"/>
     </g>
    </g>
   </g>
  </g>
  <g id="axes_2">
   <g id="patch_9">
    <path d="M 70.2 353.106 
L 505.44 353.106 
L 505.44 237.276 
L 70.2 237.276 
z
" style="fill: #ffffff"/>
   </g>
   <g id="matplotlib.axis_3">
    <g id="xtick_7">
     <g id="line2d_20">
      <g>
       <use xlink:href="#mdd151cd15e" x="87.985286" y="353.106" style="stroke: #000000; stroke-width: 0.8"/>
      </g>
     </g>
     <g id="text_19">
      <!-- −200 -->
      <g transform="translate(74.251693 367.704438) scale(0.1 -0.1)">
       <use xlink:href="#DejaVuSans-2212"/>
       <use xlink:href="#DejaVuSans-32" transform="translate(83.789062 0)"/>
       <use xlink:href="#DejaVuSans-30" transform="translate(147.412109 0)"/>
       <use xlink:href="#DejaVuSans-30" transform="translate(211.035156 0)"/>
      </g>
     </g>
    </g>
    <g id="xtick_8">
     <g id="line2d_21">
      <g>
       <use xlink:href="#mdd151cd15e" x="167.91917" y="353.106" style="stroke: #000000; stroke-width: 0.8"/>
      </g>
     </g>
     <g id="text_20">
      <!-- 0 -->
      <g transform="translate(164.73792 367.704438) scale(0.1 -0.1)">
       <use xlink:href="#DejaVuSans-30"/>
      </g>
     </g>
    </g>
    <g id="xtick_9">
     <g id="line2d_22">
      <g>
       <use xlink:href="#mdd151cd15e" x="247.853053" y="353.106" style="stroke: #000000; stroke-width: 0.8"/>
      </g>
     </g>
     <g id="text_21">
      <!-- 200 -->
      <g transform="translate(238.309303 367.704438) scale(0.1 -0.1)">
       <use xlink:href="#DejaVuSans-32"/>
       <use xlink:href="#DejaVuSans-30" transform="translate(63.623047 0)"/>
       <use xlink:href="#DejaVuSans-30" transform="translate(127.246094 0)"/>
      </g>
     </g>
    </g>
    <g id="xtick_10">
     <g id="line2d_23">
      <g>
       <use xlink:href="#mdd151cd15e" x="327.786937" y="353.106" style="stroke: #000000; stroke-width: 0.8"/>
      </g>
     </g>
     <g id="text_22">
      <!-- 400 -->
      <g transform="translate(318.243187 367.704438) scale(0.1 -0.1)">
       <use xlink:href="#DejaVuSans-34"/>
       <use xlink:href="#DejaVuSans-30" transform="translate(63.623047 0)"/>
       <use xlink:href="#DejaVuSans-30" transform="translate(127.246094 0)"/>
      </g>
     </g>
    </g>
    <g id="xtick_11">
     <g id="line2d_24">
      <g>
       <use xlink:href="#mdd151cd15e" x="407.720821" y="353.106" style="stroke: #000000; stroke-width: 0.8"/>
      </g>
     </g>
     <g id="text_23">
      <!-- 600 -->
      <g transform="translate(398.177071 367.704438) scale(0.1 -0.1)">
       <use xlink:href="#DejaVuSans-36"/>
       <use xlink:href="#DejaVuSans-30" transform="translate(63.623047 0)"/>
       <use xlink:href="#DejaVuSans-30" transform="translate(127.246094 0)"/>
      </g>
     </g>
    </g>
    <g id="xtick_12">
     <g id="line2d_25">
      <g>
       <use xlink:href="#mdd151cd15e" x="487.654704" y="353.106" style="stroke: #000000; stroke-width: 0.8"/>
      </g>
     </g>
     <g id="text_24">
      <!-- 800 -->
      <g transform="translate(478.110954 367.704438) scale(0.1 -0.1)">
       <use xlink:href="#DejaVuSans-38"/>
       <use xlink:href="#DejaVuSans-30" transform="translate(63.623047 0)"/>
       <use xlink:href="#DejaVuSans-30" transform="translate(127.246094 0)"/>
      </g>
     </g>
    </g>
   </g>
   <g id="matplotlib.axis_4">
    <g id="ytick_7">
     <g id="line2d_26">
      <g>
       <use xlink:href="#m7a50490ae9" x="70.2" y="327.566479" style="stroke: #000000; stroke-width: 0.8"/>
      </g>
     </g>
     <g id="text_25">
      <!-- −5 -->
      <g transform="translate(48.457813 331.365698) scale(0.1 -0.1)">
       <use xlink:href="#DejaVuSans-2212"/>
       <use xlink:href="#DejaVuSans-35" transform="translate(83.789062 0)"/>
      </g>
     </g>
    </g>
    <g id="ytick_8">
     <g id="line2d_27">
      <g>
       <use xlink:href="#m7a50490ae9" x="70.2" y="298.273996" style="stroke: #000000; stroke-width: 0.8"/>
      </g>
     </g>
     <g id="text_26">
      <!-- 0 -->
      <g transform="translate(56.8375 302.073215) scale(0.1 -0.1)">
       <use xlink:href="#DejaVuSans-30"/>
      </g>
     </g>
    </g>
    <g id="ytick_9">
     <g id="line2d_28">
      <g>
       <use xlink:href="#m7a50490ae9" x="70.2" y="268.981514" style="stroke: #000000; stroke-width: 0.8"/>
      </g>
     </g>
     <g id="text_27">
      <!-- 5 -->
      <g transform="translate(56.8375 272.780732) scale(0.1 -0.1)">
       <use xlink:href="#DejaVuSans-35"/>
      </g>
     </g>
    </g>
    <g id="ytick_10">
     <g id="line2d_29">
      <g>
       <use xlink:href="#m7a50490ae9" x="70.2" y="239.689031" style="stroke: #000000; stroke-width: 0.8"/>
      </g>
     </g>
     <g id="text_28">
      <!-- 10 -->
      <g transform="translate(50.475 243.488249) scale(0.1 -0.1)">
       <use xlink:href="#DejaVuSans-31"/>
       <use xlink:href="#DejaVuSans-30" transform="translate(63.623047 0)"/>
      </g>
     </g>
    </g>
    <g id="text_29">
     <!-- ΔΔLL (bits) -->
     <g transform="translate(42.378125 322.22225) rotate(-90) scale(0.1 -0.1)">
      <use xlink:href="#DejaVuSans-394"/>
      <use xlink:href="#DejaVuSans-394" transform="translate(68.408203 0)"/>
      <use xlink:href="#DejaVuSans-4c" transform="translate(136.816406 0)"/>
      <use xlink:href="#DejaVuSans-4c" transform="translate(192.529297 0)"/>
      <use xlink:href="#DejaVuSans-20" transform="translate(248.242188 0)"/>
      <use xlink:href="#DejaVuSans-28" transform="translate(280.029297 0)"/>
      <use xlink:href="#DejaVuSans-62" transform="translate(319.042969 0)"/>
      <use xlink:href="#DejaVuSans-69" transform="translate(382.519531 0)"/>
      <use xlink:href="#DejaVuSans-74" transform="translate(410.302734 0)"/>
      <use xlink:href="#DejaVuSans-73" transform="translate(449.511719 0)"/>
      <use xlink:href="#DejaVuSans-29" transform="translate(501.611328 0)"/>
     </g>
    </g>
   </g>
   <g id="line2d_30">
    <path d="M 167.91917 353.106 
L 167.91917 237.276 
" clip-path="url(#pd61ffa6da7)" style="fill: none; stroke-dasharray: 2.96,1.28; stroke-dashoffset: 0; stroke: #000000; stroke-width: 0.8"/>
   </g>
   <g id="line2d_31">
    <path d="M 70.2 298.273996 
L 505.44 298.273996 
" clip-path="url(#pd61ffa6da7)" style="fill: none; stroke-dasharray: 0.8,1.32; stroke-dashoffset: 0; stroke: #000000; stroke-width: 0.8"/>
   </g>
   <g id="line2d_32">
    <path d="M 89.983636 279.31859 
L 93.980327 335.566576 
L 97.977023 288.020185 
L 101.973713 304.464444 
L 105.97041 313.189582 
L 109.967106 310.515134 
L 113.963796 289.707699 
L 117.960493 302.731944 
L 121.957186 296.601001 
L 125.953882 267.198732 
L 129.950576 293.082276 
L 133.947269 312.665061 
L 137.943962 325.469119 
L 141.940659 282.527495 
L 145.937352 291.58187 
L 149.934045 318.308324 
L 153.93074 281.428544 
L 157.927434 310.703531 
L 161.924129 298.23824 
L 165.920823 294.181806 
L 169.917517 284.101161 
L 173.914211 314.003919 
L 177.910906 303.585678 
L 181.9076 295.27881 
L 185.904294 301.608288 
L 189.900988 310.224982 
L 193.897681 285.557144 
L 197.894377 317.977917 
L 201.891071 316.389138 
L 205.887764 347.841 
L 209.884457 291.818212 
L 213.881154 302.477798 
L 217.877847 316.302479 
L 221.874543 283.882787 
L 225.871234 300.783027 
L 229.86793 285.341949 
L 233.864626 308.728016 
L 237.861317 296.107676 
L 241.858013 306.114461 
L 245.854704 303.815052 
L 249.8514 285.322569 
L 253.848096 287.238851 
L 257.844787 293.096523 
L 261.841483 316.312551 
L 265.838179 267.859817 
L 269.83487 301.928504 
L 273.83156 327.967807 
L 277.828262 242.541 
L 281.824953 320.728978 
L 285.821643 279.869365 
L 289.818345 291.595944 
L 293.815036 284.069464 
L 297.811726 292.682263 
L 301.808428 317.146126 
L 305.805119 302.570094 
L 309.801809 306.829327 
L 313.798511 298.076946 
L 317.795202 305.714384 
L 321.791892 271.843205 
L 325.788594 305.224198 
L 329.785285 265.386301 
L 333.781975 333.445024 
L 337.778677 304.164824 
L 341.775368 307.765359 
L 345.772058 325.878255 
L 349.76876 323.877413 
L 353.765451 304.082576 
L 357.762141 298.54975 
L 361.758843 278.894339 
L 365.755534 311.590687 
L 369.752224 293.357649 
L 373.748914 291.878147 
L 377.745605 289.855914 
L 381.742319 312.498727 
L 385.739009 289.290548 
L 389.7357 296.326459 
L 393.73239 319.642792 
L 397.72908 301.03223 
L 401.725771 302.413112 
L 405.722485 292.371472 
L 409.719175 284.55854 
L 413.715866 321.175655 
L 417.712556 305.5728 
L 421.709246 304.733754 
L 425.705937 289.29066 
L 429.702627 329.817472 
L 433.699341 293.184675 
L 437.696032 281.837466 
L 441.692722 274.908137 
L 445.689412 304.292044 
L 449.686103 298.279511 
L 453.682793 281.242997 
L 457.679507 253.651133 
L 461.676198 334.410925 
L 465.672888 287.542995 
L 469.669578 317.50341 
L 473.666269 300.092456 
L 477.662959 296.200534 
L 481.659673 284.975932 
L 485.656364 283.735303 
" clip-path="url(#pd61ffa6da7)" style="fill: none; stroke: #d62728; stroke-width: 2.2; stroke-linecap: square"/>
   </g>
   <g id="line2d_33">
    <defs>
     <path id="m497a47419f" d="M 0 1.25 
C 0.331504 1.25 0.649475 1.118292 0.883883 0.883883 
C 1.118292 0.649475 1.25 0.331504 1.25 0 
C 1.25 -0.331504 1.118292 -0.649475 0.883883 -0.883883 
C 0.649475 -1.118292 0.331504 -1.25 0 -1.25 
C -0.331504 -1.25 -0.649475 -1.118292 -0.883883 -0.883883 
C -1.118292 -0.649475 -1.25 -0.331504 -1.25 0 
C -1.25 0.331504 -1.118292 0.649475 -0.883883 0.883883 
C -0.649475 1.118292 -0.331504 1.25 0 1.25 
z
" style="stroke: #000000"/>
    </defs>
    <g clip-path="url(#pd61ffa6da7)">
     <use xlink:href="#m497a47419f" x="93.980327" y="335.566576" style="stroke: #000000"/>
     <use xlink:href="#m497a47419f" x="205.887764" y="347.841" style="stroke: #000000"/>
     <use xlink:href="#m497a47419f" x="265.838179" y="267.859817" style="stroke: #000000"/>
     <use xlink:href="#m497a47419f" x="273.83156" y="327.967807" style="stroke: #000000"/>
     <use xlink:href="#m497a47419f" x="277.828262" y="242.541" style="stroke: #000000"/>
     <use xlink:href="#m497a47419f" x="329.785285" y="265.386301" style="stroke: #000000"/>
     <use xlink:href="#m497a47419f" x="333.781975" y="333.445024" style="stroke: #000000"/>
     <use xlink:href="#m497a47419f" x="429.702627" y="329.817472" style="stroke: #000000"/>
     <use xlink:href="#m497a47419f" x="457.679507" y="253.651133" style="stroke: #000000"/>
     <use xlink:href="#m497a47419f" x="461.676198" y="334.410925" style="stroke: #000000"/>
    </g>
   </g>
   <g id="patch_10">
    <path d="M 70.2 353.106 
L 70.2 237.276 
" style="fill: none; stroke: #000000; stroke-width: 0.8; stroke-linejoin: miter; stroke-linecap: square"/>
   </g>
   <g id="patch_11">
    <path d="M 505.44 353.106 
L 505.44 237.276 
" style="fill: none; stroke: #000000; stroke-width: 0.8; stroke-linejoin: miter; stroke-linecap: square"/>
   </g>
   <g id="patch_12">
    <path d="M 70.2 353.106 
L 505.44 353.106 
" style="fill: none; stroke: #000000; stroke-width: 0.8; stroke-linejoin: miter; stroke-linecap: square"/>
   </g>
   <g id="patch_13">
    <path d="M 70.2 237.276 
L 505.44 237.276 
" style="fill: none; stroke: #000000; stroke-width: 0.8; stroke-linejoin: miter; stroke-linecap: square"/>
   </g>
   <g id="text_30">
    <!-- Panel B: pair-diff with significance dots -->
    <g transform="translate(171.554063 231.276) scale(0.12 -0.12)">
     <defs>
      <path id="DejaVuSans-42" d="M 1259 2228 
L 1259 519 
L 2272 519 
Q 2781 519 3026 730 
Q 3272 941 3272 1375 
Q 3272 1813 3026 2020 
Q 2781 2228 2272 2228 
L 1259 2228 
z
M 1259 4147 
L 1259 2741 
L 2194 2741 
Q 2656 2741 2882 2914 
Q 3109 3088 3109 3444 
Q 3109 3797 2882 3972 
Q 2656 4147 2194 4147 
L 1259 4147 
z
M 628 4666 
L 2241 4666 
Q 2963 4666 3353 4366 
Q 3744 4066 3744 3513 
Q 3744 3084 3544 2831 
Q 3344 2578 2956 2516 
Q 3422 2416 3680 2098 
Q 3938 1781 3938 1306 
Q 3938 681 3513 340 
Q 3088 0 2303 0 
L 628 0 
L 628 4666 
z
" transform="scale(0.015625)"/>
      <path id="DejaVuSans-70" d="M 1159 525 
L 1159 -1331 
L 581 -1331 
L 581 3500 
L 1159 3500 
L 1159 2969 
Q 1341 3281 1617 3432 
Q 1894 3584 2278 3584 
Q 2916 3584 3314 3078 
Q 3713 2572 3713 1747 
Q 3713 922 3314 415 
Q 2916 -91 2278 -91 
Q 1894 -91 1617 61 
Q 1341 213 1159 525 
z
M 3116 1747 
Q 3116 2381 2855 2742 
Q 2594 3103 2138 3103 
Q 1681 3103 1420 2742 
Q 1159 2381 1159 1747 
Q 1159 1113 1420 752 
Q 1681 391 2138 391 
Q 2594 391 2855 752 
Q 3116 1113 3116 1747 
z
" transform="scale(0.015625)"/>
      <path id="DejaVuSans-68" d="M 3513 2113 
L 3513 0 
L 2938 0 
L 2938 2094 
Q 2938 2591 2744 2837 
Q 2550 3084 2163 3084 
Q 1697 3084 1428 2787 
Q 1159 2491 1159 1978 
L 1159 0 
L 581 0 
L 581 4863 
L 1159 4863 
L 1159 2956 
Q 1366 3272 1645 3428 
Q 1925 3584 2291 3584 
Q 2894 3584 3203 3211 
Q 3513 2838 3513 2113 
z
" transform="scale(0.015625)"/>
      <path id="DejaVuSans-67" d="M 2906 1791 
Q 2906 2416 2648 2759 
Q 2391 3103 1925 3103 
Q 1463 3103 1205 2759 
Q 947 2416 947 1791 
Q 947 1169 1205 825 
Q 1463 481 1925 481 
Q 2391 481 2648 825 
Q 2906 1169 2906 1791 
z
M 3481 434 
Q 3481 -459 3084 -895 
Q 2688 -1331 1869 -1331 
Q 1566 -1331 1297 -1286 
Q 1028 -1241 775 -1147 
L 775 -588 
Q 1028 -725 1275 -790 
Q 1522 -856 1778 -856 
Q 2344 -856 2625 -561 
Q 2906 -266 2906 331 
L 2906 616 
Q 2728 306 2450 153 
Q 2172 0 1784 0 
Q 1141 0 747 490 
Q 353 981 353 1791 
Q 353 2603 747 3093 
Q 1141 3584 1784 3584 
Q 2172 3584 2450 3431 
Q 2728 3278 2906 2969 
L 2906 3500 
L 3481 3500 
L 3481 434 
z
" transform="scale(0.015625)"/>
      <path id="DejaVuSans-63" d="M 3122 3366 
L 3122 2828 
Q 2878 2963 2633 3030 
Q 2388 3097 2138 3097 
Q 1578 3097 1268 2742 
Q 959 2388 959 1747 
Q 959 1106 1268 751 
Q 1578 397 2138 397 
Q 2388 397 2633 464 
Q 2878 531 3122 666 
L 3122 134 
Q 2881 22 2623 -34 
Q 2366 -91 2075 -91 
Q 1284 -91 818 406 
Q 353 903 353 1747 
Q 353 2603 823 3093 
Q 1294 3584 2113 3584 
Q 2378 3584 2631 3529 
Q 2884 3475 3122 3366 
z
" transform="scale(0.015625)"/>
     </defs>
     <use xlink:href="#DejaVuSans-50"/>
     <use xlink:href="#DejaVuSans-61" transform="translate(55.802734 0)"/>
     <use xlink:href="#DejaVuSans-6e" transform="translate(117.082031 0)"/>
     <use xlink:href="#DejaVuSans-65" transform="translate(180.460938 0)"/>
     <use xlink:href="#DejaVuSans-6c" transform="translate(241.984375 0)"/>
     <use xlink:href="#DejaVuSans-20" transform="translate(269.767578 0)"/>
     <use xlink:href="#DejaVuSans-42" transform="translate(301.554688 0)"/>
     <use xlink:href="#DejaVuSans-3a" transform="translate(370.158203 0)"/>
     <use xlink:href="#DejaVuSans-20" transform="translate(403.849609 0)"/>
     <use xlink:href="#DejaVuSans-70" transform="translate(435.636719 0)"/>
     <use xlink:href="#DejaVuSans-61" transform="translate(499.113281 0)"/>
     <use xlink:href="#DejaVuSans-69" transform="translate(560.392578 0)"/>
     <use xlink:href="#DejaVuSans-72" transform="translate(588.175781 0)"/>
     <use xlink:href="#DejaVuSans-2d" transform="translate(622.914062 0)"/>
     <use xlink:href="#DejaVuSans-64" transform="translate(658.998047 0)"/>
     <use xlink:href="#DejaVuSans-69" transform="translate(722.474609 0)"/>
     <use xlink:href="#DejaVuSans-66" transform="translate(750.257812 0)"/>
     <use xlink:href="#DejaVuSans-66" transform="translate(785.462891 0)"/>
     <use xlink:href="#DejaVuSans-20" transform="translate(820.667969 0)"/>
     <use xlink:href="#DejaVuSans-77" transform="translate(852.455078 0)"/>
     <use xlink:href="#DejaVuSans-69" transform="translate(934.242188 0)"/>
     <use xlink:href="#DejaVuSans-74" transform="translate(962.025391 0)"/>
     <use xlink:href="#DejaVuSans-68" transform="translate(1001.234375 0)"/>
     <use xlink:href="#DejaVuSans-20" transform="translate(1064.613281 0)"/>
     <use xlink:href="#DejaVuSans-73" transform="translate(1096.400391 0)"/>
     <use xlink:href="#DejaVuSans-69" transform="translate(1148.5 0)"/>
     <use xlink:href="#DejaVuSans-67" transform="translate(1176.283203 0)"/>
     <use xlink:href="#DejaVuSans-6e" transform="translate(1239.759766 0)"/>
     <use xlink:href="#DejaVuSans-69" transform="translate(1303.138672 0)"/>
     <use xlink:href="#DejaVuSans-66" transform="translate(1330.921875 0)"/>
     <use xlink:href="#DejaVuSans-69" transform="translate(1366.126953 0)"/>
     <use xlink:href="#DejaVuSans-63" transform="translate(1393.910156 0)"/>
     <use xlink:href="#DejaVuSans-61" transform="translate(1448.890625 0)"/>
     <use xlink:href="#DejaVuSans-6e" transform="translate(1510.169922 0)"/>
     <use xlink:href="#DejaVuSans-63" transform="translate(1573.548828 0)"/>
     <use xlink:href="#DejaVuSans-65" transform="translate(1628.529297 0)"/>
     <use xlink:href="#DejaVuSans-20" transform="translate(1690.052734 0)"/>
     <use xlink:href="#DejaVuSans-64" transform="translate(1721.839844 0)"/>
     <use xlink:href="#DejaVuSans-6f" transform="translate(1785.316406 0)"/>
     <use xlink:href="#DejaVuSans-74" transform="translate(1846.498047 0)"/>
     <use xlink:href="#DejaVuSans-73" transform="translate(1885.707031 0)"/>
    </g>
   </g>
   <g id="legend_2">
    <g id="line2d_34">
     <path d="M 79.2 250.374437 
L 89.2 250.374437 
L 99.2 250.374437 
" style="fill: none; stroke: #d62728; stroke-width: 2.2; stroke-linecap: square"/>
    </g>
    <g id="text_31">
     <!-- (A→B − B→A) -->
     <g transform="translate(107.2 253.874437) scale(0.1 -0.1)">
      <use xlink:href="#DejaVuSans-28"/>
      <use xlink:href="#DejaVuSans-41" transform="translate(39.013672 0)"/>
      <use xlink:href="#DejaVuSans-2192" transform="translate(107.421875 0)"/>
      <use xlink:href="#DejaVuSans-42" transform="translate(191.210938 0)"/>
      <use xlink:href="#DejaVuSans-20" transform="translate(259.814453 0)"/>
      <use xlink:href="#DejaVuSans-2212" transform="translate(291.601562 0)"/>
      <use xlink:href="#DejaVuSans-20" transform="translate(375.390625 0)"/>
      <use xlink:href="#DejaVuSans-42" transform="translate(407.177734 0)"/>
      <use xlink:href="#DejaVuSans-2192" transform="translate(475.78125 0)"/>
      <use xlink:href="#DejaVuSans-41" transform="translate(559.570312 0)"/>
      <use xlink:href="#DejaVuSans-29" transform="translate(627.978516 0)"/>
     </g>
    </g>
    <g id="line2d_35">
     <g>
      <use xlink:href="#m497a47419f" x="89.2" y="265.052563" style="stroke: #000000"/>
     </g>
    </g>
    <g id="text_32">
     <!-- p&lt;0.05 (one-sided) -->
     <g transform="translate(107.2 268.552563) scale(0.1 -0.1)">
      <defs>
       <path id="DejaVuSans-3c" d="M 4684 3150 
L 1459 2003 
L 4684 863 
L 4684 294 
L 678 1747 
L 678 2266 
L 4684 3719 
L 4684 3150 
z
" transform="scale(0.015625)"/>
      </defs>
      <use xlink:href="#DejaVuSans-70"/>
      <use xlink:href="#DejaVuSans-3c" transform="translate(63.476562 0)"/>
      <use xlink:href="#DejaVuSans-30" transform="translate(147.265625 0)"/>
      <use xlink:href="#DejaVuSans-2e" transform="translate(210.888672 0)"/>
      <use xlink:href="#DejaVuSans-30" transform="translate(242.675781 0)"/>
      <use xlink:href="#DejaVuSans-35" transform="translate(306.298828 0)"/>
      <use xlink:href="#DejaVuSans-20" transform="translate(369.921875 0)"/>
      <use xlink:href="#DejaVuSans-28" transform="translate(401.708984 0)"/>
      <use xlink:href="#DejaVuSans-6f" transform="translate(440.722656 0)"/>
      <use xlink:href="#DejaVuSans-6e" transform="translate(501.904297 0)"/>
      <use xlink:href="#DejaVuSans-65" transform="translate(565.283203 0)"/>
      <use xlink:href="#DejaVuSans-2d" transform="translate(626.806641 0)"/>
      <use xlink:href="#DejaVuSans-73" transform="translate(662.890625 0)"/>
      <use xlink:href="#DejaVuSans-69" transform="translate(714.990234 0)"/>
      <use xlink:href="#DejaVuSans-64" transform="translate(742.773438 0)"/>
      <use xlink:href="#DejaVuSans-65" transform="translate(806.25 0)"/>
      <use xlink:href="#DejaVuSans-64" transform="translate(867.773438 0)"/>
      <use xlink:href="#DejaVuSans-29" transform="translate(931.25 0)"/>
     </g>
    </g>
   </g>
  </g>
  <g id="axes_3">
   <g id="patch_14">
    <path d="M 70.2 499.824 
L 505.44 499.824 
L 505.44 383.994 
L 70.2 383.994 
z
" style="fill: #ffffff"/>
   </g>
   <g id="matplotlib.axis_5">
    <g id="xtick_13">
     <g id="line2d_36">
      <g>
       <use xlink:href="#mdd151cd15e" x="87.985286" y="499.824" style="stroke: #000000; stroke-width: 0.8"/>
      </g>
     </g>
     <g id="text_33">
      <!-- −200 -->
      <g transform="translate(74.251693 514.422438) scale(0.1 -0.1)">
       <use xlink:href="#DejaVuSans-2212"/>
       <use xlink:href="#DejaVuSans-32" transform="translate(83.789062 0)"/>
       <use xlink:href="#DejaVuSans-30" transform="translate(147.412109 0)"/>
       <use xlink:href="#DejaVuSans-30" transform="translate(211.035156 0)"/>
      </g>
     </g>
    </g>
    <g id="xtick_14">
     <g id="line2d_37">
      <g>
       <use xlink:href="#mdd151cd15e" x="167.91917" y="499.824" style="stroke: #000000; stroke-width: 0.8"/>
      </g>
     </g>
     <g id="text_34">
      <!-- 0 -->
      <g transform="translate(164.73792 514.422438) scale(0.1 -0.1)">
       <use xlink:href="#DejaVuSans-30"/>
      </g>
     </g>
    </g>
    <g id="xtick_15">
     <g id="line2d_38">
      <g>
       <use xlink:href="#mdd151cd15e" x="247.853053" y="499.824" style="stroke: #000000; stroke-width: 0.8"/>
      </g>
     </g>
     <g id="text_35">
      <!-- 200 -->
      <g transform="translate(238.309303 514.422438) scale(0.1 -0.1)">
       <use xlink:href="#DejaVuSans-32"/>
       <use xlink:href="#DejaVuSans-30" transform="translate(63.623047 0)"/>
       <use xlink:href="#DejaVuSans-30" transform="translate(127.246094 0)"/>
      </g>
     </g>
    </g>
    <g id="xtick_16">
     <g id="line2d_39">
      <g>
       <use xlink:href="#mdd151cd15e" x="327.786937" y="499.824" style="stroke: #000000; stroke-width: 0.8"/>
      </g>
     </g>
     <g id="text_36">
      <!-- 400 -->
      <g transform="translate(318.243187 514.422438) scale(0.1 -0.1)">
       <use xlink:href="#DejaVuSans-34"/>
       <use xlink:href="#DejaVuSans-30" transform="translate(63.623047 0)"/>
       <use xlink:href="#DejaVuSans-30" transform="translate(127.246094 0)"/>
      </g>
     </g>
    </g>
    <g id="xtick_17">
     <g id="line2d_40">
      <g>
       <use xlink:href="#mdd151cd15e" x="407.720821" y="499.824" style="stroke: #000000; stroke-width: 0.8"/>
      </g>
     </g>
     <g id="text_37">
      <!-- 600 -->
      <g transform="translate(398.177071 514.422438) scale(0.1 -0.1)">
       <use xlink:href="#DejaVuSans-36"/>
       <use xlink:href="#DejaVuSans-30" transform="translate(63.623047 0)"/>
       <use xlink:href="#DejaVuSans-30" transform="translate(127.246094 0)"/>
      </g>
     </g>
    </g>
    <g id="xtick_18">
     <g id="line2d_41">
      <g>
       <use xlink:href="#mdd151cd15e" x="487.654704" y="499.824" style="stroke: #000000; stroke-width: 0.8"/>
      </g>
     </g>
     <g id="text_38">
      <!-- 800 -->
      <g transform="translate(478.110954 514.422438) scale(0.1 -0.1)">
       <use xlink:href="#DejaVuSans-38"/>
       <use xlink:href="#DejaVuSans-30" transform="translate(63.623047 0)"/>
       <use xlink:href="#DejaVuSans-30" transform="translate(127.246094 0)"/>
      </g>
     </g>
    </g>
    <g id="text_39">
     <!-- Time (ms) -->
     <g transform="translate(262.620781 528.100563) scale(0.1 -0.1)">
      <defs>
       <path id="DejaVuSans-54" d="M -19 4666 
L 3928 4666 
L 3928 4134 
L 2272 4134 
L 2272 0 
L 1638 0 
L 1638 4134 
L -19 4134 
L -19 4666 
z
" transform="scale(0.015625)"/>
       <path id="DejaVuSans-6d" d="M 3328 2828 
Q 3544 3216 3844 3400 
Q 4144 3584 4550 3584 
Q 5097 3584 5394 3201 
Q 5691 2819 5691 2113 
L 5691 0 
L 5113 0 
L 5113 2094 
Q 5113 2597 4934 2840 
Q 4756 3084 4391 3084 
Q 3944 3084 3684 2787 
Q 3425 2491 3425 1978 
L 3425 0 
L 2847 0 
L 2847 2094 
Q 2847 2600 2669 2842 
Q 2491 3084 2119 3084 
Q 1678 3084 1418 2786 
Q 1159 2488 1159 1978 
L 1159 0 
L 581 0 
L 581 3500 
L 1159 3500 
L 1159 2956 
Q 1356 3278 1631 3431 
Q 1906 3584 2284 3584 
Q 2666 3584 2933 3390 
Q 3200 3197 3328 2828 
z
" transform="scale(0.015625)"/>
      </defs>
      <use xlink:href="#DejaVuSans-54"/>
      <use xlink:href="#DejaVuSans-69" transform="translate(57.958984 0)"/>
      <use xlink:href="#DejaVuSans-6d" transform="translate(85.742188 0)"/>
      <use xlink:href="#DejaVuSans-65" transform="translate(183.154297 0)"/>
      <use xlink:href="#DejaVuSans-20" transform="translate(244.677734 0)"/>
      <use xlink:href="#DejaVuSans-28" transform="translate(276.464844 0)"/>
      <use xlink:href="#DejaVuSans-6d" transform="translate(315.478516 0)"/>
      <use xlink:href="#DejaVuSans-73" transform="translate(412.890625 0)"/>
      <use xlink:href="#DejaVuSans-29" transform="translate(464.990234 0)"/>
     </g>
    </g>
   </g>
   <g id="matplotlib.axis_6">
    <g id="ytick_11">
     <g id="line2d_42">
      <g>
       <use xlink:href="#m7a50490ae9" x="70.2" y="466.217649" style="stroke: #000000; stroke-width: 0.8"/>
      </g>
     </g>
     <g id="text_40">
      <!-- 0 -->
      <g transform="translate(56.8375 470.016868) scale(0.1 -0.1)">
       <use xlink:href="#DejaVuSans-30"/>
      </g>
     </g>
    </g>
    <g id="ytick_12">
     <g id="line2d_43">
      <g>
       <use xlink:href="#m7a50490ae9" x="70.2" y="428.404966" style="stroke: #000000; stroke-width: 0.8"/>
      </g>
     </g>
     <g id="text_41">
      <!-- 2 -->
      <g transform="translate(56.8375 432.204185) scale(0.1 -0.1)">
       <use xlink:href="#DejaVuSans-32"/>
      </g>
     </g>
    </g>
    <g id="ytick_13">
     <g id="line2d_44">
      <g>
       <use xlink:href="#m7a50490ae9" x="70.2" y="390.592284" style="stroke: #000000; stroke-width: 0.8"/>
      </g>
     </g>
     <g id="text_42">
      <!-- 4 -->
      <g transform="translate(56.8375 394.391502) scale(0.1 -0.1)">
       <use xlink:href="#DejaVuSans-34"/>
      </g>
     </g>
    </g>
    <g id="text_43">
     <!-- Z (σ from null) -->
     <g transform="translate(50.757812 477.919938) rotate(-90) scale(0.1 -0.1)">
      <defs>
       <path id="DejaVuSans-5a" d="M 359 4666 
L 4025 4666 
L 4025 4184 
L 1075 531 
L 4097 531 
L 4097 0 
L 288 0 
L 288 481 
L 3238 4134 
L 359 4134 
L 359 4666 
z
" transform="scale(0.015625)"/>
      </defs>
      <use xlink:href="#DejaVuSans-5a"/>
      <use xlink:href="#DejaVuSans-20" transform="translate(68.505859 0)"/>
      <use xlink:href="#DejaVuSans-28" transform="translate(100.292969 0)"/>
      <use xlink:href="#DejaVuSans-3c3" transform="translate(139.306641 0)"/>
      <use xlink:href="#DejaVuSans-20" transform="translate(202.685547 0)"/>
      <use xlink:href="#DejaVuSans-66" transform="translate(234.472656 0)"/>
      <use xlink:href="#DejaVuSans-72" transform="translate(269.677734 0)"/>
      <use xlink:href="#DejaVuSans-6f" transform="translate(308.541016 0)"/>
      <use xlink:href="#DejaVuSans-6d" transform="translate(369.722656 0)"/>
      <use xlink:href="#DejaVuSans-20" transform="translate(467.134766 0)"/>
      <use xlink:href="#DejaVuSans-6e" transform="translate(498.921875 0)"/>
      <use xlink:href="#DejaVuSans-75" transform="translate(562.300781 0)"/>
      <use xlink:href="#DejaVuSans-6c" transform="translate(625.679688 0)"/>
      <use xlink:href="#DejaVuSans-6c" transform="translate(653.462891 0)"/>
      <use xlink:href="#DejaVuSans-29" transform="translate(681.246094 0)"/>
     </g>
    </g>
   </g>
   <g id="line2d_45">
    <path d="M 167.91917 499.824 
L 167.91917 383.994 
" clip-path="url(#pc056dbaf46)" style="fill: none; stroke-dasharray: 2.96,1.28; stroke-dashoffset: 0; stroke: #000000; stroke-width: 0.8"/>
   </g>
   <g id="line2d_46">
    <path d="M 89.983636 447.710269 
L 93.980327 461.868984 
L 97.977023 454.866057 
L 101.973713 479.345735 
L 105.97041 483.594309 
L 109.967106 490.105551 
L 113.963796 397.787742 
L 117.960493 457.516958 
L 121.957186 474.026168 
L 125.953882 433.90788 
L 129.950576 452.466288 
L 133.947269 479.635186 
L 137.943962 479.098339 
L 141.940659 441.790448 
L 145.937352 471.209572 
L 149.934045 479.504552 
L 153.93074 454.047171 
L 157.927434 481.421413 
L 161.924129 486.536556 
L 165.920823 470.052364 
L 169.917517 454.629772 
L 173.914211 486.131177 
L 177.910906 460.388729 
L 181.9076 453.729818 
L 185.904294 483.629396 
L 189.900988 481.009301 
L 193.897681 468.629851 
L 197.894377 458.925409 
L 201.891071 494.559 
L 205.887764 481.925163 
L 209.884457 467.78659 
L 213.881154 489.15276 
L 217.877847 493.08262 
L 221.874543 444.54265 
L 225.871234 468.952694 
L 229.86793 461.03896 
L 233.864626 489.343693 
L 237.861317 486.726277 
L 241.858013 488.533009 
L 245.854704 481.407088 
L 249.8514 457.366086 
L 253.848096 446.286423 
L 257.844787 468.215034 
L 261.841483 482.493136 
L 265.838179 389.259 
L 269.83487 452.877008 
L 273.83156 459.306036 
L 277.828262 400.94353 
L 281.824953 422.817798 
L 285.821643 456.264829 
L 289.818345 468.29827 
L 293.815036 446.971242 
L 297.811726 474.94486 
L 301.808428 480.879457 
L 305.805119 486.555969 
L 309.801809 485.703007 
L 313.798511 480.345514 
L 317.795202 477.890915 
L 321.791892 438.530449 
L 325.788594 477.248376 
L 329.785285 425.968274 
L 333.781975 463.297851 
L 337.778677 454.183706 
L 341.775368 484.534376 
L 345.772058 487.889922 
L 349.76876 477.828766 
L 353.765451 457.081187 
L 357.762141 484.179955 
L 361.758843 443.256992 
L 365.755534 488.322474 
L 369.752224 445.869389 
L 373.748914 476.962656 
L 377.745605 477.232051 
L 381.742319 474.619659 
L 385.739009 461.290413 
L 389.7357 486.308297 
L 393.73239 490.033216 
L 397.72908 473.413662 
L 401.725771 464.027547 
L 405.722485 475.932337 
L 409.719175 448.066125 
L 413.715866 487.636319 
L 417.712556 472.984191 
L 421.709246 476.046584 
L 425.705937 413.590332 
L 429.702627 453.02794 
L 433.699341 467.567468 
L 437.696032 451.616649 
L 441.692722 450.812524 
L 445.689412 473.197206 
L 449.686103 451.53956 
L 453.682793 432.151109 
L 457.679507 420.696008 
L 461.676198 452.121668 
L 465.672888 459.862098 
L 469.669578 478.384431 
L 473.666269 475.620235 
L 477.662959 473.93617 
L 481.659673 471.778581 
L 485.656364 433.398527 
" clip-path="url(#pc056dbaf46)" style="fill: none; stroke: #1f77b4; stroke-width: 2; stroke-linecap: square"/>
   </g>
   <g id="line2d_47">
    <path d="M 89.983636 474.759492 
L 93.980327 410.536802 
L 97.977023 469.078612 
L 101.973713 470.769604 
L 105.97041 463.411366 
L 109.967106 471.499409 
L 113.963796 414.776682 
L 117.960493 451.747012 
L 121.957186 475.986595 
L 125.953882 472.569037 
L 129.950576 459.282305 
L 133.947269 460.883072 
L 137.943962 440.54824 
L 141.940659 464.019973 
L 145.937352 480.661882 
L 149.934045 452.919519 
L 153.93074 479.524064 
L 157.927434 465.546952 
L 161.924129 486.76304 
L 165.920823 476.174182 
L 169.917517 472.981478 
L 173.914211 466.769915 
L 177.910906 452.78757 
L 181.9076 453.249739 
L 185.904294 478.954335 
L 189.900988 464.46011 
L 193.897681 485.706451 
L 197.894377 432.495058 
L 201.891071 468.700856 
L 205.887764 412.194426 
L 209.884457 477.115172 
L 213.881154 482.304712 
L 217.877847 467.745479 
L 221.874543 466.833194 
L 225.871234 465.252284 
L 229.86793 479.612882 
L 233.864626 473.934664 
L 237.861317 489.124675 
L 241.858013 476.764158 
L 245.854704 472.816391 
L 249.8514 474.540706 
L 253.848096 464.105663 
L 257.844787 473.896335 
L 261.841483 457.470492 
L 265.838179 434.800345 
L 269.83487 447.166045 
L 273.83156 415.548448 
L 277.828262 479.787694 
L 281.824953 400.660127 
L 285.821643 481.393149 
L 289.818345 478.715176 
L 293.815036 468.050839 
L 297.811726 481.086288 
L 301.808428 455.382031 
L 305.805119 479.596475 
L 309.801809 473.821465 
L 313.798511 479.198007 
L 317.795202 468.505581 
L 321.791892 478.574188 
L 325.788594 467.314426 
L 329.785285 475.285534 
L 333.781975 417.593327 
L 337.778677 445.556311 
L 341.775368 471.457177 
L 345.772058 448.510924 
L 349.76876 440.82051 
L 353.765451 445.348998 
L 357.762141 483.928939 
L 361.758843 472.006591 
L 365.755534 467.069021 
L 369.752224 451.76258 
L 373.748914 486.816117 
L 377.745605 489.870531 
L 381.742319 452.441733 
L 385.739009 473.406082 
L 389.7357 489.557586 
L 393.73239 457.768413 
L 397.72908 469.997029 
L 401.725771 457.376122 
L 405.722485 484.33069 
L 409.719175 464.452019 
L 413.715866 454.672591 
L 417.712556 460.89933 
L 421.709246 468.07553 
L 425.705937 427.006329 
L 429.702627 408.94007 
L 433.699341 474.437465 
L 437.696032 476.955731 
L 441.692722 483.785563 
L 445.689412 464.328566 
L 449.686103 450.51512 
L 453.682793 456.507168 
L 457.679507 481.383696 
L 461.676198 399.593856 
L 465.672888 474.108331 
L 469.669578 452.410186 
L 473.666269 474.40007 
L 477.662959 477.732726 
L 481.659673 489.036232 
L 485.656364 451.749302 
" clip-path="url(#pc056dbaf46)" style="fill: none; stroke: #ff7f0e; stroke-width: 2; stroke-linecap: square"/>
   </g>
   <g id="patch_15">
    <path d="M 70.2 499.824 
L 70.2 383.994 
" style="fill: none; stroke: #000000; stroke-width: 0.8; stroke-linejoin: miter; stroke-linecap: square"/>
   </g>
   <g id="patch_16">
    <path d="M 505.44 499.824 
L 505.44 383.994 
" style="fill: none; stroke: #000000; stroke-width: 0.8; stroke-linejoin: miter; stroke-linecap: square"/>
   </g>
   <g id="patch_17">
    <path d="M 70.2 499.824 
L 505.44 499.824 
" style="fill: none; stroke: #000000; stroke-width: 0.8; stroke-linejoin: miter; stroke-linecap: square"/>
   </g>
   <g id="patch_18">
    <path d="M 70.2 383.994 
L 505.44 383.994 
" style="fill: none; stroke: #000000; stroke-width: 0.8; stroke-linejoin: miter; stroke-linecap: square"/>
   </g>
   <g id="text_44">
    <!-- Panel C: evidence strength vs null -->
    <g transform="translate(185.80125 377.994) scale(0.12 -0.12)">
     <use xlink:href="#DejaVuSans-50"/>
     <use xlink:href="#DejaVuSans-61" transform="translate(55.802734 0)"/>
     <use xlink:href="#DejaVuSans-6e" transform="translate(117.082031 0)"/>
     <use xlink:href="#DejaVuSans-65" transform="translate(180.460938 0)"/>
     <use xlink:href="#DejaVuSans-6c" transform="translate(241.984375 0)"/>
     <use xlink:href="#DejaVuSans-20" transform="translate(269.767578 0)"/>
     <use xlink:href="#DejaVuSans-43" transform="translate(301.554688 0)"/>
     <use xlink:href="#DejaVuSans-3a" transform="translate(371.378906 0)"/>
     <use xlink:href="#DejaVuSans-20" transform="translate(405.070312 0)"/>
     <use xlink:href="#DejaVuSans-65" transform="translate(436.857422 0)"/>
     <use xlink:href="#DejaVuSans-76" transform="translate(498.380859 0)"/>
     <use xlink:href="#DejaVuSans-69" transform="translate(557.560547 0)"/>
     <use xlink:href="#DejaVuSans-64" transform="translate(585.34375 0)"/>
     <use xlink:href="#DejaVuSans-65" transform="translate(648.820312 0)"/>
     <use xlink:href="#DejaVuSans-6e" transform="translate(710.34375 0)"/>
     <use xlink:href="#DejaVuSans-63" transform="translate(773.722656 0)"/>
     <use xlink:href="#DejaVuSans-65" transform="translate(828.703125 0)"/>
     <use xlink:href="#DejaVuSans-20" transform="translate(890.226562 0)"/>
     <use xlink:href="#DejaVuSans-73" transform="translate(922.013672 0)"/>
     <use xlink:href="#DejaVuSans-74" transform="translate(974.113281 0)"/>
     <use xlink:href="#DejaVuSans-72" transform="translate(1013.322266 0)"/>
     <use xlink:href="#DejaVuSans-65" transform="translate(1052.185547 0)"/>
     <use xlink:href="#DejaVuSans-6e" transform="translate(1113.708984 0)"/>
     <use xlink:href="#DejaVuSans-67" transform="translate(1177.087891 0)"/>
     <use xlink:href="#DejaVuSans-74" transform="translate(1240.564453 0)"/>
     <use xlink:href="#DejaVuSans-68" transform="translate(1279.773438 0)"/>
     <use xlink:href="#DejaVuSans-20" transform="translate(1343.152344 0)"/>
     <use xlink:href="#DejaVuSans-76" transform="translate(1374.939453 0)"/>
     <use xlink:href="#DejaVuSans-73" transform="translate(1434.119141 0)"/>
     <use xlink:href="#DejaVuSans-20" transform="translate(1486.21875 0)"/>
     <use xlink:href="#DejaVuSans-6e" transform="translate(1518.005859 0)"/>
     <use xlink:href="#DejaVuSans-75" transform="translate(1581.384766 0)"/>
     <use xlink:href="#DejaVuSans-6c" transform="translate(1644.763672 0)"/>
     <use xlink:href="#DejaVuSans-6c" transform="translate(1672.546875 0)"/>
    </g>
   </g>
   <g id="legend_3">
    <g id="line2d_48">
     <path d="M 79.2 397.092438 
L 89.2 397.092438 
L 99.2 397.092438 
" style="fill: none; stroke: #1f77b4; stroke-width: 2; stroke-linecap: square"/>
    </g>
    <g id="text_45">
     <!-- z(MFEF→MLIP) -->
     <g transform="translate(107.2 400.592438) scale(0.1 -0.1)">
      <defs>
       <path id="DejaVuSans-7a" d="M 353 3500 
L 3084 3500 
L 3084 2975 
L 922 459 
L 3084 459 
L 3084 0 
L 275 0 
L 275 525 
L 2438 3041 
L 353 3041 
L 353 3500 
z
" transform="scale(0.015625)"/>
      </defs>
      <use xlink:href="#DejaVuSans-7a"/>
      <use xlink:href="#DejaVuSans-28" transform="translate(52.490234 0)"/>
      <use xlink:href="#DejaVuSans-4d" transform="translate(91.503906 0)"/>
      <use xlink:href="#DejaVuSans-46" transform="translate(177.783203 0)"/>
      <use xlink:href="#DejaVuSans-45" transform="translate(235.302734 0)"/>
      <use xlink:href="#DejaVuSans-46" transform="translate(298.486328 0)"/>
      <use xlink:href="#DejaVuSans-2192" transform="translate(356.005859 0)"/>
      <use xlink:href="#DejaVuSans-4d" transform="translate(439.794922 0)"/>
      <use xlink:href="#DejaVuSans-4c" transform="translate(526.074219 0)"/>
      <use xlink:href="#DejaVuSans-49" transform="translate(581.787109 0)"/>
      <use xlink:href="#DejaVuSans-50" transform="translate(611.279297 0)"/>
      <use xlink:href="#DejaVuSans-29" transform="translate(671.582031 0)"/>
     </g>
    </g>
    <g id="line2d_49">
     <path d="M 79.2 411.770563 
L 89.2 411.770563 
L 99.2 411.770563 
" style="fill: none; stroke: #ff7f0e; stroke-width: 2; stroke-linecap: square"/>
    </g>
    <g id="text_46">
     <!-- z(MLIP→MFEF) -->
     <g transform="translate(107.2 415.270563) scale(0.1 -0.1)">
      <use xlink:href="#DejaVuSans-7a"/>
      <use xlink:href="#DejaVuSans-28" transform="translate(52.490234 0)"/>
      <use xlink:href="#DejaVuSans-4d" transform="translate(91.503906 0)"/>
      <use xlink:href="#DejaVuSans-4c" transform="translate(177.783203 0)"/>
      <use xlink:href="#DejaVuSans-49" transform="translate(233.496094 0)"/>
      <use xlink:href="#DejaVuSans-50" transform="translate(262.988281 0)"/>
      <use xlink:href="#DejaVuSans-2192" transform="translate(323.291016 0)"/>
      <use xlink:href="#DejaVuSans-4d" transform="translate(407.080078 0)"/>
      <use xlink:href="#DejaVuSans-46" transform="translate(493.359375 0)"/>
      <use xlink:href="#DejaVuSans-45" transform="translate(550.878906 0)"/>
      <use xlink:href="#DejaVuSans-46" transform="translate(614.0625 0)"/>
      <use xlink:href="#DejaVuSans-29" transform="translate(671.582031 0)"/>
     </g>
    </g>
   </g>
  </g>
 </g>
 <defs>
  <clipPath id="pa0adb8263e">
   <rect x="70.2" y="67.392" width="435.24" height="138.996"/>
  </clipPath>
  <clipPath id="pd61ffa6da7">
   <rect x="70.2" y="237.276" width="435.24" height="115.83"/>
  </clipPath>
  <clipPath id="pc056dbaf46">
   <rect x="70.2" y="383.994" width="435.24" height="115.83"/>
  </clipPath>
 </defs>
</svg>
