<?xml version="1.0" encoding="utf-8" standalone="no"?>
<!DOCTYPE svg PUBLIC "-//W3C//DTD SVG 1.1//EN"
  "http://www.w3.org/Graphics/SVG/1.1/DTD/svg11.dtd">
<svg xmlns:xlink="http://www.w3.org/1999/xlink" width="561.6pt" height="561.6pt" viewBox="0 0 561.6 561.6" xmlns="http://www.w3.org/2000/svg" version="1.1">
 <metadata>
  <rdf:RDF xmlns:dc="http://purl.org/dc/elements/1.1/" xmlns:cc="http://creativecommons.org/ns#" xmlns:rdf="http://www.w3.org/1999/02/22-rdf-syntax-ns#">
   <cc:Work>
    <dc:type rdf:resource="http://purl.org/dc/dcmitype/StillImage"/>
    <dc:date>2025-12-08T16:01:58.184689</dc:date>
    <dc:format>image/svg+xml</dc:format>
    <dc:creator>
     <cc:Agent>
      <dc:title>Matplotlib v3.10.5, https://matplotlib.org/</dc:title>
     </cc:Agent>
    </dc:creator>
   </cc:Work>
  </rdf:RDF>
 </metadata>
 <defs>
  <style type="text/css">*{stroke-linejoin: round; stroke-linecap: butt}</style>
 </defs>
 <g id="figure_1">
  <g id="patch_1">
   <path d="M 0 561.6 
L 561.6 561.6 
L 561.6 0 
L 0 0 
z
" style="fill: #ffffff"/>
  </g>
  <g id="axes_1">
   <g id="patch_2">
    <path d="M 70.2 206.388 
L 505.44 206.388 
L 505.44 67.392 
L 70.2 67.392 
z
" style="fill: #ffffff"/>
   </g>
   <g id="FillBetweenPolyCollection_1">
    <defs>
     <path id="m1818c6b1e7" d="M 89.983636 -419.86638 
L 89.983636 -380.32713 
L 93.980327 -379.948875 
L 97.977023 -381.561505 
L 101.973713 -379.628997 
L 105.97041 -380.915754 
L 109.967106 -381.866046 
L 113.963796 -380.929914 
L 117.960493 -380.695336 
L 121.957186 -379.459912 
L 125.953882 -380.397684 
L 129.950576 -379.697049 
L 133.947269 -380.648134 
L 137.943962 -380.040533 
L 141.940659 -378.242641 
L 145.937352 -381.328725 
L 149.934045 -379.625772 
L 153.93074 -380.125247 
L 157.927434 -380.309002 
L 161.924129 -380.766171 
L 165.920823 -380.793543 
L 169.917517 -381.886593 
L 173.914211 -379.578366 
L 177.910906 -380.363537 
L 181.9076 -379.403111 
L 185.904294 -379.385014 
L 189.900988 -381.152835 
L 193.897681 -379.46751 
L 197.894377 -381.446005 
L 201.891071 -381.306102 
L 205.887764 -382.156937 
L 209.884457 -382.116295 
L 213.881154 -376.30672 
L 217.877847 -381.65391 
L 221.874543 -381.128256 
L 225.871234 -378.589477 
L 229.86793 -379.098459 
L 233.864626 -381.05546 
L 237.861317 -381.876469 
L 241.858013 -380.812581 
L 245.854704 -380.402027 
L 249.8514 -381.712212 
L 253.848096 -382.748098 
L 257.844787 -380.315756 
L 261.841483 -380.583336 
L 265.838179 -379.627145 
L 269.83487 -379.557914 
L 273.83156 -380.997167 
L 277.828262 -382.36126 
L 281.824953 -380.497884 
L 285.821643 -380.457699 
L 289.818345 -380.348471 
L 293.815036 -380.879599 
L 297.811726 -380.002895 
L 301.808428 -379.52921 
L 305.805119 -379.603346 
L 309.801809 -379.705433 
L 313.798511 -380.320742 
L 317.795202 -381.263953 
L 321.791892 -380.620458 
L 325.788594 -380.773205 
L 329.785285 -380.280575 
L 333.781975 -381.069614 
L 337.778677 -378.894187 
L 341.775368 -381.710653 
L 345.772058 -380.064562 
L 349.76876 -380.350311 
L 353.765451 -379.084169 
L 357.762141 -382.750252 
L 361.758843 -380.158579 
L 365.755534 -379.569837 
L 369.752224 -382.378742 
L 373.748914 -380.143995 
L 377.745605 -382.912537 
L 381.742319 -380.602665 
L 385.739009 -379.943415 
L 389.7357 -380.612116 
L 393.73239 -382.029615 
L 397.72908 -380.938737 
L 401.725771 -381.895943 
L 405.722485 -380.786999 
L 409.719175 -382.32316 
L 413.715866 -380.046608 
L 417.712556 -380.49713 
L 421.709246 -381.960074 
L 425.705937 -382.175287 
L 429.702627 -382.443974 
L 433.699341 -380.110711 
L 437.696032 -382.869437 
L 441.692722 -380.273784 
L 445.689412 -379.230122 
L 449.686103 -381.341865 
L 453.682793 -382.348674 
L 457.679507 -381.039481 
L 461.676198 -379.13805 
L 465.672888 -381.572361 
L 469.669578 -378.339654 
L 473.666269 -380.067727 
L 477.662959 -379.57698 
L 481.659673 -380.996465 
L 485.656364 -380.413138 
L 485.656364 -419.910193 
L 485.656364 -419.910193 
L 481.659673 -420.726702 
L 477.662959 -419.949268 
L 473.666269 -422.069395 
L 469.669578 -418.227639 
L 465.672888 -421.568703 
L 461.676198 -425.012907 
L 457.679507 -421.536715 
L 453.682793 -423.733215 
L 449.686103 -420.752662 
L 445.689412 -420.332431 
L 441.692722 -422.851018 
L 437.696032 -422.780615 
L 433.699341 -421.581585 
L 429.702627 -424.811553 
L 425.705937 -422.437488 
L 421.709246 -422.821314 
L 417.712556 -420.216849 
L 413.715866 -424.811094 
L 409.719175 -425.360791 
L 405.722485 -420.890426 
L 401.725771 -419.808387 
L 397.72908 -422.196784 
L 393.73239 -418.949423 
L 389.7357 -421.195524 
L 385.739009 -420.158411 
L 381.742319 -421.512868 
L 377.745605 -422.652001 
L 373.748914 -422.065956 
L 369.752224 -420.754455 
L 365.755534 -422.053671 
L 361.758843 -420.455019 
L 357.762141 -422.336365 
L 353.765451 -418.254026 
L 349.76876 -421.882397 
L 345.772058 -421.379957 
L 341.775368 -418.664554 
L 337.778677 -421.567386 
L 333.781975 -420.355057 
L 329.785285 -421.597175 
L 325.788594 -419.849722 
L 321.791892 -419.791709 
L 317.795202 -418.938348 
L 313.798511 -419.942794 
L 309.801809 -419.251047 
L 305.805119 -419.551705 
L 301.808428 -421.882592 
L 297.811726 -420.23165 
L 293.815036 -420.552929 
L 289.818345 -420.43594 
L 285.821643 -420.006011 
L 281.824953 -421.783776 
L 277.828262 -422.178503 
L 273.83156 -422.323434 
L 269.83487 -420.148278 
L 265.838179 -422.317746 
L 261.841483 -418.559283 
L 257.844787 -421.441741 
L 253.848096 -420.394825 
L 249.8514 -422.124051 
L 245.854704 -420.852105 
L 241.858013 -422.936264 
L 237.861317 -424.603728 
L 233.864626 -423.139146 
L 229.86793 -420.927879 
L 225.871234 -420.1279 
L 221.874543 -421.107214 
L 217.877847 -421.125163 
L 213.881154 -428.098865 
L 209.884457 -422.277641 
L 205.887764 -420.766832 
L 201.891071 -425.880295 
L 197.894377 -420.980639 
L 193.897681 -418.7353 
L 189.900988 -424.149539 
L 185.904294 -420.578072 
L 181.9076 -419.398001 
L 177.910906 -422.79832 
L 173.914211 -421.720691 
L 169.917517 -421.844717 
L 165.920823 -420.913228 
L 161.924129 -420.619508 
L 157.927434 -421.46187 
L 153.93074 -422.709059 
L 149.934045 -420.246554 
L 145.937352 -422.96542 
L 141.940659 -425.836446 
L 137.943962 -420.355102 
L 133.947269 -422.799993 
L 129.950576 -419.099042 
L 125.953882 -421.545365 
L 121.957186 -420.755251 
L 117.960493 -420.389968 
L 113.963796 -422.027265 
L 109.967106 -420.476872 
L 105.97041 -420.73465 
L 101.973713 -422.366497 
L 97.977023 -421.671028 
L 93.980327 -417.98647 
L 89.983636 -419.86638 
z
"/>
    </defs>
    <g clip-path="url(#pce73d5bef5)">
     <use xlink:href="#m1818c6b1e7" x="0" y="561.6" style="fill: #1f77b4; fill-opacity: 0.15"/>
    </g>
   </g>
   <g id="FillBetweenPolyCollection_2">
    <defs>
     <path id="med26ad3f41" d="M 89.983636 -422.249095 
L 89.983636 -383.575323 
L 93.980327 -380.594174 
L 97.977023 -382.995402 
L 101.973713 -382.172592 
L 105.97041 -381.911561 
L 109.967106 -382.393603 
L 113.963796 -380.166432 
L 117.960493 -381.616153 
L 121.957186 -381.09239 
L 125.953882 -371.115709 
L 129.950576 -380.219536 
L 133.947269 -382.373703 
L 137.943962 -380.493763 
L 141.940659 -381.591146 
L 145.937352 -378.106519 
L 149.934045 -381.490669 
L 153.93074 -381.334332 
L 157.927434 -381.337132 
L 161.924129 -380.286177 
L 165.920823 -381.74473 
L 169.917517 -379.99068 
L 173.914211 -380.970046 
L 177.910906 -381.261425 
L 181.9076 -382.601481 
L 185.904294 -381.066722 
L 189.900988 -380.145614 
L 193.897681 -381.973358 
L 197.894377 -377.381295 
L 201.891071 -380.538634 
L 205.887764 -380.724563 
L 209.884457 -381.341179 
L 213.881154 -382.591733 
L 217.877847 -379.828115 
L 221.874543 -379.695802 
L 225.871234 -381.416616 
L 229.86793 -383.103647 
L 233.864626 -381.384558 
L 237.861317 -380.658553 
L 241.858013 -381.618273 
L 245.854704 -381.273326 
L 249.8514 -381.874046 
L 253.848096 -381.997062 
L 257.844787 -381.859572 
L 261.841483 -381.766487 
L 265.838179 -380.610098 
L 269.83487 -381.196033 
L 273.83156 -381.001712 
L 277.828262 -380.511659 
L 281.824953 -382.011175 
L 285.821643 -382.291772 
L 289.818345 -380.765054 
L 293.815036 -380.245468 
L 297.811726 -380.698274 
L 301.808428 -381.172021 
L 305.805119 -380.522973 
L 309.801809 -380.742304 
L 313.798511 -382.352921 
L 317.795202 -381.267609 
L 321.791892 -379.478537 
L 325.788594 -379.628893 
L 329.785285 -380.907211 
L 333.781975 -381.540809 
L 337.778677 -381.391258 
L 341.775368 -378.830031 
L 345.772058 -382.560906 
L 349.76876 -381.266804 
L 353.765451 -381.440658 
L 357.762141 -380.25442 
L 361.758843 -381.050256 
L 365.755534 -381.472495 
L 369.752224 -381.750969 
L 373.748914 -383.923564 
L 377.745605 -381.771527 
L 381.742319 -381.805928 
L 385.739009 -379.688648 
L 389.7357 -383.013005 
L 393.73239 -380.332322 
L 397.72908 -380.809299 
L 401.725771 -380.379923 
L 405.722485 -381.052479 
L 409.719175 -379.540427 
L 413.715866 -380.524252 
L 417.712556 -382.416002 
L 421.709246 -381.469713 
L 425.705937 -382.536718 
L 429.702627 -379.482431 
L 433.699341 -381.599566 
L 437.696032 -382.564427 
L 441.692722 -382.333178 
L 445.689412 -379.609597 
L 449.686103 -382.173595 
L 453.682793 -380.786686 
L 457.679507 -382.673148 
L 461.676198 -380.590844 
L 465.672888 -381.985678 
L 469.669578 -380.307065 
L 473.666269 -379.157016 
L 477.662959 -381.950887 
L 481.659673 -382.877487 
L 485.656364 -381.455798 
L 485.656364 -420.000971 
L 485.656364 -420.000971 
L 481.659673 -422.57248 
L 477.662959 -421.621937 
L 473.666269 -420.678244 
L 469.669578 -420.430899 
L 465.672888 -422.931441 
L 461.676198 -422.914085 
L 457.679507 -419.241515 
L 453.682793 -421.247787 
L 449.686103 -422.43826 
L 445.689412 -421.653406 
L 441.692722 -422.64651 
L 437.696032 -421.102459 
L 433.699341 -421.552438 
L 429.702627 -419.855739 
L 425.705937 -422.234518 
L 421.709246 -421.975956 
L 417.712556 -422.405911 
L 413.715866 -422.681155 
L 409.719175 -419.224572 
L 405.722485 -422.613445 
L 401.725771 -421.712621 
L 397.72908 -421.5777 
L 393.73239 -418.422742 
L 389.7357 -421.316102 
L 385.739009 -417.961725 
L 381.742319 -422.745788 
L 377.745605 -420.793549 
L 373.748914 -421.402851 
L 369.752224 -419.888334 
L 365.755534 -422.109298 
L 361.758843 -421.542391 
L 357.762141 -420.260119 
L 353.765451 -420.494889 
L 349.76876 -421.619614 
L 345.772058 -422.746802 
L 341.775368 -418.482438 
L 337.778677 -420.176033 
L 333.781975 -418.391351 
L 329.785285 -421.120597 
L 325.788594 -421.907383 
L 321.791892 -418.067247 
L 317.795202 -418.701164 
L 313.798511 -422.670303 
L 309.801809 -420.064396 
L 305.805119 -419.722889 
L 301.808428 -422.390112 
L 297.811726 -420.892959 
L 293.815036 -420.412598 
L 289.818345 -420.68474 
L 285.821643 -422.257387 
L 281.824953 -420.3095 
L 277.828262 -420.153008 
L 273.83156 -421.433972 
L 269.83487 -422.509814 
L 265.838179 -420.43653 
L 261.841483 -420.670401 
L 257.844787 -420.95297 
L 253.848096 -421.594595 
L 249.8514 -420.852961 
L 245.854704 -420.391585 
L 241.858013 -421.883306 
L 237.861317 -422.704249 
L 233.864626 -419.034938 
L 229.86793 -424.326763 
L 225.871234 -419.074985 
L 221.874543 -418.825727 
L 217.877847 -419.638758 
L 213.881154 -422.28306 
L 209.884457 -422.086925 
L 205.887764 -421.431582 
L 201.891071 -419.884294 
L 197.894377 -424.903767 
L 193.897681 -422.885237 
L 189.900988 -420.650281 
L 185.904294 -419.575455 
L 181.9076 -420.436591 
L 177.910906 -421.292115 
L 173.914211 -422.812935 
L 169.917517 -419.932879 
L 165.920823 -421.838375 
L 161.924129 -420.565889 
L 157.927434 -421.984716 
L 153.93074 -419.12997 
L 149.934045 -420.291955 
L 145.937352 -426.329283 
L 141.940659 -420.796258 
L 137.943962 -422.619497 
L 133.947269 -421.86609 
L 129.950576 -421.79166 
L 125.953882 -431.881358 
L 121.957186 -420.125195 
L 117.960493 -420.788657 
L 113.963796 -420.031757 
L 109.967106 -422.402669 
L 105.97041 -420.904816 
L 101.973713 -422.277797 
L 97.977023 -423.76586 
L 93.980327 -421.06186 
L 89.983636 -422.249095 
z
"/>
    </defs>
    <g clip-path="url(#pce73d5bef5)">
     <use xlink:href="#med26ad3f41" x="0" y="561.6" style="fill: #ff7f0e; fill-opacity: 0.15"/>
    </g>
   </g>
   <g id="matplotlib.axis_1">
    <g id="xtick_1">
     <g id="line2d_1">
      <defs>
       <path id="m05d8c32e8c" d="M 0 0 
L 0 3.5 
" style="stroke: #000000; stroke-width: 0.8"/>
      </defs>
      <g>
       <use xlink:href="#m05d8c32e8c" x="87.985286" y="206.388" style="stroke: #000000; stroke-width: 0.8"/>
      </g>
     </g>
     <g id="text_1">
      <!-- −200 -->
      <g transform="translate(74.251693 220.986437) scale(0.1 -0.1)">
       <defs>
        <path id="DejaVuSans-2212" d="M 678 2272 
L 4684 2272 
L 4684 1741 
L 678 1741 
L 678 2272 
z
" transform="scale(0.015625)"/>
        <path id="DejaVuSans-32" d="M 1228 531 
L 3431 531 
L 3431 0 
L 469 0 
L 469 531 
Q 828 903 1448 1529 
Q 2069 2156 2228 2338 
Q 2531 2678 2651 2914 
Q 2772 3150 2772 3378 
Q 2772 3750 2511 3984 
Q 2250 4219 1831 4219 
Q 1534 4219 1204 4116 
Q 875 4013 500 3803 
L 500 4441 
Q 881 4594 1212 4672 
Q 1544 4750 1819 4750 
Q 2544 4750 2975 4387 
Q 3406 4025 3406 3419 
Q 3406 3131 3298 2873 
Q 3191 2616 2906 2266 
Q 2828 2175 2409 1742 
Q 1991 1309 1228 531 
z
" transform="scale(0.015625)"/>
        <path id="DejaVuSans-30" d="M 2034 4250 
Q 1547 4250 1301 3770 
Q 1056 3291 1056 2328 
Q 1056 1369 1301 889 
Q 1547 409 2034 409 
Q 2525 409 2770 889 
Q 3016 1369 3016 2328 
Q 3016 3291 2770 3770 
Q 2525 4250 2034 4250 
z
M 2034 4750 
Q 2819 4750 3233 4129 
Q 3647 3509 3647 2328 
Q 3647 1150 3233 529 
Q 2819 -91 2034 -91 
Q 1250 -91 836 529 
Q 422 1150 422 2328 
Q 422 3509 836 4129 
Q 1250 4750 2034 4750 
z
" transform="scale(0.015625)"/>
       </defs>
       <use xlink:href="#DejaVuSans-2212"/>
       <use xlink:href="#DejaVuSans-32" transform="translate(83.789062 0)"/>
       <use xlink:href="#DejaVuSans-30" transform="translate(147.412109 0)"/>
       <use xlink:href="#DejaVuSans-30" transform="translate(211.035156 0)"/>
      </g>
     </g>
    </g>
    <g id="xtick_2">
     <g id="line2d_2">
      <g>
       <use xlink:href="#m05d8c32e8c" x="167.91917" y="206.388" style="stroke: #000000; stroke-width: 0.8"/>
      </g>
     </g>
     <g id="text_2">
      <!-- 0 -->
      <g transform="translate(164.73792 220.986437) scale(0.1 -0.1)">
       <use xlink:href="#DejaVuSans-30"/>
      </g>
     </g>
    </g>
    <g id="xtick_3">
     <g id="line2d_3">
      <g>
       <use xlink:href="#m05d8c32e8c" x="247.853053" y="206.388" style="stroke: #000000; stroke-width: 0.8"/>
      </g>
     </g>
     <g id="text_3">
      <!-- 200 -->
      <g transform="translate(238.309303 220.986437) scale(0.1 -0.1)">
       <use xlink:href="#DejaVuSans-32"/>
       <use xlink:href="#DejaVuSans-30" transform="translate(63.623047 0)"/>
       <use xlink:href="#DejaVuSans-30" transform="translate(127.246094 0)"/>
      </g>
     </g>
    </g>
    <g id="xtick_4">
     <g id="line2d_4">
      <g>
       <use xlink:href="#m05d8c32e8c" x="327.786937" y="206.388" style="stroke: #000000; stroke-width: 0.8"/>
      </g>
     </g>
     <g id="text_4">
      <!-- 400 -->
      <g transform="translate(318.243187 220.986437) scale(0.1 -0.1)">
       <defs>
        <path id="DejaVuSans-34" d="M 2419 4116 
L 825 1625 
L 2419 1625 
L 2419 4116 
z
M 2253 4666 
L 3047 4666 
L 3047 1625 
L 3713 1625 
L 3713 1100 
L 3047 1100 
L 3047 0 
L 2419 0 
L 2419 1100 
L 313 1100 
L 313 1709 
L 2253 4666 
z
" transform="scale(0.015625)"/>
       </defs>
       <use xlink:href="#DejaVuSans-34"/>
       <use xlink:href="#DejaVuSans-30" transform="translate(63.623047 0)"/>
       <use xlink:href="#DejaVuSans-30" transform="translate(127.246094 0)"/>
      </g>
     </g>
    </g>
    <g id="xtick_5">
     <g id="line2d_5">
      <g>
       <use xlink:href="#m05d8c32e8c" x="407.720821" y="206.388" style="stroke: #000000; stroke-width: 0.8"/>
      </g>
     </g>
     <g id="text_5">
      <!-- 600 -->
      <g transform="translate(398.177071 220.986437) scale(0.1 -0.1)">
       <defs>
        <path id="DejaVuSans-36" d="M 2113 2584 
Q 1688 2584 1439 2293 
Q 1191 2003 1191 1497 
Q 1191 994 1439 701 
Q 1688 409 2113 409 
Q 2538 409 2786 701 
Q 3034 994 3034 1497 
Q 3034 2003 2786 2293 
Q 2538 2584 2113 2584 
z
M 3366 4563 
L 3366 3988 
Q 3128 4100 2886 4159 
Q 2644 4219 2406 4219 
Q 1781 4219 1451 3797 
Q 1122 3375 1075 2522 
Q 1259 2794 1537 2939 
Q 1816 3084 2150 3084 
Q 2853 3084 3261 2657 
Q 3669 2231 3669 1497 
Q 3669 778 3244 343 
Q 2819 -91 2113 -91 
Q 1303 -91 875 529 
Q 447 1150 447 2328 
Q 447 3434 972 4092 
Q 1497 4750 2381 4750 
Q 2619 4750 2861 4703 
Q 3103 4656 3366 4563 
z
" transform="scale(0.015625)"/>
       </defs>
       <use xlink:href="#DejaVuSans-36"/>
       <use xlink:href="#DejaVuSans-30" transform="translate(63.623047 0)"/>
       <use xlink:href="#DejaVuSans-30" transform="translate(127.246094 0)"/>
      </g>
     </g>
    </g>
    <g id="xtick_6">
     <g id="line2d_6">
      <g>
       <use xlink:href="#m05d8c32e8c" x="487.654704" y="206.388" style="stroke: #000000; stroke-width: 0.8"/>
      </g>
     </g>
     <g id="text_6">
      <!-- 800 -->
      <g transform="translate(478.110954 220.986437) scale(0.1 -0.1)">
       <defs>
        <path id="DejaVuSans-38" d="M 2034 2216 
Q 1584 2216 1326 1975 
Q 1069 1734 1069 1313 
Q 1069 891 1326 650 
Q 1584 409 2034 409 
Q 2484 409 2743 651 
Q 3003 894 3003 1313 
Q 3003 1734 2745 1975 
Q 2488 2216 2034 2216 
z
M 1403 2484 
Q 997 2584 770 2862 
Q 544 3141 544 3541 
Q 544 4100 942 4425 
Q 1341 4750 2034 4750 
Q 2731 4750 3128 4425 
Q 3525 4100 3525 3541 
Q 3525 3141 3298 2862 
Q 3072 2584 2669 2484 
Q 3125 2378 3379 2068 
Q 3634 1759 3634 1313 
Q 3634 634 3220 271 
Q 2806 -91 2034 -91 
Q 1263 -91 848 271 
Q 434 634 434 1313 
Q 434 1759 690 2068 
Q 947 2378 1403 2484 
z
M 1172 3481 
Q 1172 3119 1398 2916 
Q 1625 2713 2034 2713 
Q 2441 2713 2670 2916 
Q 2900 3119 2900 3481 
Q 2900 3844 2670 4047 
Q 2441 4250 2034 4250 
Q 1625 4250 1398 4047 
Q 1172 3844 1172 3481 
z
" transform="scale(0.015625)"/>
       </defs>
       <use xlink:href="#DejaVuSans-38"/>
       <use xlink:href="#DejaVuSans-30" transform="translate(63.623047 0)"/>
       <use xlink:href="#DejaVuSans-30" transform="translate(127.246094 0)"/>
      </g>
     </g>
    </g>
   </g>
   <g id="matplotlib.axis_2">
    <g id="ytick_1">
     <g id="line2d_7">
      <defs>
       <path id="me9243bbcbb" d="M 0 0 
L -3.5 0 
" style="stroke: #000000; stroke-width: 0.8"/>
      </defs>
      <g>
       <use xlink:href="#me9243bbcbb" x="70.2" y="201.878686" style="stroke: #000000; stroke-width: 0.8"/>
      </g>
     </g>
     <g id="text_7">
      <!-- 10 -->
      <g transform="translate(50.475 205.677905) scale(0.1 -0.1)">
       <defs>
        <path id="DejaVuSans-31" d="M 794 531 
L 1825 531 
L 1825 4091 
L 703 3866 
L 703 4441 
L 1819 4666 
L 2450 4666 
L 2450 531 
L 3481 531 
L 3481 0 
L 794 0 
L 794 531 
z
" transform="scale(0.015625)"/>
       </defs>
       <use xlink:href="#DejaVuSans-31"/>
       <use xlink:href="#DejaVuSans-30" transform="translate(63.623047 0)"/>
      </g>
     </g>
    </g>
    <g id="ytick_2">
     <g id="line2d_8">
      <g>
       <use xlink:href="#me9243bbcbb" x="70.2" y="160.44556" style="stroke: #000000; stroke-width: 0.8"/>
      </g>
     </g>
     <g id="text_8">
      <!-- 15 -->
      <g transform="translate(50.475 164.244779) scale(0.1 -0.1)">
       <defs>
        <path id="DejaVuSans-35" d="M 691 4666 
L 3169 4666 
L 3169 4134 
L 1269 4134 
L 1269 2991 
Q 1406 3038 1543 3061 
Q 1681 3084 1819 3084 
Q 2600 3084 3056 2656 
Q 3513 2228 3513 1497 
Q 3513 744 3044 326 
Q 2575 -91 1722 -91 
Q 1428 -91 1123 -41 
Q 819 9 494 109 
L 494 744 
Q 775 591 1075 516 
Q 1375 441 1709 441 
Q 2250 441 2565 725 
Q 2881 1009 2881 1497 
Q 2881 1984 2565 2268 
Q 2250 2553 1709 2553 
Q 1456 2553 1204 2497 
Q 953 2441 691 2322 
L 691 4666 
z
" transform="scale(0.015625)"/>
       </defs>
       <use xlink:href="#DejaVuSans-31"/>
       <use xlink:href="#DejaVuSans-35" transform="translate(63.623047 0)"/>
      </g>
     </g>
    </g>
    <g id="ytick_3">
     <g id="line2d_9">
      <g>
       <use xlink:href="#me9243bbcbb" x="70.2" y="119.012435" style="stroke: #000000; stroke-width: 0.8"/>
      </g>
     </g>
     <g id="text_9">
      <!-- 20 -->
      <g transform="translate(50.475 122.811654) scale(0.1 -0.1)">
       <use xlink:href="#DejaVuSans-32"/>
       <use xlink:href="#DejaVuSans-30" transform="translate(63.623047 0)"/>
      </g>
     </g>
    </g>
    <g id="ytick_4">
     <g id="line2d_10">
      <g>
       <use xlink:href="#me9243bbcbb" x="70.2" y="77.579309" style="stroke: #000000; stroke-width: 0.8"/>
      </g>
     </g>
     <g id="text_10">
      <!-- 25 -->
      <g transform="translate(50.475 81.378528) scale(0.1 -0.1)">
       <use xlink:href="#DejaVuSans-32"/>
       <use xlink:href="#DejaVuSans-35" transform="translate(63.623047 0)"/>
      </g>
     </g>
    </g>
    <g id="text_11">
     <!-- ΔLL (bits) -->
     <g transform="translate(44.395313 160.500937) rotate(-90) scale(0.1 -0.1)">
      <defs>
       <path id="DejaVuSans-394" d="M 2188 4044 
L 906 525 
L 3472 525 
L 2188 4044 
z
M 50 0 
L 1831 4666 
L 2547 4666 
L 4325 0 
L 50 0 
z
" transform="scale(0.015625)"/>
       <path id="DejaVuSans-4c" d="M 628 4666 
L 1259 4666 
L 1259 531 
L 3531 531 
L 3531 0 
L 628 0 
L 628 4666 
z
" transform="scale(0.015625)"/>
       <path id="DejaVuSans-20" transform="scale(0.015625)"/>
       <path id="DejaVuSans-28" d="M 1984 4856 
Q 1566 4138 1362 3434 
Q 1159 2731 1159 2009 
Q 1159 1288 1364 580 
Q 1569 -128 1984 -844 
L 1484 -844 
Q 1016 -109 783 600 
Q 550 1309 550 2009 
Q 550 2706 781 3412 
Q 1013 4119 1484 4856 
L 1984 4856 
z
" transform="scale(0.015625)"/>
       <path id="DejaVuSans-62" d="M 3116 1747 
Q 3116 2381 2855 2742 
Q 2594 3103 2138 3103 
Q 1681 3103 1420 2742 
Q 1159 2381 1159 1747 
Q 1159 1113 1420 752 
Q 1681 391 2138 391 
Q 2594 391 2855 752 
Q 3116 1113 3116 1747 
z
M 1159 2969 
Q 1341 3281 1617 3432 
Q 1894 3584 2278 3584 
Q 2916 3584 3314 3078 
Q 3713 2572 3713 1747 
Q 3713 922 3314 415 
Q 2916 -91 2278 -91 
Q 1894 -91 1617 61 
Q 1341 213 1159 525 
L 1159 0 
L 581 0 
L 581 4863 
L 1159 4863 
L 1159 2969 
z
" transform="scale(0.015625)"/>
       <path id="DejaVuSans-69" d="M 603 3500 
L 1178 3500 
L 1178 0 
L 603 0 
L 603 3500 
z
M 603 4863 
L 1178 4863 
L 1178 4134 
L 603 4134 
L 603 4863 
z
" transform="scale(0.015625)"/>
       <path id="DejaVuSans-74" d="M 1172 4494 
L 1172 3500 
L 2356 3500 
L 2356 3053 
L 1172 3053 
L 1172 1153 
Q 1172 725 1289 603 
Q 1406 481 1766 481 
L 2356 481 
L 2356 0 
L 1766 0 
Q 1100 0 847 248 
Q 594 497 594 1153 
L 594 3053 
L 172 3053 
L 172 3500 
L 594 3500 
L 594 4494 
L 1172 4494 
z
" transform="scale(0.015625)"/>
       <path id="DejaVuSans-73" d="M 2834 3397 
L 2834 2853 
Q 2591 2978 2328 3040 
Q 2066 3103 1784 3103 
Q 1356 3103 1142 2972 
Q 928 2841 928 2578 
Q 928 2378 1081 2264 
Q 1234 2150 1697 2047 
L 1894 2003 
Q 2506 1872 2764 1633 
Q 3022 1394 3022 966 
Q 3022 478 2636 193 
Q 2250 -91 1575 -91 
Q 1294 -91 989 -36 
Q 684 19 347 128 
L 347 722 
Q 666 556 975 473 
Q 1284 391 1588 391 
Q 1994 391 2212 530 
Q 2431 669 2431 922 
Q 2431 1156 2273 1281 
Q 2116 1406 1581 1522 
L 1381 1569 
Q 847 1681 609 1914 
Q 372 2147 372 2553 
Q 372 3047 722 3315 
Q 1072 3584 1716 3584 
Q 2034 3584 2315 3537 
Q 2597 3491 2834 3397 
z
" transform="scale(0.015625)"/>
       <path id="DejaVuSans-29" d="M 513 4856 
L 1013 4856 
Q 1481 4119 1714 3412 
Q 1947 2706 1947 2009 
Q 1947 1309 1714 600 
Q 1481 -109 1013 -844 
L 513 -844 
Q 928 -128 1133 580 
Q 1338 1288 1338 2009 
Q 1338 2731 1133 3434 
Q 928 4138 513 4856 
z
" transform="scale(0.015625)"/>
      </defs>
      <use xlink:href="#DejaVuSans-394"/>
      <use xlink:href="#DejaVuSans-4c" transform="translate(68.408203 0)"/>
      <use xlink:href="#DejaVuSans-4c" transform="translate(124.121094 0)"/>
      <use xlink:href="#DejaVuSans-20" transform="translate(179.833984 0)"/>
      <use xlink:href="#DejaVuSans-28" transform="translate(211.621094 0)"/>
      <use xlink:href="#DejaVuSans-62" transform="translate(250.634766 0)"/>
      <use xlink:href="#DejaVuSans-69" transform="translate(314.111328 0)"/>
      <use xlink:href="#DejaVuSans-74" transform="translate(341.894531 0)"/>
      <use xlink:href="#DejaVuSans-73" transform="translate(381.103516 0)"/>
      <use xlink:href="#DejaVuSans-29" transform="translate(433.203125 0)"/>
     </g>
    </g>
   </g>
   <g id="line2d_11">
    <path d="M 167.91917 206.388 
L 167.91917 67.392 
" clip-path="url(#pce73d5bef5)" style="fill: none; stroke-dasharray: 2.96,1.28; stroke-dashoffset: 0; stroke: #000000; stroke-width: 0.8"/>
   </g>
   <g id="line2d_12">
    <path d="M 89.983636 161.503245 
L 93.980327 162.632327 
L 97.977023 159.983734 
L 101.973713 160.602253 
L 105.97041 160.774798 
L 109.967106 160.428541 
L 113.963796 160.121411 
L 117.960493 161.057348 
L 121.957186 161.492418 
L 125.953882 160.628476 
L 129.950576 162.201954 
L 133.947269 159.875937 
L 137.943962 161.402182 
L 141.940659 159.560457 
L 145.937352 159.452927 
L 149.934045 161.663837 
L 153.93074 160.182847 
L 157.927434 160.714564 
L 161.924129 160.907161 
L 165.920823 160.746614 
L 169.917517 159.734345 
L 173.914211 160.950472 
L 177.910906 160.019072 
L 181.9076 162.199444 
L 185.904294 161.618457 
L 189.900988 158.948813 
L 193.897681 162.498595 
L 197.894377 160.386678 
L 201.891071 158.006801 
L 205.887764 160.138116 
L 209.884457 159.403032 
L 213.881154 159.397208 
L 217.877847 160.210464 
L 221.874543 160.482265 
L 225.871234 162.241312 
L 229.86793 161.586831 
L 233.864626 159.502697 
L 237.861317 158.359902 
L 241.858013 159.725578 
L 245.854704 160.972934 
L 249.8514 159.681869 
L 253.848096 160.028538 
L 257.844787 160.721251 
L 261.841483 162.02869 
L 265.838179 160.627554 
L 269.83487 161.746904 
L 273.83156 159.9397 
L 277.828262 159.330118 
L 281.824953 160.45917 
L 285.821643 161.368145 
L 289.818345 161.207794 
L 293.815036 160.883736 
L 297.811726 161.482728 
L 301.808428 160.894099 
L 305.805119 162.022475 
L 309.801809 162.12176 
L 313.798511 161.468232 
L 317.795202 161.49885 
L 321.791892 161.393916 
L 325.788594 161.288537 
L 329.785285 160.661125 
L 333.781975 160.887664 
L 337.778677 161.369213 
L 341.775368 161.412396 
L 345.772058 160.87774 
L 349.76876 160.483646 
L 353.765451 162.930903 
L 357.762141 159.056691 
L 361.758843 161.293201 
L 365.755534 160.788246 
L 369.752224 160.033402 
L 373.748914 160.495024 
L 377.745605 158.817731 
L 381.742319 160.542234 
L 385.739009 161.549087 
L 389.7357 160.69618 
L 393.73239 161.110481 
L 397.72908 160.03224 
L 401.725771 160.747835 
L 405.722485 160.761287 
L 409.719175 157.758024 
L 413.715866 159.171149 
L 417.712556 161.243011 
L 421.709246 159.209306 
L 425.705937 159.293613 
L 429.702627 157.972237 
L 433.699341 160.753852 
L 437.696032 158.774974 
L 441.692722 160.037599 
L 445.689412 161.818724 
L 449.686103 160.552737 
L 453.682793 158.559056 
L 457.679507 160.311902 
L 461.676198 159.524522 
L 465.672888 160.029468 
L 469.669578 163.316354 
L 473.666269 160.531439 
L 477.662959 161.836876 
L 481.659673 160.738416 
L 485.656364 161.438334 
" clip-path="url(#pce73d5bef5)" style="fill: none; stroke-dasharray: 1,1.65; stroke-dashoffset: 0; stroke: #1f77b4"/>
   </g>
   <g id="line2d_13">
    <path d="M 89.983636 158.687791 
L 93.980327 160.771983 
L 97.977023 158.219369 
L 101.973713 159.374806 
L 105.97041 160.191812 
L 109.967106 159.201864 
L 113.963796 161.500905 
L 117.960493 160.397595 
L 121.957186 160.991208 
L 125.953882 160.101466 
L 129.950576 160.594402 
L 133.947269 159.480103 
L 137.943962 160.04337 
L 141.940659 160.406298 
L 145.937352 159.382099 
L 149.934045 160.708688 
L 153.93074 161.367849 
L 157.927434 159.939076 
L 161.924129 161.173967 
L 165.920823 159.808448 
L 169.917517 161.638221 
L 173.914211 159.708509 
L 177.910906 160.32323 
L 181.9076 160.080964 
L 185.904294 161.278912 
L 189.900988 161.202053 
L 193.897681 159.170703 
L 197.894377 160.457469 
L 201.891071 161.388536 
L 205.887764 160.521927 
L 209.884457 159.885948 
L 213.881154 159.162603 
L 217.877847 161.866563 
L 221.874543 162.339236 
L 225.871234 161.3542 
L 229.86793 157.884795 
L 233.864626 161.390252 
L 237.861317 159.918599 
L 241.858013 159.84921 
L 245.854704 160.767544 
L 249.8514 160.236497 
L 253.848096 159.804172 
L 257.844787 160.193729 
L 261.841483 160.381556 
L 265.838179 161.076686 
L 269.83487 159.747076 
L 273.83156 160.382158 
L 277.828262 161.267667 
L 281.824953 160.439663 
L 285.821643 159.325421 
L 289.818345 160.875103 
L 293.815036 161.270967 
L 297.811726 160.804384 
L 301.808428 159.818934 
L 305.805119 161.477069 
L 309.801809 161.19665 
L 313.798511 159.088388 
L 317.795202 161.615614 
L 321.791892 162.827108 
L 325.788594 160.831862 
L 329.785285 160.586096 
L 333.781975 161.63392 
L 337.778677 160.816354 
L 341.775368 162.943766 
L 345.772058 158.946146 
L 349.76876 160.156791 
L 353.765451 160.632227 
L 357.762141 161.34273 
L 361.758843 160.303676 
L 365.755534 159.809103 
L 369.752224 160.780348 
L 373.748914 158.936792 
L 377.745605 160.317462 
L 381.742319 159.324142 
L 385.739009 162.774814 
L 389.7357 159.435447 
L 393.73239 162.222468 
L 397.72908 160.406501 
L 401.725771 160.553728 
L 405.722485 159.767038 
L 409.719175 162.217501 
L 413.715866 159.997296 
L 417.712556 159.189043 
L 421.709246 159.877165 
L 425.705937 159.214382 
L 429.702627 161.930915 
L 433.699341 160.023998 
L 437.696032 159.766557 
L 441.692722 159.110156 
L 445.689412 160.968499 
L 449.686103 159.294072 
L 453.682793 160.582764 
L 457.679507 160.642669 
L 461.676198 159.847535 
L 465.672888 159.14144 
L 469.669578 161.231018 
L 473.666269 161.68237 
L 477.662959 159.813588 
L 481.659673 158.875016 
L 485.656364 160.871615 
" clip-path="url(#pce73d5bef5)" style="fill: none; stroke-dasharray: 1,1.65; stroke-dashoffset: 0; stroke: #ff7f0e"/>
   </g>
   <g id="line2d_14">
    <path d="M 89.983636 195.878391 
L 93.980327 193.946318 
L 97.977023 164.180156 
L 101.973713 166.434991 
L 105.97041 165.88168 
L 109.967106 184.656947 
L 113.963796 175.018585 
L 117.960493 153.635131 
L 121.957186 162.794707 
L 125.953882 158.230432 
L 129.950576 168.189622 
L 133.947269 150.894763 
L 137.943962 145.0204 
L 141.940659 149.539872 
L 145.937352 161.505072 
L 149.934045 138.453945 
L 153.93074 145.43611 
L 157.927434 162.090228 
L 161.924129 162.523706 
L 165.920823 132.835217 
L 169.917517 151.517524 
L 173.914211 123.831894 
L 177.910906 179.029524 
L 181.9076 193.079002 
L 185.904294 162.298719 
L 189.900988 121.545871 
L 193.897681 109.759824 
L 197.894377 181.762833 
L 201.891071 127.311968 
L 205.887764 123.302152 
L 209.884457 172.313318 
L 213.881154 141.011379 
L 217.877847 130.241119 
L 221.874543 160.380115 
L 225.871234 130.894548 
L 229.86793 130.777419 
L 233.864626 169.442613 
L 237.861317 163.393503 
L 241.858013 168.776288 
L 245.854704 173.025104 
L 249.8514 184.221987 
L 253.848096 197.265233 
L 257.844787 141.830647 
L 261.841483 159.631898 
L 265.838179 183.692691 
L 269.83487 142.248792 
L 273.83156 124.138013 
L 277.828262 140.909536 
L 281.824953 153.133377 
L 285.821643 191.187089 
L 289.818345 141.95901 
L 293.815036 185.204347 
L 297.811726 152.562745 
L 301.808428 169.70291 
L 305.805119 151.733698 
L 309.801809 178.384188 
L 313.798511 141.149116 
L 317.795202 147.405576 
L 321.791892 161.831343 
L 325.788594 126.372117 
L 329.785285 174.540921 
L 333.781975 124.242103 
L 337.778677 185.894442 
L 341.775368 184.101855 
L 345.772058 152.477149 
L 349.76876 153.107865 
L 353.765451 132.427522 
L 357.762141 117.435855 
L 361.758843 151.100042 
L 365.755534 114.265652 
L 369.752224 153.909166 
L 373.748914 157.23991 
L 377.745605 145.197168 
L 381.742319 170.369203 
L 385.739009 141.243398 
L 389.7357 155.843321 
L 393.73239 73.71 
L 397.72908 124.191745 
L 401.725771 154.760989 
L 405.722485 97.462432 
L 409.719175 119.141343 
L 413.715866 172.378204 
L 417.712556 130.945765 
L 421.709246 155.632813 
L 425.705937 172.557765 
L 429.702627 154.142791 
L 433.699341 172.122209 
L 437.696032 79.162237 
L 441.692722 152.811618 
L 445.689412 130.063987 
L 449.686103 101.561198 
L 453.682793 160.016948 
L 457.679507 178.983418 
L 461.676198 185.061585 
L 465.672888 181.602717 
L 469.669578 146.805305 
L 473.666269 156.105711 
L 477.662959 183.231441 
L 481.659673 153.438189 
L 485.656364 196.045495 
" clip-path="url(#pce73d5bef5)" style="fill: none; stroke: #1f77b4; stroke-width: 2.2; stroke-linecap: square"/>
   </g>
   <g id="line2d_15">
    <path d="M 89.983636 150.668432 
L 93.980327 175.784017 
L 97.977023 116.736512 
L 101.973713 181.297725 
L 105.97041 159.020923 
L 109.967106 132.713547 
L 113.963796 147.814631 
L 117.960493 148.105467 
L 121.957186 178.05316 
L 125.953882 94.707167 
L 129.950576 174.46485 
L 133.947269 186.778836 
L 137.943962 107.399035 
L 141.940659 167.27651 
L 145.937352 167.130339 
L 149.934045 172.876718 
L 153.93074 168.967525 
L 157.927434 172.734134 
L 161.924129 177.659632 
L 165.920823 154.848088 
L 169.917517 189.393789 
L 173.914211 163.629683 
L 177.910906 174.481179 
L 181.9076 149.831934 
L 185.904294 153.440497 
L 189.900988 155.067305 
L 193.897681 133.572492 
L 197.894377 132.768611 
L 201.891071 174.351353 
L 205.887764 135.844822 
L 209.884457 166.75078 
L 213.881154 138.390048 
L 217.877847 200.07 
L 221.874543 155.197958 
L 225.871234 167.047206 
L 229.86793 124.325062 
L 233.864626 159.068827 
L 237.861317 188.385191 
L 241.858013 158.844649 
L 245.854704 163.544019 
L 249.8514 127.172826 
L 253.848096 140.377383 
L 257.844787 178.506669 
L 261.841483 135.875815 
L 265.838179 184.721438 
L 269.83487 150.856459 
L 273.83156 109.024881 
L 277.828262 176.688162 
L 281.824953 185.742851 
L 285.821643 139.270609 
L 289.818345 169.897325 
L 293.815036 159.934858 
L 297.811726 156.338736 
L 301.808428 169.801499 
L 305.805119 163.709235 
L 309.801809 144.507536 
L 313.798511 143.457474 
L 317.795202 159.467349 
L 321.791892 149.544137 
L 325.788594 140.377738 
L 329.785285 174.051622 
L 333.781975 143.034758 
L 337.778677 182.071713 
L 341.775368 152.268644 
L 345.772058 162.396654 
L 349.76876 94.230237 
L 353.765451 141.59015 
L 357.762141 115.426198 
L 361.758843 120.799644 
L 365.755534 145.863314 
L 369.752224 133.272094 
L 373.748914 137.583345 
L 377.745605 162.83242 
L 381.742319 144.284359 
L 385.739009 175.48766 
L 389.7357 96.139169 
L 393.73239 131.056511 
L 397.72908 166.763588 
L 401.725771 149.118021 
L 405.722485 175.699258 
L 409.719175 161.899369 
L 413.715866 108.506271 
L 417.712556 144.509354 
L 421.709246 141.380881 
L 425.705937 174.151159 
L 429.702627 121.492249 
L 433.699341 106.959508 
L 437.696032 128.096608 
L 441.692722 154.862127 
L 445.689412 150.910536 
L 449.686103 142.249055 
L 453.682793 188.444031 
L 457.679507 162.875887 
L 461.676198 196.354427 
L 465.672888 167.436421 
L 469.669578 172.553138 
L 473.666269 136.979384 
L 477.662959 113.265989 
L 481.659673 143.186594 
L 485.656364 161.821422 
" clip-path="url(#pce73d5bef5)" style="fill: none; stroke: #ff7f0e; stroke-width: 2.2; stroke-linecap: square"/>
   </g>
   <g id="patch_3">
    <path d="M 70.2 206.388 
L 70.2 67.392 
" style="fill: none; stroke: #000000; stroke-width: 0.8; stroke-linejoin: miter; stroke-linecap: square"/>
   </g>
   <g id="patch_4">
    <path d="M 505.44 206.388 
L 505.44 67.392 
" style="fill: none; stroke: #000000; stroke-width: 0.8; stroke-linejoin: miter; stroke-linecap: square"/>
   </g>
   <g id="patch_5">
    <path d="M 70.2 206.388 
L 505.44 206.388 
" style="fill: none; stroke: #000000; stroke-width: 0.8; stroke-linejoin: miter; stroke-linecap: square"/>
   </g>
   <g id="patch_6">
    <path d="M 70.2 67.392 
L 505.44 67.392 
" style="fill: none; stroke: #000000; stroke-width: 0.8; stroke-linejoin: miter; stroke-linecap: square"/>
   </g>
   <g id="text_12">
    <!-- (SFEF vs SSC) — R-flow — Panel A: overlay + null bands -->
    <g transform="translate(120.0525 61.392) scale(0.12 -0.12)">
     <defs>
      <path id="DejaVuSans-53" d="M 3425 4513 
L 3425 3897 
Q 3066 4069 2747 4153 
Q 2428 4238 2131 4238 
Q 1616 4238 1336 4038 
Q 1056 3838 1056 3469 
Q 1056 3159 1242 3001 
Q 1428 2844 1947 2747 
L 2328 2669 
Q 3034 2534 3370 2195 
Q 3706 1856 3706 1288 
Q 3706 609 3251 259 
Q 2797 -91 1919 -91 
Q 1588 -91 1214 -16 
Q 841 59 441 206 
L 441 856 
Q 825 641 1194 531 
Q 1563 422 1919 422 
Q 2459 422 2753 634 
Q 3047 847 3047 1241 
Q 3047 1584 2836 1778 
Q 2625 1972 2144 2069 
L 1759 2144 
Q 1053 2284 737 2584 
Q 422 2884 422 3419 
Q 422 4038 858 4394 
Q 1294 4750 2059 4750 
Q 2388 4750 2728 4690 
Q 3069 4631 3425 4513 
z
" transform="scale(0.015625)"/>
      <path id="DejaVuSans-46" d="M 628 4666 
L 3309 4666 
L 3309 4134 
L 1259 4134 
L 1259 2759 
L 3109 2759 
L 3109 2228 
L 1259 2228 
L 1259 0 
L 628 0 
L 628 4666 
z
" transform="scale(0.015625)"/>
      <path id="DejaVuSans-45" d="M 628 4666 
L 3578 4666 
L 3578 4134 
L 1259 4134 
L 1259 2753 
L 3481 2753 
L 3481 2222 
L 1259 2222 
L 1259 531 
L 3634 531 
L 3634 0 
L 628 0 
L 628 4666 
z
" transform="scale(0.015625)"/>
      <path id="DejaVuSans-76" d="M 191 3500 
L 800 3500 
L 1894 563 
L 2988 3500 
L 3597 3500 
L 2284 0 
L 1503 0 
L 191 3500 
z
" transform="scale(0.015625)"/>
      <path id="DejaVuSans-43" d="M 4122 4306 
L 4122 3641 
Q 3803 3938 3442 4084 
Q 3081 4231 2675 4231 
Q 1875 4231 1450 3742 
Q 1025 3253 1025 2328 
Q 1025 1406 1450 917 
Q 1875 428 2675 428 
Q 3081 428 3442 575 
Q 3803 722 4122 1019 
L 4122 359 
Q 3791 134 3420 21 
Q 3050 -91 2638 -91 
Q 1578 -91 968 557 
Q 359 1206 359 2328 
Q 359 3453 968 4101 
Q 1578 4750 2638 4750 
Q 3056 4750 3426 4639 
Q 3797 4528 4122 4306 
z
" transform="scale(0.015625)"/>
      <path id="DejaVuSans-2014" d="M 313 1978 
L 6088 1978 
L 6088 1528 
L 313 1528 
L 313 1978 
z
" transform="scale(0.015625)"/>
      <path id="DejaVuSans-52" d="M 2841 2188 
Q 3044 2119 3236 1894 
Q 3428 1669 3622 1275 
L 4263 0 
L 3584 0 
L 2988 1197 
Q 2756 1666 2539 1819 
Q 2322 1972 1947 1972 
L 1259 1972 
L 1259 0 
L 628 0 
L 628 4666 
L 2053 4666 
Q 2853 4666 3247 4331 
Q 3641 3997 3641 3322 
Q 3641 2881 3436 2590 
Q 3231 2300 2841 2188 
z
M 1259 4147 
L 1259 2491 
L 2053 2491 
Q 2509 2491 2742 2702 
Q 2975 2913 2975 3322 
Q 2975 3731 2742 3939 
Q 2509 4147 2053 4147 
L 1259 4147 
z
" transform="scale(0.015625)"/>
      <path id="DejaVuSans-2d" d="M 313 2009 
L 1997 2009 
L 1997 1497 
L 313 1497 
L 313 2009 
z
" transform="scale(0.015625)"/>
      <path id="DejaVuSans-66" d="M 2375 4863 
L 2375 4384 
L 1825 4384 
Q 1516 4384 1395 4259 
Q 1275 4134 1275 3809 
L 1275 3500 
L 2222 3500 
L 2222 3053 
L 1275 3053 
L 1275 0 
L 697 0 
L 697 3053 
L 147 3053 
L 147 3500 
L 697 3500 
L 697 3744 
Q 697 4328 969 4595 
Q 1241 4863 1831 4863 
L 2375 4863 
z
" transform="scale(0.015625)"/>
      <path id="DejaVuSans-6c" d="M 603 4863 
L 1178 4863 
L 1178 0 
L 603 0 
L 603 4863 
z
" transform="scale(0.015625)"/>
      <path id="DejaVuSans-6f" d="M 1959 3097 
Q 1497 3097 1228 2736 
Q 959 2375 959 1747 
Q 959 1119 1226 758 
Q 1494 397 1959 397 
Q 2419 397 2687 759 
Q 2956 1122 2956 1747 
Q 2956 2369 2687 2733 
Q 2419 3097 1959 3097 
z
M 1959 3584 
Q 2709 3584 3137 3096 
Q 3566 2609 3566 1747 
Q 3566 888 3137 398 
Q 2709 -91 1959 -91 
Q 1206 -91 779 398 
Q 353 888 353 1747 
Q 353 2609 779 3096 
Q 1206 3584 1959 3584 
z
" transform="scale(0.015625)"/>
      <path id="DejaVuSans-77" d="M 269 3500 
L 844 3500 
L 1563 769 
L 2278 3500 
L 2956 3500 
L 3675 769 
L 4391 3500 
L 4966 3500 
L 4050 0 
L 3372 0 
L 2619 2869 
L 1863 0 
L 1184 0 
L 269 3500 
z
" transform="scale(0.015625)"/>
      <path id="DejaVuSans-50" d="M 1259 4147 
L 1259 2394 
L 2053 2394 
Q 2494 2394 2734 2622 
Q 2975 2850 2975 3272 
Q 2975 3691 2734 3919 
Q 2494 4147 2053 4147 
L 1259 4147 
z
M 628 4666 
L 2053 4666 
Q 2838 4666 3239 4311 
Q 3641 3956 3641 3272 
Q 3641 2581 3239 2228 
Q 2838 1875 2053 1875 
L 1259 1875 
L 1259 0 
L 628 0 
L 628 4666 
z
" transform="scale(0.015625)"/>
      <path id="DejaVuSans-61" d="M 2194 1759 
Q 1497 1759 1228 1600 
Q 959 1441 959 1056 
Q 959 750 1161 570 
Q 1363 391 1709 391 
Q 2188 391 2477 730 
Q 2766 1069 2766 1631 
L 2766 1759 
L 2194 1759 
z
M 3341 1997 
L 3341 0 
L 2766 0 
L 2766 531 
Q 2569 213 2275 61 
Q 1981 -91 1556 -91 
Q 1019 -91 701 211 
Q 384 513 384 1019 
Q 384 1609 779 1909 
Q 1175 2209 1959 2209 
L 2766 2209 
L 2766 2266 
Q 2766 2663 2505 2880 
Q 2244 3097 1772 3097 
Q 1472 3097 1187 3025 
Q 903 2953 641 2809 
L 641 3341 
Q 956 3463 1253 3523 
Q 1550 3584 1831 3584 
Q 2591 3584 2966 3190 
Q 3341 2797 3341 1997 
z
" transform="scale(0.015625)"/>
      <path id="DejaVuSans-6e" d="M 3513 2113 
L 3513 0 
L 2938 0 
L 2938 2094 
Q 2938 2591 2744 2837 
Q 2550 3084 2163 3084 
Q 1697 3084 1428 2787 
Q 1159 2491 1159 1978 
L 1159 0 
L 581 0 
L 581 3500 
L 1159 3500 
L 1159 2956 
Q 1366 3272 1645 3428 
Q 1925 3584 2291 3584 
Q 2894 3584 3203 3211 
Q 3513 2838 3513 2113 
z
" transform="scale(0.015625)"/>
      <path id="DejaVuSans-65" d="M 3597 1894 
L 3597 1613 
L 953 1613 
Q 991 1019 1311 708 
Q 1631 397 2203 397 
Q 2534 397 2845 478 
Q 3156 559 3463 722 
L 3463 178 
Q 3153 47 2828 -22 
Q 2503 -91 2169 -91 
Q 1331 -91 842 396 
Q 353 884 353 1716 
Q 353 2575 817 3079 
Q 1281 3584 2069 3584 
Q 2775 3584 3186 3129 
Q 3597 2675 3597 1894 
z
M 3022 2063 
Q 3016 2534 2758 2815 
Q 2500 3097 2075 3097 
Q 1594 3097 1305 2825 
Q 1016 2553 972 2059 
L 3022 2063 
z
" transform="scale(0.015625)"/>
      <path id="DejaVuSans-41" d="M 2188 4044 
L 1331 1722 
L 3047 1722 
L 2188 4044 
z
M 1831 4666 
L 2547 4666 
L 4325 0 
L 3669 0 
L 3244 1197 
L 1141 1197 
L 716 0 
L 50 0 
L 1831 4666 
z
" transform="scale(0.015625)"/>
      <path id="DejaVuSans-3a" d="M 750 794 
L 1409 794 
L 1409 0 
L 750 0 
L 750 794 
z
M 750 3309 
L 1409 3309 
L 1409 2516 
L 750 2516 
L 750 3309 
z
" transform="scale(0.015625)"/>
      <path id="DejaVuSans-72" d="M 2631 2963 
Q 2534 3019 2420 3045 
Q 2306 3072 2169 3072 
Q 1681 3072 1420 2755 
Q 1159 2438 1159 1844 
L 1159 0 
L 581 0 
L 581 3500 
L 1159 3500 
L 1159 2956 
Q 1341 3275 1631 3429 
Q 1922 3584 2338 3584 
Q 2397 3584 2469 3576 
Q 2541 3569 2628 3553 
L 2631 2963 
z
" transform="scale(0.015625)"/>
      <path id="DejaVuSans-79" d="M 2059 -325 
Q 1816 -950 1584 -1140 
Q 1353 -1331 966 -1331 
L 506 -1331 
L 506 -850 
L 844 -850 
Q 1081 -850 1212 -737 
Q 1344 -625 1503 -206 
L 1606 56 
L 191 3500 
L 800 3500 
L 1894 763 
L 2988 3500 
L 3597 3500 
L 2059 -325 
z
" transform="scale(0.015625)"/>
      <path id="DejaVuSans-2b" d="M 2944 4013 
L 2944 2272 
L 4684 2272 
L 4684 1741 
L 2944 1741 
L 2944 0 
L 2419 0 
L 2419 1741 
L 678 1741 
L 678 2272 
L 2419 2272 
L 2419 4013 
L 2944 4013 
z
" transform="scale(0.015625)"/>
      <path id="DejaVuSans-75" d="M 544 1381 
L 544 3500 
L 1119 3500 
L 1119 1403 
Q 1119 906 1312 657 
Q 1506 409 1894 409 
Q 2359 409 2629 706 
Q 2900 1003 2900 1516 
L 2900 3500 
L 3475 3500 
L 3475 0 
L 2900 0 
L 2900 538 
Q 2691 219 2414 64 
Q 2138 -91 1772 -91 
Q 1169 -91 856 284 
Q 544 659 544 1381 
z
M 1991 3584 
L 1991 3584 
z
" transform="scale(0.015625)"/>
      <path id="DejaVuSans-64" d="M 2906 2969 
L 2906 4863 
L 3481 4863 
L 3481 0 
L 2906 0 
L 2906 525 
Q 2725 213 2448 61 
Q 2172 -91 1784 -91 
Q 1150 -91 751 415 
Q 353 922 353 1747 
Q 353 2572 751 3078 
Q 1150 3584 1784 3584 
Q 2172 3584 2448 3432 
Q 2725 3281 2906 2969 
z
M 947 1747 
Q 947 1113 1208 752 
Q 1469 391 1925 391 
Q 2381 391 2643 752 
Q 2906 1113 2906 1747 
Q 2906 2381 2643 2742 
Q 2381 3103 1925 3103 
Q 1469 3103 1208 2742 
Q 947 2381 947 1747 
z
" transform="scale(0.015625)"/>
     </defs>
     <use xlink:href="#DejaVuSans-28"/>
     <use xlink:href="#DejaVuSans-53" transform="translate(39.013672 0)"/>
     <use xlink:href="#DejaVuSans-46" transform="translate(102.490234 0)"/>
     <use xlink:href="#DejaVuSans-45" transform="translate(160.009766 0)"/>
     <use xlink:href="#DejaVuSans-46" transform="translate(223.193359 0)"/>
     <use xlink:href="#DejaVuSans-20" transform="translate(280.712891 0)"/>
     <use xlink:href="#DejaVuSans-76" transform="translate(312.5 0)"/>
     <use xlink:href="#DejaVuSans-73" transform="translate(371.679688 0)"/>
     <use xlink:href="#DejaVuSans-20" transform="translate(423.779297 0)"/>
     <use xlink:href="#DejaVuSans-53" transform="translate(455.566406 0)"/>
     <use xlink:href="#DejaVuSans-53" transform="translate(519.042969 0)"/>
     <use xlink:href="#DejaVuSans-43" transform="translate(582.519531 0)"/>
     <use xlink:href="#DejaVuSans-29" transform="translate(652.34375 0)"/>
     <use xlink:href="#DejaVuSans-20" transform="translate(691.357422 0)"/>
     <use xlink:href="#DejaVuSans-2014" transform="translate(723.144531 0)"/>
     <use xlink:href="#DejaVuSans-20" transform="translate(823.144531 0)"/>
     <use xlink:href="#DejaVuSans-52" transform="translate(854.931641 0)"/>
     <use xlink:href="#DejaVuSans-2d" transform="translate(920.414062 0)"/>
     <use xlink:href="#DejaVuSans-66" transform="translate(956.498047 0)"/>
     <use xlink:href="#DejaVuSans-6c" transform="translate(991.703125 0)"/>
     <use xlink:href="#DejaVuSans-6f" transform="translate(1019.486328 0)"/>
     <use xlink:href="#DejaVuSans-77" transform="translate(1080.667969 0)"/>
     <use xlink:href="#DejaVuSans-20" transform="translate(1162.455078 0)"/>
     <use xlink:href="#DejaVuSans-2014" transform="translate(1194.242188 0)"/>
     <use xlink:href="#DejaVuSans-20" transform="translate(1294.242188 0)"/>
     <use xlink:href="#DejaVuSans-50" transform="translate(1326.029297 0)"/>
     <use xlink:href="#DejaVuSans-61" transform="translate(1381.832031 0)"/>
     <use xlink:href="#DejaVuSans-6e" transform="translate(1443.111328 0)"/>
     <use xlink:href="#DejaVuSans-65" transform="translate(1506.490234 0)"/>
     <use xlink:href="#DejaVuSans-6c" transform="translate(1568.013672 0)"/>
     <use xlink:href="#DejaVuSans-20" transform="translate(1595.796875 0)"/>
     <use xlink:href="#DejaVuSans-41" transform="translate(1627.583984 0)"/>
     <use xlink:href="#DejaVuSans-3a" transform="translate(1694.242188 0)"/>
     <use xlink:href="#DejaVuSans-20" transform="translate(1727.933594 0)"/>
     <use xlink:href="#DejaVuSans-6f" transform="translate(1759.720703 0)"/>
     <use xlink:href="#DejaVuSans-76" transform="translate(1820.902344 0)"/>
     <use xlink:href="#DejaVuSans-65" transform="translate(1880.082031 0)"/>
     <use xlink:href="#DejaVuSans-72" transform="translate(1941.605469 0)"/>
     <use xlink:href="#DejaVuSans-6c" transform="translate(1982.71875 0)"/>
     <use xlink:href="#DejaVuSans-61" transform="translate(2010.501953 0)"/>
     <use xlink:href="#DejaVuSans-79" transform="translate(2071.78125 0)"/>
     <use xlink:href="#DejaVuSans-20" transform="translate(2130.960938 0)"/>
     <use xlink:href="#DejaVuSans-2b" transform="translate(2162.748047 0)"/>
     <use xlink:href="#DejaVuSans-20" transform="translate(2246.537109 0)"/>
     <use xlink:href="#DejaVuSans-6e" transform="translate(2278.324219 0)"/>
     <use xlink:href="#DejaVuSans-75" transform="translate(2341.703125 0)"/>
     <use xlink:href="#DejaVuSans-6c" transform="translate(2405.082031 0)"/>
     <use xlink:href="#DejaVuSans-6c" transform="translate(2432.865234 0)"/>
     <use xlink:href="#DejaVuSans-20" transform="translate(2460.648438 0)"/>
     <use xlink:href="#DejaVuSans-62" transform="translate(2492.435547 0)"/>
     <use xlink:href="#DejaVuSans-61" transform="translate(2555.912109 0)"/>
     <use xlink:href="#DejaVuSans-6e" transform="translate(2617.191406 0)"/>
     <use xlink:href="#DejaVuSans-64" transform="translate(2680.570312 0)"/>
     <use xlink:href="#DejaVuSans-73" transform="translate(2744.046875 0)"/>
    </g>
   </g>
   <g id="legend_1">
    <g id="patch_7">
     <path d="M 79.2 83.990437 
L 99.2 83.990437 
L 99.2 76.990437 
L 79.2 76.990437 
z
" style="fill: #1f77b4; fill-opacity: 0.15"/>
    </g>
    <g id="text_13">
     <!-- SFEF→SSC null μ±σ -->
     <g transform="translate(107.2 83.990437) scale(0.1 -0.1)">
      <defs>
       <path id="DejaVuSans-2192" d="M 5050 2147 
L 5050 1866 
L 3822 638 
L 3447 1013 
L 4175 1741 
L 366 1741 
L 366 2272 
L 4175 2272 
L 3447 3000 
L 3822 3375 
L 5050 2147 
z
" transform="scale(0.015625)"/>
       <path id="DejaVuSans-3bc" d="M 544 -1331 
L 544 3500 
L 1119 3500 
L 1119 1325 
Q 1119 872 1334 640 
Q 1550 409 1972 409 
Q 2434 409 2667 671 
Q 2900 934 2900 1459 
L 2900 3500 
L 3475 3500 
L 3475 806 
Q 3475 619 3529 530 
Q 3584 441 3700 441 
Q 3728 441 3778 458 
Q 3828 475 3916 513 
L 3916 50 
Q 3788 -22 3673 -56 
Q 3559 -91 3450 -91 
Q 3234 -91 3106 31 
Q 2978 153 2931 403 
Q 2775 156 2548 32 
Q 2322 -91 2016 -91 
Q 1697 -91 1473 31 
Q 1250 153 1119 397 
L 1119 -1331 
L 544 -1331 
z
" transform="scale(0.015625)"/>
       <path id="DejaVuSans-b1" d="M 2944 4013 
L 2944 2803 
L 4684 2803 
L 4684 2272 
L 2944 2272 
L 2944 1063 
L 2419 1063 
L 2419 2272 
L 678 2272 
L 678 2803 
L 2419 2803 
L 2419 4013 
L 2944 4013 
z
M 678 531 
L 4684 531 
L 4684 0 
L 678 0 
L 678 531 
z
" transform="scale(0.015625)"/>
       <path id="DejaVuSans-3c3" d="M 1959 3044 
Q 1484 3044 1228 2700 
Q 959 2341 959 1747 
Q 959 1119 1226 758 
Q 1494 397 1959 397 
Q 2419 397 2687 759 
Q 2956 1122 2956 1747 
Q 2956 2319 2688 2700 
Q 2441 3044 1959 3044 
z
M 1959 3500 
L 3869 3500 
L 3869 2925 
L 3225 2925 
Q 3566 2438 3566 1747 
Q 3566 888 3138 400 
Q 2709 -91 1959 -91 
Q 1206 -91 781 400 
Q 353 888 353 1747 
Q 353 2613 781 3097 
Q 1134 3500 1959 3500 
z
" transform="scale(0.015625)"/>
      </defs>
      <use xlink:href="#DejaVuSans-53"/>
      <use xlink:href="#DejaVuSans-46" transform="translate(63.476562 0)"/>
      <use xlink:href="#DejaVuSans-45" transform="translate(120.996094 0)"/>
      <use xlink:href="#DejaVuSans-46" transform="translate(184.179688 0)"/>
      <use xlink:href="#DejaVuSans-2192" transform="translate(241.699219 0)"/>
      <use xlink:href="#DejaVuSans-53" transform="translate(325.488281 0)"/>
      <use xlink:href="#DejaVuSans-53" transform="translate(388.964844 0)"/>
      <use xlink:href="#DejaVuSans-43" transform="translate(452.441406 0)"/>
      <use xlink:href="#DejaVuSans-20" transform="translate(522.265625 0)"/>
      <use xlink:href="#DejaVuSans-6e" transform="translate(554.052734 0)"/>
      <use xlink:href="#DejaVuSans-75" transform="translate(617.431641 0)"/>
      <use xlink:href="#DejaVuSans-6c" transform="translate(680.810547 0)"/>
      <use xlink:href="#DejaVuSans-6c" transform="translate(708.59375 0)"/>
      <use xlink:href="#DejaVuSans-20" transform="translate(736.376953 0)"/>
      <use xlink:href="#DejaVuSans-3bc" transform="translate(768.164062 0)"/>
      <use xlink:href="#DejaVuSans-b1" transform="translate(831.787109 0)"/>
      <use xlink:href="#DejaVuSans-3c3" transform="translate(915.576172 0)"/>
     </g>
    </g>
    <g id="patch_8">
     <path d="M 79.2 98.668563 
L 99.2 98.668563 
L 99.2 91.668563 
L 79.2 91.668563 
z
" style="fill: #ff7f0e; fill-opacity: 0.15"/>
    </g>
    <g id="text_14">
     <!-- SSC→SFEF null μ±σ -->
     <g transform="translate(107.2 98.668563) scale(0.1 -0.1)">
      <use xlink:href="#DejaVuSans-53"/>
      <use xlink:href="#DejaVuSans-53" transform="translate(63.476562 0)"/>
      <use xlink:href="#DejaVuSans-43" transform="translate(126.953125 0)"/>
      <use xlink:href="#DejaVuSans-2192" transform="translate(196.777344 0)"/>
      <use xlink:href="#DejaVuSans-53" transform="translate(280.566406 0)"/>
      <use xlink:href="#DejaVuSans-46" transform="translate(344.042969 0)"/>
      <use xlink:href="#DejaVuSans-45" transform="translate(401.5625 0)"/>
      <use xlink:href="#DejaVuSans-46" transform="translate(464.746094 0)"/>
      <use xlink:href="#DejaVuSans-20" transform="translate(522.265625 0)"/>
      <use xlink:href="#DejaVuSans-6e" transform="translate(554.052734 0)"/>
      <use xlink:href="#DejaVuSans-75" transform="translate(617.431641 0)"/>
      <use xlink:href="#DejaVuSans-6c" transform="translate(680.810547 0)"/>
      <use xlink:href="#DejaVuSans-6c" transform="translate(708.59375 0)"/>
      <use xlink:href="#DejaVuSans-20" transform="translate(736.376953 0)"/>
      <use xlink:href="#DejaVuSans-3bc" transform="translate(768.164062 0)"/>
      <use xlink:href="#DejaVuSans-b1" transform="translate(831.787109 0)"/>
      <use xlink:href="#DejaVuSans-3c3" transform="translate(915.576172 0)"/>
     </g>
    </g>
    <g id="line2d_16">
     <path d="M 225.096875 80.490437 
L 235.096875 80.490437 
L 245.096875 80.490437 
" style="fill: none; stroke: #1f77b4; stroke-width: 2.2; stroke-linecap: square"/>
    </g>
    <g id="text_15">
     <!-- SFEF→SSC -->
     <g transform="translate(253.096875 83.990437) scale(0.1 -0.1)">
      <use xlink:href="#DejaVuSans-53"/>
      <use xlink:href="#DejaVuSans-46" transform="translate(63.476562 0)"/>
      <use xlink:href="#DejaVuSans-45" transform="translate(120.996094 0)"/>
      <use xlink:href="#DejaVuSans-46" transform="translate(184.179688 0)"/>
      <use xlink:href="#DejaVuSans-2192" transform="translate(241.699219 0)"/>
      <use xlink:href="#DejaVuSans-53" transform="translate(325.488281 0)"/>
      <use xlink:href="#DejaVuSans-53" transform="translate(388.964844 0)"/>
      <use xlink:href="#DejaVuSans-43" transform="translate(452.441406 0)"/>
     </g>
    </g>
    <g id="line2d_17">
     <path d="M 225.096875 95.168563 
L 235.096875 95.168563 
L 245.096875 95.168563 
" style="fill: none; stroke: #ff7f0e; stroke-width: 2.2; stroke-linecap: square"/>
    </g>
    <g id="text_16">
     <!-- SSC→SFEF -->
     <g transform="translate(253.096875 98.668563) scale(0.1 -0.1)">
      <use xlink:href="#DejaVuSans-53"/>
      <use xlink:href="#DejaVuSans-53" transform="translate(63.476562 0)"/>
      <use xlink:href="#DejaVuSans-43" transform="translate(126.953125 0)"/>
      <use xlink:href="#DejaVuSans-2192" transform="translate(196.777344 0)"/>
      <use xlink:href="#DejaVuSans-53" transform="translate(280.566406 0)"/>
      <use xlink:href="#DejaVuSans-46" transform="translate(344.042969 0)"/>
      <use xlink:href="#DejaVuSans-45" transform="translate(401.5625 0)"/>
      <use xlink:href="#DejaVuSans-46" transform="translate(464.746094 0)"/>
     </g>
    </g>
   </g>
  </g>
  <g id="axes_2">
   <g id="patch_9">
    <path d="M 70.2 353.106 
L 505.44 353.106 
L 505.44 237.276 
L 70.2 237.276 
z
" style="fill: #ffffff"/>
   </g>
   <g id="matplotlib.axis_3">
    <g id="xtick_7">
     <g id="line2d_18">
      <g>
       <use xlink:href="#m05d8c32e8c" x="87.985286" y="353.106" style="stroke: #000000; stroke-width: 0.8"/>
      </g>
     </g>
     <g id="text_17">
      <!-- −200 -->
      <g transform="translate(74.251693 367.704438) scale(0.1 -0.1)">
       <use xlink:href="#DejaVuSans-2212"/>
       <use xlink:href="#DejaVuSans-32" transform="translate(83.789062 0)"/>
       <use xlink:href="#DejaVuSans-30" transform="translate(147.412109 0)"/>
       <use xlink:href="#DejaVuSans-30" transform="translate(211.035156 0)"/>
      </g>
     </g>
    </g>
    <g id="xtick_8">
     <g id="line2d_19">
      <g>
       <use xlink:href="#m05d8c32e8c" x="167.91917" y="353.106" style="stroke: #000000; stroke-width: 0.8"/>
      </g>
     </g>
     <g id="text_18">
      <!-- 0 -->
      <g transform="translate(164.73792 367.704438) scale(0.1 -0.1)">
       <use xlink:href="#DejaVuSans-30"/>
      </g>
     </g>
    </g>
    <g id="xtick_9">
     <g id="line2d_20">
      <g>
       <use xlink:href="#m05d8c32e8c" x="247.853053" y="353.106" style="stroke: #000000; stroke-width: 0.8"/>
      </g>
     </g>
     <g id="text_19">
      <!-- 200 -->
      <g transform="translate(238.309303 367.704438) scale(0.1 -0.1)">
       <use xlink:href="#DejaVuSans-32"/>
       <use xlink:href="#DejaVuSans-30" transform="translate(63.623047 0)"/>
       <use xlink:href="#DejaVuSans-30" transform="translate(127.246094 0)"/>
      </g>
     </g>
    </g>
    <g id="xtick_10">
     <g id="line2d_21">
      <g>
       <use xlink:href="#m05d8c32e8c" x="327.786937" y="353.106" style="stroke: #000000; stroke-width: 0.8"/>
      </g>
     </g>
     <g id="text_20">
      <!-- 400 -->
      <g transform="translate(318.243187 367.704438) scale(0.1 -0.1)">
       <use xlink:href="#DejaVuSans-34"/>
       <use xlink:href="#DejaVuSans-30" transform="translate(63.623047 0)"/>
       <use xlink:href="#DejaVuSans-30" transform="translate(127.246094 0)"/>
      </g>
     </g>
    </g>
    <g id="xtick_11">
     <g id="line2d_22">
      <g>
       <use xlink:href="#m05d8c32e8c" x="407.720821" y="353.106" style="stroke: #000000; stroke-width: 0.8"/>
      </g>
     </g>
     <g id="text_21">
      <!-- 600 -->
      <g transform="translate(398.177071 367.704438) scale(0.1 -0.1)">
       <use xlink:href="#DejaVuSans-36"/>
       <use xlink:href="#DejaVuSans-30" transform="translate(63.623047 0)"/>
       <use xlink:href="#DejaVuSans-30" transform="translate(127.246094 0)"/>
      </g>
     </g>
    </g>
    <g id="xtick_12">
     <g id="line2d_23">
      <g>
       <use xlink:href="#m05d8c32e8c" x="487.654704" y="353.106" style="stroke: #000000; stroke-width: 0.8"/>
      </g>
     </g>
     <g id="text_22">
      <!-- 800 -->
      <g transform="translate(478.110954 367.704438) scale(0.1 -0.1)">
       <use xlink:href="#DejaVuSans-38"/>
       <use xlink:href="#DejaVuSans-30" transform="translate(63.623047 0)"/>
       <use xlink:href="#DejaVuSans-30" transform="translate(127.246094 0)"/>
      </g>
     </g>
    </g>
   </g>
   <g id="matplotlib.axis_4">
    <g id="ytick_5">
     <g id="line2d_24">
      <g>
       <use xlink:href="#me9243bbcbb" x="70.2" y="327.568343" style="stroke: #000000; stroke-width: 0.8"/>
      </g>
     </g>
     <g id="text_23">
      <!-- −5 -->
      <g transform="translate(48.457813 331.367562) scale(0.1 -0.1)">
       <use xlink:href="#DejaVuSans-2212"/>
       <use xlink:href="#DejaVuSans-35" transform="translate(83.789062 0)"/>
      </g>
     </g>
    </g>
    <g id="ytick_6">
     <g id="line2d_25">
      <g>
       <use xlink:href="#me9243bbcbb" x="70.2" y="298.129469" style="stroke: #000000; stroke-width: 0.8"/>
      </g>
     </g>
     <g id="text_24">
      <!-- 0 -->
      <g transform="translate(56.8375 301.928688) scale(0.1 -0.1)">
       <use xlink:href="#DejaVuSans-30"/>
      </g>
     </g>
    </g>
    <g id="ytick_7">
     <g id="line2d_26">
      <g>
       <use xlink:href="#me9243bbcbb" x="70.2" y="268.690596" style="stroke: #000000; stroke-width: 0.8"/>
      </g>
     </g>
     <g id="text_25">
      <!-- 5 -->
      <g transform="translate(56.8375 272.489815) scale(0.1 -0.1)">
       <use xlink:href="#DejaVuSans-35"/>
      </g>
     </g>
    </g>
    <g id="ytick_8">
     <g id="line2d_27">
      <g>
       <use xlink:href="#me9243bbcbb" x="70.2" y="239.251722" style="stroke: #000000; stroke-width: 0.8"/>
      </g>
     </g>
     <g id="text_26">
      <!-- 10 -->
      <g transform="translate(50.475 243.050941) scale(0.1 -0.1)">
       <use xlink:href="#DejaVuSans-31"/>
       <use xlink:href="#DejaVuSans-30" transform="translate(63.623047 0)"/>
      </g>
     </g>
    </g>
    <g id="text_27">
     <!-- ΔΔLL (bits) -->
     <g transform="translate(42.378125 322.22225) rotate(-90) scale(0.1 -0.1)">
      <use xlink:href="#DejaVuSans-394"/>
      <use xlink:href="#DejaVuSans-394" transform="translate(68.408203 0)"/>
      <use xlink:href="#DejaVuSans-4c" transform="translate(136.816406 0)"/>
      <use xlink:href="#DejaVuSans-4c" transform="translate(192.529297 0)"/>
      <use xlink:href="#DejaVuSans-20" transform="translate(248.242188 0)"/>
      <use xlink:href="#DejaVuSans-28" transform="translate(280.029297 0)"/>
      <use xlink:href="#DejaVuSans-62" transform="translate(319.042969 0)"/>
      <use xlink:href="#DejaVuSans-69" transform="translate(382.519531 0)"/>
      <use xlink:href="#DejaVuSans-74" transform="translate(410.302734 0)"/>
      <use xlink:href="#DejaVuSans-73" transform="translate(449.511719 0)"/>
      <use xlink:href="#DejaVuSans-29" transform="translate(501.611328 0)"/>
     </g>
    </g>
   </g>
   <g id="line2d_28">
    <path d="M 167.91917 353.106 
L 167.91917 237.276 
" clip-path="url(#p8fb21bf92d)" style="fill: none; stroke-dasharray: 2.96,1.28; stroke-dashoffset: 0; stroke: #000000; stroke-width: 0.8"/>
   </g>
   <g id="line2d_29">
    <path d="M 70.2 298.129469 
L 505.44 298.129469 
" clip-path="url(#p8fb21bf92d)" style="fill: none; stroke-dasharray: 0.8,1.32; stroke-dashoffset: 0; stroke: #000000; stroke-width: 0.8"/>
   </g>
   <g id="line2d_30">
    <path d="M 89.983636 330.251841 
L 93.980327 311.034064 
L 97.977023 331.838909 
L 101.973713 287.569268 
L 105.97041 303.004143 
L 109.967106 335.036055 
L 113.963796 317.458298 
L 117.960493 302.05838 
L 121.957186 287.288104 
L 125.953882 343.263728 
L 129.950576 293.670824 
L 133.947269 272.633283 
L 137.943962 324.860029 
L 141.940659 285.527315 
L 145.937352 294.132631 
L 149.934045 273.671559 
L 153.93074 281.410037 
L 157.927434 290.56681 
L 161.924129 287.375161 
L 165.920823 282.488986 
L 169.917517 271.2178 
L 173.914211 269.852528 
L 177.910906 301.361138 
L 181.9076 328.857177 
L 185.904294 304.423372 
L 189.900988 274.311975 
L 193.897681 281.210202 
L 197.894377 332.940619 
L 201.891071 264.707262 
L 205.887764 289.217709 
L 209.884457 302.081738 
L 213.881154 299.991965 
L 217.877847 248.514975 
L 221.874543 301.811472 
L 225.871234 272.44245 
L 229.86793 302.713969 
L 233.864626 305.500204 
L 237.861317 280.372491 
L 241.858013 305.186052 
L 245.854704 304.865927 
L 249.8514 338.663777 
L 253.848096 338.549163 
L 257.844787 272.070591 
L 261.841483 315.008532 
L 265.838179 297.398528 
L 269.83487 292.013589 
L 273.83156 308.867583 
L 277.828262 272.708205 
L 281.824953 274.959936 
L 285.821643 335.016927 
L 289.818345 278.278867 
L 293.815036 316.08383 
L 297.811726 295.44657 
L 301.808428 298.05942 
L 305.805119 289.620666 
L 309.801809 322.199352 
L 313.798511 296.489346 
L 317.795202 289.559394 
L 321.791892 306.859718 
L 325.788594 288.17826 
L 329.785285 298.477123 
L 333.781975 284.776999 
L 337.778677 300.845577 
L 341.775368 320.747456 
L 345.772058 291.081508 
L 349.76876 339.962931 
L 353.765451 291.619281 
L 357.762141 299.557361 
L 361.758843 319.658369 
L 365.755534 275.678844 
L 369.752224 312.792427 
L 373.748914 312.095762 
L 377.745605 285.599351 
L 381.742319 316.663153 
L 385.739009 273.798394 
L 389.7357 340.550189 
L 393.73239 257.38389 
L 397.72908 267.88152 
L 401.725771 302.138885 
L 405.722485 242.541 
L 409.719175 267.749234 
L 413.715866 343.511461 
L 417.712556 288.49233 
L 421.709246 308.255687 
L 425.705937 296.997338 
L 429.702627 321.328183 
L 433.699341 344.428572 
L 437.696032 263.360845 
L 441.692722 296.672551 
L 445.689412 283.317676 
L 449.686103 269.220121 
L 453.682793 277.931589 
L 457.679507 309.574118 
L 461.676198 290.105731 
L 465.672888 308.194841 
L 469.669578 279.835238 
L 473.666269 311.719019 
L 477.662959 347.841 
L 481.659673 305.413385 
L 485.656364 322.4462 
" clip-path="url(#p8fb21bf92d)" style="fill: none; stroke: #d62728; stroke-width: 2.2; stroke-linecap: square"/>
   </g>
   <g id="line2d_31">
    <defs>
     <path id="md39ca21db9" d="M 0 1.25 
C 0.331504 1.25 0.649475 1.118292 0.883883 0.883883 
C 1.118292 0.649475 1.25 0.331504 1.25 0 
C 1.25 -0.331504 1.118292 -0.649475 0.883883 -0.883883 
C 0.649475 -1.118292 0.331504 -1.25 0 -1.25 
C -0.331504 -1.25 -0.649475 -1.118292 -0.883883 -0.883883 
C -1.118292 -0.649475 -1.25 -0.331504 -1.25 0 
C -1.25 0.331504 -1.118292 0.649475 -0.883883 0.883883 
C -0.649475 1.118292 -0.331504 1.25 0 1.25 
z
" style="stroke: #000000"/>
    </defs>
    <g clip-path="url(#p8fb21bf92d)">
     <use xlink:href="#md39ca21db9" x="97.977023" y="331.838909" style="stroke: #000000"/>
     <use xlink:href="#md39ca21db9" x="125.953882" y="343.263728" style="stroke: #000000"/>
     <use xlink:href="#md39ca21db9" x="137.943962" y="324.860029" style="stroke: #000000"/>
     <use xlink:href="#md39ca21db9" x="193.897681" y="281.210202" style="stroke: #000000"/>
     <use xlink:href="#md39ca21db9" x="205.887764" y="289.217709" style="stroke: #000000"/>
     <use xlink:href="#md39ca21db9" x="249.8514" y="338.663777" style="stroke: #000000"/>
     <use xlink:href="#md39ca21db9" x="273.83156" y="308.867583" style="stroke: #000000"/>
     <use xlink:href="#md39ca21db9" x="333.781975" y="284.776999" style="stroke: #000000"/>
     <use xlink:href="#md39ca21db9" x="349.76876" y="339.962931" style="stroke: #000000"/>
     <use xlink:href="#md39ca21db9" x="361.758843" y="319.658369" style="stroke: #000000"/>
     <use xlink:href="#md39ca21db9" x="365.755534" y="275.678844" style="stroke: #000000"/>
     <use xlink:href="#md39ca21db9" x="389.7357" y="340.550189" style="stroke: #000000"/>
     <use xlink:href="#md39ca21db9" x="393.73239" y="257.38389" style="stroke: #000000"/>
     <use xlink:href="#md39ca21db9" x="397.72908" y="267.88152" style="stroke: #000000"/>
     <use xlink:href="#md39ca21db9" x="405.722485" y="242.541" style="stroke: #000000"/>
     <use xlink:href="#md39ca21db9" x="413.715866" y="343.511461" style="stroke: #000000"/>
     <use xlink:href="#md39ca21db9" x="429.702627" y="321.328183" style="stroke: #000000"/>
     <use xlink:href="#md39ca21db9" x="433.699341" y="344.428572" style="stroke: #000000"/>
     <use xlink:href="#md39ca21db9" x="437.696032" y="263.360845" style="stroke: #000000"/>
     <use xlink:href="#md39ca21db9" x="449.686103" y="269.220121" style="stroke: #000000"/>
     <use xlink:href="#md39ca21db9" x="477.662959" y="347.841" style="stroke: #000000"/>
    </g>
   </g>
   <g id="patch_10">
    <path d="M 70.2 353.106 
L 70.2 237.276 
" style="fill: none; stroke: #000000; stroke-width: 0.8; stroke-linejoin: miter; stroke-linecap: square"/>
   </g>
   <g id="patch_11">
    <path d="M 505.44 353.106 
L 505.44 237.276 
" style="fill: none; stroke: #000000; stroke-width: 0.8; stroke-linejoin: miter; stroke-linecap: square"/>
   </g>
   <g id="patch_12">
    <path d="M 70.2 353.106 
L 505.44 353.106 
" style="fill: none; stroke: #000000; stroke-width: 0.8; stroke-linejoin: miter; stroke-linecap: square"/>
   </g>
   <g id="patch_13">
    <path d="M 70.2 237.276 
L 505.44 237.276 
" style="fill: none; stroke: #000000; stroke-width: 0.8; stroke-linejoin: miter; stroke-linecap: square"/>
   </g>
   <g id="text_28">
    <!-- Panel B: pair-diff with significance dots -->
    <g transform="translate(171.554063 231.276) scale(0.12 -0.12)">
     <defs>
      <path id="DejaVuSans-42" d="M 1259 2228 
L 1259 519 
L 2272 519 
Q 2781 519 3026 730 
Q 3272 941 3272 1375 
Q 3272 1813 3026 2020 
Q 2781 2228 2272 2228 
L 1259 2228 
z
M 1259 4147 
L 1259 2741 
L 2194 2741 
Q 2656 2741 2882 2914 
Q 3109 3088 3109 3444 
Q 3109 3797 2882 3972 
Q 2656 4147 2194 4147 
L 1259 4147 
z
M 628 4666 
L 2241 4666 
Q 2963 4666 3353 4366 
Q 3744 4066 3744 3513 
Q 3744 3084 3544 2831 
Q 3344 2578 2956 2516 
Q 3422 2416 3680 2098 
Q 3938 1781 3938 1306 
Q 3938 681 3513 340 
Q 3088 0 2303 0 
L 628 0 
L 628 4666 
z
" transform="scale(0.015625)"/>
      <path id="DejaVuSans-70" d="M 1159 525 
L 1159 -1331 
L 581 -1331 
L 581 3500 
L 1159 3500 
L 1159 2969 
Q 1341 3281 1617 3432 
Q 1894 3584 2278 3584 
Q 2916 3584 3314 3078 
Q 3713 2572 3713 1747 
Q 3713 922 3314 415 
Q 2916 -91 2278 -91 
Q 1894 -91 1617 61 
Q 1341 213 1159 525 
z
M 3116 1747 
Q 3116 2381 2855 2742 
Q 2594 3103 2138 3103 
Q 1681 3103 1420 2742 
Q 1159 2381 1159 1747 
Q 1159 1113 1420 752 
Q 1681 391 2138 391 
Q 2594 391 2855 752 
Q 3116 1113 3116 1747 
z
" transform="scale(0.015625)"/>
      <path id="DejaVuSans-68" d="M 3513 2113 
L 3513 0 
L 2938 0 
L 2938 2094 
Q 2938 2591 2744 2837 
Q 2550 3084 2163 3084 
Q 1697 3084 1428 2787 
Q 1159 2491 1159 1978 
L 1159 0 
L 581 0 
L 581 4863 
L 1159 4863 
L 1159 2956 
Q 1366 3272 1645 3428 
Q 1925 3584 2291 3584 
Q 2894 3584 3203 3211 
Q 3513 2838 3513 2113 
z
" transform="scale(0.015625)"/>
      <path id="DejaVuSans-67" d="M 2906 1791 
Q 2906 2416 2648 2759 
Q 2391 3103 1925 3103 
Q 1463 3103 1205 2759 
Q 947 2416 947 1791 
Q 947 1169 1205 825 
Q 1463 481 1925 481 
Q 2391 481 2648 825 
Q 2906 1169 2906 1791 
z
M 3481 434 
Q 3481 -459 3084 -895 
Q 2688 -1331 1869 -1331 
Q 1566 -1331 1297 -1286 
Q 1028 -1241 775 -1147 
L 775 -588 
Q 1028 -725 1275 -790 
Q 1522 -856 1778 -856 
Q 2344 -856 2625 -561 
Q 2906 -266 2906 331 
L 2906 616 
Q 2728 306 2450 153 
Q 2172 0 1784 0 
Q 1141 0 747 490 
Q 353 981 353 1791 
Q 353 2603 747 3093 
Q 1141 3584 1784 3584 
Q 2172 3584 2450 3431 
Q 2728 3278 2906 2969 
L 2906 3500 
L 3481 3500 
L 3481 434 
z
" transform="scale(0.015625)"/>
      <path id="DejaVuSans-63" d="M 3122 3366 
L 3122 2828 
Q 2878 2963 2633 3030 
Q 2388 3097 2138 3097 
Q 1578 3097 1268 2742 
Q 959 2388 959 1747 
Q 959 1106 1268 751 
Q 1578 397 2138 397 
Q 2388 397 2633 464 
Q 2878 531 3122 666 
L 3122 134 
Q 2881 22 2623 -34 
Q 2366 -91 2075 -91 
Q 1284 -91 818 406 
Q 353 903 353 1747 
Q 353 2603 823 3093 
Q 1294 3584 2113 3584 
Q 2378 3584 2631 3529 
Q 2884 3475 3122 3366 
z
" transform="scale(0.015625)"/>
     </defs>
     <use xlink:href="#DejaVuSans-50"/>
     <use xlink:href="#DejaVuSans-61" transform="translate(55.802734 0)"/>
     <use xlink:href="#DejaVuSans-6e" transform="translate(117.082031 0)"/>
     <use xlink:href="#DejaVuSans-65" transform="translate(180.460938 0)"/>
     <use xlink:href="#DejaVuSans-6c" transform="translate(241.984375 0)"/>
     <use xlink:href="#DejaVuSans-20" transform="translate(269.767578 0)"/>
     <use xlink:href="#DejaVuSans-42" transform="translate(301.554688 0)"/>
     <use xlink:href="#DejaVuSans-3a" transform="translate(370.158203 0)"/>
     <use xlink:href="#DejaVuSans-20" transform="translate(403.849609 0)"/>
     <use xlink:href="#DejaVuSans-70" transform="translate(435.636719 0)"/>
     <use xlink:href="#DejaVuSans-61" transform="translate(499.113281 0)"/>
     <use xlink:href="#DejaVuSans-69" transform="translate(560.392578 0)"/>
     <use xlink:href="#DejaVuSans-72" transform="translate(588.175781 0)"/>
     <use xlink:href="#DejaVuSans-2d" transform="translate(622.914062 0)"/>
     <use xlink:href="#DejaVuSans-64" transform="translate(658.998047 0)"/>
     <use xlink:href="#DejaVuSans-69" transform="translate(722.474609 0)"/>
     <use xlink:href="#DejaVuSans-66" transform="translate(750.257812 0)"/>
     <use xlink:href="#DejaVuSans-66" transform="translate(785.462891 0)"/>
     <use xlink:href="#DejaVuSans-20" transform="translate(820.667969 0)"/>
     <use xlink:href="#DejaVuSans-77" transform="translate(852.455078 0)"/>
     <use xlink:href="#DejaVuSans-69" transform="translate(934.242188 0)"/>
     <use xlink:href="#DejaVuSans-74" transform="translate(962.025391 0)"/>
     <use xlink:href="#DejaVuSans-68" transform="translate(1001.234375 0)"/>
     <use xlink:href="#DejaVuSans-20" transform="translate(1064.613281 0)"/>
     <use xlink:href="#DejaVuSans-73" transform="translate(1096.400391 0)"/>
     <use xlink:href="#DejaVuSans-69" transform="translate(1148.5 0)"/>
     <use xlink:href="#DejaVuSans-67" transform="translate(1176.283203 0)"/>
     <use xlink:href="#DejaVuSans-6e" transform="translate(1239.759766 0)"/>
     <use xlink:href="#DejaVuSans-69" transform="translate(1303.138672 0)"/>
     <use xlink:href="#DejaVuSans-66" transform="translate(1330.921875 0)"/>
     <use xlink:href="#DejaVuSans-69" transform="translate(1366.126953 0)"/>
     <use xlink:href="#DejaVuSans-63" transform="translate(1393.910156 0)"/>
     <use xlink:href="#DejaVuSans-61" transform="translate(1448.890625 0)"/>
     <use xlink:href="#DejaVuSans-6e" transform="translate(1510.169922 0)"/>
     <use xlink:href="#DejaVuSans-63" transform="translate(1573.548828 0)"/>
     <use xlink:href="#DejaVuSans-65" transform="translate(1628.529297 0)"/>
     <use xlink:href="#DejaVuSans-20" transform="translate(1690.052734 0)"/>
     <use xlink:href="#DejaVuSans-64" transform="translate(1721.839844 0)"/>
     <use xlink:href="#DejaVuSans-6f" transform="translate(1785.316406 0)"/>
     <use xlink:href="#DejaVuSans-74" transform="translate(1846.498047 0)"/>
     <use xlink:href="#DejaVuSans-73" transform="translate(1885.707031 0)"/>
    </g>
   </g>
   <g id="legend_2">
    <g id="line2d_32">
     <path d="M 79.2 250.374437 
L 89.2 250.374437 
L 99.2 250.374437 
" style="fill: none; stroke: #d62728; stroke-width: 2.2; stroke-linecap: square"/>
    </g>
    <g id="text_29">
     <!-- (A→B − B→A) -->
     <g transform="translate(107.2 253.874437) scale(0.1 -0.1)">
      <use xlink:href="#DejaVuSans-28"/>
      <use xlink:href="#DejaVuSans-41" transform="translate(39.013672 0)"/>
      <use xlink:href="#DejaVuSans-2192" transform="translate(107.421875 0)"/>
      <use xlink:href="#DejaVuSans-42" transform="translate(191.210938 0)"/>
      <use xlink:href="#DejaVuSans-20" transform="translate(259.814453 0)"/>
      <use xlink:href="#DejaVuSans-2212" transform="translate(291.601562 0)"/>
      <use xlink:href="#DejaVuSans-20" transform="translate(375.390625 0)"/>
      <use xlink:href="#DejaVuSans-42" transform="translate(407.177734 0)"/>
      <use xlink:href="#DejaVuSans-2192" transform="translate(475.78125 0)"/>
      <use xlink:href="#DejaVuSans-41" transform="translate(559.570312 0)"/>
      <use xlink:href="#DejaVuSans-29" transform="translate(627.978516 0)"/>
     </g>
    </g>
    <g id="line2d_33">
     <g>
      <use xlink:href="#md39ca21db9" x="89.2" y="265.052563" style="stroke: #000000"/>
     </g>
    </g>
    <g id="text_30">
     <!-- p&lt;0.05 (one-sided) -->
     <g transform="translate(107.2 268.552563) scale(0.1 -0.1)">
      <defs>
       <path id="DejaVuSans-3c" d="M 4684 3150 
L 1459 2003 
L 4684 863 
L 4684 294 
L 678 1747 
L 678 2266 
L 4684 3719 
L 4684 3150 
z
" transform="scale(0.015625)"/>
       <path id="DejaVuSans-2e" d="M 684 794 
L 1344 794 
L 1344 0 
L 684 0 
L 684 794 
z
" transform="scale(0.015625)"/>
      </defs>
      <use xlink:href="#DejaVuSans-70"/>
      <use xlink:href="#DejaVuSans-3c" transform="translate(63.476562 0)"/>
      <use xlink:href="#DejaVuSans-30" transform="translate(147.265625 0)"/>
      <use xlink:href="#DejaVuSans-2e" transform="translate(210.888672 0)"/>
      <use xlink:href="#DejaVuSans-30" transform="translate(242.675781 0)"/>
      <use xlink:href="#DejaVuSans-35" transform="translate(306.298828 0)"/>
      <use xlink:href="#DejaVuSans-20" transform="translate(369.921875 0)"/>
      <use xlink:href="#DejaVuSans-28" transform="translate(401.708984 0)"/>
      <use xlink:href="#DejaVuSans-6f" transform="translate(440.722656 0)"/>
      <use xlink:href="#DejaVuSans-6e" transform="translate(501.904297 0)"/>
      <use xlink:href="#DejaVuSans-65" transform="translate(565.283203 0)"/>
      <use xlink:href="#DejaVuSans-2d" transform="translate(626.806641 0)"/>
      <use xlink:href="#DejaVuSans-73" transform="translate(662.890625 0)"/>
      <use xlink:href="#DejaVuSans-69" transform="translate(714.990234 0)"/>
      <use xlink:href="#DejaVuSans-64" transform="translate(742.773438 0)"/>
      <use xlink:href="#DejaVuSans-65" transform="translate(806.25 0)"/>
      <use xlink:href="#DejaVuSans-64" transform="translate(867.773438 0)"/>
      <use xlink:href="#DejaVuSans-29" transform="translate(931.25 0)"/>
     </g>
    </g>
   </g>
  </g>
  <g id="axes_3">
   <g id="patch_14">
    <path d="M 70.2 499.824 
L 505.44 499.824 
L 505.44 383.994 
L 70.2 383.994 
z
" style="fill: #ffffff"/>
   </g>
   <g id="matplotlib.axis_5">
    <g id="xtick_13">
     <g id="line2d_34">
      <g>
       <use xlink:href="#m05d8c32e8c" x="87.985286" y="499.824" style="stroke: #000000; stroke-width: 0.8"/>
      </g>
     </g>
     <g id="text_31">
      <!-- −200 -->
      <g transform="translate(74.251693 514.422438) scale(0.1 -0.1)">
       <use xlink:href="#DejaVuSans-2212"/>
       <use xlink:href="#DejaVuSans-32" transform="translate(83.789062 0)"/>
       <use xlink:href="#DejaVuSans-30" transform="translate(147.412109 0)"/>
       <use xlink:href="#DejaVuSans-30" transform="translate(211.035156 0)"/>
      </g>
     </g>
    </g>
    <g id="xtick_14">
     <g id="line2d_35">
      <g>
       <use xlink:href="#m05d8c32e8c" x="167.91917" y="499.824" style="stroke: #000000; stroke-width: 0.8"/>
      </g>
     </g>
     <g id="text_32">
      <!-- 0 -->
      <g transform="translate(164.73792 514.422438) scale(0.1 -0.1)">
       <use xlink:href="#DejaVuSans-30"/>
      </g>
     </g>
    </g>
    <g id="xtick_15">
     <g id="line2d_36">
      <g>
       <use xlink:href="#m05d8c32e8c" x="247.853053" y="499.824" style="stroke: #000000; stroke-width: 0.8"/>
      </g>
     </g>
     <g id="text_33">
      <!-- 200 -->
      <g transform="translate(238.309303 514.422438) scale(0.1 -0.1)">
       <use xlink:href="#DejaVuSans-32"/>
       <use xlink:href="#DejaVuSans-30" transform="translate(63.623047 0)"/>
       <use xlink:href="#DejaVuSans-30" transform="translate(127.246094 0)"/>
      </g>
     </g>
    </g>
    <g id="xtick_16">
     <g id="line2d_37">
      <g>
       <use xlink:href="#m05d8c32e8c" x="327.786937" y="499.824" style="stroke: #000000; stroke-width: 0.8"/>
      </g>
     </g>
     <g id="text_34">
      <!-- 400 -->
      <g transform="translate(318.243187 514.422438) scale(0.1 -0.1)">
       <use xlink:href="#DejaVuSans-34"/>
       <use xlink:href="#DejaVuSans-30" transform="translate(63.623047 0)"/>
       <use xlink:href="#DejaVuSans-30" transform="translate(127.246094 0)"/>
      </g>
     </g>
    </g>
    <g id="xtick_17">
     <g id="line2d_38">
      <g>
       <use xlink:href="#m05d8c32e8c" x="407.720821" y="499.824" style="stroke: #000000; stroke-width: 0.8"/>
      </g>
     </g>
     <g id="text_35">
      <!-- 600 -->
      <g transform="translate(398.177071 514.422438) scale(0.1 -0.1)">
       <use xlink:href="#DejaVuSans-36"/>
       <use xlink:href="#DejaVuSans-30" transform="translate(63.623047 0)"/>
       <use xlink:href="#DejaVuSans-30" transform="translate(127.246094 0)"/>
      </g>
     </g>
    </g>
    <g id="xtick_18">
     <g id="line2d_39">
      <g>
       <use xlink:href="#m05d8c32e8c" x="487.654704" y="499.824" style="stroke: #000000; stroke-width: 0.8"/>
      </g>
     </g>
     <g id="text_36">
      <!-- 800 -->
      <g transform="translate(478.110954 514.422438) scale(0.1 -0.1)">
       <use xlink:href="#DejaVuSans-38"/>
       <use xlink:href="#DejaVuSans-30" transform="translate(63.623047 0)"/>
       <use xlink:href="#DejaVuSans-30" transform="translate(127.246094 0)"/>
      </g>
     </g>
    </g>
    <g id="text_37">
     <!-- Time (ms) -->
     <g transform="translate(262.620781 528.100563) scale(0.1 -0.1)">
      <defs>
       <path id="DejaVuSans-54" d="M -19 4666 
L 3928 4666 
L 3928 4134 
L 2272 4134 
L 2272 0 
L 1638 0 
L 1638 4134 
L -19 4134 
L -19 4666 
z
" transform="scale(0.015625)"/>
       <path id="DejaVuSans-6d" d="M 3328 2828 
Q 3544 3216 3844 3400 
Q 4144 3584 4550 3584 
Q 5097 3584 5394 3201 
Q 5691 2819 5691 2113 
L 5691 0 
L 5113 0 
L 5113 2094 
Q 5113 2597 4934 2840 
Q 4756 3084 4391 3084 
Q 3944 3084 3684 2787 
Q 3425 2491 3425 1978 
L 3425 0 
L 2847 0 
L 2847 2094 
Q 2847 2600 2669 2842 
Q 2491 3084 2119 3084 
Q 1678 3084 1418 2786 
Q 1159 2488 1159 1978 
L 1159 0 
L 581 0 
L 581 3500 
L 1159 3500 
L 1159 2956 
Q 1356 3278 1631 3431 
Q 1906 3584 2284 3584 
Q 2666 3584 2933 3390 
Q 3200 3197 3328 2828 
z
" transform="scale(0.015625)"/>
      </defs>
      <use xlink:href="#DejaVuSans-54"/>
      <use xlink:href="#DejaVuSans-69" transform="translate(57.958984 0)"/>
      <use xlink:href="#DejaVuSans-6d" transform="translate(85.742188 0)"/>
      <use xlink:href="#DejaVuSans-65" transform="translate(183.154297 0)"/>
      <use xlink:href="#DejaVuSans-20" transform="translate(244.677734 0)"/>
      <use xlink:href="#DejaVuSans-28" transform="translate(276.464844 0)"/>
      <use xlink:href="#DejaVuSans-6d" transform="translate(315.478516 0)"/>
      <use xlink:href="#DejaVuSans-73" transform="translate(412.890625 0)"/>
      <use xlink:href="#DejaVuSans-29" transform="translate(464.990234 0)"/>
     </g>
    </g>
   </g>
   <g id="matplotlib.axis_6">
    <g id="ytick_9">
     <g id="line2d_40">
      <g>
       <use xlink:href="#me9243bbcbb" x="70.2" y="494.900699" style="stroke: #000000; stroke-width: 0.8"/>
      </g>
     </g>
     <g id="text_38">
      <!-- −2 -->
      <g transform="translate(48.457813 498.699918) scale(0.1 -0.1)">
       <use xlink:href="#DejaVuSans-2212"/>
       <use xlink:href="#DejaVuSans-32" transform="translate(83.789062 0)"/>
      </g>
     </g>
    </g>
    <g id="ytick_10">
     <g id="line2d_41">
      <g>
       <use xlink:href="#me9243bbcbb" x="70.2" y="463.527934" style="stroke: #000000; stroke-width: 0.8"/>
      </g>
     </g>
     <g id="text_39">
      <!-- 0 -->
      <g transform="translate(56.8375 467.327152) scale(0.1 -0.1)">
       <use xlink:href="#DejaVuSans-30"/>
      </g>
     </g>
    </g>
    <g id="ytick_11">
     <g id="line2d_42">
      <g>
       <use xlink:href="#me9243bbcbb" x="70.2" y="432.155169" style="stroke: #000000; stroke-width: 0.8"/>
      </g>
     </g>
     <g id="text_40">
      <!-- 2 -->
      <g transform="translate(56.8375 435.954387) scale(0.1 -0.1)">
       <use xlink:href="#DejaVuSans-32"/>
      </g>
     </g>
    </g>
    <g id="ytick_12">
     <g id="line2d_43">
      <g>
       <use xlink:href="#me9243bbcbb" x="70.2" y="400.782404" style="stroke: #000000; stroke-width: 0.8"/>
      </g>
     </g>
     <g id="text_41">
      <!-- 4 -->
      <g transform="translate(56.8375 404.581622) scale(0.1 -0.1)">
       <use xlink:href="#DejaVuSans-34"/>
      </g>
     </g>
    </g>
    <g id="text_42">
     <!-- Z (σ from null) -->
     <g transform="translate(42.378125 477.919938) rotate(-90) scale(0.1 -0.1)">
      <defs>
       <path id="DejaVuSans-5a" d="M 359 4666 
L 4025 4666 
L 4025 4184 
L 1075 531 
L 4097 531 
L 4097 0 
L 288 0 
L 288 481 
L 3238 4134 
L 359 4134 
L 359 4666 
z
" transform="scale(0.015625)"/>
      </defs>
      <use xlink:href="#DejaVuSans-5a"/>
      <use xlink:href="#DejaVuSans-20" transform="translate(68.505859 0)"/>
      <use xlink:href="#DejaVuSans-28" transform="translate(100.292969 0)"/>
      <use xlink:href="#DejaVuSans-3c3" transform="translate(139.306641 0)"/>
      <use xlink:href="#DejaVuSans-20" transform="translate(202.685547 0)"/>
      <use xlink:href="#DejaVuSans-66" transform="translate(234.472656 0)"/>
      <use xlink:href="#DejaVuSans-72" transform="translate(269.677734 0)"/>
      <use xlink:href="#DejaVuSans-6f" transform="translate(308.541016 0)"/>
      <use xlink:href="#DejaVuSans-6d" transform="translate(369.722656 0)"/>
      <use xlink:href="#DejaVuSans-20" transform="translate(467.134766 0)"/>
      <use xlink:href="#DejaVuSans-6e" transform="translate(498.921875 0)"/>
      <use xlink:href="#DejaVuSans-75" transform="translate(562.300781 0)"/>
      <use xlink:href="#DejaVuSans-6c" transform="translate(625.679688 0)"/>
      <use xlink:href="#DejaVuSans-6c" transform="translate(653.462891 0)"/>
      <use xlink:href="#DejaVuSans-29" transform="translate(681.246094 0)"/>
     </g>
    </g>
   </g>
   <g id="line2d_44">
    <path d="M 167.91917 499.824 
L 167.91917 383.994 
" clip-path="url(#pd282327cbb)" style="fill: none; stroke-dasharray: 2.96,1.28; stroke-dashoffset: 0; stroke: #000000; stroke-width: 0.8"/>
   </g>
   <g id="line2d_45">
    <path d="M 89.983636 490.803195 
L 93.980327 489.355184 
L 97.977023 466.810281 
L 101.973713 467.809633 
L 105.97041 467.551576 
L 109.967106 483.214435 
L 113.963796 474.900091 
L 117.960493 457.661763 
L 121.957186 464.517304 
L 125.953882 461.699562 
L 129.950576 468.295451 
L 133.947269 456.84343 
L 137.943962 450.779644 
L 141.940659 456.92259 
L 145.937352 465.074201 
L 149.934045 445.602171 
L 153.93074 452.663573 
L 157.927434 464.576667 
L 161.924129 464.800487 
L 165.920823 441.701798 
L 169.917517 457.07657 
L 173.914211 435.895087 
L 177.910906 477.582688 
L 181.9076 487.750456 
L 185.904294 464.046024 
L 189.900988 436.236686 
L 193.897681 421.392609 
L 197.894377 480.491013 
L 201.891071 441.923913 
L 205.887764 433.59659 
L 209.884457 473.613038 
L 213.881154 452.390834 
L 217.877847 439.707529 
L 221.874543 463.447773 
L 225.871234 439.852633 
L 229.86793 440.420359 
L 233.864626 470.937994 
L 237.861317 467.223888 
L 241.858013 470.268698 
L 245.854704 472.875503 
L 249.8514 482.579068 
L 253.848096 494.559 
L 257.844787 449.117324 
L 261.841483 461.547891 
L 265.838179 480.478201 
L 269.83487 448.457616 
L 273.83156 436.349144 
L 277.828262 449.014006 
L 281.824953 457.961131 
L 285.821643 487.182615 
L 289.818345 448.463686 
L 293.815036 482.760118 
L 297.811726 456.571603 
L 301.808428 470.052956 
L 305.805119 455.447818 
L 309.801809 476.429423 
L 313.798511 447.439246 
L 317.795202 451.79198 
L 321.791892 463.878275 
L 325.788594 435.495123 
L 329.785285 474.067222 
L 333.781975 434.263338 
L 337.778677 481.558554 
L 341.775368 482.79061 
L 345.772058 457.148961 
L 349.76876 457.956371 
L 353.765451 439.09651 
L 357.762141 430.54261 
L 361.758843 455.592057 
L 365.755534 429.172692 
L 369.752224 458.521272 
L 373.748914 461.091933 
L 377.745605 452.775028 
L 381.742319 471.063932 
L 385.739009 447.686937 
L 389.7357 459.776459 
L 393.73239 389.259 
L 397.72908 436.274695 
L 401.725771 458.573784 
L 405.722485 414.009469 
L 409.719175 435.37787 
L 413.715866 472.783972 
L 417.712556 439.597543 
L 421.709246 460.781946 
L 425.705937 473.863512 
L 429.702627 460.692268 
L 433.699341 472.128109 
L 437.696032 400.947178 
L 441.692722 458.203516 
L 445.689412 439.290028 
L 449.686103 416.568019 
L 453.682793 464.633132 
L 457.679507 477.992553 
L 461.676198 480.992147 
L 465.672888 480.449793 
L 469.669578 450.541636 
L 473.666269 460.222176 
L 477.662959 480.153364 
L 481.659673 457.763349 
L 485.656364 491.016625 
" clip-path="url(#pd282327cbb)" style="fill: none; stroke: #1f77b4; stroke-width: 2; stroke-linecap: square"/>
   </g>
   <g id="line2d_46">
    <path d="M 89.983636 457.022505 
L 93.980327 475.166085 
L 97.977023 431.606979 
L 101.973713 480.677394 
L 105.97041 462.585873 
L 109.967106 442.757348 
L 113.963796 452.757263 
L 117.960493 453.683324 
L 121.957186 477.241543 
L 125.953882 429.765437 
L 129.950576 473.995388 
L 133.947269 485.214056 
L 137.943962 424.321535 
L 141.940659 469.025624 
L 145.937352 468.568784 
L 149.934045 473.36639 
L 153.93074 469.836144 
L 157.927434 473.403462 
L 161.924129 476.368167 
L 165.920823 459.646515 
L 169.917517 485.32866 
L 173.914211 466.467933 
L 177.910906 474.623771 
L 181.9076 455.029467 
L 185.904294 457.142038 
L 189.900988 458.776284 
L 193.897681 443.898264 
L 197.894377 445.248665 
L 201.891071 473.864002 
L 205.887764 444.50937 
L 209.884457 468.813609 
L 213.881154 447.108919 
L 217.877847 493.63414 
L 221.874543 457.802351 
L 225.871234 468.270713 
L 229.86793 437.98737 
L 233.864626 461.59357 
L 237.861317 484.768531 
L 241.858013 462.745223 
L 245.854704 465.75466 
L 249.8514 436.916142 
L 253.848096 448.136266 
L 257.844787 478.224215 
L 261.841483 443.766096 
L 265.838179 482.153786 
L 269.83487 456.776597 
L 273.83156 423.678075 
L 277.828262 475.731947 
L 281.824953 484.255498 
L 285.821643 447.785029 
L 289.818345 470.618472 
L 293.815036 462.484359 
L 297.811726 460.042405 
L 301.808428 471.12607 
L 305.805119 465.314397 
L 309.801809 450.21268 
L 313.798511 451.364818 
L 317.795202 461.72749 
L 321.791892 452.728829 
L 325.788594 448.349945 
L 329.785285 474.033161 
L 333.781975 447.693509 
L 337.778677 480.721263 
L 341.775368 455.081837 
L 345.772058 466.221714 
L 349.76876 412.272562 
L 353.765451 448.231189 
L 357.762141 427.519849 
L 361.758843 432.920737 
L 365.755534 452.761388 
L 369.752224 440.898945 
L 373.748914 445.653616 
L 377.745605 465.5499 
L 381.742319 452.002746 
L 385.739009 473.948762 
L 389.7357 411.684104 
L 393.73239 437.858428 
L 397.72908 468.419943 
L 401.725771 454.847888 
L 405.722485 475.55455 
L 409.719175 463.276431 
L 413.715866 425.208803 
L 417.712556 452.011467 
L 421.709246 449.202251 
L 425.705937 475.332316 
L 429.702627 432.104381 
L 433.699341 421.859345 
L 437.696032 437.746288 
L 441.692722 460.22202 
L 445.689412 456.022759 
L 449.686103 450.247075 
L 453.682793 485.131028 
L 457.679507 465.443858 
L 461.676198 490.589239 
L 465.672888 469.883572 
L 469.669578 472.380682 
L 473.666269 444.862759 
L 477.662959 426.717038 
L 481.659673 451.128657 
L 485.656364 464.301002 
" clip-path="url(#pd282327cbb)" style="fill: none; stroke: #ff7f0e; stroke-width: 2; stroke-linecap: square"/>
   </g>
   <g id="patch_15">
    <path d="M 70.2 499.824 
L 70.2 383.994 
" style="fill: none; stroke: #000000; stroke-width: 0.8; stroke-linejoin: miter; stroke-linecap: square"/>
   </g>
   <g id="patch_16">
    <path d="M 505.44 499.824 
L 505.44 383.994 
" style="fill: none; stroke: #000000; stroke-width: 0.8; stroke-linejoin: miter; stroke-linecap: square"/>
   </g>
   <g id="patch_17">
    <path d="M 70.2 499.824 
L 505.44 499.824 
" style="fill: none; stroke: #000000; stroke-width: 0.8; stroke-linejoin: miter; stroke-linecap: square"/>
   </g>
   <g id="patch_18">
    <path d="M 70.2 383.994 
L 505.44 383.994 
" style="fill: none; stroke: #000000; stroke-width: 0.8; stroke-linejoin: miter; stroke-linecap: square"/>
   </g>
   <g id="text_43">
    <!-- Panel C: evidence strength vs null -->
    <g transform="translate(185.80125 377.994) scale(0.12 -0.12)">
     <use xlink:href="#DejaVuSans-50"/>
     <use xlink:href="#DejaVuSans-61" transform="translate(55.802734 0)"/>
     <use xlink:href="#DejaVuSans-6e" transform="translate(117.082031 0)"/>
     <use xlink:href="#DejaVuSans-65" transform="translate(180.460938 0)"/>
     <use xlink:href="#DejaVuSans-6c" transform="translate(241.984375 0)"/>
     <use xlink:href="#DejaVuSans-20" transform="translate(269.767578 0)"/>
     <use xlink:href="#DejaVuSans-43" transform="translate(301.554688 0)"/>
     <use xlink:href="#DejaVuSans-3a" transform="translate(371.378906 0)"/>
     <use xlink:href="#DejaVuSans-20" transform="translate(405.070312 0)"/>
     <use xlink:href="#DejaVuSans-65" transform="translate(436.857422 0)"/>
     <use xlink:href="#DejaVuSans-76" transform="translate(498.380859 0)"/>
     <use xlink:href="#DejaVuSans-69" transform="translate(557.560547 0)"/>
     <use xlink:href="#DejaVuSans-64" transform="translate(585.34375 0)"/>
     <use xlink:href="#DejaVuSans-65" transform="translate(648.820312 0)"/>
     <use xlink:href="#DejaVuSans-6e" transform="translate(710.34375 0)"/>
     <use xlink:href="#DejaVuSans-63" transform="translate(773.722656 0)"/>
     <use xlink:href="#DejaVuSans-65" transform="translate(828.703125 0)"/>
     <use xlink:href="#DejaVuSans-20" transform="translate(890.226562 0)"/>
     <use xlink:href="#DejaVuSans-73" transform="translate(922.013672 0)"/>
     <use xlink:href="#DejaVuSans-74" transform="translate(974.113281 0)"/>
     <use xlink:href="#DejaVuSans-72" transform="translate(1013.322266 0)"/>
     <use xlink:href="#DejaVuSans-65" transform="translate(1052.185547 0)"/>
     <use xlink:href="#DejaVuSans-6e" transform="translate(1113.708984 0)"/>
     <use xlink:href="#DejaVuSans-67" transform="translate(1177.087891 0)"/>
     <use xlink:href="#DejaVuSans-74" transform="translate(1240.564453 0)"/>
     <use xlink:href="#DejaVuSans-68" transform="translate(1279.773438 0)"/>
     <use xlink:href="#DejaVuSans-20" transform="translate(1343.152344 0)"/>
     <use xlink:href="#DejaVuSans-76" transform="translate(1374.939453 0)"/>
     <use xlink:href="#DejaVuSans-73" transform="translate(1434.119141 0)"/>
     <use xlink:href="#DejaVuSans-20" transform="translate(1486.21875 0)"/>
     <use xlink:href="#DejaVuSans-6e" transform="translate(1518.005859 0)"/>
     <use xlink:href="#DejaVuSans-75" transform="translate(1581.384766 0)"/>
     <use xlink:href="#DejaVuSans-6c" transform="translate(1644.763672 0)"/>
     <use xlink:href="#DejaVuSans-6c" transform="translate(1672.546875 0)"/>
    </g>
   </g>
   <g id="legend_3">
    <g id="line2d_47">
     <path d="M 79.2 397.092438 
L 89.2 397.092438 
L 99.2 397.092438 
" style="fill: none; stroke: #1f77b4; stroke-width: 2; stroke-linecap: square"/>
    </g>
    <g id="text_44">
     <!-- z(SFEF→SSC) -->
     <g transform="translate(107.2 400.592438) scale(0.1 -0.1)">
      <defs>
       <path id="DejaVuSans-7a" d="M 353 3500 
L 3084 3500 
L 3084 2975 
L 922 459 
L 3084 459 
L 3084 0 
L 275 0 
L 275 525 
L 2438 3041 
L 353 3041 
L 353 3500 
z
" transform="scale(0.015625)"/>
      </defs>
      <use xlink:href="#DejaVuSans-7a"/>
      <use xlink:href="#DejaVuSans-28" transform="translate(52.490234 0)"/>
      <use xlink:href="#DejaVuSans-53" transform="translate(91.503906 0)"/>
      <use xlink:href="#DejaVuSans-46" transform="translate(154.980469 0)"/>
      <use xlink:href="#DejaVuSans-45" transform="translate(212.5 0)"/>
      <use xlink:href="#DejaVuSans-46" transform="translate(275.683594 0)"/>
      <use xlink:href="#DejaVuSans-2192" transform="translate(333.203125 0)"/>
      <use xlink:href="#DejaVuSans-53" transform="translate(416.992188 0)"/>
      <use xlink:href="#DejaVuSans-53" transform="translate(480.46875 0)"/>
      <use xlink:href="#DejaVuSans-43" transform="translate(543.945312 0)"/>
      <use xlink:href="#DejaVuSans-29" transform="translate(613.769531 0)"/>
     </g>
    </g>
    <g id="line2d_48">
     <path d="M 79.2 411.770563 
L 89.2 411.770563 
L 99.2 411.770563 
" style="fill: none; stroke: #ff7f0e; stroke-width: 2; stroke-linecap: square"/>
    </g>
    <g id="text_45">
     <!-- z(SSC→SFEF) -->
     <g transform="translate(107.2 415.270563) scale(0.1 -0.1)">
      <use xlink:href="#DejaVuSans-7a"/>
      <use xlink:href="#DejaVuSans-28" transform="translate(52.490234 0)"/>
      <use xlink:href="#DejaVuSans-53" transform="translate(91.503906 0)"/>
      <use xlink:href="#DejaVuSans-53" transform="translate(154.980469 0)"/>
      <use xlink:href="#DejaVuSans-43" transform="translate(218.457031 0)"/>
      <use xlink:href="#DejaVuSans-2192" transform="translate(288.28125 0)"/>
      <use xlink:href="#DejaVuSans-53" transform="translate(372.070312 0)"/>
      <use xlink:href="#DejaVuSans-46" transform="translate(435.546875 0)"/>
      <use xlink:href="#DejaVuSans-45" transform="translate(493.066406 0)"/>
      <use xlink:href="#DejaVuSans-46" transform="translate(556.25 0)"/>
      <use xlink:href="#DejaVuSans-29" transform="translate(613.769531 0)"/>
     </g>
    </g>
   </g>
  </g>
 </g>
 <defs>
  <clipPath id="pce73d5bef5">
   <rect x="70.2" y="67.392" width="435.24" height="138.996"/>
  </clipPath>
  <clipPath id="p8fb21bf92d">
   <rect x="70.2" y="237.276" width="435.24" height="115.83"/>
  </clipPath>
  <clipPath id="pd282327cbb">
   <rect x="70.2" y="383.994" width="435.24" height="115.83"/>
  </clipPath>
 </defs>
</svg>
