<?xml version="1.0" encoding="utf-8" standalone="no"?>
<!DOCTYPE svg PUBLIC "-//W3C//DTD SVG 1.1//EN"
  "http://www.w3.org/Graphics/SVG/1.1/DTD/svg11.dtd">
<svg xmlns:xlink="http://www.w3.org/1999/xlink" width="856.8pt" height="453.6pt" viewBox="0 0 856.8 453.6" xmlns="http://www.w3.org/2000/svg" version="1.1">
 <metadata>
  <rdf:RDF xmlns:dc="http://purl.org/dc/elements/1.1/" xmlns:cc="http://creativecommons.org/ns#" xmlns:rdf="http://www.w3.org/1999/02/22-rdf-syntax-ns#">
   <cc:Work>
    <dc:type rdf:resource="http://purl.org/dc/dcmitype/StillImage"/>
    <dc:date>2026-01-28T21:17:02.505409</dc:date>
    <dc:format>image/svg+xml</dc:format>
    <dc:creator>
     <cc:Agent>
      <dc:title>Matplotlib v3.10.5, https://matplotlib.org/</dc:title>
     </cc:Agent>
    </dc:creator>
   </cc:Work>
  </rdf:RDF>
 </metadata>
 <defs>
  <style type="text/css">*{stroke-linejoin: round; stroke-linecap: butt}</style>
 </defs>
 <g id="figure_1">
  <g id="patch_1">
   <path d="M 0 453.6 
L 856.8 453.6 
L 856.8 0 
L 0 0 
z
" style="fill: #ffffff"/>
  </g>
  <g id="axes_1">
   <g id="patch_2">
    <path d="M 100.8 396 
L 820.8 396 
L 820.8 36 
L 100.8 36 
z
" style="fill: #ffffff"/>
   </g>
   <g id="FillBetweenPolyCollection_1">
    <path d="M 16.799998 52.363636 
L 16.799998 318.610493 
L 28.799995 337.554266 
L 40.800002 352.51048 
L 52.799999 354.480181 
L 64.799997 359.8628 
L 76.799999 349.494753 
L 88.800001 370.501799 
L 100.800003 365.681706 
L 112.8 362.393696 
L 124.799998 347.921775 
L 136.8 356.099476 
L 148.800002 356.205791 
L 160.799999 372.378579 
L 172.799999 360.233527 
L 184.8 356.904494 
L 196.8 345.592048 
L 208.8 349.787083 
L 220.8 354.771793 
L 232.8 353.044428 
L 244.8 364.173231 
L 256.8 369.239215 
L 268.800001 364.244291 
L 280.800001 350.838926 
L 292.799998 344.368835 
L 304.8 360.305829 
L 316.800002 364.001931 
L 328.8 363.759977 
L 340.799997 365.518473 
L 352.799999 355.570733 
L 364.800001 352.507982 
L 376.800003 341.58655 
L 388.800001 343.446594 
L 400.799998 356.179008 
L 412.800005 346.982598 
L 424.800002 350.343068 
L 436.8 345.777609 
L 448.799997 350.071881 
L 460.799995 348.504872 
L 472.800001 331.119677 
L 484.799999 319.675817 
L 496.799996 316.201763 
L 508.800003 329.389729 
L 520.8 338.852376 
L 532.799989 345.79498 
L 544.799995 336.162498 
L 556.800001 331.500142 
L 568.79999 310.763254 
L 580.799996 313.912397 
L 592.800003 320.228244 
L 604.799991 325.899547 
L 616.799998 312.170615 
L 628.800004 302.219087 
L 640.799993 324.314272 
L 652.799999 335.773982 
L 664.800006 326.638491 
L 676.799994 317.332669 
L 688.800001 324.229758 
L 700.800007 350.53924 
L 712.799996 351.322413 
L 724.800002 363.948278 
L 736.800009 354.705245 
L 748.799997 335.608718 
L 760.800004 318.719987 
L 772.80001 326.465723 
L 784.799999 348.189766 
L 796.800005 353.122216 
L 808.800011 349.540322 
L 820.8 344.567473 
L 832.799989 360.209187 
L 844.799977 363.003418 
L 856.800001 361.137896 
L 868.800026 357.35065 
L 880.800014 347.182776 
L 892.800003 355.758924 
L 904.799991 343.616126 
L 916.79998 351.303695 
L 928.800004 349.90751 
L 940.800029 348.81046 
L 952.800017 351.942008 
L 964.800006 349.623075 
L 976.799994 355.312504 
L 988.799983 343.302479 
L 1000.799971 352.240654 
L 1012.799996 362.165651 
L 1024.80002 367.008956 
L 1036.800009 357.130802 
L 1048.799997 337.345051 
L 1060.799986 335.738066 
L 1072.799974 331.605798 
L 1084.799999 352.895812 
L 1096.800023 357.932938 
L 1108.800011 361.591471 
L 1120.8 365.948221 
L 1132.799989 370.349541 
L 1144.799977 361.023243 
L 1156.800001 352.041656 
L 1168.800026 347.096387 
L 1168.800026 276.967183 
L 1168.800026 276.967183 
L 1156.800001 295.529149 
L 1144.799977 310.81027 
L 1132.799989 333.012785 
L 1120.8 325.688208 
L 1108.800011 321.69618 
L 1096.800023 298.570242 
L 1084.799999 277.853474 
L 1072.799974 250.851529 
L 1060.799986 282.202319 
L 1048.799997 287.197145 
L 1036.800009 313.947381 
L 1024.80002 311.708824 
L 1012.799996 312.397693 
L 1000.799971 306.907714 
L 988.799983 298.310797 
L 976.799994 321.080086 
L 964.800006 304.306021 
L 952.800017 313.040252 
L 940.800029 298.645452 
L 928.800004 288.850249 
L 916.79998 295.276654 
L 904.799991 290.353512 
L 892.800003 322.446881 
L 880.800014 294.0384 
L 868.800026 308.115699 
L 856.800001 309.656383 
L 844.799977 329.836069 
L 832.799989 321.955395 
L 820.8 302.1842 
L 808.800011 298.889927 
L 796.800005 301.145759 
L 784.799999 270.474212 
L 772.80001 241.028982 
L 760.800004 230.048903 
L 748.799997 265.237121 
L 736.800009 297.984734 
L 724.800002 313.312736 
L 712.799996 302.147174 
L 700.800007 298.733975 
L 688.800001 257.774546 
L 676.799994 259.479851 
L 664.800006 273.054169 
L 652.799999 285.996759 
L 640.799993 265.095998 
L 628.800004 238.820838 
L 616.799998 269.104495 
L 604.799991 281.210586 
L 592.800003 271.694615 
L 580.799996 262.924002 
L 568.79999 263.208395 
L 556.800001 283.610301 
L 544.799995 282.125143 
L 532.799989 291.557653 
L 520.8 284.938861 
L 508.800003 246.608782 
L 496.799996 235.9133 
L 484.799999 246.853981 
L 472.800001 294.147463 
L 460.799995 324.321517 
L 448.799997 320.651467 
L 436.8 311.196711 
L 424.800002 300.273431 
L 412.800005 304.225207 
L 400.799998 312.016083 
L 388.800001 296.985399 
L 376.800003 271.340523 
L 364.800001 284.350715 
L 352.799999 298.719264 
L 340.799997 311.626791 
L 328.8 302.856019 
L 316.800002 296.008799 
L 304.8 273.436921 
L 292.799998 262.858133 
L 280.800001 283.517742 
L 268.800001 324.038002 
L 256.8 323.603361 
L 244.8 305.123745 
L 232.8 287.698705 
L 220.8 303.539827 
L 208.8 295.514432 
L 196.8 306.060823 
L 184.8 310.961593 
L 172.799999 307.326892 
L 160.799999 322.169646 
L 148.800002 304.746534 
L 136.8 313.647216 
L 124.799998 310.470808 
L 112.8 322.951405 
L 100.800003 318.520042 
L 88.800001 317.973089 
L 76.799999 304.070198 
L 64.799997 325.718665 
L 52.799999 307.179514 
L 40.800002 225.422576 
L 28.799995 168.967468 
L 16.799998 52.363636 
z
" clip-path="url(#p288ca010bf)" style="fill: #0e87cc; fill-opacity: 0.25"/>
   </g>
   <g id="FillBetweenPolyCollection_2">
    <path d="M 16.799998 341.290066 
L 16.799998 378.586187 
L 28.799995 346.627283 
L 40.800002 349.017348 
L 52.799999 341.85311 
L 64.799997 368.799684 
L 76.799999 361.6661 
L 88.800001 359.811091 
L 100.800003 348.013634 
L 112.8 350.356328 
L 124.799998 361.562958 
L 136.8 355.70334 
L 148.800002 357.565126 
L 160.799999 345.684929 
L 172.799999 354.916478 
L 184.8 354.71786 
L 196.8 354.967778 
L 208.8 360.097854 
L 220.8 363.462955 
L 232.8 357.510273 
L 244.8 342.715509 
L 256.8 333.684134 
L 268.800001 351.175639 
L 280.800001 363.33169 
L 292.799998 371.681644 
L 304.8 365.567487 
L 316.800002 358.599545 
L 328.8 348.358604 
L 340.799997 333.177903 
L 352.799999 324.58699 
L 364.800001 323.311361 
L 376.800003 336.240822 
L 388.800001 356.032612 
L 400.799998 377.580325 
L 412.800005 379.636364 
L 424.800002 362.42076 
L 436.8 355.686797 
L 448.799997 348.022069 
L 460.799995 341.892331 
L 472.800001 333.22341 
L 484.799999 346.204552 
L 496.799996 346.032933 
L 508.800003 335.220182 
L 520.8 314.040139 
L 532.799989 320.376489 
L 544.799995 325.321198 
L 556.800001 338.4614 
L 568.79999 349.810377 
L 580.799996 368.516632 
L 592.800003 363.338571 
L 604.799991 362.718937 
L 616.799998 350.811873 
L 628.800004 354.852087 
L 640.799993 345.287732 
L 652.799999 335.920892 
L 664.800006 340.541132 
L 676.799994 359.389279 
L 688.800001 366.487223 
L 700.800007 352.373193 
L 712.799996 333.678973 
L 724.800002 335.863866 
L 736.800009 351.283341 
L 748.799997 353.63449 
L 760.800004 342.053522 
L 772.80001 339.781701 
L 784.799999 344.540205 
L 796.800005 369.969308 
L 808.800011 367.280139 
L 820.8 376.932755 
L 832.799989 358.860869 
L 844.799977 341.812695 
L 856.800001 320.89664 
L 868.800026 326.595625 
L 880.800014 342.362309 
L 892.800003 331.96557 
L 904.799991 332.313162 
L 916.79998 346.590257 
L 928.800004 350.086227 
L 940.800029 362.70722 
L 952.800017 344.788284 
L 964.800006 367.360592 
L 976.799994 367.1837 
L 988.799983 370.513441 
L 1000.799971 368.313128 
L 1012.799996 358.942184 
L 1024.80002 369.112273 
L 1036.800009 363.361199 
L 1048.799997 373.626769 
L 1060.799986 363.389049 
L 1072.799974 376.022465 
L 1084.799999 370.707201 
L 1096.800023 376.870331 
L 1108.800011 367.446753 
L 1120.8 350.827527 
L 1132.799989 351.859105 
L 1144.799977 345.00286 
L 1156.800001 360.518402 
L 1168.800026 353.849292 
L 1168.800026 243.716515 
L 1168.800026 243.716515 
L 1156.800001 259.341878 
L 1144.799977 223.800541 
L 1132.799989 280.425956 
L 1120.8 296.292259 
L 1108.800011 324.222327 
L 1096.800023 329.188696 
L 1084.799999 322.98554 
L 1072.799974 325.778161 
L 1060.799986 320.459649 
L 1048.799997 332.395009 
L 1036.800009 331.487401 
L 1024.80002 342.135813 
L 1012.799996 331.565978 
L 1000.799971 339.034622 
L 988.799983 319.443804 
L 976.799994 310.090474 
L 964.800006 314.533795 
L 952.800017 306.144362 
L 940.800029 323.772474 
L 928.800004 298.657984 
L 916.79998 250.634981 
L 904.799991 220.312483 
L 892.800003 218.19634 
L 880.800014 265.45353 
L 868.800026 251.917247 
L 856.800001 254.520874 
L 844.799977 275.685302 
L 832.799989 298.320741 
L 820.8 320.30666 
L 808.800011 323.836929 
L 796.800005 340.485112 
L 784.799999 302.141799 
L 772.80001 287.791831 
L 760.800004 282.478116 
L 748.799997 306.839775 
L 736.800009 314.863136 
L 724.800002 289.379442 
L 712.799996 275.27422 
L 700.800007 282.349954 
L 688.800001 309.212042 
L 676.799994 299.679754 
L 664.800006 294.083435 
L 652.799999 299.600098 
L 640.799993 299.225768 
L 628.800004 285.333624 
L 616.799998 279.280965 
L 604.799991 307.346156 
L 592.800003 316.988931 
L 580.799996 310.907934 
L 568.79999 297.727595 
L 556.800001 262.797006 
L 544.799995 244.348059 
L 532.799989 222.431667 
L 520.8 204.704841 
L 508.800003 219.92446 
L 496.799996 244.829306 
L 484.799999 287.202546 
L 472.800001 293.940164 
L 460.799995 306.853379 
L 448.799997 312.049812 
L 436.8 286.989832 
L 424.800002 288.121093 
L 412.800005 309.999338 
L 400.799998 334.86329 
L 388.800001 316.208739 
L 376.800003 294.612774 
L 364.800001 278.982088 
L 352.799999 256.140039 
L 340.799997 217.646619 
L 328.8 235.295856 
L 316.800002 277.276894 
L 304.8 331.215864 
L 292.799998 342.642325 
L 280.800001 325.362794 
L 268.800001 309.620387 
L 256.8 284.989248 
L 244.8 294.446535 
L 232.8 314.192217 
L 220.8 323.649225 
L 208.8 322.141028 
L 196.8 308.571952 
L 184.8 305.621359 
L 172.799999 294.369579 
L 160.799999 300.846685 
L 148.800002 319.883387 
L 136.8 299.7704 
L 124.799998 295.67649 
L 112.8 285.697913 
L 100.800003 314.890033 
L 88.800001 329.019354 
L 76.799999 316.232261 
L 64.799997 324.778823 
L 52.799999 267.732903 
L 40.800002 285.552497 
L 28.799995 263.141776 
L 16.799998 341.290066 
z
" clip-path="url(#p288ca010bf)" style="fill: #7b4fa3; fill-opacity: 0.25"/>
   </g>
   <g id="matplotlib.axis_1">
    <g id="xtick_1">
     <g id="line2d_1">
      <defs>
       <path id="m2d216f91d8" d="M 0 0 
L 0 3.5 
" style="stroke: #000000; stroke-width: 0.8"/>
      </defs>
      <g>
       <use xlink:href="#m2d216f91d8" x="100.8" y="396" style="stroke: #000000; stroke-width: 0.8"/>
      </g>
     </g>
     <g id="text_1">
      <!-- −100 -->
      <g transform="translate(78.82625 415.1575) scale(0.16 -0.16)">
       <defs>
        <path id="DejaVuSans-2212" d="M 678 2272 
L 4684 2272 
L 4684 1741 
L 678 1741 
L 678 2272 
z
" transform="scale(0.015625)"/>
        <path id="DejaVuSans-31" d="M 794 531 
L 1825 531 
L 1825 4091 
L 703 3866 
L 703 4441 
L 1819 4666 
L 2450 4666 
L 2450 531 
L 3481 531 
L 3481 0 
L 794 0 
L 794 531 
z
" transform="scale(0.015625)"/>
        <path id="DejaVuSans-30" d="M 2034 4250 
Q 1547 4250 1301 3770 
Q 1056 3291 1056 2328 
Q 1056 1369 1301 889 
Q 1547 409 2034 409 
Q 2525 409 2770 889 
Q 3016 1369 3016 2328 
Q 3016 3291 2770 3770 
Q 2525 4250 2034 4250 
z
M 2034 4750 
Q 2819 4750 3233 4129 
Q 3647 3509 3647 2328 
Q 3647 1150 3233 529 
Q 2819 -91 2034 -91 
Q 1250 -91 836 529 
Q 422 1150 422 2328 
Q 422 3509 836 4129 
Q 1250 4750 2034 4750 
z
" transform="scale(0.015625)"/>
       </defs>
       <use xlink:href="#DejaVuSans-2212"/>
       <use xlink:href="#DejaVuSans-31" transform="translate(83.789062 0)"/>
       <use xlink:href="#DejaVuSans-30" transform="translate(147.412109 0)"/>
       <use xlink:href="#DejaVuSans-30" transform="translate(211.035156 0)"/>
      </g>
     </g>
    </g>
    <g id="xtick_2">
     <g id="line2d_2">
      <g>
       <use xlink:href="#m2d216f91d8" x="220.8" y="396" style="stroke: #000000; stroke-width: 0.8"/>
      </g>
     </g>
     <g id="text_2">
      <!-- 0 -->
      <g transform="translate(215.71 415.1575) scale(0.16 -0.16)">
       <use xlink:href="#DejaVuSans-30"/>
      </g>
     </g>
    </g>
    <g id="xtick_3">
     <g id="line2d_3">
      <g>
       <use xlink:href="#m2d216f91d8" x="340.8" y="396" style="stroke: #000000; stroke-width: 0.8"/>
      </g>
     </g>
     <g id="text_3">
      <!-- 100 -->
      <g transform="translate(325.53 415.1575) scale(0.16 -0.16)">
       <use xlink:href="#DejaVuSans-31"/>
       <use xlink:href="#DejaVuSans-30" transform="translate(63.623047 0)"/>
       <use xlink:href="#DejaVuSans-30" transform="translate(127.246094 0)"/>
      </g>
     </g>
    </g>
    <g id="xtick_4">
     <g id="line2d_4">
      <g>
       <use xlink:href="#m2d216f91d8" x="460.8" y="396" style="stroke: #000000; stroke-width: 0.8"/>
      </g>
     </g>
     <g id="text_4">
      <!-- 200 -->
      <g transform="translate(445.53 415.1575) scale(0.16 -0.16)">
       <defs>
        <path id="DejaVuSans-32" d="M 1228 531 
L 3431 531 
L 3431 0 
L 469 0 
L 469 531 
Q 828 903 1448 1529 
Q 2069 2156 2228 2338 
Q 2531 2678 2651 2914 
Q 2772 3150 2772 3378 
Q 2772 3750 2511 3984 
Q 2250 4219 1831 4219 
Q 1534 4219 1204 4116 
Q 875 4013 500 3803 
L 500 4441 
Q 881 4594 1212 4672 
Q 1544 4750 1819 4750 
Q 2544 4750 2975 4387 
Q 3406 4025 3406 3419 
Q 3406 3131 3298 2873 
Q 3191 2616 2906 2266 
Q 2828 2175 2409 1742 
Q 1991 1309 1228 531 
z
" transform="scale(0.015625)"/>
       </defs>
       <use xlink:href="#DejaVuSans-32"/>
       <use xlink:href="#DejaVuSans-30" transform="translate(63.623047 0)"/>
       <use xlink:href="#DejaVuSans-30" transform="translate(127.246094 0)"/>
      </g>
     </g>
    </g>
    <g id="xtick_5">
     <g id="line2d_5">
      <g>
       <use xlink:href="#m2d216f91d8" x="580.8" y="396" style="stroke: #000000; stroke-width: 0.8"/>
      </g>
     </g>
     <g id="text_5">
      <!-- 300 -->
      <g transform="translate(565.53 415.1575) scale(0.16 -0.16)">
       <defs>
        <path id="DejaVuSans-33" d="M 2597 2516 
Q 3050 2419 3304 2112 
Q 3559 1806 3559 1356 
Q 3559 666 3084 287 
Q 2609 -91 1734 -91 
Q 1441 -91 1130 -33 
Q 819 25 488 141 
L 488 750 
Q 750 597 1062 519 
Q 1375 441 1716 441 
Q 2309 441 2620 675 
Q 2931 909 2931 1356 
Q 2931 1769 2642 2001 
Q 2353 2234 1838 2234 
L 1294 2234 
L 1294 2753 
L 1863 2753 
Q 2328 2753 2575 2939 
Q 2822 3125 2822 3475 
Q 2822 3834 2567 4026 
Q 2313 4219 1838 4219 
Q 1578 4219 1281 4162 
Q 984 4106 628 3988 
L 628 4550 
Q 988 4650 1302 4700 
Q 1616 4750 1894 4750 
Q 2613 4750 3031 4423 
Q 3450 4097 3450 3541 
Q 3450 3153 3228 2886 
Q 3006 2619 2597 2516 
z
" transform="scale(0.015625)"/>
       </defs>
       <use xlink:href="#DejaVuSans-33"/>
       <use xlink:href="#DejaVuSans-30" transform="translate(63.623047 0)"/>
       <use xlink:href="#DejaVuSans-30" transform="translate(127.246094 0)"/>
      </g>
     </g>
    </g>
    <g id="xtick_6">
     <g id="line2d_6">
      <g>
       <use xlink:href="#m2d216f91d8" x="700.8" y="396" style="stroke: #000000; stroke-width: 0.8"/>
      </g>
     </g>
     <g id="text_6">
      <!-- 400 -->
      <g transform="translate(685.53 415.1575) scale(0.16 -0.16)">
       <defs>
        <path id="DejaVuSans-34" d="M 2419 4116 
L 825 1625 
L 2419 1625 
L 2419 4116 
z
M 2253 4666 
L 3047 4666 
L 3047 1625 
L 3713 1625 
L 3713 1100 
L 3047 1100 
L 3047 0 
L 2419 0 
L 2419 1100 
L 313 1100 
L 313 1709 
L 2253 4666 
z
" transform="scale(0.015625)"/>
       </defs>
       <use xlink:href="#DejaVuSans-34"/>
       <use xlink:href="#DejaVuSans-30" transform="translate(63.623047 0)"/>
       <use xlink:href="#DejaVuSans-30" transform="translate(127.246094 0)"/>
      </g>
     </g>
    </g>
    <g id="xtick_7">
     <g id="line2d_7">
      <g>
       <use xlink:href="#m2d216f91d8" x="820.8" y="396" style="stroke: #000000; stroke-width: 0.8"/>
      </g>
     </g>
     <g id="text_7">
      <!-- 500 -->
      <g transform="translate(805.53 415.1575) scale(0.16 -0.16)">
       <defs>
        <path id="DejaVuSans-35" d="M 691 4666 
L 3169 4666 
L 3169 4134 
L 1269 4134 
L 1269 2991 
Q 1406 3038 1543 3061 
Q 1681 3084 1819 3084 
Q 2600 3084 3056 2656 
Q 3513 2228 3513 1497 
Q 3513 744 3044 326 
Q 2575 -91 1722 -91 
Q 1428 -91 1123 -41 
Q 819 9 494 109 
L 494 744 
Q 775 591 1075 516 
Q 1375 441 1709 441 
Q 2250 441 2565 725 
Q 2881 1009 2881 1497 
Q 2881 1984 2565 2268 
Q 2250 2553 1709 2553 
Q 1456 2553 1204 2497 
Q 953 2441 691 2322 
L 691 4666 
z
" transform="scale(0.015625)"/>
       </defs>
       <use xlink:href="#DejaVuSans-35"/>
       <use xlink:href="#DejaVuSans-30" transform="translate(63.623047 0)"/>
       <use xlink:href="#DejaVuSans-30" transform="translate(127.246094 0)"/>
      </g>
     </g>
    </g>
    <g id="text_8">
     <!-- Time from Stimulus Onset (ms) -->
     <g transform="translate(320.273438 436.162187) scale(0.18 -0.18)">
      <defs>
       <path id="DejaVuSans-54" d="M -19 4666 
L 3928 4666 
L 3928 4134 
L 2272 4134 
L 2272 0 
L 1638 0 
L 1638 4134 
L -19 4134 
L -19 4666 
z
" transform="scale(0.015625)"/>
       <path id="DejaVuSans-69" d="M 603 3500 
L 1178 3500 
L 1178 0 
L 603 0 
L 603 3500 
z
M 603 4863 
L 1178 4863 
L 1178 4134 
L 603 4134 
L 603 4863 
z
" transform="scale(0.015625)"/>
       <path id="DejaVuSans-6d" d="M 3328 2828 
Q 3544 3216 3844 3400 
Q 4144 3584 4550 3584 
Q 5097 3584 5394 3201 
Q 5691 2819 5691 2113 
L 5691 0 
L 5113 0 
L 5113 2094 
Q 5113 2597 4934 2840 
Q 4756 3084 4391 3084 
Q 3944 3084 3684 2787 
Q 3425 2491 3425 1978 
L 3425 0 
L 2847 0 
L 2847 2094 
Q 2847 2600 2669 2842 
Q 2491 3084 2119 3084 
Q 1678 3084 1418 2786 
Q 1159 2488 1159 1978 
L 1159 0 
L 581 0 
L 581 3500 
L 1159 3500 
L 1159 2956 
Q 1356 3278 1631 3431 
Q 1906 3584 2284 3584 
Q 2666 3584 2933 3390 
Q 3200 3197 3328 2828 
z
" transform="scale(0.015625)"/>
       <path id="DejaVuSans-65" d="M 3597 1894 
L 3597 1613 
L 953 1613 
Q 991 1019 1311 708 
Q 1631 397 2203 397 
Q 2534 397 2845 478 
Q 3156 559 3463 722 
L 3463 178 
Q 3153 47 2828 -22 
Q 2503 -91 2169 -91 
Q 1331 -91 842 396 
Q 353 884 353 1716 
Q 353 2575 817 3079 
Q 1281 3584 2069 3584 
Q 2775 3584 3186 3129 
Q 3597 2675 3597 1894 
z
M 3022 2063 
Q 3016 2534 2758 2815 
Q 2500 3097 2075 3097 
Q 1594 3097 1305 2825 
Q 1016 2553 972 2059 
L 3022 2063 
z
" transform="scale(0.015625)"/>
       <path id="DejaVuSans-20" transform="scale(0.015625)"/>
       <path id="DejaVuSans-66" d="M 2375 4863 
L 2375 4384 
L 1825 4384 
Q 1516 4384 1395 4259 
Q 1275 4134 1275 3809 
L 1275 3500 
L 2222 3500 
L 2222 3053 
L 1275 3053 
L 1275 0 
L 697 0 
L 697 3053 
L 147 3053 
L 147 3500 
L 697 3500 
L 697 3744 
Q 697 4328 969 4595 
Q 1241 4863 1831 4863 
L 2375 4863 
z
" transform="scale(0.015625)"/>
       <path id="DejaVuSans-72" d="M 2631 2963 
Q 2534 3019 2420 3045 
Q 2306 3072 2169 3072 
Q 1681 3072 1420 2755 
Q 1159 2438 1159 1844 
L 1159 0 
L 581 0 
L 581 3500 
L 1159 3500 
L 1159 2956 
Q 1341 3275 1631 3429 
Q 1922 3584 2338 3584 
Q 2397 3584 2469 3576 
Q 2541 3569 2628 3553 
L 2631 2963 
z
" transform="scale(0.015625)"/>
       <path id="DejaVuSans-6f" d="M 1959 3097 
Q 1497 3097 1228 2736 
Q 959 2375 959 1747 
Q 959 1119 1226 758 
Q 1494 397 1959 397 
Q 2419 397 2687 759 
Q 2956 1122 2956 1747 
Q 2956 2369 2687 2733 
Q 2419 3097 1959 3097 
z
M 1959 3584 
Q 2709 3584 3137 3096 
Q 3566 2609 3566 1747 
Q 3566 888 3137 398 
Q 2709 -91 1959 -91 
Q 1206 -91 779 398 
Q 353 888 353 1747 
Q 353 2609 779 3096 
Q 1206 3584 1959 3584 
z
" transform="scale(0.015625)"/>
       <path id="DejaVuSans-53" d="M 3425 4513 
L 3425 3897 
Q 3066 4069 2747 4153 
Q 2428 4238 2131 4238 
Q 1616 4238 1336 4038 
Q 1056 3838 1056 3469 
Q 1056 3159 1242 3001 
Q 1428 2844 1947 2747 
L 2328 2669 
Q 3034 2534 3370 2195 
Q 3706 1856 3706 1288 
Q 3706 609 3251 259 
Q 2797 -91 1919 -91 
Q 1588 -91 1214 -16 
Q 841 59 441 206 
L 441 856 
Q 825 641 1194 531 
Q 1563 422 1919 422 
Q 2459 422 2753 634 
Q 3047 847 3047 1241 
Q 3047 1584 2836 1778 
Q 2625 1972 2144 2069 
L 1759 2144 
Q 1053 2284 737 2584 
Q 422 2884 422 3419 
Q 422 4038 858 4394 
Q 1294 4750 2059 4750 
Q 2388 4750 2728 4690 
Q 3069 4631 3425 4513 
z
" transform="scale(0.015625)"/>
       <path id="DejaVuSans-74" d="M 1172 4494 
L 1172 3500 
L 2356 3500 
L 2356 3053 
L 1172 3053 
L 1172 1153 
Q 1172 725 1289 603 
Q 1406 481 1766 481 
L 2356 481 
L 2356 0 
L 1766 0 
Q 1100 0 847 248 
Q 594 497 594 1153 
L 594 3053 
L 172 3053 
L 172 3500 
L 594 3500 
L 594 4494 
L 1172 4494 
z
" transform="scale(0.015625)"/>
       <path id="DejaVuSans-75" d="M 544 1381 
L 544 3500 
L 1119 3500 
L 1119 1403 
Q 1119 906 1312 657 
Q 1506 409 1894 409 
Q 2359 409 2629 706 
Q 2900 1003 2900 1516 
L 2900 3500 
L 3475 3500 
L 3475 0 
L 2900 0 
L 2900 538 
Q 2691 219 2414 64 
Q 2138 -91 1772 -91 
Q 1169 -91 856 284 
Q 544 659 544 1381 
z
M 1991 3584 
L 1991 3584 
z
" transform="scale(0.015625)"/>
       <path id="DejaVuSans-6c" d="M 603 4863 
L 1178 4863 
L 1178 0 
L 603 0 
L 603 4863 
z
" transform="scale(0.015625)"/>
       <path id="DejaVuSans-73" d="M 2834 3397 
L 2834 2853 
Q 2591 2978 2328 3040 
Q 2066 3103 1784 3103 
Q 1356 3103 1142 2972 
Q 928 2841 928 2578 
Q 928 2378 1081 2264 
Q 1234 2150 1697 2047 
L 1894 2003 
Q 2506 1872 2764 1633 
Q 3022 1394 3022 966 
Q 3022 478 2636 193 
Q 2250 -91 1575 -91 
Q 1294 -91 989 -36 
Q 684 19 347 128 
L 347 722 
Q 666 556 975 473 
Q 1284 391 1588 391 
Q 1994 391 2212 530 
Q 2431 669 2431 922 
Q 2431 1156 2273 1281 
Q 2116 1406 1581 1522 
L 1381 1569 
Q 847 1681 609 1914 
Q 372 2147 372 2553 
Q 372 3047 722 3315 
Q 1072 3584 1716 3584 
Q 2034 3584 2315 3537 
Q 2597 3491 2834 3397 
z
" transform="scale(0.015625)"/>
       <path id="DejaVuSans-4f" d="M 2522 4238 
Q 1834 4238 1429 3725 
Q 1025 3213 1025 2328 
Q 1025 1447 1429 934 
Q 1834 422 2522 422 
Q 3209 422 3611 934 
Q 4013 1447 4013 2328 
Q 4013 3213 3611 3725 
Q 3209 4238 2522 4238 
z
M 2522 4750 
Q 3503 4750 4090 4092 
Q 4678 3434 4678 2328 
Q 4678 1225 4090 567 
Q 3503 -91 2522 -91 
Q 1538 -91 948 565 
Q 359 1222 359 2328 
Q 359 3434 948 4092 
Q 1538 4750 2522 4750 
z
" transform="scale(0.015625)"/>
       <path id="DejaVuSans-6e" d="M 3513 2113 
L 3513 0 
L 2938 0 
L 2938 2094 
Q 2938 2591 2744 2837 
Q 2550 3084 2163 3084 
Q 1697 3084 1428 2787 
Q 1159 2491 1159 1978 
L 1159 0 
L 581 0 
L 581 3500 
L 1159 3500 
L 1159 2956 
Q 1366 3272 1645 3428 
Q 1925 3584 2291 3584 
Q 2894 3584 3203 3211 
Q 3513 2838 3513 2113 
z
" transform="scale(0.015625)"/>
       <path id="DejaVuSans-28" d="M 1984 4856 
Q 1566 4138 1362 3434 
Q 1159 2731 1159 2009 
Q 1159 1288 1364 580 
Q 1569 -128 1984 -844 
L 1484 -844 
Q 1016 -109 783 600 
Q 550 1309 550 2009 
Q 550 2706 781 3412 
Q 1013 4119 1484 4856 
L 1984 4856 
z
" transform="scale(0.015625)"/>
       <path id="DejaVuSans-29" d="M 513 4856 
L 1013 4856 
Q 1481 4119 1714 3412 
Q 1947 2706 1947 2009 
Q 1947 1309 1714 600 
Q 1481 -109 1013 -844 
L 513 -844 
Q 928 -128 1133 580 
Q 1338 1288 1338 2009 
Q 1338 2731 1133 3434 
Q 928 4138 513 4856 
z
" transform="scale(0.015625)"/>
      </defs>
      <use xlink:href="#DejaVuSans-54"/>
      <use xlink:href="#DejaVuSans-69" transform="translate(57.958984 0)"/>
      <use xlink:href="#DejaVuSans-6d" transform="translate(85.742188 0)"/>
      <use xlink:href="#DejaVuSans-65" transform="translate(183.154297 0)"/>
      <use xlink:href="#DejaVuSans-20" transform="translate(244.677734 0)"/>
      <use xlink:href="#DejaVuSans-66" transform="translate(276.464844 0)"/>
      <use xlink:href="#DejaVuSans-72" transform="translate(311.669922 0)"/>
      <use xlink:href="#DejaVuSans-6f" transform="translate(350.533203 0)"/>
      <use xlink:href="#DejaVuSans-6d" transform="translate(411.714844 0)"/>
      <use xlink:href="#DejaVuSans-20" transform="translate(509.126953 0)"/>
      <use xlink:href="#DejaVuSans-53" transform="translate(540.914062 0)"/>
      <use xlink:href="#DejaVuSans-74" transform="translate(604.390625 0)"/>
      <use xlink:href="#DejaVuSans-69" transform="translate(643.599609 0)"/>
      <use xlink:href="#DejaVuSans-6d" transform="translate(671.382812 0)"/>
      <use xlink:href="#DejaVuSans-75" transform="translate(768.794922 0)"/>
      <use xlink:href="#DejaVuSans-6c" transform="translate(832.173828 0)"/>
      <use xlink:href="#DejaVuSans-75" transform="translate(859.957031 0)"/>
      <use xlink:href="#DejaVuSans-73" transform="translate(923.335938 0)"/>
      <use xlink:href="#DejaVuSans-20" transform="translate(975.435547 0)"/>
      <use xlink:href="#DejaVuSans-4f" transform="translate(1007.222656 0)"/>
      <use xlink:href="#DejaVuSans-6e" transform="translate(1085.933594 0)"/>
      <use xlink:href="#DejaVuSans-73" transform="translate(1149.3125 0)"/>
      <use xlink:href="#DejaVuSans-65" transform="translate(1201.412109 0)"/>
      <use xlink:href="#DejaVuSans-74" transform="translate(1262.935547 0)"/>
      <use xlink:href="#DejaVuSans-20" transform="translate(1302.144531 0)"/>
      <use xlink:href="#DejaVuSans-28" transform="translate(1333.931641 0)"/>
      <use xlink:href="#DejaVuSans-6d" transform="translate(1372.945312 0)"/>
      <use xlink:href="#DejaVuSans-73" transform="translate(1470.357422 0)"/>
      <use xlink:href="#DejaVuSans-29" transform="translate(1522.457031 0)"/>
     </g>
    </g>
   </g>
   <g id="matplotlib.axis_2">
    <g id="ytick_1">
     <g id="line2d_8">
      <defs>
       <path id="m2a57506b90" d="M 0 0 
L -3.5 0 
" style="stroke: #000000; stroke-width: 0.8"/>
      </defs>
      <g>
       <use xlink:href="#m2a57506b90" x="100.8" y="346.569195" style="stroke: #000000; stroke-width: 0.8"/>
      </g>
     </g>
     <g id="text_9">
      <!-- 0.00 -->
      <g transform="translate(58.175 352.647945) scale(0.16 -0.16)">
       <defs>
        <path id="DejaVuSans-2e" d="M 684 794 
L 1344 794 
L 1344 0 
L 684 0 
L 684 794 
z
" transform="scale(0.015625)"/>
       </defs>
       <use xlink:href="#DejaVuSans-30"/>
       <use xlink:href="#DejaVuSans-2e" transform="translate(63.623047 0)"/>
       <use xlink:href="#DejaVuSans-30" transform="translate(95.410156 0)"/>
       <use xlink:href="#DejaVuSans-30" transform="translate(159.033203 0)"/>
      </g>
     </g>
    </g>
    <g id="ytick_2">
     <g id="line2d_9">
      <g>
       <use xlink:href="#m2a57506b90" x="100.8" y="295.509043" style="stroke: #000000; stroke-width: 0.8"/>
      </g>
     </g>
     <g id="text_10">
      <!-- 0.02 -->
      <g transform="translate(58.175 301.587793) scale(0.16 -0.16)">
       <use xlink:href="#DejaVuSans-30"/>
       <use xlink:href="#DejaVuSans-2e" transform="translate(63.623047 0)"/>
       <use xlink:href="#DejaVuSans-30" transform="translate(95.410156 0)"/>
       <use xlink:href="#DejaVuSans-32" transform="translate(159.033203 0)"/>
      </g>
     </g>
    </g>
    <g id="ytick_3">
     <g id="line2d_10">
      <g>
       <use xlink:href="#m2a57506b90" x="100.8" y="244.448892" style="stroke: #000000; stroke-width: 0.8"/>
      </g>
     </g>
     <g id="text_11">
      <!-- 0.04 -->
      <g transform="translate(58.175 250.527642) scale(0.16 -0.16)">
       <use xlink:href="#DejaVuSans-30"/>
       <use xlink:href="#DejaVuSans-2e" transform="translate(63.623047 0)"/>
       <use xlink:href="#DejaVuSans-30" transform="translate(95.410156 0)"/>
       <use xlink:href="#DejaVuSans-34" transform="translate(159.033203 0)"/>
      </g>
     </g>
    </g>
    <g id="ytick_4">
     <g id="line2d_11">
      <g>
       <use xlink:href="#m2a57506b90" x="100.8" y="193.38874" style="stroke: #000000; stroke-width: 0.8"/>
      </g>
     </g>
     <g id="text_12">
      <!-- 0.06 -->
      <g transform="translate(58.175 199.46749) scale(0.16 -0.16)">
       <defs>
        <path id="DejaVuSans-36" d="M 2113 2584 
Q 1688 2584 1439 2293 
Q 1191 2003 1191 1497 
Q 1191 994 1439 701 
Q 1688 409 2113 409 
Q 2538 409 2786 701 
Q 3034 994 3034 1497 
Q 3034 2003 2786 2293 
Q 2538 2584 2113 2584 
z
M 3366 4563 
L 3366 3988 
Q 3128 4100 2886 4159 
Q 2644 4219 2406 4219 
Q 1781 4219 1451 3797 
Q 1122 3375 1075 2522 
Q 1259 2794 1537 2939 
Q 1816 3084 2150 3084 
Q 2853 3084 3261 2657 
Q 3669 2231 3669 1497 
Q 3669 778 3244 343 
Q 2819 -91 2113 -91 
Q 1303 -91 875 529 
Q 447 1150 447 2328 
Q 447 3434 972 4092 
Q 1497 4750 2381 4750 
Q 2619 4750 2861 4703 
Q 3103 4656 3366 4563 
z
" transform="scale(0.015625)"/>
       </defs>
       <use xlink:href="#DejaVuSans-30"/>
       <use xlink:href="#DejaVuSans-2e" transform="translate(63.623047 0)"/>
       <use xlink:href="#DejaVuSans-30" transform="translate(95.410156 0)"/>
       <use xlink:href="#DejaVuSans-36" transform="translate(159.033203 0)"/>
      </g>
     </g>
    </g>
    <g id="ytick_5">
     <g id="line2d_12">
      <g>
       <use xlink:href="#m2a57506b90" x="100.8" y="142.328589" style="stroke: #000000; stroke-width: 0.8"/>
      </g>
     </g>
     <g id="text_13">
      <!-- 0.08 -->
      <g transform="translate(58.175 148.407339) scale(0.16 -0.16)">
       <defs>
        <path id="DejaVuSans-38" d="M 2034 2216 
Q 1584 2216 1326 1975 
Q 1069 1734 1069 1313 
Q 1069 891 1326 650 
Q 1584 409 2034 409 
Q 2484 409 2743 651 
Q 3003 894 3003 1313 
Q 3003 1734 2745 1975 
Q 2488 2216 2034 2216 
z
M 1403 2484 
Q 997 2584 770 2862 
Q 544 3141 544 3541 
Q 544 4100 942 4425 
Q 1341 4750 2034 4750 
Q 2731 4750 3128 4425 
Q 3525 4100 3525 3541 
Q 3525 3141 3298 2862 
Q 3072 2584 2669 2484 
Q 3125 2378 3379 2068 
Q 3634 1759 3634 1313 
Q 3634 634 3220 271 
Q 2806 -91 2034 -91 
Q 1263 -91 848 271 
Q 434 634 434 1313 
Q 434 1759 690 2068 
Q 947 2378 1403 2484 
z
M 1172 3481 
Q 1172 3119 1398 2916 
Q 1625 2713 2034 2713 
Q 2441 2713 2670 2916 
Q 2900 3119 2900 3481 
Q 2900 3844 2670 4047 
Q 2441 4250 2034 4250 
Q 1625 4250 1398 4047 
Q 1172 3844 1172 3481 
z
" transform="scale(0.015625)"/>
       </defs>
       <use xlink:href="#DejaVuSans-30"/>
       <use xlink:href="#DejaVuSans-2e" transform="translate(63.623047 0)"/>
       <use xlink:href="#DejaVuSans-30" transform="translate(95.410156 0)"/>
       <use xlink:href="#DejaVuSans-38" transform="translate(159.033203 0)"/>
      </g>
     </g>
    </g>
    <g id="ytick_6">
     <g id="line2d_13">
      <g>
       <use xlink:href="#m2a57506b90" x="100.8" y="91.268437" style="stroke: #000000; stroke-width: 0.8"/>
      </g>
     </g>
     <g id="text_14">
      <!-- 0.10 -->
      <g transform="translate(58.175 97.347187) scale(0.16 -0.16)">
       <use xlink:href="#DejaVuSans-30"/>
       <use xlink:href="#DejaVuSans-2e" transform="translate(63.623047 0)"/>
       <use xlink:href="#DejaVuSans-31" transform="translate(95.410156 0)"/>
       <use xlink:href="#DejaVuSans-30" transform="translate(159.033203 0)"/>
      </g>
     </g>
    </g>
    <g id="ytick_7">
     <g id="line2d_14">
      <g>
       <use xlink:href="#m2a57506b90" x="100.8" y="40.208286" style="stroke: #000000; stroke-width: 0.8"/>
      </g>
     </g>
     <g id="text_15">
      <!-- 0.12 -->
      <g transform="translate(58.175 46.287036) scale(0.16 -0.16)">
       <use xlink:href="#DejaVuSans-30"/>
       <use xlink:href="#DejaVuSans-2e" transform="translate(63.623047 0)"/>
       <use xlink:href="#DejaVuSans-31" transform="translate(95.410156 0)"/>
       <use xlink:href="#DejaVuSans-32" transform="translate(159.033203 0)"/>
      </g>
     </g>
    </g>
    <g id="text_16">
     <!-- Directed predictability gain (bits) -->
     <g transform="translate(50.431562 364.685625) rotate(-90) scale(0.18 -0.18)">
      <defs>
       <path id="DejaVuSans-44" d="M 1259 4147 
L 1259 519 
L 2022 519 
Q 2988 519 3436 956 
Q 3884 1394 3884 2338 
Q 3884 3275 3436 3711 
Q 2988 4147 2022 4147 
L 1259 4147 
z
M 628 4666 
L 1925 4666 
Q 3281 4666 3915 4102 
Q 4550 3538 4550 2338 
Q 4550 1131 3912 565 
Q 3275 0 1925 0 
L 628 0 
L 628 4666 
z
" transform="scale(0.015625)"/>
       <path id="DejaVuSans-63" d="M 3122 3366 
L 3122 2828 
Q 2878 2963 2633 3030 
Q 2388 3097 2138 3097 
Q 1578 3097 1268 2742 
Q 959 2388 959 1747 
Q 959 1106 1268 751 
Q 1578 397 2138 397 
Q 2388 397 2633 464 
Q 2878 531 3122 666 
L 3122 134 
Q 2881 22 2623 -34 
Q 2366 -91 2075 -91 
Q 1284 -91 818 406 
Q 353 903 353 1747 
Q 353 2603 823 3093 
Q 1294 3584 2113 3584 
Q 2378 3584 2631 3529 
Q 2884 3475 3122 3366 
z
" transform="scale(0.015625)"/>
       <path id="DejaVuSans-64" d="M 2906 2969 
L 2906 4863 
L 3481 4863 
L 3481 0 
L 2906 0 
L 2906 525 
Q 2725 213 2448 61 
Q 2172 -91 1784 -91 
Q 1150 -91 751 415 
Q 353 922 353 1747 
Q 353 2572 751 3078 
Q 1150 3584 1784 3584 
Q 2172 3584 2448 3432 
Q 2725 3281 2906 2969 
z
M 947 1747 
Q 947 1113 1208 752 
Q 1469 391 1925 391 
Q 2381 391 2643 752 
Q 2906 1113 2906 1747 
Q 2906 2381 2643 2742 
Q 2381 3103 1925 3103 
Q 1469 3103 1208 2742 
Q 947 2381 947 1747 
z
" transform="scale(0.015625)"/>
       <path id="DejaVuSans-70" d="M 1159 525 
L 1159 -1331 
L 581 -1331 
L 581 3500 
L 1159 3500 
L 1159 2969 
Q 1341 3281 1617 3432 
Q 1894 3584 2278 3584 
Q 2916 3584 3314 3078 
Q 3713 2572 3713 1747 
Q 3713 922 3314 415 
Q 2916 -91 2278 -91 
Q 1894 -91 1617 61 
Q 1341 213 1159 525 
z
M 3116 1747 
Q 3116 2381 2855 2742 
Q 2594 3103 2138 3103 
Q 1681 3103 1420 2742 
Q 1159 2381 1159 1747 
Q 1159 1113 1420 752 
Q 1681 391 2138 391 
Q 2594 391 2855 752 
Q 3116 1113 3116 1747 
z
" transform="scale(0.015625)"/>
       <path id="DejaVuSans-61" d="M 2194 1759 
Q 1497 1759 1228 1600 
Q 959 1441 959 1056 
Q 959 750 1161 570 
Q 1363 391 1709 391 
Q 2188 391 2477 730 
Q 2766 1069 2766 1631 
L 2766 1759 
L 2194 1759 
z
M 3341 1997 
L 3341 0 
L 2766 0 
L 2766 531 
Q 2569 213 2275 61 
Q 1981 -91 1556 -91 
Q 1019 -91 701 211 
Q 384 513 384 1019 
Q 384 1609 779 1909 
Q 1175 2209 1959 2209 
L 2766 2209 
L 2766 2266 
Q 2766 2663 2505 2880 
Q 2244 3097 1772 3097 
Q 1472 3097 1187 3025 
Q 903 2953 641 2809 
L 641 3341 
Q 956 3463 1253 3523 
Q 1550 3584 1831 3584 
Q 2591 3584 2966 3190 
Q 3341 2797 3341 1997 
z
" transform="scale(0.015625)"/>
       <path id="DejaVuSans-62" d="M 3116 1747 
Q 3116 2381 2855 2742 
Q 2594 3103 2138 3103 
Q 1681 3103 1420 2742 
Q 1159 2381 1159 1747 
Q 1159 1113 1420 752 
Q 1681 391 2138 391 
Q 2594 391 2855 752 
Q 3116 1113 3116 1747 
z
M 1159 2969 
Q 1341 3281 1617 3432 
Q 1894 3584 2278 3584 
Q 2916 3584 3314 3078 
Q 3713 2572 3713 1747 
Q 3713 922 3314 415 
Q 2916 -91 2278 -91 
Q 1894 -91 1617 61 
Q 1341 213 1159 525 
L 1159 0 
L 581 0 
L 581 4863 
L 1159 4863 
L 1159 2969 
z
" transform="scale(0.015625)"/>
       <path id="DejaVuSans-79" d="M 2059 -325 
Q 1816 -950 1584 -1140 
Q 1353 -1331 966 -1331 
L 506 -1331 
L 506 -850 
L 844 -850 
Q 1081 -850 1212 -737 
Q 1344 -625 1503 -206 
L 1606 56 
L 191 3500 
L 800 3500 
L 1894 763 
L 2988 3500 
L 3597 3500 
L 2059 -325 
z
" transform="scale(0.015625)"/>
       <path id="DejaVuSans-67" d="M 2906 1791 
Q 2906 2416 2648 2759 
Q 2391 3103 1925 3103 
Q 1463 3103 1205 2759 
Q 947 2416 947 1791 
Q 947 1169 1205 825 
Q 1463 481 1925 481 
Q 2391 481 2648 825 
Q 2906 1169 2906 1791 
z
M 3481 434 
Q 3481 -459 3084 -895 
Q 2688 -1331 1869 -1331 
Q 1566 -1331 1297 -1286 
Q 1028 -1241 775 -1147 
L 775 -588 
Q 1028 -725 1275 -790 
Q 1522 -856 1778 -856 
Q 2344 -856 2625 -561 
Q 2906 -266 2906 331 
L 2906 616 
Q 2728 306 2450 153 
Q 2172 0 1784 0 
Q 1141 0 747 490 
Q 353 981 353 1791 
Q 353 2603 747 3093 
Q 1141 3584 1784 3584 
Q 2172 3584 2450 3431 
Q 2728 3278 2906 2969 
L 2906 3500 
L 3481 3500 
L 3481 434 
z
" transform="scale(0.015625)"/>
      </defs>
      <use xlink:href="#DejaVuSans-44"/>
      <use xlink:href="#DejaVuSans-69" transform="translate(77.001953 0)"/>
      <use xlink:href="#DejaVuSans-72" transform="translate(104.785156 0)"/>
      <use xlink:href="#DejaVuSans-65" transform="translate(143.648438 0)"/>
      <use xlink:href="#DejaVuSans-63" transform="translate(205.171875 0)"/>
      <use xlink:href="#DejaVuSans-74" transform="translate(260.152344 0)"/>
      <use xlink:href="#DejaVuSans-65" transform="translate(299.361328 0)"/>
      <use xlink:href="#DejaVuSans-64" transform="translate(360.884766 0)"/>
      <use xlink:href="#DejaVuSans-20" transform="translate(424.361328 0)"/>
      <use xlink:href="#DejaVuSans-70" transform="translate(456.148438 0)"/>
      <use xlink:href="#DejaVuSans-72" transform="translate(519.625 0)"/>
      <use xlink:href="#DejaVuSans-65" transform="translate(558.488281 0)"/>
      <use xlink:href="#DejaVuSans-64" transform="translate(620.011719 0)"/>
      <use xlink:href="#DejaVuSans-69" transform="translate(683.488281 0)"/>
      <use xlink:href="#DejaVuSans-63" transform="translate(711.271484 0)"/>
      <use xlink:href="#DejaVuSans-74" transform="translate(766.251953 0)"/>
      <use xlink:href="#DejaVuSans-61" transform="translate(805.460938 0)"/>
      <use xlink:href="#DejaVuSans-62" transform="translate(866.740234 0)"/>
      <use xlink:href="#DejaVuSans-69" transform="translate(930.216797 0)"/>
      <use xlink:href="#DejaVuSans-6c" transform="translate(958 0)"/>
      <use xlink:href="#DejaVuSans-69" transform="translate(985.783203 0)"/>
      <use xlink:href="#DejaVuSans-74" transform="translate(1013.566406 0)"/>
      <use xlink:href="#DejaVuSans-79" transform="translate(1052.775391 0)"/>
      <use xlink:href="#DejaVuSans-20" transform="translate(1111.955078 0)"/>
      <use xlink:href="#DejaVuSans-67" transform="translate(1143.742188 0)"/>
      <use xlink:href="#DejaVuSans-61" transform="translate(1207.21875 0)"/>
      <use xlink:href="#DejaVuSans-69" transform="translate(1268.498047 0)"/>
      <use xlink:href="#DejaVuSans-6e" transform="translate(1296.28125 0)"/>
      <use xlink:href="#DejaVuSans-20" transform="translate(1359.660156 0)"/>
      <use xlink:href="#DejaVuSans-28" transform="translate(1391.447266 0)"/>
      <use xlink:href="#DejaVuSans-62" transform="translate(1430.460938 0)"/>
      <use xlink:href="#DejaVuSans-69" transform="translate(1493.9375 0)"/>
      <use xlink:href="#DejaVuSans-74" transform="translate(1521.720703 0)"/>
      <use xlink:href="#DejaVuSans-73" transform="translate(1560.929688 0)"/>
      <use xlink:href="#DejaVuSans-29" transform="translate(1613.029297 0)"/>
     </g>
    </g>
   </g>
   <g id="line2d_15">
    <path d="M 220.8 396 
L 220.8 36 
" clip-path="url(#p288ca010bf)" style="fill: none; stroke-dasharray: 2.96,1.28; stroke-dashoffset: 0; stroke: #000000; stroke-width: 0.8"/>
   </g>
   <g id="line2d_16">
    <path d="M 100.8 346.569195 
L 820.8 346.569195 
" clip-path="url(#p288ca010bf)" style="fill: none; stroke-dasharray: 0.8,1.32; stroke-dashoffset: 0; stroke: #000000; stroke-width: 0.8"/>
   </g>
   <g id="line2d_17">
    <path d="M 16.799998 185.487065 
L 28.799995 253.260867 
L 40.800002 288.966528 
L 52.799999 330.829847 
L 64.799997 342.790732 
L 76.799999 326.782476 
L 88.800001 344.237444 
L 100.800003 342.100874 
L 112.8 342.67255 
L 124.799998 329.196292 
L 136.8 334.873346 
L 148.800002 330.476163 
L 160.799999 347.274113 
L 172.799999 333.780209 
L 184.8 333.933043 
L 196.8 325.826435 
L 208.8 322.650757 
L 220.8 329.15581 
L 232.8 320.371566 
L 244.8 334.648488 
L 256.8 346.421288 
L 268.800001 344.141147 
L 280.800001 317.178334 
L 292.799998 303.613484 
L 304.8 316.871375 
L 316.800002 330.005365 
L 328.8 333.307998 
L 340.799997 338.572632 
L 352.799999 327.144998 
L 364.800001 318.429348 
L 376.800003 306.463537 
L 388.800001 320.215997 
L 400.799998 334.097545 
L 412.800005 325.603903 
L 424.800002 325.308249 
L 436.8 328.48716 
L 448.799997 335.361674 
L 460.799995 336.413194 
L 472.800001 312.63357 
L 484.799999 283.264899 
L 496.799996 276.057531 
L 508.800003 287.999256 
L 520.8 311.895618 
L 532.799989 318.676316 
L 544.799995 309.143821 
L 556.800001 307.555221 
L 568.79999 286.985824 
L 580.799996 288.4182 
L 592.800003 295.96143 
L 604.799991 303.555066 
L 616.799998 290.637555 
L 628.800004 270.519963 
L 640.799993 294.705135 
L 652.799999 310.885371 
L 664.800006 299.84633 
L 676.799994 288.40626 
L 688.800001 291.002152 
L 700.800007 324.636607 
L 712.799996 326.734793 
L 724.800002 338.630507 
L 736.800009 326.34499 
L 748.799997 300.422919 
L 760.800004 274.384445 
L 772.80001 283.747352 
L 784.799999 309.331989 
L 796.800005 327.133988 
L 808.800011 324.215125 
L 820.8 323.375837 
L 832.799989 341.082291 
L 844.799977 346.419743 
L 856.800001 335.39714 
L 857.8 335.175143 
" clip-path="url(#p288ca010bf)" style="fill: none; stroke: #0e87cc; stroke-width: 2.5; stroke-linecap: square"/>
   </g>
   <g id="line2d_18">
    <path d="M 16.799998 359.938126 
L 28.799995 304.884529 
L 40.800002 317.284923 
L 52.799999 304.793007 
L 64.799997 346.789253 
L 76.799999 338.94918 
L 88.800001 344.415223 
L 100.800003 331.451834 
L 112.8 318.027121 
L 124.799998 328.619724 
L 136.8 327.73687 
L 148.800002 338.724256 
L 160.799999 323.265807 
L 172.799999 324.643028 
L 184.8 330.169609 
L 196.8 331.769865 
L 208.8 341.119441 
L 220.8 343.55609 
L 232.8 335.851245 
L 244.8 318.581022 
L 256.8 309.336691 
L 268.800001 330.398013 
L 280.800001 344.347242 
L 292.799998 357.161984 
L 304.8 348.391676 
L 316.800002 317.93822 
L 328.8 291.82723 
L 340.799997 275.412261 
L 352.799999 290.363515 
L 364.800001 301.146725 
L 376.800003 315.426798 
L 388.800001 336.120676 
L 400.799998 356.221807 
L 412.800005 344.817851 
L 424.800002 325.270927 
L 436.8 321.338314 
L 448.799997 330.03594 
L 460.799995 324.372855 
L 472.800001 313.581787 
L 484.799999 316.703549 
L 496.799996 295.43112 
L 508.800003 277.572321 
L 520.8 259.37249 
L 532.799989 271.404078 
L 544.799995 284.834629 
L 556.800001 300.629203 
L 568.79999 323.768986 
L 580.799996 339.712283 
L 592.800003 340.163751 
L 604.799991 335.032547 
L 616.799998 315.046419 
L 628.800004 320.092856 
L 640.799993 322.25675 
L 652.799999 317.760495 
L 664.800006 317.312283 
L 676.799994 329.534517 
L 688.800001 337.849632 
L 700.800007 317.361573 
L 712.799996 304.476596 
L 724.800002 312.621654 
L 736.800009 333.073239 
L 748.799997 330.237132 
L 760.800004 312.265819 
L 772.80001 313.786766 
L 784.799999 323.341002 
L 796.800005 355.22721 
L 808.800011 345.558534 
L 820.8 348.619707 
L 832.799989 328.590805 
L 844.799977 308.748999 
L 856.800001 287.708757 
L 857.8 287.83773 
" clip-path="url(#p288ca010bf)" style="fill: none; stroke: #7b4fa3; stroke-width: 2.5; stroke-linecap: square"/>
   </g>
   <g id="patch_3">
    <path d="M 100.8 396 
L 100.8 36 
" style="fill: none; stroke: #000000; stroke-width: 0.8; stroke-linejoin: miter; stroke-linecap: square"/>
   </g>
   <g id="patch_4">
    <path d="M 820.8 396 
L 820.8 36 
" style="fill: none; stroke: #000000; stroke-width: 0.8; stroke-linejoin: miter; stroke-linecap: square"/>
   </g>
   <g id="patch_5">
    <path d="M 100.8 396 
L 820.8 396 
" style="fill: none; stroke: #000000; stroke-width: 0.8; stroke-linejoin: miter; stroke-linecap: square"/>
   </g>
   <g id="patch_6">
    <path d="M 100.8 36 
L 820.8 36 
" style="fill: none; stroke: #000000; stroke-width: 0.8; stroke-linejoin: miter; stroke-linecap: square"/>
   </g>
   <g id="PathCollection_1">
    <defs>
     <path id="m45d6f73099" d="M 0 1.870829 
C 0.49615 1.870829 0.972045 1.673706 1.322876 1.322876 
C 1.673706 0.972045 1.870829 0.49615 1.870829 0 
C 1.870829 -0.49615 1.673706 -0.972045 1.322876 -1.322876 
C 0.972045 -1.673706 0.49615 -1.870829 0 -1.870829 
C -0.49615 -1.870829 -0.972045 -1.673706 -1.322876 -1.322876 
C -1.673706 -0.972045 -1.870829 -0.49615 -1.870829 0 
C -1.870829 0.49615 -1.673706 0.972045 -1.322876 1.322876 
C -0.972045 1.673706 -0.49615 1.870829 0 1.870829 
z
" style="stroke: #000000"/>
    </defs>
    <g clip-path="url(#p288ca010bf)">
     <use xlink:href="#m45d6f73099" x="16.799998" y="378" style="stroke: #000000"/>
     <use xlink:href="#m45d6f73099" x="484.799999" y="378" style="stroke: #000000"/>
     <use xlink:href="#m45d6f73099" x="820.8" y="378" style="stroke: #000000"/>
     <use xlink:href="#m45d6f73099" x="1072.799974" y="378" style="stroke: #000000"/>
     <use xlink:href="#m45d6f73099" x="1084.799999" y="378" style="stroke: #000000"/>
     <use xlink:href="#m45d6f73099" x="1096.800023" y="378" style="stroke: #000000"/>
    </g>
   </g>
   <g id="legend_1">
    <g id="line2d_19">
     <path d="M 114.3 55.647656 
L 129.3 55.647656 
L 144.3 55.647656 
" style="fill: none; stroke: #0e87cc; stroke-width: 2.5; stroke-linecap: square"/>
    </g>
    <g id="text_17">
     <!-- SFEF→SSC -->
     <g transform="translate(156.3 60.897656) scale(0.15 -0.15)">
      <defs>
       <path id="DejaVuSans-46" d="M 628 4666 
L 3309 4666 
L 3309 4134 
L 1259 4134 
L 1259 2759 
L 3109 2759 
L 3109 2228 
L 1259 2228 
L 1259 0 
L 628 0 
L 628 4666 
z
" transform="scale(0.015625)"/>
       <path id="DejaVuSans-45" d="M 628 4666 
L 3578 4666 
L 3578 4134 
L 1259 4134 
L 1259 2753 
L 3481 2753 
L 3481 2222 
L 1259 2222 
L 1259 531 
L 3634 531 
L 3634 0 
L 628 0 
L 628 4666 
z
" transform="scale(0.015625)"/>
       <path id="DejaVuSans-2192" d="M 5050 2147 
L 5050 1866 
L 3822 638 
L 3447 1013 
L 4175 1741 
L 366 1741 
L 366 2272 
L 4175 2272 
L 3447 3000 
L 3822 3375 
L 5050 2147 
z
" transform="scale(0.015625)"/>
       <path id="DejaVuSans-43" d="M 4122 4306 
L 4122 3641 
Q 3803 3938 3442 4084 
Q 3081 4231 2675 4231 
Q 1875 4231 1450 3742 
Q 1025 3253 1025 2328 
Q 1025 1406 1450 917 
Q 1875 428 2675 428 
Q 3081 428 3442 575 
Q 3803 722 4122 1019 
L 4122 359 
Q 3791 134 3420 21 
Q 3050 -91 2638 -91 
Q 1578 -91 968 557 
Q 359 1206 359 2328 
Q 359 3453 968 4101 
Q 1578 4750 2638 4750 
Q 3056 4750 3426 4639 
Q 3797 4528 4122 4306 
z
" transform="scale(0.015625)"/>
      </defs>
      <use xlink:href="#DejaVuSans-53"/>
      <use xlink:href="#DejaVuSans-46" transform="translate(63.476562 0)"/>
      <use xlink:href="#DejaVuSans-45" transform="translate(120.996094 0)"/>
      <use xlink:href="#DejaVuSans-46" transform="translate(184.179688 0)"/>
      <use xlink:href="#DejaVuSans-2192" transform="translate(241.699219 0)"/>
      <use xlink:href="#DejaVuSans-53" transform="translate(325.488281 0)"/>
      <use xlink:href="#DejaVuSans-53" transform="translate(388.964844 0)"/>
      <use xlink:href="#DejaVuSans-43" transform="translate(452.441406 0)"/>
     </g>
    </g>
    <g id="line2d_20">
     <path d="M 114.3 77.664844 
L 129.3 77.664844 
L 144.3 77.664844 
" style="fill: none; stroke: #7b4fa3; stroke-width: 2.5; stroke-linecap: square"/>
    </g>
    <g id="text_18">
     <!-- SSC→SFEF -->
     <g transform="translate(156.3 82.914844) scale(0.15 -0.15)">
      <use xlink:href="#DejaVuSans-53"/>
      <use xlink:href="#DejaVuSans-53" transform="translate(63.476562 0)"/>
      <use xlink:href="#DejaVuSans-43" transform="translate(126.953125 0)"/>
      <use xlink:href="#DejaVuSans-2192" transform="translate(196.777344 0)"/>
      <use xlink:href="#DejaVuSans-53" transform="translate(280.566406 0)"/>
      <use xlink:href="#DejaVuSans-46" transform="translate(344.042969 0)"/>
      <use xlink:href="#DejaVuSans-45" transform="translate(401.5625 0)"/>
      <use xlink:href="#DejaVuSans-46" transform="translate(464.746094 0)"/>
     </g>
    </g>
    <g id="PathCollection_2">
     <g>
      <use xlink:href="#m45d6f73099" x="129.3" y="100.994531" style="stroke: #000000"/>
     </g>
    </g>
    <g id="text_19">
     <!-- p&lt;α -->
     <g transform="translate(156.3 104.932031) scale(0.15 -0.15)">
      <defs>
       <path id="DejaVuSans-3c" d="M 4684 3150 
L 1459 2003 
L 4684 863 
L 4684 294 
L 678 1747 
L 678 2266 
L 4684 3719 
L 4684 3150 
z
" transform="scale(0.015625)"/>
       <path id="DejaVuSans-3b1" d="M 2644 1628 
L 2506 2350 
Q 2366 3091 1809 3091 
Q 1391 3091 1200 2747 
Q 959 2316 959 1747 
Q 959 1059 1194 731 
Q 1431 397 1809 397 
Q 2228 397 2453 1063 
L 2644 1628 
z
M 2966 2584 
L 3275 3500 
L 3788 3500 
L 3147 1603 
L 3272 919 
Q 3300 766 3409 638 
Q 3538 488 3638 488 
L 3913 488 
L 3913 0 
L 3569 0 
Q 3275 0 3013 263 
Q 2884 394 2831 669 
Q 2688 322 2394 50 
Q 2256 -78 1809 -78 
Q 1075 -78 719 397 
Q 353 888 353 1747 
Q 353 2666 750 3097 
Q 1191 3578 1809 3578 
Q 2781 3578 2966 2584 
z
" transform="scale(0.015625)"/>
      </defs>
      <use xlink:href="#DejaVuSans-70"/>
      <use xlink:href="#DejaVuSans-3c" transform="translate(63.476562 0)"/>
      <use xlink:href="#DejaVuSans-3b1" transform="translate(147.265625 0)"/>
     </g>
    </g>
   </g>
  </g>
 </g>
 <defs>
  <clipPath id="p288ca010bf">
   <rect x="100.8" y="36" width="720" height="360"/>
  </clipPath>
 </defs>
</svg>
