<?xml version="1.0" encoding="utf-8" standalone="no"?>
<!DOCTYPE svg PUBLIC "-//W3C//DTD SVG 1.1//EN"
  "http://www.w3.org/Graphics/SVG/1.1/DTD/svg11.dtd">
<svg xmlns:xlink="http://www.w3.org/1999/xlink" width="856.8pt" height="453.6pt" viewBox="0 0 856.8 453.6" xmlns="http://www.w3.org/2000/svg" version="1.1">
 <metadata>
  <rdf:RDF xmlns:dc="http://purl.org/dc/elements/1.1/" xmlns:cc="http://creativecommons.org/ns#" xmlns:rdf="http://www.w3.org/1999/02/22-rdf-syntax-ns#">
   <cc:Work>
    <dc:type rdf:resource="http://purl.org/dc/dcmitype/StillImage"/>
    <dc:date>2026-01-28T18:01:11.961183</dc:date>
    <dc:format>image/svg+xml</dc:format>
    <dc:creator>
     <cc:Agent>
      <dc:title>Matplotlib v3.9.4, https://matplotlib.org/</dc:title>
     </cc:Agent>
    </dc:creator>
   </cc:Work>
  </rdf:RDF>
 </metadata>
 <defs>
  <style type="text/css">*{stroke-linejoin: round; stroke-linecap: butt}</style>
 </defs>
 <g id="figure_1">
  <g id="patch_1">
   <path d="M 0 453.6 
L 856.8 453.6 
L 856.8 0 
L 0 0 
z
" style="fill: #ffffff"/>
  </g>
  <g id="axes_1">
   <g id="patch_2">
    <path d="M 100.8 396 
L 820.8 396 
L 820.8 36 
L 100.8 36 
z
" style="fill: #ffffff"/>
   </g>
   <g id="PolyCollection_1">
    <path d="M 16.799998 294.557693 
L 16.799998 370.303444 
L 28.799995 355.379436 
L 40.800002 365.070837 
L 52.799999 376.404008 
L 64.799997 361.002382 
L 76.799999 342.939674 
L 88.800001 316.527012 
L 100.800003 343.866097 
L 112.8 350.671849 
L 124.799998 372.093314 
L 136.8 359.654296 
L 148.800002 347.122349 
L 160.799999 336.086427 
L 172.799999 324.678208 
L 184.8 346.791003 
L 196.8 333.551031 
L 208.8 355.452762 
L 220.8 355.317364 
L 232.8 340.21583 
L 244.8 337.098515 
L 256.8 321.642139 
L 268.800001 363.49487 
L 280.800001 369.979847 
L 292.799998 378.860228 
L 304.8 348.026938 
L 316.800002 332.380951 
L 328.8 333.056198 
L 340.799997 337.708072 
L 352.799999 332.28271 
L 364.800001 330.099321 
L 376.800003 341.47305 
L 388.800001 351.461295 
L 400.799998 361.308755 
L 412.800005 366.531349 
L 424.800002 372.328496 
L 436.8 349.081268 
L 448.799997 332.108669 
L 460.799995 314.134313 
L 472.800001 330.01563 
L 484.799999 338.225454 
L 496.799996 309.813144 
L 508.800003 280.469807 
L 520.8 264.610158 
L 532.799989 282.94216 
L 544.799995 282.799909 
L 556.800001 270.786817 
L 568.79999 270.917216 
L 580.799996 255.215736 
L 592.800003 251.528452 
L 604.799991 233.323897 
L 616.799998 235.514381 
L 628.800004 250.272371 
L 640.799993 264.187545 
L 652.799999 257.10141 
L 664.800006 213.89801 
L 676.799994 207.111063 
L 688.800001 198.970429 
L 700.800007 229.80417 
L 712.799996 233.718977 
L 724.800002 260.092429 
L 736.800009 269.991322 
L 748.799997 263.629457 
L 760.800004 277.43223 
L 772.80001 272.069 
L 784.799999 307.138335 
L 796.800005 291.309918 
L 808.800011 306.862505 
L 820.8 302.941825 
L 832.799989 344.232739 
L 844.799977 354.487424 
L 856.800001 350.555981 
L 868.800026 336.807161 
L 880.800014 337.893007 
L 892.800003 343.204775 
L 904.799991 337.516883 
L 916.79998 334.454102 
L 928.800004 318.696731 
L 940.800029 317.847986 
L 952.800017 315.608645 
L 964.800006 336.315731 
L 976.799994 356.659174 
L 988.799983 371.295697 
L 1000.799971 358.181377 
L 1012.799996 354.514203 
L 1024.80002 345.422526 
L 1036.800009 354.251534 
L 1048.799997 341.261725 
L 1060.799986 328.624296 
L 1072.799974 347.837857 
L 1084.799999 353.270571 
L 1096.800023 364.485037 
L 1108.800011 354.943586 
L 1120.8 367.936008 
L 1132.799989 358.88552 
L 1144.799977 346.597637 
L 1156.800001 335.701487 
L 1168.800026 344.656851 
L 1168.800026 260.47271 
L 1168.800026 260.47271 
L 1156.800001 234.558632 
L 1144.799977 248.466876 
L 1132.799989 261.460537 
L 1120.8 304.254019 
L 1108.800011 298.383534 
L 1096.800023 285.825086 
L 1084.799999 271.068533 
L 1072.799974 268.730908 
L 1060.799986 275.451551 
L 1048.799997 275.880277 
L 1036.800009 267.978041 
L 1024.80002 240.963121 
L 1012.799996 242.78336 
L 1000.799971 249.33292 
L 988.799983 280.016163 
L 976.799994 279.848632 
L 964.800006 272.544209 
L 952.800017 224.278897 
L 940.800029 213.981365 
L 928.800004 183.900279 
L 916.79998 224.886934 
L 904.799991 236.509909 
L 892.800003 262.3493 
L 880.800014 261.335538 
L 868.800026 230.107423 
L 856.800001 240.210455 
L 844.799977 242.487435 
L 832.799989 263.979879 
L 820.8 237.59042 
L 808.800011 238.301491 
L 796.800005 217.259089 
L 784.799999 219.539015 
L 772.80001 159.483509 
L 760.800004 152.147802 
L 748.799997 140.251342 
L 736.800009 150.745538 
L 724.800002 143.680466 
L 712.799996 91.558854 
L 700.800007 91.217743 
L 688.800001 52.363636 
L 676.799994 77.846781 
L 664.800006 58.724949 
L 652.799999 95.846825 
L 640.799993 118.720473 
L 628.800004 122.805933 
L 616.799998 114.695526 
L 604.799991 84.822969 
L 592.800003 124.094688 
L 580.799996 128.386053 
L 568.79999 168.940908 
L 556.800001 158.69593 
L 544.799995 181.503943 
L 532.799989 152.148268 
L 520.8 144.215257 
L 508.800003 169.819334 
L 496.799996 218.059966 
L 484.799999 251.175209 
L 472.800001 245.707969 
L 460.799995 233.73108 
L 448.799997 224.769895 
L 436.8 237.110967 
L 424.800002 267.077675 
L 412.800005 284.131558 
L 400.799998 283.981551 
L 388.800001 284.345965 
L 376.800003 278.292287 
L 364.800001 237.08713 
L 352.799999 238.460641 
L 340.799997 209.305663 
L 328.8 229.692948 
L 316.800002 228.890373 
L 304.8 264.102694 
L 292.799998 283.751464 
L 280.800001 267.437935 
L 268.800001 278.369182 
L 256.8 246.225274 
L 244.8 273.480043 
L 232.8 283.66689 
L 220.8 303.811186 
L 208.8 286.329999 
L 196.8 238.749187 
L 184.8 258.385957 
L 172.799999 249.376626 
L 160.799999 275.237892 
L 148.800002 279.941073 
L 136.8 299.761036 
L 124.799998 314.762565 
L 112.8 290.188017 
L 100.800003 260.68432 
L 88.800001 228.770984 
L 76.799999 259.874126 
L 64.799997 277.005918 
L 52.799999 285.158133 
L 40.800002 268.884445 
L 28.799995 267.149832 
L 16.799998 294.557693 
z
" clip-path="url(#pd994f9da52)" style="fill: #0e87cc; fill-opacity: 0.25"/>
   </g>
   <g id="PolyCollection_2">
    <path d="M 16.799998 271.939065 
L 16.799998 375.59704 
L 28.799995 358.067751 
L 40.800002 357.1233 
L 52.799999 342.258929 
L 64.799997 359.109138 
L 76.799999 359.519032 
L 88.800001 358.777553 
L 100.800003 343.711602 
L 112.8 334.063602 
L 124.799998 336.516948 
L 136.8 319.419236 
L 148.800002 337.211788 
L 160.799999 348.145031 
L 172.799999 359.301414 
L 184.8 346.099413 
L 196.8 341.476354 
L 208.8 352.229429 
L 220.8 361.114164 
L 232.8 366.934578 
L 244.8 362.246661 
L 256.8 338.930538 
L 268.800001 342.875007 
L 280.800001 351.371214 
L 292.799998 362.614922 
L 304.8 357.61862 
L 316.800002 346.216194 
L 328.8 350.521246 
L 340.799997 348.662306 
L 352.799999 350.42875 
L 364.800001 358.492389 
L 376.800003 337.925779 
L 388.800001 344.505448 
L 400.799998 348.536234 
L 412.800005 365.619769 
L 424.800002 355.280811 
L 436.8 328.257157 
L 448.799997 316.184499 
L 460.799995 333.651569 
L 472.800001 346.495252 
L 484.799999 360.273619 
L 496.799996 346.120413 
L 508.800003 337.348686 
L 520.8 344.287621 
L 532.799989 330.172066 
L 544.799995 341.314081 
L 556.800001 327.92127 
L 568.79999 330.859971 
L 580.799996 329.58054 
L 592.800003 312.536442 
L 604.799991 321.374648 
L 616.799998 317.510045 
L 628.800004 322.967573 
L 640.799993 343.142004 
L 652.799999 342.131745 
L 664.800006 357.077464 
L 676.799994 343.373601 
L 688.800001 353.151453 
L 700.800007 336.722554 
L 712.799996 351.426294 
L 724.800002 340.135974 
L 736.800009 335.862462 
L 748.799997 323.099561 
L 760.800004 346.466982 
L 772.80001 366.521499 
L 784.799999 361.521224 
L 796.800005 329.450021 
L 808.800011 316.581203 
L 820.8 314.045103 
L 832.799989 333.07105 
L 844.799977 336.944008 
L 856.800001 323.004557 
L 868.800026 326.897681 
L 880.800014 325.843606 
L 892.800003 339.967616 
L 904.799991 339.187703 
L 916.79998 360.209721 
L 928.800004 359.385449 
L 940.800029 351.66366 
L 952.800017 341.080609 
L 964.800006 329.610432 
L 976.799994 335.615809 
L 988.799983 343.882427 
L 1000.799971 367.755969 
L 1012.799996 376.556395 
L 1024.80002 379.636364 
L 1036.800009 373.925106 
L 1048.799997 361.816817 
L 1060.799986 348.197685 
L 1072.799974 351.034214 
L 1084.799999 366.052229 
L 1096.800023 373.723785 
L 1108.800011 372.716187 
L 1120.8 367.10306 
L 1132.799989 369.064373 
L 1144.799977 369.176691 
L 1156.800001 359.655108 
L 1168.800026 354.239113 
L 1168.800026 284.82685 
L 1168.800026 284.82685 
L 1156.800001 298.482368 
L 1144.799977 296.157984 
L 1132.799989 292.576907 
L 1120.8 268.937642 
L 1108.800011 285.051746 
L 1096.800023 295.653392 
L 1084.799999 298.544682 
L 1072.799974 287.772508 
L 1060.799986 284.632916 
L 1048.799997 295.245433 
L 1036.800009 298.466814 
L 1024.80002 317.552645 
L 1012.799996 316.368035 
L 1000.799971 306.062753 
L 988.799983 276.32753 
L 976.799994 258.734239 
L 964.800006 246.884329 
L 952.800017 253.793523 
L 940.800029 253.062383 
L 928.800004 276.698544 
L 916.79998 259.503214 
L 904.799991 248.790046 
L 892.800003 237.731356 
L 880.800014 227.709531 
L 868.800026 230.882585 
L 856.800001 234.666765 
L 844.799977 262.566636 
L 832.799989 277.718283 
L 820.8 251.830791 
L 808.800011 259.228541 
L 796.800005 258.761217 
L 784.799999 287.217892 
L 772.80001 281.242461 
L 760.800004 257.362575 
L 748.799997 243.903443 
L 736.800009 240.192544 
L 724.800002 245.760137 
L 712.799996 268.336651 
L 700.800007 244.781758 
L 688.800001 278.86016 
L 676.799994 243.850703 
L 664.800006 286.788001 
L 652.799999 233.157708 
L 640.799993 253.427599 
L 628.800004 216.039818 
L 616.799998 237.389185 
L 604.799991 224.33413 
L 592.800003 228.909217 
L 580.799996 235.689158 
L 568.79999 256.792663 
L 556.800001 254.914226 
L 544.799995 280.149839 
L 532.799989 259.91193 
L 520.8 270.292306 
L 508.800003 262.092882 
L 496.799996 265.478716 
L 484.799999 273.32074 
L 472.800001 256.201388 
L 460.799995 239.218258 
L 448.799997 233.742357 
L 436.8 241.937809 
L 424.800002 273.255121 
L 412.800005 282.8514 
L 400.799998 280.212187 
L 388.800001 259.484131 
L 376.800003 261.910738 
L 364.800001 275.504011 
L 352.799999 288.077327 
L 340.799997 277.323131 
L 328.8 289.685377 
L 316.800002 268.378668 
L 304.8 276.040412 
L 292.799998 276.981335 
L 280.800001 270.479739 
L 268.800001 252.936053 
L 256.8 227.246019 
L 244.8 256.370408 
L 232.8 273.678918 
L 220.8 275.870944 
L 208.8 278.06512 
L 196.8 256.468373 
L 184.8 259.99008 
L 172.799999 249.312105 
L 160.799999 247.014542 
L 148.800002 253.311679 
L 136.8 261.941454 
L 124.799998 283.166778 
L 112.8 267.64151 
L 100.800003 261.728206 
L 88.800001 257.580563 
L 76.799999 261.598084 
L 64.799997 269.404607 
L 52.799999 278.026311 
L 40.800002 285.127422 
L 28.799995 285.678235 
L 16.799998 271.939065 
z
" clip-path="url(#pd994f9da52)" style="fill: #c00a37; fill-opacity: 0.25"/>
   </g>
   <g id="matplotlib.axis_1">
    <g id="xtick_1">
     <g id="line2d_1">
      <defs>
       <path id="m803f29e016" d="M 0 0 
L 0 3.5 
" style="stroke: #000000; stroke-width: 0.8"/>
      </defs>
      <g>
       <use xlink:href="#m803f29e016" x="100.8" y="396" style="stroke: #000000; stroke-width: 0.8"/>
      </g>
     </g>
     <g id="text_1">
      <!-- −100 -->
      <g transform="translate(78.82625 415.1575) scale(0.16 -0.16)">
       <defs>
        <path id="DejaVuSans-2212" d="M 678 2272 
L 4684 2272 
L 4684 1741 
L 678 1741 
L 678 2272 
z
" transform="scale(0.015625)"/>
        <path id="DejaVuSans-31" d="M 794 531 
L 1825 531 
L 1825 4091 
L 703 3866 
L 703 4441 
L 1819 4666 
L 2450 4666 
L 2450 531 
L 3481 531 
L 3481 0 
L 794 0 
L 794 531 
z
" transform="scale(0.015625)"/>
        <path id="DejaVuSans-30" d="M 2034 4250 
Q 1547 4250 1301 3770 
Q 1056 3291 1056 2328 
Q 1056 1369 1301 889 
Q 1547 409 2034 409 
Q 2525 409 2770 889 
Q 3016 1369 3016 2328 
Q 3016 3291 2770 3770 
Q 2525 4250 2034 4250 
z
M 2034 4750 
Q 2819 4750 3233 4129 
Q 3647 3509 3647 2328 
Q 3647 1150 3233 529 
Q 2819 -91 2034 -91 
Q 1250 -91 836 529 
Q 422 1150 422 2328 
Q 422 3509 836 4129 
Q 1250 4750 2034 4750 
z
" transform="scale(0.015625)"/>
       </defs>
       <use xlink:href="#DejaVuSans-2212"/>
       <use xlink:href="#DejaVuSans-31" x="83.789062"/>
       <use xlink:href="#DejaVuSans-30" x="147.412109"/>
       <use xlink:href="#DejaVuSans-30" x="211.035156"/>
      </g>
     </g>
    </g>
    <g id="xtick_2">
     <g id="line2d_2">
      <g>
       <use xlink:href="#m803f29e016" x="220.8" y="396" style="stroke: #000000; stroke-width: 0.8"/>
      </g>
     </g>
     <g id="text_2">
      <!-- 0 -->
      <g transform="translate(215.71 415.1575) scale(0.16 -0.16)">
       <use xlink:href="#DejaVuSans-30"/>
      </g>
     </g>
    </g>
    <g id="xtick_3">
     <g id="line2d_3">
      <g>
       <use xlink:href="#m803f29e016" x="340.8" y="396" style="stroke: #000000; stroke-width: 0.8"/>
      </g>
     </g>
     <g id="text_3">
      <!-- 100 -->
      <g transform="translate(325.53 415.1575) scale(0.16 -0.16)">
       <use xlink:href="#DejaVuSans-31"/>
       <use xlink:href="#DejaVuSans-30" x="63.623047"/>
       <use xlink:href="#DejaVuSans-30" x="127.246094"/>
      </g>
     </g>
    </g>
    <g id="xtick_4">
     <g id="line2d_4">
      <g>
       <use xlink:href="#m803f29e016" x="460.8" y="396" style="stroke: #000000; stroke-width: 0.8"/>
      </g>
     </g>
     <g id="text_4">
      <!-- 200 -->
      <g transform="translate(445.53 415.1575) scale(0.16 -0.16)">
       <defs>
        <path id="DejaVuSans-32" d="M 1228 531 
L 3431 531 
L 3431 0 
L 469 0 
L 469 531 
Q 828 903 1448 1529 
Q 2069 2156 2228 2338 
Q 2531 2678 2651 2914 
Q 2772 3150 2772 3378 
Q 2772 3750 2511 3984 
Q 2250 4219 1831 4219 
Q 1534 4219 1204 4116 
Q 875 4013 500 3803 
L 500 4441 
Q 881 4594 1212 4672 
Q 1544 4750 1819 4750 
Q 2544 4750 2975 4387 
Q 3406 4025 3406 3419 
Q 3406 3131 3298 2873 
Q 3191 2616 2906 2266 
Q 2828 2175 2409 1742 
Q 1991 1309 1228 531 
z
" transform="scale(0.015625)"/>
       </defs>
       <use xlink:href="#DejaVuSans-32"/>
       <use xlink:href="#DejaVuSans-30" x="63.623047"/>
       <use xlink:href="#DejaVuSans-30" x="127.246094"/>
      </g>
     </g>
    </g>
    <g id="xtick_5">
     <g id="line2d_5">
      <g>
       <use xlink:href="#m803f29e016" x="580.8" y="396" style="stroke: #000000; stroke-width: 0.8"/>
      </g>
     </g>
     <g id="text_5">
      <!-- 300 -->
      <g transform="translate(565.53 415.1575) scale(0.16 -0.16)">
       <defs>
        <path id="DejaVuSans-33" d="M 2597 2516 
Q 3050 2419 3304 2112 
Q 3559 1806 3559 1356 
Q 3559 666 3084 287 
Q 2609 -91 1734 -91 
Q 1441 -91 1130 -33 
Q 819 25 488 141 
L 488 750 
Q 750 597 1062 519 
Q 1375 441 1716 441 
Q 2309 441 2620 675 
Q 2931 909 2931 1356 
Q 2931 1769 2642 2001 
Q 2353 2234 1838 2234 
L 1294 2234 
L 1294 2753 
L 1863 2753 
Q 2328 2753 2575 2939 
Q 2822 3125 2822 3475 
Q 2822 3834 2567 4026 
Q 2313 4219 1838 4219 
Q 1578 4219 1281 4162 
Q 984 4106 628 3988 
L 628 4550 
Q 988 4650 1302 4700 
Q 1616 4750 1894 4750 
Q 2613 4750 3031 4423 
Q 3450 4097 3450 3541 
Q 3450 3153 3228 2886 
Q 3006 2619 2597 2516 
z
" transform="scale(0.015625)"/>
       </defs>
       <use xlink:href="#DejaVuSans-33"/>
       <use xlink:href="#DejaVuSans-30" x="63.623047"/>
       <use xlink:href="#DejaVuSans-30" x="127.246094"/>
      </g>
     </g>
    </g>
    <g id="xtick_6">
     <g id="line2d_6">
      <g>
       <use xlink:href="#m803f29e016" x="700.8" y="396" style="stroke: #000000; stroke-width: 0.8"/>
      </g>
     </g>
     <g id="text_6">
      <!-- 400 -->
      <g transform="translate(685.53 415.1575) scale(0.16 -0.16)">
       <defs>
        <path id="DejaVuSans-34" d="M 2419 4116 
L 825 1625 
L 2419 1625 
L 2419 4116 
z
M 2253 4666 
L 3047 4666 
L 3047 1625 
L 3713 1625 
L 3713 1100 
L 3047 1100 
L 3047 0 
L 2419 0 
L 2419 1100 
L 313 1100 
L 313 1709 
L 2253 4666 
z
" transform="scale(0.015625)"/>
       </defs>
       <use xlink:href="#DejaVuSans-34"/>
       <use xlink:href="#DejaVuSans-30" x="63.623047"/>
       <use xlink:href="#DejaVuSans-30" x="127.246094"/>
      </g>
     </g>
    </g>
    <g id="xtick_7">
     <g id="line2d_7">
      <g>
       <use xlink:href="#m803f29e016" x="820.8" y="396" style="stroke: #000000; stroke-width: 0.8"/>
      </g>
     </g>
     <g id="text_7">
      <!-- 500 -->
      <g transform="translate(805.53 415.1575) scale(0.16 -0.16)">
       <defs>
        <path id="DejaVuSans-35" d="M 691 4666 
L 3169 4666 
L 3169 4134 
L 1269 4134 
L 1269 2991 
Q 1406 3038 1543 3061 
Q 1681 3084 1819 3084 
Q 2600 3084 3056 2656 
Q 3513 2228 3513 1497 
Q 3513 744 3044 326 
Q 2575 -91 1722 -91 
Q 1428 -91 1123 -41 
Q 819 9 494 109 
L 494 744 
Q 775 591 1075 516 
Q 1375 441 1709 441 
Q 2250 441 2565 725 
Q 2881 1009 2881 1497 
Q 2881 1984 2565 2268 
Q 2250 2553 1709 2553 
Q 1456 2553 1204 2497 
Q 953 2441 691 2322 
L 691 4666 
z
" transform="scale(0.015625)"/>
       </defs>
       <use xlink:href="#DejaVuSans-35"/>
       <use xlink:href="#DejaVuSans-30" x="63.623047"/>
       <use xlink:href="#DejaVuSans-30" x="127.246094"/>
      </g>
     </g>
    </g>
    <g id="text_8">
     <!-- Time from Stimulus Onset (ms) -->
     <g transform="translate(320.273438 436.162187) scale(0.18 -0.18)">
      <defs>
       <path id="DejaVuSans-54" d="M -19 4666 
L 3928 4666 
L 3928 4134 
L 2272 4134 
L 2272 0 
L 1638 0 
L 1638 4134 
L -19 4134 
L -19 4666 
z
" transform="scale(0.015625)"/>
       <path id="DejaVuSans-69" d="M 603 3500 
L 1178 3500 
L 1178 0 
L 603 0 
L 603 3500 
z
M 603 4863 
L 1178 4863 
L 1178 4134 
L 603 4134 
L 603 4863 
z
" transform="scale(0.015625)"/>
       <path id="DejaVuSans-6d" d="M 3328 2828 
Q 3544 3216 3844 3400 
Q 4144 3584 4550 3584 
Q 5097 3584 5394 3201 
Q 5691 2819 5691 2113 
L 5691 0 
L 5113 0 
L 5113 2094 
Q 5113 2597 4934 2840 
Q 4756 3084 4391 3084 
Q 3944 3084 3684 2787 
Q 3425 2491 3425 1978 
L 3425 0 
L 2847 0 
L 2847 2094 
Q 2847 2600 2669 2842 
Q 2491 3084 2119 3084 
Q 1678 3084 1418 2786 
Q 1159 2488 1159 1978 
L 1159 0 
L 581 0 
L 581 3500 
L 1159 3500 
L 1159 2956 
Q 1356 3278 1631 3431 
Q 1906 3584 2284 3584 
Q 2666 3584 2933 3390 
Q 3200 3197 3328 2828 
z
" transform="scale(0.015625)"/>
       <path id="DejaVuSans-65" d="M 3597 1894 
L 3597 1613 
L 953 1613 
Q 991 1019 1311 708 
Q 1631 397 2203 397 
Q 2534 397 2845 478 
Q 3156 559 3463 722 
L 3463 178 
Q 3153 47 2828 -22 
Q 2503 -91 2169 -91 
Q 1331 -91 842 396 
Q 353 884 353 1716 
Q 353 2575 817 3079 
Q 1281 3584 2069 3584 
Q 2775 3584 3186 3129 
Q 3597 2675 3597 1894 
z
M 3022 2063 
Q 3016 2534 2758 2815 
Q 2500 3097 2075 3097 
Q 1594 3097 1305 2825 
Q 1016 2553 972 2059 
L 3022 2063 
z
" transform="scale(0.015625)"/>
       <path id="DejaVuSans-20" transform="scale(0.015625)"/>
       <path id="DejaVuSans-66" d="M 2375 4863 
L 2375 4384 
L 1825 4384 
Q 1516 4384 1395 4259 
Q 1275 4134 1275 3809 
L 1275 3500 
L 2222 3500 
L 2222 3053 
L 1275 3053 
L 1275 0 
L 697 0 
L 697 3053 
L 147 3053 
L 147 3500 
L 697 3500 
L 697 3744 
Q 697 4328 969 4595 
Q 1241 4863 1831 4863 
L 2375 4863 
z
" transform="scale(0.015625)"/>
       <path id="DejaVuSans-72" d="M 2631 2963 
Q 2534 3019 2420 3045 
Q 2306 3072 2169 3072 
Q 1681 3072 1420 2755 
Q 1159 2438 1159 1844 
L 1159 0 
L 581 0 
L 581 3500 
L 1159 3500 
L 1159 2956 
Q 1341 3275 1631 3429 
Q 1922 3584 2338 3584 
Q 2397 3584 2469 3576 
Q 2541 3569 2628 3553 
L 2631 2963 
z
" transform="scale(0.015625)"/>
       <path id="DejaVuSans-6f" d="M 1959 3097 
Q 1497 3097 1228 2736 
Q 959 2375 959 1747 
Q 959 1119 1226 758 
Q 1494 397 1959 397 
Q 2419 397 2687 759 
Q 2956 1122 2956 1747 
Q 2956 2369 2687 2733 
Q 2419 3097 1959 3097 
z
M 1959 3584 
Q 2709 3584 3137 3096 
Q 3566 2609 3566 1747 
Q 3566 888 3137 398 
Q 2709 -91 1959 -91 
Q 1206 -91 779 398 
Q 353 888 353 1747 
Q 353 2609 779 3096 
Q 1206 3584 1959 3584 
z
" transform="scale(0.015625)"/>
       <path id="DejaVuSans-53" d="M 3425 4513 
L 3425 3897 
Q 3066 4069 2747 4153 
Q 2428 4238 2131 4238 
Q 1616 4238 1336 4038 
Q 1056 3838 1056 3469 
Q 1056 3159 1242 3001 
Q 1428 2844 1947 2747 
L 2328 2669 
Q 3034 2534 3370 2195 
Q 3706 1856 3706 1288 
Q 3706 609 3251 259 
Q 2797 -91 1919 -91 
Q 1588 -91 1214 -16 
Q 841 59 441 206 
L 441 856 
Q 825 641 1194 531 
Q 1563 422 1919 422 
Q 2459 422 2753 634 
Q 3047 847 3047 1241 
Q 3047 1584 2836 1778 
Q 2625 1972 2144 2069 
L 1759 2144 
Q 1053 2284 737 2584 
Q 422 2884 422 3419 
Q 422 4038 858 4394 
Q 1294 4750 2059 4750 
Q 2388 4750 2728 4690 
Q 3069 4631 3425 4513 
z
" transform="scale(0.015625)"/>
       <path id="DejaVuSans-74" d="M 1172 4494 
L 1172 3500 
L 2356 3500 
L 2356 3053 
L 1172 3053 
L 1172 1153 
Q 1172 725 1289 603 
Q 1406 481 1766 481 
L 2356 481 
L 2356 0 
L 1766 0 
Q 1100 0 847 248 
Q 594 497 594 1153 
L 594 3053 
L 172 3053 
L 172 3500 
L 594 3500 
L 594 4494 
L 1172 4494 
z
" transform="scale(0.015625)"/>
       <path id="DejaVuSans-75" d="M 544 1381 
L 544 3500 
L 1119 3500 
L 1119 1403 
Q 1119 906 1312 657 
Q 1506 409 1894 409 
Q 2359 409 2629 706 
Q 2900 1003 2900 1516 
L 2900 3500 
L 3475 3500 
L 3475 0 
L 2900 0 
L 2900 538 
Q 2691 219 2414 64 
Q 2138 -91 1772 -91 
Q 1169 -91 856 284 
Q 544 659 544 1381 
z
M 1991 3584 
L 1991 3584 
z
" transform="scale(0.015625)"/>
       <path id="DejaVuSans-6c" d="M 603 4863 
L 1178 4863 
L 1178 0 
L 603 0 
L 603 4863 
z
" transform="scale(0.015625)"/>
       <path id="DejaVuSans-73" d="M 2834 3397 
L 2834 2853 
Q 2591 2978 2328 3040 
Q 2066 3103 1784 3103 
Q 1356 3103 1142 2972 
Q 928 2841 928 2578 
Q 928 2378 1081 2264 
Q 1234 2150 1697 2047 
L 1894 2003 
Q 2506 1872 2764 1633 
Q 3022 1394 3022 966 
Q 3022 478 2636 193 
Q 2250 -91 1575 -91 
Q 1294 -91 989 -36 
Q 684 19 347 128 
L 347 722 
Q 666 556 975 473 
Q 1284 391 1588 391 
Q 1994 391 2212 530 
Q 2431 669 2431 922 
Q 2431 1156 2273 1281 
Q 2116 1406 1581 1522 
L 1381 1569 
Q 847 1681 609 1914 
Q 372 2147 372 2553 
Q 372 3047 722 3315 
Q 1072 3584 1716 3584 
Q 2034 3584 2315 3537 
Q 2597 3491 2834 3397 
z
" transform="scale(0.015625)"/>
       <path id="DejaVuSans-4f" d="M 2522 4238 
Q 1834 4238 1429 3725 
Q 1025 3213 1025 2328 
Q 1025 1447 1429 934 
Q 1834 422 2522 422 
Q 3209 422 3611 934 
Q 4013 1447 4013 2328 
Q 4013 3213 3611 3725 
Q 3209 4238 2522 4238 
z
M 2522 4750 
Q 3503 4750 4090 4092 
Q 4678 3434 4678 2328 
Q 4678 1225 4090 567 
Q 3503 -91 2522 -91 
Q 1538 -91 948 565 
Q 359 1222 359 2328 
Q 359 3434 948 4092 
Q 1538 4750 2522 4750 
z
" transform="scale(0.015625)"/>
       <path id="DejaVuSans-6e" d="M 3513 2113 
L 3513 0 
L 2938 0 
L 2938 2094 
Q 2938 2591 2744 2837 
Q 2550 3084 2163 3084 
Q 1697 3084 1428 2787 
Q 1159 2491 1159 1978 
L 1159 0 
L 581 0 
L 581 3500 
L 1159 3500 
L 1159 2956 
Q 1366 3272 1645 3428 
Q 1925 3584 2291 3584 
Q 2894 3584 3203 3211 
Q 3513 2838 3513 2113 
z
" transform="scale(0.015625)"/>
       <path id="DejaVuSans-28" d="M 1984 4856 
Q 1566 4138 1362 3434 
Q 1159 2731 1159 2009 
Q 1159 1288 1364 580 
Q 1569 -128 1984 -844 
L 1484 -844 
Q 1016 -109 783 600 
Q 550 1309 550 2009 
Q 550 2706 781 3412 
Q 1013 4119 1484 4856 
L 1984 4856 
z
" transform="scale(0.015625)"/>
       <path id="DejaVuSans-29" d="M 513 4856 
L 1013 4856 
Q 1481 4119 1714 3412 
Q 1947 2706 1947 2009 
Q 1947 1309 1714 600 
Q 1481 -109 1013 -844 
L 513 -844 
Q 928 -128 1133 580 
Q 1338 1288 1338 2009 
Q 1338 2731 1133 3434 
Q 928 4138 513 4856 
z
" transform="scale(0.015625)"/>
      </defs>
      <use xlink:href="#DejaVuSans-54"/>
      <use xlink:href="#DejaVuSans-69" x="57.958984"/>
      <use xlink:href="#DejaVuSans-6d" x="85.742188"/>
      <use xlink:href="#DejaVuSans-65" x="183.154297"/>
      <use xlink:href="#DejaVuSans-20" x="244.677734"/>
      <use xlink:href="#DejaVuSans-66" x="276.464844"/>
      <use xlink:href="#DejaVuSans-72" x="311.669922"/>
      <use xlink:href="#DejaVuSans-6f" x="350.533203"/>
      <use xlink:href="#DejaVuSans-6d" x="411.714844"/>
      <use xlink:href="#DejaVuSans-20" x="509.126953"/>
      <use xlink:href="#DejaVuSans-53" x="540.914062"/>
      <use xlink:href="#DejaVuSans-74" x="604.390625"/>
      <use xlink:href="#DejaVuSans-69" x="643.599609"/>
      <use xlink:href="#DejaVuSans-6d" x="671.382812"/>
      <use xlink:href="#DejaVuSans-75" x="768.794922"/>
      <use xlink:href="#DejaVuSans-6c" x="832.173828"/>
      <use xlink:href="#DejaVuSans-75" x="859.957031"/>
      <use xlink:href="#DejaVuSans-73" x="923.335938"/>
      <use xlink:href="#DejaVuSans-20" x="975.435547"/>
      <use xlink:href="#DejaVuSans-4f" x="1007.222656"/>
      <use xlink:href="#DejaVuSans-6e" x="1085.933594"/>
      <use xlink:href="#DejaVuSans-73" x="1149.3125"/>
      <use xlink:href="#DejaVuSans-65" x="1201.412109"/>
      <use xlink:href="#DejaVuSans-74" x="1262.935547"/>
      <use xlink:href="#DejaVuSans-20" x="1302.144531"/>
      <use xlink:href="#DejaVuSans-28" x="1333.931641"/>
      <use xlink:href="#DejaVuSans-6d" x="1372.945312"/>
      <use xlink:href="#DejaVuSans-73" x="1470.357422"/>
      <use xlink:href="#DejaVuSans-29" x="1522.457031"/>
     </g>
    </g>
   </g>
   <g id="matplotlib.axis_2">
    <g id="ytick_1">
     <g id="line2d_8">
      <defs>
       <path id="m2040977c71" d="M 0 0 
L -3.5 0 
" style="stroke: #000000; stroke-width: 0.8"/>
      </defs>
      <g>
       <use xlink:href="#m2040977c71" x="100.8" y="380.472697" style="stroke: #000000; stroke-width: 0.8"/>
      </g>
     </g>
     <g id="text_9">
      <!-- −0.005 -->
      <g transform="translate(34.5875 386.551447) scale(0.16 -0.16)">
       <defs>
        <path id="DejaVuSans-2e" d="M 684 794 
L 1344 794 
L 1344 0 
L 684 0 
L 684 794 
z
" transform="scale(0.015625)"/>
       </defs>
       <use xlink:href="#DejaVuSans-2212"/>
       <use xlink:href="#DejaVuSans-30" x="83.789062"/>
       <use xlink:href="#DejaVuSans-2e" x="147.412109"/>
       <use xlink:href="#DejaVuSans-30" x="179.199219"/>
       <use xlink:href="#DejaVuSans-30" x="242.822266"/>
       <use xlink:href="#DejaVuSans-35" x="306.445312"/>
      </g>
     </g>
    </g>
    <g id="ytick_2">
     <g id="line2d_9">
      <g>
       <use xlink:href="#m2040977c71" x="100.8" y="326.00278" style="stroke: #000000; stroke-width: 0.8"/>
      </g>
     </g>
     <g id="text_10">
      <!-- 0.000 -->
      <g transform="translate(47.995 332.08153) scale(0.16 -0.16)">
       <use xlink:href="#DejaVuSans-30"/>
       <use xlink:href="#DejaVuSans-2e" x="63.623047"/>
       <use xlink:href="#DejaVuSans-30" x="95.410156"/>
       <use xlink:href="#DejaVuSans-30" x="159.033203"/>
       <use xlink:href="#DejaVuSans-30" x="222.65625"/>
      </g>
     </g>
    </g>
    <g id="ytick_3">
     <g id="line2d_10">
      <g>
       <use xlink:href="#m2040977c71" x="100.8" y="271.532864" style="stroke: #000000; stroke-width: 0.8"/>
      </g>
     </g>
     <g id="text_11">
      <!-- 0.005 -->
      <g transform="translate(47.995 277.611614) scale(0.16 -0.16)">
       <use xlink:href="#DejaVuSans-30"/>
       <use xlink:href="#DejaVuSans-2e" x="63.623047"/>
       <use xlink:href="#DejaVuSans-30" x="95.410156"/>
       <use xlink:href="#DejaVuSans-30" x="159.033203"/>
       <use xlink:href="#DejaVuSans-35" x="222.65625"/>
      </g>
     </g>
    </g>
    <g id="ytick_4">
     <g id="line2d_11">
      <g>
       <use xlink:href="#m2040977c71" x="100.8" y="217.062947" style="stroke: #000000; stroke-width: 0.8"/>
      </g>
     </g>
     <g id="text_12">
      <!-- 0.010 -->
      <g transform="translate(47.995 223.141697) scale(0.16 -0.16)">
       <use xlink:href="#DejaVuSans-30"/>
       <use xlink:href="#DejaVuSans-2e" x="63.623047"/>
       <use xlink:href="#DejaVuSans-30" x="95.410156"/>
       <use xlink:href="#DejaVuSans-31" x="159.033203"/>
       <use xlink:href="#DejaVuSans-30" x="222.65625"/>
      </g>
     </g>
    </g>
    <g id="ytick_5">
     <g id="line2d_12">
      <g>
       <use xlink:href="#m2040977c71" x="100.8" y="162.593031" style="stroke: #000000; stroke-width: 0.8"/>
      </g>
     </g>
     <g id="text_13">
      <!-- 0.015 -->
      <g transform="translate(47.995 168.671781) scale(0.16 -0.16)">
       <use xlink:href="#DejaVuSans-30"/>
       <use xlink:href="#DejaVuSans-2e" x="63.623047"/>
       <use xlink:href="#DejaVuSans-30" x="95.410156"/>
       <use xlink:href="#DejaVuSans-31" x="159.033203"/>
       <use xlink:href="#DejaVuSans-35" x="222.65625"/>
      </g>
     </g>
    </g>
    <g id="ytick_6">
     <g id="line2d_13">
      <g>
       <use xlink:href="#m2040977c71" x="100.8" y="108.123114" style="stroke: #000000; stroke-width: 0.8"/>
      </g>
     </g>
     <g id="text_14">
      <!-- 0.020 -->
      <g transform="translate(47.995 114.201864) scale(0.16 -0.16)">
       <use xlink:href="#DejaVuSans-30"/>
       <use xlink:href="#DejaVuSans-2e" x="63.623047"/>
       <use xlink:href="#DejaVuSans-30" x="95.410156"/>
       <use xlink:href="#DejaVuSans-32" x="159.033203"/>
       <use xlink:href="#DejaVuSans-30" x="222.65625"/>
      </g>
     </g>
    </g>
    <g id="ytick_7">
     <g id="line2d_14">
      <g>
       <use xlink:href="#m2040977c71" x="100.8" y="53.653198" style="stroke: #000000; stroke-width: 0.8"/>
      </g>
     </g>
     <g id="text_15">
      <!-- 0.025 -->
      <g transform="translate(47.995 59.731948) scale(0.16 -0.16)">
       <use xlink:href="#DejaVuSans-30"/>
       <use xlink:href="#DejaVuSans-2e" x="63.623047"/>
       <use xlink:href="#DejaVuSans-30" x="95.410156"/>
       <use xlink:href="#DejaVuSans-32" x="159.033203"/>
       <use xlink:href="#DejaVuSans-35" x="222.65625"/>
      </g>
     </g>
    </g>
    <g id="text_16">
     <!-- Directed predictability gain (bits) -->
     <g transform="translate(26.844062 364.685625) rotate(-90) scale(0.18 -0.18)">
      <defs>
       <path id="DejaVuSans-44" d="M 1259 4147 
L 1259 519 
L 2022 519 
Q 2988 519 3436 956 
Q 3884 1394 3884 2338 
Q 3884 3275 3436 3711 
Q 2988 4147 2022 4147 
L 1259 4147 
z
M 628 4666 
L 1925 4666 
Q 3281 4666 3915 4102 
Q 4550 3538 4550 2338 
Q 4550 1131 3912 565 
Q 3275 0 1925 0 
L 628 0 
L 628 4666 
z
" transform="scale(0.015625)"/>
       <path id="DejaVuSans-63" d="M 3122 3366 
L 3122 2828 
Q 2878 2963 2633 3030 
Q 2388 3097 2138 3097 
Q 1578 3097 1268 2742 
Q 959 2388 959 1747 
Q 959 1106 1268 751 
Q 1578 397 2138 397 
Q 2388 397 2633 464 
Q 2878 531 3122 666 
L 3122 134 
Q 2881 22 2623 -34 
Q 2366 -91 2075 -91 
Q 1284 -91 818 406 
Q 353 903 353 1747 
Q 353 2603 823 3093 
Q 1294 3584 2113 3584 
Q 2378 3584 2631 3529 
Q 2884 3475 3122 3366 
z
" transform="scale(0.015625)"/>
       <path id="DejaVuSans-64" d="M 2906 2969 
L 2906 4863 
L 3481 4863 
L 3481 0 
L 2906 0 
L 2906 525 
Q 2725 213 2448 61 
Q 2172 -91 1784 -91 
Q 1150 -91 751 415 
Q 353 922 353 1747 
Q 353 2572 751 3078 
Q 1150 3584 1784 3584 
Q 2172 3584 2448 3432 
Q 2725 3281 2906 2969 
z
M 947 1747 
Q 947 1113 1208 752 
Q 1469 391 1925 391 
Q 2381 391 2643 752 
Q 2906 1113 2906 1747 
Q 2906 2381 2643 2742 
Q 2381 3103 1925 3103 
Q 1469 3103 1208 2742 
Q 947 2381 947 1747 
z
" transform="scale(0.015625)"/>
       <path id="DejaVuSans-70" d="M 1159 525 
L 1159 -1331 
L 581 -1331 
L 581 3500 
L 1159 3500 
L 1159 2969 
Q 1341 3281 1617 3432 
Q 1894 3584 2278 3584 
Q 2916 3584 3314 3078 
Q 3713 2572 3713 1747 
Q 3713 922 3314 415 
Q 2916 -91 2278 -91 
Q 1894 -91 1617 61 
Q 1341 213 1159 525 
z
M 3116 1747 
Q 3116 2381 2855 2742 
Q 2594 3103 2138 3103 
Q 1681 3103 1420 2742 
Q 1159 2381 1159 1747 
Q 1159 1113 1420 752 
Q 1681 391 2138 391 
Q 2594 391 2855 752 
Q 3116 1113 3116 1747 
z
" transform="scale(0.015625)"/>
       <path id="DejaVuSans-61" d="M 2194 1759 
Q 1497 1759 1228 1600 
Q 959 1441 959 1056 
Q 959 750 1161 570 
Q 1363 391 1709 391 
Q 2188 391 2477 730 
Q 2766 1069 2766 1631 
L 2766 1759 
L 2194 1759 
z
M 3341 1997 
L 3341 0 
L 2766 0 
L 2766 531 
Q 2569 213 2275 61 
Q 1981 -91 1556 -91 
Q 1019 -91 701 211 
Q 384 513 384 1019 
Q 384 1609 779 1909 
Q 1175 2209 1959 2209 
L 2766 2209 
L 2766 2266 
Q 2766 2663 2505 2880 
Q 2244 3097 1772 3097 
Q 1472 3097 1187 3025 
Q 903 2953 641 2809 
L 641 3341 
Q 956 3463 1253 3523 
Q 1550 3584 1831 3584 
Q 2591 3584 2966 3190 
Q 3341 2797 3341 1997 
z
" transform="scale(0.015625)"/>
       <path id="DejaVuSans-62" d="M 3116 1747 
Q 3116 2381 2855 2742 
Q 2594 3103 2138 3103 
Q 1681 3103 1420 2742 
Q 1159 2381 1159 1747 
Q 1159 1113 1420 752 
Q 1681 391 2138 391 
Q 2594 391 2855 752 
Q 3116 1113 3116 1747 
z
M 1159 2969 
Q 1341 3281 1617 3432 
Q 1894 3584 2278 3584 
Q 2916 3584 3314 3078 
Q 3713 2572 3713 1747 
Q 3713 922 3314 415 
Q 2916 -91 2278 -91 
Q 1894 -91 1617 61 
Q 1341 213 1159 525 
L 1159 0 
L 581 0 
L 581 4863 
L 1159 4863 
L 1159 2969 
z
" transform="scale(0.015625)"/>
       <path id="DejaVuSans-79" d="M 2059 -325 
Q 1816 -950 1584 -1140 
Q 1353 -1331 966 -1331 
L 506 -1331 
L 506 -850 
L 844 -850 
Q 1081 -850 1212 -737 
Q 1344 -625 1503 -206 
L 1606 56 
L 191 3500 
L 800 3500 
L 1894 763 
L 2988 3500 
L 3597 3500 
L 2059 -325 
z
" transform="scale(0.015625)"/>
       <path id="DejaVuSans-67" d="M 2906 1791 
Q 2906 2416 2648 2759 
Q 2391 3103 1925 3103 
Q 1463 3103 1205 2759 
Q 947 2416 947 1791 
Q 947 1169 1205 825 
Q 1463 481 1925 481 
Q 2391 481 2648 825 
Q 2906 1169 2906 1791 
z
M 3481 434 
Q 3481 -459 3084 -895 
Q 2688 -1331 1869 -1331 
Q 1566 -1331 1297 -1286 
Q 1028 -1241 775 -1147 
L 775 -588 
Q 1028 -725 1275 -790 
Q 1522 -856 1778 -856 
Q 2344 -856 2625 -561 
Q 2906 -266 2906 331 
L 2906 616 
Q 2728 306 2450 153 
Q 2172 0 1784 0 
Q 1141 0 747 490 
Q 353 981 353 1791 
Q 353 2603 747 3093 
Q 1141 3584 1784 3584 
Q 2172 3584 2450 3431 
Q 2728 3278 2906 2969 
L 2906 3500 
L 3481 3500 
L 3481 434 
z
" transform="scale(0.015625)"/>
      </defs>
      <use xlink:href="#DejaVuSans-44"/>
      <use xlink:href="#DejaVuSans-69" x="77.001953"/>
      <use xlink:href="#DejaVuSans-72" x="104.785156"/>
      <use xlink:href="#DejaVuSans-65" x="143.648438"/>
      <use xlink:href="#DejaVuSans-63" x="205.171875"/>
      <use xlink:href="#DejaVuSans-74" x="260.152344"/>
      <use xlink:href="#DejaVuSans-65" x="299.361328"/>
      <use xlink:href="#DejaVuSans-64" x="360.884766"/>
      <use xlink:href="#DejaVuSans-20" x="424.361328"/>
      <use xlink:href="#DejaVuSans-70" x="456.148438"/>
      <use xlink:href="#DejaVuSans-72" x="519.625"/>
      <use xlink:href="#DejaVuSans-65" x="558.488281"/>
      <use xlink:href="#DejaVuSans-64" x="620.011719"/>
      <use xlink:href="#DejaVuSans-69" x="683.488281"/>
      <use xlink:href="#DejaVuSans-63" x="711.271484"/>
      <use xlink:href="#DejaVuSans-74" x="766.251953"/>
      <use xlink:href="#DejaVuSans-61" x="805.460938"/>
      <use xlink:href="#DejaVuSans-62" x="866.740234"/>
      <use xlink:href="#DejaVuSans-69" x="930.216797"/>
      <use xlink:href="#DejaVuSans-6c" x="958"/>
      <use xlink:href="#DejaVuSans-69" x="985.783203"/>
      <use xlink:href="#DejaVuSans-74" x="1013.566406"/>
      <use xlink:href="#DejaVuSans-79" x="1052.775391"/>
      <use xlink:href="#DejaVuSans-20" x="1111.955078"/>
      <use xlink:href="#DejaVuSans-67" x="1143.742188"/>
      <use xlink:href="#DejaVuSans-61" x="1207.21875"/>
      <use xlink:href="#DejaVuSans-69" x="1268.498047"/>
      <use xlink:href="#DejaVuSans-6e" x="1296.28125"/>
      <use xlink:href="#DejaVuSans-20" x="1359.660156"/>
      <use xlink:href="#DejaVuSans-28" x="1391.447266"/>
      <use xlink:href="#DejaVuSans-62" x="1430.460938"/>
      <use xlink:href="#DejaVuSans-69" x="1493.9375"/>
      <use xlink:href="#DejaVuSans-74" x="1521.720703"/>
      <use xlink:href="#DejaVuSans-73" x="1560.929688"/>
      <use xlink:href="#DejaVuSans-29" x="1613.029297"/>
     </g>
    </g>
   </g>
   <g id="line2d_15">
    <path d="M 220.8 396 
L 220.8 36 
" clip-path="url(#pd994f9da52)" style="fill: none; stroke-dasharray: 2.96,1.28; stroke-dashoffset: 0; stroke: #000000; stroke-width: 0.8"/>
   </g>
   <g id="line2d_16">
    <path d="M 100.8 326.00278 
L 820.8 326.00278 
" clip-path="url(#pd994f9da52)" style="fill: none; stroke-dasharray: 0.8,1.32; stroke-dashoffset: 0; stroke: #000000; stroke-width: 0.8"/>
   </g>
   <g id="line2d_17">
    <path d="M 16.799998 332.430569 
L 28.799995 311.264634 
L 40.800002 316.977641 
L 52.799999 330.781071 
L 64.799997 319.00415 
L 76.799999 301.4069 
L 88.800001 272.648998 
L 100.800003 302.275208 
L 112.8 320.429933 
L 124.799998 343.42794 
L 136.8 329.707666 
L 148.800002 313.531711 
L 160.799999 305.662159 
L 172.799999 287.027417 
L 184.8 302.58848 
L 196.8 286.150109 
L 208.8 320.89138 
L 220.8 329.564275 
L 232.8 311.94136 
L 244.8 305.289279 
L 256.8 283.933706 
L 268.800001 320.932026 
L 280.800001 318.708891 
L 292.799998 331.305846 
L 304.8 306.064816 
L 316.800002 280.635662 
L 328.8 281.374573 
L 340.799997 273.506868 
L 352.799999 285.371675 
L 364.800001 283.593226 
L 376.800003 309.882668 
L 388.800001 317.90363 
L 400.799998 322.645153 
L 412.800005 325.331454 
L 424.800002 319.703085 
L 436.8 293.096117 
L 448.799997 278.439282 
L 460.799995 273.932696 
L 472.800001 287.861799 
L 484.799999 294.700332 
L 496.799996 263.936555 
L 508.800003 225.14457 
L 520.8 204.412708 
L 532.799989 217.545214 
L 544.799995 232.151926 
L 556.800001 214.741374 
L 568.79999 219.929062 
L 580.799996 191.800894 
L 592.800003 187.81157 
L 604.799991 159.073433 
L 616.799998 175.104953 
L 628.800004 186.539152 
L 640.799993 191.454009 
L 652.799999 176.474117 
L 664.800006 136.311479 
L 676.799994 142.478922 
L 688.800001 125.667033 
L 700.800007 160.510957 
L 712.799996 162.638916 
L 724.800002 201.886448 
L 736.800009 210.36843 
L 748.799997 201.940399 
L 760.800004 214.790016 
L 772.80001 215.776254 
L 784.799999 263.338675 
L 796.800005 254.284503 
L 808.800011 272.581998 
L 820.8 270.266123 
L 832.799989 304.106309 
L 844.799977 298.487429 
L 856.800001 295.383218 
L 857.8 294.389394 
" clip-path="url(#pd994f9da52)" style="fill: none; stroke: #0e87cc; stroke-width: 2.5; stroke-linecap: square"/>
   </g>
   <g id="line2d_18">
    <path d="M 16.799998 323.768052 
L 28.799995 321.872993 
L 40.800002 321.125361 
L 52.799999 310.14262 
L 64.799997 314.256872 
L 76.799999 310.558558 
L 88.800001 308.179058 
L 100.800003 302.719904 
L 112.8 300.852556 
L 124.799998 309.841863 
L 136.8 290.680345 
L 148.800002 295.261734 
L 160.799999 297.579787 
L 172.799999 304.30676 
L 184.8 303.044746 
L 196.8 298.972363 
L 208.8 315.147274 
L 220.8 318.492554 
L 232.8 320.306748 
L 244.8 309.308535 
L 256.8 283.088278 
L 268.800001 297.90553 
L 280.800001 310.925477 
L 292.799998 319.798129 
L 304.8 316.829516 
L 316.800002 307.297431 
L 328.8 320.103311 
L 340.799997 312.992718 
L 352.799999 319.253039 
L 364.800001 316.9982 
L 376.800003 299.918258 
L 388.800001 301.99479 
L 400.799998 314.37421 
L 412.800005 324.235585 
L 424.800002 314.267966 
L 436.8 285.097483 
L 448.799997 274.963428 
L 460.799995 286.434914 
L 472.800001 301.34832 
L 484.799999 316.79718 
L 496.799996 305.799565 
L 508.800003 299.720784 
L 520.8 307.289963 
L 532.799989 295.041998 
L 544.799995 310.73196 
L 556.800001 291.417748 
L 568.79999 293.826317 
L 580.799996 282.634849 
L 592.800003 270.722829 
L 604.799991 272.854389 
L 616.799998 277.449615 
L 628.800004 269.503695 
L 640.799993 298.284802 
L 652.799999 287.644726 
L 664.800006 321.932732 
L 676.799994 293.612152 
L 688.800001 316.005807 
L 700.800007 290.752156 
L 712.799996 309.881472 
L 724.800002 292.948055 
L 736.800009 288.027503 
L 748.799997 283.501502 
L 760.800004 301.914779 
L 772.80001 323.88198 
L 784.799999 324.369558 
L 796.800005 294.105619 
L 808.800011 287.904872 
L 820.8 282.937947 
L 832.799989 305.394667 
L 844.799977 299.755322 
L 856.800001 278.835661 
L 857.8 278.840201 
" clip-path="url(#pd994f9da52)" style="fill: none; stroke: #c00a37; stroke-width: 2.5; stroke-linecap: square"/>
   </g>
   <g id="patch_3">
    <path d="M 100.8 396 
L 100.8 36 
" style="fill: none; stroke: #000000; stroke-width: 0.8; stroke-linejoin: miter; stroke-linecap: square"/>
   </g>
   <g id="patch_4">
    <path d="M 820.8 396 
L 820.8 36 
" style="fill: none; stroke: #000000; stroke-width: 0.8; stroke-linejoin: miter; stroke-linecap: square"/>
   </g>
   <g id="patch_5">
    <path d="M 100.8 396 
L 820.8 396 
" style="fill: none; stroke: #000000; stroke-width: 0.8; stroke-linejoin: miter; stroke-linecap: square"/>
   </g>
   <g id="patch_6">
    <path d="M 100.8 36 
L 820.8 36 
" style="fill: none; stroke: #000000; stroke-width: 0.8; stroke-linejoin: miter; stroke-linecap: square"/>
   </g>
   <g id="PathCollection_1">
    <defs>
     <path id="mdba1b48e84" d="M 0 1.870829 
C 0.49615 1.870829 0.972045 1.673706 1.322876 1.322876 
C 1.673706 0.972045 1.870829 0.49615 1.870829 0 
C 1.870829 -0.49615 1.673706 -0.972045 1.322876 -1.322876 
C 0.972045 -1.673706 0.49615 -1.870829 0 -1.870829 
C -0.49615 -1.870829 -0.972045 -1.673706 -1.322876 -1.322876 
C -1.673706 -0.972045 -1.870829 -0.49615 -1.870829 0 
C -1.870829 0.49615 -1.673706 0.972045 -1.322876 1.322876 
C -0.972045 1.673706 -0.49615 1.870829 0 1.870829 
z
" style="stroke: #0e87cc"/>
    </defs>
    <g clip-path="url(#pd994f9da52)">
     <use xlink:href="#mdba1b48e84" x="508.800003" y="378" style="fill: #0e87cc; stroke: #0e87cc"/>
     <use xlink:href="#mdba1b48e84" x="520.8" y="378" style="fill: #0e87cc; stroke: #0e87cc"/>
     <use xlink:href="#mdba1b48e84" x="556.800001" y="378" style="fill: #0e87cc; stroke: #0e87cc"/>
     <use xlink:href="#mdba1b48e84" x="580.799996" y="378" style="fill: #0e87cc; stroke: #0e87cc"/>
     <use xlink:href="#mdba1b48e84" x="604.799991" y="378" style="fill: #0e87cc; stroke: #0e87cc"/>
     <use xlink:href="#mdba1b48e84" x="664.800006" y="378" style="fill: #0e87cc; stroke: #0e87cc"/>
     <use xlink:href="#mdba1b48e84" x="676.799994" y="378" style="fill: #0e87cc; stroke: #0e87cc"/>
     <use xlink:href="#mdba1b48e84" x="688.800001" y="378" style="fill: #0e87cc; stroke: #0e87cc"/>
     <use xlink:href="#mdba1b48e84" x="700.800007" y="378" style="fill: #0e87cc; stroke: #0e87cc"/>
     <use xlink:href="#mdba1b48e84" x="772.80001" y="378" style="fill: #0e87cc; stroke: #0e87cc"/>
     <use xlink:href="#mdba1b48e84" x="928.800004" y="378" style="fill: #0e87cc; stroke: #0e87cc"/>
     <use xlink:href="#mdba1b48e84" x="1012.799996" y="378" style="fill: #0e87cc; stroke: #0e87cc"/>
     <use xlink:href="#mdba1b48e84" x="1024.80002" y="378" style="fill: #0e87cc; stroke: #0e87cc"/>
    </g>
   </g>
   <g id="legend_1">
    <g id="line2d_19">
     <path d="M 114.3 55.647656 
L 129.3 55.647656 
L 144.3 55.647656 
" style="fill: none; stroke: #0e87cc; stroke-width: 2.5; stroke-linecap: square"/>
    </g>
    <g id="text_17">
     <!-- SFEF→SLIP -->
     <g transform="translate(156.3 60.897656) scale(0.15 -0.15)">
      <defs>
       <path id="DejaVuSans-46" d="M 628 4666 
L 3309 4666 
L 3309 4134 
L 1259 4134 
L 1259 2759 
L 3109 2759 
L 3109 2228 
L 1259 2228 
L 1259 0 
L 628 0 
L 628 4666 
z
" transform="scale(0.015625)"/>
       <path id="DejaVuSans-45" d="M 628 4666 
L 3578 4666 
L 3578 4134 
L 1259 4134 
L 1259 2753 
L 3481 2753 
L 3481 2222 
L 1259 2222 
L 1259 531 
L 3634 531 
L 3634 0 
L 628 0 
L 628 4666 
z
" transform="scale(0.015625)"/>
       <path id="DejaVuSans-2192" d="M 5050 2147 
L 5050 1866 
L 3822 638 
L 3447 1013 
L 4175 1741 
L 366 1741 
L 366 2272 
L 4175 2272 
L 3447 3000 
L 3822 3375 
L 5050 2147 
z
" transform="scale(0.015625)"/>
       <path id="DejaVuSans-4c" d="M 628 4666 
L 1259 4666 
L 1259 531 
L 3531 531 
L 3531 0 
L 628 0 
L 628 4666 
z
" transform="scale(0.015625)"/>
       <path id="DejaVuSans-49" d="M 628 4666 
L 1259 4666 
L 1259 0 
L 628 0 
L 628 4666 
z
" transform="scale(0.015625)"/>
       <path id="DejaVuSans-50" d="M 1259 4147 
L 1259 2394 
L 2053 2394 
Q 2494 2394 2734 2622 
Q 2975 2850 2975 3272 
Q 2975 3691 2734 3919 
Q 2494 4147 2053 4147 
L 1259 4147 
z
M 628 4666 
L 2053 4666 
Q 2838 4666 3239 4311 
Q 3641 3956 3641 3272 
Q 3641 2581 3239 2228 
Q 2838 1875 2053 1875 
L 1259 1875 
L 1259 0 
L 628 0 
L 628 4666 
z
" transform="scale(0.015625)"/>
      </defs>
      <use xlink:href="#DejaVuSans-53"/>
      <use xlink:href="#DejaVuSans-46" x="63.476562"/>
      <use xlink:href="#DejaVuSans-45" x="120.996094"/>
      <use xlink:href="#DejaVuSans-46" x="184.179688"/>
      <use xlink:href="#DejaVuSans-2192" x="241.699219"/>
      <use xlink:href="#DejaVuSans-53" x="325.488281"/>
      <use xlink:href="#DejaVuSans-4c" x="388.964844"/>
      <use xlink:href="#DejaVuSans-49" x="444.677734"/>
      <use xlink:href="#DejaVuSans-50" x="474.169922"/>
     </g>
    </g>
    <g id="line2d_20">
     <path d="M 114.3 77.664844 
L 129.3 77.664844 
L 144.3 77.664844 
" style="fill: none; stroke: #c00a37; stroke-width: 2.5; stroke-linecap: square"/>
    </g>
    <g id="text_18">
     <!-- SLIP→SFEF -->
     <g transform="translate(156.3 82.914844) scale(0.15 -0.15)">
      <use xlink:href="#DejaVuSans-53"/>
      <use xlink:href="#DejaVuSans-4c" x="63.476562"/>
      <use xlink:href="#DejaVuSans-49" x="119.189453"/>
      <use xlink:href="#DejaVuSans-50" x="148.681641"/>
      <use xlink:href="#DejaVuSans-2192" x="208.984375"/>
      <use xlink:href="#DejaVuSans-53" x="292.773438"/>
      <use xlink:href="#DejaVuSans-46" x="356.25"/>
      <use xlink:href="#DejaVuSans-45" x="413.769531"/>
      <use xlink:href="#DejaVuSans-46" x="476.953125"/>
     </g>
    </g>
   </g>
  </g>
 </g>
 <defs>
  <clipPath id="pd994f9da52">
   <rect x="100.8" y="36" width="720" height="360"/>
  </clipPath>
 </defs>
</svg>
