<?xml version="1.0" encoding="utf-8" standalone="no"?>
<!DOCTYPE svg PUBLIC "-//W3C//DTD SVG 1.1//EN"
  "http://www.w3.org/Graphics/SVG/1.1/DTD/svg11.dtd">
<svg xmlns:xlink="http://www.w3.org/1999/xlink" width="856.8pt" height="453.6pt" viewBox="0 0 856.8 453.6" xmlns="http://www.w3.org/2000/svg" version="1.1">
 <metadata>
  <rdf:RDF xmlns:dc="http://purl.org/dc/elements/1.1/" xmlns:cc="http://creativecommons.org/ns#" xmlns:rdf="http://www.w3.org/1999/02/22-rdf-syntax-ns#">
   <cc:Work>
    <dc:type rdf:resource="http://purl.org/dc/dcmitype/StillImage"/>
    <dc:date>2026-01-28T18:12:14.099745</dc:date>
    <dc:format>image/svg+xml</dc:format>
    <dc:creator>
     <cc:Agent>
      <dc:title>Matplotlib v3.9.4, https://matplotlib.org/</dc:title>
     </cc:Agent>
    </dc:creator>
   </cc:Work>
  </rdf:RDF>
 </metadata>
 <defs>
  <style type="text/css">*{stroke-linejoin: round; stroke-linecap: butt}</style>
 </defs>
 <g id="figure_1">
  <g id="patch_1">
   <path d="M 0 453.6 
L 856.8 453.6 
L 856.8 0 
L 0 0 
z
" style="fill: #ffffff"/>
  </g>
  <g id="axes_1">
   <g id="patch_2">
    <path d="M 100.8 396 
L 820.8 396 
L 820.8 36 
L 100.8 36 
z
" style="fill: #ffffff"/>
   </g>
   <g id="PolyCollection_1">
    <path d="M -43.200003 325.798178 
L -43.200003 355.138449 
L -31.200001 372.902782 
L -19.199999 360.250921 
L -7.200002 356.783299 
L 4.8 338.715258 
L 16.800002 350.512039 
L 28.8 344.397527 
L 40.800002 346.53492 
L 52.800004 339.067518 
L 64.800001 348.092522 
L 76.800001 354.301632 
L 88.800001 368.637266 
L 100.8 374.803424 
L 112.8 365.428093 
L 124.8 362.986986 
L 136.8 362.607605 
L 148.799999 368.114318 
L 160.8 344.967914 
L 172.8 339.631379 
L 184.8 339.66328 
L 196.8 358.650336 
L 208.8 355.682753 
L 220.8 365.450818 
L 232.8 346.446256 
L 244.8 351.823471 
L 256.8 336.669419 
L 268.8 342.343063 
L 280.8 348.800179 
L 292.800001 356.163427 
L 304.8 360.219959 
L 316.8 348.476515 
L 328.8 350.413856 
L 340.8 358.67679 
L 352.799999 358.45076 
L 364.799999 354.823101 
L 376.799999 344.829843 
L 388.799996 353.324982 
L 400.799998 335.046949 
L 412.8 334.48585 
L 424.799998 313.288945 
L 436.8 321.816726 
L 448.800002 330.788525 
L 460.799999 336.483743 
L 472.800001 326.175695 
L 484.800003 308.736004 
L 496.800001 298.038912 
L 508.800003 294.697634 
L 520.8 289.852184 
L 532.799997 293.07036 
L 544.800004 286.359792 
L 556.800001 267.707892 
L 568.799999 267.057669 
L 580.800005 243.549175 
L 592.800003 207.349083 
L 604.799991 179.589482 
L 616.799998 176.667652 
L 628.800004 179.603331 
L 640.799993 168.114465 
L 652.799999 172.167437 
L 664.800006 194.984313 
L 676.799994 177.626636 
L 688.800001 184.836509 
L 700.800007 179.896834 
L 712.799996 198.446974 
L 724.800002 200.426247 
L 736.800009 188.499096 
L 748.799997 188.561471 
L 760.799995 180.296452 
L 772.800001 220.474802 
L 784.799999 267.154281 
L 796.799996 304.872732 
L 808.800003 314.890233 
L 820.8 315.134476 
L 832.799989 317.534714 
L 844.799977 342.380405 
L 856.800001 348.889451 
L 868.800026 355.539677 
L 880.800014 348.555033 
L 892.800003 345.17275 
L 904.799991 340.911693 
L 916.79998 331.731332 
L 928.799986 340.901898 
L 940.800011 318.337935 
L 952.800017 316.02385 
L 964.800006 303.983369 
L 976.799994 336.729638 
L 988.799983 316.98116 
L 1000.799989 316.968641 
L 1012.800014 313.583636 
L 1024.80002 331.061679 
L 1036.800009 338.667847 
L 1048.799997 335.657617 
L 1060.799986 352.206348 
L 1072.799974 341.569605 
L 1084.799999 343.539227 
L 1096.800023 344.153408 
L 1108.800011 345.204687 
L 1120.8 358.075486 
L 1132.799989 355.265653 
L 1144.799977 368.200601 
L 1156.800001 353.942571 
L 1168.800026 348.643899 
L 1168.800026 298.104054 
L 1168.800026 298.104054 
L 1156.800001 301.880011 
L 1144.799977 322.294943 
L 1132.799989 310.888645 
L 1120.8 318.192963 
L 1108.800011 295.048367 
L 1096.800023 294.405826 
L 1084.799999 293.251356 
L 1072.799974 286.474081 
L 1060.799986 303.100233 
L 1048.799997 288.166464 
L 1036.800009 297.620869 
L 1024.80002 284.399343 
L 1012.800014 261.054827 
L 1000.799989 272.044657 
L 988.799983 268.91317 
L 976.799994 293.800453 
L 964.800006 250.415394 
L 952.800017 262.549554 
L 940.800011 246.900117 
L 928.799986 270.57077 
L 916.79998 263.96357 
L 904.799991 294.730705 
L 892.800003 301.3449 
L 880.800014 305.515824 
L 868.800026 308.334535 
L 856.800001 300.968947 
L 844.799977 288.882017 
L 832.799989 258.07324 
L 820.8 258.188091 
L 808.800003 258.006867 
L 796.799996 242.160129 
L 784.799999 188.25198 
L 772.800001 119.906365 
L 760.799995 65.593387 
L 748.799997 52.363636 
L 736.800009 61.222934 
L 724.800002 73.526628 
L 712.799996 89.424956 
L 700.800007 74.938638 
L 688.800001 82.432184 
L 676.799994 80.178289 
L 664.800006 96.357326 
L 652.799999 76.255557 
L 640.799993 76.894811 
L 628.800004 109.592552 
L 616.799998 111.640478 
L 604.799991 92.392072 
L 592.800003 103.2985 
L 580.800005 148.683308 
L 568.799999 188.121402 
L 556.800001 174.661625 
L 544.800004 176.529751 
L 532.799997 188.683861 
L 520.8 201.429894 
L 508.800003 219.433815 
L 496.800001 220.59888 
L 484.800003 235.020932 
L 472.800001 265.015316 
L 460.799999 286.953293 
L 448.800002 282.684751 
L 436.8 266.56216 
L 424.799998 246.058054 
L 412.8 273.944077 
L 400.799998 279.95662 
L 388.799996 304.20488 
L 376.799999 294.960175 
L 364.799999 306.061754 
L 352.799999 314.22022 
L 340.8 311.145629 
L 328.8 298.902077 
L 316.8 300.38863 
L 304.8 319.446086 
L 292.800001 317.114339 
L 280.8 310.437519 
L 268.8 295.909495 
L 256.8 293.637918 
L 244.8 311.942858 
L 232.8 311.669983 
L 220.8 327.909212 
L 208.8 318.329623 
L 196.8 318.948655 
L 184.8 298.83382 
L 172.8 291.789757 
L 160.8 287.239638 
L 148.799999 316.216143 
L 136.8 314.750591 
L 124.8 332.748691 
L 112.8 334.614659 
L 100.8 344.805293 
L 88.800001 321.878893 
L 76.800001 304.912244 
L 64.800001 302.1663 
L 52.800004 295.734737 
L 40.800002 304.302727 
L 28.8 300.710718 
L 16.800002 316.631974 
L 4.8 302.969017 
L -7.200002 322.298184 
L -19.199999 327.682194 
L -31.200001 343.150374 
L -43.200003 325.798178 
z
" clip-path="url(#p4be1a3f7ba)" style="fill: #0e87cc; fill-opacity: 0.25"/>
   </g>
   <g id="PolyCollection_2">
    <path d="M -43.200003 316.442399 
L -43.200003 360.503319 
L -31.200001 369.909303 
L -19.199999 369.654194 
L -7.200002 379.636364 
L 4.8 374.691931 
L 16.800002 363.305087 
L 28.8 351.836251 
L 40.800002 345.785855 
L 52.800004 352.961635 
L 64.800001 355.688981 
L 76.800001 356.940191 
L 88.800001 355.482008 
L 100.8 348.779006 
L 112.8 350.595517 
L 124.8 335.075775 
L 136.8 333.302351 
L 148.799999 322.524736 
L 160.8 338.735586 
L 172.8 343.147807 
L 184.8 355.235218 
L 196.8 355.788063 
L 208.8 358.280517 
L 220.8 360.160463 
L 232.8 356.150635 
L 244.8 342.48221 
L 256.8 340.90902 
L 268.8 337.833061 
L 280.8 353.891369 
L 292.800001 348.366306 
L 304.8 356.905671 
L 316.8 356.550466 
L 328.8 361.185505 
L 340.8 361.397656 
L 352.799999 350.131411 
L 364.799999 352.782789 
L 376.799999 348.179488 
L 388.799996 353.149038 
L 400.799998 342.356417 
L 412.8 351.754201 
L 424.799998 352.706051 
L 436.8 343.40458 
L 448.800002 342.761065 
L 460.799999 341.842978 
L 472.800001 350.720728 
L 484.800003 340.710203 
L 496.800001 348.418609 
L 508.800003 349.205554 
L 520.8 353.713958 
L 532.799997 349.386391 
L 544.800004 347.495707 
L 556.800001 345.531154 
L 568.799999 347.86573 
L 580.800005 342.806618 
L 592.800003 347.133984 
L 604.799991 336.353249 
L 616.799998 338.807113 
L 628.800004 329.515221 
L 640.799993 318.159905 
L 652.799999 316.502334 
L 664.800006 313.249013 
L 676.799994 330.148255 
L 688.800001 342.740394 
L 700.800007 353.795228 
L 712.799996 333.77041 
L 724.800002 319.547992 
L 736.800009 301.591775 
L 748.799997 305.961578 
L 760.799995 299.499755 
L 772.800001 298.634526 
L 784.799999 304.477928 
L 796.799996 307.40392 
L 808.800003 305.622016 
L 820.8 301.060047 
L 832.799989 305.536417 
L 844.799977 323.384351 
L 856.800001 327.52809 
L 868.800026 325.32407 
L 880.800014 310.039674 
L 892.800003 322.029645 
L 904.799991 326.695666 
L 916.79998 348.806378 
L 928.799986 335.219271 
L 940.800011 336.530752 
L 952.800017 322.205466 
L 964.800006 335.686172 
L 976.799994 334.167367 
L 988.799983 327.132838 
L 1000.799989 313.337145 
L 1012.800014 316.296504 
L 1024.80002 324.222533 
L 1036.800009 332.13529 
L 1048.799997 340.367696 
L 1060.799986 354.264111 
L 1072.799974 360.584187 
L 1084.799999 356.614951 
L 1096.800023 343.878011 
L 1108.800011 349.480761 
L 1120.8 353.606138 
L 1132.799989 358.800641 
L 1144.799977 355.157833 
L 1156.800001 357.876875 
L 1168.800026 361.614117 
L 1168.800026 330.464918 
L 1168.800026 330.464918 
L 1156.800001 323.174308 
L 1144.799977 313.808044 
L 1132.799989 320.060614 
L 1120.8 310.991691 
L 1108.800011 305.20213 
L 1096.800023 296.459131 
L 1084.799999 315.857492 
L 1072.799974 318.694809 
L 1060.799986 305.442022 
L 1048.799997 290.998757 
L 1036.800009 281.654003 
L 1024.80002 275.634582 
L 1012.800014 251.910036 
L 1000.799989 249.918559 
L 988.799983 265.754635 
L 976.799994 280.622717 
L 964.800006 288.270094 
L 952.800017 274.004883 
L 940.800011 298.103764 
L 928.799986 295.251687 
L 916.79998 311.488096 
L 904.799991 282.795408 
L 892.800003 277.756594 
L 880.800014 246.914365 
L 868.800026 258.046447 
L 856.800001 251.9614 
L 844.799977 255.338008 
L 832.799989 242.784628 
L 820.8 254.161164 
L 808.800003 266.321024 
L 796.799996 263.147989 
L 784.799999 245.328023 
L 772.800001 225.471475 
L 760.799995 232.956259 
L 748.799997 245.924006 
L 736.800009 260.340887 
L 724.800002 273.563115 
L 712.799996 292.867375 
L 700.800007 311.420237 
L 688.800001 307.765036 
L 676.799994 283.111543 
L 664.800006 265.171078 
L 652.799999 260.748554 
L 640.799993 268.490784 
L 628.800004 274.059531 
L 616.799998 288.322966 
L 604.799991 288.898125 
L 592.800003 310.268087 
L 580.800005 310.366829 
L 568.799999 316.713168 
L 556.800001 310.391593 
L 544.800004 308.074836 
L 532.799997 300.798322 
L 520.8 302.009178 
L 508.800003 300.363499 
L 496.800001 306.748454 
L 484.800003 297.012525 
L 472.800001 308.775894 
L 460.799999 303.886671 
L 448.800002 311.856457 
L 436.8 307.295591 
L 424.799998 312.893993 
L 412.8 300.739639 
L 400.799998 289.070734 
L 388.799996 299.522022 
L 376.799999 288.256152 
L 364.799999 289.092966 
L 352.799999 291.791871 
L 340.8 315.758806 
L 328.8 315.202556 
L 316.8 304.340117 
L 304.8 306.58962 
L 292.800001 300.862759 
L 280.8 305.60102 
L 268.8 282.101201 
L 256.8 286.938574 
L 244.8 293.017428 
L 232.8 314.48989 
L 220.8 320.940668 
L 208.8 317.051781 
L 196.8 317.533773 
L 184.8 313.322704 
L 172.8 298.077132 
L 160.8 293.122933 
L 148.799999 280.959157 
L 136.8 299.405189 
L 124.8 294.741863 
L 112.8 307.761308 
L 100.8 302.857437 
L 88.800001 314.416708 
L 76.800001 318.64994 
L 64.800001 312.87441 
L 52.800004 310.399012 
L 40.800002 291.20776 
L 28.8 302.188985 
L 16.800002 313.544169 
L 4.8 336.380298 
L -7.200002 339.394096 
L -19.199999 326.906914 
L -31.200001 325.910694 
L -43.200003 316.442399 
z
" clip-path="url(#p4be1a3f7ba)" style="fill: #c00a37; fill-opacity: 0.25"/>
   </g>
   <g id="matplotlib.axis_1">
    <g id="xtick_1">
     <g id="line2d_1">
      <defs>
       <path id="me2c4ee7250" d="M 0 0 
L 0 3.5 
" style="stroke: #000000; stroke-width: 0.8"/>
      </defs>
      <g>
       <use xlink:href="#me2c4ee7250" x="100.8" y="396" style="stroke: #000000; stroke-width: 0.8"/>
      </g>
     </g>
     <g id="text_1">
      <!-- −100 -->
      <g transform="translate(78.82625 415.1575) scale(0.16 -0.16)">
       <defs>
        <path id="DejaVuSans-2212" d="M 678 2272 
L 4684 2272 
L 4684 1741 
L 678 1741 
L 678 2272 
z
" transform="scale(0.015625)"/>
        <path id="DejaVuSans-31" d="M 794 531 
L 1825 531 
L 1825 4091 
L 703 3866 
L 703 4441 
L 1819 4666 
L 2450 4666 
L 2450 531 
L 3481 531 
L 3481 0 
L 794 0 
L 794 531 
z
" transform="scale(0.015625)"/>
        <path id="DejaVuSans-30" d="M 2034 4250 
Q 1547 4250 1301 3770 
Q 1056 3291 1056 2328 
Q 1056 1369 1301 889 
Q 1547 409 2034 409 
Q 2525 409 2770 889 
Q 3016 1369 3016 2328 
Q 3016 3291 2770 3770 
Q 2525 4250 2034 4250 
z
M 2034 4750 
Q 2819 4750 3233 4129 
Q 3647 3509 3647 2328 
Q 3647 1150 3233 529 
Q 2819 -91 2034 -91 
Q 1250 -91 836 529 
Q 422 1150 422 2328 
Q 422 3509 836 4129 
Q 1250 4750 2034 4750 
z
" transform="scale(0.015625)"/>
       </defs>
       <use xlink:href="#DejaVuSans-2212"/>
       <use xlink:href="#DejaVuSans-31" x="83.789062"/>
       <use xlink:href="#DejaVuSans-30" x="147.412109"/>
       <use xlink:href="#DejaVuSans-30" x="211.035156"/>
      </g>
     </g>
    </g>
    <g id="xtick_2">
     <g id="line2d_2">
      <g>
       <use xlink:href="#me2c4ee7250" x="220.8" y="396" style="stroke: #000000; stroke-width: 0.8"/>
      </g>
     </g>
     <g id="text_2">
      <!-- 0 -->
      <g transform="translate(215.71 415.1575) scale(0.16 -0.16)">
       <use xlink:href="#DejaVuSans-30"/>
      </g>
     </g>
    </g>
    <g id="xtick_3">
     <g id="line2d_3">
      <g>
       <use xlink:href="#me2c4ee7250" x="340.8" y="396" style="stroke: #000000; stroke-width: 0.8"/>
      </g>
     </g>
     <g id="text_3">
      <!-- 100 -->
      <g transform="translate(325.53 415.1575) scale(0.16 -0.16)">
       <use xlink:href="#DejaVuSans-31"/>
       <use xlink:href="#DejaVuSans-30" x="63.623047"/>
       <use xlink:href="#DejaVuSans-30" x="127.246094"/>
      </g>
     </g>
    </g>
    <g id="xtick_4">
     <g id="line2d_4">
      <g>
       <use xlink:href="#me2c4ee7250" x="460.8" y="396" style="stroke: #000000; stroke-width: 0.8"/>
      </g>
     </g>
     <g id="text_4">
      <!-- 200 -->
      <g transform="translate(445.53 415.1575) scale(0.16 -0.16)">
       <defs>
        <path id="DejaVuSans-32" d="M 1228 531 
L 3431 531 
L 3431 0 
L 469 0 
L 469 531 
Q 828 903 1448 1529 
Q 2069 2156 2228 2338 
Q 2531 2678 2651 2914 
Q 2772 3150 2772 3378 
Q 2772 3750 2511 3984 
Q 2250 4219 1831 4219 
Q 1534 4219 1204 4116 
Q 875 4013 500 3803 
L 500 4441 
Q 881 4594 1212 4672 
Q 1544 4750 1819 4750 
Q 2544 4750 2975 4387 
Q 3406 4025 3406 3419 
Q 3406 3131 3298 2873 
Q 3191 2616 2906 2266 
Q 2828 2175 2409 1742 
Q 1991 1309 1228 531 
z
" transform="scale(0.015625)"/>
       </defs>
       <use xlink:href="#DejaVuSans-32"/>
       <use xlink:href="#DejaVuSans-30" x="63.623047"/>
       <use xlink:href="#DejaVuSans-30" x="127.246094"/>
      </g>
     </g>
    </g>
    <g id="xtick_5">
     <g id="line2d_5">
      <g>
       <use xlink:href="#me2c4ee7250" x="580.8" y="396" style="stroke: #000000; stroke-width: 0.8"/>
      </g>
     </g>
     <g id="text_5">
      <!-- 300 -->
      <g transform="translate(565.53 415.1575) scale(0.16 -0.16)">
       <defs>
        <path id="DejaVuSans-33" d="M 2597 2516 
Q 3050 2419 3304 2112 
Q 3559 1806 3559 1356 
Q 3559 666 3084 287 
Q 2609 -91 1734 -91 
Q 1441 -91 1130 -33 
Q 819 25 488 141 
L 488 750 
Q 750 597 1062 519 
Q 1375 441 1716 441 
Q 2309 441 2620 675 
Q 2931 909 2931 1356 
Q 2931 1769 2642 2001 
Q 2353 2234 1838 2234 
L 1294 2234 
L 1294 2753 
L 1863 2753 
Q 2328 2753 2575 2939 
Q 2822 3125 2822 3475 
Q 2822 3834 2567 4026 
Q 2313 4219 1838 4219 
Q 1578 4219 1281 4162 
Q 984 4106 628 3988 
L 628 4550 
Q 988 4650 1302 4700 
Q 1616 4750 1894 4750 
Q 2613 4750 3031 4423 
Q 3450 4097 3450 3541 
Q 3450 3153 3228 2886 
Q 3006 2619 2597 2516 
z
" transform="scale(0.015625)"/>
       </defs>
       <use xlink:href="#DejaVuSans-33"/>
       <use xlink:href="#DejaVuSans-30" x="63.623047"/>
       <use xlink:href="#DejaVuSans-30" x="127.246094"/>
      </g>
     </g>
    </g>
    <g id="xtick_6">
     <g id="line2d_6">
      <g>
       <use xlink:href="#me2c4ee7250" x="700.8" y="396" style="stroke: #000000; stroke-width: 0.8"/>
      </g>
     </g>
     <g id="text_6">
      <!-- 400 -->
      <g transform="translate(685.53 415.1575) scale(0.16 -0.16)">
       <defs>
        <path id="DejaVuSans-34" d="M 2419 4116 
L 825 1625 
L 2419 1625 
L 2419 4116 
z
M 2253 4666 
L 3047 4666 
L 3047 1625 
L 3713 1625 
L 3713 1100 
L 3047 1100 
L 3047 0 
L 2419 0 
L 2419 1100 
L 313 1100 
L 313 1709 
L 2253 4666 
z
" transform="scale(0.015625)"/>
       </defs>
       <use xlink:href="#DejaVuSans-34"/>
       <use xlink:href="#DejaVuSans-30" x="63.623047"/>
       <use xlink:href="#DejaVuSans-30" x="127.246094"/>
      </g>
     </g>
    </g>
    <g id="xtick_7">
     <g id="line2d_7">
      <g>
       <use xlink:href="#me2c4ee7250" x="820.8" y="396" style="stroke: #000000; stroke-width: 0.8"/>
      </g>
     </g>
     <g id="text_7">
      <!-- 500 -->
      <g transform="translate(805.53 415.1575) scale(0.16 -0.16)">
       <defs>
        <path id="DejaVuSans-35" d="M 691 4666 
L 3169 4666 
L 3169 4134 
L 1269 4134 
L 1269 2991 
Q 1406 3038 1543 3061 
Q 1681 3084 1819 3084 
Q 2600 3084 3056 2656 
Q 3513 2228 3513 1497 
Q 3513 744 3044 326 
Q 2575 -91 1722 -91 
Q 1428 -91 1123 -41 
Q 819 9 494 109 
L 494 744 
Q 775 591 1075 516 
Q 1375 441 1709 441 
Q 2250 441 2565 725 
Q 2881 1009 2881 1497 
Q 2881 1984 2565 2268 
Q 2250 2553 1709 2553 
Q 1456 2553 1204 2497 
Q 953 2441 691 2322 
L 691 4666 
z
" transform="scale(0.015625)"/>
       </defs>
       <use xlink:href="#DejaVuSans-35"/>
       <use xlink:href="#DejaVuSans-30" x="63.623047"/>
       <use xlink:href="#DejaVuSans-30" x="127.246094"/>
      </g>
     </g>
    </g>
    <g id="text_8">
     <!-- Time from Stimulus Onset (ms) -->
     <g transform="translate(320.273438 436.162187) scale(0.18 -0.18)">
      <defs>
       <path id="DejaVuSans-54" d="M -19 4666 
L 3928 4666 
L 3928 4134 
L 2272 4134 
L 2272 0 
L 1638 0 
L 1638 4134 
L -19 4134 
L -19 4666 
z
" transform="scale(0.015625)"/>
       <path id="DejaVuSans-69" d="M 603 3500 
L 1178 3500 
L 1178 0 
L 603 0 
L 603 3500 
z
M 603 4863 
L 1178 4863 
L 1178 4134 
L 603 4134 
L 603 4863 
z
" transform="scale(0.015625)"/>
       <path id="DejaVuSans-6d" d="M 3328 2828 
Q 3544 3216 3844 3400 
Q 4144 3584 4550 3584 
Q 5097 3584 5394 3201 
Q 5691 2819 5691 2113 
L 5691 0 
L 5113 0 
L 5113 2094 
Q 5113 2597 4934 2840 
Q 4756 3084 4391 3084 
Q 3944 3084 3684 2787 
Q 3425 2491 3425 1978 
L 3425 0 
L 2847 0 
L 2847 2094 
Q 2847 2600 2669 2842 
Q 2491 3084 2119 3084 
Q 1678 3084 1418 2786 
Q 1159 2488 1159 1978 
L 1159 0 
L 581 0 
L 581 3500 
L 1159 3500 
L 1159 2956 
Q 1356 3278 1631 3431 
Q 1906 3584 2284 3584 
Q 2666 3584 2933 3390 
Q 3200 3197 3328 2828 
z
" transform="scale(0.015625)"/>
       <path id="DejaVuSans-65" d="M 3597 1894 
L 3597 1613 
L 953 1613 
Q 991 1019 1311 708 
Q 1631 397 2203 397 
Q 2534 397 2845 478 
Q 3156 559 3463 722 
L 3463 178 
Q 3153 47 2828 -22 
Q 2503 -91 2169 -91 
Q 1331 -91 842 396 
Q 353 884 353 1716 
Q 353 2575 817 3079 
Q 1281 3584 2069 3584 
Q 2775 3584 3186 3129 
Q 3597 2675 3597 1894 
z
M 3022 2063 
Q 3016 2534 2758 2815 
Q 2500 3097 2075 3097 
Q 1594 3097 1305 2825 
Q 1016 2553 972 2059 
L 3022 2063 
z
" transform="scale(0.015625)"/>
       <path id="DejaVuSans-20" transform="scale(0.015625)"/>
       <path id="DejaVuSans-66" d="M 2375 4863 
L 2375 4384 
L 1825 4384 
Q 1516 4384 1395 4259 
Q 1275 4134 1275 3809 
L 1275 3500 
L 2222 3500 
L 2222 3053 
L 1275 3053 
L 1275 0 
L 697 0 
L 697 3053 
L 147 3053 
L 147 3500 
L 697 3500 
L 697 3744 
Q 697 4328 969 4595 
Q 1241 4863 1831 4863 
L 2375 4863 
z
" transform="scale(0.015625)"/>
       <path id="DejaVuSans-72" d="M 2631 2963 
Q 2534 3019 2420 3045 
Q 2306 3072 2169 3072 
Q 1681 3072 1420 2755 
Q 1159 2438 1159 1844 
L 1159 0 
L 581 0 
L 581 3500 
L 1159 3500 
L 1159 2956 
Q 1341 3275 1631 3429 
Q 1922 3584 2338 3584 
Q 2397 3584 2469 3576 
Q 2541 3569 2628 3553 
L 2631 2963 
z
" transform="scale(0.015625)"/>
       <path id="DejaVuSans-6f" d="M 1959 3097 
Q 1497 3097 1228 2736 
Q 959 2375 959 1747 
Q 959 1119 1226 758 
Q 1494 397 1959 397 
Q 2419 397 2687 759 
Q 2956 1122 2956 1747 
Q 2956 2369 2687 2733 
Q 2419 3097 1959 3097 
z
M 1959 3584 
Q 2709 3584 3137 3096 
Q 3566 2609 3566 1747 
Q 3566 888 3137 398 
Q 2709 -91 1959 -91 
Q 1206 -91 779 398 
Q 353 888 353 1747 
Q 353 2609 779 3096 
Q 1206 3584 1959 3584 
z
" transform="scale(0.015625)"/>
       <path id="DejaVuSans-53" d="M 3425 4513 
L 3425 3897 
Q 3066 4069 2747 4153 
Q 2428 4238 2131 4238 
Q 1616 4238 1336 4038 
Q 1056 3838 1056 3469 
Q 1056 3159 1242 3001 
Q 1428 2844 1947 2747 
L 2328 2669 
Q 3034 2534 3370 2195 
Q 3706 1856 3706 1288 
Q 3706 609 3251 259 
Q 2797 -91 1919 -91 
Q 1588 -91 1214 -16 
Q 841 59 441 206 
L 441 856 
Q 825 641 1194 531 
Q 1563 422 1919 422 
Q 2459 422 2753 634 
Q 3047 847 3047 1241 
Q 3047 1584 2836 1778 
Q 2625 1972 2144 2069 
L 1759 2144 
Q 1053 2284 737 2584 
Q 422 2884 422 3419 
Q 422 4038 858 4394 
Q 1294 4750 2059 4750 
Q 2388 4750 2728 4690 
Q 3069 4631 3425 4513 
z
" transform="scale(0.015625)"/>
       <path id="DejaVuSans-74" d="M 1172 4494 
L 1172 3500 
L 2356 3500 
L 2356 3053 
L 1172 3053 
L 1172 1153 
Q 1172 725 1289 603 
Q 1406 481 1766 481 
L 2356 481 
L 2356 0 
L 1766 0 
Q 1100 0 847 248 
Q 594 497 594 1153 
L 594 3053 
L 172 3053 
L 172 3500 
L 594 3500 
L 594 4494 
L 1172 4494 
z
" transform="scale(0.015625)"/>
       <path id="DejaVuSans-75" d="M 544 1381 
L 544 3500 
L 1119 3500 
L 1119 1403 
Q 1119 906 1312 657 
Q 1506 409 1894 409 
Q 2359 409 2629 706 
Q 2900 1003 2900 1516 
L 2900 3500 
L 3475 3500 
L 3475 0 
L 2900 0 
L 2900 538 
Q 2691 219 2414 64 
Q 2138 -91 1772 -91 
Q 1169 -91 856 284 
Q 544 659 544 1381 
z
M 1991 3584 
L 1991 3584 
z
" transform="scale(0.015625)"/>
       <path id="DejaVuSans-6c" d="M 603 4863 
L 1178 4863 
L 1178 0 
L 603 0 
L 603 4863 
z
" transform="scale(0.015625)"/>
       <path id="DejaVuSans-73" d="M 2834 3397 
L 2834 2853 
Q 2591 2978 2328 3040 
Q 2066 3103 1784 3103 
Q 1356 3103 1142 2972 
Q 928 2841 928 2578 
Q 928 2378 1081 2264 
Q 1234 2150 1697 2047 
L 1894 2003 
Q 2506 1872 2764 1633 
Q 3022 1394 3022 966 
Q 3022 478 2636 193 
Q 2250 -91 1575 -91 
Q 1294 -91 989 -36 
Q 684 19 347 128 
L 347 722 
Q 666 556 975 473 
Q 1284 391 1588 391 
Q 1994 391 2212 530 
Q 2431 669 2431 922 
Q 2431 1156 2273 1281 
Q 2116 1406 1581 1522 
L 1381 1569 
Q 847 1681 609 1914 
Q 372 2147 372 2553 
Q 372 3047 722 3315 
Q 1072 3584 1716 3584 
Q 2034 3584 2315 3537 
Q 2597 3491 2834 3397 
z
" transform="scale(0.015625)"/>
       <path id="DejaVuSans-4f" d="M 2522 4238 
Q 1834 4238 1429 3725 
Q 1025 3213 1025 2328 
Q 1025 1447 1429 934 
Q 1834 422 2522 422 
Q 3209 422 3611 934 
Q 4013 1447 4013 2328 
Q 4013 3213 3611 3725 
Q 3209 4238 2522 4238 
z
M 2522 4750 
Q 3503 4750 4090 4092 
Q 4678 3434 4678 2328 
Q 4678 1225 4090 567 
Q 3503 -91 2522 -91 
Q 1538 -91 948 565 
Q 359 1222 359 2328 
Q 359 3434 948 4092 
Q 1538 4750 2522 4750 
z
" transform="scale(0.015625)"/>
       <path id="DejaVuSans-6e" d="M 3513 2113 
L 3513 0 
L 2938 0 
L 2938 2094 
Q 2938 2591 2744 2837 
Q 2550 3084 2163 3084 
Q 1697 3084 1428 2787 
Q 1159 2491 1159 1978 
L 1159 0 
L 581 0 
L 581 3500 
L 1159 3500 
L 1159 2956 
Q 1366 3272 1645 3428 
Q 1925 3584 2291 3584 
Q 2894 3584 3203 3211 
Q 3513 2838 3513 2113 
z
" transform="scale(0.015625)"/>
       <path id="DejaVuSans-28" d="M 1984 4856 
Q 1566 4138 1362 3434 
Q 1159 2731 1159 2009 
Q 1159 1288 1364 580 
Q 1569 -128 1984 -844 
L 1484 -844 
Q 1016 -109 783 600 
Q 550 1309 550 2009 
Q 550 2706 781 3412 
Q 1013 4119 1484 4856 
L 1984 4856 
z
" transform="scale(0.015625)"/>
       <path id="DejaVuSans-29" d="M 513 4856 
L 1013 4856 
Q 1481 4119 1714 3412 
Q 1947 2706 1947 2009 
Q 1947 1309 1714 600 
Q 1481 -109 1013 -844 
L 513 -844 
Q 928 -128 1133 580 
Q 1338 1288 1338 2009 
Q 1338 2731 1133 3434 
Q 928 4138 513 4856 
z
" transform="scale(0.015625)"/>
      </defs>
      <use xlink:href="#DejaVuSans-54"/>
      <use xlink:href="#DejaVuSans-69" x="57.958984"/>
      <use xlink:href="#DejaVuSans-6d" x="85.742188"/>
      <use xlink:href="#DejaVuSans-65" x="183.154297"/>
      <use xlink:href="#DejaVuSans-20" x="244.677734"/>
      <use xlink:href="#DejaVuSans-66" x="276.464844"/>
      <use xlink:href="#DejaVuSans-72" x="311.669922"/>
      <use xlink:href="#DejaVuSans-6f" x="350.533203"/>
      <use xlink:href="#DejaVuSans-6d" x="411.714844"/>
      <use xlink:href="#DejaVuSans-20" x="509.126953"/>
      <use xlink:href="#DejaVuSans-53" x="540.914062"/>
      <use xlink:href="#DejaVuSans-74" x="604.390625"/>
      <use xlink:href="#DejaVuSans-69" x="643.599609"/>
      <use xlink:href="#DejaVuSans-6d" x="671.382812"/>
      <use xlink:href="#DejaVuSans-75" x="768.794922"/>
      <use xlink:href="#DejaVuSans-6c" x="832.173828"/>
      <use xlink:href="#DejaVuSans-75" x="859.957031"/>
      <use xlink:href="#DejaVuSans-73" x="923.335938"/>
      <use xlink:href="#DejaVuSans-20" x="975.435547"/>
      <use xlink:href="#DejaVuSans-4f" x="1007.222656"/>
      <use xlink:href="#DejaVuSans-6e" x="1085.933594"/>
      <use xlink:href="#DejaVuSans-73" x="1149.3125"/>
      <use xlink:href="#DejaVuSans-65" x="1201.412109"/>
      <use xlink:href="#DejaVuSans-74" x="1262.935547"/>
      <use xlink:href="#DejaVuSans-20" x="1302.144531"/>
      <use xlink:href="#DejaVuSans-28" x="1333.931641"/>
      <use xlink:href="#DejaVuSans-6d" x="1372.945312"/>
      <use xlink:href="#DejaVuSans-73" x="1470.357422"/>
      <use xlink:href="#DejaVuSans-29" x="1522.457031"/>
     </g>
    </g>
   </g>
   <g id="matplotlib.axis_2">
    <g id="ytick_1">
     <g id="line2d_8">
      <defs>
       <path id="m5c7217fb75" d="M 0 0 
L -3.5 0 
" style="stroke: #000000; stroke-width: 0.8"/>
      </defs>
      <g>
       <use xlink:href="#m5c7217fb75" x="100.8" y="347.679722" style="stroke: #000000; stroke-width: 0.8"/>
      </g>
     </g>
     <g id="text_9">
      <!-- 0.00 -->
      <g transform="translate(58.175 353.758472) scale(0.16 -0.16)">
       <defs>
        <path id="DejaVuSans-2e" d="M 684 794 
L 1344 794 
L 1344 0 
L 684 0 
L 684 794 
z
" transform="scale(0.015625)"/>
       </defs>
       <use xlink:href="#DejaVuSans-30"/>
       <use xlink:href="#DejaVuSans-2e" x="63.623047"/>
       <use xlink:href="#DejaVuSans-30" x="95.410156"/>
       <use xlink:href="#DejaVuSans-30" x="159.033203"/>
      </g>
     </g>
    </g>
    <g id="ytick_2">
     <g id="line2d_9">
      <g>
       <use xlink:href="#m5c7217fb75" x="100.8" y="289.662295" style="stroke: #000000; stroke-width: 0.8"/>
      </g>
     </g>
     <g id="text_10">
      <!-- 0.01 -->
      <g transform="translate(58.175 295.741045) scale(0.16 -0.16)">
       <use xlink:href="#DejaVuSans-30"/>
       <use xlink:href="#DejaVuSans-2e" x="63.623047"/>
       <use xlink:href="#DejaVuSans-30" x="95.410156"/>
       <use xlink:href="#DejaVuSans-31" x="159.033203"/>
      </g>
     </g>
    </g>
    <g id="ytick_3">
     <g id="line2d_10">
      <g>
       <use xlink:href="#m5c7217fb75" x="100.8" y="231.644868" style="stroke: #000000; stroke-width: 0.8"/>
      </g>
     </g>
     <g id="text_11">
      <!-- 0.02 -->
      <g transform="translate(58.175 237.723618) scale(0.16 -0.16)">
       <use xlink:href="#DejaVuSans-30"/>
       <use xlink:href="#DejaVuSans-2e" x="63.623047"/>
       <use xlink:href="#DejaVuSans-30" x="95.410156"/>
       <use xlink:href="#DejaVuSans-32" x="159.033203"/>
      </g>
     </g>
    </g>
    <g id="ytick_4">
     <g id="line2d_11">
      <g>
       <use xlink:href="#m5c7217fb75" x="100.8" y="173.627441" style="stroke: #000000; stroke-width: 0.8"/>
      </g>
     </g>
     <g id="text_12">
      <!-- 0.03 -->
      <g transform="translate(58.175 179.706191) scale(0.16 -0.16)">
       <use xlink:href="#DejaVuSans-30"/>
       <use xlink:href="#DejaVuSans-2e" x="63.623047"/>
       <use xlink:href="#DejaVuSans-30" x="95.410156"/>
       <use xlink:href="#DejaVuSans-33" x="159.033203"/>
      </g>
     </g>
    </g>
    <g id="ytick_5">
     <g id="line2d_12">
      <g>
       <use xlink:href="#m5c7217fb75" x="100.8" y="115.610014" style="stroke: #000000; stroke-width: 0.8"/>
      </g>
     </g>
     <g id="text_13">
      <!-- 0.04 -->
      <g transform="translate(58.175 121.688764) scale(0.16 -0.16)">
       <use xlink:href="#DejaVuSans-30"/>
       <use xlink:href="#DejaVuSans-2e" x="63.623047"/>
       <use xlink:href="#DejaVuSans-30" x="95.410156"/>
       <use xlink:href="#DejaVuSans-34" x="159.033203"/>
      </g>
     </g>
    </g>
    <g id="ytick_6">
     <g id="line2d_13">
      <g>
       <use xlink:href="#m5c7217fb75" x="100.8" y="57.592587" style="stroke: #000000; stroke-width: 0.8"/>
      </g>
     </g>
     <g id="text_14">
      <!-- 0.05 -->
      <g transform="translate(58.175 63.671337) scale(0.16 -0.16)">
       <use xlink:href="#DejaVuSans-30"/>
       <use xlink:href="#DejaVuSans-2e" x="63.623047"/>
       <use xlink:href="#DejaVuSans-30" x="95.410156"/>
       <use xlink:href="#DejaVuSans-35" x="159.033203"/>
      </g>
     </g>
    </g>
    <g id="text_15">
     <!-- Directed predictability gain (bits) -->
     <g transform="translate(50.431562 364.685625) rotate(-90) scale(0.18 -0.18)">
      <defs>
       <path id="DejaVuSans-44" d="M 1259 4147 
L 1259 519 
L 2022 519 
Q 2988 519 3436 956 
Q 3884 1394 3884 2338 
Q 3884 3275 3436 3711 
Q 2988 4147 2022 4147 
L 1259 4147 
z
M 628 4666 
L 1925 4666 
Q 3281 4666 3915 4102 
Q 4550 3538 4550 2338 
Q 4550 1131 3912 565 
Q 3275 0 1925 0 
L 628 0 
L 628 4666 
z
" transform="scale(0.015625)"/>
       <path id="DejaVuSans-63" d="M 3122 3366 
L 3122 2828 
Q 2878 2963 2633 3030 
Q 2388 3097 2138 3097 
Q 1578 3097 1268 2742 
Q 959 2388 959 1747 
Q 959 1106 1268 751 
Q 1578 397 2138 397 
Q 2388 397 2633 464 
Q 2878 531 3122 666 
L 3122 134 
Q 2881 22 2623 -34 
Q 2366 -91 2075 -91 
Q 1284 -91 818 406 
Q 353 903 353 1747 
Q 353 2603 823 3093 
Q 1294 3584 2113 3584 
Q 2378 3584 2631 3529 
Q 2884 3475 3122 3366 
z
" transform="scale(0.015625)"/>
       <path id="DejaVuSans-64" d="M 2906 2969 
L 2906 4863 
L 3481 4863 
L 3481 0 
L 2906 0 
L 2906 525 
Q 2725 213 2448 61 
Q 2172 -91 1784 -91 
Q 1150 -91 751 415 
Q 353 922 353 1747 
Q 353 2572 751 3078 
Q 1150 3584 1784 3584 
Q 2172 3584 2448 3432 
Q 2725 3281 2906 2969 
z
M 947 1747 
Q 947 1113 1208 752 
Q 1469 391 1925 391 
Q 2381 391 2643 752 
Q 2906 1113 2906 1747 
Q 2906 2381 2643 2742 
Q 2381 3103 1925 3103 
Q 1469 3103 1208 2742 
Q 947 2381 947 1747 
z
" transform="scale(0.015625)"/>
       <path id="DejaVuSans-70" d="M 1159 525 
L 1159 -1331 
L 581 -1331 
L 581 3500 
L 1159 3500 
L 1159 2969 
Q 1341 3281 1617 3432 
Q 1894 3584 2278 3584 
Q 2916 3584 3314 3078 
Q 3713 2572 3713 1747 
Q 3713 922 3314 415 
Q 2916 -91 2278 -91 
Q 1894 -91 1617 61 
Q 1341 213 1159 525 
z
M 3116 1747 
Q 3116 2381 2855 2742 
Q 2594 3103 2138 3103 
Q 1681 3103 1420 2742 
Q 1159 2381 1159 1747 
Q 1159 1113 1420 752 
Q 1681 391 2138 391 
Q 2594 391 2855 752 
Q 3116 1113 3116 1747 
z
" transform="scale(0.015625)"/>
       <path id="DejaVuSans-61" d="M 2194 1759 
Q 1497 1759 1228 1600 
Q 959 1441 959 1056 
Q 959 750 1161 570 
Q 1363 391 1709 391 
Q 2188 391 2477 730 
Q 2766 1069 2766 1631 
L 2766 1759 
L 2194 1759 
z
M 3341 1997 
L 3341 0 
L 2766 0 
L 2766 531 
Q 2569 213 2275 61 
Q 1981 -91 1556 -91 
Q 1019 -91 701 211 
Q 384 513 384 1019 
Q 384 1609 779 1909 
Q 1175 2209 1959 2209 
L 2766 2209 
L 2766 2266 
Q 2766 2663 2505 2880 
Q 2244 3097 1772 3097 
Q 1472 3097 1187 3025 
Q 903 2953 641 2809 
L 641 3341 
Q 956 3463 1253 3523 
Q 1550 3584 1831 3584 
Q 2591 3584 2966 3190 
Q 3341 2797 3341 1997 
z
" transform="scale(0.015625)"/>
       <path id="DejaVuSans-62" d="M 3116 1747 
Q 3116 2381 2855 2742 
Q 2594 3103 2138 3103 
Q 1681 3103 1420 2742 
Q 1159 2381 1159 1747 
Q 1159 1113 1420 752 
Q 1681 391 2138 391 
Q 2594 391 2855 752 
Q 3116 1113 3116 1747 
z
M 1159 2969 
Q 1341 3281 1617 3432 
Q 1894 3584 2278 3584 
Q 2916 3584 3314 3078 
Q 3713 2572 3713 1747 
Q 3713 922 3314 415 
Q 2916 -91 2278 -91 
Q 1894 -91 1617 61 
Q 1341 213 1159 525 
L 1159 0 
L 581 0 
L 581 4863 
L 1159 4863 
L 1159 2969 
z
" transform="scale(0.015625)"/>
       <path id="DejaVuSans-79" d="M 2059 -325 
Q 1816 -950 1584 -1140 
Q 1353 -1331 966 -1331 
L 506 -1331 
L 506 -850 
L 844 -850 
Q 1081 -850 1212 -737 
Q 1344 -625 1503 -206 
L 1606 56 
L 191 3500 
L 800 3500 
L 1894 763 
L 2988 3500 
L 3597 3500 
L 2059 -325 
z
" transform="scale(0.015625)"/>
       <path id="DejaVuSans-67" d="M 2906 1791 
Q 2906 2416 2648 2759 
Q 2391 3103 1925 3103 
Q 1463 3103 1205 2759 
Q 947 2416 947 1791 
Q 947 1169 1205 825 
Q 1463 481 1925 481 
Q 2391 481 2648 825 
Q 2906 1169 2906 1791 
z
M 3481 434 
Q 3481 -459 3084 -895 
Q 2688 -1331 1869 -1331 
Q 1566 -1331 1297 -1286 
Q 1028 -1241 775 -1147 
L 775 -588 
Q 1028 -725 1275 -790 
Q 1522 -856 1778 -856 
Q 2344 -856 2625 -561 
Q 2906 -266 2906 331 
L 2906 616 
Q 2728 306 2450 153 
Q 2172 0 1784 0 
Q 1141 0 747 490 
Q 353 981 353 1791 
Q 353 2603 747 3093 
Q 1141 3584 1784 3584 
Q 2172 3584 2450 3431 
Q 2728 3278 2906 2969 
L 2906 3500 
L 3481 3500 
L 3481 434 
z
" transform="scale(0.015625)"/>
      </defs>
      <use xlink:href="#DejaVuSans-44"/>
      <use xlink:href="#DejaVuSans-69" x="77.001953"/>
      <use xlink:href="#DejaVuSans-72" x="104.785156"/>
      <use xlink:href="#DejaVuSans-65" x="143.648438"/>
      <use xlink:href="#DejaVuSans-63" x="205.171875"/>
      <use xlink:href="#DejaVuSans-74" x="260.152344"/>
      <use xlink:href="#DejaVuSans-65" x="299.361328"/>
      <use xlink:href="#DejaVuSans-64" x="360.884766"/>
      <use xlink:href="#DejaVuSans-20" x="424.361328"/>
      <use xlink:href="#DejaVuSans-70" x="456.148438"/>
      <use xlink:href="#DejaVuSans-72" x="519.625"/>
      <use xlink:href="#DejaVuSans-65" x="558.488281"/>
      <use xlink:href="#DejaVuSans-64" x="620.011719"/>
      <use xlink:href="#DejaVuSans-69" x="683.488281"/>
      <use xlink:href="#DejaVuSans-63" x="711.271484"/>
      <use xlink:href="#DejaVuSans-74" x="766.251953"/>
      <use xlink:href="#DejaVuSans-61" x="805.460938"/>
      <use xlink:href="#DejaVuSans-62" x="866.740234"/>
      <use xlink:href="#DejaVuSans-69" x="930.216797"/>
      <use xlink:href="#DejaVuSans-6c" x="958"/>
      <use xlink:href="#DejaVuSans-69" x="985.783203"/>
      <use xlink:href="#DejaVuSans-74" x="1013.566406"/>
      <use xlink:href="#DejaVuSans-79" x="1052.775391"/>
      <use xlink:href="#DejaVuSans-20" x="1111.955078"/>
      <use xlink:href="#DejaVuSans-67" x="1143.742188"/>
      <use xlink:href="#DejaVuSans-61" x="1207.21875"/>
      <use xlink:href="#DejaVuSans-69" x="1268.498047"/>
      <use xlink:href="#DejaVuSans-6e" x="1296.28125"/>
      <use xlink:href="#DejaVuSans-20" x="1359.660156"/>
      <use xlink:href="#DejaVuSans-28" x="1391.447266"/>
      <use xlink:href="#DejaVuSans-62" x="1430.460938"/>
      <use xlink:href="#DejaVuSans-69" x="1493.9375"/>
      <use xlink:href="#DejaVuSans-74" x="1521.720703"/>
      <use xlink:href="#DejaVuSans-73" x="1560.929688"/>
      <use xlink:href="#DejaVuSans-29" x="1613.029297"/>
     </g>
    </g>
   </g>
   <g id="line2d_14">
    <path d="M 220.8 396 
L 220.8 36 
" clip-path="url(#p4be1a3f7ba)" style="fill: none; stroke-dasharray: 2.96,1.28; stroke-dashoffset: 0; stroke: #000000; stroke-width: 0.8"/>
   </g>
   <g id="line2d_15">
    <path d="M 100.8 347.679722 
L 820.8 347.679722 
" clip-path="url(#p4be1a3f7ba)" style="fill: none; stroke-dasharray: 0.8,1.32; stroke-dashoffset: 0; stroke: #000000; stroke-width: 0.8"/>
   </g>
   <g id="line2d_16">
    <path d="M -1 329.879795 
L 4.8 320.842137 
L 16.800002 333.572006 
L 28.8 322.554123 
L 40.800002 325.418824 
L 52.800004 317.401128 
L 64.800001 325.129411 
L 76.800001 329.606938 
L 88.800001 345.258079 
L 100.8 359.804358 
L 112.8 350.021376 
L 124.8 347.867839 
L 136.8 338.679098 
L 148.799999 342.16523 
L 160.8 316.103776 
L 172.8 315.710568 
L 184.8 319.24855 
L 196.8 338.799495 
L 208.8 337.006188 
L 220.8 346.680015 
L 232.8 329.05812 
L 244.8 331.883164 
L 256.8 315.153669 
L 268.8 319.126279 
L 280.8 329.618849 
L 292.800001 336.638883 
L 304.8 339.833023 
L 316.8 324.432572 
L 328.8 324.657966 
L 340.8 334.911209 
L 352.799999 336.33549 
L 364.799999 330.442427 
L 376.799999 319.895009 
L 388.799996 328.764931 
L 400.799998 307.501784 
L 412.8 304.214963 
L 424.799998 279.673499 
L 436.8 294.189443 
L 448.800002 306.736638 
L 460.799999 311.718518 
L 472.800001 295.595505 
L 484.800003 271.878468 
L 496.800001 259.318896 
L 508.800003 257.065725 
L 520.8 245.641039 
L 532.799997 240.877111 
L 544.800004 231.444771 
L 556.800001 221.184758 
L 568.799999 227.589536 
L 580.800005 196.116242 
L 592.800003 155.323792 
L 604.799991 135.990777 
L 616.799998 144.154065 
L 628.800004 144.597941 
L 640.799993 122.504638 
L 652.799999 124.211497 
L 664.800006 145.670819 
L 676.799994 128.902462 
L 688.800001 133.634346 
L 700.800007 127.417736 
L 712.799996 143.935965 
L 724.800002 136.976438 
L 736.800009 124.861015 
L 748.799997 120.462554 
L 760.799995 122.94492 
L 772.800001 170.190584 
L 784.799999 227.70313 
L 796.799996 273.516431 
L 808.800003 286.44855 
L 820.8 286.661284 
L 832.799989 287.803977 
L 844.799977 315.631211 
L 856.800001 324.929199 
L 857.8 325.513189 
" clip-path="url(#p4be1a3f7ba)" style="fill: none; stroke: #0e87cc; stroke-width: 2.5; stroke-linecap: square"/>
   </g>
   <g id="line2d_17">
    <path d="M -1 357.459354 
L 4.8 355.536115 
L 16.800002 338.424628 
L 28.8 327.012618 
L 40.800002 318.496807 
L 52.800004 331.680324 
L 64.800001 334.281696 
L 76.800001 337.795066 
L 88.800001 334.949358 
L 100.8 325.818221 
L 112.8 329.178413 
L 124.8 314.908819 
L 136.8 316.35377 
L 148.799999 301.741946 
L 160.8 315.92926 
L 172.8 320.61247 
L 184.8 334.278961 
L 196.8 336.660918 
L 208.8 337.666149 
L 220.8 340.550565 
L 232.8 335.320262 
L 244.8 317.749819 
L 256.8 313.923797 
L 268.8 309.967131 
L 280.8 329.746195 
L 292.800001 324.614532 
L 304.8 331.747646 
L 316.8 330.445292 
L 328.8 338.19403 
L 340.8 338.578231 
L 352.799999 320.961641 
L 364.799999 320.937878 
L 376.799999 318.21782 
L 388.799996 326.33553 
L 400.799998 315.713576 
L 412.8 326.24692 
L 424.799998 332.800022 
L 436.8 325.350086 
L 448.800002 327.308761 
L 460.799999 322.864825 
L 472.800001 329.748311 
L 484.800003 318.861364 
L 496.800001 327.583532 
L 508.800003 324.784527 
L 520.8 327.861568 
L 532.799997 325.092356 
L 544.800004 327.785272 
L 556.800001 327.961373 
L 568.799999 332.289449 
L 580.800005 326.586724 
L 592.800003 328.701036 
L 604.799991 312.625687 
L 616.799998 313.56504 
L 628.800004 301.787376 
L 640.799993 293.325344 
L 652.799999 288.625444 
L 664.800006 289.210045 
L 676.799994 306.629899 
L 688.800001 325.252715 
L 700.800007 332.607733 
L 712.799996 313.318892 
L 724.800002 296.555554 
L 736.800009 280.966331 
L 748.799997 275.942792 
L 760.799995 266.228007 
L 772.800001 262.053 
L 784.799999 274.902976 
L 796.799996 285.275954 
L 808.800003 285.97152 
L 820.8 277.610606 
L 832.799989 274.160523 
L 844.799977 289.36118 
L 856.800001 289.744745 
L 857.8 289.906454 
" clip-path="url(#p4be1a3f7ba)" style="fill: none; stroke: #c00a37; stroke-width: 2.5; stroke-linecap: square"/>
   </g>
   <g id="patch_3">
    <path d="M 100.8 396 
L 100.8 36 
" style="fill: none; stroke: #000000; stroke-width: 0.8; stroke-linejoin: miter; stroke-linecap: square"/>
   </g>
   <g id="patch_4">
    <path d="M 820.8 396 
L 820.8 36 
" style="fill: none; stroke: #000000; stroke-width: 0.8; stroke-linejoin: miter; stroke-linecap: square"/>
   </g>
   <g id="patch_5">
    <path d="M 100.8 396 
L 820.8 396 
" style="fill: none; stroke: #000000; stroke-width: 0.8; stroke-linejoin: miter; stroke-linecap: square"/>
   </g>
   <g id="patch_6">
    <path d="M 100.8 36 
L 820.8 36 
" style="fill: none; stroke: #000000; stroke-width: 0.8; stroke-linejoin: miter; stroke-linecap: square"/>
   </g>
   <g id="PathCollection_1">
    <defs>
     <path id="me57a225365" d="M 0 1.870829 
C 0.49615 1.870829 0.972045 1.673706 1.322876 1.322876 
C 1.673706 0.972045 1.870829 0.49615 1.870829 0 
C 1.870829 -0.49615 1.673706 -0.972045 1.322876 -1.322876 
C 0.972045 -1.673706 0.49615 -1.870829 0 -1.870829 
C -0.49615 -1.870829 -0.972045 -1.673706 -1.322876 -1.322876 
C -1.673706 -0.972045 -1.870829 -0.49615 -1.870829 0 
C -1.870829 0.49615 -1.673706 0.972045 -1.322876 1.322876 
C -0.972045 1.673706 -0.49615 1.870829 0 1.870829 
z
" style="stroke: #000000"/>
    </defs>
    <g clip-path="url(#p4be1a3f7ba)">
     <use xlink:href="#me57a225365" x="4.8" y="378" style="stroke: #000000"/>
     <use xlink:href="#me57a225365" x="424.799998" y="378" style="stroke: #000000"/>
     <use xlink:href="#me57a225365" x="520.8" y="378" style="stroke: #000000"/>
     <use xlink:href="#me57a225365" x="532.799997" y="378" style="stroke: #000000"/>
     <use xlink:href="#me57a225365" x="544.800004" y="378" style="stroke: #000000"/>
     <use xlink:href="#me57a225365" x="556.800001" y="378" style="stroke: #000000"/>
     <use xlink:href="#me57a225365" x="688.800001" y="378" style="stroke: #000000"/>
     <use xlink:href="#me57a225365" x="700.800007" y="378" style="stroke: #000000"/>
     <use xlink:href="#me57a225365" x="760.799995" y="378" style="stroke: #000000"/>
     <use xlink:href="#me57a225365" x="772.800001" y="378" style="stroke: #000000"/>
     <use xlink:href="#me57a225365" x="940.800011" y="378" style="stroke: #000000"/>
     <use xlink:href="#me57a225365" x="964.800006" y="378" style="stroke: #000000"/>
    </g>
   </g>
   <g id="legend_1">
    <g id="line2d_18">
     <path d="M 114.3 55.647656 
L 129.3 55.647656 
L 144.3 55.647656 
" style="fill: none; stroke: #0e87cc; stroke-width: 2.5; stroke-linecap: square"/>
    </g>
    <g id="text_16">
     <!-- MFEF→MLIP -->
     <g transform="translate(156.3 60.897656) scale(0.15 -0.15)">
      <defs>
       <path id="DejaVuSans-4d" d="M 628 4666 
L 1569 4666 
L 2759 1491 
L 3956 4666 
L 4897 4666 
L 4897 0 
L 4281 0 
L 4281 4097 
L 3078 897 
L 2444 897 
L 1241 4097 
L 1241 0 
L 628 0 
L 628 4666 
z
" transform="scale(0.015625)"/>
       <path id="DejaVuSans-46" d="M 628 4666 
L 3309 4666 
L 3309 4134 
L 1259 4134 
L 1259 2759 
L 3109 2759 
L 3109 2228 
L 1259 2228 
L 1259 0 
L 628 0 
L 628 4666 
z
" transform="scale(0.015625)"/>
       <path id="DejaVuSans-45" d="M 628 4666 
L 3578 4666 
L 3578 4134 
L 1259 4134 
L 1259 2753 
L 3481 2753 
L 3481 2222 
L 1259 2222 
L 1259 531 
L 3634 531 
L 3634 0 
L 628 0 
L 628 4666 
z
" transform="scale(0.015625)"/>
       <path id="DejaVuSans-2192" d="M 5050 2147 
L 5050 1866 
L 3822 638 
L 3447 1013 
L 4175 1741 
L 366 1741 
L 366 2272 
L 4175 2272 
L 3447 3000 
L 3822 3375 
L 5050 2147 
z
" transform="scale(0.015625)"/>
       <path id="DejaVuSans-4c" d="M 628 4666 
L 1259 4666 
L 1259 531 
L 3531 531 
L 3531 0 
L 628 0 
L 628 4666 
z
" transform="scale(0.015625)"/>
       <path id="DejaVuSans-49" d="M 628 4666 
L 1259 4666 
L 1259 0 
L 628 0 
L 628 4666 
z
" transform="scale(0.015625)"/>
       <path id="DejaVuSans-50" d="M 1259 4147 
L 1259 2394 
L 2053 2394 
Q 2494 2394 2734 2622 
Q 2975 2850 2975 3272 
Q 2975 3691 2734 3919 
Q 2494 4147 2053 4147 
L 1259 4147 
z
M 628 4666 
L 2053 4666 
Q 2838 4666 3239 4311 
Q 3641 3956 3641 3272 
Q 3641 2581 3239 2228 
Q 2838 1875 2053 1875 
L 1259 1875 
L 1259 0 
L 628 0 
L 628 4666 
z
" transform="scale(0.015625)"/>
      </defs>
      <use xlink:href="#DejaVuSans-4d"/>
      <use xlink:href="#DejaVuSans-46" x="86.279297"/>
      <use xlink:href="#DejaVuSans-45" x="143.798828"/>
      <use xlink:href="#DejaVuSans-46" x="206.982422"/>
      <use xlink:href="#DejaVuSans-2192" x="264.501953"/>
      <use xlink:href="#DejaVuSans-4d" x="348.291016"/>
      <use xlink:href="#DejaVuSans-4c" x="434.570312"/>
      <use xlink:href="#DejaVuSans-49" x="490.283203"/>
      <use xlink:href="#DejaVuSans-50" x="519.775391"/>
     </g>
    </g>
    <g id="line2d_19">
     <path d="M 114.3 77.664844 
L 129.3 77.664844 
L 144.3 77.664844 
" style="fill: none; stroke: #c00a37; stroke-width: 2.5; stroke-linecap: square"/>
    </g>
    <g id="text_17">
     <!-- MLIP→MFEF -->
     <g transform="translate(156.3 82.914844) scale(0.15 -0.15)">
      <use xlink:href="#DejaVuSans-4d"/>
      <use xlink:href="#DejaVuSans-4c" x="86.279297"/>
      <use xlink:href="#DejaVuSans-49" x="141.992188"/>
      <use xlink:href="#DejaVuSans-50" x="171.484375"/>
      <use xlink:href="#DejaVuSans-2192" x="231.787109"/>
      <use xlink:href="#DejaVuSans-4d" x="315.576172"/>
      <use xlink:href="#DejaVuSans-46" x="401.855469"/>
      <use xlink:href="#DejaVuSans-45" x="459.375"/>
      <use xlink:href="#DejaVuSans-46" x="522.558594"/>
     </g>
    </g>
    <g id="PathCollection_2">
     <g>
      <use xlink:href="#me57a225365" x="129.3" y="100.994531" style="stroke: #000000"/>
     </g>
    </g>
    <g id="text_18">
     <!-- p&lt;α -->
     <g transform="translate(156.3 104.932031) scale(0.15 -0.15)">
      <defs>
       <path id="DejaVuSans-3c" d="M 4684 3150 
L 1459 2003 
L 4684 863 
L 4684 294 
L 678 1747 
L 678 2266 
L 4684 3719 
L 4684 3150 
z
" transform="scale(0.015625)"/>
       <path id="DejaVuSans-3b1" d="M 2644 1628 
L 2506 2350 
Q 2366 3091 1809 3091 
Q 1391 3091 1200 2747 
Q 959 2316 959 1747 
Q 959 1059 1194 731 
Q 1431 397 1809 397 
Q 2228 397 2453 1063 
L 2644 1628 
z
M 2966 2584 
L 3275 3500 
L 3788 3500 
L 3147 1603 
L 3272 919 
Q 3300 766 3409 638 
Q 3538 488 3638 488 
L 3913 488 
L 3913 0 
L 3569 0 
Q 3275 0 3013 263 
Q 2884 394 2831 669 
Q 2688 322 2394 50 
Q 2256 -78 1809 -78 
Q 1075 -78 719 397 
Q 353 888 353 1747 
Q 353 2666 750 3097 
Q 1191 3578 1809 3578 
Q 2781 3578 2966 2584 
z
" transform="scale(0.015625)"/>
      </defs>
      <use xlink:href="#DejaVuSans-70"/>
      <use xlink:href="#DejaVuSans-3c" x="63.476562"/>
      <use xlink:href="#DejaVuSans-3b1" x="147.265625"/>
     </g>
    </g>
   </g>
  </g>
 </g>
 <defs>
  <clipPath id="p4be1a3f7ba">
   <rect x="100.8" y="36" width="720" height="360"/>
  </clipPath>
 </defs>
</svg>
