<?xml version="1.0" encoding="utf-8" standalone="no"?>
<!DOCTYPE svg PUBLIC "-//W3C//DTD SVG 1.1//EN"
  "http://www.w3.org/Graphics/SVG/1.1/DTD/svg11.dtd">
<svg xmlns:xlink="http://www.w3.org/1999/xlink" width="856.8pt" height="453.6pt" viewBox="0 0 856.8 453.6" xmlns="http://www.w3.org/2000/svg" version="1.1">
 <metadata>
  <rdf:RDF xmlns:dc="http://purl.org/dc/elements/1.1/" xmlns:cc="http://creativecommons.org/ns#" xmlns:rdf="http://www.w3.org/1999/02/22-rdf-syntax-ns#">
   <cc:Work>
    <dc:type rdf:resource="http://purl.org/dc/dcmitype/StillImage"/>
    <dc:date>2026-01-28T18:12:58.633152</dc:date>
    <dc:format>image/svg+xml</dc:format>
    <dc:creator>
     <cc:Agent>
      <dc:title>Matplotlib v3.9.4, https://matplotlib.org/</dc:title>
     </cc:Agent>
    </dc:creator>
   </cc:Work>
  </rdf:RDF>
 </metadata>
 <defs>
  <style type="text/css">*{stroke-linejoin: round; stroke-linecap: butt}</style>
 </defs>
 <g id="figure_1">
  <g id="patch_1">
   <path d="M 0 453.6 
L 856.8 453.6 
L 856.8 0 
L 0 0 
z
" style="fill: #ffffff"/>
  </g>
  <g id="axes_1">
   <g id="patch_2">
    <path d="M 100.8 396 
L 820.8 396 
L 820.8 36 
L 100.8 36 
z
" style="fill: #ffffff"/>
   </g>
   <g id="PolyCollection_1">
    <path d="M -43.200003 230.487926 
L -43.200003 333.854219 
L -31.200001 333.828432 
L -19.199999 330.760748 
L -7.200002 341.637474 
L 4.8 325.763022 
L 16.800002 348.013345 
L 28.8 335.106762 
L 40.800002 346.096956 
L 52.800004 356.12645 
L 64.800001 339.523562 
L 76.800001 335.38662 
L 88.800001 292.383544 
L 100.8 324.586491 
L 112.8 329.071162 
L 124.8 374.650402 
L 136.8 355.52781 
L 148.799999 348.371362 
L 160.8 329.063672 
L 172.8 301.432081 
L 184.8 316.431406 
L 196.8 280.838731 
L 208.8 324.296799 
L 220.8 338.794661 
L 232.8 342.37129 
L 244.8 333.843451 
L 256.8 295.523297 
L 268.8 327.293981 
L 280.8 326.755268 
L 292.800001 351.026774 
L 304.8 327.808909 
L 316.8 292.389819 
L 328.8 285.484086 
L 340.8 256.737791 
L 352.799999 284.46194 
L 364.799999 282.212236 
L 376.799999 308.14974 
L 388.799996 318.444012 
L 400.799998 326.705066 
L 412.8 355.871901 
L 424.799998 343.773893 
L 436.8 325.808146 
L 448.800002 303.471845 
L 460.799999 300.746132 
L 472.800001 315.656189 
L 484.800003 318.678599 
L 496.800001 305.415451 
L 508.800003 275.161755 
L 520.8 260.257597 
L 532.799997 272.33959 
L 544.800004 281.032192 
L 556.800001 265.936276 
L 568.799999 265.085874 
L 580.800005 250.390054 
L 592.800003 259.138934 
L 604.799991 221.485063 
L 616.799998 230.124332 
L 628.800004 235.37976 
L 640.799993 252.700073 
L 652.799999 229.911493 
L 664.800006 202.321131 
L 676.799994 192.930291 
L 688.800001 197.543052 
L 700.800007 207.71904 
L 712.799996 222.799725 
L 724.800002 261.391655 
L 736.800009 294.725397 
L 748.799997 282.615192 
L 760.799995 275.869354 
L 772.800001 251.679302 
L 784.799999 282.456109 
L 796.799996 279.178156 
L 808.800003 284.531642 
L 820.8 287.625252 
L 832.799989 321.438123 
L 844.799977 335.516921 
L 856.800001 340.947806 
L 868.800026 309.176623 
L 880.800014 310.526166 
L 892.800003 307.496617 
L 904.799991 287.009476 
L 916.79998 281.73956 
L 928.799986 249.695722 
L 940.800011 277.80906 
L 952.800017 283.492101 
L 964.800006 320.087348 
L 976.799994 335.99094 
L 988.799983 335.858228 
L 1000.799989 302.050621 
L 1012.800014 300.427857 
L 1024.80002 318.197042 
L 1036.800009 352.483557 
L 1048.799997 337.525931 
L 1060.799986 314.890918 
L 1072.799974 321.422069 
L 1084.799999 333.089482 
L 1096.800023 338.8146 
L 1108.800011 351.859853 
L 1120.8 354.725266 
L 1132.799989 340.501572 
L 1144.799977 302.490031 
L 1156.800001 303.859166 
L 1168.800026 319.635154 
L 1168.800026 209.412822 
L 1168.800026 209.412822 
L 1156.800001 161.734127 
L 1144.799977 160.901918 
L 1132.799989 202.53277 
L 1120.8 270.644088 
L 1108.800011 284.399634 
L 1096.800023 219.172449 
L 1084.799999 216.087866 
L 1072.799974 206.411051 
L 1060.799986 251.627556 
L 1048.799997 257.794608 
L 1036.800009 241.978241 
L 1024.80002 187.159023 
L 1012.800014 151.196825 
L 1000.799989 152.118295 
L 988.799983 213.022202 
L 976.799994 238.4132 
L 964.800006 253.484648 
L 952.800017 170.646623 
L 940.800011 144.657486 
L 928.799986 68.053946 
L 916.79998 135.324351 
L 904.799991 162.470147 
L 892.800003 210.414442 
L 880.800014 225.694973 
L 868.800026 159.412203 
L 856.800001 186.661656 
L 844.799977 183.254978 
L 832.799989 231.13607 
L 820.8 223.131209 
L 808.800003 208.291028 
L 796.799996 192.045057 
L 784.799999 176.768217 
L 772.800001 111.552034 
L 760.799995 122.15943 
L 748.799997 130.6524 
L 736.800009 166.175267 
L 724.800002 147.574563 
L 712.799996 84.965781 
L 700.800007 65.711052 
L 688.800001 52.363636 
L 676.799994 72.05083 
L 664.800006 75.391588 
L 652.799999 83.564525 
L 640.799993 123.386502 
L 628.800004 99.834456 
L 616.799998 102.951645 
L 604.799991 64.951158 
L 592.800003 136.944769 
L 580.800005 115.139811 
L 568.799999 152.982173 
L 556.800001 133.553026 
L 544.800004 185.950701 
L 532.799997 147.348843 
L 520.8 142.783257 
L 508.800003 149.103907 
L 496.800001 193.961808 
L 484.800003 216.450639 
L 472.800001 227.344533 
L 460.799999 231.726341 
L 448.800002 181.399472 
L 436.8 183.319286 
L 424.799998 182.949846 
L 412.8 246.70368 
L 400.799998 228.502138 
L 388.799996 240.414855 
L 376.799999 222.237865 
L 364.799999 149.744401 
L 352.799999 157.50133 
L 340.8 86.685537 
L 328.8 159.588024 
L 316.8 159.086025 
L 304.8 219.129314 
L 292.800001 214.070964 
L 280.8 185.344497 
L 268.8 210.190608 
L 256.8 214.197196 
L 244.8 269.037546 
L 232.8 290.529107 
L 220.8 280.321885 
L 208.8 234.876644 
L 196.8 162.452101 
L 184.8 210.35947 
L 172.8 219.097332 
L 160.8 268.663882 
L 148.799999 274.535694 
L 136.8 288.426797 
L 124.8 308.70308 
L 112.8 259.446178 
L 100.8 226.876872 
L 88.800001 196.31729 
L 76.800001 245.064488 
L 64.800001 244.853838 
L 52.800004 222.982975 
L 40.800002 201.502042 
L 28.8 211.359988 
L 16.800002 246.375705 
L 4.8 234.102462 
L -7.200002 255.992208 
L -19.199999 245.103138 
L -31.200001 248.558522 
L -43.200003 230.487926 
z
" clip-path="url(#p558b4556ea)" style="fill: #0e87cc; fill-opacity: 0.25"/>
   </g>
   <g id="PolyCollection_2">
    <path d="M -43.200003 272.056617 
L -43.200003 339.380405 
L -31.200001 299.660765 
L -19.199999 291.212958 
L -7.200002 277.306051 
L 4.8 322.273717 
L 16.800002 328.391803 
L 28.8 341.839418 
L 40.800002 317.682558 
L 52.800004 314.523548 
L 64.800001 326.952886 
L 76.800001 322.597038 
L 88.800001 325.301335 
L 100.8 304.62186 
L 112.8 306.289104 
L 124.8 314.61571 
L 136.8 296.70785 
L 148.799999 289.200542 
L 160.8 287.230006 
L 172.8 315.759587 
L 184.8 337.067599 
L 196.8 357.065349 
L 208.8 361.73888 
L 220.8 377.883497 
L 232.8 348.342911 
L 244.8 330.764283 
L 256.8 285.143694 
L 268.8 324.508416 
L 280.8 341.372675 
L 292.800001 342.897958 
L 304.8 328.094751 
L 316.8 327.387723 
L 328.8 367.84864 
L 340.8 358.562412 
L 352.799999 349.700804 
L 364.799999 323.357896 
L 376.799999 308.914637 
L 388.799996 327.03712 
L 400.799998 339.995897 
L 412.8 351.380123 
L 424.799998 320.763015 
L 436.8 292.238715 
L 448.800002 296.98117 
L 460.799999 315.116159 
L 472.800001 336.663694 
L 484.800003 337.388557 
L 496.800001 345.392773 
L 508.800003 334.820538 
L 520.8 358.348147 
L 532.799997 331.498197 
L 544.800004 347.274797 
L 556.800001 331.940002 
L 568.799999 327.989987 
L 580.800005 315.666959 
L 592.800003 299.243499 
L 604.799991 307.669879 
L 616.799998 305.332314 
L 628.800004 278.204628 
L 640.799993 289.955591 
L 652.799999 279.104822 
L 664.800006 322.610092 
L 676.799994 304.611727 
L 688.800001 326.320726 
L 700.800007 289.76756 
L 712.799996 319.029014 
L 724.800002 312.512362 
L 736.800009 321.28352 
L 748.799997 314.884399 
L 760.799995 354.297519 
L 772.800001 379.636364 
L 784.799999 363.09923 
L 796.799996 305.692699 
L 808.800003 284.655788 
L 820.8 295.822355 
L 832.799989 331.153243 
L 844.799977 330.19729 
L 856.800001 311.189481 
L 868.800026 297.377123 
L 880.800014 295.625625 
L 892.800003 303.118755 
L 904.799991 317.072174 
L 916.79998 334.829691 
L 928.799986 340.811501 
L 940.800011 318.158882 
L 952.800017 302.87434 
L 964.800006 294.156494 
L 976.799994 312.508544 
L 988.799983 337.114594 
L 1000.799989 354.850903 
L 1012.800014 354.25354 
L 1024.80002 348.747859 
L 1036.800009 340.81422 
L 1048.799997 341.057806 
L 1060.799986 329.219085 
L 1072.799974 351.254757 
L 1084.799999 358.926836 
L 1096.800023 370.778749 
L 1108.800011 342.567119 
L 1120.8 320.848871 
L 1132.799989 331.233243 
L 1144.799977 353.071151 
L 1156.800001 358.737133 
L 1168.800026 349.81128 
L 1168.800026 267.71248 
L 1168.800026 267.71248 
L 1156.800001 287.568097 
L 1144.799977 260.057471 
L 1132.799989 239.6008 
L 1120.8 192.225573 
L 1108.800011 225.247895 
L 1096.800023 253.23671 
L 1084.799999 260.688301 
L 1072.799974 260.735499 
L 1060.799986 244.802452 
L 1048.799997 244.184104 
L 1036.800009 237.185064 
L 1024.80002 266.971065 
L 1012.800014 283.355512 
L 1000.799989 279.49332 
L 988.799983 252.132286 
L 976.799994 208.340262 
L 964.800006 174.425362 
L 952.800017 170.228335 
L 940.800011 176.243417 
L 928.799986 227.994562 
L 916.79998 194.781565 
L 904.799991 186.859043 
L 892.800003 158.306785 
L 880.800014 165.146931 
L 868.800026 162.980689 
L 856.800001 193.53479 
L 844.799977 233.045362 
L 832.799989 276.423143 
L 820.8 233.551492 
L 808.800003 226.978989 
L 796.799996 221.123275 
L 784.799999 268.980707 
L 772.800001 265.889144 
L 760.799995 237.824864 
L 748.799997 217.711783 
L 736.800009 194.425913 
L 724.800002 192.049662 
L 712.799996 202.69792 
L 700.800007 178.013206 
L 688.800001 238.899311 
L 676.799994 177.701064 
L 664.800006 229.924316 
L 652.799999 127.128044 
L 640.799993 168.252987 
L 628.800004 127.028488 
L 616.799998 192.389106 
L 604.799991 171.433702 
L 592.800003 190.533729 
L 580.800005 202.463412 
L 568.799999 244.879673 
L 556.800001 244.345013 
L 544.800004 269.299428 
L 532.799997 238.931208 
L 520.8 259.994634 
L 508.800003 236.875485 
L 496.800001 251.714893 
L 484.800003 228.9772 
L 472.800001 221.131682 
L 460.799999 186.169647 
L 448.800002 197.520717 
L 436.8 184.539511 
L 424.799998 209.089629 
L 412.8 236.551846 
L 400.799998 254.681769 
L 388.799996 232.639267 
L 376.799999 231.924994 
L 364.799999 222.575142 
L 352.799999 272.105486 
L 340.8 260.937349 
L 328.8 292.120891 
L 316.8 218.715644 
L 304.8 216.824325 
L 292.800001 228.913184 
L 280.8 237.075204 
L 268.8 210.988902 
L 256.8 134.27408 
L 244.8 198.377167 
L 232.8 229.910606 
L 220.8 269.91614 
L 208.8 269.361717 
L 196.8 249.061874 
L 184.8 226.182675 
L 172.8 160.304534 
L 160.8 148.757504 
L 148.799999 183.834946 
L 136.8 230.906566 
L 124.8 254.419763 
L 112.8 219.167336 
L 100.8 192.911461 
L 88.800001 178.783861 
L 76.800001 186.875145 
L 64.800001 211.049566 
L 52.800004 242.924422 
L 40.800002 229.042498 
L 28.8 260.555723 
L 16.800002 225.175962 
L 4.8 211.423208 
L -7.200002 146.801187 
L -19.199999 171.116587 
L -31.200001 206.746348 
L -43.200003 272.056617 
z
" clip-path="url(#p558b4556ea)" style="fill: #c00a37; fill-opacity: 0.25"/>
   </g>
   <g id="matplotlib.axis_1">
    <g id="xtick_1">
     <g id="line2d_1">
      <defs>
       <path id="m5d830c429a" d="M 0 0 
L 0 3.5 
" style="stroke: #000000; stroke-width: 0.8"/>
      </defs>
      <g>
       <use xlink:href="#m5d830c429a" x="100.8" y="396" style="stroke: #000000; stroke-width: 0.8"/>
      </g>
     </g>
     <g id="text_1">
      <!-- −100 -->
      <g transform="translate(78.82625 415.1575) scale(0.16 -0.16)">
       <defs>
        <path id="DejaVuSans-2212" d="M 678 2272 
L 4684 2272 
L 4684 1741 
L 678 1741 
L 678 2272 
z
" transform="scale(0.015625)"/>
        <path id="DejaVuSans-31" d="M 794 531 
L 1825 531 
L 1825 4091 
L 703 3866 
L 703 4441 
L 1819 4666 
L 2450 4666 
L 2450 531 
L 3481 531 
L 3481 0 
L 794 0 
L 794 531 
z
" transform="scale(0.015625)"/>
        <path id="DejaVuSans-30" d="M 2034 4250 
Q 1547 4250 1301 3770 
Q 1056 3291 1056 2328 
Q 1056 1369 1301 889 
Q 1547 409 2034 409 
Q 2525 409 2770 889 
Q 3016 1369 3016 2328 
Q 3016 3291 2770 3770 
Q 2525 4250 2034 4250 
z
M 2034 4750 
Q 2819 4750 3233 4129 
Q 3647 3509 3647 2328 
Q 3647 1150 3233 529 
Q 2819 -91 2034 -91 
Q 1250 -91 836 529 
Q 422 1150 422 2328 
Q 422 3509 836 4129 
Q 1250 4750 2034 4750 
z
" transform="scale(0.015625)"/>
       </defs>
       <use xlink:href="#DejaVuSans-2212"/>
       <use xlink:href="#DejaVuSans-31" x="83.789062"/>
       <use xlink:href="#DejaVuSans-30" x="147.412109"/>
       <use xlink:href="#DejaVuSans-30" x="211.035156"/>
      </g>
     </g>
    </g>
    <g id="xtick_2">
     <g id="line2d_2">
      <g>
       <use xlink:href="#m5d830c429a" x="220.8" y="396" style="stroke: #000000; stroke-width: 0.8"/>
      </g>
     </g>
     <g id="text_2">
      <!-- 0 -->
      <g transform="translate(215.71 415.1575) scale(0.16 -0.16)">
       <use xlink:href="#DejaVuSans-30"/>
      </g>
     </g>
    </g>
    <g id="xtick_3">
     <g id="line2d_3">
      <g>
       <use xlink:href="#m5d830c429a" x="340.8" y="396" style="stroke: #000000; stroke-width: 0.8"/>
      </g>
     </g>
     <g id="text_3">
      <!-- 100 -->
      <g transform="translate(325.53 415.1575) scale(0.16 -0.16)">
       <use xlink:href="#DejaVuSans-31"/>
       <use xlink:href="#DejaVuSans-30" x="63.623047"/>
       <use xlink:href="#DejaVuSans-30" x="127.246094"/>
      </g>
     </g>
    </g>
    <g id="xtick_4">
     <g id="line2d_4">
      <g>
       <use xlink:href="#m5d830c429a" x="460.8" y="396" style="stroke: #000000; stroke-width: 0.8"/>
      </g>
     </g>
     <g id="text_4">
      <!-- 200 -->
      <g transform="translate(445.53 415.1575) scale(0.16 -0.16)">
       <defs>
        <path id="DejaVuSans-32" d="M 1228 531 
L 3431 531 
L 3431 0 
L 469 0 
L 469 531 
Q 828 903 1448 1529 
Q 2069 2156 2228 2338 
Q 2531 2678 2651 2914 
Q 2772 3150 2772 3378 
Q 2772 3750 2511 3984 
Q 2250 4219 1831 4219 
Q 1534 4219 1204 4116 
Q 875 4013 500 3803 
L 500 4441 
Q 881 4594 1212 4672 
Q 1544 4750 1819 4750 
Q 2544 4750 2975 4387 
Q 3406 4025 3406 3419 
Q 3406 3131 3298 2873 
Q 3191 2616 2906 2266 
Q 2828 2175 2409 1742 
Q 1991 1309 1228 531 
z
" transform="scale(0.015625)"/>
       </defs>
       <use xlink:href="#DejaVuSans-32"/>
       <use xlink:href="#DejaVuSans-30" x="63.623047"/>
       <use xlink:href="#DejaVuSans-30" x="127.246094"/>
      </g>
     </g>
    </g>
    <g id="xtick_5">
     <g id="line2d_5">
      <g>
       <use xlink:href="#m5d830c429a" x="580.8" y="396" style="stroke: #000000; stroke-width: 0.8"/>
      </g>
     </g>
     <g id="text_5">
      <!-- 300 -->
      <g transform="translate(565.53 415.1575) scale(0.16 -0.16)">
       <defs>
        <path id="DejaVuSans-33" d="M 2597 2516 
Q 3050 2419 3304 2112 
Q 3559 1806 3559 1356 
Q 3559 666 3084 287 
Q 2609 -91 1734 -91 
Q 1441 -91 1130 -33 
Q 819 25 488 141 
L 488 750 
Q 750 597 1062 519 
Q 1375 441 1716 441 
Q 2309 441 2620 675 
Q 2931 909 2931 1356 
Q 2931 1769 2642 2001 
Q 2353 2234 1838 2234 
L 1294 2234 
L 1294 2753 
L 1863 2753 
Q 2328 2753 2575 2939 
Q 2822 3125 2822 3475 
Q 2822 3834 2567 4026 
Q 2313 4219 1838 4219 
Q 1578 4219 1281 4162 
Q 984 4106 628 3988 
L 628 4550 
Q 988 4650 1302 4700 
Q 1616 4750 1894 4750 
Q 2613 4750 3031 4423 
Q 3450 4097 3450 3541 
Q 3450 3153 3228 2886 
Q 3006 2619 2597 2516 
z
" transform="scale(0.015625)"/>
       </defs>
       <use xlink:href="#DejaVuSans-33"/>
       <use xlink:href="#DejaVuSans-30" x="63.623047"/>
       <use xlink:href="#DejaVuSans-30" x="127.246094"/>
      </g>
     </g>
    </g>
    <g id="xtick_6">
     <g id="line2d_6">
      <g>
       <use xlink:href="#m5d830c429a" x="700.8" y="396" style="stroke: #000000; stroke-width: 0.8"/>
      </g>
     </g>
     <g id="text_6">
      <!-- 400 -->
      <g transform="translate(685.53 415.1575) scale(0.16 -0.16)">
       <defs>
        <path id="DejaVuSans-34" d="M 2419 4116 
L 825 1625 
L 2419 1625 
L 2419 4116 
z
M 2253 4666 
L 3047 4666 
L 3047 1625 
L 3713 1625 
L 3713 1100 
L 3047 1100 
L 3047 0 
L 2419 0 
L 2419 1100 
L 313 1100 
L 313 1709 
L 2253 4666 
z
" transform="scale(0.015625)"/>
       </defs>
       <use xlink:href="#DejaVuSans-34"/>
       <use xlink:href="#DejaVuSans-30" x="63.623047"/>
       <use xlink:href="#DejaVuSans-30" x="127.246094"/>
      </g>
     </g>
    </g>
    <g id="xtick_7">
     <g id="line2d_7">
      <g>
       <use xlink:href="#m5d830c429a" x="820.8" y="396" style="stroke: #000000; stroke-width: 0.8"/>
      </g>
     </g>
     <g id="text_7">
      <!-- 500 -->
      <g transform="translate(805.53 415.1575) scale(0.16 -0.16)">
       <defs>
        <path id="DejaVuSans-35" d="M 691 4666 
L 3169 4666 
L 3169 4134 
L 1269 4134 
L 1269 2991 
Q 1406 3038 1543 3061 
Q 1681 3084 1819 3084 
Q 2600 3084 3056 2656 
Q 3513 2228 3513 1497 
Q 3513 744 3044 326 
Q 2575 -91 1722 -91 
Q 1428 -91 1123 -41 
Q 819 9 494 109 
L 494 744 
Q 775 591 1075 516 
Q 1375 441 1709 441 
Q 2250 441 2565 725 
Q 2881 1009 2881 1497 
Q 2881 1984 2565 2268 
Q 2250 2553 1709 2553 
Q 1456 2553 1204 2497 
Q 953 2441 691 2322 
L 691 4666 
z
" transform="scale(0.015625)"/>
       </defs>
       <use xlink:href="#DejaVuSans-35"/>
       <use xlink:href="#DejaVuSans-30" x="63.623047"/>
       <use xlink:href="#DejaVuSans-30" x="127.246094"/>
      </g>
     </g>
    </g>
    <g id="text_8">
     <!-- Time from Stimulus Onset (ms) -->
     <g transform="translate(320.273438 436.162187) scale(0.18 -0.18)">
      <defs>
       <path id="DejaVuSans-54" d="M -19 4666 
L 3928 4666 
L 3928 4134 
L 2272 4134 
L 2272 0 
L 1638 0 
L 1638 4134 
L -19 4134 
L -19 4666 
z
" transform="scale(0.015625)"/>
       <path id="DejaVuSans-69" d="M 603 3500 
L 1178 3500 
L 1178 0 
L 603 0 
L 603 3500 
z
M 603 4863 
L 1178 4863 
L 1178 4134 
L 603 4134 
L 603 4863 
z
" transform="scale(0.015625)"/>
       <path id="DejaVuSans-6d" d="M 3328 2828 
Q 3544 3216 3844 3400 
Q 4144 3584 4550 3584 
Q 5097 3584 5394 3201 
Q 5691 2819 5691 2113 
L 5691 0 
L 5113 0 
L 5113 2094 
Q 5113 2597 4934 2840 
Q 4756 3084 4391 3084 
Q 3944 3084 3684 2787 
Q 3425 2491 3425 1978 
L 3425 0 
L 2847 0 
L 2847 2094 
Q 2847 2600 2669 2842 
Q 2491 3084 2119 3084 
Q 1678 3084 1418 2786 
Q 1159 2488 1159 1978 
L 1159 0 
L 581 0 
L 581 3500 
L 1159 3500 
L 1159 2956 
Q 1356 3278 1631 3431 
Q 1906 3584 2284 3584 
Q 2666 3584 2933 3390 
Q 3200 3197 3328 2828 
z
" transform="scale(0.015625)"/>
       <path id="DejaVuSans-65" d="M 3597 1894 
L 3597 1613 
L 953 1613 
Q 991 1019 1311 708 
Q 1631 397 2203 397 
Q 2534 397 2845 478 
Q 3156 559 3463 722 
L 3463 178 
Q 3153 47 2828 -22 
Q 2503 -91 2169 -91 
Q 1331 -91 842 396 
Q 353 884 353 1716 
Q 353 2575 817 3079 
Q 1281 3584 2069 3584 
Q 2775 3584 3186 3129 
Q 3597 2675 3597 1894 
z
M 3022 2063 
Q 3016 2534 2758 2815 
Q 2500 3097 2075 3097 
Q 1594 3097 1305 2825 
Q 1016 2553 972 2059 
L 3022 2063 
z
" transform="scale(0.015625)"/>
       <path id="DejaVuSans-20" transform="scale(0.015625)"/>
       <path id="DejaVuSans-66" d="M 2375 4863 
L 2375 4384 
L 1825 4384 
Q 1516 4384 1395 4259 
Q 1275 4134 1275 3809 
L 1275 3500 
L 2222 3500 
L 2222 3053 
L 1275 3053 
L 1275 0 
L 697 0 
L 697 3053 
L 147 3053 
L 147 3500 
L 697 3500 
L 697 3744 
Q 697 4328 969 4595 
Q 1241 4863 1831 4863 
L 2375 4863 
z
" transform="scale(0.015625)"/>
       <path id="DejaVuSans-72" d="M 2631 2963 
Q 2534 3019 2420 3045 
Q 2306 3072 2169 3072 
Q 1681 3072 1420 2755 
Q 1159 2438 1159 1844 
L 1159 0 
L 581 0 
L 581 3500 
L 1159 3500 
L 1159 2956 
Q 1341 3275 1631 3429 
Q 1922 3584 2338 3584 
Q 2397 3584 2469 3576 
Q 2541 3569 2628 3553 
L 2631 2963 
z
" transform="scale(0.015625)"/>
       <path id="DejaVuSans-6f" d="M 1959 3097 
Q 1497 3097 1228 2736 
Q 959 2375 959 1747 
Q 959 1119 1226 758 
Q 1494 397 1959 397 
Q 2419 397 2687 759 
Q 2956 1122 2956 1747 
Q 2956 2369 2687 2733 
Q 2419 3097 1959 3097 
z
M 1959 3584 
Q 2709 3584 3137 3096 
Q 3566 2609 3566 1747 
Q 3566 888 3137 398 
Q 2709 -91 1959 -91 
Q 1206 -91 779 398 
Q 353 888 353 1747 
Q 353 2609 779 3096 
Q 1206 3584 1959 3584 
z
" transform="scale(0.015625)"/>
       <path id="DejaVuSans-53" d="M 3425 4513 
L 3425 3897 
Q 3066 4069 2747 4153 
Q 2428 4238 2131 4238 
Q 1616 4238 1336 4038 
Q 1056 3838 1056 3469 
Q 1056 3159 1242 3001 
Q 1428 2844 1947 2747 
L 2328 2669 
Q 3034 2534 3370 2195 
Q 3706 1856 3706 1288 
Q 3706 609 3251 259 
Q 2797 -91 1919 -91 
Q 1588 -91 1214 -16 
Q 841 59 441 206 
L 441 856 
Q 825 641 1194 531 
Q 1563 422 1919 422 
Q 2459 422 2753 634 
Q 3047 847 3047 1241 
Q 3047 1584 2836 1778 
Q 2625 1972 2144 2069 
L 1759 2144 
Q 1053 2284 737 2584 
Q 422 2884 422 3419 
Q 422 4038 858 4394 
Q 1294 4750 2059 4750 
Q 2388 4750 2728 4690 
Q 3069 4631 3425 4513 
z
" transform="scale(0.015625)"/>
       <path id="DejaVuSans-74" d="M 1172 4494 
L 1172 3500 
L 2356 3500 
L 2356 3053 
L 1172 3053 
L 1172 1153 
Q 1172 725 1289 603 
Q 1406 481 1766 481 
L 2356 481 
L 2356 0 
L 1766 0 
Q 1100 0 847 248 
Q 594 497 594 1153 
L 594 3053 
L 172 3053 
L 172 3500 
L 594 3500 
L 594 4494 
L 1172 4494 
z
" transform="scale(0.015625)"/>
       <path id="DejaVuSans-75" d="M 544 1381 
L 544 3500 
L 1119 3500 
L 1119 1403 
Q 1119 906 1312 657 
Q 1506 409 1894 409 
Q 2359 409 2629 706 
Q 2900 1003 2900 1516 
L 2900 3500 
L 3475 3500 
L 3475 0 
L 2900 0 
L 2900 538 
Q 2691 219 2414 64 
Q 2138 -91 1772 -91 
Q 1169 -91 856 284 
Q 544 659 544 1381 
z
M 1991 3584 
L 1991 3584 
z
" transform="scale(0.015625)"/>
       <path id="DejaVuSans-6c" d="M 603 4863 
L 1178 4863 
L 1178 0 
L 603 0 
L 603 4863 
z
" transform="scale(0.015625)"/>
       <path id="DejaVuSans-73" d="M 2834 3397 
L 2834 2853 
Q 2591 2978 2328 3040 
Q 2066 3103 1784 3103 
Q 1356 3103 1142 2972 
Q 928 2841 928 2578 
Q 928 2378 1081 2264 
Q 1234 2150 1697 2047 
L 1894 2003 
Q 2506 1872 2764 1633 
Q 3022 1394 3022 966 
Q 3022 478 2636 193 
Q 2250 -91 1575 -91 
Q 1294 -91 989 -36 
Q 684 19 347 128 
L 347 722 
Q 666 556 975 473 
Q 1284 391 1588 391 
Q 1994 391 2212 530 
Q 2431 669 2431 922 
Q 2431 1156 2273 1281 
Q 2116 1406 1581 1522 
L 1381 1569 
Q 847 1681 609 1914 
Q 372 2147 372 2553 
Q 372 3047 722 3315 
Q 1072 3584 1716 3584 
Q 2034 3584 2315 3537 
Q 2597 3491 2834 3397 
z
" transform="scale(0.015625)"/>
       <path id="DejaVuSans-4f" d="M 2522 4238 
Q 1834 4238 1429 3725 
Q 1025 3213 1025 2328 
Q 1025 1447 1429 934 
Q 1834 422 2522 422 
Q 3209 422 3611 934 
Q 4013 1447 4013 2328 
Q 4013 3213 3611 3725 
Q 3209 4238 2522 4238 
z
M 2522 4750 
Q 3503 4750 4090 4092 
Q 4678 3434 4678 2328 
Q 4678 1225 4090 567 
Q 3503 -91 2522 -91 
Q 1538 -91 948 565 
Q 359 1222 359 2328 
Q 359 3434 948 4092 
Q 1538 4750 2522 4750 
z
" transform="scale(0.015625)"/>
       <path id="DejaVuSans-6e" d="M 3513 2113 
L 3513 0 
L 2938 0 
L 2938 2094 
Q 2938 2591 2744 2837 
Q 2550 3084 2163 3084 
Q 1697 3084 1428 2787 
Q 1159 2491 1159 1978 
L 1159 0 
L 581 0 
L 581 3500 
L 1159 3500 
L 1159 2956 
Q 1366 3272 1645 3428 
Q 1925 3584 2291 3584 
Q 2894 3584 3203 3211 
Q 3513 2838 3513 2113 
z
" transform="scale(0.015625)"/>
       <path id="DejaVuSans-28" d="M 1984 4856 
Q 1566 4138 1362 3434 
Q 1159 2731 1159 2009 
Q 1159 1288 1364 580 
Q 1569 -128 1984 -844 
L 1484 -844 
Q 1016 -109 783 600 
Q 550 1309 550 2009 
Q 550 2706 781 3412 
Q 1013 4119 1484 4856 
L 1984 4856 
z
" transform="scale(0.015625)"/>
       <path id="DejaVuSans-29" d="M 513 4856 
L 1013 4856 
Q 1481 4119 1714 3412 
Q 1947 2706 1947 2009 
Q 1947 1309 1714 600 
Q 1481 -109 1013 -844 
L 513 -844 
Q 928 -128 1133 580 
Q 1338 1288 1338 2009 
Q 1338 2731 1133 3434 
Q 928 4138 513 4856 
z
" transform="scale(0.015625)"/>
      </defs>
      <use xlink:href="#DejaVuSans-54"/>
      <use xlink:href="#DejaVuSans-69" x="57.958984"/>
      <use xlink:href="#DejaVuSans-6d" x="85.742188"/>
      <use xlink:href="#DejaVuSans-65" x="183.154297"/>
      <use xlink:href="#DejaVuSans-20" x="244.677734"/>
      <use xlink:href="#DejaVuSans-66" x="276.464844"/>
      <use xlink:href="#DejaVuSans-72" x="311.669922"/>
      <use xlink:href="#DejaVuSans-6f" x="350.533203"/>
      <use xlink:href="#DejaVuSans-6d" x="411.714844"/>
      <use xlink:href="#DejaVuSans-20" x="509.126953"/>
      <use xlink:href="#DejaVuSans-53" x="540.914062"/>
      <use xlink:href="#DejaVuSans-74" x="604.390625"/>
      <use xlink:href="#DejaVuSans-69" x="643.599609"/>
      <use xlink:href="#DejaVuSans-6d" x="671.382812"/>
      <use xlink:href="#DejaVuSans-75" x="768.794922"/>
      <use xlink:href="#DejaVuSans-6c" x="832.173828"/>
      <use xlink:href="#DejaVuSans-75" x="859.957031"/>
      <use xlink:href="#DejaVuSans-73" x="923.335938"/>
      <use xlink:href="#DejaVuSans-20" x="975.435547"/>
      <use xlink:href="#DejaVuSans-4f" x="1007.222656"/>
      <use xlink:href="#DejaVuSans-6e" x="1085.933594"/>
      <use xlink:href="#DejaVuSans-73" x="1149.3125"/>
      <use xlink:href="#DejaVuSans-65" x="1201.412109"/>
      <use xlink:href="#DejaVuSans-74" x="1262.935547"/>
      <use xlink:href="#DejaVuSans-20" x="1302.144531"/>
      <use xlink:href="#DejaVuSans-28" x="1333.931641"/>
      <use xlink:href="#DejaVuSans-6d" x="1372.945312"/>
      <use xlink:href="#DejaVuSans-73" x="1470.357422"/>
      <use xlink:href="#DejaVuSans-29" x="1522.457031"/>
     </g>
    </g>
   </g>
   <g id="matplotlib.axis_2">
    <g id="ytick_1">
     <g id="line2d_8">
      <defs>
       <path id="ma00fd85361" d="M 0 0 
L -3.5 0 
" style="stroke: #000000; stroke-width: 0.8"/>
      </defs>
      <g>
       <use xlink:href="#ma00fd85361" x="100.8" y="392.21535" style="stroke: #000000; stroke-width: 0.8"/>
      </g>
     </g>
     <g id="text_9">
      <!-- −0.010 -->
      <g transform="translate(34.5875 398.2941) scale(0.16 -0.16)">
       <defs>
        <path id="DejaVuSans-2e" d="M 684 794 
L 1344 794 
L 1344 0 
L 684 0 
L 684 794 
z
" transform="scale(0.015625)"/>
       </defs>
       <use xlink:href="#DejaVuSans-2212"/>
       <use xlink:href="#DejaVuSans-30" x="83.789062"/>
       <use xlink:href="#DejaVuSans-2e" x="147.412109"/>
       <use xlink:href="#DejaVuSans-30" x="179.199219"/>
       <use xlink:href="#DejaVuSans-31" x="242.822266"/>
       <use xlink:href="#DejaVuSans-30" x="306.445312"/>
      </g>
     </g>
    </g>
    <g id="ytick_2">
     <g id="line2d_9">
      <g>
       <use xlink:href="#ma00fd85361" x="100.8" y="351.743979" style="stroke: #000000; stroke-width: 0.8"/>
      </g>
     </g>
     <g id="text_10">
      <!-- −0.005 -->
      <g transform="translate(34.5875 357.822729) scale(0.16 -0.16)">
       <use xlink:href="#DejaVuSans-2212"/>
       <use xlink:href="#DejaVuSans-30" x="83.789062"/>
       <use xlink:href="#DejaVuSans-2e" x="147.412109"/>
       <use xlink:href="#DejaVuSans-30" x="179.199219"/>
       <use xlink:href="#DejaVuSans-30" x="242.822266"/>
       <use xlink:href="#DejaVuSans-35" x="306.445312"/>
      </g>
     </g>
    </g>
    <g id="ytick_3">
     <g id="line2d_10">
      <g>
       <use xlink:href="#ma00fd85361" x="100.8" y="311.272608" style="stroke: #000000; stroke-width: 0.8"/>
      </g>
     </g>
     <g id="text_11">
      <!-- 0.000 -->
      <g transform="translate(47.995 317.351358) scale(0.16 -0.16)">
       <use xlink:href="#DejaVuSans-30"/>
       <use xlink:href="#DejaVuSans-2e" x="63.623047"/>
       <use xlink:href="#DejaVuSans-30" x="95.410156"/>
       <use xlink:href="#DejaVuSans-30" x="159.033203"/>
       <use xlink:href="#DejaVuSans-30" x="222.65625"/>
      </g>
     </g>
    </g>
    <g id="ytick_4">
     <g id="line2d_11">
      <g>
       <use xlink:href="#ma00fd85361" x="100.8" y="270.801237" style="stroke: #000000; stroke-width: 0.8"/>
      </g>
     </g>
     <g id="text_12">
      <!-- 0.005 -->
      <g transform="translate(47.995 276.879987) scale(0.16 -0.16)">
       <use xlink:href="#DejaVuSans-30"/>
       <use xlink:href="#DejaVuSans-2e" x="63.623047"/>
       <use xlink:href="#DejaVuSans-30" x="95.410156"/>
       <use xlink:href="#DejaVuSans-30" x="159.033203"/>
       <use xlink:href="#DejaVuSans-35" x="222.65625"/>
      </g>
     </g>
    </g>
    <g id="ytick_5">
     <g id="line2d_12">
      <g>
       <use xlink:href="#ma00fd85361" x="100.8" y="230.329866" style="stroke: #000000; stroke-width: 0.8"/>
      </g>
     </g>
     <g id="text_13">
      <!-- 0.010 -->
      <g transform="translate(47.995 236.408616) scale(0.16 -0.16)">
       <use xlink:href="#DejaVuSans-30"/>
       <use xlink:href="#DejaVuSans-2e" x="63.623047"/>
       <use xlink:href="#DejaVuSans-30" x="95.410156"/>
       <use xlink:href="#DejaVuSans-31" x="159.033203"/>
       <use xlink:href="#DejaVuSans-30" x="222.65625"/>
      </g>
     </g>
    </g>
    <g id="ytick_6">
     <g id="line2d_13">
      <g>
       <use xlink:href="#ma00fd85361" x="100.8" y="189.858495" style="stroke: #000000; stroke-width: 0.8"/>
      </g>
     </g>
     <g id="text_14">
      <!-- 0.015 -->
      <g transform="translate(47.995 195.937245) scale(0.16 -0.16)">
       <use xlink:href="#DejaVuSans-30"/>
       <use xlink:href="#DejaVuSans-2e" x="63.623047"/>
       <use xlink:href="#DejaVuSans-30" x="95.410156"/>
       <use xlink:href="#DejaVuSans-31" x="159.033203"/>
       <use xlink:href="#DejaVuSans-35" x="222.65625"/>
      </g>
     </g>
    </g>
    <g id="ytick_7">
     <g id="line2d_14">
      <g>
       <use xlink:href="#ma00fd85361" x="100.8" y="149.387123" style="stroke: #000000; stroke-width: 0.8"/>
      </g>
     </g>
     <g id="text_15">
      <!-- 0.020 -->
      <g transform="translate(47.995 155.465873) scale(0.16 -0.16)">
       <use xlink:href="#DejaVuSans-30"/>
       <use xlink:href="#DejaVuSans-2e" x="63.623047"/>
       <use xlink:href="#DejaVuSans-30" x="95.410156"/>
       <use xlink:href="#DejaVuSans-32" x="159.033203"/>
       <use xlink:href="#DejaVuSans-30" x="222.65625"/>
      </g>
     </g>
    </g>
    <g id="ytick_8">
     <g id="line2d_15">
      <g>
       <use xlink:href="#ma00fd85361" x="100.8" y="108.915752" style="stroke: #000000; stroke-width: 0.8"/>
      </g>
     </g>
     <g id="text_16">
      <!-- 0.025 -->
      <g transform="translate(47.995 114.994502) scale(0.16 -0.16)">
       <use xlink:href="#DejaVuSans-30"/>
       <use xlink:href="#DejaVuSans-2e" x="63.623047"/>
       <use xlink:href="#DejaVuSans-30" x="95.410156"/>
       <use xlink:href="#DejaVuSans-32" x="159.033203"/>
       <use xlink:href="#DejaVuSans-35" x="222.65625"/>
      </g>
     </g>
    </g>
    <g id="ytick_9">
     <g id="line2d_16">
      <g>
       <use xlink:href="#ma00fd85361" x="100.8" y="68.444381" style="stroke: #000000; stroke-width: 0.8"/>
      </g>
     </g>
     <g id="text_17">
      <!-- 0.030 -->
      <g transform="translate(47.995 74.523131) scale(0.16 -0.16)">
       <use xlink:href="#DejaVuSans-30"/>
       <use xlink:href="#DejaVuSans-2e" x="63.623047"/>
       <use xlink:href="#DejaVuSans-30" x="95.410156"/>
       <use xlink:href="#DejaVuSans-33" x="159.033203"/>
       <use xlink:href="#DejaVuSans-30" x="222.65625"/>
      </g>
     </g>
    </g>
    <g id="text_18">
     <!-- Directed predictability gain (bits) -->
     <g transform="translate(26.844062 364.685625) rotate(-90) scale(0.18 -0.18)">
      <defs>
       <path id="DejaVuSans-44" d="M 1259 4147 
L 1259 519 
L 2022 519 
Q 2988 519 3436 956 
Q 3884 1394 3884 2338 
Q 3884 3275 3436 3711 
Q 2988 4147 2022 4147 
L 1259 4147 
z
M 628 4666 
L 1925 4666 
Q 3281 4666 3915 4102 
Q 4550 3538 4550 2338 
Q 4550 1131 3912 565 
Q 3275 0 1925 0 
L 628 0 
L 628 4666 
z
" transform="scale(0.015625)"/>
       <path id="DejaVuSans-63" d="M 3122 3366 
L 3122 2828 
Q 2878 2963 2633 3030 
Q 2388 3097 2138 3097 
Q 1578 3097 1268 2742 
Q 959 2388 959 1747 
Q 959 1106 1268 751 
Q 1578 397 2138 397 
Q 2388 397 2633 464 
Q 2878 531 3122 666 
L 3122 134 
Q 2881 22 2623 -34 
Q 2366 -91 2075 -91 
Q 1284 -91 818 406 
Q 353 903 353 1747 
Q 353 2603 823 3093 
Q 1294 3584 2113 3584 
Q 2378 3584 2631 3529 
Q 2884 3475 3122 3366 
z
" transform="scale(0.015625)"/>
       <path id="DejaVuSans-64" d="M 2906 2969 
L 2906 4863 
L 3481 4863 
L 3481 0 
L 2906 0 
L 2906 525 
Q 2725 213 2448 61 
Q 2172 -91 1784 -91 
Q 1150 -91 751 415 
Q 353 922 353 1747 
Q 353 2572 751 3078 
Q 1150 3584 1784 3584 
Q 2172 3584 2448 3432 
Q 2725 3281 2906 2969 
z
M 947 1747 
Q 947 1113 1208 752 
Q 1469 391 1925 391 
Q 2381 391 2643 752 
Q 2906 1113 2906 1747 
Q 2906 2381 2643 2742 
Q 2381 3103 1925 3103 
Q 1469 3103 1208 2742 
Q 947 2381 947 1747 
z
" transform="scale(0.015625)"/>
       <path id="DejaVuSans-70" d="M 1159 525 
L 1159 -1331 
L 581 -1331 
L 581 3500 
L 1159 3500 
L 1159 2969 
Q 1341 3281 1617 3432 
Q 1894 3584 2278 3584 
Q 2916 3584 3314 3078 
Q 3713 2572 3713 1747 
Q 3713 922 3314 415 
Q 2916 -91 2278 -91 
Q 1894 -91 1617 61 
Q 1341 213 1159 525 
z
M 3116 1747 
Q 3116 2381 2855 2742 
Q 2594 3103 2138 3103 
Q 1681 3103 1420 2742 
Q 1159 2381 1159 1747 
Q 1159 1113 1420 752 
Q 1681 391 2138 391 
Q 2594 391 2855 752 
Q 3116 1113 3116 1747 
z
" transform="scale(0.015625)"/>
       <path id="DejaVuSans-61" d="M 2194 1759 
Q 1497 1759 1228 1600 
Q 959 1441 959 1056 
Q 959 750 1161 570 
Q 1363 391 1709 391 
Q 2188 391 2477 730 
Q 2766 1069 2766 1631 
L 2766 1759 
L 2194 1759 
z
M 3341 1997 
L 3341 0 
L 2766 0 
L 2766 531 
Q 2569 213 2275 61 
Q 1981 -91 1556 -91 
Q 1019 -91 701 211 
Q 384 513 384 1019 
Q 384 1609 779 1909 
Q 1175 2209 1959 2209 
L 2766 2209 
L 2766 2266 
Q 2766 2663 2505 2880 
Q 2244 3097 1772 3097 
Q 1472 3097 1187 3025 
Q 903 2953 641 2809 
L 641 3341 
Q 956 3463 1253 3523 
Q 1550 3584 1831 3584 
Q 2591 3584 2966 3190 
Q 3341 2797 3341 1997 
z
" transform="scale(0.015625)"/>
       <path id="DejaVuSans-62" d="M 3116 1747 
Q 3116 2381 2855 2742 
Q 2594 3103 2138 3103 
Q 1681 3103 1420 2742 
Q 1159 2381 1159 1747 
Q 1159 1113 1420 752 
Q 1681 391 2138 391 
Q 2594 391 2855 752 
Q 3116 1113 3116 1747 
z
M 1159 2969 
Q 1341 3281 1617 3432 
Q 1894 3584 2278 3584 
Q 2916 3584 3314 3078 
Q 3713 2572 3713 1747 
Q 3713 922 3314 415 
Q 2916 -91 2278 -91 
Q 1894 -91 1617 61 
Q 1341 213 1159 525 
L 1159 0 
L 581 0 
L 581 4863 
L 1159 4863 
L 1159 2969 
z
" transform="scale(0.015625)"/>
       <path id="DejaVuSans-79" d="M 2059 -325 
Q 1816 -950 1584 -1140 
Q 1353 -1331 966 -1331 
L 506 -1331 
L 506 -850 
L 844 -850 
Q 1081 -850 1212 -737 
Q 1344 -625 1503 -206 
L 1606 56 
L 191 3500 
L 800 3500 
L 1894 763 
L 2988 3500 
L 3597 3500 
L 2059 -325 
z
" transform="scale(0.015625)"/>
       <path id="DejaVuSans-67" d="M 2906 1791 
Q 2906 2416 2648 2759 
Q 2391 3103 1925 3103 
Q 1463 3103 1205 2759 
Q 947 2416 947 1791 
Q 947 1169 1205 825 
Q 1463 481 1925 481 
Q 2391 481 2648 825 
Q 2906 1169 2906 1791 
z
M 3481 434 
Q 3481 -459 3084 -895 
Q 2688 -1331 1869 -1331 
Q 1566 -1331 1297 -1286 
Q 1028 -1241 775 -1147 
L 775 -588 
Q 1028 -725 1275 -790 
Q 1522 -856 1778 -856 
Q 2344 -856 2625 -561 
Q 2906 -266 2906 331 
L 2906 616 
Q 2728 306 2450 153 
Q 2172 0 1784 0 
Q 1141 0 747 490 
Q 353 981 353 1791 
Q 353 2603 747 3093 
Q 1141 3584 1784 3584 
Q 2172 3584 2450 3431 
Q 2728 3278 2906 2969 
L 2906 3500 
L 3481 3500 
L 3481 434 
z
" transform="scale(0.015625)"/>
      </defs>
      <use xlink:href="#DejaVuSans-44"/>
      <use xlink:href="#DejaVuSans-69" x="77.001953"/>
      <use xlink:href="#DejaVuSans-72" x="104.785156"/>
      <use xlink:href="#DejaVuSans-65" x="143.648438"/>
      <use xlink:href="#DejaVuSans-63" x="205.171875"/>
      <use xlink:href="#DejaVuSans-74" x="260.152344"/>
      <use xlink:href="#DejaVuSans-65" x="299.361328"/>
      <use xlink:href="#DejaVuSans-64" x="360.884766"/>
      <use xlink:href="#DejaVuSans-20" x="424.361328"/>
      <use xlink:href="#DejaVuSans-70" x="456.148438"/>
      <use xlink:href="#DejaVuSans-72" x="519.625"/>
      <use xlink:href="#DejaVuSans-65" x="558.488281"/>
      <use xlink:href="#DejaVuSans-64" x="620.011719"/>
      <use xlink:href="#DejaVuSans-69" x="683.488281"/>
      <use xlink:href="#DejaVuSans-63" x="711.271484"/>
      <use xlink:href="#DejaVuSans-74" x="766.251953"/>
      <use xlink:href="#DejaVuSans-61" x="805.460938"/>
      <use xlink:href="#DejaVuSans-62" x="866.740234"/>
      <use xlink:href="#DejaVuSans-69" x="930.216797"/>
      <use xlink:href="#DejaVuSans-6c" x="958"/>
      <use xlink:href="#DejaVuSans-69" x="985.783203"/>
      <use xlink:href="#DejaVuSans-74" x="1013.566406"/>
      <use xlink:href="#DejaVuSans-79" x="1052.775391"/>
      <use xlink:href="#DejaVuSans-20" x="1111.955078"/>
      <use xlink:href="#DejaVuSans-67" x="1143.742188"/>
      <use xlink:href="#DejaVuSans-61" x="1207.21875"/>
      <use xlink:href="#DejaVuSans-69" x="1268.498047"/>
      <use xlink:href="#DejaVuSans-6e" x="1296.28125"/>
      <use xlink:href="#DejaVuSans-20" x="1359.660156"/>
      <use xlink:href="#DejaVuSans-28" x="1391.447266"/>
      <use xlink:href="#DejaVuSans-62" x="1430.460938"/>
      <use xlink:href="#DejaVuSans-69" x="1493.9375"/>
      <use xlink:href="#DejaVuSans-74" x="1521.720703"/>
      <use xlink:href="#DejaVuSans-73" x="1560.929688"/>
      <use xlink:href="#DejaVuSans-29" x="1613.029297"/>
     </g>
    </g>
   </g>
   <g id="line2d_17">
    <path d="M 220.8 396 
L 220.8 36 
" clip-path="url(#p558b4556ea)" style="fill: none; stroke-dasharray: 2.96,1.28; stroke-dashoffset: 0; stroke: #000000; stroke-width: 0.8"/>
   </g>
   <g id="line2d_18">
    <path d="M 100.8 311.272608 
L 820.8 311.272608 
" clip-path="url(#p558b4556ea)" style="fill: none; stroke-dasharray: 0.8,1.32; stroke-dashoffset: 0; stroke: #000000; stroke-width: 0.8"/>
   </g>
   <g id="line2d_19">
    <path d="M -1 289.059089 
L 4.8 279.932742 
L 16.800002 297.194525 
L 28.8 273.233375 
L 40.800002 273.799499 
L 52.800004 289.554712 
L 64.800001 292.1887 
L 76.800001 290.225554 
L 88.800001 244.350417 
L 100.8 275.731681 
L 112.8 294.25867 
L 124.8 341.676741 
L 136.8 321.977304 
L 148.799999 311.453528 
L 160.8 298.863777 
L 172.8 260.264707 
L 184.8 263.395438 
L 196.8 221.645416 
L 208.8 279.586722 
L 220.8 309.558273 
L 232.8 316.450198 
L 244.8 301.440499 
L 256.8 254.860247 
L 268.8 268.742295 
L 280.8 256.049883 
L 292.800001 282.548869 
L 304.8 273.469112 
L 316.8 225.737922 
L 328.8 222.536055 
L 340.8 171.711664 
L 352.799999 220.981635 
L 364.799999 215.978318 
L 376.799999 265.193802 
L 388.799996 279.429434 
L 400.799998 277.603602 
L 412.8 301.28779 
L 424.799998 263.36187 
L 436.8 254.563716 
L 448.800002 242.435658 
L 460.799999 266.236236 
L 472.800001 271.500361 
L 484.800003 267.564619 
L 496.800001 249.68863 
L 508.800003 212.132831 
L 520.8 201.520427 
L 532.799997 209.844216 
L 544.800004 233.491446 
L 556.800001 199.744651 
L 568.799999 209.034023 
L 580.800005 182.764933 
L 592.800003 198.041851 
L 604.799991 143.218111 
L 616.799998 166.537989 
L 628.800004 167.607108 
L 640.799993 188.043287 
L 652.799999 156.738009 
L 664.800006 138.85636 
L 676.799994 132.49056 
L 688.800001 124.953344 
L 700.800007 136.715046 
L 712.799996 153.882753 
L 724.800002 204.483109 
L 736.800009 230.450332 
L 748.799997 206.633796 
L 760.799995 199.014392 
L 772.800001 181.615668 
L 784.799999 229.612163 
L 796.799996 235.611606 
L 808.800003 246.411335 
L 820.8 255.378231 
L 832.799989 276.287097 
L 844.799977 259.38595 
L 856.800001 263.804731 
L 857.8 261.345547 
" clip-path="url(#p558b4556ea)" style="fill: none; stroke: #0e87cc; stroke-width: 2.5; stroke-linecap: square"/>
   </g>
   <g id="line2d_20">
    <path d="M -1 240.364291 
L 4.8 266.848462 
L 16.800002 276.783883 
L 28.8 301.197571 
L 40.800002 273.362528 
L 52.800004 278.723985 
L 64.800001 269.001226 
L 76.800001 254.736092 
L 88.800001 252.042598 
L 100.8 248.76666 
L 112.8 262.72822 
L 124.8 284.517736 
L 136.8 263.807208 
L 148.799999 236.517744 
L 160.8 217.993755 
L 172.8 238.032061 
L 184.8 281.625137 
L 196.8 303.063612 
L 208.8 315.550299 
L 220.8 323.899818 
L 232.8 289.126758 
L 244.8 264.570725 
L 256.8 209.708887 
L 268.8 267.748659 
L 280.8 289.22394 
L 292.800001 285.905571 
L 304.8 272.459538 
L 316.8 273.051684 
L 328.8 329.984765 
L 340.8 309.749881 
L 352.799999 310.903145 
L 364.799999 272.966519 
L 376.799999 270.419815 
L 388.799996 279.838194 
L 400.799998 297.338833 
L 412.8 293.965985 
L 424.799998 264.926322 
L 436.8 238.389113 
L 448.800002 247.250944 
L 460.799999 250.642903 
L 472.800001 278.897688 
L 484.800003 283.182879 
L 496.800001 298.553833 
L 508.800003 285.848011 
L 520.8 309.17139 
L 532.799997 285.214703 
L 544.800004 308.287113 
L 556.800001 288.142508 
L 568.799999 286.43483 
L 580.800005 259.065185 
L 592.800003 244.888614 
L 604.799991 239.551791 
L 616.799998 248.86071 
L 628.800004 202.616558 
L 640.799993 229.104289 
L 652.799999 203.116433 
L 664.800006 276.267204 
L 676.799994 241.156396 
L 688.800001 282.610019 
L 700.800007 233.890383 
L 712.799996 260.863467 
L 724.800002 252.281012 
L 736.800009 257.854716 
L 748.799997 266.298091 
L 760.799995 296.061192 
L 772.800001 322.762754 
L 784.799999 316.039969 
L 796.799996 263.407987 
L 808.800003 255.817388 
L 820.8 264.686923 
L 832.799989 303.788193 
L 844.799977 281.621326 
L 856.800001 252.362136 
L 857.8 250.51354 
" clip-path="url(#p558b4556ea)" style="fill: none; stroke: #c00a37; stroke-width: 2.5; stroke-linecap: square"/>
   </g>
   <g id="patch_3">
    <path d="M 100.8 396 
L 100.8 36 
" style="fill: none; stroke: #000000; stroke-width: 0.8; stroke-linejoin: miter; stroke-linecap: square"/>
   </g>
   <g id="patch_4">
    <path d="M 820.8 396 
L 820.8 36 
" style="fill: none; stroke: #000000; stroke-width: 0.8; stroke-linejoin: miter; stroke-linecap: square"/>
   </g>
   <g id="patch_5">
    <path d="M 100.8 396 
L 820.8 396 
" style="fill: none; stroke: #000000; stroke-width: 0.8; stroke-linejoin: miter; stroke-linecap: square"/>
   </g>
   <g id="patch_6">
    <path d="M 100.8 36 
L 820.8 36 
" style="fill: none; stroke: #000000; stroke-width: 0.8; stroke-linejoin: miter; stroke-linecap: square"/>
   </g>
   <g id="PathCollection_1">
    <defs>
     <path id="mde9dc1b18f" d="M 0 1.870829 
C 0.49615 1.870829 0.972045 1.673706 1.322876 1.322876 
C 1.673706 0.972045 1.870829 0.49615 1.870829 0 
C 1.870829 -0.49615 1.673706 -0.972045 1.322876 -1.322876 
C 0.972045 -1.673706 0.49615 -1.870829 0 -1.870829 
C -0.49615 -1.870829 -0.972045 -1.673706 -1.322876 -1.322876 
C -1.673706 -0.972045 -1.870829 -0.49615 -1.870829 0 
C -1.870829 0.49615 -1.673706 0.972045 -1.322876 1.322876 
C -0.972045 1.673706 -0.49615 1.870829 0 1.870829 
z
" style="stroke: #000000"/>
    </defs>
    <g clip-path="url(#p558b4556ea)">
     <use xlink:href="#mde9dc1b18f" x="328.8" y="378" style="stroke: #000000"/>
     <use xlink:href="#mde9dc1b18f" x="508.800003" y="378" style="stroke: #000000"/>
     <use xlink:href="#mde9dc1b18f" x="520.8" y="378" style="stroke: #000000"/>
     <use xlink:href="#mde9dc1b18f" x="580.800005" y="378" style="stroke: #000000"/>
     <use xlink:href="#mde9dc1b18f" x="604.799991" y="378" style="stroke: #000000"/>
     <use xlink:href="#mde9dc1b18f" x="664.800006" y="378" style="stroke: #000000"/>
     <use xlink:href="#mde9dc1b18f" x="676.799994" y="378" style="stroke: #000000"/>
     <use xlink:href="#mde9dc1b18f" x="688.800001" y="378" style="stroke: #000000"/>
     <use xlink:href="#mde9dc1b18f" x="700.800007" y="378" style="stroke: #000000"/>
     <use xlink:href="#mde9dc1b18f" x="772.800001" y="378" style="stroke: #000000"/>
     <use xlink:href="#mde9dc1b18f" x="928.799986" y="378" style="stroke: #000000"/>
     <use xlink:href="#mde9dc1b18f" x="1012.800014" y="378" style="stroke: #000000"/>
     <use xlink:href="#mde9dc1b18f" x="1024.80002" y="378" style="stroke: #000000"/>
    </g>
   </g>
   <g id="legend_1">
    <g id="line2d_21">
     <path d="M 114.3 55.647656 
L 129.3 55.647656 
L 144.3 55.647656 
" style="fill: none; stroke: #0e87cc; stroke-width: 2.5; stroke-linecap: square"/>
    </g>
    <g id="text_19">
     <!-- SFEF→SLIP -->
     <g transform="translate(156.3 60.897656) scale(0.15 -0.15)">
      <defs>
       <path id="DejaVuSans-46" d="M 628 4666 
L 3309 4666 
L 3309 4134 
L 1259 4134 
L 1259 2759 
L 3109 2759 
L 3109 2228 
L 1259 2228 
L 1259 0 
L 628 0 
L 628 4666 
z
" transform="scale(0.015625)"/>
       <path id="DejaVuSans-45" d="M 628 4666 
L 3578 4666 
L 3578 4134 
L 1259 4134 
L 1259 2753 
L 3481 2753 
L 3481 2222 
L 1259 2222 
L 1259 531 
L 3634 531 
L 3634 0 
L 628 0 
L 628 4666 
z
" transform="scale(0.015625)"/>
       <path id="DejaVuSans-2192" d="M 5050 2147 
L 5050 1866 
L 3822 638 
L 3447 1013 
L 4175 1741 
L 366 1741 
L 366 2272 
L 4175 2272 
L 3447 3000 
L 3822 3375 
L 5050 2147 
z
" transform="scale(0.015625)"/>
       <path id="DejaVuSans-4c" d="M 628 4666 
L 1259 4666 
L 1259 531 
L 3531 531 
L 3531 0 
L 628 0 
L 628 4666 
z
" transform="scale(0.015625)"/>
       <path id="DejaVuSans-49" d="M 628 4666 
L 1259 4666 
L 1259 0 
L 628 0 
L 628 4666 
z
" transform="scale(0.015625)"/>
       <path id="DejaVuSans-50" d="M 1259 4147 
L 1259 2394 
L 2053 2394 
Q 2494 2394 2734 2622 
Q 2975 2850 2975 3272 
Q 2975 3691 2734 3919 
Q 2494 4147 2053 4147 
L 1259 4147 
z
M 628 4666 
L 2053 4666 
Q 2838 4666 3239 4311 
Q 3641 3956 3641 3272 
Q 3641 2581 3239 2228 
Q 2838 1875 2053 1875 
L 1259 1875 
L 1259 0 
L 628 0 
L 628 4666 
z
" transform="scale(0.015625)"/>
      </defs>
      <use xlink:href="#DejaVuSans-53"/>
      <use xlink:href="#DejaVuSans-46" x="63.476562"/>
      <use xlink:href="#DejaVuSans-45" x="120.996094"/>
      <use xlink:href="#DejaVuSans-46" x="184.179688"/>
      <use xlink:href="#DejaVuSans-2192" x="241.699219"/>
      <use xlink:href="#DejaVuSans-53" x="325.488281"/>
      <use xlink:href="#DejaVuSans-4c" x="388.964844"/>
      <use xlink:href="#DejaVuSans-49" x="444.677734"/>
      <use xlink:href="#DejaVuSans-50" x="474.169922"/>
     </g>
    </g>
    <g id="line2d_22">
     <path d="M 114.3 77.664844 
L 129.3 77.664844 
L 144.3 77.664844 
" style="fill: none; stroke: #c00a37; stroke-width: 2.5; stroke-linecap: square"/>
    </g>
    <g id="text_20">
     <!-- SLIP→SFEF -->
     <g transform="translate(156.3 82.914844) scale(0.15 -0.15)">
      <use xlink:href="#DejaVuSans-53"/>
      <use xlink:href="#DejaVuSans-4c" x="63.476562"/>
      <use xlink:href="#DejaVuSans-49" x="119.189453"/>
      <use xlink:href="#DejaVuSans-50" x="148.681641"/>
      <use xlink:href="#DejaVuSans-2192" x="208.984375"/>
      <use xlink:href="#DejaVuSans-53" x="292.773438"/>
      <use xlink:href="#DejaVuSans-46" x="356.25"/>
      <use xlink:href="#DejaVuSans-45" x="413.769531"/>
      <use xlink:href="#DejaVuSans-46" x="476.953125"/>
     </g>
    </g>
    <g id="PathCollection_2">
     <g>
      <use xlink:href="#mde9dc1b18f" x="129.3" y="100.994531" style="stroke: #000000"/>
     </g>
    </g>
    <g id="text_21">
     <!-- p&lt;α -->
     <g transform="translate(156.3 104.932031) scale(0.15 -0.15)">
      <defs>
       <path id="DejaVuSans-3c" d="M 4684 3150 
L 1459 2003 
L 4684 863 
L 4684 294 
L 678 1747 
L 678 2266 
L 4684 3719 
L 4684 3150 
z
" transform="scale(0.015625)"/>
       <path id="DejaVuSans-3b1" d="M 2644 1628 
L 2506 2350 
Q 2366 3091 1809 3091 
Q 1391 3091 1200 2747 
Q 959 2316 959 1747 
Q 959 1059 1194 731 
Q 1431 397 1809 397 
Q 2228 397 2453 1063 
L 2644 1628 
z
M 2966 2584 
L 3275 3500 
L 3788 3500 
L 3147 1603 
L 3272 919 
Q 3300 766 3409 638 
Q 3538 488 3638 488 
L 3913 488 
L 3913 0 
L 3569 0 
Q 3275 0 3013 263 
Q 2884 394 2831 669 
Q 2688 322 2394 50 
Q 2256 -78 1809 -78 
Q 1075 -78 719 397 
Q 353 888 353 1747 
Q 353 2666 750 3097 
Q 1191 3578 1809 3578 
Q 2781 3578 2966 2584 
z
" transform="scale(0.015625)"/>
      </defs>
      <use xlink:href="#DejaVuSans-70"/>
      <use xlink:href="#DejaVuSans-3c" x="63.476562"/>
      <use xlink:href="#DejaVuSans-3b1" x="147.265625"/>
     </g>
    </g>
   </g>
  </g>
 </g>
 <defs>
  <clipPath id="p558b4556ea">
   <rect x="100.8" y="36" width="720" height="360"/>
  </clipPath>
 </defs>
</svg>
