<?xml version="1.0" encoding="utf-8" standalone="no"?>
<!DOCTYPE svg PUBLIC "-//W3C//DTD SVG 1.1//EN"
  "http://www.w3.org/Graphics/SVG/1.1/DTD/svg11.dtd">
<svg xmlns:xlink="http://www.w3.org/1999/xlink" width="561.6pt" height="561.6pt" viewBox="0 0 561.6 561.6" xmlns="http://www.w3.org/2000/svg" version="1.1">
 <metadata>
  <rdf:RDF xmlns:dc="http://purl.org/dc/elements/1.1/" xmlns:cc="http://creativecommons.org/ns#" xmlns:rdf="http://www.w3.org/1999/02/22-rdf-syntax-ns#">
   <cc:Work>
    <dc:type rdf:resource="http://purl.org/dc/dcmitype/StillImage"/>
    <dc:date>2025-12-08T02:23:46.684338</dc:date>
    <dc:format>image/svg+xml</dc:format>
    <dc:creator>
     <cc:Agent>
      <dc:title>Matplotlib v3.10.5, https://matplotlib.org/</dc:title>
     </cc:Agent>
    </dc:creator>
   </cc:Work>
  </rdf:RDF>
 </metadata>
 <defs>
  <style type="text/css">*{stroke-linejoin: round; stroke-linecap: butt}</style>
 </defs>
 <g id="figure_1">
  <g id="patch_1">
   <path d="M 0 561.6 
L 561.6 561.6 
L 561.6 0 
L 0 0 
z
" style="fill: #ffffff"/>
  </g>
  <g id="axes_1">
   <g id="patch_2">
    <path d="M 70.2 206.388 
L 505.44 206.388 
L 505.44 67.392 
L 70.2 67.392 
z
" style="fill: #ffffff"/>
   </g>
   <g id="FillBetweenPolyCollection_1">
    <defs>
     <path id="m86c357dfc1" d="M 89.983636 -381.375232 
L 89.983636 -364.174848 
L 93.980327 -364.179474 
L 97.977023 -364.394104 
L 101.973713 -364.194365 
L 105.97041 -364.232733 
L 109.967106 -364.577094 
L 113.963796 -364.383367 
L 117.960493 -364.426259 
L 121.957186 -364.337516 
L 125.953882 -364.456505 
L 129.950576 -364.844127 
L 133.947269 -364.289424 
L 137.943962 -364.321723 
L 141.940659 -364.37501 
L 145.937352 -364.255126 
L 149.934045 -364.2367 
L 153.93074 -364.029805 
L 157.927434 -364.422403 
L 161.924129 -364.689822 
L 165.920823 -364.112213 
L 169.917517 -364.101548 
L 173.914211 -364.393714 
L 177.910906 -364.68995 
L 181.9076 -364.22596 
L 185.904294 -363.839939 
L 189.900988 -364.630244 
L 193.897681 -364.157383 
L 197.894377 -364.087516 
L 201.891071 -364.500823 
L 205.887764 -363.815764 
L 209.884457 -364.341087 
L 213.881154 -364.296128 
L 217.877847 -364.349507 
L 221.874543 -364.505727 
L 225.871234 -364.02155 
L 229.86793 -364.20709 
L 233.864626 -364.402029 
L 237.861317 -364.272958 
L 241.858013 -364.884229 
L 245.854704 -364.466732 
L 249.8514 -363.867 
L 253.848096 -364.855525 
L 257.844787 -364.198667 
L 261.841483 -364.025973 
L 265.838179 -364.572898 
L 269.83487 -364.569273 
L 273.83156 -363.954793 
L 277.828262 -363.964113 
L 281.824953 -363.983473 
L 285.821643 -364.224762 
L 289.818345 -363.865662 
L 293.815036 -364.039833 
L 297.811726 -364.467925 
L 301.808428 -364.396299 
L 305.805119 -364.263125 
L 309.801809 -364.239757 
L 313.798511 -364.273329 
L 317.795202 -364.065701 
L 321.791892 -364.489083 
L 325.788594 -363.851888 
L 329.785285 -363.737524 
L 333.781975 -364.225779 
L 337.778677 -364.438821 
L 341.775368 -364.638922 
L 345.772058 -363.860735 
L 349.76876 -363.831831 
L 353.765451 -364.808015 
L 357.762141 -364.195623 
L 361.758843 -363.945709 
L 365.755534 -364.059414 
L 369.752224 -364.289674 
L 373.748914 -364.500746 
L 377.745605 -364.412195 
L 381.742319 -364.246153 
L 385.739009 -363.492996 
L 389.7357 -364.370944 
L 393.73239 -364.250311 
L 397.72908 -364.307534 
L 401.725771 -364.203025 
L 405.722485 -364.516214 
L 409.719175 -364.024184 
L 413.715866 -364.377831 
L 417.712556 -364.199424 
L 421.709246 -363.989986 
L 425.705937 -364.121791 
L 429.702627 -364.668818 
L 433.699341 -364.364572 
L 437.696032 -363.854977 
L 441.692722 -363.847801 
L 445.689412 -364.074778 
L 449.686103 -363.901456 
L 453.682793 -364.657079 
L 457.679507 -364.754453 
L 461.676198 -364.476318 
L 465.672888 -364.298153 
L 469.669578 -364.850534 
L 473.666269 -363.569953 
L 477.662959 -363.960791 
L 481.659673 -364.165413 
L 485.656364 -364.256756 
L 485.656364 -381.458442 
L 485.656364 -381.458442 
L 481.659673 -381.031709 
L 477.662959 -383.125826 
L 473.666269 -379.856322 
L 469.669578 -380.811145 
L 465.672888 -379.698639 
L 461.676198 -379.634901 
L 457.679507 -380.934523 
L 453.682793 -380.686172 
L 449.686103 -380.81228 
L 445.689412 -380.565074 
L 441.692722 -381.401419 
L 437.696032 -380.723723 
L 433.699341 -380.917356 
L 429.702627 -379.47595 
L 425.705937 -381.780048 
L 421.709246 -378.814923 
L 417.712556 -379.738215 
L 413.715866 -381.607715 
L 409.719175 -380.520892 
L 405.722485 -381.093611 
L 401.725771 -380.321869 
L 397.72908 -380.209571 
L 393.73239 -380.858416 
L 389.7357 -380.011591 
L 385.739009 -379.062828 
L 381.742319 -380.647983 
L 377.745605 -380.711493 
L 373.748914 -380.391839 
L 369.752224 -381.065957 
L 365.755534 -380.116 
L 361.758843 -381.173781 
L 357.762141 -380.740205 
L 353.765451 -380.830829 
L 349.76876 -380.31789 
L 345.772058 -382.000224 
L 341.775368 -380.510368 
L 337.778677 -381.581916 
L 333.781975 -379.740126 
L 329.785285 -380.209935 
L 325.788594 -381.013093 
L 321.791892 -380.610243 
L 317.795202 -381.104589 
L 313.798511 -380.525291 
L 309.801809 -380.278964 
L 305.805119 -381.375629 
L 301.808428 -380.485415 
L 297.811726 -382.241071 
L 293.815036 -379.665389 
L 289.818345 -380.172041 
L 285.821643 -380.806931 
L 281.824953 -380.483915 
L 277.828262 -379.765781 
L 273.83156 -381.181122 
L 269.83487 -380.284066 
L 265.838179 -381.032601 
L 261.841483 -379.760066 
L 257.844787 -380.723486 
L 253.848096 -380.129002 
L 249.8514 -380.533272 
L 245.854704 -380.780977 
L 241.858013 -380.879105 
L 237.861317 -381.314133 
L 233.864626 -381.037122 
L 229.86793 -382.549279 
L 225.871234 -380.765389 
L 221.874543 -380.153136 
L 217.877847 -380.635168 
L 213.881154 -380.991464 
L 209.884457 -381.160347 
L 205.887764 -380.050094 
L 201.891071 -380.343474 
L 197.894377 -380.278395 
L 193.897681 -379.499243 
L 189.900988 -380.18022 
L 185.904294 -381.192428 
L 181.9076 -380.124637 
L 177.910906 -380.67795 
L 173.914211 -380.795107 
L 169.917517 -380.798392 
L 165.920823 -381.214043 
L 161.924129 -381.054631 
L 157.927434 -380.871564 
L 153.93074 -380.044269 
L 149.934045 -380.118243 
L 145.937352 -379.914329 
L 141.940659 -379.760974 
L 137.943962 -380.455497 
L 133.947269 -380.727346 
L 129.950576 -379.739484 
L 125.953882 -379.290383 
L 121.957186 -380.908025 
L 117.960493 -381.440531 
L 113.963796 -380.814675 
L 109.967106 -381.733259 
L 105.97041 -380.887987 
L 101.973713 -381.257901 
L 97.977023 -380.492237 
L 93.980327 -379.6129 
L 89.983636 -381.375232 
z
"/>
    </defs>
    <g clip-path="url(#p0a36dc0c05)">
     <use xlink:href="#m86c357dfc1" x="0" y="561.6" style="fill: #1f77b4; fill-opacity: 0.15"/>
    </g>
   </g>
   <g id="FillBetweenPolyCollection_2">
    <defs>
     <path id="m8b4f247f68" d="M 89.983636 -379.679641 
L 89.983636 -363.570598 
L 93.980327 -364.256042 
L 97.977023 -364.080685 
L 101.973713 -364.603305 
L 105.97041 -364.039453 
L 109.967106 -364.38793 
L 113.963796 -364.448451 
L 117.960493 -363.999797 
L 121.957186 -364.771732 
L 125.953882 -364.2446 
L 129.950576 -364.203767 
L 133.947269 -364.425515 
L 137.943962 -363.981325 
L 141.940659 -364.190453 
L 145.937352 -364.881965 
L 149.934045 -364.034438 
L 153.93074 -363.746495 
L 157.927434 -363.593201 
L 161.924129 -364.464649 
L 165.920823 -364.420737 
L 169.917517 -363.882811 
L 173.914211 -364.451772 
L 177.910906 -364.288377 
L 181.9076 -363.978801 
L 185.904294 -364.920915 
L 189.900988 -364.212797 
L 193.897681 -363.726316 
L 197.894377 -363.68928 
L 201.891071 -364.960972 
L 205.887764 -363.961448 
L 209.884457 -364.787271 
L 213.881154 -364.401615 
L 217.877847 -364.622121 
L 221.874543 -364.361458 
L 225.871234 -364.368346 
L 229.86793 -364.073561 
L 233.864626 -364.640312 
L 237.861317 -365.135295 
L 241.858013 -363.931863 
L 245.854704 -364.760583 
L 249.8514 -364.54026 
L 253.848096 -364.016178 
L 257.844787 -363.858639 
L 261.841483 -363.911332 
L 265.838179 -363.608913 
L 269.83487 -364.021795 
L 273.83156 -364.787075 
L 277.828262 -364.219974 
L 281.824953 -364.704753 
L 285.821643 -364.255472 
L 289.818345 -363.789392 
L 293.815036 -364.189402 
L 297.811726 -364.356341 
L 301.808428 -364.56908 
L 305.805119 -364.324554 
L 309.801809 -363.325336 
L 313.798511 -363.966651 
L 317.795202 -364.304913 
L 321.791892 -364.017237 
L 325.788594 -364.290066 
L 329.785285 -364.387275 
L 333.781975 -364.397405 
L 337.778677 -364.351775 
L 341.775368 -364.507737 
L 345.772058 -364.24655 
L 349.76876 -364.615766 
L 353.765451 -364.20927 
L 357.762141 -363.971932 
L 361.758843 -364.147473 
L 365.755534 -364.202272 
L 369.752224 -364.178366 
L 373.748914 -364.097128 
L 377.745605 -363.974719 
L 381.742319 -363.50303 
L 385.739009 -364.002599 
L 389.7357 -364.202498 
L 393.73239 -364.220255 
L 397.72908 -364.247433 
L 401.725771 -364.711441 
L 405.722485 -364.080621 
L 409.719175 -363.612828 
L 413.715866 -364.340723 
L 417.712556 -364.052162 
L 421.709246 -364.238384 
L 425.705937 -364.494089 
L 429.702627 -364.217902 
L 433.699341 -364.11044 
L 437.696032 -364.440034 
L 441.692722 -364.262964 
L 445.689412 -364.022317 
L 449.686103 -364.845309 
L 453.682793 -364.463583 
L 457.679507 -364.21838 
L 461.676198 -364.127757 
L 465.672888 -364.343935 
L 469.669578 -364.500613 
L 473.666269 -364.400185 
L 477.662959 -363.793771 
L 481.659673 -364.437986 
L 485.656364 -364.479695 
L 485.656364 -380.877852 
L 485.656364 -380.877852 
L 481.659673 -379.947375 
L 477.662959 -380.835229 
L 473.666269 -381.011577 
L 469.669578 -381.453941 
L 465.672888 -380.786514 
L 461.676198 -380.334351 
L 457.679507 -381.222281 
L 453.682793 -382.154282 
L 449.686103 -380.120129 
L 445.689412 -379.535552 
L 441.692722 -381.012417 
L 437.696032 -381.417344 
L 433.699341 -381.510613 
L 429.702627 -381.063547 
L 425.705937 -379.644297 
L 421.709246 -380.111559 
L 417.712556 -380.32021 
L 413.715866 -381.283839 
L 409.719175 -380.831002 
L 405.722485 -381.793389 
L 401.725771 -380.482858 
L 397.72908 -380.446001 
L 393.73239 -381.806407 
L 389.7357 -380.247439 
L 385.739009 -380.516622 
L 381.742319 -382.202545 
L 377.745605 -379.673354 
L 373.748914 -381.654497 
L 369.752224 -381.166234 
L 365.755534 -380.209477 
L 361.758843 -379.610721 
L 357.762141 -380.834334 
L 353.765451 -379.192747 
L 349.76876 -380.622176 
L 345.772058 -380.668467 
L 341.775368 -381.247565 
L 337.778677 -380.045911 
L 333.781975 -381.53106 
L 329.785285 -381.64587 
L 325.788594 -379.934171 
L 321.791892 -381.460331 
L 317.795202 -381.259807 
L 313.798511 -380.232199 
L 309.801809 -381.276054 
L 305.805119 -380.746986 
L 301.808428 -381.441318 
L 297.811726 -380.290143 
L 293.815036 -381.440448 
L 289.818345 -381.285144 
L 285.821643 -380.740714 
L 281.824953 -381.94906 
L 277.828262 -381.151148 
L 273.83156 -380.871332 
L 269.83487 -380.515982 
L 265.838179 -380.850243 
L 261.841483 -380.032585 
L 257.844787 -381.687257 
L 253.848096 -380.771074 
L 249.8514 -380.574544 
L 245.854704 -381.530558 
L 241.858013 -380.318872 
L 237.861317 -380.144368 
L 233.864626 -381.133635 
L 229.86793 -381.000513 
L 225.871234 -381.054825 
L 221.874543 -380.726004 
L 217.877847 -380.522861 
L 213.881154 -381.006753 
L 209.884457 -380.360544 
L 205.887764 -381.342561 
L 201.891071 -380.261698 
L 197.894377 -380.755644 
L 193.897681 -379.558311 
L 189.900988 -381.692524 
L 185.904294 -380.296947 
L 181.9076 -380.418111 
L 177.910906 -380.741929 
L 173.914211 -380.689466 
L 169.917517 -381.944084 
L 165.920823 -379.526639 
L 161.924129 -379.711359 
L 157.927434 -381.363707 
L 153.93074 -380.122237 
L 149.934045 -381.274349 
L 145.937352 -380.090308 
L 141.940659 -379.926167 
L 137.943962 -380.978864 
L 133.947269 -379.691172 
L 129.950576 -380.294056 
L 125.953882 -380.086302 
L 121.957186 -380.748843 
L 117.960493 -381.197731 
L 113.963796 -379.903395 
L 109.967106 -380.463527 
L 105.97041 -380.619074 
L 101.973713 -381.356547 
L 97.977023 -380.700083 
L 93.980327 -380.185109 
L 89.983636 -379.679641 
z
"/>
    </defs>
    <g clip-path="url(#p0a36dc0c05)">
     <use xlink:href="#m8b4f247f68" x="0" y="561.6" style="fill: #ff7f0e; fill-opacity: 0.15"/>
    </g>
   </g>
   <g id="matplotlib.axis_1">
    <g id="xtick_1">
     <g id="line2d_1">
      <defs>
       <path id="m59ced0a9dd" d="M 0 0 
L 0 3.5 
" style="stroke: #000000; stroke-width: 0.8"/>
      </defs>
      <g>
       <use xlink:href="#m59ced0a9dd" x="87.985286" y="206.388" style="stroke: #000000; stroke-width: 0.8"/>
      </g>
     </g>
     <g id="text_1">
      <!-- −200 -->
      <g transform="translate(74.251693 220.986437) scale(0.1 -0.1)">
       <defs>
        <path id="DejaVuSans-2212" d="M 678 2272 
L 4684 2272 
L 4684 1741 
L 678 1741 
L 678 2272 
z
" transform="scale(0.015625)"/>
        <path id="DejaVuSans-32" d="M 1228 531 
L 3431 531 
L 3431 0 
L 469 0 
L 469 531 
Q 828 903 1448 1529 
Q 2069 2156 2228 2338 
Q 2531 2678 2651 2914 
Q 2772 3150 2772 3378 
Q 2772 3750 2511 3984 
Q 2250 4219 1831 4219 
Q 1534 4219 1204 4116 
Q 875 4013 500 3803 
L 500 4441 
Q 881 4594 1212 4672 
Q 1544 4750 1819 4750 
Q 2544 4750 2975 4387 
Q 3406 4025 3406 3419 
Q 3406 3131 3298 2873 
Q 3191 2616 2906 2266 
Q 2828 2175 2409 1742 
Q 1991 1309 1228 531 
z
" transform="scale(0.015625)"/>
        <path id="DejaVuSans-30" d="M 2034 4250 
Q 1547 4250 1301 3770 
Q 1056 3291 1056 2328 
Q 1056 1369 1301 889 
Q 1547 409 2034 409 
Q 2525 409 2770 889 
Q 3016 1369 3016 2328 
Q 3016 3291 2770 3770 
Q 2525 4250 2034 4250 
z
M 2034 4750 
Q 2819 4750 3233 4129 
Q 3647 3509 3647 2328 
Q 3647 1150 3233 529 
Q 2819 -91 2034 -91 
Q 1250 -91 836 529 
Q 422 1150 422 2328 
Q 422 3509 836 4129 
Q 1250 4750 2034 4750 
z
" transform="scale(0.015625)"/>
       </defs>
       <use xlink:href="#DejaVuSans-2212"/>
       <use xlink:href="#DejaVuSans-32" transform="translate(83.789062 0)"/>
       <use xlink:href="#DejaVuSans-30" transform="translate(147.412109 0)"/>
       <use xlink:href="#DejaVuSans-30" transform="translate(211.035156 0)"/>
      </g>
     </g>
    </g>
    <g id="xtick_2">
     <g id="line2d_2">
      <g>
       <use xlink:href="#m59ced0a9dd" x="167.91917" y="206.388" style="stroke: #000000; stroke-width: 0.8"/>
      </g>
     </g>
     <g id="text_2">
      <!-- 0 -->
      <g transform="translate(164.73792 220.986437) scale(0.1 -0.1)">
       <use xlink:href="#DejaVuSans-30"/>
      </g>
     </g>
    </g>
    <g id="xtick_3">
     <g id="line2d_3">
      <g>
       <use xlink:href="#m59ced0a9dd" x="247.853053" y="206.388" style="stroke: #000000; stroke-width: 0.8"/>
      </g>
     </g>
     <g id="text_3">
      <!-- 200 -->
      <g transform="translate(238.309303 220.986437) scale(0.1 -0.1)">
       <use xlink:href="#DejaVuSans-32"/>
       <use xlink:href="#DejaVuSans-30" transform="translate(63.623047 0)"/>
       <use xlink:href="#DejaVuSans-30" transform="translate(127.246094 0)"/>
      </g>
     </g>
    </g>
    <g id="xtick_4">
     <g id="line2d_4">
      <g>
       <use xlink:href="#m59ced0a9dd" x="327.786937" y="206.388" style="stroke: #000000; stroke-width: 0.8"/>
      </g>
     </g>
     <g id="text_4">
      <!-- 400 -->
      <g transform="translate(318.243187 220.986437) scale(0.1 -0.1)">
       <defs>
        <path id="DejaVuSans-34" d="M 2419 4116 
L 825 1625 
L 2419 1625 
L 2419 4116 
z
M 2253 4666 
L 3047 4666 
L 3047 1625 
L 3713 1625 
L 3713 1100 
L 3047 1100 
L 3047 0 
L 2419 0 
L 2419 1100 
L 313 1100 
L 313 1709 
L 2253 4666 
z
" transform="scale(0.015625)"/>
       </defs>
       <use xlink:href="#DejaVuSans-34"/>
       <use xlink:href="#DejaVuSans-30" transform="translate(63.623047 0)"/>
       <use xlink:href="#DejaVuSans-30" transform="translate(127.246094 0)"/>
      </g>
     </g>
    </g>
    <g id="xtick_5">
     <g id="line2d_5">
      <g>
       <use xlink:href="#m59ced0a9dd" x="407.720821" y="206.388" style="stroke: #000000; stroke-width: 0.8"/>
      </g>
     </g>
     <g id="text_5">
      <!-- 600 -->
      <g transform="translate(398.177071 220.986437) scale(0.1 -0.1)">
       <defs>
        <path id="DejaVuSans-36" d="M 2113 2584 
Q 1688 2584 1439 2293 
Q 1191 2003 1191 1497 
Q 1191 994 1439 701 
Q 1688 409 2113 409 
Q 2538 409 2786 701 
Q 3034 994 3034 1497 
Q 3034 2003 2786 2293 
Q 2538 2584 2113 2584 
z
M 3366 4563 
L 3366 3988 
Q 3128 4100 2886 4159 
Q 2644 4219 2406 4219 
Q 1781 4219 1451 3797 
Q 1122 3375 1075 2522 
Q 1259 2794 1537 2939 
Q 1816 3084 2150 3084 
Q 2853 3084 3261 2657 
Q 3669 2231 3669 1497 
Q 3669 778 3244 343 
Q 2819 -91 2113 -91 
Q 1303 -91 875 529 
Q 447 1150 447 2328 
Q 447 3434 972 4092 
Q 1497 4750 2381 4750 
Q 2619 4750 2861 4703 
Q 3103 4656 3366 4563 
z
" transform="scale(0.015625)"/>
       </defs>
       <use xlink:href="#DejaVuSans-36"/>
       <use xlink:href="#DejaVuSans-30" transform="translate(63.623047 0)"/>
       <use xlink:href="#DejaVuSans-30" transform="translate(127.246094 0)"/>
      </g>
     </g>
    </g>
    <g id="xtick_6">
     <g id="line2d_6">
      <g>
       <use xlink:href="#m59ced0a9dd" x="487.654704" y="206.388" style="stroke: #000000; stroke-width: 0.8"/>
      </g>
     </g>
     <g id="text_6">
      <!-- 800 -->
      <g transform="translate(478.110954 220.986437) scale(0.1 -0.1)">
       <defs>
        <path id="DejaVuSans-38" d="M 2034 2216 
Q 1584 2216 1326 1975 
Q 1069 1734 1069 1313 
Q 1069 891 1326 650 
Q 1584 409 2034 409 
Q 2484 409 2743 651 
Q 3003 894 3003 1313 
Q 3003 1734 2745 1975 
Q 2488 2216 2034 2216 
z
M 1403 2484 
Q 997 2584 770 2862 
Q 544 3141 544 3541 
Q 544 4100 942 4425 
Q 1341 4750 2034 4750 
Q 2731 4750 3128 4425 
Q 3525 4100 3525 3541 
Q 3525 3141 3298 2862 
Q 3072 2584 2669 2484 
Q 3125 2378 3379 2068 
Q 3634 1759 3634 1313 
Q 3634 634 3220 271 
Q 2806 -91 2034 -91 
Q 1263 -91 848 271 
Q 434 634 434 1313 
Q 434 1759 690 2068 
Q 947 2378 1403 2484 
z
M 1172 3481 
Q 1172 3119 1398 2916 
Q 1625 2713 2034 2713 
Q 2441 2713 2670 2916 
Q 2900 3119 2900 3481 
Q 2900 3844 2670 4047 
Q 2441 4250 2034 4250 
Q 1625 4250 1398 4047 
Q 1172 3844 1172 3481 
z
" transform="scale(0.015625)"/>
       </defs>
       <use xlink:href="#DejaVuSans-38"/>
       <use xlink:href="#DejaVuSans-30" transform="translate(63.623047 0)"/>
       <use xlink:href="#DejaVuSans-30" transform="translate(127.246094 0)"/>
      </g>
     </g>
    </g>
   </g>
   <g id="matplotlib.axis_2">
    <g id="ytick_1">
     <g id="line2d_7">
      <defs>
       <path id="m73b264f222" d="M 0 0 
L -3.5 0 
" style="stroke: #000000; stroke-width: 0.8"/>
      </defs>
      <g>
       <use xlink:href="#m73b264f222" x="70.2" y="202.087479" style="stroke: #000000; stroke-width: 0.8"/>
      </g>
     </g>
     <g id="text_7">
      <!-- 0 -->
      <g transform="translate(56.8375 205.886698) scale(0.1 -0.1)">
       <use xlink:href="#DejaVuSans-30"/>
      </g>
     </g>
    </g>
    <g id="ytick_2">
     <g id="line2d_8">
      <g>
       <use xlink:href="#m73b264f222" x="70.2" y="167.191397" style="stroke: #000000; stroke-width: 0.8"/>
      </g>
     </g>
     <g id="text_8">
      <!-- 10 -->
      <g transform="translate(50.475 170.990616) scale(0.1 -0.1)">
       <defs>
        <path id="DejaVuSans-31" d="M 794 531 
L 1825 531 
L 1825 4091 
L 703 3866 
L 703 4441 
L 1819 4666 
L 2450 4666 
L 2450 531 
L 3481 531 
L 3481 0 
L 794 0 
L 794 531 
z
" transform="scale(0.015625)"/>
       </defs>
       <use xlink:href="#DejaVuSans-31"/>
       <use xlink:href="#DejaVuSans-30" transform="translate(63.623047 0)"/>
      </g>
     </g>
    </g>
    <g id="ytick_3">
     <g id="line2d_9">
      <g>
       <use xlink:href="#m73b264f222" x="70.2" y="132.295316" style="stroke: #000000; stroke-width: 0.8"/>
      </g>
     </g>
     <g id="text_9">
      <!-- 20 -->
      <g transform="translate(50.475 136.094534) scale(0.1 -0.1)">
       <use xlink:href="#DejaVuSans-32"/>
       <use xlink:href="#DejaVuSans-30" transform="translate(63.623047 0)"/>
      </g>
     </g>
    </g>
    <g id="ytick_4">
     <g id="line2d_10">
      <g>
       <use xlink:href="#m73b264f222" x="70.2" y="97.399234" style="stroke: #000000; stroke-width: 0.8"/>
      </g>
     </g>
     <g id="text_10">
      <!-- 30 -->
      <g transform="translate(50.475 101.198453) scale(0.1 -0.1)">
       <defs>
        <path id="DejaVuSans-33" d="M 2597 2516 
Q 3050 2419 3304 2112 
Q 3559 1806 3559 1356 
Q 3559 666 3084 287 
Q 2609 -91 1734 -91 
Q 1441 -91 1130 -33 
Q 819 25 488 141 
L 488 750 
Q 750 597 1062 519 
Q 1375 441 1716 441 
Q 2309 441 2620 675 
Q 2931 909 2931 1356 
Q 2931 1769 2642 2001 
Q 2353 2234 1838 2234 
L 1294 2234 
L 1294 2753 
L 1863 2753 
Q 2328 2753 2575 2939 
Q 2822 3125 2822 3475 
Q 2822 3834 2567 4026 
Q 2313 4219 1838 4219 
Q 1578 4219 1281 4162 
Q 984 4106 628 3988 
L 628 4550 
Q 988 4650 1302 4700 
Q 1616 4750 1894 4750 
Q 2613 4750 3031 4423 
Q 3450 4097 3450 3541 
Q 3450 3153 3228 2886 
Q 3006 2619 2597 2516 
z
" transform="scale(0.015625)"/>
       </defs>
       <use xlink:href="#DejaVuSans-33"/>
       <use xlink:href="#DejaVuSans-30" transform="translate(63.623047 0)"/>
      </g>
     </g>
    </g>
    <g id="text_11">
     <!-- ΔLL (bits) -->
     <g transform="translate(44.395313 160.500937) rotate(-90) scale(0.1 -0.1)">
      <defs>
       <path id="DejaVuSans-394" d="M 2188 4044 
L 906 525 
L 3472 525 
L 2188 4044 
z
M 50 0 
L 1831 4666 
L 2547 4666 
L 4325 0 
L 50 0 
z
" transform="scale(0.015625)"/>
       <path id="DejaVuSans-4c" d="M 628 4666 
L 1259 4666 
L 1259 531 
L 3531 531 
L 3531 0 
L 628 0 
L 628 4666 
z
" transform="scale(0.015625)"/>
       <path id="DejaVuSans-20" transform="scale(0.015625)"/>
       <path id="DejaVuSans-28" d="M 1984 4856 
Q 1566 4138 1362 3434 
Q 1159 2731 1159 2009 
Q 1159 1288 1364 580 
Q 1569 -128 1984 -844 
L 1484 -844 
Q 1016 -109 783 600 
Q 550 1309 550 2009 
Q 550 2706 781 3412 
Q 1013 4119 1484 4856 
L 1984 4856 
z
" transform="scale(0.015625)"/>
       <path id="DejaVuSans-62" d="M 3116 1747 
Q 3116 2381 2855 2742 
Q 2594 3103 2138 3103 
Q 1681 3103 1420 2742 
Q 1159 2381 1159 1747 
Q 1159 1113 1420 752 
Q 1681 391 2138 391 
Q 2594 391 2855 752 
Q 3116 1113 3116 1747 
z
M 1159 2969 
Q 1341 3281 1617 3432 
Q 1894 3584 2278 3584 
Q 2916 3584 3314 3078 
Q 3713 2572 3713 1747 
Q 3713 922 3314 415 
Q 2916 -91 2278 -91 
Q 1894 -91 1617 61 
Q 1341 213 1159 525 
L 1159 0 
L 581 0 
L 581 4863 
L 1159 4863 
L 1159 2969 
z
" transform="scale(0.015625)"/>
       <path id="DejaVuSans-69" d="M 603 3500 
L 1178 3500 
L 1178 0 
L 603 0 
L 603 3500 
z
M 603 4863 
L 1178 4863 
L 1178 4134 
L 603 4134 
L 603 4863 
z
" transform="scale(0.015625)"/>
       <path id="DejaVuSans-74" d="M 1172 4494 
L 1172 3500 
L 2356 3500 
L 2356 3053 
L 1172 3053 
L 1172 1153 
Q 1172 725 1289 603 
Q 1406 481 1766 481 
L 2356 481 
L 2356 0 
L 1766 0 
Q 1100 0 847 248 
Q 594 497 594 1153 
L 594 3053 
L 172 3053 
L 172 3500 
L 594 3500 
L 594 4494 
L 1172 4494 
z
" transform="scale(0.015625)"/>
       <path id="DejaVuSans-73" d="M 2834 3397 
L 2834 2853 
Q 2591 2978 2328 3040 
Q 2066 3103 1784 3103 
Q 1356 3103 1142 2972 
Q 928 2841 928 2578 
Q 928 2378 1081 2264 
Q 1234 2150 1697 2047 
L 1894 2003 
Q 2506 1872 2764 1633 
Q 3022 1394 3022 966 
Q 3022 478 2636 193 
Q 2250 -91 1575 -91 
Q 1294 -91 989 -36 
Q 684 19 347 128 
L 347 722 
Q 666 556 975 473 
Q 1284 391 1588 391 
Q 1994 391 2212 530 
Q 2431 669 2431 922 
Q 2431 1156 2273 1281 
Q 2116 1406 1581 1522 
L 1381 1569 
Q 847 1681 609 1914 
Q 372 2147 372 2553 
Q 372 3047 722 3315 
Q 1072 3584 1716 3584 
Q 2034 3584 2315 3537 
Q 2597 3491 2834 3397 
z
" transform="scale(0.015625)"/>
       <path id="DejaVuSans-29" d="M 513 4856 
L 1013 4856 
Q 1481 4119 1714 3412 
Q 1947 2706 1947 2009 
Q 1947 1309 1714 600 
Q 1481 -109 1013 -844 
L 513 -844 
Q 928 -128 1133 580 
Q 1338 1288 1338 2009 
Q 1338 2731 1133 3434 
Q 928 4138 513 4856 
z
" transform="scale(0.015625)"/>
      </defs>
      <use xlink:href="#DejaVuSans-394"/>
      <use xlink:href="#DejaVuSans-4c" transform="translate(68.408203 0)"/>
      <use xlink:href="#DejaVuSans-4c" transform="translate(124.121094 0)"/>
      <use xlink:href="#DejaVuSans-20" transform="translate(179.833984 0)"/>
      <use xlink:href="#DejaVuSans-28" transform="translate(211.621094 0)"/>
      <use xlink:href="#DejaVuSans-62" transform="translate(250.634766 0)"/>
      <use xlink:href="#DejaVuSans-69" transform="translate(314.111328 0)"/>
      <use xlink:href="#DejaVuSans-74" transform="translate(341.894531 0)"/>
      <use xlink:href="#DejaVuSans-73" transform="translate(381.103516 0)"/>
      <use xlink:href="#DejaVuSans-29" transform="translate(433.203125 0)"/>
     </g>
    </g>
   </g>
   <g id="line2d_11">
    <path d="M 167.91917 206.388 
L 167.91917 67.392 
" clip-path="url(#p0a36dc0c05)" style="fill: none; stroke-dasharray: 2.96,1.28; stroke-dashoffset: 0; stroke: #000000; stroke-width: 0.8"/>
   </g>
   <g id="line2d_12">
    <path d="M 89.983636 188.82496 
L 93.980327 189.703813 
L 97.977023 189.156829 
L 101.973713 188.873867 
L 105.97041 189.03964 
L 109.967106 188.444824 
L 113.963796 189.000979 
L 117.960493 188.666605 
L 121.957186 188.977229 
L 125.953882 189.726556 
L 129.950576 189.308195 
L 133.947269 189.091615 
L 137.943962 189.21139 
L 141.940659 189.532008 
L 145.937352 189.515273 
L 149.934045 189.422528 
L 153.93074 189.562963 
L 157.927434 188.953017 
L 161.924129 188.727773 
L 165.920823 188.936872 
L 169.917517 189.15003 
L 173.914211 189.00559 
L 177.910906 188.91605 
L 181.9076 189.424701 
L 185.904294 189.083817 
L 189.900988 189.194768 
L 193.897681 189.771687 
L 197.894377 189.417045 
L 201.891071 189.177851 
L 205.887764 189.667071 
L 209.884457 188.849283 
L 213.881154 188.956204 
L 217.877847 189.107663 
L 221.874543 189.270568 
L 225.871234 189.20653 
L 229.86793 188.221815 
L 233.864626 188.880424 
L 237.861317 188.806455 
L 241.858013 188.718333 
L 245.854704 188.976146 
L 249.8514 189.399864 
L 253.848096 189.107737 
L 257.844787 189.138924 
L 261.841483 189.70698 
L 265.838179 188.797251 
L 269.83487 189.17333 
L 273.83156 189.032042 
L 277.828262 189.735053 
L 281.824953 189.366306 
L 285.821643 189.084154 
L 289.818345 189.581149 
L 293.815036 189.747389 
L 297.811726 188.245502 
L 301.808428 189.159143 
L 305.805119 188.780623 
L 309.801809 189.34064 
L 313.798511 189.20069 
L 317.795202 189.014855 
L 321.791892 189.050337 
L 325.788594 189.167509 
L 329.785285 189.626271 
L 333.781975 189.617047 
L 337.778677 188.589632 
L 341.775368 189.025355 
L 345.772058 188.66952 
L 349.76876 189.525139 
L 353.765451 188.780578 
L 357.762141 189.132086 
L 361.758843 189.040255 
L 365.755534 189.512293 
L 369.752224 188.922185 
L 373.748914 189.153707 
L 377.745605 189.038156 
L 381.742319 189.152932 
L 385.739009 190.322088 
L 389.7357 189.408732 
L 393.73239 189.045636 
L 397.72908 189.341447 
L 401.725771 189.337553 
L 405.722485 188.795088 
L 409.719175 189.327462 
L 413.715866 188.607227 
L 417.712556 189.631181 
L 421.709246 190.197545 
L 425.705937 188.649081 
L 429.702627 189.527616 
L 433.699341 188.959036 
L 437.696032 189.31065 
L 441.692722 188.97539 
L 445.689412 189.280074 
L 449.686103 189.243132 
L 453.682793 188.928375 
L 457.679507 188.755512 
L 461.676198 189.544391 
L 465.672888 189.601604 
L 469.669578 188.769161 
L 473.666269 189.886862 
L 477.662959 188.056691 
L 481.659673 189.001439 
L 485.656364 188.742401 
" clip-path="url(#p0a36dc0c05)" style="fill: none; stroke-dasharray: 1,1.65; stroke-dashoffset: 0; stroke: #1f77b4"/>
   </g>
   <g id="line2d_13">
    <path d="M 89.983636 189.974881 
L 93.980327 189.379424 
L 97.977023 189.209616 
L 101.973713 188.620074 
L 105.97041 189.270737 
L 109.967106 189.174271 
L 113.963796 189.424077 
L 117.960493 189.001236 
L 121.957186 188.839712 
L 125.953882 189.434549 
L 129.950576 189.351088 
L 133.947269 189.541656 
L 137.943962 189.119906 
L 141.940659 189.54169 
L 145.937352 189.113864 
L 149.934045 188.945606 
L 153.93074 189.665634 
L 157.927434 189.121546 
L 161.924129 189.511996 
L 165.920823 189.626312 
L 169.917517 188.686553 
L 173.914211 189.029381 
L 177.910906 189.084847 
L 181.9076 189.401544 
L 185.904294 188.991069 
L 189.900988 188.64734 
L 193.897681 189.957687 
L 197.894377 189.377538 
L 201.891071 188.988665 
L 205.887764 188.947995 
L 209.884457 189.026093 
L 213.881154 188.895816 
L 217.877847 189.027509 
L 221.874543 189.056269 
L 225.871234 188.888415 
L 229.86793 189.062963 
L 233.864626 188.713027 
L 237.861317 188.960168 
L 241.858013 189.474633 
L 245.854704 188.45443 
L 249.8514 189.042598 
L 253.848096 189.206374 
L 257.844787 188.827052 
L 261.841483 189.628041 
L 265.838179 189.370422 
L 269.83487 189.331112 
L 273.83156 188.770796 
L 277.828262 188.914439 
L 281.824953 188.273094 
L 285.821643 189.101907 
L 289.818345 189.062732 
L 293.815036 188.785075 
L 297.811726 189.276758 
L 301.808428 188.594801 
L 305.805119 189.06423 
L 309.801809 189.299305 
L 313.798511 189.500575 
L 317.795202 188.81764 
L 321.791892 188.861216 
L 325.788594 189.487881 
L 329.785285 188.583428 
L 333.781975 188.635767 
L 337.778677 189.401157 
L 341.775368 188.722349 
L 345.772058 189.142491 
L 349.76876 188.981029 
L 353.765451 189.898992 
L 357.762141 189.196867 
L 361.758843 189.720903 
L 365.755534 189.394126 
L 369.752224 188.9277 
L 373.748914 188.724188 
L 377.745605 189.775963 
L 381.742319 188.747213 
L 385.739009 189.340389 
L 389.7357 189.375031 
L 393.73239 188.586669 
L 397.72908 189.253283 
L 401.725771 189.002851 
L 405.722485 188.662995 
L 409.719175 189.378085 
L 413.715866 188.787719 
L 417.712556 189.413814 
L 421.709246 189.425029 
L 425.705937 189.530807 
L 429.702627 188.959276 
L 433.699341 188.789473 
L 437.696032 188.671311 
L 441.692722 188.96231 
L 445.689412 189.821065 
L 449.686103 189.117281 
L 453.682793 188.291067 
L 457.679507 188.87967 
L 461.676198 189.368946 
L 465.672888 189.034776 
L 469.669578 188.622723 
L 473.666269 188.894119 
L 477.662959 189.2855 
L 481.659673 189.407319 
L 485.656364 188.921227 
" clip-path="url(#p0a36dc0c05)" style="fill: none; stroke-dasharray: 1,1.65; stroke-dashoffset: 0; stroke: #ff7f0e"/>
   </g>
   <g id="line2d_14">
    <path d="M 89.983636 184.328474 
L 93.980327 189.571273 
L 97.977023 172.185528 
L 101.973713 181.777426 
L 105.97041 167.044169 
L 109.967106 196.793584 
L 113.963796 159.00383 
L 117.960493 168.600439 
L 121.957186 171.222087 
L 125.953882 162.170419 
L 129.950576 164.86578 
L 133.947269 153.511067 
L 137.943962 166.569879 
L 141.940659 170.200312 
L 145.937352 187.862082 
L 149.934045 145.305002 
L 153.93074 181.139449 
L 157.927434 168.077244 
L 161.924129 182.249412 
L 165.920823 141.225625 
L 169.917517 120.865166 
L 173.914211 183.377312 
L 177.910906 145.893152 
L 181.9076 175.176192 
L 185.904294 117.051114 
L 189.900988 188.464565 
L 193.897681 144.435209 
L 197.894377 150.790714 
L 201.891071 173.493016 
L 205.887764 170.18523 
L 209.884457 131.137985 
L 213.881154 162.653013 
L 217.877847 184.354676 
L 221.874543 141.87716 
L 225.871234 166.19456 
L 229.86793 176.861366 
L 233.864626 152.34954 
L 237.861317 162.921574 
L 241.858013 145.965892 
L 245.854704 171.568922 
L 249.8514 182.918299 
L 253.848096 178.656113 
L 257.844787 119.922706 
L 261.841483 180.531814 
L 265.838179 168.511236 
L 269.83487 172.053393 
L 273.83156 158.632145 
L 277.828262 172.334487 
L 281.824953 185.203379 
L 285.821643 152.045466 
L 289.818345 161.40152 
L 293.815036 198.489568 
L 297.811726 172.723413 
L 301.808428 161.74315 
L 305.805119 154.447049 
L 309.801809 189.27936 
L 313.798511 166.54356 
L 317.795202 180.85211 
L 321.791892 179.279572 
L 325.788594 198.301586 
L 329.785285 186.052208 
L 333.781975 182.834285 
L 337.778677 168.507333 
L 341.775368 168.752912 
L 345.772058 188.226348 
L 349.76876 193.089347 
L 353.765451 192.231481 
L 357.762141 176.335131 
L 361.758843 182.641832 
L 365.755534 185.919529 
L 369.752224 191.228283 
L 373.748914 188.634661 
L 377.745605 188.815931 
L 381.742319 175.597133 
L 385.739009 176.597279 
L 389.7357 195.820499 
L 393.73239 177.763147 
L 397.72908 171.366792 
L 401.725771 189.303515 
L 405.722485 160.816078 
L 409.719175 191.588939 
L 413.715866 174.998318 
L 417.712556 197.451839 
L 421.709246 168.076623 
L 425.705937 185.535733 
L 429.702627 191.801732 
L 433.699341 181.026814 
L 437.696032 176.990891 
L 441.692722 193.568122 
L 445.689412 154.893025 
L 449.686103 196.532523 
L 453.682793 185.805307 
L 457.679507 176.34253 
L 461.676198 190.514902 
L 465.672888 188.19167 
L 469.669578 186.738513 
L 473.666269 170.30951 
L 477.662959 194.658393 
L 481.659673 177.062283 
L 485.656364 183.562783 
" clip-path="url(#p0a36dc0c05)" style="fill: none; stroke: #1f77b4; stroke-width: 2.2; stroke-linecap: square"/>
   </g>
   <g id="line2d_15">
    <path d="M 89.983636 175.182511 
L 93.980327 188.420317 
L 97.977023 164.905818 
L 101.973713 138.107142 
L 105.97041 178.937813 
L 109.967106 146.962141 
L 113.963796 147.047076 
L 117.960493 176.749758 
L 121.957186 148.244274 
L 125.953882 155.369574 
L 129.950576 127.300922 
L 133.947269 151.987421 
L 137.943962 163.360467 
L 141.940659 142.430636 
L 145.937352 183.644747 
L 149.934045 184.888839 
L 153.93074 136.886448 
L 157.927434 133.385743 
L 161.924129 149.5986 
L 165.920823 177.179057 
L 169.917517 103.337024 
L 173.914211 164.835904 
L 177.910906 153.889684 
L 181.9076 153.516275 
L 185.904294 150.951569 
L 189.900988 176.471715 
L 193.897681 174.828401 
L 197.894377 174.131528 
L 201.891071 154.804153 
L 205.887764 86.65214 
L 209.884457 131.888836 
L 213.881154 137.310618 
L 217.877847 166.735648 
L 221.874543 73.71 
L 225.871234 143.321845 
L 229.86793 144.006405 
L 233.864626 173.227628 
L 237.861317 162.063354 
L 241.858013 117.140033 
L 245.854704 138.823718 
L 249.8514 140.812652 
L 253.848096 130.458901 
L 257.844787 175.625276 
L 261.841483 157.623565 
L 265.838179 165.010881 
L 269.83487 181.479572 
L 273.83156 184.339584 
L 277.828262 172.799461 
L 281.824953 168.422265 
L 285.821643 147.097764 
L 289.818345 172.060754 
L 293.815036 181.113293 
L 297.811726 161.00938 
L 301.808428 174.313315 
L 305.805119 165.622514 
L 309.801809 184.492133 
L 313.798511 146.10062 
L 317.795202 166.59173 
L 321.791892 177.768608 
L 325.788594 190.869015 
L 329.785285 172.105825 
L 333.781975 157.162643 
L 337.778677 191.890556 
L 341.775368 176.292565 
L 345.772058 181.257957 
L 349.76876 160.562686 
L 353.765451 153.810338 
L 357.762141 187.24158 
L 361.758843 164.596968 
L 365.755534 179.962101 
L 369.752224 163.830796 
L 373.748914 196.206555 
L 377.745605 183.120834 
L 381.742319 184.904796 
L 385.739009 168.656238 
L 389.7357 177.700363 
L 393.73239 169.209342 
L 397.72908 175.908407 
L 401.725771 179.397626 
L 405.722485 159.109226 
L 409.719175 190.189849 
L 413.715866 179.188687 
L 417.712556 195.128774 
L 421.709246 192.176737 
L 425.705937 177.724964 
L 429.702627 176.539783 
L 433.699341 193.365635 
L 437.696032 181.648571 
L 441.692722 164.670329 
L 445.689412 192.217637 
L 449.686103 195.2201 
L 453.682793 161.574645 
L 457.679507 156.149981 
L 461.676198 194.174683 
L 465.672888 192.10219 
L 469.669578 192.516093 
L 473.666269 200.07 
L 477.662959 191.253269 
L 481.659673 197.903241 
L 485.656364 185.383207 
" clip-path="url(#p0a36dc0c05)" style="fill: none; stroke: #ff7f0e; stroke-width: 2.2; stroke-linecap: square"/>
   </g>
   <g id="patch_3">
    <path d="M 70.2 206.388 
L 70.2 67.392 
" style="fill: none; stroke: #000000; stroke-width: 0.8; stroke-linejoin: miter; stroke-linecap: square"/>
   </g>
   <g id="patch_4">
    <path d="M 505.44 206.388 
L 505.44 67.392 
" style="fill: none; stroke: #000000; stroke-width: 0.8; stroke-linejoin: miter; stroke-linecap: square"/>
   </g>
   <g id="patch_5">
    <path d="M 70.2 206.388 
L 505.44 206.388 
" style="fill: none; stroke: #000000; stroke-width: 0.8; stroke-linejoin: miter; stroke-linecap: square"/>
   </g>
   <g id="patch_6">
    <path d="M 70.2 67.392 
L 505.44 67.392 
" style="fill: none; stroke: #000000; stroke-width: 0.8; stroke-linejoin: miter; stroke-linecap: square"/>
   </g>
   <g id="text_12">
    <!-- (MFEF vs MLIP) — O-flow — Panel A: overlay + null bands -->
    <g transform="translate(115.625625 61.392) scale(0.12 -0.12)">
     <defs>
      <path id="DejaVuSans-4d" d="M 628 4666 
L 1569 4666 
L 2759 1491 
L 3956 4666 
L 4897 4666 
L 4897 0 
L 4281 0 
L 4281 4097 
L 3078 897 
L 2444 897 
L 1241 4097 
L 1241 0 
L 628 0 
L 628 4666 
z
" transform="scale(0.015625)"/>
      <path id="DejaVuSans-46" d="M 628 4666 
L 3309 4666 
L 3309 4134 
L 1259 4134 
L 1259 2759 
L 3109 2759 
L 3109 2228 
L 1259 2228 
L 1259 0 
L 628 0 
L 628 4666 
z
" transform="scale(0.015625)"/>
      <path id="DejaVuSans-45" d="M 628 4666 
L 3578 4666 
L 3578 4134 
L 1259 4134 
L 1259 2753 
L 3481 2753 
L 3481 2222 
L 1259 2222 
L 1259 531 
L 3634 531 
L 3634 0 
L 628 0 
L 628 4666 
z
" transform="scale(0.015625)"/>
      <path id="DejaVuSans-76" d="M 191 3500 
L 800 3500 
L 1894 563 
L 2988 3500 
L 3597 3500 
L 2284 0 
L 1503 0 
L 191 3500 
z
" transform="scale(0.015625)"/>
      <path id="DejaVuSans-49" d="M 628 4666 
L 1259 4666 
L 1259 0 
L 628 0 
L 628 4666 
z
" transform="scale(0.015625)"/>
      <path id="DejaVuSans-50" d="M 1259 4147 
L 1259 2394 
L 2053 2394 
Q 2494 2394 2734 2622 
Q 2975 2850 2975 3272 
Q 2975 3691 2734 3919 
Q 2494 4147 2053 4147 
L 1259 4147 
z
M 628 4666 
L 2053 4666 
Q 2838 4666 3239 4311 
Q 3641 3956 3641 3272 
Q 3641 2581 3239 2228 
Q 2838 1875 2053 1875 
L 1259 1875 
L 1259 0 
L 628 0 
L 628 4666 
z
" transform="scale(0.015625)"/>
      <path id="DejaVuSans-2014" d="M 313 1978 
L 6088 1978 
L 6088 1528 
L 313 1528 
L 313 1978 
z
" transform="scale(0.015625)"/>
      <path id="DejaVuSans-4f" d="M 2522 4238 
Q 1834 4238 1429 3725 
Q 1025 3213 1025 2328 
Q 1025 1447 1429 934 
Q 1834 422 2522 422 
Q 3209 422 3611 934 
Q 4013 1447 4013 2328 
Q 4013 3213 3611 3725 
Q 3209 4238 2522 4238 
z
M 2522 4750 
Q 3503 4750 4090 4092 
Q 4678 3434 4678 2328 
Q 4678 1225 4090 567 
Q 3503 -91 2522 -91 
Q 1538 -91 948 565 
Q 359 1222 359 2328 
Q 359 3434 948 4092 
Q 1538 4750 2522 4750 
z
" transform="scale(0.015625)"/>
      <path id="DejaVuSans-2d" d="M 313 2009 
L 1997 2009 
L 1997 1497 
L 313 1497 
L 313 2009 
z
" transform="scale(0.015625)"/>
      <path id="DejaVuSans-66" d="M 2375 4863 
L 2375 4384 
L 1825 4384 
Q 1516 4384 1395 4259 
Q 1275 4134 1275 3809 
L 1275 3500 
L 2222 3500 
L 2222 3053 
L 1275 3053 
L 1275 0 
L 697 0 
L 697 3053 
L 147 3053 
L 147 3500 
L 697 3500 
L 697 3744 
Q 697 4328 969 4595 
Q 1241 4863 1831 4863 
L 2375 4863 
z
" transform="scale(0.015625)"/>
      <path id="DejaVuSans-6c" d="M 603 4863 
L 1178 4863 
L 1178 0 
L 603 0 
L 603 4863 
z
" transform="scale(0.015625)"/>
      <path id="DejaVuSans-6f" d="M 1959 3097 
Q 1497 3097 1228 2736 
Q 959 2375 959 1747 
Q 959 1119 1226 758 
Q 1494 397 1959 397 
Q 2419 397 2687 759 
Q 2956 1122 2956 1747 
Q 2956 2369 2687 2733 
Q 2419 3097 1959 3097 
z
M 1959 3584 
Q 2709 3584 3137 3096 
Q 3566 2609 3566 1747 
Q 3566 888 3137 398 
Q 2709 -91 1959 -91 
Q 1206 -91 779 398 
Q 353 888 353 1747 
Q 353 2609 779 3096 
Q 1206 3584 1959 3584 
z
" transform="scale(0.015625)"/>
      <path id="DejaVuSans-77" d="M 269 3500 
L 844 3500 
L 1563 769 
L 2278 3500 
L 2956 3500 
L 3675 769 
L 4391 3500 
L 4966 3500 
L 4050 0 
L 3372 0 
L 2619 2869 
L 1863 0 
L 1184 0 
L 269 3500 
z
" transform="scale(0.015625)"/>
      <path id="DejaVuSans-61" d="M 2194 1759 
Q 1497 1759 1228 1600 
Q 959 1441 959 1056 
Q 959 750 1161 570 
Q 1363 391 1709 391 
Q 2188 391 2477 730 
Q 2766 1069 2766 1631 
L 2766 1759 
L 2194 1759 
z
M 3341 1997 
L 3341 0 
L 2766 0 
L 2766 531 
Q 2569 213 2275 61 
Q 1981 -91 1556 -91 
Q 1019 -91 701 211 
Q 384 513 384 1019 
Q 384 1609 779 1909 
Q 1175 2209 1959 2209 
L 2766 2209 
L 2766 2266 
Q 2766 2663 2505 2880 
Q 2244 3097 1772 3097 
Q 1472 3097 1187 3025 
Q 903 2953 641 2809 
L 641 3341 
Q 956 3463 1253 3523 
Q 1550 3584 1831 3584 
Q 2591 3584 2966 3190 
Q 3341 2797 3341 1997 
z
" transform="scale(0.015625)"/>
      <path id="DejaVuSans-6e" d="M 3513 2113 
L 3513 0 
L 2938 0 
L 2938 2094 
Q 2938 2591 2744 2837 
Q 2550 3084 2163 3084 
Q 1697 3084 1428 2787 
Q 1159 2491 1159 1978 
L 1159 0 
L 581 0 
L 581 3500 
L 1159 3500 
L 1159 2956 
Q 1366 3272 1645 3428 
Q 1925 3584 2291 3584 
Q 2894 3584 3203 3211 
Q 3513 2838 3513 2113 
z
" transform="scale(0.015625)"/>
      <path id="DejaVuSans-65" d="M 3597 1894 
L 3597 1613 
L 953 1613 
Q 991 1019 1311 708 
Q 1631 397 2203 397 
Q 2534 397 2845 478 
Q 3156 559 3463 722 
L 3463 178 
Q 3153 47 2828 -22 
Q 2503 -91 2169 -91 
Q 1331 -91 842 396 
Q 353 884 353 1716 
Q 353 2575 817 3079 
Q 1281 3584 2069 3584 
Q 2775 3584 3186 3129 
Q 3597 2675 3597 1894 
z
M 3022 2063 
Q 3016 2534 2758 2815 
Q 2500 3097 2075 3097 
Q 1594 3097 1305 2825 
Q 1016 2553 972 2059 
L 3022 2063 
z
" transform="scale(0.015625)"/>
      <path id="DejaVuSans-41" d="M 2188 4044 
L 1331 1722 
L 3047 1722 
L 2188 4044 
z
M 1831 4666 
L 2547 4666 
L 4325 0 
L 3669 0 
L 3244 1197 
L 1141 1197 
L 716 0 
L 50 0 
L 1831 4666 
z
" transform="scale(0.015625)"/>
      <path id="DejaVuSans-3a" d="M 750 794 
L 1409 794 
L 1409 0 
L 750 0 
L 750 794 
z
M 750 3309 
L 1409 3309 
L 1409 2516 
L 750 2516 
L 750 3309 
z
" transform="scale(0.015625)"/>
      <path id="DejaVuSans-72" d="M 2631 2963 
Q 2534 3019 2420 3045 
Q 2306 3072 2169 3072 
Q 1681 3072 1420 2755 
Q 1159 2438 1159 1844 
L 1159 0 
L 581 0 
L 581 3500 
L 1159 3500 
L 1159 2956 
Q 1341 3275 1631 3429 
Q 1922 3584 2338 3584 
Q 2397 3584 2469 3576 
Q 2541 3569 2628 3553 
L 2631 2963 
z
" transform="scale(0.015625)"/>
      <path id="DejaVuSans-79" d="M 2059 -325 
Q 1816 -950 1584 -1140 
Q 1353 -1331 966 -1331 
L 506 -1331 
L 506 -850 
L 844 -850 
Q 1081 -850 1212 -737 
Q 1344 -625 1503 -206 
L 1606 56 
L 191 3500 
L 800 3500 
L 1894 763 
L 2988 3500 
L 3597 3500 
L 2059 -325 
z
" transform="scale(0.015625)"/>
      <path id="DejaVuSans-2b" d="M 2944 4013 
L 2944 2272 
L 4684 2272 
L 4684 1741 
L 2944 1741 
L 2944 0 
L 2419 0 
L 2419 1741 
L 678 1741 
L 678 2272 
L 2419 2272 
L 2419 4013 
L 2944 4013 
z
" transform="scale(0.015625)"/>
      <path id="DejaVuSans-75" d="M 544 1381 
L 544 3500 
L 1119 3500 
L 1119 1403 
Q 1119 906 1312 657 
Q 1506 409 1894 409 
Q 2359 409 2629 706 
Q 2900 1003 2900 1516 
L 2900 3500 
L 3475 3500 
L 3475 0 
L 2900 0 
L 2900 538 
Q 2691 219 2414 64 
Q 2138 -91 1772 -91 
Q 1169 -91 856 284 
Q 544 659 544 1381 
z
M 1991 3584 
L 1991 3584 
z
" transform="scale(0.015625)"/>
      <path id="DejaVuSans-64" d="M 2906 2969 
L 2906 4863 
L 3481 4863 
L 3481 0 
L 2906 0 
L 2906 525 
Q 2725 213 2448 61 
Q 2172 -91 1784 -91 
Q 1150 -91 751 415 
Q 353 922 353 1747 
Q 353 2572 751 3078 
Q 1150 3584 1784 3584 
Q 2172 3584 2448 3432 
Q 2725 3281 2906 2969 
z
M 947 1747 
Q 947 1113 1208 752 
Q 1469 391 1925 391 
Q 2381 391 2643 752 
Q 2906 1113 2906 1747 
Q 2906 2381 2643 2742 
Q 2381 3103 1925 3103 
Q 1469 3103 1208 2742 
Q 947 2381 947 1747 
z
" transform="scale(0.015625)"/>
     </defs>
     <use xlink:href="#DejaVuSans-28"/>
     <use xlink:href="#DejaVuSans-4d" transform="translate(39.013672 0)"/>
     <use xlink:href="#DejaVuSans-46" transform="translate(125.292969 0)"/>
     <use xlink:href="#DejaVuSans-45" transform="translate(182.8125 0)"/>
     <use xlink:href="#DejaVuSans-46" transform="translate(245.996094 0)"/>
     <use xlink:href="#DejaVuSans-20" transform="translate(303.515625 0)"/>
     <use xlink:href="#DejaVuSans-76" transform="translate(335.302734 0)"/>
     <use xlink:href="#DejaVuSans-73" transform="translate(394.482422 0)"/>
     <use xlink:href="#DejaVuSans-20" transform="translate(446.582031 0)"/>
     <use xlink:href="#DejaVuSans-4d" transform="translate(478.369141 0)"/>
     <use xlink:href="#DejaVuSans-4c" transform="translate(564.648438 0)"/>
     <use xlink:href="#DejaVuSans-49" transform="translate(620.361328 0)"/>
     <use xlink:href="#DejaVuSans-50" transform="translate(649.853516 0)"/>
     <use xlink:href="#DejaVuSans-29" transform="translate(710.15625 0)"/>
     <use xlink:href="#DejaVuSans-20" transform="translate(749.169922 0)"/>
     <use xlink:href="#DejaVuSans-2014" transform="translate(780.957031 0)"/>
     <use xlink:href="#DejaVuSans-20" transform="translate(880.957031 0)"/>
     <use xlink:href="#DejaVuSans-4f" transform="translate(912.744141 0)"/>
     <use xlink:href="#DejaVuSans-2d" transform="translate(994.205078 0)"/>
     <use xlink:href="#DejaVuSans-66" transform="translate(1030.289062 0)"/>
     <use xlink:href="#DejaVuSans-6c" transform="translate(1065.494141 0)"/>
     <use xlink:href="#DejaVuSans-6f" transform="translate(1093.277344 0)"/>
     <use xlink:href="#DejaVuSans-77" transform="translate(1154.458984 0)"/>
     <use xlink:href="#DejaVuSans-20" transform="translate(1236.246094 0)"/>
     <use xlink:href="#DejaVuSans-2014" transform="translate(1268.033203 0)"/>
     <use xlink:href="#DejaVuSans-20" transform="translate(1368.033203 0)"/>
     <use xlink:href="#DejaVuSans-50" transform="translate(1399.820312 0)"/>
     <use xlink:href="#DejaVuSans-61" transform="translate(1455.623047 0)"/>
     <use xlink:href="#DejaVuSans-6e" transform="translate(1516.902344 0)"/>
     <use xlink:href="#DejaVuSans-65" transform="translate(1580.28125 0)"/>
     <use xlink:href="#DejaVuSans-6c" transform="translate(1641.804688 0)"/>
     <use xlink:href="#DejaVuSans-20" transform="translate(1669.587891 0)"/>
     <use xlink:href="#DejaVuSans-41" transform="translate(1701.375 0)"/>
     <use xlink:href="#DejaVuSans-3a" transform="translate(1768.033203 0)"/>
     <use xlink:href="#DejaVuSans-20" transform="translate(1801.724609 0)"/>
     <use xlink:href="#DejaVuSans-6f" transform="translate(1833.511719 0)"/>
     <use xlink:href="#DejaVuSans-76" transform="translate(1894.693359 0)"/>
     <use xlink:href="#DejaVuSans-65" transform="translate(1953.873047 0)"/>
     <use xlink:href="#DejaVuSans-72" transform="translate(2015.396484 0)"/>
     <use xlink:href="#DejaVuSans-6c" transform="translate(2056.509766 0)"/>
     <use xlink:href="#DejaVuSans-61" transform="translate(2084.292969 0)"/>
     <use xlink:href="#DejaVuSans-79" transform="translate(2145.572266 0)"/>
     <use xlink:href="#DejaVuSans-20" transform="translate(2204.751953 0)"/>
     <use xlink:href="#DejaVuSans-2b" transform="translate(2236.539062 0)"/>
     <use xlink:href="#DejaVuSans-20" transform="translate(2320.328125 0)"/>
     <use xlink:href="#DejaVuSans-6e" transform="translate(2352.115234 0)"/>
     <use xlink:href="#DejaVuSans-75" transform="translate(2415.494141 0)"/>
     <use xlink:href="#DejaVuSans-6c" transform="translate(2478.873047 0)"/>
     <use xlink:href="#DejaVuSans-6c" transform="translate(2506.65625 0)"/>
     <use xlink:href="#DejaVuSans-20" transform="translate(2534.439453 0)"/>
     <use xlink:href="#DejaVuSans-62" transform="translate(2566.226562 0)"/>
     <use xlink:href="#DejaVuSans-61" transform="translate(2629.703125 0)"/>
     <use xlink:href="#DejaVuSans-6e" transform="translate(2690.982422 0)"/>
     <use xlink:href="#DejaVuSans-64" transform="translate(2754.361328 0)"/>
     <use xlink:href="#DejaVuSans-73" transform="translate(2817.837891 0)"/>
    </g>
   </g>
   <g id="legend_1">
    <g id="patch_7">
     <path d="M 79.2 83.990437 
L 99.2 83.990437 
L 99.2 76.990437 
L 79.2 76.990437 
z
" style="fill: #1f77b4; fill-opacity: 0.15"/>
    </g>
    <g id="text_13">
     <!-- MFEF→MLIP null μ±σ -->
     <g transform="translate(107.2 83.990437) scale(0.1 -0.1)">
      <defs>
       <path id="DejaVuSans-2192" d="M 5050 2147 
L 5050 1866 
L 3822 638 
L 3447 1013 
L 4175 1741 
L 366 1741 
L 366 2272 
L 4175 2272 
L 3447 3000 
L 3822 3375 
L 5050 2147 
z
" transform="scale(0.015625)"/>
       <path id="DejaVuSans-3bc" d="M 544 -1331 
L 544 3500 
L 1119 3500 
L 1119 1325 
Q 1119 872 1334 640 
Q 1550 409 1972 409 
Q 2434 409 2667 671 
Q 2900 934 2900 1459 
L 2900 3500 
L 3475 3500 
L 3475 806 
Q 3475 619 3529 530 
Q 3584 441 3700 441 
Q 3728 441 3778 458 
Q 3828 475 3916 513 
L 3916 50 
Q 3788 -22 3673 -56 
Q 3559 -91 3450 -91 
Q 3234 -91 3106 31 
Q 2978 153 2931 403 
Q 2775 156 2548 32 
Q 2322 -91 2016 -91 
Q 1697 -91 1473 31 
Q 1250 153 1119 397 
L 1119 -1331 
L 544 -1331 
z
" transform="scale(0.015625)"/>
       <path id="DejaVuSans-b1" d="M 2944 4013 
L 2944 2803 
L 4684 2803 
L 4684 2272 
L 2944 2272 
L 2944 1063 
L 2419 1063 
L 2419 2272 
L 678 2272 
L 678 2803 
L 2419 2803 
L 2419 4013 
L 2944 4013 
z
M 678 531 
L 4684 531 
L 4684 0 
L 678 0 
L 678 531 
z
" transform="scale(0.015625)"/>
       <path id="DejaVuSans-3c3" d="M 1959 3044 
Q 1484 3044 1228 2700 
Q 959 2341 959 1747 
Q 959 1119 1226 758 
Q 1494 397 1959 397 
Q 2419 397 2687 759 
Q 2956 1122 2956 1747 
Q 2956 2319 2688 2700 
Q 2441 3044 1959 3044 
z
M 1959 3500 
L 3869 3500 
L 3869 2925 
L 3225 2925 
Q 3566 2438 3566 1747 
Q 3566 888 3138 400 
Q 2709 -91 1959 -91 
Q 1206 -91 781 400 
Q 353 888 353 1747 
Q 353 2613 781 3097 
Q 1134 3500 1959 3500 
z
" transform="scale(0.015625)"/>
      </defs>
      <use xlink:href="#DejaVuSans-4d"/>
      <use xlink:href="#DejaVuSans-46" transform="translate(86.279297 0)"/>
      <use xlink:href="#DejaVuSans-45" transform="translate(143.798828 0)"/>
      <use xlink:href="#DejaVuSans-46" transform="translate(206.982422 0)"/>
      <use xlink:href="#DejaVuSans-2192" transform="translate(264.501953 0)"/>
      <use xlink:href="#DejaVuSans-4d" transform="translate(348.291016 0)"/>
      <use xlink:href="#DejaVuSans-4c" transform="translate(434.570312 0)"/>
      <use xlink:href="#DejaVuSans-49" transform="translate(490.283203 0)"/>
      <use xlink:href="#DejaVuSans-50" transform="translate(519.775391 0)"/>
      <use xlink:href="#DejaVuSans-20" transform="translate(580.078125 0)"/>
      <use xlink:href="#DejaVuSans-6e" transform="translate(611.865234 0)"/>
      <use xlink:href="#DejaVuSans-75" transform="translate(675.244141 0)"/>
      <use xlink:href="#DejaVuSans-6c" transform="translate(738.623047 0)"/>
      <use xlink:href="#DejaVuSans-6c" transform="translate(766.40625 0)"/>
      <use xlink:href="#DejaVuSans-20" transform="translate(794.189453 0)"/>
      <use xlink:href="#DejaVuSans-3bc" transform="translate(825.976562 0)"/>
      <use xlink:href="#DejaVuSans-b1" transform="translate(889.599609 0)"/>
      <use xlink:href="#DejaVuSans-3c3" transform="translate(973.388672 0)"/>
     </g>
    </g>
    <g id="patch_8">
     <path d="M 79.2 98.668563 
L 99.2 98.668563 
L 99.2 91.668563 
L 79.2 91.668563 
z
" style="fill: #ff7f0e; fill-opacity: 0.15"/>
    </g>
    <g id="text_14">
     <!-- MLIP→MFEF null μ±σ -->
     <g transform="translate(107.2 98.668563) scale(0.1 -0.1)">
      <use xlink:href="#DejaVuSans-4d"/>
      <use xlink:href="#DejaVuSans-4c" transform="translate(86.279297 0)"/>
      <use xlink:href="#DejaVuSans-49" transform="translate(141.992188 0)"/>
      <use xlink:href="#DejaVuSans-50" transform="translate(171.484375 0)"/>
      <use xlink:href="#DejaVuSans-2192" transform="translate(231.787109 0)"/>
      <use xlink:href="#DejaVuSans-4d" transform="translate(315.576172 0)"/>
      <use xlink:href="#DejaVuSans-46" transform="translate(401.855469 0)"/>
      <use xlink:href="#DejaVuSans-45" transform="translate(459.375 0)"/>
      <use xlink:href="#DejaVuSans-46" transform="translate(522.558594 0)"/>
      <use xlink:href="#DejaVuSans-20" transform="translate(580.078125 0)"/>
      <use xlink:href="#DejaVuSans-6e" transform="translate(611.865234 0)"/>
      <use xlink:href="#DejaVuSans-75" transform="translate(675.244141 0)"/>
      <use xlink:href="#DejaVuSans-6c" transform="translate(738.623047 0)"/>
      <use xlink:href="#DejaVuSans-6c" transform="translate(766.40625 0)"/>
      <use xlink:href="#DejaVuSans-20" transform="translate(794.189453 0)"/>
      <use xlink:href="#DejaVuSans-3bc" transform="translate(825.976562 0)"/>
      <use xlink:href="#DejaVuSans-b1" transform="translate(889.599609 0)"/>
      <use xlink:href="#DejaVuSans-3c3" transform="translate(973.388672 0)"/>
     </g>
    </g>
    <g id="line2d_16">
     <path d="M 230.876562 80.490437 
L 240.876562 80.490437 
L 250.876562 80.490437 
" style="fill: none; stroke: #1f77b4; stroke-width: 2.2; stroke-linecap: square"/>
    </g>
    <g id="text_15">
     <!-- MFEF→MLIP -->
     <g transform="translate(258.876562 83.990437) scale(0.1 -0.1)">
      <use xlink:href="#DejaVuSans-4d"/>
      <use xlink:href="#DejaVuSans-46" transform="translate(86.279297 0)"/>
      <use xlink:href="#DejaVuSans-45" transform="translate(143.798828 0)"/>
      <use xlink:href="#DejaVuSans-46" transform="translate(206.982422 0)"/>
      <use xlink:href="#DejaVuSans-2192" transform="translate(264.501953 0)"/>
      <use xlink:href="#DejaVuSans-4d" transform="translate(348.291016 0)"/>
      <use xlink:href="#DejaVuSans-4c" transform="translate(434.570312 0)"/>
      <use xlink:href="#DejaVuSans-49" transform="translate(490.283203 0)"/>
      <use xlink:href="#DejaVuSans-50" transform="translate(519.775391 0)"/>
     </g>
    </g>
    <g id="line2d_17">
     <path d="M 230.876562 95.168563 
L 240.876562 95.168563 
L 250.876562 95.168563 
" style="fill: none; stroke: #ff7f0e; stroke-width: 2.2; stroke-linecap: square"/>
    </g>
    <g id="text_16">
     <!-- MLIP→MFEF -->
     <g transform="translate(258.876562 98.668563) scale(0.1 -0.1)">
      <use xlink:href="#DejaVuSans-4d"/>
      <use xlink:href="#DejaVuSans-4c" transform="translate(86.279297 0)"/>
      <use xlink:href="#DejaVuSans-49" transform="translate(141.992188 0)"/>
      <use xlink:href="#DejaVuSans-50" transform="translate(171.484375 0)"/>
      <use xlink:href="#DejaVuSans-2192" transform="translate(231.787109 0)"/>
      <use xlink:href="#DejaVuSans-4d" transform="translate(315.576172 0)"/>
      <use xlink:href="#DejaVuSans-46" transform="translate(401.855469 0)"/>
      <use xlink:href="#DejaVuSans-45" transform="translate(459.375 0)"/>
      <use xlink:href="#DejaVuSans-46" transform="translate(522.558594 0)"/>
     </g>
    </g>
   </g>
  </g>
  <g id="axes_2">
   <g id="patch_9">
    <path d="M 70.2 353.106 
L 505.44 353.106 
L 505.44 237.276 
L 70.2 237.276 
z
" style="fill: #ffffff"/>
   </g>
   <g id="matplotlib.axis_3">
    <g id="xtick_7">
     <g id="line2d_18">
      <g>
       <use xlink:href="#m59ced0a9dd" x="87.985286" y="353.106" style="stroke: #000000; stroke-width: 0.8"/>
      </g>
     </g>
     <g id="text_17">
      <!-- −200 -->
      <g transform="translate(74.251693 367.704438) scale(0.1 -0.1)">
       <use xlink:href="#DejaVuSans-2212"/>
       <use xlink:href="#DejaVuSans-32" transform="translate(83.789062 0)"/>
       <use xlink:href="#DejaVuSans-30" transform="translate(147.412109 0)"/>
       <use xlink:href="#DejaVuSans-30" transform="translate(211.035156 0)"/>
      </g>
     </g>
    </g>
    <g id="xtick_8">
     <g id="line2d_19">
      <g>
       <use xlink:href="#m59ced0a9dd" x="167.91917" y="353.106" style="stroke: #000000; stroke-width: 0.8"/>
      </g>
     </g>
     <g id="text_18">
      <!-- 0 -->
      <g transform="translate(164.73792 367.704438) scale(0.1 -0.1)">
       <use xlink:href="#DejaVuSans-30"/>
      </g>
     </g>
    </g>
    <g id="xtick_9">
     <g id="line2d_20">
      <g>
       <use xlink:href="#m59ced0a9dd" x="247.853053" y="353.106" style="stroke: #000000; stroke-width: 0.8"/>
      </g>
     </g>
     <g id="text_19">
      <!-- 200 -->
      <g transform="translate(238.309303 367.704438) scale(0.1 -0.1)">
       <use xlink:href="#DejaVuSans-32"/>
       <use xlink:href="#DejaVuSans-30" transform="translate(63.623047 0)"/>
       <use xlink:href="#DejaVuSans-30" transform="translate(127.246094 0)"/>
      </g>
     </g>
    </g>
    <g id="xtick_10">
     <g id="line2d_21">
      <g>
       <use xlink:href="#m59ced0a9dd" x="327.786937" y="353.106" style="stroke: #000000; stroke-width: 0.8"/>
      </g>
     </g>
     <g id="text_20">
      <!-- 400 -->
      <g transform="translate(318.243187 367.704438) scale(0.1 -0.1)">
       <use xlink:href="#DejaVuSans-34"/>
       <use xlink:href="#DejaVuSans-30" transform="translate(63.623047 0)"/>
       <use xlink:href="#DejaVuSans-30" transform="translate(127.246094 0)"/>
      </g>
     </g>
    </g>
    <g id="xtick_11">
     <g id="line2d_22">
      <g>
       <use xlink:href="#m59ced0a9dd" x="407.720821" y="353.106" style="stroke: #000000; stroke-width: 0.8"/>
      </g>
     </g>
     <g id="text_21">
      <!-- 600 -->
      <g transform="translate(398.177071 367.704438) scale(0.1 -0.1)">
       <use xlink:href="#DejaVuSans-36"/>
       <use xlink:href="#DejaVuSans-30" transform="translate(63.623047 0)"/>
       <use xlink:href="#DejaVuSans-30" transform="translate(127.246094 0)"/>
      </g>
     </g>
    </g>
    <g id="xtick_12">
     <g id="line2d_23">
      <g>
       <use xlink:href="#m59ced0a9dd" x="487.654704" y="353.106" style="stroke: #000000; stroke-width: 0.8"/>
      </g>
     </g>
     <g id="text_22">
      <!-- 800 -->
      <g transform="translate(478.110954 367.704438) scale(0.1 -0.1)">
       <use xlink:href="#DejaVuSans-38"/>
       <use xlink:href="#DejaVuSans-30" transform="translate(63.623047 0)"/>
       <use xlink:href="#DejaVuSans-30" transform="translate(127.246094 0)"/>
      </g>
     </g>
    </g>
   </g>
   <g id="matplotlib.axis_4">
    <g id="ytick_5">
     <g id="line2d_24">
      <g>
       <use xlink:href="#m73b264f222" x="70.2" y="337.449125" style="stroke: #000000; stroke-width: 0.8"/>
      </g>
     </g>
     <g id="text_23">
      <!-- −20 -->
      <g transform="translate(42.095313 341.248344) scale(0.1 -0.1)">
       <use xlink:href="#DejaVuSans-2212"/>
       <use xlink:href="#DejaVuSans-32" transform="translate(83.789062 0)"/>
       <use xlink:href="#DejaVuSans-30" transform="translate(147.412109 0)"/>
      </g>
     </g>
    </g>
    <g id="ytick_6">
     <g id="line2d_25">
      <g>
       <use xlink:href="#m73b264f222" x="70.2" y="311.058203" style="stroke: #000000; stroke-width: 0.8"/>
      </g>
     </g>
     <g id="text_24">
      <!-- −10 -->
      <g transform="translate(42.095313 314.857422) scale(0.1 -0.1)">
       <use xlink:href="#DejaVuSans-2212"/>
       <use xlink:href="#DejaVuSans-31" transform="translate(83.789062 0)"/>
       <use xlink:href="#DejaVuSans-30" transform="translate(147.412109 0)"/>
      </g>
     </g>
    </g>
    <g id="ytick_7">
     <g id="line2d_26">
      <g>
       <use xlink:href="#m73b264f222" x="70.2" y="284.667281" style="stroke: #000000; stroke-width: 0.8"/>
      </g>
     </g>
     <g id="text_25">
      <!-- 0 -->
      <g transform="translate(56.8375 288.4665) scale(0.1 -0.1)">
       <use xlink:href="#DejaVuSans-30"/>
      </g>
     </g>
    </g>
    <g id="ytick_8">
     <g id="line2d_27">
      <g>
       <use xlink:href="#m73b264f222" x="70.2" y="258.276359" style="stroke: #000000; stroke-width: 0.8"/>
      </g>
     </g>
     <g id="text_26">
      <!-- 10 -->
      <g transform="translate(50.475 262.075578) scale(0.1 -0.1)">
       <use xlink:href="#DejaVuSans-31"/>
       <use xlink:href="#DejaVuSans-30" transform="translate(63.623047 0)"/>
      </g>
     </g>
    </g>
    <g id="text_27">
     <!-- ΔΔLL (bits) -->
     <g transform="translate(36.015625 322.22225) rotate(-90) scale(0.1 -0.1)">
      <use xlink:href="#DejaVuSans-394"/>
      <use xlink:href="#DejaVuSans-394" transform="translate(68.408203 0)"/>
      <use xlink:href="#DejaVuSans-4c" transform="translate(136.816406 0)"/>
      <use xlink:href="#DejaVuSans-4c" transform="translate(192.529297 0)"/>
      <use xlink:href="#DejaVuSans-20" transform="translate(248.242188 0)"/>
      <use xlink:href="#DejaVuSans-28" transform="translate(280.029297 0)"/>
      <use xlink:href="#DejaVuSans-62" transform="translate(319.042969 0)"/>
      <use xlink:href="#DejaVuSans-69" transform="translate(382.519531 0)"/>
      <use xlink:href="#DejaVuSans-74" transform="translate(410.302734 0)"/>
      <use xlink:href="#DejaVuSans-73" transform="translate(449.511719 0)"/>
      <use xlink:href="#DejaVuSans-29" transform="translate(501.611328 0)"/>
     </g>
    </g>
   </g>
   <g id="line2d_28">
    <path d="M 167.91917 353.106 
L 167.91917 237.276 
" clip-path="url(#pec7bef2d72)" style="fill: none; stroke-dasharray: 2.96,1.28; stroke-dashoffset: 0; stroke: #000000; stroke-width: 0.8"/>
   </g>
   <g id="line2d_29">
    <path d="M 70.2 284.667281 
L 505.44 284.667281 
" clip-path="url(#pec7bef2d72)" style="fill: none; stroke-dasharray: 0.8,1.32; stroke-dashoffset: 0; stroke: #000000; stroke-width: 0.8"/>
   </g>
   <g id="line2d_30">
    <path d="M 89.983636 291.584115 
L 93.980327 285.537717 
L 97.977023 290.172721 
L 101.973713 317.693885 
L 105.97041 275.672454 
L 109.967106 322.353396 
L 113.963796 293.709837 
L 117.960493 278.504181 
L 121.957186 302.044753 
L 125.953882 289.810569 
L 129.950576 313.076523 
L 133.947269 285.819572 
L 137.943962 287.094469 
L 141.940659 305.668703 
L 145.937352 287.856733 
L 149.934045 254.731143 
L 153.93074 318.134577 
L 157.927434 310.903485 
L 161.924129 309.360169 
L 165.920823 257.476715 
L 169.917517 297.92332 
L 173.914211 298.689625 
L 177.910906 278.61973 
L 181.9076 301.048065 
L 185.904294 259.029324 
L 189.900988 293.737135 
L 193.897681 261.681768 
L 197.894377 267.015282 
L 201.891071 298.801141 
L 205.887764 347.841 
L 209.884457 284.099434 
L 213.881154 303.83302 
L 217.877847 297.992055 
L 221.874543 336.22018 
L 225.871234 301.96527 
L 229.86793 309.514561 
L 233.864626 268.877773 
L 237.861317 285.316329 
L 241.858013 306.467465 
L 245.854704 309.431555 
L 249.8514 316.510594 
L 253.848096 321.117473 
L 257.844787 242.541 
L 261.841483 301.992144 
L 265.838179 287.314501 
L 269.83487 277.538528 
L 273.83156 265.225471 
L 277.828262 284.315634 
L 281.824953 297.358364 
L 285.821643 288.409089 
L 289.818345 276.606004 
L 293.815036 297.808468 
L 297.811726 293.526274 
L 301.808428 275.16082 
L 305.805119 276.215593 
L 309.801809 288.287726 
L 313.798511 300.127699 
L 317.795202 295.452004 
L 321.791892 285.80998 
L 325.788594 290.288325 
L 329.785285 295.214537 
L 333.781975 304.08202 
L 337.778677 266.98321 
L 341.775368 278.965254 
L 345.772058 289.937279 
L 349.76876 309.266277 
L 353.765451 313.724107 
L 357.762141 276.419041 
L 361.758843 298.314103 
L 365.755534 289.172716 
L 369.752224 305.387228 
L 373.748914 278.940872 
L 377.745605 288.974322 
L 381.742319 277.628158 
L 385.739009 290.672866 
L 389.7357 298.371029 
L 393.73239 291.136283 
L 397.72908 281.232586 
L 401.725771 292.158825 
L 405.722485 285.958125 
L 409.719175 285.725374 
L 413.715866 281.498223 
L 417.712556 286.424149 
L 421.709246 266.441046 
L 425.705937 290.574346 
L 429.702627 296.209463 
L 433.699341 275.335779 
L 437.696032 281.14481 
L 441.692722 306.521867 
L 445.689412 256.43973 
L 449.686103 285.65983 
L 453.682793 302.992247 
L 457.679507 299.938337 
L 461.676198 281.899492 
L 465.672888 281.709866 
L 469.669578 280.29786 
L 473.666269 262.160262 
L 477.662959 287.24248 
L 481.659673 268.905853 
L 485.656364 283.290545 
" clip-path="url(#pec7bef2d72)" style="fill: none; stroke: #d62728; stroke-width: 2.2; stroke-linecap: square"/>
   </g>
   <g id="line2d_31">
    <defs>
     <path id="m6155d93d8c" d="M 0 1.25 
C 0.331504 1.25 0.649475 1.118292 0.883883 0.883883 
C 1.118292 0.649475 1.25 0.331504 1.25 0 
C 1.25 -0.331504 1.118292 -0.649475 0.883883 -0.883883 
C 0.649475 -1.118292 0.331504 -1.25 0 -1.25 
C -0.331504 -1.25 -0.649475 -1.118292 -0.883883 -0.883883 
C -1.118292 -0.649475 -1.25 -0.331504 -1.25 0 
C -1.25 0.331504 -1.118292 0.649475 -0.883883 0.883883 
C -0.649475 1.118292 -0.331504 1.25 0 1.25 
z
" style="stroke: #000000"/>
    </defs>
    <g clip-path="url(#pec7bef2d72)">
     <use xlink:href="#m6155d93d8c" x="101.973713" y="317.693885" style="stroke: #000000"/>
     <use xlink:href="#m6155d93d8c" x="105.97041" y="275.672454" style="stroke: #000000"/>
     <use xlink:href="#m6155d93d8c" x="109.967106" y="322.353396" style="stroke: #000000"/>
     <use xlink:href="#m6155d93d8c" x="117.960493" y="278.504181" style="stroke: #000000"/>
     <use xlink:href="#m6155d93d8c" x="149.934045" y="254.731143" style="stroke: #000000"/>
     <use xlink:href="#m6155d93d8c" x="153.93074" y="318.134577" style="stroke: #000000"/>
     <use xlink:href="#m6155d93d8c" x="161.924129" y="309.360169" style="stroke: #000000"/>
     <use xlink:href="#m6155d93d8c" x="165.920823" y="257.476715" style="stroke: #000000"/>
     <use xlink:href="#m6155d93d8c" x="173.914211" y="298.689625" style="stroke: #000000"/>
     <use xlink:href="#m6155d93d8c" x="181.9076" y="301.048065" style="stroke: #000000"/>
     <use xlink:href="#m6155d93d8c" x="193.897681" y="261.681768" style="stroke: #000000"/>
     <use xlink:href="#m6155d93d8c" x="217.877847" y="297.992055" style="stroke: #000000"/>
     <use xlink:href="#m6155d93d8c" x="229.86793" y="309.514561" style="stroke: #000000"/>
     <use xlink:href="#m6155d93d8c" x="233.864626" y="268.877773" style="stroke: #000000"/>
     <use xlink:href="#m6155d93d8c" x="249.8514" y="316.510594" style="stroke: #000000"/>
     <use xlink:href="#m6155d93d8c" x="253.848096" y="321.117473" style="stroke: #000000"/>
     <use xlink:href="#m6155d93d8c" x="257.844787" y="242.541" style="stroke: #000000"/>
     <use xlink:href="#m6155d93d8c" x="261.841483" y="301.992144" style="stroke: #000000"/>
     <use xlink:href="#m6155d93d8c" x="269.83487" y="277.538528" style="stroke: #000000"/>
     <use xlink:href="#m6155d93d8c" x="273.83156" y="265.225471" style="stroke: #000000"/>
     <use xlink:href="#m6155d93d8c" x="277.828262" y="284.315634" style="stroke: #000000"/>
     <use xlink:href="#m6155d93d8c" x="281.824953" y="297.358364" style="stroke: #000000"/>
     <use xlink:href="#m6155d93d8c" x="289.818345" y="276.606004" style="stroke: #000000"/>
     <use xlink:href="#m6155d93d8c" x="297.811726" y="293.526274" style="stroke: #000000"/>
     <use xlink:href="#m6155d93d8c" x="301.808428" y="275.16082" style="stroke: #000000"/>
     <use xlink:href="#m6155d93d8c" x="317.795202" y="295.452004" style="stroke: #000000"/>
     <use xlink:href="#m6155d93d8c" x="333.781975" y="304.08202" style="stroke: #000000"/>
     <use xlink:href="#m6155d93d8c" x="337.778677" y="266.98321" style="stroke: #000000"/>
     <use xlink:href="#m6155d93d8c" x="341.775368" y="278.965254" style="stroke: #000000"/>
     <use xlink:href="#m6155d93d8c" x="349.76876" y="309.266277" style="stroke: #000000"/>
     <use xlink:href="#m6155d93d8c" x="353.765451" y="313.724107" style="stroke: #000000"/>
     <use xlink:href="#m6155d93d8c" x="361.758843" y="298.314103" style="stroke: #000000"/>
     <use xlink:href="#m6155d93d8c" x="369.752224" y="305.387228" style="stroke: #000000"/>
     <use xlink:href="#m6155d93d8c" x="385.739009" y="290.672866" style="stroke: #000000"/>
     <use xlink:href="#m6155d93d8c" x="393.73239" y="291.136283" style="stroke: #000000"/>
     <use xlink:href="#m6155d93d8c" x="397.72908" y="281.232586" style="stroke: #000000"/>
     <use xlink:href="#m6155d93d8c" x="421.709246" y="266.441046" style="stroke: #000000"/>
     <use xlink:href="#m6155d93d8c" x="441.692722" y="306.521867" style="stroke: #000000"/>
     <use xlink:href="#m6155d93d8c" x="445.689412" y="256.43973" style="stroke: #000000"/>
     <use xlink:href="#m6155d93d8c" x="453.682793" y="302.992247" style="stroke: #000000"/>
     <use xlink:href="#m6155d93d8c" x="457.679507" y="299.938337" style="stroke: #000000"/>
     <use xlink:href="#m6155d93d8c" x="473.666269" y="262.160262" style="stroke: #000000"/>
    </g>
   </g>
   <g id="patch_10">
    <path d="M 70.2 353.106 
L 70.2 237.276 
" style="fill: none; stroke: #000000; stroke-width: 0.8; stroke-linejoin: miter; stroke-linecap: square"/>
   </g>
   <g id="patch_11">
    <path d="M 505.44 353.106 
L 505.44 237.276 
" style="fill: none; stroke: #000000; stroke-width: 0.8; stroke-linejoin: miter; stroke-linecap: square"/>
   </g>
   <g id="patch_12">
    <path d="M 70.2 353.106 
L 505.44 353.106 
" style="fill: none; stroke: #000000; stroke-width: 0.8; stroke-linejoin: miter; stroke-linecap: square"/>
   </g>
   <g id="patch_13">
    <path d="M 70.2 237.276 
L 505.44 237.276 
" style="fill: none; stroke: #000000; stroke-width: 0.8; stroke-linejoin: miter; stroke-linecap: square"/>
   </g>
   <g id="text_28">
    <!-- Panel B: pair-diff with significance dots -->
    <g transform="translate(171.554063 231.276) scale(0.12 -0.12)">
     <defs>
      <path id="DejaVuSans-42" d="M 1259 2228 
L 1259 519 
L 2272 519 
Q 2781 519 3026 730 
Q 3272 941 3272 1375 
Q 3272 1813 3026 2020 
Q 2781 2228 2272 2228 
L 1259 2228 
z
M 1259 4147 
L 1259 2741 
L 2194 2741 
Q 2656 2741 2882 2914 
Q 3109 3088 3109 3444 
Q 3109 3797 2882 3972 
Q 2656 4147 2194 4147 
L 1259 4147 
z
M 628 4666 
L 2241 4666 
Q 2963 4666 3353 4366 
Q 3744 4066 3744 3513 
Q 3744 3084 3544 2831 
Q 3344 2578 2956 2516 
Q 3422 2416 3680 2098 
Q 3938 1781 3938 1306 
Q 3938 681 3513 340 
Q 3088 0 2303 0 
L 628 0 
L 628 4666 
z
" transform="scale(0.015625)"/>
      <path id="DejaVuSans-70" d="M 1159 525 
L 1159 -1331 
L 581 -1331 
L 581 3500 
L 1159 3500 
L 1159 2969 
Q 1341 3281 1617 3432 
Q 1894 3584 2278 3584 
Q 2916 3584 3314 3078 
Q 3713 2572 3713 1747 
Q 3713 922 3314 415 
Q 2916 -91 2278 -91 
Q 1894 -91 1617 61 
Q 1341 213 1159 525 
z
M 3116 1747 
Q 3116 2381 2855 2742 
Q 2594 3103 2138 3103 
Q 1681 3103 1420 2742 
Q 1159 2381 1159 1747 
Q 1159 1113 1420 752 
Q 1681 391 2138 391 
Q 2594 391 2855 752 
Q 3116 1113 3116 1747 
z
" transform="scale(0.015625)"/>
      <path id="DejaVuSans-68" d="M 3513 2113 
L 3513 0 
L 2938 0 
L 2938 2094 
Q 2938 2591 2744 2837 
Q 2550 3084 2163 3084 
Q 1697 3084 1428 2787 
Q 1159 2491 1159 1978 
L 1159 0 
L 581 0 
L 581 4863 
L 1159 4863 
L 1159 2956 
Q 1366 3272 1645 3428 
Q 1925 3584 2291 3584 
Q 2894 3584 3203 3211 
Q 3513 2838 3513 2113 
z
" transform="scale(0.015625)"/>
      <path id="DejaVuSans-67" d="M 2906 1791 
Q 2906 2416 2648 2759 
Q 2391 3103 1925 3103 
Q 1463 3103 1205 2759 
Q 947 2416 947 1791 
Q 947 1169 1205 825 
Q 1463 481 1925 481 
Q 2391 481 2648 825 
Q 2906 1169 2906 1791 
z
M 3481 434 
Q 3481 -459 3084 -895 
Q 2688 -1331 1869 -1331 
Q 1566 -1331 1297 -1286 
Q 1028 -1241 775 -1147 
L 775 -588 
Q 1028 -725 1275 -790 
Q 1522 -856 1778 -856 
Q 2344 -856 2625 -561 
Q 2906 -266 2906 331 
L 2906 616 
Q 2728 306 2450 153 
Q 2172 0 1784 0 
Q 1141 0 747 490 
Q 353 981 353 1791 
Q 353 2603 747 3093 
Q 1141 3584 1784 3584 
Q 2172 3584 2450 3431 
Q 2728 3278 2906 2969 
L 2906 3500 
L 3481 3500 
L 3481 434 
z
" transform="scale(0.015625)"/>
      <path id="DejaVuSans-63" d="M 3122 3366 
L 3122 2828 
Q 2878 2963 2633 3030 
Q 2388 3097 2138 3097 
Q 1578 3097 1268 2742 
Q 959 2388 959 1747 
Q 959 1106 1268 751 
Q 1578 397 2138 397 
Q 2388 397 2633 464 
Q 2878 531 3122 666 
L 3122 134 
Q 2881 22 2623 -34 
Q 2366 -91 2075 -91 
Q 1284 -91 818 406 
Q 353 903 353 1747 
Q 353 2603 823 3093 
Q 1294 3584 2113 3584 
Q 2378 3584 2631 3529 
Q 2884 3475 3122 3366 
z
" transform="scale(0.015625)"/>
     </defs>
     <use xlink:href="#DejaVuSans-50"/>
     <use xlink:href="#DejaVuSans-61" transform="translate(55.802734 0)"/>
     <use xlink:href="#DejaVuSans-6e" transform="translate(117.082031 0)"/>
     <use xlink:href="#DejaVuSans-65" transform="translate(180.460938 0)"/>
     <use xlink:href="#DejaVuSans-6c" transform="translate(241.984375 0)"/>
     <use xlink:href="#DejaVuSans-20" transform="translate(269.767578 0)"/>
     <use xlink:href="#DejaVuSans-42" transform="translate(301.554688 0)"/>
     <use xlink:href="#DejaVuSans-3a" transform="translate(370.158203 0)"/>
     <use xlink:href="#DejaVuSans-20" transform="translate(403.849609 0)"/>
     <use xlink:href="#DejaVuSans-70" transform="translate(435.636719 0)"/>
     <use xlink:href="#DejaVuSans-61" transform="translate(499.113281 0)"/>
     <use xlink:href="#DejaVuSans-69" transform="translate(560.392578 0)"/>
     <use xlink:href="#DejaVuSans-72" transform="translate(588.175781 0)"/>
     <use xlink:href="#DejaVuSans-2d" transform="translate(622.914062 0)"/>
     <use xlink:href="#DejaVuSans-64" transform="translate(658.998047 0)"/>
     <use xlink:href="#DejaVuSans-69" transform="translate(722.474609 0)"/>
     <use xlink:href="#DejaVuSans-66" transform="translate(750.257812 0)"/>
     <use xlink:href="#DejaVuSans-66" transform="translate(785.462891 0)"/>
     <use xlink:href="#DejaVuSans-20" transform="translate(820.667969 0)"/>
     <use xlink:href="#DejaVuSans-77" transform="translate(852.455078 0)"/>
     <use xlink:href="#DejaVuSans-69" transform="translate(934.242188 0)"/>
     <use xlink:href="#DejaVuSans-74" transform="translate(962.025391 0)"/>
     <use xlink:href="#DejaVuSans-68" transform="translate(1001.234375 0)"/>
     <use xlink:href="#DejaVuSans-20" transform="translate(1064.613281 0)"/>
     <use xlink:href="#DejaVuSans-73" transform="translate(1096.400391 0)"/>
     <use xlink:href="#DejaVuSans-69" transform="translate(1148.5 0)"/>
     <use xlink:href="#DejaVuSans-67" transform="translate(1176.283203 0)"/>
     <use xlink:href="#DejaVuSans-6e" transform="translate(1239.759766 0)"/>
     <use xlink:href="#DejaVuSans-69" transform="translate(1303.138672 0)"/>
     <use xlink:href="#DejaVuSans-66" transform="translate(1330.921875 0)"/>
     <use xlink:href="#DejaVuSans-69" transform="translate(1366.126953 0)"/>
     <use xlink:href="#DejaVuSans-63" transform="translate(1393.910156 0)"/>
     <use xlink:href="#DejaVuSans-61" transform="translate(1448.890625 0)"/>
     <use xlink:href="#DejaVuSans-6e" transform="translate(1510.169922 0)"/>
     <use xlink:href="#DejaVuSans-63" transform="translate(1573.548828 0)"/>
     <use xlink:href="#DejaVuSans-65" transform="translate(1628.529297 0)"/>
     <use xlink:href="#DejaVuSans-20" transform="translate(1690.052734 0)"/>
     <use xlink:href="#DejaVuSans-64" transform="translate(1721.839844 0)"/>
     <use xlink:href="#DejaVuSans-6f" transform="translate(1785.316406 0)"/>
     <use xlink:href="#DejaVuSans-74" transform="translate(1846.498047 0)"/>
     <use xlink:href="#DejaVuSans-73" transform="translate(1885.707031 0)"/>
    </g>
   </g>
   <g id="legend_2">
    <g id="line2d_32">
     <path d="M 79.2 250.374437 
L 89.2 250.374437 
L 99.2 250.374437 
" style="fill: none; stroke: #d62728; stroke-width: 2.2; stroke-linecap: square"/>
    </g>
    <g id="text_29">
     <!-- (A→B − B→A) -->
     <g transform="translate(107.2 253.874437) scale(0.1 -0.1)">
      <use xlink:href="#DejaVuSans-28"/>
      <use xlink:href="#DejaVuSans-41" transform="translate(39.013672 0)"/>
      <use xlink:href="#DejaVuSans-2192" transform="translate(107.421875 0)"/>
      <use xlink:href="#DejaVuSans-42" transform="translate(191.210938 0)"/>
      <use xlink:href="#DejaVuSans-20" transform="translate(259.814453 0)"/>
      <use xlink:href="#DejaVuSans-2212" transform="translate(291.601562 0)"/>
      <use xlink:href="#DejaVuSans-20" transform="translate(375.390625 0)"/>
      <use xlink:href="#DejaVuSans-42" transform="translate(407.177734 0)"/>
      <use xlink:href="#DejaVuSans-2192" transform="translate(475.78125 0)"/>
      <use xlink:href="#DejaVuSans-41" transform="translate(559.570312 0)"/>
      <use xlink:href="#DejaVuSans-29" transform="translate(627.978516 0)"/>
     </g>
    </g>
    <g id="line2d_33">
     <g>
      <use xlink:href="#m6155d93d8c" x="89.2" y="265.052563" style="stroke: #000000"/>
     </g>
    </g>
    <g id="text_30">
     <!-- p&lt;0.05 (one-sided) -->
     <g transform="translate(107.2 268.552563) scale(0.1 -0.1)">
      <defs>
       <path id="DejaVuSans-3c" d="M 4684 3150 
L 1459 2003 
L 4684 863 
L 4684 294 
L 678 1747 
L 678 2266 
L 4684 3719 
L 4684 3150 
z
" transform="scale(0.015625)"/>
       <path id="DejaVuSans-2e" d="M 684 794 
L 1344 794 
L 1344 0 
L 684 0 
L 684 794 
z
" transform="scale(0.015625)"/>
       <path id="DejaVuSans-35" d="M 691 4666 
L 3169 4666 
L 3169 4134 
L 1269 4134 
L 1269 2991 
Q 1406 3038 1543 3061 
Q 1681 3084 1819 3084 
Q 2600 3084 3056 2656 
Q 3513 2228 3513 1497 
Q 3513 744 3044 326 
Q 2575 -91 1722 -91 
Q 1428 -91 1123 -41 
Q 819 9 494 109 
L 494 744 
Q 775 591 1075 516 
Q 1375 441 1709 441 
Q 2250 441 2565 725 
Q 2881 1009 2881 1497 
Q 2881 1984 2565 2268 
Q 2250 2553 1709 2553 
Q 1456 2553 1204 2497 
Q 953 2441 691 2322 
L 691 4666 
z
" transform="scale(0.015625)"/>
      </defs>
      <use xlink:href="#DejaVuSans-70"/>
      <use xlink:href="#DejaVuSans-3c" transform="translate(63.476562 0)"/>
      <use xlink:href="#DejaVuSans-30" transform="translate(147.265625 0)"/>
      <use xlink:href="#DejaVuSans-2e" transform="translate(210.888672 0)"/>
      <use xlink:href="#DejaVuSans-30" transform="translate(242.675781 0)"/>
      <use xlink:href="#DejaVuSans-35" transform="translate(306.298828 0)"/>
      <use xlink:href="#DejaVuSans-20" transform="translate(369.921875 0)"/>
      <use xlink:href="#DejaVuSans-28" transform="translate(401.708984 0)"/>
      <use xlink:href="#DejaVuSans-6f" transform="translate(440.722656 0)"/>
      <use xlink:href="#DejaVuSans-6e" transform="translate(501.904297 0)"/>
      <use xlink:href="#DejaVuSans-65" transform="translate(565.283203 0)"/>
      <use xlink:href="#DejaVuSans-2d" transform="translate(626.806641 0)"/>
      <use xlink:href="#DejaVuSans-73" transform="translate(662.890625 0)"/>
      <use xlink:href="#DejaVuSans-69" transform="translate(714.990234 0)"/>
      <use xlink:href="#DejaVuSans-64" transform="translate(742.773438 0)"/>
      <use xlink:href="#DejaVuSans-65" transform="translate(806.25 0)"/>
      <use xlink:href="#DejaVuSans-64" transform="translate(867.773438 0)"/>
      <use xlink:href="#DejaVuSans-29" transform="translate(931.25 0)"/>
     </g>
    </g>
   </g>
  </g>
  <g id="axes_3">
   <g id="patch_14">
    <path d="M 70.2 499.824 
L 505.44 499.824 
L 505.44 383.994 
L 70.2 383.994 
z
" style="fill: #ffffff"/>
   </g>
   <g id="matplotlib.axis_5">
    <g id="xtick_13">
     <g id="line2d_34">
      <g>
       <use xlink:href="#m59ced0a9dd" x="87.985286" y="499.824" style="stroke: #000000; stroke-width: 0.8"/>
      </g>
     </g>
     <g id="text_31">
      <!-- −200 -->
      <g transform="translate(74.251693 514.422438) scale(0.1 -0.1)">
       <use xlink:href="#DejaVuSans-2212"/>
       <use xlink:href="#DejaVuSans-32" transform="translate(83.789062 0)"/>
       <use xlink:href="#DejaVuSans-30" transform="translate(147.412109 0)"/>
       <use xlink:href="#DejaVuSans-30" transform="translate(211.035156 0)"/>
      </g>
     </g>
    </g>
    <g id="xtick_14">
     <g id="line2d_35">
      <g>
       <use xlink:href="#m59ced0a9dd" x="167.91917" y="499.824" style="stroke: #000000; stroke-width: 0.8"/>
      </g>
     </g>
     <g id="text_32">
      <!-- 0 -->
      <g transform="translate(164.73792 514.422438) scale(0.1 -0.1)">
       <use xlink:href="#DejaVuSans-30"/>
      </g>
     </g>
    </g>
    <g id="xtick_15">
     <g id="line2d_36">
      <g>
       <use xlink:href="#m59ced0a9dd" x="247.853053" y="499.824" style="stroke: #000000; stroke-width: 0.8"/>
      </g>
     </g>
     <g id="text_33">
      <!-- 200 -->
      <g transform="translate(238.309303 514.422438) scale(0.1 -0.1)">
       <use xlink:href="#DejaVuSans-32"/>
       <use xlink:href="#DejaVuSans-30" transform="translate(63.623047 0)"/>
       <use xlink:href="#DejaVuSans-30" transform="translate(127.246094 0)"/>
      </g>
     </g>
    </g>
    <g id="xtick_16">
     <g id="line2d_37">
      <g>
       <use xlink:href="#m59ced0a9dd" x="327.786937" y="499.824" style="stroke: #000000; stroke-width: 0.8"/>
      </g>
     </g>
     <g id="text_34">
      <!-- 400 -->
      <g transform="translate(318.243187 514.422438) scale(0.1 -0.1)">
       <use xlink:href="#DejaVuSans-34"/>
       <use xlink:href="#DejaVuSans-30" transform="translate(63.623047 0)"/>
       <use xlink:href="#DejaVuSans-30" transform="translate(127.246094 0)"/>
      </g>
     </g>
    </g>
    <g id="xtick_17">
     <g id="line2d_38">
      <g>
       <use xlink:href="#m59ced0a9dd" x="407.720821" y="499.824" style="stroke: #000000; stroke-width: 0.8"/>
      </g>
     </g>
     <g id="text_35">
      <!-- 600 -->
      <g transform="translate(398.177071 514.422438) scale(0.1 -0.1)">
       <use xlink:href="#DejaVuSans-36"/>
       <use xlink:href="#DejaVuSans-30" transform="translate(63.623047 0)"/>
       <use xlink:href="#DejaVuSans-30" transform="translate(127.246094 0)"/>
      </g>
     </g>
    </g>
    <g id="xtick_18">
     <g id="line2d_39">
      <g>
       <use xlink:href="#m59ced0a9dd" x="487.654704" y="499.824" style="stroke: #000000; stroke-width: 0.8"/>
      </g>
     </g>
     <g id="text_36">
      <!-- 800 -->
      <g transform="translate(478.110954 514.422438) scale(0.1 -0.1)">
       <use xlink:href="#DejaVuSans-38"/>
       <use xlink:href="#DejaVuSans-30" transform="translate(63.623047 0)"/>
       <use xlink:href="#DejaVuSans-30" transform="translate(127.246094 0)"/>
      </g>
     </g>
    </g>
    <g id="text_37">
     <!-- Time (ms) -->
     <g transform="translate(262.620781 528.100563) scale(0.1 -0.1)">
      <defs>
       <path id="DejaVuSans-54" d="M -19 4666 
L 3928 4666 
L 3928 4134 
L 2272 4134 
L 2272 0 
L 1638 0 
L 1638 4134 
L -19 4134 
L -19 4666 
z
" transform="scale(0.015625)"/>
       <path id="DejaVuSans-6d" d="M 3328 2828 
Q 3544 3216 3844 3400 
Q 4144 3584 4550 3584 
Q 5097 3584 5394 3201 
Q 5691 2819 5691 2113 
L 5691 0 
L 5113 0 
L 5113 2094 
Q 5113 2597 4934 2840 
Q 4756 3084 4391 3084 
Q 3944 3084 3684 2787 
Q 3425 2491 3425 1978 
L 3425 0 
L 2847 0 
L 2847 2094 
Q 2847 2600 2669 2842 
Q 2491 3084 2119 3084 
Q 1678 3084 1418 2786 
Q 1159 2488 1159 1978 
L 1159 0 
L 581 0 
L 581 3500 
L 1159 3500 
L 1159 2956 
Q 1356 3278 1631 3431 
Q 1906 3584 2284 3584 
Q 2666 3584 2933 3390 
Q 3200 3197 3328 2828 
z
" transform="scale(0.015625)"/>
      </defs>
      <use xlink:href="#DejaVuSans-54"/>
      <use xlink:href="#DejaVuSans-69" transform="translate(57.958984 0)"/>
      <use xlink:href="#DejaVuSans-6d" transform="translate(85.742188 0)"/>
      <use xlink:href="#DejaVuSans-65" transform="translate(183.154297 0)"/>
      <use xlink:href="#DejaVuSans-20" transform="translate(244.677734 0)"/>
      <use xlink:href="#DejaVuSans-28" transform="translate(276.464844 0)"/>
      <use xlink:href="#DejaVuSans-6d" transform="translate(315.478516 0)"/>
      <use xlink:href="#DejaVuSans-73" transform="translate(412.890625 0)"/>
      <use xlink:href="#DejaVuSans-29" transform="translate(464.990234 0)"/>
     </g>
    </g>
   </g>
   <g id="matplotlib.axis_6">
    <g id="ytick_9">
     <g id="line2d_40">
      <g>
       <use xlink:href="#m73b264f222" x="70.2" y="485.383876" style="stroke: #000000; stroke-width: 0.8"/>
      </g>
     </g>
     <g id="text_38">
      <!-- 0 -->
      <g transform="translate(56.8375 489.183095) scale(0.1 -0.1)">
       <use xlink:href="#DejaVuSans-30"/>
      </g>
     </g>
    </g>
    <g id="ytick_10">
     <g id="line2d_41">
      <g>
       <use xlink:href="#m73b264f222" x="70.2" y="451.290013" style="stroke: #000000; stroke-width: 0.8"/>
      </g>
     </g>
     <g id="text_39">
      <!-- 5 -->
      <g transform="translate(56.8375 455.089232) scale(0.1 -0.1)">
       <use xlink:href="#DejaVuSans-35"/>
      </g>
     </g>
    </g>
    <g id="ytick_11">
     <g id="line2d_42">
      <g>
       <use xlink:href="#m73b264f222" x="70.2" y="417.19615" style="stroke: #000000; stroke-width: 0.8"/>
      </g>
     </g>
     <g id="text_40">
      <!-- 10 -->
      <g transform="translate(50.475 420.995369) scale(0.1 -0.1)">
       <use xlink:href="#DejaVuSans-31"/>
       <use xlink:href="#DejaVuSans-30" transform="translate(63.623047 0)"/>
      </g>
     </g>
    </g>
    <g id="text_41">
     <!-- Z (σ from null) -->
     <g transform="translate(44.395313 477.919938) rotate(-90) scale(0.1 -0.1)">
      <defs>
       <path id="DejaVuSans-5a" d="M 359 4666 
L 4025 4666 
L 4025 4184 
L 1075 531 
L 4097 531 
L 4097 0 
L 288 0 
L 288 481 
L 3238 4134 
L 359 4134 
L 359 4666 
z
" transform="scale(0.015625)"/>
      </defs>
      <use xlink:href="#DejaVuSans-5a"/>
      <use xlink:href="#DejaVuSans-20" transform="translate(68.505859 0)"/>
      <use xlink:href="#DejaVuSans-28" transform="translate(100.292969 0)"/>
      <use xlink:href="#DejaVuSans-3c3" transform="translate(139.306641 0)"/>
      <use xlink:href="#DejaVuSans-20" transform="translate(202.685547 0)"/>
      <use xlink:href="#DejaVuSans-66" transform="translate(234.472656 0)"/>
      <use xlink:href="#DejaVuSans-72" transform="translate(269.677734 0)"/>
      <use xlink:href="#DejaVuSans-6f" transform="translate(308.541016 0)"/>
      <use xlink:href="#DejaVuSans-6d" transform="translate(369.722656 0)"/>
      <use xlink:href="#DejaVuSans-20" transform="translate(467.134766 0)"/>
      <use xlink:href="#DejaVuSans-6e" transform="translate(498.921875 0)"/>
      <use xlink:href="#DejaVuSans-75" transform="translate(562.300781 0)"/>
      <use xlink:href="#DejaVuSans-6c" transform="translate(625.679688 0)"/>
      <use xlink:href="#DejaVuSans-6c" transform="translate(653.462891 0)"/>
      <use xlink:href="#DejaVuSans-29" transform="translate(681.246094 0)"/>
     </g>
    </g>
   </g>
   <g id="line2d_43">
    <path d="M 167.91917 499.824 
L 167.91917 383.994 
" clip-path="url(#p2ac420775a)" style="fill: none; stroke-dasharray: 2.96,1.28; stroke-dashoffset: 0; stroke: #000000; stroke-width: 0.8"/>
   </g>
   <g id="line2d_44">
    <path d="M 89.983636 481.81878 
L 93.980327 485.266759 
L 97.977023 471.006626 
L 101.973713 479.712248 
L 105.97041 467.373689 
L 109.967106 492.020359 
L 113.963796 460.487046 
L 117.960493 469.300129 
L 121.957186 470.771376 
L 125.953882 460.050106 
L 129.950576 463.005456 
L 133.947269 455.864858 
L 137.943962 466.245476 
L 141.940659 468.248981 
L 145.937352 483.944118 
L 149.934045 447.499976 
L 153.93074 478.210608 
L 157.927434 468.076349 
L 161.924129 479.985161 
L 165.920823 447.337405 
L 169.917517 429.610589 
L 173.914211 480.704036 
L 177.910906 448.685934 
L 181.9076 473.161809 
L 185.904294 428.772446 
L 189.900988 484.743478 
L 193.897681 445.083791 
L 197.894377 452.848994 
L 201.891071 471.882181 
L 205.887764 469.018281 
L 209.884457 438.589876 
L 213.881154 463.898178 
L 217.877847 481.403745 
L 221.874543 444.078012 
L 225.871234 466.641054 
L 229.86793 476.937303 
L 233.864626 455.435646 
L 237.861317 464.668976 
L 241.858013 448.932306 
L 245.854704 470.832679 
L 249.8514 480.080193 
L 253.848096 476.05172 
L 257.844787 428.261356 
L 261.841483 477.431289 
L 265.838179 468.576074 
L 269.83487 470.526925 
L 273.83156 461.31723 
L 277.828262 470.366411 
L 281.824953 481.943235 
L 285.821643 454.922433 
L 289.818345 461.816353 
L 293.815036 493.013804 
L 297.811726 473.473594 
L 301.808428 462.14538 
L 305.805119 458.022267 
L 309.801809 485.331773 
L 313.798511 466.371548 
L 317.795202 478.850597 
L 321.791892 477.118389 
L 325.788594 492.64248 
L 329.785285 482.424902 
L 333.781975 479.421639 
L 337.778677 469.408158 
L 341.775368 467.964773 
L 345.772058 485.050692 
L 349.76876 488.332249 
L 353.765451 488.321054 
L 357.762141 474.835465 
L 361.758843 480.318957 
L 365.755534 482.332388 
L 369.752224 487.258518 
L 373.748914 484.938437 
L 377.745605 485.197941 
L 381.742319 474.112706 
L 385.739009 473.362378 
L 389.7357 490.974487 
L 393.73239 476.119396 
L 397.72908 469.968859 
L 401.725771 485.355078 
L 405.722485 462.366692 
L 409.719175 487.2534 
L 413.715866 474.612352 
L 417.712556 492.24764 
L 421.709246 465.034713 
L 425.705937 482.979425 
L 429.702627 487.478364 
L 433.699341 478.84866 
L 437.696032 475.423962 
L 441.692722 488.952006 
L 445.689412 456.945639 
L 449.686103 491.262325 
L 453.682793 482.726772 
L 457.679507 474.921462 
L 461.676198 486.257005 
L 465.672888 484.135342 
L 469.669578 483.648789 
L 473.666269 468.990594 
L 477.662959 490.081546 
L 481.659673 475.730259 
L 485.656364 481.27746 
" clip-path="url(#p2ac420775a)" style="fill: none; stroke: #1f77b4; stroke-width: 2; stroke-linecap: square"/>
   </g>
   <g id="line2d_45">
    <path d="M 89.983636 472.860997 
L 93.980327 484.562744 
L 97.977023 465.440666 
L 101.973713 444.265125 
L 105.97041 476.884544 
L 109.967106 449.573708 
L 113.963796 447.990128 
L 117.960493 475.668751 
L 121.957186 450.732922 
L 125.953882 456.058577 
L 129.950576 432.792407 
L 133.947269 451.834874 
L 137.943962 464.716443 
L 141.940659 444.554516 
L 145.937352 480.479639 
L 149.934045 482.174791 
L 153.93074 441.429927 
L 157.927434 442.610779 
L 161.924129 449.683011 
L 165.920823 474.146547 
L 169.917517 420.938915 
L 173.914211 465.064511 
L 177.910906 456.212326 
L 181.9076 455.614562 
L 185.904294 451.645302 
L 189.900988 475.88455 
L 193.897681 472.351639 
L 197.894377 473.200956 
L 201.891071 454.915203 
L 205.887764 405.120641 
L 209.884457 435.348673 
L 213.881154 443.017744 
L 217.877847 466.264875 
L 221.874543 389.259 
L 225.871234 448.143179 
L 229.86793 449.083137 
L 233.864626 472.579736 
L 237.861317 460.944889 
L 241.858013 425.185802 
L 245.854704 445.023585 
L 249.8514 444.363144 
L 253.848096 437.566732 
L 257.844787 475.285515 
L 261.841483 458.310143 
L 265.838179 466.11597 
L 269.83487 478.892151 
L 273.83156 481.626733 
L 277.828262 472.403752 
L 281.824953 469.684981 
L 285.821643 450.63562 
L 289.818345 472.131216 
L 293.815036 479.319069 
L 297.811726 461.190175 
L 301.808428 473.840392 
L 305.805119 465.917365 
L 309.801809 481.731764 
L 313.798511 448.995995 
L 317.795202 467.506628 
L 321.791892 476.711336 
L 325.788594 486.587862 
L 329.785285 472.363462 
L 333.781975 460.332819 
L 337.778677 487.547059 
L 341.775368 475.257623 
L 345.772058 478.836181 
L 349.76876 461.1713 
L 353.765451 452.536985 
L 357.762141 483.802529 
L 361.758843 463.226255 
L 365.755534 477.348141 
L 369.752224 465.236548 
L 373.748914 491.195745 
L 377.745605 479.602506 
L 381.742319 482.581604 
L 385.739009 468.302572 
L 389.7357 475.460884 
L 393.73239 470.357327 
L 397.72908 474.14885 
L 401.725771 477.078238 
L 405.722485 462.629621 
L 409.719175 486.026829 
L 413.715866 477.657598 
L 417.712556 490.174742 
L 421.709246 487.748025 
L 425.705937 474.75678 
L 429.702627 475.329563 
L 433.699341 488.970485 
L 437.696032 479.742645 
L 441.692722 465.605141 
L 445.689412 487.490681 
L 449.686103 490.832547 
L 453.682793 464.788511 
L 457.679507 459.133864 
L 461.676198 489.427815 
L 465.672888 487.928003 
L 469.669578 488.51577 
L 473.666269 494.559 
L 477.662959 486.958597 
L 481.659673 492.854416 
L 485.656364 482.441479 
" clip-path="url(#p2ac420775a)" style="fill: none; stroke: #ff7f0e; stroke-width: 2; stroke-linecap: square"/>
   </g>
   <g id="patch_15">
    <path d="M 70.2 499.824 
L 70.2 383.994 
" style="fill: none; stroke: #000000; stroke-width: 0.8; stroke-linejoin: miter; stroke-linecap: square"/>
   </g>
   <g id="patch_16">
    <path d="M 505.44 499.824 
L 505.44 383.994 
" style="fill: none; stroke: #000000; stroke-width: 0.8; stroke-linejoin: miter; stroke-linecap: square"/>
   </g>
   <g id="patch_17">
    <path d="M 70.2 499.824 
L 505.44 499.824 
" style="fill: none; stroke: #000000; stroke-width: 0.8; stroke-linejoin: miter; stroke-linecap: square"/>
   </g>
   <g id="patch_18">
    <path d="M 70.2 383.994 
L 505.44 383.994 
" style="fill: none; stroke: #000000; stroke-width: 0.8; stroke-linejoin: miter; stroke-linecap: square"/>
   </g>
   <g id="text_42">
    <!-- Panel C: evidence strength vs null -->
    <g transform="translate(185.80125 377.994) scale(0.12 -0.12)">
     <defs>
      <path id="DejaVuSans-43" d="M 4122 4306 
L 4122 3641 
Q 3803 3938 3442 4084 
Q 3081 4231 2675 4231 
Q 1875 4231 1450 3742 
Q 1025 3253 1025 2328 
Q 1025 1406 1450 917 
Q 1875 428 2675 428 
Q 3081 428 3442 575 
Q 3803 722 4122 1019 
L 4122 359 
Q 3791 134 3420 21 
Q 3050 -91 2638 -91 
Q 1578 -91 968 557 
Q 359 1206 359 2328 
Q 359 3453 968 4101 
Q 1578 4750 2638 4750 
Q 3056 4750 3426 4639 
Q 3797 4528 4122 4306 
z
" transform="scale(0.015625)"/>
     </defs>
     <use xlink:href="#DejaVuSans-50"/>
     <use xlink:href="#DejaVuSans-61" transform="translate(55.802734 0)"/>
     <use xlink:href="#DejaVuSans-6e" transform="translate(117.082031 0)"/>
     <use xlink:href="#DejaVuSans-65" transform="translate(180.460938 0)"/>
     <use xlink:href="#DejaVuSans-6c" transform="translate(241.984375 0)"/>
     <use xlink:href="#DejaVuSans-20" transform="translate(269.767578 0)"/>
     <use xlink:href="#DejaVuSans-43" transform="translate(301.554688 0)"/>
     <use xlink:href="#DejaVuSans-3a" transform="translate(371.378906 0)"/>
     <use xlink:href="#DejaVuSans-20" transform="translate(405.070312 0)"/>
     <use xlink:href="#DejaVuSans-65" transform="translate(436.857422 0)"/>
     <use xlink:href="#DejaVuSans-76" transform="translate(498.380859 0)"/>
     <use xlink:href="#DejaVuSans-69" transform="translate(557.560547 0)"/>
     <use xlink:href="#DejaVuSans-64" transform="translate(585.34375 0)"/>
     <use xlink:href="#DejaVuSans-65" transform="translate(648.820312 0)"/>
     <use xlink:href="#DejaVuSans-6e" transform="translate(710.34375 0)"/>
     <use xlink:href="#DejaVuSans-63" transform="translate(773.722656 0)"/>
     <use xlink:href="#DejaVuSans-65" transform="translate(828.703125 0)"/>
     <use xlink:href="#DejaVuSans-20" transform="translate(890.226562 0)"/>
     <use xlink:href="#DejaVuSans-73" transform="translate(922.013672 0)"/>
     <use xlink:href="#DejaVuSans-74" transform="translate(974.113281 0)"/>
     <use xlink:href="#DejaVuSans-72" transform="translate(1013.322266 0)"/>
     <use xlink:href="#DejaVuSans-65" transform="translate(1052.185547 0)"/>
     <use xlink:href="#DejaVuSans-6e" transform="translate(1113.708984 0)"/>
     <use xlink:href="#DejaVuSans-67" transform="translate(1177.087891 0)"/>
     <use xlink:href="#DejaVuSans-74" transform="translate(1240.564453 0)"/>
     <use xlink:href="#DejaVuSans-68" transform="translate(1279.773438 0)"/>
     <use xlink:href="#DejaVuSans-20" transform="translate(1343.152344 0)"/>
     <use xlink:href="#DejaVuSans-76" transform="translate(1374.939453 0)"/>
     <use xlink:href="#DejaVuSans-73" transform="translate(1434.119141 0)"/>
     <use xlink:href="#DejaVuSans-20" transform="translate(1486.21875 0)"/>
     <use xlink:href="#DejaVuSans-6e" transform="translate(1518.005859 0)"/>
     <use xlink:href="#DejaVuSans-75" transform="translate(1581.384766 0)"/>
     <use xlink:href="#DejaVuSans-6c" transform="translate(1644.763672 0)"/>
     <use xlink:href="#DejaVuSans-6c" transform="translate(1672.546875 0)"/>
    </g>
   </g>
   <g id="legend_3">
    <g id="line2d_46">
     <path d="M 79.2 397.092438 
L 89.2 397.092438 
L 99.2 397.092438 
" style="fill: none; stroke: #1f77b4; stroke-width: 2; stroke-linecap: square"/>
    </g>
    <g id="text_43">
     <!-- z(MFEF→MLIP) -->
     <g transform="translate(107.2 400.592438) scale(0.1 -0.1)">
      <defs>
       <path id="DejaVuSans-7a" d="M 353 3500 
L 3084 3500 
L 3084 2975 
L 922 459 
L 3084 459 
L 3084 0 
L 275 0 
L 275 525 
L 2438 3041 
L 353 3041 
L 353 3500 
z
" transform="scale(0.015625)"/>
      </defs>
      <use xlink:href="#DejaVuSans-7a"/>
      <use xlink:href="#DejaVuSans-28" transform="translate(52.490234 0)"/>
      <use xlink:href="#DejaVuSans-4d" transform="translate(91.503906 0)"/>
      <use xlink:href="#DejaVuSans-46" transform="translate(177.783203 0)"/>
      <use xlink:href="#DejaVuSans-45" transform="translate(235.302734 0)"/>
      <use xlink:href="#DejaVuSans-46" transform="translate(298.486328 0)"/>
      <use xlink:href="#DejaVuSans-2192" transform="translate(356.005859 0)"/>
      <use xlink:href="#DejaVuSans-4d" transform="translate(439.794922 0)"/>
      <use xlink:href="#DejaVuSans-4c" transform="translate(526.074219 0)"/>
      <use xlink:href="#DejaVuSans-49" transform="translate(581.787109 0)"/>
      <use xlink:href="#DejaVuSans-50" transform="translate(611.279297 0)"/>
      <use xlink:href="#DejaVuSans-29" transform="translate(671.582031 0)"/>
     </g>
    </g>
    <g id="line2d_47">
     <path d="M 79.2 411.770563 
L 89.2 411.770563 
L 99.2 411.770563 
" style="fill: none; stroke: #ff7f0e; stroke-width: 2; stroke-linecap: square"/>
    </g>
    <g id="text_44">
     <!-- z(MLIP→MFEF) -->
     <g transform="translate(107.2 415.270563) scale(0.1 -0.1)">
      <use xlink:href="#DejaVuSans-7a"/>
      <use xlink:href="#DejaVuSans-28" transform="translate(52.490234 0)"/>
      <use xlink:href="#DejaVuSans-4d" transform="translate(91.503906 0)"/>
      <use xlink:href="#DejaVuSans-4c" transform="translate(177.783203 0)"/>
      <use xlink:href="#DejaVuSans-49" transform="translate(233.496094 0)"/>
      <use xlink:href="#DejaVuSans-50" transform="translate(262.988281 0)"/>
      <use xlink:href="#DejaVuSans-2192" transform="translate(323.291016 0)"/>
      <use xlink:href="#DejaVuSans-4d" transform="translate(407.080078 0)"/>
      <use xlink:href="#DejaVuSans-46" transform="translate(493.359375 0)"/>
      <use xlink:href="#DejaVuSans-45" transform="translate(550.878906 0)"/>
      <use xlink:href="#DejaVuSans-46" transform="translate(614.0625 0)"/>
      <use xlink:href="#DejaVuSans-29" transform="translate(671.582031 0)"/>
     </g>
    </g>
   </g>
  </g>
 </g>
 <defs>
  <clipPath id="p0a36dc0c05">
   <rect x="70.2" y="67.392" width="435.24" height="138.996"/>
  </clipPath>
  <clipPath id="pec7bef2d72">
   <rect x="70.2" y="237.276" width="435.24" height="115.83"/>
  </clipPath>
  <clipPath id="p2ac420775a">
   <rect x="70.2" y="383.994" width="435.24" height="115.83"/>
  </clipPath>
 </defs>
</svg>
