<?xml version="1.0" encoding="utf-8" standalone="no"?>
<!DOCTYPE svg PUBLIC "-//W3C//DTD SVG 1.1//EN"
  "http://www.w3.org/Graphics/SVG/1.1/DTD/svg11.dtd">
<svg xmlns:xlink="http://www.w3.org/1999/xlink" width="856.8pt" height="453.6pt" viewBox="0 0 856.8 453.6" xmlns="http://www.w3.org/2000/svg" version="1.1">
 <metadata>
  <rdf:RDF xmlns:dc="http://purl.org/dc/elements/1.1/" xmlns:cc="http://creativecommons.org/ns#" xmlns:rdf="http://www.w3.org/1999/02/22-rdf-syntax-ns#">
   <cc:Work>
    <dc:type rdf:resource="http://purl.org/dc/dcmitype/StillImage"/>
    <dc:date>2026-01-28T21:20:41.125964</dc:date>
    <dc:format>image/svg+xml</dc:format>
    <dc:creator>
     <cc:Agent>
      <dc:title>Matplotlib v3.10.5, https://matplotlib.org/</dc:title>
     </cc:Agent>
    </dc:creator>
   </cc:Work>
  </rdf:RDF>
 </metadata>
 <defs>
  <style type="text/css">*{stroke-linejoin: round; stroke-linecap: butt}</style>
 </defs>
 <g id="figure_1">
  <g id="patch_1">
   <path d="M 0 453.6 
L 856.8 453.6 
L 856.8 0 
L 0 0 
z
" style="fill: #ffffff"/>
  </g>
  <g id="axes_1">
   <g id="patch_2">
    <path d="M 100.8 396 
L 820.8 396 
L 820.8 36 
L 100.8 36 
z
" style="fill: #ffffff"/>
   </g>
   <g id="FillBetweenPolyCollection_1">
    <path d="M 27.330607 163.900903 
L 27.330607 261.449978 
L 42.024492 308.462323 
L 56.718378 317.45762 
L 71.412241 350.62444 
L 86.106116 350.927724 
L 100.800001 370.188608 
L 115.493876 379.636364 
L 130.18775 365.545508 
L 144.881636 315.228756 
L 159.57551 306.057116 
L 174.269385 290.830212 
L 188.963265 315.870169 
L 203.657139 307.12979 
L 218.351019 332.697509 
L 233.044899 313.138147 
L 247.738774 311.945064 
L 262.432653 328.200641 
L 277.126533 349.176886 
L 291.820408 353.739043 
L 306.514288 331.84649 
L 321.208168 346.262524 
L 335.902042 336.022703 
L 350.59592 323.271275 
L 365.289797 321.236327 
L 379.983674 295.812696 
L 394.677551 305.240969 
L 409.371428 277.139158 
L 424.065306 290.836257 
L 438.759183 283.392263 
L 453.453061 280.481185 
L 468.146939 293.952038 
L 482.840816 295.673246 
L 497.534694 270.900745 
L 512.228571 268.279395 
L 526.922449 244.616526 
L 541.616327 291.217308 
L 556.310204 292.564919 
L 571.004082 333.483268 
L 585.697959 317.0035 
L 600.391836 311.986623 
L 615.085715 286.359062 
L 629.779592 300.204974 
L 644.473469 302.424918 
L 659.167347 313.761023 
L 673.861224 331.307657 
L 688.555101 332.664957 
L 703.248978 340.347746 
L 717.942856 337.472887 
L 732.63673 322.548821 
L 747.33061 316.35959 
L 762.02449 320.151305 
L 776.718365 328.779104 
L 791.412244 322.040522 
L 806.106124 283.435512 
L 820.799999 286.87677 
L 835.493879 271.617768 
L 850.187759 303.737951 
L 864.881633 318.829531 
L 879.575513 339.224508 
L 894.269388 341.793129 
L 908.963262 305.473727 
L 923.657148 318.571946 
L 938.351022 284.339903 
L 953.044897 306.614974 
L 953.044897 257.543837 
L 953.044897 257.543837 
L 938.351022 225.554828 
L 923.657148 261.767751 
L 908.963262 252.0951 
L 894.269388 300.731065 
L 879.575513 297.354455 
L 864.881633 255.17887 
L 850.187759 225.725768 
L 835.493879 206.961777 
L 820.799999 205.120511 
L 806.106124 205.595257 
L 791.412244 227.170415 
L 776.718365 252.285999 
L 762.02449 237.482973 
L 747.33061 239.308564 
L 732.63673 258.892544 
L 717.942856 278.524398 
L 703.248978 270.343609 
L 688.555101 255.309 
L 673.861224 231.263703 
L 659.167347 214.710075 
L 644.473469 191.592304 
L 629.779592 212.760982 
L 615.085715 180.31547 
L 600.391836 179.262725 
L 585.697959 185.451509 
L 571.004082 209.537751 
L 556.310204 145.479924 
L 541.616327 89.036252 
L 526.922449 52.363636 
L 512.228571 93.404617 
L 497.534694 139.876685 
L 482.840816 115.80395 
L 468.146939 141.033045 
L 453.453061 117.30871 
L 438.759183 136.891843 
L 424.065306 131.71422 
L 409.371428 137.138856 
L 394.677551 210.592365 
L 379.983674 227.654164 
L 365.289797 252.535588 
L 350.59592 249.348057 
L 335.902042 281.575567 
L 321.208168 283.012331 
L 306.514288 257.219635 
L 291.820408 268.700635 
L 277.126533 250.750614 
L 262.432653 221.428476 
L 247.738774 208.543526 
L 233.044899 224.493725 
L 218.351019 254.598381 
L 203.657139 210.757812 
L 188.963265 210.521533 
L 174.269385 194.517974 
L 159.57551 215.467353 
L 144.881636 253.08936 
L 130.18775 314.32141 
L 115.493876 326.851988 
L 100.800001 316.037559 
L 86.106116 276.458666 
L 71.412241 286.734131 
L 56.718378 237.09186 
L 42.024492 231.442165 
L 27.330607 163.900903 
z
" clip-path="url(#pb1cb549684)" style="fill: #7b4fa3; fill-opacity: 0.25"/>
   </g>
   <g id="FillBetweenPolyCollection_2">
    <path d="M 27.330607 279.981014 
L 27.330607 333.98539 
L 42.024492 357.943949 
L 56.718378 355.853555 
L 71.412241 360.414869 
L 86.106116 345.630942 
L 100.800001 350.682204 
L 115.493876 341.048031 
L 130.18775 331.502465 
L 144.881636 327.708261 
L 159.57551 329.424205 
L 174.269385 334.200471 
L 188.963265 317.092773 
L 203.657139 316.638748 
L 218.351019 325.12374 
L 233.044899 326.237412 
L 247.738774 297.637992 
L 262.432653 284.332291 
L 277.126533 292.342534 
L 291.820408 314.346647 
L 306.514288 326.492295 
L 321.208168 326.801102 
L 335.902042 321.319335 
L 350.59592 328.448488 
L 365.289797 319.342696 
L 379.983674 335.644241 
L 394.677551 319.59993 
L 409.371428 308.637166 
L 424.065306 304.785738 
L 438.759183 290.811992 
L 453.453061 287.188424 
L 468.146939 271.979247 
L 482.840816 298.109828 
L 497.534694 296.771178 
L 512.228571 297.261323 
L 526.922449 274.116606 
L 541.616327 281.998561 
L 556.310204 296.637254 
L 571.004082 310.848487 
L 585.697959 313.969213 
L 600.391836 308.411994 
L 615.085715 281.944355 
L 629.779592 269.091517 
L 644.473469 262.035547 
L 659.167347 257.495314 
L 673.861224 282.934062 
L 688.555101 294.334677 
L 703.248978 325.348012 
L 717.942856 332.740179 
L 732.63673 322.809111 
L 747.33061 317.474387 
L 762.02449 300.585015 
L 776.718365 327.551569 
L 791.412244 333.29462 
L 806.106124 343.465055 
L 820.799999 330.339851 
L 835.493879 319.935107 
L 850.187759 309.262526 
L 864.881633 317.969347 
L 879.575513 325.329319 
L 894.269388 353.089918 
L 908.963262 346.108165 
L 923.657148 353.061569 
L 938.351022 326.247437 
L 953.044897 321.021654 
L 953.044897 258.232693 
L 953.044897 258.232693 
L 938.351022 264.021954 
L 923.657148 303.309498 
L 908.963262 276.018623 
L 894.269388 284.99487 
L 879.575513 253.660332 
L 864.881633 250.691679 
L 850.187759 246.82633 
L 835.493879 256.615998 
L 820.799999 267.998291 
L 806.106124 287.554461 
L 791.412244 277.405417 
L 776.718365 278.750053 
L 762.02449 227.315031 
L 747.33061 234.171518 
L 732.63673 228.984133 
L 717.942856 245.752849 
L 703.248978 236.717222 
L 688.555101 192.486006 
L 673.861224 179.089751 
L 659.167347 132.904645 
L 644.473469 121.449191 
L 629.779592 120.265173 
L 615.085715 139.616886 
L 600.391836 207.521671 
L 585.697959 179.892715 
L 571.004082 197.281258 
L 556.310204 123.427154 
L 541.616327 136.916934 
L 526.922449 102.752859 
L 512.228571 146.461671 
L 497.534694 162.218826 
L 482.840816 170.439867 
L 468.146939 178.018148 
L 453.453061 188.733428 
L 438.759183 218.155063 
L 424.065306 231.591302 
L 409.371428 247.093854 
L 394.677551 249.610503 
L 379.983674 265.903787 
L 365.289797 251.103439 
L 350.59592 269.33792 
L 335.902042 270.550741 
L 321.208168 271.35466 
L 306.514288 265.369491 
L 291.820408 248.997745 
L 277.126533 206.27188 
L 262.432653 201.157144 
L 247.738774 214.317609 
L 233.044899 253.423454 
L 218.351019 245.793694 
L 203.657139 233.276791 
L 188.963265 239.341283 
L 174.269385 270.785536 
L 159.57551 273.311551 
L 144.881636 274.226533 
L 130.18775 265.480294 
L 115.493876 274.854853 
L 100.800001 287.867835 
L 86.106116 296.904304 
L 71.412241 312.766989 
L 56.718378 308.594863 
L 42.024492 303.104126 
L 27.330607 279.981014 
z
" clip-path="url(#pb1cb549684)" style="fill: #c00a37; fill-opacity: 0.25"/>
   </g>
   <g id="matplotlib.axis_1">
    <g id="xtick_1">
     <g id="line2d_1">
      <defs>
       <path id="m2e70aedb07" d="M 0 0 
L 0 3.5 
" style="stroke: #000000; stroke-width: 0.8"/>
      </defs>
      <g>
       <use xlink:href="#m2e70aedb07" x="233.044898" y="396" style="stroke: #000000; stroke-width: 0.8"/>
      </g>
     </g>
     <g id="text_1">
      <!-- −200 -->
      <g transform="translate(211.071148 415.1575) scale(0.16 -0.16)">
       <defs>
        <path id="DejaVuSans-2212" d="M 678 2272 
L 4684 2272 
L 4684 1741 
L 678 1741 
L 678 2272 
z
" transform="scale(0.015625)"/>
        <path id="DejaVuSans-32" d="M 1228 531 
L 3431 531 
L 3431 0 
L 469 0 
L 469 531 
Q 828 903 1448 1529 
Q 2069 2156 2228 2338 
Q 2531 2678 2651 2914 
Q 2772 3150 2772 3378 
Q 2772 3750 2511 3984 
Q 2250 4219 1831 4219 
Q 1534 4219 1204 4116 
Q 875 4013 500 3803 
L 500 4441 
Q 881 4594 1212 4672 
Q 1544 4750 1819 4750 
Q 2544 4750 2975 4387 
Q 3406 4025 3406 3419 
Q 3406 3131 3298 2873 
Q 3191 2616 2906 2266 
Q 2828 2175 2409 1742 
Q 1991 1309 1228 531 
z
" transform="scale(0.015625)"/>
        <path id="DejaVuSans-30" d="M 2034 4250 
Q 1547 4250 1301 3770 
Q 1056 3291 1056 2328 
Q 1056 1369 1301 889 
Q 1547 409 2034 409 
Q 2525 409 2770 889 
Q 3016 1369 3016 2328 
Q 3016 3291 2770 3770 
Q 2525 4250 2034 4250 
z
M 2034 4750 
Q 2819 4750 3233 4129 
Q 3647 3509 3647 2328 
Q 3647 1150 3233 529 
Q 2819 -91 2034 -91 
Q 1250 -91 836 529 
Q 422 1150 422 2328 
Q 422 3509 836 4129 
Q 1250 4750 2034 4750 
z
" transform="scale(0.015625)"/>
       </defs>
       <use xlink:href="#DejaVuSans-2212"/>
       <use xlink:href="#DejaVuSans-32" transform="translate(83.789062 0)"/>
       <use xlink:href="#DejaVuSans-30" transform="translate(147.412109 0)"/>
       <use xlink:href="#DejaVuSans-30" transform="translate(211.035156 0)"/>
      </g>
     </g>
    </g>
    <g id="xtick_2">
     <g id="line2d_2">
      <g>
       <use xlink:href="#m2e70aedb07" x="379.983673" y="396" style="stroke: #000000; stroke-width: 0.8"/>
      </g>
     </g>
     <g id="text_2">
      <!-- −100 -->
      <g transform="translate(358.009923 415.1575) scale(0.16 -0.16)">
       <defs>
        <path id="DejaVuSans-31" d="M 794 531 
L 1825 531 
L 1825 4091 
L 703 3866 
L 703 4441 
L 1819 4666 
L 2450 4666 
L 2450 531 
L 3481 531 
L 3481 0 
L 794 0 
L 794 531 
z
" transform="scale(0.015625)"/>
       </defs>
       <use xlink:href="#DejaVuSans-2212"/>
       <use xlink:href="#DejaVuSans-31" transform="translate(83.789062 0)"/>
       <use xlink:href="#DejaVuSans-30" transform="translate(147.412109 0)"/>
       <use xlink:href="#DejaVuSans-30" transform="translate(211.035156 0)"/>
      </g>
     </g>
    </g>
    <g id="xtick_3">
     <g id="line2d_3">
      <g>
       <use xlink:href="#m2e70aedb07" x="526.922449" y="396" style="stroke: #000000; stroke-width: 0.8"/>
      </g>
     </g>
     <g id="text_3">
      <!-- 0 -->
      <g transform="translate(521.832449 415.1575) scale(0.16 -0.16)">
       <use xlink:href="#DejaVuSans-30"/>
      </g>
     </g>
    </g>
    <g id="xtick_4">
     <g id="line2d_4">
      <g>
       <use xlink:href="#m2e70aedb07" x="673.861224" y="396" style="stroke: #000000; stroke-width: 0.8"/>
      </g>
     </g>
     <g id="text_4">
      <!-- 100 -->
      <g transform="translate(658.591224 415.1575) scale(0.16 -0.16)">
       <use xlink:href="#DejaVuSans-31"/>
       <use xlink:href="#DejaVuSans-30" transform="translate(63.623047 0)"/>
       <use xlink:href="#DejaVuSans-30" transform="translate(127.246094 0)"/>
      </g>
     </g>
    </g>
    <g id="xtick_5">
     <g id="line2d_5">
      <g>
       <use xlink:href="#m2e70aedb07" x="820.8" y="396" style="stroke: #000000; stroke-width: 0.8"/>
      </g>
     </g>
     <g id="text_5">
      <!-- 200 -->
      <g transform="translate(805.53 415.1575) scale(0.16 -0.16)">
       <use xlink:href="#DejaVuSans-32"/>
       <use xlink:href="#DejaVuSans-30" transform="translate(63.623047 0)"/>
       <use xlink:href="#DejaVuSans-30" transform="translate(127.246094 0)"/>
      </g>
     </g>
    </g>
    <g id="text_6">
     <!-- Time from Saccade Onset (ms) -->
     <g transform="translate(321.485625 436.162187) scale(0.18 -0.18)">
      <defs>
       <path id="DejaVuSans-54" d="M -19 4666 
L 3928 4666 
L 3928 4134 
L 2272 4134 
L 2272 0 
L 1638 0 
L 1638 4134 
L -19 4134 
L -19 4666 
z
" transform="scale(0.015625)"/>
       <path id="DejaVuSans-69" d="M 603 3500 
L 1178 3500 
L 1178 0 
L 603 0 
L 603 3500 
z
M 603 4863 
L 1178 4863 
L 1178 4134 
L 603 4134 
L 603 4863 
z
" transform="scale(0.015625)"/>
       <path id="DejaVuSans-6d" d="M 3328 2828 
Q 3544 3216 3844 3400 
Q 4144 3584 4550 3584 
Q 5097 3584 5394 3201 
Q 5691 2819 5691 2113 
L 5691 0 
L 5113 0 
L 5113 2094 
Q 5113 2597 4934 2840 
Q 4756 3084 4391 3084 
Q 3944 3084 3684 2787 
Q 3425 2491 3425 1978 
L 3425 0 
L 2847 0 
L 2847 2094 
Q 2847 2600 2669 2842 
Q 2491 3084 2119 3084 
Q 1678 3084 1418 2786 
Q 1159 2488 1159 1978 
L 1159 0 
L 581 0 
L 581 3500 
L 1159 3500 
L 1159 2956 
Q 1356 3278 1631 3431 
Q 1906 3584 2284 3584 
Q 2666 3584 2933 3390 
Q 3200 3197 3328 2828 
z
" transform="scale(0.015625)"/>
       <path id="DejaVuSans-65" d="M 3597 1894 
L 3597 1613 
L 953 1613 
Q 991 1019 1311 708 
Q 1631 397 2203 397 
Q 2534 397 2845 478 
Q 3156 559 3463 722 
L 3463 178 
Q 3153 47 2828 -22 
Q 2503 -91 2169 -91 
Q 1331 -91 842 396 
Q 353 884 353 1716 
Q 353 2575 817 3079 
Q 1281 3584 2069 3584 
Q 2775 3584 3186 3129 
Q 3597 2675 3597 1894 
z
M 3022 2063 
Q 3016 2534 2758 2815 
Q 2500 3097 2075 3097 
Q 1594 3097 1305 2825 
Q 1016 2553 972 2059 
L 3022 2063 
z
" transform="scale(0.015625)"/>
       <path id="DejaVuSans-20" transform="scale(0.015625)"/>
       <path id="DejaVuSans-66" d="M 2375 4863 
L 2375 4384 
L 1825 4384 
Q 1516 4384 1395 4259 
Q 1275 4134 1275 3809 
L 1275 3500 
L 2222 3500 
L 2222 3053 
L 1275 3053 
L 1275 0 
L 697 0 
L 697 3053 
L 147 3053 
L 147 3500 
L 697 3500 
L 697 3744 
Q 697 4328 969 4595 
Q 1241 4863 1831 4863 
L 2375 4863 
z
" transform="scale(0.015625)"/>
       <path id="DejaVuSans-72" d="M 2631 2963 
Q 2534 3019 2420 3045 
Q 2306 3072 2169 3072 
Q 1681 3072 1420 2755 
Q 1159 2438 1159 1844 
L 1159 0 
L 581 0 
L 581 3500 
L 1159 3500 
L 1159 2956 
Q 1341 3275 1631 3429 
Q 1922 3584 2338 3584 
Q 2397 3584 2469 3576 
Q 2541 3569 2628 3553 
L 2631 2963 
z
" transform="scale(0.015625)"/>
       <path id="DejaVuSans-6f" d="M 1959 3097 
Q 1497 3097 1228 2736 
Q 959 2375 959 1747 
Q 959 1119 1226 758 
Q 1494 397 1959 397 
Q 2419 397 2687 759 
Q 2956 1122 2956 1747 
Q 2956 2369 2687 2733 
Q 2419 3097 1959 3097 
z
M 1959 3584 
Q 2709 3584 3137 3096 
Q 3566 2609 3566 1747 
Q 3566 888 3137 398 
Q 2709 -91 1959 -91 
Q 1206 -91 779 398 
Q 353 888 353 1747 
Q 353 2609 779 3096 
Q 1206 3584 1959 3584 
z
" transform="scale(0.015625)"/>
       <path id="DejaVuSans-53" d="M 3425 4513 
L 3425 3897 
Q 3066 4069 2747 4153 
Q 2428 4238 2131 4238 
Q 1616 4238 1336 4038 
Q 1056 3838 1056 3469 
Q 1056 3159 1242 3001 
Q 1428 2844 1947 2747 
L 2328 2669 
Q 3034 2534 3370 2195 
Q 3706 1856 3706 1288 
Q 3706 609 3251 259 
Q 2797 -91 1919 -91 
Q 1588 -91 1214 -16 
Q 841 59 441 206 
L 441 856 
Q 825 641 1194 531 
Q 1563 422 1919 422 
Q 2459 422 2753 634 
Q 3047 847 3047 1241 
Q 3047 1584 2836 1778 
Q 2625 1972 2144 2069 
L 1759 2144 
Q 1053 2284 737 2584 
Q 422 2884 422 3419 
Q 422 4038 858 4394 
Q 1294 4750 2059 4750 
Q 2388 4750 2728 4690 
Q 3069 4631 3425 4513 
z
" transform="scale(0.015625)"/>
       <path id="DejaVuSans-61" d="M 2194 1759 
Q 1497 1759 1228 1600 
Q 959 1441 959 1056 
Q 959 750 1161 570 
Q 1363 391 1709 391 
Q 2188 391 2477 730 
Q 2766 1069 2766 1631 
L 2766 1759 
L 2194 1759 
z
M 3341 1997 
L 3341 0 
L 2766 0 
L 2766 531 
Q 2569 213 2275 61 
Q 1981 -91 1556 -91 
Q 1019 -91 701 211 
Q 384 513 384 1019 
Q 384 1609 779 1909 
Q 1175 2209 1959 2209 
L 2766 2209 
L 2766 2266 
Q 2766 2663 2505 2880 
Q 2244 3097 1772 3097 
Q 1472 3097 1187 3025 
Q 903 2953 641 2809 
L 641 3341 
Q 956 3463 1253 3523 
Q 1550 3584 1831 3584 
Q 2591 3584 2966 3190 
Q 3341 2797 3341 1997 
z
" transform="scale(0.015625)"/>
       <path id="DejaVuSans-63" d="M 3122 3366 
L 3122 2828 
Q 2878 2963 2633 3030 
Q 2388 3097 2138 3097 
Q 1578 3097 1268 2742 
Q 959 2388 959 1747 
Q 959 1106 1268 751 
Q 1578 397 2138 397 
Q 2388 397 2633 464 
Q 2878 531 3122 666 
L 3122 134 
Q 2881 22 2623 -34 
Q 2366 -91 2075 -91 
Q 1284 -91 818 406 
Q 353 903 353 1747 
Q 353 2603 823 3093 
Q 1294 3584 2113 3584 
Q 2378 3584 2631 3529 
Q 2884 3475 3122 3366 
z
" transform="scale(0.015625)"/>
       <path id="DejaVuSans-64" d="M 2906 2969 
L 2906 4863 
L 3481 4863 
L 3481 0 
L 2906 0 
L 2906 525 
Q 2725 213 2448 61 
Q 2172 -91 1784 -91 
Q 1150 -91 751 415 
Q 353 922 353 1747 
Q 353 2572 751 3078 
Q 1150 3584 1784 3584 
Q 2172 3584 2448 3432 
Q 2725 3281 2906 2969 
z
M 947 1747 
Q 947 1113 1208 752 
Q 1469 391 1925 391 
Q 2381 391 2643 752 
Q 2906 1113 2906 1747 
Q 2906 2381 2643 2742 
Q 2381 3103 1925 3103 
Q 1469 3103 1208 2742 
Q 947 2381 947 1747 
z
" transform="scale(0.015625)"/>
       <path id="DejaVuSans-4f" d="M 2522 4238 
Q 1834 4238 1429 3725 
Q 1025 3213 1025 2328 
Q 1025 1447 1429 934 
Q 1834 422 2522 422 
Q 3209 422 3611 934 
Q 4013 1447 4013 2328 
Q 4013 3213 3611 3725 
Q 3209 4238 2522 4238 
z
M 2522 4750 
Q 3503 4750 4090 4092 
Q 4678 3434 4678 2328 
Q 4678 1225 4090 567 
Q 3503 -91 2522 -91 
Q 1538 -91 948 565 
Q 359 1222 359 2328 
Q 359 3434 948 4092 
Q 1538 4750 2522 4750 
z
" transform="scale(0.015625)"/>
       <path id="DejaVuSans-6e" d="M 3513 2113 
L 3513 0 
L 2938 0 
L 2938 2094 
Q 2938 2591 2744 2837 
Q 2550 3084 2163 3084 
Q 1697 3084 1428 2787 
Q 1159 2491 1159 1978 
L 1159 0 
L 581 0 
L 581 3500 
L 1159 3500 
L 1159 2956 
Q 1366 3272 1645 3428 
Q 1925 3584 2291 3584 
Q 2894 3584 3203 3211 
Q 3513 2838 3513 2113 
z
" transform="scale(0.015625)"/>
       <path id="DejaVuSans-73" d="M 2834 3397 
L 2834 2853 
Q 2591 2978 2328 3040 
Q 2066 3103 1784 3103 
Q 1356 3103 1142 2972 
Q 928 2841 928 2578 
Q 928 2378 1081 2264 
Q 1234 2150 1697 2047 
L 1894 2003 
Q 2506 1872 2764 1633 
Q 3022 1394 3022 966 
Q 3022 478 2636 193 
Q 2250 -91 1575 -91 
Q 1294 -91 989 -36 
Q 684 19 347 128 
L 347 722 
Q 666 556 975 473 
Q 1284 391 1588 391 
Q 1994 391 2212 530 
Q 2431 669 2431 922 
Q 2431 1156 2273 1281 
Q 2116 1406 1581 1522 
L 1381 1569 
Q 847 1681 609 1914 
Q 372 2147 372 2553 
Q 372 3047 722 3315 
Q 1072 3584 1716 3584 
Q 2034 3584 2315 3537 
Q 2597 3491 2834 3397 
z
" transform="scale(0.015625)"/>
       <path id="DejaVuSans-74" d="M 1172 4494 
L 1172 3500 
L 2356 3500 
L 2356 3053 
L 1172 3053 
L 1172 1153 
Q 1172 725 1289 603 
Q 1406 481 1766 481 
L 2356 481 
L 2356 0 
L 1766 0 
Q 1100 0 847 248 
Q 594 497 594 1153 
L 594 3053 
L 172 3053 
L 172 3500 
L 594 3500 
L 594 4494 
L 1172 4494 
z
" transform="scale(0.015625)"/>
       <path id="DejaVuSans-28" d="M 1984 4856 
Q 1566 4138 1362 3434 
Q 1159 2731 1159 2009 
Q 1159 1288 1364 580 
Q 1569 -128 1984 -844 
L 1484 -844 
Q 1016 -109 783 600 
Q 550 1309 550 2009 
Q 550 2706 781 3412 
Q 1013 4119 1484 4856 
L 1984 4856 
z
" transform="scale(0.015625)"/>
       <path id="DejaVuSans-29" d="M 513 4856 
L 1013 4856 
Q 1481 4119 1714 3412 
Q 1947 2706 1947 2009 
Q 1947 1309 1714 600 
Q 1481 -109 1013 -844 
L 513 -844 
Q 928 -128 1133 580 
Q 1338 1288 1338 2009 
Q 1338 2731 1133 3434 
Q 928 4138 513 4856 
z
" transform="scale(0.015625)"/>
      </defs>
      <use xlink:href="#DejaVuSans-54"/>
      <use xlink:href="#DejaVuSans-69" transform="translate(57.958984 0)"/>
      <use xlink:href="#DejaVuSans-6d" transform="translate(85.742188 0)"/>
      <use xlink:href="#DejaVuSans-65" transform="translate(183.154297 0)"/>
      <use xlink:href="#DejaVuSans-20" transform="translate(244.677734 0)"/>
      <use xlink:href="#DejaVuSans-66" transform="translate(276.464844 0)"/>
      <use xlink:href="#DejaVuSans-72" transform="translate(311.669922 0)"/>
      <use xlink:href="#DejaVuSans-6f" transform="translate(350.533203 0)"/>
      <use xlink:href="#DejaVuSans-6d" transform="translate(411.714844 0)"/>
      <use xlink:href="#DejaVuSans-20" transform="translate(509.126953 0)"/>
      <use xlink:href="#DejaVuSans-53" transform="translate(540.914062 0)"/>
      <use xlink:href="#DejaVuSans-61" transform="translate(604.390625 0)"/>
      <use xlink:href="#DejaVuSans-63" transform="translate(665.669922 0)"/>
      <use xlink:href="#DejaVuSans-63" transform="translate(720.650391 0)"/>
      <use xlink:href="#DejaVuSans-61" transform="translate(775.630859 0)"/>
      <use xlink:href="#DejaVuSans-64" transform="translate(836.910156 0)"/>
      <use xlink:href="#DejaVuSans-65" transform="translate(900.386719 0)"/>
      <use xlink:href="#DejaVuSans-20" transform="translate(961.910156 0)"/>
      <use xlink:href="#DejaVuSans-4f" transform="translate(993.697266 0)"/>
      <use xlink:href="#DejaVuSans-6e" transform="translate(1072.408203 0)"/>
      <use xlink:href="#DejaVuSans-73" transform="translate(1135.787109 0)"/>
      <use xlink:href="#DejaVuSans-65" transform="translate(1187.886719 0)"/>
      <use xlink:href="#DejaVuSans-74" transform="translate(1249.410156 0)"/>
      <use xlink:href="#DejaVuSans-20" transform="translate(1288.619141 0)"/>
      <use xlink:href="#DejaVuSans-28" transform="translate(1320.40625 0)"/>
      <use xlink:href="#DejaVuSans-6d" transform="translate(1359.419922 0)"/>
      <use xlink:href="#DejaVuSans-73" transform="translate(1456.832031 0)"/>
      <use xlink:href="#DejaVuSans-29" transform="translate(1508.931641 0)"/>
     </g>
    </g>
   </g>
   <g id="matplotlib.axis_2">
    <g id="ytick_1">
     <g id="line2d_6">
      <defs>
       <path id="m5bf76dca8a" d="M 0 0 
L -3.5 0 
" style="stroke: #000000; stroke-width: 0.8"/>
      </defs>
      <g>
       <use xlink:href="#m5bf76dca8a" x="100.8" y="360.642028" style="stroke: #000000; stroke-width: 0.8"/>
      </g>
     </g>
     <g id="text_7">
      <!-- −0.005 -->
      <g transform="translate(34.5875 366.720778) scale(0.16 -0.16)">
       <defs>
        <path id="DejaVuSans-2e" d="M 684 794 
L 1344 794 
L 1344 0 
L 684 0 
L 684 794 
z
" transform="scale(0.015625)"/>
        <path id="DejaVuSans-35" d="M 691 4666 
L 3169 4666 
L 3169 4134 
L 1269 4134 
L 1269 2991 
Q 1406 3038 1543 3061 
Q 1681 3084 1819 3084 
Q 2600 3084 3056 2656 
Q 3513 2228 3513 1497 
Q 3513 744 3044 326 
Q 2575 -91 1722 -91 
Q 1428 -91 1123 -41 
Q 819 9 494 109 
L 494 744 
Q 775 591 1075 516 
Q 1375 441 1709 441 
Q 2250 441 2565 725 
Q 2881 1009 2881 1497 
Q 2881 1984 2565 2268 
Q 2250 2553 1709 2553 
Q 1456 2553 1204 2497 
Q 953 2441 691 2322 
L 691 4666 
z
" transform="scale(0.015625)"/>
       </defs>
       <use xlink:href="#DejaVuSans-2212"/>
       <use xlink:href="#DejaVuSans-30" transform="translate(83.789062 0)"/>
       <use xlink:href="#DejaVuSans-2e" transform="translate(147.412109 0)"/>
       <use xlink:href="#DejaVuSans-30" transform="translate(179.199219 0)"/>
       <use xlink:href="#DejaVuSans-30" transform="translate(242.822266 0)"/>
       <use xlink:href="#DejaVuSans-35" transform="translate(306.445312 0)"/>
      </g>
     </g>
    </g>
    <g id="ytick_2">
     <g id="line2d_7">
      <g>
       <use xlink:href="#m5bf76dca8a" x="100.8" y="311.315227" style="stroke: #000000; stroke-width: 0.8"/>
      </g>
     </g>
     <g id="text_8">
      <!-- 0.000 -->
      <g transform="translate(47.995 317.393977) scale(0.16 -0.16)">
       <use xlink:href="#DejaVuSans-30"/>
       <use xlink:href="#DejaVuSans-2e" transform="translate(63.623047 0)"/>
       <use xlink:href="#DejaVuSans-30" transform="translate(95.410156 0)"/>
       <use xlink:href="#DejaVuSans-30" transform="translate(159.033203 0)"/>
       <use xlink:href="#DejaVuSans-30" transform="translate(222.65625 0)"/>
      </g>
     </g>
    </g>
    <g id="ytick_3">
     <g id="line2d_8">
      <g>
       <use xlink:href="#m5bf76dca8a" x="100.8" y="261.988426" style="stroke: #000000; stroke-width: 0.8"/>
      </g>
     </g>
     <g id="text_9">
      <!-- 0.005 -->
      <g transform="translate(47.995 268.067176) scale(0.16 -0.16)">
       <use xlink:href="#DejaVuSans-30"/>
       <use xlink:href="#DejaVuSans-2e" transform="translate(63.623047 0)"/>
       <use xlink:href="#DejaVuSans-30" transform="translate(95.410156 0)"/>
       <use xlink:href="#DejaVuSans-30" transform="translate(159.033203 0)"/>
       <use xlink:href="#DejaVuSans-35" transform="translate(222.65625 0)"/>
      </g>
     </g>
    </g>
    <g id="ytick_4">
     <g id="line2d_9">
      <g>
       <use xlink:href="#m5bf76dca8a" x="100.8" y="212.661626" style="stroke: #000000; stroke-width: 0.8"/>
      </g>
     </g>
     <g id="text_10">
      <!-- 0.010 -->
      <g transform="translate(47.995 218.740376) scale(0.16 -0.16)">
       <use xlink:href="#DejaVuSans-30"/>
       <use xlink:href="#DejaVuSans-2e" transform="translate(63.623047 0)"/>
       <use xlink:href="#DejaVuSans-30" transform="translate(95.410156 0)"/>
       <use xlink:href="#DejaVuSans-31" transform="translate(159.033203 0)"/>
       <use xlink:href="#DejaVuSans-30" transform="translate(222.65625 0)"/>
      </g>
     </g>
    </g>
    <g id="ytick_5">
     <g id="line2d_10">
      <g>
       <use xlink:href="#m5bf76dca8a" x="100.8" y="163.334825" style="stroke: #000000; stroke-width: 0.8"/>
      </g>
     </g>
     <g id="text_11">
      <!-- 0.015 -->
      <g transform="translate(47.995 169.413575) scale(0.16 -0.16)">
       <use xlink:href="#DejaVuSans-30"/>
       <use xlink:href="#DejaVuSans-2e" transform="translate(63.623047 0)"/>
       <use xlink:href="#DejaVuSans-30" transform="translate(95.410156 0)"/>
       <use xlink:href="#DejaVuSans-31" transform="translate(159.033203 0)"/>
       <use xlink:href="#DejaVuSans-35" transform="translate(222.65625 0)"/>
      </g>
     </g>
    </g>
    <g id="ytick_6">
     <g id="line2d_11">
      <g>
       <use xlink:href="#m5bf76dca8a" x="100.8" y="114.008025" style="stroke: #000000; stroke-width: 0.8"/>
      </g>
     </g>
     <g id="text_12">
      <!-- 0.020 -->
      <g transform="translate(47.995 120.086775) scale(0.16 -0.16)">
       <use xlink:href="#DejaVuSans-30"/>
       <use xlink:href="#DejaVuSans-2e" transform="translate(63.623047 0)"/>
       <use xlink:href="#DejaVuSans-30" transform="translate(95.410156 0)"/>
       <use xlink:href="#DejaVuSans-32" transform="translate(159.033203 0)"/>
       <use xlink:href="#DejaVuSans-30" transform="translate(222.65625 0)"/>
      </g>
     </g>
    </g>
    <g id="ytick_7">
     <g id="line2d_12">
      <g>
       <use xlink:href="#m5bf76dca8a" x="100.8" y="64.681224" style="stroke: #000000; stroke-width: 0.8"/>
      </g>
     </g>
     <g id="text_13">
      <!-- 0.025 -->
      <g transform="translate(47.995 70.759974) scale(0.16 -0.16)">
       <use xlink:href="#DejaVuSans-30"/>
       <use xlink:href="#DejaVuSans-2e" transform="translate(63.623047 0)"/>
       <use xlink:href="#DejaVuSans-30" transform="translate(95.410156 0)"/>
       <use xlink:href="#DejaVuSans-32" transform="translate(159.033203 0)"/>
       <use xlink:href="#DejaVuSans-35" transform="translate(222.65625 0)"/>
      </g>
     </g>
    </g>
    <g id="text_14">
     <!-- Directed predictability gain (bits) -->
     <g transform="translate(26.844062 364.685625) rotate(-90) scale(0.18 -0.18)">
      <defs>
       <path id="DejaVuSans-44" d="M 1259 4147 
L 1259 519 
L 2022 519 
Q 2988 519 3436 956 
Q 3884 1394 3884 2338 
Q 3884 3275 3436 3711 
Q 2988 4147 2022 4147 
L 1259 4147 
z
M 628 4666 
L 1925 4666 
Q 3281 4666 3915 4102 
Q 4550 3538 4550 2338 
Q 4550 1131 3912 565 
Q 3275 0 1925 0 
L 628 0 
L 628 4666 
z
" transform="scale(0.015625)"/>
       <path id="DejaVuSans-70" d="M 1159 525 
L 1159 -1331 
L 581 -1331 
L 581 3500 
L 1159 3500 
L 1159 2969 
Q 1341 3281 1617 3432 
Q 1894 3584 2278 3584 
Q 2916 3584 3314 3078 
Q 3713 2572 3713 1747 
Q 3713 922 3314 415 
Q 2916 -91 2278 -91 
Q 1894 -91 1617 61 
Q 1341 213 1159 525 
z
M 3116 1747 
Q 3116 2381 2855 2742 
Q 2594 3103 2138 3103 
Q 1681 3103 1420 2742 
Q 1159 2381 1159 1747 
Q 1159 1113 1420 752 
Q 1681 391 2138 391 
Q 2594 391 2855 752 
Q 3116 1113 3116 1747 
z
" transform="scale(0.015625)"/>
       <path id="DejaVuSans-62" d="M 3116 1747 
Q 3116 2381 2855 2742 
Q 2594 3103 2138 3103 
Q 1681 3103 1420 2742 
Q 1159 2381 1159 1747 
Q 1159 1113 1420 752 
Q 1681 391 2138 391 
Q 2594 391 2855 752 
Q 3116 1113 3116 1747 
z
M 1159 2969 
Q 1341 3281 1617 3432 
Q 1894 3584 2278 3584 
Q 2916 3584 3314 3078 
Q 3713 2572 3713 1747 
Q 3713 922 3314 415 
Q 2916 -91 2278 -91 
Q 1894 -91 1617 61 
Q 1341 213 1159 525 
L 1159 0 
L 581 0 
L 581 4863 
L 1159 4863 
L 1159 2969 
z
" transform="scale(0.015625)"/>
       <path id="DejaVuSans-6c" d="M 603 4863 
L 1178 4863 
L 1178 0 
L 603 0 
L 603 4863 
z
" transform="scale(0.015625)"/>
       <path id="DejaVuSans-79" d="M 2059 -325 
Q 1816 -950 1584 -1140 
Q 1353 -1331 966 -1331 
L 506 -1331 
L 506 -850 
L 844 -850 
Q 1081 -850 1212 -737 
Q 1344 -625 1503 -206 
L 1606 56 
L 191 3500 
L 800 3500 
L 1894 763 
L 2988 3500 
L 3597 3500 
L 2059 -325 
z
" transform="scale(0.015625)"/>
       <path id="DejaVuSans-67" d="M 2906 1791 
Q 2906 2416 2648 2759 
Q 2391 3103 1925 3103 
Q 1463 3103 1205 2759 
Q 947 2416 947 1791 
Q 947 1169 1205 825 
Q 1463 481 1925 481 
Q 2391 481 2648 825 
Q 2906 1169 2906 1791 
z
M 3481 434 
Q 3481 -459 3084 -895 
Q 2688 -1331 1869 -1331 
Q 1566 -1331 1297 -1286 
Q 1028 -1241 775 -1147 
L 775 -588 
Q 1028 -725 1275 -790 
Q 1522 -856 1778 -856 
Q 2344 -856 2625 -561 
Q 2906 -266 2906 331 
L 2906 616 
Q 2728 306 2450 153 
Q 2172 0 1784 0 
Q 1141 0 747 490 
Q 353 981 353 1791 
Q 353 2603 747 3093 
Q 1141 3584 1784 3584 
Q 2172 3584 2450 3431 
Q 2728 3278 2906 2969 
L 2906 3500 
L 3481 3500 
L 3481 434 
z
" transform="scale(0.015625)"/>
      </defs>
      <use xlink:href="#DejaVuSans-44"/>
      <use xlink:href="#DejaVuSans-69" transform="translate(77.001953 0)"/>
      <use xlink:href="#DejaVuSans-72" transform="translate(104.785156 0)"/>
      <use xlink:href="#DejaVuSans-65" transform="translate(143.648438 0)"/>
      <use xlink:href="#DejaVuSans-63" transform="translate(205.171875 0)"/>
      <use xlink:href="#DejaVuSans-74" transform="translate(260.152344 0)"/>
      <use xlink:href="#DejaVuSans-65" transform="translate(299.361328 0)"/>
      <use xlink:href="#DejaVuSans-64" transform="translate(360.884766 0)"/>
      <use xlink:href="#DejaVuSans-20" transform="translate(424.361328 0)"/>
      <use xlink:href="#DejaVuSans-70" transform="translate(456.148438 0)"/>
      <use xlink:href="#DejaVuSans-72" transform="translate(519.625 0)"/>
      <use xlink:href="#DejaVuSans-65" transform="translate(558.488281 0)"/>
      <use xlink:href="#DejaVuSans-64" transform="translate(620.011719 0)"/>
      <use xlink:href="#DejaVuSans-69" transform="translate(683.488281 0)"/>
      <use xlink:href="#DejaVuSans-63" transform="translate(711.271484 0)"/>
      <use xlink:href="#DejaVuSans-74" transform="translate(766.251953 0)"/>
      <use xlink:href="#DejaVuSans-61" transform="translate(805.460938 0)"/>
      <use xlink:href="#DejaVuSans-62" transform="translate(866.740234 0)"/>
      <use xlink:href="#DejaVuSans-69" transform="translate(930.216797 0)"/>
      <use xlink:href="#DejaVuSans-6c" transform="translate(958 0)"/>
      <use xlink:href="#DejaVuSans-69" transform="translate(985.783203 0)"/>
      <use xlink:href="#DejaVuSans-74" transform="translate(1013.566406 0)"/>
      <use xlink:href="#DejaVuSans-79" transform="translate(1052.775391 0)"/>
      <use xlink:href="#DejaVuSans-20" transform="translate(1111.955078 0)"/>
      <use xlink:href="#DejaVuSans-67" transform="translate(1143.742188 0)"/>
      <use xlink:href="#DejaVuSans-61" transform="translate(1207.21875 0)"/>
      <use xlink:href="#DejaVuSans-69" transform="translate(1268.498047 0)"/>
      <use xlink:href="#DejaVuSans-6e" transform="translate(1296.28125 0)"/>
      <use xlink:href="#DejaVuSans-20" transform="translate(1359.660156 0)"/>
      <use xlink:href="#DejaVuSans-28" transform="translate(1391.447266 0)"/>
      <use xlink:href="#DejaVuSans-62" transform="translate(1430.460938 0)"/>
      <use xlink:href="#DejaVuSans-69" transform="translate(1493.9375 0)"/>
      <use xlink:href="#DejaVuSans-74" transform="translate(1521.720703 0)"/>
      <use xlink:href="#DejaVuSans-73" transform="translate(1560.929688 0)"/>
      <use xlink:href="#DejaVuSans-29" transform="translate(1613.029297 0)"/>
     </g>
    </g>
   </g>
   <g id="line2d_13">
    <path d="M 526.922449 396 
L 526.922449 36 
" clip-path="url(#pb1cb549684)" style="fill: none; stroke-dasharray: 2.96,1.28; stroke-dashoffset: 0; stroke: #000000; stroke-width: 0.8"/>
   </g>
   <g id="line2d_14">
    <path d="M 100.8 311.315227 
L 820.8 311.315227 
" clip-path="url(#pb1cb549684)" style="fill: none; stroke-dasharray: 0.8,1.32; stroke-dashoffset: 0; stroke: #000000; stroke-width: 0.8"/>
   </g>
   <g id="line2d_15">
    <path d="M 27.330607 212.675441 
L 42.024492 269.952244 
L 56.718378 277.27474 
L 71.412241 318.679285 
L 86.106116 313.693195 
L 100.800001 343.113084 
L 115.493876 353.244176 
L 130.18775 339.933459 
L 144.881636 284.159058 
L 159.57551 260.762234 
L 174.269385 242.674093 
L 188.963265 263.195851 
L 203.657139 258.943801 
L 218.351019 293.647945 
L 233.044899 268.815936 
L 247.738774 260.244295 
L 262.432653 274.814559 
L 277.126533 299.96375 
L 291.820408 311.219839 
L 306.514288 294.533062 
L 321.208168 314.637428 
L 335.902042 308.799135 
L 350.59592 286.309666 
L 365.289797 286.885957 
L 379.983674 261.73343 
L 394.677551 257.916667 
L 409.371428 207.139007 
L 424.065306 211.275238 
L 438.759183 210.142053 
L 453.453061 198.894947 
L 468.146939 217.492541 
L 482.840816 205.738598 
L 497.534694 205.388715 
L 512.228571 180.842006 
L 526.922449 148.490081 
L 541.616327 190.12678 
L 556.310204 219.022422 
L 571.004082 271.510509 
L 585.697959 251.227505 
L 600.391836 245.624674 
L 615.085715 233.337266 
L 629.779592 256.482978 
L 644.473469 247.008611 
L 659.167347 264.235549 
L 673.861224 281.28568 
L 688.555101 293.986978 
L 703.248978 305.345677 
L 717.942856 307.998642 
L 732.63673 290.720682 
L 747.33061 277.834077 
L 762.02449 278.817139 
L 776.718365 290.532551 
L 791.412244 274.605468 
L 806.106124 244.515385 
L 820.799999 245.998641 
L 835.493879 239.289773 
L 850.187759 264.73186 
L 857.8 276.270166 
" clip-path="url(#pb1cb549684)" style="fill: none; stroke: #7b4fa3; stroke-width: 2.5; stroke-linecap: square"/>
   </g>
   <g id="line2d_16">
    <path d="M 27.330607 306.983202 
L 42.024492 330.524037 
L 56.718378 332.224209 
L 71.412241 336.590929 
L 86.106116 321.267623 
L 100.800001 319.27502 
L 115.493876 307.951442 
L 130.18775 298.491379 
L 144.881636 300.967397 
L 159.57551 301.367878 
L 174.269385 302.493004 
L 188.963265 278.217028 
L 203.657139 274.957769 
L 218.351019 285.458717 
L 233.044899 289.830433 
L 247.738774 255.977801 
L 262.432653 242.744717 
L 277.126533 249.307207 
L 291.820408 281.672196 
L 306.514288 295.930893 
L 321.208168 299.077881 
L 335.902042 295.935038 
L 350.59592 298.893204 
L 365.289797 285.223068 
L 379.983674 300.774014 
L 394.677551 284.605217 
L 409.371428 277.86551 
L 424.065306 268.18852 
L 438.759183 254.483527 
L 453.453061 237.960926 
L 468.146939 224.998698 
L 482.840816 234.274847 
L 497.534694 229.495002 
L 512.228571 221.861497 
L 526.922449 188.434733 
L 541.616327 209.457748 
L 556.310204 210.032204 
L 571.004082 254.064873 
L 585.697959 246.930964 
L 600.391836 257.966833 
L 615.085715 210.78062 
L 629.779592 194.678345 
L 644.473469 191.742369 
L 659.167347 195.199979 
L 673.861224 231.011907 
L 688.555101 243.410341 
L 703.248978 281.032617 
L 717.942856 289.246514 
L 732.63673 275.896622 
L 747.33061 275.822953 
L 762.02449 263.950023 
L 776.718365 303.150811 
L 791.412244 305.350018 
L 806.106124 315.509758 
L 820.799999 299.169071 
L 835.493879 288.275552 
L 850.187759 278.044428 
L 857.8 281.300968 
" clip-path="url(#pb1cb549684)" style="fill: none; stroke: #c00a37; stroke-width: 2.5; stroke-linecap: square"/>
   </g>
   <g id="patch_3">
    <path d="M 100.8 396 
L 100.8 36 
" style="fill: none; stroke: #000000; stroke-width: 0.8; stroke-linejoin: miter; stroke-linecap: square"/>
   </g>
   <g id="patch_4">
    <path d="M 820.8 396 
L 820.8 36 
" style="fill: none; stroke: #000000; stroke-width: 0.8; stroke-linejoin: miter; stroke-linecap: square"/>
   </g>
   <g id="patch_5">
    <path d="M 100.8 396 
L 820.8 396 
" style="fill: none; stroke: #000000; stroke-width: 0.8; stroke-linejoin: miter; stroke-linecap: square"/>
   </g>
   <g id="patch_6">
    <path d="M 100.8 36 
L 820.8 36 
" style="fill: none; stroke: #000000; stroke-width: 0.8; stroke-linejoin: miter; stroke-linecap: square"/>
   </g>
   <g id="PathCollection_1">
    <defs>
     <path id="md6a2e2d0ad" d="M 0 1.870829 
C 0.49615 1.870829 0.972045 1.673706 1.322876 1.322876 
C 1.673706 0.972045 1.870829 0.49615 1.870829 0 
C 1.870829 -0.49615 1.673706 -0.972045 1.322876 -1.322876 
C 0.972045 -1.673706 0.49615 -1.870829 0 -1.870829 
C -0.49615 -1.870829 -0.972045 -1.673706 -1.322876 -1.322876 
C -1.673706 -0.972045 -1.870829 -0.49615 -1.870829 0 
C -1.870829 0.49615 -1.673706 0.972045 -1.322876 1.322876 
C -0.972045 1.673706 -0.49615 1.870829 0 1.870829 
z
" style="stroke: #7b4fa3"/>
    </defs>
    <g clip-path="url(#pb1cb549684)">
     <use xlink:href="#md6a2e2d0ad" x="27.330607" y="378" style="fill: #7b4fa3; stroke: #7b4fa3"/>
     <use xlink:href="#md6a2e2d0ad" x="42.024492" y="378" style="fill: #7b4fa3; stroke: #7b4fa3"/>
     <use xlink:href="#md6a2e2d0ad" x="56.718378" y="378" style="fill: #7b4fa3; stroke: #7b4fa3"/>
     <use xlink:href="#md6a2e2d0ad" x="174.269385" y="378" style="fill: #7b4fa3; stroke: #7b4fa3"/>
     <use xlink:href="#md6a2e2d0ad" x="409.371428" y="378" style="fill: #7b4fa3; stroke: #7b4fa3"/>
     <use xlink:href="#md6a2e2d0ad" x="424.065306" y="378" style="fill: #7b4fa3; stroke: #7b4fa3"/>
     <use xlink:href="#md6a2e2d0ad" x="438.759183" y="378" style="fill: #7b4fa3; stroke: #7b4fa3"/>
     <use xlink:href="#md6a2e2d0ad" x="806.106124" y="378" style="fill: #7b4fa3; stroke: #7b4fa3"/>
     <use xlink:href="#md6a2e2d0ad" x="820.799999" y="378" style="fill: #7b4fa3; stroke: #7b4fa3"/>
    </g>
   </g>
   <g id="PathCollection_2">
    <defs>
     <path id="ma392f740a6" d="M 0 1.870829 
C 0.49615 1.870829 0.972045 1.673706 1.322876 1.322876 
C 1.673706 0.972045 1.870829 0.49615 1.870829 0 
C 1.870829 -0.49615 1.673706 -0.972045 1.322876 -1.322876 
C 0.972045 -1.673706 0.49615 -1.870829 0 -1.870829 
C -0.49615 -1.870829 -0.972045 -1.673706 -1.322876 -1.322876 
C -1.673706 -0.972045 -1.870829 -0.49615 -1.870829 0 
C -1.870829 0.49615 -1.673706 0.972045 -1.322876 1.322876 
C -0.972045 1.673706 -0.49615 1.870829 0 1.870829 
z
" style="stroke: #c00a37"/>
    </defs>
    <g clip-path="url(#pb1cb549684)">
     <use xlink:href="#ma392f740a6" x="277.126533" y="378" style="fill: #c00a37; stroke: #c00a37"/>
     <use xlink:href="#ma392f740a6" x="629.779592" y="378" style="fill: #c00a37; stroke: #c00a37"/>
     <use xlink:href="#ma392f740a6" x="644.473469" y="378" style="fill: #c00a37; stroke: #c00a37"/>
     <use xlink:href="#ma392f740a6" x="659.167347" y="378" style="fill: #c00a37; stroke: #c00a37"/>
     <use xlink:href="#ma392f740a6" x="673.861224" y="378" style="fill: #c00a37; stroke: #c00a37"/>
     <use xlink:href="#ma392f740a6" x="688.555101" y="378" style="fill: #c00a37; stroke: #c00a37"/>
    </g>
   </g>
   <g id="legend_1">
    <g id="line2d_17">
     <path d="M 114.3 55.647656 
L 129.3 55.647656 
L 144.3 55.647656 
" style="fill: none; stroke: #7b4fa3; stroke-width: 2.5; stroke-linecap: square"/>
    </g>
    <g id="text_15">
     <!-- MSC→MLIP -->
     <g transform="translate(156.3 60.897656) scale(0.15 -0.15)">
      <defs>
       <path id="DejaVuSans-4d" d="M 628 4666 
L 1569 4666 
L 2759 1491 
L 3956 4666 
L 4897 4666 
L 4897 0 
L 4281 0 
L 4281 4097 
L 3078 897 
L 2444 897 
L 1241 4097 
L 1241 0 
L 628 0 
L 628 4666 
z
" transform="scale(0.015625)"/>
       <path id="DejaVuSans-43" d="M 4122 4306 
L 4122 3641 
Q 3803 3938 3442 4084 
Q 3081 4231 2675 4231 
Q 1875 4231 1450 3742 
Q 1025 3253 1025 2328 
Q 1025 1406 1450 917 
Q 1875 428 2675 428 
Q 3081 428 3442 575 
Q 3803 722 4122 1019 
L 4122 359 
Q 3791 134 3420 21 
Q 3050 -91 2638 -91 
Q 1578 -91 968 557 
Q 359 1206 359 2328 
Q 359 3453 968 4101 
Q 1578 4750 2638 4750 
Q 3056 4750 3426 4639 
Q 3797 4528 4122 4306 
z
" transform="scale(0.015625)"/>
       <path id="DejaVuSans-2192" d="M 5050 2147 
L 5050 1866 
L 3822 638 
L 3447 1013 
L 4175 1741 
L 366 1741 
L 366 2272 
L 4175 2272 
L 3447 3000 
L 3822 3375 
L 5050 2147 
z
" transform="scale(0.015625)"/>
       <path id="DejaVuSans-4c" d="M 628 4666 
L 1259 4666 
L 1259 531 
L 3531 531 
L 3531 0 
L 628 0 
L 628 4666 
z
" transform="scale(0.015625)"/>
       <path id="DejaVuSans-49" d="M 628 4666 
L 1259 4666 
L 1259 0 
L 628 0 
L 628 4666 
z
" transform="scale(0.015625)"/>
       <path id="DejaVuSans-50" d="M 1259 4147 
L 1259 2394 
L 2053 2394 
Q 2494 2394 2734 2622 
Q 2975 2850 2975 3272 
Q 2975 3691 2734 3919 
Q 2494 4147 2053 4147 
L 1259 4147 
z
M 628 4666 
L 2053 4666 
Q 2838 4666 3239 4311 
Q 3641 3956 3641 3272 
Q 3641 2581 3239 2228 
Q 2838 1875 2053 1875 
L 1259 1875 
L 1259 0 
L 628 0 
L 628 4666 
z
" transform="scale(0.015625)"/>
      </defs>
      <use xlink:href="#DejaVuSans-4d"/>
      <use xlink:href="#DejaVuSans-53" transform="translate(86.279297 0)"/>
      <use xlink:href="#DejaVuSans-43" transform="translate(149.755859 0)"/>
      <use xlink:href="#DejaVuSans-2192" transform="translate(219.580078 0)"/>
      <use xlink:href="#DejaVuSans-4d" transform="translate(303.369141 0)"/>
      <use xlink:href="#DejaVuSans-4c" transform="translate(389.648438 0)"/>
      <use xlink:href="#DejaVuSans-49" transform="translate(445.361328 0)"/>
      <use xlink:href="#DejaVuSans-50" transform="translate(474.853516 0)"/>
     </g>
    </g>
    <g id="line2d_18">
     <path d="M 114.3 77.664844 
L 129.3 77.664844 
L 144.3 77.664844 
" style="fill: none; stroke: #c00a37; stroke-width: 2.5; stroke-linecap: square"/>
    </g>
    <g id="text_16">
     <!-- MLIP→MSC -->
     <g transform="translate(156.3 82.914844) scale(0.15 -0.15)">
      <use xlink:href="#DejaVuSans-4d"/>
      <use xlink:href="#DejaVuSans-4c" transform="translate(86.279297 0)"/>
      <use xlink:href="#DejaVuSans-49" transform="translate(141.992188 0)"/>
      <use xlink:href="#DejaVuSans-50" transform="translate(171.484375 0)"/>
      <use xlink:href="#DejaVuSans-2192" transform="translate(231.787109 0)"/>
      <use xlink:href="#DejaVuSans-4d" transform="translate(315.576172 0)"/>
      <use xlink:href="#DejaVuSans-53" transform="translate(401.855469 0)"/>
      <use xlink:href="#DejaVuSans-43" transform="translate(465.332031 0)"/>
     </g>
    </g>
   </g>
  </g>
 </g>
 <defs>
  <clipPath id="pb1cb549684">
   <rect x="100.8" y="36" width="720" height="360"/>
  </clipPath>
 </defs>
</svg>
