<?xml version="1.0" encoding="utf-8" standalone="no"?>
<!DOCTYPE svg PUBLIC "-//W3C//DTD SVG 1.1//EN"
  "http://www.w3.org/Graphics/SVG/1.1/DTD/svg11.dtd">
<svg xmlns:xlink="http://www.w3.org/1999/xlink" width="561.6pt" height="561.6pt" viewBox="0 0 561.6 561.6" xmlns="http://www.w3.org/2000/svg" version="1.1">
 <metadata>
  <rdf:RDF xmlns:dc="http://purl.org/dc/elements/1.1/" xmlns:cc="http://creativecommons.org/ns#" xmlns:rdf="http://www.w3.org/1999/02/22-rdf-syntax-ns#">
   <cc:Work>
    <dc:type rdf:resource="http://purl.org/dc/dcmitype/StillImage"/>
    <dc:date>2025-12-08T02:08:43.123990</dc:date>
    <dc:format>image/svg+xml</dc:format>
    <dc:creator>
     <cc:Agent>
      <dc:title>Matplotlib v3.10.5, https://matplotlib.org/</dc:title>
     </cc:Agent>
    </dc:creator>
   </cc:Work>
  </rdf:RDF>
 </metadata>
 <defs>
  <style type="text/css">*{stroke-linejoin: round; stroke-linecap: butt}</style>
 </defs>
 <g id="figure_1">
  <g id="patch_1">
   <path d="M 0 561.6 
L 561.6 561.6 
L 561.6 0 
L 0 0 
z
" style="fill: #ffffff"/>
  </g>
  <g id="axes_1">
   <g id="patch_2">
    <path d="M 70.2 206.388 
L 505.44 206.388 
L 505.44 67.392 
L 70.2 67.392 
z
" style="fill: #ffffff"/>
   </g>
   <g id="FillBetweenPolyCollection_1">
    <defs>
     <path id="mb7f19f71fb" d="M 89.983636 -434.060581 
L 89.983636 -384.969122 
L 93.980327 -392.577841 
L 97.977023 -390.540368 
L 101.973713 -385.899748 
L 105.97041 -386.867259 
L 109.967106 -389.992568 
L 113.963796 -395.657422 
L 117.960493 -384.235386 
L 121.957186 -385.843901 
L 125.953882 -391.88002 
L 129.950576 -389.397669 
L 133.947269 -389.138025 
L 137.943962 -388.969296 
L 141.940659 -386.539427 
L 145.937352 -385.319855 
L 149.934045 -390.114271 
L 153.93074 -392.085191 
L 157.927434 -387.815104 
L 161.924129 -392.856697 
L 165.920823 -391.684573 
L 169.917517 -390.72227 
L 173.914211 -390.572465 
L 177.910906 -391.052346 
L 181.9076 -387.434987 
L 185.904294 -389.501849 
L 189.900988 -387.534062 
L 193.897681 -389.89202 
L 197.894377 -388.640572 
L 201.891071 -384.768526 
L 205.887764 -387.357256 
L 209.884457 -391.310631 
L 213.881154 -386.298422 
L 217.877847 -390.373073 
L 221.874543 -389.75892 
L 225.871234 -385.842138 
L 229.86793 -383.561582 
L 233.864626 -386.2744 
L 237.861317 -387.604581 
L 241.858013 -388.517559 
L 245.854704 -388.276807 
L 249.8514 -393.82663 
L 253.848096 -391.717043 
L 257.844787 -388.696914 
L 261.841483 -387.436278 
L 265.838179 -383.490731 
L 269.83487 -382.266015 
L 273.83156 -387.967633 
L 277.828262 -391.66126 
L 281.824953 -396.039999 
L 285.821643 -386.41864 
L 289.818345 -388.397206 
L 293.815036 -391.795272 
L 297.811726 -386.581476 
L 301.808428 -388.526707 
L 305.805119 -389.168475 
L 309.801809 -383.979629 
L 313.798511 -386.651395 
L 317.795202 -387.155669 
L 321.791892 -388.679202 
L 325.788594 -390.478361 
L 329.785285 -389.151947 
L 333.781975 -386.472689 
L 337.778677 -383.271954 
L 341.775368 -389.513922 
L 345.772058 -388.369273 
L 349.76876 -384.473642 
L 353.765451 -387.89627 
L 357.762141 -390.216523 
L 361.758843 -389.571545 
L 365.755534 -390.661504 
L 369.752224 -383.451925 
L 373.748914 -388.239935 
L 377.745605 -388.985065 
L 381.742319 -382.929089 
L 385.739009 -391.449102 
L 389.7357 -387.628694 
L 393.73239 -387.346389 
L 397.72908 -382.676944 
L 401.725771 -393.99485 
L 405.722485 -389.709259 
L 409.719175 -392.75992 
L 413.715866 -387.421289 
L 417.712556 -394.21404 
L 421.709246 -390.739729 
L 425.705937 -384.019289 
L 429.702627 -381.205738 
L 433.699341 -388.853715 
L 437.696032 -386.236316 
L 441.692722 -386.723665 
L 445.689412 -385.034639 
L 449.686103 -382.630003 
L 453.682793 -390.826497 
L 457.679507 -380.360202 
L 461.676198 -388.600217 
L 465.672888 -392.156047 
L 469.669578 -391.152133 
L 473.666269 -388.0426 
L 477.662959 -391.751733 
L 481.659673 -387.052484 
L 485.656364 -387.286541 
L 485.656364 -432.877612 
L 485.656364 -432.877612 
L 481.659673 -435.353859 
L 477.662959 -438.082421 
L 473.666269 -436.134968 
L 469.669578 -437.400313 
L 465.672888 -439.545732 
L 461.676198 -433.986891 
L 457.679507 -427.019736 
L 453.682793 -435.787423 
L 449.686103 -426.006006 
L 445.689412 -431.692925 
L 441.692722 -434.091127 
L 437.696032 -434.227189 
L 433.699341 -436.943667 
L 429.702627 -425.767108 
L 425.705937 -429.355196 
L 421.709246 -437.990045 
L 417.712556 -438.460044 
L 413.715866 -432.482733 
L 409.719175 -439.780634 
L 405.722485 -435.716445 
L 401.725771 -439.697683 
L 397.72908 -426.532664 
L 393.73239 -430.558544 
L 389.7357 -431.338896 
L 385.739009 -441.525015 
L 381.742319 -425.585311 
L 377.745605 -436.170508 
L 373.748914 -433.570535 
L 369.752224 -426.588831 
L 365.755534 -436.998234 
L 361.758843 -436.110561 
L 357.762141 -437.146623 
L 353.765451 -433.130438 
L 349.76876 -430.862752 
L 345.772058 -433.068774 
L 341.775368 -433.908408 
L 337.778677 -433.896616 
L 333.781975 -432.187731 
L 329.785285 -441.94256 
L 325.788594 -433.576336 
L 321.791892 -435.840657 
L 317.795202 -432.075181 
L 313.798511 -429.549511 
L 309.801809 -430.27688 
L 305.805119 -432.549814 
L 301.808428 -433.434032 
L 297.811726 -430.285722 
L 293.815036 -436.920905 
L 289.818345 -434.151438 
L 285.821643 -442.273369 
L 281.824953 -448.249769 
L 277.828262 -438.236987 
L 273.83156 -433.350909 
L 269.83487 -435.9433 
L 265.838179 -426.511634 
L 261.841483 -435.627739 
L 257.844787 -437.724777 
L 253.848096 -437.837989 
L 249.8514 -444.636191 
L 245.854704 -431.726555 
L 241.858013 -435.095237 
L 237.861317 -435.176459 
L 233.864626 -433.349732 
L 229.86793 -431.204215 
L 225.871234 -431.565918 
L 221.874543 -438.095313 
L 217.877847 -437.135792 
L 213.881154 -433.444002 
L 209.884457 -435.772142 
L 205.887764 -428.723207 
L 201.891071 -429.497418 
L 197.894377 -435.591392 
L 193.897681 -434.669377 
L 189.900988 -432.881956 
L 185.904294 -434.784651 
L 181.9076 -433.4174 
L 177.910906 -435.018924 
L 173.914211 -433.503565 
L 169.917517 -435.307771 
L 165.920823 -438.418039 
L 161.924129 -437.307866 
L 157.927434 -435.817093 
L 153.93074 -435.122476 
L 149.934045 -435.074954 
L 145.937352 -428.294178 
L 141.940659 -432.942825 
L 137.943962 -435.104558 
L 133.947269 -433.873694 
L 129.950576 -433.516477 
L 125.953882 -435.553183 
L 121.957186 -432.742612 
L 117.960493 -432.220655 
L 113.963796 -446.679942 
L 109.967106 -436.461366 
L 105.97041 -435.019931 
L 101.973713 -431.271246 
L 97.977023 -438.625175 
L 93.980327 -438.434123 
L 89.983636 -434.060581 
z
"/>
    </defs>
    <g clip-path="url(#p00aec6ee90)">
     <use xlink:href="#mb7f19f71fb" x="0" y="561.6" style="fill: #1f77b4; fill-opacity: 0.15"/>
    </g>
   </g>
   <g id="FillBetweenPolyCollection_2">
    <defs>
     <path id="ma6960ce496" d="M 89.983636 -433.526971 
L 89.983636 -386.256118 
L 93.980327 -392.425662 
L 97.977023 -384.342002 
L 101.973713 -387.151159 
L 105.97041 -387.509873 
L 109.967106 -389.257173 
L 113.963796 -389.975086 
L 117.960493 -387.628581 
L 121.957186 -390.275121 
L 125.953882 -386.294694 
L 129.950576 -388.692529 
L 133.947269 -383.268652 
L 137.943962 -387.904578 
L 141.940659 -384.121501 
L 145.937352 -388.861159 
L 149.934045 -392.302672 
L 153.93074 -390.025183 
L 157.927434 -389.272401 
L 161.924129 -385.677602 
L 165.920823 -384.697315 
L 169.917517 -387.10534 
L 173.914211 -388.796476 
L 177.910906 -388.2476 
L 181.9076 -389.350952 
L 185.904294 -387.227214 
L 189.900988 -388.911813 
L 193.897681 -385.827018 
L 197.894377 -389.982379 
L 201.891071 -387.706217 
L 205.887764 -392.296805 
L 209.884457 -392.061179 
L 213.881154 -388.483198 
L 217.877847 -390.407969 
L 221.874543 -391.485241 
L 225.871234 -385.194972 
L 229.86793 -391.423317 
L 233.864626 -383.068304 
L 237.861317 -384.81082 
L 241.858013 -389.140385 
L 245.854704 -393.229945 
L 249.8514 -391.628268 
L 253.848096 -394.056447 
L 257.844787 -391.232516 
L 261.841483 -391.10231 
L 265.838179 -388.017833 
L 269.83487 -389.812326 
L 273.83156 -386.84679 
L 277.828262 -390.693397 
L 281.824953 -389.538301 
L 285.821643 -387.833154 
L 289.818345 -389.508885 
L 293.815036 -387.474684 
L 297.811726 -389.143105 
L 301.808428 -388.074671 
L 305.805119 -389.053778 
L 309.801809 -387.464695 
L 313.798511 -392.263914 
L 317.795202 -388.445113 
L 321.791892 -387.542057 
L 325.788594 -391.562224 
L 329.785285 -391.653503 
L 333.781975 -388.611278 
L 337.778677 -390.152722 
L 341.775368 -386.086947 
L 345.772058 -390.456969 
L 349.76876 -388.523917 
L 353.765451 -389.712051 
L 357.762141 -390.014666 
L 361.758843 -393.246386 
L 365.755534 -390.764559 
L 369.752224 -387.403954 
L 373.748914 -390.003381 
L 377.745605 -387.50045 
L 381.742319 -383.800609 
L 385.739009 -389.543247 
L 389.7357 -387.013433 
L 393.73239 -389.447774 
L 397.72908 -389.773924 
L 401.725771 -388.41013 
L 405.722485 -390.898418 
L 409.719175 -389.975118 
L 413.715866 -391.050566 
L 417.712556 -393.381577 
L 421.709246 -388.783509 
L 425.705937 -392.302757 
L 429.702627 -393.083533 
L 433.699341 -391.378161 
L 437.696032 -385.989946 
L 441.692722 -391.420434 
L 445.689412 -391.979568 
L 449.686103 -387.848541 
L 453.682793 -386.483101 
L 457.679507 -391.779358 
L 461.676198 -389.900795 
L 465.672888 -385.548122 
L 469.669578 -392.716753 
L 473.666269 -390.043918 
L 477.662959 -386.276225 
L 481.659673 -388.611953 
L 485.656364 -395.782971 
L 485.656364 -449.714413 
L 485.656364 -449.714413 
L 481.659673 -432.794875 
L 477.662959 -430.706018 
L 473.666269 -433.362235 
L 469.669578 -439.129091 
L 465.672888 -434.565128 
L 461.676198 -435.69422 
L 457.679507 -440.601153 
L 453.682793 -431.091866 
L 449.686103 -433.927549 
L 445.689412 -439.981287 
L 441.692722 -435.790366 
L 437.696032 -429.33699 
L 433.699341 -435.666545 
L 429.702627 -438.477776 
L 425.705937 -440.221437 
L 421.709246 -435.80308 
L 417.712556 -438.458316 
L 413.715866 -433.141046 
L 409.719175 -439.309051 
L 405.722485 -437.295993 
L 401.725771 -431.701685 
L 397.72908 -434.100334 
L 393.73239 -435.71609 
L 389.7357 -432.217789 
L 385.739009 -439.161797 
L 381.742319 -427.355131 
L 377.745605 -433.056136 
L 373.748914 -433.174056 
L 369.752224 -431.895584 
L 365.755534 -437.536027 
L 361.758843 -437.474282 
L 357.762141 -432.457905 
L 353.765451 -434.298063 
L 349.76876 -432.544902 
L 345.772058 -435.328659 
L 341.775368 -429.468442 
L 337.778677 -433.132454 
L 333.781975 -437.643775 
L 329.785285 -437.542449 
L 325.788594 -437.288124 
L 321.791892 -432.05896 
L 317.795202 -438.898962 
L 313.798511 -438.739823 
L 309.801809 -431.947949 
L 305.805119 -435.455431 
L 301.808428 -434.799267 
L 297.811726 -432.257152 
L 293.815036 -428.415345 
L 289.818345 -432.913437 
L 285.821643 -432.154285 
L 281.824953 -432.392128 
L 277.828262 -435.644503 
L 273.83156 -431.944916 
L 269.83487 -433.634592 
L 265.838179 -433.395602 
L 261.841483 -439.783011 
L 257.844787 -450.2503 
L 253.848096 -443.247645 
L 249.8514 -439.998455 
L 245.854704 -438.381577 
L 241.858013 -435.74591 
L 237.861317 -429.653512 
L 233.864626 -431.519174 
L 229.86793 -431.52073 
L 225.871234 -429.226772 
L 221.874543 -442.335375 
L 217.877847 -434.706406 
L 213.881154 -434.452699 
L 209.884457 -435.888015 
L 205.887764 -437.343449 
L 201.891071 -431.104674 
L 197.894377 -434.097816 
L 193.897681 -430.188505 
L 189.900988 -435.091677 
L 185.904294 -431.49692 
L 181.9076 -431.805626 
L 177.910906 -429.538685 
L 173.914211 -433.484333 
L 169.917517 -429.684865 
L 165.920823 -429.510109 
L 161.924129 -431.327848 
L 157.927434 -431.629602 
L 153.93074 -434.321748 
L 149.934045 -437.981489 
L 145.937352 -436.379655 
L 141.940659 -429.002587 
L 137.943962 -431.893468 
L 133.947269 -424.228719 
L 129.950576 -431.532847 
L 125.953882 -428.64004 
L 121.957186 -436.074524 
L 117.960493 -431.258426 
L 113.963796 -433.106572 
L 109.967106 -435.337035 
L 105.97041 -432.170719 
L 101.973713 -429.002158 
L 97.977023 -428.028445 
L 93.980327 -441.03956 
L 89.983636 -433.526971 
z
"/>
    </defs>
    <g clip-path="url(#p00aec6ee90)">
     <use xlink:href="#ma6960ce496" x="0" y="561.6" style="fill: #ff7f0e; fill-opacity: 0.15"/>
    </g>
   </g>
   <g id="matplotlib.axis_1">
    <g id="xtick_1">
     <g id="line2d_1">
      <defs>
       <path id="ma54df9c8b1" d="M 0 0 
L 0 3.5 
" style="stroke: #000000; stroke-width: 0.8"/>
      </defs>
      <g>
       <use xlink:href="#ma54df9c8b1" x="87.985286" y="206.388" style="stroke: #000000; stroke-width: 0.8"/>
      </g>
     </g>
     <g id="text_1">
      <!-- −200 -->
      <g transform="translate(74.251693 220.986437) scale(0.1 -0.1)">
       <defs>
        <path id="DejaVuSans-2212" d="M 678 2272 
L 4684 2272 
L 4684 1741 
L 678 1741 
L 678 2272 
z
" transform="scale(0.015625)"/>
        <path id="DejaVuSans-32" d="M 1228 531 
L 3431 531 
L 3431 0 
L 469 0 
L 469 531 
Q 828 903 1448 1529 
Q 2069 2156 2228 2338 
Q 2531 2678 2651 2914 
Q 2772 3150 2772 3378 
Q 2772 3750 2511 3984 
Q 2250 4219 1831 4219 
Q 1534 4219 1204 4116 
Q 875 4013 500 3803 
L 500 4441 
Q 881 4594 1212 4672 
Q 1544 4750 1819 4750 
Q 2544 4750 2975 4387 
Q 3406 4025 3406 3419 
Q 3406 3131 3298 2873 
Q 3191 2616 2906 2266 
Q 2828 2175 2409 1742 
Q 1991 1309 1228 531 
z
" transform="scale(0.015625)"/>
        <path id="DejaVuSans-30" d="M 2034 4250 
Q 1547 4250 1301 3770 
Q 1056 3291 1056 2328 
Q 1056 1369 1301 889 
Q 1547 409 2034 409 
Q 2525 409 2770 889 
Q 3016 1369 3016 2328 
Q 3016 3291 2770 3770 
Q 2525 4250 2034 4250 
z
M 2034 4750 
Q 2819 4750 3233 4129 
Q 3647 3509 3647 2328 
Q 3647 1150 3233 529 
Q 2819 -91 2034 -91 
Q 1250 -91 836 529 
Q 422 1150 422 2328 
Q 422 3509 836 4129 
Q 1250 4750 2034 4750 
z
" transform="scale(0.015625)"/>
       </defs>
       <use xlink:href="#DejaVuSans-2212"/>
       <use xlink:href="#DejaVuSans-32" transform="translate(83.789062 0)"/>
       <use xlink:href="#DejaVuSans-30" transform="translate(147.412109 0)"/>
       <use xlink:href="#DejaVuSans-30" transform="translate(211.035156 0)"/>
      </g>
     </g>
    </g>
    <g id="xtick_2">
     <g id="line2d_2">
      <g>
       <use xlink:href="#ma54df9c8b1" x="167.91917" y="206.388" style="stroke: #000000; stroke-width: 0.8"/>
      </g>
     </g>
     <g id="text_2">
      <!-- 0 -->
      <g transform="translate(164.73792 220.986437) scale(0.1 -0.1)">
       <use xlink:href="#DejaVuSans-30"/>
      </g>
     </g>
    </g>
    <g id="xtick_3">
     <g id="line2d_3">
      <g>
       <use xlink:href="#ma54df9c8b1" x="247.853053" y="206.388" style="stroke: #000000; stroke-width: 0.8"/>
      </g>
     </g>
     <g id="text_3">
      <!-- 200 -->
      <g transform="translate(238.309303 220.986437) scale(0.1 -0.1)">
       <use xlink:href="#DejaVuSans-32"/>
       <use xlink:href="#DejaVuSans-30" transform="translate(63.623047 0)"/>
       <use xlink:href="#DejaVuSans-30" transform="translate(127.246094 0)"/>
      </g>
     </g>
    </g>
    <g id="xtick_4">
     <g id="line2d_4">
      <g>
       <use xlink:href="#ma54df9c8b1" x="327.786937" y="206.388" style="stroke: #000000; stroke-width: 0.8"/>
      </g>
     </g>
     <g id="text_4">
      <!-- 400 -->
      <g transform="translate(318.243187 220.986437) scale(0.1 -0.1)">
       <defs>
        <path id="DejaVuSans-34" d="M 2419 4116 
L 825 1625 
L 2419 1625 
L 2419 4116 
z
M 2253 4666 
L 3047 4666 
L 3047 1625 
L 3713 1625 
L 3713 1100 
L 3047 1100 
L 3047 0 
L 2419 0 
L 2419 1100 
L 313 1100 
L 313 1709 
L 2253 4666 
z
" transform="scale(0.015625)"/>
       </defs>
       <use xlink:href="#DejaVuSans-34"/>
       <use xlink:href="#DejaVuSans-30" transform="translate(63.623047 0)"/>
       <use xlink:href="#DejaVuSans-30" transform="translate(127.246094 0)"/>
      </g>
     </g>
    </g>
    <g id="xtick_5">
     <g id="line2d_5">
      <g>
       <use xlink:href="#ma54df9c8b1" x="407.720821" y="206.388" style="stroke: #000000; stroke-width: 0.8"/>
      </g>
     </g>
     <g id="text_5">
      <!-- 600 -->
      <g transform="translate(398.177071 220.986437) scale(0.1 -0.1)">
       <defs>
        <path id="DejaVuSans-36" d="M 2113 2584 
Q 1688 2584 1439 2293 
Q 1191 2003 1191 1497 
Q 1191 994 1439 701 
Q 1688 409 2113 409 
Q 2538 409 2786 701 
Q 3034 994 3034 1497 
Q 3034 2003 2786 2293 
Q 2538 2584 2113 2584 
z
M 3366 4563 
L 3366 3988 
Q 3128 4100 2886 4159 
Q 2644 4219 2406 4219 
Q 1781 4219 1451 3797 
Q 1122 3375 1075 2522 
Q 1259 2794 1537 2939 
Q 1816 3084 2150 3084 
Q 2853 3084 3261 2657 
Q 3669 2231 3669 1497 
Q 3669 778 3244 343 
Q 2819 -91 2113 -91 
Q 1303 -91 875 529 
Q 447 1150 447 2328 
Q 447 3434 972 4092 
Q 1497 4750 2381 4750 
Q 2619 4750 2861 4703 
Q 3103 4656 3366 4563 
z
" transform="scale(0.015625)"/>
       </defs>
       <use xlink:href="#DejaVuSans-36"/>
       <use xlink:href="#DejaVuSans-30" transform="translate(63.623047 0)"/>
       <use xlink:href="#DejaVuSans-30" transform="translate(127.246094 0)"/>
      </g>
     </g>
    </g>
    <g id="xtick_6">
     <g id="line2d_6">
      <g>
       <use xlink:href="#ma54df9c8b1" x="487.654704" y="206.388" style="stroke: #000000; stroke-width: 0.8"/>
      </g>
     </g>
     <g id="text_6">
      <!-- 800 -->
      <g transform="translate(478.110954 220.986437) scale(0.1 -0.1)">
       <defs>
        <path id="DejaVuSans-38" d="M 2034 2216 
Q 1584 2216 1326 1975 
Q 1069 1734 1069 1313 
Q 1069 891 1326 650 
Q 1584 409 2034 409 
Q 2484 409 2743 651 
Q 3003 894 3003 1313 
Q 3003 1734 2745 1975 
Q 2488 2216 2034 2216 
z
M 1403 2484 
Q 997 2584 770 2862 
Q 544 3141 544 3541 
Q 544 4100 942 4425 
Q 1341 4750 2034 4750 
Q 2731 4750 3128 4425 
Q 3525 4100 3525 3541 
Q 3525 3141 3298 2862 
Q 3072 2584 2669 2484 
Q 3125 2378 3379 2068 
Q 3634 1759 3634 1313 
Q 3634 634 3220 271 
Q 2806 -91 2034 -91 
Q 1263 -91 848 271 
Q 434 634 434 1313 
Q 434 1759 690 2068 
Q 947 2378 1403 2484 
z
M 1172 3481 
Q 1172 3119 1398 2916 
Q 1625 2713 2034 2713 
Q 2441 2713 2670 2916 
Q 2900 3119 2900 3481 
Q 2900 3844 2670 4047 
Q 2441 4250 2034 4250 
Q 1625 4250 1398 4047 
Q 1172 3844 1172 3481 
z
" transform="scale(0.015625)"/>
       </defs>
       <use xlink:href="#DejaVuSans-38"/>
       <use xlink:href="#DejaVuSans-30" transform="translate(63.623047 0)"/>
       <use xlink:href="#DejaVuSans-30" transform="translate(127.246094 0)"/>
      </g>
     </g>
    </g>
   </g>
   <g id="matplotlib.axis_2">
    <g id="ytick_1">
     <g id="line2d_7">
      <defs>
       <path id="m0a692efda2" d="M 0 0 
L -3.5 0 
" style="stroke: #000000; stroke-width: 0.8"/>
      </defs>
      <g>
       <use xlink:href="#m0a692efda2" x="70.2" y="200.308545" style="stroke: #000000; stroke-width: 0.8"/>
      </g>
     </g>
     <g id="text_7">
      <!-- 10 -->
      <g transform="translate(50.475 204.107764) scale(0.1 -0.1)">
       <defs>
        <path id="DejaVuSans-31" d="M 794 531 
L 1825 531 
L 1825 4091 
L 703 3866 
L 703 4441 
L 1819 4666 
L 2450 4666 
L 2450 531 
L 3481 531 
L 3481 0 
L 794 0 
L 794 531 
z
" transform="scale(0.015625)"/>
       </defs>
       <use xlink:href="#DejaVuSans-31"/>
       <use xlink:href="#DejaVuSans-30" transform="translate(63.623047 0)"/>
      </g>
     </g>
    </g>
    <g id="ytick_2">
     <g id="line2d_8">
      <g>
       <use xlink:href="#m0a692efda2" x="70.2" y="157.413637" style="stroke: #000000; stroke-width: 0.8"/>
      </g>
     </g>
     <g id="text_8">
      <!-- 15 -->
      <g transform="translate(50.475 161.212855) scale(0.1 -0.1)">
       <defs>
        <path id="DejaVuSans-35" d="M 691 4666 
L 3169 4666 
L 3169 4134 
L 1269 4134 
L 1269 2991 
Q 1406 3038 1543 3061 
Q 1681 3084 1819 3084 
Q 2600 3084 3056 2656 
Q 3513 2228 3513 1497 
Q 3513 744 3044 326 
Q 2575 -91 1722 -91 
Q 1428 -91 1123 -41 
Q 819 9 494 109 
L 494 744 
Q 775 591 1075 516 
Q 1375 441 1709 441 
Q 2250 441 2565 725 
Q 2881 1009 2881 1497 
Q 2881 1984 2565 2268 
Q 2250 2553 1709 2553 
Q 1456 2553 1204 2497 
Q 953 2441 691 2322 
L 691 4666 
z
" transform="scale(0.015625)"/>
       </defs>
       <use xlink:href="#DejaVuSans-31"/>
       <use xlink:href="#DejaVuSans-35" transform="translate(63.623047 0)"/>
      </g>
     </g>
    </g>
    <g id="ytick_3">
     <g id="line2d_9">
      <g>
       <use xlink:href="#m0a692efda2" x="70.2" y="114.518728" style="stroke: #000000; stroke-width: 0.8"/>
      </g>
     </g>
     <g id="text_9">
      <!-- 20 -->
      <g transform="translate(50.475 118.317947) scale(0.1 -0.1)">
       <use xlink:href="#DejaVuSans-32"/>
       <use xlink:href="#DejaVuSans-30" transform="translate(63.623047 0)"/>
      </g>
     </g>
    </g>
    <g id="ytick_4">
     <g id="line2d_10">
      <g>
       <use xlink:href="#m0a692efda2" x="70.2" y="71.623819" style="stroke: #000000; stroke-width: 0.8"/>
      </g>
     </g>
     <g id="text_10">
      <!-- 25 -->
      <g transform="translate(50.475 75.423038) scale(0.1 -0.1)">
       <use xlink:href="#DejaVuSans-32"/>
       <use xlink:href="#DejaVuSans-35" transform="translate(63.623047 0)"/>
      </g>
     </g>
    </g>
    <g id="text_11">
     <!-- ΔLL (bits) -->
     <g transform="translate(44.395313 160.500937) rotate(-90) scale(0.1 -0.1)">
      <defs>
       <path id="DejaVuSans-394" d="M 2188 4044 
L 906 525 
L 3472 525 
L 2188 4044 
z
M 50 0 
L 1831 4666 
L 2547 4666 
L 4325 0 
L 50 0 
z
" transform="scale(0.015625)"/>
       <path id="DejaVuSans-4c" d="M 628 4666 
L 1259 4666 
L 1259 531 
L 3531 531 
L 3531 0 
L 628 0 
L 628 4666 
z
" transform="scale(0.015625)"/>
       <path id="DejaVuSans-20" transform="scale(0.015625)"/>
       <path id="DejaVuSans-28" d="M 1984 4856 
Q 1566 4138 1362 3434 
Q 1159 2731 1159 2009 
Q 1159 1288 1364 580 
Q 1569 -128 1984 -844 
L 1484 -844 
Q 1016 -109 783 600 
Q 550 1309 550 2009 
Q 550 2706 781 3412 
Q 1013 4119 1484 4856 
L 1984 4856 
z
" transform="scale(0.015625)"/>
       <path id="DejaVuSans-62" d="M 3116 1747 
Q 3116 2381 2855 2742 
Q 2594 3103 2138 3103 
Q 1681 3103 1420 2742 
Q 1159 2381 1159 1747 
Q 1159 1113 1420 752 
Q 1681 391 2138 391 
Q 2594 391 2855 752 
Q 3116 1113 3116 1747 
z
M 1159 2969 
Q 1341 3281 1617 3432 
Q 1894 3584 2278 3584 
Q 2916 3584 3314 3078 
Q 3713 2572 3713 1747 
Q 3713 922 3314 415 
Q 2916 -91 2278 -91 
Q 1894 -91 1617 61 
Q 1341 213 1159 525 
L 1159 0 
L 581 0 
L 581 4863 
L 1159 4863 
L 1159 2969 
z
" transform="scale(0.015625)"/>
       <path id="DejaVuSans-69" d="M 603 3500 
L 1178 3500 
L 1178 0 
L 603 0 
L 603 3500 
z
M 603 4863 
L 1178 4863 
L 1178 4134 
L 603 4134 
L 603 4863 
z
" transform="scale(0.015625)"/>
       <path id="DejaVuSans-74" d="M 1172 4494 
L 1172 3500 
L 2356 3500 
L 2356 3053 
L 1172 3053 
L 1172 1153 
Q 1172 725 1289 603 
Q 1406 481 1766 481 
L 2356 481 
L 2356 0 
L 1766 0 
Q 1100 0 847 248 
Q 594 497 594 1153 
L 594 3053 
L 172 3053 
L 172 3500 
L 594 3500 
L 594 4494 
L 1172 4494 
z
" transform="scale(0.015625)"/>
       <path id="DejaVuSans-73" d="M 2834 3397 
L 2834 2853 
Q 2591 2978 2328 3040 
Q 2066 3103 1784 3103 
Q 1356 3103 1142 2972 
Q 928 2841 928 2578 
Q 928 2378 1081 2264 
Q 1234 2150 1697 2047 
L 1894 2003 
Q 2506 1872 2764 1633 
Q 3022 1394 3022 966 
Q 3022 478 2636 193 
Q 2250 -91 1575 -91 
Q 1294 -91 989 -36 
Q 684 19 347 128 
L 347 722 
Q 666 556 975 473 
Q 1284 391 1588 391 
Q 1994 391 2212 530 
Q 2431 669 2431 922 
Q 2431 1156 2273 1281 
Q 2116 1406 1581 1522 
L 1381 1569 
Q 847 1681 609 1914 
Q 372 2147 372 2553 
Q 372 3047 722 3315 
Q 1072 3584 1716 3584 
Q 2034 3584 2315 3537 
Q 2597 3491 2834 3397 
z
" transform="scale(0.015625)"/>
       <path id="DejaVuSans-29" d="M 513 4856 
L 1013 4856 
Q 1481 4119 1714 3412 
Q 1947 2706 1947 2009 
Q 1947 1309 1714 600 
Q 1481 -109 1013 -844 
L 513 -844 
Q 928 -128 1133 580 
Q 1338 1288 1338 2009 
Q 1338 2731 1133 3434 
Q 928 4138 513 4856 
z
" transform="scale(0.015625)"/>
      </defs>
      <use xlink:href="#DejaVuSans-394"/>
      <use xlink:href="#DejaVuSans-4c" transform="translate(68.408203 0)"/>
      <use xlink:href="#DejaVuSans-4c" transform="translate(124.121094 0)"/>
      <use xlink:href="#DejaVuSans-20" transform="translate(179.833984 0)"/>
      <use xlink:href="#DejaVuSans-28" transform="translate(211.621094 0)"/>
      <use xlink:href="#DejaVuSans-62" transform="translate(250.634766 0)"/>
      <use xlink:href="#DejaVuSans-69" transform="translate(314.111328 0)"/>
      <use xlink:href="#DejaVuSans-74" transform="translate(341.894531 0)"/>
      <use xlink:href="#DejaVuSans-73" transform="translate(381.103516 0)"/>
      <use xlink:href="#DejaVuSans-29" transform="translate(433.203125 0)"/>
     </g>
    </g>
   </g>
   <g id="line2d_11">
    <path d="M 167.91917 206.388 
L 167.91917 67.392 
" clip-path="url(#p00aec6ee90)" style="fill: none; stroke-dasharray: 2.96,1.28; stroke-dashoffset: 0; stroke: #000000; stroke-width: 0.8"/>
   </g>
   <g id="line2d_12">
    <path d="M 89.983636 152.085149 
L 93.980327 146.094018 
L 97.977023 147.017228 
L 101.973713 153.014503 
L 105.97041 150.656405 
L 109.967106 148.373033 
L 113.963796 140.431318 
L 117.960493 153.371979 
L 121.957186 152.306744 
L 125.953882 147.883398 
L 129.950576 150.142927 
L 133.947269 150.09414 
L 137.943962 149.563073 
L 141.940659 151.858874 
L 145.937352 154.792984 
L 149.934045 149.005387 
L 153.93074 147.996167 
L 157.927434 149.783902 
L 161.924129 146.517718 
L 165.920823 146.548694 
L 169.917517 148.584979 
L 173.914211 149.561985 
L 177.910906 148.564365 
L 181.9076 151.173806 
L 185.904294 149.45675 
L 189.900988 151.391991 
L 193.897681 149.319301 
L 197.894377 149.484018 
L 201.891071 154.467028 
L 205.887764 153.559769 
L 209.884457 148.058613 
L 213.881154 151.728788 
L 217.877847 147.845568 
L 221.874543 147.672884 
L 225.871234 152.895972 
L 229.86793 154.217102 
L 233.864626 151.787934 
L 237.861317 150.20948 
L 241.858013 149.793602 
L 245.854704 151.598319 
L 249.8514 142.36859 
L 253.848096 146.822484 
L 257.844787 148.389155 
L 261.841483 150.067991 
L 265.838179 156.598817 
L 269.83487 152.495343 
L 273.83156 150.940729 
L 277.828262 146.650877 
L 281.824953 139.455116 
L 285.821643 147.253996 
L 289.818345 150.325678 
L 293.815036 147.241912 
L 297.811726 153.166401 
L 301.808428 150.619631 
L 305.805119 150.740856 
L 309.801809 154.471746 
L 313.798511 153.499547 
L 317.795202 151.984575 
L 321.791892 149.340071 
L 325.788594 149.572652 
L 329.785285 146.052747 
L 333.781975 152.26979 
L 337.778677 153.015715 
L 341.775368 149.888835 
L 345.772058 150.880977 
L 349.76876 153.931803 
L 353.765451 151.086646 
L 357.762141 147.918427 
L 361.758843 148.758947 
L 365.755534 147.770131 
L 369.752224 156.579622 
L 373.748914 150.694765 
L 377.745605 149.022213 
L 381.742319 157.3428 
L 385.739009 145.112942 
L 389.7357 152.116205 
L 393.73239 152.647534 
L 397.72908 156.995196 
L 401.725771 144.753733 
L 405.722485 148.887148 
L 409.719175 145.329723 
L 413.715866 151.647989 
L 417.712556 145.262958 
L 421.709246 147.235113 
L 425.705937 154.912758 
L 429.702627 158.113577 
L 433.699341 148.701309 
L 437.696032 151.368247 
L 441.692722 151.192604 
L 445.689412 153.236218 
L 449.686103 157.281996 
L 453.682793 148.29304 
L 457.679507 157.910031 
L 461.676198 150.306446 
L 465.672888 145.749111 
L 469.669578 147.323777 
L 473.666269 149.511216 
L 477.662959 146.682923 
L 481.659673 150.396828 
L 485.656364 151.517924 
" clip-path="url(#p00aec6ee90)" style="fill: none; stroke-dasharray: 1,1.65; stroke-dashoffset: 0; stroke: #1f77b4"/>
   </g>
   <g id="line2d_13">
    <path d="M 89.983636 151.708456 
L 93.980327 144.867389 
L 97.977023 155.414776 
L 101.973713 153.523341 
L 105.97041 151.759704 
L 109.967106 149.302896 
L 113.963796 150.059171 
L 117.960493 152.156496 
L 121.957186 148.425178 
L 125.953882 154.132633 
L 129.950576 151.487312 
L 133.947269 157.851314 
L 137.943962 151.700977 
L 141.940659 155.037956 
L 145.937352 148.979593 
L 149.934045 146.45792 
L 153.93074 149.426534 
L 157.927434 151.148998 
L 161.924129 153.097275 
L 165.920823 154.496288 
L 169.917517 153.204897 
L 173.914211 150.459595 
L 177.910906 152.706858 
L 181.9076 151.021711 
L 185.904294 152.237933 
L 189.900988 149.598255 
L 193.897681 153.592239 
L 197.894377 149.559903 
L 201.891071 152.194554 
L 205.887764 146.779873 
L 209.884457 147.625403 
L 213.881154 150.132051 
L 217.877847 149.042813 
L 221.874543 144.689692 
L 225.871234 154.389128 
L 229.86793 150.127977 
L 233.864626 154.306261 
L 237.861317 154.367834 
L 241.858013 149.156852 
L 245.854704 145.794239 
L 249.8514 145.786638 
L 253.848096 142.947954 
L 257.844787 140.858592 
L 261.841483 146.157339 
L 265.838179 150.893282 
L 269.83487 149.876541 
L 273.83156 152.204147 
L 277.828262 148.43105 
L 281.824953 150.634786 
L 285.821643 151.606281 
L 289.818345 150.388839 
L 293.815036 153.654985 
L 297.811726 150.899871 
L 301.808428 150.163031 
L 305.805119 149.345395 
L 309.801809 151.893678 
L 313.798511 146.098131 
L 317.795202 147.927962 
L 321.791892 151.799491 
L 325.788594 147.174826 
L 329.785285 147.002024 
L 333.781975 148.472473 
L 337.778677 149.957412 
L 341.775368 153.822306 
L 345.772058 148.707186 
L 349.76876 151.06559 
L 353.765451 149.594943 
L 357.762141 150.363714 
L 361.758843 146.239666 
L 365.755534 147.449707 
L 369.752224 151.950231 
L 373.748914 150.011281 
L 377.745605 151.321707 
L 381.742319 156.02213 
L 385.739009 147.247478 
L 389.7357 151.984389 
L 393.73239 149.018068 
L 397.72908 149.662871 
L 401.725771 151.544093 
L 405.722485 147.502794 
L 409.719175 146.957916 
L 413.715866 149.504194 
L 417.712556 145.680054 
L 421.709246 149.306705 
L 425.705937 145.337903 
L 429.702627 145.819345 
L 433.699341 148.077647 
L 437.696032 153.936532 
L 441.692722 147.9946 
L 445.689412 145.619572 
L 449.686103 150.711955 
L 453.682793 152.812516 
L 457.679507 145.409744 
L 461.676198 148.802492 
L 465.672888 151.543375 
L 469.669578 145.677078 
L 473.666269 149.896924 
L 477.662959 153.108878 
L 481.659673 150.896586 
L 485.656364 138.851308 
" clip-path="url(#p00aec6ee90)" style="fill: none; stroke-dasharray: 1,1.65; stroke-dashoffset: 0; stroke: #ff7f0e"/>
   </g>
   <g id="line2d_14">
    <path d="M 89.983636 146.14182 
L 93.980327 180.73171 
L 97.977023 133.215257 
L 101.973713 175.765931 
L 105.97041 144.987885 
L 109.967106 160.792886 
L 113.963796 173.878016 
L 117.960493 160.532382 
L 121.957186 185.150462 
L 125.953882 113.967859 
L 129.950576 123.593883 
L 133.947269 137.159637 
L 137.943962 130.845592 
L 141.940659 155.42848 
L 145.937352 158.478798 
L 149.934045 182.218684 
L 153.93074 167.241619 
L 157.927434 134.853782 
L 161.924129 158.692624 
L 165.920823 133.655621 
L 169.917517 176.987974 
L 173.914211 135.238159 
L 177.910906 146.958331 
L 181.9076 166.155833 
L 185.904294 167.895141 
L 189.900988 154.439835 
L 193.897681 134.900477 
L 197.894377 149.610216 
L 201.891071 152.153266 
L 205.887764 171.259353 
L 209.884457 160.941933 
L 213.881154 107.604406 
L 217.877847 156.899025 
L 221.874543 147.869116 
L 225.871234 159.823499 
L 229.86793 161.3947 
L 233.864626 143.163258 
L 237.861317 177.862931 
L 241.858013 126.069935 
L 245.854704 165.610247 
L 249.8514 152.638414 
L 253.848096 200.07 
L 257.844787 143.656229 
L 261.841483 143.558232 
L 265.838179 182.904063 
L 269.83487 156.854578 
L 273.83156 160.49524 
L 277.828262 145.965912 
L 281.824953 142.975567 
L 285.821643 129.277882 
L 289.818345 179.443285 
L 293.815036 142.13508 
L 297.811726 125.692422 
L 301.808428 105.996953 
L 305.805119 151.272737 
L 309.801809 182.11303 
L 313.798511 135.995271 
L 317.795202 149.838169 
L 321.791892 164.982655 
L 325.788594 141.626817 
L 329.785285 102.244737 
L 333.781975 73.71 
L 337.778677 169.743973 
L 341.775368 178.818912 
L 345.772058 129.785371 
L 349.76876 129.056223 
L 353.765451 187.422133 
L 357.762141 111.797442 
L 361.758843 173.825649 
L 365.755534 173.613992 
L 369.752224 167.337053 
L 373.748914 136.697055 
L 377.745605 172.488471 
L 381.742319 189.878271 
L 385.739009 132.982314 
L 389.7357 167.151848 
L 393.73239 133.53953 
L 397.72908 147.540681 
L 401.725771 132.427013 
L 405.722485 168.95286 
L 409.719175 189.34009 
L 413.715866 88.63677 
L 417.712556 183.948622 
L 421.709246 152.56651 
L 425.705937 177.348136 
L 429.702627 140.811212 
L 433.699341 95.948039 
L 437.696032 172.173499 
L 441.692722 176.187903 
L 445.689412 148.012168 
L 449.686103 142.110518 
L 453.682793 151.390055 
L 457.679507 143.461902 
L 461.676198 121.012515 
L 465.672888 127.493537 
L 469.669578 162.647002 
L 473.666269 135.232933 
L 477.662959 147.426925 
L 481.659673 185.996604 
L 485.656364 88.883665 
" clip-path="url(#p00aec6ee90)" style="fill: none; stroke: #1f77b4; stroke-width: 2.2; stroke-linecap: square"/>
   </g>
   <g id="line2d_15">
    <path d="M 89.983636 155.037116 
L 93.980327 129.100191 
L 97.977023 158.284864 
L 101.973713 137.560449 
L 105.97041 174.348161 
L 109.967106 147.60924 
L 113.963796 140.364663 
L 117.960493 106.719287 
L 121.957186 155.50877 
L 125.953882 149.387671 
L 129.950576 152.32782 
L 133.947269 185.271204 
L 137.943962 129.753883 
L 141.940659 138.196666 
L 145.937352 136.3673 
L 149.934045 146.05965 
L 153.93074 138.434529 
L 157.927434 170.237318 
L 161.924129 142.945831 
L 165.920823 160.534981 
L 169.917517 173.616322 
L 173.914211 144.33546 
L 177.910906 157.894152 
L 181.9076 161.605615 
L 185.904294 158.980468 
L 189.900988 167.58228 
L 193.897681 132.108316 
L 197.894377 157.549953 
L 201.891071 165.309905 
L 205.887764 143.905835 
L 209.884457 126.502589 
L 213.881154 175.961429 
L 217.877847 190.816877 
L 221.874543 113.703179 
L 225.871234 136.89036 
L 229.86793 149.370592 
L 233.864626 174.776013 
L 237.861317 139.268158 
L 241.858013 156.042767 
L 245.854704 139.726259 
L 249.8514 176.143723 
L 253.848096 84.247488 
L 257.844787 159.361374 
L 261.841483 115.629659 
L 265.838179 179.044179 
L 269.83487 154.2469 
L 273.83156 164.263099 
L 277.828262 189.891029 
L 281.824953 155.258961 
L 285.821643 132.011376 
L 289.818345 154.837427 
L 293.815036 157.780122 
L 297.811726 173.354016 
L 301.808428 131.665733 
L 305.805119 160.165762 
L 309.801809 172.14254 
L 313.798511 149.525344 
L 317.795202 186.806877 
L 321.791892 159.728512 
L 325.788594 180.173343 
L 329.785285 141.983334 
L 333.781975 160.001797 
L 337.778677 151.55939 
L 341.775368 185.49651 
L 345.772058 133.252273 
L 349.76876 163.128283 
L 353.765451 107.618845 
L 357.762141 159.493329 
L 361.758843 164.219746 
L 365.755534 135.684041 
L 369.752224 139.777556 
L 373.748914 154.510471 
L 377.745605 132.830225 
L 381.742319 163.807734 
L 385.739009 146.043151 
L 389.7357 150.911424 
L 393.73239 115.064042 
L 397.72908 143.561416 
L 401.725771 147.093145 
L 405.722485 149.89334 
L 409.719175 166.890977 
L 413.715866 152.971822 
L 417.712556 148.900921 
L 421.709246 152.831052 
L 425.705937 97.95248 
L 429.702627 163.470732 
L 433.699341 158.543465 
L 437.696032 110.154246 
L 441.692722 150.160926 
L 445.689412 175.093628 
L 449.686103 163.523418 
L 453.682793 147.72205 
L 457.679507 146.473226 
L 461.676198 155.770793 
L 465.672888 151.891551 
L 469.669578 151.66641 
L 473.666269 156.766673 
L 477.662959 165.774553 
L 481.659673 124.682214 
L 485.656364 132.701843 
" clip-path="url(#p00aec6ee90)" style="fill: none; stroke: #ff7f0e; stroke-width: 2.2; stroke-linecap: square"/>
   </g>
   <g id="patch_3">
    <path d="M 70.2 206.388 
L 70.2 67.392 
" style="fill: none; stroke: #000000; stroke-width: 0.8; stroke-linejoin: miter; stroke-linecap: square"/>
   </g>
   <g id="patch_4">
    <path d="M 505.44 206.388 
L 505.44 67.392 
" style="fill: none; stroke: #000000; stroke-width: 0.8; stroke-linejoin: miter; stroke-linecap: square"/>
   </g>
   <g id="patch_5">
    <path d="M 70.2 206.388 
L 505.44 206.388 
" style="fill: none; stroke: #000000; stroke-width: 0.8; stroke-linejoin: miter; stroke-linecap: square"/>
   </g>
   <g id="patch_6">
    <path d="M 70.2 67.392 
L 505.44 67.392 
" style="fill: none; stroke: #000000; stroke-width: 0.8; stroke-linejoin: miter; stroke-linecap: square"/>
   </g>
   <g id="text_12">
    <!-- (SLIP vs SSC) — R-flow — Panel A: overlay + null bands -->
    <g transform="translate(122.014688 61.392) scale(0.12 -0.12)">
     <defs>
      <path id="DejaVuSans-53" d="M 3425 4513 
L 3425 3897 
Q 3066 4069 2747 4153 
Q 2428 4238 2131 4238 
Q 1616 4238 1336 4038 
Q 1056 3838 1056 3469 
Q 1056 3159 1242 3001 
Q 1428 2844 1947 2747 
L 2328 2669 
Q 3034 2534 3370 2195 
Q 3706 1856 3706 1288 
Q 3706 609 3251 259 
Q 2797 -91 1919 -91 
Q 1588 -91 1214 -16 
Q 841 59 441 206 
L 441 856 
Q 825 641 1194 531 
Q 1563 422 1919 422 
Q 2459 422 2753 634 
Q 3047 847 3047 1241 
Q 3047 1584 2836 1778 
Q 2625 1972 2144 2069 
L 1759 2144 
Q 1053 2284 737 2584 
Q 422 2884 422 3419 
Q 422 4038 858 4394 
Q 1294 4750 2059 4750 
Q 2388 4750 2728 4690 
Q 3069 4631 3425 4513 
z
" transform="scale(0.015625)"/>
      <path id="DejaVuSans-49" d="M 628 4666 
L 1259 4666 
L 1259 0 
L 628 0 
L 628 4666 
z
" transform="scale(0.015625)"/>
      <path id="DejaVuSans-50" d="M 1259 4147 
L 1259 2394 
L 2053 2394 
Q 2494 2394 2734 2622 
Q 2975 2850 2975 3272 
Q 2975 3691 2734 3919 
Q 2494 4147 2053 4147 
L 1259 4147 
z
M 628 4666 
L 2053 4666 
Q 2838 4666 3239 4311 
Q 3641 3956 3641 3272 
Q 3641 2581 3239 2228 
Q 2838 1875 2053 1875 
L 1259 1875 
L 1259 0 
L 628 0 
L 628 4666 
z
" transform="scale(0.015625)"/>
      <path id="DejaVuSans-76" d="M 191 3500 
L 800 3500 
L 1894 563 
L 2988 3500 
L 3597 3500 
L 2284 0 
L 1503 0 
L 191 3500 
z
" transform="scale(0.015625)"/>
      <path id="DejaVuSans-43" d="M 4122 4306 
L 4122 3641 
Q 3803 3938 3442 4084 
Q 3081 4231 2675 4231 
Q 1875 4231 1450 3742 
Q 1025 3253 1025 2328 
Q 1025 1406 1450 917 
Q 1875 428 2675 428 
Q 3081 428 3442 575 
Q 3803 722 4122 1019 
L 4122 359 
Q 3791 134 3420 21 
Q 3050 -91 2638 -91 
Q 1578 -91 968 557 
Q 359 1206 359 2328 
Q 359 3453 968 4101 
Q 1578 4750 2638 4750 
Q 3056 4750 3426 4639 
Q 3797 4528 4122 4306 
z
" transform="scale(0.015625)"/>
      <path id="DejaVuSans-2014" d="M 313 1978 
L 6088 1978 
L 6088 1528 
L 313 1528 
L 313 1978 
z
" transform="scale(0.015625)"/>
      <path id="DejaVuSans-52" d="M 2841 2188 
Q 3044 2119 3236 1894 
Q 3428 1669 3622 1275 
L 4263 0 
L 3584 0 
L 2988 1197 
Q 2756 1666 2539 1819 
Q 2322 1972 1947 1972 
L 1259 1972 
L 1259 0 
L 628 0 
L 628 4666 
L 2053 4666 
Q 2853 4666 3247 4331 
Q 3641 3997 3641 3322 
Q 3641 2881 3436 2590 
Q 3231 2300 2841 2188 
z
M 1259 4147 
L 1259 2491 
L 2053 2491 
Q 2509 2491 2742 2702 
Q 2975 2913 2975 3322 
Q 2975 3731 2742 3939 
Q 2509 4147 2053 4147 
L 1259 4147 
z
" transform="scale(0.015625)"/>
      <path id="DejaVuSans-2d" d="M 313 2009 
L 1997 2009 
L 1997 1497 
L 313 1497 
L 313 2009 
z
" transform="scale(0.015625)"/>
      <path id="DejaVuSans-66" d="M 2375 4863 
L 2375 4384 
L 1825 4384 
Q 1516 4384 1395 4259 
Q 1275 4134 1275 3809 
L 1275 3500 
L 2222 3500 
L 2222 3053 
L 1275 3053 
L 1275 0 
L 697 0 
L 697 3053 
L 147 3053 
L 147 3500 
L 697 3500 
L 697 3744 
Q 697 4328 969 4595 
Q 1241 4863 1831 4863 
L 2375 4863 
z
" transform="scale(0.015625)"/>
      <path id="DejaVuSans-6c" d="M 603 4863 
L 1178 4863 
L 1178 0 
L 603 0 
L 603 4863 
z
" transform="scale(0.015625)"/>
      <path id="DejaVuSans-6f" d="M 1959 3097 
Q 1497 3097 1228 2736 
Q 959 2375 959 1747 
Q 959 1119 1226 758 
Q 1494 397 1959 397 
Q 2419 397 2687 759 
Q 2956 1122 2956 1747 
Q 2956 2369 2687 2733 
Q 2419 3097 1959 3097 
z
M 1959 3584 
Q 2709 3584 3137 3096 
Q 3566 2609 3566 1747 
Q 3566 888 3137 398 
Q 2709 -91 1959 -91 
Q 1206 -91 779 398 
Q 353 888 353 1747 
Q 353 2609 779 3096 
Q 1206 3584 1959 3584 
z
" transform="scale(0.015625)"/>
      <path id="DejaVuSans-77" d="M 269 3500 
L 844 3500 
L 1563 769 
L 2278 3500 
L 2956 3500 
L 3675 769 
L 4391 3500 
L 4966 3500 
L 4050 0 
L 3372 0 
L 2619 2869 
L 1863 0 
L 1184 0 
L 269 3500 
z
" transform="scale(0.015625)"/>
      <path id="DejaVuSans-61" d="M 2194 1759 
Q 1497 1759 1228 1600 
Q 959 1441 959 1056 
Q 959 750 1161 570 
Q 1363 391 1709 391 
Q 2188 391 2477 730 
Q 2766 1069 2766 1631 
L 2766 1759 
L 2194 1759 
z
M 3341 1997 
L 3341 0 
L 2766 0 
L 2766 531 
Q 2569 213 2275 61 
Q 1981 -91 1556 -91 
Q 1019 -91 701 211 
Q 384 513 384 1019 
Q 384 1609 779 1909 
Q 1175 2209 1959 2209 
L 2766 2209 
L 2766 2266 
Q 2766 2663 2505 2880 
Q 2244 3097 1772 3097 
Q 1472 3097 1187 3025 
Q 903 2953 641 2809 
L 641 3341 
Q 956 3463 1253 3523 
Q 1550 3584 1831 3584 
Q 2591 3584 2966 3190 
Q 3341 2797 3341 1997 
z
" transform="scale(0.015625)"/>
      <path id="DejaVuSans-6e" d="M 3513 2113 
L 3513 0 
L 2938 0 
L 2938 2094 
Q 2938 2591 2744 2837 
Q 2550 3084 2163 3084 
Q 1697 3084 1428 2787 
Q 1159 2491 1159 1978 
L 1159 0 
L 581 0 
L 581 3500 
L 1159 3500 
L 1159 2956 
Q 1366 3272 1645 3428 
Q 1925 3584 2291 3584 
Q 2894 3584 3203 3211 
Q 3513 2838 3513 2113 
z
" transform="scale(0.015625)"/>
      <path id="DejaVuSans-65" d="M 3597 1894 
L 3597 1613 
L 953 1613 
Q 991 1019 1311 708 
Q 1631 397 2203 397 
Q 2534 397 2845 478 
Q 3156 559 3463 722 
L 3463 178 
Q 3153 47 2828 -22 
Q 2503 -91 2169 -91 
Q 1331 -91 842 396 
Q 353 884 353 1716 
Q 353 2575 817 3079 
Q 1281 3584 2069 3584 
Q 2775 3584 3186 3129 
Q 3597 2675 3597 1894 
z
M 3022 2063 
Q 3016 2534 2758 2815 
Q 2500 3097 2075 3097 
Q 1594 3097 1305 2825 
Q 1016 2553 972 2059 
L 3022 2063 
z
" transform="scale(0.015625)"/>
      <path id="DejaVuSans-41" d="M 2188 4044 
L 1331 1722 
L 3047 1722 
L 2188 4044 
z
M 1831 4666 
L 2547 4666 
L 4325 0 
L 3669 0 
L 3244 1197 
L 1141 1197 
L 716 0 
L 50 0 
L 1831 4666 
z
" transform="scale(0.015625)"/>
      <path id="DejaVuSans-3a" d="M 750 794 
L 1409 794 
L 1409 0 
L 750 0 
L 750 794 
z
M 750 3309 
L 1409 3309 
L 1409 2516 
L 750 2516 
L 750 3309 
z
" transform="scale(0.015625)"/>
      <path id="DejaVuSans-72" d="M 2631 2963 
Q 2534 3019 2420 3045 
Q 2306 3072 2169 3072 
Q 1681 3072 1420 2755 
Q 1159 2438 1159 1844 
L 1159 0 
L 581 0 
L 581 3500 
L 1159 3500 
L 1159 2956 
Q 1341 3275 1631 3429 
Q 1922 3584 2338 3584 
Q 2397 3584 2469 3576 
Q 2541 3569 2628 3553 
L 2631 2963 
z
" transform="scale(0.015625)"/>
      <path id="DejaVuSans-79" d="M 2059 -325 
Q 1816 -950 1584 -1140 
Q 1353 -1331 966 -1331 
L 506 -1331 
L 506 -850 
L 844 -850 
Q 1081 -850 1212 -737 
Q 1344 -625 1503 -206 
L 1606 56 
L 191 3500 
L 800 3500 
L 1894 763 
L 2988 3500 
L 3597 3500 
L 2059 -325 
z
" transform="scale(0.015625)"/>
      <path id="DejaVuSans-2b" d="M 2944 4013 
L 2944 2272 
L 4684 2272 
L 4684 1741 
L 2944 1741 
L 2944 0 
L 2419 0 
L 2419 1741 
L 678 1741 
L 678 2272 
L 2419 2272 
L 2419 4013 
L 2944 4013 
z
" transform="scale(0.015625)"/>
      <path id="DejaVuSans-75" d="M 544 1381 
L 544 3500 
L 1119 3500 
L 1119 1403 
Q 1119 906 1312 657 
Q 1506 409 1894 409 
Q 2359 409 2629 706 
Q 2900 1003 2900 1516 
L 2900 3500 
L 3475 3500 
L 3475 0 
L 2900 0 
L 2900 538 
Q 2691 219 2414 64 
Q 2138 -91 1772 -91 
Q 1169 -91 856 284 
Q 544 659 544 1381 
z
M 1991 3584 
L 1991 3584 
z
" transform="scale(0.015625)"/>
      <path id="DejaVuSans-64" d="M 2906 2969 
L 2906 4863 
L 3481 4863 
L 3481 0 
L 2906 0 
L 2906 525 
Q 2725 213 2448 61 
Q 2172 -91 1784 -91 
Q 1150 -91 751 415 
Q 353 922 353 1747 
Q 353 2572 751 3078 
Q 1150 3584 1784 3584 
Q 2172 3584 2448 3432 
Q 2725 3281 2906 2969 
z
M 947 1747 
Q 947 1113 1208 752 
Q 1469 391 1925 391 
Q 2381 391 2643 752 
Q 2906 1113 2906 1747 
Q 2906 2381 2643 2742 
Q 2381 3103 1925 3103 
Q 1469 3103 1208 2742 
Q 947 2381 947 1747 
z
" transform="scale(0.015625)"/>
     </defs>
     <use xlink:href="#DejaVuSans-28"/>
     <use xlink:href="#DejaVuSans-53" transform="translate(39.013672 0)"/>
     <use xlink:href="#DejaVuSans-4c" transform="translate(102.490234 0)"/>
     <use xlink:href="#DejaVuSans-49" transform="translate(158.203125 0)"/>
     <use xlink:href="#DejaVuSans-50" transform="translate(187.695312 0)"/>
     <use xlink:href="#DejaVuSans-20" transform="translate(247.998047 0)"/>
     <use xlink:href="#DejaVuSans-76" transform="translate(279.785156 0)"/>
     <use xlink:href="#DejaVuSans-73" transform="translate(338.964844 0)"/>
     <use xlink:href="#DejaVuSans-20" transform="translate(391.064453 0)"/>
     <use xlink:href="#DejaVuSans-53" transform="translate(422.851562 0)"/>
     <use xlink:href="#DejaVuSans-53" transform="translate(486.328125 0)"/>
     <use xlink:href="#DejaVuSans-43" transform="translate(549.804688 0)"/>
     <use xlink:href="#DejaVuSans-29" transform="translate(619.628906 0)"/>
     <use xlink:href="#DejaVuSans-20" transform="translate(658.642578 0)"/>
     <use xlink:href="#DejaVuSans-2014" transform="translate(690.429688 0)"/>
     <use xlink:href="#DejaVuSans-20" transform="translate(790.429688 0)"/>
     <use xlink:href="#DejaVuSans-52" transform="translate(822.216797 0)"/>
     <use xlink:href="#DejaVuSans-2d" transform="translate(887.699219 0)"/>
     <use xlink:href="#DejaVuSans-66" transform="translate(923.783203 0)"/>
     <use xlink:href="#DejaVuSans-6c" transform="translate(958.988281 0)"/>
     <use xlink:href="#DejaVuSans-6f" transform="translate(986.771484 0)"/>
     <use xlink:href="#DejaVuSans-77" transform="translate(1047.953125 0)"/>
     <use xlink:href="#DejaVuSans-20" transform="translate(1129.740234 0)"/>
     <use xlink:href="#DejaVuSans-2014" transform="translate(1161.527344 0)"/>
     <use xlink:href="#DejaVuSans-20" transform="translate(1261.527344 0)"/>
     <use xlink:href="#DejaVuSans-50" transform="translate(1293.314453 0)"/>
     <use xlink:href="#DejaVuSans-61" transform="translate(1349.117188 0)"/>
     <use xlink:href="#DejaVuSans-6e" transform="translate(1410.396484 0)"/>
     <use xlink:href="#DejaVuSans-65" transform="translate(1473.775391 0)"/>
     <use xlink:href="#DejaVuSans-6c" transform="translate(1535.298828 0)"/>
     <use xlink:href="#DejaVuSans-20" transform="translate(1563.082031 0)"/>
     <use xlink:href="#DejaVuSans-41" transform="translate(1594.869141 0)"/>
     <use xlink:href="#DejaVuSans-3a" transform="translate(1661.527344 0)"/>
     <use xlink:href="#DejaVuSans-20" transform="translate(1695.21875 0)"/>
     <use xlink:href="#DejaVuSans-6f" transform="translate(1727.005859 0)"/>
     <use xlink:href="#DejaVuSans-76" transform="translate(1788.1875 0)"/>
     <use xlink:href="#DejaVuSans-65" transform="translate(1847.367188 0)"/>
     <use xlink:href="#DejaVuSans-72" transform="translate(1908.890625 0)"/>
     <use xlink:href="#DejaVuSans-6c" transform="translate(1950.003906 0)"/>
     <use xlink:href="#DejaVuSans-61" transform="translate(1977.787109 0)"/>
     <use xlink:href="#DejaVuSans-79" transform="translate(2039.066406 0)"/>
     <use xlink:href="#DejaVuSans-20" transform="translate(2098.246094 0)"/>
     <use xlink:href="#DejaVuSans-2b" transform="translate(2130.033203 0)"/>
     <use xlink:href="#DejaVuSans-20" transform="translate(2213.822266 0)"/>
     <use xlink:href="#DejaVuSans-6e" transform="translate(2245.609375 0)"/>
     <use xlink:href="#DejaVuSans-75" transform="translate(2308.988281 0)"/>
     <use xlink:href="#DejaVuSans-6c" transform="translate(2372.367188 0)"/>
     <use xlink:href="#DejaVuSans-6c" transform="translate(2400.150391 0)"/>
     <use xlink:href="#DejaVuSans-20" transform="translate(2427.933594 0)"/>
     <use xlink:href="#DejaVuSans-62" transform="translate(2459.720703 0)"/>
     <use xlink:href="#DejaVuSans-61" transform="translate(2523.197266 0)"/>
     <use xlink:href="#DejaVuSans-6e" transform="translate(2584.476562 0)"/>
     <use xlink:href="#DejaVuSans-64" transform="translate(2647.855469 0)"/>
     <use xlink:href="#DejaVuSans-73" transform="translate(2711.332031 0)"/>
    </g>
   </g>
   <g id="legend_1">
    <g id="patch_7">
     <path d="M 79.2 83.990437 
L 99.2 83.990437 
L 99.2 76.990437 
L 79.2 76.990437 
z
" style="fill: #1f77b4; fill-opacity: 0.15"/>
    </g>
    <g id="text_13">
     <!-- SLIP→SSC null μ±σ -->
     <g transform="translate(107.2 83.990437) scale(0.1 -0.1)">
      <defs>
       <path id="DejaVuSans-2192" d="M 5050 2147 
L 5050 1866 
L 3822 638 
L 3447 1013 
L 4175 1741 
L 366 1741 
L 366 2272 
L 4175 2272 
L 3447 3000 
L 3822 3375 
L 5050 2147 
z
" transform="scale(0.015625)"/>
       <path id="DejaVuSans-3bc" d="M 544 -1331 
L 544 3500 
L 1119 3500 
L 1119 1325 
Q 1119 872 1334 640 
Q 1550 409 1972 409 
Q 2434 409 2667 671 
Q 2900 934 2900 1459 
L 2900 3500 
L 3475 3500 
L 3475 806 
Q 3475 619 3529 530 
Q 3584 441 3700 441 
Q 3728 441 3778 458 
Q 3828 475 3916 513 
L 3916 50 
Q 3788 -22 3673 -56 
Q 3559 -91 3450 -91 
Q 3234 -91 3106 31 
Q 2978 153 2931 403 
Q 2775 156 2548 32 
Q 2322 -91 2016 -91 
Q 1697 -91 1473 31 
Q 1250 153 1119 397 
L 1119 -1331 
L 544 -1331 
z
" transform="scale(0.015625)"/>
       <path id="DejaVuSans-b1" d="M 2944 4013 
L 2944 2803 
L 4684 2803 
L 4684 2272 
L 2944 2272 
L 2944 1063 
L 2419 1063 
L 2419 2272 
L 678 2272 
L 678 2803 
L 2419 2803 
L 2419 4013 
L 2944 4013 
z
M 678 531 
L 4684 531 
L 4684 0 
L 678 0 
L 678 531 
z
" transform="scale(0.015625)"/>
       <path id="DejaVuSans-3c3" d="M 1959 3044 
Q 1484 3044 1228 2700 
Q 959 2341 959 1747 
Q 959 1119 1226 758 
Q 1494 397 1959 397 
Q 2419 397 2687 759 
Q 2956 1122 2956 1747 
Q 2956 2319 2688 2700 
Q 2441 3044 1959 3044 
z
M 1959 3500 
L 3869 3500 
L 3869 2925 
L 3225 2925 
Q 3566 2438 3566 1747 
Q 3566 888 3138 400 
Q 2709 -91 1959 -91 
Q 1206 -91 781 400 
Q 353 888 353 1747 
Q 353 2613 781 3097 
Q 1134 3500 1959 3500 
z
" transform="scale(0.015625)"/>
      </defs>
      <use xlink:href="#DejaVuSans-53"/>
      <use xlink:href="#DejaVuSans-4c" transform="translate(63.476562 0)"/>
      <use xlink:href="#DejaVuSans-49" transform="translate(119.189453 0)"/>
      <use xlink:href="#DejaVuSans-50" transform="translate(148.681641 0)"/>
      <use xlink:href="#DejaVuSans-2192" transform="translate(208.984375 0)"/>
      <use xlink:href="#DejaVuSans-53" transform="translate(292.773438 0)"/>
      <use xlink:href="#DejaVuSans-53" transform="translate(356.25 0)"/>
      <use xlink:href="#DejaVuSans-43" transform="translate(419.726562 0)"/>
      <use xlink:href="#DejaVuSans-20" transform="translate(489.550781 0)"/>
      <use xlink:href="#DejaVuSans-6e" transform="translate(521.337891 0)"/>
      <use xlink:href="#DejaVuSans-75" transform="translate(584.716797 0)"/>
      <use xlink:href="#DejaVuSans-6c" transform="translate(648.095703 0)"/>
      <use xlink:href="#DejaVuSans-6c" transform="translate(675.878906 0)"/>
      <use xlink:href="#DejaVuSans-20" transform="translate(703.662109 0)"/>
      <use xlink:href="#DejaVuSans-3bc" transform="translate(735.449219 0)"/>
      <use xlink:href="#DejaVuSans-b1" transform="translate(799.072266 0)"/>
      <use xlink:href="#DejaVuSans-3c3" transform="translate(882.861328 0)"/>
     </g>
    </g>
    <g id="patch_8">
     <path d="M 79.2 98.668563 
L 99.2 98.668563 
L 99.2 91.668563 
L 79.2 91.668563 
z
" style="fill: #ff7f0e; fill-opacity: 0.15"/>
    </g>
    <g id="text_14">
     <!-- SSC→SLIP null μ±σ -->
     <g transform="translate(107.2 98.668563) scale(0.1 -0.1)">
      <use xlink:href="#DejaVuSans-53"/>
      <use xlink:href="#DejaVuSans-53" transform="translate(63.476562 0)"/>
      <use xlink:href="#DejaVuSans-43" transform="translate(126.953125 0)"/>
      <use xlink:href="#DejaVuSans-2192" transform="translate(196.777344 0)"/>
      <use xlink:href="#DejaVuSans-53" transform="translate(280.566406 0)"/>
      <use xlink:href="#DejaVuSans-4c" transform="translate(344.042969 0)"/>
      <use xlink:href="#DejaVuSans-49" transform="translate(399.755859 0)"/>
      <use xlink:href="#DejaVuSans-50" transform="translate(429.248047 0)"/>
      <use xlink:href="#DejaVuSans-20" transform="translate(489.550781 0)"/>
      <use xlink:href="#DejaVuSans-6e" transform="translate(521.337891 0)"/>
      <use xlink:href="#DejaVuSans-75" transform="translate(584.716797 0)"/>
      <use xlink:href="#DejaVuSans-6c" transform="translate(648.095703 0)"/>
      <use xlink:href="#DejaVuSans-6c" transform="translate(675.878906 0)"/>
      <use xlink:href="#DejaVuSans-20" transform="translate(703.662109 0)"/>
      <use xlink:href="#DejaVuSans-3bc" transform="translate(735.449219 0)"/>
      <use xlink:href="#DejaVuSans-b1" transform="translate(799.072266 0)"/>
      <use xlink:href="#DejaVuSans-3c3" transform="translate(882.861328 0)"/>
     </g>
    </g>
    <g id="line2d_16">
     <path d="M 221.826563 80.490437 
L 231.826563 80.490437 
L 241.826563 80.490437 
" style="fill: none; stroke: #1f77b4; stroke-width: 2.2; stroke-linecap: square"/>
    </g>
    <g id="text_15">
     <!-- SLIP→SSC -->
     <g transform="translate(249.826563 83.990437) scale(0.1 -0.1)">
      <use xlink:href="#DejaVuSans-53"/>
      <use xlink:href="#DejaVuSans-4c" transform="translate(63.476562 0)"/>
      <use xlink:href="#DejaVuSans-49" transform="translate(119.189453 0)"/>
      <use xlink:href="#DejaVuSans-50" transform="translate(148.681641 0)"/>
      <use xlink:href="#DejaVuSans-2192" transform="translate(208.984375 0)"/>
      <use xlink:href="#DejaVuSans-53" transform="translate(292.773438 0)"/>
      <use xlink:href="#DejaVuSans-53" transform="translate(356.25 0)"/>
      <use xlink:href="#DejaVuSans-43" transform="translate(419.726562 0)"/>
     </g>
    </g>
    <g id="line2d_17">
     <path d="M 221.826563 95.168563 
L 231.826563 95.168563 
L 241.826563 95.168563 
" style="fill: none; stroke: #ff7f0e; stroke-width: 2.2; stroke-linecap: square"/>
    </g>
    <g id="text_16">
     <!-- SSC→SLIP -->
     <g transform="translate(249.826563 98.668563) scale(0.1 -0.1)">
      <use xlink:href="#DejaVuSans-53"/>
      <use xlink:href="#DejaVuSans-53" transform="translate(63.476562 0)"/>
      <use xlink:href="#DejaVuSans-43" transform="translate(126.953125 0)"/>
      <use xlink:href="#DejaVuSans-2192" transform="translate(196.777344 0)"/>
      <use xlink:href="#DejaVuSans-53" transform="translate(280.566406 0)"/>
      <use xlink:href="#DejaVuSans-4c" transform="translate(344.042969 0)"/>
      <use xlink:href="#DejaVuSans-49" transform="translate(399.755859 0)"/>
      <use xlink:href="#DejaVuSans-50" transform="translate(429.248047 0)"/>
     </g>
    </g>
   </g>
  </g>
  <g id="axes_2">
   <g id="patch_9">
    <path d="M 70.2 353.106 
L 505.44 353.106 
L 505.44 237.276 
L 70.2 237.276 
z
" style="fill: #ffffff"/>
   </g>
   <g id="matplotlib.axis_3">
    <g id="xtick_7">
     <g id="line2d_18">
      <g>
       <use xlink:href="#ma54df9c8b1" x="87.985286" y="353.106" style="stroke: #000000; stroke-width: 0.8"/>
      </g>
     </g>
     <g id="text_17">
      <!-- −200 -->
      <g transform="translate(74.251693 367.704438) scale(0.1 -0.1)">
       <use xlink:href="#DejaVuSans-2212"/>
       <use xlink:href="#DejaVuSans-32" transform="translate(83.789062 0)"/>
       <use xlink:href="#DejaVuSans-30" transform="translate(147.412109 0)"/>
       <use xlink:href="#DejaVuSans-30" transform="translate(211.035156 0)"/>
      </g>
     </g>
    </g>
    <g id="xtick_8">
     <g id="line2d_19">
      <g>
       <use xlink:href="#ma54df9c8b1" x="167.91917" y="353.106" style="stroke: #000000; stroke-width: 0.8"/>
      </g>
     </g>
     <g id="text_18">
      <!-- 0 -->
      <g transform="translate(164.73792 367.704438) scale(0.1 -0.1)">
       <use xlink:href="#DejaVuSans-30"/>
      </g>
     </g>
    </g>
    <g id="xtick_9">
     <g id="line2d_20">
      <g>
       <use xlink:href="#ma54df9c8b1" x="247.853053" y="353.106" style="stroke: #000000; stroke-width: 0.8"/>
      </g>
     </g>
     <g id="text_19">
      <!-- 200 -->
      <g transform="translate(238.309303 367.704438) scale(0.1 -0.1)">
       <use xlink:href="#DejaVuSans-32"/>
       <use xlink:href="#DejaVuSans-30" transform="translate(63.623047 0)"/>
       <use xlink:href="#DejaVuSans-30" transform="translate(127.246094 0)"/>
      </g>
     </g>
    </g>
    <g id="xtick_10">
     <g id="line2d_21">
      <g>
       <use xlink:href="#ma54df9c8b1" x="327.786937" y="353.106" style="stroke: #000000; stroke-width: 0.8"/>
      </g>
     </g>
     <g id="text_20">
      <!-- 400 -->
      <g transform="translate(318.243187 367.704438) scale(0.1 -0.1)">
       <use xlink:href="#DejaVuSans-34"/>
       <use xlink:href="#DejaVuSans-30" transform="translate(63.623047 0)"/>
       <use xlink:href="#DejaVuSans-30" transform="translate(127.246094 0)"/>
      </g>
     </g>
    </g>
    <g id="xtick_11">
     <g id="line2d_22">
      <g>
       <use xlink:href="#ma54df9c8b1" x="407.720821" y="353.106" style="stroke: #000000; stroke-width: 0.8"/>
      </g>
     </g>
     <g id="text_21">
      <!-- 600 -->
      <g transform="translate(398.177071 367.704438) scale(0.1 -0.1)">
       <use xlink:href="#DejaVuSans-36"/>
       <use xlink:href="#DejaVuSans-30" transform="translate(63.623047 0)"/>
       <use xlink:href="#DejaVuSans-30" transform="translate(127.246094 0)"/>
      </g>
     </g>
    </g>
    <g id="xtick_12">
     <g id="line2d_23">
      <g>
       <use xlink:href="#ma54df9c8b1" x="487.654704" y="353.106" style="stroke: #000000; stroke-width: 0.8"/>
      </g>
     </g>
     <g id="text_22">
      <!-- 800 -->
      <g transform="translate(478.110954 367.704438) scale(0.1 -0.1)">
       <use xlink:href="#DejaVuSans-38"/>
       <use xlink:href="#DejaVuSans-30" transform="translate(63.623047 0)"/>
       <use xlink:href="#DejaVuSans-30" transform="translate(127.246094 0)"/>
      </g>
     </g>
    </g>
   </g>
   <g id="matplotlib.axis_4">
    <g id="ytick_5">
     <g id="line2d_24">
      <g>
       <use xlink:href="#m0a692efda2" x="70.2" y="332.194197" style="stroke: #000000; stroke-width: 0.8"/>
      </g>
     </g>
     <g id="text_23">
      <!-- −10 -->
      <g transform="translate(42.095313 335.993416) scale(0.1 -0.1)">
       <use xlink:href="#DejaVuSans-2212"/>
       <use xlink:href="#DejaVuSans-31" transform="translate(83.789062 0)"/>
       <use xlink:href="#DejaVuSans-30" transform="translate(147.412109 0)"/>
      </g>
     </g>
    </g>
    <g id="ytick_6">
     <g id="line2d_25">
      <g>
       <use xlink:href="#m0a692efda2" x="70.2" y="287.498362" style="stroke: #000000; stroke-width: 0.8"/>
      </g>
     </g>
     <g id="text_24">
      <!-- 0 -->
      <g transform="translate(56.8375 291.297581) scale(0.1 -0.1)">
       <use xlink:href="#DejaVuSans-30"/>
      </g>
     </g>
    </g>
    <g id="ytick_7">
     <g id="line2d_26">
      <g>
       <use xlink:href="#m0a692efda2" x="70.2" y="242.802528" style="stroke: #000000; stroke-width: 0.8"/>
      </g>
     </g>
     <g id="text_25">
      <!-- 10 -->
      <g transform="translate(50.475 246.601746) scale(0.1 -0.1)">
       <use xlink:href="#DejaVuSans-31"/>
       <use xlink:href="#DejaVuSans-30" transform="translate(63.623047 0)"/>
      </g>
     </g>
    </g>
    <g id="text_26">
     <!-- ΔΔLL (bits) -->
     <g transform="translate(36.015625 322.22225) rotate(-90) scale(0.1 -0.1)">
      <use xlink:href="#DejaVuSans-394"/>
      <use xlink:href="#DejaVuSans-394" transform="translate(68.408203 0)"/>
      <use xlink:href="#DejaVuSans-4c" transform="translate(136.816406 0)"/>
      <use xlink:href="#DejaVuSans-4c" transform="translate(192.529297 0)"/>
      <use xlink:href="#DejaVuSans-20" transform="translate(248.242188 0)"/>
      <use xlink:href="#DejaVuSans-28" transform="translate(280.029297 0)"/>
      <use xlink:href="#DejaVuSans-62" transform="translate(319.042969 0)"/>
      <use xlink:href="#DejaVuSans-69" transform="translate(382.519531 0)"/>
      <use xlink:href="#DejaVuSans-74" transform="translate(410.302734 0)"/>
      <use xlink:href="#DejaVuSans-73" transform="translate(449.511719 0)"/>
      <use xlink:href="#DejaVuSans-29" transform="translate(501.611328 0)"/>
     </g>
    </g>
   </g>
   <g id="line2d_27">
    <path d="M 167.91917 353.106 
L 167.91917 237.276 
" clip-path="url(#pd7f9f1ec2e)" style="fill: none; stroke-dasharray: 2.96,1.28; stroke-dashoffset: 0; stroke: #000000; stroke-width: 0.8"/>
   </g>
   <g id="line2d_28">
    <path d="M 70.2 287.498362 
L 505.44 287.498362 
" clip-path="url(#pd7f9f1ec2e)" style="fill: none; stroke-dasharray: 0.8,1.32; stroke-dashoffset: 0; stroke: #000000; stroke-width: 0.8"/>
   </g>
   <g id="line2d_29">
    <path d="M 89.983636 282.863982 
L 93.980327 314.397987 
L 97.977023 274.43729 
L 101.973713 307.403125 
L 105.97041 272.201884 
L 109.967106 294.366941 
L 113.963796 304.958561 
L 117.960493 315.534571 
L 121.957186 302.941456 
L 125.953882 269.044913 
L 129.950576 272.528202 
L 133.947269 262.432607 
L 137.943962 288.067134 
L 141.940659 296.476005 
L 145.937352 299.018283 
L 149.934045 306.336941 
L 153.93074 302.506635 
L 157.927434 269.063812 
L 161.924129 295.702321 
L 165.920823 273.494422 
L 169.917517 289.254967 
L 173.914211 282.758739 
L 177.910906 281.800883 
L 181.9076 289.868991 
L 185.904294 292.142838 
L 189.900988 280.65125 
L 193.897681 288.953057 
L 197.894377 283.36182 
L 201.891071 280.643855 
L 205.887764 301.749335 
L 209.884457 305.440996 
L 213.881154 251.884879 
L 217.877847 269.827423 
L 221.874543 305.298553 
L 225.871234 299.446351 
L 229.86793 293.76283 
L 233.864626 271.028361 
L 237.861317 307.605942 
L 241.858013 271.882748 
L 245.854704 300.983721 
L 249.8514 275.252277 
L 253.848096 347.841 
L 257.844787 279.316103 
L 261.841483 302.048934 
L 265.838179 289.509332 
L 269.83487 288.856943 
L 273.83156 285.535337 
L 277.828262 264.613714 
L 281.824953 281.098809 
L 285.821643 286.074233 
L 289.818345 300.317825 
L 293.815036 279.347416 
L 297.811726 262.667038 
L 301.808428 274.125126 
L 305.805119 282.865165 
L 309.801809 292.692911 
L 313.798511 280.449299 
L 317.795202 268.23795 
L 321.791892 290.23573 
L 325.788594 267.415919 
L 329.785285 266.794859 
L 333.781975 242.541 
L 337.778677 296.972391 
L 341.775368 284.019385 
L 345.772058 285.692133 
L 349.76876 269.747081 
L 353.765451 329.075262 
L 357.762141 262.649172 
L 361.758843 292.502964 
L 365.755534 307.259575 
L 369.752224 301.856648 
L 373.748914 278.21771 
L 377.745605 308.160004 
L 381.742319 301.080912 
L 385.739009 280.693767 
L 389.7357 295.959499 
L 393.73239 297.12395 
L 397.72908 289.571529 
L 401.725771 279.85742 
L 405.722485 297.428226 
L 409.719175 299.194177 
L 413.715866 253.980295 
L 417.712556 305.757945 
L 421.709246 287.360538 
L 425.705937 328.862888 
L 429.702627 275.692927 
L 433.699341 254.886627 
L 437.696032 319.809916 
L 441.692722 301.058217 
L 445.689412 273.38913 
L 449.686103 276.342406 
L 453.682793 289.409365 
L 457.679507 285.929486 
L 461.676198 269.389567 
L 465.672888 274.787185 
L 469.669578 293.219166 
L 473.666269 276.279449 
L 477.662959 277.939389 
L 481.659673 319.442688 
L 485.656364 264.669429 
" clip-path="url(#pd7f9f1ec2e)" style="fill: none; stroke: #d62728; stroke-width: 2.2; stroke-linecap: square"/>
   </g>
   <g id="line2d_30">
    <defs>
     <path id="m695e44afa1" d="M 0 1.25 
C 0.331504 1.25 0.649475 1.118292 0.883883 0.883883 
C 1.118292 0.649475 1.25 0.331504 1.25 0 
C 1.25 -0.331504 1.118292 -0.649475 0.883883 -0.883883 
C 0.649475 -1.118292 0.331504 -1.25 0 -1.25 
C -0.331504 -1.25 -0.649475 -1.118292 -0.883883 -0.883883 
C -1.118292 -0.649475 -1.25 -0.331504 -1.25 0 
C -1.25 0.331504 -1.118292 0.649475 -0.883883 0.883883 
C -0.649475 1.118292 -0.331504 1.25 0 1.25 
z
" style="stroke: #000000"/>
    </defs>
    <g clip-path="url(#pd7f9f1ec2e)">
     <use xlink:href="#m695e44afa1" x="117.960493" y="315.534571" style="stroke: #000000"/>
     <use xlink:href="#m695e44afa1" x="213.881154" y="251.884879" style="stroke: #000000"/>
     <use xlink:href="#m695e44afa1" x="253.848096" y="347.841" style="stroke: #000000"/>
     <use xlink:href="#m695e44afa1" x="301.808428" y="274.125126" style="stroke: #000000"/>
     <use xlink:href="#m695e44afa1" x="333.781975" y="242.541" style="stroke: #000000"/>
     <use xlink:href="#m695e44afa1" x="353.765451" y="329.075262" style="stroke: #000000"/>
     <use xlink:href="#m695e44afa1" x="413.715866" y="253.980295" style="stroke: #000000"/>
     <use xlink:href="#m695e44afa1" x="425.705937" y="328.862888" style="stroke: #000000"/>
     <use xlink:href="#m695e44afa1" x="433.699341" y="254.886627" style="stroke: #000000"/>
     <use xlink:href="#m695e44afa1" x="437.696032" y="319.809916" style="stroke: #000000"/>
     <use xlink:href="#m695e44afa1" x="485.656364" y="264.669429" style="stroke: #000000"/>
    </g>
   </g>
   <g id="patch_10">
    <path d="M 70.2 353.106 
L 70.2 237.276 
" style="fill: none; stroke: #000000; stroke-width: 0.8; stroke-linejoin: miter; stroke-linecap: square"/>
   </g>
   <g id="patch_11">
    <path d="M 505.44 353.106 
L 505.44 237.276 
" style="fill: none; stroke: #000000; stroke-width: 0.8; stroke-linejoin: miter; stroke-linecap: square"/>
   </g>
   <g id="patch_12">
    <path d="M 70.2 353.106 
L 505.44 353.106 
" style="fill: none; stroke: #000000; stroke-width: 0.8; stroke-linejoin: miter; stroke-linecap: square"/>
   </g>
   <g id="patch_13">
    <path d="M 70.2 237.276 
L 505.44 237.276 
" style="fill: none; stroke: #000000; stroke-width: 0.8; stroke-linejoin: miter; stroke-linecap: square"/>
   </g>
   <g id="text_27">
    <!-- Panel B: pair-diff with significance dots -->
    <g transform="translate(171.554063 231.276) scale(0.12 -0.12)">
     <defs>
      <path id="DejaVuSans-42" d="M 1259 2228 
L 1259 519 
L 2272 519 
Q 2781 519 3026 730 
Q 3272 941 3272 1375 
Q 3272 1813 3026 2020 
Q 2781 2228 2272 2228 
L 1259 2228 
z
M 1259 4147 
L 1259 2741 
L 2194 2741 
Q 2656 2741 2882 2914 
Q 3109 3088 3109 3444 
Q 3109 3797 2882 3972 
Q 2656 4147 2194 4147 
L 1259 4147 
z
M 628 4666 
L 2241 4666 
Q 2963 4666 3353 4366 
Q 3744 4066 3744 3513 
Q 3744 3084 3544 2831 
Q 3344 2578 2956 2516 
Q 3422 2416 3680 2098 
Q 3938 1781 3938 1306 
Q 3938 681 3513 340 
Q 3088 0 2303 0 
L 628 0 
L 628 4666 
z
" transform="scale(0.015625)"/>
      <path id="DejaVuSans-70" d="M 1159 525 
L 1159 -1331 
L 581 -1331 
L 581 3500 
L 1159 3500 
L 1159 2969 
Q 1341 3281 1617 3432 
Q 1894 3584 2278 3584 
Q 2916 3584 3314 3078 
Q 3713 2572 3713 1747 
Q 3713 922 3314 415 
Q 2916 -91 2278 -91 
Q 1894 -91 1617 61 
Q 1341 213 1159 525 
z
M 3116 1747 
Q 3116 2381 2855 2742 
Q 2594 3103 2138 3103 
Q 1681 3103 1420 2742 
Q 1159 2381 1159 1747 
Q 1159 1113 1420 752 
Q 1681 391 2138 391 
Q 2594 391 2855 752 
Q 3116 1113 3116 1747 
z
" transform="scale(0.015625)"/>
      <path id="DejaVuSans-68" d="M 3513 2113 
L 3513 0 
L 2938 0 
L 2938 2094 
Q 2938 2591 2744 2837 
Q 2550 3084 2163 3084 
Q 1697 3084 1428 2787 
Q 1159 2491 1159 1978 
L 1159 0 
L 581 0 
L 581 4863 
L 1159 4863 
L 1159 2956 
Q 1366 3272 1645 3428 
Q 1925 3584 2291 3584 
Q 2894 3584 3203 3211 
Q 3513 2838 3513 2113 
z
" transform="scale(0.015625)"/>
      <path id="DejaVuSans-67" d="M 2906 1791 
Q 2906 2416 2648 2759 
Q 2391 3103 1925 3103 
Q 1463 3103 1205 2759 
Q 947 2416 947 1791 
Q 947 1169 1205 825 
Q 1463 481 1925 481 
Q 2391 481 2648 825 
Q 2906 1169 2906 1791 
z
M 3481 434 
Q 3481 -459 3084 -895 
Q 2688 -1331 1869 -1331 
Q 1566 -1331 1297 -1286 
Q 1028 -1241 775 -1147 
L 775 -588 
Q 1028 -725 1275 -790 
Q 1522 -856 1778 -856 
Q 2344 -856 2625 -561 
Q 2906 -266 2906 331 
L 2906 616 
Q 2728 306 2450 153 
Q 2172 0 1784 0 
Q 1141 0 747 490 
Q 353 981 353 1791 
Q 353 2603 747 3093 
Q 1141 3584 1784 3584 
Q 2172 3584 2450 3431 
Q 2728 3278 2906 2969 
L 2906 3500 
L 3481 3500 
L 3481 434 
z
" transform="scale(0.015625)"/>
      <path id="DejaVuSans-63" d="M 3122 3366 
L 3122 2828 
Q 2878 2963 2633 3030 
Q 2388 3097 2138 3097 
Q 1578 3097 1268 2742 
Q 959 2388 959 1747 
Q 959 1106 1268 751 
Q 1578 397 2138 397 
Q 2388 397 2633 464 
Q 2878 531 3122 666 
L 3122 134 
Q 2881 22 2623 -34 
Q 2366 -91 2075 -91 
Q 1284 -91 818 406 
Q 353 903 353 1747 
Q 353 2603 823 3093 
Q 1294 3584 2113 3584 
Q 2378 3584 2631 3529 
Q 2884 3475 3122 3366 
z
" transform="scale(0.015625)"/>
     </defs>
     <use xlink:href="#DejaVuSans-50"/>
     <use xlink:href="#DejaVuSans-61" transform="translate(55.802734 0)"/>
     <use xlink:href="#DejaVuSans-6e" transform="translate(117.082031 0)"/>
     <use xlink:href="#DejaVuSans-65" transform="translate(180.460938 0)"/>
     <use xlink:href="#DejaVuSans-6c" transform="translate(241.984375 0)"/>
     <use xlink:href="#DejaVuSans-20" transform="translate(269.767578 0)"/>
     <use xlink:href="#DejaVuSans-42" transform="translate(301.554688 0)"/>
     <use xlink:href="#DejaVuSans-3a" transform="translate(370.158203 0)"/>
     <use xlink:href="#DejaVuSans-20" transform="translate(403.849609 0)"/>
     <use xlink:href="#DejaVuSans-70" transform="translate(435.636719 0)"/>
     <use xlink:href="#DejaVuSans-61" transform="translate(499.113281 0)"/>
     <use xlink:href="#DejaVuSans-69" transform="translate(560.392578 0)"/>
     <use xlink:href="#DejaVuSans-72" transform="translate(588.175781 0)"/>
     <use xlink:href="#DejaVuSans-2d" transform="translate(622.914062 0)"/>
     <use xlink:href="#DejaVuSans-64" transform="translate(658.998047 0)"/>
     <use xlink:href="#DejaVuSans-69" transform="translate(722.474609 0)"/>
     <use xlink:href="#DejaVuSans-66" transform="translate(750.257812 0)"/>
     <use xlink:href="#DejaVuSans-66" transform="translate(785.462891 0)"/>
     <use xlink:href="#DejaVuSans-20" transform="translate(820.667969 0)"/>
     <use xlink:href="#DejaVuSans-77" transform="translate(852.455078 0)"/>
     <use xlink:href="#DejaVuSans-69" transform="translate(934.242188 0)"/>
     <use xlink:href="#DejaVuSans-74" transform="translate(962.025391 0)"/>
     <use xlink:href="#DejaVuSans-68" transform="translate(1001.234375 0)"/>
     <use xlink:href="#DejaVuSans-20" transform="translate(1064.613281 0)"/>
     <use xlink:href="#DejaVuSans-73" transform="translate(1096.400391 0)"/>
     <use xlink:href="#DejaVuSans-69" transform="translate(1148.5 0)"/>
     <use xlink:href="#DejaVuSans-67" transform="translate(1176.283203 0)"/>
     <use xlink:href="#DejaVuSans-6e" transform="translate(1239.759766 0)"/>
     <use xlink:href="#DejaVuSans-69" transform="translate(1303.138672 0)"/>
     <use xlink:href="#DejaVuSans-66" transform="translate(1330.921875 0)"/>
     <use xlink:href="#DejaVuSans-69" transform="translate(1366.126953 0)"/>
     <use xlink:href="#DejaVuSans-63" transform="translate(1393.910156 0)"/>
     <use xlink:href="#DejaVuSans-61" transform="translate(1448.890625 0)"/>
     <use xlink:href="#DejaVuSans-6e" transform="translate(1510.169922 0)"/>
     <use xlink:href="#DejaVuSans-63" transform="translate(1573.548828 0)"/>
     <use xlink:href="#DejaVuSans-65" transform="translate(1628.529297 0)"/>
     <use xlink:href="#DejaVuSans-20" transform="translate(1690.052734 0)"/>
     <use xlink:href="#DejaVuSans-64" transform="translate(1721.839844 0)"/>
     <use xlink:href="#DejaVuSans-6f" transform="translate(1785.316406 0)"/>
     <use xlink:href="#DejaVuSans-74" transform="translate(1846.498047 0)"/>
     <use xlink:href="#DejaVuSans-73" transform="translate(1885.707031 0)"/>
    </g>
   </g>
   <g id="legend_2">
    <g id="line2d_31">
     <path d="M 79.2 250.374437 
L 89.2 250.374437 
L 99.2 250.374437 
" style="fill: none; stroke: #d62728; stroke-width: 2.2; stroke-linecap: square"/>
    </g>
    <g id="text_28">
     <!-- (A→B − B→A) -->
     <g transform="translate(107.2 253.874437) scale(0.1 -0.1)">
      <use xlink:href="#DejaVuSans-28"/>
      <use xlink:href="#DejaVuSans-41" transform="translate(39.013672 0)"/>
      <use xlink:href="#DejaVuSans-2192" transform="translate(107.421875 0)"/>
      <use xlink:href="#DejaVuSans-42" transform="translate(191.210938 0)"/>
      <use xlink:href="#DejaVuSans-20" transform="translate(259.814453 0)"/>
      <use xlink:href="#DejaVuSans-2212" transform="translate(291.601562 0)"/>
      <use xlink:href="#DejaVuSans-20" transform="translate(375.390625 0)"/>
      <use xlink:href="#DejaVuSans-42" transform="translate(407.177734 0)"/>
      <use xlink:href="#DejaVuSans-2192" transform="translate(475.78125 0)"/>
      <use xlink:href="#DejaVuSans-41" transform="translate(559.570312 0)"/>
      <use xlink:href="#DejaVuSans-29" transform="translate(627.978516 0)"/>
     </g>
    </g>
    <g id="line2d_32">
     <g>
      <use xlink:href="#m695e44afa1" x="89.2" y="265.052563" style="stroke: #000000"/>
     </g>
    </g>
    <g id="text_29">
     <!-- p&lt;0.05 (one-sided) -->
     <g transform="translate(107.2 268.552563) scale(0.1 -0.1)">
      <defs>
       <path id="DejaVuSans-3c" d="M 4684 3150 
L 1459 2003 
L 4684 863 
L 4684 294 
L 678 1747 
L 678 2266 
L 4684 3719 
L 4684 3150 
z
" transform="scale(0.015625)"/>
       <path id="DejaVuSans-2e" d="M 684 794 
L 1344 794 
L 1344 0 
L 684 0 
L 684 794 
z
" transform="scale(0.015625)"/>
      </defs>
      <use xlink:href="#DejaVuSans-70"/>
      <use xlink:href="#DejaVuSans-3c" transform="translate(63.476562 0)"/>
      <use xlink:href="#DejaVuSans-30" transform="translate(147.265625 0)"/>
      <use xlink:href="#DejaVuSans-2e" transform="translate(210.888672 0)"/>
      <use xlink:href="#DejaVuSans-30" transform="translate(242.675781 0)"/>
      <use xlink:href="#DejaVuSans-35" transform="translate(306.298828 0)"/>
      <use xlink:href="#DejaVuSans-20" transform="translate(369.921875 0)"/>
      <use xlink:href="#DejaVuSans-28" transform="translate(401.708984 0)"/>
      <use xlink:href="#DejaVuSans-6f" transform="translate(440.722656 0)"/>
      <use xlink:href="#DejaVuSans-6e" transform="translate(501.904297 0)"/>
      <use xlink:href="#DejaVuSans-65" transform="translate(565.283203 0)"/>
      <use xlink:href="#DejaVuSans-2d" transform="translate(626.806641 0)"/>
      <use xlink:href="#DejaVuSans-73" transform="translate(662.890625 0)"/>
      <use xlink:href="#DejaVuSans-69" transform="translate(714.990234 0)"/>
      <use xlink:href="#DejaVuSans-64" transform="translate(742.773438 0)"/>
      <use xlink:href="#DejaVuSans-65" transform="translate(806.25 0)"/>
      <use xlink:href="#DejaVuSans-64" transform="translate(867.773438 0)"/>
      <use xlink:href="#DejaVuSans-29" transform="translate(931.25 0)"/>
     </g>
    </g>
   </g>
  </g>
  <g id="axes_3">
   <g id="patch_14">
    <path d="M 70.2 499.824 
L 505.44 499.824 
L 505.44 383.994 
L 70.2 383.994 
z
" style="fill: #ffffff"/>
   </g>
   <g id="matplotlib.axis_5">
    <g id="xtick_13">
     <g id="line2d_33">
      <g>
       <use xlink:href="#ma54df9c8b1" x="87.985286" y="499.824" style="stroke: #000000; stroke-width: 0.8"/>
      </g>
     </g>
     <g id="text_30">
      <!-- −200 -->
      <g transform="translate(74.251693 514.422438) scale(0.1 -0.1)">
       <use xlink:href="#DejaVuSans-2212"/>
       <use xlink:href="#DejaVuSans-32" transform="translate(83.789062 0)"/>
       <use xlink:href="#DejaVuSans-30" transform="translate(147.412109 0)"/>
       <use xlink:href="#DejaVuSans-30" transform="translate(211.035156 0)"/>
      </g>
     </g>
    </g>
    <g id="xtick_14">
     <g id="line2d_34">
      <g>
       <use xlink:href="#ma54df9c8b1" x="167.91917" y="499.824" style="stroke: #000000; stroke-width: 0.8"/>
      </g>
     </g>
     <g id="text_31">
      <!-- 0 -->
      <g transform="translate(164.73792 514.422438) scale(0.1 -0.1)">
       <use xlink:href="#DejaVuSans-30"/>
      </g>
     </g>
    </g>
    <g id="xtick_15">
     <g id="line2d_35">
      <g>
       <use xlink:href="#ma54df9c8b1" x="247.853053" y="499.824" style="stroke: #000000; stroke-width: 0.8"/>
      </g>
     </g>
     <g id="text_32">
      <!-- 200 -->
      <g transform="translate(238.309303 514.422438) scale(0.1 -0.1)">
       <use xlink:href="#DejaVuSans-32"/>
       <use xlink:href="#DejaVuSans-30" transform="translate(63.623047 0)"/>
       <use xlink:href="#DejaVuSans-30" transform="translate(127.246094 0)"/>
      </g>
     </g>
    </g>
    <g id="xtick_16">
     <g id="line2d_36">
      <g>
       <use xlink:href="#ma54df9c8b1" x="327.786937" y="499.824" style="stroke: #000000; stroke-width: 0.8"/>
      </g>
     </g>
     <g id="text_33">
      <!-- 400 -->
      <g transform="translate(318.243187 514.422438) scale(0.1 -0.1)">
       <use xlink:href="#DejaVuSans-34"/>
       <use xlink:href="#DejaVuSans-30" transform="translate(63.623047 0)"/>
       <use xlink:href="#DejaVuSans-30" transform="translate(127.246094 0)"/>
      </g>
     </g>
    </g>
    <g id="xtick_17">
     <g id="line2d_37">
      <g>
       <use xlink:href="#ma54df9c8b1" x="407.720821" y="499.824" style="stroke: #000000; stroke-width: 0.8"/>
      </g>
     </g>
     <g id="text_34">
      <!-- 600 -->
      <g transform="translate(398.177071 514.422438) scale(0.1 -0.1)">
       <use xlink:href="#DejaVuSans-36"/>
       <use xlink:href="#DejaVuSans-30" transform="translate(63.623047 0)"/>
       <use xlink:href="#DejaVuSans-30" transform="translate(127.246094 0)"/>
      </g>
     </g>
    </g>
    <g id="xtick_18">
     <g id="line2d_38">
      <g>
       <use xlink:href="#ma54df9c8b1" x="487.654704" y="499.824" style="stroke: #000000; stroke-width: 0.8"/>
      </g>
     </g>
     <g id="text_35">
      <!-- 800 -->
      <g transform="translate(478.110954 514.422438) scale(0.1 -0.1)">
       <use xlink:href="#DejaVuSans-38"/>
       <use xlink:href="#DejaVuSans-30" transform="translate(63.623047 0)"/>
       <use xlink:href="#DejaVuSans-30" transform="translate(127.246094 0)"/>
      </g>
     </g>
    </g>
    <g id="text_36">
     <!-- Time (ms) -->
     <g transform="translate(262.620781 528.100563) scale(0.1 -0.1)">
      <defs>
       <path id="DejaVuSans-54" d="M -19 4666 
L 3928 4666 
L 3928 4134 
L 2272 4134 
L 2272 0 
L 1638 0 
L 1638 4134 
L -19 4134 
L -19 4666 
z
" transform="scale(0.015625)"/>
       <path id="DejaVuSans-6d" d="M 3328 2828 
Q 3544 3216 3844 3400 
Q 4144 3584 4550 3584 
Q 5097 3584 5394 3201 
Q 5691 2819 5691 2113 
L 5691 0 
L 5113 0 
L 5113 2094 
Q 5113 2597 4934 2840 
Q 4756 3084 4391 3084 
Q 3944 3084 3684 2787 
Q 3425 2491 3425 1978 
L 3425 0 
L 2847 0 
L 2847 2094 
Q 2847 2600 2669 2842 
Q 2491 3084 2119 3084 
Q 1678 3084 1418 2786 
Q 1159 2488 1159 1978 
L 1159 0 
L 581 0 
L 581 3500 
L 1159 3500 
L 1159 2956 
Q 1356 3278 1631 3431 
Q 1906 3584 2284 3584 
Q 2666 3584 2933 3390 
Q 3200 3197 3328 2828 
z
" transform="scale(0.015625)"/>
      </defs>
      <use xlink:href="#DejaVuSans-54"/>
      <use xlink:href="#DejaVuSans-69" transform="translate(57.958984 0)"/>
      <use xlink:href="#DejaVuSans-6d" transform="translate(85.742188 0)"/>
      <use xlink:href="#DejaVuSans-65" transform="translate(183.154297 0)"/>
      <use xlink:href="#DejaVuSans-20" transform="translate(244.677734 0)"/>
      <use xlink:href="#DejaVuSans-28" transform="translate(276.464844 0)"/>
      <use xlink:href="#DejaVuSans-6d" transform="translate(315.478516 0)"/>
      <use xlink:href="#DejaVuSans-73" transform="translate(412.890625 0)"/>
      <use xlink:href="#DejaVuSans-29" transform="translate(464.990234 0)"/>
     </g>
    </g>
   </g>
   <g id="matplotlib.axis_6">
    <g id="ytick_8">
     <g id="line2d_39">
      <g>
       <use xlink:href="#m0a692efda2" x="70.2" y="488.895601" style="stroke: #000000; stroke-width: 0.8"/>
      </g>
     </g>
     <g id="text_37">
      <!-- −2 -->
      <g transform="translate(48.457813 492.694819) scale(0.1 -0.1)">
       <use xlink:href="#DejaVuSans-2212"/>
       <use xlink:href="#DejaVuSans-32" transform="translate(83.789062 0)"/>
      </g>
     </g>
    </g>
    <g id="ytick_9">
     <g id="line2d_40">
      <g>
       <use xlink:href="#m0a692efda2" x="70.2" y="452.24384" style="stroke: #000000; stroke-width: 0.8"/>
      </g>
     </g>
     <g id="text_38">
      <!-- 0 -->
      <g transform="translate(56.8375 456.043059) scale(0.1 -0.1)">
       <use xlink:href="#DejaVuSans-30"/>
      </g>
     </g>
    </g>
    <g id="ytick_10">
     <g id="line2d_41">
      <g>
       <use xlink:href="#m0a692efda2" x="70.2" y="415.592079" style="stroke: #000000; stroke-width: 0.8"/>
      </g>
     </g>
     <g id="text_39">
      <!-- 2 -->
      <g transform="translate(56.8375 419.391298) scale(0.1 -0.1)">
       <use xlink:href="#DejaVuSans-32"/>
      </g>
     </g>
    </g>
    <g id="text_40">
     <!-- Z (σ from null) -->
     <g transform="translate(42.378125 477.919938) rotate(-90) scale(0.1 -0.1)">
      <defs>
       <path id="DejaVuSans-5a" d="M 359 4666 
L 4025 4666 
L 4025 4184 
L 1075 531 
L 4097 531 
L 4097 0 
L 288 0 
L 288 481 
L 3238 4134 
L 359 4134 
L 359 4666 
z
" transform="scale(0.015625)"/>
      </defs>
      <use xlink:href="#DejaVuSans-5a"/>
      <use xlink:href="#DejaVuSans-20" transform="translate(68.505859 0)"/>
      <use xlink:href="#DejaVuSans-28" transform="translate(100.292969 0)"/>
      <use xlink:href="#DejaVuSans-3c3" transform="translate(139.306641 0)"/>
      <use xlink:href="#DejaVuSans-20" transform="translate(202.685547 0)"/>
      <use xlink:href="#DejaVuSans-66" transform="translate(234.472656 0)"/>
      <use xlink:href="#DejaVuSans-72" transform="translate(269.677734 0)"/>
      <use xlink:href="#DejaVuSans-6f" transform="translate(308.541016 0)"/>
      <use xlink:href="#DejaVuSans-6d" transform="translate(369.722656 0)"/>
      <use xlink:href="#DejaVuSans-20" transform="translate(467.134766 0)"/>
      <use xlink:href="#DejaVuSans-6e" transform="translate(498.921875 0)"/>
      <use xlink:href="#DejaVuSans-75" transform="translate(562.300781 0)"/>
      <use xlink:href="#DejaVuSans-6c" transform="translate(625.679688 0)"/>
      <use xlink:href="#DejaVuSans-6c" transform="translate(653.462891 0)"/>
      <use xlink:href="#DejaVuSans-29" transform="translate(681.246094 0)"/>
     </g>
    </g>
   </g>
   <g id="line2d_42">
    <path d="M 167.91917 499.824 
L 167.91917 383.994 
" clip-path="url(#p82209aedb3)" style="fill: none; stroke-dasharray: 2.96,1.28; stroke-dashoffset: 0; stroke: #000000; stroke-width: 0.8"/>
   </g>
   <g id="line2d_43">
    <path d="M 89.983636 447.806542 
L 93.980327 479.928867 
L 97.977023 441.72354 
L 101.973713 470.622777 
L 105.97041 447.929204 
L 109.967106 462.039864 
L 113.963796 476.2701 
L 117.960493 457.713047 
L 121.957186 477.911499 
L 125.953882 423.780954 
L 129.950576 430.188184 
L 133.947269 441.646651 
L 137.943962 437.373898 
L 141.940659 455.063295 
L 145.937352 455.387381 
L 149.934045 479.319179 
L 153.93074 468.633807 
L 157.927434 440.843996 
L 161.924129 462.282535 
L 165.920823 442.13216 
L 169.917517 475.592681 
L 173.914211 440.015095 
L 177.910906 450.905005 
L 181.9076 464.185745 
L 185.904294 467.167817 
L 189.900988 454.707215 
L 193.897681 440.441551 
L 197.894377 452.342355 
L 201.891071 450.347896 
L 205.887764 467.926325 
L 209.884457 462.86418 
L 213.881154 417.940808 
L 217.877847 459.339774 
L 221.874543 452.392636 
L 225.871234 457.796882 
L 229.86793 457.765609 
L 233.864626 445.528867 
L 237.861317 473.549446 
L 241.858013 433.575796 
L 245.854704 464.063513 
L 249.8514 459.652035 
L 253.848096 494.559 
L 257.844787 448.705646 
L 261.841483 447.292877 
L 265.838179 474.654656 
L 269.83487 455.2204 
L 273.83156 459.96011 
L 277.828262 451.704822 
L 281.824953 454.71523 
L 285.821643 440.44795 
L 289.818345 475.56871 
L 293.815036 448.095989 
L 297.811726 429.203293 
L 301.808428 415.824398 
L 305.805119 452.693213 
L 309.801809 474.126386 
L 313.798511 437.288346 
L 317.795202 450.492495 
L 321.791892 464.400552 
L 325.788594 445.486473 
L 329.785285 421.828571 
L 333.781975 389.259 
L 337.778677 464.354935 
L 341.775368 476.128298 
L 345.772058 434.946307 
L 349.76876 432.589791 
L 353.765451 481.685292 
L 357.762141 424.033848 
L 361.758843 471.985099 
L 365.755534 472.686003 
L 369.752224 461.384012 
L 373.748914 440.926083 
L 377.745605 470.471489 
L 381.742319 480.199487 
L 385.739009 443.365142 
L 389.7357 464.851487 
L 393.73239 436.036781 
L 397.72908 444.34237 
L 401.725771 442.358325 
L 405.722485 468.229249 
L 409.719175 486.549092 
L 413.715866 400.992216 
L 417.712556 484.289619 
L 421.709246 456.37937 
L 425.705937 470.381696 
L 429.702627 438.012632 
L 433.699341 412.03793 
L 437.696032 468.1333 
L 441.692722 471.584579 
L 445.689412 448.140161 
L 449.686103 439.424277 
L 453.682793 454.7685 
L 457.679507 440.894619 
L 461.676198 428.587686 
L 465.672888 438.124756 
L 469.669578 464.387521 
L 473.666269 441.362192 
L 477.662959 452.832412 
L 481.659673 479.257448 
L 485.656364 401.89065 
" clip-path="url(#p82209aedb3)" style="fill: none; stroke: #1f77b4; stroke-width: 2; stroke-linecap: square"/>
   </g>
   <g id="line2d_44">
    <path d="M 89.983636 454.824738 
L 93.980327 440.356384 
L 97.977023 454.651767 
L 101.973713 438.264051 
L 105.97041 470.781481 
L 109.967106 450.896712 
L 113.963796 444.005756 
L 117.960493 414.073782 
L 121.957186 457.912606 
L 125.953882 448.136866 
L 129.950576 452.962931 
L 133.947269 476.779621 
L 137.943962 433.957413 
L 141.940659 438.490542 
L 145.937352 442.51578 
L 149.934045 451.924276 
L 153.93074 443.14886 
L 157.927434 468.760997 
L 161.924129 444.093428 
L 165.920823 457.182803 
L 169.917517 469.813661 
L 173.914211 447.22099 
L 177.910906 456.848308 
L 181.9076 461.381084 
L 185.904294 457.826117 
L 189.900988 466.517294 
L 193.897681 434.493678 
L 197.894377 458.882092 
L 201.891071 463.320286 
L 205.887764 449.905406 
L 209.884457 434.57913 
L 213.881154 472.837759 
L 217.877847 486.806978 
L 221.874543 429.90938 
L 225.871234 437.677988 
L 229.86793 451.551538 
L 233.864626 467.728648 
L 237.861317 439.902259 
L 241.858013 457.659096 
L 245.854704 447.318167 
L 249.8514 475.246451 
L 253.848096 408.50684 
L 257.844787 463.734606 
L 261.841483 429.259511 
L 265.838179 474.981404 
L 269.83487 455.89909 
L 273.83156 462.044287 
L 277.828262 486.049042 
L 281.824953 456.198776 
L 285.821643 436.039656 
L 289.818345 456.000326 
L 293.815036 455.936831 
L 297.811726 471.332374 
L 301.808428 437.734168 
L 305.805119 460.790637 
L 309.801809 468.927791 
L 313.798511 454.946603 
L 317.795202 480.48709 
L 321.791892 458.771979 
L 325.788594 478.69392 
L 329.785285 448.235384 
L 333.781975 460.862002 
L 337.778677 453.609956 
L 341.775368 479.004451 
L 345.772058 439.620073 
L 349.76876 462.287207 
L 353.765451 417.737549 
L 357.762141 460.127697 
L 361.758843 467.143973 
L 365.755534 443.023852 
L 369.752224 442.216111 
L 373.748914 456.063637 
L 377.745605 437.366545 
L 381.742319 458.795538 
L 385.739009 451.354239 
L 389.7357 451.373877 
L 393.73239 425.346928 
L 397.72908 447.198787 
L 401.725771 448.475551 
L 405.722485 454.132251 
L 409.719175 467.05275 
L 413.715866 455.263398 
L 417.712556 454.862718 
L 421.709246 454.991068 
L 425.705937 415.999954 
L 429.702627 466.495744 
L 433.699341 460.905042 
L 437.696032 415.224063 
L 441.692722 454.033332 
L 445.689412 474.748784 
L 449.686103 462.434222 
L 453.682793 448.061376 
L 457.679507 453.042222 
L 461.676198 457.82107 
L 465.672888 452.504184 
L 469.669578 456.973607 
L 473.666269 458.056356 
L 477.662959 462.692218 
L 481.659673 430.497816 
L 485.656364 448.064668 
" clip-path="url(#p82209aedb3)" style="fill: none; stroke: #ff7f0e; stroke-width: 2; stroke-linecap: square"/>
   </g>
   <g id="patch_15">
    <path d="M 70.2 499.824 
L 70.2 383.994 
" style="fill: none; stroke: #000000; stroke-width: 0.8; stroke-linejoin: miter; stroke-linecap: square"/>
   </g>
   <g id="patch_16">
    <path d="M 505.44 499.824 
L 505.44 383.994 
" style="fill: none; stroke: #000000; stroke-width: 0.8; stroke-linejoin: miter; stroke-linecap: square"/>
   </g>
   <g id="patch_17">
    <path d="M 70.2 499.824 
L 505.44 499.824 
" style="fill: none; stroke: #000000; stroke-width: 0.8; stroke-linejoin: miter; stroke-linecap: square"/>
   </g>
   <g id="patch_18">
    <path d="M 70.2 383.994 
L 505.44 383.994 
" style="fill: none; stroke: #000000; stroke-width: 0.8; stroke-linejoin: miter; stroke-linecap: square"/>
   </g>
   <g id="text_41">
    <!-- Panel C: evidence strength vs null -->
    <g transform="translate(185.80125 377.994) scale(0.12 -0.12)">
     <use xlink:href="#DejaVuSans-50"/>
     <use xlink:href="#DejaVuSans-61" transform="translate(55.802734 0)"/>
     <use xlink:href="#DejaVuSans-6e" transform="translate(117.082031 0)"/>
     <use xlink:href="#DejaVuSans-65" transform="translate(180.460938 0)"/>
     <use xlink:href="#DejaVuSans-6c" transform="translate(241.984375 0)"/>
     <use xlink:href="#DejaVuSans-20" transform="translate(269.767578 0)"/>
     <use xlink:href="#DejaVuSans-43" transform="translate(301.554688 0)"/>
     <use xlink:href="#DejaVuSans-3a" transform="translate(371.378906 0)"/>
     <use xlink:href="#DejaVuSans-20" transform="translate(405.070312 0)"/>
     <use xlink:href="#DejaVuSans-65" transform="translate(436.857422 0)"/>
     <use xlink:href="#DejaVuSans-76" transform="translate(498.380859 0)"/>
     <use xlink:href="#DejaVuSans-69" transform="translate(557.560547 0)"/>
     <use xlink:href="#DejaVuSans-64" transform="translate(585.34375 0)"/>
     <use xlink:href="#DejaVuSans-65" transform="translate(648.820312 0)"/>
     <use xlink:href="#DejaVuSans-6e" transform="translate(710.34375 0)"/>
     <use xlink:href="#DejaVuSans-63" transform="translate(773.722656 0)"/>
     <use xlink:href="#DejaVuSans-65" transform="translate(828.703125 0)"/>
     <use xlink:href="#DejaVuSans-20" transform="translate(890.226562 0)"/>
     <use xlink:href="#DejaVuSans-73" transform="translate(922.013672 0)"/>
     <use xlink:href="#DejaVuSans-74" transform="translate(974.113281 0)"/>
     <use xlink:href="#DejaVuSans-72" transform="translate(1013.322266 0)"/>
     <use xlink:href="#DejaVuSans-65" transform="translate(1052.185547 0)"/>
     <use xlink:href="#DejaVuSans-6e" transform="translate(1113.708984 0)"/>
     <use xlink:href="#DejaVuSans-67" transform="translate(1177.087891 0)"/>
     <use xlink:href="#DejaVuSans-74" transform="translate(1240.564453 0)"/>
     <use xlink:href="#DejaVuSans-68" transform="translate(1279.773438 0)"/>
     <use xlink:href="#DejaVuSans-20" transform="translate(1343.152344 0)"/>
     <use xlink:href="#DejaVuSans-76" transform="translate(1374.939453 0)"/>
     <use xlink:href="#DejaVuSans-73" transform="translate(1434.119141 0)"/>
     <use xlink:href="#DejaVuSans-20" transform="translate(1486.21875 0)"/>
     <use xlink:href="#DejaVuSans-6e" transform="translate(1518.005859 0)"/>
     <use xlink:href="#DejaVuSans-75" transform="translate(1581.384766 0)"/>
     <use xlink:href="#DejaVuSans-6c" transform="translate(1644.763672 0)"/>
     <use xlink:href="#DejaVuSans-6c" transform="translate(1672.546875 0)"/>
    </g>
   </g>
   <g id="legend_3">
    <g id="line2d_45">
     <path d="M 79.2 397.092438 
L 89.2 397.092438 
L 99.2 397.092438 
" style="fill: none; stroke: #1f77b4; stroke-width: 2; stroke-linecap: square"/>
    </g>
    <g id="text_42">
     <!-- z(SLIP→SSC) -->
     <g transform="translate(107.2 400.592438) scale(0.1 -0.1)">
      <defs>
       <path id="DejaVuSans-7a" d="M 353 3500 
L 3084 3500 
L 3084 2975 
L 922 459 
L 3084 459 
L 3084 0 
L 275 0 
L 275 525 
L 2438 3041 
L 353 3041 
L 353 3500 
z
" transform="scale(0.015625)"/>
      </defs>
      <use xlink:href="#DejaVuSans-7a"/>
      <use xlink:href="#DejaVuSans-28" transform="translate(52.490234 0)"/>
      <use xlink:href="#DejaVuSans-53" transform="translate(91.503906 0)"/>
      <use xlink:href="#DejaVuSans-4c" transform="translate(154.980469 0)"/>
      <use xlink:href="#DejaVuSans-49" transform="translate(210.693359 0)"/>
      <use xlink:href="#DejaVuSans-50" transform="translate(240.185547 0)"/>
      <use xlink:href="#DejaVuSans-2192" transform="translate(300.488281 0)"/>
      <use xlink:href="#DejaVuSans-53" transform="translate(384.277344 0)"/>
      <use xlink:href="#DejaVuSans-53" transform="translate(447.753906 0)"/>
      <use xlink:href="#DejaVuSans-43" transform="translate(511.230469 0)"/>
      <use xlink:href="#DejaVuSans-29" transform="translate(581.054688 0)"/>
     </g>
    </g>
    <g id="line2d_46">
     <path d="M 79.2 411.770563 
L 89.2 411.770563 
L 99.2 411.770563 
" style="fill: none; stroke: #ff7f0e; stroke-width: 2; stroke-linecap: square"/>
    </g>
    <g id="text_43">
     <!-- z(SSC→SLIP) -->
     <g transform="translate(107.2 415.270563) scale(0.1 -0.1)">
      <use xlink:href="#DejaVuSans-7a"/>
      <use xlink:href="#DejaVuSans-28" transform="translate(52.490234 0)"/>
      <use xlink:href="#DejaVuSans-53" transform="translate(91.503906 0)"/>
      <use xlink:href="#DejaVuSans-53" transform="translate(154.980469 0)"/>
      <use xlink:href="#DejaVuSans-43" transform="translate(218.457031 0)"/>
      <use xlink:href="#DejaVuSans-2192" transform="translate(288.28125 0)"/>
      <use xlink:href="#DejaVuSans-53" transform="translate(372.070312 0)"/>
      <use xlink:href="#DejaVuSans-4c" transform="translate(435.546875 0)"/>
      <use xlink:href="#DejaVuSans-49" transform="translate(491.259766 0)"/>
      <use xlink:href="#DejaVuSans-50" transform="translate(520.751953 0)"/>
      <use xlink:href="#DejaVuSans-29" transform="translate(581.054688 0)"/>
     </g>
    </g>
   </g>
  </g>
 </g>
 <defs>
  <clipPath id="p00aec6ee90">
   <rect x="70.2" y="67.392" width="435.24" height="138.996"/>
  </clipPath>
  <clipPath id="pd7f9f1ec2e">
   <rect x="70.2" y="237.276" width="435.24" height="115.83"/>
  </clipPath>
  <clipPath id="p82209aedb3">
   <rect x="70.2" y="383.994" width="435.24" height="115.83"/>
  </clipPath>
 </defs>
</svg>
