<?xml version="1.0" encoding="utf-8" standalone="no"?>
<!DOCTYPE svg PUBLIC "-//W3C//DTD SVG 1.1//EN"
  "http://www.w3.org/Graphics/SVG/1.1/DTD/svg11.dtd">
<svg xmlns:xlink="http://www.w3.org/1999/xlink" width="856.8pt" height="453.6pt" viewBox="0 0 856.8 453.6" xmlns="http://www.w3.org/2000/svg" version="1.1">
 <metadata>
  <rdf:RDF xmlns:dc="http://purl.org/dc/elements/1.1/" xmlns:cc="http://creativecommons.org/ns#" xmlns:rdf="http://www.w3.org/1999/02/22-rdf-syntax-ns#">
   <cc:Work>
    <dc:type rdf:resource="http://purl.org/dc/dcmitype/StillImage"/>
    <dc:date>2026-01-28T21:01:15.061905</dc:date>
    <dc:format>image/svg+xml</dc:format>
    <dc:creator>
     <cc:Agent>
      <dc:title>Matplotlib v3.10.5, https://matplotlib.org/</dc:title>
     </cc:Agent>
    </dc:creator>
   </cc:Work>
  </rdf:RDF>
 </metadata>
 <defs>
  <style type="text/css">*{stroke-linejoin: round; stroke-linecap: butt}</style>
 </defs>
 <g id="figure_1">
  <g id="patch_1">
   <path d="M 0 453.6 
L 856.8 453.6 
L 856.8 0 
L 0 0 
z
" style="fill: #ffffff"/>
  </g>
  <g id="axes_1">
   <g id="patch_2">
    <path d="M 100.8 396 
L 820.8 396 
L 820.8 36 
L 100.8 36 
z
" style="fill: #ffffff"/>
   </g>
   <g id="FillBetweenPolyCollection_1">
    <path d="M 56.718378 319.828378 
L 56.718378 369.797202 
L 71.412241 365.310458 
L 86.106116 364.976756 
L 100.800001 362.459468 
L 115.493876 360.322242 
L 130.18775 358.553902 
L 144.881636 351.648111 
L 159.57551 353.577805 
L 174.269385 355.168966 
L 188.963265 366.506206 
L 203.657139 359.463668 
L 218.351019 354.744207 
L 233.044899 354.01559 
L 247.738774 358.21728 
L 262.432653 359.935013 
L 277.126533 357.772319 
L 291.820408 362.973064 
L 306.514288 345.062217 
L 321.208168 340.63117 
L 335.902042 336.690513 
L 350.59592 355.703888 
L 365.289797 341.157783 
L 379.983674 338.933628 
L 394.677551 330.872194 
L 409.371428 335.46001 
L 424.065306 332.840105 
L 438.759183 326.410271 
L 453.453061 305.201516 
L 468.146939 288.921751 
L 482.840816 261.869087 
L 497.534694 267.205032 
L 512.228571 247.898296 
L 526.922449 246.428497 
L 541.616327 235.857313 
L 556.310204 209.367791 
L 571.004082 189.654606 
L 585.697959 170.380025 
L 600.391836 200.485663 
L 615.085715 239.462839 
L 629.779592 271.725854 
L 644.473469 294.609778 
L 659.167347 291.868517 
L 673.861224 312.270451 
L 688.555101 323.772275 
L 703.248978 332.263329 
L 717.942856 335.452851 
L 732.63673 326.671305 
L 747.33061 337.382867 
L 762.02449 326.195883 
L 776.718365 330.880247 
L 791.412244 336.141621 
L 806.106124 342.112387 
L 820.799999 341.238245 
L 835.493879 331.305729 
L 850.187759 345.16065 
L 864.881633 351.917901 
L 879.575513 364.121985 
L 894.269388 362.630965 
L 908.963262 343.03869 
L 923.657148 337.757154 
L 938.351022 325.6961 
L 953.044897 341.167296 
L 953.044897 284.208314 
L 953.044897 284.208314 
L 938.351022 262.438098 
L 923.657148 284.477765 
L 908.963262 269.941196 
L 894.269388 296.326421 
L 879.575513 282.519919 
L 864.881633 294.657934 
L 850.187759 290.291606 
L 835.493879 293.166613 
L 820.799999 294.606275 
L 806.106124 294.103055 
L 791.412244 279.740156 
L 776.718365 284.343475 
L 762.02449 272.822487 
L 747.33061 274.975836 
L 732.63673 256.188105 
L 717.942856 275.176183 
L 703.248978 281.920358 
L 688.555101 269.374099 
L 673.861224 248.053975 
L 659.167347 201.990838 
L 644.473469 201.640479 
L 629.779592 159.391117 
L 615.085715 125.624925 
L 600.391836 76.188715 
L 585.697959 52.363636 
L 571.004082 78.77224 
L 556.310204 102.863813 
L 541.616327 130.138291 
L 526.922449 107.041134 
L 512.228571 116.814318 
L 497.534694 146.690315 
L 482.840816 185.494463 
L 468.146939 214.703594 
L 453.453061 223.810876 
L 438.759183 237.642456 
L 424.065306 244.702612 
L 409.371428 237.175736 
L 394.677551 255.735236 
L 379.983674 275.227082 
L 365.289797 309.616417 
L 350.59592 325.69672 
L 335.902042 295.582081 
L 321.208168 293.744879 
L 306.514288 293.172182 
L 291.820408 293.73012 
L 277.126533 275.808238 
L 262.432653 269.696877 
L 247.738774 295.365063 
L 233.044899 305.958778 
L 218.351019 313.89569 
L 203.657139 314.254503 
L 188.963265 310.857874 
L 174.269385 289.150614 
L 159.57551 268.965038 
L 144.881636 278.776883 
L 130.18775 294.483495 
L 115.493876 315.262713 
L 100.800001 317.020115 
L 86.106116 319.758731 
L 71.412241 319.936523 
L 56.718378 319.828378 
z
" clip-path="url(#p8a60b9fdb0)" style="fill: #0e87cc; fill-opacity: 0.25"/>
   </g>
   <g id="FillBetweenPolyCollection_2">
    <path d="M 56.718378 333.655392 
L 56.718378 376.565373 
L 71.412241 378.603607 
L 86.106116 374.281709 
L 100.800001 367.199925 
L 115.493876 350.171448 
L 130.18775 358.939515 
L 144.881636 358.440748 
L 159.57551 363.328048 
L 174.269385 363.448541 
L 188.963265 371.31786 
L 203.657139 379.636364 
L 218.351019 370.267964 
L 233.044899 367.108821 
L 247.738774 373.490363 
L 262.432653 364.700964 
L 277.126533 355.226717 
L 291.820408 350.717519 
L 306.514288 367.771686 
L 321.208168 376.810839 
L 335.902042 365.227497 
L 350.59592 345.792617 
L 365.289797 329.359601 
L 379.983674 330.206322 
L 394.677551 335.321809 
L 409.371428 335.967674 
L 424.065306 327.068884 
L 438.759183 319.216232 
L 453.453061 315.504753 
L 468.146939 310.182555 
L 482.840816 305.65586 
L 497.534694 298.943071 
L 512.228571 298.620322 
L 526.922449 295.236742 
L 541.616327 297.519074 
L 556.310204 278.004691 
L 571.004082 283.871272 
L 585.697959 288.450602 
L 600.391836 326.677971 
L 615.085715 311.811504 
L 629.779592 324.901992 
L 644.473469 307.119735 
L 659.167347 314.771579 
L 673.861224 312.7742 
L 688.555101 324.171659 
L 703.248978 334.265295 
L 717.942856 327.128473 
L 732.63673 324.13124 
L 747.33061 338.190558 
L 762.02449 342.441121 
L 776.718365 347.013652 
L 791.412244 347.973563 
L 806.106124 358.501081 
L 820.799999 361.360929 
L 835.493879 334.805336 
L 850.187759 329.801859 
L 864.881633 324.167704 
L 879.575513 350.572238 
L 894.269388 344.415305 
L 908.963262 356.936929 
L 923.657148 349.003996 
L 938.351022 364.887751 
L 953.044897 362.380529 
L 953.044897 284.607539 
L 953.044897 284.607539 
L 938.351022 286.768121 
L 923.657148 263.219058 
L 908.963262 305.605518 
L 894.269388 311.104518 
L 879.575513 318.008306 
L 864.881633 269.978613 
L 850.187759 274.005728 
L 835.493879 271.393286 
L 820.799999 300.042769 
L 806.106124 291.635915 
L 791.412244 266.017084 
L 776.718365 229.216193 
L 762.02449 215.807255 
L 747.33061 234.979169 
L 732.63673 269.042668 
L 717.942856 280.451647 
L 703.248978 277.508833 
L 688.555101 245.664821 
L 673.861224 243.126422 
L 659.167347 258.955946 
L 644.473469 247.810562 
L 629.779592 257.103758 
L 615.085715 237.955656 
L 600.391836 249.868515 
L 585.697959 199.902923 
L 571.004082 191.528313 
L 556.310204 205.649537 
L 541.616327 230.654241 
L 526.922449 208.172976 
L 512.228571 194.866194 
L 497.534694 200.59099 
L 482.840816 229.588015 
L 468.146939 258.803903 
L 453.453061 264.465182 
L 438.759183 272.103222 
L 424.065306 269.767421 
L 409.371428 264.843391 
L 394.677551 262.345671 
L 379.983674 264.049212 
L 365.289797 266.107201 
L 350.59592 259.623018 
L 335.902042 287.316903 
L 321.208168 302.348609 
L 306.514288 310.159096 
L 291.820408 288.545577 
L 277.126533 308.459892 
L 262.432653 320.34955 
L 247.738774 313.87857 
L 233.044899 305.263432 
L 218.351019 311.623279 
L 203.657139 321.329865 
L 188.963265 300.569762 
L 174.269385 294.231413 
L 159.57551 313.439482 
L 144.881636 317.561248 
L 130.18775 326.37924 
L 115.493876 303.073901 
L 100.800001 318.264404 
L 86.106116 319.736844 
L 71.412241 333.846776 
L 56.718378 333.655392 
z
" clip-path="url(#p8a60b9fdb0)" style="fill: #c00a37; fill-opacity: 0.25"/>
   </g>
   <g id="matplotlib.axis_1">
    <g id="xtick_1">
     <g id="line2d_1">
      <defs>
       <path id="m2ed13bf313" d="M 0 0 
L 0 3.5 
" style="stroke: #000000; stroke-width: 0.8"/>
      </defs>
      <g>
       <use xlink:href="#m2ed13bf313" x="233.044898" y="396" style="stroke: #000000; stroke-width: 0.8"/>
      </g>
     </g>
     <g id="text_1">
      <!-- −200 -->
      <g transform="translate(211.071148 415.1575) scale(0.16 -0.16)">
       <defs>
        <path id="DejaVuSans-2212" d="M 678 2272 
L 4684 2272 
L 4684 1741 
L 678 1741 
L 678 2272 
z
" transform="scale(0.015625)"/>
        <path id="DejaVuSans-32" d="M 1228 531 
L 3431 531 
L 3431 0 
L 469 0 
L 469 531 
Q 828 903 1448 1529 
Q 2069 2156 2228 2338 
Q 2531 2678 2651 2914 
Q 2772 3150 2772 3378 
Q 2772 3750 2511 3984 
Q 2250 4219 1831 4219 
Q 1534 4219 1204 4116 
Q 875 4013 500 3803 
L 500 4441 
Q 881 4594 1212 4672 
Q 1544 4750 1819 4750 
Q 2544 4750 2975 4387 
Q 3406 4025 3406 3419 
Q 3406 3131 3298 2873 
Q 3191 2616 2906 2266 
Q 2828 2175 2409 1742 
Q 1991 1309 1228 531 
z
" transform="scale(0.015625)"/>
        <path id="DejaVuSans-30" d="M 2034 4250 
Q 1547 4250 1301 3770 
Q 1056 3291 1056 2328 
Q 1056 1369 1301 889 
Q 1547 409 2034 409 
Q 2525 409 2770 889 
Q 3016 1369 3016 2328 
Q 3016 3291 2770 3770 
Q 2525 4250 2034 4250 
z
M 2034 4750 
Q 2819 4750 3233 4129 
Q 3647 3509 3647 2328 
Q 3647 1150 3233 529 
Q 2819 -91 2034 -91 
Q 1250 -91 836 529 
Q 422 1150 422 2328 
Q 422 3509 836 4129 
Q 1250 4750 2034 4750 
z
" transform="scale(0.015625)"/>
       </defs>
       <use xlink:href="#DejaVuSans-2212"/>
       <use xlink:href="#DejaVuSans-32" transform="translate(83.789062 0)"/>
       <use xlink:href="#DejaVuSans-30" transform="translate(147.412109 0)"/>
       <use xlink:href="#DejaVuSans-30" transform="translate(211.035156 0)"/>
      </g>
     </g>
    </g>
    <g id="xtick_2">
     <g id="line2d_2">
      <g>
       <use xlink:href="#m2ed13bf313" x="379.983673" y="396" style="stroke: #000000; stroke-width: 0.8"/>
      </g>
     </g>
     <g id="text_2">
      <!-- −100 -->
      <g transform="translate(358.009923 415.1575) scale(0.16 -0.16)">
       <defs>
        <path id="DejaVuSans-31" d="M 794 531 
L 1825 531 
L 1825 4091 
L 703 3866 
L 703 4441 
L 1819 4666 
L 2450 4666 
L 2450 531 
L 3481 531 
L 3481 0 
L 794 0 
L 794 531 
z
" transform="scale(0.015625)"/>
       </defs>
       <use xlink:href="#DejaVuSans-2212"/>
       <use xlink:href="#DejaVuSans-31" transform="translate(83.789062 0)"/>
       <use xlink:href="#DejaVuSans-30" transform="translate(147.412109 0)"/>
       <use xlink:href="#DejaVuSans-30" transform="translate(211.035156 0)"/>
      </g>
     </g>
    </g>
    <g id="xtick_3">
     <g id="line2d_3">
      <g>
       <use xlink:href="#m2ed13bf313" x="526.922449" y="396" style="stroke: #000000; stroke-width: 0.8"/>
      </g>
     </g>
     <g id="text_3">
      <!-- 0 -->
      <g transform="translate(521.832449 415.1575) scale(0.16 -0.16)">
       <use xlink:href="#DejaVuSans-30"/>
      </g>
     </g>
    </g>
    <g id="xtick_4">
     <g id="line2d_4">
      <g>
       <use xlink:href="#m2ed13bf313" x="673.861224" y="396" style="stroke: #000000; stroke-width: 0.8"/>
      </g>
     </g>
     <g id="text_4">
      <!-- 100 -->
      <g transform="translate(658.591224 415.1575) scale(0.16 -0.16)">
       <use xlink:href="#DejaVuSans-31"/>
       <use xlink:href="#DejaVuSans-30" transform="translate(63.623047 0)"/>
       <use xlink:href="#DejaVuSans-30" transform="translate(127.246094 0)"/>
      </g>
     </g>
    </g>
    <g id="xtick_5">
     <g id="line2d_5">
      <g>
       <use xlink:href="#m2ed13bf313" x="820.8" y="396" style="stroke: #000000; stroke-width: 0.8"/>
      </g>
     </g>
     <g id="text_5">
      <!-- 200 -->
      <g transform="translate(805.53 415.1575) scale(0.16 -0.16)">
       <use xlink:href="#DejaVuSans-32"/>
       <use xlink:href="#DejaVuSans-30" transform="translate(63.623047 0)"/>
       <use xlink:href="#DejaVuSans-30" transform="translate(127.246094 0)"/>
      </g>
     </g>
    </g>
    <g id="text_6">
     <!-- Time from Saccade Onset (ms) -->
     <g transform="translate(321.485625 436.162187) scale(0.18 -0.18)">
      <defs>
       <path id="DejaVuSans-54" d="M -19 4666 
L 3928 4666 
L 3928 4134 
L 2272 4134 
L 2272 0 
L 1638 0 
L 1638 4134 
L -19 4134 
L -19 4666 
z
" transform="scale(0.015625)"/>
       <path id="DejaVuSans-69" d="M 603 3500 
L 1178 3500 
L 1178 0 
L 603 0 
L 603 3500 
z
M 603 4863 
L 1178 4863 
L 1178 4134 
L 603 4134 
L 603 4863 
z
" transform="scale(0.015625)"/>
       <path id="DejaVuSans-6d" d="M 3328 2828 
Q 3544 3216 3844 3400 
Q 4144 3584 4550 3584 
Q 5097 3584 5394 3201 
Q 5691 2819 5691 2113 
L 5691 0 
L 5113 0 
L 5113 2094 
Q 5113 2597 4934 2840 
Q 4756 3084 4391 3084 
Q 3944 3084 3684 2787 
Q 3425 2491 3425 1978 
L 3425 0 
L 2847 0 
L 2847 2094 
Q 2847 2600 2669 2842 
Q 2491 3084 2119 3084 
Q 1678 3084 1418 2786 
Q 1159 2488 1159 1978 
L 1159 0 
L 581 0 
L 581 3500 
L 1159 3500 
L 1159 2956 
Q 1356 3278 1631 3431 
Q 1906 3584 2284 3584 
Q 2666 3584 2933 3390 
Q 3200 3197 3328 2828 
z
" transform="scale(0.015625)"/>
       <path id="DejaVuSans-65" d="M 3597 1894 
L 3597 1613 
L 953 1613 
Q 991 1019 1311 708 
Q 1631 397 2203 397 
Q 2534 397 2845 478 
Q 3156 559 3463 722 
L 3463 178 
Q 3153 47 2828 -22 
Q 2503 -91 2169 -91 
Q 1331 -91 842 396 
Q 353 884 353 1716 
Q 353 2575 817 3079 
Q 1281 3584 2069 3584 
Q 2775 3584 3186 3129 
Q 3597 2675 3597 1894 
z
M 3022 2063 
Q 3016 2534 2758 2815 
Q 2500 3097 2075 3097 
Q 1594 3097 1305 2825 
Q 1016 2553 972 2059 
L 3022 2063 
z
" transform="scale(0.015625)"/>
       <path id="DejaVuSans-20" transform="scale(0.015625)"/>
       <path id="DejaVuSans-66" d="M 2375 4863 
L 2375 4384 
L 1825 4384 
Q 1516 4384 1395 4259 
Q 1275 4134 1275 3809 
L 1275 3500 
L 2222 3500 
L 2222 3053 
L 1275 3053 
L 1275 0 
L 697 0 
L 697 3053 
L 147 3053 
L 147 3500 
L 697 3500 
L 697 3744 
Q 697 4328 969 4595 
Q 1241 4863 1831 4863 
L 2375 4863 
z
" transform="scale(0.015625)"/>
       <path id="DejaVuSans-72" d="M 2631 2963 
Q 2534 3019 2420 3045 
Q 2306 3072 2169 3072 
Q 1681 3072 1420 2755 
Q 1159 2438 1159 1844 
L 1159 0 
L 581 0 
L 581 3500 
L 1159 3500 
L 1159 2956 
Q 1341 3275 1631 3429 
Q 1922 3584 2338 3584 
Q 2397 3584 2469 3576 
Q 2541 3569 2628 3553 
L 2631 2963 
z
" transform="scale(0.015625)"/>
       <path id="DejaVuSans-6f" d="M 1959 3097 
Q 1497 3097 1228 2736 
Q 959 2375 959 1747 
Q 959 1119 1226 758 
Q 1494 397 1959 397 
Q 2419 397 2687 759 
Q 2956 1122 2956 1747 
Q 2956 2369 2687 2733 
Q 2419 3097 1959 3097 
z
M 1959 3584 
Q 2709 3584 3137 3096 
Q 3566 2609 3566 1747 
Q 3566 888 3137 398 
Q 2709 -91 1959 -91 
Q 1206 -91 779 398 
Q 353 888 353 1747 
Q 353 2609 779 3096 
Q 1206 3584 1959 3584 
z
" transform="scale(0.015625)"/>
       <path id="DejaVuSans-53" d="M 3425 4513 
L 3425 3897 
Q 3066 4069 2747 4153 
Q 2428 4238 2131 4238 
Q 1616 4238 1336 4038 
Q 1056 3838 1056 3469 
Q 1056 3159 1242 3001 
Q 1428 2844 1947 2747 
L 2328 2669 
Q 3034 2534 3370 2195 
Q 3706 1856 3706 1288 
Q 3706 609 3251 259 
Q 2797 -91 1919 -91 
Q 1588 -91 1214 -16 
Q 841 59 441 206 
L 441 856 
Q 825 641 1194 531 
Q 1563 422 1919 422 
Q 2459 422 2753 634 
Q 3047 847 3047 1241 
Q 3047 1584 2836 1778 
Q 2625 1972 2144 2069 
L 1759 2144 
Q 1053 2284 737 2584 
Q 422 2884 422 3419 
Q 422 4038 858 4394 
Q 1294 4750 2059 4750 
Q 2388 4750 2728 4690 
Q 3069 4631 3425 4513 
z
" transform="scale(0.015625)"/>
       <path id="DejaVuSans-61" d="M 2194 1759 
Q 1497 1759 1228 1600 
Q 959 1441 959 1056 
Q 959 750 1161 570 
Q 1363 391 1709 391 
Q 2188 391 2477 730 
Q 2766 1069 2766 1631 
L 2766 1759 
L 2194 1759 
z
M 3341 1997 
L 3341 0 
L 2766 0 
L 2766 531 
Q 2569 213 2275 61 
Q 1981 -91 1556 -91 
Q 1019 -91 701 211 
Q 384 513 384 1019 
Q 384 1609 779 1909 
Q 1175 2209 1959 2209 
L 2766 2209 
L 2766 2266 
Q 2766 2663 2505 2880 
Q 2244 3097 1772 3097 
Q 1472 3097 1187 3025 
Q 903 2953 641 2809 
L 641 3341 
Q 956 3463 1253 3523 
Q 1550 3584 1831 3584 
Q 2591 3584 2966 3190 
Q 3341 2797 3341 1997 
z
" transform="scale(0.015625)"/>
       <path id="DejaVuSans-63" d="M 3122 3366 
L 3122 2828 
Q 2878 2963 2633 3030 
Q 2388 3097 2138 3097 
Q 1578 3097 1268 2742 
Q 959 2388 959 1747 
Q 959 1106 1268 751 
Q 1578 397 2138 397 
Q 2388 397 2633 464 
Q 2878 531 3122 666 
L 3122 134 
Q 2881 22 2623 -34 
Q 2366 -91 2075 -91 
Q 1284 -91 818 406 
Q 353 903 353 1747 
Q 353 2603 823 3093 
Q 1294 3584 2113 3584 
Q 2378 3584 2631 3529 
Q 2884 3475 3122 3366 
z
" transform="scale(0.015625)"/>
       <path id="DejaVuSans-64" d="M 2906 2969 
L 2906 4863 
L 3481 4863 
L 3481 0 
L 2906 0 
L 2906 525 
Q 2725 213 2448 61 
Q 2172 -91 1784 -91 
Q 1150 -91 751 415 
Q 353 922 353 1747 
Q 353 2572 751 3078 
Q 1150 3584 1784 3584 
Q 2172 3584 2448 3432 
Q 2725 3281 2906 2969 
z
M 947 1747 
Q 947 1113 1208 752 
Q 1469 391 1925 391 
Q 2381 391 2643 752 
Q 2906 1113 2906 1747 
Q 2906 2381 2643 2742 
Q 2381 3103 1925 3103 
Q 1469 3103 1208 2742 
Q 947 2381 947 1747 
z
" transform="scale(0.015625)"/>
       <path id="DejaVuSans-4f" d="M 2522 4238 
Q 1834 4238 1429 3725 
Q 1025 3213 1025 2328 
Q 1025 1447 1429 934 
Q 1834 422 2522 422 
Q 3209 422 3611 934 
Q 4013 1447 4013 2328 
Q 4013 3213 3611 3725 
Q 3209 4238 2522 4238 
z
M 2522 4750 
Q 3503 4750 4090 4092 
Q 4678 3434 4678 2328 
Q 4678 1225 4090 567 
Q 3503 -91 2522 -91 
Q 1538 -91 948 565 
Q 359 1222 359 2328 
Q 359 3434 948 4092 
Q 1538 4750 2522 4750 
z
" transform="scale(0.015625)"/>
       <path id="DejaVuSans-6e" d="M 3513 2113 
L 3513 0 
L 2938 0 
L 2938 2094 
Q 2938 2591 2744 2837 
Q 2550 3084 2163 3084 
Q 1697 3084 1428 2787 
Q 1159 2491 1159 1978 
L 1159 0 
L 581 0 
L 581 3500 
L 1159 3500 
L 1159 2956 
Q 1366 3272 1645 3428 
Q 1925 3584 2291 3584 
Q 2894 3584 3203 3211 
Q 3513 2838 3513 2113 
z
" transform="scale(0.015625)"/>
       <path id="DejaVuSans-73" d="M 2834 3397 
L 2834 2853 
Q 2591 2978 2328 3040 
Q 2066 3103 1784 3103 
Q 1356 3103 1142 2972 
Q 928 2841 928 2578 
Q 928 2378 1081 2264 
Q 1234 2150 1697 2047 
L 1894 2003 
Q 2506 1872 2764 1633 
Q 3022 1394 3022 966 
Q 3022 478 2636 193 
Q 2250 -91 1575 -91 
Q 1294 -91 989 -36 
Q 684 19 347 128 
L 347 722 
Q 666 556 975 473 
Q 1284 391 1588 391 
Q 1994 391 2212 530 
Q 2431 669 2431 922 
Q 2431 1156 2273 1281 
Q 2116 1406 1581 1522 
L 1381 1569 
Q 847 1681 609 1914 
Q 372 2147 372 2553 
Q 372 3047 722 3315 
Q 1072 3584 1716 3584 
Q 2034 3584 2315 3537 
Q 2597 3491 2834 3397 
z
" transform="scale(0.015625)"/>
       <path id="DejaVuSans-74" d="M 1172 4494 
L 1172 3500 
L 2356 3500 
L 2356 3053 
L 1172 3053 
L 1172 1153 
Q 1172 725 1289 603 
Q 1406 481 1766 481 
L 2356 481 
L 2356 0 
L 1766 0 
Q 1100 0 847 248 
Q 594 497 594 1153 
L 594 3053 
L 172 3053 
L 172 3500 
L 594 3500 
L 594 4494 
L 1172 4494 
z
" transform="scale(0.015625)"/>
       <path id="DejaVuSans-28" d="M 1984 4856 
Q 1566 4138 1362 3434 
Q 1159 2731 1159 2009 
Q 1159 1288 1364 580 
Q 1569 -128 1984 -844 
L 1484 -844 
Q 1016 -109 783 600 
Q 550 1309 550 2009 
Q 550 2706 781 3412 
Q 1013 4119 1484 4856 
L 1984 4856 
z
" transform="scale(0.015625)"/>
       <path id="DejaVuSans-29" d="M 513 4856 
L 1013 4856 
Q 1481 4119 1714 3412 
Q 1947 2706 1947 2009 
Q 1947 1309 1714 600 
Q 1481 -109 1013 -844 
L 513 -844 
Q 928 -128 1133 580 
Q 1338 1288 1338 2009 
Q 1338 2731 1133 3434 
Q 928 4138 513 4856 
z
" transform="scale(0.015625)"/>
      </defs>
      <use xlink:href="#DejaVuSans-54"/>
      <use xlink:href="#DejaVuSans-69" transform="translate(57.958984 0)"/>
      <use xlink:href="#DejaVuSans-6d" transform="translate(85.742188 0)"/>
      <use xlink:href="#DejaVuSans-65" transform="translate(183.154297 0)"/>
      <use xlink:href="#DejaVuSans-20" transform="translate(244.677734 0)"/>
      <use xlink:href="#DejaVuSans-66" transform="translate(276.464844 0)"/>
      <use xlink:href="#DejaVuSans-72" transform="translate(311.669922 0)"/>
      <use xlink:href="#DejaVuSans-6f" transform="translate(350.533203 0)"/>
      <use xlink:href="#DejaVuSans-6d" transform="translate(411.714844 0)"/>
      <use xlink:href="#DejaVuSans-20" transform="translate(509.126953 0)"/>
      <use xlink:href="#DejaVuSans-53" transform="translate(540.914062 0)"/>
      <use xlink:href="#DejaVuSans-61" transform="translate(604.390625 0)"/>
      <use xlink:href="#DejaVuSans-63" transform="translate(665.669922 0)"/>
      <use xlink:href="#DejaVuSans-63" transform="translate(720.650391 0)"/>
      <use xlink:href="#DejaVuSans-61" transform="translate(775.630859 0)"/>
      <use xlink:href="#DejaVuSans-64" transform="translate(836.910156 0)"/>
      <use xlink:href="#DejaVuSans-65" transform="translate(900.386719 0)"/>
      <use xlink:href="#DejaVuSans-20" transform="translate(961.910156 0)"/>
      <use xlink:href="#DejaVuSans-4f" transform="translate(993.697266 0)"/>
      <use xlink:href="#DejaVuSans-6e" transform="translate(1072.408203 0)"/>
      <use xlink:href="#DejaVuSans-73" transform="translate(1135.787109 0)"/>
      <use xlink:href="#DejaVuSans-65" transform="translate(1187.886719 0)"/>
      <use xlink:href="#DejaVuSans-74" transform="translate(1249.410156 0)"/>
      <use xlink:href="#DejaVuSans-20" transform="translate(1288.619141 0)"/>
      <use xlink:href="#DejaVuSans-28" transform="translate(1320.40625 0)"/>
      <use xlink:href="#DejaVuSans-6d" transform="translate(1359.419922 0)"/>
      <use xlink:href="#DejaVuSans-73" transform="translate(1456.832031 0)"/>
      <use xlink:href="#DejaVuSans-29" transform="translate(1508.931641 0)"/>
     </g>
    </g>
   </g>
   <g id="matplotlib.axis_2">
    <g id="ytick_1">
     <g id="line2d_6">
      <defs>
       <path id="m3aaf222ee3" d="M 0 0 
L -3.5 0 
" style="stroke: #000000; stroke-width: 0.8"/>
      </defs>
      <g>
       <use xlink:href="#m3aaf222ee3" x="100.8" y="341.673569" style="stroke: #000000; stroke-width: 0.8"/>
      </g>
     </g>
     <g id="text_7">
      <!-- 0.00 -->
      <g transform="translate(58.175 347.752319) scale(0.16 -0.16)">
       <defs>
        <path id="DejaVuSans-2e" d="M 684 794 
L 1344 794 
L 1344 0 
L 684 0 
L 684 794 
z
" transform="scale(0.015625)"/>
       </defs>
       <use xlink:href="#DejaVuSans-30"/>
       <use xlink:href="#DejaVuSans-2e" transform="translate(63.623047 0)"/>
       <use xlink:href="#DejaVuSans-30" transform="translate(95.410156 0)"/>
       <use xlink:href="#DejaVuSans-30" transform="translate(159.033203 0)"/>
      </g>
     </g>
    </g>
    <g id="ytick_2">
     <g id="line2d_7">
      <g>
       <use xlink:href="#m3aaf222ee3" x="100.8" y="273.877402" style="stroke: #000000; stroke-width: 0.8"/>
      </g>
     </g>
     <g id="text_8">
      <!-- 0.01 -->
      <g transform="translate(58.175 279.956152) scale(0.16 -0.16)">
       <use xlink:href="#DejaVuSans-30"/>
       <use xlink:href="#DejaVuSans-2e" transform="translate(63.623047 0)"/>
       <use xlink:href="#DejaVuSans-30" transform="translate(95.410156 0)"/>
       <use xlink:href="#DejaVuSans-31" transform="translate(159.033203 0)"/>
      </g>
     </g>
    </g>
    <g id="ytick_3">
     <g id="line2d_8">
      <g>
       <use xlink:href="#m3aaf222ee3" x="100.8" y="206.081234" style="stroke: #000000; stroke-width: 0.8"/>
      </g>
     </g>
     <g id="text_9">
      <!-- 0.02 -->
      <g transform="translate(58.175 212.159984) scale(0.16 -0.16)">
       <use xlink:href="#DejaVuSans-30"/>
       <use xlink:href="#DejaVuSans-2e" transform="translate(63.623047 0)"/>
       <use xlink:href="#DejaVuSans-30" transform="translate(95.410156 0)"/>
       <use xlink:href="#DejaVuSans-32" transform="translate(159.033203 0)"/>
      </g>
     </g>
    </g>
    <g id="ytick_4">
     <g id="line2d_9">
      <g>
       <use xlink:href="#m3aaf222ee3" x="100.8" y="138.285066" style="stroke: #000000; stroke-width: 0.8"/>
      </g>
     </g>
     <g id="text_10">
      <!-- 0.03 -->
      <g transform="translate(58.175 144.363816) scale(0.16 -0.16)">
       <defs>
        <path id="DejaVuSans-33" d="M 2597 2516 
Q 3050 2419 3304 2112 
Q 3559 1806 3559 1356 
Q 3559 666 3084 287 
Q 2609 -91 1734 -91 
Q 1441 -91 1130 -33 
Q 819 25 488 141 
L 488 750 
Q 750 597 1062 519 
Q 1375 441 1716 441 
Q 2309 441 2620 675 
Q 2931 909 2931 1356 
Q 2931 1769 2642 2001 
Q 2353 2234 1838 2234 
L 1294 2234 
L 1294 2753 
L 1863 2753 
Q 2328 2753 2575 2939 
Q 2822 3125 2822 3475 
Q 2822 3834 2567 4026 
Q 2313 4219 1838 4219 
Q 1578 4219 1281 4162 
Q 984 4106 628 3988 
L 628 4550 
Q 988 4650 1302 4700 
Q 1616 4750 1894 4750 
Q 2613 4750 3031 4423 
Q 3450 4097 3450 3541 
Q 3450 3153 3228 2886 
Q 3006 2619 2597 2516 
z
" transform="scale(0.015625)"/>
       </defs>
       <use xlink:href="#DejaVuSans-30"/>
       <use xlink:href="#DejaVuSans-2e" transform="translate(63.623047 0)"/>
       <use xlink:href="#DejaVuSans-30" transform="translate(95.410156 0)"/>
       <use xlink:href="#DejaVuSans-33" transform="translate(159.033203 0)"/>
      </g>
     </g>
    </g>
    <g id="ytick_5">
     <g id="line2d_10">
      <g>
       <use xlink:href="#m3aaf222ee3" x="100.8" y="70.488899" style="stroke: #000000; stroke-width: 0.8"/>
      </g>
     </g>
     <g id="text_11">
      <!-- 0.04 -->
      <g transform="translate(58.175 76.567649) scale(0.16 -0.16)">
       <defs>
        <path id="DejaVuSans-34" d="M 2419 4116 
L 825 1625 
L 2419 1625 
L 2419 4116 
z
M 2253 4666 
L 3047 4666 
L 3047 1625 
L 3713 1625 
L 3713 1100 
L 3047 1100 
L 3047 0 
L 2419 0 
L 2419 1100 
L 313 1100 
L 313 1709 
L 2253 4666 
z
" transform="scale(0.015625)"/>
       </defs>
       <use xlink:href="#DejaVuSans-30"/>
       <use xlink:href="#DejaVuSans-2e" transform="translate(63.623047 0)"/>
       <use xlink:href="#DejaVuSans-30" transform="translate(95.410156 0)"/>
       <use xlink:href="#DejaVuSans-34" transform="translate(159.033203 0)"/>
      </g>
     </g>
    </g>
    <g id="text_12">
     <!-- Directed predictability gain (bits) -->
     <g transform="translate(50.431562 364.685625) rotate(-90) scale(0.18 -0.18)">
      <defs>
       <path id="DejaVuSans-44" d="M 1259 4147 
L 1259 519 
L 2022 519 
Q 2988 519 3436 956 
Q 3884 1394 3884 2338 
Q 3884 3275 3436 3711 
Q 2988 4147 2022 4147 
L 1259 4147 
z
M 628 4666 
L 1925 4666 
Q 3281 4666 3915 4102 
Q 4550 3538 4550 2338 
Q 4550 1131 3912 565 
Q 3275 0 1925 0 
L 628 0 
L 628 4666 
z
" transform="scale(0.015625)"/>
       <path id="DejaVuSans-70" d="M 1159 525 
L 1159 -1331 
L 581 -1331 
L 581 3500 
L 1159 3500 
L 1159 2969 
Q 1341 3281 1617 3432 
Q 1894 3584 2278 3584 
Q 2916 3584 3314 3078 
Q 3713 2572 3713 1747 
Q 3713 922 3314 415 
Q 2916 -91 2278 -91 
Q 1894 -91 1617 61 
Q 1341 213 1159 525 
z
M 3116 1747 
Q 3116 2381 2855 2742 
Q 2594 3103 2138 3103 
Q 1681 3103 1420 2742 
Q 1159 2381 1159 1747 
Q 1159 1113 1420 752 
Q 1681 391 2138 391 
Q 2594 391 2855 752 
Q 3116 1113 3116 1747 
z
" transform="scale(0.015625)"/>
       <path id="DejaVuSans-62" d="M 3116 1747 
Q 3116 2381 2855 2742 
Q 2594 3103 2138 3103 
Q 1681 3103 1420 2742 
Q 1159 2381 1159 1747 
Q 1159 1113 1420 752 
Q 1681 391 2138 391 
Q 2594 391 2855 752 
Q 3116 1113 3116 1747 
z
M 1159 2969 
Q 1341 3281 1617 3432 
Q 1894 3584 2278 3584 
Q 2916 3584 3314 3078 
Q 3713 2572 3713 1747 
Q 3713 922 3314 415 
Q 2916 -91 2278 -91 
Q 1894 -91 1617 61 
Q 1341 213 1159 525 
L 1159 0 
L 581 0 
L 581 4863 
L 1159 4863 
L 1159 2969 
z
" transform="scale(0.015625)"/>
       <path id="DejaVuSans-6c" d="M 603 4863 
L 1178 4863 
L 1178 0 
L 603 0 
L 603 4863 
z
" transform="scale(0.015625)"/>
       <path id="DejaVuSans-79" d="M 2059 -325 
Q 1816 -950 1584 -1140 
Q 1353 -1331 966 -1331 
L 506 -1331 
L 506 -850 
L 844 -850 
Q 1081 -850 1212 -737 
Q 1344 -625 1503 -206 
L 1606 56 
L 191 3500 
L 800 3500 
L 1894 763 
L 2988 3500 
L 3597 3500 
L 2059 -325 
z
" transform="scale(0.015625)"/>
       <path id="DejaVuSans-67" d="M 2906 1791 
Q 2906 2416 2648 2759 
Q 2391 3103 1925 3103 
Q 1463 3103 1205 2759 
Q 947 2416 947 1791 
Q 947 1169 1205 825 
Q 1463 481 1925 481 
Q 2391 481 2648 825 
Q 2906 1169 2906 1791 
z
M 3481 434 
Q 3481 -459 3084 -895 
Q 2688 -1331 1869 -1331 
Q 1566 -1331 1297 -1286 
Q 1028 -1241 775 -1147 
L 775 -588 
Q 1028 -725 1275 -790 
Q 1522 -856 1778 -856 
Q 2344 -856 2625 -561 
Q 2906 -266 2906 331 
L 2906 616 
Q 2728 306 2450 153 
Q 2172 0 1784 0 
Q 1141 0 747 490 
Q 353 981 353 1791 
Q 353 2603 747 3093 
Q 1141 3584 1784 3584 
Q 2172 3584 2450 3431 
Q 2728 3278 2906 2969 
L 2906 3500 
L 3481 3500 
L 3481 434 
z
" transform="scale(0.015625)"/>
      </defs>
      <use xlink:href="#DejaVuSans-44"/>
      <use xlink:href="#DejaVuSans-69" transform="translate(77.001953 0)"/>
      <use xlink:href="#DejaVuSans-72" transform="translate(104.785156 0)"/>
      <use xlink:href="#DejaVuSans-65" transform="translate(143.648438 0)"/>
      <use xlink:href="#DejaVuSans-63" transform="translate(205.171875 0)"/>
      <use xlink:href="#DejaVuSans-74" transform="translate(260.152344 0)"/>
      <use xlink:href="#DejaVuSans-65" transform="translate(299.361328 0)"/>
      <use xlink:href="#DejaVuSans-64" transform="translate(360.884766 0)"/>
      <use xlink:href="#DejaVuSans-20" transform="translate(424.361328 0)"/>
      <use xlink:href="#DejaVuSans-70" transform="translate(456.148438 0)"/>
      <use xlink:href="#DejaVuSans-72" transform="translate(519.625 0)"/>
      <use xlink:href="#DejaVuSans-65" transform="translate(558.488281 0)"/>
      <use xlink:href="#DejaVuSans-64" transform="translate(620.011719 0)"/>
      <use xlink:href="#DejaVuSans-69" transform="translate(683.488281 0)"/>
      <use xlink:href="#DejaVuSans-63" transform="translate(711.271484 0)"/>
      <use xlink:href="#DejaVuSans-74" transform="translate(766.251953 0)"/>
      <use xlink:href="#DejaVuSans-61" transform="translate(805.460938 0)"/>
      <use xlink:href="#DejaVuSans-62" transform="translate(866.740234 0)"/>
      <use xlink:href="#DejaVuSans-69" transform="translate(930.216797 0)"/>
      <use xlink:href="#DejaVuSans-6c" transform="translate(958 0)"/>
      <use xlink:href="#DejaVuSans-69" transform="translate(985.783203 0)"/>
      <use xlink:href="#DejaVuSans-74" transform="translate(1013.566406 0)"/>
      <use xlink:href="#DejaVuSans-79" transform="translate(1052.775391 0)"/>
      <use xlink:href="#DejaVuSans-20" transform="translate(1111.955078 0)"/>
      <use xlink:href="#DejaVuSans-67" transform="translate(1143.742188 0)"/>
      <use xlink:href="#DejaVuSans-61" transform="translate(1207.21875 0)"/>
      <use xlink:href="#DejaVuSans-69" transform="translate(1268.498047 0)"/>
      <use xlink:href="#DejaVuSans-6e" transform="translate(1296.28125 0)"/>
      <use xlink:href="#DejaVuSans-20" transform="translate(1359.660156 0)"/>
      <use xlink:href="#DejaVuSans-28" transform="translate(1391.447266 0)"/>
      <use xlink:href="#DejaVuSans-62" transform="translate(1430.460938 0)"/>
      <use xlink:href="#DejaVuSans-69" transform="translate(1493.9375 0)"/>
      <use xlink:href="#DejaVuSans-74" transform="translate(1521.720703 0)"/>
      <use xlink:href="#DejaVuSans-73" transform="translate(1560.929688 0)"/>
      <use xlink:href="#DejaVuSans-29" transform="translate(1613.029297 0)"/>
     </g>
    </g>
   </g>
   <g id="line2d_11">
    <path d="M 526.922449 396 
L 526.922449 36 
" clip-path="url(#p8a60b9fdb0)" style="fill: none; stroke-dasharray: 2.96,1.28; stroke-dashoffset: 0; stroke: #000000; stroke-width: 0.8"/>
   </g>
   <g id="line2d_12">
    <path d="M 100.8 341.673569 
L 820.8 341.673569 
" clip-path="url(#p8a60b9fdb0)" style="fill: none; stroke-dasharray: 0.8,1.32; stroke-dashoffset: 0; stroke: #000000; stroke-width: 0.8"/>
   </g>
   <g id="line2d_13">
    <path d="M 56.718378 344.81279 
L 71.412241 342.62349 
L 86.106116 342.367743 
L 100.800001 339.739791 
L 115.493876 337.792478 
L 130.18775 326.518698 
L 144.881636 315.212497 
L 159.57551 311.271422 
L 174.269385 322.15979 
L 188.963265 338.68204 
L 203.657139 336.859086 
L 218.351019 334.319949 
L 233.044899 329.987184 
L 247.738774 326.791172 
L 262.432653 314.815945 
L 277.126533 316.790279 
L 291.820408 328.351592 
L 306.514288 319.117199 
L 321.208168 317.188025 
L 335.902042 316.136297 
L 350.59592 340.700304 
L 365.289797 325.3871 
L 379.983674 307.080355 
L 394.677551 293.303715 
L 409.371428 286.317873 
L 424.065306 288.771359 
L 438.759183 282.026364 
L 453.453061 264.506196 
L 468.146939 251.812672 
L 482.840816 223.681775 
L 497.534694 206.947673 
L 512.228571 182.356307 
L 526.922449 176.734815 
L 541.616327 182.997802 
L 556.310204 156.115802 
L 571.004082 134.213423 
L 585.697959 111.371831 
L 600.391836 138.337189 
L 615.085715 182.543882 
L 629.779592 215.558486 
L 644.473469 248.125129 
L 659.167347 246.929677 
L 673.861224 280.162213 
L 688.555101 296.573187 
L 703.248978 307.091844 
L 717.942856 305.314517 
L 732.63673 291.429705 
L 747.33061 306.179352 
L 762.02449 299.509185 
L 776.718365 307.611861 
L 791.412244 307.940888 
L 806.106124 318.107721 
L 820.799999 317.92226 
L 835.493879 312.236171 
L 850.187759 317.726128 
L 857.8 320.607443 
" clip-path="url(#p8a60b9fdb0)" style="fill: none; stroke: #0e87cc; stroke-width: 2.5; stroke-linecap: square"/>
   </g>
   <g id="line2d_14">
    <path d="M 56.718378 355.110382 
L 71.412241 356.225192 
L 86.106116 347.009276 
L 100.800001 342.732164 
L 115.493876 326.622674 
L 130.18775 342.659378 
L 144.881636 338.000998 
L 159.57551 338.383765 
L 174.269385 328.839977 
L 188.963265 335.943811 
L 203.657139 350.483114 
L 218.351019 340.945621 
L 233.044899 336.186126 
L 247.738774 343.684467 
L 262.432653 342.525257 
L 277.126533 331.843305 
L 291.820408 319.631548 
L 306.514288 338.965391 
L 321.208168 339.579724 
L 335.902042 326.2722 
L 350.59592 302.707818 
L 365.289797 297.733401 
L 379.983674 297.127767 
L 394.677551 298.83374 
L 409.371428 300.405533 
L 424.065306 298.418153 
L 438.759183 295.659727 
L 453.453061 289.984967 
L 468.146939 284.493229 
L 482.840816 267.621938 
L 497.534694 249.76703 
L 512.228571 246.743258 
L 526.922449 251.704859 
L 541.616327 264.086657 
L 556.310204 241.827114 
L 571.004082 237.699792 
L 585.697959 244.176762 
L 600.391836 288.273243 
L 615.085715 274.88358 
L 629.779592 291.002875 
L 644.473469 277.465148 
L 659.167347 286.863763 
L 673.861224 277.950311 
L 688.555101 284.91824 
L 703.248978 305.887064 
L 717.942856 303.79006 
L 732.63673 296.586954 
L 747.33061 286.584864 
L 762.02449 279.124188 
L 776.718365 288.114923 
L 791.412244 306.995324 
L 806.106124 325.068498 
L 820.799999 330.701849 
L 835.493879 303.099311 
L 850.187759 301.903793 
L 857.8 299.401257 
" clip-path="url(#p8a60b9fdb0)" style="fill: none; stroke: #c00a37; stroke-width: 2.5; stroke-linecap: square"/>
   </g>
   <g id="patch_3">
    <path d="M 100.8 396 
L 100.8 36 
" style="fill: none; stroke: #000000; stroke-width: 0.8; stroke-linejoin: miter; stroke-linecap: square"/>
   </g>
   <g id="patch_4">
    <path d="M 820.8 396 
L 820.8 36 
" style="fill: none; stroke: #000000; stroke-width: 0.8; stroke-linejoin: miter; stroke-linecap: square"/>
   </g>
   <g id="patch_5">
    <path d="M 100.8 396 
L 820.8 396 
" style="fill: none; stroke: #000000; stroke-width: 0.8; stroke-linejoin: miter; stroke-linecap: square"/>
   </g>
   <g id="patch_6">
    <path d="M 100.8 36 
L 820.8 36 
" style="fill: none; stroke: #000000; stroke-width: 0.8; stroke-linejoin: miter; stroke-linecap: square"/>
   </g>
   <g id="PathCollection_1">
    <defs>
     <path id="mb8ae54b476" d="M 0 1.870829 
C 0.49615 1.870829 0.972045 1.673706 1.322876 1.322876 
C 1.673706 0.972045 1.870829 0.49615 1.870829 0 
C 1.870829 -0.49615 1.673706 -0.972045 1.322876 -1.322876 
C 0.972045 -1.673706 0.49615 -1.870829 0 -1.870829 
C -0.49615 -1.870829 -0.972045 -1.673706 -1.322876 -1.322876 
C -1.673706 -0.972045 -1.870829 -0.49615 -1.870829 0 
C -1.870829 0.49615 -1.673706 0.972045 -1.322876 1.322876 
C -0.972045 1.673706 -0.49615 1.870829 0 1.870829 
z
" style="stroke: #0e87cc"/>
    </defs>
    <g clip-path="url(#p8a60b9fdb0)">
     <use xlink:href="#mb8ae54b476" x="262.432653" y="378" style="fill: #0e87cc; stroke: #0e87cc"/>
     <use xlink:href="#mb8ae54b476" x="468.146939" y="378" style="fill: #0e87cc; stroke: #0e87cc"/>
     <use xlink:href="#mb8ae54b476" x="482.840816" y="378" style="fill: #0e87cc; stroke: #0e87cc"/>
     <use xlink:href="#mb8ae54b476" x="497.534694" y="378" style="fill: #0e87cc; stroke: #0e87cc"/>
     <use xlink:href="#mb8ae54b476" x="512.228571" y="378" style="fill: #0e87cc; stroke: #0e87cc"/>
     <use xlink:href="#mb8ae54b476" x="526.922449" y="378" style="fill: #0e87cc; stroke: #0e87cc"/>
     <use xlink:href="#mb8ae54b476" x="541.616327" y="378" style="fill: #0e87cc; stroke: #0e87cc"/>
     <use xlink:href="#mb8ae54b476" x="556.310204" y="378" style="fill: #0e87cc; stroke: #0e87cc"/>
     <use xlink:href="#mb8ae54b476" x="571.004082" y="378" style="fill: #0e87cc; stroke: #0e87cc"/>
     <use xlink:href="#mb8ae54b476" x="585.697959" y="378" style="fill: #0e87cc; stroke: #0e87cc"/>
     <use xlink:href="#mb8ae54b476" x="600.391836" y="378" style="fill: #0e87cc; stroke: #0e87cc"/>
     <use xlink:href="#mb8ae54b476" x="615.085715" y="378" style="fill: #0e87cc; stroke: #0e87cc"/>
     <use xlink:href="#mb8ae54b476" x="629.779592" y="378" style="fill: #0e87cc; stroke: #0e87cc"/>
     <use xlink:href="#mb8ae54b476" x="659.167347" y="378" style="fill: #0e87cc; stroke: #0e87cc"/>
     <use xlink:href="#mb8ae54b476" x="938.351022" y="378" style="fill: #0e87cc; stroke: #0e87cc"/>
    </g>
   </g>
   <g id="PathCollection_2">
    <defs>
     <path id="m0417ec05e3" d="M 0 1.870829 
C 0.49615 1.870829 0.972045 1.673706 1.322876 1.322876 
C 1.673706 0.972045 1.870829 0.49615 1.870829 0 
C 1.870829 -0.49615 1.673706 -0.972045 1.322876 -1.322876 
C 0.972045 -1.673706 0.49615 -1.870829 0 -1.870829 
C -0.49615 -1.870829 -0.972045 -1.673706 -1.322876 -1.322876 
C -1.673706 -0.972045 -1.870829 -0.49615 -1.870829 0 
C -1.870829 0.49615 -1.673706 0.972045 -1.322876 1.322876 
C -0.972045 1.673706 -0.49615 1.870829 0 1.870829 
z
" style="stroke: #c00a37"/>
    </defs>
    <g clip-path="url(#p8a60b9fdb0)">
     <use xlink:href="#m0417ec05e3" x="350.59592" y="378" style="fill: #c00a37; stroke: #c00a37"/>
     <use xlink:href="#m0417ec05e3" x="365.289797" y="378" style="fill: #c00a37; stroke: #c00a37"/>
    </g>
   </g>
   <g id="legend_1">
    <g id="line2d_15">
     <path d="M 114.3 55.647656 
L 129.3 55.647656 
L 144.3 55.647656 
" style="fill: none; stroke: #0e87cc; stroke-width: 2.5; stroke-linecap: square"/>
    </g>
    <g id="text_13">
     <!-- SFEF→SLIP -->
     <g transform="translate(156.3 60.897656) scale(0.15 -0.15)">
      <defs>
       <path id="DejaVuSans-46" d="M 628 4666 
L 3309 4666 
L 3309 4134 
L 1259 4134 
L 1259 2759 
L 3109 2759 
L 3109 2228 
L 1259 2228 
L 1259 0 
L 628 0 
L 628 4666 
z
" transform="scale(0.015625)"/>
       <path id="DejaVuSans-45" d="M 628 4666 
L 3578 4666 
L 3578 4134 
L 1259 4134 
L 1259 2753 
L 3481 2753 
L 3481 2222 
L 1259 2222 
L 1259 531 
L 3634 531 
L 3634 0 
L 628 0 
L 628 4666 
z
" transform="scale(0.015625)"/>
       <path id="DejaVuSans-2192" d="M 5050 2147 
L 5050 1866 
L 3822 638 
L 3447 1013 
L 4175 1741 
L 366 1741 
L 366 2272 
L 4175 2272 
L 3447 3000 
L 3822 3375 
L 5050 2147 
z
" transform="scale(0.015625)"/>
       <path id="DejaVuSans-4c" d="M 628 4666 
L 1259 4666 
L 1259 531 
L 3531 531 
L 3531 0 
L 628 0 
L 628 4666 
z
" transform="scale(0.015625)"/>
       <path id="DejaVuSans-49" d="M 628 4666 
L 1259 4666 
L 1259 0 
L 628 0 
L 628 4666 
z
" transform="scale(0.015625)"/>
       <path id="DejaVuSans-50" d="M 1259 4147 
L 1259 2394 
L 2053 2394 
Q 2494 2394 2734 2622 
Q 2975 2850 2975 3272 
Q 2975 3691 2734 3919 
Q 2494 4147 2053 4147 
L 1259 4147 
z
M 628 4666 
L 2053 4666 
Q 2838 4666 3239 4311 
Q 3641 3956 3641 3272 
Q 3641 2581 3239 2228 
Q 2838 1875 2053 1875 
L 1259 1875 
L 1259 0 
L 628 0 
L 628 4666 
z
" transform="scale(0.015625)"/>
      </defs>
      <use xlink:href="#DejaVuSans-53"/>
      <use xlink:href="#DejaVuSans-46" transform="translate(63.476562 0)"/>
      <use xlink:href="#DejaVuSans-45" transform="translate(120.996094 0)"/>
      <use xlink:href="#DejaVuSans-46" transform="translate(184.179688 0)"/>
      <use xlink:href="#DejaVuSans-2192" transform="translate(241.699219 0)"/>
      <use xlink:href="#DejaVuSans-53" transform="translate(325.488281 0)"/>
      <use xlink:href="#DejaVuSans-4c" transform="translate(388.964844 0)"/>
      <use xlink:href="#DejaVuSans-49" transform="translate(444.677734 0)"/>
      <use xlink:href="#DejaVuSans-50" transform="translate(474.169922 0)"/>
     </g>
    </g>
    <g id="line2d_16">
     <path d="M 114.3 77.664844 
L 129.3 77.664844 
L 144.3 77.664844 
" style="fill: none; stroke: #c00a37; stroke-width: 2.5; stroke-linecap: square"/>
    </g>
    <g id="text_14">
     <!-- SLIP→SFEF -->
     <g transform="translate(156.3 82.914844) scale(0.15 -0.15)">
      <use xlink:href="#DejaVuSans-53"/>
      <use xlink:href="#DejaVuSans-4c" transform="translate(63.476562 0)"/>
      <use xlink:href="#DejaVuSans-49" transform="translate(119.189453 0)"/>
      <use xlink:href="#DejaVuSans-50" transform="translate(148.681641 0)"/>
      <use xlink:href="#DejaVuSans-2192" transform="translate(208.984375 0)"/>
      <use xlink:href="#DejaVuSans-53" transform="translate(292.773438 0)"/>
      <use xlink:href="#DejaVuSans-46" transform="translate(356.25 0)"/>
      <use xlink:href="#DejaVuSans-45" transform="translate(413.769531 0)"/>
      <use xlink:href="#DejaVuSans-46" transform="translate(476.953125 0)"/>
     </g>
    </g>
   </g>
  </g>
 </g>
 <defs>
  <clipPath id="p8a60b9fdb0">
   <rect x="100.8" y="36" width="720" height="360"/>
  </clipPath>
 </defs>
</svg>
