<?xml version="1.0" encoding="utf-8" standalone="no"?>
<!DOCTYPE svg PUBLIC "-//W3C//DTD SVG 1.1//EN"
  "http://www.w3.org/Graphics/SVG/1.1/DTD/svg11.dtd">
<svg xmlns:xlink="http://www.w3.org/1999/xlink" width="561.6pt" height="561.6pt" viewBox="0 0 561.6 561.6" xmlns="http://www.w3.org/2000/svg" version="1.1">
 <metadata>
  <rdf:RDF xmlns:dc="http://purl.org/dc/elements/1.1/" xmlns:cc="http://creativecommons.org/ns#" xmlns:rdf="http://www.w3.org/1999/02/22-rdf-syntax-ns#">
   <cc:Work>
    <dc:type rdf:resource="http://purl.org/dc/dcmitype/StillImage"/>
    <dc:date>2025-12-08T02:24:18.755623</dc:date>
    <dc:format>image/svg+xml</dc:format>
    <dc:creator>
     <cc:Agent>
      <dc:title>Matplotlib v3.10.5, https://matplotlib.org/</dc:title>
     </cc:Agent>
    </dc:creator>
   </cc:Work>
  </rdf:RDF>
 </metadata>
 <defs>
  <style type="text/css">*{stroke-linejoin: round; stroke-linecap: butt}</style>
 </defs>
 <g id="figure_1">
  <g id="patch_1">
   <path d="M 0 561.6 
L 561.6 561.6 
L 561.6 0 
L 0 0 
z
" style="fill: #ffffff"/>
  </g>
  <g id="axes_1">
   <g id="patch_2">
    <path d="M 70.2 206.388 
L 505.44 206.388 
L 505.44 67.392 
L 70.2 67.392 
z
" style="fill: #ffffff"/>
   </g>
   <g id="FillBetweenPolyCollection_1">
    <defs>
     <path id="mf907f110c2" d="M 89.983636 -407.903977 
L 89.983636 -379.332923 
L 93.980327 -384.095828 
L 97.977023 -385.969538 
L 101.973713 -387.470463 
L 105.97041 -379.441704 
L 109.967106 -373.388637 
L 113.963796 -380.931638 
L 117.960493 -383.154927 
L 121.957186 -376.541381 
L 125.953882 -376.655594 
L 129.950576 -384.476985 
L 133.947269 -382.114238 
L 137.943962 -378.151747 
L 141.940659 -377.394296 
L 145.937352 -376.273884 
L 149.934045 -375.685918 
L 153.93074 -383.765657 
L 157.927434 -390.706258 
L 161.924129 -382.089112 
L 165.920823 -389.246604 
L 169.917517 -369.07543 
L 173.914211 -376.502557 
L 177.910906 -373.079978 
L 181.9076 -386.912768 
L 185.904294 -381.594093 
L 189.900988 -386.239753 
L 193.897681 -389.969684 
L 197.894377 -381.188156 
L 201.891071 -385.036884 
L 205.887764 -380.154083 
L 209.884457 -380.689385 
L 213.881154 -374.23447 
L 217.877847 -371.086348 
L 221.874543 -373.07924 
L 225.871234 -380.037275 
L 229.86793 -381.939055 
L 233.864626 -369.375857 
L 237.861317 -368.180807 
L 241.858013 -372.688774 
L 245.854704 -370.889983 
L 249.8514 -385.764123 
L 253.848096 -380.442967 
L 257.844787 -367.613193 
L 261.841483 -377.050483 
L 265.838179 -374.055881 
L 269.83487 -370.962937 
L 273.83156 -370.483787 
L 277.828262 -367.541611 
L 281.824953 -366.205059 
L 285.821643 -369.293592 
L 289.818345 -366.540888 
L 293.815036 -367.785713 
L 297.811726 -366.704124 
L 301.808428 -365.963568 
L 305.805119 -370.14725 
L 309.801809 -364.794623 
L 313.798511 -364.782049 
L 317.795202 -366.218092 
L 321.791892 -365.133723 
L 325.788594 -364.791568 
L 329.785285 -364.589289 
L 333.781975 -364.942856 
L 337.778677 -364.662809 
L 341.775368 -367.20275 
L 345.772058 -364.283201 
L 349.76876 -365.548927 
L 353.765451 -365.036386 
L 357.762141 -364.994157 
L 361.758843 -364.458711 
L 365.755534 -365.244152 
L 369.752224 -365.731283 
L 373.748914 -364.399974 
L 377.745605 -368.713649 
L 381.742319 -368.36034 
L 385.739009 -365.731092 
L 389.7357 -367.033274 
L 393.73239 -370.666271 
L 397.72908 -364.860049 
L 401.725771 -366.534901 
L 405.722485 -367.457401 
L 409.719175 -365.495517 
L 413.715866 -369.983169 
L 417.712556 -370.343963 
L 421.709246 -372.453542 
L 425.705937 -366.383712 
L 429.702627 -367.701284 
L 433.699341 -371.332941 
L 437.696032 -365.866198 
L 441.692722 -366.981826 
L 445.689412 -369.486343 
L 449.686103 -367.794353 
L 453.682793 -368.353327 
L 457.679507 -366.974997 
L 461.676198 -365.489642 
L 465.672888 -367.981714 
L 469.669578 -365.962059 
L 473.666269 -367.468588 
L 477.662959 -365.767925 
L 481.659673 -365.407162 
L 485.656364 -365.176588 
L 485.656364 -380.078468 
L 485.656364 -380.078468 
L 481.659673 -381.538855 
L 477.662959 -383.391142 
L 473.666269 -384.754369 
L 469.669578 -380.551256 
L 465.672888 -385.460744 
L 461.676198 -382.065368 
L 457.679507 -384.446802 
L 453.682793 -386.348578 
L 449.686103 -385.549316 
L 445.689412 -389.09865 
L 441.692722 -384.478607 
L 437.696032 -380.778722 
L 433.699341 -393.673543 
L 429.702627 -386.19688 
L 425.705937 -382.535222 
L 421.709246 -394.268152 
L 417.712556 -389.298442 
L 413.715866 -389.684622 
L 409.719175 -380.822814 
L 405.722485 -384.781968 
L 401.725771 -383.183843 
L 397.72908 -380.475201 
L 393.73239 -390.565068 
L 389.7357 -386.533559 
L 385.739009 -382.241947 
L 381.742319 -386.076291 
L 377.745605 -389.148127 
L 373.748914 -379.404224 
L 369.752224 -381.722437 
L 365.755534 -381.376305 
L 361.758843 -378.909787 
L 357.762141 -381.249825 
L 353.765451 -381.748483 
L 349.76876 -381.5618 
L 345.772058 -379.966549 
L 341.775368 -385.124147 
L 337.778677 -380.30655 
L 333.781975 -380.874412 
L 329.785285 -379.826922 
L 325.788594 -380.325641 
L 321.791892 -379.351384 
L 317.795202 -383.885177 
L 313.798511 -379.768201 
L 309.801809 -380.80479 
L 305.805119 -391.516141 
L 301.808428 -382.571157 
L 297.811726 -383.516477 
L 293.815036 -389.553457 
L 289.818345 -385.947666 
L 285.821643 -390.315664 
L 281.824953 -381.476707 
L 277.828262 -389.256974 
L 273.83156 -395.757156 
L 269.83487 -394.202409 
L 265.838179 -399.319524 
L 261.841483 -403.355096 
L 257.844787 -389.698381 
L 253.848096 -411.602611 
L 249.8514 -419.6101 
L 245.854704 -395.259467 
L 241.858013 -395.471511 
L 237.861317 -387.445653 
L 233.864626 -390.394663 
L 229.86793 -413.200755 
L 225.871234 -412.85782 
L 221.874543 -397.930838 
L 217.877847 -395.652777 
L 213.881154 -401.712265 
L 209.884457 -414.035801 
L 205.887764 -410.229341 
L 201.891071 -419.028404 
L 197.894377 -413.290522 
L 193.897681 -427.216307 
L 189.900988 -419.780901 
L 185.904294 -415.756936 
L 181.9076 -419.751906 
L 177.910906 -400.148371 
L 173.914211 -405.541693 
L 169.917517 -395.128637 
L 165.920823 -426.628987 
L 161.924129 -413.505389 
L 157.927434 -431.372346 
L 153.93074 -417.449234 
L 149.934045 -404.101698 
L 145.937352 -406.594427 
L 141.940659 -404.993476 
L 137.943962 -408.331228 
L 133.947269 -412.327029 
L 129.950576 -416.539522 
L 125.953882 -402.69611 
L 121.957186 -404.689906 
L 117.960493 -414.617996 
L 113.963796 -412.326746 
L 109.967106 -400.083786 
L 105.97041 -409.167322 
L 101.973713 -421.179256 
L 97.977023 -419.188086 
L 93.980327 -416.152271 
L 89.983636 -407.903977 
z
"/>
    </defs>
    <g clip-path="url(#p0f30a1fb8b)">
     <use xlink:href="#mf907f110c2" x="0" y="561.6" style="fill: #1f77b4; fill-opacity: 0.15"/>
    </g>
   </g>
   <g id="FillBetweenPolyCollection_2">
    <defs>
     <path id="me158c9ee14" d="M 89.983636 -401.384302 
L 89.983636 -376.21744 
L 93.980327 -383.23253 
L 97.977023 -381.164373 
L 101.973713 -379.506366 
L 105.97041 -380.76305 
L 109.967106 -372.638487 
L 113.963796 -376.529751 
L 117.960493 -376.498421 
L 121.957186 -374.285888 
L 125.953882 -371.423285 
L 129.950576 -378.803759 
L 133.947269 -374.65024 
L 137.943962 -371.261792 
L 141.940659 -372.590201 
L 145.937352 -379.234305 
L 149.934045 -376.805681 
L 153.93074 -393.839318 
L 157.927434 -380.168241 
L 161.924129 -378.337093 
L 165.920823 -379.070628 
L 169.917517 -381.025511 
L 173.914211 -380.578719 
L 177.910906 -374.065262 
L 181.9076 -381.746705 
L 185.904294 -377.222194 
L 189.900988 -373.002855 
L 193.897681 -388.636456 
L 197.894377 -376.248894 
L 201.891071 -379.475877 
L 205.887764 -381.345217 
L 209.884457 -378.534964 
L 213.881154 -373.918861 
L 217.877847 -373.210762 
L 221.874543 -372.444382 
L 225.871234 -377.814709 
L 229.86793 -383.564237 
L 233.864626 -379.994856 
L 237.861317 -376.217444 
L 241.858013 -389.201699 
L 245.854704 -375.751383 
L 249.8514 -375.942001 
L 253.848096 -374.110017 
L 257.844787 -370.497593 
L 261.841483 -370.618285 
L 265.838179 -375.167793 
L 269.83487 -372.798729 
L 273.83156 -383.946726 
L 277.828262 -382.151533 
L 281.824953 -372.162017 
L 285.821643 -370.279007 
L 289.818345 -371.70552 
L 293.815036 -377.044502 
L 297.811726 -380.138818 
L 301.808428 -374.460033 
L 305.805119 -372.679954 
L 309.801809 -376.631357 
L 313.798511 -365.729678 
L 317.795202 -369.517958 
L 321.791892 -365.827625 
L 325.788594 -368.492949 
L 329.785285 -378.753116 
L 333.781975 -369.3527 
L 337.778677 -368.946932 
L 341.775368 -373.558317 
L 345.772058 -371.527544 
L 349.76876 -378.491348 
L 353.765451 -369.027485 
L 357.762141 -371.73181 
L 361.758843 -384.517102 
L 365.755534 -380.654148 
L 369.752224 -371.902476 
L 373.748914 -366.631006 
L 377.745605 -368.654407 
L 381.742319 -378.156055 
L 385.739009 -365.142402 
L 389.7357 -384.94049 
L 393.73239 -379.879838 
L 397.72908 -392.801871 
L 401.725771 -384.484928 
L 405.722485 -377.80995 
L 409.719175 -378.983195 
L 413.715866 -382.97003 
L 417.712556 -379.920796 
L 421.709246 -374.480155 
L 425.705937 -370.894155 
L 429.702627 -369.599192 
L 433.699341 -368.898432 
L 437.696032 -368.392823 
L 441.692722 -382.664583 
L 445.689412 -372.360086 
L 449.686103 -367.093448 
L 453.682793 -378.992624 
L 457.679507 -370.650526 
L 461.676198 -369.64013 
L 465.672888 -372.964373 
L 469.669578 -368.775572 
L 473.666269 -370.170764 
L 477.662959 -373.129355 
L 481.659673 -380.521276 
L 485.656364 -378.882578 
L 485.656364 -405.046167 
L 485.656364 -405.046167 
L 481.659673 -407.691203 
L 477.662959 -394.079267 
L 473.666269 -390.675118 
L 469.669578 -388.028236 
L 465.672888 -396.213296 
L 461.676198 -389.646926 
L 457.679507 -390.887616 
L 453.682793 -406.29238 
L 449.686103 -384.27841 
L 445.689412 -394.781303 
L 441.692722 -409.894138 
L 437.696032 -387.994928 
L 433.699341 -388.186669 
L 429.702627 -390.147984 
L 425.705937 -391.448542 
L 421.709246 -398.73091 
L 417.712556 -407.576305 
L 413.715866 -411.141689 
L 409.719175 -405.528806 
L 405.722485 -405.372948 
L 401.725771 -412.772718 
L 397.72908 -426.454273 
L 393.73239 -407.897243 
L 389.7357 -415.781278 
L 385.739009 -379.940433 
L 381.742319 -402.681797 
L 377.745605 -390.220545 
L 373.748914 -386.387922 
L 369.752224 -393.197577 
L 365.755534 -410.601768 
L 361.758843 -414.60265 
L 357.762141 -392.843691 
L 353.765451 -389.407955 
L 349.76876 -403.93407 
L 345.772058 -395.673822 
L 341.775368 -395.516731 
L 337.778677 -389.921199 
L 333.781975 -388.371507 
L 329.785285 -406.44787 
L 325.788594 -387.644008 
L 321.791892 -383.351022 
L 317.795202 -391.880092 
L 313.798511 -382.591123 
L 309.801809 -402.685454 
L 305.805119 -396.152439 
L 301.808428 -398.436222 
L 297.811726 -407.596038 
L 293.815036 -404.729552 
L 289.818345 -396.606262 
L 285.821643 -392.889834 
L 281.824953 -396.70056 
L 277.828262 -412.64852 
L 273.83156 -415.178684 
L 269.83487 -398.658258 
L 265.838179 -400.171301 
L 261.841483 -391.825864 
L 257.844787 -394.029577 
L 253.848096 -401.62201 
L 249.8514 -400.908876 
L 245.854704 -402.667921 
L 241.858013 -426.52221 
L 237.861317 -405.55999 
L 233.864626 -411.045997 
L 229.86793 -415.175498 
L 225.871234 -408.086695 
L 221.874543 -397.12736 
L 217.877847 -397.630245 
L 213.881154 -400.200307 
L 209.884457 -407.620344 
L 205.887764 -414.137371 
L 201.891071 -410.603937 
L 197.894377 -405.519886 
L 193.897681 -423.702385 
L 189.900988 -397.351225 
L 185.904294 -406.847422 
L 181.9076 -411.498015 
L 177.910906 -399.162965 
L 173.914211 -409.288271 
L 169.917517 -409.150737 
L 165.920823 -408.997903 
L 161.924129 -406.50897 
L 157.927434 -408.319919 
L 153.93074 -425.34074 
L 149.934045 -402.985172 
L 145.937352 -406.584416 
L 141.940659 -396.057809 
L 137.943962 -393.491405 
L 133.947269 -400.913391 
L 129.950576 -405.15368 
L 125.953882 -393.932432 
L 121.957186 -398.152762 
L 117.960493 -402.756076 
L 113.963796 -401.383829 
L 109.967106 -395.685439 
L 105.97041 -410.624809 
L 101.973713 -406.896542 
L 97.977023 -412.317068 
L 93.980327 -413.001281 
L 89.983636 -401.384302 
z
"/>
    </defs>
    <g clip-path="url(#p0f30a1fb8b)">
     <use xlink:href="#me158c9ee14" x="0" y="561.6" style="fill: #ff7f0e; fill-opacity: 0.15"/>
    </g>
   </g>
   <g id="matplotlib.axis_1">
    <g id="xtick_1">
     <g id="line2d_1">
      <defs>
       <path id="m19bf9bee20" d="M 0 0 
L 0 3.5 
" style="stroke: #000000; stroke-width: 0.8"/>
      </defs>
      <g>
       <use xlink:href="#m19bf9bee20" x="87.985286" y="206.388" style="stroke: #000000; stroke-width: 0.8"/>
      </g>
     </g>
     <g id="text_1">
      <!-- −200 -->
      <g transform="translate(74.251693 220.986437) scale(0.1 -0.1)">
       <defs>
        <path id="DejaVuSans-2212" d="M 678 2272 
L 4684 2272 
L 4684 1741 
L 678 1741 
L 678 2272 
z
" transform="scale(0.015625)"/>
        <path id="DejaVuSans-32" d="M 1228 531 
L 3431 531 
L 3431 0 
L 469 0 
L 469 531 
Q 828 903 1448 1529 
Q 2069 2156 2228 2338 
Q 2531 2678 2651 2914 
Q 2772 3150 2772 3378 
Q 2772 3750 2511 3984 
Q 2250 4219 1831 4219 
Q 1534 4219 1204 4116 
Q 875 4013 500 3803 
L 500 4441 
Q 881 4594 1212 4672 
Q 1544 4750 1819 4750 
Q 2544 4750 2975 4387 
Q 3406 4025 3406 3419 
Q 3406 3131 3298 2873 
Q 3191 2616 2906 2266 
Q 2828 2175 2409 1742 
Q 1991 1309 1228 531 
z
" transform="scale(0.015625)"/>
        <path id="DejaVuSans-30" d="M 2034 4250 
Q 1547 4250 1301 3770 
Q 1056 3291 1056 2328 
Q 1056 1369 1301 889 
Q 1547 409 2034 409 
Q 2525 409 2770 889 
Q 3016 1369 3016 2328 
Q 3016 3291 2770 3770 
Q 2525 4250 2034 4250 
z
M 2034 4750 
Q 2819 4750 3233 4129 
Q 3647 3509 3647 2328 
Q 3647 1150 3233 529 
Q 2819 -91 2034 -91 
Q 1250 -91 836 529 
Q 422 1150 422 2328 
Q 422 3509 836 4129 
Q 1250 4750 2034 4750 
z
" transform="scale(0.015625)"/>
       </defs>
       <use xlink:href="#DejaVuSans-2212"/>
       <use xlink:href="#DejaVuSans-32" transform="translate(83.789062 0)"/>
       <use xlink:href="#DejaVuSans-30" transform="translate(147.412109 0)"/>
       <use xlink:href="#DejaVuSans-30" transform="translate(211.035156 0)"/>
      </g>
     </g>
    </g>
    <g id="xtick_2">
     <g id="line2d_2">
      <g>
       <use xlink:href="#m19bf9bee20" x="167.91917" y="206.388" style="stroke: #000000; stroke-width: 0.8"/>
      </g>
     </g>
     <g id="text_2">
      <!-- 0 -->
      <g transform="translate(164.73792 220.986437) scale(0.1 -0.1)">
       <use xlink:href="#DejaVuSans-30"/>
      </g>
     </g>
    </g>
    <g id="xtick_3">
     <g id="line2d_3">
      <g>
       <use xlink:href="#m19bf9bee20" x="247.853053" y="206.388" style="stroke: #000000; stroke-width: 0.8"/>
      </g>
     </g>
     <g id="text_3">
      <!-- 200 -->
      <g transform="translate(238.309303 220.986437) scale(0.1 -0.1)">
       <use xlink:href="#DejaVuSans-32"/>
       <use xlink:href="#DejaVuSans-30" transform="translate(63.623047 0)"/>
       <use xlink:href="#DejaVuSans-30" transform="translate(127.246094 0)"/>
      </g>
     </g>
    </g>
    <g id="xtick_4">
     <g id="line2d_4">
      <g>
       <use xlink:href="#m19bf9bee20" x="327.786937" y="206.388" style="stroke: #000000; stroke-width: 0.8"/>
      </g>
     </g>
     <g id="text_4">
      <!-- 400 -->
      <g transform="translate(318.243187 220.986437) scale(0.1 -0.1)">
       <defs>
        <path id="DejaVuSans-34" d="M 2419 4116 
L 825 1625 
L 2419 1625 
L 2419 4116 
z
M 2253 4666 
L 3047 4666 
L 3047 1625 
L 3713 1625 
L 3713 1100 
L 3047 1100 
L 3047 0 
L 2419 0 
L 2419 1100 
L 313 1100 
L 313 1709 
L 2253 4666 
z
" transform="scale(0.015625)"/>
       </defs>
       <use xlink:href="#DejaVuSans-34"/>
       <use xlink:href="#DejaVuSans-30" transform="translate(63.623047 0)"/>
       <use xlink:href="#DejaVuSans-30" transform="translate(127.246094 0)"/>
      </g>
     </g>
    </g>
    <g id="xtick_5">
     <g id="line2d_5">
      <g>
       <use xlink:href="#m19bf9bee20" x="407.720821" y="206.388" style="stroke: #000000; stroke-width: 0.8"/>
      </g>
     </g>
     <g id="text_5">
      <!-- 600 -->
      <g transform="translate(398.177071 220.986437) scale(0.1 -0.1)">
       <defs>
        <path id="DejaVuSans-36" d="M 2113 2584 
Q 1688 2584 1439 2293 
Q 1191 2003 1191 1497 
Q 1191 994 1439 701 
Q 1688 409 2113 409 
Q 2538 409 2786 701 
Q 3034 994 3034 1497 
Q 3034 2003 2786 2293 
Q 2538 2584 2113 2584 
z
M 3366 4563 
L 3366 3988 
Q 3128 4100 2886 4159 
Q 2644 4219 2406 4219 
Q 1781 4219 1451 3797 
Q 1122 3375 1075 2522 
Q 1259 2794 1537 2939 
Q 1816 3084 2150 3084 
Q 2853 3084 3261 2657 
Q 3669 2231 3669 1497 
Q 3669 778 3244 343 
Q 2819 -91 2113 -91 
Q 1303 -91 875 529 
Q 447 1150 447 2328 
Q 447 3434 972 4092 
Q 1497 4750 2381 4750 
Q 2619 4750 2861 4703 
Q 3103 4656 3366 4563 
z
" transform="scale(0.015625)"/>
       </defs>
       <use xlink:href="#DejaVuSans-36"/>
       <use xlink:href="#DejaVuSans-30" transform="translate(63.623047 0)"/>
       <use xlink:href="#DejaVuSans-30" transform="translate(127.246094 0)"/>
      </g>
     </g>
    </g>
    <g id="xtick_6">
     <g id="line2d_6">
      <g>
       <use xlink:href="#m19bf9bee20" x="487.654704" y="206.388" style="stroke: #000000; stroke-width: 0.8"/>
      </g>
     </g>
     <g id="text_6">
      <!-- 800 -->
      <g transform="translate(478.110954 220.986437) scale(0.1 -0.1)">
       <defs>
        <path id="DejaVuSans-38" d="M 2034 2216 
Q 1584 2216 1326 1975 
Q 1069 1734 1069 1313 
Q 1069 891 1326 650 
Q 1584 409 2034 409 
Q 2484 409 2743 651 
Q 3003 894 3003 1313 
Q 3003 1734 2745 1975 
Q 2488 2216 2034 2216 
z
M 1403 2484 
Q 997 2584 770 2862 
Q 544 3141 544 3541 
Q 544 4100 942 4425 
Q 1341 4750 2034 4750 
Q 2731 4750 3128 4425 
Q 3525 4100 3525 3541 
Q 3525 3141 3298 2862 
Q 3072 2584 2669 2484 
Q 3125 2378 3379 2068 
Q 3634 1759 3634 1313 
Q 3634 634 3220 271 
Q 2806 -91 2034 -91 
Q 1263 -91 848 271 
Q 434 634 434 1313 
Q 434 1759 690 2068 
Q 947 2378 1403 2484 
z
M 1172 3481 
Q 1172 3119 1398 2916 
Q 1625 2713 2034 2713 
Q 2441 2713 2670 2916 
Q 2900 3119 2900 3481 
Q 2900 3844 2670 4047 
Q 2441 4250 2034 4250 
Q 1625 4250 1398 4047 
Q 1172 3844 1172 3481 
z
" transform="scale(0.015625)"/>
       </defs>
       <use xlink:href="#DejaVuSans-38"/>
       <use xlink:href="#DejaVuSans-30" transform="translate(63.623047 0)"/>
       <use xlink:href="#DejaVuSans-30" transform="translate(127.246094 0)"/>
      </g>
     </g>
    </g>
   </g>
   <g id="matplotlib.axis_2">
    <g id="ytick_1">
     <g id="line2d_7">
      <defs>
       <path id="mdb637c3727" d="M 0 0 
L -3.5 0 
" style="stroke: #000000; stroke-width: 0.8"/>
      </defs>
      <g>
       <use xlink:href="#mdb637c3727" x="70.2" y="201.08964" style="stroke: #000000; stroke-width: 0.8"/>
      </g>
     </g>
     <g id="text_7">
      <!-- 0 -->
      <g transform="translate(56.8375 204.888858) scale(0.1 -0.1)">
       <use xlink:href="#DejaVuSans-30"/>
      </g>
     </g>
    </g>
    <g id="ytick_2">
     <g id="line2d_8">
      <g>
       <use xlink:href="#mdb637c3727" x="70.2" y="166.522762" style="stroke: #000000; stroke-width: 0.8"/>
      </g>
     </g>
     <g id="text_8">
      <!-- 10 -->
      <g transform="translate(50.475 170.32198) scale(0.1 -0.1)">
       <defs>
        <path id="DejaVuSans-31" d="M 794 531 
L 1825 531 
L 1825 4091 
L 703 3866 
L 703 4441 
L 1819 4666 
L 2450 4666 
L 2450 531 
L 3481 531 
L 3481 0 
L 794 0 
L 794 531 
z
" transform="scale(0.015625)"/>
       </defs>
       <use xlink:href="#DejaVuSans-31"/>
       <use xlink:href="#DejaVuSans-30" transform="translate(63.623047 0)"/>
      </g>
     </g>
    </g>
    <g id="ytick_3">
     <g id="line2d_9">
      <g>
       <use xlink:href="#mdb637c3727" x="70.2" y="131.955883" style="stroke: #000000; stroke-width: 0.8"/>
      </g>
     </g>
     <g id="text_9">
      <!-- 20 -->
      <g transform="translate(50.475 135.755102) scale(0.1 -0.1)">
       <use xlink:href="#DejaVuSans-32"/>
       <use xlink:href="#DejaVuSans-30" transform="translate(63.623047 0)"/>
      </g>
     </g>
    </g>
    <g id="ytick_4">
     <g id="line2d_10">
      <g>
       <use xlink:href="#mdb637c3727" x="70.2" y="97.389005" style="stroke: #000000; stroke-width: 0.8"/>
      </g>
     </g>
     <g id="text_10">
      <!-- 30 -->
      <g transform="translate(50.475 101.188224) scale(0.1 -0.1)">
       <defs>
        <path id="DejaVuSans-33" d="M 2597 2516 
Q 3050 2419 3304 2112 
Q 3559 1806 3559 1356 
Q 3559 666 3084 287 
Q 2609 -91 1734 -91 
Q 1441 -91 1130 -33 
Q 819 25 488 141 
L 488 750 
Q 750 597 1062 519 
Q 1375 441 1716 441 
Q 2309 441 2620 675 
Q 2931 909 2931 1356 
Q 2931 1769 2642 2001 
Q 2353 2234 1838 2234 
L 1294 2234 
L 1294 2753 
L 1863 2753 
Q 2328 2753 2575 2939 
Q 2822 3125 2822 3475 
Q 2822 3834 2567 4026 
Q 2313 4219 1838 4219 
Q 1578 4219 1281 4162 
Q 984 4106 628 3988 
L 628 4550 
Q 988 4650 1302 4700 
Q 1616 4750 1894 4750 
Q 2613 4750 3031 4423 
Q 3450 4097 3450 3541 
Q 3450 3153 3228 2886 
Q 3006 2619 2597 2516 
z
" transform="scale(0.015625)"/>
       </defs>
       <use xlink:href="#DejaVuSans-33"/>
       <use xlink:href="#DejaVuSans-30" transform="translate(63.623047 0)"/>
      </g>
     </g>
    </g>
    <g id="text_11">
     <!-- ΔLL (bits) -->
     <g transform="translate(44.395313 160.500937) rotate(-90) scale(0.1 -0.1)">
      <defs>
       <path id="DejaVuSans-394" d="M 2188 4044 
L 906 525 
L 3472 525 
L 2188 4044 
z
M 50 0 
L 1831 4666 
L 2547 4666 
L 4325 0 
L 50 0 
z
" transform="scale(0.015625)"/>
       <path id="DejaVuSans-4c" d="M 628 4666 
L 1259 4666 
L 1259 531 
L 3531 531 
L 3531 0 
L 628 0 
L 628 4666 
z
" transform="scale(0.015625)"/>
       <path id="DejaVuSans-20" transform="scale(0.015625)"/>
       <path id="DejaVuSans-28" d="M 1984 4856 
Q 1566 4138 1362 3434 
Q 1159 2731 1159 2009 
Q 1159 1288 1364 580 
Q 1569 -128 1984 -844 
L 1484 -844 
Q 1016 -109 783 600 
Q 550 1309 550 2009 
Q 550 2706 781 3412 
Q 1013 4119 1484 4856 
L 1984 4856 
z
" transform="scale(0.015625)"/>
       <path id="DejaVuSans-62" d="M 3116 1747 
Q 3116 2381 2855 2742 
Q 2594 3103 2138 3103 
Q 1681 3103 1420 2742 
Q 1159 2381 1159 1747 
Q 1159 1113 1420 752 
Q 1681 391 2138 391 
Q 2594 391 2855 752 
Q 3116 1113 3116 1747 
z
M 1159 2969 
Q 1341 3281 1617 3432 
Q 1894 3584 2278 3584 
Q 2916 3584 3314 3078 
Q 3713 2572 3713 1747 
Q 3713 922 3314 415 
Q 2916 -91 2278 -91 
Q 1894 -91 1617 61 
Q 1341 213 1159 525 
L 1159 0 
L 581 0 
L 581 4863 
L 1159 4863 
L 1159 2969 
z
" transform="scale(0.015625)"/>
       <path id="DejaVuSans-69" d="M 603 3500 
L 1178 3500 
L 1178 0 
L 603 0 
L 603 3500 
z
M 603 4863 
L 1178 4863 
L 1178 4134 
L 603 4134 
L 603 4863 
z
" transform="scale(0.015625)"/>
       <path id="DejaVuSans-74" d="M 1172 4494 
L 1172 3500 
L 2356 3500 
L 2356 3053 
L 1172 3053 
L 1172 1153 
Q 1172 725 1289 603 
Q 1406 481 1766 481 
L 2356 481 
L 2356 0 
L 1766 0 
Q 1100 0 847 248 
Q 594 497 594 1153 
L 594 3053 
L 172 3053 
L 172 3500 
L 594 3500 
L 594 4494 
L 1172 4494 
z
" transform="scale(0.015625)"/>
       <path id="DejaVuSans-73" d="M 2834 3397 
L 2834 2853 
Q 2591 2978 2328 3040 
Q 2066 3103 1784 3103 
Q 1356 3103 1142 2972 
Q 928 2841 928 2578 
Q 928 2378 1081 2264 
Q 1234 2150 1697 2047 
L 1894 2003 
Q 2506 1872 2764 1633 
Q 3022 1394 3022 966 
Q 3022 478 2636 193 
Q 2250 -91 1575 -91 
Q 1294 -91 989 -36 
Q 684 19 347 128 
L 347 722 
Q 666 556 975 473 
Q 1284 391 1588 391 
Q 1994 391 2212 530 
Q 2431 669 2431 922 
Q 2431 1156 2273 1281 
Q 2116 1406 1581 1522 
L 1381 1569 
Q 847 1681 609 1914 
Q 372 2147 372 2553 
Q 372 3047 722 3315 
Q 1072 3584 1716 3584 
Q 2034 3584 2315 3537 
Q 2597 3491 2834 3397 
z
" transform="scale(0.015625)"/>
       <path id="DejaVuSans-29" d="M 513 4856 
L 1013 4856 
Q 1481 4119 1714 3412 
Q 1947 2706 1947 2009 
Q 1947 1309 1714 600 
Q 1481 -109 1013 -844 
L 513 -844 
Q 928 -128 1133 580 
Q 1338 1288 1338 2009 
Q 1338 2731 1133 3434 
Q 928 4138 513 4856 
z
" transform="scale(0.015625)"/>
      </defs>
      <use xlink:href="#DejaVuSans-394"/>
      <use xlink:href="#DejaVuSans-4c" transform="translate(68.408203 0)"/>
      <use xlink:href="#DejaVuSans-4c" transform="translate(124.121094 0)"/>
      <use xlink:href="#DejaVuSans-20" transform="translate(179.833984 0)"/>
      <use xlink:href="#DejaVuSans-28" transform="translate(211.621094 0)"/>
      <use xlink:href="#DejaVuSans-62" transform="translate(250.634766 0)"/>
      <use xlink:href="#DejaVuSans-69" transform="translate(314.111328 0)"/>
      <use xlink:href="#DejaVuSans-74" transform="translate(341.894531 0)"/>
      <use xlink:href="#DejaVuSans-73" transform="translate(381.103516 0)"/>
      <use xlink:href="#DejaVuSans-29" transform="translate(433.203125 0)"/>
     </g>
    </g>
   </g>
   <g id="line2d_11">
    <path d="M 167.91917 206.388 
L 167.91917 67.392 
" clip-path="url(#p0f30a1fb8b)" style="fill: none; stroke-dasharray: 2.96,1.28; stroke-dashoffset: 0; stroke: #000000; stroke-width: 0.8"/>
   </g>
   <g id="line2d_12">
    <path d="M 89.983636 167.98155 
L 93.980327 161.475951 
L 97.977023 159.021188 
L 101.973713 157.275141 
L 105.97041 167.295487 
L 109.967106 174.863788 
L 113.963796 164.970808 
L 117.960493 162.713538 
L 121.957186 170.984357 
L 125.953882 171.924148 
L 129.950576 161.091746 
L 133.947269 164.379366 
L 137.943962 168.358512 
L 141.940659 170.406114 
L 145.937352 170.165844 
L 149.934045 171.706192 
L 153.93074 160.992555 
L 157.927434 150.560698 
L 161.924129 163.80275 
L 165.920823 153.662204 
L 169.917517 179.497967 
L 173.914211 170.577875 
L 177.910906 174.985825 
L 181.9076 158.267663 
L 185.904294 162.924486 
L 189.900988 158.589673 
L 193.897681 153.007004 
L 197.894377 164.360661 
L 201.891071 159.567356 
L 205.887764 166.408288 
L 209.884457 164.237407 
L 213.881154 173.626633 
L 217.877847 178.230437 
L 221.874543 176.094961 
L 225.871234 165.152453 
L 229.86793 164.030095 
L 233.864626 181.71474 
L 237.861317 183.78677 
L 241.858013 177.519857 
L 245.854704 178.525275 
L 249.8514 158.912889 
L 253.848096 165.577211 
L 257.844787 182.944213 
L 261.841483 171.39721 
L 265.838179 174.912298 
L 269.83487 179.017327 
L 273.83156 178.479529 
L 277.828262 183.200708 
L 281.824953 187.759117 
L 285.821643 181.795372 
L 289.818345 185.355723 
L 293.815036 182.930415 
L 297.811726 186.489699 
L 301.808428 187.332638 
L 305.805119 180.768304 
L 309.801809 188.800294 
L 313.798511 189.324875 
L 317.795202 186.548365 
L 321.791892 189.357447 
L 325.788594 189.041395 
L 329.785285 189.391895 
L 333.781975 188.691366 
L 337.778677 189.115321 
L 341.775368 185.436552 
L 345.772058 189.475125 
L 349.76876 188.044637 
L 353.765451 188.207565 
L 357.762141 188.478009 
L 361.758843 189.915751 
L 365.755534 188.289772 
L 369.752224 187.87314 
L 373.748914 189.697901 
L 377.745605 182.669112 
L 381.742319 184.381684 
L 385.739009 187.613481 
L 389.7357 184.816583 
L 393.73239 180.98433 
L 397.72908 188.932375 
L 401.725771 186.740628 
L 405.722485 185.480315 
L 409.719175 188.440835 
L 413.715866 181.766105 
L 417.712556 181.778797 
L 421.709246 178.239153 
L 425.705937 187.140533 
L 429.702627 184.650918 
L 433.699341 179.096758 
L 437.696032 188.27754 
L 441.692722 185.869783 
L 445.689412 182.307504 
L 449.686103 184.928165 
L 453.682793 184.249047 
L 457.679507 185.889101 
L 461.676198 187.822495 
L 465.672888 184.878771 
L 469.669578 188.343342 
L 473.666269 185.488522 
L 477.662959 187.020467 
L 481.659673 188.126992 
L 485.656364 188.972472 
" clip-path="url(#p0f30a1fb8b)" style="fill: none; stroke-dasharray: 1,1.65; stroke-dashoffset: 0; stroke: #1f77b4"/>
   </g>
   <g id="line2d_13">
    <path d="M 89.983636 172.799129 
L 93.980327 163.483095 
L 97.977023 164.85928 
L 101.973713 168.398546 
L 105.97041 165.90607 
L 109.967106 177.438037 
L 113.963796 172.64321 
L 117.960493 171.972752 
L 121.957186 175.380675 
L 125.953882 178.922142 
L 129.950576 169.621281 
L 133.947269 173.818184 
L 137.943962 179.223402 
L 141.940659 177.275995 
L 145.937352 168.690639 
L 149.934045 171.704574 
L 153.93074 152.009971 
L 157.927434 167.35592 
L 161.924129 169.176968 
L 165.920823 167.565735 
L 169.917517 166.511876 
L 173.914211 166.666505 
L 177.910906 174.985887 
L 181.9076 164.97764 
L 185.904294 169.565192 
L 189.900988 176.42296 
L 193.897681 155.430579 
L 197.894377 170.71561 
L 201.891071 166.560093 
L 205.887764 163.858706 
L 209.884457 168.522346 
L 213.881154 174.540416 
L 217.877847 176.179496 
L 221.874543 176.814129 
L 225.871234 168.649298 
L 229.86793 162.230133 
L 233.864626 166.079573 
L 237.861317 170.711283 
L 241.858013 153.738045 
L 245.854704 172.390348 
L 249.8514 173.174562 
L 253.848096 173.733987 
L 257.844787 179.336415 
L 261.841483 180.377925 
L 265.838179 173.930453 
L 269.83487 175.871506 
L 273.83156 162.037295 
L 277.828262 164.199974 
L 281.824953 177.168711 
L 285.821643 180.01558 
L 289.818345 177.444109 
L 293.815036 170.712973 
L 297.811726 167.732572 
L 301.808428 175.151872 
L 305.805119 177.183803 
L 309.801809 171.941594 
L 313.798511 187.439599 
L 317.795202 180.900975 
L 321.791892 187.010677 
L 325.788594 183.531522 
L 329.785285 168.999507 
L 333.781975 182.737896 
L 337.778677 182.165934 
L 341.775368 177.062476 
L 345.772058 177.999317 
L 349.76876 170.387291 
L 353.765451 182.38228 
L 357.762141 179.312249 
L 361.758843 162.040124 
L 365.755534 165.972042 
L 369.752224 179.049974 
L 373.748914 185.090536 
L 377.745605 182.162524 
L 381.742319 171.181074 
L 385.739009 189.058582 
L 389.7357 161.239116 
L 393.73239 167.71146 
L 397.72908 151.971928 
L 401.725771 162.971177 
L 405.722485 170.008551 
L 409.719175 169.343999 
L 413.715866 164.54414 
L 417.712556 167.851449 
L 421.709246 174.994468 
L 425.705937 180.428651 
L 429.702627 181.726412 
L 433.699341 183.05745 
L 437.696032 183.406125 
L 441.692722 165.32064 
L 445.689412 178.029305 
L 449.686103 185.914071 
L 453.682793 168.957498 
L 457.679507 180.830929 
L 461.676198 181.956472 
L 465.672888 177.011165 
L 469.669578 183.198096 
L 473.666269 181.177059 
L 477.662959 177.995689 
L 481.659673 167.49376 
L 485.656364 169.635627 
" clip-path="url(#p0f30a1fb8b)" style="fill: none; stroke-dasharray: 1,1.65; stroke-dashoffset: 0; stroke: #ff7f0e"/>
   </g>
   <g id="line2d_14">
    <path d="M 89.983636 166.765011 
L 93.980327 167.127508 
L 97.977023 159.308242 
L 101.973713 149.581855 
L 105.97041 160.559672 
L 109.967106 171.709351 
L 113.963796 161.191259 
L 117.960493 164.630343 
L 121.957186 157.830851 
L 125.953882 154.191601 
L 129.950576 158.522834 
L 133.947269 149.396842 
L 137.943962 166.365111 
L 141.940659 181.206973 
L 145.937352 189.383699 
L 149.934045 175.281515 
L 153.93074 155.512772 
L 157.927434 138.591204 
L 161.924129 144.849121 
L 165.920823 149.328949 
L 169.917517 185.872759 
L 173.914211 168.141835 
L 177.910906 140.572035 
L 181.9076 162.578182 
L 185.904294 138.257122 
L 189.900988 135.540345 
L 193.897681 97.239883 
L 197.894377 127.829793 
L 201.891071 160.820784 
L 205.887764 182.064346 
L 209.884457 179.62686 
L 213.881154 146.915943 
L 217.877847 161.193239 
L 221.874543 138.837533 
L 225.871234 139.009622 
L 229.86793 154.135601 
L 233.864626 174.099687 
L 237.861317 180.309529 
L 241.858013 141.259066 
L 245.854704 175.295033 
L 249.8514 119.488795 
L 253.848096 154.75386 
L 257.844787 175.673337 
L 261.841483 153.759365 
L 265.838179 173.892379 
L 269.83487 159.936936 
L 273.83156 173.94519 
L 277.828262 171.353011 
L 281.824953 178.726736 
L 285.821643 167.52453 
L 289.818345 178.97973 
L 293.815036 182.261351 
L 297.811726 187.956303 
L 301.808428 186.846857 
L 305.805119 162.549752 
L 309.801809 184.373608 
L 313.798511 188.181641 
L 317.795202 188.938555 
L 321.791892 188.172106 
L 325.788594 195.403786 
L 329.785285 193.851263 
L 333.781975 186.33462 
L 337.778677 183.938169 
L 341.775368 187.928105 
L 345.772058 188.465127 
L 349.76876 184.537238 
L 353.765451 197.64805 
L 357.762141 197.865511 
L 361.758843 200.07 
L 365.755534 183.453256 
L 369.752224 192.289357 
L 373.748914 184.811943 
L 377.745605 189.390595 
L 381.742319 171.188632 
L 385.739009 187.328779 
L 389.7357 177.162592 
L 393.73239 163.148001 
L 397.72908 187.144482 
L 401.725771 179.754036 
L 405.722485 191.337273 
L 409.719175 186.542611 
L 413.715866 167.465122 
L 417.712556 185.068823 
L 421.709246 191.32447 
L 425.705937 190.870327 
L 429.702627 187.96423 
L 433.699341 191.873507 
L 437.696032 197.337347 
L 441.692722 182.29148 
L 445.689412 196.886037 
L 449.686103 186.263457 
L 453.682793 193.414106 
L 457.679507 187.774311 
L 461.676198 192.007058 
L 465.672888 188.549892 
L 469.669578 193.959449 
L 473.666269 179.259988 
L 477.662959 194.693053 
L 481.659673 183.262337 
L 485.656364 189.530234 
" clip-path="url(#p0f30a1fb8b)" style="fill: none; stroke: #1f77b4; stroke-width: 2.2; stroke-linecap: square"/>
   </g>
   <g id="line2d_15">
    <path d="M 89.983636 186.558936 
L 93.980327 115.207907 
L 97.977023 167.862502 
L 101.973713 147.114675 
L 105.97041 152.782433 
L 109.967106 159.43948 
L 113.963796 164.211141 
L 117.960493 154.567186 
L 121.957186 156.237753 
L 125.953882 175.018752 
L 129.950576 153.740867 
L 133.947269 116.01997 
L 137.943962 165.476089 
L 141.940659 147.128392 
L 145.937352 128.250133 
L 149.934045 163.03687 
L 153.93074 130.415123 
L 157.927434 135.921713 
L 161.924129 138.908729 
L 165.920823 119.41813 
L 169.917517 115.25339 
L 173.914211 160.944376 
L 177.910906 112.359442 
L 181.9076 104.625755 
L 185.904294 156.063489 
L 189.900988 185.037259 
L 193.897681 92.381153 
L 197.894377 141.698509 
L 201.891071 76.111341 
L 205.887764 98.89258 
L 209.884457 73.71 
L 213.881154 132.975148 
L 217.877847 149.617595 
L 221.874543 128.524855 
L 225.871234 114.24144 
L 229.86793 106.75133 
L 233.864626 91.379303 
L 237.861317 161.942729 
L 241.858013 75.318706 
L 245.854704 143.110021 
L 249.8514 149.567062 
L 253.848096 177.493884 
L 257.844787 173.364665 
L 261.841483 146.690115 
L 265.838179 102.681309 
L 269.83487 149.39493 
L 273.83156 112.318801 
L 277.828262 127.641605 
L 281.824953 157.14355 
L 285.821643 156.099856 
L 289.818345 173.999369 
L 293.815036 125.348378 
L 297.811726 148.790311 
L 301.808428 164.254853 
L 305.805119 181.382702 
L 309.801809 141.261571 
L 313.798511 189.386201 
L 317.795202 192.303166 
L 321.791892 185.712153 
L 325.788594 191.83181 
L 329.785285 191.538797 
L 333.781975 187.298307 
L 337.778677 190.815598 
L 341.775368 181.918279 
L 345.772058 192.020548 
L 349.76876 182.84897 
L 353.765451 155.667526 
L 357.762141 193.432947 
L 361.758843 186.302275 
L 365.755534 186.884499 
L 369.752224 193.856917 
L 373.748914 199.296967 
L 377.745605 189.039702 
L 381.742319 175.44744 
L 385.739009 193.138146 
L 389.7357 170.993183 
L 393.73239 194.142676 
L 397.72908 152.454717 
L 401.725771 186.969659 
L 405.722485 191.011948 
L 409.719175 193.563736 
L 413.715866 171.836418 
L 417.712556 193.13597 
L 421.709246 182.669483 
L 425.705937 196.642389 
L 429.702627 187.23402 
L 433.699341 187.600098 
L 437.696032 170.008152 
L 441.692722 172.905399 
L 445.689412 182.245026 
L 449.686103 171.951581 
L 453.682793 183.963979 
L 457.679507 185.67816 
L 461.676198 196.440297 
L 465.672888 187.770295 
L 469.669578 191.115084 
L 473.666269 189.177382 
L 477.662959 172.799036 
L 481.659673 189.805939 
L 485.656364 186.810808 
" clip-path="url(#p0f30a1fb8b)" style="fill: none; stroke: #ff7f0e; stroke-width: 2.2; stroke-linecap: square"/>
   </g>
   <g id="patch_3">
    <path d="M 70.2 206.388 
L 70.2 67.392 
" style="fill: none; stroke: #000000; stroke-width: 0.8; stroke-linejoin: miter; stroke-linecap: square"/>
   </g>
   <g id="patch_4">
    <path d="M 505.44 206.388 
L 505.44 67.392 
" style="fill: none; stroke: #000000; stroke-width: 0.8; stroke-linejoin: miter; stroke-linecap: square"/>
   </g>
   <g id="patch_5">
    <path d="M 70.2 206.388 
L 505.44 206.388 
" style="fill: none; stroke: #000000; stroke-width: 0.8; stroke-linejoin: miter; stroke-linecap: square"/>
   </g>
   <g id="patch_6">
    <path d="M 70.2 67.392 
L 505.44 67.392 
" style="fill: none; stroke: #000000; stroke-width: 0.8; stroke-linejoin: miter; stroke-linecap: square"/>
   </g>
   <g id="text_12">
    <!-- (MFEF vs MLIP) — O-flow — Panel A: overlay + null bands -->
    <g transform="translate(115.625625 61.392) scale(0.12 -0.12)">
     <defs>
      <path id="DejaVuSans-4d" d="M 628 4666 
L 1569 4666 
L 2759 1491 
L 3956 4666 
L 4897 4666 
L 4897 0 
L 4281 0 
L 4281 4097 
L 3078 897 
L 2444 897 
L 1241 4097 
L 1241 0 
L 628 0 
L 628 4666 
z
" transform="scale(0.015625)"/>
      <path id="DejaVuSans-46" d="M 628 4666 
L 3309 4666 
L 3309 4134 
L 1259 4134 
L 1259 2759 
L 3109 2759 
L 3109 2228 
L 1259 2228 
L 1259 0 
L 628 0 
L 628 4666 
z
" transform="scale(0.015625)"/>
      <path id="DejaVuSans-45" d="M 628 4666 
L 3578 4666 
L 3578 4134 
L 1259 4134 
L 1259 2753 
L 3481 2753 
L 3481 2222 
L 1259 2222 
L 1259 531 
L 3634 531 
L 3634 0 
L 628 0 
L 628 4666 
z
" transform="scale(0.015625)"/>
      <path id="DejaVuSans-76" d="M 191 3500 
L 800 3500 
L 1894 563 
L 2988 3500 
L 3597 3500 
L 2284 0 
L 1503 0 
L 191 3500 
z
" transform="scale(0.015625)"/>
      <path id="DejaVuSans-49" d="M 628 4666 
L 1259 4666 
L 1259 0 
L 628 0 
L 628 4666 
z
" transform="scale(0.015625)"/>
      <path id="DejaVuSans-50" d="M 1259 4147 
L 1259 2394 
L 2053 2394 
Q 2494 2394 2734 2622 
Q 2975 2850 2975 3272 
Q 2975 3691 2734 3919 
Q 2494 4147 2053 4147 
L 1259 4147 
z
M 628 4666 
L 2053 4666 
Q 2838 4666 3239 4311 
Q 3641 3956 3641 3272 
Q 3641 2581 3239 2228 
Q 2838 1875 2053 1875 
L 1259 1875 
L 1259 0 
L 628 0 
L 628 4666 
z
" transform="scale(0.015625)"/>
      <path id="DejaVuSans-2014" d="M 313 1978 
L 6088 1978 
L 6088 1528 
L 313 1528 
L 313 1978 
z
" transform="scale(0.015625)"/>
      <path id="DejaVuSans-4f" d="M 2522 4238 
Q 1834 4238 1429 3725 
Q 1025 3213 1025 2328 
Q 1025 1447 1429 934 
Q 1834 422 2522 422 
Q 3209 422 3611 934 
Q 4013 1447 4013 2328 
Q 4013 3213 3611 3725 
Q 3209 4238 2522 4238 
z
M 2522 4750 
Q 3503 4750 4090 4092 
Q 4678 3434 4678 2328 
Q 4678 1225 4090 567 
Q 3503 -91 2522 -91 
Q 1538 -91 948 565 
Q 359 1222 359 2328 
Q 359 3434 948 4092 
Q 1538 4750 2522 4750 
z
" transform="scale(0.015625)"/>
      <path id="DejaVuSans-2d" d="M 313 2009 
L 1997 2009 
L 1997 1497 
L 313 1497 
L 313 2009 
z
" transform="scale(0.015625)"/>
      <path id="DejaVuSans-66" d="M 2375 4863 
L 2375 4384 
L 1825 4384 
Q 1516 4384 1395 4259 
Q 1275 4134 1275 3809 
L 1275 3500 
L 2222 3500 
L 2222 3053 
L 1275 3053 
L 1275 0 
L 697 0 
L 697 3053 
L 147 3053 
L 147 3500 
L 697 3500 
L 697 3744 
Q 697 4328 969 4595 
Q 1241 4863 1831 4863 
L 2375 4863 
z
" transform="scale(0.015625)"/>
      <path id="DejaVuSans-6c" d="M 603 4863 
L 1178 4863 
L 1178 0 
L 603 0 
L 603 4863 
z
" transform="scale(0.015625)"/>
      <path id="DejaVuSans-6f" d="M 1959 3097 
Q 1497 3097 1228 2736 
Q 959 2375 959 1747 
Q 959 1119 1226 758 
Q 1494 397 1959 397 
Q 2419 397 2687 759 
Q 2956 1122 2956 1747 
Q 2956 2369 2687 2733 
Q 2419 3097 1959 3097 
z
M 1959 3584 
Q 2709 3584 3137 3096 
Q 3566 2609 3566 1747 
Q 3566 888 3137 398 
Q 2709 -91 1959 -91 
Q 1206 -91 779 398 
Q 353 888 353 1747 
Q 353 2609 779 3096 
Q 1206 3584 1959 3584 
z
" transform="scale(0.015625)"/>
      <path id="DejaVuSans-77" d="M 269 3500 
L 844 3500 
L 1563 769 
L 2278 3500 
L 2956 3500 
L 3675 769 
L 4391 3500 
L 4966 3500 
L 4050 0 
L 3372 0 
L 2619 2869 
L 1863 0 
L 1184 0 
L 269 3500 
z
" transform="scale(0.015625)"/>
      <path id="DejaVuSans-61" d="M 2194 1759 
Q 1497 1759 1228 1600 
Q 959 1441 959 1056 
Q 959 750 1161 570 
Q 1363 391 1709 391 
Q 2188 391 2477 730 
Q 2766 1069 2766 1631 
L 2766 1759 
L 2194 1759 
z
M 3341 1997 
L 3341 0 
L 2766 0 
L 2766 531 
Q 2569 213 2275 61 
Q 1981 -91 1556 -91 
Q 1019 -91 701 211 
Q 384 513 384 1019 
Q 384 1609 779 1909 
Q 1175 2209 1959 2209 
L 2766 2209 
L 2766 2266 
Q 2766 2663 2505 2880 
Q 2244 3097 1772 3097 
Q 1472 3097 1187 3025 
Q 903 2953 641 2809 
L 641 3341 
Q 956 3463 1253 3523 
Q 1550 3584 1831 3584 
Q 2591 3584 2966 3190 
Q 3341 2797 3341 1997 
z
" transform="scale(0.015625)"/>
      <path id="DejaVuSans-6e" d="M 3513 2113 
L 3513 0 
L 2938 0 
L 2938 2094 
Q 2938 2591 2744 2837 
Q 2550 3084 2163 3084 
Q 1697 3084 1428 2787 
Q 1159 2491 1159 1978 
L 1159 0 
L 581 0 
L 581 3500 
L 1159 3500 
L 1159 2956 
Q 1366 3272 1645 3428 
Q 1925 3584 2291 3584 
Q 2894 3584 3203 3211 
Q 3513 2838 3513 2113 
z
" transform="scale(0.015625)"/>
      <path id="DejaVuSans-65" d="M 3597 1894 
L 3597 1613 
L 953 1613 
Q 991 1019 1311 708 
Q 1631 397 2203 397 
Q 2534 397 2845 478 
Q 3156 559 3463 722 
L 3463 178 
Q 3153 47 2828 -22 
Q 2503 -91 2169 -91 
Q 1331 -91 842 396 
Q 353 884 353 1716 
Q 353 2575 817 3079 
Q 1281 3584 2069 3584 
Q 2775 3584 3186 3129 
Q 3597 2675 3597 1894 
z
M 3022 2063 
Q 3016 2534 2758 2815 
Q 2500 3097 2075 3097 
Q 1594 3097 1305 2825 
Q 1016 2553 972 2059 
L 3022 2063 
z
" transform="scale(0.015625)"/>
      <path id="DejaVuSans-41" d="M 2188 4044 
L 1331 1722 
L 3047 1722 
L 2188 4044 
z
M 1831 4666 
L 2547 4666 
L 4325 0 
L 3669 0 
L 3244 1197 
L 1141 1197 
L 716 0 
L 50 0 
L 1831 4666 
z
" transform="scale(0.015625)"/>
      <path id="DejaVuSans-3a" d="M 750 794 
L 1409 794 
L 1409 0 
L 750 0 
L 750 794 
z
M 750 3309 
L 1409 3309 
L 1409 2516 
L 750 2516 
L 750 3309 
z
" transform="scale(0.015625)"/>
      <path id="DejaVuSans-72" d="M 2631 2963 
Q 2534 3019 2420 3045 
Q 2306 3072 2169 3072 
Q 1681 3072 1420 2755 
Q 1159 2438 1159 1844 
L 1159 0 
L 581 0 
L 581 3500 
L 1159 3500 
L 1159 2956 
Q 1341 3275 1631 3429 
Q 1922 3584 2338 3584 
Q 2397 3584 2469 3576 
Q 2541 3569 2628 3553 
L 2631 2963 
z
" transform="scale(0.015625)"/>
      <path id="DejaVuSans-79" d="M 2059 -325 
Q 1816 -950 1584 -1140 
Q 1353 -1331 966 -1331 
L 506 -1331 
L 506 -850 
L 844 -850 
Q 1081 -850 1212 -737 
Q 1344 -625 1503 -206 
L 1606 56 
L 191 3500 
L 800 3500 
L 1894 763 
L 2988 3500 
L 3597 3500 
L 2059 -325 
z
" transform="scale(0.015625)"/>
      <path id="DejaVuSans-2b" d="M 2944 4013 
L 2944 2272 
L 4684 2272 
L 4684 1741 
L 2944 1741 
L 2944 0 
L 2419 0 
L 2419 1741 
L 678 1741 
L 678 2272 
L 2419 2272 
L 2419 4013 
L 2944 4013 
z
" transform="scale(0.015625)"/>
      <path id="DejaVuSans-75" d="M 544 1381 
L 544 3500 
L 1119 3500 
L 1119 1403 
Q 1119 906 1312 657 
Q 1506 409 1894 409 
Q 2359 409 2629 706 
Q 2900 1003 2900 1516 
L 2900 3500 
L 3475 3500 
L 3475 0 
L 2900 0 
L 2900 538 
Q 2691 219 2414 64 
Q 2138 -91 1772 -91 
Q 1169 -91 856 284 
Q 544 659 544 1381 
z
M 1991 3584 
L 1991 3584 
z
" transform="scale(0.015625)"/>
      <path id="DejaVuSans-64" d="M 2906 2969 
L 2906 4863 
L 3481 4863 
L 3481 0 
L 2906 0 
L 2906 525 
Q 2725 213 2448 61 
Q 2172 -91 1784 -91 
Q 1150 -91 751 415 
Q 353 922 353 1747 
Q 353 2572 751 3078 
Q 1150 3584 1784 3584 
Q 2172 3584 2448 3432 
Q 2725 3281 2906 2969 
z
M 947 1747 
Q 947 1113 1208 752 
Q 1469 391 1925 391 
Q 2381 391 2643 752 
Q 2906 1113 2906 1747 
Q 2906 2381 2643 2742 
Q 2381 3103 1925 3103 
Q 1469 3103 1208 2742 
Q 947 2381 947 1747 
z
" transform="scale(0.015625)"/>
     </defs>
     <use xlink:href="#DejaVuSans-28"/>
     <use xlink:href="#DejaVuSans-4d" transform="translate(39.013672 0)"/>
     <use xlink:href="#DejaVuSans-46" transform="translate(125.292969 0)"/>
     <use xlink:href="#DejaVuSans-45" transform="translate(182.8125 0)"/>
     <use xlink:href="#DejaVuSans-46" transform="translate(245.996094 0)"/>
     <use xlink:href="#DejaVuSans-20" transform="translate(303.515625 0)"/>
     <use xlink:href="#DejaVuSans-76" transform="translate(335.302734 0)"/>
     <use xlink:href="#DejaVuSans-73" transform="translate(394.482422 0)"/>
     <use xlink:href="#DejaVuSans-20" transform="translate(446.582031 0)"/>
     <use xlink:href="#DejaVuSans-4d" transform="translate(478.369141 0)"/>
     <use xlink:href="#DejaVuSans-4c" transform="translate(564.648438 0)"/>
     <use xlink:href="#DejaVuSans-49" transform="translate(620.361328 0)"/>
     <use xlink:href="#DejaVuSans-50" transform="translate(649.853516 0)"/>
     <use xlink:href="#DejaVuSans-29" transform="translate(710.15625 0)"/>
     <use xlink:href="#DejaVuSans-20" transform="translate(749.169922 0)"/>
     <use xlink:href="#DejaVuSans-2014" transform="translate(780.957031 0)"/>
     <use xlink:href="#DejaVuSans-20" transform="translate(880.957031 0)"/>
     <use xlink:href="#DejaVuSans-4f" transform="translate(912.744141 0)"/>
     <use xlink:href="#DejaVuSans-2d" transform="translate(994.205078 0)"/>
     <use xlink:href="#DejaVuSans-66" transform="translate(1030.289062 0)"/>
     <use xlink:href="#DejaVuSans-6c" transform="translate(1065.494141 0)"/>
     <use xlink:href="#DejaVuSans-6f" transform="translate(1093.277344 0)"/>
     <use xlink:href="#DejaVuSans-77" transform="translate(1154.458984 0)"/>
     <use xlink:href="#DejaVuSans-20" transform="translate(1236.246094 0)"/>
     <use xlink:href="#DejaVuSans-2014" transform="translate(1268.033203 0)"/>
     <use xlink:href="#DejaVuSans-20" transform="translate(1368.033203 0)"/>
     <use xlink:href="#DejaVuSans-50" transform="translate(1399.820312 0)"/>
     <use xlink:href="#DejaVuSans-61" transform="translate(1455.623047 0)"/>
     <use xlink:href="#DejaVuSans-6e" transform="translate(1516.902344 0)"/>
     <use xlink:href="#DejaVuSans-65" transform="translate(1580.28125 0)"/>
     <use xlink:href="#DejaVuSans-6c" transform="translate(1641.804688 0)"/>
     <use xlink:href="#DejaVuSans-20" transform="translate(1669.587891 0)"/>
     <use xlink:href="#DejaVuSans-41" transform="translate(1701.375 0)"/>
     <use xlink:href="#DejaVuSans-3a" transform="translate(1768.033203 0)"/>
     <use xlink:href="#DejaVuSans-20" transform="translate(1801.724609 0)"/>
     <use xlink:href="#DejaVuSans-6f" transform="translate(1833.511719 0)"/>
     <use xlink:href="#DejaVuSans-76" transform="translate(1894.693359 0)"/>
     <use xlink:href="#DejaVuSans-65" transform="translate(1953.873047 0)"/>
     <use xlink:href="#DejaVuSans-72" transform="translate(2015.396484 0)"/>
     <use xlink:href="#DejaVuSans-6c" transform="translate(2056.509766 0)"/>
     <use xlink:href="#DejaVuSans-61" transform="translate(2084.292969 0)"/>
     <use xlink:href="#DejaVuSans-79" transform="translate(2145.572266 0)"/>
     <use xlink:href="#DejaVuSans-20" transform="translate(2204.751953 0)"/>
     <use xlink:href="#DejaVuSans-2b" transform="translate(2236.539062 0)"/>
     <use xlink:href="#DejaVuSans-20" transform="translate(2320.328125 0)"/>
     <use xlink:href="#DejaVuSans-6e" transform="translate(2352.115234 0)"/>
     <use xlink:href="#DejaVuSans-75" transform="translate(2415.494141 0)"/>
     <use xlink:href="#DejaVuSans-6c" transform="translate(2478.873047 0)"/>
     <use xlink:href="#DejaVuSans-6c" transform="translate(2506.65625 0)"/>
     <use xlink:href="#DejaVuSans-20" transform="translate(2534.439453 0)"/>
     <use xlink:href="#DejaVuSans-62" transform="translate(2566.226562 0)"/>
     <use xlink:href="#DejaVuSans-61" transform="translate(2629.703125 0)"/>
     <use xlink:href="#DejaVuSans-6e" transform="translate(2690.982422 0)"/>
     <use xlink:href="#DejaVuSans-64" transform="translate(2754.361328 0)"/>
     <use xlink:href="#DejaVuSans-73" transform="translate(2817.837891 0)"/>
    </g>
   </g>
   <g id="legend_1">
    <g id="patch_7">
     <path d="M 79.2 83.990437 
L 99.2 83.990437 
L 99.2 76.990437 
L 79.2 76.990437 
z
" style="fill: #1f77b4; fill-opacity: 0.15"/>
    </g>
    <g id="text_13">
     <!-- MFEF→MLIP null μ±σ -->
     <g transform="translate(107.2 83.990437) scale(0.1 -0.1)">
      <defs>
       <path id="DejaVuSans-2192" d="M 5050 2147 
L 5050 1866 
L 3822 638 
L 3447 1013 
L 4175 1741 
L 366 1741 
L 366 2272 
L 4175 2272 
L 3447 3000 
L 3822 3375 
L 5050 2147 
z
" transform="scale(0.015625)"/>
       <path id="DejaVuSans-3bc" d="M 544 -1331 
L 544 3500 
L 1119 3500 
L 1119 1325 
Q 1119 872 1334 640 
Q 1550 409 1972 409 
Q 2434 409 2667 671 
Q 2900 934 2900 1459 
L 2900 3500 
L 3475 3500 
L 3475 806 
Q 3475 619 3529 530 
Q 3584 441 3700 441 
Q 3728 441 3778 458 
Q 3828 475 3916 513 
L 3916 50 
Q 3788 -22 3673 -56 
Q 3559 -91 3450 -91 
Q 3234 -91 3106 31 
Q 2978 153 2931 403 
Q 2775 156 2548 32 
Q 2322 -91 2016 -91 
Q 1697 -91 1473 31 
Q 1250 153 1119 397 
L 1119 -1331 
L 544 -1331 
z
" transform="scale(0.015625)"/>
       <path id="DejaVuSans-b1" d="M 2944 4013 
L 2944 2803 
L 4684 2803 
L 4684 2272 
L 2944 2272 
L 2944 1063 
L 2419 1063 
L 2419 2272 
L 678 2272 
L 678 2803 
L 2419 2803 
L 2419 4013 
L 2944 4013 
z
M 678 531 
L 4684 531 
L 4684 0 
L 678 0 
L 678 531 
z
" transform="scale(0.015625)"/>
       <path id="DejaVuSans-3c3" d="M 1959 3044 
Q 1484 3044 1228 2700 
Q 959 2341 959 1747 
Q 959 1119 1226 758 
Q 1494 397 1959 397 
Q 2419 397 2687 759 
Q 2956 1122 2956 1747 
Q 2956 2319 2688 2700 
Q 2441 3044 1959 3044 
z
M 1959 3500 
L 3869 3500 
L 3869 2925 
L 3225 2925 
Q 3566 2438 3566 1747 
Q 3566 888 3138 400 
Q 2709 -91 1959 -91 
Q 1206 -91 781 400 
Q 353 888 353 1747 
Q 353 2613 781 3097 
Q 1134 3500 1959 3500 
z
" transform="scale(0.015625)"/>
      </defs>
      <use xlink:href="#DejaVuSans-4d"/>
      <use xlink:href="#DejaVuSans-46" transform="translate(86.279297 0)"/>
      <use xlink:href="#DejaVuSans-45" transform="translate(143.798828 0)"/>
      <use xlink:href="#DejaVuSans-46" transform="translate(206.982422 0)"/>
      <use xlink:href="#DejaVuSans-2192" transform="translate(264.501953 0)"/>
      <use xlink:href="#DejaVuSans-4d" transform="translate(348.291016 0)"/>
      <use xlink:href="#DejaVuSans-4c" transform="translate(434.570312 0)"/>
      <use xlink:href="#DejaVuSans-49" transform="translate(490.283203 0)"/>
      <use xlink:href="#DejaVuSans-50" transform="translate(519.775391 0)"/>
      <use xlink:href="#DejaVuSans-20" transform="translate(580.078125 0)"/>
      <use xlink:href="#DejaVuSans-6e" transform="translate(611.865234 0)"/>
      <use xlink:href="#DejaVuSans-75" transform="translate(675.244141 0)"/>
      <use xlink:href="#DejaVuSans-6c" transform="translate(738.623047 0)"/>
      <use xlink:href="#DejaVuSans-6c" transform="translate(766.40625 0)"/>
      <use xlink:href="#DejaVuSans-20" transform="translate(794.189453 0)"/>
      <use xlink:href="#DejaVuSans-3bc" transform="translate(825.976562 0)"/>
      <use xlink:href="#DejaVuSans-b1" transform="translate(889.599609 0)"/>
      <use xlink:href="#DejaVuSans-3c3" transform="translate(973.388672 0)"/>
     </g>
    </g>
    <g id="patch_8">
     <path d="M 79.2 98.668563 
L 99.2 98.668563 
L 99.2 91.668563 
L 79.2 91.668563 
z
" style="fill: #ff7f0e; fill-opacity: 0.15"/>
    </g>
    <g id="text_14">
     <!-- MLIP→MFEF null μ±σ -->
     <g transform="translate(107.2 98.668563) scale(0.1 -0.1)">
      <use xlink:href="#DejaVuSans-4d"/>
      <use xlink:href="#DejaVuSans-4c" transform="translate(86.279297 0)"/>
      <use xlink:href="#DejaVuSans-49" transform="translate(141.992188 0)"/>
      <use xlink:href="#DejaVuSans-50" transform="translate(171.484375 0)"/>
      <use xlink:href="#DejaVuSans-2192" transform="translate(231.787109 0)"/>
      <use xlink:href="#DejaVuSans-4d" transform="translate(315.576172 0)"/>
      <use xlink:href="#DejaVuSans-46" transform="translate(401.855469 0)"/>
      <use xlink:href="#DejaVuSans-45" transform="translate(459.375 0)"/>
      <use xlink:href="#DejaVuSans-46" transform="translate(522.558594 0)"/>
      <use xlink:href="#DejaVuSans-20" transform="translate(580.078125 0)"/>
      <use xlink:href="#DejaVuSans-6e" transform="translate(611.865234 0)"/>
      <use xlink:href="#DejaVuSans-75" transform="translate(675.244141 0)"/>
      <use xlink:href="#DejaVuSans-6c" transform="translate(738.623047 0)"/>
      <use xlink:href="#DejaVuSans-6c" transform="translate(766.40625 0)"/>
      <use xlink:href="#DejaVuSans-20" transform="translate(794.189453 0)"/>
      <use xlink:href="#DejaVuSans-3bc" transform="translate(825.976562 0)"/>
      <use xlink:href="#DejaVuSans-b1" transform="translate(889.599609 0)"/>
      <use xlink:href="#DejaVuSans-3c3" transform="translate(973.388672 0)"/>
     </g>
    </g>
    <g id="line2d_16">
     <path d="M 230.876562 80.490437 
L 240.876562 80.490437 
L 250.876562 80.490437 
" style="fill: none; stroke: #1f77b4; stroke-width: 2.2; stroke-linecap: square"/>
    </g>
    <g id="text_15">
     <!-- MFEF→MLIP -->
     <g transform="translate(258.876562 83.990437) scale(0.1 -0.1)">
      <use xlink:href="#DejaVuSans-4d"/>
      <use xlink:href="#DejaVuSans-46" transform="translate(86.279297 0)"/>
      <use xlink:href="#DejaVuSans-45" transform="translate(143.798828 0)"/>
      <use xlink:href="#DejaVuSans-46" transform="translate(206.982422 0)"/>
      <use xlink:href="#DejaVuSans-2192" transform="translate(264.501953 0)"/>
      <use xlink:href="#DejaVuSans-4d" transform="translate(348.291016 0)"/>
      <use xlink:href="#DejaVuSans-4c" transform="translate(434.570312 0)"/>
      <use xlink:href="#DejaVuSans-49" transform="translate(490.283203 0)"/>
      <use xlink:href="#DejaVuSans-50" transform="translate(519.775391 0)"/>
     </g>
    </g>
    <g id="line2d_17">
     <path d="M 230.876562 95.168563 
L 240.876562 95.168563 
L 250.876562 95.168563 
" style="fill: none; stroke: #ff7f0e; stroke-width: 2.2; stroke-linecap: square"/>
    </g>
    <g id="text_16">
     <!-- MLIP→MFEF -->
     <g transform="translate(258.876562 98.668563) scale(0.1 -0.1)">
      <use xlink:href="#DejaVuSans-4d"/>
      <use xlink:href="#DejaVuSans-4c" transform="translate(86.279297 0)"/>
      <use xlink:href="#DejaVuSans-49" transform="translate(141.992188 0)"/>
      <use xlink:href="#DejaVuSans-50" transform="translate(171.484375 0)"/>
      <use xlink:href="#DejaVuSans-2192" transform="translate(231.787109 0)"/>
      <use xlink:href="#DejaVuSans-4d" transform="translate(315.576172 0)"/>
      <use xlink:href="#DejaVuSans-46" transform="translate(401.855469 0)"/>
      <use xlink:href="#DejaVuSans-45" transform="translate(459.375 0)"/>
      <use xlink:href="#DejaVuSans-46" transform="translate(522.558594 0)"/>
     </g>
    </g>
   </g>
  </g>
  <g id="axes_2">
   <g id="patch_9">
    <path d="M 70.2 353.106 
L 505.44 353.106 
L 505.44 237.276 
L 70.2 237.276 
z
" style="fill: #ffffff"/>
   </g>
   <g id="matplotlib.axis_3">
    <g id="xtick_7">
     <g id="line2d_18">
      <g>
       <use xlink:href="#m19bf9bee20" x="87.985286" y="353.106" style="stroke: #000000; stroke-width: 0.8"/>
      </g>
     </g>
     <g id="text_17">
      <!-- −200 -->
      <g transform="translate(74.251693 367.704438) scale(0.1 -0.1)">
       <use xlink:href="#DejaVuSans-2212"/>
       <use xlink:href="#DejaVuSans-32" transform="translate(83.789062 0)"/>
       <use xlink:href="#DejaVuSans-30" transform="translate(147.412109 0)"/>
       <use xlink:href="#DejaVuSans-30" transform="translate(211.035156 0)"/>
      </g>
     </g>
    </g>
    <g id="xtick_8">
     <g id="line2d_19">
      <g>
       <use xlink:href="#m19bf9bee20" x="167.91917" y="353.106" style="stroke: #000000; stroke-width: 0.8"/>
      </g>
     </g>
     <g id="text_18">
      <!-- 0 -->
      <g transform="translate(164.73792 367.704438) scale(0.1 -0.1)">
       <use xlink:href="#DejaVuSans-30"/>
      </g>
     </g>
    </g>
    <g id="xtick_9">
     <g id="line2d_20">
      <g>
       <use xlink:href="#m19bf9bee20" x="247.853053" y="353.106" style="stroke: #000000; stroke-width: 0.8"/>
      </g>
     </g>
     <g id="text_19">
      <!-- 200 -->
      <g transform="translate(238.309303 367.704438) scale(0.1 -0.1)">
       <use xlink:href="#DejaVuSans-32"/>
       <use xlink:href="#DejaVuSans-30" transform="translate(63.623047 0)"/>
       <use xlink:href="#DejaVuSans-30" transform="translate(127.246094 0)"/>
      </g>
     </g>
    </g>
    <g id="xtick_10">
     <g id="line2d_21">
      <g>
       <use xlink:href="#m19bf9bee20" x="327.786937" y="353.106" style="stroke: #000000; stroke-width: 0.8"/>
      </g>
     </g>
     <g id="text_20">
      <!-- 400 -->
      <g transform="translate(318.243187 367.704438) scale(0.1 -0.1)">
       <use xlink:href="#DejaVuSans-34"/>
       <use xlink:href="#DejaVuSans-30" transform="translate(63.623047 0)"/>
       <use xlink:href="#DejaVuSans-30" transform="translate(127.246094 0)"/>
      </g>
     </g>
    </g>
    <g id="xtick_11">
     <g id="line2d_22">
      <g>
       <use xlink:href="#m19bf9bee20" x="407.720821" y="353.106" style="stroke: #000000; stroke-width: 0.8"/>
      </g>
     </g>
     <g id="text_21">
      <!-- 600 -->
      <g transform="translate(398.177071 367.704438) scale(0.1 -0.1)">
       <use xlink:href="#DejaVuSans-36"/>
       <use xlink:href="#DejaVuSans-30" transform="translate(63.623047 0)"/>
       <use xlink:href="#DejaVuSans-30" transform="translate(127.246094 0)"/>
      </g>
     </g>
    </g>
    <g id="xtick_12">
     <g id="line2d_23">
      <g>
       <use xlink:href="#m19bf9bee20" x="487.654704" y="353.106" style="stroke: #000000; stroke-width: 0.8"/>
      </g>
     </g>
     <g id="text_22">
      <!-- 800 -->
      <g transform="translate(478.110954 367.704438) scale(0.1 -0.1)">
       <use xlink:href="#DejaVuSans-38"/>
       <use xlink:href="#DejaVuSans-30" transform="translate(63.623047 0)"/>
       <use xlink:href="#DejaVuSans-30" transform="translate(127.246094 0)"/>
      </g>
     </g>
    </g>
   </g>
   <g id="matplotlib.axis_4">
    <g id="ytick_5">
     <g id="line2d_24">
      <g>
       <use xlink:href="#mdb637c3727" x="70.2" y="346.339405" style="stroke: #000000; stroke-width: 0.8"/>
      </g>
     </g>
     <g id="text_23">
      <!-- −30 -->
      <g transform="translate(42.095313 350.138624) scale(0.1 -0.1)">
       <use xlink:href="#DejaVuSans-2212"/>
       <use xlink:href="#DejaVuSans-33" transform="translate(83.789062 0)"/>
       <use xlink:href="#DejaVuSans-30" transform="translate(147.412109 0)"/>
      </g>
     </g>
    </g>
    <g id="ytick_6">
     <g id="line2d_25">
      <g>
       <use xlink:href="#mdb637c3727" x="70.2" y="322.918751" style="stroke: #000000; stroke-width: 0.8"/>
      </g>
     </g>
     <g id="text_24">
      <!-- −20 -->
      <g transform="translate(42.095313 326.71797) scale(0.1 -0.1)">
       <use xlink:href="#DejaVuSans-2212"/>
       <use xlink:href="#DejaVuSans-32" transform="translate(83.789062 0)"/>
       <use xlink:href="#DejaVuSans-30" transform="translate(147.412109 0)"/>
      </g>
     </g>
    </g>
    <g id="ytick_7">
     <g id="line2d_26">
      <g>
       <use xlink:href="#mdb637c3727" x="70.2" y="299.498097" style="stroke: #000000; stroke-width: 0.8"/>
      </g>
     </g>
     <g id="text_25">
      <!-- −10 -->
      <g transform="translate(42.095313 303.297315) scale(0.1 -0.1)">
       <use xlink:href="#DejaVuSans-2212"/>
       <use xlink:href="#DejaVuSans-31" transform="translate(83.789062 0)"/>
       <use xlink:href="#DejaVuSans-30" transform="translate(147.412109 0)"/>
      </g>
     </g>
    </g>
    <g id="ytick_8">
     <g id="line2d_27">
      <g>
       <use xlink:href="#mdb637c3727" x="70.2" y="276.077442" style="stroke: #000000; stroke-width: 0.8"/>
      </g>
     </g>
     <g id="text_26">
      <!-- 0 -->
      <g transform="translate(56.8375 279.876661) scale(0.1 -0.1)">
       <use xlink:href="#DejaVuSans-30"/>
      </g>
     </g>
    </g>
    <g id="ytick_9">
     <g id="line2d_28">
      <g>
       <use xlink:href="#mdb637c3727" x="70.2" y="252.656788" style="stroke: #000000; stroke-width: 0.8"/>
      </g>
     </g>
     <g id="text_27">
      <!-- 10 -->
      <g transform="translate(50.475 256.456007) scale(0.1 -0.1)">
       <use xlink:href="#DejaVuSans-31"/>
       <use xlink:href="#DejaVuSans-30" transform="translate(63.623047 0)"/>
      </g>
     </g>
    </g>
    <g id="text_28">
     <!-- ΔΔLL (bits) -->
     <g transform="translate(36.015625 322.22225) rotate(-90) scale(0.1 -0.1)">
      <use xlink:href="#DejaVuSans-394"/>
      <use xlink:href="#DejaVuSans-394" transform="translate(68.408203 0)"/>
      <use xlink:href="#DejaVuSans-4c" transform="translate(136.816406 0)"/>
      <use xlink:href="#DejaVuSans-4c" transform="translate(192.529297 0)"/>
      <use xlink:href="#DejaVuSans-20" transform="translate(248.242188 0)"/>
      <use xlink:href="#DejaVuSans-28" transform="translate(280.029297 0)"/>
      <use xlink:href="#DejaVuSans-62" transform="translate(319.042969 0)"/>
      <use xlink:href="#DejaVuSans-69" transform="translate(382.519531 0)"/>
      <use xlink:href="#DejaVuSans-74" transform="translate(410.302734 0)"/>
      <use xlink:href="#DejaVuSans-73" transform="translate(449.511719 0)"/>
      <use xlink:href="#DejaVuSans-29" transform="translate(501.611328 0)"/>
     </g>
    </g>
   </g>
   <g id="line2d_29">
    <path d="M 167.91917 353.106 
L 167.91917 237.276 
" clip-path="url(#p1e65ecbe7f)" style="fill: none; stroke-dasharray: 2.96,1.28; stroke-dashoffset: 0; stroke: #000000; stroke-width: 0.8"/>
   </g>
   <g id="line2d_30">
    <path d="M 70.2 276.077442 
L 505.44 276.077442 
" clip-path="url(#p1e65ecbe7f)" style="fill: none; stroke-dasharray: 0.8,1.32; stroke-dashoffset: 0; stroke: #000000; stroke-width: 0.8"/>
   </g>
   <g id="line2d_31">
    <path d="M 89.983636 262.666145 
L 93.980327 311.255367 
L 97.977023 270.281537 
L 101.973713 277.74907 
L 105.97041 281.34688 
L 109.967106 284.390846 
L 113.963796 274.031333 
L 117.960493 282.895695 
L 121.957186 277.156839 
L 125.953882 261.966087 
L 129.950576 279.317446 
L 133.947269 298.691812 
L 137.943962 276.679795 
L 141.940659 299.167253 
L 145.937352 317.498253 
L 149.934045 284.373754 
L 153.93074 293.082257 
L 157.927434 277.886146 
L 161.924129 280.102332 
L 165.920823 296.343402 
L 169.917517 323.925322 
L 173.914211 280.954053 
L 177.910906 295.192776 
L 181.9076 315.342884 
L 185.904294 264.012808 
L 189.900988 242.541 
L 193.897681 279.369456 
L 197.894377 266.680747 
L 201.891071 333.471997 
L 205.887764 332.43015 
L 209.884457 347.841 
L 213.881154 285.522974 
L 217.877847 283.920475 
L 221.874543 283.064757 
L 225.871234 292.859028 
L 229.86793 308.182471 
L 233.864626 332.124318 
L 237.861317 288.521796 
L 241.858013 320.755078 
L 245.854704 297.884273 
L 249.8514 255.698029 
L 253.848096 260.670027 
L 257.844787 277.641674 
L 261.841483 280.867185 
L 265.838179 324.326227 
L 269.83487 283.220138 
L 273.83156 317.832164 
L 277.828262 305.693936 
L 281.824953 290.701046 
L 285.821643 283.818186 
L 289.818345 279.451866 
L 293.815036 314.638607 
L 297.811726 302.614208 
L 301.808428 291.384568 
L 305.805119 263.31725 
L 309.801809 305.287836 
L 313.798511 275.261298 
L 317.795202 273.797763 
L 321.791892 277.744174 
L 325.788594 278.497621 
L 329.785285 277.644245 
L 333.781975 275.4245 
L 337.778677 271.417667 
L 341.775368 280.149376 
L 345.772058 273.668481 
L 349.76876 277.221321 
L 353.765451 304.521183 
L 357.762141 279.080708 
L 361.758843 285.405711 
L 365.755534 273.752617 
L 369.752224 275.015348 
L 373.748914 266.263171 
L 377.745605 276.315188 
L 381.742319 273.191904 
L 385.739009 272.141328 
L 389.7357 280.257502 
L 393.73239 255.07712 
L 397.72908 299.581358 
L 401.725771 271.188524 
L 405.722485 276.297865 
L 409.719175 271.320306 
L 413.715866 273.115688 
L 417.712556 270.611578 
L 421.709246 281.941595 
L 425.705937 272.166604 
L 429.702627 276.572194 
L 433.699341 278.972874 
L 437.696032 294.594232 
L 441.692722 282.436945 
L 445.689412 285.997403 
L 449.686103 285.774398 
L 453.682793 282.480339 
L 457.679507 277.497681 
L 461.676198 273.073719 
L 465.672888 276.605655 
L 469.669578 278.00463 
L 473.666269 269.357951 
L 477.662959 290.911649 
L 481.659673 271.64385 
L 485.656364 277.919979 
" clip-path="url(#p1e65ecbe7f)" style="fill: none; stroke: #d62728; stroke-width: 2.2; stroke-linecap: square"/>
   </g>
   <g id="line2d_32">
    <defs>
     <path id="m673df2f32d" d="M 0 1.25 
C 0.331504 1.25 0.649475 1.118292 0.883883 0.883883 
C 1.118292 0.649475 1.25 0.331504 1.25 0 
C 1.25 -0.331504 1.118292 -0.649475 0.883883 -0.883883 
C 0.649475 -1.118292 0.331504 -1.25 0 -1.25 
C -0.331504 -1.25 -0.649475 -1.118292 -0.883883 -0.883883 
C -1.118292 -0.649475 -1.25 -0.331504 -1.25 0 
C -1.25 0.331504 -1.118292 0.649475 -0.883883 0.883883 
C -0.649475 1.118292 -0.331504 1.25 0 1.25 
z
" style="stroke: #000000"/>
    </defs>
    <g clip-path="url(#p1e65ecbe7f)">
     <use xlink:href="#m673df2f32d" x="93.980327" y="311.255367" style="stroke: #000000"/>
     <use xlink:href="#m673df2f32d" x="133.947269" y="298.691812" style="stroke: #000000"/>
     <use xlink:href="#m673df2f32d" x="141.940659" y="299.167253" style="stroke: #000000"/>
     <use xlink:href="#m673df2f32d" x="145.937352" y="317.498253" style="stroke: #000000"/>
     <use xlink:href="#m673df2f32d" x="157.927434" y="277.886146" style="stroke: #000000"/>
     <use xlink:href="#m673df2f32d" x="161.924129" y="280.102332" style="stroke: #000000"/>
     <use xlink:href="#m673df2f32d" x="165.920823" y="296.343402" style="stroke: #000000"/>
     <use xlink:href="#m673df2f32d" x="169.917517" y="323.925322" style="stroke: #000000"/>
     <use xlink:href="#m673df2f32d" x="181.9076" y="315.342884" style="stroke: #000000"/>
     <use xlink:href="#m673df2f32d" x="201.891071" y="333.471997" style="stroke: #000000"/>
     <use xlink:href="#m673df2f32d" x="205.887764" y="332.43015" style="stroke: #000000"/>
     <use xlink:href="#m673df2f32d" x="209.884457" y="347.841" style="stroke: #000000"/>
     <use xlink:href="#m673df2f32d" x="217.877847" y="283.920475" style="stroke: #000000"/>
     <use xlink:href="#m673df2f32d" x="225.871234" y="292.859028" style="stroke: #000000"/>
     <use xlink:href="#m673df2f32d" x="229.86793" y="308.182471" style="stroke: #000000"/>
     <use xlink:href="#m673df2f32d" x="233.864626" y="332.124318" style="stroke: #000000"/>
     <use xlink:href="#m673df2f32d" x="245.854704" y="297.884273" style="stroke: #000000"/>
     <use xlink:href="#m673df2f32d" x="261.841483" y="280.867185" style="stroke: #000000"/>
     <use xlink:href="#m673df2f32d" x="265.838179" y="324.326227" style="stroke: #000000"/>
     <use xlink:href="#m673df2f32d" x="269.83487" y="283.220138" style="stroke: #000000"/>
     <use xlink:href="#m673df2f32d" x="273.83156" y="317.832164" style="stroke: #000000"/>
     <use xlink:href="#m673df2f32d" x="277.828262" y="305.693936" style="stroke: #000000"/>
     <use xlink:href="#m673df2f32d" x="285.821643" y="283.818186" style="stroke: #000000"/>
     <use xlink:href="#m673df2f32d" x="293.815036" y="314.638607" style="stroke: #000000"/>
     <use xlink:href="#m673df2f32d" x="309.801809" y="305.287836" style="stroke: #000000"/>
     <use xlink:href="#m673df2f32d" x="353.765451" y="304.521183" style="stroke: #000000"/>
    </g>
   </g>
   <g id="patch_10">
    <path d="M 70.2 353.106 
L 70.2 237.276 
" style="fill: none; stroke: #000000; stroke-width: 0.8; stroke-linejoin: miter; stroke-linecap: square"/>
   </g>
   <g id="patch_11">
    <path d="M 505.44 353.106 
L 505.44 237.276 
" style="fill: none; stroke: #000000; stroke-width: 0.8; stroke-linejoin: miter; stroke-linecap: square"/>
   </g>
   <g id="patch_12">
    <path d="M 70.2 353.106 
L 505.44 353.106 
" style="fill: none; stroke: #000000; stroke-width: 0.8; stroke-linejoin: miter; stroke-linecap: square"/>
   </g>
   <g id="patch_13">
    <path d="M 70.2 237.276 
L 505.44 237.276 
" style="fill: none; stroke: #000000; stroke-width: 0.8; stroke-linejoin: miter; stroke-linecap: square"/>
   </g>
   <g id="text_29">
    <!-- Panel B: pair-diff with significance dots -->
    <g transform="translate(171.554063 231.276) scale(0.12 -0.12)">
     <defs>
      <path id="DejaVuSans-42" d="M 1259 2228 
L 1259 519 
L 2272 519 
Q 2781 519 3026 730 
Q 3272 941 3272 1375 
Q 3272 1813 3026 2020 
Q 2781 2228 2272 2228 
L 1259 2228 
z
M 1259 4147 
L 1259 2741 
L 2194 2741 
Q 2656 2741 2882 2914 
Q 3109 3088 3109 3444 
Q 3109 3797 2882 3972 
Q 2656 4147 2194 4147 
L 1259 4147 
z
M 628 4666 
L 2241 4666 
Q 2963 4666 3353 4366 
Q 3744 4066 3744 3513 
Q 3744 3084 3544 2831 
Q 3344 2578 2956 2516 
Q 3422 2416 3680 2098 
Q 3938 1781 3938 1306 
Q 3938 681 3513 340 
Q 3088 0 2303 0 
L 628 0 
L 628 4666 
z
" transform="scale(0.015625)"/>
      <path id="DejaVuSans-70" d="M 1159 525 
L 1159 -1331 
L 581 -1331 
L 581 3500 
L 1159 3500 
L 1159 2969 
Q 1341 3281 1617 3432 
Q 1894 3584 2278 3584 
Q 2916 3584 3314 3078 
Q 3713 2572 3713 1747 
Q 3713 922 3314 415 
Q 2916 -91 2278 -91 
Q 1894 -91 1617 61 
Q 1341 213 1159 525 
z
M 3116 1747 
Q 3116 2381 2855 2742 
Q 2594 3103 2138 3103 
Q 1681 3103 1420 2742 
Q 1159 2381 1159 1747 
Q 1159 1113 1420 752 
Q 1681 391 2138 391 
Q 2594 391 2855 752 
Q 3116 1113 3116 1747 
z
" transform="scale(0.015625)"/>
      <path id="DejaVuSans-68" d="M 3513 2113 
L 3513 0 
L 2938 0 
L 2938 2094 
Q 2938 2591 2744 2837 
Q 2550 3084 2163 3084 
Q 1697 3084 1428 2787 
Q 1159 2491 1159 1978 
L 1159 0 
L 581 0 
L 581 4863 
L 1159 4863 
L 1159 2956 
Q 1366 3272 1645 3428 
Q 1925 3584 2291 3584 
Q 2894 3584 3203 3211 
Q 3513 2838 3513 2113 
z
" transform="scale(0.015625)"/>
      <path id="DejaVuSans-67" d="M 2906 1791 
Q 2906 2416 2648 2759 
Q 2391 3103 1925 3103 
Q 1463 3103 1205 2759 
Q 947 2416 947 1791 
Q 947 1169 1205 825 
Q 1463 481 1925 481 
Q 2391 481 2648 825 
Q 2906 1169 2906 1791 
z
M 3481 434 
Q 3481 -459 3084 -895 
Q 2688 -1331 1869 -1331 
Q 1566 -1331 1297 -1286 
Q 1028 -1241 775 -1147 
L 775 -588 
Q 1028 -725 1275 -790 
Q 1522 -856 1778 -856 
Q 2344 -856 2625 -561 
Q 2906 -266 2906 331 
L 2906 616 
Q 2728 306 2450 153 
Q 2172 0 1784 0 
Q 1141 0 747 490 
Q 353 981 353 1791 
Q 353 2603 747 3093 
Q 1141 3584 1784 3584 
Q 2172 3584 2450 3431 
Q 2728 3278 2906 2969 
L 2906 3500 
L 3481 3500 
L 3481 434 
z
" transform="scale(0.015625)"/>
      <path id="DejaVuSans-63" d="M 3122 3366 
L 3122 2828 
Q 2878 2963 2633 3030 
Q 2388 3097 2138 3097 
Q 1578 3097 1268 2742 
Q 959 2388 959 1747 
Q 959 1106 1268 751 
Q 1578 397 2138 397 
Q 2388 397 2633 464 
Q 2878 531 3122 666 
L 3122 134 
Q 2881 22 2623 -34 
Q 2366 -91 2075 -91 
Q 1284 -91 818 406 
Q 353 903 353 1747 
Q 353 2603 823 3093 
Q 1294 3584 2113 3584 
Q 2378 3584 2631 3529 
Q 2884 3475 3122 3366 
z
" transform="scale(0.015625)"/>
     </defs>
     <use xlink:href="#DejaVuSans-50"/>
     <use xlink:href="#DejaVuSans-61" transform="translate(55.802734 0)"/>
     <use xlink:href="#DejaVuSans-6e" transform="translate(117.082031 0)"/>
     <use xlink:href="#DejaVuSans-65" transform="translate(180.460938 0)"/>
     <use xlink:href="#DejaVuSans-6c" transform="translate(241.984375 0)"/>
     <use xlink:href="#DejaVuSans-20" transform="translate(269.767578 0)"/>
     <use xlink:href="#DejaVuSans-42" transform="translate(301.554688 0)"/>
     <use xlink:href="#DejaVuSans-3a" transform="translate(370.158203 0)"/>
     <use xlink:href="#DejaVuSans-20" transform="translate(403.849609 0)"/>
     <use xlink:href="#DejaVuSans-70" transform="translate(435.636719 0)"/>
     <use xlink:href="#DejaVuSans-61" transform="translate(499.113281 0)"/>
     <use xlink:href="#DejaVuSans-69" transform="translate(560.392578 0)"/>
     <use xlink:href="#DejaVuSans-72" transform="translate(588.175781 0)"/>
     <use xlink:href="#DejaVuSans-2d" transform="translate(622.914062 0)"/>
     <use xlink:href="#DejaVuSans-64" transform="translate(658.998047 0)"/>
     <use xlink:href="#DejaVuSans-69" transform="translate(722.474609 0)"/>
     <use xlink:href="#DejaVuSans-66" transform="translate(750.257812 0)"/>
     <use xlink:href="#DejaVuSans-66" transform="translate(785.462891 0)"/>
     <use xlink:href="#DejaVuSans-20" transform="translate(820.667969 0)"/>
     <use xlink:href="#DejaVuSans-77" transform="translate(852.455078 0)"/>
     <use xlink:href="#DejaVuSans-69" transform="translate(934.242188 0)"/>
     <use xlink:href="#DejaVuSans-74" transform="translate(962.025391 0)"/>
     <use xlink:href="#DejaVuSans-68" transform="translate(1001.234375 0)"/>
     <use xlink:href="#DejaVuSans-20" transform="translate(1064.613281 0)"/>
     <use xlink:href="#DejaVuSans-73" transform="translate(1096.400391 0)"/>
     <use xlink:href="#DejaVuSans-69" transform="translate(1148.5 0)"/>
     <use xlink:href="#DejaVuSans-67" transform="translate(1176.283203 0)"/>
     <use xlink:href="#DejaVuSans-6e" transform="translate(1239.759766 0)"/>
     <use xlink:href="#DejaVuSans-69" transform="translate(1303.138672 0)"/>
     <use xlink:href="#DejaVuSans-66" transform="translate(1330.921875 0)"/>
     <use xlink:href="#DejaVuSans-69" transform="translate(1366.126953 0)"/>
     <use xlink:href="#DejaVuSans-63" transform="translate(1393.910156 0)"/>
     <use xlink:href="#DejaVuSans-61" transform="translate(1448.890625 0)"/>
     <use xlink:href="#DejaVuSans-6e" transform="translate(1510.169922 0)"/>
     <use xlink:href="#DejaVuSans-63" transform="translate(1573.548828 0)"/>
     <use xlink:href="#DejaVuSans-65" transform="translate(1628.529297 0)"/>
     <use xlink:href="#DejaVuSans-20" transform="translate(1690.052734 0)"/>
     <use xlink:href="#DejaVuSans-64" transform="translate(1721.839844 0)"/>
     <use xlink:href="#DejaVuSans-6f" transform="translate(1785.316406 0)"/>
     <use xlink:href="#DejaVuSans-74" transform="translate(1846.498047 0)"/>
     <use xlink:href="#DejaVuSans-73" transform="translate(1885.707031 0)"/>
    </g>
   </g>
   <g id="legend_2">
    <g id="line2d_33">
     <path d="M 79.2 250.374437 
L 89.2 250.374437 
L 99.2 250.374437 
" style="fill: none; stroke: #d62728; stroke-width: 2.2; stroke-linecap: square"/>
    </g>
    <g id="text_30">
     <!-- (A→B − B→A) -->
     <g transform="translate(107.2 253.874437) scale(0.1 -0.1)">
      <use xlink:href="#DejaVuSans-28"/>
      <use xlink:href="#DejaVuSans-41" transform="translate(39.013672 0)"/>
      <use xlink:href="#DejaVuSans-2192" transform="translate(107.421875 0)"/>
      <use xlink:href="#DejaVuSans-42" transform="translate(191.210938 0)"/>
      <use xlink:href="#DejaVuSans-20" transform="translate(259.814453 0)"/>
      <use xlink:href="#DejaVuSans-2212" transform="translate(291.601562 0)"/>
      <use xlink:href="#DejaVuSans-20" transform="translate(375.390625 0)"/>
      <use xlink:href="#DejaVuSans-42" transform="translate(407.177734 0)"/>
      <use xlink:href="#DejaVuSans-2192" transform="translate(475.78125 0)"/>
      <use xlink:href="#DejaVuSans-41" transform="translate(559.570312 0)"/>
      <use xlink:href="#DejaVuSans-29" transform="translate(627.978516 0)"/>
     </g>
    </g>
    <g id="line2d_34">
     <g>
      <use xlink:href="#m673df2f32d" x="89.2" y="265.052563" style="stroke: #000000"/>
     </g>
    </g>
    <g id="text_31">
     <!-- p&lt;0.05 (one-sided) -->
     <g transform="translate(107.2 268.552563) scale(0.1 -0.1)">
      <defs>
       <path id="DejaVuSans-3c" d="M 4684 3150 
L 1459 2003 
L 4684 863 
L 4684 294 
L 678 1747 
L 678 2266 
L 4684 3719 
L 4684 3150 
z
" transform="scale(0.015625)"/>
       <path id="DejaVuSans-2e" d="M 684 794 
L 1344 794 
L 1344 0 
L 684 0 
L 684 794 
z
" transform="scale(0.015625)"/>
       <path id="DejaVuSans-35" d="M 691 4666 
L 3169 4666 
L 3169 4134 
L 1269 4134 
L 1269 2991 
Q 1406 3038 1543 3061 
Q 1681 3084 1819 3084 
Q 2600 3084 3056 2656 
Q 3513 2228 3513 1497 
Q 3513 744 3044 326 
Q 2575 -91 1722 -91 
Q 1428 -91 1123 -41 
Q 819 9 494 109 
L 494 744 
Q 775 591 1075 516 
Q 1375 441 1709 441 
Q 2250 441 2565 725 
Q 2881 1009 2881 1497 
Q 2881 1984 2565 2268 
Q 2250 2553 1709 2553 
Q 1456 2553 1204 2497 
Q 953 2441 691 2322 
L 691 4666 
z
" transform="scale(0.015625)"/>
      </defs>
      <use xlink:href="#DejaVuSans-70"/>
      <use xlink:href="#DejaVuSans-3c" transform="translate(63.476562 0)"/>
      <use xlink:href="#DejaVuSans-30" transform="translate(147.265625 0)"/>
      <use xlink:href="#DejaVuSans-2e" transform="translate(210.888672 0)"/>
      <use xlink:href="#DejaVuSans-30" transform="translate(242.675781 0)"/>
      <use xlink:href="#DejaVuSans-35" transform="translate(306.298828 0)"/>
      <use xlink:href="#DejaVuSans-20" transform="translate(369.921875 0)"/>
      <use xlink:href="#DejaVuSans-28" transform="translate(401.708984 0)"/>
      <use xlink:href="#DejaVuSans-6f" transform="translate(440.722656 0)"/>
      <use xlink:href="#DejaVuSans-6e" transform="translate(501.904297 0)"/>
      <use xlink:href="#DejaVuSans-65" transform="translate(565.283203 0)"/>
      <use xlink:href="#DejaVuSans-2d" transform="translate(626.806641 0)"/>
      <use xlink:href="#DejaVuSans-73" transform="translate(662.890625 0)"/>
      <use xlink:href="#DejaVuSans-69" transform="translate(714.990234 0)"/>
      <use xlink:href="#DejaVuSans-64" transform="translate(742.773438 0)"/>
      <use xlink:href="#DejaVuSans-65" transform="translate(806.25 0)"/>
      <use xlink:href="#DejaVuSans-64" transform="translate(867.773438 0)"/>
      <use xlink:href="#DejaVuSans-29" transform="translate(931.25 0)"/>
     </g>
    </g>
   </g>
  </g>
  <g id="axes_3">
   <g id="patch_14">
    <path d="M 70.2 499.824 
L 505.44 499.824 
L 505.44 383.994 
L 70.2 383.994 
z
" style="fill: #ffffff"/>
   </g>
   <g id="matplotlib.axis_5">
    <g id="xtick_13">
     <g id="line2d_35">
      <g>
       <use xlink:href="#m19bf9bee20" x="87.985286" y="499.824" style="stroke: #000000; stroke-width: 0.8"/>
      </g>
     </g>
     <g id="text_32">
      <!-- −200 -->
      <g transform="translate(74.251693 514.422438) scale(0.1 -0.1)">
       <use xlink:href="#DejaVuSans-2212"/>
       <use xlink:href="#DejaVuSans-32" transform="translate(83.789062 0)"/>
       <use xlink:href="#DejaVuSans-30" transform="translate(147.412109 0)"/>
       <use xlink:href="#DejaVuSans-30" transform="translate(211.035156 0)"/>
      </g>
     </g>
    </g>
    <g id="xtick_14">
     <g id="line2d_36">
      <g>
       <use xlink:href="#m19bf9bee20" x="167.91917" y="499.824" style="stroke: #000000; stroke-width: 0.8"/>
      </g>
     </g>
     <g id="text_33">
      <!-- 0 -->
      <g transform="translate(164.73792 514.422438) scale(0.1 -0.1)">
       <use xlink:href="#DejaVuSans-30"/>
      </g>
     </g>
    </g>
    <g id="xtick_15">
     <g id="line2d_37">
      <g>
       <use xlink:href="#m19bf9bee20" x="247.853053" y="499.824" style="stroke: #000000; stroke-width: 0.8"/>
      </g>
     </g>
     <g id="text_34">
      <!-- 200 -->
      <g transform="translate(238.309303 514.422438) scale(0.1 -0.1)">
       <use xlink:href="#DejaVuSans-32"/>
       <use xlink:href="#DejaVuSans-30" transform="translate(63.623047 0)"/>
       <use xlink:href="#DejaVuSans-30" transform="translate(127.246094 0)"/>
      </g>
     </g>
    </g>
    <g id="xtick_16">
     <g id="line2d_38">
      <g>
       <use xlink:href="#m19bf9bee20" x="327.786937" y="499.824" style="stroke: #000000; stroke-width: 0.8"/>
      </g>
     </g>
     <g id="text_35">
      <!-- 400 -->
      <g transform="translate(318.243187 514.422438) scale(0.1 -0.1)">
       <use xlink:href="#DejaVuSans-34"/>
       <use xlink:href="#DejaVuSans-30" transform="translate(63.623047 0)"/>
       <use xlink:href="#DejaVuSans-30" transform="translate(127.246094 0)"/>
      </g>
     </g>
    </g>
    <g id="xtick_17">
     <g id="line2d_39">
      <g>
       <use xlink:href="#m19bf9bee20" x="407.720821" y="499.824" style="stroke: #000000; stroke-width: 0.8"/>
      </g>
     </g>
     <g id="text_36">
      <!-- 600 -->
      <g transform="translate(398.177071 514.422438) scale(0.1 -0.1)">
       <use xlink:href="#DejaVuSans-36"/>
       <use xlink:href="#DejaVuSans-30" transform="translate(63.623047 0)"/>
       <use xlink:href="#DejaVuSans-30" transform="translate(127.246094 0)"/>
      </g>
     </g>
    </g>
    <g id="xtick_18">
     <g id="line2d_40">
      <g>
       <use xlink:href="#m19bf9bee20" x="487.654704" y="499.824" style="stroke: #000000; stroke-width: 0.8"/>
      </g>
     </g>
     <g id="text_37">
      <!-- 800 -->
      <g transform="translate(478.110954 514.422438) scale(0.1 -0.1)">
       <use xlink:href="#DejaVuSans-38"/>
       <use xlink:href="#DejaVuSans-30" transform="translate(63.623047 0)"/>
       <use xlink:href="#DejaVuSans-30" transform="translate(127.246094 0)"/>
      </g>
     </g>
    </g>
    <g id="text_38">
     <!-- Time (ms) -->
     <g transform="translate(262.620781 528.100563) scale(0.1 -0.1)">
      <defs>
       <path id="DejaVuSans-54" d="M -19 4666 
L 3928 4666 
L 3928 4134 
L 2272 4134 
L 2272 0 
L 1638 0 
L 1638 4134 
L -19 4134 
L -19 4666 
z
" transform="scale(0.015625)"/>
       <path id="DejaVuSans-6d" d="M 3328 2828 
Q 3544 3216 3844 3400 
Q 4144 3584 4550 3584 
Q 5097 3584 5394 3201 
Q 5691 2819 5691 2113 
L 5691 0 
L 5113 0 
L 5113 2094 
Q 5113 2597 4934 2840 
Q 4756 3084 4391 3084 
Q 3944 3084 3684 2787 
Q 3425 2491 3425 1978 
L 3425 0 
L 2847 0 
L 2847 2094 
Q 2847 2600 2669 2842 
Q 2491 3084 2119 3084 
Q 1678 3084 1418 2786 
Q 1159 2488 1159 1978 
L 1159 0 
L 581 0 
L 581 3500 
L 1159 3500 
L 1159 2956 
Q 1356 3278 1631 3431 
Q 1906 3584 2284 3584 
Q 2666 3584 2933 3390 
Q 3200 3197 3328 2828 
z
" transform="scale(0.015625)"/>
      </defs>
      <use xlink:href="#DejaVuSans-54"/>
      <use xlink:href="#DejaVuSans-69" transform="translate(57.958984 0)"/>
      <use xlink:href="#DejaVuSans-6d" transform="translate(85.742188 0)"/>
      <use xlink:href="#DejaVuSans-65" transform="translate(183.154297 0)"/>
      <use xlink:href="#DejaVuSans-20" transform="translate(244.677734 0)"/>
      <use xlink:href="#DejaVuSans-28" transform="translate(276.464844 0)"/>
      <use xlink:href="#DejaVuSans-6d" transform="translate(315.478516 0)"/>
      <use xlink:href="#DejaVuSans-73" transform="translate(412.890625 0)"/>
      <use xlink:href="#DejaVuSans-29" transform="translate(464.990234 0)"/>
     </g>
    </g>
   </g>
   <g id="matplotlib.axis_6">
    <g id="ytick_10">
     <g id="line2d_41">
      <g>
       <use xlink:href="#mdb637c3727" x="70.2" y="495.97733" style="stroke: #000000; stroke-width: 0.8"/>
      </g>
     </g>
     <g id="text_39">
      <!-- −2 -->
      <g transform="translate(48.457813 499.776549) scale(0.1 -0.1)">
       <use xlink:href="#DejaVuSans-2212"/>
       <use xlink:href="#DejaVuSans-32" transform="translate(83.789062 0)"/>
      </g>
     </g>
    </g>
    <g id="ytick_11">
     <g id="line2d_42">
      <g>
       <use xlink:href="#mdb637c3727" x="70.2" y="470.924867" style="stroke: #000000; stroke-width: 0.8"/>
      </g>
     </g>
     <g id="text_40">
      <!-- 0 -->
      <g transform="translate(56.8375 474.724085) scale(0.1 -0.1)">
       <use xlink:href="#DejaVuSans-30"/>
      </g>
     </g>
    </g>
    <g id="ytick_12">
     <g id="line2d_43">
      <g>
       <use xlink:href="#mdb637c3727" x="70.2" y="445.872403" style="stroke: #000000; stroke-width: 0.8"/>
      </g>
     </g>
     <g id="text_41">
      <!-- 2 -->
      <g transform="translate(56.8375 449.671622) scale(0.1 -0.1)">
       <use xlink:href="#DejaVuSans-32"/>
      </g>
     </g>
    </g>
    <g id="ytick_13">
     <g id="line2d_44">
      <g>
       <use xlink:href="#mdb637c3727" x="70.2" y="420.81994" style="stroke: #000000; stroke-width: 0.8"/>
      </g>
     </g>
     <g id="text_42">
      <!-- 4 -->
      <g transform="translate(56.8375 424.619159) scale(0.1 -0.1)">
       <use xlink:href="#DejaVuSans-34"/>
      </g>
     </g>
    </g>
    <g id="ytick_14">
     <g id="line2d_45">
      <g>
       <use xlink:href="#mdb637c3727" x="70.2" y="395.767477" style="stroke: #000000; stroke-width: 0.8"/>
      </g>
     </g>
     <g id="text_43">
      <!-- 6 -->
      <g transform="translate(56.8375 399.566696) scale(0.1 -0.1)">
       <use xlink:href="#DejaVuSans-36"/>
      </g>
     </g>
    </g>
    <g id="text_44">
     <!-- Z (σ from null) -->
     <g transform="translate(42.378125 477.919938) rotate(-90) scale(0.1 -0.1)">
      <defs>
       <path id="DejaVuSans-5a" d="M 359 4666 
L 4025 4666 
L 4025 4184 
L 1075 531 
L 4097 531 
L 4097 0 
L 288 0 
L 288 481 
L 3238 4134 
L 359 4134 
L 359 4666 
z
" transform="scale(0.015625)"/>
      </defs>
      <use xlink:href="#DejaVuSans-5a"/>
      <use xlink:href="#DejaVuSans-20" transform="translate(68.505859 0)"/>
      <use xlink:href="#DejaVuSans-28" transform="translate(100.292969 0)"/>
      <use xlink:href="#DejaVuSans-3c3" transform="translate(139.306641 0)"/>
      <use xlink:href="#DejaVuSans-20" transform="translate(202.685547 0)"/>
      <use xlink:href="#DejaVuSans-66" transform="translate(234.472656 0)"/>
      <use xlink:href="#DejaVuSans-72" transform="translate(269.677734 0)"/>
      <use xlink:href="#DejaVuSans-6f" transform="translate(308.541016 0)"/>
      <use xlink:href="#DejaVuSans-6d" transform="translate(369.722656 0)"/>
      <use xlink:href="#DejaVuSans-20" transform="translate(467.134766 0)"/>
      <use xlink:href="#DejaVuSans-6e" transform="translate(498.921875 0)"/>
      <use xlink:href="#DejaVuSans-75" transform="translate(562.300781 0)"/>
      <use xlink:href="#DejaVuSans-6c" transform="translate(625.679688 0)"/>
      <use xlink:href="#DejaVuSans-6c" transform="translate(653.462891 0)"/>
      <use xlink:href="#DejaVuSans-29" transform="translate(681.246094 0)"/>
     </g>
    </g>
   </g>
   <g id="line2d_46">
    <path d="M 167.91917 499.824 
L 167.91917 383.994 
" clip-path="url(#pc101b02af9)" style="fill: none; stroke-dasharray: 2.96,1.28; stroke-dashoffset: 0; stroke: #000000; stroke-width: 0.8"/>
   </g>
   <g id="line2d_47">
    <path d="M 89.983636 469.858147 
L 93.980327 475.341621 
L 97.977023 471.141354 
L 101.973713 465.207197 
L 105.97041 465.247986 
L 109.967106 467.964537 
L 113.963796 467.908887 
L 117.960493 472.451122 
L 121.957186 459.218118 
L 125.953882 453.865144 
L 129.950576 468.917615 
L 133.947269 458.501349 
L 137.943962 469.270113 
L 141.940659 480.729075 
L 145.937352 486.803692 
L 149.934045 474.077011 
L 153.93074 466.849229 
L 157.927434 463.551025 
L 161.924129 455.810565 
L 165.920823 468.020859 
L 169.917517 477.054793 
L 173.914211 468.823261 
L 177.910906 439.074058 
L 181.9076 474.213294 
L 185.904294 452.835675 
L 189.900988 453.708925 
L 193.897681 433.415326 
L 197.894377 442.416431 
L 201.891071 471.848669 
L 205.887764 483.966245 
L 209.884457 482.48664 
L 213.881154 446.5718 
L 217.877847 453.550596 
L 221.874543 433.366302 
L 225.871234 450.969613 
L 229.86793 462.995629 
L 233.864626 461.848431 
L 237.861317 466.40298 
L 241.858013 431.0516 
L 245.854704 467.604094 
L 249.8514 441.743536 
L 253.848096 462.222854 
L 257.844787 462.677106 
L 261.841483 454.126616 
L 265.838179 469.913474 
L 269.83487 450.355949 
L 273.83156 466.430161 
L 277.828262 457.25648 
L 281.824953 456.107645 
L 285.821643 453.917992 
L 289.818345 462.694013 
L 293.815036 470.154842 
L 297.811726 473.110285 
L 301.808428 470.19207 
L 305.805119 449.565798 
L 309.801809 463.998057 
L 313.798511 469.013714 
L 317.795202 474.314229 
L 321.791892 468.836217 
L 325.788594 481.185766 
L 329.785285 478.256594 
L 333.781975 467.21887 
L 337.778677 462.633985 
L 341.775368 474.407829 
L 345.772058 469.311504 
L 349.76876 465.437471 
L 353.765451 485.076735 
L 357.762141 485.392438 
L 361.758843 488.528327 
L 365.755534 463.413988 
L 369.752224 477.843512 
L 373.748914 462.766826 
L 377.745605 479.165337 
L 381.742319 452.268321 
L 385.739009 470.492879 
L 389.7357 461.091609 
L 393.73239 448.469037 
L 397.72908 468.056427 
L 401.725771 460.411805 
L 405.722485 479.394413 
L 409.719175 467.82222 
L 413.715866 452.739667 
L 417.712556 475.273351 
L 421.709246 485.952383 
L 425.705937 476.710118 
L 429.702627 475.412781 
L 433.699341 485.252548 
L 437.696032 486.144992 
L 441.692722 465.801335 
L 445.689412 489.547263 
L 449.686103 472.808979 
L 453.682793 483.684194 
L 457.679507 473.628031 
L 461.676198 477.249393 
L 465.672888 476.186636 
L 469.669578 480.568804 
L 473.666269 461.897788 
L 477.662959 481.831909 
L 481.659673 463.370075 
L 485.656364 471.862555 
" clip-path="url(#pc101b02af9)" style="fill: none; stroke: #1f77b4; stroke-width: 2; stroke-linecap: square"/>
   </g>
   <g id="line2d_48">
    <path d="M 89.983636 484.622126 
L 93.980327 430.297956 
L 97.977023 473.340006 
L 101.973713 451.457544 
L 105.97041 459.914817 
L 109.967106 451.360102 
L 113.963796 462.425493 
L 117.960493 454.318194 
L 121.957186 450.831018 
L 125.953882 466.580432 
L 129.950576 455.826398 
L 133.947269 415.791054 
L 137.943962 455.431838 
L 141.940659 438.741283 
L 145.937352 433.881715 
L 149.934045 462.630308 
L 153.93074 453.750907 
L 157.927434 442.951247 
L 161.924129 444.008166 
L 165.920823 430.619957 
L 169.917517 425.266519 
L 173.914211 465.931635 
L 177.910906 408.411309 
L 181.9076 420.104805 
L 185.904294 459.507202 
L 189.900988 479.788269 
L 193.897681 425.879904 
L 197.894377 446.089704 
L 201.891071 398.129967 
L 205.887764 421.292217 
L 209.884457 389.259 
L 213.881154 431.303289 
L 217.877847 443.674452 
L 221.874543 421.912741 
L 225.871234 425.898061 
L 229.86793 426.95697 
L 233.864626 410.655719 
L 237.861317 463.438336 
L 241.858013 418.283636 
L 245.854704 443.672315 
L 249.8514 447.236439 
L 253.848096 474.348635 
L 257.844787 464.567262 
L 261.841483 431.129535 
L 265.838179 399.536223 
L 269.83487 445.274615 
L 273.83156 431.043577 
L 277.828262 440.893139 
L 281.824953 450.48031 
L 285.821643 444.426597 
L 289.818345 467.459137 
L 293.815036 429.874016 
L 297.811726 453.641606 
L 301.808428 459.538688 
L 305.805119 475.406401 
L 309.801809 441.424318 
L 313.798511 473.817095 
L 317.795202 483.698825 
L 321.791892 469.068422 
L 325.788594 481.782891 
L 329.785285 491.313736 
L 333.781975 476.932053 
L 337.778677 481.256354 
L 341.775368 476.464877 
L 345.772058 485.4723 
L 349.76876 483.1954 
L 353.765451 438.086055 
L 357.762141 487.681226 
L 361.758843 491.128143 
L 365.755534 488.41903 
L 369.752224 488.344386 
L 373.748914 488.93912 
L 377.745605 478.913791 
L 381.742319 475.282858 
L 385.739009 477.831402 
L 389.7357 478.84825 
L 393.73239 494.559 
L 397.72908 471.284278 
L 401.725771 492.178598 
L 405.722485 490.0152 
L 409.719175 493.782283 
L 413.715866 477.409736 
L 417.712556 493.829508 
L 421.709246 478.853611 
L 425.705937 490.686783 
L 429.702627 477.639575 
L 433.699341 476.82507 
L 437.696032 453.801593 
L 441.692722 477.9032 
L 445.689412 475.635324 
L 449.686103 450.570165 
L 453.682793 484.696027 
L 457.679507 476.925486 
L 461.676198 489.061477 
L 465.672888 482.518637 
L 469.669578 481.22682 
L 473.666269 480.699756 
L 477.662959 464.71057 
L 481.659673 491.498167 
L 485.656364 487.370644 
" clip-path="url(#pc101b02af9)" style="fill: none; stroke: #ff7f0e; stroke-width: 2; stroke-linecap: square"/>
   </g>
   <g id="patch_15">
    <path d="M 70.2 499.824 
L 70.2 383.994 
" style="fill: none; stroke: #000000; stroke-width: 0.8; stroke-linejoin: miter; stroke-linecap: square"/>
   </g>
   <g id="patch_16">
    <path d="M 505.44 499.824 
L 505.44 383.994 
" style="fill: none; stroke: #000000; stroke-width: 0.8; stroke-linejoin: miter; stroke-linecap: square"/>
   </g>
   <g id="patch_17">
    <path d="M 70.2 499.824 
L 505.44 499.824 
" style="fill: none; stroke: #000000; stroke-width: 0.8; stroke-linejoin: miter; stroke-linecap: square"/>
   </g>
   <g id="patch_18">
    <path d="M 70.2 383.994 
L 505.44 383.994 
" style="fill: none; stroke: #000000; stroke-width: 0.8; stroke-linejoin: miter; stroke-linecap: square"/>
   </g>
   <g id="text_45">
    <!-- Panel C: evidence strength vs null -->
    <g transform="translate(185.80125 377.994) scale(0.12 -0.12)">
     <defs>
      <path id="DejaVuSans-43" d="M 4122 4306 
L 4122 3641 
Q 3803 3938 3442 4084 
Q 3081 4231 2675 4231 
Q 1875 4231 1450 3742 
Q 1025 3253 1025 2328 
Q 1025 1406 1450 917 
Q 1875 428 2675 428 
Q 3081 428 3442 575 
Q 3803 722 4122 1019 
L 4122 359 
Q 3791 134 3420 21 
Q 3050 -91 2638 -91 
Q 1578 -91 968 557 
Q 359 1206 359 2328 
Q 359 3453 968 4101 
Q 1578 4750 2638 4750 
Q 3056 4750 3426 4639 
Q 3797 4528 4122 4306 
z
" transform="scale(0.015625)"/>
     </defs>
     <use xlink:href="#DejaVuSans-50"/>
     <use xlink:href="#DejaVuSans-61" transform="translate(55.802734 0)"/>
     <use xlink:href="#DejaVuSans-6e" transform="translate(117.082031 0)"/>
     <use xlink:href="#DejaVuSans-65" transform="translate(180.460938 0)"/>
     <use xlink:href="#DejaVuSans-6c" transform="translate(241.984375 0)"/>
     <use xlink:href="#DejaVuSans-20" transform="translate(269.767578 0)"/>
     <use xlink:href="#DejaVuSans-43" transform="translate(301.554688 0)"/>
     <use xlink:href="#DejaVuSans-3a" transform="translate(371.378906 0)"/>
     <use xlink:href="#DejaVuSans-20" transform="translate(405.070312 0)"/>
     <use xlink:href="#DejaVuSans-65" transform="translate(436.857422 0)"/>
     <use xlink:href="#DejaVuSans-76" transform="translate(498.380859 0)"/>
     <use xlink:href="#DejaVuSans-69" transform="translate(557.560547 0)"/>
     <use xlink:href="#DejaVuSans-64" transform="translate(585.34375 0)"/>
     <use xlink:href="#DejaVuSans-65" transform="translate(648.820312 0)"/>
     <use xlink:href="#DejaVuSans-6e" transform="translate(710.34375 0)"/>
     <use xlink:href="#DejaVuSans-63" transform="translate(773.722656 0)"/>
     <use xlink:href="#DejaVuSans-65" transform="translate(828.703125 0)"/>
     <use xlink:href="#DejaVuSans-20" transform="translate(890.226562 0)"/>
     <use xlink:href="#DejaVuSans-73" transform="translate(922.013672 0)"/>
     <use xlink:href="#DejaVuSans-74" transform="translate(974.113281 0)"/>
     <use xlink:href="#DejaVuSans-72" transform="translate(1013.322266 0)"/>
     <use xlink:href="#DejaVuSans-65" transform="translate(1052.185547 0)"/>
     <use xlink:href="#DejaVuSans-6e" transform="translate(1113.708984 0)"/>
     <use xlink:href="#DejaVuSans-67" transform="translate(1177.087891 0)"/>
     <use xlink:href="#DejaVuSans-74" transform="translate(1240.564453 0)"/>
     <use xlink:href="#DejaVuSans-68" transform="translate(1279.773438 0)"/>
     <use xlink:href="#DejaVuSans-20" transform="translate(1343.152344 0)"/>
     <use xlink:href="#DejaVuSans-76" transform="translate(1374.939453 0)"/>
     <use xlink:href="#DejaVuSans-73" transform="translate(1434.119141 0)"/>
     <use xlink:href="#DejaVuSans-20" transform="translate(1486.21875 0)"/>
     <use xlink:href="#DejaVuSans-6e" transform="translate(1518.005859 0)"/>
     <use xlink:href="#DejaVuSans-75" transform="translate(1581.384766 0)"/>
     <use xlink:href="#DejaVuSans-6c" transform="translate(1644.763672 0)"/>
     <use xlink:href="#DejaVuSans-6c" transform="translate(1672.546875 0)"/>
    </g>
   </g>
   <g id="legend_3">
    <g id="line2d_49">
     <path d="M 79.2 397.092438 
L 89.2 397.092438 
L 99.2 397.092438 
" style="fill: none; stroke: #1f77b4; stroke-width: 2; stroke-linecap: square"/>
    </g>
    <g id="text_46">
     <!-- z(MFEF→MLIP) -->
     <g transform="translate(107.2 400.592438) scale(0.1 -0.1)">
      <defs>
       <path id="DejaVuSans-7a" d="M 353 3500 
L 3084 3500 
L 3084 2975 
L 922 459 
L 3084 459 
L 3084 0 
L 275 0 
L 275 525 
L 2438 3041 
L 353 3041 
L 353 3500 
z
" transform="scale(0.015625)"/>
      </defs>
      <use xlink:href="#DejaVuSans-7a"/>
      <use xlink:href="#DejaVuSans-28" transform="translate(52.490234 0)"/>
      <use xlink:href="#DejaVuSans-4d" transform="translate(91.503906 0)"/>
      <use xlink:href="#DejaVuSans-46" transform="translate(177.783203 0)"/>
      <use xlink:href="#DejaVuSans-45" transform="translate(235.302734 0)"/>
      <use xlink:href="#DejaVuSans-46" transform="translate(298.486328 0)"/>
      <use xlink:href="#DejaVuSans-2192" transform="translate(356.005859 0)"/>
      <use xlink:href="#DejaVuSans-4d" transform="translate(439.794922 0)"/>
      <use xlink:href="#DejaVuSans-4c" transform="translate(526.074219 0)"/>
      <use xlink:href="#DejaVuSans-49" transform="translate(581.787109 0)"/>
      <use xlink:href="#DejaVuSans-50" transform="translate(611.279297 0)"/>
      <use xlink:href="#DejaVuSans-29" transform="translate(671.582031 0)"/>
     </g>
    </g>
    <g id="line2d_50">
     <path d="M 79.2 411.770563 
L 89.2 411.770563 
L 99.2 411.770563 
" style="fill: none; stroke: #ff7f0e; stroke-width: 2; stroke-linecap: square"/>
    </g>
    <g id="text_47">
     <!-- z(MLIP→MFEF) -->
     <g transform="translate(107.2 415.270563) scale(0.1 -0.1)">
      <use xlink:href="#DejaVuSans-7a"/>
      <use xlink:href="#DejaVuSans-28" transform="translate(52.490234 0)"/>
      <use xlink:href="#DejaVuSans-4d" transform="translate(91.503906 0)"/>
      <use xlink:href="#DejaVuSans-4c" transform="translate(177.783203 0)"/>
      <use xlink:href="#DejaVuSans-49" transform="translate(233.496094 0)"/>
      <use xlink:href="#DejaVuSans-50" transform="translate(262.988281 0)"/>
      <use xlink:href="#DejaVuSans-2192" transform="translate(323.291016 0)"/>
      <use xlink:href="#DejaVuSans-4d" transform="translate(407.080078 0)"/>
      <use xlink:href="#DejaVuSans-46" transform="translate(493.359375 0)"/>
      <use xlink:href="#DejaVuSans-45" transform="translate(550.878906 0)"/>
      <use xlink:href="#DejaVuSans-46" transform="translate(614.0625 0)"/>
      <use xlink:href="#DejaVuSans-29" transform="translate(671.582031 0)"/>
     </g>
    </g>
   </g>
  </g>
 </g>
 <defs>
  <clipPath id="p0f30a1fb8b">
   <rect x="70.2" y="67.392" width="435.24" height="138.996"/>
  </clipPath>
  <clipPath id="p1e65ecbe7f">
   <rect x="70.2" y="237.276" width="435.24" height="115.83"/>
  </clipPath>
  <clipPath id="pc101b02af9">
   <rect x="70.2" y="383.994" width="435.24" height="115.83"/>
  </clipPath>
 </defs>
</svg>
