<?xml version="1.0" encoding="utf-8" standalone="no"?>
<!DOCTYPE svg PUBLIC "-//W3C//DTD SVG 1.1//EN"
  "http://www.w3.org/Graphics/SVG/1.1/DTD/svg11.dtd">
<svg xmlns:xlink="http://www.w3.org/1999/xlink" width="856.8pt" height="453.6pt" viewBox="0 0 856.8 453.6" xmlns="http://www.w3.org/2000/svg" version="1.1">
 <metadata>
  <rdf:RDF xmlns:dc="http://purl.org/dc/elements/1.1/" xmlns:cc="http://creativecommons.org/ns#" xmlns:rdf="http://www.w3.org/1999/02/22-rdf-syntax-ns#">
   <cc:Work>
    <dc:type rdf:resource="http://purl.org/dc/dcmitype/StillImage"/>
    <dc:date>2026-01-28T21:15:40.156633</dc:date>
    <dc:format>image/svg+xml</dc:format>
    <dc:creator>
     <cc:Agent>
      <dc:title>Matplotlib v3.10.5, https://matplotlib.org/</dc:title>
     </cc:Agent>
    </dc:creator>
   </cc:Work>
  </rdf:RDF>
 </metadata>
 <defs>
  <style type="text/css">*{stroke-linejoin: round; stroke-linecap: butt}</style>
 </defs>
 <g id="figure_1">
  <g id="patch_1">
   <path d="M 0 453.6 
L 856.8 453.6 
L 856.8 0 
L 0 0 
z
" style="fill: #ffffff"/>
  </g>
  <g id="axes_1">
   <g id="patch_2">
    <path d="M 100.8 396 
L 820.8 396 
L 820.8 36 
L 100.8 36 
z
" style="fill: #ffffff"/>
   </g>
   <g id="FillBetweenPolyCollection_1">
    <path d="M -7.199997 139.554626 
L -7.199997 289.428655 
L 4.8 317.80456 
L 16.799998 296.803243 
L 28.799995 322.791644 
L 40.800002 318.686124 
L 52.799999 348.868405 
L 64.799997 340.793321 
L 76.799999 345.11422 
L 88.800001 317.655664 
L 100.800003 331.255417 
L 112.8 318.219846 
L 124.799998 341.092386 
L 136.8 304.091397 
L 148.800002 290.243751 
L 160.799999 278.273862 
L 172.799999 292.811068 
L 184.8 314.676527 
L 196.8 354.866815 
L 208.8 366.829269 
L 220.8 362.168367 
L 232.8 333.042386 
L 244.8 342.923849 
L 256.8 331.887144 
L 268.800001 326.984169 
L 280.800001 313.220907 
L 292.799998 314.417537 
L 304.8 325.60606 
L 316.800002 313.311761 
L 328.8 326.835689 
L 340.799997 332.804684 
L 352.799999 339.60345 
L 364.800001 359.44606 
L 376.800003 357.407941 
L 388.800001 342.511127 
L 400.799998 315.776587 
L 412.800005 299.573169 
L 424.800002 330.426682 
L 436.8 324.476963 
L 448.799997 321.625285 
L 460.799995 296.95555 
L 472.800001 291.542616 
L 484.799999 303.40916 
L 496.799996 291.819576 
L 508.800003 290.326958 
L 520.8 274.739191 
L 532.799989 282.398618 
L 544.799995 310.096452 
L 556.800001 313.713266 
L 568.79999 332.39932 
L 580.799996 307.934041 
L 592.800003 313.045053 
L 604.799991 288.212227 
L 616.799998 304.372809 
L 628.800004 291.728069 
L 640.799993 313.690193 
L 652.799999 283.55507 
L 664.800006 286.129525 
L 676.799994 289.284989 
L 688.800001 320.325769 
L 700.800007 316.842336 
L 712.799996 322.638644 
L 724.800002 329.624939 
L 736.800009 340.930197 
L 748.799997 329.875982 
L 760.800004 319.095247 
L 772.80001 323.252241 
L 784.799999 315.000584 
L 796.800005 312.221058 
L 808.800011 314.189374 
L 820.8 329.192273 
L 832.799989 340.321556 
L 844.799977 340.241494 
L 856.800001 315.315185 
L 868.800026 330.968905 
L 880.800014 313.658175 
L 892.800003 321.474605 
L 904.799991 318.070264 
L 916.79998 333.71693 
L 928.800004 379.636364 
L 940.800029 304.981224 
L 952.800017 305.972966 
L 964.800006 271.197559 
L 976.799994 335.680974 
L 988.799983 341.905181 
L 1000.799971 363.19334 
L 1012.799996 352.407423 
L 1024.80002 365.48493 
L 1036.800009 322.833497 
L 1048.799997 328.29555 
L 1060.799986 301.832145 
L 1072.799974 335.978691 
L 1084.799999 342.545808 
L 1096.800023 327.406915 
L 1108.800011 293.654216 
L 1120.8 294.747793 
L 1132.799989 322.689035 
L 1144.799977 356.173239 
L 1156.800001 315.713718 
L 1168.800026 301.734667 
L 1168.800026 161.759876 
L 1168.800026 161.759876 
L 1156.800001 198.129487 
L 1144.799977 270.588949 
L 1132.799989 227.487435 
L 1120.8 190.495553 
L 1108.800011 195.575298 
L 1096.800023 245.720316 
L 1084.799999 277.01195 
L 1072.799974 238.369248 
L 1060.799986 210.042423 
L 1048.799997 231.488166 
L 1036.800009 261.253845 
L 1024.80002 306.290308 
L 1012.799996 295.812536 
L 1000.799971 288.014844 
L 988.799983 249.171095 
L 976.799994 239.407992 
L 964.800006 140.836395 
L 952.800017 185.383361 
L 940.800029 190.781263 
L 928.800004 267.558751 
L 916.79998 217.927086 
L 904.799991 176.914728 
L 892.800003 218.860933 
L 880.800014 232.266694 
L 868.800026 264.366498 
L 856.800001 252.251783 
L 844.799977 265.397086 
L 832.799989 278.748268 
L 820.8 265.496334 
L 808.800011 261.943873 
L 796.800005 236.15145 
L 784.799999 248.082862 
L 772.80001 232.596752 
L 760.800004 239.81901 
L 748.799997 249.129234 
L 736.800009 266.630714 
L 724.800002 250.637391 
L 712.799996 238.398094 
L 700.800007 233.943796 
L 688.800001 241.154991 
L 676.799994 189.502133 
L 664.800006 186.54706 
L 652.799999 182.705999 
L 640.799993 170.852058 
L 628.800004 155.454237 
L 616.799998 169.453077 
L 604.799991 210.305032 
L 592.800003 229.332974 
L 580.799996 221.572417 
L 568.79999 254.90889 
L 556.800001 225.100093 
L 544.799995 226.21149 
L 532.799989 155.171001 
L 520.8 149.922147 
L 508.800003 161.276742 
L 496.799996 177.090172 
L 484.799999 168.893124 
L 472.800001 157.650042 
L 460.799995 169.768048 
L 448.799997 206.646558 
L 436.8 227.321844 
L 424.800002 220.610219 
L 412.800005 218.318299 
L 400.799998 228.484549 
L 388.800001 285.687219 
L 376.800003 238.188779 
L 364.800001 238.397499 
L 352.799999 203.114205 
L 340.799997 250.460207 
L 328.8 228.153474 
L 316.800002 217.717741 
L 304.8 227.938706 
L 292.799998 234.330073 
L 280.800001 238.108706 
L 268.800001 263.903968 
L 256.8 274.731509 
L 244.8 271.937351 
L 232.8 222.331234 
L 220.8 232.282517 
L 208.8 253.125225 
L 196.8 271.198103 
L 184.8 227.052751 
L 172.799999 210.225661 
L 160.799999 193.868387 
L 148.800002 199.636678 
L 136.8 204.501432 
L 124.799998 246.138242 
L 112.8 240.856987 
L 100.800003 257.51283 
L 88.800001 241.747353 
L 76.799999 264.32119 
L 64.799997 261.419296 
L 52.799999 264.666538 
L 40.800002 232.466575 
L 28.799995 251.404267 
L 16.799998 203.954969 
L 4.8 224.140705 
L -7.199997 139.554626 
z
" clip-path="url(#pa200015911)" style="fill: #c00a37; fill-opacity: 0.25"/>
   </g>
   <g id="FillBetweenPolyCollection_2">
    <path d="M -7.199997 173.272428 
L -7.199997 350.891222 
L 4.8 331.350483 
L 16.799998 332.088489 
L 28.799995 340.917235 
L 40.800002 345.866791 
L 52.799999 333.016794 
L 64.799997 304.968963 
L 76.799999 329.750191 
L 88.800001 337.35279 
L 100.800003 347.570087 
L 112.8 317.538173 
L 124.799998 321.174128 
L 136.8 337.569274 
L 148.800002 344.512666 
L 160.799999 349.749591 
L 172.799999 341.13993 
L 184.8 372.202395 
L 196.8 369.070289 
L 208.8 358.567441 
L 220.8 337.694022 
L 232.8 333.681289 
L 244.8 353.012256 
L 256.8 352.298969 
L 268.800001 361.22311 
L 280.800001 337.162086 
L 292.799998 341.663283 
L 304.8 336.906167 
L 316.800002 327.997538 
L 328.8 333.228306 
L 340.799997 313.266004 
L 352.799999 328.196419 
L 364.800001 303.65423 
L 376.800003 328.105736 
L 388.800001 323.516419 
L 400.799998 337.429423 
L 412.800005 324.356822 
L 424.800002 318.825134 
L 436.8 322.732603 
L 448.799997 320.882244 
L 460.799995 310.444789 
L 472.800001 268.996549 
L 484.799999 252.452087 
L 496.799996 249.086775 
L 508.800003 255.735583 
L 520.8 262.487393 
L 532.799989 270.448677 
L 544.799995 262.981074 
L 556.800001 286.69622 
L 568.79999 308.320126 
L 580.799996 329.254034 
L 592.800003 306.957929 
L 604.799991 287.401098 
L 616.799998 290.620656 
L 628.800004 273.187545 
L 640.799993 266.608257 
L 652.799999 223.964335 
L 664.800006 219.431653 
L 676.799994 245.991509 
L 688.800001 257.310247 
L 700.800007 268.001285 
L 712.799996 254.014017 
L 724.800002 290.070211 
L 736.800009 277.07458 
L 748.799997 258.982947 
L 760.800004 239.564165 
L 772.80001 249.06139 
L 784.799999 246.9673 
L 796.800005 274.418524 
L 808.800011 291.035221 
L 820.8 312.207849 
L 832.799989 313.072129 
L 844.799977 349.971144 
L 856.800001 361.161884 
L 868.800026 339.114166 
L 880.800014 320.020782 
L 892.800003 316.205232 
L 904.799991 331.10836 
L 916.79998 326.613785 
L 928.800004 340.307721 
L 940.800029 335.733002 
L 952.800017 335.104248 
L 964.800006 340.613875 
L 976.799994 344.141688 
L 988.799983 324.372387 
L 1000.799971 285.307463 
L 1012.799996 277.731375 
L 1024.80002 302.279436 
L 1036.800009 315.10901 
L 1048.799997 306.24645 
L 1060.799986 323.889604 
L 1072.799974 320.02251 
L 1084.799999 327.009576 
L 1096.800023 295.752956 
L 1108.800011 303.953397 
L 1120.8 328.163532 
L 1132.799989 324.421155 
L 1144.799977 330.230841 
L 1156.800001 339.365473 
L 1168.800026 366.58237 
L 1168.800026 261.347821 
L 1168.800026 261.347821 
L 1156.800001 227.414112 
L 1144.799977 219.592357 
L 1132.799989 187.915951 
L 1120.8 216.156121 
L 1108.800011 90.924117 
L 1096.800023 122.368893 
L 1084.799999 125.070579 
L 1072.799974 198.211646 
L 1060.799986 214.468865 
L 1048.799997 210.939971 
L 1036.800009 252.352907 
L 1024.80002 217.348527 
L 1012.799996 200.177051 
L 1000.799971 167.802306 
L 988.799983 205.746355 
L 976.799994 202.933237 
L 964.800006 169.283488 
L 952.800017 170.191686 
L 940.800029 204.89616 
L 928.800004 255.038182 
L 916.79998 257.153296 
L 904.799991 188.077513 
L 892.800003 192.233483 
L 880.800014 199.08373 
L 868.800026 279.834396 
L 856.800001 294.500685 
L 844.799977 265.805388 
L 832.799989 227.836058 
L 820.8 206.848406 
L 808.800011 139.198112 
L 796.800005 97.295668 
L 784.799999 52.363636 
L 772.80001 100.207482 
L 760.800004 90.517827 
L 748.799997 140.10121 
L 736.800009 159.725445 
L 724.800002 199.108943 
L 712.799996 137.792174 
L 700.800007 146.568936 
L 688.800001 120.892042 
L 676.799994 103.64209 
L 664.800006 74.065172 
L 652.799999 64.920819 
L 640.799993 128.16947 
L 628.800004 140.486842 
L 616.799998 176.706411 
L 604.799991 159.412607 
L 592.800003 181.65087 
L 580.799996 199.928758 
L 568.79999 190.734251 
L 556.800001 183.546379 
L 544.799995 169.006529 
L 532.799989 177.776325 
L 520.8 129.516057 
L 508.800003 94.308135 
L 496.799996 84.963021 
L 484.799999 86.521899 
L 472.800001 105.653192 
L 460.799995 163.017084 
L 448.799997 209.843931 
L 436.8 253.383142 
L 424.800002 244.534962 
L 412.800005 263.102383 
L 400.799998 256.199995 
L 388.800001 262.445651 
L 376.800003 225.029973 
L 364.800001 201.932934 
L 352.799999 214.196391 
L 340.799997 229.77636 
L 328.8 266.612342 
L 316.800002 260.874605 
L 304.8 274.137508 
L 292.799998 269.207104 
L 280.800001 271.691344 
L 268.800001 284.52992 
L 256.8 269.546474 
L 244.8 270.779053 
L 232.8 251.182033 
L 220.8 274.678162 
L 208.8 285.490428 
L 196.8 317.105247 
L 184.8 313.389783 
L 172.799999 290.668978 
L 160.799999 275.156237 
L 148.800002 230.853441 
L 136.8 202.725092 
L 124.799998 185.506677 
L 112.8 210.536221 
L 100.800003 240.017484 
L 88.800001 233.589154 
L 76.799999 222.497139 
L 64.799997 196.309735 
L 52.799999 222.603768 
L 40.800002 234.750183 
L 28.799995 248.8914 
L 16.799998 216.611473 
L 4.8 208.073978 
L -7.199997 173.272428 
z
" clip-path="url(#pa200015911)" style="fill: #0e87cc; fill-opacity: 0.25"/>
   </g>
   <g id="matplotlib.axis_1">
    <g id="xtick_1">
     <g id="line2d_1">
      <defs>
       <path id="mb491e8769f" d="M 0 0 
L 0 3.5 
" style="stroke: #000000; stroke-width: 0.8"/>
      </defs>
      <g>
       <use xlink:href="#mb491e8769f" x="100.8" y="396" style="stroke: #000000; stroke-width: 0.8"/>
      </g>
     </g>
     <g id="text_1">
      <!-- −100 -->
      <g transform="translate(78.82625 415.1575) scale(0.16 -0.16)">
       <defs>
        <path id="DejaVuSans-2212" d="M 678 2272 
L 4684 2272 
L 4684 1741 
L 678 1741 
L 678 2272 
z
" transform="scale(0.015625)"/>
        <path id="DejaVuSans-31" d="M 794 531 
L 1825 531 
L 1825 4091 
L 703 3866 
L 703 4441 
L 1819 4666 
L 2450 4666 
L 2450 531 
L 3481 531 
L 3481 0 
L 794 0 
L 794 531 
z
" transform="scale(0.015625)"/>
        <path id="DejaVuSans-30" d="M 2034 4250 
Q 1547 4250 1301 3770 
Q 1056 3291 1056 2328 
Q 1056 1369 1301 889 
Q 1547 409 2034 409 
Q 2525 409 2770 889 
Q 3016 1369 3016 2328 
Q 3016 3291 2770 3770 
Q 2525 4250 2034 4250 
z
M 2034 4750 
Q 2819 4750 3233 4129 
Q 3647 3509 3647 2328 
Q 3647 1150 3233 529 
Q 2819 -91 2034 -91 
Q 1250 -91 836 529 
Q 422 1150 422 2328 
Q 422 3509 836 4129 
Q 1250 4750 2034 4750 
z
" transform="scale(0.015625)"/>
       </defs>
       <use xlink:href="#DejaVuSans-2212"/>
       <use xlink:href="#DejaVuSans-31" transform="translate(83.789062 0)"/>
       <use xlink:href="#DejaVuSans-30" transform="translate(147.412109 0)"/>
       <use xlink:href="#DejaVuSans-30" transform="translate(211.035156 0)"/>
      </g>
     </g>
    </g>
    <g id="xtick_2">
     <g id="line2d_2">
      <g>
       <use xlink:href="#mb491e8769f" x="220.8" y="396" style="stroke: #000000; stroke-width: 0.8"/>
      </g>
     </g>
     <g id="text_2">
      <!-- 0 -->
      <g transform="translate(215.71 415.1575) scale(0.16 -0.16)">
       <use xlink:href="#DejaVuSans-30"/>
      </g>
     </g>
    </g>
    <g id="xtick_3">
     <g id="line2d_3">
      <g>
       <use xlink:href="#mb491e8769f" x="340.8" y="396" style="stroke: #000000; stroke-width: 0.8"/>
      </g>
     </g>
     <g id="text_3">
      <!-- 100 -->
      <g transform="translate(325.53 415.1575) scale(0.16 -0.16)">
       <use xlink:href="#DejaVuSans-31"/>
       <use xlink:href="#DejaVuSans-30" transform="translate(63.623047 0)"/>
       <use xlink:href="#DejaVuSans-30" transform="translate(127.246094 0)"/>
      </g>
     </g>
    </g>
    <g id="xtick_4">
     <g id="line2d_4">
      <g>
       <use xlink:href="#mb491e8769f" x="460.8" y="396" style="stroke: #000000; stroke-width: 0.8"/>
      </g>
     </g>
     <g id="text_4">
      <!-- 200 -->
      <g transform="translate(445.53 415.1575) scale(0.16 -0.16)">
       <defs>
        <path id="DejaVuSans-32" d="M 1228 531 
L 3431 531 
L 3431 0 
L 469 0 
L 469 531 
Q 828 903 1448 1529 
Q 2069 2156 2228 2338 
Q 2531 2678 2651 2914 
Q 2772 3150 2772 3378 
Q 2772 3750 2511 3984 
Q 2250 4219 1831 4219 
Q 1534 4219 1204 4116 
Q 875 4013 500 3803 
L 500 4441 
Q 881 4594 1212 4672 
Q 1544 4750 1819 4750 
Q 2544 4750 2975 4387 
Q 3406 4025 3406 3419 
Q 3406 3131 3298 2873 
Q 3191 2616 2906 2266 
Q 2828 2175 2409 1742 
Q 1991 1309 1228 531 
z
" transform="scale(0.015625)"/>
       </defs>
       <use xlink:href="#DejaVuSans-32"/>
       <use xlink:href="#DejaVuSans-30" transform="translate(63.623047 0)"/>
       <use xlink:href="#DejaVuSans-30" transform="translate(127.246094 0)"/>
      </g>
     </g>
    </g>
    <g id="xtick_5">
     <g id="line2d_5">
      <g>
       <use xlink:href="#mb491e8769f" x="580.8" y="396" style="stroke: #000000; stroke-width: 0.8"/>
      </g>
     </g>
     <g id="text_5">
      <!-- 300 -->
      <g transform="translate(565.53 415.1575) scale(0.16 -0.16)">
       <defs>
        <path id="DejaVuSans-33" d="M 2597 2516 
Q 3050 2419 3304 2112 
Q 3559 1806 3559 1356 
Q 3559 666 3084 287 
Q 2609 -91 1734 -91 
Q 1441 -91 1130 -33 
Q 819 25 488 141 
L 488 750 
Q 750 597 1062 519 
Q 1375 441 1716 441 
Q 2309 441 2620 675 
Q 2931 909 2931 1356 
Q 2931 1769 2642 2001 
Q 2353 2234 1838 2234 
L 1294 2234 
L 1294 2753 
L 1863 2753 
Q 2328 2753 2575 2939 
Q 2822 3125 2822 3475 
Q 2822 3834 2567 4026 
Q 2313 4219 1838 4219 
Q 1578 4219 1281 4162 
Q 984 4106 628 3988 
L 628 4550 
Q 988 4650 1302 4700 
Q 1616 4750 1894 4750 
Q 2613 4750 3031 4423 
Q 3450 4097 3450 3541 
Q 3450 3153 3228 2886 
Q 3006 2619 2597 2516 
z
" transform="scale(0.015625)"/>
       </defs>
       <use xlink:href="#DejaVuSans-33"/>
       <use xlink:href="#DejaVuSans-30" transform="translate(63.623047 0)"/>
       <use xlink:href="#DejaVuSans-30" transform="translate(127.246094 0)"/>
      </g>
     </g>
    </g>
    <g id="xtick_6">
     <g id="line2d_6">
      <g>
       <use xlink:href="#mb491e8769f" x="700.8" y="396" style="stroke: #000000; stroke-width: 0.8"/>
      </g>
     </g>
     <g id="text_6">
      <!-- 400 -->
      <g transform="translate(685.53 415.1575) scale(0.16 -0.16)">
       <defs>
        <path id="DejaVuSans-34" d="M 2419 4116 
L 825 1625 
L 2419 1625 
L 2419 4116 
z
M 2253 4666 
L 3047 4666 
L 3047 1625 
L 3713 1625 
L 3713 1100 
L 3047 1100 
L 3047 0 
L 2419 0 
L 2419 1100 
L 313 1100 
L 313 1709 
L 2253 4666 
z
" transform="scale(0.015625)"/>
       </defs>
       <use xlink:href="#DejaVuSans-34"/>
       <use xlink:href="#DejaVuSans-30" transform="translate(63.623047 0)"/>
       <use xlink:href="#DejaVuSans-30" transform="translate(127.246094 0)"/>
      </g>
     </g>
    </g>
    <g id="xtick_7">
     <g id="line2d_7">
      <g>
       <use xlink:href="#mb491e8769f" x="820.8" y="396" style="stroke: #000000; stroke-width: 0.8"/>
      </g>
     </g>
     <g id="text_7">
      <!-- 500 -->
      <g transform="translate(805.53 415.1575) scale(0.16 -0.16)">
       <defs>
        <path id="DejaVuSans-35" d="M 691 4666 
L 3169 4666 
L 3169 4134 
L 1269 4134 
L 1269 2991 
Q 1406 3038 1543 3061 
Q 1681 3084 1819 3084 
Q 2600 3084 3056 2656 
Q 3513 2228 3513 1497 
Q 3513 744 3044 326 
Q 2575 -91 1722 -91 
Q 1428 -91 1123 -41 
Q 819 9 494 109 
L 494 744 
Q 775 591 1075 516 
Q 1375 441 1709 441 
Q 2250 441 2565 725 
Q 2881 1009 2881 1497 
Q 2881 1984 2565 2268 
Q 2250 2553 1709 2553 
Q 1456 2553 1204 2497 
Q 953 2441 691 2322 
L 691 4666 
z
" transform="scale(0.015625)"/>
       </defs>
       <use xlink:href="#DejaVuSans-35"/>
       <use xlink:href="#DejaVuSans-30" transform="translate(63.623047 0)"/>
       <use xlink:href="#DejaVuSans-30" transform="translate(127.246094 0)"/>
      </g>
     </g>
    </g>
    <g id="text_8">
     <!-- Time from Stimulus Onset (ms) -->
     <g transform="translate(320.273438 436.162187) scale(0.18 -0.18)">
      <defs>
       <path id="DejaVuSans-54" d="M -19 4666 
L 3928 4666 
L 3928 4134 
L 2272 4134 
L 2272 0 
L 1638 0 
L 1638 4134 
L -19 4134 
L -19 4666 
z
" transform="scale(0.015625)"/>
       <path id="DejaVuSans-69" d="M 603 3500 
L 1178 3500 
L 1178 0 
L 603 0 
L 603 3500 
z
M 603 4863 
L 1178 4863 
L 1178 4134 
L 603 4134 
L 603 4863 
z
" transform="scale(0.015625)"/>
       <path id="DejaVuSans-6d" d="M 3328 2828 
Q 3544 3216 3844 3400 
Q 4144 3584 4550 3584 
Q 5097 3584 5394 3201 
Q 5691 2819 5691 2113 
L 5691 0 
L 5113 0 
L 5113 2094 
Q 5113 2597 4934 2840 
Q 4756 3084 4391 3084 
Q 3944 3084 3684 2787 
Q 3425 2491 3425 1978 
L 3425 0 
L 2847 0 
L 2847 2094 
Q 2847 2600 2669 2842 
Q 2491 3084 2119 3084 
Q 1678 3084 1418 2786 
Q 1159 2488 1159 1978 
L 1159 0 
L 581 0 
L 581 3500 
L 1159 3500 
L 1159 2956 
Q 1356 3278 1631 3431 
Q 1906 3584 2284 3584 
Q 2666 3584 2933 3390 
Q 3200 3197 3328 2828 
z
" transform="scale(0.015625)"/>
       <path id="DejaVuSans-65" d="M 3597 1894 
L 3597 1613 
L 953 1613 
Q 991 1019 1311 708 
Q 1631 397 2203 397 
Q 2534 397 2845 478 
Q 3156 559 3463 722 
L 3463 178 
Q 3153 47 2828 -22 
Q 2503 -91 2169 -91 
Q 1331 -91 842 396 
Q 353 884 353 1716 
Q 353 2575 817 3079 
Q 1281 3584 2069 3584 
Q 2775 3584 3186 3129 
Q 3597 2675 3597 1894 
z
M 3022 2063 
Q 3016 2534 2758 2815 
Q 2500 3097 2075 3097 
Q 1594 3097 1305 2825 
Q 1016 2553 972 2059 
L 3022 2063 
z
" transform="scale(0.015625)"/>
       <path id="DejaVuSans-20" transform="scale(0.015625)"/>
       <path id="DejaVuSans-66" d="M 2375 4863 
L 2375 4384 
L 1825 4384 
Q 1516 4384 1395 4259 
Q 1275 4134 1275 3809 
L 1275 3500 
L 2222 3500 
L 2222 3053 
L 1275 3053 
L 1275 0 
L 697 0 
L 697 3053 
L 147 3053 
L 147 3500 
L 697 3500 
L 697 3744 
Q 697 4328 969 4595 
Q 1241 4863 1831 4863 
L 2375 4863 
z
" transform="scale(0.015625)"/>
       <path id="DejaVuSans-72" d="M 2631 2963 
Q 2534 3019 2420 3045 
Q 2306 3072 2169 3072 
Q 1681 3072 1420 2755 
Q 1159 2438 1159 1844 
L 1159 0 
L 581 0 
L 581 3500 
L 1159 3500 
L 1159 2956 
Q 1341 3275 1631 3429 
Q 1922 3584 2338 3584 
Q 2397 3584 2469 3576 
Q 2541 3569 2628 3553 
L 2631 2963 
z
" transform="scale(0.015625)"/>
       <path id="DejaVuSans-6f" d="M 1959 3097 
Q 1497 3097 1228 2736 
Q 959 2375 959 1747 
Q 959 1119 1226 758 
Q 1494 397 1959 397 
Q 2419 397 2687 759 
Q 2956 1122 2956 1747 
Q 2956 2369 2687 2733 
Q 2419 3097 1959 3097 
z
M 1959 3584 
Q 2709 3584 3137 3096 
Q 3566 2609 3566 1747 
Q 3566 888 3137 398 
Q 2709 -91 1959 -91 
Q 1206 -91 779 398 
Q 353 888 353 1747 
Q 353 2609 779 3096 
Q 1206 3584 1959 3584 
z
" transform="scale(0.015625)"/>
       <path id="DejaVuSans-53" d="M 3425 4513 
L 3425 3897 
Q 3066 4069 2747 4153 
Q 2428 4238 2131 4238 
Q 1616 4238 1336 4038 
Q 1056 3838 1056 3469 
Q 1056 3159 1242 3001 
Q 1428 2844 1947 2747 
L 2328 2669 
Q 3034 2534 3370 2195 
Q 3706 1856 3706 1288 
Q 3706 609 3251 259 
Q 2797 -91 1919 -91 
Q 1588 -91 1214 -16 
Q 841 59 441 206 
L 441 856 
Q 825 641 1194 531 
Q 1563 422 1919 422 
Q 2459 422 2753 634 
Q 3047 847 3047 1241 
Q 3047 1584 2836 1778 
Q 2625 1972 2144 2069 
L 1759 2144 
Q 1053 2284 737 2584 
Q 422 2884 422 3419 
Q 422 4038 858 4394 
Q 1294 4750 2059 4750 
Q 2388 4750 2728 4690 
Q 3069 4631 3425 4513 
z
" transform="scale(0.015625)"/>
       <path id="DejaVuSans-74" d="M 1172 4494 
L 1172 3500 
L 2356 3500 
L 2356 3053 
L 1172 3053 
L 1172 1153 
Q 1172 725 1289 603 
Q 1406 481 1766 481 
L 2356 481 
L 2356 0 
L 1766 0 
Q 1100 0 847 248 
Q 594 497 594 1153 
L 594 3053 
L 172 3053 
L 172 3500 
L 594 3500 
L 594 4494 
L 1172 4494 
z
" transform="scale(0.015625)"/>
       <path id="DejaVuSans-75" d="M 544 1381 
L 544 3500 
L 1119 3500 
L 1119 1403 
Q 1119 906 1312 657 
Q 1506 409 1894 409 
Q 2359 409 2629 706 
Q 2900 1003 2900 1516 
L 2900 3500 
L 3475 3500 
L 3475 0 
L 2900 0 
L 2900 538 
Q 2691 219 2414 64 
Q 2138 -91 1772 -91 
Q 1169 -91 856 284 
Q 544 659 544 1381 
z
M 1991 3584 
L 1991 3584 
z
" transform="scale(0.015625)"/>
       <path id="DejaVuSans-6c" d="M 603 4863 
L 1178 4863 
L 1178 0 
L 603 0 
L 603 4863 
z
" transform="scale(0.015625)"/>
       <path id="DejaVuSans-73" d="M 2834 3397 
L 2834 2853 
Q 2591 2978 2328 3040 
Q 2066 3103 1784 3103 
Q 1356 3103 1142 2972 
Q 928 2841 928 2578 
Q 928 2378 1081 2264 
Q 1234 2150 1697 2047 
L 1894 2003 
Q 2506 1872 2764 1633 
Q 3022 1394 3022 966 
Q 3022 478 2636 193 
Q 2250 -91 1575 -91 
Q 1294 -91 989 -36 
Q 684 19 347 128 
L 347 722 
Q 666 556 975 473 
Q 1284 391 1588 391 
Q 1994 391 2212 530 
Q 2431 669 2431 922 
Q 2431 1156 2273 1281 
Q 2116 1406 1581 1522 
L 1381 1569 
Q 847 1681 609 1914 
Q 372 2147 372 2553 
Q 372 3047 722 3315 
Q 1072 3584 1716 3584 
Q 2034 3584 2315 3537 
Q 2597 3491 2834 3397 
z
" transform="scale(0.015625)"/>
       <path id="DejaVuSans-4f" d="M 2522 4238 
Q 1834 4238 1429 3725 
Q 1025 3213 1025 2328 
Q 1025 1447 1429 934 
Q 1834 422 2522 422 
Q 3209 422 3611 934 
Q 4013 1447 4013 2328 
Q 4013 3213 3611 3725 
Q 3209 4238 2522 4238 
z
M 2522 4750 
Q 3503 4750 4090 4092 
Q 4678 3434 4678 2328 
Q 4678 1225 4090 567 
Q 3503 -91 2522 -91 
Q 1538 -91 948 565 
Q 359 1222 359 2328 
Q 359 3434 948 4092 
Q 1538 4750 2522 4750 
z
" transform="scale(0.015625)"/>
       <path id="DejaVuSans-6e" d="M 3513 2113 
L 3513 0 
L 2938 0 
L 2938 2094 
Q 2938 2591 2744 2837 
Q 2550 3084 2163 3084 
Q 1697 3084 1428 2787 
Q 1159 2491 1159 1978 
L 1159 0 
L 581 0 
L 581 3500 
L 1159 3500 
L 1159 2956 
Q 1366 3272 1645 3428 
Q 1925 3584 2291 3584 
Q 2894 3584 3203 3211 
Q 3513 2838 3513 2113 
z
" transform="scale(0.015625)"/>
       <path id="DejaVuSans-28" d="M 1984 4856 
Q 1566 4138 1362 3434 
Q 1159 2731 1159 2009 
Q 1159 1288 1364 580 
Q 1569 -128 1984 -844 
L 1484 -844 
Q 1016 -109 783 600 
Q 550 1309 550 2009 
Q 550 2706 781 3412 
Q 1013 4119 1484 4856 
L 1984 4856 
z
" transform="scale(0.015625)"/>
       <path id="DejaVuSans-29" d="M 513 4856 
L 1013 4856 
Q 1481 4119 1714 3412 
Q 1947 2706 1947 2009 
Q 1947 1309 1714 600 
Q 1481 -109 1013 -844 
L 513 -844 
Q 928 -128 1133 580 
Q 1338 1288 1338 2009 
Q 1338 2731 1133 3434 
Q 928 4138 513 4856 
z
" transform="scale(0.015625)"/>
      </defs>
      <use xlink:href="#DejaVuSans-54"/>
      <use xlink:href="#DejaVuSans-69" transform="translate(57.958984 0)"/>
      <use xlink:href="#DejaVuSans-6d" transform="translate(85.742188 0)"/>
      <use xlink:href="#DejaVuSans-65" transform="translate(183.154297 0)"/>
      <use xlink:href="#DejaVuSans-20" transform="translate(244.677734 0)"/>
      <use xlink:href="#DejaVuSans-66" transform="translate(276.464844 0)"/>
      <use xlink:href="#DejaVuSans-72" transform="translate(311.669922 0)"/>
      <use xlink:href="#DejaVuSans-6f" transform="translate(350.533203 0)"/>
      <use xlink:href="#DejaVuSans-6d" transform="translate(411.714844 0)"/>
      <use xlink:href="#DejaVuSans-20" transform="translate(509.126953 0)"/>
      <use xlink:href="#DejaVuSans-53" transform="translate(540.914062 0)"/>
      <use xlink:href="#DejaVuSans-74" transform="translate(604.390625 0)"/>
      <use xlink:href="#DejaVuSans-69" transform="translate(643.599609 0)"/>
      <use xlink:href="#DejaVuSans-6d" transform="translate(671.382812 0)"/>
      <use xlink:href="#DejaVuSans-75" transform="translate(768.794922 0)"/>
      <use xlink:href="#DejaVuSans-6c" transform="translate(832.173828 0)"/>
      <use xlink:href="#DejaVuSans-75" transform="translate(859.957031 0)"/>
      <use xlink:href="#DejaVuSans-73" transform="translate(923.335938 0)"/>
      <use xlink:href="#DejaVuSans-20" transform="translate(975.435547 0)"/>
      <use xlink:href="#DejaVuSans-4f" transform="translate(1007.222656 0)"/>
      <use xlink:href="#DejaVuSans-6e" transform="translate(1085.933594 0)"/>
      <use xlink:href="#DejaVuSans-73" transform="translate(1149.3125 0)"/>
      <use xlink:href="#DejaVuSans-65" transform="translate(1201.412109 0)"/>
      <use xlink:href="#DejaVuSans-74" transform="translate(1262.935547 0)"/>
      <use xlink:href="#DejaVuSans-20" transform="translate(1302.144531 0)"/>
      <use xlink:href="#DejaVuSans-28" transform="translate(1333.931641 0)"/>
      <use xlink:href="#DejaVuSans-6d" transform="translate(1372.945312 0)"/>
      <use xlink:href="#DejaVuSans-73" transform="translate(1470.357422 0)"/>
      <use xlink:href="#DejaVuSans-29" transform="translate(1522.457031 0)"/>
     </g>
    </g>
   </g>
   <g id="matplotlib.axis_2">
    <g id="ytick_1">
     <g id="line2d_8">
      <defs>
       <path id="mddefca34c7" d="M 0 0 
L -3.5 0 
" style="stroke: #000000; stroke-width: 0.8"/>
      </defs>
      <g>
       <use xlink:href="#mddefca34c7" x="100.8" y="351.335187" style="stroke: #000000; stroke-width: 0.8"/>
      </g>
     </g>
     <g id="text_9">
      <!-- −0.005 -->
      <g transform="translate(34.5875 357.413937) scale(0.16 -0.16)">
       <defs>
        <path id="DejaVuSans-2e" d="M 684 794 
L 1344 794 
L 1344 0 
L 684 0 
L 684 794 
z
" transform="scale(0.015625)"/>
       </defs>
       <use xlink:href="#DejaVuSans-2212"/>
       <use xlink:href="#DejaVuSans-30" transform="translate(83.789062 0)"/>
       <use xlink:href="#DejaVuSans-2e" transform="translate(147.412109 0)"/>
       <use xlink:href="#DejaVuSans-30" transform="translate(179.199219 0)"/>
       <use xlink:href="#DejaVuSans-30" transform="translate(242.822266 0)"/>
       <use xlink:href="#DejaVuSans-35" transform="translate(306.445312 0)"/>
      </g>
     </g>
    </g>
    <g id="ytick_2">
     <g id="line2d_9">
      <g>
       <use xlink:href="#mddefca34c7" x="100.8" y="304.414458" style="stroke: #000000; stroke-width: 0.8"/>
      </g>
     </g>
     <g id="text_10">
      <!-- 0.000 -->
      <g transform="translate(47.995 310.493208) scale(0.16 -0.16)">
       <use xlink:href="#DejaVuSans-30"/>
       <use xlink:href="#DejaVuSans-2e" transform="translate(63.623047 0)"/>
       <use xlink:href="#DejaVuSans-30" transform="translate(95.410156 0)"/>
       <use xlink:href="#DejaVuSans-30" transform="translate(159.033203 0)"/>
       <use xlink:href="#DejaVuSans-30" transform="translate(222.65625 0)"/>
      </g>
     </g>
    </g>
    <g id="ytick_3">
     <g id="line2d_10">
      <g>
       <use xlink:href="#mddefca34c7" x="100.8" y="257.493728" style="stroke: #000000; stroke-width: 0.8"/>
      </g>
     </g>
     <g id="text_11">
      <!-- 0.005 -->
      <g transform="translate(47.995 263.572478) scale(0.16 -0.16)">
       <use xlink:href="#DejaVuSans-30"/>
       <use xlink:href="#DejaVuSans-2e" transform="translate(63.623047 0)"/>
       <use xlink:href="#DejaVuSans-30" transform="translate(95.410156 0)"/>
       <use xlink:href="#DejaVuSans-30" transform="translate(159.033203 0)"/>
       <use xlink:href="#DejaVuSans-35" transform="translate(222.65625 0)"/>
      </g>
     </g>
    </g>
    <g id="ytick_4">
     <g id="line2d_11">
      <g>
       <use xlink:href="#mddefca34c7" x="100.8" y="210.572999" style="stroke: #000000; stroke-width: 0.8"/>
      </g>
     </g>
     <g id="text_12">
      <!-- 0.010 -->
      <g transform="translate(47.995 216.651749) scale(0.16 -0.16)">
       <use xlink:href="#DejaVuSans-30"/>
       <use xlink:href="#DejaVuSans-2e" transform="translate(63.623047 0)"/>
       <use xlink:href="#DejaVuSans-30" transform="translate(95.410156 0)"/>
       <use xlink:href="#DejaVuSans-31" transform="translate(159.033203 0)"/>
       <use xlink:href="#DejaVuSans-30" transform="translate(222.65625 0)"/>
      </g>
     </g>
    </g>
    <g id="ytick_5">
     <g id="line2d_12">
      <g>
       <use xlink:href="#mddefca34c7" x="100.8" y="163.65227" style="stroke: #000000; stroke-width: 0.8"/>
      </g>
     </g>
     <g id="text_13">
      <!-- 0.015 -->
      <g transform="translate(47.995 169.73102) scale(0.16 -0.16)">
       <use xlink:href="#DejaVuSans-30"/>
       <use xlink:href="#DejaVuSans-2e" transform="translate(63.623047 0)"/>
       <use xlink:href="#DejaVuSans-30" transform="translate(95.410156 0)"/>
       <use xlink:href="#DejaVuSans-31" transform="translate(159.033203 0)"/>
       <use xlink:href="#DejaVuSans-35" transform="translate(222.65625 0)"/>
      </g>
     </g>
    </g>
    <g id="ytick_6">
     <g id="line2d_13">
      <g>
       <use xlink:href="#mddefca34c7" x="100.8" y="116.731541" style="stroke: #000000; stroke-width: 0.8"/>
      </g>
     </g>
     <g id="text_14">
      <!-- 0.020 -->
      <g transform="translate(47.995 122.810291) scale(0.16 -0.16)">
       <use xlink:href="#DejaVuSans-30"/>
       <use xlink:href="#DejaVuSans-2e" transform="translate(63.623047 0)"/>
       <use xlink:href="#DejaVuSans-30" transform="translate(95.410156 0)"/>
       <use xlink:href="#DejaVuSans-32" transform="translate(159.033203 0)"/>
       <use xlink:href="#DejaVuSans-30" transform="translate(222.65625 0)"/>
      </g>
     </g>
    </g>
    <g id="ytick_7">
     <g id="line2d_14">
      <g>
       <use xlink:href="#mddefca34c7" x="100.8" y="69.810812" style="stroke: #000000; stroke-width: 0.8"/>
      </g>
     </g>
     <g id="text_15">
      <!-- 0.025 -->
      <g transform="translate(47.995 75.889562) scale(0.16 -0.16)">
       <use xlink:href="#DejaVuSans-30"/>
       <use xlink:href="#DejaVuSans-2e" transform="translate(63.623047 0)"/>
       <use xlink:href="#DejaVuSans-30" transform="translate(95.410156 0)"/>
       <use xlink:href="#DejaVuSans-32" transform="translate(159.033203 0)"/>
       <use xlink:href="#DejaVuSans-35" transform="translate(222.65625 0)"/>
      </g>
     </g>
    </g>
    <g id="text_16">
     <!-- Directed predictability gain (bits) -->
     <g transform="translate(26.844062 364.685625) rotate(-90) scale(0.18 -0.18)">
      <defs>
       <path id="DejaVuSans-44" d="M 1259 4147 
L 1259 519 
L 2022 519 
Q 2988 519 3436 956 
Q 3884 1394 3884 2338 
Q 3884 3275 3436 3711 
Q 2988 4147 2022 4147 
L 1259 4147 
z
M 628 4666 
L 1925 4666 
Q 3281 4666 3915 4102 
Q 4550 3538 4550 2338 
Q 4550 1131 3912 565 
Q 3275 0 1925 0 
L 628 0 
L 628 4666 
z
" transform="scale(0.015625)"/>
       <path id="DejaVuSans-63" d="M 3122 3366 
L 3122 2828 
Q 2878 2963 2633 3030 
Q 2388 3097 2138 3097 
Q 1578 3097 1268 2742 
Q 959 2388 959 1747 
Q 959 1106 1268 751 
Q 1578 397 2138 397 
Q 2388 397 2633 464 
Q 2878 531 3122 666 
L 3122 134 
Q 2881 22 2623 -34 
Q 2366 -91 2075 -91 
Q 1284 -91 818 406 
Q 353 903 353 1747 
Q 353 2603 823 3093 
Q 1294 3584 2113 3584 
Q 2378 3584 2631 3529 
Q 2884 3475 3122 3366 
z
" transform="scale(0.015625)"/>
       <path id="DejaVuSans-64" d="M 2906 2969 
L 2906 4863 
L 3481 4863 
L 3481 0 
L 2906 0 
L 2906 525 
Q 2725 213 2448 61 
Q 2172 -91 1784 -91 
Q 1150 -91 751 415 
Q 353 922 353 1747 
Q 353 2572 751 3078 
Q 1150 3584 1784 3584 
Q 2172 3584 2448 3432 
Q 2725 3281 2906 2969 
z
M 947 1747 
Q 947 1113 1208 752 
Q 1469 391 1925 391 
Q 2381 391 2643 752 
Q 2906 1113 2906 1747 
Q 2906 2381 2643 2742 
Q 2381 3103 1925 3103 
Q 1469 3103 1208 2742 
Q 947 2381 947 1747 
z
" transform="scale(0.015625)"/>
       <path id="DejaVuSans-70" d="M 1159 525 
L 1159 -1331 
L 581 -1331 
L 581 3500 
L 1159 3500 
L 1159 2969 
Q 1341 3281 1617 3432 
Q 1894 3584 2278 3584 
Q 2916 3584 3314 3078 
Q 3713 2572 3713 1747 
Q 3713 922 3314 415 
Q 2916 -91 2278 -91 
Q 1894 -91 1617 61 
Q 1341 213 1159 525 
z
M 3116 1747 
Q 3116 2381 2855 2742 
Q 2594 3103 2138 3103 
Q 1681 3103 1420 2742 
Q 1159 2381 1159 1747 
Q 1159 1113 1420 752 
Q 1681 391 2138 391 
Q 2594 391 2855 752 
Q 3116 1113 3116 1747 
z
" transform="scale(0.015625)"/>
       <path id="DejaVuSans-61" d="M 2194 1759 
Q 1497 1759 1228 1600 
Q 959 1441 959 1056 
Q 959 750 1161 570 
Q 1363 391 1709 391 
Q 2188 391 2477 730 
Q 2766 1069 2766 1631 
L 2766 1759 
L 2194 1759 
z
M 3341 1997 
L 3341 0 
L 2766 0 
L 2766 531 
Q 2569 213 2275 61 
Q 1981 -91 1556 -91 
Q 1019 -91 701 211 
Q 384 513 384 1019 
Q 384 1609 779 1909 
Q 1175 2209 1959 2209 
L 2766 2209 
L 2766 2266 
Q 2766 2663 2505 2880 
Q 2244 3097 1772 3097 
Q 1472 3097 1187 3025 
Q 903 2953 641 2809 
L 641 3341 
Q 956 3463 1253 3523 
Q 1550 3584 1831 3584 
Q 2591 3584 2966 3190 
Q 3341 2797 3341 1997 
z
" transform="scale(0.015625)"/>
       <path id="DejaVuSans-62" d="M 3116 1747 
Q 3116 2381 2855 2742 
Q 2594 3103 2138 3103 
Q 1681 3103 1420 2742 
Q 1159 2381 1159 1747 
Q 1159 1113 1420 752 
Q 1681 391 2138 391 
Q 2594 391 2855 752 
Q 3116 1113 3116 1747 
z
M 1159 2969 
Q 1341 3281 1617 3432 
Q 1894 3584 2278 3584 
Q 2916 3584 3314 3078 
Q 3713 2572 3713 1747 
Q 3713 922 3314 415 
Q 2916 -91 2278 -91 
Q 1894 -91 1617 61 
Q 1341 213 1159 525 
L 1159 0 
L 581 0 
L 581 4863 
L 1159 4863 
L 1159 2969 
z
" transform="scale(0.015625)"/>
       <path id="DejaVuSans-79" d="M 2059 -325 
Q 1816 -950 1584 -1140 
Q 1353 -1331 966 -1331 
L 506 -1331 
L 506 -850 
L 844 -850 
Q 1081 -850 1212 -737 
Q 1344 -625 1503 -206 
L 1606 56 
L 191 3500 
L 800 3500 
L 1894 763 
L 2988 3500 
L 3597 3500 
L 2059 -325 
z
" transform="scale(0.015625)"/>
       <path id="DejaVuSans-67" d="M 2906 1791 
Q 2906 2416 2648 2759 
Q 2391 3103 1925 3103 
Q 1463 3103 1205 2759 
Q 947 2416 947 1791 
Q 947 1169 1205 825 
Q 1463 481 1925 481 
Q 2391 481 2648 825 
Q 2906 1169 2906 1791 
z
M 3481 434 
Q 3481 -459 3084 -895 
Q 2688 -1331 1869 -1331 
Q 1566 -1331 1297 -1286 
Q 1028 -1241 775 -1147 
L 775 -588 
Q 1028 -725 1275 -790 
Q 1522 -856 1778 -856 
Q 2344 -856 2625 -561 
Q 2906 -266 2906 331 
L 2906 616 
Q 2728 306 2450 153 
Q 2172 0 1784 0 
Q 1141 0 747 490 
Q 353 981 353 1791 
Q 353 2603 747 3093 
Q 1141 3584 1784 3584 
Q 2172 3584 2450 3431 
Q 2728 3278 2906 2969 
L 2906 3500 
L 3481 3500 
L 3481 434 
z
" transform="scale(0.015625)"/>
      </defs>
      <use xlink:href="#DejaVuSans-44"/>
      <use xlink:href="#DejaVuSans-69" transform="translate(77.001953 0)"/>
      <use xlink:href="#DejaVuSans-72" transform="translate(104.785156 0)"/>
      <use xlink:href="#DejaVuSans-65" transform="translate(143.648438 0)"/>
      <use xlink:href="#DejaVuSans-63" transform="translate(205.171875 0)"/>
      <use xlink:href="#DejaVuSans-74" transform="translate(260.152344 0)"/>
      <use xlink:href="#DejaVuSans-65" transform="translate(299.361328 0)"/>
      <use xlink:href="#DejaVuSans-64" transform="translate(360.884766 0)"/>
      <use xlink:href="#DejaVuSans-20" transform="translate(424.361328 0)"/>
      <use xlink:href="#DejaVuSans-70" transform="translate(456.148438 0)"/>
      <use xlink:href="#DejaVuSans-72" transform="translate(519.625 0)"/>
      <use xlink:href="#DejaVuSans-65" transform="translate(558.488281 0)"/>
      <use xlink:href="#DejaVuSans-64" transform="translate(620.011719 0)"/>
      <use xlink:href="#DejaVuSans-69" transform="translate(683.488281 0)"/>
      <use xlink:href="#DejaVuSans-63" transform="translate(711.271484 0)"/>
      <use xlink:href="#DejaVuSans-74" transform="translate(766.251953 0)"/>
      <use xlink:href="#DejaVuSans-61" transform="translate(805.460938 0)"/>
      <use xlink:href="#DejaVuSans-62" transform="translate(866.740234 0)"/>
      <use xlink:href="#DejaVuSans-69" transform="translate(930.216797 0)"/>
      <use xlink:href="#DejaVuSans-6c" transform="translate(958 0)"/>
      <use xlink:href="#DejaVuSans-69" transform="translate(985.783203 0)"/>
      <use xlink:href="#DejaVuSans-74" transform="translate(1013.566406 0)"/>
      <use xlink:href="#DejaVuSans-79" transform="translate(1052.775391 0)"/>
      <use xlink:href="#DejaVuSans-20" transform="translate(1111.955078 0)"/>
      <use xlink:href="#DejaVuSans-67" transform="translate(1143.742188 0)"/>
      <use xlink:href="#DejaVuSans-61" transform="translate(1207.21875 0)"/>
      <use xlink:href="#DejaVuSans-69" transform="translate(1268.498047 0)"/>
      <use xlink:href="#DejaVuSans-6e" transform="translate(1296.28125 0)"/>
      <use xlink:href="#DejaVuSans-20" transform="translate(1359.660156 0)"/>
      <use xlink:href="#DejaVuSans-28" transform="translate(1391.447266 0)"/>
      <use xlink:href="#DejaVuSans-62" transform="translate(1430.460938 0)"/>
      <use xlink:href="#DejaVuSans-69" transform="translate(1493.9375 0)"/>
      <use xlink:href="#DejaVuSans-74" transform="translate(1521.720703 0)"/>
      <use xlink:href="#DejaVuSans-73" transform="translate(1560.929688 0)"/>
      <use xlink:href="#DejaVuSans-29" transform="translate(1613.029297 0)"/>
     </g>
    </g>
   </g>
   <g id="line2d_15">
    <path d="M 220.8 396 
L 220.8 36 
" clip-path="url(#pa200015911)" style="fill: none; stroke-dasharray: 2.96,1.28; stroke-dashoffset: 0; stroke: #000000; stroke-width: 0.8"/>
   </g>
   <g id="line2d_16">
    <path d="M 100.8 304.414458 
L 820.8 304.414458 
" clip-path="url(#pa200015911)" style="fill: none; stroke-dasharray: 0.8,1.32; stroke-dashoffset: 0; stroke: #000000; stroke-width: 0.8"/>
   </g>
   <g id="line2d_17">
    <path d="M -1 243.673479 
L 4.8 270.972632 
L 16.799998 250.379106 
L 28.799995 287.097955 
L 40.800002 275.57635 
L 52.799999 306.767472 
L 64.799997 301.106308 
L 76.799999 304.717705 
L 88.800001 279.701509 
L 100.800003 294.384123 
L 112.8 279.538416 
L 124.799998 293.615314 
L 136.8 254.296415 
L 148.800002 244.940215 
L 160.799999 236.071124 
L 172.799999 251.518365 
L 184.8 270.864639 
L 196.8 313.032459 
L 208.8 309.977247 
L 220.8 297.225442 
L 232.8 277.68681 
L 244.8 307.4306 
L 256.8 303.309327 
L 268.800001 295.444069 
L 280.800001 275.664807 
L 292.799998 274.373805 
L 304.8 276.772383 
L 316.800002 265.514751 
L 328.8 277.494581 
L 340.799997 291.632445 
L 352.799999 271.358827 
L 364.800001 298.92178 
L 376.800003 297.79836 
L 388.800001 314.099173 
L 400.799998 272.130568 
L 412.800005 258.945734 
L 424.800002 275.518451 
L 436.8 275.899403 
L 448.799997 264.135921 
L 460.799995 233.361799 
L 472.800001 224.596329 
L 484.799999 236.151142 
L 496.799996 234.454874 
L 508.800003 225.80185 
L 520.8 212.330669 
L 532.799989 218.78481 
L 544.799995 268.153971 
L 556.800001 269.406679 
L 568.79999 293.654105 
L 580.799996 264.753229 
L 592.800003 271.189014 
L 604.799991 249.25863 
L 616.799998 236.912943 
L 628.800004 223.591153 
L 640.799993 242.271125 
L 652.799999 233.130535 
L 664.800006 236.338292 
L 676.799994 239.393561 
L 688.800001 280.74038 
L 700.800007 275.393066 
L 712.799996 280.518369 
L 724.800002 290.131165 
L 736.800009 303.780456 
L 748.799997 289.502608 
L 760.800004 279.457129 
L 772.80001 277.924496 
L 784.799999 281.541723 
L 796.800005 274.186254 
L 808.800011 288.066623 
L 820.8 297.344304 
L 832.799989 309.534912 
L 844.799977 302.81929 
L 856.800001 283.783484 
L 857.8 284.940498 
" clip-path="url(#pa200015911)" style="fill: none; stroke: #c00a37; stroke-width: 2.5; stroke-linecap: square"/>
   </g>
   <g id="line2d_18">
    <path d="M -1 266.0242 
L 4.8 269.71223 
L 16.799998 274.349981 
L 28.799995 294.904318 
L 40.800002 290.308487 
L 52.799999 277.810281 
L 64.799997 250.639349 
L 76.799999 276.123665 
L 88.800001 285.470972 
L 100.800003 293.793786 
L 112.8 264.037197 
L 124.799998 253.340402 
L 136.8 270.147183 
L 148.800002 287.683053 
L 160.799999 312.452914 
L 172.799999 315.904454 
L 184.8 342.796089 
L 196.8 343.087768 
L 208.8 322.028935 
L 220.8 306.186092 
L 232.8 292.431661 
L 244.8 311.895654 
L 256.8 310.922721 
L 268.800001 322.876515 
L 280.800001 304.426715 
L 292.799998 305.435194 
L 304.8 305.521838 
L 316.800002 294.436072 
L 328.8 299.920324 
L 340.799997 271.521182 
L 352.799999 271.196405 
L 364.800001 252.793582 
L 376.800003 276.567855 
L 388.800001 292.981035 
L 400.799998 296.814709 
L 412.800005 293.729603 
L 424.800002 281.680048 
L 436.8 288.057873 
L 448.799997 265.363087 
L 460.799995 236.730936 
L 472.800001 187.32487 
L 484.799999 169.486993 
L 496.799996 167.024898 
L 508.800003 175.021859 
L 520.8 196.001725 
L 532.799989 224.112501 
L 544.799995 215.993802 
L 556.800001 235.1213 
L 568.79999 249.527188 
L 580.799996 264.591396 
L 592.800003 244.3044 
L 604.799991 223.406853 
L 616.799998 233.663534 
L 628.800004 206.837194 
L 640.799993 197.388864 
L 652.799999 144.442577 
L 664.800006 146.748412 
L 676.799994 174.8168 
L 688.800001 189.101145 
L 700.800007 207.285111 
L 712.799996 195.903095 
L 724.800002 244.589577 
L 736.800009 218.400012 
L 748.799997 199.542078 
L 760.800004 165.040996 
L 772.80001 174.634436 
L 784.799999 149.665468 
L 796.800005 185.857096 
L 808.800011 215.116667 
L 820.8 259.528128 
L 832.799989 270.454093 
L 844.799977 307.888266 
L 856.800001 327.831284 
L 857.8 326.301539 
" clip-path="url(#pa200015911)" style="fill: none; stroke: #0e87cc; stroke-width: 2.5; stroke-linecap: square"/>
   </g>
   <g id="patch_3">
    <path d="M 100.8 396 
L 100.8 36 
" style="fill: none; stroke: #000000; stroke-width: 0.8; stroke-linejoin: miter; stroke-linecap: square"/>
   </g>
   <g id="patch_4">
    <path d="M 820.8 396 
L 820.8 36 
" style="fill: none; stroke: #000000; stroke-width: 0.8; stroke-linejoin: miter; stroke-linecap: square"/>
   </g>
   <g id="patch_5">
    <path d="M 100.8 396 
L 820.8 396 
" style="fill: none; stroke: #000000; stroke-width: 0.8; stroke-linejoin: miter; stroke-linecap: square"/>
   </g>
   <g id="patch_6">
    <path d="M 100.8 36 
L 820.8 36 
" style="fill: none; stroke: #000000; stroke-width: 0.8; stroke-linejoin: miter; stroke-linecap: square"/>
   </g>
   <g id="PathCollection_1">
    <defs>
     <path id="m42b36c6d85" d="M 0 1.870829 
C 0.49615 1.870829 0.972045 1.673706 1.322876 1.322876 
C 1.673706 0.972045 1.870829 0.49615 1.870829 0 
C 1.870829 -0.49615 1.673706 -0.972045 1.322876 -1.322876 
C 0.972045 -1.673706 0.49615 -1.870829 0 -1.870829 
C -0.49615 -1.870829 -0.972045 -1.673706 -1.322876 -1.322876 
C -1.673706 -0.972045 -1.870829 -0.49615 -1.870829 0 
C -1.870829 0.49615 -1.673706 0.972045 -1.322876 1.322876 
C -0.972045 1.673706 -0.49615 1.870829 0 1.870829 
z
" style="stroke: #000000"/>
    </defs>
    <g clip-path="url(#pa200015911)">
     <use xlink:href="#m42b36c6d85" x="184.8" y="378" style="stroke: #000000"/>
     <use xlink:href="#m42b36c6d85" x="196.8" y="378" style="stroke: #000000"/>
    </g>
   </g>
   <g id="legend_1">
    <g id="line2d_19">
     <path d="M 114.3 55.647656 
L 129.3 55.647656 
L 144.3 55.647656 
" style="fill: none; stroke: #c00a37; stroke-width: 2.5; stroke-linecap: square"/>
    </g>
    <g id="text_17">
     <!-- SLIP→SFEF -->
     <g transform="translate(156.3 60.897656) scale(0.15 -0.15)">
      <defs>
       <path id="DejaVuSans-4c" d="M 628 4666 
L 1259 4666 
L 1259 531 
L 3531 531 
L 3531 0 
L 628 0 
L 628 4666 
z
" transform="scale(0.015625)"/>
       <path id="DejaVuSans-49" d="M 628 4666 
L 1259 4666 
L 1259 0 
L 628 0 
L 628 4666 
z
" transform="scale(0.015625)"/>
       <path id="DejaVuSans-50" d="M 1259 4147 
L 1259 2394 
L 2053 2394 
Q 2494 2394 2734 2622 
Q 2975 2850 2975 3272 
Q 2975 3691 2734 3919 
Q 2494 4147 2053 4147 
L 1259 4147 
z
M 628 4666 
L 2053 4666 
Q 2838 4666 3239 4311 
Q 3641 3956 3641 3272 
Q 3641 2581 3239 2228 
Q 2838 1875 2053 1875 
L 1259 1875 
L 1259 0 
L 628 0 
L 628 4666 
z
" transform="scale(0.015625)"/>
       <path id="DejaVuSans-2192" d="M 5050 2147 
L 5050 1866 
L 3822 638 
L 3447 1013 
L 4175 1741 
L 366 1741 
L 366 2272 
L 4175 2272 
L 3447 3000 
L 3822 3375 
L 5050 2147 
z
" transform="scale(0.015625)"/>
       <path id="DejaVuSans-46" d="M 628 4666 
L 3309 4666 
L 3309 4134 
L 1259 4134 
L 1259 2759 
L 3109 2759 
L 3109 2228 
L 1259 2228 
L 1259 0 
L 628 0 
L 628 4666 
z
" transform="scale(0.015625)"/>
       <path id="DejaVuSans-45" d="M 628 4666 
L 3578 4666 
L 3578 4134 
L 1259 4134 
L 1259 2753 
L 3481 2753 
L 3481 2222 
L 1259 2222 
L 1259 531 
L 3634 531 
L 3634 0 
L 628 0 
L 628 4666 
z
" transform="scale(0.015625)"/>
      </defs>
      <use xlink:href="#DejaVuSans-53"/>
      <use xlink:href="#DejaVuSans-4c" transform="translate(63.476562 0)"/>
      <use xlink:href="#DejaVuSans-49" transform="translate(119.189453 0)"/>
      <use xlink:href="#DejaVuSans-50" transform="translate(148.681641 0)"/>
      <use xlink:href="#DejaVuSans-2192" transform="translate(208.984375 0)"/>
      <use xlink:href="#DejaVuSans-53" transform="translate(292.773438 0)"/>
      <use xlink:href="#DejaVuSans-46" transform="translate(356.25 0)"/>
      <use xlink:href="#DejaVuSans-45" transform="translate(413.769531 0)"/>
      <use xlink:href="#DejaVuSans-46" transform="translate(476.953125 0)"/>
     </g>
    </g>
    <g id="line2d_20">
     <path d="M 114.3 77.664844 
L 129.3 77.664844 
L 144.3 77.664844 
" style="fill: none; stroke: #0e87cc; stroke-width: 2.5; stroke-linecap: square"/>
    </g>
    <g id="text_18">
     <!-- SFEF→SLIP -->
     <g transform="translate(156.3 82.914844) scale(0.15 -0.15)">
      <use xlink:href="#DejaVuSans-53"/>
      <use xlink:href="#DejaVuSans-46" transform="translate(63.476562 0)"/>
      <use xlink:href="#DejaVuSans-45" transform="translate(120.996094 0)"/>
      <use xlink:href="#DejaVuSans-46" transform="translate(184.179688 0)"/>
      <use xlink:href="#DejaVuSans-2192" transform="translate(241.699219 0)"/>
      <use xlink:href="#DejaVuSans-53" transform="translate(325.488281 0)"/>
      <use xlink:href="#DejaVuSans-4c" transform="translate(388.964844 0)"/>
      <use xlink:href="#DejaVuSans-49" transform="translate(444.677734 0)"/>
      <use xlink:href="#DejaVuSans-50" transform="translate(474.169922 0)"/>
     </g>
    </g>
    <g id="PathCollection_2">
     <g>
      <use xlink:href="#m42b36c6d85" x="129.3" y="100.994531" style="stroke: #000000"/>
     </g>
    </g>
    <g id="text_19">
     <!-- p&lt;α -->
     <g transform="translate(156.3 104.932031) scale(0.15 -0.15)">
      <defs>
       <path id="DejaVuSans-3c" d="M 4684 3150 
L 1459 2003 
L 4684 863 
L 4684 294 
L 678 1747 
L 678 2266 
L 4684 3719 
L 4684 3150 
z
" transform="scale(0.015625)"/>
       <path id="DejaVuSans-3b1" d="M 2644 1628 
L 2506 2350 
Q 2366 3091 1809 3091 
Q 1391 3091 1200 2747 
Q 959 2316 959 1747 
Q 959 1059 1194 731 
Q 1431 397 1809 397 
Q 2228 397 2453 1063 
L 2644 1628 
z
M 2966 2584 
L 3275 3500 
L 3788 3500 
L 3147 1603 
L 3272 919 
Q 3300 766 3409 638 
Q 3538 488 3638 488 
L 3913 488 
L 3913 0 
L 3569 0 
Q 3275 0 3013 263 
Q 2884 394 2831 669 
Q 2688 322 2394 50 
Q 2256 -78 1809 -78 
Q 1075 -78 719 397 
Q 353 888 353 1747 
Q 353 2666 750 3097 
Q 1191 3578 1809 3578 
Q 2781 3578 2966 2584 
z
" transform="scale(0.015625)"/>
      </defs>
      <use xlink:href="#DejaVuSans-70"/>
      <use xlink:href="#DejaVuSans-3c" transform="translate(63.476562 0)"/>
      <use xlink:href="#DejaVuSans-3b1" transform="translate(147.265625 0)"/>
     </g>
    </g>
   </g>
  </g>
 </g>
 <defs>
  <clipPath id="pa200015911">
   <rect x="100.8" y="36" width="720" height="360"/>
  </clipPath>
 </defs>
</svg>
