<?xml version="1.0" encoding="utf-8" standalone="no"?>
<!DOCTYPE svg PUBLIC "-//W3C//DTD SVG 1.1//EN"
  "http://www.w3.org/Graphics/SVG/1.1/DTD/svg11.dtd">
<svg xmlns:xlink="http://www.w3.org/1999/xlink" width="561.6pt" height="561.6pt" viewBox="0 0 561.6 561.6" xmlns="http://www.w3.org/2000/svg" version="1.1">
 <metadata>
  <rdf:RDF xmlns:dc="http://purl.org/dc/elements/1.1/" xmlns:cc="http://creativecommons.org/ns#" xmlns:rdf="http://www.w3.org/1999/02/22-rdf-syntax-ns#">
   <cc:Work>
    <dc:type rdf:resource="http://purl.org/dc/dcmitype/StillImage"/>
    <dc:date>2025-12-08T15:56:28.374072</dc:date>
    <dc:format>image/svg+xml</dc:format>
    <dc:creator>
     <cc:Agent>
      <dc:title>Matplotlib v3.10.5, https://matplotlib.org/</dc:title>
     </cc:Agent>
    </dc:creator>
   </cc:Work>
  </rdf:RDF>
 </metadata>
 <defs>
  <style type="text/css">*{stroke-linejoin: round; stroke-linecap: butt}</style>
 </defs>
 <g id="figure_1">
  <g id="patch_1">
   <path d="M 0 561.6 
L 561.6 561.6 
L 561.6 0 
L 0 0 
z
" style="fill: #ffffff"/>
  </g>
  <g id="axes_1">
   <g id="patch_2">
    <path d="M 70.2 206.388 
L 505.44 206.388 
L 505.44 67.392 
L 70.2 67.392 
z
" style="fill: #ffffff"/>
   </g>
   <g id="FillBetweenPolyCollection_1">
    <defs>
     <path id="m37a5f9338e" d="M 89.983636 -406.025314 
L 89.983636 -371.205976 
L 93.980327 -369.580208 
L 97.977023 -368.298434 
L 101.973713 -370.507858 
L 105.97041 -368.908063 
L 109.967106 -370.167035 
L 113.963796 -370.9288 
L 117.960493 -369.85354 
L 121.957186 -369.941461 
L 125.953882 -369.094306 
L 129.950576 -370.807191 
L 133.947269 -369.08448 
L 137.943962 -370.14407 
L 141.940659 -369.785214 
L 145.937352 -370.050862 
L 149.934045 -370.677947 
L 153.93074 -368.954427 
L 157.927434 -369.595654 
L 161.924129 -370.104476 
L 165.920823 -369.137625 
L 169.917517 -369.486955 
L 173.914211 -375.290568 
L 177.910906 -368.608142 
L 181.9076 -370.714068 
L 185.904294 -368.047916 
L 189.900988 -369.67643 
L 193.897681 -371.000538 
L 197.894377 -370.698358 
L 201.891071 -369.883891 
L 205.887764 -369.573866 
L 209.884457 -369.300515 
L 213.881154 -368.158025 
L 217.877847 -371.430762 
L 221.874543 -371.54857 
L 225.871234 -371.467988 
L 229.86793 -370.055767 
L 233.864626 -370.101684 
L 237.861317 -369.022591 
L 241.858013 -370.947136 
L 245.854704 -369.251334 
L 249.8514 -372.529806 
L 253.848096 -370.649908 
L 257.844787 -372.497567 
L 261.841483 -370.331539 
L 265.838179 -369.701081 
L 269.83487 -371.651867 
L 273.83156 -369.691339 
L 277.828262 -369.2596 
L 281.824953 -370.740029 
L 285.821643 -371.452218 
L 289.818345 -369.937576 
L 293.815036 -370.50672 
L 297.811726 -369.619837 
L 301.808428 -369.728802 
L 305.805119 -368.349851 
L 309.801809 -369.94873 
L 313.798511 -370.188485 
L 317.795202 -370.21327 
L 321.791892 -369.080977 
L 325.788594 -370.020084 
L 329.785285 -369.426843 
L 333.781975 -369.606524 
L 337.778677 -370.099333 
L 341.775368 -370.986153 
L 345.772058 -369.882638 
L 349.76876 -368.498142 
L 353.765451 -371.725834 
L 357.762141 -370.558029 
L 361.758843 -371.549512 
L 365.755534 -369.88214 
L 369.752224 -374.047075 
L 373.748914 -371.920621 
L 377.745605 -368.88593 
L 381.742319 -369.89479 
L 385.739009 -370.567368 
L 389.7357 -371.079703 
L 393.73239 -373.980254 
L 397.72908 -370.219759 
L 401.725771 -369.640402 
L 405.722485 -372.211924 
L 409.719175 -371.373347 
L 413.715866 -370.901916 
L 417.712556 -372.099303 
L 421.709246 -370.181426 
L 425.705937 -370.723675 
L 429.702627 -371.156885 
L 433.699341 -370.612001 
L 437.696032 -369.614915 
L 441.692722 -369.51391 
L 445.689412 -370.438677 
L 449.686103 -367.744797 
L 453.682793 -371.218824 
L 457.679507 -368.8675 
L 461.676198 -370.216166 
L 465.672888 -370.164892 
L 469.669578 -370.243194 
L 473.666269 -369.915325 
L 477.662959 -368.888442 
L 481.659673 -369.564758 
L 485.656364 -370.847719 
L 485.656364 -405.338857 
L 485.656364 -405.338857 
L 481.659673 -408.65382 
L 477.662959 -405.405474 
L 473.666269 -405.731831 
L 469.669578 -403.50742 
L 465.672888 -405.298772 
L 461.676198 -406.68851 
L 457.679507 -405.286105 
L 453.682793 -407.773907 
L 449.686103 -404.583454 
L 445.689412 -406.955637 
L 441.692722 -405.194811 
L 437.696032 -403.63804 
L 433.699341 -405.358527 
L 429.702627 -404.124719 
L 425.705937 -403.91597 
L 421.709246 -405.7281 
L 417.712556 -410.903867 
L 413.715866 -408.172882 
L 409.719175 -403.976448 
L 405.722485 -408.72342 
L 401.725771 -404.43172 
L 397.72908 -403.864018 
L 393.73239 -413.402826 
L 389.7357 -405.257624 
L 385.739009 -405.295499 
L 381.742319 -406.155888 
L 377.745605 -401.822132 
L 373.748914 -408.391995 
L 369.752224 -412.506122 
L 365.755534 -408.235509 
L 361.758843 -406.013231 
L 357.762141 -403.636147 
L 353.765451 -408.300319 
L 349.76876 -402.164268 
L 345.772058 -404.955063 
L 341.775368 -406.092058 
L 337.778677 -405.430239 
L 333.781975 -403.464412 
L 329.785285 -408.444211 
L 325.788594 -403.679637 
L 321.791892 -401.969684 
L 317.795202 -406.898606 
L 313.798511 -404.278969 
L 309.801809 -404.491987 
L 305.805119 -404.914269 
L 301.808428 -405.5128 
L 297.811726 -402.488452 
L 293.815036 -404.09574 
L 289.818345 -406.955754 
L 285.821643 -407.990841 
L 281.824953 -407.880598 
L 277.828262 -407.32543 
L 273.83156 -405.781736 
L 269.83487 -405.84938 
L 265.838179 -404.815981 
L 261.841483 -404.076337 
L 257.844787 -409.493205 
L 253.848096 -405.892961 
L 249.8514 -412.225839 
L 245.854704 -403.117742 
L 241.858013 -405.458195 
L 237.861317 -409.004029 
L 233.864626 -404.161169 
L 229.86793 -404.631205 
L 225.871234 -405.184184 
L 221.874543 -402.890835 
L 217.877847 -410.665178 
L 213.881154 -406.988463 
L 209.884457 -402.255042 
L 205.887764 -404.913205 
L 201.891071 -404.251194 
L 197.894377 -403.519612 
L 193.897681 -406.369627 
L 189.900988 -407.807692 
L 185.904294 -407.868377 
L 181.9076 -402.603562 
L 177.910906 -403.201041 
L 173.914211 -417.322208 
L 169.917517 -406.74925 
L 165.920823 -401.553344 
L 161.924129 -405.221726 
L 157.927434 -403.963191 
L 153.93074 -405.85198 
L 149.934045 -405.633678 
L 145.937352 -406.360372 
L 141.940659 -405.395527 
L 137.943962 -404.576318 
L 133.947269 -400.801456 
L 129.950576 -404.165048 
L 125.953882 -402.431037 
L 121.957186 -404.67983 
L 117.960493 -405.341482 
L 113.963796 -405.362328 
L 109.967106 -401.760842 
L 105.97041 -408.2809 
L 101.973713 -406.217341 
L 97.977023 -404.781792 
L 93.980327 -402.919297 
L 89.983636 -406.025314 
z
"/>
    </defs>
    <g clip-path="url(#pa6bb751ba4)">
     <use xlink:href="#m37a5f9338e" x="0" y="561.6" style="fill: #1f77b4; fill-opacity: 0.15"/>
    </g>
   </g>
   <g id="FillBetweenPolyCollection_2">
    <defs>
     <path id="mba250d3303" d="M 89.983636 -403.576373 
L 89.983636 -369.634503 
L 93.980327 -369.166539 
L 97.977023 -370.984422 
L 101.973713 -370.460092 
L 105.97041 -370.005033 
L 109.967106 -369.429388 
L 113.963796 -371.562444 
L 117.960493 -369.735632 
L 121.957186 -370.62956 
L 125.953882 -370.432842 
L 129.950576 -371.106533 
L 133.947269 -369.680749 
L 137.943962 -370.552845 
L 141.940659 -369.893385 
L 145.937352 -370.124227 
L 149.934045 -370.199888 
L 153.93074 -369.333114 
L 157.927434 -370.895815 
L 161.924129 -369.79973 
L 165.920823 -370.033829 
L 169.917517 -370.346091 
L 173.914211 -370.442654 
L 177.910906 -370.516515 
L 181.9076 -370.502559 
L 185.904294 -372.17523 
L 189.900988 -369.78754 
L 193.897681 -371.363428 
L 197.894377 -369.786966 
L 201.891071 -370.303075 
L 205.887764 -371.734823 
L 209.884457 -370.346467 
L 213.881154 -370.714359 
L 217.877847 -369.163311 
L 221.874543 -369.185759 
L 225.871234 -370.765554 
L 229.86793 -369.758693 
L 233.864626 -369.96201 
L 237.861317 -372.095293 
L 241.858013 -370.04859 
L 245.854704 -369.294815 
L 249.8514 -370.244245 
L 253.848096 -370.566152 
L 257.844787 -371.511204 
L 261.841483 -370.134062 
L 265.838179 -369.81857 
L 269.83487 -370.355561 
L 273.83156 -368.144457 
L 277.828262 -369.319469 
L 281.824953 -369.510703 
L 285.821643 -371.339444 
L 289.818345 -368.907479 
L 293.815036 -369.961397 
L 297.811726 -368.945269 
L 301.808428 -369.634451 
L 305.805119 -370.171469 
L 309.801809 -369.925586 
L 313.798511 -370.374322 
L 317.795202 -369.759538 
L 321.791892 -368.405598 
L 325.788594 -367.667831 
L 329.785285 -369.265157 
L 333.781975 -370.938864 
L 337.778677 -370.3188 
L 341.775368 -369.328153 
L 345.772058 -370.23636 
L 349.76876 -371.176225 
L 353.765451 -369.512468 
L 357.762141 -369.581992 
L 361.758843 -370.209862 
L 365.755534 -370.337229 
L 369.752224 -369.873377 
L 373.748914 -369.260638 
L 377.745605 -369.413478 
L 381.742319 -369.087883 
L 385.739009 -369.721888 
L 389.7357 -371.341825 
L 393.73239 -370.733963 
L 397.72908 -369.244985 
L 401.725771 -368.800359 
L 405.722485 -370.24021 
L 409.719175 -368.8376 
L 413.715866 -371.141124 
L 417.712556 -368.892782 
L 421.709246 -369.649087 
L 425.705937 -371.075672 
L 429.702627 -370.79881 
L 433.699341 -369.513435 
L 437.696032 -369.158914 
L 441.692722 -370.544135 
L 445.689412 -369.721433 
L 449.686103 -370.302457 
L 453.682793 -369.547989 
L 457.679507 -370.723711 
L 461.676198 -370.525884 
L 465.672888 -370.973542 
L 469.669578 -373.513572 
L 473.666269 -370.488549 
L 477.662959 -369.234218 
L 481.659673 -370.526713 
L 485.656364 -369.604388 
L 485.656364 -405.712065 
L 485.656364 -405.712065 
L 481.659673 -405.884608 
L 477.662959 -402.098651 
L 473.666269 -406.620787 
L 469.669578 -413.792477 
L 465.672888 -404.566713 
L 461.676198 -408.877016 
L 457.679507 -407.6097 
L 453.682793 -404.758445 
L 449.686103 -407.072705 
L 445.689412 -405.125001 
L 441.692722 -404.421711 
L 437.696032 -405.204276 
L 433.699341 -406.352732 
L 429.702627 -405.843994 
L 425.705937 -405.451437 
L 421.709246 -403.564604 
L 417.712556 -403.539305 
L 413.715866 -405.377935 
L 409.719175 -405.625876 
L 405.722485 -404.798945 
L 401.725771 -405.455841 
L 397.72908 -402.543832 
L 393.73239 -406.127312 
L 389.7357 -406.766145 
L 385.739009 -404.916579 
L 381.742319 -406.555292 
L 377.745605 -405.26905 
L 373.748914 -405.44644 
L 369.752224 -407.021491 
L 365.755534 -403.886577 
L 361.758843 -400.989736 
L 357.762141 -406.890675 
L 353.765451 -405.096189 
L 349.76876 -404.395605 
L 345.772058 -406.351183 
L 341.775368 -402.337879 
L 337.778677 -403.647623 
L 333.781975 -405.163443 
L 329.785285 -403.860388 
L 325.788594 -404.020537 
L 321.791892 -406.320726 
L 317.795202 -402.261279 
L 313.798511 -407.102215 
L 309.801809 -404.952548 
L 305.805119 -405.679311 
L 301.808428 -403.480602 
L 297.811726 -405.340187 
L 293.815036 -406.700293 
L 289.818345 -404.397339 
L 285.821643 -404.979135 
L 281.824953 -406.557926 
L 277.828262 -407.486452 
L 273.83156 -405.476654 
L 269.83487 -405.169929 
L 265.838179 -404.066522 
L 261.841483 -402.823734 
L 257.844787 -404.756998 
L 253.848096 -404.424348 
L 249.8514 -404.954585 
L 245.854704 -405.481232 
L 241.858013 -405.747132 
L 237.861317 -405.880239 
L 233.864626 -404.987308 
L 229.86793 -406.660455 
L 225.871234 -404.730626 
L 221.874543 -404.944838 
L 217.877847 -405.600418 
L 213.881154 -405.601461 
L 209.884457 -408.199725 
L 205.887764 -404.099994 
L 201.891071 -405.8491 
L 197.894377 -405.560725 
L 193.897681 -408.01604 
L 189.900988 -406.03176 
L 185.904294 -409.112586 
L 181.9076 -407.273819 
L 177.910906 -404.508725 
L 173.914211 -403.110556 
L 169.917517 -405.037948 
L 165.920823 -405.952603 
L 161.924129 -401.488398 
L 157.927434 -405.728762 
L 153.93074 -405.336357 
L 149.934045 -405.424689 
L 145.937352 -404.385869 
L 141.940659 -405.573544 
L 137.943962 -403.446927 
L 133.947269 -408.070482 
L 129.950576 -400.280645 
L 125.953882 -403.893853 
L 121.957186 -405.077205 
L 117.960493 -405.537272 
L 113.963796 -407.197492 
L 109.967106 -403.932564 
L 105.97041 -405.701496 
L 101.973713 -403.024718 
L 97.977023 -404.859115 
L 93.980327 -403.432825 
L 89.983636 -403.576373 
z
"/>
    </defs>
    <g clip-path="url(#pa6bb751ba4)">
     <use xlink:href="#mba250d3303" x="0" y="561.6" style="fill: #ff7f0e; fill-opacity: 0.15"/>
    </g>
   </g>
   <g id="matplotlib.axis_1">
    <g id="xtick_1">
     <g id="line2d_1">
      <defs>
       <path id="m5fc2e3273a" d="M 0 0 
L 0 3.5 
" style="stroke: #000000; stroke-width: 0.8"/>
      </defs>
      <g>
       <use xlink:href="#m5fc2e3273a" x="87.985286" y="206.388" style="stroke: #000000; stroke-width: 0.8"/>
      </g>
     </g>
     <g id="text_1">
      <!-- −200 -->
      <g transform="translate(74.251693 220.986437) scale(0.1 -0.1)">
       <defs>
        <path id="DejaVuSans-2212" d="M 678 2272 
L 4684 2272 
L 4684 1741 
L 678 1741 
L 678 2272 
z
" transform="scale(0.015625)"/>
        <path id="DejaVuSans-32" d="M 1228 531 
L 3431 531 
L 3431 0 
L 469 0 
L 469 531 
Q 828 903 1448 1529 
Q 2069 2156 2228 2338 
Q 2531 2678 2651 2914 
Q 2772 3150 2772 3378 
Q 2772 3750 2511 3984 
Q 2250 4219 1831 4219 
Q 1534 4219 1204 4116 
Q 875 4013 500 3803 
L 500 4441 
Q 881 4594 1212 4672 
Q 1544 4750 1819 4750 
Q 2544 4750 2975 4387 
Q 3406 4025 3406 3419 
Q 3406 3131 3298 2873 
Q 3191 2616 2906 2266 
Q 2828 2175 2409 1742 
Q 1991 1309 1228 531 
z
" transform="scale(0.015625)"/>
        <path id="DejaVuSans-30" d="M 2034 4250 
Q 1547 4250 1301 3770 
Q 1056 3291 1056 2328 
Q 1056 1369 1301 889 
Q 1547 409 2034 409 
Q 2525 409 2770 889 
Q 3016 1369 3016 2328 
Q 3016 3291 2770 3770 
Q 2525 4250 2034 4250 
z
M 2034 4750 
Q 2819 4750 3233 4129 
Q 3647 3509 3647 2328 
Q 3647 1150 3233 529 
Q 2819 -91 2034 -91 
Q 1250 -91 836 529 
Q 422 1150 422 2328 
Q 422 3509 836 4129 
Q 1250 4750 2034 4750 
z
" transform="scale(0.015625)"/>
       </defs>
       <use xlink:href="#DejaVuSans-2212"/>
       <use xlink:href="#DejaVuSans-32" transform="translate(83.789062 0)"/>
       <use xlink:href="#DejaVuSans-30" transform="translate(147.412109 0)"/>
       <use xlink:href="#DejaVuSans-30" transform="translate(211.035156 0)"/>
      </g>
     </g>
    </g>
    <g id="xtick_2">
     <g id="line2d_2">
      <g>
       <use xlink:href="#m5fc2e3273a" x="167.91917" y="206.388" style="stroke: #000000; stroke-width: 0.8"/>
      </g>
     </g>
     <g id="text_2">
      <!-- 0 -->
      <g transform="translate(164.73792 220.986437) scale(0.1 -0.1)">
       <use xlink:href="#DejaVuSans-30"/>
      </g>
     </g>
    </g>
    <g id="xtick_3">
     <g id="line2d_3">
      <g>
       <use xlink:href="#m5fc2e3273a" x="247.853053" y="206.388" style="stroke: #000000; stroke-width: 0.8"/>
      </g>
     </g>
     <g id="text_3">
      <!-- 200 -->
      <g transform="translate(238.309303 220.986437) scale(0.1 -0.1)">
       <use xlink:href="#DejaVuSans-32"/>
       <use xlink:href="#DejaVuSans-30" transform="translate(63.623047 0)"/>
       <use xlink:href="#DejaVuSans-30" transform="translate(127.246094 0)"/>
      </g>
     </g>
    </g>
    <g id="xtick_4">
     <g id="line2d_4">
      <g>
       <use xlink:href="#m5fc2e3273a" x="327.786937" y="206.388" style="stroke: #000000; stroke-width: 0.8"/>
      </g>
     </g>
     <g id="text_4">
      <!-- 400 -->
      <g transform="translate(318.243187 220.986437) scale(0.1 -0.1)">
       <defs>
        <path id="DejaVuSans-34" d="M 2419 4116 
L 825 1625 
L 2419 1625 
L 2419 4116 
z
M 2253 4666 
L 3047 4666 
L 3047 1625 
L 3713 1625 
L 3713 1100 
L 3047 1100 
L 3047 0 
L 2419 0 
L 2419 1100 
L 313 1100 
L 313 1709 
L 2253 4666 
z
" transform="scale(0.015625)"/>
       </defs>
       <use xlink:href="#DejaVuSans-34"/>
       <use xlink:href="#DejaVuSans-30" transform="translate(63.623047 0)"/>
       <use xlink:href="#DejaVuSans-30" transform="translate(127.246094 0)"/>
      </g>
     </g>
    </g>
    <g id="xtick_5">
     <g id="line2d_5">
      <g>
       <use xlink:href="#m5fc2e3273a" x="407.720821" y="206.388" style="stroke: #000000; stroke-width: 0.8"/>
      </g>
     </g>
     <g id="text_5">
      <!-- 600 -->
      <g transform="translate(398.177071 220.986437) scale(0.1 -0.1)">
       <defs>
        <path id="DejaVuSans-36" d="M 2113 2584 
Q 1688 2584 1439 2293 
Q 1191 2003 1191 1497 
Q 1191 994 1439 701 
Q 1688 409 2113 409 
Q 2538 409 2786 701 
Q 3034 994 3034 1497 
Q 3034 2003 2786 2293 
Q 2538 2584 2113 2584 
z
M 3366 4563 
L 3366 3988 
Q 3128 4100 2886 4159 
Q 2644 4219 2406 4219 
Q 1781 4219 1451 3797 
Q 1122 3375 1075 2522 
Q 1259 2794 1537 2939 
Q 1816 3084 2150 3084 
Q 2853 3084 3261 2657 
Q 3669 2231 3669 1497 
Q 3669 778 3244 343 
Q 2819 -91 2113 -91 
Q 1303 -91 875 529 
Q 447 1150 447 2328 
Q 447 3434 972 4092 
Q 1497 4750 2381 4750 
Q 2619 4750 2861 4703 
Q 3103 4656 3366 4563 
z
" transform="scale(0.015625)"/>
       </defs>
       <use xlink:href="#DejaVuSans-36"/>
       <use xlink:href="#DejaVuSans-30" transform="translate(63.623047 0)"/>
       <use xlink:href="#DejaVuSans-30" transform="translate(127.246094 0)"/>
      </g>
     </g>
    </g>
    <g id="xtick_6">
     <g id="line2d_6">
      <g>
       <use xlink:href="#m5fc2e3273a" x="487.654704" y="206.388" style="stroke: #000000; stroke-width: 0.8"/>
      </g>
     </g>
     <g id="text_6">
      <!-- 800 -->
      <g transform="translate(478.110954 220.986437) scale(0.1 -0.1)">
       <defs>
        <path id="DejaVuSans-38" d="M 2034 2216 
Q 1584 2216 1326 1975 
Q 1069 1734 1069 1313 
Q 1069 891 1326 650 
Q 1584 409 2034 409 
Q 2484 409 2743 651 
Q 3003 894 3003 1313 
Q 3003 1734 2745 1975 
Q 2488 2216 2034 2216 
z
M 1403 2484 
Q 997 2584 770 2862 
Q 544 3141 544 3541 
Q 544 4100 942 4425 
Q 1341 4750 2034 4750 
Q 2731 4750 3128 4425 
Q 3525 4100 3525 3541 
Q 3525 3141 3298 2862 
Q 3072 2584 2669 2484 
Q 3125 2378 3379 2068 
Q 3634 1759 3634 1313 
Q 3634 634 3220 271 
Q 2806 -91 2034 -91 
Q 1263 -91 848 271 
Q 434 634 434 1313 
Q 434 1759 690 2068 
Q 947 2378 1403 2484 
z
M 1172 3481 
Q 1172 3119 1398 2916 
Q 1625 2713 2034 2713 
Q 2441 2713 2670 2916 
Q 2900 3119 2900 3481 
Q 2900 3844 2670 4047 
Q 2441 4250 2034 4250 
Q 1625 4250 1398 4047 
Q 1172 3844 1172 3481 
z
" transform="scale(0.015625)"/>
       </defs>
       <use xlink:href="#DejaVuSans-38"/>
       <use xlink:href="#DejaVuSans-30" transform="translate(63.623047 0)"/>
       <use xlink:href="#DejaVuSans-30" transform="translate(127.246094 0)"/>
      </g>
     </g>
    </g>
   </g>
   <g id="matplotlib.axis_2">
    <g id="ytick_1">
     <g id="line2d_7">
      <defs>
       <path id="mca05d40fae" d="M 0 0 
L -3.5 0 
" style="stroke: #000000; stroke-width: 0.8"/>
      </defs>
      <g>
       <use xlink:href="#mca05d40fae" x="70.2" y="201.82655" style="stroke: #000000; stroke-width: 0.8"/>
      </g>
     </g>
     <g id="text_7">
      <!-- 0 -->
      <g transform="translate(56.8375 205.625769) scale(0.1 -0.1)">
       <use xlink:href="#DejaVuSans-30"/>
      </g>
     </g>
    </g>
    <g id="ytick_2">
     <g id="line2d_8">
      <g>
       <use xlink:href="#mca05d40fae" x="70.2" y="163.515117" style="stroke: #000000; stroke-width: 0.8"/>
      </g>
     </g>
     <g id="text_8">
      <!-- 5 -->
      <g transform="translate(56.8375 167.314335) scale(0.1 -0.1)">
       <defs>
        <path id="DejaVuSans-35" d="M 691 4666 
L 3169 4666 
L 3169 4134 
L 1269 4134 
L 1269 2991 
Q 1406 3038 1543 3061 
Q 1681 3084 1819 3084 
Q 2600 3084 3056 2656 
Q 3513 2228 3513 1497 
Q 3513 744 3044 326 
Q 2575 -91 1722 -91 
Q 1428 -91 1123 -41 
Q 819 9 494 109 
L 494 744 
Q 775 591 1075 516 
Q 1375 441 1709 441 
Q 2250 441 2565 725 
Q 2881 1009 2881 1497 
Q 2881 1984 2565 2268 
Q 2250 2553 1709 2553 
Q 1456 2553 1204 2497 
Q 953 2441 691 2322 
L 691 4666 
z
" transform="scale(0.015625)"/>
       </defs>
       <use xlink:href="#DejaVuSans-35"/>
      </g>
     </g>
    </g>
    <g id="ytick_3">
     <g id="line2d_9">
      <g>
       <use xlink:href="#mca05d40fae" x="70.2" y="125.203683" style="stroke: #000000; stroke-width: 0.8"/>
      </g>
     </g>
     <g id="text_9">
      <!-- 10 -->
      <g transform="translate(50.475 129.002902) scale(0.1 -0.1)">
       <defs>
        <path id="DejaVuSans-31" d="M 794 531 
L 1825 531 
L 1825 4091 
L 703 3866 
L 703 4441 
L 1819 4666 
L 2450 4666 
L 2450 531 
L 3481 531 
L 3481 0 
L 794 0 
L 794 531 
z
" transform="scale(0.015625)"/>
       </defs>
       <use xlink:href="#DejaVuSans-31"/>
       <use xlink:href="#DejaVuSans-30" transform="translate(63.623047 0)"/>
      </g>
     </g>
    </g>
    <g id="ytick_4">
     <g id="line2d_10">
      <g>
       <use xlink:href="#mca05d40fae" x="70.2" y="86.892249" style="stroke: #000000; stroke-width: 0.8"/>
      </g>
     </g>
     <g id="text_10">
      <!-- 15 -->
      <g transform="translate(50.475 90.691468) scale(0.1 -0.1)">
       <use xlink:href="#DejaVuSans-31"/>
       <use xlink:href="#DejaVuSans-35" transform="translate(63.623047 0)"/>
      </g>
     </g>
    </g>
    <g id="text_11">
     <!-- ΔLL (bits) -->
     <g transform="translate(44.395313 160.500937) rotate(-90) scale(0.1 -0.1)">
      <defs>
       <path id="DejaVuSans-394" d="M 2188 4044 
L 906 525 
L 3472 525 
L 2188 4044 
z
M 50 0 
L 1831 4666 
L 2547 4666 
L 4325 0 
L 50 0 
z
" transform="scale(0.015625)"/>
       <path id="DejaVuSans-4c" d="M 628 4666 
L 1259 4666 
L 1259 531 
L 3531 531 
L 3531 0 
L 628 0 
L 628 4666 
z
" transform="scale(0.015625)"/>
       <path id="DejaVuSans-20" transform="scale(0.015625)"/>
       <path id="DejaVuSans-28" d="M 1984 4856 
Q 1566 4138 1362 3434 
Q 1159 2731 1159 2009 
Q 1159 1288 1364 580 
Q 1569 -128 1984 -844 
L 1484 -844 
Q 1016 -109 783 600 
Q 550 1309 550 2009 
Q 550 2706 781 3412 
Q 1013 4119 1484 4856 
L 1984 4856 
z
" transform="scale(0.015625)"/>
       <path id="DejaVuSans-62" d="M 3116 1747 
Q 3116 2381 2855 2742 
Q 2594 3103 2138 3103 
Q 1681 3103 1420 2742 
Q 1159 2381 1159 1747 
Q 1159 1113 1420 752 
Q 1681 391 2138 391 
Q 2594 391 2855 752 
Q 3116 1113 3116 1747 
z
M 1159 2969 
Q 1341 3281 1617 3432 
Q 1894 3584 2278 3584 
Q 2916 3584 3314 3078 
Q 3713 2572 3713 1747 
Q 3713 922 3314 415 
Q 2916 -91 2278 -91 
Q 1894 -91 1617 61 
Q 1341 213 1159 525 
L 1159 0 
L 581 0 
L 581 4863 
L 1159 4863 
L 1159 2969 
z
" transform="scale(0.015625)"/>
       <path id="DejaVuSans-69" d="M 603 3500 
L 1178 3500 
L 1178 0 
L 603 0 
L 603 3500 
z
M 603 4863 
L 1178 4863 
L 1178 4134 
L 603 4134 
L 603 4863 
z
" transform="scale(0.015625)"/>
       <path id="DejaVuSans-74" d="M 1172 4494 
L 1172 3500 
L 2356 3500 
L 2356 3053 
L 1172 3053 
L 1172 1153 
Q 1172 725 1289 603 
Q 1406 481 1766 481 
L 2356 481 
L 2356 0 
L 1766 0 
Q 1100 0 847 248 
Q 594 497 594 1153 
L 594 3053 
L 172 3053 
L 172 3500 
L 594 3500 
L 594 4494 
L 1172 4494 
z
" transform="scale(0.015625)"/>
       <path id="DejaVuSans-73" d="M 2834 3397 
L 2834 2853 
Q 2591 2978 2328 3040 
Q 2066 3103 1784 3103 
Q 1356 3103 1142 2972 
Q 928 2841 928 2578 
Q 928 2378 1081 2264 
Q 1234 2150 1697 2047 
L 1894 2003 
Q 2506 1872 2764 1633 
Q 3022 1394 3022 966 
Q 3022 478 2636 193 
Q 2250 -91 1575 -91 
Q 1294 -91 989 -36 
Q 684 19 347 128 
L 347 722 
Q 666 556 975 473 
Q 1284 391 1588 391 
Q 1994 391 2212 530 
Q 2431 669 2431 922 
Q 2431 1156 2273 1281 
Q 2116 1406 1581 1522 
L 1381 1569 
Q 847 1681 609 1914 
Q 372 2147 372 2553 
Q 372 3047 722 3315 
Q 1072 3584 1716 3584 
Q 2034 3584 2315 3537 
Q 2597 3491 2834 3397 
z
" transform="scale(0.015625)"/>
       <path id="DejaVuSans-29" d="M 513 4856 
L 1013 4856 
Q 1481 4119 1714 3412 
Q 1947 2706 1947 2009 
Q 1947 1309 1714 600 
Q 1481 -109 1013 -844 
L 513 -844 
Q 928 -128 1133 580 
Q 1338 1288 1338 2009 
Q 1338 2731 1133 3434 
Q 928 4138 513 4856 
z
" transform="scale(0.015625)"/>
      </defs>
      <use xlink:href="#DejaVuSans-394"/>
      <use xlink:href="#DejaVuSans-4c" transform="translate(68.408203 0)"/>
      <use xlink:href="#DejaVuSans-4c" transform="translate(124.121094 0)"/>
      <use xlink:href="#DejaVuSans-20" transform="translate(179.833984 0)"/>
      <use xlink:href="#DejaVuSans-28" transform="translate(211.621094 0)"/>
      <use xlink:href="#DejaVuSans-62" transform="translate(250.634766 0)"/>
      <use xlink:href="#DejaVuSans-69" transform="translate(314.111328 0)"/>
      <use xlink:href="#DejaVuSans-74" transform="translate(341.894531 0)"/>
      <use xlink:href="#DejaVuSans-73" transform="translate(381.103516 0)"/>
      <use xlink:href="#DejaVuSans-29" transform="translate(433.203125 0)"/>
     </g>
    </g>
   </g>
   <g id="line2d_11">
    <path d="M 167.91917 206.388 
L 167.91917 67.392 
" clip-path="url(#pa6bb751ba4)" style="fill: none; stroke-dasharray: 2.96,1.28; stroke-dashoffset: 0; stroke: #000000; stroke-width: 0.8"/>
   </g>
   <g id="line2d_12">
    <path d="M 89.983636 172.984355 
L 93.980327 175.350247 
L 97.977023 175.059887 
L 101.973713 173.2374 
L 105.97041 173.005518 
L 109.967106 175.636061 
L 113.963796 173.454436 
L 117.960493 174.002489 
L 121.957186 174.289355 
L 125.953882 175.837329 
L 129.950576 174.113881 
L 133.947269 176.657032 
L 137.943962 174.239806 
L 141.940659 174.009629 
L 145.937352 173.394383 
L 149.934045 173.444188 
L 153.93074 174.196796 
L 157.927434 174.820578 
L 161.924129 173.936899 
L 165.920823 176.254515 
L 169.917517 173.481897 
L 173.914211 165.293612 
L 177.910906 175.695409 
L 181.9076 174.941185 
L 185.904294 173.641854 
L 189.900988 172.857939 
L 193.897681 172.914917 
L 197.894377 174.491015 
L 201.891071 174.532457 
L 205.887764 174.356464 
L 209.884457 175.822222 
L 213.881154 174.026756 
L 217.877847 170.55203 
L 221.874543 174.380298 
L 225.871234 173.273914 
L 229.86793 174.256514 
L 233.864626 174.468574 
L 237.861317 172.58669 
L 241.858013 173.397335 
L 245.854704 175.415462 
L 249.8514 169.222177 
L 253.848096 173.328566 
L 257.844787 170.604614 
L 261.841483 174.396062 
L 265.838179 174.341469 
L 269.83487 172.849376 
L 273.83156 173.863463 
L 277.828262 173.307485 
L 281.824953 172.289686 
L 285.821643 171.878471 
L 289.818345 173.153335 
L 293.815036 174.29877 
L 297.811726 175.545855 
L 301.808428 173.979199 
L 305.805119 174.96794 
L 309.801809 174.379642 
L 313.798511 174.366273 
L 317.795202 173.044062 
L 321.791892 176.07467 
L 325.788594 174.75014 
L 329.785285 172.664473 
L 333.781975 175.064532 
L 337.778677 173.835214 
L 341.775368 173.060895 
L 345.772058 174.18115 
L 349.76876 176.268795 
L 353.765451 171.586923 
L 357.762141 174.502912 
L 361.758843 172.818629 
L 365.755534 172.541175 
L 369.752224 168.323401 
L 373.748914 171.443692 
L 377.745605 176.245969 
L 381.742319 173.574661 
L 385.739009 173.668566 
L 389.7357 173.431336 
L 393.73239 167.90846 
L 397.72908 174.558112 
L 401.725771 174.563939 
L 405.722485 171.132328 
L 409.719175 173.925103 
L 413.715866 172.062601 
L 417.712556 170.098415 
L 421.709246 173.645237 
L 425.705937 174.280178 
L 429.702627 173.959198 
L 433.699341 173.614736 
L 437.696032 174.973523 
L 441.692722 174.245639 
L 445.689412 172.902843 
L 449.686103 175.435874 
L 453.682793 172.103635 
L 457.679507 174.523198 
L 461.676198 173.147662 
L 465.672888 173.868168 
L 469.669578 174.724693 
L 473.666269 173.776422 
L 477.662959 174.453042 
L 481.659673 172.490711 
L 485.656364 173.506712 
" clip-path="url(#pa6bb751ba4)" style="fill: none; stroke-dasharray: 1,1.65; stroke-dashoffset: 0; stroke: #1f77b4"/>
   </g>
   <g id="line2d_13">
    <path d="M 89.983636 174.994562 
L 93.980327 175.300318 
L 97.977023 173.678232 
L 101.973713 174.857595 
L 105.97041 173.746735 
L 109.967106 174.919024 
L 113.963796 172.220032 
L 117.960493 173.963548 
L 121.957186 173.746618 
L 125.953882 174.436653 
L 129.950576 175.906411 
L 133.947269 172.724385 
L 137.943962 174.600114 
L 141.940659 173.866535 
L 145.937352 174.344952 
L 149.934045 173.787712 
L 153.93074 174.265264 
L 157.927434 173.287711 
L 161.924129 175.955936 
L 165.920823 173.606784 
L 169.917517 173.90798 
L 173.914211 174.823395 
L 177.910906 174.08738 
L 181.9076 172.711811 
L 185.904294 170.956092 
L 189.900988 173.69035 
L 193.897681 171.910266 
L 197.894377 173.926154 
L 201.891071 173.523912 
L 205.887764 173.682592 
L 209.884457 172.326904 
L 213.881154 173.44209 
L 217.877847 174.218136 
L 221.874543 174.534702 
L 225.871234 173.85191 
L 229.86793 173.390426 
L 233.864626 174.125341 
L 237.861317 172.612234 
L 241.858013 173.702139 
L 245.854704 174.211976 
L 249.8514 174.000585 
L 253.848096 174.10475 
L 257.844787 173.465899 
L 261.841483 175.121102 
L 265.838179 174.657454 
L 269.83487 173.837255 
L 273.83156 174.789444 
L 277.828262 173.19704 
L 281.824953 173.565686 
L 285.821643 173.44071 
L 289.818345 174.947591 
L 293.815036 173.269155 
L 297.811726 174.457272 
L 301.808428 175.042473 
L 305.805119 173.67461 
L 309.801809 174.160933 
L 313.798511 172.861731 
L 317.795202 175.589591 
L 321.791892 174.236838 
L 325.788594 175.755816 
L 329.785285 175.037228 
L 333.781975 173.548847 
L 337.778677 174.616789 
L 341.775368 175.766984 
L 345.772058 173.306228 
L 349.76876 173.814085 
L 353.765451 174.295671 
L 357.762141 173.363666 
L 361.758843 176.000201 
L 365.755534 174.488097 
L 369.752224 173.152566 
L 373.748914 174.246461 
L 377.745605 174.258736 
L 381.742319 173.778413 
L 385.739009 174.280766 
L 389.7357 172.546015 
L 393.73239 173.169362 
L 397.72908 175.705592 
L 401.725771 174.4719 
L 405.722485 174.080423 
L 409.719175 174.368262 
L 413.715866 173.340471 
L 417.712556 175.383956 
L 421.709246 174.993154 
L 425.705937 173.336445 
L 429.702627 173.278598 
L 433.699341 173.666917 
L 437.696032 174.418405 
L 441.692722 174.117077 
L 445.689412 174.176783 
L 449.686103 172.912419 
L 453.682793 174.446783 
L 457.679507 172.433295 
L 461.676198 171.89855 
L 465.672888 173.829872 
L 469.669578 167.946975 
L 473.666269 173.045332 
L 477.662959 175.933565 
L 481.659673 173.39434 
L 485.656364 173.941774 
" clip-path="url(#pa6bb751ba4)" style="fill: none; stroke-dasharray: 1,1.65; stroke-dashoffset: 0; stroke: #ff7f0e"/>
   </g>
   <g id="line2d_14">
    <path d="M 89.983636 129.50242 
L 93.980327 183.105765 
L 97.977023 184.120831 
L 101.973713 73.71 
L 105.97041 199.072787 
L 109.967106 169.272965 
L 113.963796 173.2919 
L 117.960493 174.70574 
L 121.957186 186.32178 
L 125.953882 170.738106 
L 129.950576 179.767603 
L 133.947269 172.489397 
L 137.943962 178.272169 
L 141.940659 192.875624 
L 145.937352 188.586941 
L 149.934045 150.102981 
L 153.93074 189.002041 
L 157.927434 168.251208 
L 161.924129 183.355769 
L 165.920823 177.196488 
L 169.917517 185.181849 
L 173.914211 135.610955 
L 177.910906 184.759965 
L 181.9076 194.257238 
L 185.904294 185.724555 
L 189.900988 170.871078 
L 193.897681 162.781436 
L 197.894377 127.679396 
L 201.891071 200.07 
L 205.887764 113.039314 
L 209.884457 166.701572 
L 213.881154 143.619878 
L 217.877847 190.472414 
L 221.874543 171.890301 
L 225.871234 178.541061 
L 229.86793 199.098562 
L 233.864626 181.574908 
L 237.861317 168.2587 
L 241.858013 130.508084 
L 245.854704 177.827381 
L 249.8514 166.904274 
L 253.848096 195.176732 
L 257.844787 165.483606 
L 261.841483 176.745587 
L 265.838179 156.895467 
L 269.83487 167.799339 
L 273.83156 147.194483 
L 277.828262 163.993181 
L 281.824953 189.231061 
L 285.821643 135.565836 
L 289.818345 189.397238 
L 293.815036 188.715283 
L 297.811726 197.450628 
L 301.808428 173.695915 
L 305.805119 191.927288 
L 309.801809 183.080086 
L 313.798511 132.884535 
L 317.795202 197.583384 
L 321.791892 183.160571 
L 325.788594 177.266184 
L 329.785285 173.040841 
L 333.781975 141.22403 
L 337.778677 193.696925 
L 341.775368 179.720253 
L 345.772058 172.560343 
L 349.76876 169.490781 
L 353.765451 136.776589 
L 357.762141 194.556819 
L 361.758843 172.797559 
L 365.755534 181.328862 
L 369.752224 165.150201 
L 373.748914 188.921405 
L 377.745605 176.350766 
L 381.742319 169.40612 
L 385.739009 194.336243 
L 389.7357 167.901121 
L 393.73239 191.521508 
L 397.72908 184.490245 
L 401.725771 172.921141 
L 405.722485 156.036077 
L 409.719175 162.236014 
L 413.715866 154.467243 
L 417.712556 169.885429 
L 421.709246 157.656175 
L 425.705937 179.51144 
L 429.702627 158.724151 
L 433.699341 179.982345 
L 437.696032 168.24541 
L 441.692722 142.753569 
L 445.689412 171.766447 
L 449.686103 193.850446 
L 453.682793 183.517341 
L 457.679507 168.353592 
L 461.676198 192.116552 
L 465.672888 185.121201 
L 469.669578 164.965737 
L 473.666269 148.043166 
L 477.662959 194.90999 
L 481.659673 158.513547 
L 485.656364 172.631147 
" clip-path="url(#pa6bb751ba4)" style="fill: none; stroke: #1f77b4; stroke-width: 2.2; stroke-linecap: square"/>
   </g>
   <g id="line2d_15">
    <path d="M 89.983636 176.886352 
L 93.980327 192.720958 
L 97.977023 162.121921 
L 101.973713 133.79663 
L 105.97041 194.314138 
L 109.967106 182.147919 
L 113.963796 159.743891 
L 117.960493 192.479521 
L 121.957186 190.437577 
L 125.953882 187.781761 
L 129.950576 167.783805 
L 133.947269 168.627703 
L 137.943962 162.768068 
L 141.940659 179.916831 
L 145.937352 177.091832 
L 149.934045 195.315716 
L 153.93074 155.865458 
L 157.927434 181.871585 
L 161.924129 185.206449 
L 165.920823 181.451676 
L 169.917517 154.967073 
L 173.914211 162.108115 
L 177.910906 170.578859 
L 181.9076 195.30154 
L 185.904294 174.945761 
L 189.900988 170.584717 
L 193.897681 180.679628 
L 197.894377 182.561328 
L 201.891071 183.934783 
L 205.887764 168.896189 
L 209.884457 180.33185 
L 213.881154 189.685959 
L 217.877847 170.549944 
L 221.874543 192.782597 
L 225.871234 185.658287 
L 229.86793 92.116681 
L 233.864626 192.760971 
L 237.861317 180.595774 
L 241.858013 184.904894 
L 245.854704 112.529441 
L 249.8514 193.618171 
L 253.848096 181.644601 
L 257.844787 193.490026 
L 261.841483 193.42467 
L 265.838179 163.762372 
L 269.83487 178.808817 
L 273.83156 169.929581 
L 277.828262 178.382371 
L 281.824953 172.008812 
L 285.821643 160.211462 
L 289.818345 190.032517 
L 293.815036 151.910104 
L 297.811726 150.329321 
L 301.808428 127.785867 
L 305.805119 186.122662 
L 309.801809 175.69978 
L 313.798511 188.893737 
L 317.795202 132.007893 
L 321.791892 184.368289 
L 325.788594 180.027171 
L 329.785285 183.769113 
L 333.781975 145.171971 
L 337.778677 171.009447 
L 341.775368 170.499659 
L 345.772058 165.454208 
L 349.76876 164.725056 
L 353.765451 186.535172 
L 357.762141 170.747583 
L 361.758843 183.588428 
L 365.755534 181.180835 
L 369.752224 162.543117 
L 373.748914 192.824673 
L 377.745605 150.923779 
L 381.742319 186.421909 
L 385.739009 169.186616 
L 389.7357 151.133927 
L 393.73239 160.597159 
L 397.72908 183.956051 
L 401.725771 187.796051 
L 405.722485 193.271157 
L 409.719175 157.667448 
L 413.715866 180.099916 
L 417.712556 174.886536 
L 421.709246 174.926697 
L 425.705937 148.853274 
L 429.702627 196.77289 
L 433.699341 189.692891 
L 437.696032 155.662089 
L 441.692722 184.686047 
L 445.689412 167.43356 
L 449.686103 191.815276 
L 453.682793 183.241948 
L 457.679507 177.599816 
L 461.676198 160.595903 
L 465.672888 179.365766 
L 469.669578 154.041243 
L 473.666269 189.591851 
L 477.662959 186.859279 
L 481.659673 189.930433 
L 485.656364 166.69708 
" clip-path="url(#pa6bb751ba4)" style="fill: none; stroke: #ff7f0e; stroke-width: 2.2; stroke-linecap: square"/>
   </g>
   <g id="patch_3">
    <path d="M 70.2 206.388 
L 70.2 67.392 
" style="fill: none; stroke: #000000; stroke-width: 0.8; stroke-linejoin: miter; stroke-linecap: square"/>
   </g>
   <g id="patch_4">
    <path d="M 505.44 206.388 
L 505.44 67.392 
" style="fill: none; stroke: #000000; stroke-width: 0.8; stroke-linejoin: miter; stroke-linecap: square"/>
   </g>
   <g id="patch_5">
    <path d="M 70.2 206.388 
L 505.44 206.388 
" style="fill: none; stroke: #000000; stroke-width: 0.8; stroke-linejoin: miter; stroke-linecap: square"/>
   </g>
   <g id="patch_6">
    <path d="M 70.2 67.392 
L 505.44 67.392 
" style="fill: none; stroke: #000000; stroke-width: 0.8; stroke-linejoin: miter; stroke-linecap: square"/>
   </g>
   <g id="text_12">
    <!-- (SFEF vs SLIP) — C-flow — Panel A: overlay + null bands -->
    <g transform="translate(119.059688 61.392) scale(0.12 -0.12)">
     <defs>
      <path id="DejaVuSans-53" d="M 3425 4513 
L 3425 3897 
Q 3066 4069 2747 4153 
Q 2428 4238 2131 4238 
Q 1616 4238 1336 4038 
Q 1056 3838 1056 3469 
Q 1056 3159 1242 3001 
Q 1428 2844 1947 2747 
L 2328 2669 
Q 3034 2534 3370 2195 
Q 3706 1856 3706 1288 
Q 3706 609 3251 259 
Q 2797 -91 1919 -91 
Q 1588 -91 1214 -16 
Q 841 59 441 206 
L 441 856 
Q 825 641 1194 531 
Q 1563 422 1919 422 
Q 2459 422 2753 634 
Q 3047 847 3047 1241 
Q 3047 1584 2836 1778 
Q 2625 1972 2144 2069 
L 1759 2144 
Q 1053 2284 737 2584 
Q 422 2884 422 3419 
Q 422 4038 858 4394 
Q 1294 4750 2059 4750 
Q 2388 4750 2728 4690 
Q 3069 4631 3425 4513 
z
" transform="scale(0.015625)"/>
      <path id="DejaVuSans-46" d="M 628 4666 
L 3309 4666 
L 3309 4134 
L 1259 4134 
L 1259 2759 
L 3109 2759 
L 3109 2228 
L 1259 2228 
L 1259 0 
L 628 0 
L 628 4666 
z
" transform="scale(0.015625)"/>
      <path id="DejaVuSans-45" d="M 628 4666 
L 3578 4666 
L 3578 4134 
L 1259 4134 
L 1259 2753 
L 3481 2753 
L 3481 2222 
L 1259 2222 
L 1259 531 
L 3634 531 
L 3634 0 
L 628 0 
L 628 4666 
z
" transform="scale(0.015625)"/>
      <path id="DejaVuSans-76" d="M 191 3500 
L 800 3500 
L 1894 563 
L 2988 3500 
L 3597 3500 
L 2284 0 
L 1503 0 
L 191 3500 
z
" transform="scale(0.015625)"/>
      <path id="DejaVuSans-49" d="M 628 4666 
L 1259 4666 
L 1259 0 
L 628 0 
L 628 4666 
z
" transform="scale(0.015625)"/>
      <path id="DejaVuSans-50" d="M 1259 4147 
L 1259 2394 
L 2053 2394 
Q 2494 2394 2734 2622 
Q 2975 2850 2975 3272 
Q 2975 3691 2734 3919 
Q 2494 4147 2053 4147 
L 1259 4147 
z
M 628 4666 
L 2053 4666 
Q 2838 4666 3239 4311 
Q 3641 3956 3641 3272 
Q 3641 2581 3239 2228 
Q 2838 1875 2053 1875 
L 1259 1875 
L 1259 0 
L 628 0 
L 628 4666 
z
" transform="scale(0.015625)"/>
      <path id="DejaVuSans-2014" d="M 313 1978 
L 6088 1978 
L 6088 1528 
L 313 1528 
L 313 1978 
z
" transform="scale(0.015625)"/>
      <path id="DejaVuSans-43" d="M 4122 4306 
L 4122 3641 
Q 3803 3938 3442 4084 
Q 3081 4231 2675 4231 
Q 1875 4231 1450 3742 
Q 1025 3253 1025 2328 
Q 1025 1406 1450 917 
Q 1875 428 2675 428 
Q 3081 428 3442 575 
Q 3803 722 4122 1019 
L 4122 359 
Q 3791 134 3420 21 
Q 3050 -91 2638 -91 
Q 1578 -91 968 557 
Q 359 1206 359 2328 
Q 359 3453 968 4101 
Q 1578 4750 2638 4750 
Q 3056 4750 3426 4639 
Q 3797 4528 4122 4306 
z
" transform="scale(0.015625)"/>
      <path id="DejaVuSans-2d" d="M 313 2009 
L 1997 2009 
L 1997 1497 
L 313 1497 
L 313 2009 
z
" transform="scale(0.015625)"/>
      <path id="DejaVuSans-66" d="M 2375 4863 
L 2375 4384 
L 1825 4384 
Q 1516 4384 1395 4259 
Q 1275 4134 1275 3809 
L 1275 3500 
L 2222 3500 
L 2222 3053 
L 1275 3053 
L 1275 0 
L 697 0 
L 697 3053 
L 147 3053 
L 147 3500 
L 697 3500 
L 697 3744 
Q 697 4328 969 4595 
Q 1241 4863 1831 4863 
L 2375 4863 
z
" transform="scale(0.015625)"/>
      <path id="DejaVuSans-6c" d="M 603 4863 
L 1178 4863 
L 1178 0 
L 603 0 
L 603 4863 
z
" transform="scale(0.015625)"/>
      <path id="DejaVuSans-6f" d="M 1959 3097 
Q 1497 3097 1228 2736 
Q 959 2375 959 1747 
Q 959 1119 1226 758 
Q 1494 397 1959 397 
Q 2419 397 2687 759 
Q 2956 1122 2956 1747 
Q 2956 2369 2687 2733 
Q 2419 3097 1959 3097 
z
M 1959 3584 
Q 2709 3584 3137 3096 
Q 3566 2609 3566 1747 
Q 3566 888 3137 398 
Q 2709 -91 1959 -91 
Q 1206 -91 779 398 
Q 353 888 353 1747 
Q 353 2609 779 3096 
Q 1206 3584 1959 3584 
z
" transform="scale(0.015625)"/>
      <path id="DejaVuSans-77" d="M 269 3500 
L 844 3500 
L 1563 769 
L 2278 3500 
L 2956 3500 
L 3675 769 
L 4391 3500 
L 4966 3500 
L 4050 0 
L 3372 0 
L 2619 2869 
L 1863 0 
L 1184 0 
L 269 3500 
z
" transform="scale(0.015625)"/>
      <path id="DejaVuSans-61" d="M 2194 1759 
Q 1497 1759 1228 1600 
Q 959 1441 959 1056 
Q 959 750 1161 570 
Q 1363 391 1709 391 
Q 2188 391 2477 730 
Q 2766 1069 2766 1631 
L 2766 1759 
L 2194 1759 
z
M 3341 1997 
L 3341 0 
L 2766 0 
L 2766 531 
Q 2569 213 2275 61 
Q 1981 -91 1556 -91 
Q 1019 -91 701 211 
Q 384 513 384 1019 
Q 384 1609 779 1909 
Q 1175 2209 1959 2209 
L 2766 2209 
L 2766 2266 
Q 2766 2663 2505 2880 
Q 2244 3097 1772 3097 
Q 1472 3097 1187 3025 
Q 903 2953 641 2809 
L 641 3341 
Q 956 3463 1253 3523 
Q 1550 3584 1831 3584 
Q 2591 3584 2966 3190 
Q 3341 2797 3341 1997 
z
" transform="scale(0.015625)"/>
      <path id="DejaVuSans-6e" d="M 3513 2113 
L 3513 0 
L 2938 0 
L 2938 2094 
Q 2938 2591 2744 2837 
Q 2550 3084 2163 3084 
Q 1697 3084 1428 2787 
Q 1159 2491 1159 1978 
L 1159 0 
L 581 0 
L 581 3500 
L 1159 3500 
L 1159 2956 
Q 1366 3272 1645 3428 
Q 1925 3584 2291 3584 
Q 2894 3584 3203 3211 
Q 3513 2838 3513 2113 
z
" transform="scale(0.015625)"/>
      <path id="DejaVuSans-65" d="M 3597 1894 
L 3597 1613 
L 953 1613 
Q 991 1019 1311 708 
Q 1631 397 2203 397 
Q 2534 397 2845 478 
Q 3156 559 3463 722 
L 3463 178 
Q 3153 47 2828 -22 
Q 2503 -91 2169 -91 
Q 1331 -91 842 396 
Q 353 884 353 1716 
Q 353 2575 817 3079 
Q 1281 3584 2069 3584 
Q 2775 3584 3186 3129 
Q 3597 2675 3597 1894 
z
M 3022 2063 
Q 3016 2534 2758 2815 
Q 2500 3097 2075 3097 
Q 1594 3097 1305 2825 
Q 1016 2553 972 2059 
L 3022 2063 
z
" transform="scale(0.015625)"/>
      <path id="DejaVuSans-41" d="M 2188 4044 
L 1331 1722 
L 3047 1722 
L 2188 4044 
z
M 1831 4666 
L 2547 4666 
L 4325 0 
L 3669 0 
L 3244 1197 
L 1141 1197 
L 716 0 
L 50 0 
L 1831 4666 
z
" transform="scale(0.015625)"/>
      <path id="DejaVuSans-3a" d="M 750 794 
L 1409 794 
L 1409 0 
L 750 0 
L 750 794 
z
M 750 3309 
L 1409 3309 
L 1409 2516 
L 750 2516 
L 750 3309 
z
" transform="scale(0.015625)"/>
      <path id="DejaVuSans-72" d="M 2631 2963 
Q 2534 3019 2420 3045 
Q 2306 3072 2169 3072 
Q 1681 3072 1420 2755 
Q 1159 2438 1159 1844 
L 1159 0 
L 581 0 
L 581 3500 
L 1159 3500 
L 1159 2956 
Q 1341 3275 1631 3429 
Q 1922 3584 2338 3584 
Q 2397 3584 2469 3576 
Q 2541 3569 2628 3553 
L 2631 2963 
z
" transform="scale(0.015625)"/>
      <path id="DejaVuSans-79" d="M 2059 -325 
Q 1816 -950 1584 -1140 
Q 1353 -1331 966 -1331 
L 506 -1331 
L 506 -850 
L 844 -850 
Q 1081 -850 1212 -737 
Q 1344 -625 1503 -206 
L 1606 56 
L 191 3500 
L 800 3500 
L 1894 763 
L 2988 3500 
L 3597 3500 
L 2059 -325 
z
" transform="scale(0.015625)"/>
      <path id="DejaVuSans-2b" d="M 2944 4013 
L 2944 2272 
L 4684 2272 
L 4684 1741 
L 2944 1741 
L 2944 0 
L 2419 0 
L 2419 1741 
L 678 1741 
L 678 2272 
L 2419 2272 
L 2419 4013 
L 2944 4013 
z
" transform="scale(0.015625)"/>
      <path id="DejaVuSans-75" d="M 544 1381 
L 544 3500 
L 1119 3500 
L 1119 1403 
Q 1119 906 1312 657 
Q 1506 409 1894 409 
Q 2359 409 2629 706 
Q 2900 1003 2900 1516 
L 2900 3500 
L 3475 3500 
L 3475 0 
L 2900 0 
L 2900 538 
Q 2691 219 2414 64 
Q 2138 -91 1772 -91 
Q 1169 -91 856 284 
Q 544 659 544 1381 
z
M 1991 3584 
L 1991 3584 
z
" transform="scale(0.015625)"/>
      <path id="DejaVuSans-64" d="M 2906 2969 
L 2906 4863 
L 3481 4863 
L 3481 0 
L 2906 0 
L 2906 525 
Q 2725 213 2448 61 
Q 2172 -91 1784 -91 
Q 1150 -91 751 415 
Q 353 922 353 1747 
Q 353 2572 751 3078 
Q 1150 3584 1784 3584 
Q 2172 3584 2448 3432 
Q 2725 3281 2906 2969 
z
M 947 1747 
Q 947 1113 1208 752 
Q 1469 391 1925 391 
Q 2381 391 2643 752 
Q 2906 1113 2906 1747 
Q 2906 2381 2643 2742 
Q 2381 3103 1925 3103 
Q 1469 3103 1208 2742 
Q 947 2381 947 1747 
z
" transform="scale(0.015625)"/>
     </defs>
     <use xlink:href="#DejaVuSans-28"/>
     <use xlink:href="#DejaVuSans-53" transform="translate(39.013672 0)"/>
     <use xlink:href="#DejaVuSans-46" transform="translate(102.490234 0)"/>
     <use xlink:href="#DejaVuSans-45" transform="translate(160.009766 0)"/>
     <use xlink:href="#DejaVuSans-46" transform="translate(223.193359 0)"/>
     <use xlink:href="#DejaVuSans-20" transform="translate(280.712891 0)"/>
     <use xlink:href="#DejaVuSans-76" transform="translate(312.5 0)"/>
     <use xlink:href="#DejaVuSans-73" transform="translate(371.679688 0)"/>
     <use xlink:href="#DejaVuSans-20" transform="translate(423.779297 0)"/>
     <use xlink:href="#DejaVuSans-53" transform="translate(455.566406 0)"/>
     <use xlink:href="#DejaVuSans-4c" transform="translate(519.042969 0)"/>
     <use xlink:href="#DejaVuSans-49" transform="translate(574.755859 0)"/>
     <use xlink:href="#DejaVuSans-50" transform="translate(604.248047 0)"/>
     <use xlink:href="#DejaVuSans-29" transform="translate(664.550781 0)"/>
     <use xlink:href="#DejaVuSans-20" transform="translate(703.564453 0)"/>
     <use xlink:href="#DejaVuSans-2014" transform="translate(735.351562 0)"/>
     <use xlink:href="#DejaVuSans-20" transform="translate(835.351562 0)"/>
     <use xlink:href="#DejaVuSans-43" transform="translate(867.138672 0)"/>
     <use xlink:href="#DejaVuSans-2d" transform="translate(936.962891 0)"/>
     <use xlink:href="#DejaVuSans-66" transform="translate(973.046875 0)"/>
     <use xlink:href="#DejaVuSans-6c" transform="translate(1008.251953 0)"/>
     <use xlink:href="#DejaVuSans-6f" transform="translate(1036.035156 0)"/>
     <use xlink:href="#DejaVuSans-77" transform="translate(1097.216797 0)"/>
     <use xlink:href="#DejaVuSans-20" transform="translate(1179.003906 0)"/>
     <use xlink:href="#DejaVuSans-2014" transform="translate(1210.791016 0)"/>
     <use xlink:href="#DejaVuSans-20" transform="translate(1310.791016 0)"/>
     <use xlink:href="#DejaVuSans-50" transform="translate(1342.578125 0)"/>
     <use xlink:href="#DejaVuSans-61" transform="translate(1398.380859 0)"/>
     <use xlink:href="#DejaVuSans-6e" transform="translate(1459.660156 0)"/>
     <use xlink:href="#DejaVuSans-65" transform="translate(1523.039062 0)"/>
     <use xlink:href="#DejaVuSans-6c" transform="translate(1584.5625 0)"/>
     <use xlink:href="#DejaVuSans-20" transform="translate(1612.345703 0)"/>
     <use xlink:href="#DejaVuSans-41" transform="translate(1644.132812 0)"/>
     <use xlink:href="#DejaVuSans-3a" transform="translate(1710.791016 0)"/>
     <use xlink:href="#DejaVuSans-20" transform="translate(1744.482422 0)"/>
     <use xlink:href="#DejaVuSans-6f" transform="translate(1776.269531 0)"/>
     <use xlink:href="#DejaVuSans-76" transform="translate(1837.451172 0)"/>
     <use xlink:href="#DejaVuSans-65" transform="translate(1896.630859 0)"/>
     <use xlink:href="#DejaVuSans-72" transform="translate(1958.154297 0)"/>
     <use xlink:href="#DejaVuSans-6c" transform="translate(1999.267578 0)"/>
     <use xlink:href="#DejaVuSans-61" transform="translate(2027.050781 0)"/>
     <use xlink:href="#DejaVuSans-79" transform="translate(2088.330078 0)"/>
     <use xlink:href="#DejaVuSans-20" transform="translate(2147.509766 0)"/>
     <use xlink:href="#DejaVuSans-2b" transform="translate(2179.296875 0)"/>
     <use xlink:href="#DejaVuSans-20" transform="translate(2263.085938 0)"/>
     <use xlink:href="#DejaVuSans-6e" transform="translate(2294.873047 0)"/>
     <use xlink:href="#DejaVuSans-75" transform="translate(2358.251953 0)"/>
     <use xlink:href="#DejaVuSans-6c" transform="translate(2421.630859 0)"/>
     <use xlink:href="#DejaVuSans-6c" transform="translate(2449.414062 0)"/>
     <use xlink:href="#DejaVuSans-20" transform="translate(2477.197266 0)"/>
     <use xlink:href="#DejaVuSans-62" transform="translate(2508.984375 0)"/>
     <use xlink:href="#DejaVuSans-61" transform="translate(2572.460938 0)"/>
     <use xlink:href="#DejaVuSans-6e" transform="translate(2633.740234 0)"/>
     <use xlink:href="#DejaVuSans-64" transform="translate(2697.119141 0)"/>
     <use xlink:href="#DejaVuSans-73" transform="translate(2760.595703 0)"/>
    </g>
   </g>
   <g id="legend_1">
    <g id="patch_7">
     <path d="M 79.2 83.990437 
L 99.2 83.990437 
L 99.2 76.990437 
L 79.2 76.990437 
z
" style="fill: #1f77b4; fill-opacity: 0.15"/>
    </g>
    <g id="text_13">
     <!-- SFEF→SLIP null μ±σ -->
     <g transform="translate(107.2 83.990437) scale(0.1 -0.1)">
      <defs>
       <path id="DejaVuSans-2192" d="M 5050 2147 
L 5050 1866 
L 3822 638 
L 3447 1013 
L 4175 1741 
L 366 1741 
L 366 2272 
L 4175 2272 
L 3447 3000 
L 3822 3375 
L 5050 2147 
z
" transform="scale(0.015625)"/>
       <path id="DejaVuSans-3bc" d="M 544 -1331 
L 544 3500 
L 1119 3500 
L 1119 1325 
Q 1119 872 1334 640 
Q 1550 409 1972 409 
Q 2434 409 2667 671 
Q 2900 934 2900 1459 
L 2900 3500 
L 3475 3500 
L 3475 806 
Q 3475 619 3529 530 
Q 3584 441 3700 441 
Q 3728 441 3778 458 
Q 3828 475 3916 513 
L 3916 50 
Q 3788 -22 3673 -56 
Q 3559 -91 3450 -91 
Q 3234 -91 3106 31 
Q 2978 153 2931 403 
Q 2775 156 2548 32 
Q 2322 -91 2016 -91 
Q 1697 -91 1473 31 
Q 1250 153 1119 397 
L 1119 -1331 
L 544 -1331 
z
" transform="scale(0.015625)"/>
       <path id="DejaVuSans-b1" d="M 2944 4013 
L 2944 2803 
L 4684 2803 
L 4684 2272 
L 2944 2272 
L 2944 1063 
L 2419 1063 
L 2419 2272 
L 678 2272 
L 678 2803 
L 2419 2803 
L 2419 4013 
L 2944 4013 
z
M 678 531 
L 4684 531 
L 4684 0 
L 678 0 
L 678 531 
z
" transform="scale(0.015625)"/>
       <path id="DejaVuSans-3c3" d="M 1959 3044 
Q 1484 3044 1228 2700 
Q 959 2341 959 1747 
Q 959 1119 1226 758 
Q 1494 397 1959 397 
Q 2419 397 2687 759 
Q 2956 1122 2956 1747 
Q 2956 2319 2688 2700 
Q 2441 3044 1959 3044 
z
M 1959 3500 
L 3869 3500 
L 3869 2925 
L 3225 2925 
Q 3566 2438 3566 1747 
Q 3566 888 3138 400 
Q 2709 -91 1959 -91 
Q 1206 -91 781 400 
Q 353 888 353 1747 
Q 353 2613 781 3097 
Q 1134 3500 1959 3500 
z
" transform="scale(0.015625)"/>
      </defs>
      <use xlink:href="#DejaVuSans-53"/>
      <use xlink:href="#DejaVuSans-46" transform="translate(63.476562 0)"/>
      <use xlink:href="#DejaVuSans-45" transform="translate(120.996094 0)"/>
      <use xlink:href="#DejaVuSans-46" transform="translate(184.179688 0)"/>
      <use xlink:href="#DejaVuSans-2192" transform="translate(241.699219 0)"/>
      <use xlink:href="#DejaVuSans-53" transform="translate(325.488281 0)"/>
      <use xlink:href="#DejaVuSans-4c" transform="translate(388.964844 0)"/>
      <use xlink:href="#DejaVuSans-49" transform="translate(444.677734 0)"/>
      <use xlink:href="#DejaVuSans-50" transform="translate(474.169922 0)"/>
      <use xlink:href="#DejaVuSans-20" transform="translate(534.472656 0)"/>
      <use xlink:href="#DejaVuSans-6e" transform="translate(566.259766 0)"/>
      <use xlink:href="#DejaVuSans-75" transform="translate(629.638672 0)"/>
      <use xlink:href="#DejaVuSans-6c" transform="translate(693.017578 0)"/>
      <use xlink:href="#DejaVuSans-6c" transform="translate(720.800781 0)"/>
      <use xlink:href="#DejaVuSans-20" transform="translate(748.583984 0)"/>
      <use xlink:href="#DejaVuSans-3bc" transform="translate(780.371094 0)"/>
      <use xlink:href="#DejaVuSans-b1" transform="translate(843.994141 0)"/>
      <use xlink:href="#DejaVuSans-3c3" transform="translate(927.783203 0)"/>
     </g>
    </g>
    <g id="patch_8">
     <path d="M 79.2 98.668563 
L 99.2 98.668563 
L 99.2 91.668563 
L 79.2 91.668563 
z
" style="fill: #ff7f0e; fill-opacity: 0.15"/>
    </g>
    <g id="text_14">
     <!-- SLIP→SFEF null μ±σ -->
     <g transform="translate(107.2 98.668563) scale(0.1 -0.1)">
      <use xlink:href="#DejaVuSans-53"/>
      <use xlink:href="#DejaVuSans-4c" transform="translate(63.476562 0)"/>
      <use xlink:href="#DejaVuSans-49" transform="translate(119.189453 0)"/>
      <use xlink:href="#DejaVuSans-50" transform="translate(148.681641 0)"/>
      <use xlink:href="#DejaVuSans-2192" transform="translate(208.984375 0)"/>
      <use xlink:href="#DejaVuSans-53" transform="translate(292.773438 0)"/>
      <use xlink:href="#DejaVuSans-46" transform="translate(356.25 0)"/>
      <use xlink:href="#DejaVuSans-45" transform="translate(413.769531 0)"/>
      <use xlink:href="#DejaVuSans-46" transform="translate(476.953125 0)"/>
      <use xlink:href="#DejaVuSans-20" transform="translate(534.472656 0)"/>
      <use xlink:href="#DejaVuSans-6e" transform="translate(566.259766 0)"/>
      <use xlink:href="#DejaVuSans-75" transform="translate(629.638672 0)"/>
      <use xlink:href="#DejaVuSans-6c" transform="translate(693.017578 0)"/>
      <use xlink:href="#DejaVuSans-6c" transform="translate(720.800781 0)"/>
      <use xlink:href="#DejaVuSans-20" transform="translate(748.583984 0)"/>
      <use xlink:href="#DejaVuSans-3bc" transform="translate(780.371094 0)"/>
      <use xlink:href="#DejaVuSans-b1" transform="translate(843.994141 0)"/>
      <use xlink:href="#DejaVuSans-3c3" transform="translate(927.783203 0)"/>
     </g>
    </g>
    <g id="line2d_16">
     <path d="M 226.317187 80.490437 
L 236.317187 80.490437 
L 246.317187 80.490437 
" style="fill: none; stroke: #1f77b4; stroke-width: 2.2; stroke-linecap: square"/>
    </g>
    <g id="text_15">
     <!-- SFEF→SLIP -->
     <g transform="translate(254.317187 83.990437) scale(0.1 -0.1)">
      <use xlink:href="#DejaVuSans-53"/>
      <use xlink:href="#DejaVuSans-46" transform="translate(63.476562 0)"/>
      <use xlink:href="#DejaVuSans-45" transform="translate(120.996094 0)"/>
      <use xlink:href="#DejaVuSans-46" transform="translate(184.179688 0)"/>
      <use xlink:href="#DejaVuSans-2192" transform="translate(241.699219 0)"/>
      <use xlink:href="#DejaVuSans-53" transform="translate(325.488281 0)"/>
      <use xlink:href="#DejaVuSans-4c" transform="translate(388.964844 0)"/>
      <use xlink:href="#DejaVuSans-49" transform="translate(444.677734 0)"/>
      <use xlink:href="#DejaVuSans-50" transform="translate(474.169922 0)"/>
     </g>
    </g>
    <g id="line2d_17">
     <path d="M 226.317187 95.168563 
L 236.317187 95.168563 
L 246.317187 95.168563 
" style="fill: none; stroke: #ff7f0e; stroke-width: 2.2; stroke-linecap: square"/>
    </g>
    <g id="text_16">
     <!-- SLIP→SFEF -->
     <g transform="translate(254.317187 98.668563) scale(0.1 -0.1)">
      <use xlink:href="#DejaVuSans-53"/>
      <use xlink:href="#DejaVuSans-4c" transform="translate(63.476562 0)"/>
      <use xlink:href="#DejaVuSans-49" transform="translate(119.189453 0)"/>
      <use xlink:href="#DejaVuSans-50" transform="translate(148.681641 0)"/>
      <use xlink:href="#DejaVuSans-2192" transform="translate(208.984375 0)"/>
      <use xlink:href="#DejaVuSans-53" transform="translate(292.773438 0)"/>
      <use xlink:href="#DejaVuSans-46" transform="translate(356.25 0)"/>
      <use xlink:href="#DejaVuSans-45" transform="translate(413.769531 0)"/>
      <use xlink:href="#DejaVuSans-46" transform="translate(476.953125 0)"/>
     </g>
    </g>
   </g>
  </g>
  <g id="axes_2">
   <g id="patch_9">
    <path d="M 70.2 353.106 
L 505.44 353.106 
L 505.44 237.276 
L 70.2 237.276 
z
" style="fill: #ffffff"/>
   </g>
   <g id="matplotlib.axis_3">
    <g id="xtick_7">
     <g id="line2d_18">
      <g>
       <use xlink:href="#m5fc2e3273a" x="87.985286" y="353.106" style="stroke: #000000; stroke-width: 0.8"/>
      </g>
     </g>
     <g id="text_17">
      <!-- −200 -->
      <g transform="translate(74.251693 367.704438) scale(0.1 -0.1)">
       <use xlink:href="#DejaVuSans-2212"/>
       <use xlink:href="#DejaVuSans-32" transform="translate(83.789062 0)"/>
       <use xlink:href="#DejaVuSans-30" transform="translate(147.412109 0)"/>
       <use xlink:href="#DejaVuSans-30" transform="translate(211.035156 0)"/>
      </g>
     </g>
    </g>
    <g id="xtick_8">
     <g id="line2d_19">
      <g>
       <use xlink:href="#m5fc2e3273a" x="167.91917" y="353.106" style="stroke: #000000; stroke-width: 0.8"/>
      </g>
     </g>
     <g id="text_18">
      <!-- 0 -->
      <g transform="translate(164.73792 367.704438) scale(0.1 -0.1)">
       <use xlink:href="#DejaVuSans-30"/>
      </g>
     </g>
    </g>
    <g id="xtick_9">
     <g id="line2d_20">
      <g>
       <use xlink:href="#m5fc2e3273a" x="247.853053" y="353.106" style="stroke: #000000; stroke-width: 0.8"/>
      </g>
     </g>
     <g id="text_19">
      <!-- 200 -->
      <g transform="translate(238.309303 367.704438) scale(0.1 -0.1)">
       <use xlink:href="#DejaVuSans-32"/>
       <use xlink:href="#DejaVuSans-30" transform="translate(63.623047 0)"/>
       <use xlink:href="#DejaVuSans-30" transform="translate(127.246094 0)"/>
      </g>
     </g>
    </g>
    <g id="xtick_10">
     <g id="line2d_21">
      <g>
       <use xlink:href="#m5fc2e3273a" x="327.786937" y="353.106" style="stroke: #000000; stroke-width: 0.8"/>
      </g>
     </g>
     <g id="text_20">
      <!-- 400 -->
      <g transform="translate(318.243187 367.704438) scale(0.1 -0.1)">
       <use xlink:href="#DejaVuSans-34"/>
       <use xlink:href="#DejaVuSans-30" transform="translate(63.623047 0)"/>
       <use xlink:href="#DejaVuSans-30" transform="translate(127.246094 0)"/>
      </g>
     </g>
    </g>
    <g id="xtick_11">
     <g id="line2d_22">
      <g>
       <use xlink:href="#m5fc2e3273a" x="407.720821" y="353.106" style="stroke: #000000; stroke-width: 0.8"/>
      </g>
     </g>
     <g id="text_21">
      <!-- 600 -->
      <g transform="translate(398.177071 367.704438) scale(0.1 -0.1)">
       <use xlink:href="#DejaVuSans-36"/>
       <use xlink:href="#DejaVuSans-30" transform="translate(63.623047 0)"/>
       <use xlink:href="#DejaVuSans-30" transform="translate(127.246094 0)"/>
      </g>
     </g>
    </g>
    <g id="xtick_12">
     <g id="line2d_23">
      <g>
       <use xlink:href="#m5fc2e3273a" x="487.654704" y="353.106" style="stroke: #000000; stroke-width: 0.8"/>
      </g>
     </g>
     <g id="text_22">
      <!-- 800 -->
      <g transform="translate(478.110954 367.704438) scale(0.1 -0.1)">
       <use xlink:href="#DejaVuSans-38"/>
       <use xlink:href="#DejaVuSans-30" transform="translate(63.623047 0)"/>
       <use xlink:href="#DejaVuSans-30" transform="translate(127.246094 0)"/>
      </g>
     </g>
    </g>
   </g>
   <g id="matplotlib.axis_4">
    <g id="ytick_5">
     <g id="line2d_24">
      <g>
       <use xlink:href="#mca05d40fae" x="70.2" y="352.853255" style="stroke: #000000; stroke-width: 0.8"/>
      </g>
     </g>
     <g id="text_23">
      <!-- −15 -->
      <g transform="translate(42.095313 356.652473) scale(0.1 -0.1)">
       <use xlink:href="#DejaVuSans-2212"/>
       <use xlink:href="#DejaVuSans-31" transform="translate(83.789062 0)"/>
       <use xlink:href="#DejaVuSans-35" transform="translate(147.412109 0)"/>
      </g>
     </g>
    </g>
    <g id="ytick_6">
     <g id="line2d_25">
      <g>
       <use xlink:href="#mca05d40fae" x="70.2" y="328.706311" style="stroke: #000000; stroke-width: 0.8"/>
      </g>
     </g>
     <g id="text_24">
      <!-- −10 -->
      <g transform="translate(42.095313 332.505529) scale(0.1 -0.1)">
       <use xlink:href="#DejaVuSans-2212"/>
       <use xlink:href="#DejaVuSans-31" transform="translate(83.789062 0)"/>
       <use xlink:href="#DejaVuSans-30" transform="translate(147.412109 0)"/>
      </g>
     </g>
    </g>
    <g id="ytick_7">
     <g id="line2d_26">
      <g>
       <use xlink:href="#mca05d40fae" x="70.2" y="304.559367" style="stroke: #000000; stroke-width: 0.8"/>
      </g>
     </g>
     <g id="text_25">
      <!-- −5 -->
      <g transform="translate(48.457813 308.358585) scale(0.1 -0.1)">
       <use xlink:href="#DejaVuSans-2212"/>
       <use xlink:href="#DejaVuSans-35" transform="translate(83.789062 0)"/>
      </g>
     </g>
    </g>
    <g id="ytick_8">
     <g id="line2d_27">
      <g>
       <use xlink:href="#mca05d40fae" x="70.2" y="280.412422" style="stroke: #000000; stroke-width: 0.8"/>
      </g>
     </g>
     <g id="text_26">
      <!-- 0 -->
      <g transform="translate(56.8375 284.211641) scale(0.1 -0.1)">
       <use xlink:href="#DejaVuSans-30"/>
      </g>
     </g>
    </g>
    <g id="ytick_9">
     <g id="line2d_28">
      <g>
       <use xlink:href="#mca05d40fae" x="70.2" y="256.265478" style="stroke: #000000; stroke-width: 0.8"/>
      </g>
     </g>
     <g id="text_27">
      <!-- 5 -->
      <g transform="translate(56.8375 260.064697) scale(0.1 -0.1)">
       <use xlink:href="#DejaVuSans-35"/>
      </g>
     </g>
    </g>
    <g id="text_28">
     <!-- ΔΔLL (bits) -->
     <g transform="translate(36.015625 322.22225) rotate(-90) scale(0.1 -0.1)">
      <use xlink:href="#DejaVuSans-394"/>
      <use xlink:href="#DejaVuSans-394" transform="translate(68.408203 0)"/>
      <use xlink:href="#DejaVuSans-4c" transform="translate(136.816406 0)"/>
      <use xlink:href="#DejaVuSans-4c" transform="translate(192.529297 0)"/>
      <use xlink:href="#DejaVuSans-20" transform="translate(248.242188 0)"/>
      <use xlink:href="#DejaVuSans-28" transform="translate(280.029297 0)"/>
      <use xlink:href="#DejaVuSans-62" transform="translate(319.042969 0)"/>
      <use xlink:href="#DejaVuSans-69" transform="translate(382.519531 0)"/>
      <use xlink:href="#DejaVuSans-74" transform="translate(410.302734 0)"/>
      <use xlink:href="#DejaVuSans-73" transform="translate(449.511719 0)"/>
      <use xlink:href="#DejaVuSans-29" transform="translate(501.611328 0)"/>
     </g>
    </g>
   </g>
   <g id="line2d_29">
    <path d="M 167.91917 353.106 
L 167.91917 237.276 
" clip-path="url(#pff2e847097)" style="fill: none; stroke-dasharray: 2.96,1.28; stroke-dashoffset: 0; stroke: #000000; stroke-width: 0.8"/>
   </g>
   <g id="line2d_30">
    <path d="M 70.2 280.412422 
L 505.44 280.412422 
" clip-path="url(#pff2e847097)" style="fill: none; stroke-dasharray: 0.8,1.32; stroke-dashoffset: 0; stroke: #000000; stroke-width: 0.8"/>
   </g>
   <g id="line2d_31">
    <path d="M 89.983636 250.547261 
L 93.980327 274.352155 
L 97.977023 294.277903 
L 101.973713 242.541 
L 105.97041 283.411705 
L 109.967106 272.297592 
L 113.963796 288.951466 
L 117.960493 269.209957 
L 121.957186 277.818316 
L 125.953882 269.670142 
L 129.950576 287.965575 
L 133.947269 282.846372 
L 137.943962 290.184353 
L 141.940659 288.580095 
L 145.937352 287.657564 
L 149.934045 251.915724 
L 153.93074 301.29776 
L 157.927434 271.827766 
L 161.924129 279.245975 
L 165.920823 277.730461 
L 169.917517 299.456202 
L 173.914211 263.711783 
L 177.910906 289.350495 
L 181.9076 279.75422 
L 185.904294 287.206084 
L 189.900988 280.59291 
L 193.897681 269.131544 
L 197.894377 245.821419 
L 201.891071 290.582133 
L 205.887764 245.206931 
L 209.884457 271.821526 
L 213.881154 251.377877 
L 217.877847 292.969164 
L 221.874543 267.244419 
L 225.871234 275.926575 
L 229.86793 347.841 
L 233.864626 273.362067 
L 237.861317 272.636607 
L 241.858013 246.127182 
L 245.854704 321.568431 
L 249.8514 263.575178 
L 253.848096 288.941459 
L 257.844787 262.760526 
L 261.841483 269.899924 
L 265.838179 276.084347 
L 269.83487 273.473365 
L 273.83156 266.082936 
L 277.828262 271.343198 
L 281.824953 291.267267 
L 285.821643 264.878769 
L 289.818345 280.012019 
L 293.815036 303.610004 
L 297.811726 310.112057 
L 301.808428 309.348624 
L 305.805119 284.070964 
L 309.801809 285.064084 
L 313.798511 245.110923 
L 317.795202 321.743367 
L 321.791892 279.651221 
L 325.788594 278.672227 
L 329.785285 273.650603 
L 333.781975 277.924113 
L 337.778677 294.711894 
L 341.775368 286.223982 
L 345.772058 284.89128 
L 349.76876 283.416165 
L 353.765451 249.050565 
L 357.762141 295.418916 
L 361.758843 273.61115 
L 365.755534 280.505721 
L 369.752224 282.055616 
L 373.748914 277.95227 
L 377.745605 296.438552 
L 381.742319 269.687705 
L 385.739009 296.263739 
L 389.7357 290.980455 
L 393.73239 299.903432 
L 397.72908 280.749115 
L 401.725771 271.037059 
L 405.722485 256.943883 
L 409.719175 283.2919 
L 413.715866 264.256652 
L 417.712556 277.260323 
L 421.709246 269.527152 
L 425.705937 299.735662 
L 429.702627 256.431049 
L 433.699341 274.292056 
L 437.696032 288.343443 
L 441.692722 253.983206 
L 445.689412 283.143356 
L 449.686103 281.69515 
L 453.682793 280.585997 
L 457.679507 274.584709 
L 461.676198 300.279268 
L 465.672888 284.03996 
L 469.669578 287.297917 
L 473.666269 254.225103 
L 477.662959 285.486627 
L 481.659673 260.610977 
L 485.656364 284.152549 
" clip-path="url(#pff2e847097)" style="fill: none; stroke: #d62728; stroke-width: 2.2; stroke-linecap: square"/>
   </g>
   <g id="line2d_32">
    <defs>
     <path id="m5d7a44a484" d="M 0 1.25 
C 0.331504 1.25 0.649475 1.118292 0.883883 0.883883 
C 1.118292 0.649475 1.25 0.331504 1.25 0 
C 1.25 -0.331504 1.118292 -0.649475 0.883883 -0.883883 
C 0.649475 -1.118292 0.331504 -1.25 0 -1.25 
C -0.331504 -1.25 -0.649475 -1.118292 -0.883883 -0.883883 
C -1.118292 -0.649475 -1.25 -0.331504 -1.25 0 
C -1.25 0.331504 -1.118292 0.649475 -0.883883 0.883883 
C -0.649475 1.118292 -0.331504 1.25 0 1.25 
z
" style="stroke: #000000"/>
    </defs>
    <g clip-path="url(#pff2e847097)">
     <use xlink:href="#m5d7a44a484" x="89.983636" y="250.547261" style="stroke: #000000"/>
     <use xlink:href="#m5d7a44a484" x="197.894377" y="245.821419" style="stroke: #000000"/>
     <use xlink:href="#m5d7a44a484" x="205.887764" y="245.206931" style="stroke: #000000"/>
     <use xlink:href="#m5d7a44a484" x="229.86793" y="347.841" style="stroke: #000000"/>
     <use xlink:href="#m5d7a44a484" x="241.858013" y="246.127182" style="stroke: #000000"/>
     <use xlink:href="#m5d7a44a484" x="245.854704" y="321.568431" style="stroke: #000000"/>
     <use xlink:href="#m5d7a44a484" x="285.821643" y="264.878769" style="stroke: #000000"/>
     <use xlink:href="#m5d7a44a484" x="301.808428" y="309.348624" style="stroke: #000000"/>
     <use xlink:href="#m5d7a44a484" x="313.798511" y="245.110923" style="stroke: #000000"/>
     <use xlink:href="#m5d7a44a484" x="317.795202" y="321.743367" style="stroke: #000000"/>
     <use xlink:href="#m5d7a44a484" x="353.765451" y="249.050565" style="stroke: #000000"/>
    </g>
   </g>
   <g id="patch_10">
    <path d="M 70.2 353.106 
L 70.2 237.276 
" style="fill: none; stroke: #000000; stroke-width: 0.8; stroke-linejoin: miter; stroke-linecap: square"/>
   </g>
   <g id="patch_11">
    <path d="M 505.44 353.106 
L 505.44 237.276 
" style="fill: none; stroke: #000000; stroke-width: 0.8; stroke-linejoin: miter; stroke-linecap: square"/>
   </g>
   <g id="patch_12">
    <path d="M 70.2 353.106 
L 505.44 353.106 
" style="fill: none; stroke: #000000; stroke-width: 0.8; stroke-linejoin: miter; stroke-linecap: square"/>
   </g>
   <g id="patch_13">
    <path d="M 70.2 237.276 
L 505.44 237.276 
" style="fill: none; stroke: #000000; stroke-width: 0.8; stroke-linejoin: miter; stroke-linecap: square"/>
   </g>
   <g id="text_29">
    <!-- Panel B: pair-diff with significance dots -->
    <g transform="translate(171.554063 231.276) scale(0.12 -0.12)">
     <defs>
      <path id="DejaVuSans-42" d="M 1259 2228 
L 1259 519 
L 2272 519 
Q 2781 519 3026 730 
Q 3272 941 3272 1375 
Q 3272 1813 3026 2020 
Q 2781 2228 2272 2228 
L 1259 2228 
z
M 1259 4147 
L 1259 2741 
L 2194 2741 
Q 2656 2741 2882 2914 
Q 3109 3088 3109 3444 
Q 3109 3797 2882 3972 
Q 2656 4147 2194 4147 
L 1259 4147 
z
M 628 4666 
L 2241 4666 
Q 2963 4666 3353 4366 
Q 3744 4066 3744 3513 
Q 3744 3084 3544 2831 
Q 3344 2578 2956 2516 
Q 3422 2416 3680 2098 
Q 3938 1781 3938 1306 
Q 3938 681 3513 340 
Q 3088 0 2303 0 
L 628 0 
L 628 4666 
z
" transform="scale(0.015625)"/>
      <path id="DejaVuSans-70" d="M 1159 525 
L 1159 -1331 
L 581 -1331 
L 581 3500 
L 1159 3500 
L 1159 2969 
Q 1341 3281 1617 3432 
Q 1894 3584 2278 3584 
Q 2916 3584 3314 3078 
Q 3713 2572 3713 1747 
Q 3713 922 3314 415 
Q 2916 -91 2278 -91 
Q 1894 -91 1617 61 
Q 1341 213 1159 525 
z
M 3116 1747 
Q 3116 2381 2855 2742 
Q 2594 3103 2138 3103 
Q 1681 3103 1420 2742 
Q 1159 2381 1159 1747 
Q 1159 1113 1420 752 
Q 1681 391 2138 391 
Q 2594 391 2855 752 
Q 3116 1113 3116 1747 
z
" transform="scale(0.015625)"/>
      <path id="DejaVuSans-68" d="M 3513 2113 
L 3513 0 
L 2938 0 
L 2938 2094 
Q 2938 2591 2744 2837 
Q 2550 3084 2163 3084 
Q 1697 3084 1428 2787 
Q 1159 2491 1159 1978 
L 1159 0 
L 581 0 
L 581 4863 
L 1159 4863 
L 1159 2956 
Q 1366 3272 1645 3428 
Q 1925 3584 2291 3584 
Q 2894 3584 3203 3211 
Q 3513 2838 3513 2113 
z
" transform="scale(0.015625)"/>
      <path id="DejaVuSans-67" d="M 2906 1791 
Q 2906 2416 2648 2759 
Q 2391 3103 1925 3103 
Q 1463 3103 1205 2759 
Q 947 2416 947 1791 
Q 947 1169 1205 825 
Q 1463 481 1925 481 
Q 2391 481 2648 825 
Q 2906 1169 2906 1791 
z
M 3481 434 
Q 3481 -459 3084 -895 
Q 2688 -1331 1869 -1331 
Q 1566 -1331 1297 -1286 
Q 1028 -1241 775 -1147 
L 775 -588 
Q 1028 -725 1275 -790 
Q 1522 -856 1778 -856 
Q 2344 -856 2625 -561 
Q 2906 -266 2906 331 
L 2906 616 
Q 2728 306 2450 153 
Q 2172 0 1784 0 
Q 1141 0 747 490 
Q 353 981 353 1791 
Q 353 2603 747 3093 
Q 1141 3584 1784 3584 
Q 2172 3584 2450 3431 
Q 2728 3278 2906 2969 
L 2906 3500 
L 3481 3500 
L 3481 434 
z
" transform="scale(0.015625)"/>
      <path id="DejaVuSans-63" d="M 3122 3366 
L 3122 2828 
Q 2878 2963 2633 3030 
Q 2388 3097 2138 3097 
Q 1578 3097 1268 2742 
Q 959 2388 959 1747 
Q 959 1106 1268 751 
Q 1578 397 2138 397 
Q 2388 397 2633 464 
Q 2878 531 3122 666 
L 3122 134 
Q 2881 22 2623 -34 
Q 2366 -91 2075 -91 
Q 1284 -91 818 406 
Q 353 903 353 1747 
Q 353 2603 823 3093 
Q 1294 3584 2113 3584 
Q 2378 3584 2631 3529 
Q 2884 3475 3122 3366 
z
" transform="scale(0.015625)"/>
     </defs>
     <use xlink:href="#DejaVuSans-50"/>
     <use xlink:href="#DejaVuSans-61" transform="translate(55.802734 0)"/>
     <use xlink:href="#DejaVuSans-6e" transform="translate(117.082031 0)"/>
     <use xlink:href="#DejaVuSans-65" transform="translate(180.460938 0)"/>
     <use xlink:href="#DejaVuSans-6c" transform="translate(241.984375 0)"/>
     <use xlink:href="#DejaVuSans-20" transform="translate(269.767578 0)"/>
     <use xlink:href="#DejaVuSans-42" transform="translate(301.554688 0)"/>
     <use xlink:href="#DejaVuSans-3a" transform="translate(370.158203 0)"/>
     <use xlink:href="#DejaVuSans-20" transform="translate(403.849609 0)"/>
     <use xlink:href="#DejaVuSans-70" transform="translate(435.636719 0)"/>
     <use xlink:href="#DejaVuSans-61" transform="translate(499.113281 0)"/>
     <use xlink:href="#DejaVuSans-69" transform="translate(560.392578 0)"/>
     <use xlink:href="#DejaVuSans-72" transform="translate(588.175781 0)"/>
     <use xlink:href="#DejaVuSans-2d" transform="translate(622.914062 0)"/>
     <use xlink:href="#DejaVuSans-64" transform="translate(658.998047 0)"/>
     <use xlink:href="#DejaVuSans-69" transform="translate(722.474609 0)"/>
     <use xlink:href="#DejaVuSans-66" transform="translate(750.257812 0)"/>
     <use xlink:href="#DejaVuSans-66" transform="translate(785.462891 0)"/>
     <use xlink:href="#DejaVuSans-20" transform="translate(820.667969 0)"/>
     <use xlink:href="#DejaVuSans-77" transform="translate(852.455078 0)"/>
     <use xlink:href="#DejaVuSans-69" transform="translate(934.242188 0)"/>
     <use xlink:href="#DejaVuSans-74" transform="translate(962.025391 0)"/>
     <use xlink:href="#DejaVuSans-68" transform="translate(1001.234375 0)"/>
     <use xlink:href="#DejaVuSans-20" transform="translate(1064.613281 0)"/>
     <use xlink:href="#DejaVuSans-73" transform="translate(1096.400391 0)"/>
     <use xlink:href="#DejaVuSans-69" transform="translate(1148.5 0)"/>
     <use xlink:href="#DejaVuSans-67" transform="translate(1176.283203 0)"/>
     <use xlink:href="#DejaVuSans-6e" transform="translate(1239.759766 0)"/>
     <use xlink:href="#DejaVuSans-69" transform="translate(1303.138672 0)"/>
     <use xlink:href="#DejaVuSans-66" transform="translate(1330.921875 0)"/>
     <use xlink:href="#DejaVuSans-69" transform="translate(1366.126953 0)"/>
     <use xlink:href="#DejaVuSans-63" transform="translate(1393.910156 0)"/>
     <use xlink:href="#DejaVuSans-61" transform="translate(1448.890625 0)"/>
     <use xlink:href="#DejaVuSans-6e" transform="translate(1510.169922 0)"/>
     <use xlink:href="#DejaVuSans-63" transform="translate(1573.548828 0)"/>
     <use xlink:href="#DejaVuSans-65" transform="translate(1628.529297 0)"/>
     <use xlink:href="#DejaVuSans-20" transform="translate(1690.052734 0)"/>
     <use xlink:href="#DejaVuSans-64" transform="translate(1721.839844 0)"/>
     <use xlink:href="#DejaVuSans-6f" transform="translate(1785.316406 0)"/>
     <use xlink:href="#DejaVuSans-74" transform="translate(1846.498047 0)"/>
     <use xlink:href="#DejaVuSans-73" transform="translate(1885.707031 0)"/>
    </g>
   </g>
   <g id="legend_2">
    <g id="line2d_33">
     <path d="M 79.2 250.374437 
L 89.2 250.374437 
L 99.2 250.374437 
" style="fill: none; stroke: #d62728; stroke-width: 2.2; stroke-linecap: square"/>
    </g>
    <g id="text_30">
     <!-- (A→B − B→A) -->
     <g transform="translate(107.2 253.874437) scale(0.1 -0.1)">
      <use xlink:href="#DejaVuSans-28"/>
      <use xlink:href="#DejaVuSans-41" transform="translate(39.013672 0)"/>
      <use xlink:href="#DejaVuSans-2192" transform="translate(107.421875 0)"/>
      <use xlink:href="#DejaVuSans-42" transform="translate(191.210938 0)"/>
      <use xlink:href="#DejaVuSans-20" transform="translate(259.814453 0)"/>
      <use xlink:href="#DejaVuSans-2212" transform="translate(291.601562 0)"/>
      <use xlink:href="#DejaVuSans-20" transform="translate(375.390625 0)"/>
      <use xlink:href="#DejaVuSans-42" transform="translate(407.177734 0)"/>
      <use xlink:href="#DejaVuSans-2192" transform="translate(475.78125 0)"/>
      <use xlink:href="#DejaVuSans-41" transform="translate(559.570312 0)"/>
      <use xlink:href="#DejaVuSans-29" transform="translate(627.978516 0)"/>
     </g>
    </g>
    <g id="line2d_34">
     <g>
      <use xlink:href="#m5d7a44a484" x="89.2" y="265.052563" style="stroke: #000000"/>
     </g>
    </g>
    <g id="text_31">
     <!-- p&lt;0.05 (one-sided) -->
     <g transform="translate(107.2 268.552563) scale(0.1 -0.1)">
      <defs>
       <path id="DejaVuSans-3c" d="M 4684 3150 
L 1459 2003 
L 4684 863 
L 4684 294 
L 678 1747 
L 678 2266 
L 4684 3719 
L 4684 3150 
z
" transform="scale(0.015625)"/>
       <path id="DejaVuSans-2e" d="M 684 794 
L 1344 794 
L 1344 0 
L 684 0 
L 684 794 
z
" transform="scale(0.015625)"/>
      </defs>
      <use xlink:href="#DejaVuSans-70"/>
      <use xlink:href="#DejaVuSans-3c" transform="translate(63.476562 0)"/>
      <use xlink:href="#DejaVuSans-30" transform="translate(147.265625 0)"/>
      <use xlink:href="#DejaVuSans-2e" transform="translate(210.888672 0)"/>
      <use xlink:href="#DejaVuSans-30" transform="translate(242.675781 0)"/>
      <use xlink:href="#DejaVuSans-35" transform="translate(306.298828 0)"/>
      <use xlink:href="#DejaVuSans-20" transform="translate(369.921875 0)"/>
      <use xlink:href="#DejaVuSans-28" transform="translate(401.708984 0)"/>
      <use xlink:href="#DejaVuSans-6f" transform="translate(440.722656 0)"/>
      <use xlink:href="#DejaVuSans-6e" transform="translate(501.904297 0)"/>
      <use xlink:href="#DejaVuSans-65" transform="translate(565.283203 0)"/>
      <use xlink:href="#DejaVuSans-2d" transform="translate(626.806641 0)"/>
      <use xlink:href="#DejaVuSans-73" transform="translate(662.890625 0)"/>
      <use xlink:href="#DejaVuSans-69" transform="translate(714.990234 0)"/>
      <use xlink:href="#DejaVuSans-64" transform="translate(742.773438 0)"/>
      <use xlink:href="#DejaVuSans-65" transform="translate(806.25 0)"/>
      <use xlink:href="#DejaVuSans-64" transform="translate(867.773438 0)"/>
      <use xlink:href="#DejaVuSans-29" transform="translate(931.25 0)"/>
     </g>
    </g>
   </g>
  </g>
  <g id="axes_3">
   <g id="patch_14">
    <path d="M 70.2 499.824 
L 505.44 499.824 
L 505.44 383.994 
L 70.2 383.994 
z
" style="fill: #ffffff"/>
   </g>
   <g id="matplotlib.axis_5">
    <g id="xtick_13">
     <g id="line2d_35">
      <g>
       <use xlink:href="#m5fc2e3273a" x="87.985286" y="499.824" style="stroke: #000000; stroke-width: 0.8"/>
      </g>
     </g>
     <g id="text_32">
      <!-- −200 -->
      <g transform="translate(74.251693 514.422438) scale(0.1 -0.1)">
       <use xlink:href="#DejaVuSans-2212"/>
       <use xlink:href="#DejaVuSans-32" transform="translate(83.789062 0)"/>
       <use xlink:href="#DejaVuSans-30" transform="translate(147.412109 0)"/>
       <use xlink:href="#DejaVuSans-30" transform="translate(211.035156 0)"/>
      </g>
     </g>
    </g>
    <g id="xtick_14">
     <g id="line2d_36">
      <g>
       <use xlink:href="#m5fc2e3273a" x="167.91917" y="499.824" style="stroke: #000000; stroke-width: 0.8"/>
      </g>
     </g>
     <g id="text_33">
      <!-- 0 -->
      <g transform="translate(164.73792 514.422438) scale(0.1 -0.1)">
       <use xlink:href="#DejaVuSans-30"/>
      </g>
     </g>
    </g>
    <g id="xtick_15">
     <g id="line2d_37">
      <g>
       <use xlink:href="#m5fc2e3273a" x="247.853053" y="499.824" style="stroke: #000000; stroke-width: 0.8"/>
      </g>
     </g>
     <g id="text_34">
      <!-- 200 -->
      <g transform="translate(238.309303 514.422438) scale(0.1 -0.1)">
       <use xlink:href="#DejaVuSans-32"/>
       <use xlink:href="#DejaVuSans-30" transform="translate(63.623047 0)"/>
       <use xlink:href="#DejaVuSans-30" transform="translate(127.246094 0)"/>
      </g>
     </g>
    </g>
    <g id="xtick_16">
     <g id="line2d_38">
      <g>
       <use xlink:href="#m5fc2e3273a" x="327.786937" y="499.824" style="stroke: #000000; stroke-width: 0.8"/>
      </g>
     </g>
     <g id="text_35">
      <!-- 400 -->
      <g transform="translate(318.243187 514.422438) scale(0.1 -0.1)">
       <use xlink:href="#DejaVuSans-34"/>
       <use xlink:href="#DejaVuSans-30" transform="translate(63.623047 0)"/>
       <use xlink:href="#DejaVuSans-30" transform="translate(127.246094 0)"/>
      </g>
     </g>
    </g>
    <g id="xtick_17">
     <g id="line2d_39">
      <g>
       <use xlink:href="#m5fc2e3273a" x="407.720821" y="499.824" style="stroke: #000000; stroke-width: 0.8"/>
      </g>
     </g>
     <g id="text_36">
      <!-- 600 -->
      <g transform="translate(398.177071 514.422438) scale(0.1 -0.1)">
       <use xlink:href="#DejaVuSans-36"/>
       <use xlink:href="#DejaVuSans-30" transform="translate(63.623047 0)"/>
       <use xlink:href="#DejaVuSans-30" transform="translate(127.246094 0)"/>
      </g>
     </g>
    </g>
    <g id="xtick_18">
     <g id="line2d_40">
      <g>
       <use xlink:href="#m5fc2e3273a" x="487.654704" y="499.824" style="stroke: #000000; stroke-width: 0.8"/>
      </g>
     </g>
     <g id="text_37">
      <!-- 800 -->
      <g transform="translate(478.110954 514.422438) scale(0.1 -0.1)">
       <use xlink:href="#DejaVuSans-38"/>
       <use xlink:href="#DejaVuSans-30" transform="translate(63.623047 0)"/>
       <use xlink:href="#DejaVuSans-30" transform="translate(127.246094 0)"/>
      </g>
     </g>
    </g>
    <g id="text_38">
     <!-- Time (ms) -->
     <g transform="translate(262.620781 528.100563) scale(0.1 -0.1)">
      <defs>
       <path id="DejaVuSans-54" d="M -19 4666 
L 3928 4666 
L 3928 4134 
L 2272 4134 
L 2272 0 
L 1638 0 
L 1638 4134 
L -19 4134 
L -19 4666 
z
" transform="scale(0.015625)"/>
       <path id="DejaVuSans-6d" d="M 3328 2828 
Q 3544 3216 3844 3400 
Q 4144 3584 4550 3584 
Q 5097 3584 5394 3201 
Q 5691 2819 5691 2113 
L 5691 0 
L 5113 0 
L 5113 2094 
Q 5113 2597 4934 2840 
Q 4756 3084 4391 3084 
Q 3944 3084 3684 2787 
Q 3425 2491 3425 1978 
L 3425 0 
L 2847 0 
L 2847 2094 
Q 2847 2600 2669 2842 
Q 2491 3084 2119 3084 
Q 1678 3084 1418 2786 
Q 1159 2488 1159 1978 
L 1159 0 
L 581 0 
L 581 3500 
L 1159 3500 
L 1159 2956 
Q 1356 3278 1631 3431 
Q 1906 3584 2284 3584 
Q 2666 3584 2933 3390 
Q 3200 3197 3328 2828 
z
" transform="scale(0.015625)"/>
      </defs>
      <use xlink:href="#DejaVuSans-54"/>
      <use xlink:href="#DejaVuSans-69" transform="translate(57.958984 0)"/>
      <use xlink:href="#DejaVuSans-6d" transform="translate(85.742188 0)"/>
      <use xlink:href="#DejaVuSans-65" transform="translate(183.154297 0)"/>
      <use xlink:href="#DejaVuSans-20" transform="translate(244.677734 0)"/>
      <use xlink:href="#DejaVuSans-28" transform="translate(276.464844 0)"/>
      <use xlink:href="#DejaVuSans-6d" transform="translate(315.478516 0)"/>
      <use xlink:href="#DejaVuSans-73" transform="translate(412.890625 0)"/>
      <use xlink:href="#DejaVuSans-29" transform="translate(464.990234 0)"/>
     </g>
    </g>
   </g>
   <g id="matplotlib.axis_6">
    <g id="ytick_10">
     <g id="line2d_41">
      <g>
       <use xlink:href="#mca05d40fae" x="70.2" y="472.394374" style="stroke: #000000; stroke-width: 0.8"/>
      </g>
     </g>
     <g id="text_39">
      <!-- 0 -->
      <g transform="translate(56.8375 476.193593) scale(0.1 -0.1)">
       <use xlink:href="#DejaVuSans-30"/>
      </g>
     </g>
    </g>
    <g id="ytick_11">
     <g id="line2d_42">
      <g>
       <use xlink:href="#mca05d40fae" x="70.2" y="442.566194" style="stroke: #000000; stroke-width: 0.8"/>
      </g>
     </g>
     <g id="text_40">
      <!-- 2 -->
      <g transform="translate(56.8375 446.365413) scale(0.1 -0.1)">
       <use xlink:href="#DejaVuSans-32"/>
      </g>
     </g>
    </g>
    <g id="ytick_12">
     <g id="line2d_43">
      <g>
       <use xlink:href="#mca05d40fae" x="70.2" y="412.738014" style="stroke: #000000; stroke-width: 0.8"/>
      </g>
     </g>
     <g id="text_41">
      <!-- 4 -->
      <g transform="translate(56.8375 416.537232) scale(0.1 -0.1)">
       <use xlink:href="#DejaVuSans-34"/>
      </g>
     </g>
    </g>
    <g id="text_42">
     <!-- Z (σ from null) -->
     <g transform="translate(50.757812 477.919938) rotate(-90) scale(0.1 -0.1)">
      <defs>
       <path id="DejaVuSans-5a" d="M 359 4666 
L 4025 4666 
L 4025 4184 
L 1075 531 
L 4097 531 
L 4097 0 
L 288 0 
L 288 481 
L 3238 4134 
L 359 4134 
L 359 4666 
z
" transform="scale(0.015625)"/>
      </defs>
      <use xlink:href="#DejaVuSans-5a"/>
      <use xlink:href="#DejaVuSans-20" transform="translate(68.505859 0)"/>
      <use xlink:href="#DejaVuSans-28" transform="translate(100.292969 0)"/>
      <use xlink:href="#DejaVuSans-3c3" transform="translate(139.306641 0)"/>
      <use xlink:href="#DejaVuSans-20" transform="translate(202.685547 0)"/>
      <use xlink:href="#DejaVuSans-66" transform="translate(234.472656 0)"/>
      <use xlink:href="#DejaVuSans-72" transform="translate(269.677734 0)"/>
      <use xlink:href="#DejaVuSans-6f" transform="translate(308.541016 0)"/>
      <use xlink:href="#DejaVuSans-6d" transform="translate(369.722656 0)"/>
      <use xlink:href="#DejaVuSans-20" transform="translate(467.134766 0)"/>
      <use xlink:href="#DejaVuSans-6e" transform="translate(498.921875 0)"/>
      <use xlink:href="#DejaVuSans-75" transform="translate(562.300781 0)"/>
      <use xlink:href="#DejaVuSans-6c" transform="translate(625.679688 0)"/>
      <use xlink:href="#DejaVuSans-6c" transform="translate(653.462891 0)"/>
      <use xlink:href="#DejaVuSans-29" transform="translate(681.246094 0)"/>
     </g>
    </g>
   </g>
   <g id="line2d_44">
    <path d="M 167.91917 499.824 
L 167.91917 383.994 
" clip-path="url(#pa13e881975)" style="fill: none; stroke-dasharray: 2.96,1.28; stroke-dashoffset: 0; stroke: #000000; stroke-width: 0.8"/>
   </g>
   <g id="line2d_45">
    <path d="M 89.983636 435.145332 
L 93.980327 479.333165 
L 97.977023 479.80245 
L 101.973713 389.259 
L 105.97041 492.142486 
L 109.967106 466.386881 
L 113.963796 472.253576 
L 117.960493 472.985468 
L 121.957186 482.726043 
L 125.953882 467.831823 
L 129.950576 477.449862 
L 133.947269 468.474928 
L 137.943962 475.887554 
L 141.940659 488.197051 
L 145.937352 484.875026 
L 149.934045 452.477019 
L 153.93074 484.363013 
L 157.927434 466.692704 
L 161.924129 480.394651 
L 165.920823 473.261155 
L 169.917517 481.760095 
L 173.914211 451.329775 
L 177.910906 480.210406 
L 181.9076 490.461851 
L 185.904294 481.445123 
L 189.900988 470.840152 
L 193.897681 463.8484 
L 197.894377 429.851654 
L 201.891071 494.559 
L 205.887764 420.639613 
L 209.884457 464.138987 
L 213.881154 449.036878 
L 217.877847 487.538955 
L 221.874543 470.024664 
L 225.871234 477.054135 
L 229.86793 493.825572 
L 233.864626 478.617868 
L 237.861317 469.165474 
L 241.858013 435.324857 
L 245.854704 474.518696 
L 249.8514 470.652667 
L 253.848096 490.885707 
L 257.844787 468.2655 
L 261.841483 474.4712 
L 265.838179 457.574953 
L 269.83487 467.989568 
L 273.83156 450.352856 
L 277.828262 465.095735 
L 281.824953 486.00026 
L 285.821643 442.750679 
L 289.818345 485.483242 
L 293.815036 485.196722 
L 297.811726 492.272897 
L 301.808428 472.158239 
L 305.805119 486.229312 
L 309.801809 479.907227 
L 313.798511 436.099062 
L 317.795202 492.346851 
L 321.791892 478.820882 
L 325.788594 474.624024 
L 329.785285 472.682101 
L 333.781975 442.58151 
L 337.778677 489.162659 
L 341.775368 478.052583 
L 345.772058 471.01592 
L 349.76876 466.389055 
L 353.765451 444.00494 
L 357.762141 490.477977 
L 361.758843 472.376138 
L 365.755534 479.228733 
L 369.752224 469.933294 
L 373.748914 486.688554 
L 377.745605 472.489281 
L 381.742319 468.965355 
L 385.739009 490.145954 
L 389.7357 467.567975 
L 393.73239 490.260642 
L 397.72908 481.199962 
L 401.725771 470.985929 
L 405.722485 460.061445 
L 409.719175 461.700169 
L 413.715866 458.312702 
L 417.712556 472.230656 
L 421.709246 458.977517 
L 425.705937 477.095436 
L 429.702627 458.610219 
L 433.699341 477.860652 
L 437.696032 466.495817 
L 441.692722 446.067933 
L 445.689412 471.46613 
L 449.686103 487.304613 
L 453.682793 481.707719 
L 457.679507 467.341239 
L 461.676198 487.907702 
L 465.672888 481.948044 
L 469.669578 463.643475 
L 473.666269 450.963579 
L 477.662959 489.104207 
L 481.659673 461.728644 
L 485.656364 471.637179 
" clip-path="url(#pa13e881975)" style="fill: none; stroke: #1f77b4; stroke-width: 2; stroke-linecap: square"/>
   </g>
   <g id="line2d_46">
    <path d="M 89.983636 474.056883 
L 93.980327 487.558725 
L 97.977023 462.218526 
L 101.973713 434.783813 
L 105.97041 489.58062 
L 109.967106 478.643792 
L 113.963796 461.951268 
L 117.960493 487.820979 
L 121.957186 486.847058 
L 125.953882 484.290616 
L 129.950576 464.089663 
L 133.947269 469.211321 
L 137.943962 461.665137 
L 141.940659 477.452348 
L 145.937352 474.785807 
L 149.934045 490.624177 
L 153.93074 457.150394 
L 157.927434 479.744924 
L 161.924129 481.101776 
L 165.920823 478.909041 
L 169.917517 456.108915 
L 173.914211 460.784395 
L 177.910906 469.315645 
L 181.9076 490.718753 
L 185.904294 475.616168 
L 189.900988 469.838508 
L 193.897681 479.530949 
L 197.894377 479.594386 
L 201.891071 481.130577 
L 205.887764 467.98316 
L 209.884457 478.702232 
L 213.881154 486.282746 
L 217.877847 469.391515 
L 221.874543 487.615725 
L 225.871234 482.762753 
L 229.86793 406.699736 
L 233.864626 488.264814 
L 237.861317 479.442912 
L 241.858013 481.754918 
L 245.854704 421.549943 
L 249.8514 489.252662 
L 253.848096 479.036784 
L 257.844787 490.360052 
L 261.841483 489.095738 
L 265.838179 462.905325 
L 269.83487 476.653898 
L 273.83156 468.511375 
L 277.828262 476.446803 
L 281.824953 471.140873 
L 285.821643 460.664052 
L 289.818345 485.072809 
L 293.815036 455.053036 
L 297.811726 452.61983 
L 301.808428 430.747731 
L 305.805119 482.851296 
L 309.801809 473.704822 
L 313.798511 485.414602 
L 317.795202 432.397661 
L 321.791892 480.364879 
L 325.788594 475.899113 
L 329.785285 479.923049 
L 333.781975 447.662716 
L 337.778677 469.165924 
L 341.775368 467.634725 
L 345.772058 465.909184 
L 349.76876 464.233199 
L 353.765451 482.654179 
L 357.762141 470.302823 
L 361.758843 479.747978 
L 365.755534 478.344778 
L 369.752224 463.875488 
L 373.748914 487.708509 
L 377.745605 452.982069 
L 381.742319 482.459988 
L 385.739009 468.076983 
L 389.7357 454.36485 
L 393.73239 461.798995 
L 397.72908 479.784905 
L 401.725771 483.236822 
L 405.722485 488.958195 
L 409.719175 458.853242 
L 413.715866 478.283414 
L 417.712556 471.96613 
L 421.709246 472.335926 
L 425.705937 451.150092 
L 429.702627 492.391186 
L 433.699341 485.370345 
L 437.696032 456.873188 
L 441.692722 481.700032 
L 445.689412 466.713081 
L 449.686103 487.728451 
L 453.682793 479.845109 
L 457.679507 476.572327 
L 461.676198 463.603567 
L 465.672888 477.309827 
L 469.669578 462.096609 
L 473.666269 486.053992 
L 477.662959 482.310692 
L 481.659673 486.344343 
L 485.656364 466.409607 
" clip-path="url(#pa13e881975)" style="fill: none; stroke: #ff7f0e; stroke-width: 2; stroke-linecap: square"/>
   </g>
   <g id="patch_15">
    <path d="M 70.2 499.824 
L 70.2 383.994 
" style="fill: none; stroke: #000000; stroke-width: 0.8; stroke-linejoin: miter; stroke-linecap: square"/>
   </g>
   <g id="patch_16">
    <path d="M 505.44 499.824 
L 505.44 383.994 
" style="fill: none; stroke: #000000; stroke-width: 0.8; stroke-linejoin: miter; stroke-linecap: square"/>
   </g>
   <g id="patch_17">
    <path d="M 70.2 499.824 
L 505.44 499.824 
" style="fill: none; stroke: #000000; stroke-width: 0.8; stroke-linejoin: miter; stroke-linecap: square"/>
   </g>
   <g id="patch_18">
    <path d="M 70.2 383.994 
L 505.44 383.994 
" style="fill: none; stroke: #000000; stroke-width: 0.8; stroke-linejoin: miter; stroke-linecap: square"/>
   </g>
   <g id="text_43">
    <!-- Panel C: evidence strength vs null -->
    <g transform="translate(185.80125 377.994) scale(0.12 -0.12)">
     <use xlink:href="#DejaVuSans-50"/>
     <use xlink:href="#DejaVuSans-61" transform="translate(55.802734 0)"/>
     <use xlink:href="#DejaVuSans-6e" transform="translate(117.082031 0)"/>
     <use xlink:href="#DejaVuSans-65" transform="translate(180.460938 0)"/>
     <use xlink:href="#DejaVuSans-6c" transform="translate(241.984375 0)"/>
     <use xlink:href="#DejaVuSans-20" transform="translate(269.767578 0)"/>
     <use xlink:href="#DejaVuSans-43" transform="translate(301.554688 0)"/>
     <use xlink:href="#DejaVuSans-3a" transform="translate(371.378906 0)"/>
     <use xlink:href="#DejaVuSans-20" transform="translate(405.070312 0)"/>
     <use xlink:href="#DejaVuSans-65" transform="translate(436.857422 0)"/>
     <use xlink:href="#DejaVuSans-76" transform="translate(498.380859 0)"/>
     <use xlink:href="#DejaVuSans-69" transform="translate(557.560547 0)"/>
     <use xlink:href="#DejaVuSans-64" transform="translate(585.34375 0)"/>
     <use xlink:href="#DejaVuSans-65" transform="translate(648.820312 0)"/>
     <use xlink:href="#DejaVuSans-6e" transform="translate(710.34375 0)"/>
     <use xlink:href="#DejaVuSans-63" transform="translate(773.722656 0)"/>
     <use xlink:href="#DejaVuSans-65" transform="translate(828.703125 0)"/>
     <use xlink:href="#DejaVuSans-20" transform="translate(890.226562 0)"/>
     <use xlink:href="#DejaVuSans-73" transform="translate(922.013672 0)"/>
     <use xlink:href="#DejaVuSans-74" transform="translate(974.113281 0)"/>
     <use xlink:href="#DejaVuSans-72" transform="translate(1013.322266 0)"/>
     <use xlink:href="#DejaVuSans-65" transform="translate(1052.185547 0)"/>
     <use xlink:href="#DejaVuSans-6e" transform="translate(1113.708984 0)"/>
     <use xlink:href="#DejaVuSans-67" transform="translate(1177.087891 0)"/>
     <use xlink:href="#DejaVuSans-74" transform="translate(1240.564453 0)"/>
     <use xlink:href="#DejaVuSans-68" transform="translate(1279.773438 0)"/>
     <use xlink:href="#DejaVuSans-20" transform="translate(1343.152344 0)"/>
     <use xlink:href="#DejaVuSans-76" transform="translate(1374.939453 0)"/>
     <use xlink:href="#DejaVuSans-73" transform="translate(1434.119141 0)"/>
     <use xlink:href="#DejaVuSans-20" transform="translate(1486.21875 0)"/>
     <use xlink:href="#DejaVuSans-6e" transform="translate(1518.005859 0)"/>
     <use xlink:href="#DejaVuSans-75" transform="translate(1581.384766 0)"/>
     <use xlink:href="#DejaVuSans-6c" transform="translate(1644.763672 0)"/>
     <use xlink:href="#DejaVuSans-6c" transform="translate(1672.546875 0)"/>
    </g>
   </g>
   <g id="legend_3">
    <g id="line2d_47">
     <path d="M 79.2 397.092438 
L 89.2 397.092438 
L 99.2 397.092438 
" style="fill: none; stroke: #1f77b4; stroke-width: 2; stroke-linecap: square"/>
    </g>
    <g id="text_44">
     <!-- z(SFEF→SLIP) -->
     <g transform="translate(107.2 400.592438) scale(0.1 -0.1)">
      <defs>
       <path id="DejaVuSans-7a" d="M 353 3500 
L 3084 3500 
L 3084 2975 
L 922 459 
L 3084 459 
L 3084 0 
L 275 0 
L 275 525 
L 2438 3041 
L 353 3041 
L 353 3500 
z
" transform="scale(0.015625)"/>
      </defs>
      <use xlink:href="#DejaVuSans-7a"/>
      <use xlink:href="#DejaVuSans-28" transform="translate(52.490234 0)"/>
      <use xlink:href="#DejaVuSans-53" transform="translate(91.503906 0)"/>
      <use xlink:href="#DejaVuSans-46" transform="translate(154.980469 0)"/>
      <use xlink:href="#DejaVuSans-45" transform="translate(212.5 0)"/>
      <use xlink:href="#DejaVuSans-46" transform="translate(275.683594 0)"/>
      <use xlink:href="#DejaVuSans-2192" transform="translate(333.203125 0)"/>
      <use xlink:href="#DejaVuSans-53" transform="translate(416.992188 0)"/>
      <use xlink:href="#DejaVuSans-4c" transform="translate(480.46875 0)"/>
      <use xlink:href="#DejaVuSans-49" transform="translate(536.181641 0)"/>
      <use xlink:href="#DejaVuSans-50" transform="translate(565.673828 0)"/>
      <use xlink:href="#DejaVuSans-29" transform="translate(625.976562 0)"/>
     </g>
    </g>
    <g id="line2d_48">
     <path d="M 79.2 411.770563 
L 89.2 411.770563 
L 99.2 411.770563 
" style="fill: none; stroke: #ff7f0e; stroke-width: 2; stroke-linecap: square"/>
    </g>
    <g id="text_45">
     <!-- z(SLIP→SFEF) -->
     <g transform="translate(107.2 415.270563) scale(0.1 -0.1)">
      <use xlink:href="#DejaVuSans-7a"/>
      <use xlink:href="#DejaVuSans-28" transform="translate(52.490234 0)"/>
      <use xlink:href="#DejaVuSans-53" transform="translate(91.503906 0)"/>
      <use xlink:href="#DejaVuSans-4c" transform="translate(154.980469 0)"/>
      <use xlink:href="#DejaVuSans-49" transform="translate(210.693359 0)"/>
      <use xlink:href="#DejaVuSans-50" transform="translate(240.185547 0)"/>
      <use xlink:href="#DejaVuSans-2192" transform="translate(300.488281 0)"/>
      <use xlink:href="#DejaVuSans-53" transform="translate(384.277344 0)"/>
      <use xlink:href="#DejaVuSans-46" transform="translate(447.753906 0)"/>
      <use xlink:href="#DejaVuSans-45" transform="translate(505.273438 0)"/>
      <use xlink:href="#DejaVuSans-46" transform="translate(568.457031 0)"/>
      <use xlink:href="#DejaVuSans-29" transform="translate(625.976562 0)"/>
     </g>
    </g>
   </g>
  </g>
 </g>
 <defs>
  <clipPath id="pa6bb751ba4">
   <rect x="70.2" y="67.392" width="435.24" height="138.996"/>
  </clipPath>
  <clipPath id="pff2e847097">
   <rect x="70.2" y="237.276" width="435.24" height="115.83"/>
  </clipPath>
  <clipPath id="pa13e881975">
   <rect x="70.2" y="383.994" width="435.24" height="115.83"/>
  </clipPath>
 </defs>
</svg>
