<?xml version="1.0" encoding="utf-8" standalone="no"?>
<!DOCTYPE svg PUBLIC "-//W3C//DTD SVG 1.1//EN"
  "http://www.w3.org/Graphics/SVG/1.1/DTD/svg11.dtd">
<svg xmlns:xlink="http://www.w3.org/1999/xlink" width="828pt" height="453.6pt" viewBox="0 0 828 453.6" xmlns="http://www.w3.org/2000/svg" version="1.1">
 <metadata>
  <rdf:RDF xmlns:dc="http://purl.org/dc/elements/1.1/" xmlns:cc="http://creativecommons.org/ns#" xmlns:rdf="http://www.w3.org/1999/02/22-rdf-syntax-ns#">
   <cc:Work>
    <dc:type rdf:resource="http://purl.org/dc/dcmitype/StillImage"/>
    <dc:date>2026-01-13T16:11:50.984568</dc:date>
    <dc:format>image/svg+xml</dc:format>
    <dc:creator>
     <cc:Agent>
      <dc:title>Matplotlib v3.9.4, https://matplotlib.org/</dc:title>
     </cc:Agent>
    </dc:creator>
   </cc:Work>
  </rdf:RDF>
 </metadata>
 <defs>
  <style type="text/css">*{stroke-linejoin: round; stroke-linecap: butt}</style>
 </defs>
 <g id="figure_1">
  <g id="patch_1">
   <path d="M 0 453.6 
L 828 453.6 
L 828 0 
L 0 0 
z
" style="fill: #ffffff"/>
  </g>
  <g id="axes_1">
   <g id="patch_2">
    <path d="M 72 396 
L 792 396 
L 792 36 
L 72 36 
z
" style="fill: #ffffff"/>
   </g>
   <g id="PolyCollection_1">
    <path d="M -0.000005 113.610717 
L -0.000005 136.969579 
L 12.000002 572.258249 
L 23.999999 362.436898 
L 35.999997 254.011869 
L 47.999999 260.710466 
L 60.000001 337.872462 
L 72.000003 206.947079 
L 84 397.975892 
L 95.999998 305.948642 
L 108 289.855894 
L 120.000002 309.709614 
L 131.999999 308.804203 
L 143.999999 365.187893 
L 156 248.135184 
L 168 452.721965 
L 180 254.939645 
L 192 328.932842 
L 204 298.092916 
L 216 172.839509 
L 228 293.20555 
L 240.000001 310.596803 
L 252.000001 255.11996 
L 263.999998 502.8001 
L 276 371.464531 
L 288.000002 390.958008 
L 300 141.639963 
L 311.999997 165.976749 
L 323.999999 400.78779 
L 336.000001 298.681817 
L 348.000003 317.811925 
L 360.000001 358.625515 
L 371.999998 160.665559 
L 384.000005 359.70312 
L 396.000002 251.517867 
L 408 245.944921 
L 419.999997 312.568621 
L 431.999995 112.638833 
L 444.000001 186.611456 
L 455.999999 564.075893 
L 467.999996 427.951452 
L 480.000003 361.318105 
L 492 323.537742 
L 503.999989 511.195626 
L 515.999995 312.026461 
L 528.000001 307.07962 
L 539.99999 300.64162 
L 551.999996 336.784445 
L 564.000003 254.098709 
L 575.999991 205.692734 
L 587.999998 444.8468 
L 600.000004 191.889232 
L 611.999993 380.90199 
L 623.999999 221.408896 
L 636.000006 438.108727 
L 647.999994 493.775011 
L 660.000001 368.398681 
L 672.000007 383.685781 
L 683.999996 237.899851 
L 696.000002 373.090166 
L 708.000009 365.25588 
L 719.999997 325.629515 
L 732.000004 370.845612 
L 744.00001 458.065196 
L 755.999999 576.22747 
L 768.000005 324.348067 
L 780.000011 456.527719 
L 792 302.288812 
L 803.999989 355.478242 
L 815.999977 395.562504 
L 828.000001 247.011929 
L 840.000026 298.237915 
L 852.000014 505.535125 
L 864.000003 438.242247 
L 875.999991 241.163565 
L 887.99998 380.553753 
L 900.000004 328.982159 
L 912.000029 184.572599 
L 924.000017 334.511742 
L 936.000006 191.157226 
L 947.999994 495.461947 
L 959.999983 495.753056 
L 971.999971 284.127111 
L 983.999996 326.886326 
L 996.00002 324.294006 
L 1008.000009 447.076737 
L 1019.999997 311.978392 
L 1031.999986 387.283997 
L 1043.999974 292.045359 
L 1055.999999 229.850188 
L 1068.000023 259.440308 
L 1080.000011 201.89428 
L 1092 294.299452 
L 1103.999989 305.619108 
L 1115.999977 312.952126 
L 1128.000001 400.355688 
L 1140.000026 225.816579 
L 1140.000026 83.600538 
L 1140.000026 83.600538 
L 1128.000001 239.987121 
L 1115.999977 281.28656 
L 1103.999989 240.993365 
L 1092 233.512803 
L 1080.000011 135.73559 
L 1068.000023 152.721455 
L 1055.999999 146.568765 
L 1043.999974 166.618172 
L 1031.999986 92.813894 
L 1019.999997 231.775071 
L 1008.000009 346.16824 
L 996.00002 216.92471 
L 983.999996 264.303704 
L 971.999971 221.128318 
L 959.999983 258.940113 
L 947.999994 288.81418 
L 936.000006 54.849631 
L 924.000017 77.574245 
L 912.000029 116.583181 
L 900.000004 166.111345 
L 887.99998 238.834274 
L 875.999991 123.43492 
L 864.000003 258.73977 
L 852.000014 376.272034 
L 840.000026 158.165845 
L 828.000001 186.444562 
L 815.999977 240.927659 
L 803.999989 337.731918 
L 792 189.171727 
L 780.000011 257.727495 
L 768.000005 68.7981 
L 755.999999 289.765238 
L 744.00001 290.104487 
L 732.000004 30.707053 
L 719.999997 149.119805 
L 708.000009 255.398385 
L 696.000002 184.069777 
L 683.999996 220.069546 
L 672.000007 213.340221 
L 660.000001 265.564828 
L 647.999994 447.049008 
L 636.000006 272.860466 
L 623.999999 184.229254 
L 611.999993 197.347987 
L 600.000004 -0.866772 
L 587.999998 148.969891 
L 575.999991 82.981667 
L 564.000003 71.849318 
L 551.999996 182.628751 
L 539.99999 278.171241 
L 528.000001 251.43048 
L 515.999995 227.910869 
L 503.999989 218.00443 
L 492 204.596513 
L 480.000003 304.841323 
L 467.999996 227.011274 
L 455.999999 362.668747 
L 444.000001 10.686728 
L 431.999995 69.480093 
L 419.999997 159.468956 
L 408 138.405143 
L 396.000002 101.822107 
L 384.000005 154.761029 
L 371.999998 23.916429 
L 360.000001 131.359507 
L 348.000003 237.650916 
L 336.000001 235.948082 
L 323.999999 348.812459 
L 311.999997 57.966361 
L 300 19.34685 
L 288.000002 186.902119 
L 276 335.003832 
L 263.999998 391.438143 
L 252.000001 194.754501 
L 240.000001 261.495321 
L 228 183.365169 
L 216 139.791962 
L 204 152.006622 
L 192 306.85111 
L 180 149.13649 
L 168 347.211475 
L 156 198.099835 
L 143.999999 258.872125 
L 131.999999 207.75782 
L 120.000002 205.045353 
L 108 82.246543 
L 95.999998 202.822251 
L 84 279.607349 
L 72.000003 53.405584 
L 60.000001 144.438986 
L 47.999999 186.061746 
L 35.999997 151.681319 
L 23.999999 264.573775 
L 12.000002 142.129159 
L -0.000005 113.610717 
z
" clip-path="url(#pe34f42f801)" style="fill: #008b8b; fill-opacity: 0.25"/>
   </g>
   <g id="matplotlib.axis_1">
    <g id="xtick_1">
     <g id="line2d_1">
      <defs>
       <path id="m361483303f" d="M 0 0 
L 0 3.5 
" style="stroke: #000000; stroke-width: 0.8"/>
      </defs>
      <g>
       <use xlink:href="#m361483303f" x="72" y="396" style="stroke: #000000; stroke-width: 0.8"/>
      </g>
     </g>
     <g id="text_1">
      <!-- −100 -->
      <g transform="translate(47.279531 416.677187) scale(0.18 -0.18)">
       <defs>
        <path id="DejaVuSans-2212" d="M 678 2272 
L 4684 2272 
L 4684 1741 
L 678 1741 
L 678 2272 
z
" transform="scale(0.015625)"/>
        <path id="DejaVuSans-31" d="M 794 531 
L 1825 531 
L 1825 4091 
L 703 3866 
L 703 4441 
L 1819 4666 
L 2450 4666 
L 2450 531 
L 3481 531 
L 3481 0 
L 794 0 
L 794 531 
z
" transform="scale(0.015625)"/>
        <path id="DejaVuSans-30" d="M 2034 4250 
Q 1547 4250 1301 3770 
Q 1056 3291 1056 2328 
Q 1056 1369 1301 889 
Q 1547 409 2034 409 
Q 2525 409 2770 889 
Q 3016 1369 3016 2328 
Q 3016 3291 2770 3770 
Q 2525 4250 2034 4250 
z
M 2034 4750 
Q 2819 4750 3233 4129 
Q 3647 3509 3647 2328 
Q 3647 1150 3233 529 
Q 2819 -91 2034 -91 
Q 1250 -91 836 529 
Q 422 1150 422 2328 
Q 422 3509 836 4129 
Q 1250 4750 2034 4750 
z
" transform="scale(0.015625)"/>
       </defs>
       <use xlink:href="#DejaVuSans-2212"/>
       <use xlink:href="#DejaVuSans-31" x="83.789062"/>
       <use xlink:href="#DejaVuSans-30" x="147.412109"/>
       <use xlink:href="#DejaVuSans-30" x="211.035156"/>
      </g>
     </g>
    </g>
    <g id="xtick_2">
     <g id="line2d_2">
      <g>
       <use xlink:href="#m361483303f" x="192" y="396" style="stroke: #000000; stroke-width: 0.8"/>
      </g>
     </g>
     <g id="text_2">
      <!-- 0 -->
      <g transform="translate(186.27375 416.677187) scale(0.18 -0.18)">
       <use xlink:href="#DejaVuSans-30"/>
      </g>
     </g>
    </g>
    <g id="xtick_3">
     <g id="line2d_3">
      <g>
       <use xlink:href="#m361483303f" x="312" y="396" style="stroke: #000000; stroke-width: 0.8"/>
      </g>
     </g>
     <g id="text_3">
      <!-- 100 -->
      <g transform="translate(294.82125 416.677187) scale(0.18 -0.18)">
       <use xlink:href="#DejaVuSans-31"/>
       <use xlink:href="#DejaVuSans-30" x="63.623047"/>
       <use xlink:href="#DejaVuSans-30" x="127.246094"/>
      </g>
     </g>
    </g>
    <g id="xtick_4">
     <g id="line2d_4">
      <g>
       <use xlink:href="#m361483303f" x="432" y="396" style="stroke: #000000; stroke-width: 0.8"/>
      </g>
     </g>
     <g id="text_4">
      <!-- 200 -->
      <g transform="translate(414.82125 416.677187) scale(0.18 -0.18)">
       <defs>
        <path id="DejaVuSans-32" d="M 1228 531 
L 3431 531 
L 3431 0 
L 469 0 
L 469 531 
Q 828 903 1448 1529 
Q 2069 2156 2228 2338 
Q 2531 2678 2651 2914 
Q 2772 3150 2772 3378 
Q 2772 3750 2511 3984 
Q 2250 4219 1831 4219 
Q 1534 4219 1204 4116 
Q 875 4013 500 3803 
L 500 4441 
Q 881 4594 1212 4672 
Q 1544 4750 1819 4750 
Q 2544 4750 2975 4387 
Q 3406 4025 3406 3419 
Q 3406 3131 3298 2873 
Q 3191 2616 2906 2266 
Q 2828 2175 2409 1742 
Q 1991 1309 1228 531 
z
" transform="scale(0.015625)"/>
       </defs>
       <use xlink:href="#DejaVuSans-32"/>
       <use xlink:href="#DejaVuSans-30" x="63.623047"/>
       <use xlink:href="#DejaVuSans-30" x="127.246094"/>
      </g>
     </g>
    </g>
    <g id="xtick_5">
     <g id="line2d_5">
      <g>
       <use xlink:href="#m361483303f" x="552" y="396" style="stroke: #000000; stroke-width: 0.8"/>
      </g>
     </g>
     <g id="text_5">
      <!-- 300 -->
      <g transform="translate(534.82125 416.677187) scale(0.18 -0.18)">
       <defs>
        <path id="DejaVuSans-33" d="M 2597 2516 
Q 3050 2419 3304 2112 
Q 3559 1806 3559 1356 
Q 3559 666 3084 287 
Q 2609 -91 1734 -91 
Q 1441 -91 1130 -33 
Q 819 25 488 141 
L 488 750 
Q 750 597 1062 519 
Q 1375 441 1716 441 
Q 2309 441 2620 675 
Q 2931 909 2931 1356 
Q 2931 1769 2642 2001 
Q 2353 2234 1838 2234 
L 1294 2234 
L 1294 2753 
L 1863 2753 
Q 2328 2753 2575 2939 
Q 2822 3125 2822 3475 
Q 2822 3834 2567 4026 
Q 2313 4219 1838 4219 
Q 1578 4219 1281 4162 
Q 984 4106 628 3988 
L 628 4550 
Q 988 4650 1302 4700 
Q 1616 4750 1894 4750 
Q 2613 4750 3031 4423 
Q 3450 4097 3450 3541 
Q 3450 3153 3228 2886 
Q 3006 2619 2597 2516 
z
" transform="scale(0.015625)"/>
       </defs>
       <use xlink:href="#DejaVuSans-33"/>
       <use xlink:href="#DejaVuSans-30" x="63.623047"/>
       <use xlink:href="#DejaVuSans-30" x="127.246094"/>
      </g>
     </g>
    </g>
    <g id="xtick_6">
     <g id="line2d_6">
      <g>
       <use xlink:href="#m361483303f" x="672" y="396" style="stroke: #000000; stroke-width: 0.8"/>
      </g>
     </g>
     <g id="text_6">
      <!-- 400 -->
      <g transform="translate(654.82125 416.677187) scale(0.18 -0.18)">
       <defs>
        <path id="DejaVuSans-34" d="M 2419 4116 
L 825 1625 
L 2419 1625 
L 2419 4116 
z
M 2253 4666 
L 3047 4666 
L 3047 1625 
L 3713 1625 
L 3713 1100 
L 3047 1100 
L 3047 0 
L 2419 0 
L 2419 1100 
L 313 1100 
L 313 1709 
L 2253 4666 
z
" transform="scale(0.015625)"/>
       </defs>
       <use xlink:href="#DejaVuSans-34"/>
       <use xlink:href="#DejaVuSans-30" x="63.623047"/>
       <use xlink:href="#DejaVuSans-30" x="127.246094"/>
      </g>
     </g>
    </g>
    <g id="xtick_7">
     <g id="line2d_7">
      <g>
       <use xlink:href="#m361483303f" x="792" y="396" style="stroke: #000000; stroke-width: 0.8"/>
      </g>
     </g>
     <g id="text_7">
      <!-- 500 -->
      <g transform="translate(774.82125 416.677187) scale(0.18 -0.18)">
       <defs>
        <path id="DejaVuSans-35" d="M 691 4666 
L 3169 4666 
L 3169 4134 
L 1269 4134 
L 1269 2991 
Q 1406 3038 1543 3061 
Q 1681 3084 1819 3084 
Q 2600 3084 3056 2656 
Q 3513 2228 3513 1497 
Q 3513 744 3044 326 
Q 2575 -91 1722 -91 
Q 1428 -91 1123 -41 
Q 819 9 494 109 
L 494 744 
Q 775 591 1075 516 
Q 1375 441 1709 441 
Q 2250 441 2565 725 
Q 2881 1009 2881 1497 
Q 2881 1984 2565 2268 
Q 2250 2553 1709 2553 
Q 1456 2553 1204 2497 
Q 953 2441 691 2322 
L 691 4666 
z
" transform="scale(0.015625)"/>
       </defs>
       <use xlink:href="#DejaVuSans-35"/>
       <use xlink:href="#DejaVuSans-30" x="63.623047"/>
       <use xlink:href="#DejaVuSans-30" x="127.246094"/>
      </g>
     </g>
    </g>
    <g id="text_8">
     <!-- Time (ms) -->
     <g transform="translate(386.641406 438.097812) scale(0.18 -0.18)">
      <defs>
       <path id="DejaVuSans-54" d="M -19 4666 
L 3928 4666 
L 3928 4134 
L 2272 4134 
L 2272 0 
L 1638 0 
L 1638 4134 
L -19 4134 
L -19 4666 
z
" transform="scale(0.015625)"/>
       <path id="DejaVuSans-69" d="M 603 3500 
L 1178 3500 
L 1178 0 
L 603 0 
L 603 3500 
z
M 603 4863 
L 1178 4863 
L 1178 4134 
L 603 4134 
L 603 4863 
z
" transform="scale(0.015625)"/>
       <path id="DejaVuSans-6d" d="M 3328 2828 
Q 3544 3216 3844 3400 
Q 4144 3584 4550 3584 
Q 5097 3584 5394 3201 
Q 5691 2819 5691 2113 
L 5691 0 
L 5113 0 
L 5113 2094 
Q 5113 2597 4934 2840 
Q 4756 3084 4391 3084 
Q 3944 3084 3684 2787 
Q 3425 2491 3425 1978 
L 3425 0 
L 2847 0 
L 2847 2094 
Q 2847 2600 2669 2842 
Q 2491 3084 2119 3084 
Q 1678 3084 1418 2786 
Q 1159 2488 1159 1978 
L 1159 0 
L 581 0 
L 581 3500 
L 1159 3500 
L 1159 2956 
Q 1356 3278 1631 3431 
Q 1906 3584 2284 3584 
Q 2666 3584 2933 3390 
Q 3200 3197 3328 2828 
z
" transform="scale(0.015625)"/>
       <path id="DejaVuSans-65" d="M 3597 1894 
L 3597 1613 
L 953 1613 
Q 991 1019 1311 708 
Q 1631 397 2203 397 
Q 2534 397 2845 478 
Q 3156 559 3463 722 
L 3463 178 
Q 3153 47 2828 -22 
Q 2503 -91 2169 -91 
Q 1331 -91 842 396 
Q 353 884 353 1716 
Q 353 2575 817 3079 
Q 1281 3584 2069 3584 
Q 2775 3584 3186 3129 
Q 3597 2675 3597 1894 
z
M 3022 2063 
Q 3016 2534 2758 2815 
Q 2500 3097 2075 3097 
Q 1594 3097 1305 2825 
Q 1016 2553 972 2059 
L 3022 2063 
z
" transform="scale(0.015625)"/>
       <path id="DejaVuSans-20" transform="scale(0.015625)"/>
       <path id="DejaVuSans-28" d="M 1984 4856 
Q 1566 4138 1362 3434 
Q 1159 2731 1159 2009 
Q 1159 1288 1364 580 
Q 1569 -128 1984 -844 
L 1484 -844 
Q 1016 -109 783 600 
Q 550 1309 550 2009 
Q 550 2706 781 3412 
Q 1013 4119 1484 4856 
L 1984 4856 
z
" transform="scale(0.015625)"/>
       <path id="DejaVuSans-73" d="M 2834 3397 
L 2834 2853 
Q 2591 2978 2328 3040 
Q 2066 3103 1784 3103 
Q 1356 3103 1142 2972 
Q 928 2841 928 2578 
Q 928 2378 1081 2264 
Q 1234 2150 1697 2047 
L 1894 2003 
Q 2506 1872 2764 1633 
Q 3022 1394 3022 966 
Q 3022 478 2636 193 
Q 2250 -91 1575 -91 
Q 1294 -91 989 -36 
Q 684 19 347 128 
L 347 722 
Q 666 556 975 473 
Q 1284 391 1588 391 
Q 1994 391 2212 530 
Q 2431 669 2431 922 
Q 2431 1156 2273 1281 
Q 2116 1406 1581 1522 
L 1381 1569 
Q 847 1681 609 1914 
Q 372 2147 372 2553 
Q 372 3047 722 3315 
Q 1072 3584 1716 3584 
Q 2034 3584 2315 3537 
Q 2597 3491 2834 3397 
z
" transform="scale(0.015625)"/>
       <path id="DejaVuSans-29" d="M 513 4856 
L 1013 4856 
Q 1481 4119 1714 3412 
Q 1947 2706 1947 2009 
Q 1947 1309 1714 600 
Q 1481 -109 1013 -844 
L 513 -844 
Q 928 -128 1133 580 
Q 1338 1288 1338 2009 
Q 1338 2731 1133 3434 
Q 928 4138 513 4856 
z
" transform="scale(0.015625)"/>
      </defs>
      <use xlink:href="#DejaVuSans-54"/>
      <use xlink:href="#DejaVuSans-69" x="57.958984"/>
      <use xlink:href="#DejaVuSans-6d" x="85.742188"/>
      <use xlink:href="#DejaVuSans-65" x="183.154297"/>
      <use xlink:href="#DejaVuSans-20" x="244.677734"/>
      <use xlink:href="#DejaVuSans-28" x="276.464844"/>
      <use xlink:href="#DejaVuSans-6d" x="315.478516"/>
      <use xlink:href="#DejaVuSans-73" x="412.890625"/>
      <use xlink:href="#DejaVuSans-29" x="464.990234"/>
     </g>
    </g>
   </g>
   <g id="matplotlib.axis_2">
    <g id="ytick_1">
     <g id="line2d_8">
      <defs>
       <path id="md55633b9b4" d="M 0 0 
L -3.5 0 
" style="stroke: #000000; stroke-width: 0.8"/>
      </defs>
      <g>
       <use xlink:href="#md55633b9b4" x="72" y="387.428571" style="stroke: #000000; stroke-width: 0.8"/>
      </g>
     </g>
     <g id="text_9">
      <!-- −7.5 -->
      <g transform="translate(21.290937 394.267165) scale(0.18 -0.18)">
       <defs>
        <path id="DejaVuSans-37" d="M 525 4666 
L 3525 4666 
L 3525 4397 
L 1831 0 
L 1172 0 
L 2766 4134 
L 525 4134 
L 525 4666 
z
" transform="scale(0.015625)"/>
        <path id="DejaVuSans-2e" d="M 684 794 
L 1344 794 
L 1344 0 
L 684 0 
L 684 794 
z
" transform="scale(0.015625)"/>
       </defs>
       <use xlink:href="#DejaVuSans-2212"/>
       <use xlink:href="#DejaVuSans-37" x="83.789062"/>
       <use xlink:href="#DejaVuSans-2e" x="147.412109"/>
       <use xlink:href="#DejaVuSans-35" x="179.199219"/>
      </g>
     </g>
    </g>
    <g id="ytick_2">
     <g id="line2d_9">
      <g>
       <use xlink:href="#md55633b9b4" x="72" y="344.571429" style="stroke: #000000; stroke-width: 0.8"/>
      </g>
     </g>
     <g id="text_10">
      <!-- −5.0 -->
      <g transform="translate(21.290937 351.410022) scale(0.18 -0.18)">
       <use xlink:href="#DejaVuSans-2212"/>
       <use xlink:href="#DejaVuSans-35" x="83.789062"/>
       <use xlink:href="#DejaVuSans-2e" x="147.412109"/>
       <use xlink:href="#DejaVuSans-30" x="179.199219"/>
      </g>
     </g>
    </g>
    <g id="ytick_3">
     <g id="line2d_10">
      <g>
       <use xlink:href="#md55633b9b4" x="72" y="301.714286" style="stroke: #000000; stroke-width: 0.8"/>
      </g>
     </g>
     <g id="text_11">
      <!-- −2.5 -->
      <g transform="translate(21.290937 308.552879) scale(0.18 -0.18)">
       <use xlink:href="#DejaVuSans-2212"/>
       <use xlink:href="#DejaVuSans-32" x="83.789062"/>
       <use xlink:href="#DejaVuSans-2e" x="147.412109"/>
       <use xlink:href="#DejaVuSans-35" x="179.199219"/>
      </g>
     </g>
    </g>
    <g id="ytick_4">
     <g id="line2d_11">
      <g>
       <use xlink:href="#md55633b9b4" x="72" y="258.857143" style="stroke: #000000; stroke-width: 0.8"/>
      </g>
     </g>
     <g id="text_12">
      <!-- 0.0 -->
      <g transform="translate(36.374375 265.695737) scale(0.18 -0.18)">
       <use xlink:href="#DejaVuSans-30"/>
       <use xlink:href="#DejaVuSans-2e" x="63.623047"/>
       <use xlink:href="#DejaVuSans-30" x="95.410156"/>
      </g>
     </g>
    </g>
    <g id="ytick_5">
     <g id="line2d_12">
      <g>
       <use xlink:href="#md55633b9b4" x="72" y="216" style="stroke: #000000; stroke-width: 0.8"/>
      </g>
     </g>
     <g id="text_13">
      <!-- 2.5 -->
      <g transform="translate(36.374375 222.838594) scale(0.18 -0.18)">
       <use xlink:href="#DejaVuSans-32"/>
       <use xlink:href="#DejaVuSans-2e" x="63.623047"/>
       <use xlink:href="#DejaVuSans-35" x="95.410156"/>
      </g>
     </g>
    </g>
    <g id="ytick_6">
     <g id="line2d_13">
      <g>
       <use xlink:href="#md55633b9b4" x="72" y="173.142857" style="stroke: #000000; stroke-width: 0.8"/>
      </g>
     </g>
     <g id="text_14">
      <!-- 5.0 -->
      <g transform="translate(36.374375 179.981451) scale(0.18 -0.18)">
       <use xlink:href="#DejaVuSans-35"/>
       <use xlink:href="#DejaVuSans-2e" x="63.623047"/>
       <use xlink:href="#DejaVuSans-30" x="95.410156"/>
      </g>
     </g>
    </g>
    <g id="ytick_7">
     <g id="line2d_14">
      <g>
       <use xlink:href="#md55633b9b4" x="72" y="130.285714" style="stroke: #000000; stroke-width: 0.8"/>
      </g>
     </g>
     <g id="text_15">
      <!-- 7.5 -->
      <g transform="translate(36.374375 137.124308) scale(0.18 -0.18)">
       <use xlink:href="#DejaVuSans-37"/>
       <use xlink:href="#DejaVuSans-2e" x="63.623047"/>
       <use xlink:href="#DejaVuSans-35" x="95.410156"/>
      </g>
     </g>
    </g>
    <g id="ytick_8">
     <g id="line2d_15">
      <g>
       <use xlink:href="#md55633b9b4" x="72" y="87.428571" style="stroke: #000000; stroke-width: 0.8"/>
      </g>
     </g>
     <g id="text_16">
      <!-- 10.0 -->
      <g transform="translate(24.921875 94.267165) scale(0.18 -0.18)">
       <use xlink:href="#DejaVuSans-31"/>
       <use xlink:href="#DejaVuSans-30" x="63.623047"/>
       <use xlink:href="#DejaVuSans-2e" x="127.246094"/>
       <use xlink:href="#DejaVuSans-30" x="159.033203"/>
      </g>
     </g>
    </g>
    <g id="ytick_9">
     <g id="line2d_16">
      <g>
       <use xlink:href="#md55633b9b4" x="72" y="44.571429" style="stroke: #000000; stroke-width: 0.8"/>
      </g>
     </g>
     <g id="text_17">
      <!-- 12.5 -->
      <g transform="translate(24.921875 51.410022) scale(0.18 -0.18)">
       <use xlink:href="#DejaVuSans-31"/>
       <use xlink:href="#DejaVuSans-32" x="63.623047"/>
       <use xlink:href="#DejaVuSans-2e" x="127.246094"/>
       <use xlink:href="#DejaVuSans-35" x="159.033203"/>
      </g>
     </g>
    </g>
    <g id="text_18">
     <!-- Net Flow (bits) -->
     <g transform="translate(13.131562 288.796875) rotate(-90) scale(0.2 -0.2)">
      <defs>
       <path id="DejaVuSans-4e" d="M 628 4666 
L 1478 4666 
L 3547 763 
L 3547 4666 
L 4159 4666 
L 4159 0 
L 3309 0 
L 1241 3903 
L 1241 0 
L 628 0 
L 628 4666 
z
" transform="scale(0.015625)"/>
       <path id="DejaVuSans-74" d="M 1172 4494 
L 1172 3500 
L 2356 3500 
L 2356 3053 
L 1172 3053 
L 1172 1153 
Q 1172 725 1289 603 
Q 1406 481 1766 481 
L 2356 481 
L 2356 0 
L 1766 0 
Q 1100 0 847 248 
Q 594 497 594 1153 
L 594 3053 
L 172 3053 
L 172 3500 
L 594 3500 
L 594 4494 
L 1172 4494 
z
" transform="scale(0.015625)"/>
       <path id="DejaVuSans-46" d="M 628 4666 
L 3309 4666 
L 3309 4134 
L 1259 4134 
L 1259 2759 
L 3109 2759 
L 3109 2228 
L 1259 2228 
L 1259 0 
L 628 0 
L 628 4666 
z
" transform="scale(0.015625)"/>
       <path id="DejaVuSans-6c" d="M 603 4863 
L 1178 4863 
L 1178 0 
L 603 0 
L 603 4863 
z
" transform="scale(0.015625)"/>
       <path id="DejaVuSans-6f" d="M 1959 3097 
Q 1497 3097 1228 2736 
Q 959 2375 959 1747 
Q 959 1119 1226 758 
Q 1494 397 1959 397 
Q 2419 397 2687 759 
Q 2956 1122 2956 1747 
Q 2956 2369 2687 2733 
Q 2419 3097 1959 3097 
z
M 1959 3584 
Q 2709 3584 3137 3096 
Q 3566 2609 3566 1747 
Q 3566 888 3137 398 
Q 2709 -91 1959 -91 
Q 1206 -91 779 398 
Q 353 888 353 1747 
Q 353 2609 779 3096 
Q 1206 3584 1959 3584 
z
" transform="scale(0.015625)"/>
       <path id="DejaVuSans-77" d="M 269 3500 
L 844 3500 
L 1563 769 
L 2278 3500 
L 2956 3500 
L 3675 769 
L 4391 3500 
L 4966 3500 
L 4050 0 
L 3372 0 
L 2619 2869 
L 1863 0 
L 1184 0 
L 269 3500 
z
" transform="scale(0.015625)"/>
       <path id="DejaVuSans-62" d="M 3116 1747 
Q 3116 2381 2855 2742 
Q 2594 3103 2138 3103 
Q 1681 3103 1420 2742 
Q 1159 2381 1159 1747 
Q 1159 1113 1420 752 
Q 1681 391 2138 391 
Q 2594 391 2855 752 
Q 3116 1113 3116 1747 
z
M 1159 2969 
Q 1341 3281 1617 3432 
Q 1894 3584 2278 3584 
Q 2916 3584 3314 3078 
Q 3713 2572 3713 1747 
Q 3713 922 3314 415 
Q 2916 -91 2278 -91 
Q 1894 -91 1617 61 
Q 1341 213 1159 525 
L 1159 0 
L 581 0 
L 581 4863 
L 1159 4863 
L 1159 2969 
z
" transform="scale(0.015625)"/>
      </defs>
      <use xlink:href="#DejaVuSans-4e"/>
      <use xlink:href="#DejaVuSans-65" x="74.804688"/>
      <use xlink:href="#DejaVuSans-74" x="136.328125"/>
      <use xlink:href="#DejaVuSans-20" x="175.537109"/>
      <use xlink:href="#DejaVuSans-46" x="207.324219"/>
      <use xlink:href="#DejaVuSans-6c" x="264.84375"/>
      <use xlink:href="#DejaVuSans-6f" x="292.626953"/>
      <use xlink:href="#DejaVuSans-77" x="353.808594"/>
      <use xlink:href="#DejaVuSans-20" x="435.595703"/>
      <use xlink:href="#DejaVuSans-28" x="467.382812"/>
      <use xlink:href="#DejaVuSans-62" x="506.396484"/>
      <use xlink:href="#DejaVuSans-69" x="569.873047"/>
      <use xlink:href="#DejaVuSans-74" x="597.65625"/>
      <use xlink:href="#DejaVuSans-73" x="636.865234"/>
      <use xlink:href="#DejaVuSans-29" x="688.964844"/>
     </g>
    </g>
   </g>
   <g id="line2d_17">
    <path d="M 192 396 
L 192 36 
" clip-path="url(#pe34f42f801)" style="fill: none; stroke-dasharray: 2.96,1.28; stroke-dashoffset: 0; stroke: #000000; stroke-width: 0.8"/>
   </g>
   <g id="line2d_18">
    <path d="M 72 258.857143 
L 792 258.857143 
" clip-path="url(#pe34f42f801)" style="fill: none; stroke-dasharray: 0.8,1.32; stroke-dashoffset: 0; stroke: #000000; stroke-width: 0.8"/>
   </g>
   <g id="line2d_19">
    <path d="M -0.000005 125.290148 
L 12.000002 357.193704 
L 23.999999 313.505337 
L 35.999997 202.846594 
L 47.999999 223.386106 
L 60.000001 241.155724 
L 72.000003 130.176332 
L 84 338.791621 
L 95.999998 254.385446 
L 108 186.051218 
L 120.000002 257.377483 
L 131.999999 258.281012 
L 143.999999 312.030009 
L 156 223.117509 
L 168 399.96672 
L 180 202.038067 
L 192 317.891976 
L 204 225.049769 
L 216 156.315735 
L 228 238.285359 
L 240.000001 286.046062 
L 252.000001 224.93723 
L 263.999998 447.119121 
L 276 353.234182 
L 288.000002 288.930063 
L 300 80.493407 
L 311.999997 111.971555 
L 323.999999 374.800124 
L 336.000001 267.314949 
L 348.000003 277.73142 
L 360.000001 244.992511 
L 371.999998 92.290994 
L 384.000005 257.232074 
L 396.000002 176.669987 
L 408 192.175032 
L 419.999997 236.018789 
L 431.999995 91.059463 
L 444.000001 98.649092 
L 455.711375 454.6 
M 456.774648 454.6 
L 467.999996 327.481363 
L 480.000003 333.079714 
L 492 264.067128 
L 503.999989 364.600028 
L 515.999995 269.968665 
L 528.000001 279.25505 
L 539.99999 289.406431 
L 551.999996 259.706598 
L 564.000003 162.974013 
L 575.999991 144.3372 
L 587.999998 296.908345 
L 600.000004 95.51123 
L 611.999993 289.124988 
L 623.999999 202.819075 
L 636.000006 355.484596 
L 646.349005 454.6 
M 649.236675 454.6 
L 660.000001 316.981754 
L 672.000007 298.513001 
L 683.999996 228.984699 
L 696.000002 278.579972 
L 708.000009 310.327133 
L 719.999997 237.37466 
L 732.000004 200.776332 
L 744.00001 374.084841 
L 755.999999 432.996354 
L 768.000005 196.573084 
L 780.000011 357.127607 
L 792 245.73027 
L 803.999989 346.60508 
L 815.999977 318.245082 
L 828.000001 216.728246 
L 829 217.684378 
" clip-path="url(#pe34f42f801)" style="fill: none; stroke: #008b8b; stroke-width: 3; stroke-linecap: square"/>
   </g>
   <g id="patch_3">
    <path d="M 72 396 
L 72 36 
" style="fill: none; stroke: #000000; stroke-width: 0.8; stroke-linejoin: miter; stroke-linecap: square"/>
   </g>
   <g id="patch_4">
    <path d="M 792 396 
L 792 36 
" style="fill: none; stroke: #000000; stroke-width: 0.8; stroke-linejoin: miter; stroke-linecap: square"/>
   </g>
   <g id="patch_5">
    <path d="M 72 396 
L 792 396 
" style="fill: none; stroke: #000000; stroke-width: 0.8; stroke-linejoin: miter; stroke-linecap: square"/>
   </g>
   <g id="patch_6">
    <path d="M 72 36 
L 792 36 
" style="fill: none; stroke: #000000; stroke-width: 0.8; stroke-linejoin: miter; stroke-linecap: square"/>
   </g>
   <g id="PathCollection_1">
    <defs>
     <path id="m53773070c8" d="M 0 1.870829 
C 0.49615 1.870829 0.972045 1.673706 1.322876 1.322876 
C 1.673706 0.972045 1.870829 0.49615 1.870829 0 
C 1.870829 -0.49615 1.673706 -0.972045 1.322876 -1.322876 
C 0.972045 -1.673706 0.49615 -1.870829 0 -1.870829 
C -0.49615 -1.870829 -0.972045 -1.673706 -1.322876 -1.322876 
C -1.673706 -0.972045 -1.870829 -0.49615 -1.870829 0 
C -1.870829 0.49615 -1.673706 0.972045 -1.322876 1.322876 
C -0.972045 1.673706 -0.49615 1.870829 0 1.870829 
z
" style="stroke: #000000"/>
    </defs>
    <g clip-path="url(#pe34f42f801)">
     <use xlink:href="#m53773070c8" x="300" y="378" style="stroke: #000000"/>
     <use xlink:href="#m53773070c8" x="384.000005" y="378" style="stroke: #000000"/>
     <use xlink:href="#m53773070c8" x="419.999997" y="378" style="stroke: #000000"/>
     <use xlink:href="#m53773070c8" x="431.999995" y="378" style="stroke: #000000"/>
     <use xlink:href="#m53773070c8" x="924.000017" y="378" style="stroke: #000000"/>
    </g>
   </g>
   <g id="legend_1">
    <g id="line2d_20">
     <path d="M 630.88125 62.196875 
L 650.88125 62.196875 
L 670.88125 62.196875 
" style="fill: none; stroke: #008b8b; stroke-width: 3; stroke-linecap: square"/>
    </g>
    <g id="text_19">
     <!-- Net Flow -->
     <g transform="translate(686.88125 69.196875) scale(0.2 -0.2)">
      <use xlink:href="#DejaVuSans-4e"/>
      <use xlink:href="#DejaVuSans-65" x="74.804688"/>
      <use xlink:href="#DejaVuSans-74" x="136.328125"/>
      <use xlink:href="#DejaVuSans-20" x="175.537109"/>
      <use xlink:href="#DejaVuSans-46" x="207.324219"/>
      <use xlink:href="#DejaVuSans-6c" x="264.84375"/>
      <use xlink:href="#DejaVuSans-6f" x="292.626953"/>
      <use xlink:href="#DejaVuSans-77" x="353.808594"/>
     </g>
    </g>
    <g id="PathCollection_2">
     <g>
      <use xlink:href="#m53773070c8" x="650.88125" y="93.303125" style="stroke: #000000"/>
     </g>
    </g>
    <g id="text_20">
     <!-- p&lt;α -->
     <g transform="translate(686.88125 98.553125) scale(0.2 -0.2)">
      <defs>
       <path id="DejaVuSans-70" d="M 1159 525 
L 1159 -1331 
L 581 -1331 
L 581 3500 
L 1159 3500 
L 1159 2969 
Q 1341 3281 1617 3432 
Q 1894 3584 2278 3584 
Q 2916 3584 3314 3078 
Q 3713 2572 3713 1747 
Q 3713 922 3314 415 
Q 2916 -91 2278 -91 
Q 1894 -91 1617 61 
Q 1341 213 1159 525 
z
M 3116 1747 
Q 3116 2381 2855 2742 
Q 2594 3103 2138 3103 
Q 1681 3103 1420 2742 
Q 1159 2381 1159 1747 
Q 1159 1113 1420 752 
Q 1681 391 2138 391 
Q 2594 391 2855 752 
Q 3116 1113 3116 1747 
z
" transform="scale(0.015625)"/>
       <path id="DejaVuSans-3c" d="M 4684 3150 
L 1459 2003 
L 4684 863 
L 4684 294 
L 678 1747 
L 678 2266 
L 4684 3719 
L 4684 3150 
z
" transform="scale(0.015625)"/>
       <path id="DejaVuSans-3b1" d="M 2644 1628 
L 2506 2350 
Q 2366 3091 1809 3091 
Q 1391 3091 1200 2747 
Q 959 2316 959 1747 
Q 959 1059 1194 731 
Q 1431 397 1809 397 
Q 2228 397 2453 1063 
L 2644 1628 
z
M 2966 2584 
L 3275 3500 
L 3788 3500 
L 3147 1603 
L 3272 919 
Q 3300 766 3409 638 
Q 3538 488 3638 488 
L 3913 488 
L 3913 0 
L 3569 0 
Q 3275 0 3013 263 
Q 2884 394 2831 669 
Q 2688 322 2394 50 
Q 2256 -78 1809 -78 
Q 1075 -78 719 397 
Q 353 888 353 1747 
Q 353 2666 750 3097 
Q 1191 3578 1809 3578 
Q 2781 3578 2966 2584 
z
" transform="scale(0.015625)"/>
      </defs>
      <use xlink:href="#DejaVuSans-70"/>
      <use xlink:href="#DejaVuSans-3c" x="63.476562"/>
      <use xlink:href="#DejaVuSans-3b1" x="147.265625"/>
     </g>
    </g>
   </g>
  </g>
 </g>
 <defs>
  <clipPath id="pe34f42f801">
   <rect x="72" y="36" width="720" height="360"/>
  </clipPath>
 </defs>
</svg>
