<?xml version="1.0" encoding="utf-8" standalone="no"?>
<!DOCTYPE svg PUBLIC "-//W3C//DTD SVG 1.1//EN"
  "http://www.w3.org/Graphics/SVG/1.1/DTD/svg11.dtd">
<svg xmlns:xlink="http://www.w3.org/1999/xlink" width="856.8pt" height="453.6pt" viewBox="0 0 856.8 453.6" xmlns="http://www.w3.org/2000/svg" version="1.1">
 <metadata>
  <rdf:RDF xmlns:dc="http://purl.org/dc/elements/1.1/" xmlns:cc="http://creativecommons.org/ns#" xmlns:rdf="http://www.w3.org/1999/02/22-rdf-syntax-ns#">
   <cc:Work>
    <dc:type rdf:resource="http://purl.org/dc/dcmitype/StillImage"/>
    <dc:date>2026-01-26T14:24:57.085804</dc:date>
    <dc:format>image/svg+xml</dc:format>
    <dc:creator>
     <cc:Agent>
      <dc:title>Matplotlib v3.9.4, https://matplotlib.org/</dc:title>
     </cc:Agent>
    </dc:creator>
   </cc:Work>
  </rdf:RDF>
 </metadata>
 <defs>
  <style type="text/css">*{stroke-linejoin: round; stroke-linecap: butt}</style>
 </defs>
 <g id="figure_1">
  <g id="patch_1">
   <path d="M 0 453.6 
L 856.8 453.6 
L 856.8 0 
L 0 0 
z
" style="fill: #ffffff"/>
  </g>
  <g id="axes_1">
   <g id="patch_2">
    <path d="M 100.8 396 
L 820.8 396 
L 820.8 36 
L 100.8 36 
z
" style="fill: #ffffff"/>
   </g>
   <g id="PolyCollection_1">
    <path d="M -43.199999 357.160004 
L -43.199999 377.68695 
L -31.200001 379.636364 
L -19.199995 377.46892 
L -7.199997 377.534427 
L 4.8 367.673039 
L 16.799998 364.485495 
L 28.799995 357.650338 
L 40.800002 370.471705 
L 52.799999 365.538963 
L 64.799997 362.31159 
L 76.799999 356.04812 
L 88.800001 355.496069 
L 100.800003 349.197884 
L 112.8 350.859782 
L 124.799998 354.326093 
L 136.8 367.100384 
L 148.800002 363.01329 
L 160.799999 358.588954 
L 172.799999 351.99046 
L 184.8 350.466112 
L 196.8 358.741434 
L 208.8 371.806869 
L 220.8 365.558509 
L 232.8 360.08575 
L 244.8 352.577286 
L 256.8 356.574719 
L 268.800001 348.507122 
L 280.800001 344.697152 
L 292.799998 346.517524 
L 304.8 356.989127 
L 316.800002 339.978915 
L 328.8 333.807993 
L 340.799997 332.74981 
L 352.799999 352.848502 
L 364.800001 359.039138 
L 376.800003 364.535061 
L 388.800001 356.596026 
L 400.799998 339.946694 
L 412.800005 339.171107 
L 424.800002 327.020391 
L 436.8 345.464234 
L 448.799997 329.317356 
L 460.799995 346.739357 
L 472.800001 328.656019 
L 484.799999 319.489276 
L 496.799996 314.464718 
L 508.800003 311.715549 
L 520.8 286.132144 
L 532.799989 256.415276 
L 544.799995 215.837474 
L 556.800001 225.414567 
L 568.79999 221.945464 
L 580.799996 263.25082 
L 592.800003 289.434972 
L 604.799991 284.378607 
L 616.799998 256.913162 
L 628.800004 229.339353 
L 640.799993 265.944451 
L 652.799999 268.960541 
L 664.800006 290.079209 
L 676.799994 290.3322 
L 688.800001 311.455506 
L 700.800007 320.492862 
L 712.799996 320.676763 
L 724.800002 301.69528 
L 736.800009 276.347884 
L 748.799997 264.293314 
L 760.800004 308.794367 
L 772.80001 331.640607 
L 784.799999 350.500531 
L 796.800005 332.138761 
L 808.800011 343.254659 
L 820.8 345.499097 
L 832.799989 348.144472 
L 844.799977 325.481452 
L 856.800001 318.97859 
L 868.800026 326.978799 
L 880.800014 341.33865 
L 892.800003 334.283929 
L 904.799991 344.235527 
L 916.79998 348.325961 
L 928.800004 359.660862 
L 940.800029 350.429033 
L 952.800017 350.616244 
L 964.800006 355.193287 
L 976.799994 356.928794 
L 988.799983 360.562124 
L 1000.799971 351.979937 
L 1012.799996 350.921429 
L 1024.80002 354.382785 
L 1036.800009 357.927446 
L 1048.799997 362.28592 
L 1060.799986 363.664325 
L 1072.799974 371.93042 
L 1084.799999 373.667086 
L 1096.800023 360.905461 
L 1108.800011 363.537804 
L 1120.8 364.042763 
L 1132.799989 372.238945 
L 1144.799977 366.937074 
L 1156.800001 360.69011 
L 1168.800026 361.69566 
L 1168.800026 319.588382 
L 1168.800026 319.588382 
L 1156.800001 323.844029 
L 1144.799977 334.687279 
L 1132.799989 326.062749 
L 1120.8 320.736439 
L 1108.800011 315.969986 
L 1096.800023 329.262521 
L 1084.799999 332.595986 
L 1072.799974 325.698232 
L 1060.799986 318.700097 
L 1048.799997 318.645127 
L 1036.800009 323.304157 
L 1024.80002 314.479165 
L 1012.799996 300.814211 
L 1000.799971 297.263152 
L 988.799983 291.120747 
L 976.799994 300.994546 
L 964.800006 297.373147 
L 952.800017 303.60258 
L 940.800029 301.255864 
L 928.800004 322.99094 
L 916.79998 307.637825 
L 904.799991 297.486243 
L 892.800003 276.939409 
L 880.800014 288.929746 
L 868.800026 276.18827 
L 856.800001 242.269884 
L 844.799977 256.81872 
L 832.799989 264.908578 
L 820.8 285.875119 
L 808.800011 262.860453 
L 796.800005 244.54462 
L 784.799999 258.138871 
L 772.80001 241.147275 
L 760.800004 217.311813 
L 748.799997 165.533422 
L 736.800009 181.199709 
L 724.800002 224.481591 
L 712.799996 233.057938 
L 700.800007 230.252949 
L 688.800001 205.020885 
L 676.799994 187.688512 
L 664.800006 193.629987 
L 652.799999 158.561938 
L 640.799993 147.727737 
L 628.800004 93.516199 
L 616.799998 158.839762 
L 604.799991 182.694457 
L 592.800003 178.294649 
L 580.799996 110.488469 
L 568.79999 52.363636 
L 556.800001 63.740722 
L 544.799995 56.122977 
L 532.799989 116.627823 
L 520.8 165.027594 
L 508.800003 197.621965 
L 496.799996 203.988527 
L 484.799999 217.653487 
L 472.800001 238.432526 
L 460.799995 242.40182 
L 448.799997 209.043595 
L 436.8 244.009962 
L 424.800002 228.887997 
L 412.800005 245.572538 
L 400.799998 245.297697 
L 388.800001 298.346916 
L 376.800003 315.949853 
L 364.800001 307.451117 
L 352.799999 301.021455 
L 340.799997 278.722937 
L 328.8 284.978586 
L 316.800002 287.334068 
L 304.8 306.810992 
L 292.799998 301.889479 
L 280.800001 307.940669 
L 268.800001 295.218247 
L 256.8 291.320125 
L 244.8 286.490405 
L 232.8 319.731698 
L 220.8 334.646966 
L 208.8 335.765263 
L 196.8 311.720719 
L 184.8 288.394344 
L 172.799999 294.912137 
L 160.799999 301.541007 
L 148.800002 320.580448 
L 136.8 324.307593 
L 124.799998 298.997149 
L 112.8 284.908989 
L 100.800003 285.916863 
L 88.800001 302.312769 
L 76.799999 316.865315 
L 64.799997 327.1044 
L 52.799999 333.088203 
L 40.800002 332.085946 
L 28.799995 305.159812 
L 16.799998 316.038089 
L 4.8 328.397356 
L -7.199997 352.150727 
L -19.199995 356.347535 
L -31.200001 357.553884 
L -43.199999 357.160004 
z
" clip-path="url(#p433e5c9075)" style="fill: #0e87cc; fill-opacity: 0.25"/>
   </g>
   <g id="PolyCollection_2">
    <path d="M -43.199999 290.969254 
L -43.199999 360.822351 
L -31.200001 354.669558 
L -19.199995 363.487198 
L -7.199997 366.326454 
L 4.8 373.194286 
L 16.799998 361.967683 
L 28.799995 359.96896 
L 40.800002 352.095285 
L 52.799999 355.409243 
L 64.799997 356.628588 
L 76.799999 362.433238 
L 88.800001 365.676666 
L 100.800003 362.41237 
L 112.8 357.985762 
L 124.799998 354.052695 
L 136.8 340.678177 
L 148.800002 340.758741 
L 160.799999 343.924772 
L 172.799999 359.075935 
L 184.8 367.911809 
L 196.8 364.049649 
L 208.8 371.980646 
L 220.8 365.952446 
L 232.8 370.459715 
L 244.8 362.911151 
L 256.8 360.498762 
L 268.800001 361.523592 
L 280.800001 355.990923 
L 292.799998 357.592488 
L 304.8 344.946099 
L 316.800002 348.218429 
L 328.8 349.660325 
L 340.799997 355.428112 
L 352.799999 341.106298 
L 364.800001 338.160907 
L 376.800003 339.073406 
L 388.800001 353.849445 
L 400.799998 354.193002 
L 412.800005 362.295599 
L 424.800002 352.375314 
L 436.8 345.763999 
L 448.799997 335.595428 
L 460.799995 340.142201 
L 472.800001 345.167462 
L 484.799999 348.699032 
L 496.799996 354.201504 
L 508.800003 359.308406 
L 520.8 353.225216 
L 532.799989 343.713485 
L 544.799995 330.480742 
L 556.800001 325.122417 
L 568.79999 341.376452 
L 580.799996 349.313328 
L 592.800003 354.41156 
L 604.799991 345.681877 
L 616.799998 354.370868 
L 628.800004 336.735313 
L 640.799993 325.073913 
L 652.799999 326.793622 
L 664.800006 345.716172 
L 676.799994 361.153763 
L 688.800001 355.466405 
L 700.800007 339.859694 
L 712.799996 317.227963 
L 724.800002 293.806725 
L 736.800009 317.30706 
L 748.799997 333.412893 
L 760.800004 350.316099 
L 772.80001 316.008267 
L 784.799999 321.470733 
L 796.800005 325.635654 
L 808.800011 352.177905 
L 820.8 334.108205 
L 832.799989 330.721024 
L 844.799977 314.428535 
L 856.800001 319.178462 
L 868.800026 326.407678 
L 880.800014 347.403439 
L 892.800003 369.332928 
L 904.799991 369.063985 
L 916.79998 372.002945 
L 928.800004 369.277576 
L 940.800029 366.393442 
L 952.800017 371.956403 
L 964.800006 373.94724 
L 976.799994 376.600354 
L 988.799983 361.026912 
L 1000.799971 358.188678 
L 1012.799996 354.026549 
L 1024.80002 356.08815 
L 1036.800009 354.018756 
L 1048.799997 353.73912 
L 1060.799986 356.714301 
L 1072.799974 363.976175 
L 1084.799999 368.276749 
L 1096.800023 375.052156 
L 1108.800011 366.399614 
L 1120.8 362.325073 
L 1132.799989 356.265192 
L 1144.799977 353.598036 
L 1156.800001 358.569686 
L 1168.800026 362.009804 
L 1168.800026 331.119092 
L 1168.800026 331.119092 
L 1156.800001 325.962465 
L 1144.799977 308.581766 
L 1132.799989 309.561367 
L 1120.8 303.391369 
L 1108.800011 321.291208 
L 1096.800023 329.160871 
L 1084.799999 339.422283 
L 1072.799974 333.301041 
L 1060.799986 324.509164 
L 1048.799997 312.385804 
L 1036.800009 291.305616 
L 1024.80002 288.110563 
L 1012.799996 255.370406 
L 1000.799971 280.830692 
L 988.799983 283.965484 
L 976.799994 334.944444 
L 964.800006 324.420318 
L 952.800017 324.539164 
L 940.800029 293.645856 
L 928.800004 297.666214 
L 916.79998 311.343891 
L 904.799991 335.923166 
L 892.800003 335.9602 
L 880.800014 302.365552 
L 868.800026 256.094971 
L 856.800001 245.244537 
L 844.799977 238.257745 
L 832.799989 252.903891 
L 820.8 226.864761 
L 808.800011 233.014612 
L 796.800005 224.589412 
L 784.799999 241.285349 
L 772.80001 230.542212 
L 760.800004 269.480993 
L 748.799997 261.938463 
L 736.800009 252.583477 
L 724.800002 221.90901 
L 712.799996 235.184346 
L 700.800007 258.050279 
L 688.800001 277.857353 
L 676.799994 307.061419 
L 664.800006 297.220705 
L 652.799999 275.870031 
L 640.799993 263.989739 
L 628.800004 284.573176 
L 616.799998 302.698617 
L 604.799991 299.882022 
L 592.800003 314.503427 
L 580.799996 311.589807 
L 568.79999 288.369428 
L 556.800001 253.146658 
L 544.799995 256.095617 
L 532.799989 273.123811 
L 520.8 279.546528 
L 508.800003 289.535451 
L 496.799996 297.530795 
L 484.799999 299.422791 
L 472.800001 293.33127 
L 460.799995 279.247273 
L 448.799997 276.513419 
L 436.8 278.036945 
L 424.800002 286.540063 
L 412.800005 303.925935 
L 400.799998 291.385014 
L 388.800001 300.448827 
L 376.800003 285.54505 
L 364.800001 299.071807 
L 352.799999 296.311844 
L 340.799997 308.056065 
L 328.8 302.291496 
L 316.800002 299.695546 
L 304.8 304.428552 
L 292.799998 322.785313 
L 280.800001 319.888345 
L 268.800001 319.548368 
L 256.8 304.776056 
L 244.8 298.34099 
L 232.8 315.421434 
L 220.8 323.34073 
L 208.8 340.900087 
L 196.8 330.953019 
L 184.8 339.572691 
L 172.799999 317.94318 
L 160.799999 275.849217 
L 148.800002 267.322495 
L 136.8 281.237521 
L 124.799998 325.326884 
L 112.8 331.992365 
L 100.800003 323.428878 
L 88.800001 308.807042 
L 76.799999 307.834729 
L 64.799997 301.937006 
L 52.799999 302.723706 
L 40.800002 296.023965 
L 28.799995 316.593638 
L 16.799998 323.961436 
L 4.8 336.733647 
L -7.199997 329.238879 
L -19.199995 318.66181 
L -31.200001 301.074294 
L -43.199999 290.969254 
z
" clip-path="url(#p433e5c9075)" style="fill: #7b4fa3; fill-opacity: 0.25"/>
   </g>
   <g id="matplotlib.axis_1">
    <g id="xtick_1">
     <g id="line2d_1">
      <defs>
       <path id="m55be29cf11" d="M 0 0 
L 0 3.5 
" style="stroke: #000000; stroke-width: 0.8"/>
      </defs>
      <g>
       <use xlink:href="#m55be29cf11" x="100.8" y="396" style="stroke: #000000; stroke-width: 0.8"/>
      </g>
     </g>
     <g id="text_1">
      <!-- −100 -->
      <g transform="translate(78.82625 415.1575) scale(0.16 -0.16)">
       <defs>
        <path id="DejaVuSans-2212" d="M 678 2272 
L 4684 2272 
L 4684 1741 
L 678 1741 
L 678 2272 
z
" transform="scale(0.015625)"/>
        <path id="DejaVuSans-31" d="M 794 531 
L 1825 531 
L 1825 4091 
L 703 3866 
L 703 4441 
L 1819 4666 
L 2450 4666 
L 2450 531 
L 3481 531 
L 3481 0 
L 794 0 
L 794 531 
z
" transform="scale(0.015625)"/>
        <path id="DejaVuSans-30" d="M 2034 4250 
Q 1547 4250 1301 3770 
Q 1056 3291 1056 2328 
Q 1056 1369 1301 889 
Q 1547 409 2034 409 
Q 2525 409 2770 889 
Q 3016 1369 3016 2328 
Q 3016 3291 2770 3770 
Q 2525 4250 2034 4250 
z
M 2034 4750 
Q 2819 4750 3233 4129 
Q 3647 3509 3647 2328 
Q 3647 1150 3233 529 
Q 2819 -91 2034 -91 
Q 1250 -91 836 529 
Q 422 1150 422 2328 
Q 422 3509 836 4129 
Q 1250 4750 2034 4750 
z
" transform="scale(0.015625)"/>
       </defs>
       <use xlink:href="#DejaVuSans-2212"/>
       <use xlink:href="#DejaVuSans-31" x="83.789062"/>
       <use xlink:href="#DejaVuSans-30" x="147.412109"/>
       <use xlink:href="#DejaVuSans-30" x="211.035156"/>
      </g>
     </g>
    </g>
    <g id="xtick_2">
     <g id="line2d_2">
      <g>
       <use xlink:href="#m55be29cf11" x="220.8" y="396" style="stroke: #000000; stroke-width: 0.8"/>
      </g>
     </g>
     <g id="text_2">
      <!-- 0 -->
      <g transform="translate(215.71 415.1575) scale(0.16 -0.16)">
       <use xlink:href="#DejaVuSans-30"/>
      </g>
     </g>
    </g>
    <g id="xtick_3">
     <g id="line2d_3">
      <g>
       <use xlink:href="#m55be29cf11" x="340.8" y="396" style="stroke: #000000; stroke-width: 0.8"/>
      </g>
     </g>
     <g id="text_3">
      <!-- 100 -->
      <g transform="translate(325.53 415.1575) scale(0.16 -0.16)">
       <use xlink:href="#DejaVuSans-31"/>
       <use xlink:href="#DejaVuSans-30" x="63.623047"/>
       <use xlink:href="#DejaVuSans-30" x="127.246094"/>
      </g>
     </g>
    </g>
    <g id="xtick_4">
     <g id="line2d_4">
      <g>
       <use xlink:href="#m55be29cf11" x="460.8" y="396" style="stroke: #000000; stroke-width: 0.8"/>
      </g>
     </g>
     <g id="text_4">
      <!-- 200 -->
      <g transform="translate(445.53 415.1575) scale(0.16 -0.16)">
       <defs>
        <path id="DejaVuSans-32" d="M 1228 531 
L 3431 531 
L 3431 0 
L 469 0 
L 469 531 
Q 828 903 1448 1529 
Q 2069 2156 2228 2338 
Q 2531 2678 2651 2914 
Q 2772 3150 2772 3378 
Q 2772 3750 2511 3984 
Q 2250 4219 1831 4219 
Q 1534 4219 1204 4116 
Q 875 4013 500 3803 
L 500 4441 
Q 881 4594 1212 4672 
Q 1544 4750 1819 4750 
Q 2544 4750 2975 4387 
Q 3406 4025 3406 3419 
Q 3406 3131 3298 2873 
Q 3191 2616 2906 2266 
Q 2828 2175 2409 1742 
Q 1991 1309 1228 531 
z
" transform="scale(0.015625)"/>
       </defs>
       <use xlink:href="#DejaVuSans-32"/>
       <use xlink:href="#DejaVuSans-30" x="63.623047"/>
       <use xlink:href="#DejaVuSans-30" x="127.246094"/>
      </g>
     </g>
    </g>
    <g id="xtick_5">
     <g id="line2d_5">
      <g>
       <use xlink:href="#m55be29cf11" x="580.8" y="396" style="stroke: #000000; stroke-width: 0.8"/>
      </g>
     </g>
     <g id="text_5">
      <!-- 300 -->
      <g transform="translate(565.53 415.1575) scale(0.16 -0.16)">
       <defs>
        <path id="DejaVuSans-33" d="M 2597 2516 
Q 3050 2419 3304 2112 
Q 3559 1806 3559 1356 
Q 3559 666 3084 287 
Q 2609 -91 1734 -91 
Q 1441 -91 1130 -33 
Q 819 25 488 141 
L 488 750 
Q 750 597 1062 519 
Q 1375 441 1716 441 
Q 2309 441 2620 675 
Q 2931 909 2931 1356 
Q 2931 1769 2642 2001 
Q 2353 2234 1838 2234 
L 1294 2234 
L 1294 2753 
L 1863 2753 
Q 2328 2753 2575 2939 
Q 2822 3125 2822 3475 
Q 2822 3834 2567 4026 
Q 2313 4219 1838 4219 
Q 1578 4219 1281 4162 
Q 984 4106 628 3988 
L 628 4550 
Q 988 4650 1302 4700 
Q 1616 4750 1894 4750 
Q 2613 4750 3031 4423 
Q 3450 4097 3450 3541 
Q 3450 3153 3228 2886 
Q 3006 2619 2597 2516 
z
" transform="scale(0.015625)"/>
       </defs>
       <use xlink:href="#DejaVuSans-33"/>
       <use xlink:href="#DejaVuSans-30" x="63.623047"/>
       <use xlink:href="#DejaVuSans-30" x="127.246094"/>
      </g>
     </g>
    </g>
    <g id="xtick_6">
     <g id="line2d_6">
      <g>
       <use xlink:href="#m55be29cf11" x="700.8" y="396" style="stroke: #000000; stroke-width: 0.8"/>
      </g>
     </g>
     <g id="text_6">
      <!-- 400 -->
      <g transform="translate(685.53 415.1575) scale(0.16 -0.16)">
       <defs>
        <path id="DejaVuSans-34" d="M 2419 4116 
L 825 1625 
L 2419 1625 
L 2419 4116 
z
M 2253 4666 
L 3047 4666 
L 3047 1625 
L 3713 1625 
L 3713 1100 
L 3047 1100 
L 3047 0 
L 2419 0 
L 2419 1100 
L 313 1100 
L 313 1709 
L 2253 4666 
z
" transform="scale(0.015625)"/>
       </defs>
       <use xlink:href="#DejaVuSans-34"/>
       <use xlink:href="#DejaVuSans-30" x="63.623047"/>
       <use xlink:href="#DejaVuSans-30" x="127.246094"/>
      </g>
     </g>
    </g>
    <g id="xtick_7">
     <g id="line2d_7">
      <g>
       <use xlink:href="#m55be29cf11" x="820.8" y="396" style="stroke: #000000; stroke-width: 0.8"/>
      </g>
     </g>
     <g id="text_7">
      <!-- 500 -->
      <g transform="translate(805.53 415.1575) scale(0.16 -0.16)">
       <defs>
        <path id="DejaVuSans-35" d="M 691 4666 
L 3169 4666 
L 3169 4134 
L 1269 4134 
L 1269 2991 
Q 1406 3038 1543 3061 
Q 1681 3084 1819 3084 
Q 2600 3084 3056 2656 
Q 3513 2228 3513 1497 
Q 3513 744 3044 326 
Q 2575 -91 1722 -91 
Q 1428 -91 1123 -41 
Q 819 9 494 109 
L 494 744 
Q 775 591 1075 516 
Q 1375 441 1709 441 
Q 2250 441 2565 725 
Q 2881 1009 2881 1497 
Q 2881 1984 2565 2268 
Q 2250 2553 1709 2553 
Q 1456 2553 1204 2497 
Q 953 2441 691 2322 
L 691 4666 
z
" transform="scale(0.015625)"/>
       </defs>
       <use xlink:href="#DejaVuSans-35"/>
       <use xlink:href="#DejaVuSans-30" x="63.623047"/>
       <use xlink:href="#DejaVuSans-30" x="127.246094"/>
      </g>
     </g>
    </g>
    <g id="text_8">
     <!-- Time from Stimulus Onset (ms) -->
     <g transform="translate(320.273438 436.162187) scale(0.18 -0.18)">
      <defs>
       <path id="DejaVuSans-54" d="M -19 4666 
L 3928 4666 
L 3928 4134 
L 2272 4134 
L 2272 0 
L 1638 0 
L 1638 4134 
L -19 4134 
L -19 4666 
z
" transform="scale(0.015625)"/>
       <path id="DejaVuSans-69" d="M 603 3500 
L 1178 3500 
L 1178 0 
L 603 0 
L 603 3500 
z
M 603 4863 
L 1178 4863 
L 1178 4134 
L 603 4134 
L 603 4863 
z
" transform="scale(0.015625)"/>
       <path id="DejaVuSans-6d" d="M 3328 2828 
Q 3544 3216 3844 3400 
Q 4144 3584 4550 3584 
Q 5097 3584 5394 3201 
Q 5691 2819 5691 2113 
L 5691 0 
L 5113 0 
L 5113 2094 
Q 5113 2597 4934 2840 
Q 4756 3084 4391 3084 
Q 3944 3084 3684 2787 
Q 3425 2491 3425 1978 
L 3425 0 
L 2847 0 
L 2847 2094 
Q 2847 2600 2669 2842 
Q 2491 3084 2119 3084 
Q 1678 3084 1418 2786 
Q 1159 2488 1159 1978 
L 1159 0 
L 581 0 
L 581 3500 
L 1159 3500 
L 1159 2956 
Q 1356 3278 1631 3431 
Q 1906 3584 2284 3584 
Q 2666 3584 2933 3390 
Q 3200 3197 3328 2828 
z
" transform="scale(0.015625)"/>
       <path id="DejaVuSans-65" d="M 3597 1894 
L 3597 1613 
L 953 1613 
Q 991 1019 1311 708 
Q 1631 397 2203 397 
Q 2534 397 2845 478 
Q 3156 559 3463 722 
L 3463 178 
Q 3153 47 2828 -22 
Q 2503 -91 2169 -91 
Q 1331 -91 842 396 
Q 353 884 353 1716 
Q 353 2575 817 3079 
Q 1281 3584 2069 3584 
Q 2775 3584 3186 3129 
Q 3597 2675 3597 1894 
z
M 3022 2063 
Q 3016 2534 2758 2815 
Q 2500 3097 2075 3097 
Q 1594 3097 1305 2825 
Q 1016 2553 972 2059 
L 3022 2063 
z
" transform="scale(0.015625)"/>
       <path id="DejaVuSans-20" transform="scale(0.015625)"/>
       <path id="DejaVuSans-66" d="M 2375 4863 
L 2375 4384 
L 1825 4384 
Q 1516 4384 1395 4259 
Q 1275 4134 1275 3809 
L 1275 3500 
L 2222 3500 
L 2222 3053 
L 1275 3053 
L 1275 0 
L 697 0 
L 697 3053 
L 147 3053 
L 147 3500 
L 697 3500 
L 697 3744 
Q 697 4328 969 4595 
Q 1241 4863 1831 4863 
L 2375 4863 
z
" transform="scale(0.015625)"/>
       <path id="DejaVuSans-72" d="M 2631 2963 
Q 2534 3019 2420 3045 
Q 2306 3072 2169 3072 
Q 1681 3072 1420 2755 
Q 1159 2438 1159 1844 
L 1159 0 
L 581 0 
L 581 3500 
L 1159 3500 
L 1159 2956 
Q 1341 3275 1631 3429 
Q 1922 3584 2338 3584 
Q 2397 3584 2469 3576 
Q 2541 3569 2628 3553 
L 2631 2963 
z
" transform="scale(0.015625)"/>
       <path id="DejaVuSans-6f" d="M 1959 3097 
Q 1497 3097 1228 2736 
Q 959 2375 959 1747 
Q 959 1119 1226 758 
Q 1494 397 1959 397 
Q 2419 397 2687 759 
Q 2956 1122 2956 1747 
Q 2956 2369 2687 2733 
Q 2419 3097 1959 3097 
z
M 1959 3584 
Q 2709 3584 3137 3096 
Q 3566 2609 3566 1747 
Q 3566 888 3137 398 
Q 2709 -91 1959 -91 
Q 1206 -91 779 398 
Q 353 888 353 1747 
Q 353 2609 779 3096 
Q 1206 3584 1959 3584 
z
" transform="scale(0.015625)"/>
       <path id="DejaVuSans-53" d="M 3425 4513 
L 3425 3897 
Q 3066 4069 2747 4153 
Q 2428 4238 2131 4238 
Q 1616 4238 1336 4038 
Q 1056 3838 1056 3469 
Q 1056 3159 1242 3001 
Q 1428 2844 1947 2747 
L 2328 2669 
Q 3034 2534 3370 2195 
Q 3706 1856 3706 1288 
Q 3706 609 3251 259 
Q 2797 -91 1919 -91 
Q 1588 -91 1214 -16 
Q 841 59 441 206 
L 441 856 
Q 825 641 1194 531 
Q 1563 422 1919 422 
Q 2459 422 2753 634 
Q 3047 847 3047 1241 
Q 3047 1584 2836 1778 
Q 2625 1972 2144 2069 
L 1759 2144 
Q 1053 2284 737 2584 
Q 422 2884 422 3419 
Q 422 4038 858 4394 
Q 1294 4750 2059 4750 
Q 2388 4750 2728 4690 
Q 3069 4631 3425 4513 
z
" transform="scale(0.015625)"/>
       <path id="DejaVuSans-74" d="M 1172 4494 
L 1172 3500 
L 2356 3500 
L 2356 3053 
L 1172 3053 
L 1172 1153 
Q 1172 725 1289 603 
Q 1406 481 1766 481 
L 2356 481 
L 2356 0 
L 1766 0 
Q 1100 0 847 248 
Q 594 497 594 1153 
L 594 3053 
L 172 3053 
L 172 3500 
L 594 3500 
L 594 4494 
L 1172 4494 
z
" transform="scale(0.015625)"/>
       <path id="DejaVuSans-75" d="M 544 1381 
L 544 3500 
L 1119 3500 
L 1119 1403 
Q 1119 906 1312 657 
Q 1506 409 1894 409 
Q 2359 409 2629 706 
Q 2900 1003 2900 1516 
L 2900 3500 
L 3475 3500 
L 3475 0 
L 2900 0 
L 2900 538 
Q 2691 219 2414 64 
Q 2138 -91 1772 -91 
Q 1169 -91 856 284 
Q 544 659 544 1381 
z
M 1991 3584 
L 1991 3584 
z
" transform="scale(0.015625)"/>
       <path id="DejaVuSans-6c" d="M 603 4863 
L 1178 4863 
L 1178 0 
L 603 0 
L 603 4863 
z
" transform="scale(0.015625)"/>
       <path id="DejaVuSans-73" d="M 2834 3397 
L 2834 2853 
Q 2591 2978 2328 3040 
Q 2066 3103 1784 3103 
Q 1356 3103 1142 2972 
Q 928 2841 928 2578 
Q 928 2378 1081 2264 
Q 1234 2150 1697 2047 
L 1894 2003 
Q 2506 1872 2764 1633 
Q 3022 1394 3022 966 
Q 3022 478 2636 193 
Q 2250 -91 1575 -91 
Q 1294 -91 989 -36 
Q 684 19 347 128 
L 347 722 
Q 666 556 975 473 
Q 1284 391 1588 391 
Q 1994 391 2212 530 
Q 2431 669 2431 922 
Q 2431 1156 2273 1281 
Q 2116 1406 1581 1522 
L 1381 1569 
Q 847 1681 609 1914 
Q 372 2147 372 2553 
Q 372 3047 722 3315 
Q 1072 3584 1716 3584 
Q 2034 3584 2315 3537 
Q 2597 3491 2834 3397 
z
" transform="scale(0.015625)"/>
       <path id="DejaVuSans-4f" d="M 2522 4238 
Q 1834 4238 1429 3725 
Q 1025 3213 1025 2328 
Q 1025 1447 1429 934 
Q 1834 422 2522 422 
Q 3209 422 3611 934 
Q 4013 1447 4013 2328 
Q 4013 3213 3611 3725 
Q 3209 4238 2522 4238 
z
M 2522 4750 
Q 3503 4750 4090 4092 
Q 4678 3434 4678 2328 
Q 4678 1225 4090 567 
Q 3503 -91 2522 -91 
Q 1538 -91 948 565 
Q 359 1222 359 2328 
Q 359 3434 948 4092 
Q 1538 4750 2522 4750 
z
" transform="scale(0.015625)"/>
       <path id="DejaVuSans-6e" d="M 3513 2113 
L 3513 0 
L 2938 0 
L 2938 2094 
Q 2938 2591 2744 2837 
Q 2550 3084 2163 3084 
Q 1697 3084 1428 2787 
Q 1159 2491 1159 1978 
L 1159 0 
L 581 0 
L 581 3500 
L 1159 3500 
L 1159 2956 
Q 1366 3272 1645 3428 
Q 1925 3584 2291 3584 
Q 2894 3584 3203 3211 
Q 3513 2838 3513 2113 
z
" transform="scale(0.015625)"/>
       <path id="DejaVuSans-28" d="M 1984 4856 
Q 1566 4138 1362 3434 
Q 1159 2731 1159 2009 
Q 1159 1288 1364 580 
Q 1569 -128 1984 -844 
L 1484 -844 
Q 1016 -109 783 600 
Q 550 1309 550 2009 
Q 550 2706 781 3412 
Q 1013 4119 1484 4856 
L 1984 4856 
z
" transform="scale(0.015625)"/>
       <path id="DejaVuSans-29" d="M 513 4856 
L 1013 4856 
Q 1481 4119 1714 3412 
Q 1947 2706 1947 2009 
Q 1947 1309 1714 600 
Q 1481 -109 1013 -844 
L 513 -844 
Q 928 -128 1133 580 
Q 1338 1288 1338 2009 
Q 1338 2731 1133 3434 
Q 928 4138 513 4856 
z
" transform="scale(0.015625)"/>
      </defs>
      <use xlink:href="#DejaVuSans-54"/>
      <use xlink:href="#DejaVuSans-69" x="57.958984"/>
      <use xlink:href="#DejaVuSans-6d" x="85.742188"/>
      <use xlink:href="#DejaVuSans-65" x="183.154297"/>
      <use xlink:href="#DejaVuSans-20" x="244.677734"/>
      <use xlink:href="#DejaVuSans-66" x="276.464844"/>
      <use xlink:href="#DejaVuSans-72" x="311.669922"/>
      <use xlink:href="#DejaVuSans-6f" x="350.533203"/>
      <use xlink:href="#DejaVuSans-6d" x="411.714844"/>
      <use xlink:href="#DejaVuSans-20" x="509.126953"/>
      <use xlink:href="#DejaVuSans-53" x="540.914062"/>
      <use xlink:href="#DejaVuSans-74" x="604.390625"/>
      <use xlink:href="#DejaVuSans-69" x="643.599609"/>
      <use xlink:href="#DejaVuSans-6d" x="671.382812"/>
      <use xlink:href="#DejaVuSans-75" x="768.794922"/>
      <use xlink:href="#DejaVuSans-6c" x="832.173828"/>
      <use xlink:href="#DejaVuSans-75" x="859.957031"/>
      <use xlink:href="#DejaVuSans-73" x="923.335938"/>
      <use xlink:href="#DejaVuSans-20" x="975.435547"/>
      <use xlink:href="#DejaVuSans-4f" x="1007.222656"/>
      <use xlink:href="#DejaVuSans-6e" x="1085.933594"/>
      <use xlink:href="#DejaVuSans-73" x="1149.3125"/>
      <use xlink:href="#DejaVuSans-65" x="1201.412109"/>
      <use xlink:href="#DejaVuSans-74" x="1262.935547"/>
      <use xlink:href="#DejaVuSans-20" x="1302.144531"/>
      <use xlink:href="#DejaVuSans-28" x="1333.931641"/>
      <use xlink:href="#DejaVuSans-6d" x="1372.945312"/>
      <use xlink:href="#DejaVuSans-73" x="1470.357422"/>
      <use xlink:href="#DejaVuSans-29" x="1522.457031"/>
     </g>
    </g>
   </g>
   <g id="matplotlib.axis_2">
    <g id="ytick_1">
     <g id="line2d_8">
      <defs>
       <path id="m5188991957" d="M 0 0 
L -3.5 0 
" style="stroke: #000000; stroke-width: 0.8"/>
      </defs>
      <g>
       <use xlink:href="#m5188991957" x="100.8" y="385.186831" style="stroke: #000000; stroke-width: 0.8"/>
      </g>
     </g>
     <g id="text_9">
      <!-- −0.005 -->
      <g transform="translate(34.5875 391.265581) scale(0.16 -0.16)">
       <defs>
        <path id="DejaVuSans-2e" d="M 684 794 
L 1344 794 
L 1344 0 
L 684 0 
L 684 794 
z
" transform="scale(0.015625)"/>
       </defs>
       <use xlink:href="#DejaVuSans-2212"/>
       <use xlink:href="#DejaVuSans-30" x="83.789062"/>
       <use xlink:href="#DejaVuSans-2e" x="147.412109"/>
       <use xlink:href="#DejaVuSans-30" x="179.199219"/>
       <use xlink:href="#DejaVuSans-30" x="242.822266"/>
       <use xlink:href="#DejaVuSans-35" x="306.445312"/>
      </g>
     </g>
    </g>
    <g id="ytick_2">
     <g id="line2d_9">
      <g>
       <use xlink:href="#m5188991957" x="100.8" y="337.008557" style="stroke: #000000; stroke-width: 0.8"/>
      </g>
     </g>
     <g id="text_10">
      <!-- 0.000 -->
      <g transform="translate(47.995 343.087307) scale(0.16 -0.16)">
       <use xlink:href="#DejaVuSans-30"/>
       <use xlink:href="#DejaVuSans-2e" x="63.623047"/>
       <use xlink:href="#DejaVuSans-30" x="95.410156"/>
       <use xlink:href="#DejaVuSans-30" x="159.033203"/>
       <use xlink:href="#DejaVuSans-30" x="222.65625"/>
      </g>
     </g>
    </g>
    <g id="ytick_3">
     <g id="line2d_10">
      <g>
       <use xlink:href="#m5188991957" x="100.8" y="288.830283" style="stroke: #000000; stroke-width: 0.8"/>
      </g>
     </g>
     <g id="text_11">
      <!-- 0.005 -->
      <g transform="translate(47.995 294.909033) scale(0.16 -0.16)">
       <use xlink:href="#DejaVuSans-30"/>
       <use xlink:href="#DejaVuSans-2e" x="63.623047"/>
       <use xlink:href="#DejaVuSans-30" x="95.410156"/>
       <use xlink:href="#DejaVuSans-30" x="159.033203"/>
       <use xlink:href="#DejaVuSans-35" x="222.65625"/>
      </g>
     </g>
    </g>
    <g id="ytick_4">
     <g id="line2d_11">
      <g>
       <use xlink:href="#m5188991957" x="100.8" y="240.652008" style="stroke: #000000; stroke-width: 0.8"/>
      </g>
     </g>
     <g id="text_12">
      <!-- 0.010 -->
      <g transform="translate(47.995 246.730758) scale(0.16 -0.16)">
       <use xlink:href="#DejaVuSans-30"/>
       <use xlink:href="#DejaVuSans-2e" x="63.623047"/>
       <use xlink:href="#DejaVuSans-30" x="95.410156"/>
       <use xlink:href="#DejaVuSans-31" x="159.033203"/>
       <use xlink:href="#DejaVuSans-30" x="222.65625"/>
      </g>
     </g>
    </g>
    <g id="ytick_5">
     <g id="line2d_12">
      <g>
       <use xlink:href="#m5188991957" x="100.8" y="192.473734" style="stroke: #000000; stroke-width: 0.8"/>
      </g>
     </g>
     <g id="text_13">
      <!-- 0.015 -->
      <g transform="translate(47.995 198.552484) scale(0.16 -0.16)">
       <use xlink:href="#DejaVuSans-30"/>
       <use xlink:href="#DejaVuSans-2e" x="63.623047"/>
       <use xlink:href="#DejaVuSans-30" x="95.410156"/>
       <use xlink:href="#DejaVuSans-31" x="159.033203"/>
       <use xlink:href="#DejaVuSans-35" x="222.65625"/>
      </g>
     </g>
    </g>
    <g id="ytick_6">
     <g id="line2d_13">
      <g>
       <use xlink:href="#m5188991957" x="100.8" y="144.29546" style="stroke: #000000; stroke-width: 0.8"/>
      </g>
     </g>
     <g id="text_14">
      <!-- 0.020 -->
      <g transform="translate(47.995 150.37421) scale(0.16 -0.16)">
       <use xlink:href="#DejaVuSans-30"/>
       <use xlink:href="#DejaVuSans-2e" x="63.623047"/>
       <use xlink:href="#DejaVuSans-30" x="95.410156"/>
       <use xlink:href="#DejaVuSans-32" x="159.033203"/>
       <use xlink:href="#DejaVuSans-30" x="222.65625"/>
      </g>
     </g>
    </g>
    <g id="ytick_7">
     <g id="line2d_14">
      <g>
       <use xlink:href="#m5188991957" x="100.8" y="96.117186" style="stroke: #000000; stroke-width: 0.8"/>
      </g>
     </g>
     <g id="text_15">
      <!-- 0.025 -->
      <g transform="translate(47.995 102.195936) scale(0.16 -0.16)">
       <use xlink:href="#DejaVuSans-30"/>
       <use xlink:href="#DejaVuSans-2e" x="63.623047"/>
       <use xlink:href="#DejaVuSans-30" x="95.410156"/>
       <use xlink:href="#DejaVuSans-32" x="159.033203"/>
       <use xlink:href="#DejaVuSans-35" x="222.65625"/>
      </g>
     </g>
    </g>
    <g id="ytick_8">
     <g id="line2d_15">
      <g>
       <use xlink:href="#m5188991957" x="100.8" y="47.938911" style="stroke: #000000; stroke-width: 0.8"/>
      </g>
     </g>
     <g id="text_16">
      <!-- 0.030 -->
      <g transform="translate(47.995 54.017661) scale(0.16 -0.16)">
       <use xlink:href="#DejaVuSans-30"/>
       <use xlink:href="#DejaVuSans-2e" x="63.623047"/>
       <use xlink:href="#DejaVuSans-30" x="95.410156"/>
       <use xlink:href="#DejaVuSans-33" x="159.033203"/>
       <use xlink:href="#DejaVuSans-30" x="222.65625"/>
      </g>
     </g>
    </g>
    <g id="text_17">
     <!-- Directed predictability gain (bits) -->
     <g transform="translate(26.844062 364.685625) rotate(-90) scale(0.18 -0.18)">
      <defs>
       <path id="DejaVuSans-44" d="M 1259 4147 
L 1259 519 
L 2022 519 
Q 2988 519 3436 956 
Q 3884 1394 3884 2338 
Q 3884 3275 3436 3711 
Q 2988 4147 2022 4147 
L 1259 4147 
z
M 628 4666 
L 1925 4666 
Q 3281 4666 3915 4102 
Q 4550 3538 4550 2338 
Q 4550 1131 3912 565 
Q 3275 0 1925 0 
L 628 0 
L 628 4666 
z
" transform="scale(0.015625)"/>
       <path id="DejaVuSans-63" d="M 3122 3366 
L 3122 2828 
Q 2878 2963 2633 3030 
Q 2388 3097 2138 3097 
Q 1578 3097 1268 2742 
Q 959 2388 959 1747 
Q 959 1106 1268 751 
Q 1578 397 2138 397 
Q 2388 397 2633 464 
Q 2878 531 3122 666 
L 3122 134 
Q 2881 22 2623 -34 
Q 2366 -91 2075 -91 
Q 1284 -91 818 406 
Q 353 903 353 1747 
Q 353 2603 823 3093 
Q 1294 3584 2113 3584 
Q 2378 3584 2631 3529 
Q 2884 3475 3122 3366 
z
" transform="scale(0.015625)"/>
       <path id="DejaVuSans-64" d="M 2906 2969 
L 2906 4863 
L 3481 4863 
L 3481 0 
L 2906 0 
L 2906 525 
Q 2725 213 2448 61 
Q 2172 -91 1784 -91 
Q 1150 -91 751 415 
Q 353 922 353 1747 
Q 353 2572 751 3078 
Q 1150 3584 1784 3584 
Q 2172 3584 2448 3432 
Q 2725 3281 2906 2969 
z
M 947 1747 
Q 947 1113 1208 752 
Q 1469 391 1925 391 
Q 2381 391 2643 752 
Q 2906 1113 2906 1747 
Q 2906 2381 2643 2742 
Q 2381 3103 1925 3103 
Q 1469 3103 1208 2742 
Q 947 2381 947 1747 
z
" transform="scale(0.015625)"/>
       <path id="DejaVuSans-70" d="M 1159 525 
L 1159 -1331 
L 581 -1331 
L 581 3500 
L 1159 3500 
L 1159 2969 
Q 1341 3281 1617 3432 
Q 1894 3584 2278 3584 
Q 2916 3584 3314 3078 
Q 3713 2572 3713 1747 
Q 3713 922 3314 415 
Q 2916 -91 2278 -91 
Q 1894 -91 1617 61 
Q 1341 213 1159 525 
z
M 3116 1747 
Q 3116 2381 2855 2742 
Q 2594 3103 2138 3103 
Q 1681 3103 1420 2742 
Q 1159 2381 1159 1747 
Q 1159 1113 1420 752 
Q 1681 391 2138 391 
Q 2594 391 2855 752 
Q 3116 1113 3116 1747 
z
" transform="scale(0.015625)"/>
       <path id="DejaVuSans-61" d="M 2194 1759 
Q 1497 1759 1228 1600 
Q 959 1441 959 1056 
Q 959 750 1161 570 
Q 1363 391 1709 391 
Q 2188 391 2477 730 
Q 2766 1069 2766 1631 
L 2766 1759 
L 2194 1759 
z
M 3341 1997 
L 3341 0 
L 2766 0 
L 2766 531 
Q 2569 213 2275 61 
Q 1981 -91 1556 -91 
Q 1019 -91 701 211 
Q 384 513 384 1019 
Q 384 1609 779 1909 
Q 1175 2209 1959 2209 
L 2766 2209 
L 2766 2266 
Q 2766 2663 2505 2880 
Q 2244 3097 1772 3097 
Q 1472 3097 1187 3025 
Q 903 2953 641 2809 
L 641 3341 
Q 956 3463 1253 3523 
Q 1550 3584 1831 3584 
Q 2591 3584 2966 3190 
Q 3341 2797 3341 1997 
z
" transform="scale(0.015625)"/>
       <path id="DejaVuSans-62" d="M 3116 1747 
Q 3116 2381 2855 2742 
Q 2594 3103 2138 3103 
Q 1681 3103 1420 2742 
Q 1159 2381 1159 1747 
Q 1159 1113 1420 752 
Q 1681 391 2138 391 
Q 2594 391 2855 752 
Q 3116 1113 3116 1747 
z
M 1159 2969 
Q 1341 3281 1617 3432 
Q 1894 3584 2278 3584 
Q 2916 3584 3314 3078 
Q 3713 2572 3713 1747 
Q 3713 922 3314 415 
Q 2916 -91 2278 -91 
Q 1894 -91 1617 61 
Q 1341 213 1159 525 
L 1159 0 
L 581 0 
L 581 4863 
L 1159 4863 
L 1159 2969 
z
" transform="scale(0.015625)"/>
       <path id="DejaVuSans-79" d="M 2059 -325 
Q 1816 -950 1584 -1140 
Q 1353 -1331 966 -1331 
L 506 -1331 
L 506 -850 
L 844 -850 
Q 1081 -850 1212 -737 
Q 1344 -625 1503 -206 
L 1606 56 
L 191 3500 
L 800 3500 
L 1894 763 
L 2988 3500 
L 3597 3500 
L 2059 -325 
z
" transform="scale(0.015625)"/>
       <path id="DejaVuSans-67" d="M 2906 1791 
Q 2906 2416 2648 2759 
Q 2391 3103 1925 3103 
Q 1463 3103 1205 2759 
Q 947 2416 947 1791 
Q 947 1169 1205 825 
Q 1463 481 1925 481 
Q 2391 481 2648 825 
Q 2906 1169 2906 1791 
z
M 3481 434 
Q 3481 -459 3084 -895 
Q 2688 -1331 1869 -1331 
Q 1566 -1331 1297 -1286 
Q 1028 -1241 775 -1147 
L 775 -588 
Q 1028 -725 1275 -790 
Q 1522 -856 1778 -856 
Q 2344 -856 2625 -561 
Q 2906 -266 2906 331 
L 2906 616 
Q 2728 306 2450 153 
Q 2172 0 1784 0 
Q 1141 0 747 490 
Q 353 981 353 1791 
Q 353 2603 747 3093 
Q 1141 3584 1784 3584 
Q 2172 3584 2450 3431 
Q 2728 3278 2906 2969 
L 2906 3500 
L 3481 3500 
L 3481 434 
z
" transform="scale(0.015625)"/>
      </defs>
      <use xlink:href="#DejaVuSans-44"/>
      <use xlink:href="#DejaVuSans-69" x="77.001953"/>
      <use xlink:href="#DejaVuSans-72" x="104.785156"/>
      <use xlink:href="#DejaVuSans-65" x="143.648438"/>
      <use xlink:href="#DejaVuSans-63" x="205.171875"/>
      <use xlink:href="#DejaVuSans-74" x="260.152344"/>
      <use xlink:href="#DejaVuSans-65" x="299.361328"/>
      <use xlink:href="#DejaVuSans-64" x="360.884766"/>
      <use xlink:href="#DejaVuSans-20" x="424.361328"/>
      <use xlink:href="#DejaVuSans-70" x="456.148438"/>
      <use xlink:href="#DejaVuSans-72" x="519.625"/>
      <use xlink:href="#DejaVuSans-65" x="558.488281"/>
      <use xlink:href="#DejaVuSans-64" x="620.011719"/>
      <use xlink:href="#DejaVuSans-69" x="683.488281"/>
      <use xlink:href="#DejaVuSans-63" x="711.271484"/>
      <use xlink:href="#DejaVuSans-74" x="766.251953"/>
      <use xlink:href="#DejaVuSans-61" x="805.460938"/>
      <use xlink:href="#DejaVuSans-62" x="866.740234"/>
      <use xlink:href="#DejaVuSans-69" x="930.216797"/>
      <use xlink:href="#DejaVuSans-6c" x="958"/>
      <use xlink:href="#DejaVuSans-69" x="985.783203"/>
      <use xlink:href="#DejaVuSans-74" x="1013.566406"/>
      <use xlink:href="#DejaVuSans-79" x="1052.775391"/>
      <use xlink:href="#DejaVuSans-20" x="1111.955078"/>
      <use xlink:href="#DejaVuSans-67" x="1143.742188"/>
      <use xlink:href="#DejaVuSans-61" x="1207.21875"/>
      <use xlink:href="#DejaVuSans-69" x="1268.498047"/>
      <use xlink:href="#DejaVuSans-6e" x="1296.28125"/>
      <use xlink:href="#DejaVuSans-20" x="1359.660156"/>
      <use xlink:href="#DejaVuSans-28" x="1391.447266"/>
      <use xlink:href="#DejaVuSans-62" x="1430.460938"/>
      <use xlink:href="#DejaVuSans-69" x="1493.9375"/>
      <use xlink:href="#DejaVuSans-74" x="1521.720703"/>
      <use xlink:href="#DejaVuSans-73" x="1560.929688"/>
      <use xlink:href="#DejaVuSans-29" x="1613.029297"/>
     </g>
    </g>
   </g>
   <g id="line2d_16">
    <path d="M 220.8 396 
L 220.8 36 
" clip-path="url(#p433e5c9075)" style="fill: none; stroke-dasharray: 2.96,1.28; stroke-dashoffset: 0; stroke: #000000; stroke-width: 0.8"/>
   </g>
   <g id="line2d_17">
    <path d="M 100.8 337.008557 
L 820.8 337.008557 
" clip-path="url(#p433e5c9075)" style="fill: none; stroke-dasharray: 0.8,1.32; stroke-dashoffset: 0; stroke: #000000; stroke-width: 0.8"/>
   </g>
   <g id="line2d_18">
    <path d="M -1 356.158766 
L 4.8 348.035198 
L 16.799998 340.261792 
L 28.799995 331.405075 
L 40.800002 351.278825 
L 52.799999 349.313583 
L 64.799997 344.707995 
L 76.799999 336.456718 
L 88.800001 328.904419 
L 100.800003 317.557373 
L 112.8 317.884386 
L 124.799998 326.661621 
L 136.8 345.703988 
L 148.800002 341.796869 
L 160.799999 330.06498 
L 172.799999 323.451298 
L 184.8 319.430228 
L 196.8 335.231076 
L 208.8 353.786066 
L 220.8 350.102738 
L 232.8 339.908724 
L 244.8 319.533845 
L 256.8 323.947422 
L 268.800001 321.862685 
L 280.800001 326.31891 
L 292.799998 324.203501 
L 304.8 331.900059 
L 316.800002 313.656491 
L 328.8 309.39329 
L 340.799997 305.736373 
L 352.799999 326.934979 
L 364.800001 333.245127 
L 376.800003 340.242457 
L 388.800001 327.471471 
L 400.799998 292.622195 
L 412.800005 292.371823 
L 424.800002 277.954194 
L 436.8 294.737098 
L 448.799997 269.180476 
L 460.799995 294.570588 
L 472.800001 283.544272 
L 484.799999 268.571382 
L 496.799996 259.226622 
L 508.800003 254.668757 
L 520.8 225.579869 
L 532.799989 186.52155 
L 544.799995 135.980225 
L 556.800001 144.577644 
L 568.79999 137.15455 
L 580.799996 186.869645 
L 592.800003 233.864811 
L 604.799991 233.536532 
L 616.799998 207.876462 
L 628.800004 161.427776 
L 640.799993 206.836094 
L 652.799999 213.76124 
L 664.800006 241.854598 
L 676.799994 239.010356 
L 688.800001 258.238195 
L 700.800007 275.372905 
L 712.799996 276.86735 
L 724.800002 263.088436 
L 736.800009 228.773797 
L 748.799997 214.913368 
L 760.800004 263.05309 
L 772.80001 286.393941 
L 784.799999 304.319701 
L 796.800005 288.34169 
L 808.800011 303.057556 
L 820.8 315.687108 
L 832.799989 306.526525 
L 844.799977 291.150086 
L 856.800001 280.624237 
L 857.8 282.370839 
" clip-path="url(#p433e5c9075)" style="fill: none; stroke: #0e87cc; stroke-width: 2.5; stroke-linecap: square"/>
   </g>
   <g id="line2d_19">
    <path d="M -1 351.493004 
L 4.8 354.963967 
L 16.799998 342.964559 
L 28.799995 338.281299 
L 40.800002 324.059625 
L 52.799999 329.066475 
L 64.799997 329.282797 
L 76.799999 335.133983 
L 88.800001 337.241854 
L 100.800003 342.920624 
L 112.8 344.989063 
L 124.799998 339.689789 
L 136.8 310.957849 
L 148.800002 304.040618 
L 160.799999 309.886994 
L 172.799999 338.509557 
L 184.8 353.74225 
L 196.8 347.501334 
L 208.8 356.440366 
L 220.8 344.646588 
L 232.8 342.940574 
L 244.8 330.626071 
L 256.8 332.637409 
L 268.800001 340.53598 
L 280.800001 337.939634 
L 292.799998 340.1889 
L 304.8 324.687326 
L 316.800002 323.956988 
L 328.8 325.975911 
L 340.799997 331.742088 
L 352.799999 318.709071 
L 364.800001 318.616357 
L 376.800003 312.309228 
L 388.800001 327.149136 
L 400.799998 322.789008 
L 412.800005 333.110767 
L 424.800002 319.457689 
L 436.8 311.900472 
L 448.799997 306.054423 
L 460.799995 309.694737 
L 472.800001 319.249366 
L 484.799999 324.060912 
L 496.799996 325.866149 
L 508.800003 324.421929 
L 520.8 316.385872 
L 532.799989 308.418648 
L 544.799995 293.28818 
L 556.800001 289.134537 
L 568.79999 314.87294 
L 580.799996 330.451568 
L 592.800003 334.457493 
L 604.799991 322.781949 
L 616.799998 328.534743 
L 628.800004 310.654244 
L 640.799993 294.531826 
L 652.799999 301.331826 
L 664.800006 321.468438 
L 676.799994 334.107591 
L 688.800001 316.661879 
L 700.800007 298.954986 
L 712.799996 276.206155 
L 724.800002 257.857867 
L 736.800009 284.945269 
L 748.799997 297.675678 
L 760.800004 309.898546 
L 772.80001 273.27524 
L 784.799999 281.378041 
L 796.800005 275.112533 
L 808.800011 292.596258 
L 820.8 280.486483 
L 832.799989 291.812457 
L 844.799977 276.34314 
L 856.800001 282.211499 
L 857.8 282.964816 
" clip-path="url(#p433e5c9075)" style="fill: none; stroke: #7b4fa3; stroke-width: 2.5; stroke-linecap: square"/>
   </g>
   <g id="patch_3">
    <path d="M 100.8 396 
L 100.8 36 
" style="fill: none; stroke: #000000; stroke-width: 0.8; stroke-linejoin: miter; stroke-linecap: square"/>
   </g>
   <g id="patch_4">
    <path d="M 820.8 396 
L 820.8 36 
" style="fill: none; stroke: #000000; stroke-width: 0.8; stroke-linejoin: miter; stroke-linecap: square"/>
   </g>
   <g id="patch_5">
    <path d="M 100.8 396 
L 820.8 396 
" style="fill: none; stroke: #000000; stroke-width: 0.8; stroke-linejoin: miter; stroke-linecap: square"/>
   </g>
   <g id="patch_6">
    <path d="M 100.8 36 
L 820.8 36 
" style="fill: none; stroke: #000000; stroke-width: 0.8; stroke-linejoin: miter; stroke-linecap: square"/>
   </g>
   <g id="PathCollection_1">
    <defs>
     <path id="m9f2d526948" d="M 0 1.870829 
C 0.49615 1.870829 0.972045 1.673706 1.322876 1.322876 
C 1.673706 0.972045 1.870829 0.49615 1.870829 0 
C 1.870829 -0.49615 1.673706 -0.972045 1.322876 -1.322876 
C 0.972045 -1.673706 0.49615 -1.870829 0 -1.870829 
C -0.49615 -1.870829 -0.972045 -1.673706 -1.322876 -1.322876 
C -1.673706 -0.972045 -1.870829 -0.49615 -1.870829 0 
C -1.870829 0.49615 -1.673706 0.972045 -1.322876 1.322876 
C -0.972045 1.673706 -0.49615 1.870829 0 1.870829 
z
" style="stroke: #0e87cc"/>
    </defs>
    <g clip-path="url(#p433e5c9075)">
     <use xlink:href="#m9f2d526948" x="184.8" y="378" style="fill: #0e87cc; stroke: #0e87cc"/>
     <use xlink:href="#m9f2d526948" x="412.800005" y="378" style="fill: #0e87cc; stroke: #0e87cc"/>
     <use xlink:href="#m9f2d526948" x="484.799999" y="378" style="fill: #0e87cc; stroke: #0e87cc"/>
     <use xlink:href="#m9f2d526948" x="496.799996" y="378" style="fill: #0e87cc; stroke: #0e87cc"/>
     <use xlink:href="#m9f2d526948" x="544.799995" y="378" style="fill: #0e87cc; stroke: #0e87cc"/>
     <use xlink:href="#m9f2d526948" x="568.79999" y="378" style="fill: #0e87cc; stroke: #0e87cc"/>
     <use xlink:href="#m9f2d526948" x="580.799996" y="378" style="fill: #0e87cc; stroke: #0e87cc"/>
     <use xlink:href="#m9f2d526948" x="592.800003" y="378" style="fill: #0e87cc; stroke: #0e87cc"/>
     <use xlink:href="#m9f2d526948" x="604.799991" y="378" style="fill: #0e87cc; stroke: #0e87cc"/>
     <use xlink:href="#m9f2d526948" x="616.799998" y="378" style="fill: #0e87cc; stroke: #0e87cc"/>
     <use xlink:href="#m9f2d526948" x="628.800004" y="378" style="fill: #0e87cc; stroke: #0e87cc"/>
     <use xlink:href="#m9f2d526948" x="736.800009" y="378" style="fill: #0e87cc; stroke: #0e87cc"/>
     <use xlink:href="#m9f2d526948" x="748.799997" y="378" style="fill: #0e87cc; stroke: #0e87cc"/>
     <use xlink:href="#m9f2d526948" x="892.800003" y="378" style="fill: #0e87cc; stroke: #0e87cc"/>
    </g>
   </g>
   <g id="PathCollection_2">
    <defs>
     <path id="md4c171f91f" d="M 0 1.870829 
C 0.49615 1.870829 0.972045 1.673706 1.322876 1.322876 
C 1.673706 0.972045 1.870829 0.49615 1.870829 0 
C 1.870829 -0.49615 1.673706 -0.972045 1.322876 -1.322876 
C 0.972045 -1.673706 0.49615 -1.870829 0 -1.870829 
C -0.49615 -1.870829 -0.972045 -1.673706 -1.322876 -1.322876 
C -1.673706 -0.972045 -1.870829 -0.49615 -1.870829 0 
C -1.870829 0.49615 -1.673706 0.972045 -1.322876 1.322876 
C -0.972045 1.673706 -0.49615 1.870829 0 1.870829 
z
" style="stroke: #7b4fa3"/>
    </defs>
    <g clip-path="url(#p433e5c9075)">
     <use xlink:href="#md4c171f91f" x="136.8" y="378" style="fill: #7b4fa3; stroke: #7b4fa3"/>
     <use xlink:href="#md4c171f91f" x="148.800002" y="378" style="fill: #7b4fa3; stroke: #7b4fa3"/>
    </g>
   </g>
   <g id="legend_1">
    <g id="line2d_20">
     <path d="M 114.3 55.647656 
L 129.3 55.647656 
L 144.3 55.647656 
" style="fill: none; stroke: #0e87cc; stroke-width: 2.5; stroke-linecap: square"/>
    </g>
    <g id="text_18">
     <!-- MFEF→MSC -->
     <g transform="translate(156.3 60.897656) scale(0.15 -0.15)">
      <defs>
       <path id="DejaVuSans-4d" d="M 628 4666 
L 1569 4666 
L 2759 1491 
L 3956 4666 
L 4897 4666 
L 4897 0 
L 4281 0 
L 4281 4097 
L 3078 897 
L 2444 897 
L 1241 4097 
L 1241 0 
L 628 0 
L 628 4666 
z
" transform="scale(0.015625)"/>
       <path id="DejaVuSans-46" d="M 628 4666 
L 3309 4666 
L 3309 4134 
L 1259 4134 
L 1259 2759 
L 3109 2759 
L 3109 2228 
L 1259 2228 
L 1259 0 
L 628 0 
L 628 4666 
z
" transform="scale(0.015625)"/>
       <path id="DejaVuSans-45" d="M 628 4666 
L 3578 4666 
L 3578 4134 
L 1259 4134 
L 1259 2753 
L 3481 2753 
L 3481 2222 
L 1259 2222 
L 1259 531 
L 3634 531 
L 3634 0 
L 628 0 
L 628 4666 
z
" transform="scale(0.015625)"/>
       <path id="DejaVuSans-2192" d="M 5050 2147 
L 5050 1866 
L 3822 638 
L 3447 1013 
L 4175 1741 
L 366 1741 
L 366 2272 
L 4175 2272 
L 3447 3000 
L 3822 3375 
L 5050 2147 
z
" transform="scale(0.015625)"/>
       <path id="DejaVuSans-43" d="M 4122 4306 
L 4122 3641 
Q 3803 3938 3442 4084 
Q 3081 4231 2675 4231 
Q 1875 4231 1450 3742 
Q 1025 3253 1025 2328 
Q 1025 1406 1450 917 
Q 1875 428 2675 428 
Q 3081 428 3442 575 
Q 3803 722 4122 1019 
L 4122 359 
Q 3791 134 3420 21 
Q 3050 -91 2638 -91 
Q 1578 -91 968 557 
Q 359 1206 359 2328 
Q 359 3453 968 4101 
Q 1578 4750 2638 4750 
Q 3056 4750 3426 4639 
Q 3797 4528 4122 4306 
z
" transform="scale(0.015625)"/>
      </defs>
      <use xlink:href="#DejaVuSans-4d"/>
      <use xlink:href="#DejaVuSans-46" x="86.279297"/>
      <use xlink:href="#DejaVuSans-45" x="143.798828"/>
      <use xlink:href="#DejaVuSans-46" x="206.982422"/>
      <use xlink:href="#DejaVuSans-2192" x="264.501953"/>
      <use xlink:href="#DejaVuSans-4d" x="348.291016"/>
      <use xlink:href="#DejaVuSans-53" x="434.570312"/>
      <use xlink:href="#DejaVuSans-43" x="498.046875"/>
     </g>
    </g>
    <g id="line2d_21">
     <path d="M 114.3 77.664844 
L 129.3 77.664844 
L 144.3 77.664844 
" style="fill: none; stroke: #7b4fa3; stroke-width: 2.5; stroke-linecap: square"/>
    </g>
    <g id="text_19">
     <!-- MSC→MFEF -->
     <g transform="translate(156.3 82.914844) scale(0.15 -0.15)">
      <use xlink:href="#DejaVuSans-4d"/>
      <use xlink:href="#DejaVuSans-53" x="86.279297"/>
      <use xlink:href="#DejaVuSans-43" x="149.755859"/>
      <use xlink:href="#DejaVuSans-2192" x="219.580078"/>
      <use xlink:href="#DejaVuSans-4d" x="303.369141"/>
      <use xlink:href="#DejaVuSans-46" x="389.648438"/>
      <use xlink:href="#DejaVuSans-45" x="447.167969"/>
      <use xlink:href="#DejaVuSans-46" x="510.351562"/>
     </g>
    </g>
   </g>
  </g>
 </g>
 <defs>
  <clipPath id="p433e5c9075">
   <rect x="100.8" y="36" width="720" height="360"/>
  </clipPath>
 </defs>
</svg>
