<?xml version="1.0" encoding="utf-8" standalone="no"?>
<!DOCTYPE svg PUBLIC "-//W3C//DTD SVG 1.1//EN"
  "http://www.w3.org/Graphics/SVG/1.1/DTD/svg11.dtd">
<svg xmlns:xlink="http://www.w3.org/1999/xlink" width="856.8pt" height="453.6pt" viewBox="0 0 856.8 453.6" xmlns="http://www.w3.org/2000/svg" version="1.1">
 <metadata>
  <rdf:RDF xmlns:dc="http://purl.org/dc/elements/1.1/" xmlns:cc="http://creativecommons.org/ns#" xmlns:rdf="http://www.w3.org/1999/02/22-rdf-syntax-ns#">
   <cc:Work>
    <dc:type rdf:resource="http://purl.org/dc/dcmitype/StillImage"/>
    <dc:date>2026-01-28T20:51:39.069582</dc:date>
    <dc:format>image/svg+xml</dc:format>
    <dc:creator>
     <cc:Agent>
      <dc:title>Matplotlib v3.10.5, https://matplotlib.org/</dc:title>
     </cc:Agent>
    </dc:creator>
   </cc:Work>
  </rdf:RDF>
 </metadata>
 <defs>
  <style type="text/css">*{stroke-linejoin: round; stroke-linecap: butt}</style>
 </defs>
 <g id="figure_1">
  <g id="patch_1">
   <path d="M 0 453.6 
L 856.8 453.6 
L 856.8 0 
L 0 0 
z
" style="fill: #ffffff"/>
  </g>
  <g id="axes_1">
   <g id="patch_2">
    <path d="M 100.8 396 
L 820.8 396 
L 820.8 36 
L 100.8 36 
z
" style="fill: #ffffff"/>
   </g>
   <g id="FillBetweenPolyCollection_1">
    <path d="M -43.199999 237.836976 
L -43.199999 360.311137 
L -31.200001 346.48643 
L -19.199995 345.734977 
L -7.199997 344.528096 
L 4.8 341.588323 
L 16.799998 342.178759 
L 28.799995 340.60104 
L 40.800002 323.653614 
L 52.799999 326.331746 
L 64.799997 335.649594 
L 76.799999 379.636364 
L 88.800001 373.349227 
L 100.800003 360.735419 
L 112.8 339.233042 
L 124.799998 344.935142 
L 136.8 350.011641 
L 148.800002 344.811517 
L 160.799999 345.694311 
L 172.799999 335.80895 
L 184.8 334.57514 
L 196.8 340.145771 
L 208.8 330.607437 
L 220.8 345.143419 
L 232.8 339.826809 
L 244.8 356.980595 
L 256.8 355.169301 
L 268.800001 343.527867 
L 280.800001 339.24998 
L 292.799998 327.753245 
L 304.8 341.69291 
L 316.800002 337.186666 
L 328.8 342.130083 
L 340.799997 326.84141 
L 352.799999 329.092099 
L 364.800001 331.974122 
L 376.800003 350.016522 
L 388.800001 355.716872 
L 400.799998 343.212641 
L 412.800005 335.550116 
L 424.800002 320.542132 
L 436.8 319.136917 
L 448.799997 314.541159 
L 460.799995 308.30033 
L 472.800001 284.893839 
L 484.799999 284.584126 
L 496.799996 293.763482 
L 508.800003 306.364047 
L 520.8 279.035798 
L 532.799989 261.53153 
L 544.799995 256.959963 
L 556.800001 249.621849 
L 568.79999 254.01263 
L 580.799996 246.465164 
L 592.800003 271.110503 
L 604.799991 242.741047 
L 616.799998 239.671167 
L 628.800004 214.793888 
L 640.799993 248.420016 
L 652.799999 270.413873 
L 664.800006 293.506304 
L 676.799994 297.123804 
L 688.800001 288.42452 
L 700.800007 279.356902 
L 712.799996 276.099217 
L 724.800002 284.221223 
L 736.800009 303.39672 
L 748.799997 305.215073 
L 760.800004 308.707699 
L 772.80001 299.348864 
L 784.799999 298.936768 
L 796.800005 317.568724 
L 808.800011 304.301949 
L 820.8 317.471217 
L 832.799989 280.269669 
L 844.799977 295.945486 
L 856.800001 301.226714 
L 868.800026 335.685783 
L 880.800014 340.782764 
L 892.800003 340.783296 
L 904.799991 333.115048 
L 916.79998 339.597529 
L 928.800004 343.644087 
L 940.800029 346.874903 
L 952.800017 350.34579 
L 964.800006 345.212776 
L 976.799994 352.174278 
L 988.799983 341.671085 
L 1000.799971 344.265189 
L 1012.799996 337.622522 
L 1024.80002 342.868065 
L 1036.800009 349.781561 
L 1048.799997 350.013793 
L 1060.799986 350.360305 
L 1072.799974 339.950272 
L 1084.799999 334.922436 
L 1096.800023 338.762923 
L 1108.800011 347.18111 
L 1120.8 355.572419 
L 1132.799989 350.570149 
L 1144.799977 356.184098 
L 1156.800001 354.957292 
L 1168.800026 365.368983 
L 1168.800026 316.079162 
L 1168.800026 316.079162 
L 1156.800001 306.851272 
L 1144.799977 285.776126 
L 1132.799989 274.408103 
L 1120.8 268.128729 
L 1108.800011 292.13881 
L 1096.800023 289.824978 
L 1084.799999 284.230589 
L 1072.799974 280.143378 
L 1060.799986 257.659255 
L 1048.799997 252.348745 
L 1036.800009 258.221921 
L 1024.80002 263.574533 
L 1012.799996 269.775933 
L 1000.799971 276.575058 
L 988.799983 268.829993 
L 976.799994 272.293562 
L 964.800006 253.450854 
L 952.800017 279.314458 
L 940.800029 296.21139 
L 928.800004 271.526809 
L 916.79998 264.96714 
L 904.799991 247.588259 
L 892.800003 282.804823 
L 880.800014 269.352116 
L 868.800026 244.399454 
L 856.800001 185.366485 
L 844.799977 186.417784 
L 832.799989 172.834386 
L 820.8 226.554186 
L 808.800011 186.668333 
L 796.800005 159.972678 
L 784.799999 106.449796 
L 772.80001 102.782493 
L 760.800004 150.316534 
L 748.799997 175.67808 
L 736.800009 180.706109 
L 724.800002 139.027014 
L 712.799996 94.306376 
L 700.800007 72.37086 
L 688.800001 99.806212 
L 676.799994 134.93989 
L 664.800006 190.125291 
L 652.799999 135.176674 
L 640.799993 105.312845 
L 628.800004 52.363636 
L 616.799998 115.984835 
L 604.799991 129.152808 
L 592.800003 155.773068 
L 580.799996 121.749951 
L 568.79999 114.644399 
L 556.800001 103.654688 
L 544.799995 129.732706 
L 532.799989 123.885584 
L 520.8 155.885044 
L 508.800003 182.693861 
L 496.799996 189.75256 
L 484.799999 160.903024 
L 472.800001 166.502174 
L 460.799995 202.300024 
L 448.799997 244.804298 
L 436.8 255.69913 
L 424.800002 249.243885 
L 412.800005 222.547222 
L 400.799998 226.187545 
L 388.800001 264.651458 
L 376.800003 260.760949 
L 364.800001 241.904643 
L 352.799999 244.014886 
L 340.799997 263.040387 
L 328.8 288.615729 
L 316.800002 281.674923 
L 304.8 287.102945 
L 292.799998 259.249111 
L 280.800001 245.417743 
L 268.800001 262.177028 
L 256.8 276.169177 
L 244.8 284.32549 
L 232.8 266.012653 
L 220.8 258.993241 
L 208.8 262.835614 
L 196.8 271.615436 
L 184.8 257.160885 
L 172.799999 238.762278 
L 160.799999 250.810335 
L 148.800002 279.711469 
L 136.8 303.519954 
L 124.799998 286.825559 
L 112.8 276.875536 
L 100.800003 265.720528 
L 88.800001 265.16529 
L 76.799999 278.565691 
L 64.799997 262.466635 
L 52.799999 287.658797 
L 40.800002 271.834981 
L 28.799995 226.563623 
L 16.799998 193.803321 
L 4.8 205.019401 
L -7.199997 274.536834 
L -19.199995 276.924168 
L -31.200001 260.90586 
L -43.199999 237.836976 
z
" clip-path="url(#p997622fc47)" style="fill: #0e87cc; fill-opacity: 0.25"/>
   </g>
   <g id="FillBetweenPolyCollection_2">
    <path d="M -43.199999 162.971597 
L -43.199999 361.578525 
L -31.200001 355.386311 
L -19.199995 349.800022 
L -7.199997 343.763483 
L 4.8 352.698817 
L 16.799998 361.721415 
L 28.799995 362.244165 
L 40.800002 349.331893 
L 52.799999 346.897944 
L 64.799997 352.157083 
L 76.799999 357.86939 
L 88.800001 347.536844 
L 100.800003 347.188283 
L 112.8 345.544457 
L 124.799998 350.043873 
L 136.8 344.776381 
L 148.800002 355.103642 
L 160.799999 354.236451 
L 172.799999 366.617777 
L 184.8 350.726732 
L 196.8 344.733983 
L 208.8 340.531497 
L 220.8 353.356984 
L 232.8 355.584134 
L 244.8 349.602999 
L 256.8 348.049032 
L 268.800001 366.042549 
L 280.800001 365.202315 
L 292.799998 367.768332 
L 304.8 359.324228 
L 316.800002 357.064224 
L 328.8 353.089372 
L 340.799997 352.2768 
L 352.799999 364.290313 
L 364.800001 349.324269 
L 376.800003 354.307008 
L 388.800001 345.467112 
L 400.799998 350.429487 
L 412.800005 341.025003 
L 424.800002 346.654365 
L 436.8 349.728381 
L 448.799997 348.401641 
L 460.799995 322.298396 
L 472.800001 322.132496 
L 484.799999 315.809137 
L 496.799996 334.475394 
L 508.800003 323.748 
L 520.8 320.243102 
L 532.799989 300.781942 
L 544.799995 294.591895 
L 556.800001 296.718533 
L 568.79999 303.855476 
L 580.799996 282.814563 
L 592.800003 267.596021 
L 604.799991 272.888762 
L 616.799998 317.909399 
L 628.800004 322.402515 
L 640.799993 318.622745 
L 652.799999 312.039712 
L 664.800006 324.450948 
L 676.799994 306.914405 
L 688.800001 310.496803 
L 700.800007 315.836468 
L 712.799996 335.238442 
L 724.800002 312.366995 
L 736.800009 303.958699 
L 748.799997 300.980712 
L 760.800004 302.485735 
L 772.80001 301.474428 
L 784.799999 313.6334 
L 796.800005 332.123503 
L 808.800011 353.257896 
L 820.8 354.741298 
L 832.799989 349.172071 
L 844.799977 342.4029 
L 856.800001 335.000773 
L 868.800026 325.96358 
L 880.800014 307.894318 
L 892.800003 301.823824 
L 904.799991 323.259004 
L 916.79998 340.137593 
L 928.800004 337.43896 
L 940.800029 337.322311 
L 952.800017 338.956751 
L 964.800006 370.864858 
L 976.799994 343.442944 
L 988.799983 346.602715 
L 1000.799971 329.198083 
L 1012.799996 347.448763 
L 1024.80002 346.519147 
L 1036.800009 351.088853 
L 1048.799997 344.637171 
L 1060.799986 339.241907 
L 1072.799974 344.63966 
L 1084.799999 352.003724 
L 1096.800023 355.437274 
L 1108.800011 346.233341 
L 1120.8 352.460147 
L 1132.799989 347.894145 
L 1144.799977 344.389703 
L 1156.800001 340.328776 
L 1168.800026 341.889293 
L 1168.800026 301.922285 
L 1168.800026 301.922285 
L 1156.800001 273.296051 
L 1144.799977 273.809447 
L 1132.799989 280.802367 
L 1120.8 316.460466 
L 1108.800011 299.623455 
L 1096.800023 306.955104 
L 1084.799999 288.647547 
L 1072.799974 285.134571 
L 1060.799986 273.333354 
L 1048.799997 287.200148 
L 1036.800009 291.578479 
L 1024.80002 299.20246 
L 1012.799996 291.038317 
L 1000.799971 283.910226 
L 988.799983 294.745254 
L 976.799994 278.526447 
L 964.800006 307.996675 
L 952.800017 253.834454 
L 940.800029 271.168503 
L 928.800004 258.196366 
L 916.79998 264.256568 
L 904.799991 240.779006 
L 892.800003 211.88342 
L 880.800014 220.539286 
L 868.800026 244.581954 
L 856.800001 257.179349 
L 844.799977 265.714091 
L 832.799989 245.859988 
L 820.8 253.112153 
L 808.800011 256.127622 
L 796.800005 254.567469 
L 784.799999 242.843109 
L 772.80001 216.526233 
L 760.800004 194.236739 
L 748.799997 181.010799 
L 736.800009 201.561745 
L 724.800002 172.269099 
L 712.799996 191.870613 
L 700.800007 145.633335 
L 688.800001 200.145639 
L 676.799994 173.955096 
L 664.800006 195.891989 
L 652.799999 145.127051 
L 640.799993 137.801696 
L 628.800004 151.144807 
L 616.799998 180.044852 
L 604.799991 167.813885 
L 592.800003 142.125413 
L 580.799996 154.692444 
L 568.79999 173.705231 
L 556.800001 199.032028 
L 544.799995 207.998549 
L 532.799989 227.448589 
L 520.8 246.52318 
L 508.800003 246.47565 
L 496.799996 261.596591 
L 484.799999 247.955001 
L 472.800001 265.078829 
L 460.799995 274.623706 
L 448.799997 276.864733 
L 436.8 271.750861 
L 424.800002 251.81106 
L 412.800005 271.903554 
L 400.799998 267.993611 
L 388.800001 274.782625 
L 376.800003 286.907904 
L 364.800001 305.601391 
L 352.799999 317.779346 
L 340.799997 295.265487 
L 328.8 289.636708 
L 316.800002 296.693242 
L 304.8 295.515527 
L 292.799998 274.986372 
L 280.800001 238.772644 
L 268.800001 250.448686 
L 256.8 262.664364 
L 244.8 298.945122 
L 232.8 300.687816 
L 220.8 291.324562 
L 208.8 269.933646 
L 196.8 267.197767 
L 184.8 276.338555 
L 172.799999 261.568461 
L 160.799999 258.603662 
L 148.800002 268.768288 
L 136.8 286.584477 
L 124.799998 289.684562 
L 112.8 282.116538 
L 100.800003 293.368871 
L 88.800001 294.900183 
L 76.799999 294.510673 
L 64.799997 283.696543 
L 52.799999 257.486169 
L 40.800002 267.635912 
L 28.799995 281.735422 
L 16.799998 301.591655 
L 4.8 298.166656 
L -7.199997 275.990219 
L -19.199995 236.082576 
L -31.200001 204.955281 
L -43.199999 162.971597 
z
" clip-path="url(#p997622fc47)" style="fill: #7b4fa3; fill-opacity: 0.25"/>
   </g>
   <g id="matplotlib.axis_1">
    <g id="xtick_1">
     <g id="line2d_1">
      <defs>
       <path id="mea1240d1c8" d="M 0 0 
L 0 3.5 
" style="stroke: #000000; stroke-width: 0.8"/>
      </defs>
      <g>
       <use xlink:href="#mea1240d1c8" x="100.8" y="396" style="stroke: #000000; stroke-width: 0.8"/>
      </g>
     </g>
     <g id="text_1">
      <!-- −100 -->
      <g transform="translate(78.82625 415.1575) scale(0.16 -0.16)">
       <defs>
        <path id="DejaVuSans-2212" d="M 678 2272 
L 4684 2272 
L 4684 1741 
L 678 1741 
L 678 2272 
z
" transform="scale(0.015625)"/>
        <path id="DejaVuSans-31" d="M 794 531 
L 1825 531 
L 1825 4091 
L 703 3866 
L 703 4441 
L 1819 4666 
L 2450 4666 
L 2450 531 
L 3481 531 
L 3481 0 
L 794 0 
L 794 531 
z
" transform="scale(0.015625)"/>
        <path id="DejaVuSans-30" d="M 2034 4250 
Q 1547 4250 1301 3770 
Q 1056 3291 1056 2328 
Q 1056 1369 1301 889 
Q 1547 409 2034 409 
Q 2525 409 2770 889 
Q 3016 1369 3016 2328 
Q 3016 3291 2770 3770 
Q 2525 4250 2034 4250 
z
M 2034 4750 
Q 2819 4750 3233 4129 
Q 3647 3509 3647 2328 
Q 3647 1150 3233 529 
Q 2819 -91 2034 -91 
Q 1250 -91 836 529 
Q 422 1150 422 2328 
Q 422 3509 836 4129 
Q 1250 4750 2034 4750 
z
" transform="scale(0.015625)"/>
       </defs>
       <use xlink:href="#DejaVuSans-2212"/>
       <use xlink:href="#DejaVuSans-31" transform="translate(83.789062 0)"/>
       <use xlink:href="#DejaVuSans-30" transform="translate(147.412109 0)"/>
       <use xlink:href="#DejaVuSans-30" transform="translate(211.035156 0)"/>
      </g>
     </g>
    </g>
    <g id="xtick_2">
     <g id="line2d_2">
      <g>
       <use xlink:href="#mea1240d1c8" x="220.8" y="396" style="stroke: #000000; stroke-width: 0.8"/>
      </g>
     </g>
     <g id="text_2">
      <!-- 0 -->
      <g transform="translate(215.71 415.1575) scale(0.16 -0.16)">
       <use xlink:href="#DejaVuSans-30"/>
      </g>
     </g>
    </g>
    <g id="xtick_3">
     <g id="line2d_3">
      <g>
       <use xlink:href="#mea1240d1c8" x="340.8" y="396" style="stroke: #000000; stroke-width: 0.8"/>
      </g>
     </g>
     <g id="text_3">
      <!-- 100 -->
      <g transform="translate(325.53 415.1575) scale(0.16 -0.16)">
       <use xlink:href="#DejaVuSans-31"/>
       <use xlink:href="#DejaVuSans-30" transform="translate(63.623047 0)"/>
       <use xlink:href="#DejaVuSans-30" transform="translate(127.246094 0)"/>
      </g>
     </g>
    </g>
    <g id="xtick_4">
     <g id="line2d_4">
      <g>
       <use xlink:href="#mea1240d1c8" x="460.8" y="396" style="stroke: #000000; stroke-width: 0.8"/>
      </g>
     </g>
     <g id="text_4">
      <!-- 200 -->
      <g transform="translate(445.53 415.1575) scale(0.16 -0.16)">
       <defs>
        <path id="DejaVuSans-32" d="M 1228 531 
L 3431 531 
L 3431 0 
L 469 0 
L 469 531 
Q 828 903 1448 1529 
Q 2069 2156 2228 2338 
Q 2531 2678 2651 2914 
Q 2772 3150 2772 3378 
Q 2772 3750 2511 3984 
Q 2250 4219 1831 4219 
Q 1534 4219 1204 4116 
Q 875 4013 500 3803 
L 500 4441 
Q 881 4594 1212 4672 
Q 1544 4750 1819 4750 
Q 2544 4750 2975 4387 
Q 3406 4025 3406 3419 
Q 3406 3131 3298 2873 
Q 3191 2616 2906 2266 
Q 2828 2175 2409 1742 
Q 1991 1309 1228 531 
z
" transform="scale(0.015625)"/>
       </defs>
       <use xlink:href="#DejaVuSans-32"/>
       <use xlink:href="#DejaVuSans-30" transform="translate(63.623047 0)"/>
       <use xlink:href="#DejaVuSans-30" transform="translate(127.246094 0)"/>
      </g>
     </g>
    </g>
    <g id="xtick_5">
     <g id="line2d_5">
      <g>
       <use xlink:href="#mea1240d1c8" x="580.8" y="396" style="stroke: #000000; stroke-width: 0.8"/>
      </g>
     </g>
     <g id="text_5">
      <!-- 300 -->
      <g transform="translate(565.53 415.1575) scale(0.16 -0.16)">
       <defs>
        <path id="DejaVuSans-33" d="M 2597 2516 
Q 3050 2419 3304 2112 
Q 3559 1806 3559 1356 
Q 3559 666 3084 287 
Q 2609 -91 1734 -91 
Q 1441 -91 1130 -33 
Q 819 25 488 141 
L 488 750 
Q 750 597 1062 519 
Q 1375 441 1716 441 
Q 2309 441 2620 675 
Q 2931 909 2931 1356 
Q 2931 1769 2642 2001 
Q 2353 2234 1838 2234 
L 1294 2234 
L 1294 2753 
L 1863 2753 
Q 2328 2753 2575 2939 
Q 2822 3125 2822 3475 
Q 2822 3834 2567 4026 
Q 2313 4219 1838 4219 
Q 1578 4219 1281 4162 
Q 984 4106 628 3988 
L 628 4550 
Q 988 4650 1302 4700 
Q 1616 4750 1894 4750 
Q 2613 4750 3031 4423 
Q 3450 4097 3450 3541 
Q 3450 3153 3228 2886 
Q 3006 2619 2597 2516 
z
" transform="scale(0.015625)"/>
       </defs>
       <use xlink:href="#DejaVuSans-33"/>
       <use xlink:href="#DejaVuSans-30" transform="translate(63.623047 0)"/>
       <use xlink:href="#DejaVuSans-30" transform="translate(127.246094 0)"/>
      </g>
     </g>
    </g>
    <g id="xtick_6">
     <g id="line2d_6">
      <g>
       <use xlink:href="#mea1240d1c8" x="700.8" y="396" style="stroke: #000000; stroke-width: 0.8"/>
      </g>
     </g>
     <g id="text_6">
      <!-- 400 -->
      <g transform="translate(685.53 415.1575) scale(0.16 -0.16)">
       <defs>
        <path id="DejaVuSans-34" d="M 2419 4116 
L 825 1625 
L 2419 1625 
L 2419 4116 
z
M 2253 4666 
L 3047 4666 
L 3047 1625 
L 3713 1625 
L 3713 1100 
L 3047 1100 
L 3047 0 
L 2419 0 
L 2419 1100 
L 313 1100 
L 313 1709 
L 2253 4666 
z
" transform="scale(0.015625)"/>
       </defs>
       <use xlink:href="#DejaVuSans-34"/>
       <use xlink:href="#DejaVuSans-30" transform="translate(63.623047 0)"/>
       <use xlink:href="#DejaVuSans-30" transform="translate(127.246094 0)"/>
      </g>
     </g>
    </g>
    <g id="xtick_7">
     <g id="line2d_7">
      <g>
       <use xlink:href="#mea1240d1c8" x="820.8" y="396" style="stroke: #000000; stroke-width: 0.8"/>
      </g>
     </g>
     <g id="text_7">
      <!-- 500 -->
      <g transform="translate(805.53 415.1575) scale(0.16 -0.16)">
       <defs>
        <path id="DejaVuSans-35" d="M 691 4666 
L 3169 4666 
L 3169 4134 
L 1269 4134 
L 1269 2991 
Q 1406 3038 1543 3061 
Q 1681 3084 1819 3084 
Q 2600 3084 3056 2656 
Q 3513 2228 3513 1497 
Q 3513 744 3044 326 
Q 2575 -91 1722 -91 
Q 1428 -91 1123 -41 
Q 819 9 494 109 
L 494 744 
Q 775 591 1075 516 
Q 1375 441 1709 441 
Q 2250 441 2565 725 
Q 2881 1009 2881 1497 
Q 2881 1984 2565 2268 
Q 2250 2553 1709 2553 
Q 1456 2553 1204 2497 
Q 953 2441 691 2322 
L 691 4666 
z
" transform="scale(0.015625)"/>
       </defs>
       <use xlink:href="#DejaVuSans-35"/>
       <use xlink:href="#DejaVuSans-30" transform="translate(63.623047 0)"/>
       <use xlink:href="#DejaVuSans-30" transform="translate(127.246094 0)"/>
      </g>
     </g>
    </g>
    <g id="text_8">
     <!-- Time from Stimulus Onset (ms) -->
     <g transform="translate(320.273438 436.162187) scale(0.18 -0.18)">
      <defs>
       <path id="DejaVuSans-54" d="M -19 4666 
L 3928 4666 
L 3928 4134 
L 2272 4134 
L 2272 0 
L 1638 0 
L 1638 4134 
L -19 4134 
L -19 4666 
z
" transform="scale(0.015625)"/>
       <path id="DejaVuSans-69" d="M 603 3500 
L 1178 3500 
L 1178 0 
L 603 0 
L 603 3500 
z
M 603 4863 
L 1178 4863 
L 1178 4134 
L 603 4134 
L 603 4863 
z
" transform="scale(0.015625)"/>
       <path id="DejaVuSans-6d" d="M 3328 2828 
Q 3544 3216 3844 3400 
Q 4144 3584 4550 3584 
Q 5097 3584 5394 3201 
Q 5691 2819 5691 2113 
L 5691 0 
L 5113 0 
L 5113 2094 
Q 5113 2597 4934 2840 
Q 4756 3084 4391 3084 
Q 3944 3084 3684 2787 
Q 3425 2491 3425 1978 
L 3425 0 
L 2847 0 
L 2847 2094 
Q 2847 2600 2669 2842 
Q 2491 3084 2119 3084 
Q 1678 3084 1418 2786 
Q 1159 2488 1159 1978 
L 1159 0 
L 581 0 
L 581 3500 
L 1159 3500 
L 1159 2956 
Q 1356 3278 1631 3431 
Q 1906 3584 2284 3584 
Q 2666 3584 2933 3390 
Q 3200 3197 3328 2828 
z
" transform="scale(0.015625)"/>
       <path id="DejaVuSans-65" d="M 3597 1894 
L 3597 1613 
L 953 1613 
Q 991 1019 1311 708 
Q 1631 397 2203 397 
Q 2534 397 2845 478 
Q 3156 559 3463 722 
L 3463 178 
Q 3153 47 2828 -22 
Q 2503 -91 2169 -91 
Q 1331 -91 842 396 
Q 353 884 353 1716 
Q 353 2575 817 3079 
Q 1281 3584 2069 3584 
Q 2775 3584 3186 3129 
Q 3597 2675 3597 1894 
z
M 3022 2063 
Q 3016 2534 2758 2815 
Q 2500 3097 2075 3097 
Q 1594 3097 1305 2825 
Q 1016 2553 972 2059 
L 3022 2063 
z
" transform="scale(0.015625)"/>
       <path id="DejaVuSans-20" transform="scale(0.015625)"/>
       <path id="DejaVuSans-66" d="M 2375 4863 
L 2375 4384 
L 1825 4384 
Q 1516 4384 1395 4259 
Q 1275 4134 1275 3809 
L 1275 3500 
L 2222 3500 
L 2222 3053 
L 1275 3053 
L 1275 0 
L 697 0 
L 697 3053 
L 147 3053 
L 147 3500 
L 697 3500 
L 697 3744 
Q 697 4328 969 4595 
Q 1241 4863 1831 4863 
L 2375 4863 
z
" transform="scale(0.015625)"/>
       <path id="DejaVuSans-72" d="M 2631 2963 
Q 2534 3019 2420 3045 
Q 2306 3072 2169 3072 
Q 1681 3072 1420 2755 
Q 1159 2438 1159 1844 
L 1159 0 
L 581 0 
L 581 3500 
L 1159 3500 
L 1159 2956 
Q 1341 3275 1631 3429 
Q 1922 3584 2338 3584 
Q 2397 3584 2469 3576 
Q 2541 3569 2628 3553 
L 2631 2963 
z
" transform="scale(0.015625)"/>
       <path id="DejaVuSans-6f" d="M 1959 3097 
Q 1497 3097 1228 2736 
Q 959 2375 959 1747 
Q 959 1119 1226 758 
Q 1494 397 1959 397 
Q 2419 397 2687 759 
Q 2956 1122 2956 1747 
Q 2956 2369 2687 2733 
Q 2419 3097 1959 3097 
z
M 1959 3584 
Q 2709 3584 3137 3096 
Q 3566 2609 3566 1747 
Q 3566 888 3137 398 
Q 2709 -91 1959 -91 
Q 1206 -91 779 398 
Q 353 888 353 1747 
Q 353 2609 779 3096 
Q 1206 3584 1959 3584 
z
" transform="scale(0.015625)"/>
       <path id="DejaVuSans-53" d="M 3425 4513 
L 3425 3897 
Q 3066 4069 2747 4153 
Q 2428 4238 2131 4238 
Q 1616 4238 1336 4038 
Q 1056 3838 1056 3469 
Q 1056 3159 1242 3001 
Q 1428 2844 1947 2747 
L 2328 2669 
Q 3034 2534 3370 2195 
Q 3706 1856 3706 1288 
Q 3706 609 3251 259 
Q 2797 -91 1919 -91 
Q 1588 -91 1214 -16 
Q 841 59 441 206 
L 441 856 
Q 825 641 1194 531 
Q 1563 422 1919 422 
Q 2459 422 2753 634 
Q 3047 847 3047 1241 
Q 3047 1584 2836 1778 
Q 2625 1972 2144 2069 
L 1759 2144 
Q 1053 2284 737 2584 
Q 422 2884 422 3419 
Q 422 4038 858 4394 
Q 1294 4750 2059 4750 
Q 2388 4750 2728 4690 
Q 3069 4631 3425 4513 
z
" transform="scale(0.015625)"/>
       <path id="DejaVuSans-74" d="M 1172 4494 
L 1172 3500 
L 2356 3500 
L 2356 3053 
L 1172 3053 
L 1172 1153 
Q 1172 725 1289 603 
Q 1406 481 1766 481 
L 2356 481 
L 2356 0 
L 1766 0 
Q 1100 0 847 248 
Q 594 497 594 1153 
L 594 3053 
L 172 3053 
L 172 3500 
L 594 3500 
L 594 4494 
L 1172 4494 
z
" transform="scale(0.015625)"/>
       <path id="DejaVuSans-75" d="M 544 1381 
L 544 3500 
L 1119 3500 
L 1119 1403 
Q 1119 906 1312 657 
Q 1506 409 1894 409 
Q 2359 409 2629 706 
Q 2900 1003 2900 1516 
L 2900 3500 
L 3475 3500 
L 3475 0 
L 2900 0 
L 2900 538 
Q 2691 219 2414 64 
Q 2138 -91 1772 -91 
Q 1169 -91 856 284 
Q 544 659 544 1381 
z
M 1991 3584 
L 1991 3584 
z
" transform="scale(0.015625)"/>
       <path id="DejaVuSans-6c" d="M 603 4863 
L 1178 4863 
L 1178 0 
L 603 0 
L 603 4863 
z
" transform="scale(0.015625)"/>
       <path id="DejaVuSans-73" d="M 2834 3397 
L 2834 2853 
Q 2591 2978 2328 3040 
Q 2066 3103 1784 3103 
Q 1356 3103 1142 2972 
Q 928 2841 928 2578 
Q 928 2378 1081 2264 
Q 1234 2150 1697 2047 
L 1894 2003 
Q 2506 1872 2764 1633 
Q 3022 1394 3022 966 
Q 3022 478 2636 193 
Q 2250 -91 1575 -91 
Q 1294 -91 989 -36 
Q 684 19 347 128 
L 347 722 
Q 666 556 975 473 
Q 1284 391 1588 391 
Q 1994 391 2212 530 
Q 2431 669 2431 922 
Q 2431 1156 2273 1281 
Q 2116 1406 1581 1522 
L 1381 1569 
Q 847 1681 609 1914 
Q 372 2147 372 2553 
Q 372 3047 722 3315 
Q 1072 3584 1716 3584 
Q 2034 3584 2315 3537 
Q 2597 3491 2834 3397 
z
" transform="scale(0.015625)"/>
       <path id="DejaVuSans-4f" d="M 2522 4238 
Q 1834 4238 1429 3725 
Q 1025 3213 1025 2328 
Q 1025 1447 1429 934 
Q 1834 422 2522 422 
Q 3209 422 3611 934 
Q 4013 1447 4013 2328 
Q 4013 3213 3611 3725 
Q 3209 4238 2522 4238 
z
M 2522 4750 
Q 3503 4750 4090 4092 
Q 4678 3434 4678 2328 
Q 4678 1225 4090 567 
Q 3503 -91 2522 -91 
Q 1538 -91 948 565 
Q 359 1222 359 2328 
Q 359 3434 948 4092 
Q 1538 4750 2522 4750 
z
" transform="scale(0.015625)"/>
       <path id="DejaVuSans-6e" d="M 3513 2113 
L 3513 0 
L 2938 0 
L 2938 2094 
Q 2938 2591 2744 2837 
Q 2550 3084 2163 3084 
Q 1697 3084 1428 2787 
Q 1159 2491 1159 1978 
L 1159 0 
L 581 0 
L 581 3500 
L 1159 3500 
L 1159 2956 
Q 1366 3272 1645 3428 
Q 1925 3584 2291 3584 
Q 2894 3584 3203 3211 
Q 3513 2838 3513 2113 
z
" transform="scale(0.015625)"/>
       <path id="DejaVuSans-28" d="M 1984 4856 
Q 1566 4138 1362 3434 
Q 1159 2731 1159 2009 
Q 1159 1288 1364 580 
Q 1569 -128 1984 -844 
L 1484 -844 
Q 1016 -109 783 600 
Q 550 1309 550 2009 
Q 550 2706 781 3412 
Q 1013 4119 1484 4856 
L 1984 4856 
z
" transform="scale(0.015625)"/>
       <path id="DejaVuSans-29" d="M 513 4856 
L 1013 4856 
Q 1481 4119 1714 3412 
Q 1947 2706 1947 2009 
Q 1947 1309 1714 600 
Q 1481 -109 1013 -844 
L 513 -844 
Q 928 -128 1133 580 
Q 1338 1288 1338 2009 
Q 1338 2731 1133 3434 
Q 928 4138 513 4856 
z
" transform="scale(0.015625)"/>
      </defs>
      <use xlink:href="#DejaVuSans-54"/>
      <use xlink:href="#DejaVuSans-69" transform="translate(57.958984 0)"/>
      <use xlink:href="#DejaVuSans-6d" transform="translate(85.742188 0)"/>
      <use xlink:href="#DejaVuSans-65" transform="translate(183.154297 0)"/>
      <use xlink:href="#DejaVuSans-20" transform="translate(244.677734 0)"/>
      <use xlink:href="#DejaVuSans-66" transform="translate(276.464844 0)"/>
      <use xlink:href="#DejaVuSans-72" transform="translate(311.669922 0)"/>
      <use xlink:href="#DejaVuSans-6f" transform="translate(350.533203 0)"/>
      <use xlink:href="#DejaVuSans-6d" transform="translate(411.714844 0)"/>
      <use xlink:href="#DejaVuSans-20" transform="translate(509.126953 0)"/>
      <use xlink:href="#DejaVuSans-53" transform="translate(540.914062 0)"/>
      <use xlink:href="#DejaVuSans-74" transform="translate(604.390625 0)"/>
      <use xlink:href="#DejaVuSans-69" transform="translate(643.599609 0)"/>
      <use xlink:href="#DejaVuSans-6d" transform="translate(671.382812 0)"/>
      <use xlink:href="#DejaVuSans-75" transform="translate(768.794922 0)"/>
      <use xlink:href="#DejaVuSans-6c" transform="translate(832.173828 0)"/>
      <use xlink:href="#DejaVuSans-75" transform="translate(859.957031 0)"/>
      <use xlink:href="#DejaVuSans-73" transform="translate(923.335938 0)"/>
      <use xlink:href="#DejaVuSans-20" transform="translate(975.435547 0)"/>
      <use xlink:href="#DejaVuSans-4f" transform="translate(1007.222656 0)"/>
      <use xlink:href="#DejaVuSans-6e" transform="translate(1085.933594 0)"/>
      <use xlink:href="#DejaVuSans-73" transform="translate(1149.3125 0)"/>
      <use xlink:href="#DejaVuSans-65" transform="translate(1201.412109 0)"/>
      <use xlink:href="#DejaVuSans-74" transform="translate(1262.935547 0)"/>
      <use xlink:href="#DejaVuSans-20" transform="translate(1302.144531 0)"/>
      <use xlink:href="#DejaVuSans-28" transform="translate(1333.931641 0)"/>
      <use xlink:href="#DejaVuSans-6d" transform="translate(1372.945312 0)"/>
      <use xlink:href="#DejaVuSans-73" transform="translate(1470.357422 0)"/>
      <use xlink:href="#DejaVuSans-29" transform="translate(1522.457031 0)"/>
     </g>
    </g>
   </g>
   <g id="matplotlib.axis_2">
    <g id="ytick_1">
     <g id="line2d_8">
      <defs>
       <path id="mc200d4a108" d="M 0 0 
L -3.5 0 
" style="stroke: #000000; stroke-width: 0.8"/>
      </defs>
      <g>
       <use xlink:href="#mc200d4a108" x="100.8" y="368.086229" style="stroke: #000000; stroke-width: 0.8"/>
      </g>
     </g>
     <g id="text_9">
      <!-- −0.005 -->
      <g transform="translate(34.5875 374.164979) scale(0.16 -0.16)">
       <defs>
        <path id="DejaVuSans-2e" d="M 684 794 
L 1344 794 
L 1344 0 
L 684 0 
L 684 794 
z
" transform="scale(0.015625)"/>
       </defs>
       <use xlink:href="#DejaVuSans-2212"/>
       <use xlink:href="#DejaVuSans-30" transform="translate(83.789062 0)"/>
       <use xlink:href="#DejaVuSans-2e" transform="translate(147.412109 0)"/>
       <use xlink:href="#DejaVuSans-30" transform="translate(179.199219 0)"/>
       <use xlink:href="#DejaVuSans-30" transform="translate(242.822266 0)"/>
       <use xlink:href="#DejaVuSans-35" transform="translate(306.445312 0)"/>
      </g>
     </g>
    </g>
    <g id="ytick_2">
     <g id="line2d_9">
      <g>
       <use xlink:href="#mc200d4a108" x="100.8" y="315.069727" style="stroke: #000000; stroke-width: 0.8"/>
      </g>
     </g>
     <g id="text_10">
      <!-- 0.000 -->
      <g transform="translate(47.995 321.148477) scale(0.16 -0.16)">
       <use xlink:href="#DejaVuSans-30"/>
       <use xlink:href="#DejaVuSans-2e" transform="translate(63.623047 0)"/>
       <use xlink:href="#DejaVuSans-30" transform="translate(95.410156 0)"/>
       <use xlink:href="#DejaVuSans-30" transform="translate(159.033203 0)"/>
       <use xlink:href="#DejaVuSans-30" transform="translate(222.65625 0)"/>
      </g>
     </g>
    </g>
    <g id="ytick_3">
     <g id="line2d_10">
      <g>
       <use xlink:href="#mc200d4a108" x="100.8" y="262.053225" style="stroke: #000000; stroke-width: 0.8"/>
      </g>
     </g>
     <g id="text_11">
      <!-- 0.005 -->
      <g transform="translate(47.995 268.131975) scale(0.16 -0.16)">
       <use xlink:href="#DejaVuSans-30"/>
       <use xlink:href="#DejaVuSans-2e" transform="translate(63.623047 0)"/>
       <use xlink:href="#DejaVuSans-30" transform="translate(95.410156 0)"/>
       <use xlink:href="#DejaVuSans-30" transform="translate(159.033203 0)"/>
       <use xlink:href="#DejaVuSans-35" transform="translate(222.65625 0)"/>
      </g>
     </g>
    </g>
    <g id="ytick_4">
     <g id="line2d_11">
      <g>
       <use xlink:href="#mc200d4a108" x="100.8" y="209.036723" style="stroke: #000000; stroke-width: 0.8"/>
      </g>
     </g>
     <g id="text_12">
      <!-- 0.010 -->
      <g transform="translate(47.995 215.115473) scale(0.16 -0.16)">
       <use xlink:href="#DejaVuSans-30"/>
       <use xlink:href="#DejaVuSans-2e" transform="translate(63.623047 0)"/>
       <use xlink:href="#DejaVuSans-30" transform="translate(95.410156 0)"/>
       <use xlink:href="#DejaVuSans-31" transform="translate(159.033203 0)"/>
       <use xlink:href="#DejaVuSans-30" transform="translate(222.65625 0)"/>
      </g>
     </g>
    </g>
    <g id="ytick_5">
     <g id="line2d_12">
      <g>
       <use xlink:href="#mc200d4a108" x="100.8" y="156.020221" style="stroke: #000000; stroke-width: 0.8"/>
      </g>
     </g>
     <g id="text_13">
      <!-- 0.015 -->
      <g transform="translate(47.995 162.098971) scale(0.16 -0.16)">
       <use xlink:href="#DejaVuSans-30"/>
       <use xlink:href="#DejaVuSans-2e" transform="translate(63.623047 0)"/>
       <use xlink:href="#DejaVuSans-30" transform="translate(95.410156 0)"/>
       <use xlink:href="#DejaVuSans-31" transform="translate(159.033203 0)"/>
       <use xlink:href="#DejaVuSans-35" transform="translate(222.65625 0)"/>
      </g>
     </g>
    </g>
    <g id="ytick_6">
     <g id="line2d_13">
      <g>
       <use xlink:href="#mc200d4a108" x="100.8" y="103.003718" style="stroke: #000000; stroke-width: 0.8"/>
      </g>
     </g>
     <g id="text_14">
      <!-- 0.020 -->
      <g transform="translate(47.995 109.082468) scale(0.16 -0.16)">
       <use xlink:href="#DejaVuSans-30"/>
       <use xlink:href="#DejaVuSans-2e" transform="translate(63.623047 0)"/>
       <use xlink:href="#DejaVuSans-30" transform="translate(95.410156 0)"/>
       <use xlink:href="#DejaVuSans-32" transform="translate(159.033203 0)"/>
       <use xlink:href="#DejaVuSans-30" transform="translate(222.65625 0)"/>
      </g>
     </g>
    </g>
    <g id="ytick_7">
     <g id="line2d_14">
      <g>
       <use xlink:href="#mc200d4a108" x="100.8" y="49.987216" style="stroke: #000000; stroke-width: 0.8"/>
      </g>
     </g>
     <g id="text_15">
      <!-- 0.025 -->
      <g transform="translate(47.995 56.065966) scale(0.16 -0.16)">
       <use xlink:href="#DejaVuSans-30"/>
       <use xlink:href="#DejaVuSans-2e" transform="translate(63.623047 0)"/>
       <use xlink:href="#DejaVuSans-30" transform="translate(95.410156 0)"/>
       <use xlink:href="#DejaVuSans-32" transform="translate(159.033203 0)"/>
       <use xlink:href="#DejaVuSans-35" transform="translate(222.65625 0)"/>
      </g>
     </g>
    </g>
    <g id="text_16">
     <!-- Directed predictability gain (bits) -->
     <g transform="translate(26.844062 364.685625) rotate(-90) scale(0.18 -0.18)">
      <defs>
       <path id="DejaVuSans-44" d="M 1259 4147 
L 1259 519 
L 2022 519 
Q 2988 519 3436 956 
Q 3884 1394 3884 2338 
Q 3884 3275 3436 3711 
Q 2988 4147 2022 4147 
L 1259 4147 
z
M 628 4666 
L 1925 4666 
Q 3281 4666 3915 4102 
Q 4550 3538 4550 2338 
Q 4550 1131 3912 565 
Q 3275 0 1925 0 
L 628 0 
L 628 4666 
z
" transform="scale(0.015625)"/>
       <path id="DejaVuSans-63" d="M 3122 3366 
L 3122 2828 
Q 2878 2963 2633 3030 
Q 2388 3097 2138 3097 
Q 1578 3097 1268 2742 
Q 959 2388 959 1747 
Q 959 1106 1268 751 
Q 1578 397 2138 397 
Q 2388 397 2633 464 
Q 2878 531 3122 666 
L 3122 134 
Q 2881 22 2623 -34 
Q 2366 -91 2075 -91 
Q 1284 -91 818 406 
Q 353 903 353 1747 
Q 353 2603 823 3093 
Q 1294 3584 2113 3584 
Q 2378 3584 2631 3529 
Q 2884 3475 3122 3366 
z
" transform="scale(0.015625)"/>
       <path id="DejaVuSans-64" d="M 2906 2969 
L 2906 4863 
L 3481 4863 
L 3481 0 
L 2906 0 
L 2906 525 
Q 2725 213 2448 61 
Q 2172 -91 1784 -91 
Q 1150 -91 751 415 
Q 353 922 353 1747 
Q 353 2572 751 3078 
Q 1150 3584 1784 3584 
Q 2172 3584 2448 3432 
Q 2725 3281 2906 2969 
z
M 947 1747 
Q 947 1113 1208 752 
Q 1469 391 1925 391 
Q 2381 391 2643 752 
Q 2906 1113 2906 1747 
Q 2906 2381 2643 2742 
Q 2381 3103 1925 3103 
Q 1469 3103 1208 2742 
Q 947 2381 947 1747 
z
" transform="scale(0.015625)"/>
       <path id="DejaVuSans-70" d="M 1159 525 
L 1159 -1331 
L 581 -1331 
L 581 3500 
L 1159 3500 
L 1159 2969 
Q 1341 3281 1617 3432 
Q 1894 3584 2278 3584 
Q 2916 3584 3314 3078 
Q 3713 2572 3713 1747 
Q 3713 922 3314 415 
Q 2916 -91 2278 -91 
Q 1894 -91 1617 61 
Q 1341 213 1159 525 
z
M 3116 1747 
Q 3116 2381 2855 2742 
Q 2594 3103 2138 3103 
Q 1681 3103 1420 2742 
Q 1159 2381 1159 1747 
Q 1159 1113 1420 752 
Q 1681 391 2138 391 
Q 2594 391 2855 752 
Q 3116 1113 3116 1747 
z
" transform="scale(0.015625)"/>
       <path id="DejaVuSans-61" d="M 2194 1759 
Q 1497 1759 1228 1600 
Q 959 1441 959 1056 
Q 959 750 1161 570 
Q 1363 391 1709 391 
Q 2188 391 2477 730 
Q 2766 1069 2766 1631 
L 2766 1759 
L 2194 1759 
z
M 3341 1997 
L 3341 0 
L 2766 0 
L 2766 531 
Q 2569 213 2275 61 
Q 1981 -91 1556 -91 
Q 1019 -91 701 211 
Q 384 513 384 1019 
Q 384 1609 779 1909 
Q 1175 2209 1959 2209 
L 2766 2209 
L 2766 2266 
Q 2766 2663 2505 2880 
Q 2244 3097 1772 3097 
Q 1472 3097 1187 3025 
Q 903 2953 641 2809 
L 641 3341 
Q 956 3463 1253 3523 
Q 1550 3584 1831 3584 
Q 2591 3584 2966 3190 
Q 3341 2797 3341 1997 
z
" transform="scale(0.015625)"/>
       <path id="DejaVuSans-62" d="M 3116 1747 
Q 3116 2381 2855 2742 
Q 2594 3103 2138 3103 
Q 1681 3103 1420 2742 
Q 1159 2381 1159 1747 
Q 1159 1113 1420 752 
Q 1681 391 2138 391 
Q 2594 391 2855 752 
Q 3116 1113 3116 1747 
z
M 1159 2969 
Q 1341 3281 1617 3432 
Q 1894 3584 2278 3584 
Q 2916 3584 3314 3078 
Q 3713 2572 3713 1747 
Q 3713 922 3314 415 
Q 2916 -91 2278 -91 
Q 1894 -91 1617 61 
Q 1341 213 1159 525 
L 1159 0 
L 581 0 
L 581 4863 
L 1159 4863 
L 1159 2969 
z
" transform="scale(0.015625)"/>
       <path id="DejaVuSans-79" d="M 2059 -325 
Q 1816 -950 1584 -1140 
Q 1353 -1331 966 -1331 
L 506 -1331 
L 506 -850 
L 844 -850 
Q 1081 -850 1212 -737 
Q 1344 -625 1503 -206 
L 1606 56 
L 191 3500 
L 800 3500 
L 1894 763 
L 2988 3500 
L 3597 3500 
L 2059 -325 
z
" transform="scale(0.015625)"/>
       <path id="DejaVuSans-67" d="M 2906 1791 
Q 2906 2416 2648 2759 
Q 2391 3103 1925 3103 
Q 1463 3103 1205 2759 
Q 947 2416 947 1791 
Q 947 1169 1205 825 
Q 1463 481 1925 481 
Q 2391 481 2648 825 
Q 2906 1169 2906 1791 
z
M 3481 434 
Q 3481 -459 3084 -895 
Q 2688 -1331 1869 -1331 
Q 1566 -1331 1297 -1286 
Q 1028 -1241 775 -1147 
L 775 -588 
Q 1028 -725 1275 -790 
Q 1522 -856 1778 -856 
Q 2344 -856 2625 -561 
Q 2906 -266 2906 331 
L 2906 616 
Q 2728 306 2450 153 
Q 2172 0 1784 0 
Q 1141 0 747 490 
Q 353 981 353 1791 
Q 353 2603 747 3093 
Q 1141 3584 1784 3584 
Q 2172 3584 2450 3431 
Q 2728 3278 2906 2969 
L 2906 3500 
L 3481 3500 
L 3481 434 
z
" transform="scale(0.015625)"/>
      </defs>
      <use xlink:href="#DejaVuSans-44"/>
      <use xlink:href="#DejaVuSans-69" transform="translate(77.001953 0)"/>
      <use xlink:href="#DejaVuSans-72" transform="translate(104.785156 0)"/>
      <use xlink:href="#DejaVuSans-65" transform="translate(143.648438 0)"/>
      <use xlink:href="#DejaVuSans-63" transform="translate(205.171875 0)"/>
      <use xlink:href="#DejaVuSans-74" transform="translate(260.152344 0)"/>
      <use xlink:href="#DejaVuSans-65" transform="translate(299.361328 0)"/>
      <use xlink:href="#DejaVuSans-64" transform="translate(360.884766 0)"/>
      <use xlink:href="#DejaVuSans-20" transform="translate(424.361328 0)"/>
      <use xlink:href="#DejaVuSans-70" transform="translate(456.148438 0)"/>
      <use xlink:href="#DejaVuSans-72" transform="translate(519.625 0)"/>
      <use xlink:href="#DejaVuSans-65" transform="translate(558.488281 0)"/>
      <use xlink:href="#DejaVuSans-64" transform="translate(620.011719 0)"/>
      <use xlink:href="#DejaVuSans-69" transform="translate(683.488281 0)"/>
      <use xlink:href="#DejaVuSans-63" transform="translate(711.271484 0)"/>
      <use xlink:href="#DejaVuSans-74" transform="translate(766.251953 0)"/>
      <use xlink:href="#DejaVuSans-61" transform="translate(805.460938 0)"/>
      <use xlink:href="#DejaVuSans-62" transform="translate(866.740234 0)"/>
      <use xlink:href="#DejaVuSans-69" transform="translate(930.216797 0)"/>
      <use xlink:href="#DejaVuSans-6c" transform="translate(958 0)"/>
      <use xlink:href="#DejaVuSans-69" transform="translate(985.783203 0)"/>
      <use xlink:href="#DejaVuSans-74" transform="translate(1013.566406 0)"/>
      <use xlink:href="#DejaVuSans-79" transform="translate(1052.775391 0)"/>
      <use xlink:href="#DejaVuSans-20" transform="translate(1111.955078 0)"/>
      <use xlink:href="#DejaVuSans-67" transform="translate(1143.742188 0)"/>
      <use xlink:href="#DejaVuSans-61" transform="translate(1207.21875 0)"/>
      <use xlink:href="#DejaVuSans-69" transform="translate(1268.498047 0)"/>
      <use xlink:href="#DejaVuSans-6e" transform="translate(1296.28125 0)"/>
      <use xlink:href="#DejaVuSans-20" transform="translate(1359.660156 0)"/>
      <use xlink:href="#DejaVuSans-28" transform="translate(1391.447266 0)"/>
      <use xlink:href="#DejaVuSans-62" transform="translate(1430.460938 0)"/>
      <use xlink:href="#DejaVuSans-69" transform="translate(1493.9375 0)"/>
      <use xlink:href="#DejaVuSans-74" transform="translate(1521.720703 0)"/>
      <use xlink:href="#DejaVuSans-73" transform="translate(1560.929688 0)"/>
      <use xlink:href="#DejaVuSans-29" transform="translate(1613.029297 0)"/>
     </g>
    </g>
   </g>
   <g id="line2d_15">
    <path d="M 220.8 396 
L 220.8 36 
" clip-path="url(#p997622fc47)" style="fill: none; stroke-dasharray: 2.96,1.28; stroke-dashoffset: 0; stroke: #000000; stroke-width: 0.8"/>
   </g>
   <g id="line2d_16">
    <path d="M 100.8 315.069727 
L 820.8 315.069727 
" clip-path="url(#p997622fc47)" style="fill: none; stroke-dasharray: 0.8,1.32; stroke-dashoffset: 0; stroke: #000000; stroke-width: 0.8"/>
   </g>
   <g id="line2d_17">
    <path d="M -1 290.814358 
L 4.8 273.303862 
L 16.799998 267.99104 
L 28.799995 283.582331 
L 40.800002 297.744297 
L 52.799999 306.995272 
L 64.799997 299.058115 
L 76.799999 329.101027 
L 88.800001 319.257259 
L 100.800003 313.227973 
L 112.8 308.054289 
L 124.799998 315.880351 
L 136.8 326.765797 
L 148.800002 312.261493 
L 160.799999 298.252323 
L 172.799999 287.285614 
L 184.8 295.868013 
L 196.8 305.880603 
L 208.8 296.721525 
L 220.8 302.06833 
L 232.8 302.919731 
L 244.8 320.653043 
L 256.8 315.669239 
L 268.800001 302.852447 
L 280.800001 292.333861 
L 292.799998 293.501178 
L 304.8 314.397927 
L 316.800002 309.430794 
L 328.8 315.372906 
L 340.799997 294.940898 
L 352.799999 286.553492 
L 364.800001 286.939383 
L 376.800003 305.388736 
L 388.800001 310.184165 
L 400.799998 284.700093 
L 412.800005 279.048669 
L 424.800002 284.893008 
L 436.8 287.418023 
L 448.799997 279.672728 
L 460.799995 255.300177 
L 472.800001 225.698007 
L 484.799999 222.743575 
L 496.799996 241.758021 
L 508.800003 244.528954 
L 520.8 217.460421 
L 532.799989 192.708557 
L 544.799995 193.346334 
L 556.800001 176.638269 
L 568.79999 184.328515 
L 580.799996 184.107557 
L 592.800003 213.441785 
L 604.799991 185.946928 
L 616.799998 177.828001 
L 628.800004 133.578762 
L 640.799993 176.86643 
L 652.799999 202.795273 
L 664.800006 241.815798 
L 676.799994 216.031847 
L 688.800001 194.115366 
L 700.800007 175.863881 
L 712.799996 185.202796 
L 724.800002 211.624119 
L 736.800009 242.051414 
L 748.799997 240.446576 
L 760.800004 229.512117 
L 772.80001 201.065678 
L 784.799999 202.693282 
L 796.800005 238.770701 
L 808.800011 245.485141 
L 820.8 272.012702 
L 832.799989 226.552028 
L 844.799977 241.181635 
L 856.800001 243.296599 
L 857.8 247.192088 
" clip-path="url(#p997622fc47)" style="fill: none; stroke: #0e87cc; stroke-width: 2.5; stroke-linecap: square"/>
   </g>
   <g id="line2d_18">
    <path d="M -1 317.914057 
L 4.8 325.432737 
L 16.799998 331.656535 
L 28.799995 321.989793 
L 40.800002 308.483903 
L 52.799999 302.192056 
L 64.799997 317.926813 
L 76.799999 326.190031 
L 88.800001 321.218513 
L 100.800003 320.278577 
L 112.8 313.830498 
L 124.799998 319.864217 
L 136.8 315.680429 
L 148.800002 311.935965 
L 160.799999 306.420057 
L 172.799999 314.093119 
L 184.8 313.532643 
L 196.8 305.965875 
L 208.8 305.232572 
L 220.8 322.340773 
L 232.8 328.135975 
L 244.8 324.274061 
L 256.8 305.356698 
L 268.800001 308.245618 
L 280.800001 301.98748 
L 292.799998 321.377352 
L 304.8 327.419877 
L 316.800002 326.878733 
L 328.8 321.36304 
L 340.799997 323.771143 
L 352.799999 341.034829 
L 364.800001 327.46283 
L 376.800003 320.607456 
L 388.800001 310.124868 
L 400.799998 309.211549 
L 412.800005 306.464278 
L 424.800002 299.232713 
L 436.8 310.739621 
L 448.799997 312.633187 
L 460.799995 298.461051 
L 472.800001 293.605663 
L 484.799999 281.882069 
L 496.799996 298.035992 
L 508.800003 285.111825 
L 520.8 283.383141 
L 532.799989 264.115266 
L 544.799995 251.295222 
L 556.800001 247.875281 
L 568.79999 238.780353 
L 580.799996 218.753504 
L 592.800003 204.860717 
L 604.799991 220.351323 
L 616.799998 248.977125 
L 628.800004 236.773661 
L 640.799993 228.212221 
L 652.799999 228.583381 
L 664.800006 260.171468 
L 676.799994 240.43475 
L 688.800001 255.321221 
L 700.800007 230.734902 
L 712.799996 263.554527 
L 724.800002 242.318047 
L 736.800009 252.760222 
L 748.799997 240.995756 
L 760.800004 248.361237 
L 772.80001 259.000331 
L 784.799999 278.238255 
L 796.800005 293.345486 
L 808.800011 304.692759 
L 820.8 303.926726 
L 832.799989 297.51603 
L 844.799977 304.058495 
L 856.800001 296.090061 
L 857.8 295.188623 
" clip-path="url(#p997622fc47)" style="fill: none; stroke: #7b4fa3; stroke-width: 2.5; stroke-linecap: square"/>
   </g>
   <g id="patch_3">
    <path d="M 100.8 396 
L 100.8 36 
" style="fill: none; stroke: #000000; stroke-width: 0.8; stroke-linejoin: miter; stroke-linecap: square"/>
   </g>
   <g id="patch_4">
    <path d="M 820.8 396 
L 820.8 36 
" style="fill: none; stroke: #000000; stroke-width: 0.8; stroke-linejoin: miter; stroke-linecap: square"/>
   </g>
   <g id="patch_5">
    <path d="M 100.8 396 
L 820.8 396 
" style="fill: none; stroke: #000000; stroke-width: 0.8; stroke-linejoin: miter; stroke-linecap: square"/>
   </g>
   <g id="patch_6">
    <path d="M 100.8 36 
L 820.8 36 
" style="fill: none; stroke: #000000; stroke-width: 0.8; stroke-linejoin: miter; stroke-linecap: square"/>
   </g>
   <g id="PathCollection_1">
    <defs>
     <path id="m334ed8de02" d="M 0 1.870829 
C 0.49615 1.870829 0.972045 1.673706 1.322876 1.322876 
C 1.673706 0.972045 1.870829 0.49615 1.870829 0 
C 1.870829 -0.49615 1.673706 -0.972045 1.322876 -1.322876 
C 0.972045 -1.673706 0.49615 -1.870829 0 -1.870829 
C -0.49615 -1.870829 -0.972045 -1.673706 -1.322876 -1.322876 
C -1.673706 -0.972045 -1.870829 -0.49615 -1.870829 0 
C -1.870829 0.49615 -1.673706 0.972045 -1.322876 1.322876 
C -0.972045 1.673706 -0.49615 1.870829 0 1.870829 
z
" style="stroke: #0e87cc"/>
    </defs>
    <g clip-path="url(#p997622fc47)">
     <use xlink:href="#m334ed8de02" x="4.8" y="378" style="fill: #0e87cc; stroke: #0e87cc"/>
     <use xlink:href="#m334ed8de02" x="16.799998" y="378" style="fill: #0e87cc; stroke: #0e87cc"/>
     <use xlink:href="#m334ed8de02" x="28.799995" y="378" style="fill: #0e87cc; stroke: #0e87cc"/>
     <use xlink:href="#m334ed8de02" x="352.799999" y="378" style="fill: #0e87cc; stroke: #0e87cc"/>
     <use xlink:href="#m334ed8de02" x="364.800001" y="378" style="fill: #0e87cc; stroke: #0e87cc"/>
     <use xlink:href="#m334ed8de02" x="472.800001" y="378" style="fill: #0e87cc; stroke: #0e87cc"/>
     <use xlink:href="#m334ed8de02" x="484.799999" y="378" style="fill: #0e87cc; stroke: #0e87cc"/>
     <use xlink:href="#m334ed8de02" x="496.799996" y="378" style="fill: #0e87cc; stroke: #0e87cc"/>
     <use xlink:href="#m334ed8de02" x="520.8" y="378" style="fill: #0e87cc; stroke: #0e87cc"/>
     <use xlink:href="#m334ed8de02" x="532.799989" y="378" style="fill: #0e87cc; stroke: #0e87cc"/>
     <use xlink:href="#m334ed8de02" x="784.799999" y="378" style="fill: #0e87cc; stroke: #0e87cc"/>
     <use xlink:href="#m334ed8de02" x="808.800011" y="378" style="fill: #0e87cc; stroke: #0e87cc"/>
     <use xlink:href="#m334ed8de02" x="832.799989" y="378" style="fill: #0e87cc; stroke: #0e87cc"/>
    </g>
   </g>
   <g id="PathCollection_2">
    <defs>
     <path id="m33bca52c83" d="M 0 1.870829 
C 0.49615 1.870829 0.972045 1.673706 1.322876 1.322876 
C 1.673706 0.972045 1.870829 0.49615 1.870829 0 
C 1.870829 -0.49615 1.673706 -0.972045 1.322876 -1.322876 
C 0.972045 -1.673706 0.49615 -1.870829 0 -1.870829 
C -0.49615 -1.870829 -0.972045 -1.673706 -1.322876 -1.322876 
C -1.673706 -0.972045 -1.870829 -0.49615 -1.870829 0 
C -1.870829 0.49615 -1.673706 0.972045 -1.322876 1.322876 
C -0.972045 1.673706 -0.49615 1.870829 0 1.870829 
z
" style="stroke: #7b4fa3"/>
    </defs>
    <g clip-path="url(#p997622fc47)">
     <use xlink:href="#m33bca52c83" x="592.800003" y="378" style="fill: #7b4fa3; stroke: #7b4fa3"/>
     <use xlink:href="#m33bca52c83" x="880.800014" y="378" style="fill: #7b4fa3; stroke: #7b4fa3"/>
     <use xlink:href="#m33bca52c83" x="892.800003" y="378" style="fill: #7b4fa3; stroke: #7b4fa3"/>
    </g>
   </g>
   <g id="legend_1">
    <g id="line2d_19">
     <path d="M 114.3 55.647656 
L 129.3 55.647656 
L 144.3 55.647656 
" style="fill: none; stroke: #0e87cc; stroke-width: 2.5; stroke-linecap: square"/>
    </g>
    <g id="text_17">
     <!-- SFEF→SSC -->
     <g transform="translate(156.3 60.897656) scale(0.15 -0.15)">
      <defs>
       <path id="DejaVuSans-46" d="M 628 4666 
L 3309 4666 
L 3309 4134 
L 1259 4134 
L 1259 2759 
L 3109 2759 
L 3109 2228 
L 1259 2228 
L 1259 0 
L 628 0 
L 628 4666 
z
" transform="scale(0.015625)"/>
       <path id="DejaVuSans-45" d="M 628 4666 
L 3578 4666 
L 3578 4134 
L 1259 4134 
L 1259 2753 
L 3481 2753 
L 3481 2222 
L 1259 2222 
L 1259 531 
L 3634 531 
L 3634 0 
L 628 0 
L 628 4666 
z
" transform="scale(0.015625)"/>
       <path id="DejaVuSans-2192" d="M 5050 2147 
L 5050 1866 
L 3822 638 
L 3447 1013 
L 4175 1741 
L 366 1741 
L 366 2272 
L 4175 2272 
L 3447 3000 
L 3822 3375 
L 5050 2147 
z
" transform="scale(0.015625)"/>
       <path id="DejaVuSans-43" d="M 4122 4306 
L 4122 3641 
Q 3803 3938 3442 4084 
Q 3081 4231 2675 4231 
Q 1875 4231 1450 3742 
Q 1025 3253 1025 2328 
Q 1025 1406 1450 917 
Q 1875 428 2675 428 
Q 3081 428 3442 575 
Q 3803 722 4122 1019 
L 4122 359 
Q 3791 134 3420 21 
Q 3050 -91 2638 -91 
Q 1578 -91 968 557 
Q 359 1206 359 2328 
Q 359 3453 968 4101 
Q 1578 4750 2638 4750 
Q 3056 4750 3426 4639 
Q 3797 4528 4122 4306 
z
" transform="scale(0.015625)"/>
      </defs>
      <use xlink:href="#DejaVuSans-53"/>
      <use xlink:href="#DejaVuSans-46" transform="translate(63.476562 0)"/>
      <use xlink:href="#DejaVuSans-45" transform="translate(120.996094 0)"/>
      <use xlink:href="#DejaVuSans-46" transform="translate(184.179688 0)"/>
      <use xlink:href="#DejaVuSans-2192" transform="translate(241.699219 0)"/>
      <use xlink:href="#DejaVuSans-53" transform="translate(325.488281 0)"/>
      <use xlink:href="#DejaVuSans-53" transform="translate(388.964844 0)"/>
      <use xlink:href="#DejaVuSans-43" transform="translate(452.441406 0)"/>
     </g>
    </g>
    <g id="line2d_20">
     <path d="M 114.3 77.664844 
L 129.3 77.664844 
L 144.3 77.664844 
" style="fill: none; stroke: #7b4fa3; stroke-width: 2.5; stroke-linecap: square"/>
    </g>
    <g id="text_18">
     <!-- SSC→SFEF -->
     <g transform="translate(156.3 82.914844) scale(0.15 -0.15)">
      <use xlink:href="#DejaVuSans-53"/>
      <use xlink:href="#DejaVuSans-53" transform="translate(63.476562 0)"/>
      <use xlink:href="#DejaVuSans-43" transform="translate(126.953125 0)"/>
      <use xlink:href="#DejaVuSans-2192" transform="translate(196.777344 0)"/>
      <use xlink:href="#DejaVuSans-53" transform="translate(280.566406 0)"/>
      <use xlink:href="#DejaVuSans-46" transform="translate(344.042969 0)"/>
      <use xlink:href="#DejaVuSans-45" transform="translate(401.5625 0)"/>
      <use xlink:href="#DejaVuSans-46" transform="translate(464.746094 0)"/>
     </g>
    </g>
   </g>
  </g>
 </g>
 <defs>
  <clipPath id="p997622fc47">
   <rect x="100.8" y="36" width="720" height="360"/>
  </clipPath>
 </defs>
</svg>
