<?xml version="1.0" encoding="utf-8" standalone="no"?>
<!DOCTYPE svg PUBLIC "-//W3C//DTD SVG 1.1//EN"
  "http://www.w3.org/Graphics/SVG/1.1/DTD/svg11.dtd">
<svg xmlns:xlink="http://www.w3.org/1999/xlink" width="856.8pt" height="453.6pt" viewBox="0 0 856.8 453.6" xmlns="http://www.w3.org/2000/svg" version="1.1">
 <metadata>
  <rdf:RDF xmlns:dc="http://purl.org/dc/elements/1.1/" xmlns:cc="http://creativecommons.org/ns#" xmlns:rdf="http://www.w3.org/1999/02/22-rdf-syntax-ns#">
   <cc:Work>
    <dc:type rdf:resource="http://purl.org/dc/dcmitype/StillImage"/>
    <dc:date>2026-01-15T00:52:14.871518</dc:date>
    <dc:format>image/svg+xml</dc:format>
    <dc:creator>
     <cc:Agent>
      <dc:title>Matplotlib v3.9.2, https://matplotlib.org/</dc:title>
     </cc:Agent>
    </dc:creator>
   </cc:Work>
  </rdf:RDF>
 </metadata>
 <defs>
  <style type="text/css">*{stroke-linejoin: round; stroke-linecap: butt}</style>
 </defs>
 <g id="figure_1">
  <g id="patch_1">
   <path d="M 0 453.6 
L 856.8 453.6 
L 856.8 0 
L 0 0 
z
" style="fill: #ffffff"/>
  </g>
  <g id="axes_1">
   <g id="patch_2">
    <path d="M 100.8 396 
L 820.8 396 
L 820.8 36 
L 100.8 36 
z
" style="fill: #ffffff"/>
   </g>
   <g id="PolyCollection_1">
    <path d="M -43.199999 299.014199 
L -43.199999 339.074582 
L -31.200001 359.171105 
L -19.199995 344.896613 
L -7.199997 355.450332 
L 4.8 337.430303 
L 16.799998 348.703692 
L 28.799995 345.93678 
L 40.800002 337.861812 
L 52.799999 335.005148 
L 64.799997 345.40214 
L 76.799999 371.617497 
L 88.800001 366.813686 
L 100.800003 354.56397 
L 112.8 336.521851 
L 124.799998 349.549432 
L 136.8 345.147201 
L 148.800002 346.343378 
L 160.799999 342.635849 
L 172.799999 336.140529 
L 184.8 333.622122 
L 196.8 327.817822 
L 208.8 335.830712 
L 220.8 348.805845 
L 232.8 343.159915 
L 244.8 337.318671 
L 256.8 338.463362 
L 268.800001 342.056557 
L 280.800001 354.081248 
L 292.799998 350.537729 
L 304.8 363.838711 
L 316.800002 353.062046 
L 328.8 356.905968 
L 340.799997 340.77566 
L 352.799999 350.990472 
L 364.800001 350.517107 
L 376.800003 359.629066 
L 388.800001 353.377577 
L 400.799998 332.136535 
L 412.800005 327.346049 
L 424.800002 326.972554 
L 436.8 337.78073 
L 448.799997 338.199827 
L 460.799995 314.339614 
L 472.800001 299.63131 
L 484.799999 290.629554 
L 496.799996 298.498051 
L 508.800003 296.55134 
L 520.8 279.425601 
L 532.799989 272.996824 
L 544.799995 253.276498 
L 556.800001 257.618804 
L 568.79999 254.884445 
L 580.799996 269.111909 
L 592.800003 277.472069 
L 604.799991 249.907645 
L 616.799998 246.248809 
L 628.800004 245.157048 
L 640.799993 286.593247 
L 652.799999 286.095384 
L 664.800006 297.715079 
L 676.799994 295.629299 
L 688.800001 319.807624 
L 700.800007 296.813629 
L 712.799996 295.74561 
L 724.800002 290.239601 
L 736.800009 314.007464 
L 748.799997 314.97292 
L 760.800004 318.718585 
L 772.80001 307.54227 
L 784.799999 302.442932 
L 796.800005 318.692556 
L 808.800011 309.99002 
L 820.8 326.144183 
L 832.799989 310.804968 
L 844.799977 322.75781 
L 856.800001 324.234267 
L 868.800026 334.541242 
L 880.800014 347.776892 
L 892.800003 360.019957 
L 904.799991 347.794161 
L 916.79998 355.849661 
L 928.800004 349.445459 
L 940.800029 354.76885 
L 952.800017 347.889982 
L 964.800006 349.207876 
L 976.799994 364.498497 
L 988.799983 370.837868 
L 1000.799971 362.935459 
L 1012.799996 354.708498 
L 1024.80002 346.515091 
L 1036.800009 358.996211 
L 1048.799997 349.414422 
L 1060.799986 353.223373 
L 1072.799974 336.557158 
L 1084.799999 341.205856 
L 1096.800023 340.876256 
L 1108.800011 346.761128 
L 1120.8 345.936677 
L 1132.799989 344.057012 
L 1144.799977 347.912932 
L 1156.800001 359.147107 
L 1168.800026 363.903037 
L 1168.800026 296.402259 
L 1168.800026 296.402259 
L 1156.800001 294.770525 
L 1144.799977 294.719667 
L 1132.799989 300.260995 
L 1120.8 307.019733 
L 1108.800011 302.147761 
L 1096.800023 291.349625 
L 1084.799999 249.604506 
L 1072.799974 240.493921 
L 1060.799986 253.671157 
L 1048.799997 292.729903 
L 1036.800009 306.243354 
L 1024.80002 302.362221 
L 1012.799996 304.711866 
L 1000.799971 310.640884 
L 988.799983 316.242856 
L 976.799994 305.523794 
L 964.800006 286.896684 
L 952.800017 286.362767 
L 940.800029 257.62895 
L 928.800004 235.143279 
L 916.79998 239.902763 
L 904.799991 275.357858 
L 892.800003 311.103672 
L 880.800014 294.862384 
L 868.800026 283.463666 
L 856.800001 262.999217 
L 844.799977 265.209021 
L 832.799989 232.066306 
L 820.8 257.490045 
L 808.800011 206.511439 
L 796.800005 197.614551 
L 784.799999 146.436409 
L 772.80001 160.660155 
L 760.800004 203.035355 
L 748.799997 217.670723 
L 736.800009 223.85436 
L 724.800002 193.488463 
L 712.799996 207.288214 
L 700.800007 202.929773 
L 688.800001 193.279969 
L 676.799994 156.436788 
L 664.800006 165.959119 
L 652.799999 119.022551 
L 640.799993 108.928661 
L 628.800004 52.363636 
L 616.799998 114.547231 
L 604.799991 110.91955 
L 592.800003 145.271314 
L 580.799996 129.070825 
L 568.79999 88.0548 
L 556.800001 89.045459 
L 544.799995 104.428164 
L 532.799989 164.167263 
L 520.8 185.833912 
L 508.800003 181.685004 
L 496.799996 178.016152 
L 484.799999 161.042195 
L 472.800001 194.331281 
L 460.799995 220.315517 
L 448.799997 265.858929 
L 436.8 271.93095 
L 424.800002 282.25546 
L 412.800005 281.111135 
L 400.799998 272.416197 
L 388.800001 295.380195 
L 376.800003 278.476692 
L 364.800001 278.927398 
L 352.799999 279.238526 
L 340.799997 294.97863 
L 328.8 315.099637 
L 316.800002 281.762006 
L 304.8 261.723265 
L 292.799998 242.301704 
L 280.800001 273.115864 
L 268.800001 292.788518 
L 256.8 285.119549 
L 244.8 287.308145 
L 232.8 277.301103 
L 220.8 292.921051 
L 208.8 275.998533 
L 196.8 287.157252 
L 184.8 285.896558 
L 172.799999 271.192853 
L 160.799999 280.929065 
L 148.800002 291.216247 
L 136.8 299.458193 
L 124.799998 293.855394 
L 112.8 276.128758 
L 100.800003 292.739778 
L 88.800001 287.870069 
L 76.799999 296.289165 
L 64.799997 267.860784 
L 52.799999 273.189722 
L 40.800002 268.048781 
L 28.799995 281.285856 
L 16.799998 271.738908 
L 4.8 258.544641 
L -7.199997 286.073585 
L -19.199995 291.687638 
L -31.200001 317.612765 
L -43.199999 299.014199 
z
" clip-path="url(#pc4a30f8914)" style="fill: #0072b2; fill-opacity: 0.25"/>
   </g>
   <g id="PolyCollection_2">
    <path d="M -43.199999 289.191921 
L -43.199999 334.397451 
L -31.200001 352.117675 
L -19.199995 354.870905 
L -7.199997 368.733103 
L 4.8 365.106917 
L 16.799998 369.357671 
L 28.799995 373.943586 
L 40.800002 373.704582 
L 52.799999 370.553784 
L 64.799997 363.438696 
L 76.799999 362.775797 
L 88.800001 356.176792 
L 100.800003 355.789361 
L 112.8 350.935559 
L 124.799998 366.517035 
L 136.8 359.46799 
L 148.800002 361.948689 
L 160.799999 342.352481 
L 172.799999 347.54152 
L 184.8 343.56258 
L 196.8 350.408384 
L 208.8 349.532688 
L 220.8 350.76918 
L 232.8 338.310947 
L 244.8 335.713639 
L 256.8 328.744297 
L 268.800001 348.134431 
L 280.800001 352.750901 
L 292.799998 367.903841 
L 304.8 368.731601 
L 316.800002 368.54528 
L 328.8 366.081564 
L 340.799997 362.545095 
L 352.799999 361.069673 
L 364.800001 358.566053 
L 376.800003 361.387674 
L 388.800001 365.519909 
L 400.799998 369.579395 
L 412.800005 364.481616 
L 424.800002 349.3625 
L 436.8 343.401157 
L 448.799997 334.623722 
L 460.799995 323.530503 
L 472.800001 317.420757 
L 484.799999 318.738218 
L 496.799996 327.911182 
L 508.800003 332.252173 
L 520.8 310.335742 
L 532.799989 317.177596 
L 544.799995 305.476638 
L 556.800001 320.025251 
L 568.79999 305.857953 
L 580.799996 290.157402 
L 592.800003 282.981471 
L 604.799991 267.48309 
L 616.799998 308.068949 
L 628.800004 325.454716 
L 640.799993 336.432309 
L 652.799999 313.108552 
L 664.800006 295.02115 
L 676.799994 305.625064 
L 688.800001 317.221479 
L 700.800007 325.890322 
L 712.799996 340.005677 
L 724.800002 334.057179 
L 736.800009 312.440289 
L 748.799997 296.414545 
L 760.800004 283.952498 
L 772.80001 305.286283 
L 784.799999 326.47218 
L 796.800005 351.792207 
L 808.800011 357.484383 
L 820.8 357.481458 
L 832.799989 343.417474 
L 844.799977 341.406822 
L 856.800001 309.782067 
L 868.800026 314.498064 
L 880.800014 305.142382 
L 892.800003 310.793458 
L 904.799991 326.130411 
L 916.79998 346.881759 
L 928.800004 354.822778 
L 940.800029 350.954828 
L 952.800017 359.277964 
L 964.800006 379.636364 
L 976.799994 365.020491 
L 988.799983 365.285009 
L 1000.799971 364.614821 
L 1012.799996 361.733574 
L 1024.80002 343.462946 
L 1036.800009 337.511729 
L 1048.799997 355.10592 
L 1060.799986 358.880213 
L 1072.799974 366.787879 
L 1084.799999 353.388878 
L 1096.800023 356.26231 
L 1108.800011 341.991908 
L 1120.8 349.386817 
L 1132.799989 349.511479 
L 1144.799977 352.540977 
L 1156.800001 354.507219 
L 1168.800026 355.883087 
L 1168.800026 306.07398 
L 1168.800026 306.07398 
L 1156.800001 301.653359 
L 1144.799977 300.167167 
L 1132.799989 292.887723 
L 1120.8 293.042435 
L 1108.800011 288.456505 
L 1096.800023 313.267743 
L 1084.799999 293.987407 
L 1072.799974 297.672274 
L 1060.799986 290.873935 
L 1048.799997 314.423931 
L 1036.800009 302.830241 
L 1024.80002 302.799136 
L 1012.799996 314.248734 
L 1000.799971 299.789595 
L 988.799983 302.147873 
L 976.799994 299.144088 
L 964.800006 336.533049 
L 952.800017 289.860251 
L 940.800029 280.320983 
L 928.800004 277.580369 
L 916.79998 293.710026 
L 904.799991 266.325503 
L 892.800003 233.434719 
L 880.800014 233.900185 
L 868.800026 237.355416 
L 856.800001 211.672021 
L 844.799977 239.806014 
L 832.799989 245.976412 
L 820.8 288.872918 
L 808.800011 262.502493 
L 796.800005 243.884105 
L 784.799999 219.84353 
L 772.80001 216.778378 
L 760.800004 209.712019 
L 748.799997 217.458408 
L 736.800009 225.16217 
L 724.800002 242.338041 
L 712.799996 253.671161 
L 700.800007 238.803258 
L 688.800001 230.614074 
L 676.799994 228.530731 
L 664.800006 226.289631 
L 652.799999 250.425476 
L 640.799993 251.756465 
L 628.800004 221.854562 
L 616.799998 197.030045 
L 604.799991 154.356167 
L 592.800003 172.902739 
L 580.799996 183.006016 
L 568.79999 208.068673 
L 556.800001 217.706049 
L 544.799995 203.440494 
L 532.799989 222.035804 
L 520.8 162.39793 
L 508.800003 156.618204 
L 496.799996 147.880122 
L 484.799999 208.262424 
L 472.800001 232.442443 
L 460.799995 245.567288 
L 448.799997 269.99601 
L 436.8 291.584923 
L 424.800002 302.555379 
L 412.800005 315.516134 
L 400.799998 321.418461 
L 388.800001 303.936351 
L 376.800003 303.409719 
L 364.800001 299.189895 
L 352.799999 288.049891 
L 340.799997 284.897937 
L 328.8 285.049523 
L 316.800002 313.427754 
L 304.8 313.747209 
L 292.799998 318.161447 
L 280.800001 284.344831 
L 268.800001 285.135959 
L 256.8 256.234897 
L 244.8 287.250839 
L 232.8 285.800318 
L 220.8 294.594693 
L 208.8 289.074129 
L 196.8 298.155562 
L 184.8 310.460739 
L 172.799999 317.503594 
L 160.799999 302.333265 
L 148.800002 316.637116 
L 136.8 315.85232 
L 124.799998 326.01711 
L 112.8 288.862289 
L 100.800003 277.185317 
L 88.800001 278.582576 
L 76.799999 290.364924 
L 64.799997 290.07507 
L 52.799999 223.828004 
L 40.800002 246.062325 
L 28.799995 260.244246 
L 16.799998 334.440467 
L 4.8 317.229207 
L -7.199997 285.187626 
L -19.199995 264.889712 
L -31.200001 256.308299 
L -43.199999 289.191921 
z
" clip-path="url(#pc4a30f8914)" style="fill: #d55e00; fill-opacity: 0.25"/>
   </g>
   <g id="matplotlib.axis_1">
    <g id="xtick_1">
     <g id="line2d_1">
      <defs>
       <path id="ma104396c1c" d="M 0 0 
L 0 3.5 
" style="stroke: #000000; stroke-width: 0.8"/>
      </defs>
      <g>
       <use xlink:href="#ma104396c1c" x="100.8" y="396" style="stroke: #000000; stroke-width: 0.8"/>
      </g>
     </g>
     <g id="text_1">
      <!-- −100 -->
      <g transform="translate(78.82625 415.1575) scale(0.16 -0.16)">
       <defs>
        <path id="DejaVuSans-2212" d="M 678 2272 
L 4684 2272 
L 4684 1741 
L 678 1741 
L 678 2272 
z
" transform="scale(0.015625)"/>
        <path id="DejaVuSans-31" d="M 794 531 
L 1825 531 
L 1825 4091 
L 703 3866 
L 703 4441 
L 1819 4666 
L 2450 4666 
L 2450 531 
L 3481 531 
L 3481 0 
L 794 0 
L 794 531 
z
" transform="scale(0.015625)"/>
        <path id="DejaVuSans-30" d="M 2034 4250 
Q 1547 4250 1301 3770 
Q 1056 3291 1056 2328 
Q 1056 1369 1301 889 
Q 1547 409 2034 409 
Q 2525 409 2770 889 
Q 3016 1369 3016 2328 
Q 3016 3291 2770 3770 
Q 2525 4250 2034 4250 
z
M 2034 4750 
Q 2819 4750 3233 4129 
Q 3647 3509 3647 2328 
Q 3647 1150 3233 529 
Q 2819 -91 2034 -91 
Q 1250 -91 836 529 
Q 422 1150 422 2328 
Q 422 3509 836 4129 
Q 1250 4750 2034 4750 
z
" transform="scale(0.015625)"/>
       </defs>
       <use xlink:href="#DejaVuSans-2212"/>
       <use xlink:href="#DejaVuSans-31" x="83.789062"/>
       <use xlink:href="#DejaVuSans-30" x="147.412109"/>
       <use xlink:href="#DejaVuSans-30" x="211.035156"/>
      </g>
     </g>
    </g>
    <g id="xtick_2">
     <g id="line2d_2">
      <g>
       <use xlink:href="#ma104396c1c" x="220.8" y="396" style="stroke: #000000; stroke-width: 0.8"/>
      </g>
     </g>
     <g id="text_2">
      <!-- 0 -->
      <g transform="translate(215.71 415.1575) scale(0.16 -0.16)">
       <use xlink:href="#DejaVuSans-30"/>
      </g>
     </g>
    </g>
    <g id="xtick_3">
     <g id="line2d_3">
      <g>
       <use xlink:href="#ma104396c1c" x="340.8" y="396" style="stroke: #000000; stroke-width: 0.8"/>
      </g>
     </g>
     <g id="text_3">
      <!-- 100 -->
      <g transform="translate(325.53 415.1575) scale(0.16 -0.16)">
       <use xlink:href="#DejaVuSans-31"/>
       <use xlink:href="#DejaVuSans-30" x="63.623047"/>
       <use xlink:href="#DejaVuSans-30" x="127.246094"/>
      </g>
     </g>
    </g>
    <g id="xtick_4">
     <g id="line2d_4">
      <g>
       <use xlink:href="#ma104396c1c" x="460.8" y="396" style="stroke: #000000; stroke-width: 0.8"/>
      </g>
     </g>
     <g id="text_4">
      <!-- 200 -->
      <g transform="translate(445.53 415.1575) scale(0.16 -0.16)">
       <defs>
        <path id="DejaVuSans-32" d="M 1228 531 
L 3431 531 
L 3431 0 
L 469 0 
L 469 531 
Q 828 903 1448 1529 
Q 2069 2156 2228 2338 
Q 2531 2678 2651 2914 
Q 2772 3150 2772 3378 
Q 2772 3750 2511 3984 
Q 2250 4219 1831 4219 
Q 1534 4219 1204 4116 
Q 875 4013 500 3803 
L 500 4441 
Q 881 4594 1212 4672 
Q 1544 4750 1819 4750 
Q 2544 4750 2975 4387 
Q 3406 4025 3406 3419 
Q 3406 3131 3298 2873 
Q 3191 2616 2906 2266 
Q 2828 2175 2409 1742 
Q 1991 1309 1228 531 
z
" transform="scale(0.015625)"/>
       </defs>
       <use xlink:href="#DejaVuSans-32"/>
       <use xlink:href="#DejaVuSans-30" x="63.623047"/>
       <use xlink:href="#DejaVuSans-30" x="127.246094"/>
      </g>
     </g>
    </g>
    <g id="xtick_5">
     <g id="line2d_5">
      <g>
       <use xlink:href="#ma104396c1c" x="580.8" y="396" style="stroke: #000000; stroke-width: 0.8"/>
      </g>
     </g>
     <g id="text_5">
      <!-- 300 -->
      <g transform="translate(565.53 415.1575) scale(0.16 -0.16)">
       <defs>
        <path id="DejaVuSans-33" d="M 2597 2516 
Q 3050 2419 3304 2112 
Q 3559 1806 3559 1356 
Q 3559 666 3084 287 
Q 2609 -91 1734 -91 
Q 1441 -91 1130 -33 
Q 819 25 488 141 
L 488 750 
Q 750 597 1062 519 
Q 1375 441 1716 441 
Q 2309 441 2620 675 
Q 2931 909 2931 1356 
Q 2931 1769 2642 2001 
Q 2353 2234 1838 2234 
L 1294 2234 
L 1294 2753 
L 1863 2753 
Q 2328 2753 2575 2939 
Q 2822 3125 2822 3475 
Q 2822 3834 2567 4026 
Q 2313 4219 1838 4219 
Q 1578 4219 1281 4162 
Q 984 4106 628 3988 
L 628 4550 
Q 988 4650 1302 4700 
Q 1616 4750 1894 4750 
Q 2613 4750 3031 4423 
Q 3450 4097 3450 3541 
Q 3450 3153 3228 2886 
Q 3006 2619 2597 2516 
z
" transform="scale(0.015625)"/>
       </defs>
       <use xlink:href="#DejaVuSans-33"/>
       <use xlink:href="#DejaVuSans-30" x="63.623047"/>
       <use xlink:href="#DejaVuSans-30" x="127.246094"/>
      </g>
     </g>
    </g>
    <g id="xtick_6">
     <g id="line2d_6">
      <g>
       <use xlink:href="#ma104396c1c" x="700.8" y="396" style="stroke: #000000; stroke-width: 0.8"/>
      </g>
     </g>
     <g id="text_6">
      <!-- 400 -->
      <g transform="translate(685.53 415.1575) scale(0.16 -0.16)">
       <defs>
        <path id="DejaVuSans-34" d="M 2419 4116 
L 825 1625 
L 2419 1625 
L 2419 4116 
z
M 2253 4666 
L 3047 4666 
L 3047 1625 
L 3713 1625 
L 3713 1100 
L 3047 1100 
L 3047 0 
L 2419 0 
L 2419 1100 
L 313 1100 
L 313 1709 
L 2253 4666 
z
" transform="scale(0.015625)"/>
       </defs>
       <use xlink:href="#DejaVuSans-34"/>
       <use xlink:href="#DejaVuSans-30" x="63.623047"/>
       <use xlink:href="#DejaVuSans-30" x="127.246094"/>
      </g>
     </g>
    </g>
    <g id="xtick_7">
     <g id="line2d_7">
      <g>
       <use xlink:href="#ma104396c1c" x="820.8" y="396" style="stroke: #000000; stroke-width: 0.8"/>
      </g>
     </g>
     <g id="text_7">
      <!-- 500 -->
      <g transform="translate(805.53 415.1575) scale(0.16 -0.16)">
       <defs>
        <path id="DejaVuSans-35" d="M 691 4666 
L 3169 4666 
L 3169 4134 
L 1269 4134 
L 1269 2991 
Q 1406 3038 1543 3061 
Q 1681 3084 1819 3084 
Q 2600 3084 3056 2656 
Q 3513 2228 3513 1497 
Q 3513 744 3044 326 
Q 2575 -91 1722 -91 
Q 1428 -91 1123 -41 
Q 819 9 494 109 
L 494 744 
Q 775 591 1075 516 
Q 1375 441 1709 441 
Q 2250 441 2565 725 
Q 2881 1009 2881 1497 
Q 2881 1984 2565 2268 
Q 2250 2553 1709 2553 
Q 1456 2553 1204 2497 
Q 953 2441 691 2322 
L 691 4666 
z
" transform="scale(0.015625)"/>
       </defs>
       <use xlink:href="#DejaVuSans-35"/>
       <use xlink:href="#DejaVuSans-30" x="63.623047"/>
       <use xlink:href="#DejaVuSans-30" x="127.246094"/>
      </g>
     </g>
    </g>
    <g id="text_8">
     <!-- Time from Stimulus Onset (ms) -->
     <g transform="translate(320.273438 436.162187) scale(0.18 -0.18)">
      <defs>
       <path id="DejaVuSans-54" d="M -19 4666 
L 3928 4666 
L 3928 4134 
L 2272 4134 
L 2272 0 
L 1638 0 
L 1638 4134 
L -19 4134 
L -19 4666 
z
" transform="scale(0.015625)"/>
       <path id="DejaVuSans-69" d="M 603 3500 
L 1178 3500 
L 1178 0 
L 603 0 
L 603 3500 
z
M 603 4863 
L 1178 4863 
L 1178 4134 
L 603 4134 
L 603 4863 
z
" transform="scale(0.015625)"/>
       <path id="DejaVuSans-6d" d="M 3328 2828 
Q 3544 3216 3844 3400 
Q 4144 3584 4550 3584 
Q 5097 3584 5394 3201 
Q 5691 2819 5691 2113 
L 5691 0 
L 5113 0 
L 5113 2094 
Q 5113 2597 4934 2840 
Q 4756 3084 4391 3084 
Q 3944 3084 3684 2787 
Q 3425 2491 3425 1978 
L 3425 0 
L 2847 0 
L 2847 2094 
Q 2847 2600 2669 2842 
Q 2491 3084 2119 3084 
Q 1678 3084 1418 2786 
Q 1159 2488 1159 1978 
L 1159 0 
L 581 0 
L 581 3500 
L 1159 3500 
L 1159 2956 
Q 1356 3278 1631 3431 
Q 1906 3584 2284 3584 
Q 2666 3584 2933 3390 
Q 3200 3197 3328 2828 
z
" transform="scale(0.015625)"/>
       <path id="DejaVuSans-65" d="M 3597 1894 
L 3597 1613 
L 953 1613 
Q 991 1019 1311 708 
Q 1631 397 2203 397 
Q 2534 397 2845 478 
Q 3156 559 3463 722 
L 3463 178 
Q 3153 47 2828 -22 
Q 2503 -91 2169 -91 
Q 1331 -91 842 396 
Q 353 884 353 1716 
Q 353 2575 817 3079 
Q 1281 3584 2069 3584 
Q 2775 3584 3186 3129 
Q 3597 2675 3597 1894 
z
M 3022 2063 
Q 3016 2534 2758 2815 
Q 2500 3097 2075 3097 
Q 1594 3097 1305 2825 
Q 1016 2553 972 2059 
L 3022 2063 
z
" transform="scale(0.015625)"/>
       <path id="DejaVuSans-20" transform="scale(0.015625)"/>
       <path id="DejaVuSans-66" d="M 2375 4863 
L 2375 4384 
L 1825 4384 
Q 1516 4384 1395 4259 
Q 1275 4134 1275 3809 
L 1275 3500 
L 2222 3500 
L 2222 3053 
L 1275 3053 
L 1275 0 
L 697 0 
L 697 3053 
L 147 3053 
L 147 3500 
L 697 3500 
L 697 3744 
Q 697 4328 969 4595 
Q 1241 4863 1831 4863 
L 2375 4863 
z
" transform="scale(0.015625)"/>
       <path id="DejaVuSans-72" d="M 2631 2963 
Q 2534 3019 2420 3045 
Q 2306 3072 2169 3072 
Q 1681 3072 1420 2755 
Q 1159 2438 1159 1844 
L 1159 0 
L 581 0 
L 581 3500 
L 1159 3500 
L 1159 2956 
Q 1341 3275 1631 3429 
Q 1922 3584 2338 3584 
Q 2397 3584 2469 3576 
Q 2541 3569 2628 3553 
L 2631 2963 
z
" transform="scale(0.015625)"/>
       <path id="DejaVuSans-6f" d="M 1959 3097 
Q 1497 3097 1228 2736 
Q 959 2375 959 1747 
Q 959 1119 1226 758 
Q 1494 397 1959 397 
Q 2419 397 2687 759 
Q 2956 1122 2956 1747 
Q 2956 2369 2687 2733 
Q 2419 3097 1959 3097 
z
M 1959 3584 
Q 2709 3584 3137 3096 
Q 3566 2609 3566 1747 
Q 3566 888 3137 398 
Q 2709 -91 1959 -91 
Q 1206 -91 779 398 
Q 353 888 353 1747 
Q 353 2609 779 3096 
Q 1206 3584 1959 3584 
z
" transform="scale(0.015625)"/>
       <path id="DejaVuSans-53" d="M 3425 4513 
L 3425 3897 
Q 3066 4069 2747 4153 
Q 2428 4238 2131 4238 
Q 1616 4238 1336 4038 
Q 1056 3838 1056 3469 
Q 1056 3159 1242 3001 
Q 1428 2844 1947 2747 
L 2328 2669 
Q 3034 2534 3370 2195 
Q 3706 1856 3706 1288 
Q 3706 609 3251 259 
Q 2797 -91 1919 -91 
Q 1588 -91 1214 -16 
Q 841 59 441 206 
L 441 856 
Q 825 641 1194 531 
Q 1563 422 1919 422 
Q 2459 422 2753 634 
Q 3047 847 3047 1241 
Q 3047 1584 2836 1778 
Q 2625 1972 2144 2069 
L 1759 2144 
Q 1053 2284 737 2584 
Q 422 2884 422 3419 
Q 422 4038 858 4394 
Q 1294 4750 2059 4750 
Q 2388 4750 2728 4690 
Q 3069 4631 3425 4513 
z
" transform="scale(0.015625)"/>
       <path id="DejaVuSans-74" d="M 1172 4494 
L 1172 3500 
L 2356 3500 
L 2356 3053 
L 1172 3053 
L 1172 1153 
Q 1172 725 1289 603 
Q 1406 481 1766 481 
L 2356 481 
L 2356 0 
L 1766 0 
Q 1100 0 847 248 
Q 594 497 594 1153 
L 594 3053 
L 172 3053 
L 172 3500 
L 594 3500 
L 594 4494 
L 1172 4494 
z
" transform="scale(0.015625)"/>
       <path id="DejaVuSans-75" d="M 544 1381 
L 544 3500 
L 1119 3500 
L 1119 1403 
Q 1119 906 1312 657 
Q 1506 409 1894 409 
Q 2359 409 2629 706 
Q 2900 1003 2900 1516 
L 2900 3500 
L 3475 3500 
L 3475 0 
L 2900 0 
L 2900 538 
Q 2691 219 2414 64 
Q 2138 -91 1772 -91 
Q 1169 -91 856 284 
Q 544 659 544 1381 
z
M 1991 3584 
L 1991 3584 
z
" transform="scale(0.015625)"/>
       <path id="DejaVuSans-6c" d="M 603 4863 
L 1178 4863 
L 1178 0 
L 603 0 
L 603 4863 
z
" transform="scale(0.015625)"/>
       <path id="DejaVuSans-73" d="M 2834 3397 
L 2834 2853 
Q 2591 2978 2328 3040 
Q 2066 3103 1784 3103 
Q 1356 3103 1142 2972 
Q 928 2841 928 2578 
Q 928 2378 1081 2264 
Q 1234 2150 1697 2047 
L 1894 2003 
Q 2506 1872 2764 1633 
Q 3022 1394 3022 966 
Q 3022 478 2636 193 
Q 2250 -91 1575 -91 
Q 1294 -91 989 -36 
Q 684 19 347 128 
L 347 722 
Q 666 556 975 473 
Q 1284 391 1588 391 
Q 1994 391 2212 530 
Q 2431 669 2431 922 
Q 2431 1156 2273 1281 
Q 2116 1406 1581 1522 
L 1381 1569 
Q 847 1681 609 1914 
Q 372 2147 372 2553 
Q 372 3047 722 3315 
Q 1072 3584 1716 3584 
Q 2034 3584 2315 3537 
Q 2597 3491 2834 3397 
z
" transform="scale(0.015625)"/>
       <path id="DejaVuSans-4f" d="M 2522 4238 
Q 1834 4238 1429 3725 
Q 1025 3213 1025 2328 
Q 1025 1447 1429 934 
Q 1834 422 2522 422 
Q 3209 422 3611 934 
Q 4013 1447 4013 2328 
Q 4013 3213 3611 3725 
Q 3209 4238 2522 4238 
z
M 2522 4750 
Q 3503 4750 4090 4092 
Q 4678 3434 4678 2328 
Q 4678 1225 4090 567 
Q 3503 -91 2522 -91 
Q 1538 -91 948 565 
Q 359 1222 359 2328 
Q 359 3434 948 4092 
Q 1538 4750 2522 4750 
z
" transform="scale(0.015625)"/>
       <path id="DejaVuSans-6e" d="M 3513 2113 
L 3513 0 
L 2938 0 
L 2938 2094 
Q 2938 2591 2744 2837 
Q 2550 3084 2163 3084 
Q 1697 3084 1428 2787 
Q 1159 2491 1159 1978 
L 1159 0 
L 581 0 
L 581 3500 
L 1159 3500 
L 1159 2956 
Q 1366 3272 1645 3428 
Q 1925 3584 2291 3584 
Q 2894 3584 3203 3211 
Q 3513 2838 3513 2113 
z
" transform="scale(0.015625)"/>
       <path id="DejaVuSans-28" d="M 1984 4856 
Q 1566 4138 1362 3434 
Q 1159 2731 1159 2009 
Q 1159 1288 1364 580 
Q 1569 -128 1984 -844 
L 1484 -844 
Q 1016 -109 783 600 
Q 550 1309 550 2009 
Q 550 2706 781 3412 
Q 1013 4119 1484 4856 
L 1984 4856 
z
" transform="scale(0.015625)"/>
       <path id="DejaVuSans-29" d="M 513 4856 
L 1013 4856 
Q 1481 4119 1714 3412 
Q 1947 2706 1947 2009 
Q 1947 1309 1714 600 
Q 1481 -109 1013 -844 
L 513 -844 
Q 928 -128 1133 580 
Q 1338 1288 1338 2009 
Q 1338 2731 1133 3434 
Q 928 4138 513 4856 
z
" transform="scale(0.015625)"/>
      </defs>
      <use xlink:href="#DejaVuSans-54"/>
      <use xlink:href="#DejaVuSans-69" x="57.958984"/>
      <use xlink:href="#DejaVuSans-6d" x="85.742188"/>
      <use xlink:href="#DejaVuSans-65" x="183.154297"/>
      <use xlink:href="#DejaVuSans-20" x="244.677734"/>
      <use xlink:href="#DejaVuSans-66" x="276.464844"/>
      <use xlink:href="#DejaVuSans-72" x="311.669922"/>
      <use xlink:href="#DejaVuSans-6f" x="350.533203"/>
      <use xlink:href="#DejaVuSans-6d" x="411.714844"/>
      <use xlink:href="#DejaVuSans-20" x="509.126953"/>
      <use xlink:href="#DejaVuSans-53" x="540.914062"/>
      <use xlink:href="#DejaVuSans-74" x="604.390625"/>
      <use xlink:href="#DejaVuSans-69" x="643.599609"/>
      <use xlink:href="#DejaVuSans-6d" x="671.382812"/>
      <use xlink:href="#DejaVuSans-75" x="768.794922"/>
      <use xlink:href="#DejaVuSans-6c" x="832.173828"/>
      <use xlink:href="#DejaVuSans-75" x="859.957031"/>
      <use xlink:href="#DejaVuSans-73" x="923.335938"/>
      <use xlink:href="#DejaVuSans-20" x="975.435547"/>
      <use xlink:href="#DejaVuSans-4f" x="1007.222656"/>
      <use xlink:href="#DejaVuSans-6e" x="1085.933594"/>
      <use xlink:href="#DejaVuSans-73" x="1149.3125"/>
      <use xlink:href="#DejaVuSans-65" x="1201.412109"/>
      <use xlink:href="#DejaVuSans-74" x="1262.935547"/>
      <use xlink:href="#DejaVuSans-20" x="1302.144531"/>
      <use xlink:href="#DejaVuSans-28" x="1333.931641"/>
      <use xlink:href="#DejaVuSans-6d" x="1372.945312"/>
      <use xlink:href="#DejaVuSans-73" x="1470.357422"/>
      <use xlink:href="#DejaVuSans-29" x="1522.457031"/>
     </g>
    </g>
   </g>
   <g id="matplotlib.axis_2">
    <g id="ytick_1">
     <g id="line2d_8">
      <defs>
       <path id="ma7a26e002d" d="M 0 0 
L -3.5 0 
" style="stroke: #000000; stroke-width: 0.8"/>
      </defs>
      <g>
       <use xlink:href="#ma7a26e002d" x="100.8" y="382.687955" style="stroke: #000000; stroke-width: 0.8"/>
      </g>
     </g>
     <g id="text_9">
      <!-- −0.005 -->
      <g transform="translate(34.5875 388.766705) scale(0.16 -0.16)">
       <defs>
        <path id="DejaVuSans-2e" d="M 684 794 
L 1344 794 
L 1344 0 
L 684 0 
L 684 794 
z
" transform="scale(0.015625)"/>
       </defs>
       <use xlink:href="#DejaVuSans-2212"/>
       <use xlink:href="#DejaVuSans-30" x="83.789062"/>
       <use xlink:href="#DejaVuSans-2e" x="147.412109"/>
       <use xlink:href="#DejaVuSans-30" x="179.199219"/>
       <use xlink:href="#DejaVuSans-30" x="242.822266"/>
       <use xlink:href="#DejaVuSans-35" x="306.445312"/>
      </g>
     </g>
    </g>
    <g id="ytick_2">
     <g id="line2d_9">
      <g>
       <use xlink:href="#ma7a26e002d" x="100.8" y="322.797125" style="stroke: #000000; stroke-width: 0.8"/>
      </g>
     </g>
     <g id="text_10">
      <!-- 0.000 -->
      <g transform="translate(47.995 328.875875) scale(0.16 -0.16)">
       <use xlink:href="#DejaVuSans-30"/>
       <use xlink:href="#DejaVuSans-2e" x="63.623047"/>
       <use xlink:href="#DejaVuSans-30" x="95.410156"/>
       <use xlink:href="#DejaVuSans-30" x="159.033203"/>
       <use xlink:href="#DejaVuSans-30" x="222.65625"/>
      </g>
     </g>
    </g>
    <g id="ytick_3">
     <g id="line2d_10">
      <g>
       <use xlink:href="#ma7a26e002d" x="100.8" y="262.906296" style="stroke: #000000; stroke-width: 0.8"/>
      </g>
     </g>
     <g id="text_11">
      <!-- 0.005 -->
      <g transform="translate(47.995 268.985046) scale(0.16 -0.16)">
       <use xlink:href="#DejaVuSans-30"/>
       <use xlink:href="#DejaVuSans-2e" x="63.623047"/>
       <use xlink:href="#DejaVuSans-30" x="95.410156"/>
       <use xlink:href="#DejaVuSans-30" x="159.033203"/>
       <use xlink:href="#DejaVuSans-35" x="222.65625"/>
      </g>
     </g>
    </g>
    <g id="ytick_4">
     <g id="line2d_11">
      <g>
       <use xlink:href="#ma7a26e002d" x="100.8" y="203.015466" style="stroke: #000000; stroke-width: 0.8"/>
      </g>
     </g>
     <g id="text_12">
      <!-- 0.010 -->
      <g transform="translate(47.995 209.094216) scale(0.16 -0.16)">
       <use xlink:href="#DejaVuSans-30"/>
       <use xlink:href="#DejaVuSans-2e" x="63.623047"/>
       <use xlink:href="#DejaVuSans-30" x="95.410156"/>
       <use xlink:href="#DejaVuSans-31" x="159.033203"/>
       <use xlink:href="#DejaVuSans-30" x="222.65625"/>
      </g>
     </g>
    </g>
    <g id="ytick_5">
     <g id="line2d_12">
      <g>
       <use xlink:href="#ma7a26e002d" x="100.8" y="143.124637" style="stroke: #000000; stroke-width: 0.8"/>
      </g>
     </g>
     <g id="text_13">
      <!-- 0.015 -->
      <g transform="translate(47.995 149.203387) scale(0.16 -0.16)">
       <use xlink:href="#DejaVuSans-30"/>
       <use xlink:href="#DejaVuSans-2e" x="63.623047"/>
       <use xlink:href="#DejaVuSans-30" x="95.410156"/>
       <use xlink:href="#DejaVuSans-31" x="159.033203"/>
       <use xlink:href="#DejaVuSans-35" x="222.65625"/>
      </g>
     </g>
    </g>
    <g id="ytick_6">
     <g id="line2d_13">
      <g>
       <use xlink:href="#ma7a26e002d" x="100.8" y="83.233807" style="stroke: #000000; stroke-width: 0.8"/>
      </g>
     </g>
     <g id="text_14">
      <!-- 0.020 -->
      <g transform="translate(47.995 89.312557) scale(0.16 -0.16)">
       <use xlink:href="#DejaVuSans-30"/>
       <use xlink:href="#DejaVuSans-2e" x="63.623047"/>
       <use xlink:href="#DejaVuSans-30" x="95.410156"/>
       <use xlink:href="#DejaVuSans-32" x="159.033203"/>
       <use xlink:href="#DejaVuSans-30" x="222.65625"/>
      </g>
     </g>
    </g>
    <g id="text_15">
     <!-- Directed predictability gain (bits) -->
     <g transform="translate(26.844062 364.685625) rotate(-90) scale(0.18 -0.18)">
      <defs>
       <path id="DejaVuSans-44" d="M 1259 4147 
L 1259 519 
L 2022 519 
Q 2988 519 3436 956 
Q 3884 1394 3884 2338 
Q 3884 3275 3436 3711 
Q 2988 4147 2022 4147 
L 1259 4147 
z
M 628 4666 
L 1925 4666 
Q 3281 4666 3915 4102 
Q 4550 3538 4550 2338 
Q 4550 1131 3912 565 
Q 3275 0 1925 0 
L 628 0 
L 628 4666 
z
" transform="scale(0.015625)"/>
       <path id="DejaVuSans-63" d="M 3122 3366 
L 3122 2828 
Q 2878 2963 2633 3030 
Q 2388 3097 2138 3097 
Q 1578 3097 1268 2742 
Q 959 2388 959 1747 
Q 959 1106 1268 751 
Q 1578 397 2138 397 
Q 2388 397 2633 464 
Q 2878 531 3122 666 
L 3122 134 
Q 2881 22 2623 -34 
Q 2366 -91 2075 -91 
Q 1284 -91 818 406 
Q 353 903 353 1747 
Q 353 2603 823 3093 
Q 1294 3584 2113 3584 
Q 2378 3584 2631 3529 
Q 2884 3475 3122 3366 
z
" transform="scale(0.015625)"/>
       <path id="DejaVuSans-64" d="M 2906 2969 
L 2906 4863 
L 3481 4863 
L 3481 0 
L 2906 0 
L 2906 525 
Q 2725 213 2448 61 
Q 2172 -91 1784 -91 
Q 1150 -91 751 415 
Q 353 922 353 1747 
Q 353 2572 751 3078 
Q 1150 3584 1784 3584 
Q 2172 3584 2448 3432 
Q 2725 3281 2906 2969 
z
M 947 1747 
Q 947 1113 1208 752 
Q 1469 391 1925 391 
Q 2381 391 2643 752 
Q 2906 1113 2906 1747 
Q 2906 2381 2643 2742 
Q 2381 3103 1925 3103 
Q 1469 3103 1208 2742 
Q 947 2381 947 1747 
z
" transform="scale(0.015625)"/>
       <path id="DejaVuSans-70" d="M 1159 525 
L 1159 -1331 
L 581 -1331 
L 581 3500 
L 1159 3500 
L 1159 2969 
Q 1341 3281 1617 3432 
Q 1894 3584 2278 3584 
Q 2916 3584 3314 3078 
Q 3713 2572 3713 1747 
Q 3713 922 3314 415 
Q 2916 -91 2278 -91 
Q 1894 -91 1617 61 
Q 1341 213 1159 525 
z
M 3116 1747 
Q 3116 2381 2855 2742 
Q 2594 3103 2138 3103 
Q 1681 3103 1420 2742 
Q 1159 2381 1159 1747 
Q 1159 1113 1420 752 
Q 1681 391 2138 391 
Q 2594 391 2855 752 
Q 3116 1113 3116 1747 
z
" transform="scale(0.015625)"/>
       <path id="DejaVuSans-61" d="M 2194 1759 
Q 1497 1759 1228 1600 
Q 959 1441 959 1056 
Q 959 750 1161 570 
Q 1363 391 1709 391 
Q 2188 391 2477 730 
Q 2766 1069 2766 1631 
L 2766 1759 
L 2194 1759 
z
M 3341 1997 
L 3341 0 
L 2766 0 
L 2766 531 
Q 2569 213 2275 61 
Q 1981 -91 1556 -91 
Q 1019 -91 701 211 
Q 384 513 384 1019 
Q 384 1609 779 1909 
Q 1175 2209 1959 2209 
L 2766 2209 
L 2766 2266 
Q 2766 2663 2505 2880 
Q 2244 3097 1772 3097 
Q 1472 3097 1187 3025 
Q 903 2953 641 2809 
L 641 3341 
Q 956 3463 1253 3523 
Q 1550 3584 1831 3584 
Q 2591 3584 2966 3190 
Q 3341 2797 3341 1997 
z
" transform="scale(0.015625)"/>
       <path id="DejaVuSans-62" d="M 3116 1747 
Q 3116 2381 2855 2742 
Q 2594 3103 2138 3103 
Q 1681 3103 1420 2742 
Q 1159 2381 1159 1747 
Q 1159 1113 1420 752 
Q 1681 391 2138 391 
Q 2594 391 2855 752 
Q 3116 1113 3116 1747 
z
M 1159 2969 
Q 1341 3281 1617 3432 
Q 1894 3584 2278 3584 
Q 2916 3584 3314 3078 
Q 3713 2572 3713 1747 
Q 3713 922 3314 415 
Q 2916 -91 2278 -91 
Q 1894 -91 1617 61 
Q 1341 213 1159 525 
L 1159 0 
L 581 0 
L 581 4863 
L 1159 4863 
L 1159 2969 
z
" transform="scale(0.015625)"/>
       <path id="DejaVuSans-79" d="M 2059 -325 
Q 1816 -950 1584 -1140 
Q 1353 -1331 966 -1331 
L 506 -1331 
L 506 -850 
L 844 -850 
Q 1081 -850 1212 -737 
Q 1344 -625 1503 -206 
L 1606 56 
L 191 3500 
L 800 3500 
L 1894 763 
L 2988 3500 
L 3597 3500 
L 2059 -325 
z
" transform="scale(0.015625)"/>
       <path id="DejaVuSans-67" d="M 2906 1791 
Q 2906 2416 2648 2759 
Q 2391 3103 1925 3103 
Q 1463 3103 1205 2759 
Q 947 2416 947 1791 
Q 947 1169 1205 825 
Q 1463 481 1925 481 
Q 2391 481 2648 825 
Q 2906 1169 2906 1791 
z
M 3481 434 
Q 3481 -459 3084 -895 
Q 2688 -1331 1869 -1331 
Q 1566 -1331 1297 -1286 
Q 1028 -1241 775 -1147 
L 775 -588 
Q 1028 -725 1275 -790 
Q 1522 -856 1778 -856 
Q 2344 -856 2625 -561 
Q 2906 -266 2906 331 
L 2906 616 
Q 2728 306 2450 153 
Q 2172 0 1784 0 
Q 1141 0 747 490 
Q 353 981 353 1791 
Q 353 2603 747 3093 
Q 1141 3584 1784 3584 
Q 2172 3584 2450 3431 
Q 2728 3278 2906 2969 
L 2906 3500 
L 3481 3500 
L 3481 434 
z
" transform="scale(0.015625)"/>
      </defs>
      <use xlink:href="#DejaVuSans-44"/>
      <use xlink:href="#DejaVuSans-69" x="77.001953"/>
      <use xlink:href="#DejaVuSans-72" x="104.785156"/>
      <use xlink:href="#DejaVuSans-65" x="143.648438"/>
      <use xlink:href="#DejaVuSans-63" x="205.171875"/>
      <use xlink:href="#DejaVuSans-74" x="260.152344"/>
      <use xlink:href="#DejaVuSans-65" x="299.361328"/>
      <use xlink:href="#DejaVuSans-64" x="360.884766"/>
      <use xlink:href="#DejaVuSans-20" x="424.361328"/>
      <use xlink:href="#DejaVuSans-70" x="456.148438"/>
      <use xlink:href="#DejaVuSans-72" x="519.625"/>
      <use xlink:href="#DejaVuSans-65" x="558.488281"/>
      <use xlink:href="#DejaVuSans-64" x="620.011719"/>
      <use xlink:href="#DejaVuSans-69" x="683.488281"/>
      <use xlink:href="#DejaVuSans-63" x="711.271484"/>
      <use xlink:href="#DejaVuSans-74" x="766.251953"/>
      <use xlink:href="#DejaVuSans-61" x="805.460938"/>
      <use xlink:href="#DejaVuSans-62" x="866.740234"/>
      <use xlink:href="#DejaVuSans-69" x="930.216797"/>
      <use xlink:href="#DejaVuSans-6c" x="958"/>
      <use xlink:href="#DejaVuSans-69" x="985.783203"/>
      <use xlink:href="#DejaVuSans-74" x="1013.566406"/>
      <use xlink:href="#DejaVuSans-79" x="1052.775391"/>
      <use xlink:href="#DejaVuSans-20" x="1111.955078"/>
      <use xlink:href="#DejaVuSans-67" x="1143.742188"/>
      <use xlink:href="#DejaVuSans-61" x="1207.21875"/>
      <use xlink:href="#DejaVuSans-69" x="1268.498047"/>
      <use xlink:href="#DejaVuSans-6e" x="1296.28125"/>
      <use xlink:href="#DejaVuSans-20" x="1359.660156"/>
      <use xlink:href="#DejaVuSans-28" x="1391.447266"/>
      <use xlink:href="#DejaVuSans-62" x="1430.460938"/>
      <use xlink:href="#DejaVuSans-69" x="1493.9375"/>
      <use xlink:href="#DejaVuSans-74" x="1521.720703"/>
      <use xlink:href="#DejaVuSans-73" x="1560.929688"/>
      <use xlink:href="#DejaVuSans-29" x="1613.029297"/>
     </g>
    </g>
   </g>
   <g id="line2d_14">
    <path d="M 220.8 396 
L 220.8 36 
" clip-path="url(#pc4a30f8914)" style="fill: none; stroke-dasharray: 2.96,1.28; stroke-dashoffset: 0; stroke: #000000; stroke-width: 0.8"/>
   </g>
   <g id="line2d_15">
    <path d="M 100.8 322.797125 
L 820.8 322.797125 
" clip-path="url(#pc4a30f8914)" style="fill: none; stroke-dasharray: 0.8,1.32; stroke-dashoffset: 0; stroke: #000000; stroke-width: 0.8"/>
   </g>
   <g id="line2d_16">
    <path d="M -1 308.995144 
L 4.8 297.987472 
L 16.799998 310.2213 
L 28.799995 313.611318 
L 40.800002 302.955297 
L 52.799999 304.097435 
L 64.799997 306.631462 
L 76.799999 333.953331 
L 88.800001 327.341878 
L 100.800003 323.651874 
L 112.8 306.325305 
L 124.799998 321.702413 
L 136.8 322.302697 
L 148.800002 318.779812 
L 160.799999 311.782457 
L 172.799999 303.666691 
L 184.8 309.75934 
L 196.8 307.487537 
L 208.8 305.914623 
L 220.8 320.863448 
L 232.8 310.230509 
L 244.8 312.313408 
L 256.8 311.791456 
L 268.800001 317.422538 
L 280.800001 313.598556 
L 292.799998 296.419717 
L 304.8 312.780988 
L 316.800002 317.412026 
L 328.8 336.002802 
L 340.799997 317.877145 
L 352.799999 315.114499 
L 364.800001 314.722252 
L 376.800003 319.052879 
L 388.800001 324.378886 
L 400.799998 302.276366 
L 412.800005 304.228592 
L 424.800002 304.614007 
L 436.8 304.85584 
L 448.799997 302.029378 
L 460.799995 267.327565 
L 472.800001 246.981295 
L 484.799999 225.835874 
L 496.799996 238.257102 
L 508.800003 239.118172 
L 520.8 232.629756 
L 532.799989 218.582044 
L 544.799995 178.852331 
L 556.800001 173.332132 
L 568.79999 171.469623 
L 580.799996 199.091367 
L 592.800003 211.371691 
L 604.799991 180.413597 
L 616.799998 180.39802 
L 628.800004 148.760342 
L 640.799993 197.760954 
L 652.799999 202.558968 
L 664.800006 231.837099 
L 676.799994 226.033043 
L 688.800001 256.543797 
L 700.800007 249.871701 
L 712.799996 251.516912 
L 724.800002 241.864032 
L 736.800009 268.930912 
L 748.799997 266.321822 
L 760.800004 260.87697 
L 772.80001 234.101213 
L 784.799999 224.43967 
L 796.800005 258.153553 
L 808.800011 258.25073 
L 820.8 291.817114 
L 832.799989 271.435637 
L 844.799977 293.983416 
L 856.800001 293.616742 
L 857.8 294.89888 
" clip-path="url(#pc4a30f8914)" style="fill: none; stroke: #0072b2; stroke-width: 2.5; stroke-linecap: square"/>
   </g>
   <g id="line2d_17">
    <path d="M -1 334.301006 
L 4.8 341.168062 
L 16.799998 351.899069 
L 28.799995 317.093916 
L 40.800002 309.883453 
L 52.799999 297.190894 
L 64.799997 326.756883 
L 76.799999 326.570361 
L 88.800001 317.379684 
L 100.800003 316.487339 
L 112.8 319.898924 
L 124.799998 346.267072 
L 136.8 337.660155 
L 148.800002 339.292902 
L 160.799999 322.342873 
L 172.799999 332.522557 
L 184.8 327.01166 
L 196.8 324.281973 
L 208.8 319.303408 
L 220.8 322.681936 
L 232.8 312.055632 
L 244.8 311.482239 
L 256.8 292.489597 
L 268.800001 316.635195 
L 280.800001 318.547866 
L 292.799998 343.032644 
L 304.8 341.239405 
L 316.800002 340.986517 
L 328.8 325.565544 
L 340.799997 323.721516 
L 352.799999 324.559782 
L 364.800001 328.877974 
L 376.800003 332.398696 
L 388.800001 334.72813 
L 400.799998 345.498928 
L 412.800005 339.998875 
L 424.800002 325.958939 
L 436.8 317.49304 
L 448.799997 302.309866 
L 460.799995 284.548896 
L 472.800001 274.9316 
L 484.799999 263.500321 
L 496.799996 237.895652 
L 508.800003 244.435188 
L 520.8 236.366836 
L 532.799989 269.6067 
L 544.799995 254.458566 
L 556.800001 268.86565 
L 568.79999 256.963313 
L 580.799996 236.581709 
L 592.800003 227.942105 
L 604.799991 210.919628 
L 616.799998 252.549497 
L 628.800004 273.654639 
L 640.799993 294.094387 
L 652.799999 281.767014 
L 664.800006 260.655391 
L 676.799994 267.077897 
L 688.800001 273.917777 
L 700.800007 282.34679 
L 712.799996 296.838419 
L 724.800002 288.19761 
L 736.800009 268.80123 
L 748.799997 256.936476 
L 760.800004 246.832258 
L 772.80001 261.032331 
L 784.799999 273.157855 
L 796.800005 297.838156 
L 808.800011 309.993438 
L 820.8 323.177188 
L 832.799989 294.696943 
L 844.799977 290.606418 
L 856.800001 260.727044 
L 857.8 261.993681 
" clip-path="url(#pc4a30f8914)" style="fill: none; stroke: #d55e00; stroke-width: 2.5; stroke-linecap: square"/>
   </g>
   <g id="patch_3">
    <path d="M 100.8 396 
L 100.8 36 
" style="fill: none; stroke: #000000; stroke-width: 0.8; stroke-linejoin: miter; stroke-linecap: square"/>
   </g>
   <g id="patch_4">
    <path d="M 820.8 396 
L 820.8 36 
" style="fill: none; stroke: #000000; stroke-width: 0.8; stroke-linejoin: miter; stroke-linecap: square"/>
   </g>
   <g id="patch_5">
    <path d="M 100.8 396 
L 820.8 396 
" style="fill: none; stroke: #000000; stroke-width: 0.8; stroke-linejoin: miter; stroke-linecap: square"/>
   </g>
   <g id="patch_6">
    <path d="M 100.8 36 
L 820.8 36 
" style="fill: none; stroke: #000000; stroke-width: 0.8; stroke-linejoin: miter; stroke-linecap: square"/>
   </g>
   <g id="PathCollection_1">
    <defs>
     <path id="mdf3249a015" d="M 0 1.870829 
C 0.49615 1.870829 0.972045 1.673706 1.322876 1.322876 
C 1.673706 0.972045 1.870829 0.49615 1.870829 0 
C 1.870829 -0.49615 1.673706 -0.972045 1.322876 -1.322876 
C 0.972045 -1.673706 0.49615 -1.870829 0 -1.870829 
C -0.49615 -1.870829 -0.972045 -1.673706 -1.322876 -1.322876 
C -1.673706 -0.972045 -1.870829 -0.49615 -1.870829 0 
C -1.870829 0.49615 -1.673706 0.972045 -1.322876 1.322876 
C -0.972045 1.673706 -0.49615 1.870829 0 1.870829 
z
" style="stroke: #000000"/>
    </defs>
    <g clip-path="url(#pc4a30f8914)">
     <use xlink:href="#mdf3249a015" x="4.8" y="378" style="stroke: #000000"/>
     <use xlink:href="#mdf3249a015" x="16.799998" y="378" style="stroke: #000000"/>
     <use xlink:href="#mdf3249a015" x="292.799998" y="378" style="stroke: #000000"/>
     <use xlink:href="#mdf3249a015" x="400.799998" y="378" style="stroke: #000000"/>
     <use xlink:href="#mdf3249a015" x="412.800005" y="378" style="stroke: #000000"/>
     <use xlink:href="#mdf3249a015" x="532.799989" y="378" style="stroke: #000000"/>
     <use xlink:href="#mdf3249a015" x="544.799995" y="378" style="stroke: #000000"/>
     <use xlink:href="#mdf3249a015" x="556.800001" y="378" style="stroke: #000000"/>
     <use xlink:href="#mdf3249a015" x="568.79999" y="378" style="stroke: #000000"/>
     <use xlink:href="#mdf3249a015" x="808.800011" y="378" style="stroke: #000000"/>
     <use xlink:href="#mdf3249a015" x="964.800006" y="378" style="stroke: #000000"/>
     <use xlink:href="#mdf3249a015" x="1072.799974" y="378" style="stroke: #000000"/>
    </g>
   </g>
   <g id="legend_1">
    <g id="line2d_18">
     <path d="M 114.3 55.647656 
L 129.3 55.647656 
L 144.3 55.647656 
" style="fill: none; stroke: #0072b2; stroke-width: 2.5; stroke-linecap: square"/>
    </g>
    <g id="text_16">
     <!-- SFEF→SSC -->
     <g transform="translate(156.3 60.897656) scale(0.15 -0.15)">
      <defs>
       <path id="DejaVuSans-46" d="M 628 4666 
L 3309 4666 
L 3309 4134 
L 1259 4134 
L 1259 2759 
L 3109 2759 
L 3109 2228 
L 1259 2228 
L 1259 0 
L 628 0 
L 628 4666 
z
" transform="scale(0.015625)"/>
       <path id="DejaVuSans-45" d="M 628 4666 
L 3578 4666 
L 3578 4134 
L 1259 4134 
L 1259 2753 
L 3481 2753 
L 3481 2222 
L 1259 2222 
L 1259 531 
L 3634 531 
L 3634 0 
L 628 0 
L 628 4666 
z
" transform="scale(0.015625)"/>
       <path id="DejaVuSans-2192" d="M 5050 2147 
L 5050 1866 
L 3822 638 
L 3447 1013 
L 4175 1741 
L 366 1741 
L 366 2272 
L 4175 2272 
L 3447 3000 
L 3822 3375 
L 5050 2147 
z
" transform="scale(0.015625)"/>
       <path id="DejaVuSans-43" d="M 4122 4306 
L 4122 3641 
Q 3803 3938 3442 4084 
Q 3081 4231 2675 4231 
Q 1875 4231 1450 3742 
Q 1025 3253 1025 2328 
Q 1025 1406 1450 917 
Q 1875 428 2675 428 
Q 3081 428 3442 575 
Q 3803 722 4122 1019 
L 4122 359 
Q 3791 134 3420 21 
Q 3050 -91 2638 -91 
Q 1578 -91 968 557 
Q 359 1206 359 2328 
Q 359 3453 968 4101 
Q 1578 4750 2638 4750 
Q 3056 4750 3426 4639 
Q 3797 4528 4122 4306 
z
" transform="scale(0.015625)"/>
      </defs>
      <use xlink:href="#DejaVuSans-53"/>
      <use xlink:href="#DejaVuSans-46" x="63.476562"/>
      <use xlink:href="#DejaVuSans-45" x="120.996094"/>
      <use xlink:href="#DejaVuSans-46" x="184.179688"/>
      <use xlink:href="#DejaVuSans-2192" x="241.699219"/>
      <use xlink:href="#DejaVuSans-53" x="325.488281"/>
      <use xlink:href="#DejaVuSans-53" x="388.964844"/>
      <use xlink:href="#DejaVuSans-43" x="452.441406"/>
     </g>
    </g>
    <g id="line2d_19">
     <path d="M 114.3 77.664844 
L 129.3 77.664844 
L 144.3 77.664844 
" style="fill: none; stroke: #d55e00; stroke-width: 2.5; stroke-linecap: square"/>
    </g>
    <g id="text_17">
     <!-- SSC→SFEF -->
     <g transform="translate(156.3 82.914844) scale(0.15 -0.15)">
      <use xlink:href="#DejaVuSans-53"/>
      <use xlink:href="#DejaVuSans-53" x="63.476562"/>
      <use xlink:href="#DejaVuSans-43" x="126.953125"/>
      <use xlink:href="#DejaVuSans-2192" x="196.777344"/>
      <use xlink:href="#DejaVuSans-53" x="280.566406"/>
      <use xlink:href="#DejaVuSans-46" x="344.042969"/>
      <use xlink:href="#DejaVuSans-45" x="401.5625"/>
      <use xlink:href="#DejaVuSans-46" x="464.746094"/>
     </g>
    </g>
    <g id="PathCollection_2">
     <g>
      <use xlink:href="#mdf3249a015" x="129.3" y="100.994531" style="stroke: #000000"/>
     </g>
    </g>
    <g id="text_18">
     <!-- p&lt;α -->
     <g transform="translate(156.3 104.932031) scale(0.15 -0.15)">
      <defs>
       <path id="DejaVuSans-3c" d="M 4684 3150 
L 1459 2003 
L 4684 863 
L 4684 294 
L 678 1747 
L 678 2266 
L 4684 3719 
L 4684 3150 
z
" transform="scale(0.015625)"/>
       <path id="DejaVuSans-3b1" d="M 2644 1628 
L 2506 2350 
Q 2366 3091 1809 3091 
Q 1391 3091 1200 2747 
Q 959 2316 959 1747 
Q 959 1059 1194 731 
Q 1431 397 1809 397 
Q 2228 397 2453 1063 
L 2644 1628 
z
M 2966 2584 
L 3275 3500 
L 3788 3500 
L 3147 1603 
L 3272 919 
Q 3300 766 3409 638 
Q 3538 488 3638 488 
L 3913 488 
L 3913 0 
L 3569 0 
Q 3275 0 3013 263 
Q 2884 394 2831 669 
Q 2688 322 2394 50 
Q 2256 -78 1809 -78 
Q 1075 -78 719 397 
Q 353 888 353 1747 
Q 353 2666 750 3097 
Q 1191 3578 1809 3578 
Q 2781 3578 2966 2584 
z
" transform="scale(0.015625)"/>
      </defs>
      <use xlink:href="#DejaVuSans-70"/>
      <use xlink:href="#DejaVuSans-3c" x="63.476562"/>
      <use xlink:href="#DejaVuSans-3b1" x="147.265625"/>
     </g>
    </g>
   </g>
  </g>
 </g>
 <defs>
  <clipPath id="pc4a30f8914">
   <rect x="100.8" y="36" width="720" height="360"/>
  </clipPath>
 </defs>
</svg>
