<?xml version="1.0" encoding="utf-8" standalone="no"?>
<!DOCTYPE svg PUBLIC "-//W3C//DTD SVG 1.1//EN"
  "http://www.w3.org/Graphics/SVG/1.1/DTD/svg11.dtd">
<svg xmlns:xlink="http://www.w3.org/1999/xlink" width="856.8pt" height="453.6pt" viewBox="0 0 856.8 453.6" xmlns="http://www.w3.org/2000/svg" version="1.1">
 <metadata>
  <rdf:RDF xmlns:dc="http://purl.org/dc/elements/1.1/" xmlns:cc="http://creativecommons.org/ns#" xmlns:rdf="http://www.w3.org/1999/02/22-rdf-syntax-ns#">
   <cc:Work>
    <dc:type rdf:resource="http://purl.org/dc/dcmitype/StillImage"/>
    <dc:date>2026-01-28T20:54:55.196504</dc:date>
    <dc:format>image/svg+xml</dc:format>
    <dc:creator>
     <cc:Agent>
      <dc:title>Matplotlib v3.10.5, https://matplotlib.org/</dc:title>
     </cc:Agent>
    </dc:creator>
   </cc:Work>
  </rdf:RDF>
 </metadata>
 <defs>
  <style type="text/css">*{stroke-linejoin: round; stroke-linecap: butt}</style>
 </defs>
 <g id="figure_1">
  <g id="patch_1">
   <path d="M 0 453.6 
L 856.8 453.6 
L 856.8 0 
L 0 0 
z
" style="fill: #ffffff"/>
  </g>
  <g id="axes_1">
   <g id="patch_2">
    <path d="M 100.8 396 
L 820.8 396 
L 820.8 36 
L 100.8 36 
z
" style="fill: #ffffff"/>
   </g>
   <g id="FillBetweenPolyCollection_1">
    <path d="M -7.199997 306.92983 
L -7.199997 378.955163 
L 4.8 375.305503 
L 16.799998 364.669675 
L 28.799995 341.864988 
L 40.800002 351.068747 
L 52.799999 364.237254 
L 64.799997 368.394722 
L 76.799999 357.013959 
L 88.800001 339.55512 
L 100.800003 344.954591 
L 112.8 336.532041 
L 124.799998 341.465979 
L 136.8 347.311738 
L 148.800002 354.669853 
L 160.799999 339.363108 
L 172.799999 303.412121 
L 184.8 291.970187 
L 196.8 314.701943 
L 208.8 362.807306 
L 220.8 374.435595 
L 232.8 365.024983 
L 244.8 353.712177 
L 256.8 356.528522 
L 268.800001 349.28783 
L 280.800001 339.895158 
L 292.799998 331.095761 
L 304.8 335.823582 
L 316.800002 342.960352 
L 328.8 344.707107 
L 340.799997 351.176935 
L 352.799999 362.454685 
L 364.800001 358.573813 
L 376.800003 350.66961 
L 388.800001 333.700427 
L 400.799998 331.182352 
L 412.800005 346.845435 
L 424.800002 342.098632 
L 436.8 350.330413 
L 448.799997 333.609313 
L 460.799995 354.417092 
L 472.800001 354.956796 
L 484.799999 362.105617 
L 496.799996 345.548249 
L 508.800003 345.209647 
L 520.8 333.662818 
L 532.799989 324.555183 
L 544.799995 306.516623 
L 556.800001 294.178236 
L 568.79999 273.180728 
L 580.799996 270.569889 
L 592.800003 289.357882 
L 604.799991 314.043337 
L 616.799998 303.167728 
L 628.800004 277.36762 
L 640.799993 274.952038 
L 652.799999 257.970839 
L 664.800006 274.335152 
L 676.799994 277.601111 
L 688.800001 310.277628 
L 700.800007 312.052939 
L 712.799996 315.689493 
L 724.800002 288.877588 
L 736.800009 295.516607 
L 748.799997 298.196525 
L 760.800004 328.371585 
L 772.80001 335.051383 
L 784.799999 307.886277 
L 796.800005 315.756065 
L 808.800011 297.784387 
L 820.8 321.069722 
L 832.799989 306.135742 
L 844.799977 324.027983 
L 856.800001 319.104936 
L 868.800026 329.541568 
L 880.800014 315.38808 
L 892.800003 319.582602 
L 904.799991 320.213718 
L 916.79998 334.386504 
L 928.800004 329.686398 
L 940.800029 335.707376 
L 952.800017 338.823599 
L 964.800006 345.925708 
L 976.799994 343.029202 
L 988.799983 348.3731 
L 1000.799971 325.488517 
L 1012.799996 303.827522 
L 1024.80002 296.461567 
L 1036.800009 314.539898 
L 1048.799997 331.023373 
L 1060.799986 328.926708 
L 1072.799974 323.05156 
L 1084.799999 322.003576 
L 1096.800023 312.108035 
L 1108.800011 329.332555 
L 1120.8 348.136226 
L 1132.799989 354.960719 
L 1144.799977 335.579128 
L 1156.800001 320.191583 
L 1168.800026 312.744883 
L 1168.800026 193.411404 
L 1168.800026 193.411404 
L 1156.800001 227.302861 
L 1144.799977 264.337672 
L 1132.799989 294.303102 
L 1120.8 264.947945 
L 1108.800011 255.189503 
L 1096.800023 226.564614 
L 1084.799999 256.719029 
L 1072.799974 220.336361 
L 1060.799986 223.108864 
L 1048.799997 170.555223 
L 1036.800009 168.338454 
L 1024.80002 128.428493 
L 1012.799996 189.575891 
L 1000.799971 227.941696 
L 988.799983 264.073322 
L 976.799994 249.026474 
L 964.800006 219.983267 
L 952.800017 241.827267 
L 940.800029 207.74543 
L 928.800004 235.712528 
L 916.79998 229.622227 
L 904.799991 238.933093 
L 892.800003 213.007942 
L 880.800014 215.511833 
L 868.800026 219.854333 
L 856.800001 219.459551 
L 844.799977 218.121704 
L 832.799989 221.257272 
L 820.8 231.111569 
L 808.800011 203.740911 
L 796.800005 190.283293 
L 784.799999 184.057163 
L 772.80001 211.806715 
L 760.800004 204.079663 
L 748.799997 152.995204 
L 736.800009 120.779183 
L 724.800002 117.077214 
L 712.799996 179.878122 
L 700.800007 208.768468 
L 688.800001 223.09044 
L 676.799994 181.562335 
L 664.800006 189.824759 
L 652.799999 174.749295 
L 640.799993 193.824707 
L 628.800004 181.700588 
L 616.799998 218.891321 
L 604.799991 216.090461 
L 592.800003 176.076948 
L 580.799996 146.732195 
L 568.79999 143.719295 
L 556.800001 196.960714 
L 544.799995 221.624292 
L 532.799989 265.710639 
L 520.8 276.775117 
L 508.800003 283.856814 
L 496.799996 280.396121 
L 484.799999 297.409072 
L 472.800001 291.918065 
L 460.799995 300.986744 
L 448.799997 281.955778 
L 436.8 300.879349 
L 424.800002 285.749777 
L 412.800005 285.018314 
L 400.799998 273.772072 
L 388.800001 276.700663 
L 376.800003 290.126298 
L 364.800001 303.430172 
L 352.799999 314.298828 
L 340.799997 306.513273 
L 328.8 300.535794 
L 316.800002 294.688197 
L 304.8 280.255465 
L 292.799998 252.16427 
L 280.800001 268.55483 
L 268.800001 262.546231 
L 256.8 280.147262 
L 244.8 283.452446 
L 232.8 317.960886 
L 220.8 333.942513 
L 208.8 295.620141 
L 196.8 252.514841 
L 184.8 223.182407 
L 172.799999 247.509485 
L 160.799999 280.878551 
L 148.800002 298.560117 
L 136.8 289.875889 
L 124.799998 277.327792 
L 112.8 270.634522 
L 100.800003 275.858153 
L 88.800001 271.466987 
L 76.799999 284.443248 
L 64.799997 301.067854 
L 52.799999 282.887395 
L 40.800002 288.110161 
L 28.799995 279.990313 
L 16.799998 312.099162 
L 4.8 311.810669 
L -7.199997 306.92983 
z
" clip-path="url(#pf5c0712fcf)" style="fill: #c00a37; fill-opacity: 0.25"/>
   </g>
   <g id="FillBetweenPolyCollection_2">
    <path d="M -7.199997 281.43609 
L -7.199997 359.992283 
L 4.8 334.053544 
L 16.799998 350.343361 
L 28.799995 337.073399 
L 40.800002 360.220014 
L 52.799999 340.930299 
L 64.799997 347.647378 
L 76.799999 335.247269 
L 88.800001 341.075933 
L 100.800003 332.053574 
L 112.8 348.406973 
L 124.799998 355.105345 
L 136.8 374.229985 
L 148.800002 363.174335 
L 160.799999 347.828131 
L 172.799999 341.722559 
L 184.8 328.92305 
L 196.8 355.583642 
L 208.8 350.365455 
L 220.8 360.641135 
L 232.8 362.641876 
L 244.8 373.341859 
L 256.8 377.157068 
L 268.800001 364.869234 
L 280.800001 345.189306 
L 292.799998 332.134251 
L 304.8 340.975295 
L 316.800002 353.903642 
L 328.8 344.090582 
L 340.799997 327.455993 
L 352.799999 335.00182 
L 364.800001 361.480098 
L 376.800003 379.636364 
L 388.800001 363.296543 
L 400.799998 352.268784 
L 412.800005 345.003656 
L 424.800002 350.612258 
L 436.8 341.652976 
L 448.799997 336.326555 
L 460.799995 339.860307 
L 472.800001 345.015496 
L 484.799999 335.29815 
L 496.799996 326.343209 
L 508.800003 319.525081 
L 520.8 315.71444 
L 532.799989 313.338035 
L 544.799995 321.569669 
L 556.800001 318.734131 
L 568.79999 306.716297 
L 580.799996 310.079404 
L 592.800003 288.281057 
L 604.799991 267.052736 
L 616.799998 244.568649 
L 628.800004 235.721171 
L 640.799993 230.861298 
L 652.799999 216.146387 
L 664.800006 245.882648 
L 676.799994 292.736293 
L 688.800001 322.584437 
L 700.800007 329.931796 
L 712.799996 322.50887 
L 724.800002 336.994329 
L 736.800009 342.247852 
L 748.799997 342.058961 
L 760.800004 315.131194 
L 772.80001 289.980227 
L 784.799999 293.151959 
L 796.800005 301.607054 
L 808.800011 319.433081 
L 820.8 320.400414 
L 832.799989 333.747877 
L 844.799977 344.732422 
L 856.800001 353.127907 
L 868.800026 361.386061 
L 880.800014 350.368241 
L 892.800003 351.091245 
L 904.799991 345.660255 
L 916.79998 359.205103 
L 928.800004 364.91457 
L 940.800029 354.768699 
L 952.800017 339.613352 
L 964.800006 328.740526 
L 976.799994 335.753082 
L 988.799983 326.199386 
L 1000.799971 327.121561 
L 1012.799996 338.293591 
L 1024.80002 353.580639 
L 1036.800009 365.376572 
L 1048.799997 354.776944 
L 1060.799986 363.405938 
L 1072.799974 360.294052 
L 1084.799999 349.871662 
L 1096.800023 348.97681 
L 1108.800011 330.869398 
L 1120.8 339.088621 
L 1132.799989 334.319159 
L 1144.799977 343.3922 
L 1156.800001 347.920792 
L 1168.800026 349.78034 
L 1168.800026 288.981712 
L 1168.800026 288.981712 
L 1156.800001 275.860951 
L 1144.799977 278.573222 
L 1132.799989 255.558808 
L 1120.8 261.557311 
L 1108.800011 266.321239 
L 1096.800023 292.891855 
L 1084.799999 303.725248 
L 1072.799974 306.806105 
L 1060.799986 312.385531 
L 1048.799997 295.817211 
L 1036.800009 227.375666 
L 1024.80002 209.089256 
L 1012.799996 186.292982 
L 1000.799971 232.963355 
L 988.799983 215.111434 
L 976.799994 237.950512 
L 964.800006 255.76078 
L 952.800017 285.783783 
L 940.800029 282.086182 
L 928.800004 279.88726 
L 916.79998 281.201304 
L 904.799991 281.084887 
L 892.800003 294.447214 
L 880.800014 264.444553 
L 868.800026 288.78832 
L 856.800001 274.137955 
L 844.799977 284.574947 
L 832.799989 194.438148 
L 820.8 152.981769 
L 808.800011 163.232064 
L 796.800005 192.763758 
L 784.799999 191.184893 
L 772.80001 155.84264 
L 760.800004 184.429968 
L 748.799997 215.409064 
L 736.800009 225.201424 
L 724.800002 233.639354 
L 712.799996 214.001162 
L 700.800007 225.050887 
L 688.800001 195.280896 
L 676.799994 171.462549 
L 664.800006 89.391931 
L 652.799999 52.363636 
L 640.799993 62.400602 
L 628.800004 67.659409 
L 616.799998 85.452594 
L 604.799991 84.161689 
L 592.800003 157.568395 
L 580.799996 218.917997 
L 568.79999 261.892449 
L 556.800001 277.965525 
L 544.799995 270.140558 
L 532.799989 254.100656 
L 520.8 240.071962 
L 508.800003 247.932511 
L 496.799996 248.923523 
L 484.799999 268.263014 
L 472.800001 275.01212 
L 460.799995 269.964536 
L 448.799997 266.384937 
L 436.8 274.755269 
L 424.800002 282.262804 
L 412.800005 271.864021 
L 400.799998 289.053436 
L 388.800001 322.981102 
L 376.800003 347.105076 
L 364.800001 314.695521 
L 352.799999 282.755554 
L 340.799997 251.740841 
L 328.8 276.002358 
L 316.800002 289.931377 
L 304.8 287.756784 
L 292.799998 278.466198 
L 280.800001 285.008693 
L 268.800001 319.023818 
L 256.8 336.427778 
L 244.8 334.318321 
L 232.8 321.428141 
L 220.8 303.035356 
L 208.8 274.465015 
L 196.8 277.735567 
L 184.8 260.765979 
L 172.799999 294.68849 
L 160.799999 294.797301 
L 148.800002 304.95164 
L 136.8 300.984714 
L 124.799998 290.275149 
L 112.8 286.16876 
L 100.800003 272.01626 
L 88.800001 280.171504 
L 76.799999 279.295531 
L 64.799997 296.682203 
L 52.799999 273.0792 
L 40.800002 296.203609 
L 28.799995 272.957711 
L 16.799998 292.058176 
L 4.8 261.010708 
L -7.199997 281.43609 
z
" clip-path="url(#pf5c0712fcf)" style="fill: #7b4fa3; fill-opacity: 0.25"/>
   </g>
   <g id="matplotlib.axis_1">
    <g id="xtick_1">
     <g id="line2d_1">
      <defs>
       <path id="mdb5e5a34d9" d="M 0 0 
L 0 3.5 
" style="stroke: #000000; stroke-width: 0.8"/>
      </defs>
      <g>
       <use xlink:href="#mdb5e5a34d9" x="100.8" y="396" style="stroke: #000000; stroke-width: 0.8"/>
      </g>
     </g>
     <g id="text_1">
      <!-- −100 -->
      <g transform="translate(78.82625 415.1575) scale(0.16 -0.16)">
       <defs>
        <path id="DejaVuSans-2212" d="M 678 2272 
L 4684 2272 
L 4684 1741 
L 678 1741 
L 678 2272 
z
" transform="scale(0.015625)"/>
        <path id="DejaVuSans-31" d="M 794 531 
L 1825 531 
L 1825 4091 
L 703 3866 
L 703 4441 
L 1819 4666 
L 2450 4666 
L 2450 531 
L 3481 531 
L 3481 0 
L 794 0 
L 794 531 
z
" transform="scale(0.015625)"/>
        <path id="DejaVuSans-30" d="M 2034 4250 
Q 1547 4250 1301 3770 
Q 1056 3291 1056 2328 
Q 1056 1369 1301 889 
Q 1547 409 2034 409 
Q 2525 409 2770 889 
Q 3016 1369 3016 2328 
Q 3016 3291 2770 3770 
Q 2525 4250 2034 4250 
z
M 2034 4750 
Q 2819 4750 3233 4129 
Q 3647 3509 3647 2328 
Q 3647 1150 3233 529 
Q 2819 -91 2034 -91 
Q 1250 -91 836 529 
Q 422 1150 422 2328 
Q 422 3509 836 4129 
Q 1250 4750 2034 4750 
z
" transform="scale(0.015625)"/>
       </defs>
       <use xlink:href="#DejaVuSans-2212"/>
       <use xlink:href="#DejaVuSans-31" transform="translate(83.789062 0)"/>
       <use xlink:href="#DejaVuSans-30" transform="translate(147.412109 0)"/>
       <use xlink:href="#DejaVuSans-30" transform="translate(211.035156 0)"/>
      </g>
     </g>
    </g>
    <g id="xtick_2">
     <g id="line2d_2">
      <g>
       <use xlink:href="#mdb5e5a34d9" x="220.8" y="396" style="stroke: #000000; stroke-width: 0.8"/>
      </g>
     </g>
     <g id="text_2">
      <!-- 0 -->
      <g transform="translate(215.71 415.1575) scale(0.16 -0.16)">
       <use xlink:href="#DejaVuSans-30"/>
      </g>
     </g>
    </g>
    <g id="xtick_3">
     <g id="line2d_3">
      <g>
       <use xlink:href="#mdb5e5a34d9" x="340.8" y="396" style="stroke: #000000; stroke-width: 0.8"/>
      </g>
     </g>
     <g id="text_3">
      <!-- 100 -->
      <g transform="translate(325.53 415.1575) scale(0.16 -0.16)">
       <use xlink:href="#DejaVuSans-31"/>
       <use xlink:href="#DejaVuSans-30" transform="translate(63.623047 0)"/>
       <use xlink:href="#DejaVuSans-30" transform="translate(127.246094 0)"/>
      </g>
     </g>
    </g>
    <g id="xtick_4">
     <g id="line2d_4">
      <g>
       <use xlink:href="#mdb5e5a34d9" x="460.8" y="396" style="stroke: #000000; stroke-width: 0.8"/>
      </g>
     </g>
     <g id="text_4">
      <!-- 200 -->
      <g transform="translate(445.53 415.1575) scale(0.16 -0.16)">
       <defs>
        <path id="DejaVuSans-32" d="M 1228 531 
L 3431 531 
L 3431 0 
L 469 0 
L 469 531 
Q 828 903 1448 1529 
Q 2069 2156 2228 2338 
Q 2531 2678 2651 2914 
Q 2772 3150 2772 3378 
Q 2772 3750 2511 3984 
Q 2250 4219 1831 4219 
Q 1534 4219 1204 4116 
Q 875 4013 500 3803 
L 500 4441 
Q 881 4594 1212 4672 
Q 1544 4750 1819 4750 
Q 2544 4750 2975 4387 
Q 3406 4025 3406 3419 
Q 3406 3131 3298 2873 
Q 3191 2616 2906 2266 
Q 2828 2175 2409 1742 
Q 1991 1309 1228 531 
z
" transform="scale(0.015625)"/>
       </defs>
       <use xlink:href="#DejaVuSans-32"/>
       <use xlink:href="#DejaVuSans-30" transform="translate(63.623047 0)"/>
       <use xlink:href="#DejaVuSans-30" transform="translate(127.246094 0)"/>
      </g>
     </g>
    </g>
    <g id="xtick_5">
     <g id="line2d_5">
      <g>
       <use xlink:href="#mdb5e5a34d9" x="580.8" y="396" style="stroke: #000000; stroke-width: 0.8"/>
      </g>
     </g>
     <g id="text_5">
      <!-- 300 -->
      <g transform="translate(565.53 415.1575) scale(0.16 -0.16)">
       <defs>
        <path id="DejaVuSans-33" d="M 2597 2516 
Q 3050 2419 3304 2112 
Q 3559 1806 3559 1356 
Q 3559 666 3084 287 
Q 2609 -91 1734 -91 
Q 1441 -91 1130 -33 
Q 819 25 488 141 
L 488 750 
Q 750 597 1062 519 
Q 1375 441 1716 441 
Q 2309 441 2620 675 
Q 2931 909 2931 1356 
Q 2931 1769 2642 2001 
Q 2353 2234 1838 2234 
L 1294 2234 
L 1294 2753 
L 1863 2753 
Q 2328 2753 2575 2939 
Q 2822 3125 2822 3475 
Q 2822 3834 2567 4026 
Q 2313 4219 1838 4219 
Q 1578 4219 1281 4162 
Q 984 4106 628 3988 
L 628 4550 
Q 988 4650 1302 4700 
Q 1616 4750 1894 4750 
Q 2613 4750 3031 4423 
Q 3450 4097 3450 3541 
Q 3450 3153 3228 2886 
Q 3006 2619 2597 2516 
z
" transform="scale(0.015625)"/>
       </defs>
       <use xlink:href="#DejaVuSans-33"/>
       <use xlink:href="#DejaVuSans-30" transform="translate(63.623047 0)"/>
       <use xlink:href="#DejaVuSans-30" transform="translate(127.246094 0)"/>
      </g>
     </g>
    </g>
    <g id="xtick_6">
     <g id="line2d_6">
      <g>
       <use xlink:href="#mdb5e5a34d9" x="700.8" y="396" style="stroke: #000000; stroke-width: 0.8"/>
      </g>
     </g>
     <g id="text_6">
      <!-- 400 -->
      <g transform="translate(685.53 415.1575) scale(0.16 -0.16)">
       <defs>
        <path id="DejaVuSans-34" d="M 2419 4116 
L 825 1625 
L 2419 1625 
L 2419 4116 
z
M 2253 4666 
L 3047 4666 
L 3047 1625 
L 3713 1625 
L 3713 1100 
L 3047 1100 
L 3047 0 
L 2419 0 
L 2419 1100 
L 313 1100 
L 313 1709 
L 2253 4666 
z
" transform="scale(0.015625)"/>
       </defs>
       <use xlink:href="#DejaVuSans-34"/>
       <use xlink:href="#DejaVuSans-30" transform="translate(63.623047 0)"/>
       <use xlink:href="#DejaVuSans-30" transform="translate(127.246094 0)"/>
      </g>
     </g>
    </g>
    <g id="xtick_7">
     <g id="line2d_7">
      <g>
       <use xlink:href="#mdb5e5a34d9" x="820.8" y="396" style="stroke: #000000; stroke-width: 0.8"/>
      </g>
     </g>
     <g id="text_7">
      <!-- 500 -->
      <g transform="translate(805.53 415.1575) scale(0.16 -0.16)">
       <defs>
        <path id="DejaVuSans-35" d="M 691 4666 
L 3169 4666 
L 3169 4134 
L 1269 4134 
L 1269 2991 
Q 1406 3038 1543 3061 
Q 1681 3084 1819 3084 
Q 2600 3084 3056 2656 
Q 3513 2228 3513 1497 
Q 3513 744 3044 326 
Q 2575 -91 1722 -91 
Q 1428 -91 1123 -41 
Q 819 9 494 109 
L 494 744 
Q 775 591 1075 516 
Q 1375 441 1709 441 
Q 2250 441 2565 725 
Q 2881 1009 2881 1497 
Q 2881 1984 2565 2268 
Q 2250 2553 1709 2553 
Q 1456 2553 1204 2497 
Q 953 2441 691 2322 
L 691 4666 
z
" transform="scale(0.015625)"/>
       </defs>
       <use xlink:href="#DejaVuSans-35"/>
       <use xlink:href="#DejaVuSans-30" transform="translate(63.623047 0)"/>
       <use xlink:href="#DejaVuSans-30" transform="translate(127.246094 0)"/>
      </g>
     </g>
    </g>
    <g id="text_8">
     <!-- Time from Stimulus Onset (ms) -->
     <g transform="translate(320.273438 436.162187) scale(0.18 -0.18)">
      <defs>
       <path id="DejaVuSans-54" d="M -19 4666 
L 3928 4666 
L 3928 4134 
L 2272 4134 
L 2272 0 
L 1638 0 
L 1638 4134 
L -19 4134 
L -19 4666 
z
" transform="scale(0.015625)"/>
       <path id="DejaVuSans-69" d="M 603 3500 
L 1178 3500 
L 1178 0 
L 603 0 
L 603 3500 
z
M 603 4863 
L 1178 4863 
L 1178 4134 
L 603 4134 
L 603 4863 
z
" transform="scale(0.015625)"/>
       <path id="DejaVuSans-6d" d="M 3328 2828 
Q 3544 3216 3844 3400 
Q 4144 3584 4550 3584 
Q 5097 3584 5394 3201 
Q 5691 2819 5691 2113 
L 5691 0 
L 5113 0 
L 5113 2094 
Q 5113 2597 4934 2840 
Q 4756 3084 4391 3084 
Q 3944 3084 3684 2787 
Q 3425 2491 3425 1978 
L 3425 0 
L 2847 0 
L 2847 2094 
Q 2847 2600 2669 2842 
Q 2491 3084 2119 3084 
Q 1678 3084 1418 2786 
Q 1159 2488 1159 1978 
L 1159 0 
L 581 0 
L 581 3500 
L 1159 3500 
L 1159 2956 
Q 1356 3278 1631 3431 
Q 1906 3584 2284 3584 
Q 2666 3584 2933 3390 
Q 3200 3197 3328 2828 
z
" transform="scale(0.015625)"/>
       <path id="DejaVuSans-65" d="M 3597 1894 
L 3597 1613 
L 953 1613 
Q 991 1019 1311 708 
Q 1631 397 2203 397 
Q 2534 397 2845 478 
Q 3156 559 3463 722 
L 3463 178 
Q 3153 47 2828 -22 
Q 2503 -91 2169 -91 
Q 1331 -91 842 396 
Q 353 884 353 1716 
Q 353 2575 817 3079 
Q 1281 3584 2069 3584 
Q 2775 3584 3186 3129 
Q 3597 2675 3597 1894 
z
M 3022 2063 
Q 3016 2534 2758 2815 
Q 2500 3097 2075 3097 
Q 1594 3097 1305 2825 
Q 1016 2553 972 2059 
L 3022 2063 
z
" transform="scale(0.015625)"/>
       <path id="DejaVuSans-20" transform="scale(0.015625)"/>
       <path id="DejaVuSans-66" d="M 2375 4863 
L 2375 4384 
L 1825 4384 
Q 1516 4384 1395 4259 
Q 1275 4134 1275 3809 
L 1275 3500 
L 2222 3500 
L 2222 3053 
L 1275 3053 
L 1275 0 
L 697 0 
L 697 3053 
L 147 3053 
L 147 3500 
L 697 3500 
L 697 3744 
Q 697 4328 969 4595 
Q 1241 4863 1831 4863 
L 2375 4863 
z
" transform="scale(0.015625)"/>
       <path id="DejaVuSans-72" d="M 2631 2963 
Q 2534 3019 2420 3045 
Q 2306 3072 2169 3072 
Q 1681 3072 1420 2755 
Q 1159 2438 1159 1844 
L 1159 0 
L 581 0 
L 581 3500 
L 1159 3500 
L 1159 2956 
Q 1341 3275 1631 3429 
Q 1922 3584 2338 3584 
Q 2397 3584 2469 3576 
Q 2541 3569 2628 3553 
L 2631 2963 
z
" transform="scale(0.015625)"/>
       <path id="DejaVuSans-6f" d="M 1959 3097 
Q 1497 3097 1228 2736 
Q 959 2375 959 1747 
Q 959 1119 1226 758 
Q 1494 397 1959 397 
Q 2419 397 2687 759 
Q 2956 1122 2956 1747 
Q 2956 2369 2687 2733 
Q 2419 3097 1959 3097 
z
M 1959 3584 
Q 2709 3584 3137 3096 
Q 3566 2609 3566 1747 
Q 3566 888 3137 398 
Q 2709 -91 1959 -91 
Q 1206 -91 779 398 
Q 353 888 353 1747 
Q 353 2609 779 3096 
Q 1206 3584 1959 3584 
z
" transform="scale(0.015625)"/>
       <path id="DejaVuSans-53" d="M 3425 4513 
L 3425 3897 
Q 3066 4069 2747 4153 
Q 2428 4238 2131 4238 
Q 1616 4238 1336 4038 
Q 1056 3838 1056 3469 
Q 1056 3159 1242 3001 
Q 1428 2844 1947 2747 
L 2328 2669 
Q 3034 2534 3370 2195 
Q 3706 1856 3706 1288 
Q 3706 609 3251 259 
Q 2797 -91 1919 -91 
Q 1588 -91 1214 -16 
Q 841 59 441 206 
L 441 856 
Q 825 641 1194 531 
Q 1563 422 1919 422 
Q 2459 422 2753 634 
Q 3047 847 3047 1241 
Q 3047 1584 2836 1778 
Q 2625 1972 2144 2069 
L 1759 2144 
Q 1053 2284 737 2584 
Q 422 2884 422 3419 
Q 422 4038 858 4394 
Q 1294 4750 2059 4750 
Q 2388 4750 2728 4690 
Q 3069 4631 3425 4513 
z
" transform="scale(0.015625)"/>
       <path id="DejaVuSans-74" d="M 1172 4494 
L 1172 3500 
L 2356 3500 
L 2356 3053 
L 1172 3053 
L 1172 1153 
Q 1172 725 1289 603 
Q 1406 481 1766 481 
L 2356 481 
L 2356 0 
L 1766 0 
Q 1100 0 847 248 
Q 594 497 594 1153 
L 594 3053 
L 172 3053 
L 172 3500 
L 594 3500 
L 594 4494 
L 1172 4494 
z
" transform="scale(0.015625)"/>
       <path id="DejaVuSans-75" d="M 544 1381 
L 544 3500 
L 1119 3500 
L 1119 1403 
Q 1119 906 1312 657 
Q 1506 409 1894 409 
Q 2359 409 2629 706 
Q 2900 1003 2900 1516 
L 2900 3500 
L 3475 3500 
L 3475 0 
L 2900 0 
L 2900 538 
Q 2691 219 2414 64 
Q 2138 -91 1772 -91 
Q 1169 -91 856 284 
Q 544 659 544 1381 
z
M 1991 3584 
L 1991 3584 
z
" transform="scale(0.015625)"/>
       <path id="DejaVuSans-6c" d="M 603 4863 
L 1178 4863 
L 1178 0 
L 603 0 
L 603 4863 
z
" transform="scale(0.015625)"/>
       <path id="DejaVuSans-73" d="M 2834 3397 
L 2834 2853 
Q 2591 2978 2328 3040 
Q 2066 3103 1784 3103 
Q 1356 3103 1142 2972 
Q 928 2841 928 2578 
Q 928 2378 1081 2264 
Q 1234 2150 1697 2047 
L 1894 2003 
Q 2506 1872 2764 1633 
Q 3022 1394 3022 966 
Q 3022 478 2636 193 
Q 2250 -91 1575 -91 
Q 1294 -91 989 -36 
Q 684 19 347 128 
L 347 722 
Q 666 556 975 473 
Q 1284 391 1588 391 
Q 1994 391 2212 530 
Q 2431 669 2431 922 
Q 2431 1156 2273 1281 
Q 2116 1406 1581 1522 
L 1381 1569 
Q 847 1681 609 1914 
Q 372 2147 372 2553 
Q 372 3047 722 3315 
Q 1072 3584 1716 3584 
Q 2034 3584 2315 3537 
Q 2597 3491 2834 3397 
z
" transform="scale(0.015625)"/>
       <path id="DejaVuSans-4f" d="M 2522 4238 
Q 1834 4238 1429 3725 
Q 1025 3213 1025 2328 
Q 1025 1447 1429 934 
Q 1834 422 2522 422 
Q 3209 422 3611 934 
Q 4013 1447 4013 2328 
Q 4013 3213 3611 3725 
Q 3209 4238 2522 4238 
z
M 2522 4750 
Q 3503 4750 4090 4092 
Q 4678 3434 4678 2328 
Q 4678 1225 4090 567 
Q 3503 -91 2522 -91 
Q 1538 -91 948 565 
Q 359 1222 359 2328 
Q 359 3434 948 4092 
Q 1538 4750 2522 4750 
z
" transform="scale(0.015625)"/>
       <path id="DejaVuSans-6e" d="M 3513 2113 
L 3513 0 
L 2938 0 
L 2938 2094 
Q 2938 2591 2744 2837 
Q 2550 3084 2163 3084 
Q 1697 3084 1428 2787 
Q 1159 2491 1159 1978 
L 1159 0 
L 581 0 
L 581 3500 
L 1159 3500 
L 1159 2956 
Q 1366 3272 1645 3428 
Q 1925 3584 2291 3584 
Q 2894 3584 3203 3211 
Q 3513 2838 3513 2113 
z
" transform="scale(0.015625)"/>
       <path id="DejaVuSans-28" d="M 1984 4856 
Q 1566 4138 1362 3434 
Q 1159 2731 1159 2009 
Q 1159 1288 1364 580 
Q 1569 -128 1984 -844 
L 1484 -844 
Q 1016 -109 783 600 
Q 550 1309 550 2009 
Q 550 2706 781 3412 
Q 1013 4119 1484 4856 
L 1984 4856 
z
" transform="scale(0.015625)"/>
       <path id="DejaVuSans-29" d="M 513 4856 
L 1013 4856 
Q 1481 4119 1714 3412 
Q 1947 2706 1947 2009 
Q 1947 1309 1714 600 
Q 1481 -109 1013 -844 
L 513 -844 
Q 928 -128 1133 580 
Q 1338 1288 1338 2009 
Q 1338 2731 1133 3434 
Q 928 4138 513 4856 
z
" transform="scale(0.015625)"/>
      </defs>
      <use xlink:href="#DejaVuSans-54"/>
      <use xlink:href="#DejaVuSans-69" transform="translate(57.958984 0)"/>
      <use xlink:href="#DejaVuSans-6d" transform="translate(85.742188 0)"/>
      <use xlink:href="#DejaVuSans-65" transform="translate(183.154297 0)"/>
      <use xlink:href="#DejaVuSans-20" transform="translate(244.677734 0)"/>
      <use xlink:href="#DejaVuSans-66" transform="translate(276.464844 0)"/>
      <use xlink:href="#DejaVuSans-72" transform="translate(311.669922 0)"/>
      <use xlink:href="#DejaVuSans-6f" transform="translate(350.533203 0)"/>
      <use xlink:href="#DejaVuSans-6d" transform="translate(411.714844 0)"/>
      <use xlink:href="#DejaVuSans-20" transform="translate(509.126953 0)"/>
      <use xlink:href="#DejaVuSans-53" transform="translate(540.914062 0)"/>
      <use xlink:href="#DejaVuSans-74" transform="translate(604.390625 0)"/>
      <use xlink:href="#DejaVuSans-69" transform="translate(643.599609 0)"/>
      <use xlink:href="#DejaVuSans-6d" transform="translate(671.382812 0)"/>
      <use xlink:href="#DejaVuSans-75" transform="translate(768.794922 0)"/>
      <use xlink:href="#DejaVuSans-6c" transform="translate(832.173828 0)"/>
      <use xlink:href="#DejaVuSans-75" transform="translate(859.957031 0)"/>
      <use xlink:href="#DejaVuSans-73" transform="translate(923.335938 0)"/>
      <use xlink:href="#DejaVuSans-20" transform="translate(975.435547 0)"/>
      <use xlink:href="#DejaVuSans-4f" transform="translate(1007.222656 0)"/>
      <use xlink:href="#DejaVuSans-6e" transform="translate(1085.933594 0)"/>
      <use xlink:href="#DejaVuSans-73" transform="translate(1149.3125 0)"/>
      <use xlink:href="#DejaVuSans-65" transform="translate(1201.412109 0)"/>
      <use xlink:href="#DejaVuSans-74" transform="translate(1262.935547 0)"/>
      <use xlink:href="#DejaVuSans-20" transform="translate(1302.144531 0)"/>
      <use xlink:href="#DejaVuSans-28" transform="translate(1333.931641 0)"/>
      <use xlink:href="#DejaVuSans-6d" transform="translate(1372.945312 0)"/>
      <use xlink:href="#DejaVuSans-73" transform="translate(1470.357422 0)"/>
      <use xlink:href="#DejaVuSans-29" transform="translate(1522.457031 0)"/>
     </g>
    </g>
   </g>
   <g id="matplotlib.axis_2">
    <g id="ytick_1">
     <g id="line2d_8">
      <defs>
       <path id="m8fb5f0b939" d="M 0 0 
L -3.5 0 
" style="stroke: #000000; stroke-width: 0.8"/>
      </defs>
      <g>
       <use xlink:href="#m8fb5f0b939" x="100.8" y="327.319288" style="stroke: #000000; stroke-width: 0.8"/>
      </g>
     </g>
     <g id="text_9">
      <!-- 0.00 -->
      <g transform="translate(58.175 333.398038) scale(0.16 -0.16)">
       <defs>
        <path id="DejaVuSans-2e" d="M 684 794 
L 1344 794 
L 1344 0 
L 684 0 
L 684 794 
z
" transform="scale(0.015625)"/>
       </defs>
       <use xlink:href="#DejaVuSans-30"/>
       <use xlink:href="#DejaVuSans-2e" transform="translate(63.623047 0)"/>
       <use xlink:href="#DejaVuSans-30" transform="translate(95.410156 0)"/>
       <use xlink:href="#DejaVuSans-30" transform="translate(159.033203 0)"/>
      </g>
     </g>
    </g>
    <g id="ytick_2">
     <g id="line2d_9">
      <g>
       <use xlink:href="#m8fb5f0b939" x="100.8" y="248.821856" style="stroke: #000000; stroke-width: 0.8"/>
      </g>
     </g>
     <g id="text_10">
      <!-- 0.01 -->
      <g transform="translate(58.175 254.900606) scale(0.16 -0.16)">
       <use xlink:href="#DejaVuSans-30"/>
       <use xlink:href="#DejaVuSans-2e" transform="translate(63.623047 0)"/>
       <use xlink:href="#DejaVuSans-30" transform="translate(95.410156 0)"/>
       <use xlink:href="#DejaVuSans-31" transform="translate(159.033203 0)"/>
      </g>
     </g>
    </g>
    <g id="ytick_3">
     <g id="line2d_10">
      <g>
       <use xlink:href="#m8fb5f0b939" x="100.8" y="170.324424" style="stroke: #000000; stroke-width: 0.8"/>
      </g>
     </g>
     <g id="text_11">
      <!-- 0.02 -->
      <g transform="translate(58.175 176.403174) scale(0.16 -0.16)">
       <use xlink:href="#DejaVuSans-30"/>
       <use xlink:href="#DejaVuSans-2e" transform="translate(63.623047 0)"/>
       <use xlink:href="#DejaVuSans-30" transform="translate(95.410156 0)"/>
       <use xlink:href="#DejaVuSans-32" transform="translate(159.033203 0)"/>
      </g>
     </g>
    </g>
    <g id="ytick_4">
     <g id="line2d_11">
      <g>
       <use xlink:href="#m8fb5f0b939" x="100.8" y="91.826992" style="stroke: #000000; stroke-width: 0.8"/>
      </g>
     </g>
     <g id="text_12">
      <!-- 0.03 -->
      <g transform="translate(58.175 97.905742) scale(0.16 -0.16)">
       <use xlink:href="#DejaVuSans-30"/>
       <use xlink:href="#DejaVuSans-2e" transform="translate(63.623047 0)"/>
       <use xlink:href="#DejaVuSans-30" transform="translate(95.410156 0)"/>
       <use xlink:href="#DejaVuSans-33" transform="translate(159.033203 0)"/>
      </g>
     </g>
    </g>
    <g id="text_13">
     <!-- Directed predictability gain (bits) -->
     <g transform="translate(50.431562 364.685625) rotate(-90) scale(0.18 -0.18)">
      <defs>
       <path id="DejaVuSans-44" d="M 1259 4147 
L 1259 519 
L 2022 519 
Q 2988 519 3436 956 
Q 3884 1394 3884 2338 
Q 3884 3275 3436 3711 
Q 2988 4147 2022 4147 
L 1259 4147 
z
M 628 4666 
L 1925 4666 
Q 3281 4666 3915 4102 
Q 4550 3538 4550 2338 
Q 4550 1131 3912 565 
Q 3275 0 1925 0 
L 628 0 
L 628 4666 
z
" transform="scale(0.015625)"/>
       <path id="DejaVuSans-63" d="M 3122 3366 
L 3122 2828 
Q 2878 2963 2633 3030 
Q 2388 3097 2138 3097 
Q 1578 3097 1268 2742 
Q 959 2388 959 1747 
Q 959 1106 1268 751 
Q 1578 397 2138 397 
Q 2388 397 2633 464 
Q 2878 531 3122 666 
L 3122 134 
Q 2881 22 2623 -34 
Q 2366 -91 2075 -91 
Q 1284 -91 818 406 
Q 353 903 353 1747 
Q 353 2603 823 3093 
Q 1294 3584 2113 3584 
Q 2378 3584 2631 3529 
Q 2884 3475 3122 3366 
z
" transform="scale(0.015625)"/>
       <path id="DejaVuSans-64" d="M 2906 2969 
L 2906 4863 
L 3481 4863 
L 3481 0 
L 2906 0 
L 2906 525 
Q 2725 213 2448 61 
Q 2172 -91 1784 -91 
Q 1150 -91 751 415 
Q 353 922 353 1747 
Q 353 2572 751 3078 
Q 1150 3584 1784 3584 
Q 2172 3584 2448 3432 
Q 2725 3281 2906 2969 
z
M 947 1747 
Q 947 1113 1208 752 
Q 1469 391 1925 391 
Q 2381 391 2643 752 
Q 2906 1113 2906 1747 
Q 2906 2381 2643 2742 
Q 2381 3103 1925 3103 
Q 1469 3103 1208 2742 
Q 947 2381 947 1747 
z
" transform="scale(0.015625)"/>
       <path id="DejaVuSans-70" d="M 1159 525 
L 1159 -1331 
L 581 -1331 
L 581 3500 
L 1159 3500 
L 1159 2969 
Q 1341 3281 1617 3432 
Q 1894 3584 2278 3584 
Q 2916 3584 3314 3078 
Q 3713 2572 3713 1747 
Q 3713 922 3314 415 
Q 2916 -91 2278 -91 
Q 1894 -91 1617 61 
Q 1341 213 1159 525 
z
M 3116 1747 
Q 3116 2381 2855 2742 
Q 2594 3103 2138 3103 
Q 1681 3103 1420 2742 
Q 1159 2381 1159 1747 
Q 1159 1113 1420 752 
Q 1681 391 2138 391 
Q 2594 391 2855 752 
Q 3116 1113 3116 1747 
z
" transform="scale(0.015625)"/>
       <path id="DejaVuSans-61" d="M 2194 1759 
Q 1497 1759 1228 1600 
Q 959 1441 959 1056 
Q 959 750 1161 570 
Q 1363 391 1709 391 
Q 2188 391 2477 730 
Q 2766 1069 2766 1631 
L 2766 1759 
L 2194 1759 
z
M 3341 1997 
L 3341 0 
L 2766 0 
L 2766 531 
Q 2569 213 2275 61 
Q 1981 -91 1556 -91 
Q 1019 -91 701 211 
Q 384 513 384 1019 
Q 384 1609 779 1909 
Q 1175 2209 1959 2209 
L 2766 2209 
L 2766 2266 
Q 2766 2663 2505 2880 
Q 2244 3097 1772 3097 
Q 1472 3097 1187 3025 
Q 903 2953 641 2809 
L 641 3341 
Q 956 3463 1253 3523 
Q 1550 3584 1831 3584 
Q 2591 3584 2966 3190 
Q 3341 2797 3341 1997 
z
" transform="scale(0.015625)"/>
       <path id="DejaVuSans-62" d="M 3116 1747 
Q 3116 2381 2855 2742 
Q 2594 3103 2138 3103 
Q 1681 3103 1420 2742 
Q 1159 2381 1159 1747 
Q 1159 1113 1420 752 
Q 1681 391 2138 391 
Q 2594 391 2855 752 
Q 3116 1113 3116 1747 
z
M 1159 2969 
Q 1341 3281 1617 3432 
Q 1894 3584 2278 3584 
Q 2916 3584 3314 3078 
Q 3713 2572 3713 1747 
Q 3713 922 3314 415 
Q 2916 -91 2278 -91 
Q 1894 -91 1617 61 
Q 1341 213 1159 525 
L 1159 0 
L 581 0 
L 581 4863 
L 1159 4863 
L 1159 2969 
z
" transform="scale(0.015625)"/>
       <path id="DejaVuSans-79" d="M 2059 -325 
Q 1816 -950 1584 -1140 
Q 1353 -1331 966 -1331 
L 506 -1331 
L 506 -850 
L 844 -850 
Q 1081 -850 1212 -737 
Q 1344 -625 1503 -206 
L 1606 56 
L 191 3500 
L 800 3500 
L 1894 763 
L 2988 3500 
L 3597 3500 
L 2059 -325 
z
" transform="scale(0.015625)"/>
       <path id="DejaVuSans-67" d="M 2906 1791 
Q 2906 2416 2648 2759 
Q 2391 3103 1925 3103 
Q 1463 3103 1205 2759 
Q 947 2416 947 1791 
Q 947 1169 1205 825 
Q 1463 481 1925 481 
Q 2391 481 2648 825 
Q 2906 1169 2906 1791 
z
M 3481 434 
Q 3481 -459 3084 -895 
Q 2688 -1331 1869 -1331 
Q 1566 -1331 1297 -1286 
Q 1028 -1241 775 -1147 
L 775 -588 
Q 1028 -725 1275 -790 
Q 1522 -856 1778 -856 
Q 2344 -856 2625 -561 
Q 2906 -266 2906 331 
L 2906 616 
Q 2728 306 2450 153 
Q 2172 0 1784 0 
Q 1141 0 747 490 
Q 353 981 353 1791 
Q 353 2603 747 3093 
Q 1141 3584 1784 3584 
Q 2172 3584 2450 3431 
Q 2728 3278 2906 2969 
L 2906 3500 
L 3481 3500 
L 3481 434 
z
" transform="scale(0.015625)"/>
      </defs>
      <use xlink:href="#DejaVuSans-44"/>
      <use xlink:href="#DejaVuSans-69" transform="translate(77.001953 0)"/>
      <use xlink:href="#DejaVuSans-72" transform="translate(104.785156 0)"/>
      <use xlink:href="#DejaVuSans-65" transform="translate(143.648438 0)"/>
      <use xlink:href="#DejaVuSans-63" transform="translate(205.171875 0)"/>
      <use xlink:href="#DejaVuSans-74" transform="translate(260.152344 0)"/>
      <use xlink:href="#DejaVuSans-65" transform="translate(299.361328 0)"/>
      <use xlink:href="#DejaVuSans-64" transform="translate(360.884766 0)"/>
      <use xlink:href="#DejaVuSans-20" transform="translate(424.361328 0)"/>
      <use xlink:href="#DejaVuSans-70" transform="translate(456.148438 0)"/>
      <use xlink:href="#DejaVuSans-72" transform="translate(519.625 0)"/>
      <use xlink:href="#DejaVuSans-65" transform="translate(558.488281 0)"/>
      <use xlink:href="#DejaVuSans-64" transform="translate(620.011719 0)"/>
      <use xlink:href="#DejaVuSans-69" transform="translate(683.488281 0)"/>
      <use xlink:href="#DejaVuSans-63" transform="translate(711.271484 0)"/>
      <use xlink:href="#DejaVuSans-74" transform="translate(766.251953 0)"/>
      <use xlink:href="#DejaVuSans-61" transform="translate(805.460938 0)"/>
      <use xlink:href="#DejaVuSans-62" transform="translate(866.740234 0)"/>
      <use xlink:href="#DejaVuSans-69" transform="translate(930.216797 0)"/>
      <use xlink:href="#DejaVuSans-6c" transform="translate(958 0)"/>
      <use xlink:href="#DejaVuSans-69" transform="translate(985.783203 0)"/>
      <use xlink:href="#DejaVuSans-74" transform="translate(1013.566406 0)"/>
      <use xlink:href="#DejaVuSans-79" transform="translate(1052.775391 0)"/>
      <use xlink:href="#DejaVuSans-20" transform="translate(1111.955078 0)"/>
      <use xlink:href="#DejaVuSans-67" transform="translate(1143.742188 0)"/>
      <use xlink:href="#DejaVuSans-61" transform="translate(1207.21875 0)"/>
      <use xlink:href="#DejaVuSans-69" transform="translate(1268.498047 0)"/>
      <use xlink:href="#DejaVuSans-6e" transform="translate(1296.28125 0)"/>
      <use xlink:href="#DejaVuSans-20" transform="translate(1359.660156 0)"/>
      <use xlink:href="#DejaVuSans-28" transform="translate(1391.447266 0)"/>
      <use xlink:href="#DejaVuSans-62" transform="translate(1430.460938 0)"/>
      <use xlink:href="#DejaVuSans-69" transform="translate(1493.9375 0)"/>
      <use xlink:href="#DejaVuSans-74" transform="translate(1521.720703 0)"/>
      <use xlink:href="#DejaVuSans-73" transform="translate(1560.929688 0)"/>
      <use xlink:href="#DejaVuSans-29" transform="translate(1613.029297 0)"/>
     </g>
    </g>
   </g>
   <g id="line2d_12">
    <path d="M 220.8 396 
L 220.8 36 
" clip-path="url(#pf5c0712fcf)" style="fill: none; stroke-dasharray: 2.96,1.28; stroke-dashoffset: 0; stroke: #000000; stroke-width: 0.8"/>
   </g>
   <g id="line2d_13">
    <path d="M 100.8 327.319288 
L 820.8 327.319288 
" clip-path="url(#pf5c0712fcf)" style="fill: none; stroke-dasharray: 0.8,1.32; stroke-dashoffset: 0; stroke: #000000; stroke-width: 0.8"/>
   </g>
   <g id="line2d_14">
    <path d="M -1 343.260551 
L 4.8 343.558086 
L 16.799998 338.384419 
L 28.799995 310.92765 
L 40.800002 319.589454 
L 52.799999 323.562325 
L 64.799997 334.731288 
L 76.799999 320.728603 
L 88.800001 305.511054 
L 100.800003 310.406372 
L 112.8 303.583281 
L 124.799998 309.396885 
L 136.8 318.593814 
L 148.800002 326.614985 
L 160.799999 310.12083 
L 172.799999 275.460803 
L 184.8 257.576297 
L 196.8 283.608392 
L 208.8 329.213723 
L 220.8 354.189054 
L 232.8 341.492934 
L 244.8 318.582312 
L 256.8 318.337892 
L 268.800001 305.91703 
L 280.800001 304.224994 
L 292.799998 291.630016 
L 304.8 308.039523 
L 316.800002 318.824275 
L 328.8 322.62145 
L 340.799997 328.845104 
L 352.799999 338.376757 
L 364.800001 331.001992 
L 376.800003 320.397954 
L 388.800001 305.200545 
L 400.799998 302.477212 
L 412.800005 315.931874 
L 424.800002 313.924204 
L 436.8 325.604881 
L 448.799997 307.782545 
L 460.799995 327.701918 
L 472.800001 323.43743 
L 484.799999 329.757344 
L 496.799996 312.972185 
L 508.800003 314.53323 
L 520.8 305.218967 
L 532.799989 295.132911 
L 544.799995 264.070458 
L 556.800001 245.569475 
L 568.79999 208.450011 
L 580.799996 208.651042 
L 592.800003 232.717415 
L 604.799991 265.066899 
L 616.799998 261.029524 
L 628.800004 229.534104 
L 640.799993 234.388373 
L 652.799999 216.360067 
L 664.800006 232.079956 
L 676.799994 229.581723 
L 688.800001 266.684034 
L 700.800007 260.410704 
L 712.799996 247.783808 
L 724.800002 202.977401 
L 736.800009 208.147895 
L 748.799997 225.595864 
L 760.800004 266.225624 
L 772.80001 273.429049 
L 784.799999 245.97172 
L 796.800005 253.019679 
L 808.800011 250.762649 
L 820.8 276.090645 
L 832.799989 263.696507 
L 844.799977 271.074843 
L 856.800001 269.282243 
L 857.8 269.733551 
" clip-path="url(#pf5c0712fcf)" style="fill: none; stroke: #c00a37; stroke-width: 2.5; stroke-linecap: square"/>
   </g>
   <g id="line2d_15">
    <path d="M -1 308.736791 
L 4.8 297.532126 
L 16.799998 321.200769 
L 28.799995 305.015555 
L 40.800002 328.211811 
L 52.799999 307.00475 
L 64.799997 322.164791 
L 76.799999 307.2714 
L 88.800001 310.623719 
L 100.800003 302.034917 
L 112.8 317.287866 
L 124.799998 322.690247 
L 136.8 337.60735 
L 148.800002 334.062987 
L 160.799999 321.312716 
L 172.799999 318.205525 
L 184.8 294.844515 
L 196.8 316.659604 
L 208.8 312.415235 
L 220.8 331.838246 
L 232.8 342.035009 
L 244.8 353.83009 
L 256.8 356.792423 
L 268.800001 341.946526 
L 280.800001 315.099 
L 292.799998 305.300224 
L 304.8 314.36604 
L 316.800002 321.91751 
L 328.8 310.04647 
L 340.799997 289.598417 
L 352.799999 308.878687 
L 364.800001 338.087809 
L 376.800003 363.37072 
L 388.800001 343.138822 
L 400.799998 320.66111 
L 412.800005 308.433838 
L 424.800002 316.437531 
L 436.8 308.204122 
L 448.799997 301.355746 
L 460.799995 304.912421 
L 472.800001 310.013808 
L 484.799999 301.780582 
L 496.799996 287.633366 
L 508.800003 283.728796 
L 520.8 277.893201 
L 532.799989 283.719346 
L 544.799995 295.855113 
L 556.800001 298.349828 
L 568.79999 284.304373 
L 580.799996 264.4987 
L 592.800003 222.924726 
L 604.799991 175.607212 
L 616.799998 165.010621 
L 628.800004 151.69029 
L 640.799993 146.63095 
L 652.799999 134.255012 
L 664.800006 167.637289 
L 676.799994 232.099421 
L 688.800001 258.932666 
L 700.800007 277.491342 
L 712.799996 268.255016 
L 724.800002 285.316841 
L 736.800009 283.724638 
L 748.799997 278.734012 
L 760.800004 249.780581 
L 772.80001 222.911433 
L 784.799999 242.168426 
L 796.800005 247.185406 
L 808.800011 241.332572 
L 820.8 236.691091 
L 832.799989 264.093013 
L 844.799977 314.653684 
L 856.800001 313.632931 
L 857.8 314.58745 
" clip-path="url(#pf5c0712fcf)" style="fill: none; stroke: #7b4fa3; stroke-width: 2.5; stroke-linecap: square"/>
   </g>
   <g id="patch_3">
    <path d="M 100.8 396 
L 100.8 36 
" style="fill: none; stroke: #000000; stroke-width: 0.8; stroke-linejoin: miter; stroke-linecap: square"/>
   </g>
   <g id="patch_4">
    <path d="M 820.8 396 
L 820.8 36 
" style="fill: none; stroke: #000000; stroke-width: 0.8; stroke-linejoin: miter; stroke-linecap: square"/>
   </g>
   <g id="patch_5">
    <path d="M 100.8 396 
L 820.8 396 
" style="fill: none; stroke: #000000; stroke-width: 0.8; stroke-linejoin: miter; stroke-linecap: square"/>
   </g>
   <g id="patch_6">
    <path d="M 100.8 36 
L 820.8 36 
" style="fill: none; stroke: #000000; stroke-width: 0.8; stroke-linejoin: miter; stroke-linecap: square"/>
   </g>
   <g id="PathCollection_1">
    <defs>
     <path id="m21e22c127b" d="M 0 1.870829 
C 0.49615 1.870829 0.972045 1.673706 1.322876 1.322876 
C 1.673706 0.972045 1.870829 0.49615 1.870829 0 
C 1.870829 -0.49615 1.673706 -0.972045 1.322876 -1.322876 
C 0.972045 -1.673706 0.49615 -1.870829 0 -1.870829 
C -0.49615 -1.870829 -0.972045 -1.673706 -1.322876 -1.322876 
C -1.673706 -0.972045 -1.870829 -0.49615 -1.870829 0 
C -1.870829 0.49615 -1.673706 0.972045 -1.322876 1.322876 
C -0.972045 1.673706 -0.49615 1.870829 0 1.870829 
z
" style="stroke: #000000"/>
    </defs>
    <g clip-path="url(#pf5c0712fcf)">
     <use xlink:href="#m21e22c127b" x="172.799999" y="378" style="stroke: #000000"/>
     <use xlink:href="#m21e22c127b" x="568.79999" y="378" style="stroke: #000000"/>
     <use xlink:href="#m21e22c127b" x="580.799996" y="378" style="stroke: #000000"/>
     <use xlink:href="#m21e22c127b" x="700.800007" y="378" style="stroke: #000000"/>
     <use xlink:href="#m21e22c127b" x="724.800002" y="378" style="stroke: #000000"/>
     <use xlink:href="#m21e22c127b" x="736.800009" y="378" style="stroke: #000000"/>
     <use xlink:href="#m21e22c127b" x="748.799997" y="378" style="stroke: #000000"/>
     <use xlink:href="#m21e22c127b" x="1024.80002" y="378" style="stroke: #000000"/>
     <use xlink:href="#m21e22c127b" x="1048.799997" y="378" style="stroke: #000000"/>
     <use xlink:href="#m21e22c127b" x="1096.800023" y="378" style="stroke: #000000"/>
    </g>
   </g>
   <g id="legend_1">
    <g id="line2d_16">
     <path d="M 114.3 55.647656 
L 129.3 55.647656 
L 144.3 55.647656 
" style="fill: none; stroke: #c00a37; stroke-width: 2.5; stroke-linecap: square"/>
    </g>
    <g id="text_14">
     <!-- MLIP→MSC -->
     <g transform="translate(156.3 60.897656) scale(0.15 -0.15)">
      <defs>
       <path id="DejaVuSans-4d" d="M 628 4666 
L 1569 4666 
L 2759 1491 
L 3956 4666 
L 4897 4666 
L 4897 0 
L 4281 0 
L 4281 4097 
L 3078 897 
L 2444 897 
L 1241 4097 
L 1241 0 
L 628 0 
L 628 4666 
z
" transform="scale(0.015625)"/>
       <path id="DejaVuSans-4c" d="M 628 4666 
L 1259 4666 
L 1259 531 
L 3531 531 
L 3531 0 
L 628 0 
L 628 4666 
z
" transform="scale(0.015625)"/>
       <path id="DejaVuSans-49" d="M 628 4666 
L 1259 4666 
L 1259 0 
L 628 0 
L 628 4666 
z
" transform="scale(0.015625)"/>
       <path id="DejaVuSans-50" d="M 1259 4147 
L 1259 2394 
L 2053 2394 
Q 2494 2394 2734 2622 
Q 2975 2850 2975 3272 
Q 2975 3691 2734 3919 
Q 2494 4147 2053 4147 
L 1259 4147 
z
M 628 4666 
L 2053 4666 
Q 2838 4666 3239 4311 
Q 3641 3956 3641 3272 
Q 3641 2581 3239 2228 
Q 2838 1875 2053 1875 
L 1259 1875 
L 1259 0 
L 628 0 
L 628 4666 
z
" transform="scale(0.015625)"/>
       <path id="DejaVuSans-2192" d="M 5050 2147 
L 5050 1866 
L 3822 638 
L 3447 1013 
L 4175 1741 
L 366 1741 
L 366 2272 
L 4175 2272 
L 3447 3000 
L 3822 3375 
L 5050 2147 
z
" transform="scale(0.015625)"/>
       <path id="DejaVuSans-43" d="M 4122 4306 
L 4122 3641 
Q 3803 3938 3442 4084 
Q 3081 4231 2675 4231 
Q 1875 4231 1450 3742 
Q 1025 3253 1025 2328 
Q 1025 1406 1450 917 
Q 1875 428 2675 428 
Q 3081 428 3442 575 
Q 3803 722 4122 1019 
L 4122 359 
Q 3791 134 3420 21 
Q 3050 -91 2638 -91 
Q 1578 -91 968 557 
Q 359 1206 359 2328 
Q 359 3453 968 4101 
Q 1578 4750 2638 4750 
Q 3056 4750 3426 4639 
Q 3797 4528 4122 4306 
z
" transform="scale(0.015625)"/>
      </defs>
      <use xlink:href="#DejaVuSans-4d"/>
      <use xlink:href="#DejaVuSans-4c" transform="translate(86.279297 0)"/>
      <use xlink:href="#DejaVuSans-49" transform="translate(141.992188 0)"/>
      <use xlink:href="#DejaVuSans-50" transform="translate(171.484375 0)"/>
      <use xlink:href="#DejaVuSans-2192" transform="translate(231.787109 0)"/>
      <use xlink:href="#DejaVuSans-4d" transform="translate(315.576172 0)"/>
      <use xlink:href="#DejaVuSans-53" transform="translate(401.855469 0)"/>
      <use xlink:href="#DejaVuSans-43" transform="translate(465.332031 0)"/>
     </g>
    </g>
    <g id="line2d_17">
     <path d="M 114.3 77.664844 
L 129.3 77.664844 
L 144.3 77.664844 
" style="fill: none; stroke: #7b4fa3; stroke-width: 2.5; stroke-linecap: square"/>
    </g>
    <g id="text_15">
     <!-- MSC→MLIP -->
     <g transform="translate(156.3 82.914844) scale(0.15 -0.15)">
      <use xlink:href="#DejaVuSans-4d"/>
      <use xlink:href="#DejaVuSans-53" transform="translate(86.279297 0)"/>
      <use xlink:href="#DejaVuSans-43" transform="translate(149.755859 0)"/>
      <use xlink:href="#DejaVuSans-2192" transform="translate(219.580078 0)"/>
      <use xlink:href="#DejaVuSans-4d" transform="translate(303.369141 0)"/>
      <use xlink:href="#DejaVuSans-4c" transform="translate(389.648438 0)"/>
      <use xlink:href="#DejaVuSans-49" transform="translate(445.361328 0)"/>
      <use xlink:href="#DejaVuSans-50" transform="translate(474.853516 0)"/>
     </g>
    </g>
    <g id="PathCollection_2">
     <g>
      <use xlink:href="#m21e22c127b" x="129.3" y="100.994531" style="stroke: #000000"/>
     </g>
    </g>
    <g id="text_16">
     <!-- p&lt;α -->
     <g transform="translate(156.3 104.932031) scale(0.15 -0.15)">
      <defs>
       <path id="DejaVuSans-3c" d="M 4684 3150 
L 1459 2003 
L 4684 863 
L 4684 294 
L 678 1747 
L 678 2266 
L 4684 3719 
L 4684 3150 
z
" transform="scale(0.015625)"/>
       <path id="DejaVuSans-3b1" d="M 2644 1628 
L 2506 2350 
Q 2366 3091 1809 3091 
Q 1391 3091 1200 2747 
Q 959 2316 959 1747 
Q 959 1059 1194 731 
Q 1431 397 1809 397 
Q 2228 397 2453 1063 
L 2644 1628 
z
M 2966 2584 
L 3275 3500 
L 3788 3500 
L 3147 1603 
L 3272 919 
Q 3300 766 3409 638 
Q 3538 488 3638 488 
L 3913 488 
L 3913 0 
L 3569 0 
Q 3275 0 3013 263 
Q 2884 394 2831 669 
Q 2688 322 2394 50 
Q 2256 -78 1809 -78 
Q 1075 -78 719 397 
Q 353 888 353 1747 
Q 353 2666 750 3097 
Q 1191 3578 1809 3578 
Q 2781 3578 2966 2584 
z
" transform="scale(0.015625)"/>
      </defs>
      <use xlink:href="#DejaVuSans-70"/>
      <use xlink:href="#DejaVuSans-3c" transform="translate(63.476562 0)"/>
      <use xlink:href="#DejaVuSans-3b1" transform="translate(147.265625 0)"/>
     </g>
    </g>
   </g>
  </g>
 </g>
 <defs>
  <clipPath id="pf5c0712fcf">
   <rect x="100.8" y="36" width="720" height="360"/>
  </clipPath>
 </defs>
</svg>
