<?xml version="1.0" encoding="utf-8" standalone="no"?>
<!DOCTYPE svg PUBLIC "-//W3C//DTD SVG 1.1//EN"
  "http://www.w3.org/Graphics/SVG/1.1/DTD/svg11.dtd">
<svg xmlns:xlink="http://www.w3.org/1999/xlink" width="561.6pt" height="561.6pt" viewBox="0 0 561.6 561.6" xmlns="http://www.w3.org/2000/svg" version="1.1">
 <metadata>
  <rdf:RDF xmlns:dc="http://purl.org/dc/elements/1.1/" xmlns:cc="http://creativecommons.org/ns#" xmlns:rdf="http://www.w3.org/1999/02/22-rdf-syntax-ns#">
   <cc:Work>
    <dc:type rdf:resource="http://purl.org/dc/dcmitype/StillImage"/>
    <dc:date>2025-12-08T02:01:53.059072</dc:date>
    <dc:format>image/svg+xml</dc:format>
    <dc:creator>
     <cc:Agent>
      <dc:title>Matplotlib v3.10.5, https://matplotlib.org/</dc:title>
     </cc:Agent>
    </dc:creator>
   </cc:Work>
  </rdf:RDF>
 </metadata>
 <defs>
  <style type="text/css">*{stroke-linejoin: round; stroke-linecap: butt}</style>
 </defs>
 <g id="figure_1">
  <g id="patch_1">
   <path d="M 0 561.6 
L 561.6 561.6 
L 561.6 0 
L 0 0 
z
" style="fill: #ffffff"/>
  </g>
  <g id="axes_1">
   <g id="patch_2">
    <path d="M 70.2 206.388 
L 505.44 206.388 
L 505.44 67.392 
L 70.2 67.392 
z
" style="fill: #ffffff"/>
   </g>
   <g id="FillBetweenPolyCollection_1">
    <defs>
     <path id="md43cd19aad" d="M 89.983636 -416.13655 
L 89.983636 -372.79802 
L 93.980327 -371.611689 
L 97.977023 -371.553451 
L 101.973713 -370.491512 
L 105.97041 -372.406097 
L 109.967106 -371.960544 
L 113.963796 -370.522395 
L 117.960493 -370.330643 
L 121.957186 -371.565417 
L 125.953882 -371.092901 
L 129.950576 -371.128381 
L 133.947269 -372.857431 
L 137.943962 -371.941564 
L 141.940659 -371.483563 
L 145.937352 -370.657922 
L 149.934045 -374.300598 
L 153.93074 -371.908311 
L 157.927434 -369.842248 
L 161.924129 -371.477337 
L 165.920823 -369.918184 
L 169.917517 -371.324391 
L 173.914211 -370.748556 
L 177.910906 -370.791436 
L 181.9076 -372.866791 
L 185.904294 -370.380721 
L 189.900988 -370.396941 
L 193.897681 -372.183476 
L 197.894377 -370.344335 
L 201.891071 -371.631442 
L 205.887764 -370.499799 
L 209.884457 -373.331614 
L 213.881154 -370.724925 
L 217.877847 -370.954656 
L 221.874543 -370.569995 
L 225.871234 -369.973336 
L 229.86793 -371.697805 
L 233.864626 -370.797432 
L 237.861317 -370.364237 
L 241.858013 -371.614991 
L 245.854704 -369.086471 
L 249.8514 -370.780975 
L 253.848096 -372.117661 
L 257.844787 -371.003124 
L 261.841483 -372.127857 
L 265.838179 -373.139105 
L 269.83487 -371.836785 
L 273.83156 -370.601695 
L 277.828262 -370.717628 
L 281.824953 -371.971333 
L 285.821643 -369.955204 
L 289.818345 -370.959837 
L 293.815036 -371.267052 
L 297.811726 -370.153984 
L 301.808428 -371.468072 
L 305.805119 -370.795854 
L 309.801809 -371.631633 
L 313.798511 -370.885736 
L 317.795202 -371.394473 
L 321.791892 -371.020783 
L 325.788594 -372.016699 
L 329.785285 -371.377027 
L 333.781975 -370.529808 
L 337.778677 -371.174085 
L 341.775368 -370.623538 
L 345.772058 -371.25151 
L 349.76876 -372.182864 
L 353.765451 -369.962064 
L 357.762141 -371.758706 
L 361.758843 -371.250841 
L 365.755534 -371.264455 
L 369.752224 -369.743123 
L 373.748914 -372.244316 
L 377.745605 -370.83619 
L 381.742319 -371.786745 
L 385.739009 -371.014217 
L 389.7357 -370.130892 
L 393.73239 -371.974118 
L 397.72908 -371.695978 
L 401.725771 -370.382825 
L 405.722485 -370.996773 
L 409.719175 -372.158399 
L 413.715866 -369.850927 
L 417.712556 -369.195304 
L 421.709246 -370.080368 
L 425.705937 -370.228197 
L 429.702627 -371.059183 
L 433.699341 -371.873866 
L 437.696032 -370.70748 
L 441.692722 -371.562715 
L 445.689412 -372.056221 
L 449.686103 -371.235663 
L 453.682793 -370.818569 
L 457.679507 -372.00112 
L 461.676198 -371.805515 
L 465.672888 -372.487158 
L 469.669578 -371.761496 
L 473.666269 -372.231989 
L 477.662959 -370.263866 
L 481.659673 -371.772182 
L 485.656364 -371.609075 
L 485.656364 -416.266658 
L 485.656364 -416.266658 
L 481.659673 -413.46002 
L 477.662959 -410.934162 
L 473.666269 -413.617028 
L 469.669578 -413.957277 
L 465.672888 -414.158947 
L 461.676198 -414.012191 
L 457.679507 -413.969177 
L 453.682793 -414.302392 
L 449.686103 -410.081992 
L 445.689412 -414.875812 
L 441.692722 -411.587889 
L 437.696032 -414.321132 
L 433.699341 -413.092075 
L 429.702627 -417.078208 
L 425.705937 -408.472367 
L 421.709246 -413.746042 
L 417.712556 -415.437589 
L 413.715866 -415.370363 
L 409.719175 -414.618098 
L 405.722485 -414.303858 
L 401.725771 -413.612537 
L 397.72908 -416.13541 
L 393.73239 -414.47157 
L 389.7357 -415.841551 
L 385.739009 -413.45728 
L 381.742319 -412.586525 
L 377.745605 -414.778091 
L 373.748914 -417.402082 
L 369.752224 -416.185685 
L 365.755534 -412.774158 
L 361.758843 -418.156436 
L 357.762141 -415.437461 
L 353.765451 -410.847496 
L 349.76876 -414.842476 
L 345.772058 -416.642091 
L 341.775368 -416.882046 
L 337.778677 -416.316415 
L 333.781975 -416.525964 
L 329.785285 -415.621265 
L 325.788594 -414.382612 
L 321.791892 -415.963386 
L 317.795202 -417.579808 
L 313.798511 -414.680899 
L 309.801809 -411.240445 
L 305.805119 -414.927934 
L 301.808428 -418.823704 
L 297.811726 -414.492795 
L 293.815036 -412.87869 
L 289.818345 -416.665309 
L 285.821643 -415.978261 
L 281.824953 -415.097632 
L 277.828262 -414.905464 
L 273.83156 -411.642972 
L 269.83487 -413.71614 
L 265.838179 -419.992752 
L 261.841483 -413.961405 
L 257.844787 -416.871079 
L 253.848096 -412.716153 
L 249.8514 -409.493588 
L 245.854704 -409.213995 
L 241.858013 -412.052496 
L 237.861317 -414.524671 
L 233.864626 -417.378781 
L 229.86793 -425.296805 
L 225.871234 -412.691049 
L 221.874543 -412.295996 
L 217.877847 -411.953663 
L 213.881154 -412.99393 
L 209.884457 -419.109627 
L 205.887764 -414.509868 
L 201.891071 -412.244475 
L 197.894377 -414.048127 
L 193.897681 -416.071871 
L 189.900988 -415.908276 
L 185.904294 -420.248503 
L 181.9076 -413.341438 
L 177.910906 -414.496024 
L 173.914211 -412.942054 
L 169.917517 -414.717734 
L 165.920823 -414.947041 
L 161.924129 -413.73001 
L 157.927434 -413.392954 
L 153.93074 -413.811102 
L 149.934045 -415.601957 
L 145.937352 -411.49161 
L 141.940659 -414.062592 
L 137.943962 -414.56652 
L 133.947269 -415.922111 
L 129.950576 -414.111552 
L 125.953882 -411.778758 
L 121.957186 -414.493896 
L 117.960493 -415.252412 
L 113.963796 -415.981916 
L 109.967106 -418.660256 
L 105.97041 -417.440986 
L 101.973713 -418.752526 
L 97.977023 -414.96028 
L 93.980327 -413.348399 
L 89.983636 -416.13655 
z
"/>
    </defs>
    <g clip-path="url(#p18d8661833)">
     <use xlink:href="#md43cd19aad" x="0" y="561.6" style="fill: #1f77b4; fill-opacity: 0.15"/>
    </g>
   </g>
   <g id="FillBetweenPolyCollection_2">
    <defs>
     <path id="m25e18d9967" d="M 89.983636 -414.051382 
L 89.983636 -370.683771 
L 93.980327 -371.563519 
L 97.977023 -370.76011 
L 101.973713 -372.177261 
L 105.97041 -372.081333 
L 109.967106 -371.416963 
L 113.963796 -371.449221 
L 117.960493 -372.400279 
L 121.957186 -371.24208 
L 125.953882 -370.8271 
L 129.950576 -371.921906 
L 133.947269 -371.185334 
L 137.943962 -371.263447 
L 141.940659 -371.409265 
L 145.937352 -371.822671 
L 149.934045 -371.606084 
L 153.93074 -372.693009 
L 157.927434 -371.283992 
L 161.924129 -371.618195 
L 165.920823 -370.809383 
L 169.917517 -372.343207 
L 173.914211 -370.99665 
L 177.910906 -372.219304 
L 181.9076 -370.451877 
L 185.904294 -371.033294 
L 189.900988 -370.991888 
L 193.897681 -369.55031 
L 197.894377 -372.135581 
L 201.891071 -369.975363 
L 205.887764 -370.88416 
L 209.884457 -371.164957 
L 213.881154 -372.110732 
L 217.877847 -371.516171 
L 221.874543 -369.154596 
L 225.871234 -372.110358 
L 229.86793 -370.360626 
L 233.864626 -370.964067 
L 237.861317 -369.489383 
L 241.858013 -369.906091 
L 245.854704 -372.132848 
L 249.8514 -371.826879 
L 253.848096 -370.301011 
L 257.844787 -371.699411 
L 261.841483 -371.590258 
L 265.838179 -371.301642 
L 269.83487 -370.184802 
L 273.83156 -371.553267 
L 277.828262 -370.696947 
L 281.824953 -372.572844 
L 285.821643 -372.393725 
L 289.818345 -369.425519 
L 293.815036 -370.95126 
L 297.811726 -372.132138 
L 301.808428 -371.3905 
L 305.805119 -369.617874 
L 309.801809 -371.037276 
L 313.798511 -370.695565 
L 317.795202 -371.167054 
L 321.791892 -370.965991 
L 325.788594 -373.340479 
L 329.785285 -371.554938 
L 333.781975 -368.981562 
L 337.778677 -371.399923 
L 341.775368 -372.904214 
L 345.772058 -371.665424 
L 349.76876 -371.072493 
L 353.765451 -370.614016 
L 357.762141 -369.405981 
L 361.758843 -372.423866 
L 365.755534 -370.247794 
L 369.752224 -371.297432 
L 373.748914 -370.810034 
L 377.745605 -372.524248 
L 381.742319 -371.977985 
L 385.739009 -371.321897 
L 389.7357 -372.433892 
L 393.73239 -370.741134 
L 397.72908 -372.505167 
L 401.725771 -372.315049 
L 405.722485 -371.541221 
L 409.719175 -371.263514 
L 413.715866 -372.234407 
L 417.712556 -372.259675 
L 421.709246 -370.896182 
L 425.705937 -371.382345 
L 429.702627 -371.568835 
L 433.699341 -370.182877 
L 437.696032 -369.901254 
L 441.692722 -372.145641 
L 445.689412 -372.968854 
L 449.686103 -370.839654 
L 453.682793 -371.220221 
L 457.679507 -371.395507 
L 461.676198 -372.205806 
L 465.672888 -373.154739 
L 469.669578 -370.124182 
L 473.666269 -371.150672 
L 477.662959 -370.963561 
L 481.659673 -370.866472 
L 485.656364 -370.475054 
L 485.656364 -412.897742 
L 485.656364 -412.897742 
L 481.659673 -416.921234 
L 477.662959 -413.511188 
L 473.666269 -411.931974 
L 469.669578 -417.102977 
L 465.672888 -416.578006 
L 461.676198 -415.956288 
L 457.679507 -417.070752 
L 453.682793 -416.645762 
L 449.686103 -415.397093 
L 445.689412 -413.951143 
L 441.692722 -414.615823 
L 437.696032 -411.622185 
L 433.699341 -413.667726 
L 429.702627 -414.223698 
L 425.705937 -415.206395 
L 421.709246 -412.150491 
L 417.712556 -415.918435 
L 413.715866 -415.310073 
L 409.719175 -413.328145 
L 405.722485 -415.9213 
L 401.725771 -414.910363 
L 397.72908 -416.427747 
L 393.73239 -415.419813 
L 389.7357 -414.681857 
L 385.739009 -412.840815 
L 381.742319 -416.083325 
L 377.745605 -417.365647 
L 373.748914 -412.394524 
L 369.752224 -413.151895 
L 365.755534 -410.669507 
L 361.758843 -407.645183 
L 357.762141 -410.420893 
L 353.765451 -411.248969 
L 349.76876 -410.120772 
L 345.772058 -416.880295 
L 341.775368 -418.896962 
L 337.778677 -416.142919 
L 333.781975 -413.561251 
L 329.785285 -410.71841 
L 325.788594 -412.551029 
L 321.791892 -412.235076 
L 317.795202 -412.751631 
L 313.798511 -414.445431 
L 309.801809 -418.060453 
L 305.805119 -413.174645 
L 301.808428 -412.986992 
L 297.811726 -412.679374 
L 293.815036 -415.203146 
L 289.818345 -415.205404 
L 285.821643 -415.482879 
L 281.824953 -414.637386 
L 277.828262 -415.001691 
L 273.83156 -415.672369 
L 269.83487 -418.549847 
L 265.838179 -410.336232 
L 261.841483 -412.012136 
L 257.844787 -411.734749 
L 253.848096 -412.001449 
L 249.8514 -415.119532 
L 245.854704 -414.747414 
L 241.858013 -412.62269 
L 237.861317 -415.430747 
L 233.864626 -415.422398 
L 229.86793 -413.866211 
L 225.871234 -412.599148 
L 221.874543 -412.390095 
L 217.877847 -410.695856 
L 213.881154 -416.648727 
L 209.884457 -414.806755 
L 205.887764 -414.998377 
L 201.891071 -413.029908 
L 197.894377 -414.236938 
L 193.897681 -413.381247 
L 189.900988 -415.690108 
L 185.904294 -411.927881 
L 181.9076 -414.992509 
L 177.910906 -416.804294 
L 173.914211 -415.504738 
L 169.917517 -419.590737 
L 165.920823 -413.232844 
L 161.924129 -414.47694 
L 157.927434 -410.588701 
L 153.93074 -416.741554 
L 149.934045 -413.099423 
L 145.937352 -413.759296 
L 141.940659 -414.564711 
L 137.943962 -412.377382 
L 133.947269 -421.133358 
L 129.950576 -417.030853 
L 125.953882 -410.549733 
L 121.957186 -416.739667 
L 117.960493 -420.591268 
L 113.963796 -413.232147 
L 109.967106 -412.787934 
L 105.97041 -417.286745 
L 101.973713 -416.052591 
L 97.977023 -413.101248 
L 93.980327 -417.770403 
L 89.983636 -414.051382 
z
"/>
    </defs>
    <g clip-path="url(#p18d8661833)">
     <use xlink:href="#m25e18d9967" x="0" y="561.6" style="fill: #ff7f0e; fill-opacity: 0.15"/>
    </g>
   </g>
   <g id="matplotlib.axis_1">
    <g id="xtick_1">
     <g id="line2d_1">
      <defs>
       <path id="m2b3c742147" d="M 0 0 
L 0 3.5 
" style="stroke: #000000; stroke-width: 0.8"/>
      </defs>
      <g>
       <use xlink:href="#m2b3c742147" x="87.985286" y="206.388" style="stroke: #000000; stroke-width: 0.8"/>
      </g>
     </g>
     <g id="text_1">
      <!-- −200 -->
      <g transform="translate(74.251693 220.986437) scale(0.1 -0.1)">
       <defs>
        <path id="DejaVuSans-2212" d="M 678 2272 
L 4684 2272 
L 4684 1741 
L 678 1741 
L 678 2272 
z
" transform="scale(0.015625)"/>
        <path id="DejaVuSans-32" d="M 1228 531 
L 3431 531 
L 3431 0 
L 469 0 
L 469 531 
Q 828 903 1448 1529 
Q 2069 2156 2228 2338 
Q 2531 2678 2651 2914 
Q 2772 3150 2772 3378 
Q 2772 3750 2511 3984 
Q 2250 4219 1831 4219 
Q 1534 4219 1204 4116 
Q 875 4013 500 3803 
L 500 4441 
Q 881 4594 1212 4672 
Q 1544 4750 1819 4750 
Q 2544 4750 2975 4387 
Q 3406 4025 3406 3419 
Q 3406 3131 3298 2873 
Q 3191 2616 2906 2266 
Q 2828 2175 2409 1742 
Q 1991 1309 1228 531 
z
" transform="scale(0.015625)"/>
        <path id="DejaVuSans-30" d="M 2034 4250 
Q 1547 4250 1301 3770 
Q 1056 3291 1056 2328 
Q 1056 1369 1301 889 
Q 1547 409 2034 409 
Q 2525 409 2770 889 
Q 3016 1369 3016 2328 
Q 3016 3291 2770 3770 
Q 2525 4250 2034 4250 
z
M 2034 4750 
Q 2819 4750 3233 4129 
Q 3647 3509 3647 2328 
Q 3647 1150 3233 529 
Q 2819 -91 2034 -91 
Q 1250 -91 836 529 
Q 422 1150 422 2328 
Q 422 3509 836 4129 
Q 1250 4750 2034 4750 
z
" transform="scale(0.015625)"/>
       </defs>
       <use xlink:href="#DejaVuSans-2212"/>
       <use xlink:href="#DejaVuSans-32" transform="translate(83.789062 0)"/>
       <use xlink:href="#DejaVuSans-30" transform="translate(147.412109 0)"/>
       <use xlink:href="#DejaVuSans-30" transform="translate(211.035156 0)"/>
      </g>
     </g>
    </g>
    <g id="xtick_2">
     <g id="line2d_2">
      <g>
       <use xlink:href="#m2b3c742147" x="167.91917" y="206.388" style="stroke: #000000; stroke-width: 0.8"/>
      </g>
     </g>
     <g id="text_2">
      <!-- 0 -->
      <g transform="translate(164.73792 220.986437) scale(0.1 -0.1)">
       <use xlink:href="#DejaVuSans-30"/>
      </g>
     </g>
    </g>
    <g id="xtick_3">
     <g id="line2d_3">
      <g>
       <use xlink:href="#m2b3c742147" x="247.853053" y="206.388" style="stroke: #000000; stroke-width: 0.8"/>
      </g>
     </g>
     <g id="text_3">
      <!-- 200 -->
      <g transform="translate(238.309303 220.986437) scale(0.1 -0.1)">
       <use xlink:href="#DejaVuSans-32"/>
       <use xlink:href="#DejaVuSans-30" transform="translate(63.623047 0)"/>
       <use xlink:href="#DejaVuSans-30" transform="translate(127.246094 0)"/>
      </g>
     </g>
    </g>
    <g id="xtick_4">
     <g id="line2d_4">
      <g>
       <use xlink:href="#m2b3c742147" x="327.786937" y="206.388" style="stroke: #000000; stroke-width: 0.8"/>
      </g>
     </g>
     <g id="text_4">
      <!-- 400 -->
      <g transform="translate(318.243187 220.986437) scale(0.1 -0.1)">
       <defs>
        <path id="DejaVuSans-34" d="M 2419 4116 
L 825 1625 
L 2419 1625 
L 2419 4116 
z
M 2253 4666 
L 3047 4666 
L 3047 1625 
L 3713 1625 
L 3713 1100 
L 3047 1100 
L 3047 0 
L 2419 0 
L 2419 1100 
L 313 1100 
L 313 1709 
L 2253 4666 
z
" transform="scale(0.015625)"/>
       </defs>
       <use xlink:href="#DejaVuSans-34"/>
       <use xlink:href="#DejaVuSans-30" transform="translate(63.623047 0)"/>
       <use xlink:href="#DejaVuSans-30" transform="translate(127.246094 0)"/>
      </g>
     </g>
    </g>
    <g id="xtick_5">
     <g id="line2d_5">
      <g>
       <use xlink:href="#m2b3c742147" x="407.720821" y="206.388" style="stroke: #000000; stroke-width: 0.8"/>
      </g>
     </g>
     <g id="text_5">
      <!-- 600 -->
      <g transform="translate(398.177071 220.986437) scale(0.1 -0.1)">
       <defs>
        <path id="DejaVuSans-36" d="M 2113 2584 
Q 1688 2584 1439 2293 
Q 1191 2003 1191 1497 
Q 1191 994 1439 701 
Q 1688 409 2113 409 
Q 2538 409 2786 701 
Q 3034 994 3034 1497 
Q 3034 2003 2786 2293 
Q 2538 2584 2113 2584 
z
M 3366 4563 
L 3366 3988 
Q 3128 4100 2886 4159 
Q 2644 4219 2406 4219 
Q 1781 4219 1451 3797 
Q 1122 3375 1075 2522 
Q 1259 2794 1537 2939 
Q 1816 3084 2150 3084 
Q 2853 3084 3261 2657 
Q 3669 2231 3669 1497 
Q 3669 778 3244 343 
Q 2819 -91 2113 -91 
Q 1303 -91 875 529 
Q 447 1150 447 2328 
Q 447 3434 972 4092 
Q 1497 4750 2381 4750 
Q 2619 4750 2861 4703 
Q 3103 4656 3366 4563 
z
" transform="scale(0.015625)"/>
       </defs>
       <use xlink:href="#DejaVuSans-36"/>
       <use xlink:href="#DejaVuSans-30" transform="translate(63.623047 0)"/>
       <use xlink:href="#DejaVuSans-30" transform="translate(127.246094 0)"/>
      </g>
     </g>
    </g>
    <g id="xtick_6">
     <g id="line2d_6">
      <g>
       <use xlink:href="#m2b3c742147" x="487.654704" y="206.388" style="stroke: #000000; stroke-width: 0.8"/>
      </g>
     </g>
     <g id="text_6">
      <!-- 800 -->
      <g transform="translate(478.110954 220.986437) scale(0.1 -0.1)">
       <defs>
        <path id="DejaVuSans-38" d="M 2034 2216 
Q 1584 2216 1326 1975 
Q 1069 1734 1069 1313 
Q 1069 891 1326 650 
Q 1584 409 2034 409 
Q 2484 409 2743 651 
Q 3003 894 3003 1313 
Q 3003 1734 2745 1975 
Q 2488 2216 2034 2216 
z
M 1403 2484 
Q 997 2584 770 2862 
Q 544 3141 544 3541 
Q 544 4100 942 4425 
Q 1341 4750 2034 4750 
Q 2731 4750 3128 4425 
Q 3525 4100 3525 3541 
Q 3525 3141 3298 2862 
Q 3072 2584 2669 2484 
Q 3125 2378 3379 2068 
Q 3634 1759 3634 1313 
Q 3634 634 3220 271 
Q 2806 -91 2034 -91 
Q 1263 -91 848 271 
Q 434 634 434 1313 
Q 434 1759 690 2068 
Q 947 2378 1403 2484 
z
M 1172 3481 
Q 1172 3119 1398 2916 
Q 1625 2713 2034 2713 
Q 2441 2713 2670 2916 
Q 2900 3119 2900 3481 
Q 2900 3844 2670 4047 
Q 2441 4250 2034 4250 
Q 1625 4250 1398 4047 
Q 1172 3844 1172 3481 
z
" transform="scale(0.015625)"/>
       </defs>
       <use xlink:href="#DejaVuSans-38"/>
       <use xlink:href="#DejaVuSans-30" transform="translate(63.623047 0)"/>
       <use xlink:href="#DejaVuSans-30" transform="translate(127.246094 0)"/>
      </g>
     </g>
    </g>
   </g>
   <g id="matplotlib.axis_2">
    <g id="ytick_1">
     <g id="line2d_7">
      <defs>
       <path id="m06de745bc5" d="M 0 0 
L -3.5 0 
" style="stroke: #000000; stroke-width: 0.8"/>
      </defs>
      <g>
       <use xlink:href="#m06de745bc5" x="70.2" y="202.842259" style="stroke: #000000; stroke-width: 0.8"/>
      </g>
     </g>
     <g id="text_7">
      <!-- 0 -->
      <g transform="translate(56.8375 206.641477) scale(0.1 -0.1)">
       <use xlink:href="#DejaVuSans-30"/>
      </g>
     </g>
    </g>
    <g id="ytick_2">
     <g id="line2d_8">
      <g>
       <use xlink:href="#m06de745bc5" x="70.2" y="158.146352" style="stroke: #000000; stroke-width: 0.8"/>
      </g>
     </g>
     <g id="text_8">
      <!-- 5 -->
      <g transform="translate(56.8375 161.945571) scale(0.1 -0.1)">
       <defs>
        <path id="DejaVuSans-35" d="M 691 4666 
L 3169 4666 
L 3169 4134 
L 1269 4134 
L 1269 2991 
Q 1406 3038 1543 3061 
Q 1681 3084 1819 3084 
Q 2600 3084 3056 2656 
Q 3513 2228 3513 1497 
Q 3513 744 3044 326 
Q 2575 -91 1722 -91 
Q 1428 -91 1123 -41 
Q 819 9 494 109 
L 494 744 
Q 775 591 1075 516 
Q 1375 441 1709 441 
Q 2250 441 2565 725 
Q 2881 1009 2881 1497 
Q 2881 1984 2565 2268 
Q 2250 2553 1709 2553 
Q 1456 2553 1204 2497 
Q 953 2441 691 2322 
L 691 4666 
z
" transform="scale(0.015625)"/>
       </defs>
       <use xlink:href="#DejaVuSans-35"/>
      </g>
     </g>
    </g>
    <g id="ytick_3">
     <g id="line2d_9">
      <g>
       <use xlink:href="#m06de745bc5" x="70.2" y="113.450446" style="stroke: #000000; stroke-width: 0.8"/>
      </g>
     </g>
     <g id="text_9">
      <!-- 10 -->
      <g transform="translate(50.475 117.249664) scale(0.1 -0.1)">
       <defs>
        <path id="DejaVuSans-31" d="M 794 531 
L 1825 531 
L 1825 4091 
L 703 3866 
L 703 4441 
L 1819 4666 
L 2450 4666 
L 2450 531 
L 3481 531 
L 3481 0 
L 794 0 
L 794 531 
z
" transform="scale(0.015625)"/>
       </defs>
       <use xlink:href="#DejaVuSans-31"/>
       <use xlink:href="#DejaVuSans-30" transform="translate(63.623047 0)"/>
      </g>
     </g>
    </g>
    <g id="ytick_4">
     <g id="line2d_10">
      <g>
       <use xlink:href="#m06de745bc5" x="70.2" y="68.754539" style="stroke: #000000; stroke-width: 0.8"/>
      </g>
     </g>
     <g id="text_10">
      <!-- 15 -->
      <g transform="translate(50.475 72.553758) scale(0.1 -0.1)">
       <use xlink:href="#DejaVuSans-31"/>
       <use xlink:href="#DejaVuSans-35" transform="translate(63.623047 0)"/>
      </g>
     </g>
    </g>
    <g id="text_11">
     <!-- ΔLL (bits) -->
     <g transform="translate(44.395313 160.500937) rotate(-90) scale(0.1 -0.1)">
      <defs>
       <path id="DejaVuSans-394" d="M 2188 4044 
L 906 525 
L 3472 525 
L 2188 4044 
z
M 50 0 
L 1831 4666 
L 2547 4666 
L 4325 0 
L 50 0 
z
" transform="scale(0.015625)"/>
       <path id="DejaVuSans-4c" d="M 628 4666 
L 1259 4666 
L 1259 531 
L 3531 531 
L 3531 0 
L 628 0 
L 628 4666 
z
" transform="scale(0.015625)"/>
       <path id="DejaVuSans-20" transform="scale(0.015625)"/>
       <path id="DejaVuSans-28" d="M 1984 4856 
Q 1566 4138 1362 3434 
Q 1159 2731 1159 2009 
Q 1159 1288 1364 580 
Q 1569 -128 1984 -844 
L 1484 -844 
Q 1016 -109 783 600 
Q 550 1309 550 2009 
Q 550 2706 781 3412 
Q 1013 4119 1484 4856 
L 1984 4856 
z
" transform="scale(0.015625)"/>
       <path id="DejaVuSans-62" d="M 3116 1747 
Q 3116 2381 2855 2742 
Q 2594 3103 2138 3103 
Q 1681 3103 1420 2742 
Q 1159 2381 1159 1747 
Q 1159 1113 1420 752 
Q 1681 391 2138 391 
Q 2594 391 2855 752 
Q 3116 1113 3116 1747 
z
M 1159 2969 
Q 1341 3281 1617 3432 
Q 1894 3584 2278 3584 
Q 2916 3584 3314 3078 
Q 3713 2572 3713 1747 
Q 3713 922 3314 415 
Q 2916 -91 2278 -91 
Q 1894 -91 1617 61 
Q 1341 213 1159 525 
L 1159 0 
L 581 0 
L 581 4863 
L 1159 4863 
L 1159 2969 
z
" transform="scale(0.015625)"/>
       <path id="DejaVuSans-69" d="M 603 3500 
L 1178 3500 
L 1178 0 
L 603 0 
L 603 3500 
z
M 603 4863 
L 1178 4863 
L 1178 4134 
L 603 4134 
L 603 4863 
z
" transform="scale(0.015625)"/>
       <path id="DejaVuSans-74" d="M 1172 4494 
L 1172 3500 
L 2356 3500 
L 2356 3053 
L 1172 3053 
L 1172 1153 
Q 1172 725 1289 603 
Q 1406 481 1766 481 
L 2356 481 
L 2356 0 
L 1766 0 
Q 1100 0 847 248 
Q 594 497 594 1153 
L 594 3053 
L 172 3053 
L 172 3500 
L 594 3500 
L 594 4494 
L 1172 4494 
z
" transform="scale(0.015625)"/>
       <path id="DejaVuSans-73" d="M 2834 3397 
L 2834 2853 
Q 2591 2978 2328 3040 
Q 2066 3103 1784 3103 
Q 1356 3103 1142 2972 
Q 928 2841 928 2578 
Q 928 2378 1081 2264 
Q 1234 2150 1697 2047 
L 1894 2003 
Q 2506 1872 2764 1633 
Q 3022 1394 3022 966 
Q 3022 478 2636 193 
Q 2250 -91 1575 -91 
Q 1294 -91 989 -36 
Q 684 19 347 128 
L 347 722 
Q 666 556 975 473 
Q 1284 391 1588 391 
Q 1994 391 2212 530 
Q 2431 669 2431 922 
Q 2431 1156 2273 1281 
Q 2116 1406 1581 1522 
L 1381 1569 
Q 847 1681 609 1914 
Q 372 2147 372 2553 
Q 372 3047 722 3315 
Q 1072 3584 1716 3584 
Q 2034 3584 2315 3537 
Q 2597 3491 2834 3397 
z
" transform="scale(0.015625)"/>
       <path id="DejaVuSans-29" d="M 513 4856 
L 1013 4856 
Q 1481 4119 1714 3412 
Q 1947 2706 1947 2009 
Q 1947 1309 1714 600 
Q 1481 -109 1013 -844 
L 513 -844 
Q 928 -128 1133 580 
Q 1338 1288 1338 2009 
Q 1338 2731 1133 3434 
Q 928 4138 513 4856 
z
" transform="scale(0.015625)"/>
      </defs>
      <use xlink:href="#DejaVuSans-394"/>
      <use xlink:href="#DejaVuSans-4c" transform="translate(68.408203 0)"/>
      <use xlink:href="#DejaVuSans-4c" transform="translate(124.121094 0)"/>
      <use xlink:href="#DejaVuSans-20" transform="translate(179.833984 0)"/>
      <use xlink:href="#DejaVuSans-28" transform="translate(211.621094 0)"/>
      <use xlink:href="#DejaVuSans-62" transform="translate(250.634766 0)"/>
      <use xlink:href="#DejaVuSans-69" transform="translate(314.111328 0)"/>
      <use xlink:href="#DejaVuSans-74" transform="translate(341.894531 0)"/>
      <use xlink:href="#DejaVuSans-73" transform="translate(381.103516 0)"/>
      <use xlink:href="#DejaVuSans-29" transform="translate(433.203125 0)"/>
     </g>
    </g>
   </g>
   <g id="line2d_11">
    <path d="M 167.91917 206.388 
L 167.91917 67.392 
" clip-path="url(#p18d8661833)" style="fill: none; stroke-dasharray: 2.96,1.28; stroke-dashoffset: 0; stroke: #000000; stroke-width: 0.8"/>
   </g>
   <g id="line2d_12">
    <path d="M 89.983636 167.132715 
L 93.980327 169.119956 
L 97.977023 168.343134 
L 101.973713 166.977981 
L 105.97041 166.676458 
L 109.967106 166.2896 
L 113.963796 168.347845 
L 117.960493 168.808473 
L 121.957186 168.570343 
L 125.953882 170.164171 
L 129.950576 168.980034 
L 133.947269 167.210229 
L 137.943962 168.345958 
L 141.940659 168.826922 
L 145.937352 170.525234 
L 149.934045 166.648722 
L 153.93074 168.740294 
L 157.927434 169.982399 
L 161.924129 168.996327 
L 165.920823 169.167387 
L 169.917517 168.578938 
L 173.914211 169.754695 
L 177.910906 168.95627 
L 181.9076 168.495885 
L 185.904294 166.285388 
L 189.900988 168.447391 
L 193.897681 167.472326 
L 197.894377 169.403769 
L 201.891071 169.662041 
L 205.887764 169.095166 
L 209.884457 165.37938 
L 213.881154 169.740573 
L 217.877847 170.145841 
L 221.874543 170.167005 
L 225.871234 170.267807 
L 229.86793 163.102695 
L 233.864626 167.511894 
L 237.861317 169.155546 
L 241.858013 169.766256 
L 245.854704 172.449767 
L 249.8514 171.462719 
L 253.848096 169.183093 
L 257.844787 167.662899 
L 261.841483 168.555369 
L 265.838179 165.034071 
L 269.83487 168.823537 
L 273.83156 170.477666 
L 277.828262 168.788454 
L 281.824953 168.065517 
L 285.821643 168.633267 
L 289.818345 167.787427 
L 293.815036 169.527129 
L 297.811726 169.27661 
L 301.808428 166.454112 
L 305.805119 168.738106 
L 309.801809 170.163961 
L 313.798511 168.816683 
L 317.795202 167.11286 
L 321.791892 168.107916 
L 325.788594 168.400344 
L 329.785285 168.100854 
L 333.781975 168.072114 
L 337.778677 167.85475 
L 341.775368 167.847208 
L 345.772058 167.653199 
L 349.76876 168.08733 
L 353.765451 171.19522 
L 357.762141 168.001917 
L 361.758843 166.896361 
L 365.755534 169.580694 
L 369.752224 168.635596 
L 373.748914 166.776801 
L 377.745605 168.79286 
L 381.742319 169.413365 
L 385.739009 169.364252 
L 389.7357 168.613779 
L 393.73239 168.377156 
L 397.72908 167.684306 
L 401.725771 169.602319 
L 405.722485 168.949684 
L 409.719175 168.211751 
L 413.715866 168.989355 
L 417.712556 169.283553 
L 421.709246 169.686795 
L 425.705937 172.249718 
L 429.702627 167.531305 
L 433.699341 169.117029 
L 437.696032 169.085694 
L 441.692722 170.024698 
L 445.689412 168.133983 
L 449.686103 170.941172 
L 453.682793 169.039519 
L 457.679507 168.614852 
L 461.676198 168.691147 
L 465.672888 168.276947 
L 469.669578 168.740613 
L 473.666269 168.675491 
L 477.662959 171.000986 
L 481.659673 168.983899 
L 485.656364 167.662133 
" clip-path="url(#p18d8661833)" style="fill: none; stroke-dasharray: 1,1.65; stroke-dashoffset: 0; stroke: #1f77b4"/>
   </g>
   <g id="line2d_13">
    <path d="M 89.983636 169.232423 
L 93.980327 166.933039 
L 97.977023 169.669321 
L 101.973713 167.485074 
L 105.97041 166.915961 
L 109.967106 169.497552 
L 113.963796 169.259316 
L 117.960493 165.104226 
L 121.957186 167.609126 
L 125.953882 170.911583 
L 129.950576 167.123621 
L 133.947269 165.440654 
L 137.943962 169.779585 
L 141.940659 168.613012 
L 145.937352 168.809016 
L 149.934045 169.247246 
L 153.93074 166.882719 
L 157.927434 170.663654 
L 161.924129 168.552432 
L 165.920823 169.578886 
L 169.917517 165.633028 
L 173.914211 168.349306 
L 177.910906 167.088201 
L 181.9076 168.877807 
L 185.904294 170.119412 
L 189.900988 168.259002 
L 193.897681 170.134222 
L 197.894377 168.41374 
L 201.891071 170.097365 
L 205.887764 168.658731 
L 209.884457 168.614144 
L 213.881154 167.22027 
L 217.877847 170.493987 
L 221.874543 170.827655 
L 225.871234 169.245247 
L 229.86793 169.486582 
L 233.864626 168.406767 
L 237.861317 169.139935 
L 241.858013 170.33561 
L 245.854704 168.159869 
L 249.8514 168.126795 
L 253.848096 170.44877 
L 257.844787 169.88292 
L 261.841483 169.798803 
L 265.838179 170.781063 
L 269.83487 167.232675 
L 273.83156 167.987182 
L 277.828262 168.750681 
L 281.824953 167.994885 
L 285.821643 167.661698 
L 289.818345 169.284538 
L 293.815036 168.522797 
L 297.811726 169.194244 
L 301.808428 169.411254 
L 305.805119 170.20374 
L 309.801809 167.051135 
L 313.798511 169.029502 
L 317.795202 169.640658 
L 321.791892 169.999466 
L 325.788594 168.654246 
L 329.785285 170.463326 
L 333.781975 170.328593 
L 337.778677 167.828579 
L 341.775368 165.699412 
L 345.772058 167.327141 
L 349.76876 171.003367 
L 353.765451 170.668507 
L 357.762141 171.686563 
L 361.758843 171.565476 
L 365.755534 171.14135 
L 369.752224 169.375336 
L 373.748914 169.997721 
L 377.745605 166.655053 
L 381.742319 167.569345 
L 385.739009 169.518644 
L 389.7357 168.042125 
L 393.73239 168.519526 
L 397.72908 167.133543 
L 401.725771 167.987294 
L 405.722485 167.868739 
L 409.719175 169.30417 
L 413.715866 167.82776 
L 417.712556 167.510945 
L 421.709246 170.076663 
L 425.705937 168.30563 
L 429.702627 168.703733 
L 433.699341 169.674698 
L 437.696032 170.838281 
L 441.692722 168.219268 
L 445.689412 168.140001 
L 449.686103 168.481626 
L 453.682793 167.667009 
L 457.679507 167.36687 
L 461.676198 167.518953 
L 465.672888 166.733628 
L 469.669578 167.98642 
L 473.666269 170.058677 
L 477.662959 169.362626 
L 481.659673 167.706147 
L 485.656364 169.913602 
" clip-path="url(#p18d8661833)" style="fill: none; stroke-dasharray: 1,1.65; stroke-dashoffset: 0; stroke: #ff7f0e"/>
   </g>
   <g id="line2d_14">
    <path d="M 89.983636 159.22515 
L 93.980327 145.161789 
L 97.977023 122.275311 
L 101.973713 181.793286 
L 105.97041 181.707891 
L 109.967106 176.8166 
L 113.963796 186.893468 
L 117.960493 179.952311 
L 121.957186 154.084596 
L 125.953882 192.159745 
L 129.950576 161.835727 
L 133.947269 149.2568 
L 137.943962 132.118545 
L 141.940659 190.626307 
L 145.937352 159.283435 
L 149.934045 175.232561 
L 153.93074 179.615511 
L 157.927434 142.343313 
L 161.924129 180.02215 
L 165.920823 184.787604 
L 169.917517 187.624942 
L 173.914211 178.33202 
L 177.910906 153.370157 
L 181.9076 195.201625 
L 185.904294 156.357551 
L 189.900988 179.737099 
L 193.897681 163.22972 
L 197.894377 149.377576 
L 201.891071 197.182079 
L 205.887764 185.195566 
L 209.884457 171.539903 
L 213.881154 149.934287 
L 217.877847 167.429511 
L 221.874543 115.691234 
L 225.871234 174.553168 
L 229.86793 186.913752 
L 233.864626 159.716563 
L 237.861317 137.927814 
L 241.858013 183.021674 
L 245.854704 162.949118 
L 249.8514 178.497879 
L 253.848096 180.844888 
L 257.844787 187.525111 
L 261.841483 200.07 
L 265.838179 118.773101 
L 269.83487 159.866855 
L 273.83156 158.541548 
L 277.828262 170.932066 
L 281.824953 164.495041 
L 285.821643 172.775543 
L 289.818345 173.5908 
L 293.815036 157.58876 
L 297.811726 195.444669 
L 301.808428 172.317914 
L 305.805119 151.384489 
L 309.801809 180.884903 
L 313.798511 171.585646 
L 317.795202 161.486993 
L 321.791892 187.659209 
L 325.788594 189.069225 
L 329.785285 138.690203 
L 333.781975 141.764041 
L 337.778677 195.853678 
L 341.775368 111.435976 
L 345.772058 187.886351 
L 349.76876 135.864507 
L 353.765451 155.724212 
L 357.762141 135.582223 
L 361.758843 190.761025 
L 365.755534 174.565115 
L 369.752224 183.542837 
L 373.748914 120.855662 
L 377.745605 191.343562 
L 381.742319 196.330455 
L 385.739009 179.499933 
L 389.7357 170.759888 
L 393.73239 153.022271 
L 397.72908 193.092507 
L 401.725771 153.578623 
L 405.722485 188.231315 
L 409.719175 189.304016 
L 413.715866 165.449742 
L 417.712556 198.810046 
L 421.709246 125.625034 
L 425.705937 165.27236 
L 429.702627 141.199058 
L 433.699341 192.10637 
L 437.696032 151.804897 
L 441.692722 171.330146 
L 445.689412 165.277163 
L 449.686103 156.541625 
L 453.682793 122.170762 
L 457.679507 175.014695 
L 461.676198 186.890791 
L 465.672888 180.567142 
L 469.669578 126.809912 
L 473.666269 142.334143 
L 477.662959 169.548355 
L 481.659673 135.115178 
L 485.656364 150.675109 
" clip-path="url(#p18d8661833)" style="fill: none; stroke: #1f77b4; stroke-width: 2.2; stroke-linecap: square"/>
   </g>
   <g id="line2d_15">
    <path d="M 89.983636 183.939105 
L 93.980327 175.291072 
L 97.977023 175.39926 
L 101.973713 183.283211 
L 105.97041 176.72025 
L 109.967106 199.607172 
L 113.963796 183.378876 
L 117.960493 182.781043 
L 121.957186 137.07841 
L 125.953882 187.014243 
L 129.950576 196.848456 
L 133.947269 177.512616 
L 137.943962 193.259074 
L 141.940659 171.670879 
L 145.937352 166.313647 
L 149.934045 171.445277 
L 153.93074 185.871421 
L 157.927434 198.462883 
L 161.924129 165.256825 
L 165.920823 186.887878 
L 169.917517 176.631345 
L 173.914211 180.972417 
L 177.910906 191.07736 
L 181.9076 175.501808 
L 185.904294 185.070483 
L 189.900988 186.347937 
L 193.897681 161.713569 
L 197.894377 155.684563 
L 201.891071 198.591117 
L 205.887764 109.819245 
L 209.884457 168.928325 
L 213.881154 192.747645 
L 217.877847 166.291854 
L 221.874543 154.716703 
L 225.871234 194.494199 
L 229.86793 115.068381 
L 233.864626 186.461473 
L 237.861317 175.54467 
L 241.858013 176.448417 
L 245.854704 166.119323 
L 249.8514 171.816535 
L 253.848096 189.660584 
L 257.844787 145.284936 
L 261.841483 186.993721 
L 265.838179 192.197104 
L 269.83487 170.055318 
L 273.83156 165.952588 
L 277.828262 135.16604 
L 281.824953 161.828551 
L 285.821643 185.051126 
L 289.818345 145.500775 
L 293.815036 175.325077 
L 297.811726 100.224813 
L 301.808428 196.393178 
L 305.805119 185.421845 
L 309.801809 133.054628 
L 313.798511 136.029866 
L 317.795202 153.932145 
L 321.791892 164.785593 
L 325.788594 173.104126 
L 329.785285 184.718353 
L 333.781975 185.693973 
L 337.778677 191.321376 
L 341.775368 178.539256 
L 345.772058 180.841141 
L 349.76876 160.913417 
L 353.765451 160.866804 
L 357.762141 181.651772 
L 361.758843 127.969932 
L 365.755534 153.228965 
L 369.752224 195.447127 
L 373.748914 120.892156 
L 377.745605 193.787377 
L 381.742319 195.804279 
L 385.739009 142.127702 
L 389.7357 73.71 
L 393.73239 168.692448 
L 397.72908 198.882964 
L 401.725771 178.503533 
L 405.722485 170.843499 
L 409.719175 169.053667 
L 413.715866 125.351584 
L 417.712556 181.303068 
L 421.709246 170.717776 
L 425.705937 181.888472 
L 429.702627 154.827298 
L 433.699341 190.480087 
L 437.696032 177.279247 
L 441.692722 195.784245 
L 445.689412 97.661135 
L 449.686103 142.130111 
L 453.682793 183.783209 
L 457.679507 176.838585 
L 461.676198 140.05537 
L 465.672888 168.959063 
L 469.669578 188.484498 
L 473.666269 197.207697 
L 477.662959 145.981202 
L 481.659673 154.272539 
L 485.656364 195.73068 
" clip-path="url(#p18d8661833)" style="fill: none; stroke: #ff7f0e; stroke-width: 2.2; stroke-linecap: square"/>
   </g>
   <g id="patch_3">
    <path d="M 70.2 206.388 
L 70.2 67.392 
" style="fill: none; stroke: #000000; stroke-width: 0.8; stroke-linejoin: miter; stroke-linecap: square"/>
   </g>
   <g id="patch_4">
    <path d="M 505.44 206.388 
L 505.44 67.392 
" style="fill: none; stroke: #000000; stroke-width: 0.8; stroke-linejoin: miter; stroke-linecap: square"/>
   </g>
   <g id="patch_5">
    <path d="M 70.2 206.388 
L 505.44 206.388 
" style="fill: none; stroke: #000000; stroke-width: 0.8; stroke-linejoin: miter; stroke-linecap: square"/>
   </g>
   <g id="patch_6">
    <path d="M 70.2 67.392 
L 505.44 67.392 
" style="fill: none; stroke: #000000; stroke-width: 0.8; stroke-linejoin: miter; stroke-linecap: square"/>
   </g>
   <g id="text_12">
    <!-- (MFEF vs MSC) — C-flow — Panel A: overlay + null bands -->
    <g transform="translate(117.05625 61.392) scale(0.12 -0.12)">
     <defs>
      <path id="DejaVuSans-4d" d="M 628 4666 
L 1569 4666 
L 2759 1491 
L 3956 4666 
L 4897 4666 
L 4897 0 
L 4281 0 
L 4281 4097 
L 3078 897 
L 2444 897 
L 1241 4097 
L 1241 0 
L 628 0 
L 628 4666 
z
" transform="scale(0.015625)"/>
      <path id="DejaVuSans-46" d="M 628 4666 
L 3309 4666 
L 3309 4134 
L 1259 4134 
L 1259 2759 
L 3109 2759 
L 3109 2228 
L 1259 2228 
L 1259 0 
L 628 0 
L 628 4666 
z
" transform="scale(0.015625)"/>
      <path id="DejaVuSans-45" d="M 628 4666 
L 3578 4666 
L 3578 4134 
L 1259 4134 
L 1259 2753 
L 3481 2753 
L 3481 2222 
L 1259 2222 
L 1259 531 
L 3634 531 
L 3634 0 
L 628 0 
L 628 4666 
z
" transform="scale(0.015625)"/>
      <path id="DejaVuSans-76" d="M 191 3500 
L 800 3500 
L 1894 563 
L 2988 3500 
L 3597 3500 
L 2284 0 
L 1503 0 
L 191 3500 
z
" transform="scale(0.015625)"/>
      <path id="DejaVuSans-53" d="M 3425 4513 
L 3425 3897 
Q 3066 4069 2747 4153 
Q 2428 4238 2131 4238 
Q 1616 4238 1336 4038 
Q 1056 3838 1056 3469 
Q 1056 3159 1242 3001 
Q 1428 2844 1947 2747 
L 2328 2669 
Q 3034 2534 3370 2195 
Q 3706 1856 3706 1288 
Q 3706 609 3251 259 
Q 2797 -91 1919 -91 
Q 1588 -91 1214 -16 
Q 841 59 441 206 
L 441 856 
Q 825 641 1194 531 
Q 1563 422 1919 422 
Q 2459 422 2753 634 
Q 3047 847 3047 1241 
Q 3047 1584 2836 1778 
Q 2625 1972 2144 2069 
L 1759 2144 
Q 1053 2284 737 2584 
Q 422 2884 422 3419 
Q 422 4038 858 4394 
Q 1294 4750 2059 4750 
Q 2388 4750 2728 4690 
Q 3069 4631 3425 4513 
z
" transform="scale(0.015625)"/>
      <path id="DejaVuSans-43" d="M 4122 4306 
L 4122 3641 
Q 3803 3938 3442 4084 
Q 3081 4231 2675 4231 
Q 1875 4231 1450 3742 
Q 1025 3253 1025 2328 
Q 1025 1406 1450 917 
Q 1875 428 2675 428 
Q 3081 428 3442 575 
Q 3803 722 4122 1019 
L 4122 359 
Q 3791 134 3420 21 
Q 3050 -91 2638 -91 
Q 1578 -91 968 557 
Q 359 1206 359 2328 
Q 359 3453 968 4101 
Q 1578 4750 2638 4750 
Q 3056 4750 3426 4639 
Q 3797 4528 4122 4306 
z
" transform="scale(0.015625)"/>
      <path id="DejaVuSans-2014" d="M 313 1978 
L 6088 1978 
L 6088 1528 
L 313 1528 
L 313 1978 
z
" transform="scale(0.015625)"/>
      <path id="DejaVuSans-2d" d="M 313 2009 
L 1997 2009 
L 1997 1497 
L 313 1497 
L 313 2009 
z
" transform="scale(0.015625)"/>
      <path id="DejaVuSans-66" d="M 2375 4863 
L 2375 4384 
L 1825 4384 
Q 1516 4384 1395 4259 
Q 1275 4134 1275 3809 
L 1275 3500 
L 2222 3500 
L 2222 3053 
L 1275 3053 
L 1275 0 
L 697 0 
L 697 3053 
L 147 3053 
L 147 3500 
L 697 3500 
L 697 3744 
Q 697 4328 969 4595 
Q 1241 4863 1831 4863 
L 2375 4863 
z
" transform="scale(0.015625)"/>
      <path id="DejaVuSans-6c" d="M 603 4863 
L 1178 4863 
L 1178 0 
L 603 0 
L 603 4863 
z
" transform="scale(0.015625)"/>
      <path id="DejaVuSans-6f" d="M 1959 3097 
Q 1497 3097 1228 2736 
Q 959 2375 959 1747 
Q 959 1119 1226 758 
Q 1494 397 1959 397 
Q 2419 397 2687 759 
Q 2956 1122 2956 1747 
Q 2956 2369 2687 2733 
Q 2419 3097 1959 3097 
z
M 1959 3584 
Q 2709 3584 3137 3096 
Q 3566 2609 3566 1747 
Q 3566 888 3137 398 
Q 2709 -91 1959 -91 
Q 1206 -91 779 398 
Q 353 888 353 1747 
Q 353 2609 779 3096 
Q 1206 3584 1959 3584 
z
" transform="scale(0.015625)"/>
      <path id="DejaVuSans-77" d="M 269 3500 
L 844 3500 
L 1563 769 
L 2278 3500 
L 2956 3500 
L 3675 769 
L 4391 3500 
L 4966 3500 
L 4050 0 
L 3372 0 
L 2619 2869 
L 1863 0 
L 1184 0 
L 269 3500 
z
" transform="scale(0.015625)"/>
      <path id="DejaVuSans-50" d="M 1259 4147 
L 1259 2394 
L 2053 2394 
Q 2494 2394 2734 2622 
Q 2975 2850 2975 3272 
Q 2975 3691 2734 3919 
Q 2494 4147 2053 4147 
L 1259 4147 
z
M 628 4666 
L 2053 4666 
Q 2838 4666 3239 4311 
Q 3641 3956 3641 3272 
Q 3641 2581 3239 2228 
Q 2838 1875 2053 1875 
L 1259 1875 
L 1259 0 
L 628 0 
L 628 4666 
z
" transform="scale(0.015625)"/>
      <path id="DejaVuSans-61" d="M 2194 1759 
Q 1497 1759 1228 1600 
Q 959 1441 959 1056 
Q 959 750 1161 570 
Q 1363 391 1709 391 
Q 2188 391 2477 730 
Q 2766 1069 2766 1631 
L 2766 1759 
L 2194 1759 
z
M 3341 1997 
L 3341 0 
L 2766 0 
L 2766 531 
Q 2569 213 2275 61 
Q 1981 -91 1556 -91 
Q 1019 -91 701 211 
Q 384 513 384 1019 
Q 384 1609 779 1909 
Q 1175 2209 1959 2209 
L 2766 2209 
L 2766 2266 
Q 2766 2663 2505 2880 
Q 2244 3097 1772 3097 
Q 1472 3097 1187 3025 
Q 903 2953 641 2809 
L 641 3341 
Q 956 3463 1253 3523 
Q 1550 3584 1831 3584 
Q 2591 3584 2966 3190 
Q 3341 2797 3341 1997 
z
" transform="scale(0.015625)"/>
      <path id="DejaVuSans-6e" d="M 3513 2113 
L 3513 0 
L 2938 0 
L 2938 2094 
Q 2938 2591 2744 2837 
Q 2550 3084 2163 3084 
Q 1697 3084 1428 2787 
Q 1159 2491 1159 1978 
L 1159 0 
L 581 0 
L 581 3500 
L 1159 3500 
L 1159 2956 
Q 1366 3272 1645 3428 
Q 1925 3584 2291 3584 
Q 2894 3584 3203 3211 
Q 3513 2838 3513 2113 
z
" transform="scale(0.015625)"/>
      <path id="DejaVuSans-65" d="M 3597 1894 
L 3597 1613 
L 953 1613 
Q 991 1019 1311 708 
Q 1631 397 2203 397 
Q 2534 397 2845 478 
Q 3156 559 3463 722 
L 3463 178 
Q 3153 47 2828 -22 
Q 2503 -91 2169 -91 
Q 1331 -91 842 396 
Q 353 884 353 1716 
Q 353 2575 817 3079 
Q 1281 3584 2069 3584 
Q 2775 3584 3186 3129 
Q 3597 2675 3597 1894 
z
M 3022 2063 
Q 3016 2534 2758 2815 
Q 2500 3097 2075 3097 
Q 1594 3097 1305 2825 
Q 1016 2553 972 2059 
L 3022 2063 
z
" transform="scale(0.015625)"/>
      <path id="DejaVuSans-41" d="M 2188 4044 
L 1331 1722 
L 3047 1722 
L 2188 4044 
z
M 1831 4666 
L 2547 4666 
L 4325 0 
L 3669 0 
L 3244 1197 
L 1141 1197 
L 716 0 
L 50 0 
L 1831 4666 
z
" transform="scale(0.015625)"/>
      <path id="DejaVuSans-3a" d="M 750 794 
L 1409 794 
L 1409 0 
L 750 0 
L 750 794 
z
M 750 3309 
L 1409 3309 
L 1409 2516 
L 750 2516 
L 750 3309 
z
" transform="scale(0.015625)"/>
      <path id="DejaVuSans-72" d="M 2631 2963 
Q 2534 3019 2420 3045 
Q 2306 3072 2169 3072 
Q 1681 3072 1420 2755 
Q 1159 2438 1159 1844 
L 1159 0 
L 581 0 
L 581 3500 
L 1159 3500 
L 1159 2956 
Q 1341 3275 1631 3429 
Q 1922 3584 2338 3584 
Q 2397 3584 2469 3576 
Q 2541 3569 2628 3553 
L 2631 2963 
z
" transform="scale(0.015625)"/>
      <path id="DejaVuSans-79" d="M 2059 -325 
Q 1816 -950 1584 -1140 
Q 1353 -1331 966 -1331 
L 506 -1331 
L 506 -850 
L 844 -850 
Q 1081 -850 1212 -737 
Q 1344 -625 1503 -206 
L 1606 56 
L 191 3500 
L 800 3500 
L 1894 763 
L 2988 3500 
L 3597 3500 
L 2059 -325 
z
" transform="scale(0.015625)"/>
      <path id="DejaVuSans-2b" d="M 2944 4013 
L 2944 2272 
L 4684 2272 
L 4684 1741 
L 2944 1741 
L 2944 0 
L 2419 0 
L 2419 1741 
L 678 1741 
L 678 2272 
L 2419 2272 
L 2419 4013 
L 2944 4013 
z
" transform="scale(0.015625)"/>
      <path id="DejaVuSans-75" d="M 544 1381 
L 544 3500 
L 1119 3500 
L 1119 1403 
Q 1119 906 1312 657 
Q 1506 409 1894 409 
Q 2359 409 2629 706 
Q 2900 1003 2900 1516 
L 2900 3500 
L 3475 3500 
L 3475 0 
L 2900 0 
L 2900 538 
Q 2691 219 2414 64 
Q 2138 -91 1772 -91 
Q 1169 -91 856 284 
Q 544 659 544 1381 
z
M 1991 3584 
L 1991 3584 
z
" transform="scale(0.015625)"/>
      <path id="DejaVuSans-64" d="M 2906 2969 
L 2906 4863 
L 3481 4863 
L 3481 0 
L 2906 0 
L 2906 525 
Q 2725 213 2448 61 
Q 2172 -91 1784 -91 
Q 1150 -91 751 415 
Q 353 922 353 1747 
Q 353 2572 751 3078 
Q 1150 3584 1784 3584 
Q 2172 3584 2448 3432 
Q 2725 3281 2906 2969 
z
M 947 1747 
Q 947 1113 1208 752 
Q 1469 391 1925 391 
Q 2381 391 2643 752 
Q 2906 1113 2906 1747 
Q 2906 2381 2643 2742 
Q 2381 3103 1925 3103 
Q 1469 3103 1208 2742 
Q 947 2381 947 1747 
z
" transform="scale(0.015625)"/>
     </defs>
     <use xlink:href="#DejaVuSans-28"/>
     <use xlink:href="#DejaVuSans-4d" transform="translate(39.013672 0)"/>
     <use xlink:href="#DejaVuSans-46" transform="translate(125.292969 0)"/>
     <use xlink:href="#DejaVuSans-45" transform="translate(182.8125 0)"/>
     <use xlink:href="#DejaVuSans-46" transform="translate(245.996094 0)"/>
     <use xlink:href="#DejaVuSans-20" transform="translate(303.515625 0)"/>
     <use xlink:href="#DejaVuSans-76" transform="translate(335.302734 0)"/>
     <use xlink:href="#DejaVuSans-73" transform="translate(394.482422 0)"/>
     <use xlink:href="#DejaVuSans-20" transform="translate(446.582031 0)"/>
     <use xlink:href="#DejaVuSans-4d" transform="translate(478.369141 0)"/>
     <use xlink:href="#DejaVuSans-53" transform="translate(564.648438 0)"/>
     <use xlink:href="#DejaVuSans-43" transform="translate(628.125 0)"/>
     <use xlink:href="#DejaVuSans-29" transform="translate(697.949219 0)"/>
     <use xlink:href="#DejaVuSans-20" transform="translate(736.962891 0)"/>
     <use xlink:href="#DejaVuSans-2014" transform="translate(768.75 0)"/>
     <use xlink:href="#DejaVuSans-20" transform="translate(868.75 0)"/>
     <use xlink:href="#DejaVuSans-43" transform="translate(900.537109 0)"/>
     <use xlink:href="#DejaVuSans-2d" transform="translate(970.361328 0)"/>
     <use xlink:href="#DejaVuSans-66" transform="translate(1006.445312 0)"/>
     <use xlink:href="#DejaVuSans-6c" transform="translate(1041.650391 0)"/>
     <use xlink:href="#DejaVuSans-6f" transform="translate(1069.433594 0)"/>
     <use xlink:href="#DejaVuSans-77" transform="translate(1130.615234 0)"/>
     <use xlink:href="#DejaVuSans-20" transform="translate(1212.402344 0)"/>
     <use xlink:href="#DejaVuSans-2014" transform="translate(1244.189453 0)"/>
     <use xlink:href="#DejaVuSans-20" transform="translate(1344.189453 0)"/>
     <use xlink:href="#DejaVuSans-50" transform="translate(1375.976562 0)"/>
     <use xlink:href="#DejaVuSans-61" transform="translate(1431.779297 0)"/>
     <use xlink:href="#DejaVuSans-6e" transform="translate(1493.058594 0)"/>
     <use xlink:href="#DejaVuSans-65" transform="translate(1556.4375 0)"/>
     <use xlink:href="#DejaVuSans-6c" transform="translate(1617.960938 0)"/>
     <use xlink:href="#DejaVuSans-20" transform="translate(1645.744141 0)"/>
     <use xlink:href="#DejaVuSans-41" transform="translate(1677.53125 0)"/>
     <use xlink:href="#DejaVuSans-3a" transform="translate(1744.189453 0)"/>
     <use xlink:href="#DejaVuSans-20" transform="translate(1777.880859 0)"/>
     <use xlink:href="#DejaVuSans-6f" transform="translate(1809.667969 0)"/>
     <use xlink:href="#DejaVuSans-76" transform="translate(1870.849609 0)"/>
     <use xlink:href="#DejaVuSans-65" transform="translate(1930.029297 0)"/>
     <use xlink:href="#DejaVuSans-72" transform="translate(1991.552734 0)"/>
     <use xlink:href="#DejaVuSans-6c" transform="translate(2032.666016 0)"/>
     <use xlink:href="#DejaVuSans-61" transform="translate(2060.449219 0)"/>
     <use xlink:href="#DejaVuSans-79" transform="translate(2121.728516 0)"/>
     <use xlink:href="#DejaVuSans-20" transform="translate(2180.908203 0)"/>
     <use xlink:href="#DejaVuSans-2b" transform="translate(2212.695312 0)"/>
     <use xlink:href="#DejaVuSans-20" transform="translate(2296.484375 0)"/>
     <use xlink:href="#DejaVuSans-6e" transform="translate(2328.271484 0)"/>
     <use xlink:href="#DejaVuSans-75" transform="translate(2391.650391 0)"/>
     <use xlink:href="#DejaVuSans-6c" transform="translate(2455.029297 0)"/>
     <use xlink:href="#DejaVuSans-6c" transform="translate(2482.8125 0)"/>
     <use xlink:href="#DejaVuSans-20" transform="translate(2510.595703 0)"/>
     <use xlink:href="#DejaVuSans-62" transform="translate(2542.382812 0)"/>
     <use xlink:href="#DejaVuSans-61" transform="translate(2605.859375 0)"/>
     <use xlink:href="#DejaVuSans-6e" transform="translate(2667.138672 0)"/>
     <use xlink:href="#DejaVuSans-64" transform="translate(2730.517578 0)"/>
     <use xlink:href="#DejaVuSans-73" transform="translate(2793.994141 0)"/>
    </g>
   </g>
   <g id="legend_1">
    <g id="patch_7">
     <path d="M 79.2 83.990437 
L 99.2 83.990437 
L 99.2 76.990437 
L 79.2 76.990437 
z
" style="fill: #1f77b4; fill-opacity: 0.15"/>
    </g>
    <g id="text_13">
     <!-- MFEF→MSC null μ±σ -->
     <g transform="translate(107.2 83.990437) scale(0.1 -0.1)">
      <defs>
       <path id="DejaVuSans-2192" d="M 5050 2147 
L 5050 1866 
L 3822 638 
L 3447 1013 
L 4175 1741 
L 366 1741 
L 366 2272 
L 4175 2272 
L 3447 3000 
L 3822 3375 
L 5050 2147 
z
" transform="scale(0.015625)"/>
       <path id="DejaVuSans-3bc" d="M 544 -1331 
L 544 3500 
L 1119 3500 
L 1119 1325 
Q 1119 872 1334 640 
Q 1550 409 1972 409 
Q 2434 409 2667 671 
Q 2900 934 2900 1459 
L 2900 3500 
L 3475 3500 
L 3475 806 
Q 3475 619 3529 530 
Q 3584 441 3700 441 
Q 3728 441 3778 458 
Q 3828 475 3916 513 
L 3916 50 
Q 3788 -22 3673 -56 
Q 3559 -91 3450 -91 
Q 3234 -91 3106 31 
Q 2978 153 2931 403 
Q 2775 156 2548 32 
Q 2322 -91 2016 -91 
Q 1697 -91 1473 31 
Q 1250 153 1119 397 
L 1119 -1331 
L 544 -1331 
z
" transform="scale(0.015625)"/>
       <path id="DejaVuSans-b1" d="M 2944 4013 
L 2944 2803 
L 4684 2803 
L 4684 2272 
L 2944 2272 
L 2944 1063 
L 2419 1063 
L 2419 2272 
L 678 2272 
L 678 2803 
L 2419 2803 
L 2419 4013 
L 2944 4013 
z
M 678 531 
L 4684 531 
L 4684 0 
L 678 0 
L 678 531 
z
" transform="scale(0.015625)"/>
       <path id="DejaVuSans-3c3" d="M 1959 3044 
Q 1484 3044 1228 2700 
Q 959 2341 959 1747 
Q 959 1119 1226 758 
Q 1494 397 1959 397 
Q 2419 397 2687 759 
Q 2956 1122 2956 1747 
Q 2956 2319 2688 2700 
Q 2441 3044 1959 3044 
z
M 1959 3500 
L 3869 3500 
L 3869 2925 
L 3225 2925 
Q 3566 2438 3566 1747 
Q 3566 888 3138 400 
Q 2709 -91 1959 -91 
Q 1206 -91 781 400 
Q 353 888 353 1747 
Q 353 2613 781 3097 
Q 1134 3500 1959 3500 
z
" transform="scale(0.015625)"/>
      </defs>
      <use xlink:href="#DejaVuSans-4d"/>
      <use xlink:href="#DejaVuSans-46" transform="translate(86.279297 0)"/>
      <use xlink:href="#DejaVuSans-45" transform="translate(143.798828 0)"/>
      <use xlink:href="#DejaVuSans-46" transform="translate(206.982422 0)"/>
      <use xlink:href="#DejaVuSans-2192" transform="translate(264.501953 0)"/>
      <use xlink:href="#DejaVuSans-4d" transform="translate(348.291016 0)"/>
      <use xlink:href="#DejaVuSans-53" transform="translate(434.570312 0)"/>
      <use xlink:href="#DejaVuSans-43" transform="translate(498.046875 0)"/>
      <use xlink:href="#DejaVuSans-20" transform="translate(567.871094 0)"/>
      <use xlink:href="#DejaVuSans-6e" transform="translate(599.658203 0)"/>
      <use xlink:href="#DejaVuSans-75" transform="translate(663.037109 0)"/>
      <use xlink:href="#DejaVuSans-6c" transform="translate(726.416016 0)"/>
      <use xlink:href="#DejaVuSans-6c" transform="translate(754.199219 0)"/>
      <use xlink:href="#DejaVuSans-20" transform="translate(781.982422 0)"/>
      <use xlink:href="#DejaVuSans-3bc" transform="translate(813.769531 0)"/>
      <use xlink:href="#DejaVuSans-b1" transform="translate(877.392578 0)"/>
      <use xlink:href="#DejaVuSans-3c3" transform="translate(961.181641 0)"/>
     </g>
    </g>
    <g id="patch_8">
     <path d="M 79.2 98.668563 
L 99.2 98.668563 
L 99.2 91.668563 
L 79.2 91.668563 
z
" style="fill: #ff7f0e; fill-opacity: 0.15"/>
    </g>
    <g id="text_14">
     <!-- MSC→MFEF null μ±σ -->
     <g transform="translate(107.2 98.668563) scale(0.1 -0.1)">
      <use xlink:href="#DejaVuSans-4d"/>
      <use xlink:href="#DejaVuSans-53" transform="translate(86.279297 0)"/>
      <use xlink:href="#DejaVuSans-43" transform="translate(149.755859 0)"/>
      <use xlink:href="#DejaVuSans-2192" transform="translate(219.580078 0)"/>
      <use xlink:href="#DejaVuSans-4d" transform="translate(303.369141 0)"/>
      <use xlink:href="#DejaVuSans-46" transform="translate(389.648438 0)"/>
      <use xlink:href="#DejaVuSans-45" transform="translate(447.167969 0)"/>
      <use xlink:href="#DejaVuSans-46" transform="translate(510.351562 0)"/>
      <use xlink:href="#DejaVuSans-20" transform="translate(567.871094 0)"/>
      <use xlink:href="#DejaVuSans-6e" transform="translate(599.658203 0)"/>
      <use xlink:href="#DejaVuSans-75" transform="translate(663.037109 0)"/>
      <use xlink:href="#DejaVuSans-6c" transform="translate(726.416016 0)"/>
      <use xlink:href="#DejaVuSans-6c" transform="translate(754.199219 0)"/>
      <use xlink:href="#DejaVuSans-20" transform="translate(781.982422 0)"/>
      <use xlink:href="#DejaVuSans-3bc" transform="translate(813.769531 0)"/>
      <use xlink:href="#DejaVuSans-b1" transform="translate(877.392578 0)"/>
      <use xlink:href="#DejaVuSans-3c3" transform="translate(961.181641 0)"/>
     </g>
    </g>
    <g id="line2d_16">
     <path d="M 229.65625 80.490437 
L 239.65625 80.490437 
L 249.65625 80.490437 
" style="fill: none; stroke: #1f77b4; stroke-width: 2.2; stroke-linecap: square"/>
    </g>
    <g id="text_15">
     <!-- MFEF→MSC -->
     <g transform="translate(257.65625 83.990437) scale(0.1 -0.1)">
      <use xlink:href="#DejaVuSans-4d"/>
      <use xlink:href="#DejaVuSans-46" transform="translate(86.279297 0)"/>
      <use xlink:href="#DejaVuSans-45" transform="translate(143.798828 0)"/>
      <use xlink:href="#DejaVuSans-46" transform="translate(206.982422 0)"/>
      <use xlink:href="#DejaVuSans-2192" transform="translate(264.501953 0)"/>
      <use xlink:href="#DejaVuSans-4d" transform="translate(348.291016 0)"/>
      <use xlink:href="#DejaVuSans-53" transform="translate(434.570312 0)"/>
      <use xlink:href="#DejaVuSans-43" transform="translate(498.046875 0)"/>
     </g>
    </g>
    <g id="line2d_17">
     <path d="M 229.65625 95.168563 
L 239.65625 95.168563 
L 249.65625 95.168563 
" style="fill: none; stroke: #ff7f0e; stroke-width: 2.2; stroke-linecap: square"/>
    </g>
    <g id="text_16">
     <!-- MSC→MFEF -->
     <g transform="translate(257.65625 98.668563) scale(0.1 -0.1)">
      <use xlink:href="#DejaVuSans-4d"/>
      <use xlink:href="#DejaVuSans-53" transform="translate(86.279297 0)"/>
      <use xlink:href="#DejaVuSans-43" transform="translate(149.755859 0)"/>
      <use xlink:href="#DejaVuSans-2192" transform="translate(219.580078 0)"/>
      <use xlink:href="#DejaVuSans-4d" transform="translate(303.369141 0)"/>
      <use xlink:href="#DejaVuSans-46" transform="translate(389.648438 0)"/>
      <use xlink:href="#DejaVuSans-45" transform="translate(447.167969 0)"/>
      <use xlink:href="#DejaVuSans-46" transform="translate(510.351562 0)"/>
     </g>
    </g>
   </g>
  </g>
  <g id="axes_2">
   <g id="patch_9">
    <path d="M 70.2 353.106 
L 505.44 353.106 
L 505.44 237.276 
L 70.2 237.276 
z
" style="fill: #ffffff"/>
   </g>
   <g id="matplotlib.axis_3">
    <g id="xtick_7">
     <g id="line2d_18">
      <g>
       <use xlink:href="#m2b3c742147" x="87.985286" y="353.106" style="stroke: #000000; stroke-width: 0.8"/>
      </g>
     </g>
     <g id="text_17">
      <!-- −200 -->
      <g transform="translate(74.251693 367.704438) scale(0.1 -0.1)">
       <use xlink:href="#DejaVuSans-2212"/>
       <use xlink:href="#DejaVuSans-32" transform="translate(83.789062 0)"/>
       <use xlink:href="#DejaVuSans-30" transform="translate(147.412109 0)"/>
       <use xlink:href="#DejaVuSans-30" transform="translate(211.035156 0)"/>
      </g>
     </g>
    </g>
    <g id="xtick_8">
     <g id="line2d_19">
      <g>
       <use xlink:href="#m2b3c742147" x="167.91917" y="353.106" style="stroke: #000000; stroke-width: 0.8"/>
      </g>
     </g>
     <g id="text_18">
      <!-- 0 -->
      <g transform="translate(164.73792 367.704438) scale(0.1 -0.1)">
       <use xlink:href="#DejaVuSans-30"/>
      </g>
     </g>
    </g>
    <g id="xtick_9">
     <g id="line2d_20">
      <g>
       <use xlink:href="#m2b3c742147" x="247.853053" y="353.106" style="stroke: #000000; stroke-width: 0.8"/>
      </g>
     </g>
     <g id="text_19">
      <!-- 200 -->
      <g transform="translate(238.309303 367.704438) scale(0.1 -0.1)">
       <use xlink:href="#DejaVuSans-32"/>
       <use xlink:href="#DejaVuSans-30" transform="translate(63.623047 0)"/>
       <use xlink:href="#DejaVuSans-30" transform="translate(127.246094 0)"/>
      </g>
     </g>
    </g>
    <g id="xtick_10">
     <g id="line2d_21">
      <g>
       <use xlink:href="#m2b3c742147" x="327.786937" y="353.106" style="stroke: #000000; stroke-width: 0.8"/>
      </g>
     </g>
     <g id="text_20">
      <!-- 400 -->
      <g transform="translate(318.243187 367.704438) scale(0.1 -0.1)">
       <use xlink:href="#DejaVuSans-34"/>
       <use xlink:href="#DejaVuSans-30" transform="translate(63.623047 0)"/>
       <use xlink:href="#DejaVuSans-30" transform="translate(127.246094 0)"/>
      </g>
     </g>
    </g>
    <g id="xtick_11">
     <g id="line2d_22">
      <g>
       <use xlink:href="#m2b3c742147" x="407.720821" y="353.106" style="stroke: #000000; stroke-width: 0.8"/>
      </g>
     </g>
     <g id="text_21">
      <!-- 600 -->
      <g transform="translate(398.177071 367.704438) scale(0.1 -0.1)">
       <use xlink:href="#DejaVuSans-36"/>
       <use xlink:href="#DejaVuSans-30" transform="translate(63.623047 0)"/>
       <use xlink:href="#DejaVuSans-30" transform="translate(127.246094 0)"/>
      </g>
     </g>
    </g>
    <g id="xtick_12">
     <g id="line2d_23">
      <g>
       <use xlink:href="#m2b3c742147" x="487.654704" y="353.106" style="stroke: #000000; stroke-width: 0.8"/>
      </g>
     </g>
     <g id="text_22">
      <!-- 800 -->
      <g transform="translate(478.110954 367.704438) scale(0.1 -0.1)">
       <use xlink:href="#DejaVuSans-38"/>
       <use xlink:href="#DejaVuSans-30" transform="translate(63.623047 0)"/>
       <use xlink:href="#DejaVuSans-30" transform="translate(127.246094 0)"/>
      </g>
     </g>
    </g>
   </g>
   <g id="matplotlib.axis_4">
    <g id="ytick_5">
     <g id="line2d_24">
      <g>
       <use xlink:href="#m06de745bc5" x="70.2" y="343.110684" style="stroke: #000000; stroke-width: 0.8"/>
      </g>
     </g>
     <g id="text_23">
      <!-- −10 -->
      <g transform="translate(42.095313 346.909903) scale(0.1 -0.1)">
       <use xlink:href="#DejaVuSans-2212"/>
       <use xlink:href="#DejaVuSans-31" transform="translate(83.789062 0)"/>
       <use xlink:href="#DejaVuSans-30" transform="translate(147.412109 0)"/>
      </g>
     </g>
    </g>
    <g id="ytick_6">
     <g id="line2d_25">
      <g>
       <use xlink:href="#m06de745bc5" x="70.2" y="315.502475" style="stroke: #000000; stroke-width: 0.8"/>
      </g>
     </g>
     <g id="text_24">
      <!-- −5 -->
      <g transform="translate(48.457813 319.301693) scale(0.1 -0.1)">
       <use xlink:href="#DejaVuSans-2212"/>
       <use xlink:href="#DejaVuSans-35" transform="translate(83.789062 0)"/>
      </g>
     </g>
    </g>
    <g id="ytick_7">
     <g id="line2d_26">
      <g>
       <use xlink:href="#m06de745bc5" x="70.2" y="287.894265" style="stroke: #000000; stroke-width: 0.8"/>
      </g>
     </g>
     <g id="text_25">
      <!-- 0 -->
      <g transform="translate(56.8375 291.693484) scale(0.1 -0.1)">
       <use xlink:href="#DejaVuSans-30"/>
      </g>
     </g>
    </g>
    <g id="ytick_8">
     <g id="line2d_27">
      <g>
       <use xlink:href="#m06de745bc5" x="70.2" y="260.286055" style="stroke: #000000; stroke-width: 0.8"/>
      </g>
     </g>
     <g id="text_26">
      <!-- 5 -->
      <g transform="translate(56.8375 264.085274) scale(0.1 -0.1)">
       <use xlink:href="#DejaVuSans-35"/>
      </g>
     </g>
    </g>
    <g id="text_27">
     <!-- ΔΔLL (bits) -->
     <g transform="translate(36.015625 322.22225) rotate(-90) scale(0.1 -0.1)">
      <use xlink:href="#DejaVuSans-394"/>
      <use xlink:href="#DejaVuSans-394" transform="translate(68.408203 0)"/>
      <use xlink:href="#DejaVuSans-4c" transform="translate(136.816406 0)"/>
      <use xlink:href="#DejaVuSans-4c" transform="translate(192.529297 0)"/>
      <use xlink:href="#DejaVuSans-20" transform="translate(248.242188 0)"/>
      <use xlink:href="#DejaVuSans-28" transform="translate(280.029297 0)"/>
      <use xlink:href="#DejaVuSans-62" transform="translate(319.042969 0)"/>
      <use xlink:href="#DejaVuSans-69" transform="translate(382.519531 0)"/>
      <use xlink:href="#DejaVuSans-74" transform="translate(410.302734 0)"/>
      <use xlink:href="#DejaVuSans-73" transform="translate(449.511719 0)"/>
      <use xlink:href="#DejaVuSans-29" transform="translate(501.611328 0)"/>
     </g>
    </g>
   </g>
   <g id="line2d_28">
    <path d="M 167.91917 353.106 
L 167.91917 237.276 
" clip-path="url(#pfa59336437)" style="fill: none; stroke-dasharray: 2.96,1.28; stroke-dashoffset: 0; stroke: #000000; stroke-width: 0.8"/>
   </g>
   <g id="line2d_29">
    <path d="M 70.2 287.894265 
L 505.44 287.894265 
" clip-path="url(#pfa59336437)" style="fill: none; stroke-dasharray: 0.8,1.32; stroke-dashoffset: 0; stroke: #000000; stroke-width: 0.8"/>
   </g>
   <g id="line2d_30">
    <path d="M 89.983636 272.628705 
L 93.980327 269.283711 
L 97.977023 255.080139 
L 101.973713 286.973954 
L 105.97041 290.97508 
L 109.967106 273.816759 
L 113.963796 290.065193 
L 117.960493 286.146986 
L 121.957186 298.398814 
L 125.953882 291.072589 
L 129.950576 266.267256 
L 133.947269 270.440933 
L 137.943962 250.128378 
L 141.940659 299.602841 
L 145.937352 283.551774 
L 149.934045 290.233632 
L 153.93074 284.030053 
L 157.927434 253.229774 
L 161.924129 297.014657 
L 165.920823 286.596947 
L 169.917517 294.684899 
L 173.914211 286.263319 
L 177.910906 264.602907 
L 181.9076 300.062643 
L 185.904294 270.158577 
L 189.900988 283.810817 
L 193.897681 288.830776 
L 197.894377 283.998503 
L 201.891071 287.023916 
L 205.887764 334.453457 
L 209.884457 289.50741 
L 213.881154 261.448886 
L 217.877847 288.596984 
L 221.874543 263.788627 
L 225.871234 275.576891 
L 229.86793 332.272424 
L 233.864626 271.374205 
L 237.861317 264.658713 
L 241.858013 291.954499 
L 245.854704 285.936061 
L 249.8514 292.021264 
L 253.848096 282.448899 
L 257.844787 313.985594 
L 261.841483 295.97135 
L 265.838179 242.541 
L 269.83487 281.600954 
L 273.83156 283.31654 
L 277.828262 309.986578 
L 281.824953 289.541329 
L 285.821643 280.311761 
L 289.818345 305.24519 
L 293.815036 276.938721 
L 297.811726 346.710607 
L 301.808428 273.023218 
L 305.805119 266.869734 
L 309.801809 317.438542 
L 313.798511 309.856711 
L 317.795202 292.560819 
L 321.791892 302.023067 
L 325.788594 297.755745 
L 329.785285 259.463142 
L 333.781975 260.75919 
L 337.778677 290.693822 
L 341.775368 246.445247 
L 345.772058 292.24602 
L 349.76876 272.421806 
L 353.765451 284.717738 
L 357.762141 259.43757 
L 361.758843 326.679689 
L 365.755534 301.073389 
L 369.752224 280.541105 
L 373.748914 287.871723 
L 377.745605 286.384745 
L 381.742319 288.219279 
L 385.739009 310.978714 
L 389.7357 347.841 
L 393.73239 278.214955 
L 397.72908 284.317558 
L 401.725771 272.4984 
L 405.722485 298.634543 
L 409.719175 300.402701 
L 413.715866 312.662491 
L 417.712556 298.708148 
L 421.709246 260.040934 
L 425.705937 277.63066 
L 429.702627 279.476239 
L 433.699341 288.898804 
L 437.696032 272.159016 
L 441.692722 272.789215 
L 445.689412 329.660002 
L 449.686103 296.796111 
L 453.682793 249.836879 
L 457.679507 286.767666 
L 461.676198 316.824031 
L 465.672888 295.064458 
L 469.669578 249.798496 
L 473.666269 253.999425 
L 477.662959 302.451457 
L 481.659673 276.060957 
L 485.656364 260.063894 
" clip-path="url(#pfa59336437)" style="fill: none; stroke: #d62728; stroke-width: 2.2; stroke-linecap: square"/>
   </g>
   <g id="line2d_31">
    <defs>
     <path id="ma8cee4648e" d="M 0 1.25 
C 0.331504 1.25 0.649475 1.118292 0.883883 0.883883 
C 1.118292 0.649475 1.25 0.331504 1.25 0 
C 1.25 -0.331504 1.118292 -0.649475 0.883883 -0.883883 
C 0.649475 -1.118292 0.331504 -1.25 0 -1.25 
C -0.331504 -1.25 -0.649475 -1.118292 -0.883883 -0.883883 
C -1.118292 -0.649475 -1.25 -0.331504 -1.25 0 
C -1.25 0.331504 -1.118292 0.649475 -0.883883 0.883883 
C -0.649475 1.118292 -0.331504 1.25 0 1.25 
z
" style="stroke: #000000"/>
    </defs>
    <g clip-path="url(#pfa59336437)">
     <use xlink:href="#ma8cee4648e" x="97.977023" y="255.080139" style="stroke: #000000"/>
     <use xlink:href="#ma8cee4648e" x="205.887764" y="334.453457" style="stroke: #000000"/>
     <use xlink:href="#ma8cee4648e" x="221.874543" y="263.788627" style="stroke: #000000"/>
     <use xlink:href="#ma8cee4648e" x="229.86793" y="332.272424" style="stroke: #000000"/>
     <use xlink:href="#ma8cee4648e" x="297.811726" y="346.710607" style="stroke: #000000"/>
     <use xlink:href="#ma8cee4648e" x="341.775368" y="246.445247" style="stroke: #000000"/>
     <use xlink:href="#ma8cee4648e" x="361.758843" y="326.679689" style="stroke: #000000"/>
     <use xlink:href="#ma8cee4648e" x="389.7357" y="347.841" style="stroke: #000000"/>
     <use xlink:href="#ma8cee4648e" x="421.709246" y="260.040934" style="stroke: #000000"/>
     <use xlink:href="#ma8cee4648e" x="445.689412" y="329.660002" style="stroke: #000000"/>
     <use xlink:href="#ma8cee4648e" x="453.682793" y="249.836879" style="stroke: #000000"/>
     <use xlink:href="#ma8cee4648e" x="469.669578" y="249.798496" style="stroke: #000000"/>
    </g>
   </g>
   <g id="patch_10">
    <path d="M 70.2 353.106 
L 70.2 237.276 
" style="fill: none; stroke: #000000; stroke-width: 0.8; stroke-linejoin: miter; stroke-linecap: square"/>
   </g>
   <g id="patch_11">
    <path d="M 505.44 353.106 
L 505.44 237.276 
" style="fill: none; stroke: #000000; stroke-width: 0.8; stroke-linejoin: miter; stroke-linecap: square"/>
   </g>
   <g id="patch_12">
    <path d="M 70.2 353.106 
L 505.44 353.106 
" style="fill: none; stroke: #000000; stroke-width: 0.8; stroke-linejoin: miter; stroke-linecap: square"/>
   </g>
   <g id="patch_13">
    <path d="M 70.2 237.276 
L 505.44 237.276 
" style="fill: none; stroke: #000000; stroke-width: 0.8; stroke-linejoin: miter; stroke-linecap: square"/>
   </g>
   <g id="text_28">
    <!-- Panel B: pair-diff with significance dots -->
    <g transform="translate(171.554063 231.276) scale(0.12 -0.12)">
     <defs>
      <path id="DejaVuSans-42" d="M 1259 2228 
L 1259 519 
L 2272 519 
Q 2781 519 3026 730 
Q 3272 941 3272 1375 
Q 3272 1813 3026 2020 
Q 2781 2228 2272 2228 
L 1259 2228 
z
M 1259 4147 
L 1259 2741 
L 2194 2741 
Q 2656 2741 2882 2914 
Q 3109 3088 3109 3444 
Q 3109 3797 2882 3972 
Q 2656 4147 2194 4147 
L 1259 4147 
z
M 628 4666 
L 2241 4666 
Q 2963 4666 3353 4366 
Q 3744 4066 3744 3513 
Q 3744 3084 3544 2831 
Q 3344 2578 2956 2516 
Q 3422 2416 3680 2098 
Q 3938 1781 3938 1306 
Q 3938 681 3513 340 
Q 3088 0 2303 0 
L 628 0 
L 628 4666 
z
" transform="scale(0.015625)"/>
      <path id="DejaVuSans-70" d="M 1159 525 
L 1159 -1331 
L 581 -1331 
L 581 3500 
L 1159 3500 
L 1159 2969 
Q 1341 3281 1617 3432 
Q 1894 3584 2278 3584 
Q 2916 3584 3314 3078 
Q 3713 2572 3713 1747 
Q 3713 922 3314 415 
Q 2916 -91 2278 -91 
Q 1894 -91 1617 61 
Q 1341 213 1159 525 
z
M 3116 1747 
Q 3116 2381 2855 2742 
Q 2594 3103 2138 3103 
Q 1681 3103 1420 2742 
Q 1159 2381 1159 1747 
Q 1159 1113 1420 752 
Q 1681 391 2138 391 
Q 2594 391 2855 752 
Q 3116 1113 3116 1747 
z
" transform="scale(0.015625)"/>
      <path id="DejaVuSans-68" d="M 3513 2113 
L 3513 0 
L 2938 0 
L 2938 2094 
Q 2938 2591 2744 2837 
Q 2550 3084 2163 3084 
Q 1697 3084 1428 2787 
Q 1159 2491 1159 1978 
L 1159 0 
L 581 0 
L 581 4863 
L 1159 4863 
L 1159 2956 
Q 1366 3272 1645 3428 
Q 1925 3584 2291 3584 
Q 2894 3584 3203 3211 
Q 3513 2838 3513 2113 
z
" transform="scale(0.015625)"/>
      <path id="DejaVuSans-67" d="M 2906 1791 
Q 2906 2416 2648 2759 
Q 2391 3103 1925 3103 
Q 1463 3103 1205 2759 
Q 947 2416 947 1791 
Q 947 1169 1205 825 
Q 1463 481 1925 481 
Q 2391 481 2648 825 
Q 2906 1169 2906 1791 
z
M 3481 434 
Q 3481 -459 3084 -895 
Q 2688 -1331 1869 -1331 
Q 1566 -1331 1297 -1286 
Q 1028 -1241 775 -1147 
L 775 -588 
Q 1028 -725 1275 -790 
Q 1522 -856 1778 -856 
Q 2344 -856 2625 -561 
Q 2906 -266 2906 331 
L 2906 616 
Q 2728 306 2450 153 
Q 2172 0 1784 0 
Q 1141 0 747 490 
Q 353 981 353 1791 
Q 353 2603 747 3093 
Q 1141 3584 1784 3584 
Q 2172 3584 2450 3431 
Q 2728 3278 2906 2969 
L 2906 3500 
L 3481 3500 
L 3481 434 
z
" transform="scale(0.015625)"/>
      <path id="DejaVuSans-63" d="M 3122 3366 
L 3122 2828 
Q 2878 2963 2633 3030 
Q 2388 3097 2138 3097 
Q 1578 3097 1268 2742 
Q 959 2388 959 1747 
Q 959 1106 1268 751 
Q 1578 397 2138 397 
Q 2388 397 2633 464 
Q 2878 531 3122 666 
L 3122 134 
Q 2881 22 2623 -34 
Q 2366 -91 2075 -91 
Q 1284 -91 818 406 
Q 353 903 353 1747 
Q 353 2603 823 3093 
Q 1294 3584 2113 3584 
Q 2378 3584 2631 3529 
Q 2884 3475 3122 3366 
z
" transform="scale(0.015625)"/>
     </defs>
     <use xlink:href="#DejaVuSans-50"/>
     <use xlink:href="#DejaVuSans-61" transform="translate(55.802734 0)"/>
     <use xlink:href="#DejaVuSans-6e" transform="translate(117.082031 0)"/>
     <use xlink:href="#DejaVuSans-65" transform="translate(180.460938 0)"/>
     <use xlink:href="#DejaVuSans-6c" transform="translate(241.984375 0)"/>
     <use xlink:href="#DejaVuSans-20" transform="translate(269.767578 0)"/>
     <use xlink:href="#DejaVuSans-42" transform="translate(301.554688 0)"/>
     <use xlink:href="#DejaVuSans-3a" transform="translate(370.158203 0)"/>
     <use xlink:href="#DejaVuSans-20" transform="translate(403.849609 0)"/>
     <use xlink:href="#DejaVuSans-70" transform="translate(435.636719 0)"/>
     <use xlink:href="#DejaVuSans-61" transform="translate(499.113281 0)"/>
     <use xlink:href="#DejaVuSans-69" transform="translate(560.392578 0)"/>
     <use xlink:href="#DejaVuSans-72" transform="translate(588.175781 0)"/>
     <use xlink:href="#DejaVuSans-2d" transform="translate(622.914062 0)"/>
     <use xlink:href="#DejaVuSans-64" transform="translate(658.998047 0)"/>
     <use xlink:href="#DejaVuSans-69" transform="translate(722.474609 0)"/>
     <use xlink:href="#DejaVuSans-66" transform="translate(750.257812 0)"/>
     <use xlink:href="#DejaVuSans-66" transform="translate(785.462891 0)"/>
     <use xlink:href="#DejaVuSans-20" transform="translate(820.667969 0)"/>
     <use xlink:href="#DejaVuSans-77" transform="translate(852.455078 0)"/>
     <use xlink:href="#DejaVuSans-69" transform="translate(934.242188 0)"/>
     <use xlink:href="#DejaVuSans-74" transform="translate(962.025391 0)"/>
     <use xlink:href="#DejaVuSans-68" transform="translate(1001.234375 0)"/>
     <use xlink:href="#DejaVuSans-20" transform="translate(1064.613281 0)"/>
     <use xlink:href="#DejaVuSans-73" transform="translate(1096.400391 0)"/>
     <use xlink:href="#DejaVuSans-69" transform="translate(1148.5 0)"/>
     <use xlink:href="#DejaVuSans-67" transform="translate(1176.283203 0)"/>
     <use xlink:href="#DejaVuSans-6e" transform="translate(1239.759766 0)"/>
     <use xlink:href="#DejaVuSans-69" transform="translate(1303.138672 0)"/>
     <use xlink:href="#DejaVuSans-66" transform="translate(1330.921875 0)"/>
     <use xlink:href="#DejaVuSans-69" transform="translate(1366.126953 0)"/>
     <use xlink:href="#DejaVuSans-63" transform="translate(1393.910156 0)"/>
     <use xlink:href="#DejaVuSans-61" transform="translate(1448.890625 0)"/>
     <use xlink:href="#DejaVuSans-6e" transform="translate(1510.169922 0)"/>
     <use xlink:href="#DejaVuSans-63" transform="translate(1573.548828 0)"/>
     <use xlink:href="#DejaVuSans-65" transform="translate(1628.529297 0)"/>
     <use xlink:href="#DejaVuSans-20" transform="translate(1690.052734 0)"/>
     <use xlink:href="#DejaVuSans-64" transform="translate(1721.839844 0)"/>
     <use xlink:href="#DejaVuSans-6f" transform="translate(1785.316406 0)"/>
     <use xlink:href="#DejaVuSans-74" transform="translate(1846.498047 0)"/>
     <use xlink:href="#DejaVuSans-73" transform="translate(1885.707031 0)"/>
    </g>
   </g>
   <g id="legend_2">
    <g id="line2d_32">
     <path d="M 79.2 250.374437 
L 89.2 250.374437 
L 99.2 250.374437 
" style="fill: none; stroke: #d62728; stroke-width: 2.2; stroke-linecap: square"/>
    </g>
    <g id="text_29">
     <!-- (A→B − B→A) -->
     <g transform="translate(107.2 253.874437) scale(0.1 -0.1)">
      <use xlink:href="#DejaVuSans-28"/>
      <use xlink:href="#DejaVuSans-41" transform="translate(39.013672 0)"/>
      <use xlink:href="#DejaVuSans-2192" transform="translate(107.421875 0)"/>
      <use xlink:href="#DejaVuSans-42" transform="translate(191.210938 0)"/>
      <use xlink:href="#DejaVuSans-20" transform="translate(259.814453 0)"/>
      <use xlink:href="#DejaVuSans-2212" transform="translate(291.601562 0)"/>
      <use xlink:href="#DejaVuSans-20" transform="translate(375.390625 0)"/>
      <use xlink:href="#DejaVuSans-42" transform="translate(407.177734 0)"/>
      <use xlink:href="#DejaVuSans-2192" transform="translate(475.78125 0)"/>
      <use xlink:href="#DejaVuSans-41" transform="translate(559.570312 0)"/>
      <use xlink:href="#DejaVuSans-29" transform="translate(627.978516 0)"/>
     </g>
    </g>
    <g id="line2d_33">
     <g>
      <use xlink:href="#ma8cee4648e" x="89.2" y="265.052563" style="stroke: #000000"/>
     </g>
    </g>
    <g id="text_30">
     <!-- p&lt;0.05 (one-sided) -->
     <g transform="translate(107.2 268.552563) scale(0.1 -0.1)">
      <defs>
       <path id="DejaVuSans-3c" d="M 4684 3150 
L 1459 2003 
L 4684 863 
L 4684 294 
L 678 1747 
L 678 2266 
L 4684 3719 
L 4684 3150 
z
" transform="scale(0.015625)"/>
       <path id="DejaVuSans-2e" d="M 684 794 
L 1344 794 
L 1344 0 
L 684 0 
L 684 794 
z
" transform="scale(0.015625)"/>
      </defs>
      <use xlink:href="#DejaVuSans-70"/>
      <use xlink:href="#DejaVuSans-3c" transform="translate(63.476562 0)"/>
      <use xlink:href="#DejaVuSans-30" transform="translate(147.265625 0)"/>
      <use xlink:href="#DejaVuSans-2e" transform="translate(210.888672 0)"/>
      <use xlink:href="#DejaVuSans-30" transform="translate(242.675781 0)"/>
      <use xlink:href="#DejaVuSans-35" transform="translate(306.298828 0)"/>
      <use xlink:href="#DejaVuSans-20" transform="translate(369.921875 0)"/>
      <use xlink:href="#DejaVuSans-28" transform="translate(401.708984 0)"/>
      <use xlink:href="#DejaVuSans-6f" transform="translate(440.722656 0)"/>
      <use xlink:href="#DejaVuSans-6e" transform="translate(501.904297 0)"/>
      <use xlink:href="#DejaVuSans-65" transform="translate(565.283203 0)"/>
      <use xlink:href="#DejaVuSans-2d" transform="translate(626.806641 0)"/>
      <use xlink:href="#DejaVuSans-73" transform="translate(662.890625 0)"/>
      <use xlink:href="#DejaVuSans-69" transform="translate(714.990234 0)"/>
      <use xlink:href="#DejaVuSans-64" transform="translate(742.773438 0)"/>
      <use xlink:href="#DejaVuSans-65" transform="translate(806.25 0)"/>
      <use xlink:href="#DejaVuSans-64" transform="translate(867.773438 0)"/>
      <use xlink:href="#DejaVuSans-29" transform="translate(931.25 0)"/>
     </g>
    </g>
   </g>
  </g>
  <g id="axes_3">
   <g id="patch_14">
    <path d="M 70.2 499.824 
L 505.44 499.824 
L 505.44 383.994 
L 70.2 383.994 
z
" style="fill: #ffffff"/>
   </g>
   <g id="matplotlib.axis_5">
    <g id="xtick_13">
     <g id="line2d_34">
      <g>
       <use xlink:href="#m2b3c742147" x="87.985286" y="499.824" style="stroke: #000000; stroke-width: 0.8"/>
      </g>
     </g>
     <g id="text_31">
      <!-- −200 -->
      <g transform="translate(74.251693 514.422438) scale(0.1 -0.1)">
       <use xlink:href="#DejaVuSans-2212"/>
       <use xlink:href="#DejaVuSans-32" transform="translate(83.789062 0)"/>
       <use xlink:href="#DejaVuSans-30" transform="translate(147.412109 0)"/>
       <use xlink:href="#DejaVuSans-30" transform="translate(211.035156 0)"/>
      </g>
     </g>
    </g>
    <g id="xtick_14">
     <g id="line2d_35">
      <g>
       <use xlink:href="#m2b3c742147" x="167.91917" y="499.824" style="stroke: #000000; stroke-width: 0.8"/>
      </g>
     </g>
     <g id="text_32">
      <!-- 0 -->
      <g transform="translate(164.73792 514.422438) scale(0.1 -0.1)">
       <use xlink:href="#DejaVuSans-30"/>
      </g>
     </g>
    </g>
    <g id="xtick_15">
     <g id="line2d_36">
      <g>
       <use xlink:href="#m2b3c742147" x="247.853053" y="499.824" style="stroke: #000000; stroke-width: 0.8"/>
      </g>
     </g>
     <g id="text_33">
      <!-- 200 -->
      <g transform="translate(238.309303 514.422438) scale(0.1 -0.1)">
       <use xlink:href="#DejaVuSans-32"/>
       <use xlink:href="#DejaVuSans-30" transform="translate(63.623047 0)"/>
       <use xlink:href="#DejaVuSans-30" transform="translate(127.246094 0)"/>
      </g>
     </g>
    </g>
    <g id="xtick_16">
     <g id="line2d_37">
      <g>
       <use xlink:href="#m2b3c742147" x="327.786937" y="499.824" style="stroke: #000000; stroke-width: 0.8"/>
      </g>
     </g>
     <g id="text_34">
      <!-- 400 -->
      <g transform="translate(318.243187 514.422438) scale(0.1 -0.1)">
       <use xlink:href="#DejaVuSans-34"/>
       <use xlink:href="#DejaVuSans-30" transform="translate(63.623047 0)"/>
       <use xlink:href="#DejaVuSans-30" transform="translate(127.246094 0)"/>
      </g>
     </g>
    </g>
    <g id="xtick_17">
     <g id="line2d_38">
      <g>
       <use xlink:href="#m2b3c742147" x="407.720821" y="499.824" style="stroke: #000000; stroke-width: 0.8"/>
      </g>
     </g>
     <g id="text_35">
      <!-- 600 -->
      <g transform="translate(398.177071 514.422438) scale(0.1 -0.1)">
       <use xlink:href="#DejaVuSans-36"/>
       <use xlink:href="#DejaVuSans-30" transform="translate(63.623047 0)"/>
       <use xlink:href="#DejaVuSans-30" transform="translate(127.246094 0)"/>
      </g>
     </g>
    </g>
    <g id="xtick_18">
     <g id="line2d_39">
      <g>
       <use xlink:href="#m2b3c742147" x="487.654704" y="499.824" style="stroke: #000000; stroke-width: 0.8"/>
      </g>
     </g>
     <g id="text_36">
      <!-- 800 -->
      <g transform="translate(478.110954 514.422438) scale(0.1 -0.1)">
       <use xlink:href="#DejaVuSans-38"/>
       <use xlink:href="#DejaVuSans-30" transform="translate(63.623047 0)"/>
       <use xlink:href="#DejaVuSans-30" transform="translate(127.246094 0)"/>
      </g>
     </g>
    </g>
    <g id="text_37">
     <!-- Time (ms) -->
     <g transform="translate(262.620781 528.100563) scale(0.1 -0.1)">
      <defs>
       <path id="DejaVuSans-54" d="M -19 4666 
L 3928 4666 
L 3928 4134 
L 2272 4134 
L 2272 0 
L 1638 0 
L 1638 4134 
L -19 4134 
L -19 4666 
z
" transform="scale(0.015625)"/>
       <path id="DejaVuSans-6d" d="M 3328 2828 
Q 3544 3216 3844 3400 
Q 4144 3584 4550 3584 
Q 5097 3584 5394 3201 
Q 5691 2819 5691 2113 
L 5691 0 
L 5113 0 
L 5113 2094 
Q 5113 2597 4934 2840 
Q 4756 3084 4391 3084 
Q 3944 3084 3684 2787 
Q 3425 2491 3425 1978 
L 3425 0 
L 2847 0 
L 2847 2094 
Q 2847 2600 2669 2842 
Q 2491 3084 2119 3084 
Q 1678 3084 1418 2786 
Q 1159 2488 1159 1978 
L 1159 0 
L 581 0 
L 581 3500 
L 1159 3500 
L 1159 2956 
Q 1356 3278 1631 3431 
Q 1906 3584 2284 3584 
Q 2666 3584 2933 3390 
Q 3200 3197 3328 2828 
z
" transform="scale(0.015625)"/>
      </defs>
      <use xlink:href="#DejaVuSans-54"/>
      <use xlink:href="#DejaVuSans-69" transform="translate(57.958984 0)"/>
      <use xlink:href="#DejaVuSans-6d" transform="translate(85.742188 0)"/>
      <use xlink:href="#DejaVuSans-65" transform="translate(183.154297 0)"/>
      <use xlink:href="#DejaVuSans-20" transform="translate(244.677734 0)"/>
      <use xlink:href="#DejaVuSans-28" transform="translate(276.464844 0)"/>
      <use xlink:href="#DejaVuSans-6d" transform="translate(315.478516 0)"/>
      <use xlink:href="#DejaVuSans-73" transform="translate(412.890625 0)"/>
      <use xlink:href="#DejaVuSans-29" transform="translate(464.990234 0)"/>
     </g>
    </g>
   </g>
   <g id="matplotlib.axis_6">
    <g id="ytick_9">
     <g id="line2d_40">
      <g>
       <use xlink:href="#m06de745bc5" x="70.2" y="467.994379" style="stroke: #000000; stroke-width: 0.8"/>
      </g>
     </g>
     <g id="text_38">
      <!-- 0 -->
      <g transform="translate(56.8375 471.793597) scale(0.1 -0.1)">
       <use xlink:href="#DejaVuSans-30"/>
      </g>
     </g>
    </g>
    <g id="ytick_10">
     <g id="line2d_41">
      <g>
       <use xlink:href="#m06de745bc5" x="70.2" y="432.731635" style="stroke: #000000; stroke-width: 0.8"/>
      </g>
     </g>
     <g id="text_39">
      <!-- 2 -->
      <g transform="translate(56.8375 436.530853) scale(0.1 -0.1)">
       <use xlink:href="#DejaVuSans-32"/>
      </g>
     </g>
    </g>
    <g id="ytick_11">
     <g id="line2d_42">
      <g>
       <use xlink:href="#m06de745bc5" x="70.2" y="397.468891" style="stroke: #000000; stroke-width: 0.8"/>
      </g>
     </g>
     <g id="text_40">
      <!-- 4 -->
      <g transform="translate(56.8375 401.268109) scale(0.1 -0.1)">
       <use xlink:href="#DejaVuSans-34"/>
      </g>
     </g>
    </g>
    <g id="text_41">
     <!-- Z (σ from null) -->
     <g transform="translate(50.757812 477.919938) rotate(-90) scale(0.1 -0.1)">
      <defs>
       <path id="DejaVuSans-5a" d="M 359 4666 
L 4025 4666 
L 4025 4184 
L 1075 531 
L 4097 531 
L 4097 0 
L 288 0 
L 288 481 
L 3238 4134 
L 359 4134 
L 359 4666 
z
" transform="scale(0.015625)"/>
      </defs>
      <use xlink:href="#DejaVuSans-5a"/>
      <use xlink:href="#DejaVuSans-20" transform="translate(68.505859 0)"/>
      <use xlink:href="#DejaVuSans-28" transform="translate(100.292969 0)"/>
      <use xlink:href="#DejaVuSans-3c3" transform="translate(139.306641 0)"/>
      <use xlink:href="#DejaVuSans-20" transform="translate(202.685547 0)"/>
      <use xlink:href="#DejaVuSans-66" transform="translate(234.472656 0)"/>
      <use xlink:href="#DejaVuSans-72" transform="translate(269.677734 0)"/>
      <use xlink:href="#DejaVuSans-6f" transform="translate(308.541016 0)"/>
      <use xlink:href="#DejaVuSans-6d" transform="translate(369.722656 0)"/>
      <use xlink:href="#DejaVuSans-20" transform="translate(467.134766 0)"/>
      <use xlink:href="#DejaVuSans-6e" transform="translate(498.921875 0)"/>
      <use xlink:href="#DejaVuSans-75" transform="translate(562.300781 0)"/>
      <use xlink:href="#DejaVuSans-6c" transform="translate(625.679688 0)"/>
      <use xlink:href="#DejaVuSans-6c" transform="translate(653.462891 0)"/>
      <use xlink:href="#DejaVuSans-29" transform="translate(681.246094 0)"/>
     </g>
    </g>
   </g>
   <g id="line2d_43">
    <path d="M 167.91917 499.824 
L 167.91917 383.994 
" clip-path="url(#p4186396b0c)" style="fill: none; stroke-dasharray: 2.96,1.28; stroke-dashoffset: 0; stroke: #000000; stroke-width: 0.8"/>
   </g>
   <g id="line2d_44">
    <path d="M 89.983636 461.560325 
L 93.980327 447.75247 
L 97.977023 430.569903 
L 101.973713 478.819437 
L 105.97041 479.764133 
L 109.967106 475.94327 
L 113.963796 482.380135 
L 117.960493 476.742082 
L 121.957186 456.09535 
L 125.953882 487.058111 
L 129.950576 462.133297 
L 133.947269 453.293534 
L 137.943962 438.024189 
L 141.940659 486.048011 
L 145.937352 458.2863 
L 149.934045 475.323186 
L 153.93074 477.146275 
L 157.927434 445.615178 
L 161.924129 477.196182 
L 165.920823 480.226795 
L 169.917517 483.471738 
L 173.914211 475.162782 
L 177.910906 455.418832 
L 181.9076 491.261232 
L 185.904294 460.974159 
L 189.900988 476.741783 
L 193.897681 464.585598 
L 197.894377 451.836089 
L 201.891071 491.888975 
L 205.887764 480.894706 
L 209.884457 472.739822 
L 213.881154 451.471067 
L 217.877847 465.658097 
L 221.874543 421.956773 
L 225.871234 471.531871 
L 229.86793 483.659656 
L 233.864626 462.093203 
L 237.861317 443.058583 
L 241.858013 479.553509 
L 245.854704 459.645522 
L 249.8514 474.402601 
L 253.848096 478.123497 
L 257.844787 483.264214 
L 261.841483 494.559 
L 265.838179 433.177691 
L 269.83487 460.452782 
L 273.83156 457.738843 
L 277.828262 469.705023 
L 281.824953 465.074936 
L 285.821643 471.168179 
L 289.818345 472.471804 
L 293.815036 457.877506 
L 297.811726 488.805887 
L 301.808428 472.360781 
L 305.805119 454.128362 
L 309.801809 477.538968 
L 313.798511 470.223877 
L 317.795202 463.699001 
L 321.791892 483.334662 
L 325.788594 485.197866 
L 329.785285 444.554032 
L 333.781975 447.825414 
L 337.778677 489.865625 
L 341.775368 424.992239 
L 345.772058 483.71298 
L 349.76876 441.35876 
L 353.765451 454.650991 
L 357.762141 441.821304 
L 361.758843 485.935384 
L 365.755534 472.228674 
L 369.752224 479.313096 
L 373.748914 432.135532 
L 377.745605 486.090993 
L 381.742319 491.258486 
L 385.739009 476.415353 
L 389.7357 469.64996 
L 393.73239 455.253488 
L 397.72908 488.155818 
L 401.725771 454.923751 
L 405.722485 483.694424 
L 409.719175 485.511486 
L 413.715866 465.252331 
L 417.712556 490.510246 
L 421.709246 432.41177 
L 425.705937 461.560959 
L 429.702627 447.816914 
L 433.699341 487.662076 
L 437.696032 454.022416 
L 441.692722 469.144496 
L 445.689412 465.641733 
L 449.686103 454.923193 
L 453.682793 429.986658 
L 457.679507 473.371707 
L 461.676198 483.199778 
L 465.672888 478.394364 
L 469.669578 432.953159 
L 473.666269 445.549837 
L 477.662959 466.73489 
L 481.659673 439.345639 
L 485.656364 454.581 
" clip-path="url(#p4186396b0c)" style="fill: none; stroke: #1f77b4; stroke-width: 2; stroke-linecap: square"/>
   </g>
   <g id="line2d_45">
    <path d="M 89.983636 479.952564 
L 93.980327 474.372805 
L 97.977023 472.766413 
L 101.973713 480.691392 
L 105.97041 475.642272 
L 109.967106 493.658457 
L 113.963796 479.910596 
L 117.960493 480.929018 
L 121.957186 444.331655 
L 125.953882 482.2891 
L 129.950576 491.230994 
L 133.947269 476.517048 
L 137.943962 488.132349 
L 141.940659 470.492992 
L 145.937352 465.896127 
L 149.934045 469.862356 
L 153.93074 483.195647 
L 157.927434 492.934828 
L 161.924129 465.282863 
L 165.920823 482.381761 
L 169.917517 476.202867 
L 173.914211 477.995382 
L 177.910906 486.96766 
L 181.9076 473.238589 
L 185.904294 480.886446 
L 189.900988 482.264869 
L 193.897681 461.219819 
L 197.894377 457.332829 
L 201.891071 491.331471 
L 205.887764 420.960975 
L 209.884457 468.248239 
L 213.881154 488.205556 
L 217.877847 464.212349 
L 221.874543 454.854335 
L 225.871234 489.98435 
L 229.86793 423.886592 
L 233.864626 482.314719 
L 237.861317 472.910395 
L 241.858013 473.040529 
L 245.854704 466.305866 
L 249.8514 470.999747 
L 253.848096 484.240282 
L 257.844787 446.328709 
L 261.841483 482.994671 
L 265.838179 487.341025 
L 269.83487 470.052355 
L 273.83156 466.368204 
L 277.828262 441.263909 
L 281.824953 462.825136 
L 285.821643 482.225314 
L 289.818345 449.674526 
L 293.815036 473.414872 
L 297.811726 408.013685 
L 301.808428 490.867862 
L 305.805119 480.31467 
L 309.801809 442.500352 
L 313.798511 441.396406 
L 317.795202 454.673929 
L 321.791892 463.539337 
L 325.788594 471.996235 
L 329.785285 480.829588 
L 333.781975 480.148466 
L 337.778677 486.509467 
L 341.775368 477.838716 
L 345.772058 478.533848 
L 349.76876 458.882598 
L 353.765451 459.488526 
L 357.762141 476.562009 
L 361.758843 424.347558 
L 365.755534 452.368128 
L 369.752224 489.960086 
L 373.748914 426.353926 
L 377.745605 489.330917 
L 381.742319 490.568544 
L 385.739009 444.730773 
L 389.7357 389.259 
L 393.73239 468.130858 
L 397.72908 493.48404 
L 401.725771 476.7003 
L 405.722485 470.358011 
L 409.719175 467.784382 
L 413.715866 433.222391 
L 417.712556 479.134139 
L 421.709246 468.542379 
L 425.705937 478.923727 
L 429.702627 456.52274 
L 433.699341 484.86589 
L 437.696032 473.438317 
L 441.692722 490.881418 
L 445.689412 407.351641 
L 449.686103 447.139797 
L 453.682793 480.504994 
L 457.679507 475.306844 
L 461.676198 445.858822 
L 465.672888 469.801588 
L 469.669578 483.380437 
L 473.666269 491.469572 
L 477.662959 448.616256 
L 481.659673 457.70867 
L 485.656364 489.454146 
" clip-path="url(#p4186396b0c)" style="fill: none; stroke: #ff7f0e; stroke-width: 2; stroke-linecap: square"/>
   </g>
   <g id="patch_15">
    <path d="M 70.2 499.824 
L 70.2 383.994 
" style="fill: none; stroke: #000000; stroke-width: 0.8; stroke-linejoin: miter; stroke-linecap: square"/>
   </g>
   <g id="patch_16">
    <path d="M 505.44 499.824 
L 505.44 383.994 
" style="fill: none; stroke: #000000; stroke-width: 0.8; stroke-linejoin: miter; stroke-linecap: square"/>
   </g>
   <g id="patch_17">
    <path d="M 70.2 499.824 
L 505.44 499.824 
" style="fill: none; stroke: #000000; stroke-width: 0.8; stroke-linejoin: miter; stroke-linecap: square"/>
   </g>
   <g id="patch_18">
    <path d="M 70.2 383.994 
L 505.44 383.994 
" style="fill: none; stroke: #000000; stroke-width: 0.8; stroke-linejoin: miter; stroke-linecap: square"/>
   </g>
   <g id="text_42">
    <!-- Panel C: evidence strength vs null -->
    <g transform="translate(185.80125 377.994) scale(0.12 -0.12)">
     <use xlink:href="#DejaVuSans-50"/>
     <use xlink:href="#DejaVuSans-61" transform="translate(55.802734 0)"/>
     <use xlink:href="#DejaVuSans-6e" transform="translate(117.082031 0)"/>
     <use xlink:href="#DejaVuSans-65" transform="translate(180.460938 0)"/>
     <use xlink:href="#DejaVuSans-6c" transform="translate(241.984375 0)"/>
     <use xlink:href="#DejaVuSans-20" transform="translate(269.767578 0)"/>
     <use xlink:href="#DejaVuSans-43" transform="translate(301.554688 0)"/>
     <use xlink:href="#DejaVuSans-3a" transform="translate(371.378906 0)"/>
     <use xlink:href="#DejaVuSans-20" transform="translate(405.070312 0)"/>
     <use xlink:href="#DejaVuSans-65" transform="translate(436.857422 0)"/>
     <use xlink:href="#DejaVuSans-76" transform="translate(498.380859 0)"/>
     <use xlink:href="#DejaVuSans-69" transform="translate(557.560547 0)"/>
     <use xlink:href="#DejaVuSans-64" transform="translate(585.34375 0)"/>
     <use xlink:href="#DejaVuSans-65" transform="translate(648.820312 0)"/>
     <use xlink:href="#DejaVuSans-6e" transform="translate(710.34375 0)"/>
     <use xlink:href="#DejaVuSans-63" transform="translate(773.722656 0)"/>
     <use xlink:href="#DejaVuSans-65" transform="translate(828.703125 0)"/>
     <use xlink:href="#DejaVuSans-20" transform="translate(890.226562 0)"/>
     <use xlink:href="#DejaVuSans-73" transform="translate(922.013672 0)"/>
     <use xlink:href="#DejaVuSans-74" transform="translate(974.113281 0)"/>
     <use xlink:href="#DejaVuSans-72" transform="translate(1013.322266 0)"/>
     <use xlink:href="#DejaVuSans-65" transform="translate(1052.185547 0)"/>
     <use xlink:href="#DejaVuSans-6e" transform="translate(1113.708984 0)"/>
     <use xlink:href="#DejaVuSans-67" transform="translate(1177.087891 0)"/>
     <use xlink:href="#DejaVuSans-74" transform="translate(1240.564453 0)"/>
     <use xlink:href="#DejaVuSans-68" transform="translate(1279.773438 0)"/>
     <use xlink:href="#DejaVuSans-20" transform="translate(1343.152344 0)"/>
     <use xlink:href="#DejaVuSans-76" transform="translate(1374.939453 0)"/>
     <use xlink:href="#DejaVuSans-73" transform="translate(1434.119141 0)"/>
     <use xlink:href="#DejaVuSans-20" transform="translate(1486.21875 0)"/>
     <use xlink:href="#DejaVuSans-6e" transform="translate(1518.005859 0)"/>
     <use xlink:href="#DejaVuSans-75" transform="translate(1581.384766 0)"/>
     <use xlink:href="#DejaVuSans-6c" transform="translate(1644.763672 0)"/>
     <use xlink:href="#DejaVuSans-6c" transform="translate(1672.546875 0)"/>
    </g>
   </g>
   <g id="legend_3">
    <g id="line2d_46">
     <path d="M 79.2 397.092438 
L 89.2 397.092438 
L 99.2 397.092438 
" style="fill: none; stroke: #1f77b4; stroke-width: 2; stroke-linecap: square"/>
    </g>
    <g id="text_43">
     <!-- z(MFEF→MSC) -->
     <g transform="translate(107.2 400.592438) scale(0.1 -0.1)">
      <defs>
       <path id="DejaVuSans-7a" d="M 353 3500 
L 3084 3500 
L 3084 2975 
L 922 459 
L 3084 459 
L 3084 0 
L 275 0 
L 275 525 
L 2438 3041 
L 353 3041 
L 353 3500 
z
" transform="scale(0.015625)"/>
      </defs>
      <use xlink:href="#DejaVuSans-7a"/>
      <use xlink:href="#DejaVuSans-28" transform="translate(52.490234 0)"/>
      <use xlink:href="#DejaVuSans-4d" transform="translate(91.503906 0)"/>
      <use xlink:href="#DejaVuSans-46" transform="translate(177.783203 0)"/>
      <use xlink:href="#DejaVuSans-45" transform="translate(235.302734 0)"/>
      <use xlink:href="#DejaVuSans-46" transform="translate(298.486328 0)"/>
      <use xlink:href="#DejaVuSans-2192" transform="translate(356.005859 0)"/>
      <use xlink:href="#DejaVuSans-4d" transform="translate(439.794922 0)"/>
      <use xlink:href="#DejaVuSans-53" transform="translate(526.074219 0)"/>
      <use xlink:href="#DejaVuSans-43" transform="translate(589.550781 0)"/>
      <use xlink:href="#DejaVuSans-29" transform="translate(659.375 0)"/>
     </g>
    </g>
    <g id="line2d_47">
     <path d="M 79.2 411.770563 
L 89.2 411.770563 
L 99.2 411.770563 
" style="fill: none; stroke: #ff7f0e; stroke-width: 2; stroke-linecap: square"/>
    </g>
    <g id="text_44">
     <!-- z(MSC→MFEF) -->
     <g transform="translate(107.2 415.270563) scale(0.1 -0.1)">
      <use xlink:href="#DejaVuSans-7a"/>
      <use xlink:href="#DejaVuSans-28" transform="translate(52.490234 0)"/>
      <use xlink:href="#DejaVuSans-4d" transform="translate(91.503906 0)"/>
      <use xlink:href="#DejaVuSans-53" transform="translate(177.783203 0)"/>
      <use xlink:href="#DejaVuSans-43" transform="translate(241.259766 0)"/>
      <use xlink:href="#DejaVuSans-2192" transform="translate(311.083984 0)"/>
      <use xlink:href="#DejaVuSans-4d" transform="translate(394.873047 0)"/>
      <use xlink:href="#DejaVuSans-46" transform="translate(481.152344 0)"/>
      <use xlink:href="#DejaVuSans-45" transform="translate(538.671875 0)"/>
      <use xlink:href="#DejaVuSans-46" transform="translate(601.855469 0)"/>
      <use xlink:href="#DejaVuSans-29" transform="translate(659.375 0)"/>
     </g>
    </g>
   </g>
  </g>
 </g>
 <defs>
  <clipPath id="p18d8661833">
   <rect x="70.2" y="67.392" width="435.24" height="138.996"/>
  </clipPath>
  <clipPath id="pfa59336437">
   <rect x="70.2" y="237.276" width="435.24" height="115.83"/>
  </clipPath>
  <clipPath id="p4186396b0c">
   <rect x="70.2" y="383.994" width="435.24" height="115.83"/>
  </clipPath>
 </defs>
</svg>
