<?xml version="1.0" encoding="utf-8" standalone="no"?>
<!DOCTYPE svg PUBLIC "-//W3C//DTD SVG 1.1//EN"
  "http://www.w3.org/Graphics/SVG/1.1/DTD/svg11.dtd">
<svg xmlns:xlink="http://www.w3.org/1999/xlink" width="856.8pt" height="453.6pt" viewBox="0 0 856.8 453.6" xmlns="http://www.w3.org/2000/svg" version="1.1">
 <metadata>
  <rdf:RDF xmlns:dc="http://purl.org/dc/elements/1.1/" xmlns:cc="http://creativecommons.org/ns#" xmlns:rdf="http://www.w3.org/1999/02/22-rdf-syntax-ns#">
   <cc:Work>
    <dc:type rdf:resource="http://purl.org/dc/dcmitype/StillImage"/>
    <dc:date>2026-01-15T00:49:35.550702</dc:date>
    <dc:format>image/svg+xml</dc:format>
    <dc:creator>
     <cc:Agent>
      <dc:title>Matplotlib v3.9.2, https://matplotlib.org/</dc:title>
     </cc:Agent>
    </dc:creator>
   </cc:Work>
  </rdf:RDF>
 </metadata>
 <defs>
  <style type="text/css">*{stroke-linejoin: round; stroke-linecap: butt}</style>
 </defs>
 <g id="figure_1">
  <g id="patch_1">
   <path d="M 0 453.6 
L 856.8 453.6 
L 856.8 0 
L 0 0 
z
" style="fill: #ffffff"/>
  </g>
  <g id="axes_1">
   <g id="patch_2">
    <path d="M 100.8 396 
L 820.8 396 
L 820.8 36 
L 100.8 36 
z
" style="fill: #ffffff"/>
   </g>
   <g id="PolyCollection_1">
    <path d="M -49.199993 346.79717 
L -49.199993 371.151196 
L -37.200004 343.33078 
L -25.199998 353.07522 
L -13.199991 344.722105 
L -1.200003 357.873917 
L 10.800004 360.015188 
L 22.799992 357.208731 
L 34.799999 362.26046 
L 46.800005 339.544258 
L 58.799994 347.130008 
L 70.8 344.879255 
L 82.799997 363.274937 
L 94.800004 370.871687 
L 106.800001 370.462181 
L 118.799999 360.639929 
L 130.799996 348.554966 
L 142.800003 337.053359 
L 154.8 336.665568 
L 166.799998 333.321212 
L 178.8 343.335055 
L 190.8 347.38165 
L 202.8 360.160582 
L 214.8 360.249918 
L 226.8 358.344149 
L 238.8 342.325538 
L 250.8 333.211983 
L 262.8 327.481759 
L 274.800002 338.561314 
L 286.8 347.174653 
L 298.799997 364.186 
L 310.800004 362.991891 
L 322.800001 357.6214 
L 334.799999 336.206843 
L 346.799996 308.74169 
L 358.800003 320.928386 
L 370.8 333.011229 
L 382.800006 358.439224 
L 394.799995 341.558356 
L 406.800001 341.8769 
L 418.800008 330.693802 
L 430.799996 340.915408 
L 442.800003 346.023839 
L 454.799991 356.802013 
L 466.799998 360.876062 
L 478.800004 353.195279 
L 490.799993 358.134292 
L 502.799999 352.782971 
L 514.800006 347.363046 
L 526.799994 337.824026 
L 538.799983 331.93983 
L 550.800007 319.684152 
L 562.799996 330.69448 
L 574.799984 331.626228 
L 586.800009 347.867268 
L 598.799997 351.54922 
L 610.799986 347.660516 
L 622.80001 328.102707 
L 634.799999 300.806383 
L 646.799987 301.536582 
L 658.800011 318.276689 
L 670.8 320.471363 
L 682.799989 313.642779 
L 694.800013 314.164121 
L 706.800001 324.587382 
L 718.79999 322.042828 
L 730.800014 301.744987 
L 742.800003 288.38029 
L 754.799991 286.509953 
L 766.800016 316.344517 
L 778.800004 326.664163 
L 790.799993 330.392626 
L 802.800017 307.290621 
L 814.800006 323.995101 
L 826.799994 302.009265 
L 838.799983 301.648655 
L 850.799971 289.171136 
L 862.800031 300.681625 
L 874.80002 316.881344 
L 886.800009 324.088864 
L 898.799997 351.435048 
L 910.799986 349.346695 
L 922.799974 345.383731 
L 934.800034 347.83789 
L 946.800023 346.219062 
L 958.800011 337.916212 
L 970.8 328.285546 
L 982.799989 339.322556 
L 994.799977 330.659518 
L 1006.799966 338.746847 
L 1018.800026 333.271825 
L 1030.800014 349.216948 
L 1042.800003 347.924579 
L 1054.799991 350.004536 
L 1066.79998 357.260064 
L 1078.799969 350.921487 
L 1090.800029 353.491391 
L 1102.800017 328.08427 
L 1114.800006 329.032238 
L 1126.799994 322.591211 
L 1138.799983 346.30262 
L 1150.799971 352.306067 
L 1162.800031 358.951273 
L 1174.80002 357.086269 
L 1174.80002 326.384467 
L 1174.80002 326.384467 
L 1162.800031 333.23887 
L 1150.799971 311.960917 
L 1138.799983 297.838214 
L 1126.799994 259.444099 
L 1114.800006 265.815238 
L 1102.800017 253.616017 
L 1090.800029 286.607073 
L 1078.799969 289.249507 
L 1066.79998 323.741384 
L 1054.799991 315.322831 
L 1042.800003 308.117532 
L 1030.800014 308.830665 
L 1018.800026 274.403484 
L 1006.799966 275.910893 
L 994.799977 257.901216 
L 982.799989 292.524202 
L 970.8 274.830253 
L 958.800011 248.775631 
L 946.800023 217.855841 
L 934.800034 212.826029 
L 922.799974 255.934493 
L 910.799986 297.000324 
L 898.799997 317.638047 
L 886.800009 282.968114 
L 874.80002 209.109076 
L 862.800031 178.226169 
L 850.799971 158.023525 
L 838.799983 211.622806 
L 826.799994 207.750994 
L 814.800006 242.609924 
L 802.800017 186.321596 
L 790.799993 207.492272 
L 778.800004 171.16806 
L 766.800016 195.350273 
L 754.799991 169.783533 
L 742.800003 168.931807 
L 730.800014 187.886886 
L 718.79999 219.109677 
L 706.800001 228.125232 
L 694.800013 215.2535 
L 682.799989 207.715634 
L 670.8 248.440499 
L 658.800011 234.091945 
L 646.799987 218.823895 
L 634.799999 195.175019 
L 622.80001 204.305003 
L 610.799986 218.208906 
L 598.799997 249.063565 
L 586.800009 303.527361 
L 574.799984 306.728159 
L 562.799996 266.371676 
L 550.800007 233.913843 
L 538.799983 237.90493 
L 526.799994 266.46807 
L 514.800006 278.177971 
L 502.799999 287.484343 
L 490.799993 297.190612 
L 478.800004 300.40894 
L 466.799998 312.597719 
L 454.799991 308.798606 
L 442.800003 297.150851 
L 430.799996 293.249682 
L 418.800008 291.49288 
L 406.800001 302.04555 
L 394.799995 307.762208 
L 382.800006 322.5218 
L 370.8 300.460047 
L 358.800003 255.286246 
L 346.799996 232.161404 
L 334.799999 253.73737 
L 322.800001 297.414207 
L 310.800004 307.686401 
L 298.799997 321.473727 
L 286.8 298.745727 
L 274.800002 294.635275 
L 262.8 283.848947 
L 250.8 294.312697 
L 238.8 310.025616 
L 226.8 325.217614 
L 214.8 339.539517 
L 202.8 329.378078 
L 190.8 301.133005 
L 178.8 293.692834 
L 166.799998 285.461614 
L 154.8 285.368469 
L 142.800003 290.188331 
L 130.799996 282.2245 
L 118.799999 314.912357 
L 106.800001 312.729461 
L 94.800004 336.408911 
L 82.799997 303.223301 
L 70.8 266.2059 
L 58.799994 258.450439 
L 46.800005 274.985533 
L 34.799999 329.751005 
L 22.799992 330.345189 
L 10.800004 308.603273 
L -1.200003 298.859556 
L -13.199991 282.140233 
L -25.199998 317.567405 
L -37.200004 307.981672 
L -49.199993 346.79717 
z
" clip-path="url(#paf26a261fa)" style="fill: #0072b2; fill-opacity: 0.25"/>
   </g>
   <g id="PolyCollection_2">
    <path d="M -49.199993 290.928617 
L -49.199993 339.834026 
L -37.200004 360.94071 
L -25.199998 358.361766 
L -13.199991 371.964958 
L -1.200003 374.861301 
L 10.800004 379.636364 
L 22.799992 378.747394 
L 34.799999 365.652855 
L 46.800005 356.378088 
L 58.799994 343.735087 
L 70.8 349.754901 
L 82.799997 349.937964 
L 94.800004 355.511551 
L 106.800001 349.477565 
L 118.799999 352.716206 
L 130.799996 325.637391 
L 142.800003 322.41543 
L 154.8 331.393599 
L 166.799998 362.463281 
L 178.8 358.128571 
L 190.8 352.016606 
L 202.8 344.528428 
L 214.8 362.085763 
L 226.8 368.366396 
L 238.8 372.778506 
L 250.8 356.050395 
L 262.8 349.019816 
L 274.800002 347.191382 
L 286.8 353.00908 
L 298.799997 354.718599 
L 310.800004 358.244164 
L 322.800001 338.748732 
L 334.799999 347.0205 
L 346.799996 340.68548 
L 358.800003 366.178146 
L 370.8 341.81572 
L 382.800006 353.506825 
L 394.799995 345.936911 
L 406.800001 352.783464 
L 418.800008 331.748835 
L 430.799996 337.801486 
L 442.800003 315.114983 
L 454.799991 314.364621 
L 466.799998 300.915641 
L 478.800004 307.717704 
L 490.799993 308.498801 
L 502.799999 309.72907 
L 514.800006 311.404302 
L 526.799994 263.546512 
L 538.799983 242.283669 
L 550.800007 201.860224 
L 562.799996 246.357396 
L 574.799984 241.30072 
L 586.800009 263.012408 
L 598.799997 262.630769 
L 610.799986 258.045578 
L 622.80001 260.02701 
L 634.799999 252.911986 
L 646.799987 282.185781 
L 658.800011 278.550813 
L 670.8 294.410063 
L 682.799989 289.580765 
L 694.800013 321.47345 
L 706.800001 314.230707 
L 718.79999 326.402345 
L 730.800014 329.721937 
L 742.800003 324.939124 
L 754.799991 315.314336 
L 766.800016 318.878466 
L 778.800004 320.775362 
L 790.799993 316.214778 
L 802.800017 320.327133 
L 814.800006 332.86746 
L 826.799994 349.408417 
L 838.799983 344.538137 
L 850.799971 349.975431 
L 862.800031 341.483992 
L 874.80002 351.699549 
L 886.800009 353.098754 
L 898.799997 351.657878 
L 910.799986 345.521601 
L 922.799974 327.547755 
L 934.800034 347.493472 
L 946.800023 345.49122 
L 958.800011 371.987301 
L 970.8 352.021348 
L 982.799989 336.714133 
L 994.799977 317.375123 
L 1006.799966 322.697749 
L 1018.800026 343.729755 
L 1030.800014 351.220877 
L 1042.800003 362.138408 
L 1054.799991 348.239189 
L 1066.79998 344.646387 
L 1078.799969 335.04374 
L 1090.800029 346.925269 
L 1102.800017 338.737218 
L 1114.800006 334.701248 
L 1126.799994 327.485372 
L 1138.799983 346.711923 
L 1150.799971 363.058793 
L 1162.800031 371.251171 
L 1174.80002 370.491073 
L 1174.80002 316.337539 
L 1174.80002 316.337539 
L 1162.800031 317.170581 
L 1150.799971 311.236204 
L 1138.799983 291.845628 
L 1126.799994 260.518344 
L 1114.800006 275.989012 
L 1102.800017 297.326266 
L 1090.800029 320.168734 
L 1078.799969 304.690511 
L 1066.79998 315.674093 
L 1054.799991 316.696758 
L 1042.800003 335.37199 
L 1030.800014 322.402378 
L 1018.800026 320.796129 
L 1006.799966 293.230718 
L 994.799977 227.756119 
L 982.799989 227.090275 
L 970.8 230.006812 
L 958.800011 307.016313 
L 946.800023 297.811675 
L 934.800034 314.97276 
L 922.799974 285.470146 
L 910.799986 261.981195 
L 898.799997 231.601194 
L 886.800009 223.335446 
L 874.80002 273.296353 
L 862.800031 274.975874 
L 850.799971 299.030648 
L 838.799983 281.847357 
L 826.799994 293.589548 
L 814.800006 242.793973 
L 802.800017 215.040763 
L 790.799993 201.486963 
L 778.800004 216.973283 
L 766.800016 192.256384 
L 754.799991 199.507615 
L 742.800003 232.857214 
L 730.800014 268.530465 
L 718.79999 264.017844 
L 706.800001 245.955382 
L 694.800013 264.904007 
L 682.799989 197.667921 
L 670.8 217.560008 
L 658.800011 163.938894 
L 646.799987 199.80465 
L 634.799999 118.75741 
L 622.80001 157.422339 
L 610.799986 131.930278 
L 598.799997 130.103962 
L 586.800009 116.481177 
L 574.799984 88.305459 
L 562.799996 84.893193 
L 550.800007 52.363636 
L 538.799983 80.379707 
L 526.799994 133.213945 
L 514.800006 113.725117 
L 502.799999 106.804925 
L 490.799993 118.722199 
L 478.800004 146.443501 
L 466.799998 127.50586 
L 454.799991 92.623202 
L 442.800003 132.334477 
L 430.799996 188.642028 
L 418.800008 238.135316 
L 406.800001 260.76931 
L 394.799995 295.72668 
L 382.800006 315.247756 
L 370.8 308.435284 
L 358.800003 340.707978 
L 346.799996 301.117455 
L 334.799999 310.071111 
L 322.800001 289.039865 
L 310.800004 312.277296 
L 298.799997 303.81951 
L 286.8 310.913277 
L 274.800002 300.287056 
L 262.8 312.073116 
L 250.8 323.817542 
L 238.8 350.252323 
L 226.8 330.215265 
L 214.8 312.49433 
L 202.8 285.278958 
L 190.8 301.285103 
L 178.8 306.383334 
L 166.799998 310.952867 
L 154.8 274.764549 
L 142.800003 264.189548 
L 130.799996 269.527643 
L 118.799999 294.696951 
L 106.800001 302.232389 
L 94.800004 316.128127 
L 82.799997 318.993311 
L 70.8 320.615142 
L 58.799994 317.911927 
L 46.800005 333.451642 
L 34.799999 339.185151 
L 22.799992 356.286086 
L 10.800004 358.398157 
L -1.200003 355.433148 
L -13.199991 353.169774 
L -25.199998 330.95982 
L -37.200004 330.738525 
L -49.199993 290.928617 
z
" clip-path="url(#paf26a261fa)" style="fill: #d55e00; fill-opacity: 0.25"/>
   </g>
   <g id="matplotlib.axis_1">
    <g id="xtick_1">
     <g id="line2d_1">
      <defs>
       <path id="m27f5044828" d="M 0 0 
L 0 3.5 
" style="stroke: #000000; stroke-width: 0.8"/>
      </defs>
      <g>
       <use xlink:href="#m27f5044828" x="100.8" y="396" style="stroke: #000000; stroke-width: 0.8"/>
      </g>
     </g>
     <g id="text_1">
      <!-- −100 -->
      <g transform="translate(78.82625 415.1575) scale(0.16 -0.16)">
       <defs>
        <path id="DejaVuSans-2212" d="M 678 2272 
L 4684 2272 
L 4684 1741 
L 678 1741 
L 678 2272 
z
" transform="scale(0.015625)"/>
        <path id="DejaVuSans-31" d="M 794 531 
L 1825 531 
L 1825 4091 
L 703 3866 
L 703 4441 
L 1819 4666 
L 2450 4666 
L 2450 531 
L 3481 531 
L 3481 0 
L 794 0 
L 794 531 
z
" transform="scale(0.015625)"/>
        <path id="DejaVuSans-30" d="M 2034 4250 
Q 1547 4250 1301 3770 
Q 1056 3291 1056 2328 
Q 1056 1369 1301 889 
Q 1547 409 2034 409 
Q 2525 409 2770 889 
Q 3016 1369 3016 2328 
Q 3016 3291 2770 3770 
Q 2525 4250 2034 4250 
z
M 2034 4750 
Q 2819 4750 3233 4129 
Q 3647 3509 3647 2328 
Q 3647 1150 3233 529 
Q 2819 -91 2034 -91 
Q 1250 -91 836 529 
Q 422 1150 422 2328 
Q 422 3509 836 4129 
Q 1250 4750 2034 4750 
z
" transform="scale(0.015625)"/>
       </defs>
       <use xlink:href="#DejaVuSans-2212"/>
       <use xlink:href="#DejaVuSans-31" x="83.789062"/>
       <use xlink:href="#DejaVuSans-30" x="147.412109"/>
       <use xlink:href="#DejaVuSans-30" x="211.035156"/>
      </g>
     </g>
    </g>
    <g id="xtick_2">
     <g id="line2d_2">
      <g>
       <use xlink:href="#m27f5044828" x="220.8" y="396" style="stroke: #000000; stroke-width: 0.8"/>
      </g>
     </g>
     <g id="text_2">
      <!-- 0 -->
      <g transform="translate(215.71 415.1575) scale(0.16 -0.16)">
       <use xlink:href="#DejaVuSans-30"/>
      </g>
     </g>
    </g>
    <g id="xtick_3">
     <g id="line2d_3">
      <g>
       <use xlink:href="#m27f5044828" x="340.8" y="396" style="stroke: #000000; stroke-width: 0.8"/>
      </g>
     </g>
     <g id="text_3">
      <!-- 100 -->
      <g transform="translate(325.53 415.1575) scale(0.16 -0.16)">
       <use xlink:href="#DejaVuSans-31"/>
       <use xlink:href="#DejaVuSans-30" x="63.623047"/>
       <use xlink:href="#DejaVuSans-30" x="127.246094"/>
      </g>
     </g>
    </g>
    <g id="xtick_4">
     <g id="line2d_4">
      <g>
       <use xlink:href="#m27f5044828" x="460.8" y="396" style="stroke: #000000; stroke-width: 0.8"/>
      </g>
     </g>
     <g id="text_4">
      <!-- 200 -->
      <g transform="translate(445.53 415.1575) scale(0.16 -0.16)">
       <defs>
        <path id="DejaVuSans-32" d="M 1228 531 
L 3431 531 
L 3431 0 
L 469 0 
L 469 531 
Q 828 903 1448 1529 
Q 2069 2156 2228 2338 
Q 2531 2678 2651 2914 
Q 2772 3150 2772 3378 
Q 2772 3750 2511 3984 
Q 2250 4219 1831 4219 
Q 1534 4219 1204 4116 
Q 875 4013 500 3803 
L 500 4441 
Q 881 4594 1212 4672 
Q 1544 4750 1819 4750 
Q 2544 4750 2975 4387 
Q 3406 4025 3406 3419 
Q 3406 3131 3298 2873 
Q 3191 2616 2906 2266 
Q 2828 2175 2409 1742 
Q 1991 1309 1228 531 
z
" transform="scale(0.015625)"/>
       </defs>
       <use xlink:href="#DejaVuSans-32"/>
       <use xlink:href="#DejaVuSans-30" x="63.623047"/>
       <use xlink:href="#DejaVuSans-30" x="127.246094"/>
      </g>
     </g>
    </g>
    <g id="xtick_5">
     <g id="line2d_5">
      <g>
       <use xlink:href="#m27f5044828" x="580.8" y="396" style="stroke: #000000; stroke-width: 0.8"/>
      </g>
     </g>
     <g id="text_5">
      <!-- 300 -->
      <g transform="translate(565.53 415.1575) scale(0.16 -0.16)">
       <defs>
        <path id="DejaVuSans-33" d="M 2597 2516 
Q 3050 2419 3304 2112 
Q 3559 1806 3559 1356 
Q 3559 666 3084 287 
Q 2609 -91 1734 -91 
Q 1441 -91 1130 -33 
Q 819 25 488 141 
L 488 750 
Q 750 597 1062 519 
Q 1375 441 1716 441 
Q 2309 441 2620 675 
Q 2931 909 2931 1356 
Q 2931 1769 2642 2001 
Q 2353 2234 1838 2234 
L 1294 2234 
L 1294 2753 
L 1863 2753 
Q 2328 2753 2575 2939 
Q 2822 3125 2822 3475 
Q 2822 3834 2567 4026 
Q 2313 4219 1838 4219 
Q 1578 4219 1281 4162 
Q 984 4106 628 3988 
L 628 4550 
Q 988 4650 1302 4700 
Q 1616 4750 1894 4750 
Q 2613 4750 3031 4423 
Q 3450 4097 3450 3541 
Q 3450 3153 3228 2886 
Q 3006 2619 2597 2516 
z
" transform="scale(0.015625)"/>
       </defs>
       <use xlink:href="#DejaVuSans-33"/>
       <use xlink:href="#DejaVuSans-30" x="63.623047"/>
       <use xlink:href="#DejaVuSans-30" x="127.246094"/>
      </g>
     </g>
    </g>
    <g id="xtick_6">
     <g id="line2d_6">
      <g>
       <use xlink:href="#m27f5044828" x="700.8" y="396" style="stroke: #000000; stroke-width: 0.8"/>
      </g>
     </g>
     <g id="text_6">
      <!-- 400 -->
      <g transform="translate(685.53 415.1575) scale(0.16 -0.16)">
       <defs>
        <path id="DejaVuSans-34" d="M 2419 4116 
L 825 1625 
L 2419 1625 
L 2419 4116 
z
M 2253 4666 
L 3047 4666 
L 3047 1625 
L 3713 1625 
L 3713 1100 
L 3047 1100 
L 3047 0 
L 2419 0 
L 2419 1100 
L 313 1100 
L 313 1709 
L 2253 4666 
z
" transform="scale(0.015625)"/>
       </defs>
       <use xlink:href="#DejaVuSans-34"/>
       <use xlink:href="#DejaVuSans-30" x="63.623047"/>
       <use xlink:href="#DejaVuSans-30" x="127.246094"/>
      </g>
     </g>
    </g>
    <g id="xtick_7">
     <g id="line2d_7">
      <g>
       <use xlink:href="#m27f5044828" x="820.8" y="396" style="stroke: #000000; stroke-width: 0.8"/>
      </g>
     </g>
     <g id="text_7">
      <!-- 500 -->
      <g transform="translate(805.53 415.1575) scale(0.16 -0.16)">
       <defs>
        <path id="DejaVuSans-35" d="M 691 4666 
L 3169 4666 
L 3169 4134 
L 1269 4134 
L 1269 2991 
Q 1406 3038 1543 3061 
Q 1681 3084 1819 3084 
Q 2600 3084 3056 2656 
Q 3513 2228 3513 1497 
Q 3513 744 3044 326 
Q 2575 -91 1722 -91 
Q 1428 -91 1123 -41 
Q 819 9 494 109 
L 494 744 
Q 775 591 1075 516 
Q 1375 441 1709 441 
Q 2250 441 2565 725 
Q 2881 1009 2881 1497 
Q 2881 1984 2565 2268 
Q 2250 2553 1709 2553 
Q 1456 2553 1204 2497 
Q 953 2441 691 2322 
L 691 4666 
z
" transform="scale(0.015625)"/>
       </defs>
       <use xlink:href="#DejaVuSans-35"/>
       <use xlink:href="#DejaVuSans-30" x="63.623047"/>
       <use xlink:href="#DejaVuSans-30" x="127.246094"/>
      </g>
     </g>
    </g>
    <g id="text_8">
     <!-- Time from Stimulus Onset (ms) -->
     <g transform="translate(320.273438 436.162187) scale(0.18 -0.18)">
      <defs>
       <path id="DejaVuSans-54" d="M -19 4666 
L 3928 4666 
L 3928 4134 
L 2272 4134 
L 2272 0 
L 1638 0 
L 1638 4134 
L -19 4134 
L -19 4666 
z
" transform="scale(0.015625)"/>
       <path id="DejaVuSans-69" d="M 603 3500 
L 1178 3500 
L 1178 0 
L 603 0 
L 603 3500 
z
M 603 4863 
L 1178 4863 
L 1178 4134 
L 603 4134 
L 603 4863 
z
" transform="scale(0.015625)"/>
       <path id="DejaVuSans-6d" d="M 3328 2828 
Q 3544 3216 3844 3400 
Q 4144 3584 4550 3584 
Q 5097 3584 5394 3201 
Q 5691 2819 5691 2113 
L 5691 0 
L 5113 0 
L 5113 2094 
Q 5113 2597 4934 2840 
Q 4756 3084 4391 3084 
Q 3944 3084 3684 2787 
Q 3425 2491 3425 1978 
L 3425 0 
L 2847 0 
L 2847 2094 
Q 2847 2600 2669 2842 
Q 2491 3084 2119 3084 
Q 1678 3084 1418 2786 
Q 1159 2488 1159 1978 
L 1159 0 
L 581 0 
L 581 3500 
L 1159 3500 
L 1159 2956 
Q 1356 3278 1631 3431 
Q 1906 3584 2284 3584 
Q 2666 3584 2933 3390 
Q 3200 3197 3328 2828 
z
" transform="scale(0.015625)"/>
       <path id="DejaVuSans-65" d="M 3597 1894 
L 3597 1613 
L 953 1613 
Q 991 1019 1311 708 
Q 1631 397 2203 397 
Q 2534 397 2845 478 
Q 3156 559 3463 722 
L 3463 178 
Q 3153 47 2828 -22 
Q 2503 -91 2169 -91 
Q 1331 -91 842 396 
Q 353 884 353 1716 
Q 353 2575 817 3079 
Q 1281 3584 2069 3584 
Q 2775 3584 3186 3129 
Q 3597 2675 3597 1894 
z
M 3022 2063 
Q 3016 2534 2758 2815 
Q 2500 3097 2075 3097 
Q 1594 3097 1305 2825 
Q 1016 2553 972 2059 
L 3022 2063 
z
" transform="scale(0.015625)"/>
       <path id="DejaVuSans-20" transform="scale(0.015625)"/>
       <path id="DejaVuSans-66" d="M 2375 4863 
L 2375 4384 
L 1825 4384 
Q 1516 4384 1395 4259 
Q 1275 4134 1275 3809 
L 1275 3500 
L 2222 3500 
L 2222 3053 
L 1275 3053 
L 1275 0 
L 697 0 
L 697 3053 
L 147 3053 
L 147 3500 
L 697 3500 
L 697 3744 
Q 697 4328 969 4595 
Q 1241 4863 1831 4863 
L 2375 4863 
z
" transform="scale(0.015625)"/>
       <path id="DejaVuSans-72" d="M 2631 2963 
Q 2534 3019 2420 3045 
Q 2306 3072 2169 3072 
Q 1681 3072 1420 2755 
Q 1159 2438 1159 1844 
L 1159 0 
L 581 0 
L 581 3500 
L 1159 3500 
L 1159 2956 
Q 1341 3275 1631 3429 
Q 1922 3584 2338 3584 
Q 2397 3584 2469 3576 
Q 2541 3569 2628 3553 
L 2631 2963 
z
" transform="scale(0.015625)"/>
       <path id="DejaVuSans-6f" d="M 1959 3097 
Q 1497 3097 1228 2736 
Q 959 2375 959 1747 
Q 959 1119 1226 758 
Q 1494 397 1959 397 
Q 2419 397 2687 759 
Q 2956 1122 2956 1747 
Q 2956 2369 2687 2733 
Q 2419 3097 1959 3097 
z
M 1959 3584 
Q 2709 3584 3137 3096 
Q 3566 2609 3566 1747 
Q 3566 888 3137 398 
Q 2709 -91 1959 -91 
Q 1206 -91 779 398 
Q 353 888 353 1747 
Q 353 2609 779 3096 
Q 1206 3584 1959 3584 
z
" transform="scale(0.015625)"/>
       <path id="DejaVuSans-53" d="M 3425 4513 
L 3425 3897 
Q 3066 4069 2747 4153 
Q 2428 4238 2131 4238 
Q 1616 4238 1336 4038 
Q 1056 3838 1056 3469 
Q 1056 3159 1242 3001 
Q 1428 2844 1947 2747 
L 2328 2669 
Q 3034 2534 3370 2195 
Q 3706 1856 3706 1288 
Q 3706 609 3251 259 
Q 2797 -91 1919 -91 
Q 1588 -91 1214 -16 
Q 841 59 441 206 
L 441 856 
Q 825 641 1194 531 
Q 1563 422 1919 422 
Q 2459 422 2753 634 
Q 3047 847 3047 1241 
Q 3047 1584 2836 1778 
Q 2625 1972 2144 2069 
L 1759 2144 
Q 1053 2284 737 2584 
Q 422 2884 422 3419 
Q 422 4038 858 4394 
Q 1294 4750 2059 4750 
Q 2388 4750 2728 4690 
Q 3069 4631 3425 4513 
z
" transform="scale(0.015625)"/>
       <path id="DejaVuSans-74" d="M 1172 4494 
L 1172 3500 
L 2356 3500 
L 2356 3053 
L 1172 3053 
L 1172 1153 
Q 1172 725 1289 603 
Q 1406 481 1766 481 
L 2356 481 
L 2356 0 
L 1766 0 
Q 1100 0 847 248 
Q 594 497 594 1153 
L 594 3053 
L 172 3053 
L 172 3500 
L 594 3500 
L 594 4494 
L 1172 4494 
z
" transform="scale(0.015625)"/>
       <path id="DejaVuSans-75" d="M 544 1381 
L 544 3500 
L 1119 3500 
L 1119 1403 
Q 1119 906 1312 657 
Q 1506 409 1894 409 
Q 2359 409 2629 706 
Q 2900 1003 2900 1516 
L 2900 3500 
L 3475 3500 
L 3475 0 
L 2900 0 
L 2900 538 
Q 2691 219 2414 64 
Q 2138 -91 1772 -91 
Q 1169 -91 856 284 
Q 544 659 544 1381 
z
M 1991 3584 
L 1991 3584 
z
" transform="scale(0.015625)"/>
       <path id="DejaVuSans-6c" d="M 603 4863 
L 1178 4863 
L 1178 0 
L 603 0 
L 603 4863 
z
" transform="scale(0.015625)"/>
       <path id="DejaVuSans-73" d="M 2834 3397 
L 2834 2853 
Q 2591 2978 2328 3040 
Q 2066 3103 1784 3103 
Q 1356 3103 1142 2972 
Q 928 2841 928 2578 
Q 928 2378 1081 2264 
Q 1234 2150 1697 2047 
L 1894 2003 
Q 2506 1872 2764 1633 
Q 3022 1394 3022 966 
Q 3022 478 2636 193 
Q 2250 -91 1575 -91 
Q 1294 -91 989 -36 
Q 684 19 347 128 
L 347 722 
Q 666 556 975 473 
Q 1284 391 1588 391 
Q 1994 391 2212 530 
Q 2431 669 2431 922 
Q 2431 1156 2273 1281 
Q 2116 1406 1581 1522 
L 1381 1569 
Q 847 1681 609 1914 
Q 372 2147 372 2553 
Q 372 3047 722 3315 
Q 1072 3584 1716 3584 
Q 2034 3584 2315 3537 
Q 2597 3491 2834 3397 
z
" transform="scale(0.015625)"/>
       <path id="DejaVuSans-4f" d="M 2522 4238 
Q 1834 4238 1429 3725 
Q 1025 3213 1025 2328 
Q 1025 1447 1429 934 
Q 1834 422 2522 422 
Q 3209 422 3611 934 
Q 4013 1447 4013 2328 
Q 4013 3213 3611 3725 
Q 3209 4238 2522 4238 
z
M 2522 4750 
Q 3503 4750 4090 4092 
Q 4678 3434 4678 2328 
Q 4678 1225 4090 567 
Q 3503 -91 2522 -91 
Q 1538 -91 948 565 
Q 359 1222 359 2328 
Q 359 3434 948 4092 
Q 1538 4750 2522 4750 
z
" transform="scale(0.015625)"/>
       <path id="DejaVuSans-6e" d="M 3513 2113 
L 3513 0 
L 2938 0 
L 2938 2094 
Q 2938 2591 2744 2837 
Q 2550 3084 2163 3084 
Q 1697 3084 1428 2787 
Q 1159 2491 1159 1978 
L 1159 0 
L 581 0 
L 581 3500 
L 1159 3500 
L 1159 2956 
Q 1366 3272 1645 3428 
Q 1925 3584 2291 3584 
Q 2894 3584 3203 3211 
Q 3513 2838 3513 2113 
z
" transform="scale(0.015625)"/>
       <path id="DejaVuSans-28" d="M 1984 4856 
Q 1566 4138 1362 3434 
Q 1159 2731 1159 2009 
Q 1159 1288 1364 580 
Q 1569 -128 1984 -844 
L 1484 -844 
Q 1016 -109 783 600 
Q 550 1309 550 2009 
Q 550 2706 781 3412 
Q 1013 4119 1484 4856 
L 1984 4856 
z
" transform="scale(0.015625)"/>
       <path id="DejaVuSans-29" d="M 513 4856 
L 1013 4856 
Q 1481 4119 1714 3412 
Q 1947 2706 1947 2009 
Q 1947 1309 1714 600 
Q 1481 -109 1013 -844 
L 513 -844 
Q 928 -128 1133 580 
Q 1338 1288 1338 2009 
Q 1338 2731 1133 3434 
Q 928 4138 513 4856 
z
" transform="scale(0.015625)"/>
      </defs>
      <use xlink:href="#DejaVuSans-54"/>
      <use xlink:href="#DejaVuSans-69" x="57.958984"/>
      <use xlink:href="#DejaVuSans-6d" x="85.742188"/>
      <use xlink:href="#DejaVuSans-65" x="183.154297"/>
      <use xlink:href="#DejaVuSans-20" x="244.677734"/>
      <use xlink:href="#DejaVuSans-66" x="276.464844"/>
      <use xlink:href="#DejaVuSans-72" x="311.669922"/>
      <use xlink:href="#DejaVuSans-6f" x="350.533203"/>
      <use xlink:href="#DejaVuSans-6d" x="411.714844"/>
      <use xlink:href="#DejaVuSans-20" x="509.126953"/>
      <use xlink:href="#DejaVuSans-53" x="540.914062"/>
      <use xlink:href="#DejaVuSans-74" x="604.390625"/>
      <use xlink:href="#DejaVuSans-69" x="643.599609"/>
      <use xlink:href="#DejaVuSans-6d" x="671.382812"/>
      <use xlink:href="#DejaVuSans-75" x="768.794922"/>
      <use xlink:href="#DejaVuSans-6c" x="832.173828"/>
      <use xlink:href="#DejaVuSans-75" x="859.957031"/>
      <use xlink:href="#DejaVuSans-73" x="923.335938"/>
      <use xlink:href="#DejaVuSans-20" x="975.435547"/>
      <use xlink:href="#DejaVuSans-4f" x="1007.222656"/>
      <use xlink:href="#DejaVuSans-6e" x="1085.933594"/>
      <use xlink:href="#DejaVuSans-73" x="1149.3125"/>
      <use xlink:href="#DejaVuSans-65" x="1201.412109"/>
      <use xlink:href="#DejaVuSans-74" x="1262.935547"/>
      <use xlink:href="#DejaVuSans-20" x="1302.144531"/>
      <use xlink:href="#DejaVuSans-28" x="1333.931641"/>
      <use xlink:href="#DejaVuSans-6d" x="1372.945312"/>
      <use xlink:href="#DejaVuSans-73" x="1470.357422"/>
      <use xlink:href="#DejaVuSans-29" x="1522.457031"/>
     </g>
    </g>
   </g>
   <g id="matplotlib.axis_2">
    <g id="ytick_1">
     <g id="line2d_8">
      <defs>
       <path id="m9decca4cd7" d="M 0 0 
L -3.5 0 
" style="stroke: #000000; stroke-width: 0.8"/>
      </defs>
      <g>
       <use xlink:href="#m9decca4cd7" x="100.8" y="332.415957" style="stroke: #000000; stroke-width: 0.8"/>
      </g>
     </g>
     <g id="text_9">
      <!-- 0.00 -->
      <g transform="translate(58.175 338.494707) scale(0.16 -0.16)">
       <defs>
        <path id="DejaVuSans-2e" d="M 684 794 
L 1344 794 
L 1344 0 
L 684 0 
L 684 794 
z
" transform="scale(0.015625)"/>
       </defs>
       <use xlink:href="#DejaVuSans-30"/>
       <use xlink:href="#DejaVuSans-2e" x="63.623047"/>
       <use xlink:href="#DejaVuSans-30" x="95.410156"/>
       <use xlink:href="#DejaVuSans-30" x="159.033203"/>
      </g>
     </g>
    </g>
    <g id="ytick_2">
     <g id="line2d_9">
      <g>
       <use xlink:href="#m9decca4cd7" x="100.8" y="253.748787" style="stroke: #000000; stroke-width: 0.8"/>
      </g>
     </g>
     <g id="text_10">
      <!-- 0.01 -->
      <g transform="translate(58.175 259.827537) scale(0.16 -0.16)">
       <use xlink:href="#DejaVuSans-30"/>
       <use xlink:href="#DejaVuSans-2e" x="63.623047"/>
       <use xlink:href="#DejaVuSans-30" x="95.410156"/>
       <use xlink:href="#DejaVuSans-31" x="159.033203"/>
      </g>
     </g>
    </g>
    <g id="ytick_3">
     <g id="line2d_10">
      <g>
       <use xlink:href="#m9decca4cd7" x="100.8" y="175.081618" style="stroke: #000000; stroke-width: 0.8"/>
      </g>
     </g>
     <g id="text_11">
      <!-- 0.02 -->
      <g transform="translate(58.175 181.160368) scale(0.16 -0.16)">
       <use xlink:href="#DejaVuSans-30"/>
       <use xlink:href="#DejaVuSans-2e" x="63.623047"/>
       <use xlink:href="#DejaVuSans-30" x="95.410156"/>
       <use xlink:href="#DejaVuSans-32" x="159.033203"/>
      </g>
     </g>
    </g>
    <g id="ytick_4">
     <g id="line2d_11">
      <g>
       <use xlink:href="#m9decca4cd7" x="100.8" y="96.414448" style="stroke: #000000; stroke-width: 0.8"/>
      </g>
     </g>
     <g id="text_12">
      <!-- 0.03 -->
      <g transform="translate(58.175 102.493198) scale(0.16 -0.16)">
       <use xlink:href="#DejaVuSans-30"/>
       <use xlink:href="#DejaVuSans-2e" x="63.623047"/>
       <use xlink:href="#DejaVuSans-30" x="95.410156"/>
       <use xlink:href="#DejaVuSans-33" x="159.033203"/>
      </g>
     </g>
    </g>
    <g id="text_13">
     <!-- Directed predictability gain (bits) -->
     <g transform="translate(50.431562 364.685625) rotate(-90) scale(0.18 -0.18)">
      <defs>
       <path id="DejaVuSans-44" d="M 1259 4147 
L 1259 519 
L 2022 519 
Q 2988 519 3436 956 
Q 3884 1394 3884 2338 
Q 3884 3275 3436 3711 
Q 2988 4147 2022 4147 
L 1259 4147 
z
M 628 4666 
L 1925 4666 
Q 3281 4666 3915 4102 
Q 4550 3538 4550 2338 
Q 4550 1131 3912 565 
Q 3275 0 1925 0 
L 628 0 
L 628 4666 
z
" transform="scale(0.015625)"/>
       <path id="DejaVuSans-63" d="M 3122 3366 
L 3122 2828 
Q 2878 2963 2633 3030 
Q 2388 3097 2138 3097 
Q 1578 3097 1268 2742 
Q 959 2388 959 1747 
Q 959 1106 1268 751 
Q 1578 397 2138 397 
Q 2388 397 2633 464 
Q 2878 531 3122 666 
L 3122 134 
Q 2881 22 2623 -34 
Q 2366 -91 2075 -91 
Q 1284 -91 818 406 
Q 353 903 353 1747 
Q 353 2603 823 3093 
Q 1294 3584 2113 3584 
Q 2378 3584 2631 3529 
Q 2884 3475 3122 3366 
z
" transform="scale(0.015625)"/>
       <path id="DejaVuSans-64" d="M 2906 2969 
L 2906 4863 
L 3481 4863 
L 3481 0 
L 2906 0 
L 2906 525 
Q 2725 213 2448 61 
Q 2172 -91 1784 -91 
Q 1150 -91 751 415 
Q 353 922 353 1747 
Q 353 2572 751 3078 
Q 1150 3584 1784 3584 
Q 2172 3584 2448 3432 
Q 2725 3281 2906 2969 
z
M 947 1747 
Q 947 1113 1208 752 
Q 1469 391 1925 391 
Q 2381 391 2643 752 
Q 2906 1113 2906 1747 
Q 2906 2381 2643 2742 
Q 2381 3103 1925 3103 
Q 1469 3103 1208 2742 
Q 947 2381 947 1747 
z
" transform="scale(0.015625)"/>
       <path id="DejaVuSans-70" d="M 1159 525 
L 1159 -1331 
L 581 -1331 
L 581 3500 
L 1159 3500 
L 1159 2969 
Q 1341 3281 1617 3432 
Q 1894 3584 2278 3584 
Q 2916 3584 3314 3078 
Q 3713 2572 3713 1747 
Q 3713 922 3314 415 
Q 2916 -91 2278 -91 
Q 1894 -91 1617 61 
Q 1341 213 1159 525 
z
M 3116 1747 
Q 3116 2381 2855 2742 
Q 2594 3103 2138 3103 
Q 1681 3103 1420 2742 
Q 1159 2381 1159 1747 
Q 1159 1113 1420 752 
Q 1681 391 2138 391 
Q 2594 391 2855 752 
Q 3116 1113 3116 1747 
z
" transform="scale(0.015625)"/>
       <path id="DejaVuSans-61" d="M 2194 1759 
Q 1497 1759 1228 1600 
Q 959 1441 959 1056 
Q 959 750 1161 570 
Q 1363 391 1709 391 
Q 2188 391 2477 730 
Q 2766 1069 2766 1631 
L 2766 1759 
L 2194 1759 
z
M 3341 1997 
L 3341 0 
L 2766 0 
L 2766 531 
Q 2569 213 2275 61 
Q 1981 -91 1556 -91 
Q 1019 -91 701 211 
Q 384 513 384 1019 
Q 384 1609 779 1909 
Q 1175 2209 1959 2209 
L 2766 2209 
L 2766 2266 
Q 2766 2663 2505 2880 
Q 2244 3097 1772 3097 
Q 1472 3097 1187 3025 
Q 903 2953 641 2809 
L 641 3341 
Q 956 3463 1253 3523 
Q 1550 3584 1831 3584 
Q 2591 3584 2966 3190 
Q 3341 2797 3341 1997 
z
" transform="scale(0.015625)"/>
       <path id="DejaVuSans-62" d="M 3116 1747 
Q 3116 2381 2855 2742 
Q 2594 3103 2138 3103 
Q 1681 3103 1420 2742 
Q 1159 2381 1159 1747 
Q 1159 1113 1420 752 
Q 1681 391 2138 391 
Q 2594 391 2855 752 
Q 3116 1113 3116 1747 
z
M 1159 2969 
Q 1341 3281 1617 3432 
Q 1894 3584 2278 3584 
Q 2916 3584 3314 3078 
Q 3713 2572 3713 1747 
Q 3713 922 3314 415 
Q 2916 -91 2278 -91 
Q 1894 -91 1617 61 
Q 1341 213 1159 525 
L 1159 0 
L 581 0 
L 581 4863 
L 1159 4863 
L 1159 2969 
z
" transform="scale(0.015625)"/>
       <path id="DejaVuSans-79" d="M 2059 -325 
Q 1816 -950 1584 -1140 
Q 1353 -1331 966 -1331 
L 506 -1331 
L 506 -850 
L 844 -850 
Q 1081 -850 1212 -737 
Q 1344 -625 1503 -206 
L 1606 56 
L 191 3500 
L 800 3500 
L 1894 763 
L 2988 3500 
L 3597 3500 
L 2059 -325 
z
" transform="scale(0.015625)"/>
       <path id="DejaVuSans-67" d="M 2906 1791 
Q 2906 2416 2648 2759 
Q 2391 3103 1925 3103 
Q 1463 3103 1205 2759 
Q 947 2416 947 1791 
Q 947 1169 1205 825 
Q 1463 481 1925 481 
Q 2391 481 2648 825 
Q 2906 1169 2906 1791 
z
M 3481 434 
Q 3481 -459 3084 -895 
Q 2688 -1331 1869 -1331 
Q 1566 -1331 1297 -1286 
Q 1028 -1241 775 -1147 
L 775 -588 
Q 1028 -725 1275 -790 
Q 1522 -856 1778 -856 
Q 2344 -856 2625 -561 
Q 2906 -266 2906 331 
L 2906 616 
Q 2728 306 2450 153 
Q 2172 0 1784 0 
Q 1141 0 747 490 
Q 353 981 353 1791 
Q 353 2603 747 3093 
Q 1141 3584 1784 3584 
Q 2172 3584 2450 3431 
Q 2728 3278 2906 2969 
L 2906 3500 
L 3481 3500 
L 3481 434 
z
" transform="scale(0.015625)"/>
      </defs>
      <use xlink:href="#DejaVuSans-44"/>
      <use xlink:href="#DejaVuSans-69" x="77.001953"/>
      <use xlink:href="#DejaVuSans-72" x="104.785156"/>
      <use xlink:href="#DejaVuSans-65" x="143.648438"/>
      <use xlink:href="#DejaVuSans-63" x="205.171875"/>
      <use xlink:href="#DejaVuSans-74" x="260.152344"/>
      <use xlink:href="#DejaVuSans-65" x="299.361328"/>
      <use xlink:href="#DejaVuSans-64" x="360.884766"/>
      <use xlink:href="#DejaVuSans-20" x="424.361328"/>
      <use xlink:href="#DejaVuSans-70" x="456.148438"/>
      <use xlink:href="#DejaVuSans-72" x="519.625"/>
      <use xlink:href="#DejaVuSans-65" x="558.488281"/>
      <use xlink:href="#DejaVuSans-64" x="620.011719"/>
      <use xlink:href="#DejaVuSans-69" x="683.488281"/>
      <use xlink:href="#DejaVuSans-63" x="711.271484"/>
      <use xlink:href="#DejaVuSans-74" x="766.251953"/>
      <use xlink:href="#DejaVuSans-61" x="805.460938"/>
      <use xlink:href="#DejaVuSans-62" x="866.740234"/>
      <use xlink:href="#DejaVuSans-69" x="930.216797"/>
      <use xlink:href="#DejaVuSans-6c" x="958"/>
      <use xlink:href="#DejaVuSans-69" x="985.783203"/>
      <use xlink:href="#DejaVuSans-74" x="1013.566406"/>
      <use xlink:href="#DejaVuSans-79" x="1052.775391"/>
      <use xlink:href="#DejaVuSans-20" x="1111.955078"/>
      <use xlink:href="#DejaVuSans-67" x="1143.742188"/>
      <use xlink:href="#DejaVuSans-61" x="1207.21875"/>
      <use xlink:href="#DejaVuSans-69" x="1268.498047"/>
      <use xlink:href="#DejaVuSans-6e" x="1296.28125"/>
      <use xlink:href="#DejaVuSans-20" x="1359.660156"/>
      <use xlink:href="#DejaVuSans-28" x="1391.447266"/>
      <use xlink:href="#DejaVuSans-62" x="1430.460938"/>
      <use xlink:href="#DejaVuSans-69" x="1493.9375"/>
      <use xlink:href="#DejaVuSans-74" x="1521.720703"/>
      <use xlink:href="#DejaVuSans-73" x="1560.929688"/>
      <use xlink:href="#DejaVuSans-29" x="1613.029297"/>
     </g>
    </g>
   </g>
   <g id="line2d_12">
    <path d="M 220.8 396 
L 220.8 36 
" clip-path="url(#paf26a261fa)" style="fill: none; stroke-dasharray: 2.96,1.28; stroke-dashoffset: 0; stroke: #000000; stroke-width: 0.8"/>
   </g>
   <g id="line2d_13">
    <path d="M 100.8 332.415957 
L 820.8 332.415957 
" clip-path="url(#paf26a261fa)" style="fill: none; stroke-dasharray: 0.8,1.32; stroke-dashoffset: 0; stroke: #000000; stroke-width: 0.8"/>
   </g>
   <g id="line2d_14">
    <path d="M -1 328.46578 
L 10.800004 334.30923 
L 22.799992 343.77696 
L 34.799999 346.005732 
L 46.800005 307.264895 
L 58.799994 302.790224 
L 70.8 305.542578 
L 82.799997 333.249119 
L 94.800004 353.640299 
L 106.800001 341.595821 
L 118.799999 337.776143 
L 130.799996 315.389733 
L 142.800003 313.620845 
L 154.8 311.017018 
L 166.799998 309.391413 
L 178.8 318.513945 
L 190.8 324.257327 
L 202.8 344.76933 
L 214.8 349.894718 
L 226.8 341.780881 
L 238.8 326.175577 
L 250.8 313.76234 
L 262.8 305.665353 
L 274.800002 316.598295 
L 286.8 322.96019 
L 298.799997 342.829864 
L 310.800004 335.339146 
L 322.800001 327.517803 
L 334.799999 294.972106 
L 346.799996 270.451547 
L 358.800003 288.107316 
L 370.8 316.735638 
L 382.800006 340.480512 
L 394.799995 324.660282 
L 406.800001 321.961225 
L 418.800008 311.093341 
L 430.799996 317.082545 
L 442.800003 321.587345 
L 454.799991 332.800309 
L 466.799998 336.73689 
L 478.800004 326.80211 
L 490.799993 327.662452 
L 502.799999 320.133657 
L 514.800006 312.770509 
L 526.799994 302.146048 
L 538.799983 284.92238 
L 550.800007 276.798997 
L 562.799996 298.533078 
L 574.799984 319.177194 
L 586.800009 325.697315 
L 598.799997 300.306393 
L 610.799986 282.934711 
L 622.80001 266.203855 
L 634.799999 247.990701 
L 646.799987 260.180239 
L 658.800011 276.184317 
L 670.8 284.455931 
L 682.799989 260.679207 
L 694.800013 264.708811 
L 706.800001 276.356307 
L 718.79999 270.576253 
L 730.800014 244.815936 
L 742.800003 228.656049 
L 754.799991 228.146743 
L 766.800016 255.847395 
L 778.800004 248.916111 
L 790.799993 268.942449 
L 802.800017 246.806109 
L 814.800006 283.302513 
L 826.799994 254.880129 
L 838.799983 256.63573 
L 850.799971 223.59733 
L 857.8 232.846986 
" clip-path="url(#paf26a261fa)" style="fill: none; stroke: #0072b2; stroke-width: 2.5; stroke-linecap: square"/>
   </g>
   <g id="line2d_15">
    <path d="M -1 365.211726 
L 10.800004 369.01726 
L 22.799992 367.51674 
L 34.799999 352.419003 
L 46.800005 344.914865 
L 58.799994 330.823507 
L 70.8 335.185022 
L 82.799997 334.465637 
L 94.800004 335.819839 
L 106.800001 325.854977 
L 118.799999 323.706578 
L 130.799996 297.582517 
L 142.800003 293.302489 
L 154.8 303.079074 
L 166.799998 336.708074 
L 178.8 332.255953 
L 190.8 326.650855 
L 202.8 314.903693 
L 214.8 337.290046 
L 226.8 349.29083 
L 238.8 361.515415 
L 250.8 339.933968 
L 262.8 330.546466 
L 274.800002 323.739219 
L 286.8 331.961179 
L 298.799997 329.269055 
L 310.800004 335.26073 
L 322.800001 313.894299 
L 334.799999 328.545805 
L 346.799996 320.901468 
L 358.800003 353.443062 
L 370.8 325.125502 
L 382.800006 334.377291 
L 394.799995 320.831796 
L 406.800001 306.776387 
L 418.800008 284.942075 
L 430.799996 263.221757 
L 442.800003 223.72473 
L 454.799991 203.493912 
L 466.799998 214.210751 
L 478.800004 227.080603 
L 490.799993 213.6105 
L 502.799999 208.266997 
L 514.800006 212.564709 
L 526.799994 198.380228 
L 538.799983 161.331688 
L 550.800007 127.11193 
L 562.799996 165.625294 
L 574.799984 164.80309 
L 586.800009 189.746792 
L 598.799997 196.367366 
L 610.799986 194.987928 
L 622.80001 208.724674 
L 634.799999 185.834698 
L 646.799987 240.995216 
L 658.800011 221.244854 
L 670.8 255.985036 
L 682.799989 243.624343 
L 694.800013 293.188728 
L 706.800001 280.093045 
L 718.79999 295.210095 
L 730.800014 299.126201 
L 742.800003 278.898169 
L 754.799991 257.410975 
L 766.800016 255.567425 
L 778.800004 268.874322 
L 790.799993 258.85087 
L 802.800017 267.683948 
L 814.800006 287.830717 
L 826.799994 321.498982 
L 838.799983 313.192747 
L 850.799971 324.503039 
L 857.8 315.010402 
" clip-path="url(#paf26a261fa)" style="fill: none; stroke: #d55e00; stroke-width: 2.5; stroke-linecap: square"/>
   </g>
   <g id="patch_3">
    <path d="M 100.8 396 
L 100.8 36 
" style="fill: none; stroke: #000000; stroke-width: 0.8; stroke-linejoin: miter; stroke-linecap: square"/>
   </g>
   <g id="patch_4">
    <path d="M 820.8 396 
L 820.8 36 
" style="fill: none; stroke: #000000; stroke-width: 0.8; stroke-linejoin: miter; stroke-linecap: square"/>
   </g>
   <g id="patch_5">
    <path d="M 100.8 396 
L 820.8 396 
" style="fill: none; stroke: #000000; stroke-width: 0.8; stroke-linejoin: miter; stroke-linecap: square"/>
   </g>
   <g id="patch_6">
    <path d="M 100.8 36 
L 820.8 36 
" style="fill: none; stroke: #000000; stroke-width: 0.8; stroke-linejoin: miter; stroke-linecap: square"/>
   </g>
   <g id="PathCollection_1">
    <defs>
     <path id="md34563237a" d="M 0 1.870829 
C 0.49615 1.870829 0.972045 1.673706 1.322876 1.322876 
C 1.673706 0.972045 1.870829 0.49615 1.870829 0 
C 1.870829 -0.49615 1.673706 -0.972045 1.322876 -1.322876 
C 0.972045 -1.673706 0.49615 -1.870829 0 -1.870829 
C -0.49615 -1.870829 -0.972045 -1.673706 -1.322876 -1.322876 
C -1.673706 -0.972045 -1.870829 -0.49615 -1.870829 0 
C -1.870829 0.49615 -1.673706 0.972045 -1.322876 1.322876 
C -0.972045 1.673706 -0.49615 1.870829 0 1.870829 
z
" style="stroke: #000000"/>
    </defs>
    <g clip-path="url(#paf26a261fa)">
     <use xlink:href="#md34563237a" x="-1" y="378" style="stroke: #000000"/>
     <use xlink:href="#md34563237a" x="46.800005" y="378" style="stroke: #000000"/>
     <use xlink:href="#md34563237a" x="238.8" y="378" style="stroke: #000000"/>
     <use xlink:href="#md34563237a" x="346.799996" y="378" style="stroke: #000000"/>
     <use xlink:href="#md34563237a" x="358.800003" y="378" style="stroke: #000000"/>
     <use xlink:href="#md34563237a" x="826.799994" y="378" style="stroke: #000000"/>
     <use xlink:href="#md34563237a" x="850.799971" y="378" style="stroke: #000000"/>
     <use xlink:href="#md34563237a" x="934.800034" y="378" style="stroke: #000000"/>
    </g>
   </g>
   <g id="legend_1">
    <g id="line2d_16">
     <path d="M 114.3 55.647656 
L 129.3 55.647656 
L 144.3 55.647656 
" style="fill: none; stroke: #0072b2; stroke-width: 2.5; stroke-linecap: square"/>
    </g>
    <g id="text_14">
     <!-- MSC→MFEF -->
     <g transform="translate(156.3 60.897656) scale(0.15 -0.15)">
      <defs>
       <path id="DejaVuSans-4d" d="M 628 4666 
L 1569 4666 
L 2759 1491 
L 3956 4666 
L 4897 4666 
L 4897 0 
L 4281 0 
L 4281 4097 
L 3078 897 
L 2444 897 
L 1241 4097 
L 1241 0 
L 628 0 
L 628 4666 
z
" transform="scale(0.015625)"/>
       <path id="DejaVuSans-43" d="M 4122 4306 
L 4122 3641 
Q 3803 3938 3442 4084 
Q 3081 4231 2675 4231 
Q 1875 4231 1450 3742 
Q 1025 3253 1025 2328 
Q 1025 1406 1450 917 
Q 1875 428 2675 428 
Q 3081 428 3442 575 
Q 3803 722 4122 1019 
L 4122 359 
Q 3791 134 3420 21 
Q 3050 -91 2638 -91 
Q 1578 -91 968 557 
Q 359 1206 359 2328 
Q 359 3453 968 4101 
Q 1578 4750 2638 4750 
Q 3056 4750 3426 4639 
Q 3797 4528 4122 4306 
z
" transform="scale(0.015625)"/>
       <path id="DejaVuSans-2192" d="M 5050 2147 
L 5050 1866 
L 3822 638 
L 3447 1013 
L 4175 1741 
L 366 1741 
L 366 2272 
L 4175 2272 
L 3447 3000 
L 3822 3375 
L 5050 2147 
z
" transform="scale(0.015625)"/>
       <path id="DejaVuSans-46" d="M 628 4666 
L 3309 4666 
L 3309 4134 
L 1259 4134 
L 1259 2759 
L 3109 2759 
L 3109 2228 
L 1259 2228 
L 1259 0 
L 628 0 
L 628 4666 
z
" transform="scale(0.015625)"/>
       <path id="DejaVuSans-45" d="M 628 4666 
L 3578 4666 
L 3578 4134 
L 1259 4134 
L 1259 2753 
L 3481 2753 
L 3481 2222 
L 1259 2222 
L 1259 531 
L 3634 531 
L 3634 0 
L 628 0 
L 628 4666 
z
" transform="scale(0.015625)"/>
      </defs>
      <use xlink:href="#DejaVuSans-4d"/>
      <use xlink:href="#DejaVuSans-53" x="86.279297"/>
      <use xlink:href="#DejaVuSans-43" x="149.755859"/>
      <use xlink:href="#DejaVuSans-2192" x="219.580078"/>
      <use xlink:href="#DejaVuSans-4d" x="303.369141"/>
      <use xlink:href="#DejaVuSans-46" x="389.648438"/>
      <use xlink:href="#DejaVuSans-45" x="447.167969"/>
      <use xlink:href="#DejaVuSans-46" x="510.351562"/>
     </g>
    </g>
    <g id="line2d_17">
     <path d="M 114.3 77.664844 
L 129.3 77.664844 
L 144.3 77.664844 
" style="fill: none; stroke: #d55e00; stroke-width: 2.5; stroke-linecap: square"/>
    </g>
    <g id="text_15">
     <!-- MFEF→MSC -->
     <g transform="translate(156.3 82.914844) scale(0.15 -0.15)">
      <use xlink:href="#DejaVuSans-4d"/>
      <use xlink:href="#DejaVuSans-46" x="86.279297"/>
      <use xlink:href="#DejaVuSans-45" x="143.798828"/>
      <use xlink:href="#DejaVuSans-46" x="206.982422"/>
      <use xlink:href="#DejaVuSans-2192" x="264.501953"/>
      <use xlink:href="#DejaVuSans-4d" x="348.291016"/>
      <use xlink:href="#DejaVuSans-53" x="434.570312"/>
      <use xlink:href="#DejaVuSans-43" x="498.046875"/>
     </g>
    </g>
    <g id="PathCollection_2">
     <g>
      <use xlink:href="#md34563237a" x="129.3" y="100.994531" style="stroke: #000000"/>
     </g>
    </g>
    <g id="text_16">
     <!-- p&lt;α -->
     <g transform="translate(156.3 104.932031) scale(0.15 -0.15)">
      <defs>
       <path id="DejaVuSans-3c" d="M 4684 3150 
L 1459 2003 
L 4684 863 
L 4684 294 
L 678 1747 
L 678 2266 
L 4684 3719 
L 4684 3150 
z
" transform="scale(0.015625)"/>
       <path id="DejaVuSans-3b1" d="M 2644 1628 
L 2506 2350 
Q 2366 3091 1809 3091 
Q 1391 3091 1200 2747 
Q 959 2316 959 1747 
Q 959 1059 1194 731 
Q 1431 397 1809 397 
Q 2228 397 2453 1063 
L 2644 1628 
z
M 2966 2584 
L 3275 3500 
L 3788 3500 
L 3147 1603 
L 3272 919 
Q 3300 766 3409 638 
Q 3538 488 3638 488 
L 3913 488 
L 3913 0 
L 3569 0 
Q 3275 0 3013 263 
Q 2884 394 2831 669 
Q 2688 322 2394 50 
Q 2256 -78 1809 -78 
Q 1075 -78 719 397 
Q 353 888 353 1747 
Q 353 2666 750 3097 
Q 1191 3578 1809 3578 
Q 2781 3578 2966 2584 
z
" transform="scale(0.015625)"/>
      </defs>
      <use xlink:href="#DejaVuSans-70"/>
      <use xlink:href="#DejaVuSans-3c" x="63.476562"/>
      <use xlink:href="#DejaVuSans-3b1" x="147.265625"/>
     </g>
    </g>
   </g>
  </g>
 </g>
 <defs>
  <clipPath id="paf26a261fa">
   <rect x="100.8" y="36" width="720" height="360"/>
  </clipPath>
 </defs>
</svg>
