<?xml version="1.0" encoding="utf-8" standalone="no"?>
<!DOCTYPE svg PUBLIC "-//W3C//DTD SVG 1.1//EN"
  "http://www.w3.org/Graphics/SVG/1.1/DTD/svg11.dtd">
<svg xmlns:xlink="http://www.w3.org/1999/xlink" width="828pt" height="453.6pt" viewBox="0 0 828 453.6" xmlns="http://www.w3.org/2000/svg" version="1.1">
 <metadata>
  <rdf:RDF xmlns:dc="http://purl.org/dc/elements/1.1/" xmlns:cc="http://creativecommons.org/ns#" xmlns:rdf="http://www.w3.org/1999/02/22-rdf-syntax-ns#">
   <cc:Work>
    <dc:type rdf:resource="http://purl.org/dc/dcmitype/StillImage"/>
    <dc:date>2025-12-14T22:56:04.850838</dc:date>
    <dc:format>image/svg+xml</dc:format>
    <dc:creator>
     <cc:Agent>
      <dc:title>Matplotlib v3.9.2, https://matplotlib.org/</dc:title>
     </cc:Agent>
    </dc:creator>
   </cc:Work>
  </rdf:RDF>
 </metadata>
 <defs>
  <style type="text/css">*{stroke-linejoin: round; stroke-linecap: butt}</style>
 </defs>
 <g id="figure_1">
  <g id="patch_1">
   <path d="M 0 453.6 
L 828 453.6 
L 828 0 
L 0 0 
z
" style="fill: #ffffff"/>
  </g>
  <g id="axes_1">
   <g id="patch_2">
    <path d="M 72 396 
L 792 396 
L 792 36 
L 72 36 
z
" style="fill: #ffffff"/>
   </g>
   <g id="PolyCollection_1">
    <path d="M -25.20001 230.944063 
L -25.20001 311.680286 
L -18.000017 312.385161 
L -10.799981 344.990509 
L -3.599988 252.682935 
L 3.600005 370.723996 
L 10.799998 290.557501 
L 17.999991 285.998076 
L 25.199985 346.257426 
L 32.400021 285.658552 
L 39.600014 294.016585 
L 46.800007 232.322181 
L 54 284.490728 
L 61.199993 359.849022 
L 68.399986 276.697645 
L 75.599979 331.232244 
L 82.800015 277.593333 
L 90.000009 291.66041 
L 97.200002 344.583673 
L 104.399995 230.677127 
L 111.599988 325.808735 
L 118.799981 355.761338 
L 126.000017 356.844939 
L 133.20001 287.345705 
L 140.400003 326.292123 
L 147.599997 317.251783 
L 154.79999 297.039883 
L 162.000004 312.330897 
L 169.199997 297.930825 
L 176.399991 268.501042 
L 183.600005 303.249734 
L 190.799998 385.270432 
L 197.999991 295.631956 
L 205.200006 341.472897 
L 212.399999 257.551269 
L 219.599992 333.061207 
L 226.800007 268.264668 
L 234 311.133205 
L 241.199993 313.227578 
L 248.400008 236.415852 
L 255.600001 295.031756 
L 262.799994 405.448239 
L 270.000009 351.236319 
L 277.200002 322.922327 
L 284.399995 338.597444 
L 291.600009 249.8598 
L 298.800003 351.80706 
L 305.999996 277.030419 
L 313.20001 375.794826 
L 320.400003 283.297496 
L 327.599997 309.197865 
L 334.8 278.763162 
L 342.000004 297.293553 
L 349.199997 330.677896 
L 356.400001 262.891674 
L 363.600005 314.59827 
L 370.799998 242.517204 
L 378.000002 273.185514 
L 385.199995 377.07732 
L 392.399999 321.404134 
L 399.600003 303.896179 
L 406.799996 292.161156 
L 414 326.448289 
L 421.199998 273.900122 
L 428.400002 342.353463 
L 435.600001 306.665323 
L 442.799999 320.500184 
L 449.999998 374.156655 
L 457.200002 260.557677 
L 464.4 295.783236 
L 471.599999 345.726782 
L 478.8 194.288043 
L 486 226.868828 
L 493.2 478.296248 
L 500.4 371.772478 
L 507.6 312.861589 
L 514.8 374.947509 
L 522 343.53236 
L 529.2 279.792728 
L 536.400001 236.349725 
L 543.6 273.940908 
L 550.799998 333.458357 
L 558.000002 388.666361 
L 565.200001 269.206339 
L 572.399999 349.701869 
L 579.599998 332.279747 
L 586.800002 352.640862 
L 594 280.910973 
L 601.200004 313.923366 
L 608.399997 291.655139 
L 615.600001 465.127158 
L 622.800005 310.740633 
L 629.999998 327.937011 
L 637.200002 320.939336 
L 644.399995 333.862346 
L 651.599999 361.625235 
L 658.800003 316.313172 
L 665.999996 317.181016 
L 673.2 323.561224 
L 680.400003 354.768055 
L 687.599997 325.505026 
L 694.79999 293.560368 
L 702.000004 326.994443 
L 709.199997 273.452935 
L 716.399991 314.113968 
L 723.600005 332.111926 
L 730.799998 283.452429 
L 737.999991 289.858361 
L 745.200006 291.338909 
L 752.399999 289.913109 
L 759.599992 272.503206 
L 766.800007 303.016616 
L 774 315.062488 
L 781.199993 310.568863 
L 788.400008 350.961834 
L 795.600001 242.191047 
L 802.799994 268.293413 
L 810.000009 427.834807 
L 817.200002 290.528727 
L 824.399995 405.757175 
L 831.600009 282.094277 
L 838.800003 287.576206 
L 845.999996 306.660923 
L 853.20001 282.247459 
L 860.400003 329.190628 
L 867.599997 343.691933 
L 874.79999 255.813125 
L 881.999983 271.696317 
L 889.200019 300.959797 
L 896.400012 234.832972 
L 903.600005 366.570528 
L 910.799998 310.156053 
L 917.999991 349.332583 
L 925.199985 344.707298 
L 932.400021 287.567124 
L 932.400021 248.614547 
L 932.400021 248.614547 
L 925.199985 304.188 
L 917.999991 223.247017 
L 910.799998 291.51748 
L 903.600005 304.215651 
L 896.400012 233.459472 
L 889.200019 284.915486 
L 881.999983 253.410558 
L 874.79999 222.958585 
L 867.599997 289.205281 
L 860.400003 204.598385 
L 853.20001 281.585174 
L 845.999996 289.233384 
L 838.800003 281.289692 
L 831.600009 245.746387 
L 824.399995 283.313475 
L 817.200002 286.896343 
L 810.000009 367.759494 
L 802.799994 262.568345 
L 795.600001 233.991908 
L 788.400008 271.256903 
L 781.199993 275.205193 
L 774 257.9655 
L 766.800007 249.707005 
L 759.599992 220.608759 
L 752.399999 217.061065 
L 745.200006 254.890396 
L 737.999991 193.009395 
L 730.799998 281.54296 
L 723.600005 272.127599 
L 716.399991 280.033927 
L 709.199997 233.606177 
L 702.000004 246.419893 
L 694.79999 258.509471 
L 687.599997 253.548097 
L 680.400003 308.340921 
L 673.2 210.551268 
L 665.999996 288.339145 
L 658.800003 229.853673 
L 651.599999 239.893839 
L 644.399995 256.052331 
L 637.200002 269.744868 
L 629.999998 212.408086 
L 622.800005 285.304954 
L 615.600001 241.320327 
L 608.399997 168.826945 
L 601.200004 149.6519 
L 594 171.094338 
L 586.800002 291.260045 
L 579.599998 286.96423 
L 572.399999 291.647606 
L 565.200001 268.55474 
L 558.000002 317.639831 
L 550.799998 189.114529 
L 543.6 264.009466 
L 536.400001 205.68972 
L 529.2 261.825634 
L 522 265.438284 
L 514.8 254.799953 
L 507.6 309.648177 
L 500.4 243.32923 
L 493.2 246.60355 
L 486 206.880444 
L 478.8 179.434996 
L 471.599999 188.74148 
L 464.4 197.622893 
L 457.200002 225.797157 
L 449.999998 251.488732 
L 442.799999 277.273918 
L 435.600001 257.059559 
L 428.400002 279.9167 
L 421.199998 271.01391 
L 414 306.844991 
L 406.799996 266.324117 
L 399.600003 262.518819 
L 392.399999 225.124283 
L 385.199995 346.429147 
L 378.000002 224.183242 
L 370.799998 165.275954 
L 363.600005 300.961519 
L 356.400001 232.665722 
L 349.199997 239.814203 
L 342.000004 234.888577 
L 334.8 248.332952 
L 327.599997 281.87223 
L 320.400003 175.861956 
L 313.20001 220.497699 
L 305.999996 249.202707 
L 298.800003 202.013294 
L 291.600009 213.608513 
L 284.399995 278.991886 
L 277.200002 268.618129 
L 270.000009 266.916122 
L 262.799994 356.841981 
L 255.600001 240.415483 
L 248.400008 223.467227 
L 241.199993 242.750519 
L 234 208.328627 
L 226.800007 229.899401 
L 219.599992 273.667395 
L 212.399999 238.703277 
L 205.200006 268.266292 
L 197.999991 206.990364 
L 190.799998 324.70349 
L 183.600005 286.425481 
L 176.399991 191.218222 
L 169.199997 230.991544 
L 162.000004 202.411206 
L 154.79999 255.967178 
L 147.599997 301.5626 
L 140.400003 287.455239 
L 133.20001 253.394165 
L 126.000017 332.729965 
L 118.799981 261.673191 
L 111.599988 286.733514 
L 104.399995 169.507842 
L 97.200002 284.677297 
L 90.000009 269.065825 
L 82.800015 267.022834 
L 75.599979 291.982021 
L 68.399986 273.200124 
L 61.199993 294.399511 
L 54 194.398882 
L 46.800007 205.864544 
L 39.600014 286.801894 
L 32.400021 270.72441 
L 25.199985 312.836562 
L 17.999991 229.337159 
L 10.799998 245.636072 
L 3.600005 253.376474 
L -3.599988 159.803913 
L -10.799981 218.997962 
L -18.000017 294.006249 
L -25.20001 230.944063 
z
" clip-path="url(#p603a089efb)" style="fill: #008b8b; fill-opacity: 0.25"/>
   </g>
   <g id="matplotlib.axis_1">
    <g id="xtick_1">
     <g id="line2d_1">
      <defs>
       <path id="m1459fa96d8" d="M 0 0 
L 0 3.5 
" style="stroke: #000000; stroke-width: 0.8"/>
      </defs>
      <g>
       <use xlink:href="#m1459fa96d8" x="72" y="396" style="stroke: #000000; stroke-width: 0.8"/>
      </g>
     </g>
     <g id="text_1">
      <!-- −300 -->
      <g transform="translate(47.279531 416.677187) scale(0.18 -0.18)">
       <defs>
        <path id="DejaVuSans-2212" d="M 678 2272 
L 4684 2272 
L 4684 1741 
L 678 1741 
L 678 2272 
z
" transform="scale(0.015625)"/>
        <path id="DejaVuSans-33" d="M 2597 2516 
Q 3050 2419 3304 2112 
Q 3559 1806 3559 1356 
Q 3559 666 3084 287 
Q 2609 -91 1734 -91 
Q 1441 -91 1130 -33 
Q 819 25 488 141 
L 488 750 
Q 750 597 1062 519 
Q 1375 441 1716 441 
Q 2309 441 2620 675 
Q 2931 909 2931 1356 
Q 2931 1769 2642 2001 
Q 2353 2234 1838 2234 
L 1294 2234 
L 1294 2753 
L 1863 2753 
Q 2328 2753 2575 2939 
Q 2822 3125 2822 3475 
Q 2822 3834 2567 4026 
Q 2313 4219 1838 4219 
Q 1578 4219 1281 4162 
Q 984 4106 628 3988 
L 628 4550 
Q 988 4650 1302 4700 
Q 1616 4750 1894 4750 
Q 2613 4750 3031 4423 
Q 3450 4097 3450 3541 
Q 3450 3153 3228 2886 
Q 3006 2619 2597 2516 
z
" transform="scale(0.015625)"/>
        <path id="DejaVuSans-30" d="M 2034 4250 
Q 1547 4250 1301 3770 
Q 1056 3291 1056 2328 
Q 1056 1369 1301 889 
Q 1547 409 2034 409 
Q 2525 409 2770 889 
Q 3016 1369 3016 2328 
Q 3016 3291 2770 3770 
Q 2525 4250 2034 4250 
z
M 2034 4750 
Q 2819 4750 3233 4129 
Q 3647 3509 3647 2328 
Q 3647 1150 3233 529 
Q 2819 -91 2034 -91 
Q 1250 -91 836 529 
Q 422 1150 422 2328 
Q 422 3509 836 4129 
Q 1250 4750 2034 4750 
z
" transform="scale(0.015625)"/>
       </defs>
       <use xlink:href="#DejaVuSans-2212"/>
       <use xlink:href="#DejaVuSans-33" x="83.789062"/>
       <use xlink:href="#DejaVuSans-30" x="147.412109"/>
       <use xlink:href="#DejaVuSans-30" x="211.035156"/>
      </g>
     </g>
    </g>
    <g id="xtick_2">
     <g id="line2d_2">
      <g>
       <use xlink:href="#m1459fa96d8" x="216" y="396" style="stroke: #000000; stroke-width: 0.8"/>
      </g>
     </g>
     <g id="text_2">
      <!-- −200 -->
      <g transform="translate(191.279531 416.677187) scale(0.18 -0.18)">
       <defs>
        <path id="DejaVuSans-32" d="M 1228 531 
L 3431 531 
L 3431 0 
L 469 0 
L 469 531 
Q 828 903 1448 1529 
Q 2069 2156 2228 2338 
Q 2531 2678 2651 2914 
Q 2772 3150 2772 3378 
Q 2772 3750 2511 3984 
Q 2250 4219 1831 4219 
Q 1534 4219 1204 4116 
Q 875 4013 500 3803 
L 500 4441 
Q 881 4594 1212 4672 
Q 1544 4750 1819 4750 
Q 2544 4750 2975 4387 
Q 3406 4025 3406 3419 
Q 3406 3131 3298 2873 
Q 3191 2616 2906 2266 
Q 2828 2175 2409 1742 
Q 1991 1309 1228 531 
z
" transform="scale(0.015625)"/>
       </defs>
       <use xlink:href="#DejaVuSans-2212"/>
       <use xlink:href="#DejaVuSans-32" x="83.789062"/>
       <use xlink:href="#DejaVuSans-30" x="147.412109"/>
       <use xlink:href="#DejaVuSans-30" x="211.035156"/>
      </g>
     </g>
    </g>
    <g id="xtick_3">
     <g id="line2d_3">
      <g>
       <use xlink:href="#m1459fa96d8" x="360" y="396" style="stroke: #000000; stroke-width: 0.8"/>
      </g>
     </g>
     <g id="text_3">
      <!-- −100 -->
      <g transform="translate(335.279531 416.677187) scale(0.18 -0.18)">
       <defs>
        <path id="DejaVuSans-31" d="M 794 531 
L 1825 531 
L 1825 4091 
L 703 3866 
L 703 4441 
L 1819 4666 
L 2450 4666 
L 2450 531 
L 3481 531 
L 3481 0 
L 794 0 
L 794 531 
z
" transform="scale(0.015625)"/>
       </defs>
       <use xlink:href="#DejaVuSans-2212"/>
       <use xlink:href="#DejaVuSans-31" x="83.789062"/>
       <use xlink:href="#DejaVuSans-30" x="147.412109"/>
       <use xlink:href="#DejaVuSans-30" x="211.035156"/>
      </g>
     </g>
    </g>
    <g id="xtick_4">
     <g id="line2d_4">
      <g>
       <use xlink:href="#m1459fa96d8" x="504" y="396" style="stroke: #000000; stroke-width: 0.8"/>
      </g>
     </g>
     <g id="text_4">
      <!-- 0 -->
      <g transform="translate(498.27375 416.677187) scale(0.18 -0.18)">
       <use xlink:href="#DejaVuSans-30"/>
      </g>
     </g>
    </g>
    <g id="xtick_5">
     <g id="line2d_5">
      <g>
       <use xlink:href="#m1459fa96d8" x="648" y="396" style="stroke: #000000; stroke-width: 0.8"/>
      </g>
     </g>
     <g id="text_5">
      <!-- 100 -->
      <g transform="translate(630.82125 416.677187) scale(0.18 -0.18)">
       <use xlink:href="#DejaVuSans-31"/>
       <use xlink:href="#DejaVuSans-30" x="63.623047"/>
       <use xlink:href="#DejaVuSans-30" x="127.246094"/>
      </g>
     </g>
    </g>
    <g id="xtick_6">
     <g id="line2d_6">
      <g>
       <use xlink:href="#m1459fa96d8" x="792" y="396" style="stroke: #000000; stroke-width: 0.8"/>
      </g>
     </g>
     <g id="text_6">
      <!-- 200 -->
      <g transform="translate(774.82125 416.677187) scale(0.18 -0.18)">
       <use xlink:href="#DejaVuSans-32"/>
       <use xlink:href="#DejaVuSans-30" x="63.623047"/>
       <use xlink:href="#DejaVuSans-30" x="127.246094"/>
      </g>
     </g>
    </g>
    <g id="text_7">
     <!-- Time (ms) -->
     <g transform="translate(386.641406 438.097812) scale(0.18 -0.18)">
      <defs>
       <path id="DejaVuSans-54" d="M -19 4666 
L 3928 4666 
L 3928 4134 
L 2272 4134 
L 2272 0 
L 1638 0 
L 1638 4134 
L -19 4134 
L -19 4666 
z
" transform="scale(0.015625)"/>
       <path id="DejaVuSans-69" d="M 603 3500 
L 1178 3500 
L 1178 0 
L 603 0 
L 603 3500 
z
M 603 4863 
L 1178 4863 
L 1178 4134 
L 603 4134 
L 603 4863 
z
" transform="scale(0.015625)"/>
       <path id="DejaVuSans-6d" d="M 3328 2828 
Q 3544 3216 3844 3400 
Q 4144 3584 4550 3584 
Q 5097 3584 5394 3201 
Q 5691 2819 5691 2113 
L 5691 0 
L 5113 0 
L 5113 2094 
Q 5113 2597 4934 2840 
Q 4756 3084 4391 3084 
Q 3944 3084 3684 2787 
Q 3425 2491 3425 1978 
L 3425 0 
L 2847 0 
L 2847 2094 
Q 2847 2600 2669 2842 
Q 2491 3084 2119 3084 
Q 1678 3084 1418 2786 
Q 1159 2488 1159 1978 
L 1159 0 
L 581 0 
L 581 3500 
L 1159 3500 
L 1159 2956 
Q 1356 3278 1631 3431 
Q 1906 3584 2284 3584 
Q 2666 3584 2933 3390 
Q 3200 3197 3328 2828 
z
" transform="scale(0.015625)"/>
       <path id="DejaVuSans-65" d="M 3597 1894 
L 3597 1613 
L 953 1613 
Q 991 1019 1311 708 
Q 1631 397 2203 397 
Q 2534 397 2845 478 
Q 3156 559 3463 722 
L 3463 178 
Q 3153 47 2828 -22 
Q 2503 -91 2169 -91 
Q 1331 -91 842 396 
Q 353 884 353 1716 
Q 353 2575 817 3079 
Q 1281 3584 2069 3584 
Q 2775 3584 3186 3129 
Q 3597 2675 3597 1894 
z
M 3022 2063 
Q 3016 2534 2758 2815 
Q 2500 3097 2075 3097 
Q 1594 3097 1305 2825 
Q 1016 2553 972 2059 
L 3022 2063 
z
" transform="scale(0.015625)"/>
       <path id="DejaVuSans-20" transform="scale(0.015625)"/>
       <path id="DejaVuSans-28" d="M 1984 4856 
Q 1566 4138 1362 3434 
Q 1159 2731 1159 2009 
Q 1159 1288 1364 580 
Q 1569 -128 1984 -844 
L 1484 -844 
Q 1016 -109 783 600 
Q 550 1309 550 2009 
Q 550 2706 781 3412 
Q 1013 4119 1484 4856 
L 1984 4856 
z
" transform="scale(0.015625)"/>
       <path id="DejaVuSans-73" d="M 2834 3397 
L 2834 2853 
Q 2591 2978 2328 3040 
Q 2066 3103 1784 3103 
Q 1356 3103 1142 2972 
Q 928 2841 928 2578 
Q 928 2378 1081 2264 
Q 1234 2150 1697 2047 
L 1894 2003 
Q 2506 1872 2764 1633 
Q 3022 1394 3022 966 
Q 3022 478 2636 193 
Q 2250 -91 1575 -91 
Q 1294 -91 989 -36 
Q 684 19 347 128 
L 347 722 
Q 666 556 975 473 
Q 1284 391 1588 391 
Q 1994 391 2212 530 
Q 2431 669 2431 922 
Q 2431 1156 2273 1281 
Q 2116 1406 1581 1522 
L 1381 1569 
Q 847 1681 609 1914 
Q 372 2147 372 2553 
Q 372 3047 722 3315 
Q 1072 3584 1716 3584 
Q 2034 3584 2315 3537 
Q 2597 3491 2834 3397 
z
" transform="scale(0.015625)"/>
       <path id="DejaVuSans-29" d="M 513 4856 
L 1013 4856 
Q 1481 4119 1714 3412 
Q 1947 2706 1947 2009 
Q 1947 1309 1714 600 
Q 1481 -109 1013 -844 
L 513 -844 
Q 928 -128 1133 580 
Q 1338 1288 1338 2009 
Q 1338 2731 1133 3434 
Q 928 4138 513 4856 
z
" transform="scale(0.015625)"/>
      </defs>
      <use xlink:href="#DejaVuSans-54"/>
      <use xlink:href="#DejaVuSans-69" x="57.958984"/>
      <use xlink:href="#DejaVuSans-6d" x="85.742188"/>
      <use xlink:href="#DejaVuSans-65" x="183.154297"/>
      <use xlink:href="#DejaVuSans-20" x="244.677734"/>
      <use xlink:href="#DejaVuSans-28" x="276.464844"/>
      <use xlink:href="#DejaVuSans-6d" x="315.478516"/>
      <use xlink:href="#DejaVuSans-73" x="412.890625"/>
      <use xlink:href="#DejaVuSans-29" x="464.990234"/>
     </g>
    </g>
   </g>
   <g id="matplotlib.axis_2">
    <g id="ytick_1">
     <g id="line2d_7">
      <defs>
       <path id="m38aa1b97d3" d="M 0 0 
L -3.5 0 
" style="stroke: #000000; stroke-width: 0.8"/>
      </defs>
      <g>
       <use xlink:href="#m38aa1b97d3" x="72" y="396" style="stroke: #000000; stroke-width: 0.8"/>
      </g>
     </g>
     <g id="text_8">
      <!-- −10 -->
      <g transform="translate(27.011563 402.838594) scale(0.18 -0.18)">
       <use xlink:href="#DejaVuSans-2212"/>
       <use xlink:href="#DejaVuSans-31" x="83.789062"/>
       <use xlink:href="#DejaVuSans-30" x="147.412109"/>
      </g>
     </g>
    </g>
    <g id="ytick_2">
     <g id="line2d_8">
      <g>
       <use xlink:href="#m38aa1b97d3" x="72" y="336" style="stroke: #000000; stroke-width: 0.8"/>
      </g>
     </g>
     <g id="text_9">
      <!-- −5 -->
      <g transform="translate(38.464062 342.838594) scale(0.18 -0.18)">
       <defs>
        <path id="DejaVuSans-35" d="M 691 4666 
L 3169 4666 
L 3169 4134 
L 1269 4134 
L 1269 2991 
Q 1406 3038 1543 3061 
Q 1681 3084 1819 3084 
Q 2600 3084 3056 2656 
Q 3513 2228 3513 1497 
Q 3513 744 3044 326 
Q 2575 -91 1722 -91 
Q 1428 -91 1123 -41 
Q 819 9 494 109 
L 494 744 
Q 775 591 1075 516 
Q 1375 441 1709 441 
Q 2250 441 2565 725 
Q 2881 1009 2881 1497 
Q 2881 1984 2565 2268 
Q 2250 2553 1709 2553 
Q 1456 2553 1204 2497 
Q 953 2441 691 2322 
L 691 4666 
z
" transform="scale(0.015625)"/>
       </defs>
       <use xlink:href="#DejaVuSans-2212"/>
       <use xlink:href="#DejaVuSans-35" x="83.789062"/>
      </g>
     </g>
    </g>
    <g id="ytick_3">
     <g id="line2d_9">
      <g>
       <use xlink:href="#m38aa1b97d3" x="72" y="276" style="stroke: #000000; stroke-width: 0.8"/>
      </g>
     </g>
     <g id="text_10">
      <!-- 0 -->
      <g transform="translate(53.5475 282.838594) scale(0.18 -0.18)">
       <use xlink:href="#DejaVuSans-30"/>
      </g>
     </g>
    </g>
    <g id="ytick_4">
     <g id="line2d_10">
      <g>
       <use xlink:href="#m38aa1b97d3" x="72" y="216" style="stroke: #000000; stroke-width: 0.8"/>
      </g>
     </g>
     <g id="text_11">
      <!-- 5 -->
      <g transform="translate(53.5475 222.838594) scale(0.18 -0.18)">
       <use xlink:href="#DejaVuSans-35"/>
      </g>
     </g>
    </g>
    <g id="ytick_5">
     <g id="line2d_11">
      <g>
       <use xlink:href="#m38aa1b97d3" x="72" y="156" style="stroke: #000000; stroke-width: 0.8"/>
      </g>
     </g>
     <g id="text_12">
      <!-- 10 -->
      <g transform="translate(42.095 162.838594) scale(0.18 -0.18)">
       <use xlink:href="#DejaVuSans-31"/>
       <use xlink:href="#DejaVuSans-30" x="63.623047"/>
      </g>
     </g>
    </g>
    <g id="ytick_6">
     <g id="line2d_12">
      <g>
       <use xlink:href="#m38aa1b97d3" x="72" y="96" style="stroke: #000000; stroke-width: 0.8"/>
      </g>
     </g>
     <g id="text_13">
      <!-- 15 -->
      <g transform="translate(42.095 102.838594) scale(0.18 -0.18)">
       <use xlink:href="#DejaVuSans-31"/>
       <use xlink:href="#DejaVuSans-35" x="63.623047"/>
      </g>
     </g>
    </g>
    <g id="ytick_7">
     <g id="line2d_13">
      <g>
       <use xlink:href="#m38aa1b97d3" x="72" y="36" style="stroke: #000000; stroke-width: 0.8"/>
      </g>
     </g>
     <g id="text_14">
      <!-- 20 -->
      <g transform="translate(42.095 42.838594) scale(0.18 -0.18)">
       <use xlink:href="#DejaVuSans-32"/>
       <use xlink:href="#DejaVuSans-30" x="63.623047"/>
      </g>
     </g>
    </g>
    <g id="text_15">
     <!-- Net Flow (bits) -->
     <g transform="translate(18.852187 288.796875) rotate(-90) scale(0.2 -0.2)">
      <defs>
       <path id="DejaVuSans-4e" d="M 628 4666 
L 1478 4666 
L 3547 763 
L 3547 4666 
L 4159 4666 
L 4159 0 
L 3309 0 
L 1241 3903 
L 1241 0 
L 628 0 
L 628 4666 
z
" transform="scale(0.015625)"/>
       <path id="DejaVuSans-74" d="M 1172 4494 
L 1172 3500 
L 2356 3500 
L 2356 3053 
L 1172 3053 
L 1172 1153 
Q 1172 725 1289 603 
Q 1406 481 1766 481 
L 2356 481 
L 2356 0 
L 1766 0 
Q 1100 0 847 248 
Q 594 497 594 1153 
L 594 3053 
L 172 3053 
L 172 3500 
L 594 3500 
L 594 4494 
L 1172 4494 
z
" transform="scale(0.015625)"/>
       <path id="DejaVuSans-46" d="M 628 4666 
L 3309 4666 
L 3309 4134 
L 1259 4134 
L 1259 2759 
L 3109 2759 
L 3109 2228 
L 1259 2228 
L 1259 0 
L 628 0 
L 628 4666 
z
" transform="scale(0.015625)"/>
       <path id="DejaVuSans-6c" d="M 603 4863 
L 1178 4863 
L 1178 0 
L 603 0 
L 603 4863 
z
" transform="scale(0.015625)"/>
       <path id="DejaVuSans-6f" d="M 1959 3097 
Q 1497 3097 1228 2736 
Q 959 2375 959 1747 
Q 959 1119 1226 758 
Q 1494 397 1959 397 
Q 2419 397 2687 759 
Q 2956 1122 2956 1747 
Q 2956 2369 2687 2733 
Q 2419 3097 1959 3097 
z
M 1959 3584 
Q 2709 3584 3137 3096 
Q 3566 2609 3566 1747 
Q 3566 888 3137 398 
Q 2709 -91 1959 -91 
Q 1206 -91 779 398 
Q 353 888 353 1747 
Q 353 2609 779 3096 
Q 1206 3584 1959 3584 
z
" transform="scale(0.015625)"/>
       <path id="DejaVuSans-77" d="M 269 3500 
L 844 3500 
L 1563 769 
L 2278 3500 
L 2956 3500 
L 3675 769 
L 4391 3500 
L 4966 3500 
L 4050 0 
L 3372 0 
L 2619 2869 
L 1863 0 
L 1184 0 
L 269 3500 
z
" transform="scale(0.015625)"/>
       <path id="DejaVuSans-62" d="M 3116 1747 
Q 3116 2381 2855 2742 
Q 2594 3103 2138 3103 
Q 1681 3103 1420 2742 
Q 1159 2381 1159 1747 
Q 1159 1113 1420 752 
Q 1681 391 2138 391 
Q 2594 391 2855 752 
Q 3116 1113 3116 1747 
z
M 1159 2969 
Q 1341 3281 1617 3432 
Q 1894 3584 2278 3584 
Q 2916 3584 3314 3078 
Q 3713 2572 3713 1747 
Q 3713 922 3314 415 
Q 2916 -91 2278 -91 
Q 1894 -91 1617 61 
Q 1341 213 1159 525 
L 1159 0 
L 581 0 
L 581 4863 
L 1159 4863 
L 1159 2969 
z
" transform="scale(0.015625)"/>
      </defs>
      <use xlink:href="#DejaVuSans-4e"/>
      <use xlink:href="#DejaVuSans-65" x="74.804688"/>
      <use xlink:href="#DejaVuSans-74" x="136.328125"/>
      <use xlink:href="#DejaVuSans-20" x="175.537109"/>
      <use xlink:href="#DejaVuSans-46" x="207.324219"/>
      <use xlink:href="#DejaVuSans-6c" x="264.84375"/>
      <use xlink:href="#DejaVuSans-6f" x="292.626953"/>
      <use xlink:href="#DejaVuSans-77" x="353.808594"/>
      <use xlink:href="#DejaVuSans-20" x="435.595703"/>
      <use xlink:href="#DejaVuSans-28" x="467.382812"/>
      <use xlink:href="#DejaVuSans-62" x="506.396484"/>
      <use xlink:href="#DejaVuSans-69" x="569.873047"/>
      <use xlink:href="#DejaVuSans-74" x="597.65625"/>
      <use xlink:href="#DejaVuSans-73" x="636.865234"/>
      <use xlink:href="#DejaVuSans-29" x="688.964844"/>
     </g>
    </g>
   </g>
   <g id="line2d_14">
    <path d="M 504 396 
L 504 36 
" clip-path="url(#p603a089efb)" style="fill: none; stroke-dasharray: 2.96,1.28; stroke-dashoffset: 0; stroke: #000000; stroke-width: 0.8"/>
   </g>
   <g id="line2d_15">
    <path d="M 72 276 
L 792 276 
" clip-path="url(#p603a089efb)" style="fill: none; stroke-dasharray: 0.8,1.32; stroke-dashoffset: 0; stroke: #000000; stroke-width: 0.8"/>
   </g>
   <g id="line2d_16">
    <path d="M -1 244.451299 
L 3.600005 312.050235 
L 10.799998 268.096787 
L 17.999991 257.667617 
L 25.199985 329.546994 
L 32.400021 278.191481 
L 39.600014 290.409239 
L 46.800007 219.093363 
L 54 239.444805 
L 61.199993 327.124266 
L 68.399986 274.948884 
L 75.599979 311.607132 
L 82.800015 272.308084 
L 90.000009 280.363117 
L 97.200002 314.630485 
L 104.399995 200.092485 
L 111.599988 306.271124 
L 118.799981 308.717265 
L 126.000017 344.787452 
L 133.20001 270.369935 
L 140.400003 306.873681 
L 147.599997 309.407192 
L 154.79999 276.503531 
L 162.000004 257.371051 
L 169.199997 264.461185 
L 176.399991 229.859632 
L 183.600005 294.837608 
L 190.799998 354.986961 
L 197.999991 251.31116 
L 205.200006 304.869594 
L 212.399999 248.127273 
L 219.599992 303.364301 
L 226.800007 249.082035 
L 234 259.730916 
L 241.199993 277.989048 
L 248.400008 229.94154 
L 255.600001 267.723619 
L 262.799994 381.14511 
L 270.000009 309.07622 
L 277.200002 295.770228 
L 284.399995 308.794665 
L 291.600009 231.734156 
L 298.800003 276.910177 
L 305.999996 263.116563 
L 313.20001 298.146262 
L 320.400003 229.579726 
L 327.599997 295.535048 
L 334.8 263.548057 
L 342.000004 266.091065 
L 349.199997 285.24605 
L 356.400001 247.778698 
L 363.600005 307.779894 
L 370.799998 203.896579 
L 378.000002 248.684378 
L 385.199995 361.753234 
L 392.399999 273.264208 
L 399.600003 283.207499 
L 406.799996 279.242637 
L 414 316.64664 
L 421.199998 272.457016 
L 428.400002 311.135081 
L 435.600001 281.862441 
L 442.799999 298.887051 
L 449.999998 312.822693 
L 457.200002 243.177417 
L 464.4 246.703065 
L 471.599999 267.234131 
L 478.8 186.861519 
L 486 216.874636 
L 493.2 362.449899 
L 500.4 307.550854 
L 514.8 314.873731 
L 522 304.485322 
L 529.2 270.809181 
L 536.400001 221.019723 
L 543.6 268.975187 
L 550.799998 261.286443 
L 558.000002 353.153096 
L 565.200001 268.88054 
L 572.399999 320.674737 
L 579.599998 309.621988 
L 586.800002 321.950454 
L 594 226.002656 
L 601.200004 231.787633 
L 608.399997 230.241042 
L 615.600001 353.223743 
L 622.800005 298.022793 
L 629.999998 270.172549 
L 637.200002 295.342102 
L 644.399995 294.957339 
L 651.599999 300.759537 
L 658.800003 273.083423 
L 665.999996 302.760081 
L 673.2 267.056246 
L 680.400003 331.554488 
L 687.599997 289.526561 
L 694.79999 276.034919 
L 702.000004 286.707168 
L 709.199997 253.529556 
L 716.399991 297.073948 
L 723.600005 302.119763 
L 730.799998 282.497695 
L 737.999991 241.433878 
L 745.200006 273.114653 
L 752.399999 253.487087 
L 759.599992 246.555983 
L 766.800007 276.36181 
L 774 286.513994 
L 781.199993 292.887028 
L 788.400008 311.109368 
L 795.600001 238.091477 
L 802.799994 265.430879 
L 810.000009 397.797151 
L 817.200002 288.712535 
L 824.399995 344.535325 
L 829 293.031349 
L 829 293.031349 
" clip-path="url(#p603a089efb)" style="fill: none; stroke: #008b8b; stroke-width: 3; stroke-linecap: square"/>
   </g>
   <g id="patch_3">
    <path d="M 72 396 
L 72 36 
" style="fill: none; stroke: #000000; stroke-width: 0.8; stroke-linejoin: miter; stroke-linecap: square"/>
   </g>
   <g id="patch_4">
    <path d="M 792 396 
L 792 36 
" style="fill: none; stroke: #000000; stroke-width: 0.8; stroke-linejoin: miter; stroke-linecap: square"/>
   </g>
   <g id="patch_5">
    <path d="M 72 396 
L 792 396 
" style="fill: none; stroke: #000000; stroke-width: 0.8; stroke-linejoin: miter; stroke-linecap: square"/>
   </g>
   <g id="patch_6">
    <path d="M 72 36 
L 792 36 
" style="fill: none; stroke: #000000; stroke-width: 0.8; stroke-linejoin: miter; stroke-linecap: square"/>
   </g>
   <g id="legend_1">
    <g id="line2d_17">
     <path d="M 630.88125 62.196875 
L 650.88125 62.196875 
L 670.88125 62.196875 
" style="fill: none; stroke: #008b8b; stroke-width: 3; stroke-linecap: square"/>
    </g>
    <g id="text_16">
     <!-- Net Flow -->
     <g transform="translate(686.88125 69.196875) scale(0.2 -0.2)">
      <use xlink:href="#DejaVuSans-4e"/>
      <use xlink:href="#DejaVuSans-65" x="74.804688"/>
      <use xlink:href="#DejaVuSans-74" x="136.328125"/>
      <use xlink:href="#DejaVuSans-20" x="175.537109"/>
      <use xlink:href="#DejaVuSans-46" x="207.324219"/>
      <use xlink:href="#DejaVuSans-6c" x="264.84375"/>
      <use xlink:href="#DejaVuSans-6f" x="292.626953"/>
      <use xlink:href="#DejaVuSans-77" x="353.808594"/>
     </g>
    </g>
   </g>
  </g>
 </g>
 <defs>
  <clipPath id="p603a089efb">
   <rect x="72" y="36" width="720" height="360"/>
  </clipPath>
 </defs>
</svg>
