<?xml version="1.0" encoding="utf-8" standalone="no"?>
<!DOCTYPE svg PUBLIC "-//W3C//DTD SVG 1.1//EN"
  "http://www.w3.org/Graphics/SVG/1.1/DTD/svg11.dtd">
<svg xmlns:xlink="http://www.w3.org/1999/xlink" width="561.6pt" height="561.6pt" viewBox="0 0 561.6 561.6" xmlns="http://www.w3.org/2000/svg" version="1.1">
 <metadata>
  <rdf:RDF xmlns:dc="http://purl.org/dc/elements/1.1/" xmlns:cc="http://creativecommons.org/ns#" xmlns:rdf="http://www.w3.org/1999/02/22-rdf-syntax-ns#">
   <cc:Work>
    <dc:type rdf:resource="http://purl.org/dc/dcmitype/StillImage"/>
    <dc:date>2025-12-06T19:30:51.260722</dc:date>
    <dc:format>image/svg+xml</dc:format>
    <dc:creator>
     <cc:Agent>
      <dc:title>Matplotlib v3.10.5, https://matplotlib.org/</dc:title>
     </cc:Agent>
    </dc:creator>
   </cc:Work>
  </rdf:RDF>
 </metadata>
 <defs>
  <style type="text/css">*{stroke-linejoin: round; stroke-linecap: butt}</style>
 </defs>
 <g id="figure_1">
  <g id="patch_1">
   <path d="M 0 561.6 
L 561.6 561.6 
L 561.6 0 
L 0 0 
z
" style="fill: #ffffff"/>
  </g>
  <g id="axes_1">
   <g id="patch_2">
    <path d="M 70.2 206.388 
L 505.44 206.388 
L 505.44 67.392 
L 70.2 67.392 
z
" style="fill: #ffffff"/>
   </g>
   <g id="FillBetweenPolyCollection_1">
    <defs>
     <path id="m584589a425" d="M 89.983636 -405.784056 
L 89.983636 -368.189021 
L 93.980327 -367.395463 
L 97.977023 -366.759611 
L 101.973713 -367.179528 
L 105.97041 -367.70392 
L 109.967106 -367.533263 
L 113.963796 -366.694532 
L 117.960493 -367.752939 
L 121.957186 -366.378361 
L 125.953882 -367.261604 
L 129.950576 -366.793056 
L 133.947269 -368.181957 
L 137.943962 -367.858392 
L 141.940659 -366.980671 
L 145.937352 -367.724565 
L 149.934045 -367.036397 
L 153.93074 -366.728213 
L 157.927434 -366.370112 
L 161.924129 -367.986828 
L 165.920823 -368.571016 
L 169.917517 -367.316209 
L 173.914211 -366.692715 
L 177.910906 -366.487656 
L 181.9076 -367.939133 
L 185.904294 -367.081446 
L 189.900988 -367.957687 
L 193.897681 -366.862942 
L 197.894377 -367.720877 
L 201.891071 -368.115667 
L 205.887764 -367.720868 
L 209.884457 -367.127363 
L 213.881154 -368.025662 
L 217.877847 -367.671398 
L 221.874543 -367.133706 
L 225.871234 -366.636039 
L 229.86793 -367.657808 
L 233.864626 -366.412475 
L 237.861317 -366.990506 
L 241.858013 -367.792066 
L 245.854704 -367.201392 
L 249.8514 -368.151579 
L 253.848096 -367.943898 
L 257.844787 -367.145385 
L 261.841483 -367.752771 
L 265.838179 -367.486258 
L 269.83487 -366.809715 
L 273.83156 -365.807494 
L 277.828262 -367.383982 
L 281.824953 -368.61237 
L 285.821643 -368.901939 
L 289.818345 -367.200216 
L 293.815036 -367.9618 
L 297.811726 -367.570463 
L 301.808428 -366.458976 
L 305.805119 -367.505021 
L 309.801809 -366.718596 
L 313.798511 -367.821912 
L 317.795202 -366.029875 
L 321.791892 -367.037967 
L 325.788594 -366.88135 
L 329.785285 -367.088244 
L 333.781975 -367.977558 
L 337.778677 -368.589685 
L 341.775368 -365.978385 
L 345.772058 -368.943104 
L 349.76876 -367.784855 
L 353.765451 -367.415119 
L 357.762141 -368.563273 
L 361.758843 -366.568342 
L 365.755534 -366.144762 
L 369.752224 -368.321649 
L 373.748914 -367.3118 
L 377.745605 -367.471659 
L 381.742319 -367.353339 
L 385.739009 -368.020844 
L 389.7357 -367.889727 
L 393.73239 -367.372079 
L 397.72908 -368.013074 
L 401.725771 -368.561151 
L 405.722485 -367.623353 
L 409.719175 -367.390308 
L 413.715866 -366.967124 
L 417.712556 -366.149244 
L 421.709246 -365.794267 
L 425.705937 -367.088999 
L 429.702627 -366.857543 
L 433.699341 -368.896643 
L 437.696032 -367.239302 
L 441.692722 -366.88756 
L 445.689412 -367.534364 
L 449.686103 -365.778781 
L 453.682793 -367.671592 
L 457.679507 -368.503507 
L 461.676198 -367.720434 
L 465.672888 -368.317263 
L 469.669578 -366.152011 
L 473.666269 -367.852784 
L 477.662959 -366.75759 
L 481.659673 -367.584842 
L 485.656364 -367.028392 
L 485.656364 -405.749118 
L 485.656364 -405.749118 
L 481.659673 -407.798203 
L 477.662959 -407.170386 
L 473.666269 -406.359184 
L 469.669578 -405.491908 
L 465.672888 -407.876724 
L 461.676198 -406.67476 
L 457.679507 -406.508127 
L 453.682793 -406.411552 
L 449.686103 -408.46384 
L 445.689412 -402.871513 
L 441.692722 -408.941431 
L 437.696032 -407.083141 
L 433.699341 -408.279997 
L 429.702627 -407.035318 
L 425.705937 -405.152062 
L 421.709246 -406.258692 
L 417.712556 -405.911211 
L 413.715866 -407.938716 
L 409.719175 -406.185843 
L 405.722485 -405.265615 
L 401.725771 -409.592982 
L 397.72908 -405.686912 
L 393.73239 -407.353527 
L 389.7357 -407.700223 
L 385.739009 -407.816164 
L 381.742319 -406.123488 
L 377.745605 -406.315441 
L 373.748914 -404.52602 
L 369.752224 -403.400445 
L 365.755534 -408.464653 
L 361.758843 -406.740032 
L 357.762141 -405.706274 
L 353.765451 -406.222991 
L 349.76876 -403.250978 
L 345.772058 -409.436066 
L 341.775368 -406.12515 
L 337.778677 -405.61613 
L 333.781975 -405.968496 
L 329.785285 -404.307279 
L 325.788594 -407.747129 
L 321.791892 -405.516128 
L 317.795202 -408.286515 
L 313.798511 -406.452353 
L 309.801809 -405.20157 
L 305.805119 -406.34012 
L 301.808428 -405.933394 
L 297.811726 -407.01432 
L 293.815036 -405.9542 
L 289.818345 -403.769671 
L 285.821643 -407.444927 
L 281.824953 -403.822686 
L 277.828262 -404.702108 
L 273.83156 -406.43643 
L 269.83487 -402.475512 
L 265.838179 -404.773947 
L 261.841483 -404.98167 
L 257.844787 -404.621247 
L 253.848096 -408.139228 
L 249.8514 -405.815151 
L 245.854704 -407.181073 
L 241.858013 -405.074349 
L 237.861317 -409.134191 
L 233.864626 -407.421655 
L 229.86793 -407.140265 
L 225.871234 -403.429059 
L 221.874543 -404.627141 
L 217.877847 -405.73649 
L 213.881154 -406.712922 
L 209.884457 -408.343342 
L 205.887764 -407.201209 
L 201.891071 -405.604356 
L 197.894377 -408.551429 
L 193.897681 -408.251214 
L 189.900988 -405.390621 
L 185.904294 -407.42794 
L 181.9076 -407.210026 
L 177.910906 -403.79236 
L 173.914211 -404.862693 
L 169.917517 -408.111606 
L 165.920823 -406.904168 
L 161.924129 -404.058803 
L 157.927434 -405.742716 
L 153.93074 -411.130595 
L 149.934045 -406.057149 
L 145.937352 -405.028161 
L 141.940659 -405.650257 
L 137.943962 -405.927285 
L 133.947269 -405.312291 
L 129.950576 -406.244003 
L 125.953882 -406.721861 
L 121.957186 -407.924967 
L 117.960493 -409.189375 
L 113.963796 -407.255012 
L 109.967106 -406.14196 
L 105.97041 -405.124119 
L 101.973713 -405.576091 
L 97.977023 -404.903186 
L 93.980327 -403.947728 
L 89.983636 -405.784056 
z
"/>
    </defs>
    <g clip-path="url(#pddd325c745)">
     <use xlink:href="#m584589a425" x="0" y="561.6" style="fill: #1f77b4; fill-opacity: 0.15"/>
    </g>
   </g>
   <g id="FillBetweenPolyCollection_2">
    <defs>
     <path id="ma0c2669cc8" d="M 89.983636 -405.057815 
L 89.983636 -367.426878 
L 93.980327 -367.33401 
L 97.977023 -367.523444 
L 101.973713 -368.335898 
L 105.97041 -367.419987 
L 109.967106 -366.209057 
L 113.963796 -368.082091 
L 117.960493 -367.579309 
L 121.957186 -366.624343 
L 125.953882 -369.776835 
L 129.950576 -367.298601 
L 133.947269 -367.042923 
L 137.943962 -369.750194 
L 141.940659 -366.266122 
L 145.937352 -366.896518 
L 149.934045 -367.611474 
L 153.93074 -367.711638 
L 157.927434 -367.30509 
L 161.924129 -368.242631 
L 165.920823 -367.083484 
L 169.917517 -367.458251 
L 173.914211 -366.786244 
L 177.910906 -366.218399 
L 181.9076 -368.70727 
L 185.904294 -367.622927 
L 189.900988 -367.668498 
L 193.897681 -367.203037 
L 197.894377 -367.452581 
L 201.891071 -367.001377 
L 205.887764 -367.559698 
L 209.884457 -366.876152 
L 213.881154 -367.749292 
L 217.877847 -367.448653 
L 221.874543 -367.101043 
L 225.871234 -368.41835 
L 229.86793 -366.523478 
L 233.864626 -368.532058 
L 237.861317 -368.466611 
L 241.858013 -367.985837 
L 245.854704 -367.422064 
L 249.8514 -367.620992 
L 253.848096 -367.25815 
L 257.844787 -367.16061 
L 261.841483 -368.703543 
L 265.838179 -367.796419 
L 269.83487 -368.038684 
L 273.83156 -368.786298 
L 277.828262 -367.495261 
L 281.824953 -368.167106 
L 285.821643 -368.189964 
L 289.818345 -366.729499 
L 293.815036 -365.61223 
L 297.811726 -367.949284 
L 301.808428 -367.287837 
L 305.805119 -367.666516 
L 309.801809 -366.807294 
L 313.798511 -367.940729 
L 317.795202 -368.83127 
L 321.791892 -366.81092 
L 325.788594 -367.574904 
L 329.785285 -368.078922 
L 333.781975 -367.438633 
L 337.778677 -366.396396 
L 341.775368 -366.921112 
L 345.772058 -366.680597 
L 349.76876 -367.207471 
L 353.765451 -367.260825 
L 357.762141 -366.74883 
L 361.758843 -368.942384 
L 365.755534 -368.685467 
L 369.752224 -368.180653 
L 373.748914 -368.57059 
L 377.745605 -366.591055 
L 381.742319 -368.450669 
L 385.739009 -367.287239 
L 389.7357 -367.268375 
L 393.73239 -369.137527 
L 397.72908 -367.085336 
L 401.725771 -367.887954 
L 405.722485 -367.667413 
L 409.719175 -367.556587 
L 413.715866 -367.345974 
L 417.712556 -366.902315 
L 421.709246 -367.330078 
L 425.705937 -365.960571 
L 429.702627 -367.609554 
L 433.699341 -365.688411 
L 437.696032 -367.9349 
L 441.692722 -366.895682 
L 445.689412 -367.595489 
L 449.686103 -368.853464 
L 453.682793 -367.996545 
L 457.679507 -368.689012 
L 461.676198 -368.253069 
L 465.672888 -366.529584 
L 469.669578 -366.915777 
L 473.666269 -368.126526 
L 477.662959 -368.41685 
L 481.659673 -367.40643 
L 485.656364 -368.063762 
L 485.656364 -406.864683 
L 485.656364 -406.864683 
L 481.659673 -406.460222 
L 477.662959 -407.621924 
L 473.666269 -409.167088 
L 469.669578 -406.372622 
L 465.672888 -405.447577 
L 461.676198 -408.96996 
L 457.679507 -403.903033 
L 453.682793 -406.395736 
L 449.686103 -407.769962 
L 445.689412 -405.100298 
L 441.692722 -403.893841 
L 437.696032 -404.911559 
L 433.699341 -411.362349 
L 429.702627 -408.130249 
L 425.705937 -405.352302 
L 421.709246 -405.569831 
L 417.712556 -405.707123 
L 413.715866 -408.344701 
L 409.719175 -409.265517 
L 405.722485 -404.738266 
L 401.725771 -404.214151 
L 397.72908 -405.939147 
L 393.73239 -407.388261 
L 389.7357 -405.554227 
L 385.739009 -409.377053 
L 381.742319 -407.310927 
L 377.745605 -409.681584 
L 373.748914 -406.905483 
L 369.752224 -405.057363 
L 365.755534 -407.684006 
L 361.758843 -407.058771 
L 357.762141 -410.117378 
L 353.765451 -404.372795 
L 349.76876 -408.278017 
L 345.772058 -406.974405 
L 341.775368 -407.976126 
L 337.778677 -408.719567 
L 333.781975 -404.407793 
L 329.785285 -404.596903 
L 325.788594 -403.942142 
L 321.791892 -403.831143 
L 317.795202 -403.270939 
L 313.798511 -406.075408 
L 309.801809 -404.223974 
L 305.805119 -402.240542 
L 301.808428 -405.007228 
L 297.811726 -403.321634 
L 293.815036 -407.850347 
L 289.818345 -405.811098 
L 285.821643 -406.204231 
L 281.824953 -404.56772 
L 277.828262 -407.543051 
L 273.83156 -407.701622 
L 269.83487 -407.472955 
L 265.838179 -407.804446 
L 261.841483 -406.835828 
L 257.844787 -409.052623 
L 253.848096 -404.564183 
L 249.8514 -405.1938 
L 245.854704 -401.356892 
L 241.858013 -408.395846 
L 237.861317 -407.584954 
L 233.864626 -407.430676 
L 229.86793 -406.539806 
L 225.871234 -407.099515 
L 221.874543 -406.980432 
L 217.877847 -407.94663 
L 213.881154 -405.969943 
L 209.884457 -403.585778 
L 205.887764 -404.573594 
L 201.891071 -404.197932 
L 197.894377 -404.982359 
L 193.897681 -404.848326 
L 189.900988 -406.854042 
L 185.904294 -404.404803 
L 181.9076 -407.845372 
L 177.910906 -405.510604 
L 173.914211 -403.813452 
L 169.917517 -407.891672 
L 165.920823 -403.336595 
L 161.924129 -403.890747 
L 157.927434 -404.700439 
L 153.93074 -403.624762 
L 149.934045 -406.339541 
L 145.937352 -406.26324 
L 141.940659 -407.362626 
L 137.943962 -409.453837 
L 133.947269 -407.057008 
L 129.950576 -408.094543 
L 125.953882 -404.487329 
L 121.957186 -408.647803 
L 117.960493 -409.590241 
L 113.963796 -403.663857 
L 109.967106 -407.125041 
L 105.97041 -404.692322 
L 101.973713 -404.530092 
L 97.977023 -405.903991 
L 93.980327 -405.761342 
L 89.983636 -405.057815 
z
"/>
    </defs>
    <g clip-path="url(#pddd325c745)">
     <use xlink:href="#ma0c2669cc8" x="0" y="561.6" style="fill: #ff7f0e; fill-opacity: 0.15"/>
    </g>
   </g>
   <g id="matplotlib.axis_1">
    <g id="xtick_1">
     <g id="line2d_1">
      <defs>
       <path id="m73f84058f9" d="M 0 0 
L 0 3.5 
" style="stroke: #000000; stroke-width: 0.8"/>
      </defs>
      <g>
       <use xlink:href="#m73f84058f9" x="87.985286" y="206.388" style="stroke: #000000; stroke-width: 0.8"/>
      </g>
     </g>
     <g id="text_1">
      <!-- −200 -->
      <g transform="translate(74.251693 220.986437) scale(0.1 -0.1)">
       <defs>
        <path id="DejaVuSans-2212" d="M 678 2272 
L 4684 2272 
L 4684 1741 
L 678 1741 
L 678 2272 
z
" transform="scale(0.015625)"/>
        <path id="DejaVuSans-32" d="M 1228 531 
L 3431 531 
L 3431 0 
L 469 0 
L 469 531 
Q 828 903 1448 1529 
Q 2069 2156 2228 2338 
Q 2531 2678 2651 2914 
Q 2772 3150 2772 3378 
Q 2772 3750 2511 3984 
Q 2250 4219 1831 4219 
Q 1534 4219 1204 4116 
Q 875 4013 500 3803 
L 500 4441 
Q 881 4594 1212 4672 
Q 1544 4750 1819 4750 
Q 2544 4750 2975 4387 
Q 3406 4025 3406 3419 
Q 3406 3131 3298 2873 
Q 3191 2616 2906 2266 
Q 2828 2175 2409 1742 
Q 1991 1309 1228 531 
z
" transform="scale(0.015625)"/>
        <path id="DejaVuSans-30" d="M 2034 4250 
Q 1547 4250 1301 3770 
Q 1056 3291 1056 2328 
Q 1056 1369 1301 889 
Q 1547 409 2034 409 
Q 2525 409 2770 889 
Q 3016 1369 3016 2328 
Q 3016 3291 2770 3770 
Q 2525 4250 2034 4250 
z
M 2034 4750 
Q 2819 4750 3233 4129 
Q 3647 3509 3647 2328 
Q 3647 1150 3233 529 
Q 2819 -91 2034 -91 
Q 1250 -91 836 529 
Q 422 1150 422 2328 
Q 422 3509 836 4129 
Q 1250 4750 2034 4750 
z
" transform="scale(0.015625)"/>
       </defs>
       <use xlink:href="#DejaVuSans-2212"/>
       <use xlink:href="#DejaVuSans-32" transform="translate(83.789062 0)"/>
       <use xlink:href="#DejaVuSans-30" transform="translate(147.412109 0)"/>
       <use xlink:href="#DejaVuSans-30" transform="translate(211.035156 0)"/>
      </g>
     </g>
    </g>
    <g id="xtick_2">
     <g id="line2d_2">
      <g>
       <use xlink:href="#m73f84058f9" x="167.91917" y="206.388" style="stroke: #000000; stroke-width: 0.8"/>
      </g>
     </g>
     <g id="text_2">
      <!-- 0 -->
      <g transform="translate(164.73792 220.986437) scale(0.1 -0.1)">
       <use xlink:href="#DejaVuSans-30"/>
      </g>
     </g>
    </g>
    <g id="xtick_3">
     <g id="line2d_3">
      <g>
       <use xlink:href="#m73f84058f9" x="247.853053" y="206.388" style="stroke: #000000; stroke-width: 0.8"/>
      </g>
     </g>
     <g id="text_3">
      <!-- 200 -->
      <g transform="translate(238.309303 220.986437) scale(0.1 -0.1)">
       <use xlink:href="#DejaVuSans-32"/>
       <use xlink:href="#DejaVuSans-30" transform="translate(63.623047 0)"/>
       <use xlink:href="#DejaVuSans-30" transform="translate(127.246094 0)"/>
      </g>
     </g>
    </g>
    <g id="xtick_4">
     <g id="line2d_4">
      <g>
       <use xlink:href="#m73f84058f9" x="327.786937" y="206.388" style="stroke: #000000; stroke-width: 0.8"/>
      </g>
     </g>
     <g id="text_4">
      <!-- 400 -->
      <g transform="translate(318.243187 220.986437) scale(0.1 -0.1)">
       <defs>
        <path id="DejaVuSans-34" d="M 2419 4116 
L 825 1625 
L 2419 1625 
L 2419 4116 
z
M 2253 4666 
L 3047 4666 
L 3047 1625 
L 3713 1625 
L 3713 1100 
L 3047 1100 
L 3047 0 
L 2419 0 
L 2419 1100 
L 313 1100 
L 313 1709 
L 2253 4666 
z
" transform="scale(0.015625)"/>
       </defs>
       <use xlink:href="#DejaVuSans-34"/>
       <use xlink:href="#DejaVuSans-30" transform="translate(63.623047 0)"/>
       <use xlink:href="#DejaVuSans-30" transform="translate(127.246094 0)"/>
      </g>
     </g>
    </g>
    <g id="xtick_5">
     <g id="line2d_5">
      <g>
       <use xlink:href="#m73f84058f9" x="407.720821" y="206.388" style="stroke: #000000; stroke-width: 0.8"/>
      </g>
     </g>
     <g id="text_5">
      <!-- 600 -->
      <g transform="translate(398.177071 220.986437) scale(0.1 -0.1)">
       <defs>
        <path id="DejaVuSans-36" d="M 2113 2584 
Q 1688 2584 1439 2293 
Q 1191 2003 1191 1497 
Q 1191 994 1439 701 
Q 1688 409 2113 409 
Q 2538 409 2786 701 
Q 3034 994 3034 1497 
Q 3034 2003 2786 2293 
Q 2538 2584 2113 2584 
z
M 3366 4563 
L 3366 3988 
Q 3128 4100 2886 4159 
Q 2644 4219 2406 4219 
Q 1781 4219 1451 3797 
Q 1122 3375 1075 2522 
Q 1259 2794 1537 2939 
Q 1816 3084 2150 3084 
Q 2853 3084 3261 2657 
Q 3669 2231 3669 1497 
Q 3669 778 3244 343 
Q 2819 -91 2113 -91 
Q 1303 -91 875 529 
Q 447 1150 447 2328 
Q 447 3434 972 4092 
Q 1497 4750 2381 4750 
Q 2619 4750 2861 4703 
Q 3103 4656 3366 4563 
z
" transform="scale(0.015625)"/>
       </defs>
       <use xlink:href="#DejaVuSans-36"/>
       <use xlink:href="#DejaVuSans-30" transform="translate(63.623047 0)"/>
       <use xlink:href="#DejaVuSans-30" transform="translate(127.246094 0)"/>
      </g>
     </g>
    </g>
    <g id="xtick_6">
     <g id="line2d_6">
      <g>
       <use xlink:href="#m73f84058f9" x="487.654704" y="206.388" style="stroke: #000000; stroke-width: 0.8"/>
      </g>
     </g>
     <g id="text_6">
      <!-- 800 -->
      <g transform="translate(478.110954 220.986437) scale(0.1 -0.1)">
       <defs>
        <path id="DejaVuSans-38" d="M 2034 2216 
Q 1584 2216 1326 1975 
Q 1069 1734 1069 1313 
Q 1069 891 1326 650 
Q 1584 409 2034 409 
Q 2484 409 2743 651 
Q 3003 894 3003 1313 
Q 3003 1734 2745 1975 
Q 2488 2216 2034 2216 
z
M 1403 2484 
Q 997 2584 770 2862 
Q 544 3141 544 3541 
Q 544 4100 942 4425 
Q 1341 4750 2034 4750 
Q 2731 4750 3128 4425 
Q 3525 4100 3525 3541 
Q 3525 3141 3298 2862 
Q 3072 2584 2669 2484 
Q 3125 2378 3379 2068 
Q 3634 1759 3634 1313 
Q 3634 634 3220 271 
Q 2806 -91 2034 -91 
Q 1263 -91 848 271 
Q 434 634 434 1313 
Q 434 1759 690 2068 
Q 947 2378 1403 2484 
z
M 1172 3481 
Q 1172 3119 1398 2916 
Q 1625 2713 2034 2713 
Q 2441 2713 2670 2916 
Q 2900 3119 2900 3481 
Q 2900 3844 2670 4047 
Q 2441 4250 2034 4250 
Q 1625 4250 1398 4047 
Q 1172 3844 1172 3481 
z
" transform="scale(0.015625)"/>
       </defs>
       <use xlink:href="#DejaVuSans-38"/>
       <use xlink:href="#DejaVuSans-30" transform="translate(63.623047 0)"/>
       <use xlink:href="#DejaVuSans-30" transform="translate(127.246094 0)"/>
      </g>
     </g>
    </g>
   </g>
   <g id="matplotlib.axis_2">
    <g id="ytick_1">
     <g id="line2d_7">
      <defs>
       <path id="mc0506f8190" d="M 0 0 
L -3.5 0 
" style="stroke: #000000; stroke-width: 0.8"/>
      </defs>
      <g>
       <use xlink:href="#mc0506f8190" x="70.2" y="205.425637" style="stroke: #000000; stroke-width: 0.8"/>
      </g>
     </g>
     <g id="text_7">
      <!-- 0 -->
      <g transform="translate(56.8375 209.224856) scale(0.1 -0.1)">
       <use xlink:href="#DejaVuSans-30"/>
      </g>
     </g>
    </g>
    <g id="ytick_2">
     <g id="line2d_8">
      <g>
       <use xlink:href="#mc0506f8190" x="70.2" y="164.247851" style="stroke: #000000; stroke-width: 0.8"/>
      </g>
     </g>
     <g id="text_8">
      <!-- 5 -->
      <g transform="translate(56.8375 168.047069) scale(0.1 -0.1)">
       <defs>
        <path id="DejaVuSans-35" d="M 691 4666 
L 3169 4666 
L 3169 4134 
L 1269 4134 
L 1269 2991 
Q 1406 3038 1543 3061 
Q 1681 3084 1819 3084 
Q 2600 3084 3056 2656 
Q 3513 2228 3513 1497 
Q 3513 744 3044 326 
Q 2575 -91 1722 -91 
Q 1428 -91 1123 -41 
Q 819 9 494 109 
L 494 744 
Q 775 591 1075 516 
Q 1375 441 1709 441 
Q 2250 441 2565 725 
Q 2881 1009 2881 1497 
Q 2881 1984 2565 2268 
Q 2250 2553 1709 2553 
Q 1456 2553 1204 2497 
Q 953 2441 691 2322 
L 691 4666 
z
" transform="scale(0.015625)"/>
       </defs>
       <use xlink:href="#DejaVuSans-35"/>
      </g>
     </g>
    </g>
    <g id="ytick_3">
     <g id="line2d_9">
      <g>
       <use xlink:href="#mc0506f8190" x="70.2" y="123.070064" style="stroke: #000000; stroke-width: 0.8"/>
      </g>
     </g>
     <g id="text_9">
      <!-- 10 -->
      <g transform="translate(50.475 126.869283) scale(0.1 -0.1)">
       <defs>
        <path id="DejaVuSans-31" d="M 794 531 
L 1825 531 
L 1825 4091 
L 703 3866 
L 703 4441 
L 1819 4666 
L 2450 4666 
L 2450 531 
L 3481 531 
L 3481 0 
L 794 0 
L 794 531 
z
" transform="scale(0.015625)"/>
       </defs>
       <use xlink:href="#DejaVuSans-31"/>
       <use xlink:href="#DejaVuSans-30" transform="translate(63.623047 0)"/>
      </g>
     </g>
    </g>
    <g id="ytick_4">
     <g id="line2d_10">
      <g>
       <use xlink:href="#mc0506f8190" x="70.2" y="81.892278" style="stroke: #000000; stroke-width: 0.8"/>
      </g>
     </g>
     <g id="text_10">
      <!-- 15 -->
      <g transform="translate(50.475 85.691497) scale(0.1 -0.1)">
       <use xlink:href="#DejaVuSans-31"/>
       <use xlink:href="#DejaVuSans-35" transform="translate(63.623047 0)"/>
      </g>
     </g>
    </g>
    <g id="text_11">
     <!-- ΔLL (bits) -->
     <g transform="translate(44.395313 160.500937) rotate(-90) scale(0.1 -0.1)">
      <defs>
       <path id="DejaVuSans-394" d="M 2188 4044 
L 906 525 
L 3472 525 
L 2188 4044 
z
M 50 0 
L 1831 4666 
L 2547 4666 
L 4325 0 
L 50 0 
z
" transform="scale(0.015625)"/>
       <path id="DejaVuSans-4c" d="M 628 4666 
L 1259 4666 
L 1259 531 
L 3531 531 
L 3531 0 
L 628 0 
L 628 4666 
z
" transform="scale(0.015625)"/>
       <path id="DejaVuSans-20" transform="scale(0.015625)"/>
       <path id="DejaVuSans-28" d="M 1984 4856 
Q 1566 4138 1362 3434 
Q 1159 2731 1159 2009 
Q 1159 1288 1364 580 
Q 1569 -128 1984 -844 
L 1484 -844 
Q 1016 -109 783 600 
Q 550 1309 550 2009 
Q 550 2706 781 3412 
Q 1013 4119 1484 4856 
L 1984 4856 
z
" transform="scale(0.015625)"/>
       <path id="DejaVuSans-62" d="M 3116 1747 
Q 3116 2381 2855 2742 
Q 2594 3103 2138 3103 
Q 1681 3103 1420 2742 
Q 1159 2381 1159 1747 
Q 1159 1113 1420 752 
Q 1681 391 2138 391 
Q 2594 391 2855 752 
Q 3116 1113 3116 1747 
z
M 1159 2969 
Q 1341 3281 1617 3432 
Q 1894 3584 2278 3584 
Q 2916 3584 3314 3078 
Q 3713 2572 3713 1747 
Q 3713 922 3314 415 
Q 2916 -91 2278 -91 
Q 1894 -91 1617 61 
Q 1341 213 1159 525 
L 1159 0 
L 581 0 
L 581 4863 
L 1159 4863 
L 1159 2969 
z
" transform="scale(0.015625)"/>
       <path id="DejaVuSans-69" d="M 603 3500 
L 1178 3500 
L 1178 0 
L 603 0 
L 603 3500 
z
M 603 4863 
L 1178 4863 
L 1178 4134 
L 603 4134 
L 603 4863 
z
" transform="scale(0.015625)"/>
       <path id="DejaVuSans-74" d="M 1172 4494 
L 1172 3500 
L 2356 3500 
L 2356 3053 
L 1172 3053 
L 1172 1153 
Q 1172 725 1289 603 
Q 1406 481 1766 481 
L 2356 481 
L 2356 0 
L 1766 0 
Q 1100 0 847 248 
Q 594 497 594 1153 
L 594 3053 
L 172 3053 
L 172 3500 
L 594 3500 
L 594 4494 
L 1172 4494 
z
" transform="scale(0.015625)"/>
       <path id="DejaVuSans-73" d="M 2834 3397 
L 2834 2853 
Q 2591 2978 2328 3040 
Q 2066 3103 1784 3103 
Q 1356 3103 1142 2972 
Q 928 2841 928 2578 
Q 928 2378 1081 2264 
Q 1234 2150 1697 2047 
L 1894 2003 
Q 2506 1872 2764 1633 
Q 3022 1394 3022 966 
Q 3022 478 2636 193 
Q 2250 -91 1575 -91 
Q 1294 -91 989 -36 
Q 684 19 347 128 
L 347 722 
Q 666 556 975 473 
Q 1284 391 1588 391 
Q 1994 391 2212 530 
Q 2431 669 2431 922 
Q 2431 1156 2273 1281 
Q 2116 1406 1581 1522 
L 1381 1569 
Q 847 1681 609 1914 
Q 372 2147 372 2553 
Q 372 3047 722 3315 
Q 1072 3584 1716 3584 
Q 2034 3584 2315 3537 
Q 2597 3491 2834 3397 
z
" transform="scale(0.015625)"/>
       <path id="DejaVuSans-29" d="M 513 4856 
L 1013 4856 
Q 1481 4119 1714 3412 
Q 1947 2706 1947 2009 
Q 1947 1309 1714 600 
Q 1481 -109 1013 -844 
L 513 -844 
Q 928 -128 1133 580 
Q 1338 1288 1338 2009 
Q 1338 2731 1133 3434 
Q 928 4138 513 4856 
z
" transform="scale(0.015625)"/>
      </defs>
      <use xlink:href="#DejaVuSans-394"/>
      <use xlink:href="#DejaVuSans-4c" transform="translate(68.408203 0)"/>
      <use xlink:href="#DejaVuSans-4c" transform="translate(124.121094 0)"/>
      <use xlink:href="#DejaVuSans-20" transform="translate(179.833984 0)"/>
      <use xlink:href="#DejaVuSans-28" transform="translate(211.621094 0)"/>
      <use xlink:href="#DejaVuSans-62" transform="translate(250.634766 0)"/>
      <use xlink:href="#DejaVuSans-69" transform="translate(314.111328 0)"/>
      <use xlink:href="#DejaVuSans-74" transform="translate(341.894531 0)"/>
      <use xlink:href="#DejaVuSans-73" transform="translate(381.103516 0)"/>
      <use xlink:href="#DejaVuSans-29" transform="translate(433.203125 0)"/>
     </g>
    </g>
   </g>
   <g id="line2d_11">
    <path d="M 167.91917 206.388 
L 167.91917 67.392 
" clip-path="url(#pddd325c745)" style="fill: none; stroke-dasharray: 2.96,1.28; stroke-dashoffset: 0; stroke: #000000; stroke-width: 0.8"/>
   </g>
   <g id="line2d_12">
    <path d="M 89.983636 174.613462 
L 93.980327 175.928404 
L 97.977023 175.768602 
L 101.973713 175.222191 
L 105.97041 175.18598 
L 109.967106 174.762388 
L 113.963796 174.625228 
L 117.960493 173.128843 
L 121.957186 174.448336 
L 125.953882 174.608267 
L 129.950576 175.08147 
L 133.947269 174.852876 
L 137.943962 174.707161 
L 141.940659 175.284536 
L 145.937352 175.223637 
L 149.934045 175.053227 
L 153.93074 172.670596 
L 157.927434 175.543586 
L 161.924129 175.577185 
L 165.920823 173.862408 
L 169.917517 173.886093 
L 173.914211 175.822296 
L 177.910906 176.459992 
L 181.9076 174.025421 
L 185.904294 174.345307 
L 189.900988 174.925846 
L 193.897681 174.042922 
L 197.894377 173.463847 
L 201.891071 174.739989 
L 205.887764 174.138961 
L 209.884457 173.864647 
L 213.881154 174.230708 
L 217.877847 174.896056 
L 221.874543 175.719577 
L 225.871234 176.567451 
L 229.86793 174.200963 
L 233.864626 174.682935 
L 237.861317 173.537652 
L 241.858013 175.166793 
L 245.854704 174.408767 
L 249.8514 174.616635 
L 253.848096 173.558437 
L 257.844787 175.716684 
L 261.841483 175.232779 
L 265.838179 175.469898 
L 269.83487 176.957386 
L 273.83156 175.478038 
L 277.828262 175.556955 
L 281.824953 175.382472 
L 285.821643 173.426567 
L 289.818345 176.115056 
L 293.815036 174.642 
L 297.811726 174.307609 
L 301.808428 175.403815 
L 305.805119 174.677429 
L 309.801809 175.639917 
L 313.798511 174.462868 
L 317.795202 174.441805 
L 321.791892 175.322952 
L 325.788594 174.28576 
L 329.785285 175.902238 
L 333.781975 174.626973 
L 337.778677 174.497093 
L 341.775368 175.548233 
L 345.772058 172.410415 
L 349.76876 176.082083 
L 353.765451 174.780945 
L 357.762141 174.465226 
L 361.758843 174.945813 
L 365.755534 174.295293 
L 369.752224 175.738953 
L 373.748914 175.68109 
L 377.745605 174.70645 
L 381.742319 174.861586 
L 385.739009 173.681496 
L 389.7357 173.805025 
L 393.73239 174.237197 
L 397.72908 174.750007 
L 401.725771 172.522934 
L 405.722485 175.155516 
L 409.719175 174.811925 
L 413.715866 174.14708 
L 417.712556 175.569772 
L 421.709246 175.573521 
L 425.705937 175.47947 
L 429.702627 174.653569 
L 433.699341 173.01168 
L 437.696032 174.438779 
L 441.692722 173.685505 
L 445.689412 176.397062 
L 449.686103 174.478689 
L 453.682793 174.558428 
L 457.679507 174.094183 
L 461.676198 174.402403 
L 465.672888 173.503006 
L 469.669578 175.778041 
L 473.666269 174.494016 
L 477.662959 174.636012 
L 481.659673 173.908478 
L 485.656364 175.211245 
" clip-path="url(#pddd325c745)" style="fill: none; stroke-dasharray: 1,1.65; stroke-dashoffset: 0; stroke: #1f77b4"/>
   </g>
   <g id="line2d_13">
    <path d="M 89.983636 175.357653 
L 93.980327 175.052324 
L 97.977023 174.886283 
L 101.973713 175.167005 
L 105.97041 175.543845 
L 109.967106 174.932951 
L 113.963796 175.727026 
L 117.960493 173.015225 
L 121.957186 173.963927 
L 125.953882 174.467918 
L 129.950576 173.903428 
L 133.947269 174.550034 
L 137.943962 171.997984 
L 141.940659 174.785626 
L 145.937352 175.020121 
L 149.934045 174.624493 
L 153.93074 175.9318 
L 157.927434 175.597236 
L 161.924129 175.533311 
L 165.920823 176.38996 
L 169.917517 173.925039 
L 173.914211 176.300152 
L 177.910906 175.735498 
L 181.9076 173.323679 
L 185.904294 175.586135 
L 189.900988 174.33873 
L 193.897681 175.574319 
L 197.894377 175.38253 
L 201.891071 176.000346 
L 205.887764 175.533354 
L 209.884457 176.369035 
L 213.881154 174.740382 
L 217.877847 173.902359 
L 221.874543 174.559262 
L 225.871234 173.841067 
L 229.86793 175.068358 
L 233.864626 173.618633 
L 237.861317 173.574218 
L 241.858013 173.409159 
L 245.854704 177.210522 
L 249.8514 175.192604 
L 253.848096 175.688834 
L 257.844787 173.493383 
L 261.841483 173.830315 
L 265.838179 173.799568 
L 269.83487 173.844181 
L 273.83156 173.35604 
L 277.828262 174.080844 
L 281.824953 175.232587 
L 285.821643 174.402903 
L 289.818345 175.329702 
L 293.815036 174.868711 
L 297.811726 175.964541 
L 301.808428 175.452467 
L 305.805119 176.646471 
L 309.801809 176.084366 
L 313.798511 174.591932 
L 317.795202 175.548896 
L 321.791892 176.278968 
L 325.788594 175.841477 
L 329.785285 175.262088 
L 333.781975 175.676787 
L 337.778677 174.042018 
L 341.775368 174.151381 
L 345.772058 174.772499 
L 349.76876 173.857256 
L 353.765451 175.78319 
L 357.762141 173.166896 
L 361.758843 173.599423 
L 365.755534 173.415263 
L 369.752224 174.980992 
L 373.748914 173.861963 
L 377.745605 173.463681 
L 381.742319 173.719202 
L 385.739009 173.267854 
L 389.7357 175.188699 
L 393.73239 173.337106 
L 397.72908 175.087758 
L 401.725771 175.548948 
L 405.722485 175.397161 
L 409.719175 173.188948 
L 413.715866 173.754662 
L 417.712556 175.295281 
L 421.709246 175.150046 
L 425.705937 175.943563 
L 429.702627 173.730098 
L 433.699341 173.07462 
L 437.696032 175.176771 
L 441.692722 176.205238 
L 445.689412 175.252106 
L 449.686103 173.288287 
L 453.682793 174.403859 
L 457.679507 175.303978 
L 461.676198 172.988486 
L 465.672888 175.611419 
L 469.669578 174.9558 
L 473.666269 172.953193 
L 477.662959 173.580613 
L 481.659673 174.666674 
L 485.656364 174.135777 
" clip-path="url(#pddd325c745)" style="fill: none; stroke-dasharray: 1,1.65; stroke-dashoffset: 0; stroke: #ff7f0e"/>
   </g>
   <g id="line2d_14">
    <path d="M 89.983636 161.185914 
L 93.980327 186.284443 
L 97.977023 179.358277 
L 101.973713 164.591438 
L 105.97041 142.684727 
L 109.967106 159.471986 
L 113.963796 170.249132 
L 117.960493 170.095402 
L 121.957186 156.497444 
L 125.953882 199.547611 
L 129.950576 188.488436 
L 133.947269 178.530211 
L 137.943962 188.562016 
L 141.940659 165.441414 
L 145.937352 184.157244 
L 149.934045 179.804781 
L 153.93074 143.514293 
L 157.927434 173.590033 
L 161.924129 118.970557 
L 165.920823 188.556476 
L 169.917517 175.462553 
L 173.914211 172.686011 
L 177.910906 189.159651 
L 181.9076 180.344057 
L 185.904294 175.260744 
L 189.900988 167.951407 
L 193.897681 192.338717 
L 197.894377 187.933692 
L 201.891071 191.930057 
L 205.887764 172.016534 
L 209.884457 171.880485 
L 213.881154 166.139639 
L 217.877847 159.004855 
L 221.874543 138.097563 
L 225.871234 182.288284 
L 229.86793 173.51223 
L 233.864626 185.770994 
L 237.861317 183.603316 
L 241.858013 141.994707 
L 245.854704 190.500429 
L 249.8514 187.519495 
L 253.848096 172.253118 
L 257.844787 156.406878 
L 261.841483 186.256195 
L 265.838179 176.454116 
L 269.83487 162.948534 
L 273.83156 166.77141 
L 277.828262 177.502818 
L 281.824953 132.998697 
L 285.821643 147.937674 
L 289.818345 180.324529 
L 293.815036 137.353112 
L 297.811726 110.237043 
L 301.808428 171.05898 
L 305.805119 175.232654 
L 309.801809 167.862127 
L 313.798511 154.131748 
L 317.795202 193.603726 
L 321.791892 183.511117 
L 325.788594 175.744585 
L 329.785285 171.718791 
L 333.781975 115.562048 
L 337.778677 154.97996 
L 341.775368 165.548158 
L 345.772058 145.252033 
L 349.76876 188.605731 
L 353.765451 176.471589 
L 357.762141 177.607905 
L 361.758843 141.260521 
L 365.755534 192.41205 
L 369.752224 73.71 
L 373.748914 136.564016 
L 377.745605 169.917256 
L 381.742319 146.401079 
L 385.739009 170.639289 
L 389.7357 88.161481 
L 393.73239 194.981837 
L 397.72908 176.945416 
L 401.725771 193.298588 
L 405.722485 180.484748 
L 409.719175 182.175144 
L 413.715866 196.015322 
L 417.712556 189.339585 
L 421.709246 182.068933 
L 425.705937 177.354482 
L 429.702627 199.863877 
L 433.699341 156.934221 
L 437.696032 185.910417 
L 441.692722 171.304541 
L 445.689412 189.501573 
L 449.686103 162.525319 
L 453.682793 187.596985 
L 457.679507 163.987253 
L 461.676198 173.367984 
L 465.672888 188.932009 
L 469.669578 160.587886 
L 473.666269 190.318418 
L 477.662959 156.403172 
L 481.659673 92.191684 
L 485.656364 173.300559 
" clip-path="url(#pddd325c745)" style="fill: none; stroke: #1f77b4; stroke-width: 2.2; stroke-linecap: square"/>
   </g>
   <g id="line2d_15">
    <path d="M 89.983636 196.651402 
L 93.980327 159.609008 
L 97.977023 152.110002 
L 101.973713 133.510253 
L 105.97041 152.075912 
L 109.967106 179.318992 
L 113.963796 162.127471 
L 117.960493 182.679041 
L 121.957186 184.002463 
L 125.953882 162.418658 
L 129.950576 135.434456 
L 133.947269 170.454069 
L 137.943962 190.003938 
L 141.940659 191.318795 
L 145.937352 178.514827 
L 149.934045 185.547705 
L 153.93074 182.094471 
L 157.927434 162.281294 
L 161.924129 183.785782 
L 165.920823 163.742004 
L 169.917517 176.645465 
L 173.914211 188.622558 
L 177.910906 162.252888 
L 181.9076 158.722442 
L 185.904294 188.734965 
L 189.900988 189.948349 
L 193.897681 185.671253 
L 197.894377 194.744228 
L 201.891071 184.464205 
L 205.887764 133.784157 
L 209.884457 128.677335 
L 213.881154 183.917155 
L 217.877847 192.813107 
L 221.874543 184.907236 
L 225.871234 183.744329 
L 229.86793 121.216945 
L 233.864626 195.963545 
L 237.861317 188.410826 
L 241.858013 196.640114 
L 245.854704 191.260937 
L 249.8514 159.690708 
L 253.848096 185.675712 
L 257.844787 191.584756 
L 261.841483 165.505931 
L 265.838179 89.753913 
L 269.83487 162.04108 
L 273.83156 139.545605 
L 277.828262 178.166348 
L 281.824953 196.743723 
L 285.821643 156.252584 
L 289.818345 127.672267 
L 293.815036 178.189648 
L 297.811726 146.858122 
L 301.808428 167.673562 
L 305.805119 183.13555 
L 309.801809 181.703614 
L 313.798511 167.207415 
L 317.795202 172.462565 
L 321.791892 189.902748 
L 325.788594 187.686829 
L 329.785285 194.163566 
L 333.781975 155.960582 
L 337.778677 172.630337 
L 341.775368 178.890725 
L 345.772058 88.747868 
L 349.76876 197.089632 
L 353.765451 179.433434 
L 357.762141 160.029296 
L 361.758843 185.900621 
L 365.755534 133.876689 
L 369.752224 192.868888 
L 373.748914 178.051519 
L 377.745605 128.673512 
L 381.742319 189.803234 
L 385.739009 169.311536 
L 389.7357 195.874913 
L 393.73239 170.371006 
L 397.72908 166.585862 
L 401.725771 178.494976 
L 405.722485 175.010527 
L 409.719175 163.809627 
L 413.715866 196.532318 
L 417.712556 182.136889 
L 421.709246 186.092044 
L 425.705937 159.761094 
L 429.702627 182.208241 
L 433.699341 147.7219 
L 437.696032 160.513752 
L 441.692722 153.859981 
L 445.689412 166.345422 
L 449.686103 177.720446 
L 453.682793 161.188834 
L 457.679507 185.938163 
L 461.676198 106.47975 
L 465.672888 174.543334 
L 469.669578 182.971492 
L 473.666269 179.683967 
L 477.662959 173.023279 
L 481.659673 200.07 
L 485.656364 180.145785 
" clip-path="url(#pddd325c745)" style="fill: none; stroke: #ff7f0e; stroke-width: 2.2; stroke-linecap: square"/>
   </g>
   <g id="patch_3">
    <path d="M 70.2 206.388 
L 70.2 67.392 
" style="fill: none; stroke: #000000; stroke-width: 0.8; stroke-linejoin: miter; stroke-linecap: square"/>
   </g>
   <g id="patch_4">
    <path d="M 505.44 206.388 
L 505.44 67.392 
" style="fill: none; stroke: #000000; stroke-width: 0.8; stroke-linejoin: miter; stroke-linecap: square"/>
   </g>
   <g id="patch_5">
    <path d="M 70.2 206.388 
L 505.44 206.388 
" style="fill: none; stroke: #000000; stroke-width: 0.8; stroke-linejoin: miter; stroke-linecap: square"/>
   </g>
   <g id="patch_6">
    <path d="M 70.2 67.392 
L 505.44 67.392 
" style="fill: none; stroke: #000000; stroke-width: 0.8; stroke-linejoin: miter; stroke-linecap: square"/>
   </g>
   <g id="text_12">
    <!-- (MFEF vs MLIP) — C-flow — Panel A: overlay + null bands -->
    <g transform="translate(116.324063 61.392) scale(0.12 -0.12)">
     <defs>
      <path id="DejaVuSans-4d" d="M 628 4666 
L 1569 4666 
L 2759 1491 
L 3956 4666 
L 4897 4666 
L 4897 0 
L 4281 0 
L 4281 4097 
L 3078 897 
L 2444 897 
L 1241 4097 
L 1241 0 
L 628 0 
L 628 4666 
z
" transform="scale(0.015625)"/>
      <path id="DejaVuSans-46" d="M 628 4666 
L 3309 4666 
L 3309 4134 
L 1259 4134 
L 1259 2759 
L 3109 2759 
L 3109 2228 
L 1259 2228 
L 1259 0 
L 628 0 
L 628 4666 
z
" transform="scale(0.015625)"/>
      <path id="DejaVuSans-45" d="M 628 4666 
L 3578 4666 
L 3578 4134 
L 1259 4134 
L 1259 2753 
L 3481 2753 
L 3481 2222 
L 1259 2222 
L 1259 531 
L 3634 531 
L 3634 0 
L 628 0 
L 628 4666 
z
" transform="scale(0.015625)"/>
      <path id="DejaVuSans-76" d="M 191 3500 
L 800 3500 
L 1894 563 
L 2988 3500 
L 3597 3500 
L 2284 0 
L 1503 0 
L 191 3500 
z
" transform="scale(0.015625)"/>
      <path id="DejaVuSans-49" d="M 628 4666 
L 1259 4666 
L 1259 0 
L 628 0 
L 628 4666 
z
" transform="scale(0.015625)"/>
      <path id="DejaVuSans-50" d="M 1259 4147 
L 1259 2394 
L 2053 2394 
Q 2494 2394 2734 2622 
Q 2975 2850 2975 3272 
Q 2975 3691 2734 3919 
Q 2494 4147 2053 4147 
L 1259 4147 
z
M 628 4666 
L 2053 4666 
Q 2838 4666 3239 4311 
Q 3641 3956 3641 3272 
Q 3641 2581 3239 2228 
Q 2838 1875 2053 1875 
L 1259 1875 
L 1259 0 
L 628 0 
L 628 4666 
z
" transform="scale(0.015625)"/>
      <path id="DejaVuSans-2014" d="M 313 1978 
L 6088 1978 
L 6088 1528 
L 313 1528 
L 313 1978 
z
" transform="scale(0.015625)"/>
      <path id="DejaVuSans-43" d="M 4122 4306 
L 4122 3641 
Q 3803 3938 3442 4084 
Q 3081 4231 2675 4231 
Q 1875 4231 1450 3742 
Q 1025 3253 1025 2328 
Q 1025 1406 1450 917 
Q 1875 428 2675 428 
Q 3081 428 3442 575 
Q 3803 722 4122 1019 
L 4122 359 
Q 3791 134 3420 21 
Q 3050 -91 2638 -91 
Q 1578 -91 968 557 
Q 359 1206 359 2328 
Q 359 3453 968 4101 
Q 1578 4750 2638 4750 
Q 3056 4750 3426 4639 
Q 3797 4528 4122 4306 
z
" transform="scale(0.015625)"/>
      <path id="DejaVuSans-2d" d="M 313 2009 
L 1997 2009 
L 1997 1497 
L 313 1497 
L 313 2009 
z
" transform="scale(0.015625)"/>
      <path id="DejaVuSans-66" d="M 2375 4863 
L 2375 4384 
L 1825 4384 
Q 1516 4384 1395 4259 
Q 1275 4134 1275 3809 
L 1275 3500 
L 2222 3500 
L 2222 3053 
L 1275 3053 
L 1275 0 
L 697 0 
L 697 3053 
L 147 3053 
L 147 3500 
L 697 3500 
L 697 3744 
Q 697 4328 969 4595 
Q 1241 4863 1831 4863 
L 2375 4863 
z
" transform="scale(0.015625)"/>
      <path id="DejaVuSans-6c" d="M 603 4863 
L 1178 4863 
L 1178 0 
L 603 0 
L 603 4863 
z
" transform="scale(0.015625)"/>
      <path id="DejaVuSans-6f" d="M 1959 3097 
Q 1497 3097 1228 2736 
Q 959 2375 959 1747 
Q 959 1119 1226 758 
Q 1494 397 1959 397 
Q 2419 397 2687 759 
Q 2956 1122 2956 1747 
Q 2956 2369 2687 2733 
Q 2419 3097 1959 3097 
z
M 1959 3584 
Q 2709 3584 3137 3096 
Q 3566 2609 3566 1747 
Q 3566 888 3137 398 
Q 2709 -91 1959 -91 
Q 1206 -91 779 398 
Q 353 888 353 1747 
Q 353 2609 779 3096 
Q 1206 3584 1959 3584 
z
" transform="scale(0.015625)"/>
      <path id="DejaVuSans-77" d="M 269 3500 
L 844 3500 
L 1563 769 
L 2278 3500 
L 2956 3500 
L 3675 769 
L 4391 3500 
L 4966 3500 
L 4050 0 
L 3372 0 
L 2619 2869 
L 1863 0 
L 1184 0 
L 269 3500 
z
" transform="scale(0.015625)"/>
      <path id="DejaVuSans-61" d="M 2194 1759 
Q 1497 1759 1228 1600 
Q 959 1441 959 1056 
Q 959 750 1161 570 
Q 1363 391 1709 391 
Q 2188 391 2477 730 
Q 2766 1069 2766 1631 
L 2766 1759 
L 2194 1759 
z
M 3341 1997 
L 3341 0 
L 2766 0 
L 2766 531 
Q 2569 213 2275 61 
Q 1981 -91 1556 -91 
Q 1019 -91 701 211 
Q 384 513 384 1019 
Q 384 1609 779 1909 
Q 1175 2209 1959 2209 
L 2766 2209 
L 2766 2266 
Q 2766 2663 2505 2880 
Q 2244 3097 1772 3097 
Q 1472 3097 1187 3025 
Q 903 2953 641 2809 
L 641 3341 
Q 956 3463 1253 3523 
Q 1550 3584 1831 3584 
Q 2591 3584 2966 3190 
Q 3341 2797 3341 1997 
z
" transform="scale(0.015625)"/>
      <path id="DejaVuSans-6e" d="M 3513 2113 
L 3513 0 
L 2938 0 
L 2938 2094 
Q 2938 2591 2744 2837 
Q 2550 3084 2163 3084 
Q 1697 3084 1428 2787 
Q 1159 2491 1159 1978 
L 1159 0 
L 581 0 
L 581 3500 
L 1159 3500 
L 1159 2956 
Q 1366 3272 1645 3428 
Q 1925 3584 2291 3584 
Q 2894 3584 3203 3211 
Q 3513 2838 3513 2113 
z
" transform="scale(0.015625)"/>
      <path id="DejaVuSans-65" d="M 3597 1894 
L 3597 1613 
L 953 1613 
Q 991 1019 1311 708 
Q 1631 397 2203 397 
Q 2534 397 2845 478 
Q 3156 559 3463 722 
L 3463 178 
Q 3153 47 2828 -22 
Q 2503 -91 2169 -91 
Q 1331 -91 842 396 
Q 353 884 353 1716 
Q 353 2575 817 3079 
Q 1281 3584 2069 3584 
Q 2775 3584 3186 3129 
Q 3597 2675 3597 1894 
z
M 3022 2063 
Q 3016 2534 2758 2815 
Q 2500 3097 2075 3097 
Q 1594 3097 1305 2825 
Q 1016 2553 972 2059 
L 3022 2063 
z
" transform="scale(0.015625)"/>
      <path id="DejaVuSans-41" d="M 2188 4044 
L 1331 1722 
L 3047 1722 
L 2188 4044 
z
M 1831 4666 
L 2547 4666 
L 4325 0 
L 3669 0 
L 3244 1197 
L 1141 1197 
L 716 0 
L 50 0 
L 1831 4666 
z
" transform="scale(0.015625)"/>
      <path id="DejaVuSans-3a" d="M 750 794 
L 1409 794 
L 1409 0 
L 750 0 
L 750 794 
z
M 750 3309 
L 1409 3309 
L 1409 2516 
L 750 2516 
L 750 3309 
z
" transform="scale(0.015625)"/>
      <path id="DejaVuSans-72" d="M 2631 2963 
Q 2534 3019 2420 3045 
Q 2306 3072 2169 3072 
Q 1681 3072 1420 2755 
Q 1159 2438 1159 1844 
L 1159 0 
L 581 0 
L 581 3500 
L 1159 3500 
L 1159 2956 
Q 1341 3275 1631 3429 
Q 1922 3584 2338 3584 
Q 2397 3584 2469 3576 
Q 2541 3569 2628 3553 
L 2631 2963 
z
" transform="scale(0.015625)"/>
      <path id="DejaVuSans-79" d="M 2059 -325 
Q 1816 -950 1584 -1140 
Q 1353 -1331 966 -1331 
L 506 -1331 
L 506 -850 
L 844 -850 
Q 1081 -850 1212 -737 
Q 1344 -625 1503 -206 
L 1606 56 
L 191 3500 
L 800 3500 
L 1894 763 
L 2988 3500 
L 3597 3500 
L 2059 -325 
z
" transform="scale(0.015625)"/>
      <path id="DejaVuSans-2b" d="M 2944 4013 
L 2944 2272 
L 4684 2272 
L 4684 1741 
L 2944 1741 
L 2944 0 
L 2419 0 
L 2419 1741 
L 678 1741 
L 678 2272 
L 2419 2272 
L 2419 4013 
L 2944 4013 
z
" transform="scale(0.015625)"/>
      <path id="DejaVuSans-75" d="M 544 1381 
L 544 3500 
L 1119 3500 
L 1119 1403 
Q 1119 906 1312 657 
Q 1506 409 1894 409 
Q 2359 409 2629 706 
Q 2900 1003 2900 1516 
L 2900 3500 
L 3475 3500 
L 3475 0 
L 2900 0 
L 2900 538 
Q 2691 219 2414 64 
Q 2138 -91 1772 -91 
Q 1169 -91 856 284 
Q 544 659 544 1381 
z
M 1991 3584 
L 1991 3584 
z
" transform="scale(0.015625)"/>
      <path id="DejaVuSans-64" d="M 2906 2969 
L 2906 4863 
L 3481 4863 
L 3481 0 
L 2906 0 
L 2906 525 
Q 2725 213 2448 61 
Q 2172 -91 1784 -91 
Q 1150 -91 751 415 
Q 353 922 353 1747 
Q 353 2572 751 3078 
Q 1150 3584 1784 3584 
Q 2172 3584 2448 3432 
Q 2725 3281 2906 2969 
z
M 947 1747 
Q 947 1113 1208 752 
Q 1469 391 1925 391 
Q 2381 391 2643 752 
Q 2906 1113 2906 1747 
Q 2906 2381 2643 2742 
Q 2381 3103 1925 3103 
Q 1469 3103 1208 2742 
Q 947 2381 947 1747 
z
" transform="scale(0.015625)"/>
     </defs>
     <use xlink:href="#DejaVuSans-28"/>
     <use xlink:href="#DejaVuSans-4d" transform="translate(39.013672 0)"/>
     <use xlink:href="#DejaVuSans-46" transform="translate(125.292969 0)"/>
     <use xlink:href="#DejaVuSans-45" transform="translate(182.8125 0)"/>
     <use xlink:href="#DejaVuSans-46" transform="translate(245.996094 0)"/>
     <use xlink:href="#DejaVuSans-20" transform="translate(303.515625 0)"/>
     <use xlink:href="#DejaVuSans-76" transform="translate(335.302734 0)"/>
     <use xlink:href="#DejaVuSans-73" transform="translate(394.482422 0)"/>
     <use xlink:href="#DejaVuSans-20" transform="translate(446.582031 0)"/>
     <use xlink:href="#DejaVuSans-4d" transform="translate(478.369141 0)"/>
     <use xlink:href="#DejaVuSans-4c" transform="translate(564.648438 0)"/>
     <use xlink:href="#DejaVuSans-49" transform="translate(620.361328 0)"/>
     <use xlink:href="#DejaVuSans-50" transform="translate(649.853516 0)"/>
     <use xlink:href="#DejaVuSans-29" transform="translate(710.15625 0)"/>
     <use xlink:href="#DejaVuSans-20" transform="translate(749.169922 0)"/>
     <use xlink:href="#DejaVuSans-2014" transform="translate(780.957031 0)"/>
     <use xlink:href="#DejaVuSans-20" transform="translate(880.957031 0)"/>
     <use xlink:href="#DejaVuSans-43" transform="translate(912.744141 0)"/>
     <use xlink:href="#DejaVuSans-2d" transform="translate(982.568359 0)"/>
     <use xlink:href="#DejaVuSans-66" transform="translate(1018.652344 0)"/>
     <use xlink:href="#DejaVuSans-6c" transform="translate(1053.857422 0)"/>
     <use xlink:href="#DejaVuSans-6f" transform="translate(1081.640625 0)"/>
     <use xlink:href="#DejaVuSans-77" transform="translate(1142.822266 0)"/>
     <use xlink:href="#DejaVuSans-20" transform="translate(1224.609375 0)"/>
     <use xlink:href="#DejaVuSans-2014" transform="translate(1256.396484 0)"/>
     <use xlink:href="#DejaVuSans-20" transform="translate(1356.396484 0)"/>
     <use xlink:href="#DejaVuSans-50" transform="translate(1388.183594 0)"/>
     <use xlink:href="#DejaVuSans-61" transform="translate(1443.986328 0)"/>
     <use xlink:href="#DejaVuSans-6e" transform="translate(1505.265625 0)"/>
     <use xlink:href="#DejaVuSans-65" transform="translate(1568.644531 0)"/>
     <use xlink:href="#DejaVuSans-6c" transform="translate(1630.167969 0)"/>
     <use xlink:href="#DejaVuSans-20" transform="translate(1657.951172 0)"/>
     <use xlink:href="#DejaVuSans-41" transform="translate(1689.738281 0)"/>
     <use xlink:href="#DejaVuSans-3a" transform="translate(1756.396484 0)"/>
     <use xlink:href="#DejaVuSans-20" transform="translate(1790.087891 0)"/>
     <use xlink:href="#DejaVuSans-6f" transform="translate(1821.875 0)"/>
     <use xlink:href="#DejaVuSans-76" transform="translate(1883.056641 0)"/>
     <use xlink:href="#DejaVuSans-65" transform="translate(1942.236328 0)"/>
     <use xlink:href="#DejaVuSans-72" transform="translate(2003.759766 0)"/>
     <use xlink:href="#DejaVuSans-6c" transform="translate(2044.873047 0)"/>
     <use xlink:href="#DejaVuSans-61" transform="translate(2072.65625 0)"/>
     <use xlink:href="#DejaVuSans-79" transform="translate(2133.935547 0)"/>
     <use xlink:href="#DejaVuSans-20" transform="translate(2193.115234 0)"/>
     <use xlink:href="#DejaVuSans-2b" transform="translate(2224.902344 0)"/>
     <use xlink:href="#DejaVuSans-20" transform="translate(2308.691406 0)"/>
     <use xlink:href="#DejaVuSans-6e" transform="translate(2340.478516 0)"/>
     <use xlink:href="#DejaVuSans-75" transform="translate(2403.857422 0)"/>
     <use xlink:href="#DejaVuSans-6c" transform="translate(2467.236328 0)"/>
     <use xlink:href="#DejaVuSans-6c" transform="translate(2495.019531 0)"/>
     <use xlink:href="#DejaVuSans-20" transform="translate(2522.802734 0)"/>
     <use xlink:href="#DejaVuSans-62" transform="translate(2554.589844 0)"/>
     <use xlink:href="#DejaVuSans-61" transform="translate(2618.066406 0)"/>
     <use xlink:href="#DejaVuSans-6e" transform="translate(2679.345703 0)"/>
     <use xlink:href="#DejaVuSans-64" transform="translate(2742.724609 0)"/>
     <use xlink:href="#DejaVuSans-73" transform="translate(2806.201172 0)"/>
    </g>
   </g>
   <g id="legend_1">
    <g id="patch_7">
     <path d="M 79.2 83.990437 
L 99.2 83.990437 
L 99.2 76.990437 
L 79.2 76.990437 
z
" style="fill: #1f77b4; fill-opacity: 0.15"/>
    </g>
    <g id="text_13">
     <!-- MFEF→MLIP null μ±σ -->
     <g transform="translate(107.2 83.990437) scale(0.1 -0.1)">
      <defs>
       <path id="DejaVuSans-2192" d="M 5050 2147 
L 5050 1866 
L 3822 638 
L 3447 1013 
L 4175 1741 
L 366 1741 
L 366 2272 
L 4175 2272 
L 3447 3000 
L 3822 3375 
L 5050 2147 
z
" transform="scale(0.015625)"/>
       <path id="DejaVuSans-3bc" d="M 544 -1331 
L 544 3500 
L 1119 3500 
L 1119 1325 
Q 1119 872 1334 640 
Q 1550 409 1972 409 
Q 2434 409 2667 671 
Q 2900 934 2900 1459 
L 2900 3500 
L 3475 3500 
L 3475 806 
Q 3475 619 3529 530 
Q 3584 441 3700 441 
Q 3728 441 3778 458 
Q 3828 475 3916 513 
L 3916 50 
Q 3788 -22 3673 -56 
Q 3559 -91 3450 -91 
Q 3234 -91 3106 31 
Q 2978 153 2931 403 
Q 2775 156 2548 32 
Q 2322 -91 2016 -91 
Q 1697 -91 1473 31 
Q 1250 153 1119 397 
L 1119 -1331 
L 544 -1331 
z
" transform="scale(0.015625)"/>
       <path id="DejaVuSans-b1" d="M 2944 4013 
L 2944 2803 
L 4684 2803 
L 4684 2272 
L 2944 2272 
L 2944 1063 
L 2419 1063 
L 2419 2272 
L 678 2272 
L 678 2803 
L 2419 2803 
L 2419 4013 
L 2944 4013 
z
M 678 531 
L 4684 531 
L 4684 0 
L 678 0 
L 678 531 
z
" transform="scale(0.015625)"/>
       <path id="DejaVuSans-3c3" d="M 1959 3044 
Q 1484 3044 1228 2700 
Q 959 2341 959 1747 
Q 959 1119 1226 758 
Q 1494 397 1959 397 
Q 2419 397 2687 759 
Q 2956 1122 2956 1747 
Q 2956 2319 2688 2700 
Q 2441 3044 1959 3044 
z
M 1959 3500 
L 3869 3500 
L 3869 2925 
L 3225 2925 
Q 3566 2438 3566 1747 
Q 3566 888 3138 400 
Q 2709 -91 1959 -91 
Q 1206 -91 781 400 
Q 353 888 353 1747 
Q 353 2613 781 3097 
Q 1134 3500 1959 3500 
z
" transform="scale(0.015625)"/>
      </defs>
      <use xlink:href="#DejaVuSans-4d"/>
      <use xlink:href="#DejaVuSans-46" transform="translate(86.279297 0)"/>
      <use xlink:href="#DejaVuSans-45" transform="translate(143.798828 0)"/>
      <use xlink:href="#DejaVuSans-46" transform="translate(206.982422 0)"/>
      <use xlink:href="#DejaVuSans-2192" transform="translate(264.501953 0)"/>
      <use xlink:href="#DejaVuSans-4d" transform="translate(348.291016 0)"/>
      <use xlink:href="#DejaVuSans-4c" transform="translate(434.570312 0)"/>
      <use xlink:href="#DejaVuSans-49" transform="translate(490.283203 0)"/>
      <use xlink:href="#DejaVuSans-50" transform="translate(519.775391 0)"/>
      <use xlink:href="#DejaVuSans-20" transform="translate(580.078125 0)"/>
      <use xlink:href="#DejaVuSans-6e" transform="translate(611.865234 0)"/>
      <use xlink:href="#DejaVuSans-75" transform="translate(675.244141 0)"/>
      <use xlink:href="#DejaVuSans-6c" transform="translate(738.623047 0)"/>
      <use xlink:href="#DejaVuSans-6c" transform="translate(766.40625 0)"/>
      <use xlink:href="#DejaVuSans-20" transform="translate(794.189453 0)"/>
      <use xlink:href="#DejaVuSans-3bc" transform="translate(825.976562 0)"/>
      <use xlink:href="#DejaVuSans-b1" transform="translate(889.599609 0)"/>
      <use xlink:href="#DejaVuSans-3c3" transform="translate(973.388672 0)"/>
     </g>
    </g>
    <g id="patch_8">
     <path d="M 79.2 98.668563 
L 99.2 98.668563 
L 99.2 91.668563 
L 79.2 91.668563 
z
" style="fill: #ff7f0e; fill-opacity: 0.15"/>
    </g>
    <g id="text_14">
     <!-- MLIP→MFEF null μ±σ -->
     <g transform="translate(107.2 98.668563) scale(0.1 -0.1)">
      <use xlink:href="#DejaVuSans-4d"/>
      <use xlink:href="#DejaVuSans-4c" transform="translate(86.279297 0)"/>
      <use xlink:href="#DejaVuSans-49" transform="translate(141.992188 0)"/>
      <use xlink:href="#DejaVuSans-50" transform="translate(171.484375 0)"/>
      <use xlink:href="#DejaVuSans-2192" transform="translate(231.787109 0)"/>
      <use xlink:href="#DejaVuSans-4d" transform="translate(315.576172 0)"/>
      <use xlink:href="#DejaVuSans-46" transform="translate(401.855469 0)"/>
      <use xlink:href="#DejaVuSans-45" transform="translate(459.375 0)"/>
      <use xlink:href="#DejaVuSans-46" transform="translate(522.558594 0)"/>
      <use xlink:href="#DejaVuSans-20" transform="translate(580.078125 0)"/>
      <use xlink:href="#DejaVuSans-6e" transform="translate(611.865234 0)"/>
      <use xlink:href="#DejaVuSans-75" transform="translate(675.244141 0)"/>
      <use xlink:href="#DejaVuSans-6c" transform="translate(738.623047 0)"/>
      <use xlink:href="#DejaVuSans-6c" transform="translate(766.40625 0)"/>
      <use xlink:href="#DejaVuSans-20" transform="translate(794.189453 0)"/>
      <use xlink:href="#DejaVuSans-3bc" transform="translate(825.976562 0)"/>
      <use xlink:href="#DejaVuSans-b1" transform="translate(889.599609 0)"/>
      <use xlink:href="#DejaVuSans-3c3" transform="translate(973.388672 0)"/>
     </g>
    </g>
    <g id="line2d_16">
     <path d="M 230.876562 80.490437 
L 240.876562 80.490437 
L 250.876562 80.490437 
" style="fill: none; stroke: #1f77b4; stroke-width: 2.2; stroke-linecap: square"/>
    </g>
    <g id="text_15">
     <!-- MFEF→MLIP -->
     <g transform="translate(258.876562 83.990437) scale(0.1 -0.1)">
      <use xlink:href="#DejaVuSans-4d"/>
      <use xlink:href="#DejaVuSans-46" transform="translate(86.279297 0)"/>
      <use xlink:href="#DejaVuSans-45" transform="translate(143.798828 0)"/>
      <use xlink:href="#DejaVuSans-46" transform="translate(206.982422 0)"/>
      <use xlink:href="#DejaVuSans-2192" transform="translate(264.501953 0)"/>
      <use xlink:href="#DejaVuSans-4d" transform="translate(348.291016 0)"/>
      <use xlink:href="#DejaVuSans-4c" transform="translate(434.570312 0)"/>
      <use xlink:href="#DejaVuSans-49" transform="translate(490.283203 0)"/>
      <use xlink:href="#DejaVuSans-50" transform="translate(519.775391 0)"/>
     </g>
    </g>
    <g id="line2d_17">
     <path d="M 230.876562 95.168563 
L 240.876562 95.168563 
L 250.876562 95.168563 
" style="fill: none; stroke: #ff7f0e; stroke-width: 2.2; stroke-linecap: square"/>
    </g>
    <g id="text_16">
     <!-- MLIP→MFEF -->
     <g transform="translate(258.876562 98.668563) scale(0.1 -0.1)">
      <use xlink:href="#DejaVuSans-4d"/>
      <use xlink:href="#DejaVuSans-4c" transform="translate(86.279297 0)"/>
      <use xlink:href="#DejaVuSans-49" transform="translate(141.992188 0)"/>
      <use xlink:href="#DejaVuSans-50" transform="translate(171.484375 0)"/>
      <use xlink:href="#DejaVuSans-2192" transform="translate(231.787109 0)"/>
      <use xlink:href="#DejaVuSans-4d" transform="translate(315.576172 0)"/>
      <use xlink:href="#DejaVuSans-46" transform="translate(401.855469 0)"/>
      <use xlink:href="#DejaVuSans-45" transform="translate(459.375 0)"/>
      <use xlink:href="#DejaVuSans-46" transform="translate(522.558594 0)"/>
     </g>
    </g>
   </g>
  </g>
  <g id="axes_2">
   <g id="patch_9">
    <path d="M 70.2 353.106 
L 505.44 353.106 
L 505.44 237.276 
L 70.2 237.276 
z
" style="fill: #ffffff"/>
   </g>
   <g id="matplotlib.axis_3">
    <g id="xtick_7">
     <g id="line2d_18">
      <g>
       <use xlink:href="#m73f84058f9" x="87.985286" y="353.106" style="stroke: #000000; stroke-width: 0.8"/>
      </g>
     </g>
     <g id="text_17">
      <!-- −200 -->
      <g transform="translate(74.251693 367.704438) scale(0.1 -0.1)">
       <use xlink:href="#DejaVuSans-2212"/>
       <use xlink:href="#DejaVuSans-32" transform="translate(83.789062 0)"/>
       <use xlink:href="#DejaVuSans-30" transform="translate(147.412109 0)"/>
       <use xlink:href="#DejaVuSans-30" transform="translate(211.035156 0)"/>
      </g>
     </g>
    </g>
    <g id="xtick_8">
     <g id="line2d_19">
      <g>
       <use xlink:href="#m73f84058f9" x="167.91917" y="353.106" style="stroke: #000000; stroke-width: 0.8"/>
      </g>
     </g>
     <g id="text_18">
      <!-- 0 -->
      <g transform="translate(164.73792 367.704438) scale(0.1 -0.1)">
       <use xlink:href="#DejaVuSans-30"/>
      </g>
     </g>
    </g>
    <g id="xtick_9">
     <g id="line2d_20">
      <g>
       <use xlink:href="#m73f84058f9" x="247.853053" y="353.106" style="stroke: #000000; stroke-width: 0.8"/>
      </g>
     </g>
     <g id="text_19">
      <!-- 200 -->
      <g transform="translate(238.309303 367.704438) scale(0.1 -0.1)">
       <use xlink:href="#DejaVuSans-32"/>
       <use xlink:href="#DejaVuSans-30" transform="translate(63.623047 0)"/>
       <use xlink:href="#DejaVuSans-30" transform="translate(127.246094 0)"/>
      </g>
     </g>
    </g>
    <g id="xtick_10">
     <g id="line2d_21">
      <g>
       <use xlink:href="#m73f84058f9" x="327.786937" y="353.106" style="stroke: #000000; stroke-width: 0.8"/>
      </g>
     </g>
     <g id="text_20">
      <!-- 400 -->
      <g transform="translate(318.243187 367.704438) scale(0.1 -0.1)">
       <use xlink:href="#DejaVuSans-34"/>
       <use xlink:href="#DejaVuSans-30" transform="translate(63.623047 0)"/>
       <use xlink:href="#DejaVuSans-30" transform="translate(127.246094 0)"/>
      </g>
     </g>
    </g>
    <g id="xtick_11">
     <g id="line2d_22">
      <g>
       <use xlink:href="#m73f84058f9" x="407.720821" y="353.106" style="stroke: #000000; stroke-width: 0.8"/>
      </g>
     </g>
     <g id="text_21">
      <!-- 600 -->
      <g transform="translate(398.177071 367.704438) scale(0.1 -0.1)">
       <use xlink:href="#DejaVuSans-36"/>
       <use xlink:href="#DejaVuSans-30" transform="translate(63.623047 0)"/>
       <use xlink:href="#DejaVuSans-30" transform="translate(127.246094 0)"/>
      </g>
     </g>
    </g>
    <g id="xtick_12">
     <g id="line2d_23">
      <g>
       <use xlink:href="#m73f84058f9" x="487.654704" y="353.106" style="stroke: #000000; stroke-width: 0.8"/>
      </g>
     </g>
     <g id="text_22">
      <!-- 800 -->
      <g transform="translate(478.110954 367.704438) scale(0.1 -0.1)">
       <use xlink:href="#DejaVuSans-38"/>
       <use xlink:href="#DejaVuSans-30" transform="translate(63.623047 0)"/>
       <use xlink:href="#DejaVuSans-30" transform="translate(127.246094 0)"/>
      </g>
     </g>
    </g>
   </g>
   <g id="matplotlib.axis_4">
    <g id="ytick_5">
     <g id="line2d_24">
      <g>
       <use xlink:href="#mc0506f8190" x="70.2" y="345.618657" style="stroke: #000000; stroke-width: 0.8"/>
      </g>
     </g>
     <g id="text_23">
      <!-- −10 -->
      <g transform="translate(42.095313 349.417876) scale(0.1 -0.1)">
       <use xlink:href="#DejaVuSans-2212"/>
       <use xlink:href="#DejaVuSans-31" transform="translate(83.789062 0)"/>
       <use xlink:href="#DejaVuSans-30" transform="translate(147.412109 0)"/>
      </g>
     </g>
    </g>
    <g id="ytick_6">
     <g id="line2d_25">
      <g>
       <use xlink:href="#mc0506f8190" x="70.2" y="303.492551" style="stroke: #000000; stroke-width: 0.8"/>
      </g>
     </g>
     <g id="text_24">
      <!-- 0 -->
      <g transform="translate(56.8375 307.29177) scale(0.1 -0.1)">
       <use xlink:href="#DejaVuSans-30"/>
      </g>
     </g>
    </g>
    <g id="ytick_7">
     <g id="line2d_26">
      <g>
       <use xlink:href="#mc0506f8190" x="70.2" y="261.366446" style="stroke: #000000; stroke-width: 0.8"/>
      </g>
     </g>
     <g id="text_25">
      <!-- 10 -->
      <g transform="translate(50.475 265.165664) scale(0.1 -0.1)">
       <use xlink:href="#DejaVuSans-31"/>
       <use xlink:href="#DejaVuSans-30" transform="translate(63.623047 0)"/>
      </g>
     </g>
    </g>
    <g id="text_26">
     <!-- ΔΔLL (bits) -->
     <g transform="translate(36.015625 322.22225) rotate(-90) scale(0.1 -0.1)">
      <use xlink:href="#DejaVuSans-394"/>
      <use xlink:href="#DejaVuSans-394" transform="translate(68.408203 0)"/>
      <use xlink:href="#DejaVuSans-4c" transform="translate(136.816406 0)"/>
      <use xlink:href="#DejaVuSans-4c" transform="translate(192.529297 0)"/>
      <use xlink:href="#DejaVuSans-20" transform="translate(248.242188 0)"/>
      <use xlink:href="#DejaVuSans-28" transform="translate(280.029297 0)"/>
      <use xlink:href="#DejaVuSans-62" transform="translate(319.042969 0)"/>
      <use xlink:href="#DejaVuSans-69" transform="translate(382.519531 0)"/>
      <use xlink:href="#DejaVuSans-74" transform="translate(410.302734 0)"/>
      <use xlink:href="#DejaVuSans-73" transform="translate(449.511719 0)"/>
      <use xlink:href="#DejaVuSans-29" transform="translate(501.611328 0)"/>
     </g>
    </g>
   </g>
   <g id="line2d_27">
    <path d="M 167.91917 353.106 
L 167.91917 237.276 
" clip-path="url(#p6d24b04d5b)" style="fill: none; stroke-dasharray: 2.96,1.28; stroke-dashoffset: 0; stroke: #000000; stroke-width: 0.8"/>
   </g>
   <g id="line2d_28">
    <path d="M 70.2 303.492551 
L 505.44 303.492551 
" clip-path="url(#p6d24b04d5b)" style="fill: none; stroke-dasharray: 0.8,1.32; stroke-dashoffset: 0; stroke: #000000; stroke-width: 0.8"/>
   </g>
   <g id="line2d_29">
    <path d="M 89.983636 285.351424 
L 93.980327 317.137435 
L 97.977023 317.430451 
L 101.973713 319.391041 
L 105.97041 298.68882 
L 109.967106 293.340511 
L 113.963796 307.646902 
L 117.960493 297.055832 
L 121.957186 289.423323 
L 125.953882 322.484565 
L 129.950576 330.630455 
L 133.947269 307.623619 
L 137.943962 302.754986 
L 141.940659 290.255884 
L 145.937352 306.378731 
L 149.934045 300.55496 
L 153.93074 283.758214 
L 157.927434 309.27714 
L 161.924129 270.338595 
L 165.920823 316.185524 
L 169.917517 302.887474 
L 173.914211 295.340769 
L 177.910906 317.255762 
L 181.9076 314.55233 
L 185.904294 296.600286 
L 189.900988 292.240787 
L 193.897681 306.903059 
L 197.894377 300.00886 
L 201.891071 307.311446 
L 205.887764 323.048983 
L 209.884457 325.591608 
L 213.881154 294.399087 
L 217.877847 286.199126 
L 221.874543 279.548704 
L 225.871234 302.747762 
L 229.86793 330.242371 
L 233.864626 298.278909 
L 237.861317 301.033438 
L 241.858013 275.540609 
L 245.854704 303.10354 
L 249.8514 317.727391 
L 253.848096 296.626694 
L 257.844787 285.498541 
L 261.841483 314.106621 
L 265.838179 347.841 
L 269.83487 303.956728 
L 273.83156 317.418958 
L 277.828262 303.153146 
L 281.824953 270.886018 
L 285.821643 299.239351 
L 289.818345 330.42497 
L 293.815036 282.604053 
L 297.811726 284.760322 
L 301.808428 305.224243 
L 305.805119 299.450102 
L 309.801809 296.412424 
L 313.798511 296.804152 
L 317.795202 314.306571 
L 321.791892 300.223137 
L 325.788594 297.383915 
L 329.785285 292.011714 
L 333.781975 282.828098 
L 337.778677 294.464119 
L 341.775368 296.667629 
L 345.772058 332.395276 
L 349.76876 299.152909 
L 353.765451 301.977523 
L 357.762141 312.484272 
L 361.758843 280.658473 
L 365.755534 333.434263 
L 369.752224 242.541 
L 373.748914 282.271074 
L 377.745605 324.589342 
L 381.742319 281.291701 
L 385.739009 304.171716 
L 389.7357 248.395522 
L 393.73239 316.081359 
L 397.72908 308.791618 
L 401.725771 311.064819 
L 405.722485 306.292697 
L 409.719175 312.886788 
L 413.715866 303.2281 
L 417.712556 307.176838 
L 421.709246 301.43467 
L 425.705937 312.491831 
L 429.702627 312.523673 
L 433.699341 308.204791 
L 437.696032 316.483325 
L 441.692722 312.415705 
L 445.689412 315.337268 
L 449.686103 295.720017 
L 453.682793 317.000714 
L 457.679507 292.264333 
L 461.676198 337.706882 
L 465.672888 310.852574 
L 469.669578 292.043002 
L 473.666269 308.932232 
L 477.662959 294.991118 
L 481.659673 248.311181 
L 485.656364 299.991116 
" clip-path="url(#p6d24b04d5b)" style="fill: none; stroke: #d62728; stroke-width: 2.2; stroke-linecap: square"/>
   </g>
   <g id="line2d_30">
    <defs>
     <path id="m87e8fa96ef" d="M 0 1.25 
C 0.331504 1.25 0.649475 1.118292 0.883883 0.883883 
C 1.118292 0.649475 1.25 0.331504 1.25 0 
C 1.25 -0.331504 1.118292 -0.649475 0.883883 -0.883883 
C 0.649475 -1.118292 0.331504 -1.25 0 -1.25 
C -0.331504 -1.25 -0.649475 -1.118292 -0.883883 -0.883883 
C -1.118292 -0.649475 -1.25 -0.331504 -1.25 0 
C -1.25 0.331504 -1.118292 0.649475 -0.883883 0.883883 
C -0.649475 1.118292 -0.331504 1.25 0 1.25 
z
" style="stroke: #000000"/>
    </defs>
    <g clip-path="url(#p6d24b04d5b)">
     <use xlink:href="#m87e8fa96ef" x="101.973713" y="319.391041" style="stroke: #000000"/>
     <use xlink:href="#m87e8fa96ef" x="161.924129" y="270.338595" style="stroke: #000000"/>
     <use xlink:href="#m87e8fa96ef" x="205.887764" y="323.048983" style="stroke: #000000"/>
     <use xlink:href="#m87e8fa96ef" x="209.884457" y="325.591608" style="stroke: #000000"/>
     <use xlink:href="#m87e8fa96ef" x="221.874543" y="279.548704" style="stroke: #000000"/>
     <use xlink:href="#m87e8fa96ef" x="229.86793" y="330.242371" style="stroke: #000000"/>
     <use xlink:href="#m87e8fa96ef" x="265.838179" y="347.841" style="stroke: #000000"/>
     <use xlink:href="#m87e8fa96ef" x="281.824953" y="270.886018" style="stroke: #000000"/>
     <use xlink:href="#m87e8fa96ef" x="289.818345" y="330.42497" style="stroke: #000000"/>
     <use xlink:href="#m87e8fa96ef" x="293.815036" y="282.604053" style="stroke: #000000"/>
     <use xlink:href="#m87e8fa96ef" x="297.811726" y="284.760322" style="stroke: #000000"/>
     <use xlink:href="#m87e8fa96ef" x="333.781975" y="282.828098" style="stroke: #000000"/>
     <use xlink:href="#m87e8fa96ef" x="345.772058" y="332.395276" style="stroke: #000000"/>
     <use xlink:href="#m87e8fa96ef" x="365.755534" y="333.434263" style="stroke: #000000"/>
     <use xlink:href="#m87e8fa96ef" x="369.752224" y="242.541" style="stroke: #000000"/>
     <use xlink:href="#m87e8fa96ef" x="373.748914" y="282.271074" style="stroke: #000000"/>
     <use xlink:href="#m87e8fa96ef" x="377.745605" y="324.589342" style="stroke: #000000"/>
     <use xlink:href="#m87e8fa96ef" x="389.7357" y="248.395522" style="stroke: #000000"/>
     <use xlink:href="#m87e8fa96ef" x="461.676198" y="337.706882" style="stroke: #000000"/>
     <use xlink:href="#m87e8fa96ef" x="481.659673" y="248.311181" style="stroke: #000000"/>
    </g>
   </g>
   <g id="patch_10">
    <path d="M 70.2 353.106 
L 70.2 237.276 
" style="fill: none; stroke: #000000; stroke-width: 0.8; stroke-linejoin: miter; stroke-linecap: square"/>
   </g>
   <g id="patch_11">
    <path d="M 505.44 353.106 
L 505.44 237.276 
" style="fill: none; stroke: #000000; stroke-width: 0.8; stroke-linejoin: miter; stroke-linecap: square"/>
   </g>
   <g id="patch_12">
    <path d="M 70.2 353.106 
L 505.44 353.106 
" style="fill: none; stroke: #000000; stroke-width: 0.8; stroke-linejoin: miter; stroke-linecap: square"/>
   </g>
   <g id="patch_13">
    <path d="M 70.2 237.276 
L 505.44 237.276 
" style="fill: none; stroke: #000000; stroke-width: 0.8; stroke-linejoin: miter; stroke-linecap: square"/>
   </g>
   <g id="text_27">
    <!-- Panel B: pair-diff with significance dots -->
    <g transform="translate(171.554063 231.276) scale(0.12 -0.12)">
     <defs>
      <path id="DejaVuSans-42" d="M 1259 2228 
L 1259 519 
L 2272 519 
Q 2781 519 3026 730 
Q 3272 941 3272 1375 
Q 3272 1813 3026 2020 
Q 2781 2228 2272 2228 
L 1259 2228 
z
M 1259 4147 
L 1259 2741 
L 2194 2741 
Q 2656 2741 2882 2914 
Q 3109 3088 3109 3444 
Q 3109 3797 2882 3972 
Q 2656 4147 2194 4147 
L 1259 4147 
z
M 628 4666 
L 2241 4666 
Q 2963 4666 3353 4366 
Q 3744 4066 3744 3513 
Q 3744 3084 3544 2831 
Q 3344 2578 2956 2516 
Q 3422 2416 3680 2098 
Q 3938 1781 3938 1306 
Q 3938 681 3513 340 
Q 3088 0 2303 0 
L 628 0 
L 628 4666 
z
" transform="scale(0.015625)"/>
      <path id="DejaVuSans-70" d="M 1159 525 
L 1159 -1331 
L 581 -1331 
L 581 3500 
L 1159 3500 
L 1159 2969 
Q 1341 3281 1617 3432 
Q 1894 3584 2278 3584 
Q 2916 3584 3314 3078 
Q 3713 2572 3713 1747 
Q 3713 922 3314 415 
Q 2916 -91 2278 -91 
Q 1894 -91 1617 61 
Q 1341 213 1159 525 
z
M 3116 1747 
Q 3116 2381 2855 2742 
Q 2594 3103 2138 3103 
Q 1681 3103 1420 2742 
Q 1159 2381 1159 1747 
Q 1159 1113 1420 752 
Q 1681 391 2138 391 
Q 2594 391 2855 752 
Q 3116 1113 3116 1747 
z
" transform="scale(0.015625)"/>
      <path id="DejaVuSans-68" d="M 3513 2113 
L 3513 0 
L 2938 0 
L 2938 2094 
Q 2938 2591 2744 2837 
Q 2550 3084 2163 3084 
Q 1697 3084 1428 2787 
Q 1159 2491 1159 1978 
L 1159 0 
L 581 0 
L 581 4863 
L 1159 4863 
L 1159 2956 
Q 1366 3272 1645 3428 
Q 1925 3584 2291 3584 
Q 2894 3584 3203 3211 
Q 3513 2838 3513 2113 
z
" transform="scale(0.015625)"/>
      <path id="DejaVuSans-67" d="M 2906 1791 
Q 2906 2416 2648 2759 
Q 2391 3103 1925 3103 
Q 1463 3103 1205 2759 
Q 947 2416 947 1791 
Q 947 1169 1205 825 
Q 1463 481 1925 481 
Q 2391 481 2648 825 
Q 2906 1169 2906 1791 
z
M 3481 434 
Q 3481 -459 3084 -895 
Q 2688 -1331 1869 -1331 
Q 1566 -1331 1297 -1286 
Q 1028 -1241 775 -1147 
L 775 -588 
Q 1028 -725 1275 -790 
Q 1522 -856 1778 -856 
Q 2344 -856 2625 -561 
Q 2906 -266 2906 331 
L 2906 616 
Q 2728 306 2450 153 
Q 2172 0 1784 0 
Q 1141 0 747 490 
Q 353 981 353 1791 
Q 353 2603 747 3093 
Q 1141 3584 1784 3584 
Q 2172 3584 2450 3431 
Q 2728 3278 2906 2969 
L 2906 3500 
L 3481 3500 
L 3481 434 
z
" transform="scale(0.015625)"/>
      <path id="DejaVuSans-63" d="M 3122 3366 
L 3122 2828 
Q 2878 2963 2633 3030 
Q 2388 3097 2138 3097 
Q 1578 3097 1268 2742 
Q 959 2388 959 1747 
Q 959 1106 1268 751 
Q 1578 397 2138 397 
Q 2388 397 2633 464 
Q 2878 531 3122 666 
L 3122 134 
Q 2881 22 2623 -34 
Q 2366 -91 2075 -91 
Q 1284 -91 818 406 
Q 353 903 353 1747 
Q 353 2603 823 3093 
Q 1294 3584 2113 3584 
Q 2378 3584 2631 3529 
Q 2884 3475 3122 3366 
z
" transform="scale(0.015625)"/>
     </defs>
     <use xlink:href="#DejaVuSans-50"/>
     <use xlink:href="#DejaVuSans-61" transform="translate(55.802734 0)"/>
     <use xlink:href="#DejaVuSans-6e" transform="translate(117.082031 0)"/>
     <use xlink:href="#DejaVuSans-65" transform="translate(180.460938 0)"/>
     <use xlink:href="#DejaVuSans-6c" transform="translate(241.984375 0)"/>
     <use xlink:href="#DejaVuSans-20" transform="translate(269.767578 0)"/>
     <use xlink:href="#DejaVuSans-42" transform="translate(301.554688 0)"/>
     <use xlink:href="#DejaVuSans-3a" transform="translate(370.158203 0)"/>
     <use xlink:href="#DejaVuSans-20" transform="translate(403.849609 0)"/>
     <use xlink:href="#DejaVuSans-70" transform="translate(435.636719 0)"/>
     <use xlink:href="#DejaVuSans-61" transform="translate(499.113281 0)"/>
     <use xlink:href="#DejaVuSans-69" transform="translate(560.392578 0)"/>
     <use xlink:href="#DejaVuSans-72" transform="translate(588.175781 0)"/>
     <use xlink:href="#DejaVuSans-2d" transform="translate(622.914062 0)"/>
     <use xlink:href="#DejaVuSans-64" transform="translate(658.998047 0)"/>
     <use xlink:href="#DejaVuSans-69" transform="translate(722.474609 0)"/>
     <use xlink:href="#DejaVuSans-66" transform="translate(750.257812 0)"/>
     <use xlink:href="#DejaVuSans-66" transform="translate(785.462891 0)"/>
     <use xlink:href="#DejaVuSans-20" transform="translate(820.667969 0)"/>
     <use xlink:href="#DejaVuSans-77" transform="translate(852.455078 0)"/>
     <use xlink:href="#DejaVuSans-69" transform="translate(934.242188 0)"/>
     <use xlink:href="#DejaVuSans-74" transform="translate(962.025391 0)"/>
     <use xlink:href="#DejaVuSans-68" transform="translate(1001.234375 0)"/>
     <use xlink:href="#DejaVuSans-20" transform="translate(1064.613281 0)"/>
     <use xlink:href="#DejaVuSans-73" transform="translate(1096.400391 0)"/>
     <use xlink:href="#DejaVuSans-69" transform="translate(1148.5 0)"/>
     <use xlink:href="#DejaVuSans-67" transform="translate(1176.283203 0)"/>
     <use xlink:href="#DejaVuSans-6e" transform="translate(1239.759766 0)"/>
     <use xlink:href="#DejaVuSans-69" transform="translate(1303.138672 0)"/>
     <use xlink:href="#DejaVuSans-66" transform="translate(1330.921875 0)"/>
     <use xlink:href="#DejaVuSans-69" transform="translate(1366.126953 0)"/>
     <use xlink:href="#DejaVuSans-63" transform="translate(1393.910156 0)"/>
     <use xlink:href="#DejaVuSans-61" transform="translate(1448.890625 0)"/>
     <use xlink:href="#DejaVuSans-6e" transform="translate(1510.169922 0)"/>
     <use xlink:href="#DejaVuSans-63" transform="translate(1573.548828 0)"/>
     <use xlink:href="#DejaVuSans-65" transform="translate(1628.529297 0)"/>
     <use xlink:href="#DejaVuSans-20" transform="translate(1690.052734 0)"/>
     <use xlink:href="#DejaVuSans-64" transform="translate(1721.839844 0)"/>
     <use xlink:href="#DejaVuSans-6f" transform="translate(1785.316406 0)"/>
     <use xlink:href="#DejaVuSans-74" transform="translate(1846.498047 0)"/>
     <use xlink:href="#DejaVuSans-73" transform="translate(1885.707031 0)"/>
    </g>
   </g>
   <g id="legend_2">
    <g id="line2d_31">
     <path d="M 79.2 250.374437 
L 89.2 250.374437 
L 99.2 250.374437 
" style="fill: none; stroke: #d62728; stroke-width: 2.2; stroke-linecap: square"/>
    </g>
    <g id="text_28">
     <!-- (A→B − B→A) -->
     <g transform="translate(107.2 253.874437) scale(0.1 -0.1)">
      <use xlink:href="#DejaVuSans-28"/>
      <use xlink:href="#DejaVuSans-41" transform="translate(39.013672 0)"/>
      <use xlink:href="#DejaVuSans-2192" transform="translate(107.421875 0)"/>
      <use xlink:href="#DejaVuSans-42" transform="translate(191.210938 0)"/>
      <use xlink:href="#DejaVuSans-20" transform="translate(259.814453 0)"/>
      <use xlink:href="#DejaVuSans-2212" transform="translate(291.601562 0)"/>
      <use xlink:href="#DejaVuSans-20" transform="translate(375.390625 0)"/>
      <use xlink:href="#DejaVuSans-42" transform="translate(407.177734 0)"/>
      <use xlink:href="#DejaVuSans-2192" transform="translate(475.78125 0)"/>
      <use xlink:href="#DejaVuSans-41" transform="translate(559.570312 0)"/>
      <use xlink:href="#DejaVuSans-29" transform="translate(627.978516 0)"/>
     </g>
    </g>
    <g id="line2d_32">
     <g>
      <use xlink:href="#m87e8fa96ef" x="89.2" y="265.052563" style="stroke: #000000"/>
     </g>
    </g>
    <g id="text_29">
     <!-- p&lt;0.05 (one-sided) -->
     <g transform="translate(107.2 268.552563) scale(0.1 -0.1)">
      <defs>
       <path id="DejaVuSans-3c" d="M 4684 3150 
L 1459 2003 
L 4684 863 
L 4684 294 
L 678 1747 
L 678 2266 
L 4684 3719 
L 4684 3150 
z
" transform="scale(0.015625)"/>
       <path id="DejaVuSans-2e" d="M 684 794 
L 1344 794 
L 1344 0 
L 684 0 
L 684 794 
z
" transform="scale(0.015625)"/>
      </defs>
      <use xlink:href="#DejaVuSans-70"/>
      <use xlink:href="#DejaVuSans-3c" transform="translate(63.476562 0)"/>
      <use xlink:href="#DejaVuSans-30" transform="translate(147.265625 0)"/>
      <use xlink:href="#DejaVuSans-2e" transform="translate(210.888672 0)"/>
      <use xlink:href="#DejaVuSans-30" transform="translate(242.675781 0)"/>
      <use xlink:href="#DejaVuSans-35" transform="translate(306.298828 0)"/>
      <use xlink:href="#DejaVuSans-20" transform="translate(369.921875 0)"/>
      <use xlink:href="#DejaVuSans-28" transform="translate(401.708984 0)"/>
      <use xlink:href="#DejaVuSans-6f" transform="translate(440.722656 0)"/>
      <use xlink:href="#DejaVuSans-6e" transform="translate(501.904297 0)"/>
      <use xlink:href="#DejaVuSans-65" transform="translate(565.283203 0)"/>
      <use xlink:href="#DejaVuSans-2d" transform="translate(626.806641 0)"/>
      <use xlink:href="#DejaVuSans-73" transform="translate(662.890625 0)"/>
      <use xlink:href="#DejaVuSans-69" transform="translate(714.990234 0)"/>
      <use xlink:href="#DejaVuSans-64" transform="translate(742.773438 0)"/>
      <use xlink:href="#DejaVuSans-65" transform="translate(806.25 0)"/>
      <use xlink:href="#DejaVuSans-64" transform="translate(867.773438 0)"/>
      <use xlink:href="#DejaVuSans-29" transform="translate(931.25 0)"/>
     </g>
    </g>
   </g>
  </g>
  <g id="axes_3">
   <g id="patch_14">
    <path d="M 70.2 499.824 
L 505.44 499.824 
L 505.44 383.994 
L 70.2 383.994 
z
" style="fill: #ffffff"/>
   </g>
   <g id="matplotlib.axis_5">
    <g id="xtick_13">
     <g id="line2d_33">
      <g>
       <use xlink:href="#m73f84058f9" x="87.985286" y="499.824" style="stroke: #000000; stroke-width: 0.8"/>
      </g>
     </g>
     <g id="text_30">
      <!-- −200 -->
      <g transform="translate(74.251693 514.422438) scale(0.1 -0.1)">
       <use xlink:href="#DejaVuSans-2212"/>
       <use xlink:href="#DejaVuSans-32" transform="translate(83.789062 0)"/>
       <use xlink:href="#DejaVuSans-30" transform="translate(147.412109 0)"/>
       <use xlink:href="#DejaVuSans-30" transform="translate(211.035156 0)"/>
      </g>
     </g>
    </g>
    <g id="xtick_14">
     <g id="line2d_34">
      <g>
       <use xlink:href="#m73f84058f9" x="167.91917" y="499.824" style="stroke: #000000; stroke-width: 0.8"/>
      </g>
     </g>
     <g id="text_31">
      <!-- 0 -->
      <g transform="translate(164.73792 514.422438) scale(0.1 -0.1)">
       <use xlink:href="#DejaVuSans-30"/>
      </g>
     </g>
    </g>
    <g id="xtick_15">
     <g id="line2d_35">
      <g>
       <use xlink:href="#m73f84058f9" x="247.853053" y="499.824" style="stroke: #000000; stroke-width: 0.8"/>
      </g>
     </g>
     <g id="text_32">
      <!-- 200 -->
      <g transform="translate(238.309303 514.422438) scale(0.1 -0.1)">
       <use xlink:href="#DejaVuSans-32"/>
       <use xlink:href="#DejaVuSans-30" transform="translate(63.623047 0)"/>
       <use xlink:href="#DejaVuSans-30" transform="translate(127.246094 0)"/>
      </g>
     </g>
    </g>
    <g id="xtick_16">
     <g id="line2d_36">
      <g>
       <use xlink:href="#m73f84058f9" x="327.786937" y="499.824" style="stroke: #000000; stroke-width: 0.8"/>
      </g>
     </g>
     <g id="text_33">
      <!-- 400 -->
      <g transform="translate(318.243187 514.422438) scale(0.1 -0.1)">
       <use xlink:href="#DejaVuSans-34"/>
       <use xlink:href="#DejaVuSans-30" transform="translate(63.623047 0)"/>
       <use xlink:href="#DejaVuSans-30" transform="translate(127.246094 0)"/>
      </g>
     </g>
    </g>
    <g id="xtick_17">
     <g id="line2d_37">
      <g>
       <use xlink:href="#m73f84058f9" x="407.720821" y="499.824" style="stroke: #000000; stroke-width: 0.8"/>
      </g>
     </g>
     <g id="text_34">
      <!-- 600 -->
      <g transform="translate(398.177071 514.422438) scale(0.1 -0.1)">
       <use xlink:href="#DejaVuSans-36"/>
       <use xlink:href="#DejaVuSans-30" transform="translate(63.623047 0)"/>
       <use xlink:href="#DejaVuSans-30" transform="translate(127.246094 0)"/>
      </g>
     </g>
    </g>
    <g id="xtick_18">
     <g id="line2d_38">
      <g>
       <use xlink:href="#m73f84058f9" x="487.654704" y="499.824" style="stroke: #000000; stroke-width: 0.8"/>
      </g>
     </g>
     <g id="text_35">
      <!-- 800 -->
      <g transform="translate(478.110954 514.422438) scale(0.1 -0.1)">
       <use xlink:href="#DejaVuSans-38"/>
       <use xlink:href="#DejaVuSans-30" transform="translate(63.623047 0)"/>
       <use xlink:href="#DejaVuSans-30" transform="translate(127.246094 0)"/>
      </g>
     </g>
    </g>
    <g id="text_36">
     <!-- Time (ms) -->
     <g transform="translate(262.620781 528.100563) scale(0.1 -0.1)">
      <defs>
       <path id="DejaVuSans-54" d="M -19 4666 
L 3928 4666 
L 3928 4134 
L 2272 4134 
L 2272 0 
L 1638 0 
L 1638 4134 
L -19 4134 
L -19 4666 
z
" transform="scale(0.015625)"/>
       <path id="DejaVuSans-6d" d="M 3328 2828 
Q 3544 3216 3844 3400 
Q 4144 3584 4550 3584 
Q 5097 3584 5394 3201 
Q 5691 2819 5691 2113 
L 5691 0 
L 5113 0 
L 5113 2094 
Q 5113 2597 4934 2840 
Q 4756 3084 4391 3084 
Q 3944 3084 3684 2787 
Q 3425 2491 3425 1978 
L 3425 0 
L 2847 0 
L 2847 2094 
Q 2847 2600 2669 2842 
Q 2491 3084 2119 3084 
Q 1678 3084 1418 2786 
Q 1159 2488 1159 1978 
L 1159 0 
L 581 0 
L 581 3500 
L 1159 3500 
L 1159 2956 
Q 1356 3278 1631 3431 
Q 1906 3584 2284 3584 
Q 2666 3584 2933 3390 
Q 3200 3197 3328 2828 
z
" transform="scale(0.015625)"/>
      </defs>
      <use xlink:href="#DejaVuSans-54"/>
      <use xlink:href="#DejaVuSans-69" transform="translate(57.958984 0)"/>
      <use xlink:href="#DejaVuSans-6d" transform="translate(85.742188 0)"/>
      <use xlink:href="#DejaVuSans-65" transform="translate(183.154297 0)"/>
      <use xlink:href="#DejaVuSans-20" transform="translate(244.677734 0)"/>
      <use xlink:href="#DejaVuSans-28" transform="translate(276.464844 0)"/>
      <use xlink:href="#DejaVuSans-6d" transform="translate(315.478516 0)"/>
      <use xlink:href="#DejaVuSans-73" transform="translate(412.890625 0)"/>
      <use xlink:href="#DejaVuSans-29" transform="translate(464.990234 0)"/>
     </g>
    </g>
   </g>
   <g id="matplotlib.axis_6">
    <g id="ytick_8">
     <g id="line2d_39">
      <g>
       <use xlink:href="#mc0506f8190" x="70.2" y="475.313754" style="stroke: #000000; stroke-width: 0.8"/>
      </g>
     </g>
     <g id="text_37">
      <!-- 0 -->
      <g transform="translate(56.8375 479.112972) scale(0.1 -0.1)">
       <use xlink:href="#DejaVuSans-30"/>
      </g>
     </g>
    </g>
    <g id="ytick_9">
     <g id="line2d_40">
      <g>
       <use xlink:href="#mc0506f8190" x="70.2" y="445.727082" style="stroke: #000000; stroke-width: 0.8"/>
      </g>
     </g>
     <g id="text_38">
      <!-- 2 -->
      <g transform="translate(56.8375 449.526301) scale(0.1 -0.1)">
       <use xlink:href="#DejaVuSans-32"/>
      </g>
     </g>
    </g>
    <g id="ytick_10">
     <g id="line2d_41">
      <g>
       <use xlink:href="#mc0506f8190" x="70.2" y="416.14041" style="stroke: #000000; stroke-width: 0.8"/>
      </g>
     </g>
     <g id="text_39">
      <!-- 4 -->
      <g transform="translate(56.8375 419.939629) scale(0.1 -0.1)">
       <use xlink:href="#DejaVuSans-34"/>
      </g>
     </g>
    </g>
    <g id="ytick_11">
     <g id="line2d_42">
      <g>
       <use xlink:href="#mc0506f8190" x="70.2" y="386.553738" style="stroke: #000000; stroke-width: 0.8"/>
      </g>
     </g>
     <g id="text_40">
      <!-- 6 -->
      <g transform="translate(56.8375 390.352957) scale(0.1 -0.1)">
       <use xlink:href="#DejaVuSans-36"/>
      </g>
     </g>
    </g>
    <g id="text_41">
     <!-- Z (σ from null) -->
     <g transform="translate(50.757812 477.919938) rotate(-90) scale(0.1 -0.1)">
      <defs>
       <path id="DejaVuSans-5a" d="M 359 4666 
L 4025 4666 
L 4025 4184 
L 1075 531 
L 4097 531 
L 4097 0 
L 288 0 
L 288 481 
L 3238 4134 
L 359 4134 
L 359 4666 
z
" transform="scale(0.015625)"/>
      </defs>
      <use xlink:href="#DejaVuSans-5a"/>
      <use xlink:href="#DejaVuSans-20" transform="translate(68.505859 0)"/>
      <use xlink:href="#DejaVuSans-28" transform="translate(100.292969 0)"/>
      <use xlink:href="#DejaVuSans-3c3" transform="translate(139.306641 0)"/>
      <use xlink:href="#DejaVuSans-20" transform="translate(202.685547 0)"/>
      <use xlink:href="#DejaVuSans-66" transform="translate(234.472656 0)"/>
      <use xlink:href="#DejaVuSans-72" transform="translate(269.677734 0)"/>
      <use xlink:href="#DejaVuSans-6f" transform="translate(308.541016 0)"/>
      <use xlink:href="#DejaVuSans-6d" transform="translate(369.722656 0)"/>
      <use xlink:href="#DejaVuSans-20" transform="translate(467.134766 0)"/>
      <use xlink:href="#DejaVuSans-6e" transform="translate(498.921875 0)"/>
      <use xlink:href="#DejaVuSans-75" transform="translate(562.300781 0)"/>
      <use xlink:href="#DejaVuSans-6c" transform="translate(625.679688 0)"/>
      <use xlink:href="#DejaVuSans-6c" transform="translate(653.462891 0)"/>
      <use xlink:href="#DejaVuSans-29" transform="translate(681.246094 0)"/>
     </g>
    </g>
   </g>
   <g id="line2d_43">
    <path d="M 167.91917 499.824 
L 167.91917 383.994 
" clip-path="url(#p6b11bede7e)" style="fill: none; stroke-dasharray: 2.96,1.28; stroke-dashoffset: 0; stroke: #000000; stroke-width: 0.8"/>
   </g>
   <g id="line2d_44">
    <path d="M 89.983636 464.746495 
L 93.980327 483.696291 
L 97.977023 478.098143 
L 101.973713 467.122172 
L 105.97041 449.616297 
L 109.967106 463.59639 
L 113.963796 472.121629 
L 117.960493 473.147799 
L 121.957186 462.530348 
L 125.953882 494.012876 
L 129.950576 485.368455 
L 133.947269 478.243975 
L 137.943962 486.081575 
L 141.940659 467.782636 
L 145.937352 482.399282 
L 149.934045 478.91652 
L 153.93074 455.886013 
L 157.927434 473.845749 
L 161.924129 428.88431 
L 165.920823 486.655074 
L 169.917517 476.457074 
L 173.914211 472.882727 
L 177.910906 485.385959 
L 181.9076 480.074211 
L 185.904294 475.985057 
L 189.900988 469.801216 
L 193.897681 488.39262 
L 197.894377 485.798905 
L 201.891071 488.88043 
L 205.887764 473.723201 
L 209.884457 473.889433 
L 213.881154 469.125985 
L 217.877847 462.962076 
L 221.874543 445.625618 
L 225.871234 479.914094 
L 229.86793 474.797643 
L 233.864626 483.313396 
L 237.861317 482.380281 
L 241.858013 448.988874 
L 245.854704 487.22227 
L 249.8514 485.449613 
L 253.848096 474.352944 
L 257.844787 460.06893 
L 261.841483 484.074319 
L 265.838179 476.094702 
L 269.83487 463.692667 
L 273.83156 468.973442 
L 277.828262 476.856479 
L 281.824953 439.699338 
L 285.821643 455.747769 
L 289.818345 478.719445 
L 293.815036 446.274944 
L 297.811726 427.25469 
L 301.808428 472.057234 
L 305.805119 475.736754 
L 309.801809 469.333994 
L 313.798511 459.742351 
L 317.795202 488.730283 
L 321.791892 481.609806 
L 325.788594 476.369937 
L 329.785285 471.988189 
L 333.781975 429.315033 
L 337.778677 459.718224 
L 341.775368 467.944071 
L 345.772058 455.470154 
L 349.76876 485.761275 
L 353.765451 476.602681 
L 357.762141 477.817089 
L 361.758843 450.50435 
L 365.755534 487.979536 
L 369.752224 389.259 
L 373.748914 444.214243 
L 377.745605 471.665903 
L 381.742319 453.594681 
L 385.739009 473.05196 
L 389.7357 411.664524 
L 393.73239 490.664995 
L 397.72908 477.03789 
L 401.725771 490.294378 
L 405.722485 479.502509 
L 409.719175 480.929172 
L 413.715866 491.10539 
L 417.712556 485.559799 
L 421.709246 480.063052 
L 425.705937 476.771213 
L 429.702627 493.878473 
L 433.699341 463.235592 
L 437.696032 483.8322 
L 441.692722 473.638645 
L 445.689412 486.285745 
L 449.686103 467.028409 
L 453.682793 485.271624 
L 457.679507 467.445489 
L 461.676198 474.528089 
L 465.672888 486.853164 
L 469.669578 463.889572 
L 473.666269 487.472547 
L 477.662959 461.965282 
L 481.659673 415.19125 
L 485.656364 473.853791 
" clip-path="url(#p6b11bede7e)" style="fill: none; stroke: #1f77b4; stroke-width: 2; stroke-linecap: square"/>
   </g>
   <g id="line2d_45">
    <path d="M 89.983636 492.055595 
L 93.980327 463.423354 
L 97.977023 457.756048 
L 101.973713 441.261755 
L 105.97041 456.684976 
L 109.967106 478.485334 
L 113.963796 464.005558 
L 117.960493 482.119605 
L 121.957186 482.381398 
L 125.953882 465.043157 
L 129.950576 447.414683 
L 133.947269 472.28517 
L 137.943962 488.731571 
L 141.940659 487.216504 
L 145.937352 477.940254 
L 149.934045 483.658644 
L 153.93074 480.390809 
L 157.927434 464.778369 
L 161.924129 482.163011 
L 165.920823 464.991579 
L 169.917517 477.304393 
L 173.914211 485.159999 
L 177.910906 465.161471 
L 181.9076 464.275864 
L 185.904294 485.890434 
L 189.900988 487.099648 
L 193.897681 483.249267 
L 197.894377 490.577585 
L 201.891071 482.046028 
L 205.887764 441.941969 
L 209.884457 436.875914 
L 213.881154 482.417509 
L 217.877847 489.129409 
L 221.874543 482.990955 
L 225.871234 482.888617 
L 229.86793 435.497905 
L 233.864626 492.309513 
L 237.861317 486.535237 
L 241.858013 492.322575 
L 245.854704 487.563854 
L 249.8514 463.1068 
L 253.848096 483.234147 
L 257.844787 488.090975 
L 261.841483 468.854901 
L 265.838179 413.160446 
L 269.83487 466.458145 
L 273.83156 449.608244 
L 277.828262 478.332059 
L 281.824953 492.798154 
L 285.821643 461.18728 
L 289.818345 439.234757 
L 293.815036 477.639981 
L 297.811726 450.968126 
L 301.808428 469.212066 
L 305.805119 480.866773 
L 309.801809 479.757088 
L 313.798511 469.5845 
L 317.795202 472.662327 
L 321.791892 486.201918 
L 325.788594 484.950574 
L 329.785285 490.627629 
L 333.781975 459.53474 
L 337.778677 474.326896 
L 341.775368 478.729205 
L 345.772058 412.148154 
L 349.76876 492.050046 
L 353.765451 478.223827 
L 357.762141 466.351087 
L 361.758843 484.86218 
L 365.755534 445.317378 
L 369.752224 489.665449 
L 373.748914 478.547231 
L 377.745605 444.560081 
L 381.742319 487.559503 
L 385.739009 472.532694 
L 389.7357 491.299717 
L 393.73239 473.019497 
L 397.72908 468.83967 
L 401.725771 477.713212 
L 405.722485 475.005177 
L 409.719175 468.660432 
L 413.715866 491.751216 
L 417.712556 480.530128 
L 421.709246 483.779742 
L 425.705937 463.159289 
L 429.702627 481.504171 
L 433.699341 458.890764 
L 437.696032 463.581219 
L 441.692722 457.444708 
L 445.689412 468.287478 
L 449.686103 478.683348 
L 453.682793 465.131544 
L 457.679507 484.248551 
L 461.676198 426.9856 
L 465.672888 474.501762 
L 469.669578 481.324311 
L 473.666269 480.166055 
L 477.662959 474.893154 
L 481.659673 494.559 
L 485.656364 479.896534 
" clip-path="url(#p6b11bede7e)" style="fill: none; stroke: #ff7f0e; stroke-width: 2; stroke-linecap: square"/>
   </g>
   <g id="patch_15">
    <path d="M 70.2 499.824 
L 70.2 383.994 
" style="fill: none; stroke: #000000; stroke-width: 0.8; stroke-linejoin: miter; stroke-linecap: square"/>
   </g>
   <g id="patch_16">
    <path d="M 505.44 499.824 
L 505.44 383.994 
" style="fill: none; stroke: #000000; stroke-width: 0.8; stroke-linejoin: miter; stroke-linecap: square"/>
   </g>
   <g id="patch_17">
    <path d="M 70.2 499.824 
L 505.44 499.824 
" style="fill: none; stroke: #000000; stroke-width: 0.8; stroke-linejoin: miter; stroke-linecap: square"/>
   </g>
   <g id="patch_18">
    <path d="M 70.2 383.994 
L 505.44 383.994 
" style="fill: none; stroke: #000000; stroke-width: 0.8; stroke-linejoin: miter; stroke-linecap: square"/>
   </g>
   <g id="text_42">
    <!-- Panel C: evidence strength vs null -->
    <g transform="translate(185.80125 377.994) scale(0.12 -0.12)">
     <use xlink:href="#DejaVuSans-50"/>
     <use xlink:href="#DejaVuSans-61" transform="translate(55.802734 0)"/>
     <use xlink:href="#DejaVuSans-6e" transform="translate(117.082031 0)"/>
     <use xlink:href="#DejaVuSans-65" transform="translate(180.460938 0)"/>
     <use xlink:href="#DejaVuSans-6c" transform="translate(241.984375 0)"/>
     <use xlink:href="#DejaVuSans-20" transform="translate(269.767578 0)"/>
     <use xlink:href="#DejaVuSans-43" transform="translate(301.554688 0)"/>
     <use xlink:href="#DejaVuSans-3a" transform="translate(371.378906 0)"/>
     <use xlink:href="#DejaVuSans-20" transform="translate(405.070312 0)"/>
     <use xlink:href="#DejaVuSans-65" transform="translate(436.857422 0)"/>
     <use xlink:href="#DejaVuSans-76" transform="translate(498.380859 0)"/>
     <use xlink:href="#DejaVuSans-69" transform="translate(557.560547 0)"/>
     <use xlink:href="#DejaVuSans-64" transform="translate(585.34375 0)"/>
     <use xlink:href="#DejaVuSans-65" transform="translate(648.820312 0)"/>
     <use xlink:href="#DejaVuSans-6e" transform="translate(710.34375 0)"/>
     <use xlink:href="#DejaVuSans-63" transform="translate(773.722656 0)"/>
     <use xlink:href="#DejaVuSans-65" transform="translate(828.703125 0)"/>
     <use xlink:href="#DejaVuSans-20" transform="translate(890.226562 0)"/>
     <use xlink:href="#DejaVuSans-73" transform="translate(922.013672 0)"/>
     <use xlink:href="#DejaVuSans-74" transform="translate(974.113281 0)"/>
     <use xlink:href="#DejaVuSans-72" transform="translate(1013.322266 0)"/>
     <use xlink:href="#DejaVuSans-65" transform="translate(1052.185547 0)"/>
     <use xlink:href="#DejaVuSans-6e" transform="translate(1113.708984 0)"/>
     <use xlink:href="#DejaVuSans-67" transform="translate(1177.087891 0)"/>
     <use xlink:href="#DejaVuSans-74" transform="translate(1240.564453 0)"/>
     <use xlink:href="#DejaVuSans-68" transform="translate(1279.773438 0)"/>
     <use xlink:href="#DejaVuSans-20" transform="translate(1343.152344 0)"/>
     <use xlink:href="#DejaVuSans-76" transform="translate(1374.939453 0)"/>
     <use xlink:href="#DejaVuSans-73" transform="translate(1434.119141 0)"/>
     <use xlink:href="#DejaVuSans-20" transform="translate(1486.21875 0)"/>
     <use xlink:href="#DejaVuSans-6e" transform="translate(1518.005859 0)"/>
     <use xlink:href="#DejaVuSans-75" transform="translate(1581.384766 0)"/>
     <use xlink:href="#DejaVuSans-6c" transform="translate(1644.763672 0)"/>
     <use xlink:href="#DejaVuSans-6c" transform="translate(1672.546875 0)"/>
    </g>
   </g>
   <g id="legend_3">
    <g id="line2d_46">
     <path d="M 79.2 397.092438 
L 89.2 397.092438 
L 99.2 397.092438 
" style="fill: none; stroke: #1f77b4; stroke-width: 2; stroke-linecap: square"/>
    </g>
    <g id="text_43">
     <!-- z(MFEF→MLIP) -->
     <g transform="translate(107.2 400.592438) scale(0.1 -0.1)">
      <defs>
       <path id="DejaVuSans-7a" d="M 353 3500 
L 3084 3500 
L 3084 2975 
L 922 459 
L 3084 459 
L 3084 0 
L 275 0 
L 275 525 
L 2438 3041 
L 353 3041 
L 353 3500 
z
" transform="scale(0.015625)"/>
      </defs>
      <use xlink:href="#DejaVuSans-7a"/>
      <use xlink:href="#DejaVuSans-28" transform="translate(52.490234 0)"/>
      <use xlink:href="#DejaVuSans-4d" transform="translate(91.503906 0)"/>
      <use xlink:href="#DejaVuSans-46" transform="translate(177.783203 0)"/>
      <use xlink:href="#DejaVuSans-45" transform="translate(235.302734 0)"/>
      <use xlink:href="#DejaVuSans-46" transform="translate(298.486328 0)"/>
      <use xlink:href="#DejaVuSans-2192" transform="translate(356.005859 0)"/>
      <use xlink:href="#DejaVuSans-4d" transform="translate(439.794922 0)"/>
      <use xlink:href="#DejaVuSans-4c" transform="translate(526.074219 0)"/>
      <use xlink:href="#DejaVuSans-49" transform="translate(581.787109 0)"/>
      <use xlink:href="#DejaVuSans-50" transform="translate(611.279297 0)"/>
      <use xlink:href="#DejaVuSans-29" transform="translate(671.582031 0)"/>
     </g>
    </g>
    <g id="line2d_47">
     <path d="M 79.2 411.770563 
L 89.2 411.770563 
L 99.2 411.770563 
" style="fill: none; stroke: #ff7f0e; stroke-width: 2; stroke-linecap: square"/>
    </g>
    <g id="text_44">
     <!-- z(MLIP→MFEF) -->
     <g transform="translate(107.2 415.270563) scale(0.1 -0.1)">
      <use xlink:href="#DejaVuSans-7a"/>
      <use xlink:href="#DejaVuSans-28" transform="translate(52.490234 0)"/>
      <use xlink:href="#DejaVuSans-4d" transform="translate(91.503906 0)"/>
      <use xlink:href="#DejaVuSans-4c" transform="translate(177.783203 0)"/>
      <use xlink:href="#DejaVuSans-49" transform="translate(233.496094 0)"/>
      <use xlink:href="#DejaVuSans-50" transform="translate(262.988281 0)"/>
      <use xlink:href="#DejaVuSans-2192" transform="translate(323.291016 0)"/>
      <use xlink:href="#DejaVuSans-4d" transform="translate(407.080078 0)"/>
      <use xlink:href="#DejaVuSans-46" transform="translate(493.359375 0)"/>
      <use xlink:href="#DejaVuSans-45" transform="translate(550.878906 0)"/>
      <use xlink:href="#DejaVuSans-46" transform="translate(614.0625 0)"/>
      <use xlink:href="#DejaVuSans-29" transform="translate(671.582031 0)"/>
     </g>
    </g>
   </g>
  </g>
 </g>
 <defs>
  <clipPath id="pddd325c745">
   <rect x="70.2" y="67.392" width="435.24" height="138.996"/>
  </clipPath>
  <clipPath id="p6d24b04d5b">
   <rect x="70.2" y="237.276" width="435.24" height="115.83"/>
  </clipPath>
  <clipPath id="p6b11bede7e">
   <rect x="70.2" y="383.994" width="435.24" height="115.83"/>
  </clipPath>
 </defs>
</svg>
