<?xml version="1.0" encoding="utf-8" standalone="no"?>
<!DOCTYPE svg PUBLIC "-//W3C//DTD SVG 1.1//EN"
  "http://www.w3.org/Graphics/SVG/1.1/DTD/svg11.dtd">
<svg xmlns:xlink="http://www.w3.org/1999/xlink" width="561.6pt" height="561.6pt" viewBox="0 0 561.6 561.6" xmlns="http://www.w3.org/2000/svg" version="1.1">
 <metadata>
  <rdf:RDF xmlns:dc="http://purl.org/dc/elements/1.1/" xmlns:cc="http://creativecommons.org/ns#" xmlns:rdf="http://www.w3.org/1999/02/22-rdf-syntax-ns#">
   <cc:Work>
    <dc:type rdf:resource="http://purl.org/dc/dcmitype/StillImage"/>
    <dc:date>2025-12-07T13:58:59.718513</dc:date>
    <dc:format>image/svg+xml</dc:format>
    <dc:creator>
     <cc:Agent>
      <dc:title>Matplotlib v3.10.5, https://matplotlib.org/</dc:title>
     </cc:Agent>
    </dc:creator>
   </cc:Work>
  </rdf:RDF>
 </metadata>
 <defs>
  <style type="text/css">*{stroke-linejoin: round; stroke-linecap: butt}</style>
 </defs>
 <g id="figure_1">
  <g id="patch_1">
   <path d="M 0 561.6 
L 561.6 561.6 
L 561.6 0 
L 0 0 
z
" style="fill: #ffffff"/>
  </g>
  <g id="axes_1">
   <g id="patch_2">
    <path d="M 70.2 206.388 
L 505.44 206.388 
L 505.44 67.392 
L 70.2 67.392 
z
" style="fill: #ffffff"/>
   </g>
   <g id="FillBetweenPolyCollection_1">
    <defs>
     <path id="m7c386be97b" d="M 89.983636 -432.688823 
L 89.983636 -382.762777 
L 93.980327 -381.278957 
L 97.977023 -384.429746 
L 101.973713 -384.944854 
L 105.97041 -381.908586 
L 109.967106 -383.896229 
L 113.963796 -382.481804 
L 117.960493 -383.437024 
L 121.957186 -381.899351 
L 125.953882 -382.984687 
L 129.950576 -385.216544 
L 133.947269 -382.906969 
L 137.943962 -382.87712 
L 141.940659 -381.754953 
L 145.937352 -380.457281 
L 149.934045 -384.051932 
L 153.93074 -384.475455 
L 157.927434 -382.790025 
L 161.924129 -383.79671 
L 165.920823 -386.09487 
L 169.917517 -383.239862 
L 173.914211 -385.026744 
L 177.910906 -383.628121 
L 181.9076 -382.768787 
L 185.904294 -384.342161 
L 189.900988 -383.023224 
L 193.897681 -383.20341 
L 197.894377 -385.742196 
L 201.891071 -382.404526 
L 205.887764 -384.501808 
L 209.884457 -382.923442 
L 213.881154 -382.295804 
L 217.877847 -385.276639 
L 221.874543 -386.198386 
L 225.871234 -388.915173 
L 229.86793 -389.682295 
L 233.864626 -390.215506 
L 237.861317 -388.252389 
L 241.858013 -389.083779 
L 245.854704 -383.607913 
L 249.8514 -384.270752 
L 253.848096 -387.040077 
L 257.844787 -385.875859 
L 261.841483 -390.168722 
L 265.838179 -382.368244 
L 269.83487 -385.84608 
L 273.83156 -387.948226 
L 277.828262 -383.261781 
L 281.824953 -383.115985 
L 285.821643 -383.561209 
L 289.818345 -382.31691 
L 293.815036 -384.689284 
L 297.811726 -382.219325 
L 301.808428 -381.182509 
L 305.805119 -380.761605 
L 309.801809 -380.314076 
L 313.798511 -383.893536 
L 317.795202 -381.094472 
L 321.791892 -382.411012 
L 325.788594 -382.546125 
L 329.785285 -383.056813 
L 333.781975 -383.913628 
L 337.778677 -383.743451 
L 341.775368 -383.379397 
L 345.772058 -382.263918 
L 349.76876 -384.30379 
L 353.765451 -382.99736 
L 357.762141 -383.711463 
L 361.758843 -383.055768 
L 365.755534 -383.652574 
L 369.752224 -384.195766 
L 373.748914 -382.341694 
L 377.745605 -383.572958 
L 381.742319 -381.55152 
L 385.739009 -382.876838 
L 389.7357 -384.845329 
L 393.73239 -383.726161 
L 397.72908 -383.391849 
L 401.725771 -383.186386 
L 405.722485 -384.295447 
L 409.719175 -382.761867 
L 413.715866 -382.906417 
L 417.712556 -380.817931 
L 421.709246 -383.124114 
L 425.705937 -381.640312 
L 429.702627 -382.435162 
L 433.699341 -383.582893 
L 437.696032 -383.151305 
L 441.692722 -382.595475 
L 445.689412 -381.392704 
L 449.686103 -380.493663 
L 453.682793 -383.378573 
L 457.679507 -383.135011 
L 461.676198 -383.158206 
L 465.672888 -384.791226 
L 469.669578 -381.936414 
L 473.666269 -382.087922 
L 477.662959 -384.142588 
L 481.659673 -382.285234 
L 485.656364 -384.383816 
L 485.656364 -436.751533 
L 485.656364 -436.751533 
L 481.659673 -432.68547 
L 477.662959 -436.44697 
L 473.666269 -432.542117 
L 469.669578 -434.583798 
L 465.672888 -436.877706 
L 461.676198 -435.107234 
L 457.679507 -437.1825 
L 453.682793 -435.596135 
L 449.686103 -434.088181 
L 445.689412 -431.674638 
L 441.692722 -433.659889 
L 437.696032 -437.049318 
L 433.699341 -436.218226 
L 429.702627 -434.089894 
L 425.705937 -433.336631 
L 421.709246 -435.77688 
L 417.712556 -428.365533 
L 413.715866 -435.312535 
L 409.719175 -436.650357 
L 405.722485 -435.929624 
L 401.725771 -434.373942 
L 397.72908 -432.22434 
L 393.73239 -433.783321 
L 389.7357 -433.759861 
L 385.739009 -435.285825 
L 381.742319 -432.51173 
L 377.745605 -433.756066 
L 373.748914 -432.193361 
L 369.752224 -433.156941 
L 365.755534 -432.435787 
L 361.758843 -431.597388 
L 357.762141 -436.772351 
L 353.765451 -431.820477 
L 349.76876 -435.910686 
L 345.772058 -434.102947 
L 341.775368 -435.538613 
L 337.778677 -437.787703 
L 333.781975 -436.659902 
L 329.785285 -432.833038 
L 325.788594 -435.73917 
L 321.791892 -431.948073 
L 317.795202 -436.230759 
L 313.798511 -428.609752 
L 309.801809 -431.735618 
L 305.805119 -430.911078 
L 301.808428 -433.07874 
L 297.811726 -436.306094 
L 293.815036 -435.787712 
L 289.818345 -435.005791 
L 285.821643 -433.094432 
L 281.824953 -432.998048 
L 277.828262 -432.570929 
L 273.83156 -440.531744 
L 269.83487 -439.101608 
L 265.838179 -436.4173 
L 261.841483 -445.406377 
L 257.844787 -442.077788 
L 253.848096 -437.876608 
L 249.8514 -436.485648 
L 245.854704 -436.512891 
L 241.858013 -444.093731 
L 237.861317 -439.4649 
L 233.864626 -447.357082 
L 229.86793 -444.18461 
L 225.871234 -444.330606 
L 221.874543 -436.858565 
L 217.877847 -433.084978 
L 213.881154 -433.64188 
L 209.884457 -435.078137 
L 205.887764 -435.321447 
L 201.891071 -435.255348 
L 197.894377 -435.733078 
L 193.897681 -433.36426 
L 189.900988 -435.984428 
L 185.904294 -434.907388 
L 181.9076 -431.987076 
L 177.910906 -434.249468 
L 173.914211 -435.00209 
L 169.917517 -435.417595 
L 165.920823 -434.831888 
L 161.924129 -434.974543 
L 157.927434 -433.937293 
L 153.93074 -433.321792 
L 149.934045 -435.748206 
L 145.937352 -431.785087 
L 141.940659 -431.832027 
L 137.943962 -434.157922 
L 133.947269 -434.557294 
L 129.950576 -436.194319 
L 125.953882 -434.745359 
L 121.957186 -432.585802 
L 117.960493 -436.111479 
L 113.963796 -433.827196 
L 109.967106 -431.500461 
L 105.97041 -433.812778 
L 101.973713 -435.17037 
L 97.977023 -433.085822 
L 93.980327 -432.079274 
L 89.983636 -432.688823 
z
"/>
    </defs>
    <g clip-path="url(#p618834186c)">
     <use xlink:href="#m7c386be97b" x="0" y="561.6" style="fill: #1f77b4; fill-opacity: 0.15"/>
    </g>
   </g>
   <g id="FillBetweenPolyCollection_2">
    <defs>
     <path id="m3cbfcff5cb" d="M 89.983636 -436.238754 
L 89.983636 -383.600103 
L 93.980327 -383.889683 
L 97.977023 -380.83784 
L 101.973713 -386.145708 
L 105.97041 -383.145581 
L 109.967106 -380.549613 
L 113.963796 -385.279971 
L 117.960493 -385.418414 
L 121.957186 -384.089048 
L 125.953882 -383.887682 
L 129.950576 -384.236903 
L 133.947269 -383.93937 
L 137.943962 -381.72726 
L 141.940659 -382.898078 
L 145.937352 -383.945051 
L 149.934045 -382.138636 
L 153.93074 -382.436577 
L 157.927434 -381.163372 
L 161.924129 -384.981636 
L 165.920823 -385.462146 
L 169.917517 -381.01418 
L 173.914211 -384.673154 
L 177.910906 -382.421772 
L 181.9076 -384.396836 
L 185.904294 -383.860824 
L 189.900988 -382.844248 
L 193.897681 -381.555977 
L 197.894377 -380.139451 
L 201.891071 -383.27695 
L 205.887764 -383.705718 
L 209.884457 -384.232608 
L 213.881154 -384.983158 
L 217.877847 -387.817827 
L 221.874543 -391.711425 
L 225.871234 -388.334054 
L 229.86793 -387.575566 
L 233.864626 -388.897012 
L 237.861317 -386.877264 
L 241.858013 -392.008967 
L 245.854704 -392.404851 
L 249.8514 -387.348984 
L 253.848096 -387.414515 
L 257.844787 -387.273229 
L 261.841483 -388.757253 
L 265.838179 -384.909447 
L 269.83487 -384.63227 
L 273.83156 -384.43007 
L 277.828262 -382.084553 
L 281.824953 -384.46536 
L 285.821643 -383.300374 
L 289.818345 -385.026008 
L 293.815036 -383.937351 
L 297.811726 -382.84904 
L 301.808428 -381.930819 
L 305.805119 -381.573906 
L 309.801809 -382.551473 
L 313.798511 -379.5894 
L 317.795202 -384.143751 
L 321.791892 -381.580385 
L 325.788594 -383.727424 
L 329.785285 -384.788773 
L 333.781975 -388.74214 
L 337.778677 -386.881735 
L 341.775368 -378.27124 
L 345.772058 -386.129181 
L 349.76876 -382.895949 
L 353.765451 -382.09334 
L 357.762141 -385.044072 
L 361.758843 -385.373795 
L 365.755534 -383.567863 
L 369.752224 -381.17317 
L 373.748914 -380.868288 
L 377.745605 -382.983417 
L 381.742319 -384.301379 
L 385.739009 -381.784184 
L 389.7357 -383.18518 
L 393.73239 -381.552788 
L 397.72908 -381.985703 
L 401.725771 -382.235053 
L 405.722485 -381.797233 
L 409.719175 -385.33739 
L 413.715866 -380.617784 
L 417.712556 -383.013086 
L 421.709246 -381.506734 
L 425.705937 -382.728692 
L 429.702627 -388.27932 
L 433.699341 -383.192904 
L 437.696032 -381.421651 
L 441.692722 -382.361431 
L 445.689412 -383.422971 
L 449.686103 -386.217953 
L 453.682793 -384.505565 
L 457.679507 -382.390355 
L 461.676198 -383.188899 
L 465.672888 -385.863055 
L 469.669578 -385.665491 
L 473.666269 -382.039263 
L 477.662959 -385.082143 
L 481.659673 -382.194245 
L 485.656364 -384.598504 
L 485.656364 -434.296441 
L 485.656364 -434.296441 
L 481.659673 -434.278651 
L 477.662959 -438.601255 
L 473.666269 -430.226349 
L 469.669578 -432.99476 
L 465.672888 -437.598931 
L 461.676198 -433.611937 
L 457.679507 -434.441137 
L 453.682793 -437.111815 
L 449.686103 -438.774104 
L 445.689412 -438.361393 
L 441.692722 -434.461073 
L 437.696032 -430.306335 
L 433.699341 -432.982737 
L 429.702627 -439.185882 
L 425.705937 -431.935109 
L 421.709246 -433.845703 
L 417.712556 -438.28109 
L 413.715866 -429.932235 
L 409.719175 -436.680442 
L 405.722485 -434.99074 
L 401.725771 -433.224227 
L 397.72908 -435.687834 
L 393.73239 -432.332774 
L 389.7357 -436.670766 
L 385.739009 -432.193655 
L 381.742319 -433.515669 
L 377.745605 -430.9316 
L 373.748914 -431.810464 
L 369.752224 -437.290445 
L 365.755534 -435.157045 
L 361.758843 -437.161119 
L 357.762141 -432.51294 
L 353.765451 -432.228861 
L 349.76876 -432.790865 
L 345.772058 -438.104545 
L 341.775368 -428.91665 
L 337.778677 -437.015943 
L 333.781975 -435.847334 
L 329.785285 -436.984329 
L 325.788594 -437.918174 
L 321.791892 -434.112451 
L 317.795202 -433.717339 
L 313.798511 -430.92496 
L 309.801809 -435.61414 
L 305.805119 -433.431025 
L 301.808428 -430.84438 
L 297.811726 -432.041679 
L 293.815036 -432.288132 
L 289.818345 -433.792967 
L 285.821643 -436.227134 
L 281.824953 -439.589025 
L 277.828262 -434.448965 
L 273.83156 -436.098674 
L 269.83487 -437.020328 
L 265.838179 -435.966462 
L 261.841483 -436.631854 
L 257.844787 -437.508321 
L 253.848096 -438.679926 
L 249.8514 -438.006591 
L 245.854704 -442.463372 
L 241.858013 -441.606367 
L 237.861317 -442.792567 
L 233.864626 -441.034007 
L 229.86793 -438.343032 
L 225.871234 -441.901622 
L 221.874543 -446.864401 
L 217.877847 -440.385494 
L 213.881154 -435.281253 
L 209.884457 -436.551689 
L 205.887764 -432.603435 
L 201.891071 -435.452667 
L 197.894377 -434.122532 
L 193.897681 -435.676698 
L 189.900988 -436.558672 
L 185.904294 -434.269641 
L 181.9076 -431.490498 
L 177.910906 -437.618351 
L 173.914211 -434.52717 
L 169.917517 -435.231721 
L 165.920823 -436.442342 
L 161.924129 -436.255265 
L 157.927434 -430.307395 
L 153.93074 -435.217379 
L 149.934045 -434.166438 
L 145.937352 -434.098082 
L 141.940659 -434.551408 
L 137.943962 -433.70098 
L 133.947269 -432.740332 
L 129.950576 -434.300747 
L 125.953882 -432.175472 
L 121.957186 -432.529362 
L 117.960493 -435.437184 
L 113.963796 -432.822209 
L 109.967106 -431.687625 
L 105.97041 -433.827086 
L 101.973713 -436.548056 
L 97.977023 -435.473062 
L 93.980327 -433.140364 
L 89.983636 -436.238754 
z
"/>
    </defs>
    <g clip-path="url(#p618834186c)">
     <use xlink:href="#m3cbfcff5cb" x="0" y="561.6" style="fill: #ff7f0e; fill-opacity: 0.15"/>
    </g>
   </g>
   <g id="matplotlib.axis_1">
    <g id="xtick_1">
     <g id="line2d_1">
      <defs>
       <path id="m7044adea0f" d="M 0 0 
L 0 3.5 
" style="stroke: #000000; stroke-width: 0.8"/>
      </defs>
      <g>
       <use xlink:href="#m7044adea0f" x="87.985286" y="206.388" style="stroke: #000000; stroke-width: 0.8"/>
      </g>
     </g>
     <g id="text_1">
      <!-- −200 -->
      <g transform="translate(74.251693 220.986437) scale(0.1 -0.1)">
       <defs>
        <path id="DejaVuSans-2212" d="M 678 2272 
L 4684 2272 
L 4684 1741 
L 678 1741 
L 678 2272 
z
" transform="scale(0.015625)"/>
        <path id="DejaVuSans-32" d="M 1228 531 
L 3431 531 
L 3431 0 
L 469 0 
L 469 531 
Q 828 903 1448 1529 
Q 2069 2156 2228 2338 
Q 2531 2678 2651 2914 
Q 2772 3150 2772 3378 
Q 2772 3750 2511 3984 
Q 2250 4219 1831 4219 
Q 1534 4219 1204 4116 
Q 875 4013 500 3803 
L 500 4441 
Q 881 4594 1212 4672 
Q 1544 4750 1819 4750 
Q 2544 4750 2975 4387 
Q 3406 4025 3406 3419 
Q 3406 3131 3298 2873 
Q 3191 2616 2906 2266 
Q 2828 2175 2409 1742 
Q 1991 1309 1228 531 
z
" transform="scale(0.015625)"/>
        <path id="DejaVuSans-30" d="M 2034 4250 
Q 1547 4250 1301 3770 
Q 1056 3291 1056 2328 
Q 1056 1369 1301 889 
Q 1547 409 2034 409 
Q 2525 409 2770 889 
Q 3016 1369 3016 2328 
Q 3016 3291 2770 3770 
Q 2525 4250 2034 4250 
z
M 2034 4750 
Q 2819 4750 3233 4129 
Q 3647 3509 3647 2328 
Q 3647 1150 3233 529 
Q 2819 -91 2034 -91 
Q 1250 -91 836 529 
Q 422 1150 422 2328 
Q 422 3509 836 4129 
Q 1250 4750 2034 4750 
z
" transform="scale(0.015625)"/>
       </defs>
       <use xlink:href="#DejaVuSans-2212"/>
       <use xlink:href="#DejaVuSans-32" transform="translate(83.789062 0)"/>
       <use xlink:href="#DejaVuSans-30" transform="translate(147.412109 0)"/>
       <use xlink:href="#DejaVuSans-30" transform="translate(211.035156 0)"/>
      </g>
     </g>
    </g>
    <g id="xtick_2">
     <g id="line2d_2">
      <g>
       <use xlink:href="#m7044adea0f" x="167.91917" y="206.388" style="stroke: #000000; stroke-width: 0.8"/>
      </g>
     </g>
     <g id="text_2">
      <!-- 0 -->
      <g transform="translate(164.73792 220.986437) scale(0.1 -0.1)">
       <use xlink:href="#DejaVuSans-30"/>
      </g>
     </g>
    </g>
    <g id="xtick_3">
     <g id="line2d_3">
      <g>
       <use xlink:href="#m7044adea0f" x="247.853053" y="206.388" style="stroke: #000000; stroke-width: 0.8"/>
      </g>
     </g>
     <g id="text_3">
      <!-- 200 -->
      <g transform="translate(238.309303 220.986437) scale(0.1 -0.1)">
       <use xlink:href="#DejaVuSans-32"/>
       <use xlink:href="#DejaVuSans-30" transform="translate(63.623047 0)"/>
       <use xlink:href="#DejaVuSans-30" transform="translate(127.246094 0)"/>
      </g>
     </g>
    </g>
    <g id="xtick_4">
     <g id="line2d_4">
      <g>
       <use xlink:href="#m7044adea0f" x="327.786937" y="206.388" style="stroke: #000000; stroke-width: 0.8"/>
      </g>
     </g>
     <g id="text_4">
      <!-- 400 -->
      <g transform="translate(318.243187 220.986437) scale(0.1 -0.1)">
       <defs>
        <path id="DejaVuSans-34" d="M 2419 4116 
L 825 1625 
L 2419 1625 
L 2419 4116 
z
M 2253 4666 
L 3047 4666 
L 3047 1625 
L 3713 1625 
L 3713 1100 
L 3047 1100 
L 3047 0 
L 2419 0 
L 2419 1100 
L 313 1100 
L 313 1709 
L 2253 4666 
z
" transform="scale(0.015625)"/>
       </defs>
       <use xlink:href="#DejaVuSans-34"/>
       <use xlink:href="#DejaVuSans-30" transform="translate(63.623047 0)"/>
       <use xlink:href="#DejaVuSans-30" transform="translate(127.246094 0)"/>
      </g>
     </g>
    </g>
    <g id="xtick_5">
     <g id="line2d_5">
      <g>
       <use xlink:href="#m7044adea0f" x="407.720821" y="206.388" style="stroke: #000000; stroke-width: 0.8"/>
      </g>
     </g>
     <g id="text_5">
      <!-- 600 -->
      <g transform="translate(398.177071 220.986437) scale(0.1 -0.1)">
       <defs>
        <path id="DejaVuSans-36" d="M 2113 2584 
Q 1688 2584 1439 2293 
Q 1191 2003 1191 1497 
Q 1191 994 1439 701 
Q 1688 409 2113 409 
Q 2538 409 2786 701 
Q 3034 994 3034 1497 
Q 3034 2003 2786 2293 
Q 2538 2584 2113 2584 
z
M 3366 4563 
L 3366 3988 
Q 3128 4100 2886 4159 
Q 2644 4219 2406 4219 
Q 1781 4219 1451 3797 
Q 1122 3375 1075 2522 
Q 1259 2794 1537 2939 
Q 1816 3084 2150 3084 
Q 2853 3084 3261 2657 
Q 3669 2231 3669 1497 
Q 3669 778 3244 343 
Q 2819 -91 2113 -91 
Q 1303 -91 875 529 
Q 447 1150 447 2328 
Q 447 3434 972 4092 
Q 1497 4750 2381 4750 
Q 2619 4750 2861 4703 
Q 3103 4656 3366 4563 
z
" transform="scale(0.015625)"/>
       </defs>
       <use xlink:href="#DejaVuSans-36"/>
       <use xlink:href="#DejaVuSans-30" transform="translate(63.623047 0)"/>
       <use xlink:href="#DejaVuSans-30" transform="translate(127.246094 0)"/>
      </g>
     </g>
    </g>
    <g id="xtick_6">
     <g id="line2d_6">
      <g>
       <use xlink:href="#m7044adea0f" x="487.654704" y="206.388" style="stroke: #000000; stroke-width: 0.8"/>
      </g>
     </g>
     <g id="text_6">
      <!-- 800 -->
      <g transform="translate(478.110954 220.986437) scale(0.1 -0.1)">
       <defs>
        <path id="DejaVuSans-38" d="M 2034 2216 
Q 1584 2216 1326 1975 
Q 1069 1734 1069 1313 
Q 1069 891 1326 650 
Q 1584 409 2034 409 
Q 2484 409 2743 651 
Q 3003 894 3003 1313 
Q 3003 1734 2745 1975 
Q 2488 2216 2034 2216 
z
M 1403 2484 
Q 997 2584 770 2862 
Q 544 3141 544 3541 
Q 544 4100 942 4425 
Q 1341 4750 2034 4750 
Q 2731 4750 3128 4425 
Q 3525 4100 3525 3541 
Q 3525 3141 3298 2862 
Q 3072 2584 2669 2484 
Q 3125 2378 3379 2068 
Q 3634 1759 3634 1313 
Q 3634 634 3220 271 
Q 2806 -91 2034 -91 
Q 1263 -91 848 271 
Q 434 634 434 1313 
Q 434 1759 690 2068 
Q 947 2378 1403 2484 
z
M 1172 3481 
Q 1172 3119 1398 2916 
Q 1625 2713 2034 2713 
Q 2441 2713 2670 2916 
Q 2900 3119 2900 3481 
Q 2900 3844 2670 4047 
Q 2441 4250 2034 4250 
Q 1625 4250 1398 4047 
Q 1172 3844 1172 3481 
z
" transform="scale(0.015625)"/>
       </defs>
       <use xlink:href="#DejaVuSans-38"/>
       <use xlink:href="#DejaVuSans-30" transform="translate(63.623047 0)"/>
       <use xlink:href="#DejaVuSans-30" transform="translate(127.246094 0)"/>
      </g>
     </g>
    </g>
   </g>
   <g id="matplotlib.axis_2">
    <g id="ytick_1">
     <g id="line2d_7">
      <defs>
       <path id="m9d179fb7ce" d="M 0 0 
L -3.5 0 
" style="stroke: #000000; stroke-width: 0.8"/>
      </defs>
      <g>
       <use xlink:href="#m9d179fb7ce" x="70.2" y="181.95011" style="stroke: #000000; stroke-width: 0.8"/>
      </g>
     </g>
     <g id="text_7">
      <!-- 12.5 -->
      <g transform="translate(40.934375 185.749329) scale(0.1 -0.1)">
       <defs>
        <path id="DejaVuSans-31" d="M 794 531 
L 1825 531 
L 1825 4091 
L 703 3866 
L 703 4441 
L 1819 4666 
L 2450 4666 
L 2450 531 
L 3481 531 
L 3481 0 
L 794 0 
L 794 531 
z
" transform="scale(0.015625)"/>
        <path id="DejaVuSans-2e" d="M 684 794 
L 1344 794 
L 1344 0 
L 684 0 
L 684 794 
z
" transform="scale(0.015625)"/>
        <path id="DejaVuSans-35" d="M 691 4666 
L 3169 4666 
L 3169 4134 
L 1269 4134 
L 1269 2991 
Q 1406 3038 1543 3061 
Q 1681 3084 1819 3084 
Q 2600 3084 3056 2656 
Q 3513 2228 3513 1497 
Q 3513 744 3044 326 
Q 2575 -91 1722 -91 
Q 1428 -91 1123 -41 
Q 819 9 494 109 
L 494 744 
Q 775 591 1075 516 
Q 1375 441 1709 441 
Q 2250 441 2565 725 
Q 2881 1009 2881 1497 
Q 2881 1984 2565 2268 
Q 2250 2553 1709 2553 
Q 1456 2553 1204 2497 
Q 953 2441 691 2322 
L 691 4666 
z
" transform="scale(0.015625)"/>
       </defs>
       <use xlink:href="#DejaVuSans-31"/>
       <use xlink:href="#DejaVuSans-32" transform="translate(63.623047 0)"/>
       <use xlink:href="#DejaVuSans-2e" transform="translate(127.246094 0)"/>
       <use xlink:href="#DejaVuSans-35" transform="translate(159.033203 0)"/>
      </g>
     </g>
    </g>
    <g id="ytick_2">
     <g id="line2d_8">
      <g>
       <use xlink:href="#m9d179fb7ce" x="70.2" y="156.096544" style="stroke: #000000; stroke-width: 0.8"/>
      </g>
     </g>
     <g id="text_8">
      <!-- 15.0 -->
      <g transform="translate(40.934375 159.895763) scale(0.1 -0.1)">
       <use xlink:href="#DejaVuSans-31"/>
       <use xlink:href="#DejaVuSans-35" transform="translate(63.623047 0)"/>
       <use xlink:href="#DejaVuSans-2e" transform="translate(127.246094 0)"/>
       <use xlink:href="#DejaVuSans-30" transform="translate(159.033203 0)"/>
      </g>
     </g>
    </g>
    <g id="ytick_3">
     <g id="line2d_9">
      <g>
       <use xlink:href="#m9d179fb7ce" x="70.2" y="130.242978" style="stroke: #000000; stroke-width: 0.8"/>
      </g>
     </g>
     <g id="text_9">
      <!-- 17.5 -->
      <g transform="translate(40.934375 134.042196) scale(0.1 -0.1)">
       <defs>
        <path id="DejaVuSans-37" d="M 525 4666 
L 3525 4666 
L 3525 4397 
L 1831 0 
L 1172 0 
L 2766 4134 
L 525 4134 
L 525 4666 
z
" transform="scale(0.015625)"/>
       </defs>
       <use xlink:href="#DejaVuSans-31"/>
       <use xlink:href="#DejaVuSans-37" transform="translate(63.623047 0)"/>
       <use xlink:href="#DejaVuSans-2e" transform="translate(127.246094 0)"/>
       <use xlink:href="#DejaVuSans-35" transform="translate(159.033203 0)"/>
      </g>
     </g>
    </g>
    <g id="ytick_4">
     <g id="line2d_10">
      <g>
       <use xlink:href="#m9d179fb7ce" x="70.2" y="104.389411" style="stroke: #000000; stroke-width: 0.8"/>
      </g>
     </g>
     <g id="text_10">
      <!-- 20.0 -->
      <g transform="translate(40.934375 108.18863) scale(0.1 -0.1)">
       <use xlink:href="#DejaVuSans-32"/>
       <use xlink:href="#DejaVuSans-30" transform="translate(63.623047 0)"/>
       <use xlink:href="#DejaVuSans-2e" transform="translate(127.246094 0)"/>
       <use xlink:href="#DejaVuSans-30" transform="translate(159.033203 0)"/>
      </g>
     </g>
    </g>
    <g id="ytick_5">
     <g id="line2d_11">
      <g>
       <use xlink:href="#m9d179fb7ce" x="70.2" y="78.535845" style="stroke: #000000; stroke-width: 0.8"/>
      </g>
     </g>
     <g id="text_11">
      <!-- 22.5 -->
      <g transform="translate(40.934375 82.335064) scale(0.1 -0.1)">
       <use xlink:href="#DejaVuSans-32"/>
       <use xlink:href="#DejaVuSans-32" transform="translate(63.623047 0)"/>
       <use xlink:href="#DejaVuSans-2e" transform="translate(127.246094 0)"/>
       <use xlink:href="#DejaVuSans-35" transform="translate(159.033203 0)"/>
      </g>
     </g>
    </g>
    <g id="text_12">
     <!-- ΔLL (bits) -->
     <g transform="translate(34.854687 160.500937) rotate(-90) scale(0.1 -0.1)">
      <defs>
       <path id="DejaVuSans-394" d="M 2188 4044 
L 906 525 
L 3472 525 
L 2188 4044 
z
M 50 0 
L 1831 4666 
L 2547 4666 
L 4325 0 
L 50 0 
z
" transform="scale(0.015625)"/>
       <path id="DejaVuSans-4c" d="M 628 4666 
L 1259 4666 
L 1259 531 
L 3531 531 
L 3531 0 
L 628 0 
L 628 4666 
z
" transform="scale(0.015625)"/>
       <path id="DejaVuSans-20" transform="scale(0.015625)"/>
       <path id="DejaVuSans-28" d="M 1984 4856 
Q 1566 4138 1362 3434 
Q 1159 2731 1159 2009 
Q 1159 1288 1364 580 
Q 1569 -128 1984 -844 
L 1484 -844 
Q 1016 -109 783 600 
Q 550 1309 550 2009 
Q 550 2706 781 3412 
Q 1013 4119 1484 4856 
L 1984 4856 
z
" transform="scale(0.015625)"/>
       <path id="DejaVuSans-62" d="M 3116 1747 
Q 3116 2381 2855 2742 
Q 2594 3103 2138 3103 
Q 1681 3103 1420 2742 
Q 1159 2381 1159 1747 
Q 1159 1113 1420 752 
Q 1681 391 2138 391 
Q 2594 391 2855 752 
Q 3116 1113 3116 1747 
z
M 1159 2969 
Q 1341 3281 1617 3432 
Q 1894 3584 2278 3584 
Q 2916 3584 3314 3078 
Q 3713 2572 3713 1747 
Q 3713 922 3314 415 
Q 2916 -91 2278 -91 
Q 1894 -91 1617 61 
Q 1341 213 1159 525 
L 1159 0 
L 581 0 
L 581 4863 
L 1159 4863 
L 1159 2969 
z
" transform="scale(0.015625)"/>
       <path id="DejaVuSans-69" d="M 603 3500 
L 1178 3500 
L 1178 0 
L 603 0 
L 603 3500 
z
M 603 4863 
L 1178 4863 
L 1178 4134 
L 603 4134 
L 603 4863 
z
" transform="scale(0.015625)"/>
       <path id="DejaVuSans-74" d="M 1172 4494 
L 1172 3500 
L 2356 3500 
L 2356 3053 
L 1172 3053 
L 1172 1153 
Q 1172 725 1289 603 
Q 1406 481 1766 481 
L 2356 481 
L 2356 0 
L 1766 0 
Q 1100 0 847 248 
Q 594 497 594 1153 
L 594 3053 
L 172 3053 
L 172 3500 
L 594 3500 
L 594 4494 
L 1172 4494 
z
" transform="scale(0.015625)"/>
       <path id="DejaVuSans-73" d="M 2834 3397 
L 2834 2853 
Q 2591 2978 2328 3040 
Q 2066 3103 1784 3103 
Q 1356 3103 1142 2972 
Q 928 2841 928 2578 
Q 928 2378 1081 2264 
Q 1234 2150 1697 2047 
L 1894 2003 
Q 2506 1872 2764 1633 
Q 3022 1394 3022 966 
Q 3022 478 2636 193 
Q 2250 -91 1575 -91 
Q 1294 -91 989 -36 
Q 684 19 347 128 
L 347 722 
Q 666 556 975 473 
Q 1284 391 1588 391 
Q 1994 391 2212 530 
Q 2431 669 2431 922 
Q 2431 1156 2273 1281 
Q 2116 1406 1581 1522 
L 1381 1569 
Q 847 1681 609 1914 
Q 372 2147 372 2553 
Q 372 3047 722 3315 
Q 1072 3584 1716 3584 
Q 2034 3584 2315 3537 
Q 2597 3491 2834 3397 
z
" transform="scale(0.015625)"/>
       <path id="DejaVuSans-29" d="M 513 4856 
L 1013 4856 
Q 1481 4119 1714 3412 
Q 1947 2706 1947 2009 
Q 1947 1309 1714 600 
Q 1481 -109 1013 -844 
L 513 -844 
Q 928 -128 1133 580 
Q 1338 1288 1338 2009 
Q 1338 2731 1133 3434 
Q 928 4138 513 4856 
z
" transform="scale(0.015625)"/>
      </defs>
      <use xlink:href="#DejaVuSans-394"/>
      <use xlink:href="#DejaVuSans-4c" transform="translate(68.408203 0)"/>
      <use xlink:href="#DejaVuSans-4c" transform="translate(124.121094 0)"/>
      <use xlink:href="#DejaVuSans-20" transform="translate(179.833984 0)"/>
      <use xlink:href="#DejaVuSans-28" transform="translate(211.621094 0)"/>
      <use xlink:href="#DejaVuSans-62" transform="translate(250.634766 0)"/>
      <use xlink:href="#DejaVuSans-69" transform="translate(314.111328 0)"/>
      <use xlink:href="#DejaVuSans-74" transform="translate(341.894531 0)"/>
      <use xlink:href="#DejaVuSans-73" transform="translate(381.103516 0)"/>
      <use xlink:href="#DejaVuSans-29" transform="translate(433.203125 0)"/>
     </g>
    </g>
   </g>
   <g id="line2d_12">
    <path d="M 167.91917 206.388 
L 167.91917 67.392 
" clip-path="url(#p618834186c)" style="fill: none; stroke-dasharray: 2.96,1.28; stroke-dashoffset: 0; stroke: #000000; stroke-width: 0.8"/>
   </g>
   <g id="line2d_13">
    <path d="M 89.983636 153.8742 
L 93.980327 154.920884 
L 97.977023 152.842216 
L 101.973713 151.542388 
L 105.97041 153.739318 
L 109.967106 153.901655 
L 113.963796 153.4455 
L 117.960493 151.825749 
L 121.957186 154.357424 
L 125.953882 152.734977 
L 129.950576 150.894569 
L 133.947269 152.867869 
L 137.943962 153.082479 
L 141.940659 154.80651 
L 145.937352 155.478816 
L 149.934045 151.699931 
L 153.93074 152.701376 
L 157.927434 153.236341 
L 161.924129 152.214374 
L 165.920823 151.136621 
L 169.917517 152.271271 
L 173.914211 151.585583 
L 177.910906 152.661206 
L 181.9076 154.222068 
L 185.904294 151.975226 
L 189.900988 152.096174 
L 193.897681 153.316165 
L 197.894377 150.862363 
L 201.891071 152.770063 
L 205.887764 151.688373 
L 209.884457 152.599211 
L 213.881154 153.631158 
L 217.877847 152.419191 
L 221.874543 150.071525 
L 225.871234 144.97711 
L 229.86793 144.666547 
L 233.864626 142.813706 
L 237.861317 147.741355 
L 241.858013 145.011245 
L 245.854704 151.539598 
L 249.8514 151.2218 
L 253.848096 149.141657 
L 257.844787 147.623177 
L 261.841483 143.81245 
L 265.838179 152.207228 
L 269.83487 149.126156 
L 273.83156 147.360015 
L 277.828262 153.683645 
L 281.824953 153.542983 
L 285.821643 153.272179 
L 289.818345 152.93865 
L 293.815036 151.361502 
L 297.811726 152.33729 
L 301.808428 154.469376 
L 305.805119 155.763659 
L 309.801809 155.575153 
L 313.798511 155.348356 
L 317.795202 152.937385 
L 321.791892 154.420457 
L 325.788594 152.457353 
L 329.785285 153.655075 
L 333.781975 151.313235 
L 337.778677 150.834423 
L 341.775368 152.140995 
L 345.772058 153.416567 
L 349.76876 151.492762 
L 353.765451 154.191081 
L 357.762141 151.358093 
L 361.758843 154.273422 
L 365.755534 153.55582 
L 369.752224 152.923647 
L 373.748914 154.332473 
L 377.745605 152.935488 
L 381.742319 154.568375 
L 385.739009 152.518669 
L 389.7357 152.297405 
L 393.73239 152.845259 
L 397.72908 153.791906 
L 401.725771 152.819836 
L 405.722485 151.487464 
L 409.719175 151.893888 
L 413.715866 152.490524 
L 417.712556 157.008268 
L 421.709246 152.149503 
L 425.705937 154.111528 
L 429.702627 153.337472 
L 433.699341 151.699441 
L 437.696032 151.499688 
L 441.692722 153.472318 
L 445.689412 155.066329 
L 449.686103 154.309078 
L 453.682793 152.112646 
L 457.679507 151.441244 
L 461.676198 152.46728 
L 465.672888 150.765534 
L 469.669578 153.339894 
L 473.666269 154.28498 
L 477.662959 151.305221 
L 481.659673 154.114648 
L 485.656364 151.032325 
" clip-path="url(#p618834186c)" style="fill: none; stroke-dasharray: 1,1.65; stroke-dashoffset: 0; stroke: #1f77b4"/>
   </g>
   <g id="line2d_14">
    <path d="M 89.983636 151.680572 
L 93.980327 153.084977 
L 97.977023 153.444549 
L 101.973713 150.253118 
L 105.97041 153.113666 
L 109.967106 155.481381 
L 113.963796 152.54891 
L 117.960493 151.172201 
L 121.957186 153.290795 
L 125.953882 153.568423 
L 129.950576 152.331175 
L 133.947269 153.260149 
L 137.943962 153.88588 
L 141.940659 152.875257 
L 145.937352 152.578433 
L 149.934045 153.447463 
L 153.93074 152.773022 
L 157.927434 155.864617 
L 161.924129 150.981549 
L 165.920823 150.647756 
L 169.917517 153.477049 
L 173.914211 151.999838 
L 177.910906 151.579939 
L 181.9076 153.656333 
L 185.904294 152.534767 
L 189.900988 151.89854 
L 193.897681 152.983663 
L 197.894377 154.469008 
L 201.891071 152.235191 
L 205.887764 153.445424 
L 209.884457 151.207851 
L 213.881154 151.467794 
L 217.877847 147.498339 
L 221.874543 142.312087 
L 225.871234 146.482162 
L 229.86793 148.640701 
L 233.864626 146.634491 
L 237.861317 146.765084 
L 241.858013 144.792333 
L 245.854704 144.165889 
L 249.8514 148.922212 
L 253.848096 148.552779 
L 257.844787 149.209225 
L 261.841483 148.905447 
L 265.838179 151.162045 
L 269.83487 150.773701 
L 273.83156 151.335628 
L 277.828262 153.333241 
L 281.824953 149.572807 
L 285.821643 151.836246 
L 289.818345 152.190512 
L 293.815036 153.487259 
L 297.811726 154.15464 
L 301.808428 155.2124 
L 305.805119 154.097534 
L 309.801809 152.517193 
L 313.798511 156.34282 
L 317.795202 152.669455 
L 321.791892 153.753582 
L 325.788594 150.777201 
L 329.785285 150.713449 
L 333.781975 149.305263 
L 337.778677 149.651161 
L 341.775368 158.006055 
L 345.772058 149.483137 
L 349.76876 153.756593 
L 353.765451 154.438899 
L 357.762141 152.821494 
L 361.758843 150.332543 
L 365.755534 152.237546 
L 369.752224 152.368192 
L 373.748914 155.260624 
L 377.745605 154.642491 
L 381.742319 152.691476 
L 385.739009 154.611081 
L 389.7357 151.672027 
L 393.73239 154.657219 
L 397.72908 152.763231 
L 401.725771 153.87036 
L 405.722485 153.206014 
L 409.719175 150.591084 
L 413.715866 156.32499 
L 417.712556 150.952912 
L 421.709246 153.923781 
L 425.705937 154.2681 
L 429.702627 147.867399 
L 433.699341 153.51218 
L 437.696032 155.736007 
L 441.692722 153.188748 
L 445.689412 150.707818 
L 449.686103 149.103972 
L 453.682793 150.79131 
L 457.679507 153.184254 
L 461.676198 153.199582 
L 465.672888 149.869007 
L 469.669578 152.269875 
L 473.666269 155.467194 
L 477.662959 149.758301 
L 481.659673 153.363552 
L 485.656364 152.152527 
" clip-path="url(#p618834186c)" style="fill: none; stroke-dasharray: 1,1.65; stroke-dashoffset: 0; stroke: #ff7f0e"/>
   </g>
   <g id="line2d_15">
    <path d="M 89.983636 157.139389 
L 93.980327 127.934287 
L 97.977023 112.028907 
L 101.973713 120.871313 
L 105.97041 153.913135 
L 109.967106 121.939417 
L 113.963796 141.588497 
L 117.960493 155.309411 
L 121.957186 133.822853 
L 125.953882 144.641305 
L 129.950576 129.912273 
L 133.947269 148.094329 
L 137.943962 146.801895 
L 141.940659 111.68042 
L 145.937352 118.840535 
L 149.934045 171.788968 
L 153.93074 95.246035 
L 157.927434 148.530576 
L 161.924129 162.59103 
L 165.920823 124.297863 
L 169.917517 150.922203 
L 173.914211 132.635947 
L 177.910906 129.001642 
L 181.9076 184.406341 
L 185.904294 131.280781 
L 189.900988 156.099415 
L 193.897681 87.675931 
L 197.894377 165.785475 
L 201.891071 93.833504 
L 205.887764 138.364888 
L 209.884457 174.713103 
L 213.881154 168.949369 
L 217.877847 152.771028 
L 221.874543 114.291972 
L 225.871234 171.643781 
L 229.86793 126.364981 
L 233.864626 147.703122 
L 237.861317 125.529174 
L 241.858013 117.937027 
L 245.854704 172.097782 
L 249.8514 162.483754 
L 253.848096 96.239002 
L 257.844787 142.375521 
L 261.841483 144.615406 
L 265.838179 143.322768 
L 269.83487 149.880861 
L 273.83156 142.748283 
L 277.828262 128.439534 
L 281.824953 157.667738 
L 285.821643 184.67095 
L 289.818345 147.206068 
L 293.815036 111.349499 
L 297.811726 89.428145 
L 301.808428 157.512338 
L 305.805119 166.620023 
L 309.801809 181.812755 
L 313.798511 129.822542 
L 317.795202 169.604643 
L 321.791892 117.708331 
L 325.788594 162.826608 
L 329.785285 127.188566 
L 333.781975 134.708552 
L 337.778677 142.44512 
L 341.775368 110.56912 
L 345.772058 91.975527 
L 349.76876 139.800996 
L 353.765451 163.282366 
L 357.762141 114.270895 
L 361.758843 134.108978 
L 365.755534 166.011052 
L 369.752224 148.305694 
L 373.748914 127.208069 
L 377.745605 174.792583 
L 381.742319 110.588641 
L 385.739009 148.522279 
L 389.7357 124.898245 
L 393.73239 161.93029 
L 397.72908 167.447043 
L 401.725771 118.00538 
L 405.722485 132.327761 
L 409.719175 171.954227 
L 413.715866 150.943008 
L 417.712556 174.34021 
L 421.709246 184.425832 
L 425.705937 95.448514 
L 429.702627 152.247195 
L 433.699341 92.002223 
L 437.696032 200.07 
L 441.692722 151.101866 
L 445.689412 149.358081 
L 449.686103 155.027654 
L 453.682793 119.152145 
L 457.679507 136.363263 
L 461.676198 98.791327 
L 465.672888 103.234347 
L 469.669578 145.287248 
L 473.666269 146.34012 
L 477.662959 177.393174 
L 481.659673 165.930616 
L 485.656364 193.655462 
" clip-path="url(#p618834186c)" style="fill: none; stroke: #1f77b4; stroke-width: 2.2; stroke-linecap: square"/>
   </g>
   <g id="line2d_16">
    <path d="M 89.983636 158.980793 
L 93.980327 97.607006 
L 97.977023 171.88095 
L 101.973713 154.99387 
L 105.97041 153.594986 
L 109.967106 140.395716 
L 113.963796 117.194087 
L 117.960493 168.7226 
L 121.957186 138.448166 
L 125.953882 156.849496 
L 129.950576 130.542905 
L 133.947269 123.939038 
L 137.943962 182.28679 
L 141.940659 160.821251 
L 145.937352 181.860471 
L 149.934045 141.720824 
L 153.93074 164.619474 
L 157.927434 96.518945 
L 161.924129 98.206704 
L 165.920823 182.660622 
L 169.917517 142.892408 
L 173.914211 143.927196 
L 177.910906 114.510614 
L 181.9076 153.253851 
L 185.904294 171.818358 
L 189.900988 107.638228 
L 193.897681 140.148738 
L 197.894377 167.097422 
L 201.891071 188.749612 
L 205.887764 137.423188 
L 209.884457 169.766522 
L 213.881154 176.366244 
L 217.877847 126.31849 
L 221.874543 154.749318 
L 225.871234 144.417063 
L 229.86793 95.714088 
L 233.864626 131.066062 
L 237.861317 159.652069 
L 241.858013 154.818469 
L 245.854704 121.246873 
L 249.8514 143.188948 
L 253.848096 159.343746 
L 257.844787 145.738141 
L 261.841483 73.71 
L 265.838179 118.911582 
L 269.83487 136.333845 
L 273.83156 141.315937 
L 277.828262 154.976602 
L 281.824953 123.10979 
L 285.821643 136.988896 
L 289.818345 135.116185 
L 293.815036 186.797841 
L 297.811726 139.663926 
L 301.808428 139.287573 
L 305.805119 158.752768 
L 309.801809 168.25402 
L 313.798511 165.782574 
L 317.795202 107.001905 
L 321.791892 116.010773 
L 325.788594 119.925867 
L 329.785285 180.437399 
L 333.781975 178.213093 
L 337.778677 120.454829 
L 341.775368 146.017645 
L 345.772058 171.06222 
L 349.76876 108.434983 
L 353.765451 153.697085 
L 357.762141 112.329867 
L 361.758843 149.836136 
L 365.755534 132.844018 
L 369.752224 177.339511 
L 373.748914 132.424117 
L 377.745605 145.533404 
L 381.742319 118.092255 
L 385.739009 157.584517 
L 389.7357 182.373411 
L 393.73239 161.492435 
L 397.72908 151.483769 
L 401.725771 167.878612 
L 405.722485 162.016128 
L 409.719175 149.228102 
L 413.715866 150.790895 
L 417.712556 104.651476 
L 421.709246 150.293035 
L 425.705937 138.05604 
L 429.702627 94.097872 
L 433.699341 146.557679 
L 437.696032 149.755805 
L 441.692722 124.735975 
L 445.689412 152.443028 
L 449.686103 106.924217 
L 453.682793 120.286306 
L 457.679507 162.902373 
L 461.676198 144.876108 
L 465.672888 141.551632 
L 469.669578 163.001815 
L 473.666269 164.912972 
L 477.662959 156.522631 
L 481.659673 166.13146 
L 485.656364 134.692266 
" clip-path="url(#p618834186c)" style="fill: none; stroke: #ff7f0e; stroke-width: 2.2; stroke-linecap: square"/>
   </g>
   <g id="patch_3">
    <path d="M 70.2 206.388 
L 70.2 67.392 
" style="fill: none; stroke: #000000; stroke-width: 0.8; stroke-linejoin: miter; stroke-linecap: square"/>
   </g>
   <g id="patch_4">
    <path d="M 505.44 206.388 
L 505.44 67.392 
" style="fill: none; stroke: #000000; stroke-width: 0.8; stroke-linejoin: miter; stroke-linecap: square"/>
   </g>
   <g id="patch_5">
    <path d="M 70.2 206.388 
L 505.44 206.388 
" style="fill: none; stroke: #000000; stroke-width: 0.8; stroke-linejoin: miter; stroke-linecap: square"/>
   </g>
   <g id="patch_6">
    <path d="M 70.2 67.392 
L 505.44 67.392 
" style="fill: none; stroke: #000000; stroke-width: 0.8; stroke-linejoin: miter; stroke-linecap: square"/>
   </g>
   <g id="text_13">
    <!-- (MFEF vs MLIP) — R-flow — Panel A: overlay + null bands -->
    <g transform="translate(116.584688 61.392) scale(0.12 -0.12)">
     <defs>
      <path id="DejaVuSans-4d" d="M 628 4666 
L 1569 4666 
L 2759 1491 
L 3956 4666 
L 4897 4666 
L 4897 0 
L 4281 0 
L 4281 4097 
L 3078 897 
L 2444 897 
L 1241 4097 
L 1241 0 
L 628 0 
L 628 4666 
z
" transform="scale(0.015625)"/>
      <path id="DejaVuSans-46" d="M 628 4666 
L 3309 4666 
L 3309 4134 
L 1259 4134 
L 1259 2759 
L 3109 2759 
L 3109 2228 
L 1259 2228 
L 1259 0 
L 628 0 
L 628 4666 
z
" transform="scale(0.015625)"/>
      <path id="DejaVuSans-45" d="M 628 4666 
L 3578 4666 
L 3578 4134 
L 1259 4134 
L 1259 2753 
L 3481 2753 
L 3481 2222 
L 1259 2222 
L 1259 531 
L 3634 531 
L 3634 0 
L 628 0 
L 628 4666 
z
" transform="scale(0.015625)"/>
      <path id="DejaVuSans-76" d="M 191 3500 
L 800 3500 
L 1894 563 
L 2988 3500 
L 3597 3500 
L 2284 0 
L 1503 0 
L 191 3500 
z
" transform="scale(0.015625)"/>
      <path id="DejaVuSans-49" d="M 628 4666 
L 1259 4666 
L 1259 0 
L 628 0 
L 628 4666 
z
" transform="scale(0.015625)"/>
      <path id="DejaVuSans-50" d="M 1259 4147 
L 1259 2394 
L 2053 2394 
Q 2494 2394 2734 2622 
Q 2975 2850 2975 3272 
Q 2975 3691 2734 3919 
Q 2494 4147 2053 4147 
L 1259 4147 
z
M 628 4666 
L 2053 4666 
Q 2838 4666 3239 4311 
Q 3641 3956 3641 3272 
Q 3641 2581 3239 2228 
Q 2838 1875 2053 1875 
L 1259 1875 
L 1259 0 
L 628 0 
L 628 4666 
z
" transform="scale(0.015625)"/>
      <path id="DejaVuSans-2014" d="M 313 1978 
L 6088 1978 
L 6088 1528 
L 313 1528 
L 313 1978 
z
" transform="scale(0.015625)"/>
      <path id="DejaVuSans-52" d="M 2841 2188 
Q 3044 2119 3236 1894 
Q 3428 1669 3622 1275 
L 4263 0 
L 3584 0 
L 2988 1197 
Q 2756 1666 2539 1819 
Q 2322 1972 1947 1972 
L 1259 1972 
L 1259 0 
L 628 0 
L 628 4666 
L 2053 4666 
Q 2853 4666 3247 4331 
Q 3641 3997 3641 3322 
Q 3641 2881 3436 2590 
Q 3231 2300 2841 2188 
z
M 1259 4147 
L 1259 2491 
L 2053 2491 
Q 2509 2491 2742 2702 
Q 2975 2913 2975 3322 
Q 2975 3731 2742 3939 
Q 2509 4147 2053 4147 
L 1259 4147 
z
" transform="scale(0.015625)"/>
      <path id="DejaVuSans-2d" d="M 313 2009 
L 1997 2009 
L 1997 1497 
L 313 1497 
L 313 2009 
z
" transform="scale(0.015625)"/>
      <path id="DejaVuSans-66" d="M 2375 4863 
L 2375 4384 
L 1825 4384 
Q 1516 4384 1395 4259 
Q 1275 4134 1275 3809 
L 1275 3500 
L 2222 3500 
L 2222 3053 
L 1275 3053 
L 1275 0 
L 697 0 
L 697 3053 
L 147 3053 
L 147 3500 
L 697 3500 
L 697 3744 
Q 697 4328 969 4595 
Q 1241 4863 1831 4863 
L 2375 4863 
z
" transform="scale(0.015625)"/>
      <path id="DejaVuSans-6c" d="M 603 4863 
L 1178 4863 
L 1178 0 
L 603 0 
L 603 4863 
z
" transform="scale(0.015625)"/>
      <path id="DejaVuSans-6f" d="M 1959 3097 
Q 1497 3097 1228 2736 
Q 959 2375 959 1747 
Q 959 1119 1226 758 
Q 1494 397 1959 397 
Q 2419 397 2687 759 
Q 2956 1122 2956 1747 
Q 2956 2369 2687 2733 
Q 2419 3097 1959 3097 
z
M 1959 3584 
Q 2709 3584 3137 3096 
Q 3566 2609 3566 1747 
Q 3566 888 3137 398 
Q 2709 -91 1959 -91 
Q 1206 -91 779 398 
Q 353 888 353 1747 
Q 353 2609 779 3096 
Q 1206 3584 1959 3584 
z
" transform="scale(0.015625)"/>
      <path id="DejaVuSans-77" d="M 269 3500 
L 844 3500 
L 1563 769 
L 2278 3500 
L 2956 3500 
L 3675 769 
L 4391 3500 
L 4966 3500 
L 4050 0 
L 3372 0 
L 2619 2869 
L 1863 0 
L 1184 0 
L 269 3500 
z
" transform="scale(0.015625)"/>
      <path id="DejaVuSans-61" d="M 2194 1759 
Q 1497 1759 1228 1600 
Q 959 1441 959 1056 
Q 959 750 1161 570 
Q 1363 391 1709 391 
Q 2188 391 2477 730 
Q 2766 1069 2766 1631 
L 2766 1759 
L 2194 1759 
z
M 3341 1997 
L 3341 0 
L 2766 0 
L 2766 531 
Q 2569 213 2275 61 
Q 1981 -91 1556 -91 
Q 1019 -91 701 211 
Q 384 513 384 1019 
Q 384 1609 779 1909 
Q 1175 2209 1959 2209 
L 2766 2209 
L 2766 2266 
Q 2766 2663 2505 2880 
Q 2244 3097 1772 3097 
Q 1472 3097 1187 3025 
Q 903 2953 641 2809 
L 641 3341 
Q 956 3463 1253 3523 
Q 1550 3584 1831 3584 
Q 2591 3584 2966 3190 
Q 3341 2797 3341 1997 
z
" transform="scale(0.015625)"/>
      <path id="DejaVuSans-6e" d="M 3513 2113 
L 3513 0 
L 2938 0 
L 2938 2094 
Q 2938 2591 2744 2837 
Q 2550 3084 2163 3084 
Q 1697 3084 1428 2787 
Q 1159 2491 1159 1978 
L 1159 0 
L 581 0 
L 581 3500 
L 1159 3500 
L 1159 2956 
Q 1366 3272 1645 3428 
Q 1925 3584 2291 3584 
Q 2894 3584 3203 3211 
Q 3513 2838 3513 2113 
z
" transform="scale(0.015625)"/>
      <path id="DejaVuSans-65" d="M 3597 1894 
L 3597 1613 
L 953 1613 
Q 991 1019 1311 708 
Q 1631 397 2203 397 
Q 2534 397 2845 478 
Q 3156 559 3463 722 
L 3463 178 
Q 3153 47 2828 -22 
Q 2503 -91 2169 -91 
Q 1331 -91 842 396 
Q 353 884 353 1716 
Q 353 2575 817 3079 
Q 1281 3584 2069 3584 
Q 2775 3584 3186 3129 
Q 3597 2675 3597 1894 
z
M 3022 2063 
Q 3016 2534 2758 2815 
Q 2500 3097 2075 3097 
Q 1594 3097 1305 2825 
Q 1016 2553 972 2059 
L 3022 2063 
z
" transform="scale(0.015625)"/>
      <path id="DejaVuSans-41" d="M 2188 4044 
L 1331 1722 
L 3047 1722 
L 2188 4044 
z
M 1831 4666 
L 2547 4666 
L 4325 0 
L 3669 0 
L 3244 1197 
L 1141 1197 
L 716 0 
L 50 0 
L 1831 4666 
z
" transform="scale(0.015625)"/>
      <path id="DejaVuSans-3a" d="M 750 794 
L 1409 794 
L 1409 0 
L 750 0 
L 750 794 
z
M 750 3309 
L 1409 3309 
L 1409 2516 
L 750 2516 
L 750 3309 
z
" transform="scale(0.015625)"/>
      <path id="DejaVuSans-72" d="M 2631 2963 
Q 2534 3019 2420 3045 
Q 2306 3072 2169 3072 
Q 1681 3072 1420 2755 
Q 1159 2438 1159 1844 
L 1159 0 
L 581 0 
L 581 3500 
L 1159 3500 
L 1159 2956 
Q 1341 3275 1631 3429 
Q 1922 3584 2338 3584 
Q 2397 3584 2469 3576 
Q 2541 3569 2628 3553 
L 2631 2963 
z
" transform="scale(0.015625)"/>
      <path id="DejaVuSans-79" d="M 2059 -325 
Q 1816 -950 1584 -1140 
Q 1353 -1331 966 -1331 
L 506 -1331 
L 506 -850 
L 844 -850 
Q 1081 -850 1212 -737 
Q 1344 -625 1503 -206 
L 1606 56 
L 191 3500 
L 800 3500 
L 1894 763 
L 2988 3500 
L 3597 3500 
L 2059 -325 
z
" transform="scale(0.015625)"/>
      <path id="DejaVuSans-2b" d="M 2944 4013 
L 2944 2272 
L 4684 2272 
L 4684 1741 
L 2944 1741 
L 2944 0 
L 2419 0 
L 2419 1741 
L 678 1741 
L 678 2272 
L 2419 2272 
L 2419 4013 
L 2944 4013 
z
" transform="scale(0.015625)"/>
      <path id="DejaVuSans-75" d="M 544 1381 
L 544 3500 
L 1119 3500 
L 1119 1403 
Q 1119 906 1312 657 
Q 1506 409 1894 409 
Q 2359 409 2629 706 
Q 2900 1003 2900 1516 
L 2900 3500 
L 3475 3500 
L 3475 0 
L 2900 0 
L 2900 538 
Q 2691 219 2414 64 
Q 2138 -91 1772 -91 
Q 1169 -91 856 284 
Q 544 659 544 1381 
z
M 1991 3584 
L 1991 3584 
z
" transform="scale(0.015625)"/>
      <path id="DejaVuSans-64" d="M 2906 2969 
L 2906 4863 
L 3481 4863 
L 3481 0 
L 2906 0 
L 2906 525 
Q 2725 213 2448 61 
Q 2172 -91 1784 -91 
Q 1150 -91 751 415 
Q 353 922 353 1747 
Q 353 2572 751 3078 
Q 1150 3584 1784 3584 
Q 2172 3584 2448 3432 
Q 2725 3281 2906 2969 
z
M 947 1747 
Q 947 1113 1208 752 
Q 1469 391 1925 391 
Q 2381 391 2643 752 
Q 2906 1113 2906 1747 
Q 2906 2381 2643 2742 
Q 2381 3103 1925 3103 
Q 1469 3103 1208 2742 
Q 947 2381 947 1747 
z
" transform="scale(0.015625)"/>
     </defs>
     <use xlink:href="#DejaVuSans-28"/>
     <use xlink:href="#DejaVuSans-4d" transform="translate(39.013672 0)"/>
     <use xlink:href="#DejaVuSans-46" transform="translate(125.292969 0)"/>
     <use xlink:href="#DejaVuSans-45" transform="translate(182.8125 0)"/>
     <use xlink:href="#DejaVuSans-46" transform="translate(245.996094 0)"/>
     <use xlink:href="#DejaVuSans-20" transform="translate(303.515625 0)"/>
     <use xlink:href="#DejaVuSans-76" transform="translate(335.302734 0)"/>
     <use xlink:href="#DejaVuSans-73" transform="translate(394.482422 0)"/>
     <use xlink:href="#DejaVuSans-20" transform="translate(446.582031 0)"/>
     <use xlink:href="#DejaVuSans-4d" transform="translate(478.369141 0)"/>
     <use xlink:href="#DejaVuSans-4c" transform="translate(564.648438 0)"/>
     <use xlink:href="#DejaVuSans-49" transform="translate(620.361328 0)"/>
     <use xlink:href="#DejaVuSans-50" transform="translate(649.853516 0)"/>
     <use xlink:href="#DejaVuSans-29" transform="translate(710.15625 0)"/>
     <use xlink:href="#DejaVuSans-20" transform="translate(749.169922 0)"/>
     <use xlink:href="#DejaVuSans-2014" transform="translate(780.957031 0)"/>
     <use xlink:href="#DejaVuSans-20" transform="translate(880.957031 0)"/>
     <use xlink:href="#DejaVuSans-52" transform="translate(912.744141 0)"/>
     <use xlink:href="#DejaVuSans-2d" transform="translate(978.226562 0)"/>
     <use xlink:href="#DejaVuSans-66" transform="translate(1014.310547 0)"/>
     <use xlink:href="#DejaVuSans-6c" transform="translate(1049.515625 0)"/>
     <use xlink:href="#DejaVuSans-6f" transform="translate(1077.298828 0)"/>
     <use xlink:href="#DejaVuSans-77" transform="translate(1138.480469 0)"/>
     <use xlink:href="#DejaVuSans-20" transform="translate(1220.267578 0)"/>
     <use xlink:href="#DejaVuSans-2014" transform="translate(1252.054688 0)"/>
     <use xlink:href="#DejaVuSans-20" transform="translate(1352.054688 0)"/>
     <use xlink:href="#DejaVuSans-50" transform="translate(1383.841797 0)"/>
     <use xlink:href="#DejaVuSans-61" transform="translate(1439.644531 0)"/>
     <use xlink:href="#DejaVuSans-6e" transform="translate(1500.923828 0)"/>
     <use xlink:href="#DejaVuSans-65" transform="translate(1564.302734 0)"/>
     <use xlink:href="#DejaVuSans-6c" transform="translate(1625.826172 0)"/>
     <use xlink:href="#DejaVuSans-20" transform="translate(1653.609375 0)"/>
     <use xlink:href="#DejaVuSans-41" transform="translate(1685.396484 0)"/>
     <use xlink:href="#DejaVuSans-3a" transform="translate(1752.054688 0)"/>
     <use xlink:href="#DejaVuSans-20" transform="translate(1785.746094 0)"/>
     <use xlink:href="#DejaVuSans-6f" transform="translate(1817.533203 0)"/>
     <use xlink:href="#DejaVuSans-76" transform="translate(1878.714844 0)"/>
     <use xlink:href="#DejaVuSans-65" transform="translate(1937.894531 0)"/>
     <use xlink:href="#DejaVuSans-72" transform="translate(1999.417969 0)"/>
     <use xlink:href="#DejaVuSans-6c" transform="translate(2040.53125 0)"/>
     <use xlink:href="#DejaVuSans-61" transform="translate(2068.314453 0)"/>
     <use xlink:href="#DejaVuSans-79" transform="translate(2129.59375 0)"/>
     <use xlink:href="#DejaVuSans-20" transform="translate(2188.773438 0)"/>
     <use xlink:href="#DejaVuSans-2b" transform="translate(2220.560547 0)"/>
     <use xlink:href="#DejaVuSans-20" transform="translate(2304.349609 0)"/>
     <use xlink:href="#DejaVuSans-6e" transform="translate(2336.136719 0)"/>
     <use xlink:href="#DejaVuSans-75" transform="translate(2399.515625 0)"/>
     <use xlink:href="#DejaVuSans-6c" transform="translate(2462.894531 0)"/>
     <use xlink:href="#DejaVuSans-6c" transform="translate(2490.677734 0)"/>
     <use xlink:href="#DejaVuSans-20" transform="translate(2518.460938 0)"/>
     <use xlink:href="#DejaVuSans-62" transform="translate(2550.248047 0)"/>
     <use xlink:href="#DejaVuSans-61" transform="translate(2613.724609 0)"/>
     <use xlink:href="#DejaVuSans-6e" transform="translate(2675.003906 0)"/>
     <use xlink:href="#DejaVuSans-64" transform="translate(2738.382812 0)"/>
     <use xlink:href="#DejaVuSans-73" transform="translate(2801.859375 0)"/>
    </g>
   </g>
   <g id="legend_1">
    <g id="patch_7">
     <path d="M 79.2 83.990437 
L 99.2 83.990437 
L 99.2 76.990437 
L 79.2 76.990437 
z
" style="fill: #1f77b4; fill-opacity: 0.15"/>
    </g>
    <g id="text_14">
     <!-- MFEF→MLIP null μ±σ -->
     <g transform="translate(107.2 83.990437) scale(0.1 -0.1)">
      <defs>
       <path id="DejaVuSans-2192" d="M 5050 2147 
L 5050 1866 
L 3822 638 
L 3447 1013 
L 4175 1741 
L 366 1741 
L 366 2272 
L 4175 2272 
L 3447 3000 
L 3822 3375 
L 5050 2147 
z
" transform="scale(0.015625)"/>
       <path id="DejaVuSans-3bc" d="M 544 -1331 
L 544 3500 
L 1119 3500 
L 1119 1325 
Q 1119 872 1334 640 
Q 1550 409 1972 409 
Q 2434 409 2667 671 
Q 2900 934 2900 1459 
L 2900 3500 
L 3475 3500 
L 3475 806 
Q 3475 619 3529 530 
Q 3584 441 3700 441 
Q 3728 441 3778 458 
Q 3828 475 3916 513 
L 3916 50 
Q 3788 -22 3673 -56 
Q 3559 -91 3450 -91 
Q 3234 -91 3106 31 
Q 2978 153 2931 403 
Q 2775 156 2548 32 
Q 2322 -91 2016 -91 
Q 1697 -91 1473 31 
Q 1250 153 1119 397 
L 1119 -1331 
L 544 -1331 
z
" transform="scale(0.015625)"/>
       <path id="DejaVuSans-b1" d="M 2944 4013 
L 2944 2803 
L 4684 2803 
L 4684 2272 
L 2944 2272 
L 2944 1063 
L 2419 1063 
L 2419 2272 
L 678 2272 
L 678 2803 
L 2419 2803 
L 2419 4013 
L 2944 4013 
z
M 678 531 
L 4684 531 
L 4684 0 
L 678 0 
L 678 531 
z
" transform="scale(0.015625)"/>
       <path id="DejaVuSans-3c3" d="M 1959 3044 
Q 1484 3044 1228 2700 
Q 959 2341 959 1747 
Q 959 1119 1226 758 
Q 1494 397 1959 397 
Q 2419 397 2687 759 
Q 2956 1122 2956 1747 
Q 2956 2319 2688 2700 
Q 2441 3044 1959 3044 
z
M 1959 3500 
L 3869 3500 
L 3869 2925 
L 3225 2925 
Q 3566 2438 3566 1747 
Q 3566 888 3138 400 
Q 2709 -91 1959 -91 
Q 1206 -91 781 400 
Q 353 888 353 1747 
Q 353 2613 781 3097 
Q 1134 3500 1959 3500 
z
" transform="scale(0.015625)"/>
      </defs>
      <use xlink:href="#DejaVuSans-4d"/>
      <use xlink:href="#DejaVuSans-46" transform="translate(86.279297 0)"/>
      <use xlink:href="#DejaVuSans-45" transform="translate(143.798828 0)"/>
      <use xlink:href="#DejaVuSans-46" transform="translate(206.982422 0)"/>
      <use xlink:href="#DejaVuSans-2192" transform="translate(264.501953 0)"/>
      <use xlink:href="#DejaVuSans-4d" transform="translate(348.291016 0)"/>
      <use xlink:href="#DejaVuSans-4c" transform="translate(434.570312 0)"/>
      <use xlink:href="#DejaVuSans-49" transform="translate(490.283203 0)"/>
      <use xlink:href="#DejaVuSans-50" transform="translate(519.775391 0)"/>
      <use xlink:href="#DejaVuSans-20" transform="translate(580.078125 0)"/>
      <use xlink:href="#DejaVuSans-6e" transform="translate(611.865234 0)"/>
      <use xlink:href="#DejaVuSans-75" transform="translate(675.244141 0)"/>
      <use xlink:href="#DejaVuSans-6c" transform="translate(738.623047 0)"/>
      <use xlink:href="#DejaVuSans-6c" transform="translate(766.40625 0)"/>
      <use xlink:href="#DejaVuSans-20" transform="translate(794.189453 0)"/>
      <use xlink:href="#DejaVuSans-3bc" transform="translate(825.976562 0)"/>
      <use xlink:href="#DejaVuSans-b1" transform="translate(889.599609 0)"/>
      <use xlink:href="#DejaVuSans-3c3" transform="translate(973.388672 0)"/>
     </g>
    </g>
    <g id="patch_8">
     <path d="M 79.2 98.668563 
L 99.2 98.668563 
L 99.2 91.668563 
L 79.2 91.668563 
z
" style="fill: #ff7f0e; fill-opacity: 0.15"/>
    </g>
    <g id="text_15">
     <!-- MLIP→MFEF null μ±σ -->
     <g transform="translate(107.2 98.668563) scale(0.1 -0.1)">
      <use xlink:href="#DejaVuSans-4d"/>
      <use xlink:href="#DejaVuSans-4c" transform="translate(86.279297 0)"/>
      <use xlink:href="#DejaVuSans-49" transform="translate(141.992188 0)"/>
      <use xlink:href="#DejaVuSans-50" transform="translate(171.484375 0)"/>
      <use xlink:href="#DejaVuSans-2192" transform="translate(231.787109 0)"/>
      <use xlink:href="#DejaVuSans-4d" transform="translate(315.576172 0)"/>
      <use xlink:href="#DejaVuSans-46" transform="translate(401.855469 0)"/>
      <use xlink:href="#DejaVuSans-45" transform="translate(459.375 0)"/>
      <use xlink:href="#DejaVuSans-46" transform="translate(522.558594 0)"/>
      <use xlink:href="#DejaVuSans-20" transform="translate(580.078125 0)"/>
      <use xlink:href="#DejaVuSans-6e" transform="translate(611.865234 0)"/>
      <use xlink:href="#DejaVuSans-75" transform="translate(675.244141 0)"/>
      <use xlink:href="#DejaVuSans-6c" transform="translate(738.623047 0)"/>
      <use xlink:href="#DejaVuSans-6c" transform="translate(766.40625 0)"/>
      <use xlink:href="#DejaVuSans-20" transform="translate(794.189453 0)"/>
      <use xlink:href="#DejaVuSans-3bc" transform="translate(825.976562 0)"/>
      <use xlink:href="#DejaVuSans-b1" transform="translate(889.599609 0)"/>
      <use xlink:href="#DejaVuSans-3c3" transform="translate(973.388672 0)"/>
     </g>
    </g>
    <g id="line2d_17">
     <path d="M 230.876562 80.490437 
L 240.876562 80.490437 
L 250.876562 80.490437 
" style="fill: none; stroke: #1f77b4; stroke-width: 2.2; stroke-linecap: square"/>
    </g>
    <g id="text_16">
     <!-- MFEF→MLIP -->
     <g transform="translate(258.876562 83.990437) scale(0.1 -0.1)">
      <use xlink:href="#DejaVuSans-4d"/>
      <use xlink:href="#DejaVuSans-46" transform="translate(86.279297 0)"/>
      <use xlink:href="#DejaVuSans-45" transform="translate(143.798828 0)"/>
      <use xlink:href="#DejaVuSans-46" transform="translate(206.982422 0)"/>
      <use xlink:href="#DejaVuSans-2192" transform="translate(264.501953 0)"/>
      <use xlink:href="#DejaVuSans-4d" transform="translate(348.291016 0)"/>
      <use xlink:href="#DejaVuSans-4c" transform="translate(434.570312 0)"/>
      <use xlink:href="#DejaVuSans-49" transform="translate(490.283203 0)"/>
      <use xlink:href="#DejaVuSans-50" transform="translate(519.775391 0)"/>
     </g>
    </g>
    <g id="line2d_18">
     <path d="M 230.876562 95.168563 
L 240.876562 95.168563 
L 250.876562 95.168563 
" style="fill: none; stroke: #ff7f0e; stroke-width: 2.2; stroke-linecap: square"/>
    </g>
    <g id="text_17">
     <!-- MLIP→MFEF -->
     <g transform="translate(258.876562 98.668563) scale(0.1 -0.1)">
      <use xlink:href="#DejaVuSans-4d"/>
      <use xlink:href="#DejaVuSans-4c" transform="translate(86.279297 0)"/>
      <use xlink:href="#DejaVuSans-49" transform="translate(141.992188 0)"/>
      <use xlink:href="#DejaVuSans-50" transform="translate(171.484375 0)"/>
      <use xlink:href="#DejaVuSans-2192" transform="translate(231.787109 0)"/>
      <use xlink:href="#DejaVuSans-4d" transform="translate(315.576172 0)"/>
      <use xlink:href="#DejaVuSans-46" transform="translate(401.855469 0)"/>
      <use xlink:href="#DejaVuSans-45" transform="translate(459.375 0)"/>
      <use xlink:href="#DejaVuSans-46" transform="translate(522.558594 0)"/>
     </g>
    </g>
   </g>
  </g>
  <g id="axes_2">
   <g id="patch_9">
    <path d="M 70.2 353.106 
L 505.44 353.106 
L 505.44 237.276 
L 70.2 237.276 
z
" style="fill: #ffffff"/>
   </g>
   <g id="matplotlib.axis_3">
    <g id="xtick_7">
     <g id="line2d_19">
      <g>
       <use xlink:href="#m7044adea0f" x="87.985286" y="353.106" style="stroke: #000000; stroke-width: 0.8"/>
      </g>
     </g>
     <g id="text_18">
      <!-- −200 -->
      <g transform="translate(74.251693 367.704438) scale(0.1 -0.1)">
       <use xlink:href="#DejaVuSans-2212"/>
       <use xlink:href="#DejaVuSans-32" transform="translate(83.789062 0)"/>
       <use xlink:href="#DejaVuSans-30" transform="translate(147.412109 0)"/>
       <use xlink:href="#DejaVuSans-30" transform="translate(211.035156 0)"/>
      </g>
     </g>
    </g>
    <g id="xtick_8">
     <g id="line2d_20">
      <g>
       <use xlink:href="#m7044adea0f" x="167.91917" y="353.106" style="stroke: #000000; stroke-width: 0.8"/>
      </g>
     </g>
     <g id="text_19">
      <!-- 0 -->
      <g transform="translate(164.73792 367.704438) scale(0.1 -0.1)">
       <use xlink:href="#DejaVuSans-30"/>
      </g>
     </g>
    </g>
    <g id="xtick_9">
     <g id="line2d_21">
      <g>
       <use xlink:href="#m7044adea0f" x="247.853053" y="353.106" style="stroke: #000000; stroke-width: 0.8"/>
      </g>
     </g>
     <g id="text_20">
      <!-- 200 -->
      <g transform="translate(238.309303 367.704438) scale(0.1 -0.1)">
       <use xlink:href="#DejaVuSans-32"/>
       <use xlink:href="#DejaVuSans-30" transform="translate(63.623047 0)"/>
       <use xlink:href="#DejaVuSans-30" transform="translate(127.246094 0)"/>
      </g>
     </g>
    </g>
    <g id="xtick_10">
     <g id="line2d_22">
      <g>
       <use xlink:href="#m7044adea0f" x="327.786937" y="353.106" style="stroke: #000000; stroke-width: 0.8"/>
      </g>
     </g>
     <g id="text_21">
      <!-- 400 -->
      <g transform="translate(318.243187 367.704438) scale(0.1 -0.1)">
       <use xlink:href="#DejaVuSans-34"/>
       <use xlink:href="#DejaVuSans-30" transform="translate(63.623047 0)"/>
       <use xlink:href="#DejaVuSans-30" transform="translate(127.246094 0)"/>
      </g>
     </g>
    </g>
    <g id="xtick_11">
     <g id="line2d_23">
      <g>
       <use xlink:href="#m7044adea0f" x="407.720821" y="353.106" style="stroke: #000000; stroke-width: 0.8"/>
      </g>
     </g>
     <g id="text_22">
      <!-- 600 -->
      <g transform="translate(398.177071 367.704438) scale(0.1 -0.1)">
       <use xlink:href="#DejaVuSans-36"/>
       <use xlink:href="#DejaVuSans-30" transform="translate(63.623047 0)"/>
       <use xlink:href="#DejaVuSans-30" transform="translate(127.246094 0)"/>
      </g>
     </g>
    </g>
    <g id="xtick_12">
     <g id="line2d_24">
      <g>
       <use xlink:href="#m7044adea0f" x="487.654704" y="353.106" style="stroke: #000000; stroke-width: 0.8"/>
      </g>
     </g>
     <g id="text_23">
      <!-- 800 -->
      <g transform="translate(478.110954 367.704438) scale(0.1 -0.1)">
       <use xlink:href="#DejaVuSans-38"/>
       <use xlink:href="#DejaVuSans-30" transform="translate(63.623047 0)"/>
       <use xlink:href="#DejaVuSans-30" transform="translate(127.246094 0)"/>
      </g>
     </g>
    </g>
   </g>
   <g id="matplotlib.axis_4">
    <g id="ytick_6">
     <g id="line2d_25">
      <g>
       <use xlink:href="#m9d179fb7ce" x="70.2" y="335.64971" style="stroke: #000000; stroke-width: 0.8"/>
      </g>
     </g>
     <g id="text_24">
      <!-- −5 -->
      <g transform="translate(48.457813 339.448929) scale(0.1 -0.1)">
       <use xlink:href="#DejaVuSans-2212"/>
       <use xlink:href="#DejaVuSans-35" transform="translate(83.789062 0)"/>
      </g>
     </g>
    </g>
    <g id="ytick_7">
     <g id="line2d_26">
      <g>
       <use xlink:href="#m9d179fb7ce" x="70.2" y="302.814639" style="stroke: #000000; stroke-width: 0.8"/>
      </g>
     </g>
     <g id="text_25">
      <!-- 0 -->
      <g transform="translate(56.8375 306.613858) scale(0.1 -0.1)">
       <use xlink:href="#DejaVuSans-30"/>
      </g>
     </g>
    </g>
    <g id="ytick_8">
     <g id="line2d_27">
      <g>
       <use xlink:href="#m9d179fb7ce" x="70.2" y="269.979569" style="stroke: #000000; stroke-width: 0.8"/>
      </g>
     </g>
     <g id="text_26">
      <!-- 5 -->
      <g transform="translate(56.8375 273.778788) scale(0.1 -0.1)">
       <use xlink:href="#DejaVuSans-35"/>
      </g>
     </g>
    </g>
    <g id="text_27">
     <!-- ΔΔLL (bits) -->
     <g transform="translate(42.378125 322.22225) rotate(-90) scale(0.1 -0.1)">
      <use xlink:href="#DejaVuSans-394"/>
      <use xlink:href="#DejaVuSans-394" transform="translate(68.408203 0)"/>
      <use xlink:href="#DejaVuSans-4c" transform="translate(136.816406 0)"/>
      <use xlink:href="#DejaVuSans-4c" transform="translate(192.529297 0)"/>
      <use xlink:href="#DejaVuSans-20" transform="translate(248.242188 0)"/>
      <use xlink:href="#DejaVuSans-28" transform="translate(280.029297 0)"/>
      <use xlink:href="#DejaVuSans-62" transform="translate(319.042969 0)"/>
      <use xlink:href="#DejaVuSans-69" transform="translate(382.519531 0)"/>
      <use xlink:href="#DejaVuSans-74" transform="translate(410.302734 0)"/>
      <use xlink:href="#DejaVuSans-73" transform="translate(449.511719 0)"/>
      <use xlink:href="#DejaVuSans-29" transform="translate(501.611328 0)"/>
     </g>
    </g>
   </g>
   <g id="line2d_28">
    <path d="M 167.91917 353.106 
L 167.91917 237.276 
" clip-path="url(#p9ee1ea4b7d)" style="fill: none; stroke-dasharray: 2.96,1.28; stroke-dashoffset: 0; stroke: #000000; stroke-width: 0.8"/>
   </g>
   <g id="line2d_29">
    <path d="M 70.2 302.814639 
L 505.44 302.814639 
" clip-path="url(#p9ee1ea4b7d)" style="fill: none; stroke-dasharray: 0.8,1.32; stroke-dashoffset: 0; stroke: #000000; stroke-width: 0.8"/>
   </g>
   <g id="line2d_30">
    <path d="M 89.983636 301.645311 
L 93.980327 322.073074 
L 97.977023 264.807387 
L 101.973713 281.146129 
L 105.97041 303.01667 
L 109.967106 291.094518 
L 113.963796 318.305581 
L 117.960493 294.296995 
L 121.957186 299.877473 
L 125.953882 295.062192 
L 129.950576 302.414176 
L 133.947269 318.153736 
L 137.943962 280.281017 
L 141.940659 271.609222 
L 145.937352 262.795711 
L 149.934045 321.908516 
L 153.93074 258.761108 
L 157.927434 335.843072 
L 161.924129 343.699983 
L 165.920823 265.753112 
L 169.917517 307.913721 
L 173.914211 295.644469 
L 177.910906 312.016734 
L 181.9076 322.597098 
L 185.904294 277.072462 
L 189.900988 333.588469 
L 193.897681 269.493351 
L 197.894377 301.981526 
L 201.891071 242.541 
L 205.887764 303.412638 
L 209.884457 305.955818 
L 213.881154 298.104775 
L 217.877847 319.612534 
L 221.874543 277.12341 
L 225.871234 320.104153 
L 229.86793 322.278573 
L 233.864626 313.379507 
L 237.861317 281.145915 
L 241.858013 279.394181 
L 245.854704 335.10599 
L 249.8514 315.06723 
L 253.848096 262.741856 
L 257.844787 300.679308 
L 261.841483 347.841 
L 265.838179 318.316234 
L 269.83487 311.417267 
L 273.83156 303.724208 
L 277.828262 285.963067 
L 281.824953 324.759633 
L 285.821643 333.093704 
L 289.818345 310.491959 
L 293.815036 254.903423 
L 297.811726 270.913907 
L 301.808428 314.387732 
L 305.805119 307.810505 
L 309.801809 311.424709 
L 313.798511 279.979295 
L 317.795202 342.568638 
L 321.791892 303.892623 
L 325.788594 330.057474 
L 329.785285 269.000558 
L 333.781975 275.18838 
L 337.778677 316.778918 
L 341.775368 280.304113 
L 345.772058 252.592997 
L 349.76876 322.73269 
L 353.765451 308.901486 
L 357.762141 304.047232 
L 361.758843 292.827577 
L 365.755534 323.876374 
L 369.752224 284.377581 
L 373.748914 299.502344 
L 377.745605 321.394808 
L 381.742319 298.049693 
L 385.739009 297.059936 
L 389.7357 266.316751 
L 393.73239 303.092686 
L 397.72908 312.95164 
L 401.725771 271.144133 
L 405.722485 283.961929 
L 409.719175 317.246186 
L 413.715866 302.911234 
L 417.712556 347.068389 
L 421.709246 324.489653 
L 425.705937 275.758002 
L 429.702627 339.74063 
L 433.699341 268.170826 
L 437.696032 334.765166 
L 441.692722 319.557511 
L 445.689412 300.855636 
L 449.686103 333.361291 
L 453.682793 302.094425 
L 457.679507 285.961771 
L 461.676198 273.549876 
L 465.672888 278.482393 
L 469.669578 291.565533 
L 473.666269 291.020505 
L 477.662959 316.067854 
L 481.659673 302.6871 
L 485.656364 340.257456 
" clip-path="url(#p9ee1ea4b7d)" style="fill: none; stroke: #d62728; stroke-width: 2.2; stroke-linecap: square"/>
   </g>
   <g id="line2d_31">
    <defs>
     <path id="m262fa64308" d="M 0 1.25 
C 0.331504 1.25 0.649475 1.118292 0.883883 0.883883 
C 1.118292 0.649475 1.25 0.331504 1.25 0 
C 1.25 -0.331504 1.118292 -0.649475 0.883883 -0.883883 
C 0.649475 -1.118292 0.331504 -1.25 0 -1.25 
C -0.331504 -1.25 -0.649475 -1.118292 -0.883883 -0.883883 
C -1.118292 -0.649475 -1.25 -0.331504 -1.25 0 
C -1.25 0.331504 -1.118292 0.649475 -0.883883 0.883883 
C -0.649475 1.118292 -0.331504 1.25 0 1.25 
z
" style="stroke: #000000"/>
    </defs>
    <g clip-path="url(#p9ee1ea4b7d)">
     <use xlink:href="#m262fa64308" x="93.980327" y="322.073074" style="stroke: #000000"/>
     <use xlink:href="#m262fa64308" x="97.977023" y="264.807387" style="stroke: #000000"/>
     <use xlink:href="#m262fa64308" x="153.93074" y="258.761108" style="stroke: #000000"/>
     <use xlink:href="#m262fa64308" x="157.927434" y="335.843072" style="stroke: #000000"/>
     <use xlink:href="#m262fa64308" x="161.924129" y="343.699983" style="stroke: #000000"/>
     <use xlink:href="#m262fa64308" x="193.897681" y="269.493351" style="stroke: #000000"/>
     <use xlink:href="#m262fa64308" x="201.891071" y="242.541" style="stroke: #000000"/>
     <use xlink:href="#m262fa64308" x="229.86793" y="322.278573" style="stroke: #000000"/>
     <use xlink:href="#m262fa64308" x="253.848096" y="262.741856" style="stroke: #000000"/>
     <use xlink:href="#m262fa64308" x="261.841483" y="347.841" style="stroke: #000000"/>
     <use xlink:href="#m262fa64308" x="297.811726" y="270.913907" style="stroke: #000000"/>
     <use xlink:href="#m262fa64308" x="317.795202" y="342.568638" style="stroke: #000000"/>
     <use xlink:href="#m262fa64308" x="345.772058" y="252.592997" style="stroke: #000000"/>
     <use xlink:href="#m262fa64308" x="349.76876" y="322.73269" style="stroke: #000000"/>
     <use xlink:href="#m262fa64308" x="357.762141" y="304.047232" style="stroke: #000000"/>
     <use xlink:href="#m262fa64308" x="381.742319" y="298.049693" style="stroke: #000000"/>
     <use xlink:href="#m262fa64308" x="425.705937" y="275.758002" style="stroke: #000000"/>
     <use xlink:href="#m262fa64308" x="429.702627" y="339.74063" style="stroke: #000000"/>
     <use xlink:href="#m262fa64308" x="433.699341" y="268.170826" style="stroke: #000000"/>
     <use xlink:href="#m262fa64308" x="461.676198" y="273.549876" style="stroke: #000000"/>
     <use xlink:href="#m262fa64308" x="465.672888" y="278.482393" style="stroke: #000000"/>
    </g>
   </g>
   <g id="patch_10">
    <path d="M 70.2 353.106 
L 70.2 237.276 
" style="fill: none; stroke: #000000; stroke-width: 0.8; stroke-linejoin: miter; stroke-linecap: square"/>
   </g>
   <g id="patch_11">
    <path d="M 505.44 353.106 
L 505.44 237.276 
" style="fill: none; stroke: #000000; stroke-width: 0.8; stroke-linejoin: miter; stroke-linecap: square"/>
   </g>
   <g id="patch_12">
    <path d="M 70.2 353.106 
L 505.44 353.106 
" style="fill: none; stroke: #000000; stroke-width: 0.8; stroke-linejoin: miter; stroke-linecap: square"/>
   </g>
   <g id="patch_13">
    <path d="M 70.2 237.276 
L 505.44 237.276 
" style="fill: none; stroke: #000000; stroke-width: 0.8; stroke-linejoin: miter; stroke-linecap: square"/>
   </g>
   <g id="text_28">
    <!-- Panel B: pair-diff with significance dots -->
    <g transform="translate(171.554063 231.276) scale(0.12 -0.12)">
     <defs>
      <path id="DejaVuSans-42" d="M 1259 2228 
L 1259 519 
L 2272 519 
Q 2781 519 3026 730 
Q 3272 941 3272 1375 
Q 3272 1813 3026 2020 
Q 2781 2228 2272 2228 
L 1259 2228 
z
M 1259 4147 
L 1259 2741 
L 2194 2741 
Q 2656 2741 2882 2914 
Q 3109 3088 3109 3444 
Q 3109 3797 2882 3972 
Q 2656 4147 2194 4147 
L 1259 4147 
z
M 628 4666 
L 2241 4666 
Q 2963 4666 3353 4366 
Q 3744 4066 3744 3513 
Q 3744 3084 3544 2831 
Q 3344 2578 2956 2516 
Q 3422 2416 3680 2098 
Q 3938 1781 3938 1306 
Q 3938 681 3513 340 
Q 3088 0 2303 0 
L 628 0 
L 628 4666 
z
" transform="scale(0.015625)"/>
      <path id="DejaVuSans-70" d="M 1159 525 
L 1159 -1331 
L 581 -1331 
L 581 3500 
L 1159 3500 
L 1159 2969 
Q 1341 3281 1617 3432 
Q 1894 3584 2278 3584 
Q 2916 3584 3314 3078 
Q 3713 2572 3713 1747 
Q 3713 922 3314 415 
Q 2916 -91 2278 -91 
Q 1894 -91 1617 61 
Q 1341 213 1159 525 
z
M 3116 1747 
Q 3116 2381 2855 2742 
Q 2594 3103 2138 3103 
Q 1681 3103 1420 2742 
Q 1159 2381 1159 1747 
Q 1159 1113 1420 752 
Q 1681 391 2138 391 
Q 2594 391 2855 752 
Q 3116 1113 3116 1747 
z
" transform="scale(0.015625)"/>
      <path id="DejaVuSans-68" d="M 3513 2113 
L 3513 0 
L 2938 0 
L 2938 2094 
Q 2938 2591 2744 2837 
Q 2550 3084 2163 3084 
Q 1697 3084 1428 2787 
Q 1159 2491 1159 1978 
L 1159 0 
L 581 0 
L 581 4863 
L 1159 4863 
L 1159 2956 
Q 1366 3272 1645 3428 
Q 1925 3584 2291 3584 
Q 2894 3584 3203 3211 
Q 3513 2838 3513 2113 
z
" transform="scale(0.015625)"/>
      <path id="DejaVuSans-67" d="M 2906 1791 
Q 2906 2416 2648 2759 
Q 2391 3103 1925 3103 
Q 1463 3103 1205 2759 
Q 947 2416 947 1791 
Q 947 1169 1205 825 
Q 1463 481 1925 481 
Q 2391 481 2648 825 
Q 2906 1169 2906 1791 
z
M 3481 434 
Q 3481 -459 3084 -895 
Q 2688 -1331 1869 -1331 
Q 1566 -1331 1297 -1286 
Q 1028 -1241 775 -1147 
L 775 -588 
Q 1028 -725 1275 -790 
Q 1522 -856 1778 -856 
Q 2344 -856 2625 -561 
Q 2906 -266 2906 331 
L 2906 616 
Q 2728 306 2450 153 
Q 2172 0 1784 0 
Q 1141 0 747 490 
Q 353 981 353 1791 
Q 353 2603 747 3093 
Q 1141 3584 1784 3584 
Q 2172 3584 2450 3431 
Q 2728 3278 2906 2969 
L 2906 3500 
L 3481 3500 
L 3481 434 
z
" transform="scale(0.015625)"/>
      <path id="DejaVuSans-63" d="M 3122 3366 
L 3122 2828 
Q 2878 2963 2633 3030 
Q 2388 3097 2138 3097 
Q 1578 3097 1268 2742 
Q 959 2388 959 1747 
Q 959 1106 1268 751 
Q 1578 397 2138 397 
Q 2388 397 2633 464 
Q 2878 531 3122 666 
L 3122 134 
Q 2881 22 2623 -34 
Q 2366 -91 2075 -91 
Q 1284 -91 818 406 
Q 353 903 353 1747 
Q 353 2603 823 3093 
Q 1294 3584 2113 3584 
Q 2378 3584 2631 3529 
Q 2884 3475 3122 3366 
z
" transform="scale(0.015625)"/>
     </defs>
     <use xlink:href="#DejaVuSans-50"/>
     <use xlink:href="#DejaVuSans-61" transform="translate(55.802734 0)"/>
     <use xlink:href="#DejaVuSans-6e" transform="translate(117.082031 0)"/>
     <use xlink:href="#DejaVuSans-65" transform="translate(180.460938 0)"/>
     <use xlink:href="#DejaVuSans-6c" transform="translate(241.984375 0)"/>
     <use xlink:href="#DejaVuSans-20" transform="translate(269.767578 0)"/>
     <use xlink:href="#DejaVuSans-42" transform="translate(301.554688 0)"/>
     <use xlink:href="#DejaVuSans-3a" transform="translate(370.158203 0)"/>
     <use xlink:href="#DejaVuSans-20" transform="translate(403.849609 0)"/>
     <use xlink:href="#DejaVuSans-70" transform="translate(435.636719 0)"/>
     <use xlink:href="#DejaVuSans-61" transform="translate(499.113281 0)"/>
     <use xlink:href="#DejaVuSans-69" transform="translate(560.392578 0)"/>
     <use xlink:href="#DejaVuSans-72" transform="translate(588.175781 0)"/>
     <use xlink:href="#DejaVuSans-2d" transform="translate(622.914062 0)"/>
     <use xlink:href="#DejaVuSans-64" transform="translate(658.998047 0)"/>
     <use xlink:href="#DejaVuSans-69" transform="translate(722.474609 0)"/>
     <use xlink:href="#DejaVuSans-66" transform="translate(750.257812 0)"/>
     <use xlink:href="#DejaVuSans-66" transform="translate(785.462891 0)"/>
     <use xlink:href="#DejaVuSans-20" transform="translate(820.667969 0)"/>
     <use xlink:href="#DejaVuSans-77" transform="translate(852.455078 0)"/>
     <use xlink:href="#DejaVuSans-69" transform="translate(934.242188 0)"/>
     <use xlink:href="#DejaVuSans-74" transform="translate(962.025391 0)"/>
     <use xlink:href="#DejaVuSans-68" transform="translate(1001.234375 0)"/>
     <use xlink:href="#DejaVuSans-20" transform="translate(1064.613281 0)"/>
     <use xlink:href="#DejaVuSans-73" transform="translate(1096.400391 0)"/>
     <use xlink:href="#DejaVuSans-69" transform="translate(1148.5 0)"/>
     <use xlink:href="#DejaVuSans-67" transform="translate(1176.283203 0)"/>
     <use xlink:href="#DejaVuSans-6e" transform="translate(1239.759766 0)"/>
     <use xlink:href="#DejaVuSans-69" transform="translate(1303.138672 0)"/>
     <use xlink:href="#DejaVuSans-66" transform="translate(1330.921875 0)"/>
     <use xlink:href="#DejaVuSans-69" transform="translate(1366.126953 0)"/>
     <use xlink:href="#DejaVuSans-63" transform="translate(1393.910156 0)"/>
     <use xlink:href="#DejaVuSans-61" transform="translate(1448.890625 0)"/>
     <use xlink:href="#DejaVuSans-6e" transform="translate(1510.169922 0)"/>
     <use xlink:href="#DejaVuSans-63" transform="translate(1573.548828 0)"/>
     <use xlink:href="#DejaVuSans-65" transform="translate(1628.529297 0)"/>
     <use xlink:href="#DejaVuSans-20" transform="translate(1690.052734 0)"/>
     <use xlink:href="#DejaVuSans-64" transform="translate(1721.839844 0)"/>
     <use xlink:href="#DejaVuSans-6f" transform="translate(1785.316406 0)"/>
     <use xlink:href="#DejaVuSans-74" transform="translate(1846.498047 0)"/>
     <use xlink:href="#DejaVuSans-73" transform="translate(1885.707031 0)"/>
    </g>
   </g>
   <g id="legend_2">
    <g id="line2d_32">
     <path d="M 79.2 250.374437 
L 89.2 250.374437 
L 99.2 250.374437 
" style="fill: none; stroke: #d62728; stroke-width: 2.2; stroke-linecap: square"/>
    </g>
    <g id="text_29">
     <!-- (A→B − B→A) -->
     <g transform="translate(107.2 253.874437) scale(0.1 -0.1)">
      <use xlink:href="#DejaVuSans-28"/>
      <use xlink:href="#DejaVuSans-41" transform="translate(39.013672 0)"/>
      <use xlink:href="#DejaVuSans-2192" transform="translate(107.421875 0)"/>
      <use xlink:href="#DejaVuSans-42" transform="translate(191.210938 0)"/>
      <use xlink:href="#DejaVuSans-20" transform="translate(259.814453 0)"/>
      <use xlink:href="#DejaVuSans-2212" transform="translate(291.601562 0)"/>
      <use xlink:href="#DejaVuSans-20" transform="translate(375.390625 0)"/>
      <use xlink:href="#DejaVuSans-42" transform="translate(407.177734 0)"/>
      <use xlink:href="#DejaVuSans-2192" transform="translate(475.78125 0)"/>
      <use xlink:href="#DejaVuSans-41" transform="translate(559.570312 0)"/>
      <use xlink:href="#DejaVuSans-29" transform="translate(627.978516 0)"/>
     </g>
    </g>
    <g id="line2d_33">
     <g>
      <use xlink:href="#m262fa64308" x="89.2" y="265.052563" style="stroke: #000000"/>
     </g>
    </g>
    <g id="text_30">
     <!-- p&lt;0.05 (one-sided) -->
     <g transform="translate(107.2 268.552563) scale(0.1 -0.1)">
      <defs>
       <path id="DejaVuSans-3c" d="M 4684 3150 
L 1459 2003 
L 4684 863 
L 4684 294 
L 678 1747 
L 678 2266 
L 4684 3719 
L 4684 3150 
z
" transform="scale(0.015625)"/>
      </defs>
      <use xlink:href="#DejaVuSans-70"/>
      <use xlink:href="#DejaVuSans-3c" transform="translate(63.476562 0)"/>
      <use xlink:href="#DejaVuSans-30" transform="translate(147.265625 0)"/>
      <use xlink:href="#DejaVuSans-2e" transform="translate(210.888672 0)"/>
      <use xlink:href="#DejaVuSans-30" transform="translate(242.675781 0)"/>
      <use xlink:href="#DejaVuSans-35" transform="translate(306.298828 0)"/>
      <use xlink:href="#DejaVuSans-20" transform="translate(369.921875 0)"/>
      <use xlink:href="#DejaVuSans-28" transform="translate(401.708984 0)"/>
      <use xlink:href="#DejaVuSans-6f" transform="translate(440.722656 0)"/>
      <use xlink:href="#DejaVuSans-6e" transform="translate(501.904297 0)"/>
      <use xlink:href="#DejaVuSans-65" transform="translate(565.283203 0)"/>
      <use xlink:href="#DejaVuSans-2d" transform="translate(626.806641 0)"/>
      <use xlink:href="#DejaVuSans-73" transform="translate(662.890625 0)"/>
      <use xlink:href="#DejaVuSans-69" transform="translate(714.990234 0)"/>
      <use xlink:href="#DejaVuSans-64" transform="translate(742.773438 0)"/>
      <use xlink:href="#DejaVuSans-65" transform="translate(806.25 0)"/>
      <use xlink:href="#DejaVuSans-64" transform="translate(867.773438 0)"/>
      <use xlink:href="#DejaVuSans-29" transform="translate(931.25 0)"/>
     </g>
    </g>
   </g>
  </g>
  <g id="axes_3">
   <g id="patch_14">
    <path d="M 70.2 499.824 
L 505.44 499.824 
L 505.44 383.994 
L 70.2 383.994 
z
" style="fill: #ffffff"/>
   </g>
   <g id="matplotlib.axis_5">
    <g id="xtick_13">
     <g id="line2d_34">
      <g>
       <use xlink:href="#m7044adea0f" x="87.985286" y="499.824" style="stroke: #000000; stroke-width: 0.8"/>
      </g>
     </g>
     <g id="text_31">
      <!-- −200 -->
      <g transform="translate(74.251693 514.422438) scale(0.1 -0.1)">
       <use xlink:href="#DejaVuSans-2212"/>
       <use xlink:href="#DejaVuSans-32" transform="translate(83.789062 0)"/>
       <use xlink:href="#DejaVuSans-30" transform="translate(147.412109 0)"/>
       <use xlink:href="#DejaVuSans-30" transform="translate(211.035156 0)"/>
      </g>
     </g>
    </g>
    <g id="xtick_14">
     <g id="line2d_35">
      <g>
       <use xlink:href="#m7044adea0f" x="167.91917" y="499.824" style="stroke: #000000; stroke-width: 0.8"/>
      </g>
     </g>
     <g id="text_32">
      <!-- 0 -->
      <g transform="translate(164.73792 514.422438) scale(0.1 -0.1)">
       <use xlink:href="#DejaVuSans-30"/>
      </g>
     </g>
    </g>
    <g id="xtick_15">
     <g id="line2d_36">
      <g>
       <use xlink:href="#m7044adea0f" x="247.853053" y="499.824" style="stroke: #000000; stroke-width: 0.8"/>
      </g>
     </g>
     <g id="text_33">
      <!-- 200 -->
      <g transform="translate(238.309303 514.422438) scale(0.1 -0.1)">
       <use xlink:href="#DejaVuSans-32"/>
       <use xlink:href="#DejaVuSans-30" transform="translate(63.623047 0)"/>
       <use xlink:href="#DejaVuSans-30" transform="translate(127.246094 0)"/>
      </g>
     </g>
    </g>
    <g id="xtick_16">
     <g id="line2d_37">
      <g>
       <use xlink:href="#m7044adea0f" x="327.786937" y="499.824" style="stroke: #000000; stroke-width: 0.8"/>
      </g>
     </g>
     <g id="text_34">
      <!-- 400 -->
      <g transform="translate(318.243187 514.422438) scale(0.1 -0.1)">
       <use xlink:href="#DejaVuSans-34"/>
       <use xlink:href="#DejaVuSans-30" transform="translate(63.623047 0)"/>
       <use xlink:href="#DejaVuSans-30" transform="translate(127.246094 0)"/>
      </g>
     </g>
    </g>
    <g id="xtick_17">
     <g id="line2d_38">
      <g>
       <use xlink:href="#m7044adea0f" x="407.720821" y="499.824" style="stroke: #000000; stroke-width: 0.8"/>
      </g>
     </g>
     <g id="text_35">
      <!-- 600 -->
      <g transform="translate(398.177071 514.422438) scale(0.1 -0.1)">
       <use xlink:href="#DejaVuSans-36"/>
       <use xlink:href="#DejaVuSans-30" transform="translate(63.623047 0)"/>
       <use xlink:href="#DejaVuSans-30" transform="translate(127.246094 0)"/>
      </g>
     </g>
    </g>
    <g id="xtick_18">
     <g id="line2d_39">
      <g>
       <use xlink:href="#m7044adea0f" x="487.654704" y="499.824" style="stroke: #000000; stroke-width: 0.8"/>
      </g>
     </g>
     <g id="text_36">
      <!-- 800 -->
      <g transform="translate(478.110954 514.422438) scale(0.1 -0.1)">
       <use xlink:href="#DejaVuSans-38"/>
       <use xlink:href="#DejaVuSans-30" transform="translate(63.623047 0)"/>
       <use xlink:href="#DejaVuSans-30" transform="translate(127.246094 0)"/>
      </g>
     </g>
    </g>
    <g id="text_37">
     <!-- Time (ms) -->
     <g transform="translate(262.620781 528.100563) scale(0.1 -0.1)">
      <defs>
       <path id="DejaVuSans-54" d="M -19 4666 
L 3928 4666 
L 3928 4134 
L 2272 4134 
L 2272 0 
L 1638 0 
L 1638 4134 
L -19 4134 
L -19 4666 
z
" transform="scale(0.015625)"/>
       <path id="DejaVuSans-6d" d="M 3328 2828 
Q 3544 3216 3844 3400 
Q 4144 3584 4550 3584 
Q 5097 3584 5394 3201 
Q 5691 2819 5691 2113 
L 5691 0 
L 5113 0 
L 5113 2094 
Q 5113 2597 4934 2840 
Q 4756 3084 4391 3084 
Q 3944 3084 3684 2787 
Q 3425 2491 3425 1978 
L 3425 0 
L 2847 0 
L 2847 2094 
Q 2847 2600 2669 2842 
Q 2491 3084 2119 3084 
Q 1678 3084 1418 2786 
Q 1159 2488 1159 1978 
L 1159 0 
L 581 0 
L 581 3500 
L 1159 3500 
L 1159 2956 
Q 1356 3278 1631 3431 
Q 1906 3584 2284 3584 
Q 2666 3584 2933 3390 
Q 3200 3197 3328 2828 
z
" transform="scale(0.015625)"/>
      </defs>
      <use xlink:href="#DejaVuSans-54"/>
      <use xlink:href="#DejaVuSans-69" transform="translate(57.958984 0)"/>
      <use xlink:href="#DejaVuSans-6d" transform="translate(85.742188 0)"/>
      <use xlink:href="#DejaVuSans-65" transform="translate(183.154297 0)"/>
      <use xlink:href="#DejaVuSans-20" transform="translate(244.677734 0)"/>
      <use xlink:href="#DejaVuSans-28" transform="translate(276.464844 0)"/>
      <use xlink:href="#DejaVuSans-6d" transform="translate(315.478516 0)"/>
      <use xlink:href="#DejaVuSans-73" transform="translate(412.890625 0)"/>
      <use xlink:href="#DejaVuSans-29" transform="translate(464.990234 0)"/>
     </g>
    </g>
   </g>
   <g id="matplotlib.axis_6">
    <g id="ytick_9">
     <g id="line2d_40">
      <g>
       <use xlink:href="#m9d179fb7ce" x="70.2" y="498.769924" style="stroke: #000000; stroke-width: 0.8"/>
      </g>
     </g>
     <g id="text_38">
      <!-- −2 -->
      <g transform="translate(48.457813 502.569142) scale(0.1 -0.1)">
       <use xlink:href="#DejaVuSans-2212"/>
       <use xlink:href="#DejaVuSans-32" transform="translate(83.789062 0)"/>
      </g>
     </g>
    </g>
    <g id="ytick_10">
     <g id="line2d_41">
      <g>
       <use xlink:href="#m9d179fb7ce" x="70.2" y="456.169861" style="stroke: #000000; stroke-width: 0.8"/>
      </g>
     </g>
     <g id="text_39">
      <!-- 0 -->
      <g transform="translate(56.8375 459.96908) scale(0.1 -0.1)">
       <use xlink:href="#DejaVuSans-30"/>
      </g>
     </g>
    </g>
    <g id="ytick_11">
     <g id="line2d_42">
      <g>
       <use xlink:href="#m9d179fb7ce" x="70.2" y="413.569799" style="stroke: #000000; stroke-width: 0.8"/>
      </g>
     </g>
     <g id="text_40">
      <!-- 2 -->
      <g transform="translate(56.8375 417.369017) scale(0.1 -0.1)">
       <use xlink:href="#DejaVuSans-32"/>
      </g>
     </g>
    </g>
    <g id="text_41">
     <!-- Z (σ from null) -->
     <g transform="translate(42.378125 477.919938) rotate(-90) scale(0.1 -0.1)">
      <defs>
       <path id="DejaVuSans-5a" d="M 359 4666 
L 4025 4666 
L 4025 4184 
L 1075 531 
L 4097 531 
L 4097 0 
L 288 0 
L 288 481 
L 3238 4134 
L 359 4134 
L 359 4666 
z
" transform="scale(0.015625)"/>
      </defs>
      <use xlink:href="#DejaVuSans-5a"/>
      <use xlink:href="#DejaVuSans-20" transform="translate(68.505859 0)"/>
      <use xlink:href="#DejaVuSans-28" transform="translate(100.292969 0)"/>
      <use xlink:href="#DejaVuSans-3c3" transform="translate(139.306641 0)"/>
      <use xlink:href="#DejaVuSans-20" transform="translate(202.685547 0)"/>
      <use xlink:href="#DejaVuSans-66" transform="translate(234.472656 0)"/>
      <use xlink:href="#DejaVuSans-72" transform="translate(269.677734 0)"/>
      <use xlink:href="#DejaVuSans-6f" transform="translate(308.541016 0)"/>
      <use xlink:href="#DejaVuSans-6d" transform="translate(369.722656 0)"/>
      <use xlink:href="#DejaVuSans-20" transform="translate(467.134766 0)"/>
      <use xlink:href="#DejaVuSans-6e" transform="translate(498.921875 0)"/>
      <use xlink:href="#DejaVuSans-75" transform="translate(562.300781 0)"/>
      <use xlink:href="#DejaVuSans-6c" transform="translate(625.679688 0)"/>
      <use xlink:href="#DejaVuSans-6c" transform="translate(653.462891 0)"/>
      <use xlink:href="#DejaVuSans-29" transform="translate(681.246094 0)"/>
     </g>
    </g>
   </g>
   <g id="line2d_43">
    <path d="M 167.91917 499.824 
L 167.91917 383.994 
" clip-path="url(#pcf9f30fb5b)" style="fill: none; stroke-dasharray: 2.96,1.28; stroke-dashoffset: 0; stroke: #000000; stroke-width: 0.8"/>
   </g>
   <g id="line2d_44">
    <path d="M 89.983636 458.955927 
L 93.980327 433.539476 
L 97.977023 420.43641 
L 101.973713 430.155401 
L 105.97041 456.31252 
L 109.967106 427.567502 
L 113.963796 446.332385 
L 117.960493 458.987246 
L 121.957186 438.911324 
L 125.953882 449.508608 
L 129.950576 438.635807 
L 133.947269 452.23275 
L 137.943962 450.952445 
L 141.940659 419.48293 
L 145.937352 425.761527 
L 149.934045 472.724134 
L 153.93074 406.061679 
L 157.927434 452.250475 
L 161.924129 464.807316 
L 165.920823 432.710635 
L 169.917517 455.068426 
L 173.914211 440.016783 
L 177.910906 436.25931 
L 181.9076 482.295351 
L 185.904294 438.735259 
L 189.900988 459.389922 
L 193.897681 400.423635 
L 197.894377 468.88669 
L 201.891071 408.664431 
L 205.887764 445.001319 
L 209.884457 474.232534 
L 213.881154 468.878851 
L 217.877847 456.483369 
L 221.874543 426.082894 
L 225.871234 476.669599 
L 229.86793 441.865003 
L 233.864626 459.815008 
L 237.861317 437.69312 
L 241.858013 435.203412 
L 245.854704 472.723689 
L 249.8514 465.358043 
L 253.848096 411.838425 
L 257.844787 452.192232 
L 261.841483 456.789112 
L 265.838179 449.167361 
L 269.83487 456.773563 
L 273.83156 452.433708 
L 277.828262 434.360507 
L 281.824953 459.692466 
L 285.821643 483.173748 
L 289.818345 451.534949 
L 293.815036 422.8124 
L 297.811726 406.621079 
L 301.808428 458.667738 
L 305.805119 465.391928 
L 309.801809 477.906344 
L 313.798511 431.852033 
L 317.795202 469.047519 
L 321.791892 424.598774 
L 325.788594 464.47416 
L 329.785285 433.518989 
L 333.781975 442.759235 
L 337.778677 449.557043 
L 341.775368 422.216812 
L 345.772058 405.679098 
L 349.76876 446.518633 
L 353.765451 464.102359 
L 357.762141 426.394314 
L 361.758843 438.473571 
L 365.755534 467.046424 
L 369.752224 452.15188 
L 373.748914 432.991072 
L 377.745605 474.724185 
L 381.742319 419.40511 
L 385.739009 452.92144 
L 389.7357 432.307711 
L 393.73239 463.901481 
L 397.72908 468.08221 
L 401.725771 427.196061 
L 405.722485 440.362413 
L 409.719175 472.02801 
L 413.715866 454.911911 
L 417.712556 471.698338 
L 421.709246 482.283848 
L 425.705937 407.828932 
L 429.702627 455.270701 
L 433.699341 407.854308 
L 437.696032 494.559 
L 441.692722 454.192331 
L 445.689412 451.333696 
L 449.686103 456.741027 
L 453.682793 429.280069 
L 457.679507 444.285443 
L 461.676198 412.153658 
L 465.672888 417.295444 
L 469.669578 449.653996 
L 473.666269 449.461766 
L 477.662959 477.417573 
L 481.659673 466.157136 
L 485.656364 490.842907 
" clip-path="url(#pcf9f30fb5b)" style="fill: none; stroke: #1f77b4; stroke-width: 2; stroke-linecap: square"/>
   </g>
   <g id="line2d_45">
    <path d="M 89.983636 462.077875 
L 93.980327 408.183418 
L 97.977023 470.545053 
L 101.973713 460.176744 
L 105.97041 456.574432 
L 109.967106 443.602883 
L 113.963796 424.490291 
L 117.960493 471.117212 
L 121.957186 443.116747 
L 125.953882 459.064463 
L 129.950576 437.629901 
L 133.947269 430.57444 
L 137.943962 479.448559 
L 141.940659 462.723162 
L 145.937352 481.04207 
L 149.934045 446.568158 
L 153.93074 465.731285 
L 157.927434 404.72659 
L 161.924129 412.322531 
L 165.920823 482.920447 
L 169.917517 447.853247 
L 173.914211 449.27182 
L 177.910906 427.560198 
L 181.9076 455.805783 
L 185.904294 472.466259 
L 189.900988 421.067706 
L 193.897681 446.067102 
L 197.894377 466.135414 
L 201.891071 485.982899 
L 205.887764 442.211168 
L 209.884457 471.280993 
L 213.881154 477.257649 
L 217.877847 439.006023 
L 221.874543 465.776357 
L 225.871234 454.527574 
L 229.86793 411.758013 
L 233.864626 443.449219 
L 237.861317 465.988038 
L 241.858013 464.781483 
L 245.854704 436.665659 
L 249.8514 451.348523 
L 253.848096 465.13684 
L 257.844787 453.226334 
L 261.841483 389.259 
L 265.838179 429.261282 
L 269.83487 444.427896 
L 273.83156 447.908761 
L 277.828262 457.506786 
L 281.824953 435.719004 
L 285.821643 444.219421 
L 289.818345 441.254692 
L 293.815036 485.518568 
L 297.811726 443.621127 
L 301.808428 442.300525 
L 305.805119 459.994085 
L 309.801809 468.803787 
L 313.798511 464.003303 
L 317.795202 416.926374 
L 321.791892 425.562917 
L 325.788594 431.917221 
L 329.785285 480.429438 
L 333.781975 482.312951 
L 337.778677 431.36114 
L 341.775368 446.085887 
L 345.772058 473.856515 
L 349.76876 417.474467 
L 353.765451 455.539543 
L 357.762141 419.831395 
L 361.758843 455.761519 
L 365.755534 440.155544 
L 369.752224 475.126229 
L 373.748914 437.072981 
L 377.745605 448.076797 
L 381.742319 426.220654 
L 385.739009 458.682654 
L 389.7357 480.622821 
L 393.73239 461.904023 
L 397.72908 455.154908 
L 401.725771 467.873373 
L 405.722485 463.225448 
L 409.719175 455.038976 
L 413.715866 451.389258 
L 417.712556 420.481145 
L 421.709246 453.214701 
L 425.705937 442.1344 
L 429.702627 411.173988 
L 433.699341 450.219607 
L 437.696032 450.958475 
L 441.692722 432.905019 
L 445.689412 457.515369 
L 449.686103 421.980519 
L 453.682793 431.467186 
L 457.679507 464.123488 
L 461.676198 449.137747 
L 465.672888 449.321215 
L 469.669578 465.829451 
L 473.666269 464.520454 
L 477.662959 461.554122 
L 481.659673 466.612788 
L 485.656364 441.20328 
" clip-path="url(#pcf9f30fb5b)" style="fill: none; stroke: #ff7f0e; stroke-width: 2; stroke-linecap: square"/>
   </g>
   <g id="patch_15">
    <path d="M 70.2 499.824 
L 70.2 383.994 
" style="fill: none; stroke: #000000; stroke-width: 0.8; stroke-linejoin: miter; stroke-linecap: square"/>
   </g>
   <g id="patch_16">
    <path d="M 505.44 499.824 
L 505.44 383.994 
" style="fill: none; stroke: #000000; stroke-width: 0.8; stroke-linejoin: miter; stroke-linecap: square"/>
   </g>
   <g id="patch_17">
    <path d="M 70.2 499.824 
L 505.44 499.824 
" style="fill: none; stroke: #000000; stroke-width: 0.8; stroke-linejoin: miter; stroke-linecap: square"/>
   </g>
   <g id="patch_18">
    <path d="M 70.2 383.994 
L 505.44 383.994 
" style="fill: none; stroke: #000000; stroke-width: 0.8; stroke-linejoin: miter; stroke-linecap: square"/>
   </g>
   <g id="text_42">
    <!-- Panel C: evidence strength vs null -->
    <g transform="translate(185.80125 377.994) scale(0.12 -0.12)">
     <defs>
      <path id="DejaVuSans-43" d="M 4122 4306 
L 4122 3641 
Q 3803 3938 3442 4084 
Q 3081 4231 2675 4231 
Q 1875 4231 1450 3742 
Q 1025 3253 1025 2328 
Q 1025 1406 1450 917 
Q 1875 428 2675 428 
Q 3081 428 3442 575 
Q 3803 722 4122 1019 
L 4122 359 
Q 3791 134 3420 21 
Q 3050 -91 2638 -91 
Q 1578 -91 968 557 
Q 359 1206 359 2328 
Q 359 3453 968 4101 
Q 1578 4750 2638 4750 
Q 3056 4750 3426 4639 
Q 3797 4528 4122 4306 
z
" transform="scale(0.015625)"/>
     </defs>
     <use xlink:href="#DejaVuSans-50"/>
     <use xlink:href="#DejaVuSans-61" transform="translate(55.802734 0)"/>
     <use xlink:href="#DejaVuSans-6e" transform="translate(117.082031 0)"/>
     <use xlink:href="#DejaVuSans-65" transform="translate(180.460938 0)"/>
     <use xlink:href="#DejaVuSans-6c" transform="translate(241.984375 0)"/>
     <use xlink:href="#DejaVuSans-20" transform="translate(269.767578 0)"/>
     <use xlink:href="#DejaVuSans-43" transform="translate(301.554688 0)"/>
     <use xlink:href="#DejaVuSans-3a" transform="translate(371.378906 0)"/>
     <use xlink:href="#DejaVuSans-20" transform="translate(405.070312 0)"/>
     <use xlink:href="#DejaVuSans-65" transform="translate(436.857422 0)"/>
     <use xlink:href="#DejaVuSans-76" transform="translate(498.380859 0)"/>
     <use xlink:href="#DejaVuSans-69" transform="translate(557.560547 0)"/>
     <use xlink:href="#DejaVuSans-64" transform="translate(585.34375 0)"/>
     <use xlink:href="#DejaVuSans-65" transform="translate(648.820312 0)"/>
     <use xlink:href="#DejaVuSans-6e" transform="translate(710.34375 0)"/>
     <use xlink:href="#DejaVuSans-63" transform="translate(773.722656 0)"/>
     <use xlink:href="#DejaVuSans-65" transform="translate(828.703125 0)"/>
     <use xlink:href="#DejaVuSans-20" transform="translate(890.226562 0)"/>
     <use xlink:href="#DejaVuSans-73" transform="translate(922.013672 0)"/>
     <use xlink:href="#DejaVuSans-74" transform="translate(974.113281 0)"/>
     <use xlink:href="#DejaVuSans-72" transform="translate(1013.322266 0)"/>
     <use xlink:href="#DejaVuSans-65" transform="translate(1052.185547 0)"/>
     <use xlink:href="#DejaVuSans-6e" transform="translate(1113.708984 0)"/>
     <use xlink:href="#DejaVuSans-67" transform="translate(1177.087891 0)"/>
     <use xlink:href="#DejaVuSans-74" transform="translate(1240.564453 0)"/>
     <use xlink:href="#DejaVuSans-68" transform="translate(1279.773438 0)"/>
     <use xlink:href="#DejaVuSans-20" transform="translate(1343.152344 0)"/>
     <use xlink:href="#DejaVuSans-76" transform="translate(1374.939453 0)"/>
     <use xlink:href="#DejaVuSans-73" transform="translate(1434.119141 0)"/>
     <use xlink:href="#DejaVuSans-20" transform="translate(1486.21875 0)"/>
     <use xlink:href="#DejaVuSans-6e" transform="translate(1518.005859 0)"/>
     <use xlink:href="#DejaVuSans-75" transform="translate(1581.384766 0)"/>
     <use xlink:href="#DejaVuSans-6c" transform="translate(1644.763672 0)"/>
     <use xlink:href="#DejaVuSans-6c" transform="translate(1672.546875 0)"/>
    </g>
   </g>
   <g id="legend_3">
    <g id="line2d_46">
     <path d="M 79.2 397.092438 
L 89.2 397.092438 
L 99.2 397.092438 
" style="fill: none; stroke: #1f77b4; stroke-width: 2; stroke-linecap: square"/>
    </g>
    <g id="text_43">
     <!-- z(MFEF→MLIP) -->
     <g transform="translate(107.2 400.592438) scale(0.1 -0.1)">
      <defs>
       <path id="DejaVuSans-7a" d="M 353 3500 
L 3084 3500 
L 3084 2975 
L 922 459 
L 3084 459 
L 3084 0 
L 275 0 
L 275 525 
L 2438 3041 
L 353 3041 
L 353 3500 
z
" transform="scale(0.015625)"/>
      </defs>
      <use xlink:href="#DejaVuSans-7a"/>
      <use xlink:href="#DejaVuSans-28" transform="translate(52.490234 0)"/>
      <use xlink:href="#DejaVuSans-4d" transform="translate(91.503906 0)"/>
      <use xlink:href="#DejaVuSans-46" transform="translate(177.783203 0)"/>
      <use xlink:href="#DejaVuSans-45" transform="translate(235.302734 0)"/>
      <use xlink:href="#DejaVuSans-46" transform="translate(298.486328 0)"/>
      <use xlink:href="#DejaVuSans-2192" transform="translate(356.005859 0)"/>
      <use xlink:href="#DejaVuSans-4d" transform="translate(439.794922 0)"/>
      <use xlink:href="#DejaVuSans-4c" transform="translate(526.074219 0)"/>
      <use xlink:href="#DejaVuSans-49" transform="translate(581.787109 0)"/>
      <use xlink:href="#DejaVuSans-50" transform="translate(611.279297 0)"/>
      <use xlink:href="#DejaVuSans-29" transform="translate(671.582031 0)"/>
     </g>
    </g>
    <g id="line2d_47">
     <path d="M 79.2 411.770563 
L 89.2 411.770563 
L 99.2 411.770563 
" style="fill: none; stroke: #ff7f0e; stroke-width: 2; stroke-linecap: square"/>
    </g>
    <g id="text_44">
     <!-- z(MLIP→MFEF) -->
     <g transform="translate(107.2 415.270563) scale(0.1 -0.1)">
      <use xlink:href="#DejaVuSans-7a"/>
      <use xlink:href="#DejaVuSans-28" transform="translate(52.490234 0)"/>
      <use xlink:href="#DejaVuSans-4d" transform="translate(91.503906 0)"/>
      <use xlink:href="#DejaVuSans-4c" transform="translate(177.783203 0)"/>
      <use xlink:href="#DejaVuSans-49" transform="translate(233.496094 0)"/>
      <use xlink:href="#DejaVuSans-50" transform="translate(262.988281 0)"/>
      <use xlink:href="#DejaVuSans-2192" transform="translate(323.291016 0)"/>
      <use xlink:href="#DejaVuSans-4d" transform="translate(407.080078 0)"/>
      <use xlink:href="#DejaVuSans-46" transform="translate(493.359375 0)"/>
      <use xlink:href="#DejaVuSans-45" transform="translate(550.878906 0)"/>
      <use xlink:href="#DejaVuSans-46" transform="translate(614.0625 0)"/>
      <use xlink:href="#DejaVuSans-29" transform="translate(671.582031 0)"/>
     </g>
    </g>
   </g>
  </g>
 </g>
 <defs>
  <clipPath id="p618834186c">
   <rect x="70.2" y="67.392" width="435.24" height="138.996"/>
  </clipPath>
  <clipPath id="p9ee1ea4b7d">
   <rect x="70.2" y="237.276" width="435.24" height="115.83"/>
  </clipPath>
  <clipPath id="pcf9f30fb5b">
   <rect x="70.2" y="383.994" width="435.24" height="115.83"/>
  </clipPath>
 </defs>
</svg>
