<?xml version="1.0" encoding="utf-8" standalone="no"?>
<!DOCTYPE svg PUBLIC "-//W3C//DTD SVG 1.1//EN"
  "http://www.w3.org/Graphics/SVG/1.1/DTD/svg11.dtd">
<svg xmlns:xlink="http://www.w3.org/1999/xlink" width="828pt" height="453.6pt" viewBox="0 0 828 453.6" xmlns="http://www.w3.org/2000/svg" version="1.1">
 <metadata>
  <rdf:RDF xmlns:dc="http://purl.org/dc/elements/1.1/" xmlns:cc="http://creativecommons.org/ns#" xmlns:rdf="http://www.w3.org/1999/02/22-rdf-syntax-ns#">
   <cc:Work>
    <dc:type rdf:resource="http://purl.org/dc/dcmitype/StillImage"/>
    <dc:date>2026-01-13T14:47:32.084687</dc:date>
    <dc:format>image/svg+xml</dc:format>
    <dc:creator>
     <cc:Agent>
      <dc:title>Matplotlib v3.9.4, https://matplotlib.org/</dc:title>
     </cc:Agent>
    </dc:creator>
   </cc:Work>
  </rdf:RDF>
 </metadata>
 <defs>
  <style type="text/css">*{stroke-linejoin: round; stroke-linecap: butt}</style>
 </defs>
 <g id="figure_1">
  <g id="patch_1">
   <path d="M 0 453.6 
L 828 453.6 
L 828 0 
L 0 0 
z
" style="fill: #ffffff"/>
  </g>
  <g id="axes_1">
   <g id="patch_2">
    <path d="M 72 396 
L 792 396 
L 792 36 
L 72 36 
z
" style="fill: #ffffff"/>
   </g>
   <g id="matplotlib.axis_1">
    <g id="xtick_1">
     <g id="line2d_1">
      <defs>
       <path id="m5b6697d9b4" d="M 0 0 
L 0 3.5 
" style="stroke: #000000; stroke-width: 0.8"/>
      </defs>
      <g>
       <use xlink:href="#m5b6697d9b4" x="72" y="396" style="stroke: #000000; stroke-width: 0.8"/>
      </g>
     </g>
     <g id="text_1">
      <!-- −100 -->
      <g transform="translate(47.279531 416.677187) scale(0.18 -0.18)">
       <defs>
        <path id="DejaVuSans-2212" d="M 678 2272 
L 4684 2272 
L 4684 1741 
L 678 1741 
L 678 2272 
z
" transform="scale(0.015625)"/>
        <path id="DejaVuSans-31" d="M 794 531 
L 1825 531 
L 1825 4091 
L 703 3866 
L 703 4441 
L 1819 4666 
L 2450 4666 
L 2450 531 
L 3481 531 
L 3481 0 
L 794 0 
L 794 531 
z
" transform="scale(0.015625)"/>
        <path id="DejaVuSans-30" d="M 2034 4250 
Q 1547 4250 1301 3770 
Q 1056 3291 1056 2328 
Q 1056 1369 1301 889 
Q 1547 409 2034 409 
Q 2525 409 2770 889 
Q 3016 1369 3016 2328 
Q 3016 3291 2770 3770 
Q 2525 4250 2034 4250 
z
M 2034 4750 
Q 2819 4750 3233 4129 
Q 3647 3509 3647 2328 
Q 3647 1150 3233 529 
Q 2819 -91 2034 -91 
Q 1250 -91 836 529 
Q 422 1150 422 2328 
Q 422 3509 836 4129 
Q 1250 4750 2034 4750 
z
" transform="scale(0.015625)"/>
       </defs>
       <use xlink:href="#DejaVuSans-2212"/>
       <use xlink:href="#DejaVuSans-31" x="83.789062"/>
       <use xlink:href="#DejaVuSans-30" x="147.412109"/>
       <use xlink:href="#DejaVuSans-30" x="211.035156"/>
      </g>
     </g>
    </g>
    <g id="xtick_2">
     <g id="line2d_2">
      <g>
       <use xlink:href="#m5b6697d9b4" x="192" y="396" style="stroke: #000000; stroke-width: 0.8"/>
      </g>
     </g>
     <g id="text_2">
      <!-- 0 -->
      <g transform="translate(186.27375 416.677187) scale(0.18 -0.18)">
       <use xlink:href="#DejaVuSans-30"/>
      </g>
     </g>
    </g>
    <g id="xtick_3">
     <g id="line2d_3">
      <g>
       <use xlink:href="#m5b6697d9b4" x="312" y="396" style="stroke: #000000; stroke-width: 0.8"/>
      </g>
     </g>
     <g id="text_3">
      <!-- 100 -->
      <g transform="translate(294.82125 416.677187) scale(0.18 -0.18)">
       <use xlink:href="#DejaVuSans-31"/>
       <use xlink:href="#DejaVuSans-30" x="63.623047"/>
       <use xlink:href="#DejaVuSans-30" x="127.246094"/>
      </g>
     </g>
    </g>
    <g id="xtick_4">
     <g id="line2d_4">
      <g>
       <use xlink:href="#m5b6697d9b4" x="432" y="396" style="stroke: #000000; stroke-width: 0.8"/>
      </g>
     </g>
     <g id="text_4">
      <!-- 200 -->
      <g transform="translate(414.82125 416.677187) scale(0.18 -0.18)">
       <defs>
        <path id="DejaVuSans-32" d="M 1228 531 
L 3431 531 
L 3431 0 
L 469 0 
L 469 531 
Q 828 903 1448 1529 
Q 2069 2156 2228 2338 
Q 2531 2678 2651 2914 
Q 2772 3150 2772 3378 
Q 2772 3750 2511 3984 
Q 2250 4219 1831 4219 
Q 1534 4219 1204 4116 
Q 875 4013 500 3803 
L 500 4441 
Q 881 4594 1212 4672 
Q 1544 4750 1819 4750 
Q 2544 4750 2975 4387 
Q 3406 4025 3406 3419 
Q 3406 3131 3298 2873 
Q 3191 2616 2906 2266 
Q 2828 2175 2409 1742 
Q 1991 1309 1228 531 
z
" transform="scale(0.015625)"/>
       </defs>
       <use xlink:href="#DejaVuSans-32"/>
       <use xlink:href="#DejaVuSans-30" x="63.623047"/>
       <use xlink:href="#DejaVuSans-30" x="127.246094"/>
      </g>
     </g>
    </g>
    <g id="xtick_5">
     <g id="line2d_5">
      <g>
       <use xlink:href="#m5b6697d9b4" x="552" y="396" style="stroke: #000000; stroke-width: 0.8"/>
      </g>
     </g>
     <g id="text_5">
      <!-- 300 -->
      <g transform="translate(534.82125 416.677187) scale(0.18 -0.18)">
       <defs>
        <path id="DejaVuSans-33" d="M 2597 2516 
Q 3050 2419 3304 2112 
Q 3559 1806 3559 1356 
Q 3559 666 3084 287 
Q 2609 -91 1734 -91 
Q 1441 -91 1130 -33 
Q 819 25 488 141 
L 488 750 
Q 750 597 1062 519 
Q 1375 441 1716 441 
Q 2309 441 2620 675 
Q 2931 909 2931 1356 
Q 2931 1769 2642 2001 
Q 2353 2234 1838 2234 
L 1294 2234 
L 1294 2753 
L 1863 2753 
Q 2328 2753 2575 2939 
Q 2822 3125 2822 3475 
Q 2822 3834 2567 4026 
Q 2313 4219 1838 4219 
Q 1578 4219 1281 4162 
Q 984 4106 628 3988 
L 628 4550 
Q 988 4650 1302 4700 
Q 1616 4750 1894 4750 
Q 2613 4750 3031 4423 
Q 3450 4097 3450 3541 
Q 3450 3153 3228 2886 
Q 3006 2619 2597 2516 
z
" transform="scale(0.015625)"/>
       </defs>
       <use xlink:href="#DejaVuSans-33"/>
       <use xlink:href="#DejaVuSans-30" x="63.623047"/>
       <use xlink:href="#DejaVuSans-30" x="127.246094"/>
      </g>
     </g>
    </g>
    <g id="xtick_6">
     <g id="line2d_6">
      <g>
       <use xlink:href="#m5b6697d9b4" x="672" y="396" style="stroke: #000000; stroke-width: 0.8"/>
      </g>
     </g>
     <g id="text_6">
      <!-- 400 -->
      <g transform="translate(654.82125 416.677187) scale(0.18 -0.18)">
       <defs>
        <path id="DejaVuSans-34" d="M 2419 4116 
L 825 1625 
L 2419 1625 
L 2419 4116 
z
M 2253 4666 
L 3047 4666 
L 3047 1625 
L 3713 1625 
L 3713 1100 
L 3047 1100 
L 3047 0 
L 2419 0 
L 2419 1100 
L 313 1100 
L 313 1709 
L 2253 4666 
z
" transform="scale(0.015625)"/>
       </defs>
       <use xlink:href="#DejaVuSans-34"/>
       <use xlink:href="#DejaVuSans-30" x="63.623047"/>
       <use xlink:href="#DejaVuSans-30" x="127.246094"/>
      </g>
     </g>
    </g>
    <g id="xtick_7">
     <g id="line2d_7">
      <g>
       <use xlink:href="#m5b6697d9b4" x="792" y="396" style="stroke: #000000; stroke-width: 0.8"/>
      </g>
     </g>
     <g id="text_7">
      <!-- 500 -->
      <g transform="translate(774.82125 416.677187) scale(0.18 -0.18)">
       <defs>
        <path id="DejaVuSans-35" d="M 691 4666 
L 3169 4666 
L 3169 4134 
L 1269 4134 
L 1269 2991 
Q 1406 3038 1543 3061 
Q 1681 3084 1819 3084 
Q 2600 3084 3056 2656 
Q 3513 2228 3513 1497 
Q 3513 744 3044 326 
Q 2575 -91 1722 -91 
Q 1428 -91 1123 -41 
Q 819 9 494 109 
L 494 744 
Q 775 591 1075 516 
Q 1375 441 1709 441 
Q 2250 441 2565 725 
Q 2881 1009 2881 1497 
Q 2881 1984 2565 2268 
Q 2250 2553 1709 2553 
Q 1456 2553 1204 2497 
Q 953 2441 691 2322 
L 691 4666 
z
" transform="scale(0.015625)"/>
       </defs>
       <use xlink:href="#DejaVuSans-35"/>
       <use xlink:href="#DejaVuSans-30" x="63.623047"/>
       <use xlink:href="#DejaVuSans-30" x="127.246094"/>
      </g>
     </g>
    </g>
    <g id="text_8">
     <!-- Time (ms) -->
     <g transform="translate(386.641406 438.097812) scale(0.18 -0.18)">
      <defs>
       <path id="DejaVuSans-54" d="M -19 4666 
L 3928 4666 
L 3928 4134 
L 2272 4134 
L 2272 0 
L 1638 0 
L 1638 4134 
L -19 4134 
L -19 4666 
z
" transform="scale(0.015625)"/>
       <path id="DejaVuSans-69" d="M 603 3500 
L 1178 3500 
L 1178 0 
L 603 0 
L 603 3500 
z
M 603 4863 
L 1178 4863 
L 1178 4134 
L 603 4134 
L 603 4863 
z
" transform="scale(0.015625)"/>
       <path id="DejaVuSans-6d" d="M 3328 2828 
Q 3544 3216 3844 3400 
Q 4144 3584 4550 3584 
Q 5097 3584 5394 3201 
Q 5691 2819 5691 2113 
L 5691 0 
L 5113 0 
L 5113 2094 
Q 5113 2597 4934 2840 
Q 4756 3084 4391 3084 
Q 3944 3084 3684 2787 
Q 3425 2491 3425 1978 
L 3425 0 
L 2847 0 
L 2847 2094 
Q 2847 2600 2669 2842 
Q 2491 3084 2119 3084 
Q 1678 3084 1418 2786 
Q 1159 2488 1159 1978 
L 1159 0 
L 581 0 
L 581 3500 
L 1159 3500 
L 1159 2956 
Q 1356 3278 1631 3431 
Q 1906 3584 2284 3584 
Q 2666 3584 2933 3390 
Q 3200 3197 3328 2828 
z
" transform="scale(0.015625)"/>
       <path id="DejaVuSans-65" d="M 3597 1894 
L 3597 1613 
L 953 1613 
Q 991 1019 1311 708 
Q 1631 397 2203 397 
Q 2534 397 2845 478 
Q 3156 559 3463 722 
L 3463 178 
Q 3153 47 2828 -22 
Q 2503 -91 2169 -91 
Q 1331 -91 842 396 
Q 353 884 353 1716 
Q 353 2575 817 3079 
Q 1281 3584 2069 3584 
Q 2775 3584 3186 3129 
Q 3597 2675 3597 1894 
z
M 3022 2063 
Q 3016 2534 2758 2815 
Q 2500 3097 2075 3097 
Q 1594 3097 1305 2825 
Q 1016 2553 972 2059 
L 3022 2063 
z
" transform="scale(0.015625)"/>
       <path id="DejaVuSans-20" transform="scale(0.015625)"/>
       <path id="DejaVuSans-28" d="M 1984 4856 
Q 1566 4138 1362 3434 
Q 1159 2731 1159 2009 
Q 1159 1288 1364 580 
Q 1569 -128 1984 -844 
L 1484 -844 
Q 1016 -109 783 600 
Q 550 1309 550 2009 
Q 550 2706 781 3412 
Q 1013 4119 1484 4856 
L 1984 4856 
z
" transform="scale(0.015625)"/>
       <path id="DejaVuSans-73" d="M 2834 3397 
L 2834 2853 
Q 2591 2978 2328 3040 
Q 2066 3103 1784 3103 
Q 1356 3103 1142 2972 
Q 928 2841 928 2578 
Q 928 2378 1081 2264 
Q 1234 2150 1697 2047 
L 1894 2003 
Q 2506 1872 2764 1633 
Q 3022 1394 3022 966 
Q 3022 478 2636 193 
Q 2250 -91 1575 -91 
Q 1294 -91 989 -36 
Q 684 19 347 128 
L 347 722 
Q 666 556 975 473 
Q 1284 391 1588 391 
Q 1994 391 2212 530 
Q 2431 669 2431 922 
Q 2431 1156 2273 1281 
Q 2116 1406 1581 1522 
L 1381 1569 
Q 847 1681 609 1914 
Q 372 2147 372 2553 
Q 372 3047 722 3315 
Q 1072 3584 1716 3584 
Q 2034 3584 2315 3537 
Q 2597 3491 2834 3397 
z
" transform="scale(0.015625)"/>
       <path id="DejaVuSans-29" d="M 513 4856 
L 1013 4856 
Q 1481 4119 1714 3412 
Q 1947 2706 1947 2009 
Q 1947 1309 1714 600 
Q 1481 -109 1013 -844 
L 513 -844 
Q 928 -128 1133 580 
Q 1338 1288 1338 2009 
Q 1338 2731 1133 3434 
Q 928 4138 513 4856 
z
" transform="scale(0.015625)"/>
      </defs>
      <use xlink:href="#DejaVuSans-54"/>
      <use xlink:href="#DejaVuSans-69" x="57.958984"/>
      <use xlink:href="#DejaVuSans-6d" x="85.742188"/>
      <use xlink:href="#DejaVuSans-65" x="183.154297"/>
      <use xlink:href="#DejaVuSans-20" x="244.677734"/>
      <use xlink:href="#DejaVuSans-28" x="276.464844"/>
      <use xlink:href="#DejaVuSans-6d" x="315.478516"/>
      <use xlink:href="#DejaVuSans-73" x="412.890625"/>
      <use xlink:href="#DejaVuSans-29" x="464.990234"/>
     </g>
    </g>
   </g>
   <g id="matplotlib.axis_2">
    <g id="ytick_1">
     <g id="line2d_8">
      <defs>
       <path id="med9fdd82be" d="M 0 0 
L -3.5 0 
" style="stroke: #000000; stroke-width: 0.8"/>
      </defs>
      <g>
       <use xlink:href="#med9fdd82be" x="72" y="368.307692" style="stroke: #000000; stroke-width: 0.8"/>
      </g>
     </g>
     <g id="text_9">
      <!-- 0.4 -->
      <g transform="translate(36.374375 375.146286) scale(0.18 -0.18)">
       <defs>
        <path id="DejaVuSans-2e" d="M 684 794 
L 1344 794 
L 1344 0 
L 684 0 
L 684 794 
z
" transform="scale(0.015625)"/>
       </defs>
       <use xlink:href="#DejaVuSans-30"/>
       <use xlink:href="#DejaVuSans-2e" x="63.623047"/>
       <use xlink:href="#DejaVuSans-34" x="95.410156"/>
      </g>
     </g>
    </g>
    <g id="ytick_2">
     <g id="line2d_9">
      <g>
       <use xlink:href="#med9fdd82be" x="72" y="312.923077" style="stroke: #000000; stroke-width: 0.8"/>
      </g>
     </g>
     <g id="text_10">
      <!-- 0.5 -->
      <g transform="translate(36.374375 319.761671) scale(0.18 -0.18)">
       <use xlink:href="#DejaVuSans-30"/>
       <use xlink:href="#DejaVuSans-2e" x="63.623047"/>
       <use xlink:href="#DejaVuSans-35" x="95.410156"/>
      </g>
     </g>
    </g>
    <g id="ytick_3">
     <g id="line2d_10">
      <g>
       <use xlink:href="#med9fdd82be" x="72" y="257.538462" style="stroke: #000000; stroke-width: 0.8"/>
      </g>
     </g>
     <g id="text_11">
      <!-- 0.6 -->
      <g transform="translate(36.374375 264.377055) scale(0.18 -0.18)">
       <defs>
        <path id="DejaVuSans-36" d="M 2113 2584 
Q 1688 2584 1439 2293 
Q 1191 2003 1191 1497 
Q 1191 994 1439 701 
Q 1688 409 2113 409 
Q 2538 409 2786 701 
Q 3034 994 3034 1497 
Q 3034 2003 2786 2293 
Q 2538 2584 2113 2584 
z
M 3366 4563 
L 3366 3988 
Q 3128 4100 2886 4159 
Q 2644 4219 2406 4219 
Q 1781 4219 1451 3797 
Q 1122 3375 1075 2522 
Q 1259 2794 1537 2939 
Q 1816 3084 2150 3084 
Q 2853 3084 3261 2657 
Q 3669 2231 3669 1497 
Q 3669 778 3244 343 
Q 2819 -91 2113 -91 
Q 1303 -91 875 529 
Q 447 1150 447 2328 
Q 447 3434 972 4092 
Q 1497 4750 2381 4750 
Q 2619 4750 2861 4703 
Q 3103 4656 3366 4563 
z
" transform="scale(0.015625)"/>
       </defs>
       <use xlink:href="#DejaVuSans-30"/>
       <use xlink:href="#DejaVuSans-2e" x="63.623047"/>
       <use xlink:href="#DejaVuSans-36" x="95.410156"/>
      </g>
     </g>
    </g>
    <g id="ytick_4">
     <g id="line2d_11">
      <g>
       <use xlink:href="#med9fdd82be" x="72" y="202.153846" style="stroke: #000000; stroke-width: 0.8"/>
      </g>
     </g>
     <g id="text_12">
      <!-- 0.7 -->
      <g transform="translate(36.374375 208.99244) scale(0.18 -0.18)">
       <defs>
        <path id="DejaVuSans-37" d="M 525 4666 
L 3525 4666 
L 3525 4397 
L 1831 0 
L 1172 0 
L 2766 4134 
L 525 4134 
L 525 4666 
z
" transform="scale(0.015625)"/>
       </defs>
       <use xlink:href="#DejaVuSans-30"/>
       <use xlink:href="#DejaVuSans-2e" x="63.623047"/>
       <use xlink:href="#DejaVuSans-37" x="95.410156"/>
      </g>
     </g>
    </g>
    <g id="ytick_5">
     <g id="line2d_12">
      <g>
       <use xlink:href="#med9fdd82be" x="72" y="146.769231" style="stroke: #000000; stroke-width: 0.8"/>
      </g>
     </g>
     <g id="text_13">
      <!-- 0.8 -->
      <g transform="translate(36.374375 153.607825) scale(0.18 -0.18)">
       <defs>
        <path id="DejaVuSans-38" d="M 2034 2216 
Q 1584 2216 1326 1975 
Q 1069 1734 1069 1313 
Q 1069 891 1326 650 
Q 1584 409 2034 409 
Q 2484 409 2743 651 
Q 3003 894 3003 1313 
Q 3003 1734 2745 1975 
Q 2488 2216 2034 2216 
z
M 1403 2484 
Q 997 2584 770 2862 
Q 544 3141 544 3541 
Q 544 4100 942 4425 
Q 1341 4750 2034 4750 
Q 2731 4750 3128 4425 
Q 3525 4100 3525 3541 
Q 3525 3141 3298 2862 
Q 3072 2584 2669 2484 
Q 3125 2378 3379 2068 
Q 3634 1759 3634 1313 
Q 3634 634 3220 271 
Q 2806 -91 2034 -91 
Q 1263 -91 848 271 
Q 434 634 434 1313 
Q 434 1759 690 2068 
Q 947 2378 1403 2484 
z
M 1172 3481 
Q 1172 3119 1398 2916 
Q 1625 2713 2034 2713 
Q 2441 2713 2670 2916 
Q 2900 3119 2900 3481 
Q 2900 3844 2670 4047 
Q 2441 4250 2034 4250 
Q 1625 4250 1398 4047 
Q 1172 3844 1172 3481 
z
" transform="scale(0.015625)"/>
       </defs>
       <use xlink:href="#DejaVuSans-30"/>
       <use xlink:href="#DejaVuSans-2e" x="63.623047"/>
       <use xlink:href="#DejaVuSans-38" x="95.410156"/>
      </g>
     </g>
    </g>
    <g id="ytick_6">
     <g id="line2d_13">
      <g>
       <use xlink:href="#med9fdd82be" x="72" y="91.384615" style="stroke: #000000; stroke-width: 0.8"/>
      </g>
     </g>
     <g id="text_14">
      <!-- 0.9 -->
      <g transform="translate(36.374375 98.223209) scale(0.18 -0.18)">
       <defs>
        <path id="DejaVuSans-39" d="M 703 97 
L 703 672 
Q 941 559 1184 500 
Q 1428 441 1663 441 
Q 2288 441 2617 861 
Q 2947 1281 2994 2138 
Q 2813 1869 2534 1725 
Q 2256 1581 1919 1581 
Q 1219 1581 811 2004 
Q 403 2428 403 3163 
Q 403 3881 828 4315 
Q 1253 4750 1959 4750 
Q 2769 4750 3195 4129 
Q 3622 3509 3622 2328 
Q 3622 1225 3098 567 
Q 2575 -91 1691 -91 
Q 1453 -91 1209 -44 
Q 966 3 703 97 
z
M 1959 2075 
Q 2384 2075 2632 2365 
Q 2881 2656 2881 3163 
Q 2881 3666 2632 3958 
Q 2384 4250 1959 4250 
Q 1534 4250 1286 3958 
Q 1038 3666 1038 3163 
Q 1038 2656 1286 2365 
Q 1534 2075 1959 2075 
z
" transform="scale(0.015625)"/>
       </defs>
       <use xlink:href="#DejaVuSans-30"/>
       <use xlink:href="#DejaVuSans-2e" x="63.623047"/>
       <use xlink:href="#DejaVuSans-39" x="95.410156"/>
      </g>
     </g>
    </g>
    <g id="ytick_7">
     <g id="line2d_14">
      <g>
       <use xlink:href="#med9fdd82be" x="72" y="36" style="stroke: #000000; stroke-width: 0.8"/>
      </g>
     </g>
     <g id="text_15">
      <!-- 1.0 -->
      <g transform="translate(36.374375 42.838594) scale(0.18 -0.18)">
       <use xlink:href="#DejaVuSans-31"/>
       <use xlink:href="#DejaVuSans-2e" x="63.623047"/>
       <use xlink:href="#DejaVuSans-30" x="95.410156"/>
      </g>
     </g>
    </g>
    <g id="text_16">
     <!-- AUC (Category) -->
     <g transform="translate(28.215 293.804687) rotate(-90) scale(0.2 -0.2)">
      <defs>
       <path id="DejaVuSans-41" d="M 2188 4044 
L 1331 1722 
L 3047 1722 
L 2188 4044 
z
M 1831 4666 
L 2547 4666 
L 4325 0 
L 3669 0 
L 3244 1197 
L 1141 1197 
L 716 0 
L 50 0 
L 1831 4666 
z
" transform="scale(0.015625)"/>
       <path id="DejaVuSans-55" d="M 556 4666 
L 1191 4666 
L 1191 1831 
Q 1191 1081 1462 751 
Q 1734 422 2344 422 
Q 2950 422 3222 751 
Q 3494 1081 3494 1831 
L 3494 4666 
L 4128 4666 
L 4128 1753 
Q 4128 841 3676 375 
Q 3225 -91 2344 -91 
Q 1459 -91 1007 375 
Q 556 841 556 1753 
L 556 4666 
z
" transform="scale(0.015625)"/>
       <path id="DejaVuSans-43" d="M 4122 4306 
L 4122 3641 
Q 3803 3938 3442 4084 
Q 3081 4231 2675 4231 
Q 1875 4231 1450 3742 
Q 1025 3253 1025 2328 
Q 1025 1406 1450 917 
Q 1875 428 2675 428 
Q 3081 428 3442 575 
Q 3803 722 4122 1019 
L 4122 359 
Q 3791 134 3420 21 
Q 3050 -91 2638 -91 
Q 1578 -91 968 557 
Q 359 1206 359 2328 
Q 359 3453 968 4101 
Q 1578 4750 2638 4750 
Q 3056 4750 3426 4639 
Q 3797 4528 4122 4306 
z
" transform="scale(0.015625)"/>
       <path id="DejaVuSans-61" d="M 2194 1759 
Q 1497 1759 1228 1600 
Q 959 1441 959 1056 
Q 959 750 1161 570 
Q 1363 391 1709 391 
Q 2188 391 2477 730 
Q 2766 1069 2766 1631 
L 2766 1759 
L 2194 1759 
z
M 3341 1997 
L 3341 0 
L 2766 0 
L 2766 531 
Q 2569 213 2275 61 
Q 1981 -91 1556 -91 
Q 1019 -91 701 211 
Q 384 513 384 1019 
Q 384 1609 779 1909 
Q 1175 2209 1959 2209 
L 2766 2209 
L 2766 2266 
Q 2766 2663 2505 2880 
Q 2244 3097 1772 3097 
Q 1472 3097 1187 3025 
Q 903 2953 641 2809 
L 641 3341 
Q 956 3463 1253 3523 
Q 1550 3584 1831 3584 
Q 2591 3584 2966 3190 
Q 3341 2797 3341 1997 
z
" transform="scale(0.015625)"/>
       <path id="DejaVuSans-74" d="M 1172 4494 
L 1172 3500 
L 2356 3500 
L 2356 3053 
L 1172 3053 
L 1172 1153 
Q 1172 725 1289 603 
Q 1406 481 1766 481 
L 2356 481 
L 2356 0 
L 1766 0 
Q 1100 0 847 248 
Q 594 497 594 1153 
L 594 3053 
L 172 3053 
L 172 3500 
L 594 3500 
L 594 4494 
L 1172 4494 
z
" transform="scale(0.015625)"/>
       <path id="DejaVuSans-67" d="M 2906 1791 
Q 2906 2416 2648 2759 
Q 2391 3103 1925 3103 
Q 1463 3103 1205 2759 
Q 947 2416 947 1791 
Q 947 1169 1205 825 
Q 1463 481 1925 481 
Q 2391 481 2648 825 
Q 2906 1169 2906 1791 
z
M 3481 434 
Q 3481 -459 3084 -895 
Q 2688 -1331 1869 -1331 
Q 1566 -1331 1297 -1286 
Q 1028 -1241 775 -1147 
L 775 -588 
Q 1028 -725 1275 -790 
Q 1522 -856 1778 -856 
Q 2344 -856 2625 -561 
Q 2906 -266 2906 331 
L 2906 616 
Q 2728 306 2450 153 
Q 2172 0 1784 0 
Q 1141 0 747 490 
Q 353 981 353 1791 
Q 353 2603 747 3093 
Q 1141 3584 1784 3584 
Q 2172 3584 2450 3431 
Q 2728 3278 2906 2969 
L 2906 3500 
L 3481 3500 
L 3481 434 
z
" transform="scale(0.015625)"/>
       <path id="DejaVuSans-6f" d="M 1959 3097 
Q 1497 3097 1228 2736 
Q 959 2375 959 1747 
Q 959 1119 1226 758 
Q 1494 397 1959 397 
Q 2419 397 2687 759 
Q 2956 1122 2956 1747 
Q 2956 2369 2687 2733 
Q 2419 3097 1959 3097 
z
M 1959 3584 
Q 2709 3584 3137 3096 
Q 3566 2609 3566 1747 
Q 3566 888 3137 398 
Q 2709 -91 1959 -91 
Q 1206 -91 779 398 
Q 353 888 353 1747 
Q 353 2609 779 3096 
Q 1206 3584 1959 3584 
z
" transform="scale(0.015625)"/>
       <path id="DejaVuSans-72" d="M 2631 2963 
Q 2534 3019 2420 3045 
Q 2306 3072 2169 3072 
Q 1681 3072 1420 2755 
Q 1159 2438 1159 1844 
L 1159 0 
L 581 0 
L 581 3500 
L 1159 3500 
L 1159 2956 
Q 1341 3275 1631 3429 
Q 1922 3584 2338 3584 
Q 2397 3584 2469 3576 
Q 2541 3569 2628 3553 
L 2631 2963 
z
" transform="scale(0.015625)"/>
       <path id="DejaVuSans-79" d="M 2059 -325 
Q 1816 -950 1584 -1140 
Q 1353 -1331 966 -1331 
L 506 -1331 
L 506 -850 
L 844 -850 
Q 1081 -850 1212 -737 
Q 1344 -625 1503 -206 
L 1606 56 
L 191 3500 
L 800 3500 
L 1894 763 
L 2988 3500 
L 3597 3500 
L 2059 -325 
z
" transform="scale(0.015625)"/>
      </defs>
      <use xlink:href="#DejaVuSans-41"/>
      <use xlink:href="#DejaVuSans-55" x="68.408203"/>
      <use xlink:href="#DejaVuSans-43" x="141.601562"/>
      <use xlink:href="#DejaVuSans-20" x="211.425781"/>
      <use xlink:href="#DejaVuSans-28" x="243.212891"/>
      <use xlink:href="#DejaVuSans-43" x="282.226562"/>
      <use xlink:href="#DejaVuSans-61" x="352.050781"/>
      <use xlink:href="#DejaVuSans-74" x="413.330078"/>
      <use xlink:href="#DejaVuSans-65" x="452.539062"/>
      <use xlink:href="#DejaVuSans-67" x="514.0625"/>
      <use xlink:href="#DejaVuSans-6f" x="577.539062"/>
      <use xlink:href="#DejaVuSans-72" x="638.720703"/>
      <use xlink:href="#DejaVuSans-79" x="679.833984"/>
      <use xlink:href="#DejaVuSans-29" x="739.013672"/>
     </g>
    </g>
   </g>
   <g id="line2d_15">
    <path d="M 192 396 
L 192 36 
" clip-path="url(#p4f7a3fb682)" style="fill: none; stroke-dasharray: 2.96,1.28; stroke-dashoffset: 0; stroke: #000000; stroke-width: 0.8"/>
   </g>
   <g id="line2d_16">
    <path d="M 72 312.923077 
L 792 312.923077 
" clip-path="url(#p4f7a3fb682)" style="fill: none; stroke-dasharray: 0.8,1.32; stroke-dashoffset: 0; stroke: #000000; stroke-width: 0.8"/>
   </g>
   <g id="line2d_17">
    <path d="M -1 304.221978 
L -0.000005 302.468315 
L 12.000002 283.781708 
L 23.999999 301.084596 
L 35.999997 317.163918 
L 47.999999 320.812194 
L 60.000001 326.737841 
L 72.000003 328.355382 
L 84 323.400261 
L 95.999998 309.806507 
L 108 293.163448 
L 120.000002 293.634297 
L 131.999999 305.533636 
L 143.999999 308.951292 
L 156 303.502901 
L 168 305.89558 
L 180 311.151789 
L 192 303.813597 
L 204 290.283904 
L 216 298.675901 
L 228 312.327309 
L 240.000001 314.585461 
L 252.000001 329.572542 
L 263.999998 330.424554 
L 276 308.06725 
L 288.000002 284.649736 
L 300 279.620944 
L 311.999997 277.907311 
L 323.999999 270.210376 
L 336.000001 268.029098 
L 348.000003 267.458955 
L 360.000001 276.843897 
L 371.999998 278.067463 
L 384.000005 264.467304 
L 396.000002 260.341773 
L 408 257.869017 
L 419.999997 242.978027 
L 431.999995 236.174744 
L 444.000001 232.942865 
L 455.999999 215.697632 
L 467.999996 222.933327 
L 480.000003 246.126627 
L 492 232.094056 
L 503.999989 200.7618 
L 515.999995 179.900321 
L 528.000001 176.71969 
L 539.99999 181.88301 
L 551.999996 192.046295 
L 564.000003 225.982632 
L 575.999991 243.576998 
L 587.999998 229.595675 
L 600.000004 207.901403 
L 611.999993 189.756112 
L 623.999999 208.996847 
L 636.000006 237.7026 
L 647.999994 241.00815 
L 660.000001 250.860738 
L 672.000007 269.089308 
L 683.999996 262.183528 
L 696.000002 255.015097 
L 708.000009 273.022656 
L 719.999997 276.376252 
L 732.000004 263.740211 
L 744.00001 264.979792 
L 755.999999 273.628033 
L 768.000005 281.943157 
L 780.000011 290.239062 
L 792 281.353795 
L 803.999989 268.688927 
L 815.999977 282.84962 
L 828.000001 299.463852 
L 829 299.181984 
" clip-path="url(#p4f7a3fb682)" style="fill: none; stroke: #0e87cc; stroke-opacity: 0.3; stroke-width: 2; stroke-linecap: square"/>
   </g>
   <g id="line2d_18">
    <path d="M -1 319.006213 
L -0.000005 320.347752 
L 12.000002 324.985771 
L 23.999999 315.402239 
L 35.999997 320.232442 
L 47.999999 321.359916 
L 60.000001 309.457374 
L 72.000003 307.830224 
L 84 322.602701 
L 95.999998 327.887737 
L 108 317.330477 
L 120.000002 316.75713 
L 131.999999 308.147326 
L 143.999999 295.210199 
L 156 306.894933 
L 168 315.331772 
L 180 308.419586 
L 192 306.664313 
L 204 318.445139 
L 216 332.02608 
L 228 329.604573 
L 240.000001 320.02104 
L 252.000001 311.78279 
L 263.999998 299.034643 
L 276 300.719448 
L 288.000002 306.753998 
L 300 306.862902 
L 311.999997 305.184503 
L 323.999999 294.114755 
L 336.000001 296.03018 
L 348.000003 303.486885 
L 360.000001 306.894933 
L 371.999998 321.641785 
L 384.000005 327.375248 
L 396.000002 321.251013 
L 408 320.194005 
L 419.999997 325.61357 
L 431.999995 334.095252 
L 444.000001 335.222726 
L 455.999999 328.662875 
L 467.999996 325.209985 
L 480.000003 321.628973 
L 492 310.475945 
L 503.999989 312.256842 
L 515.999995 328.682094 
L 528.000001 330.334868 
L 539.99999 316.606587 
L 551.999996 321.154921 
L 564.000003 330.539864 
L 575.999991 314.165861 
L 587.999998 295.741905 
L 600.000004 280.251945 
L 611.999993 275.543458 
L 623.999999 285.370422 
L 636.000006 282.820793 
L 647.999994 270.123894 
L 660.000001 266.472415 
L 672.000007 259.611477 
L 683.999996 237.254173 
L 696.000002 213.762988 
L 708.000009 191.5274 
L 719.999997 193.013617 
L 732.000004 212.513798 
L 744.00001 215.300453 
L 755.999999 199.816899 
L 768.000005 193.628603 
L 780.000011 206.517684 
L 792 223.039027 
L 803.999989 246.773644 
L 815.999977 263.122022 
L 828.000001 255.678129 
L 829 254.920076 
" clip-path="url(#p4f7a3fb682)" style="fill: none; stroke: #f10c45; stroke-opacity: 0.3; stroke-width: 2; stroke-linecap: square"/>
   </g>
   <g id="line2d_19">
    <path d="M -1 300.347812 
L -0.000005 299.967758 
L 12.000002 308.49605 
L 23.999999 318.055923 
L 35.999997 314.272067 
L 47.999999 308.899076 
L 60.000001 309.089104 
L 72.000003 318.983092 
L 84 318.156157 
L 95.999998 308.516932 
L 108 309.174721 
L 120.000002 307.827819 
L 131.999999 307.742202 
L 143.999999 316.038702 
L 156 311.538587 
L 168 303.55532 
L 180 314.282508 
L 192 314.487154 
L 204 313.184104 
L 216 308.819724 
L 228 289.08813 
L 240.000001 289.620626 
L 252.000001 297.904596 
L 263.999998 299.144999 
L 276 303.095912 
L 288.000002 306.608299 
L 300 301.78451 
L 311.999997 295.469731 
L 323.999999 300.999339 
L 336.000001 304.144199 
L 348.000003 306.942414 
L 360.000001 311.267118 
L 371.999998 303.703584 
L 384.000005 309.254074 
L 396.000002 326.212511 
L 408 318.371244 
L 419.999997 300.207903 
L 431.999995 290.103005 
L 444.000001 293.143454 
L 455.999999 295.595024 
L 467.999996 289.261452 
L 480.000003 295.210792 
L 492 298.94453 
L 503.999989 292.454341 
L 515.999995 276.097311 
L 528.000001 268.932627 
L 539.99999 278.553058 
L 551.999996 265.723032 
L 564.000003 252.289511 
L 575.999991 253.822265 
L 587.999998 251.587869 
L 600.000004 249.948616 
L 611.999993 244.924358 
L 623.999999 237.321147 
L 636.000006 232.405477 
L 647.999994 225.647996 
L 660.000001 215.929418 
L 672.000007 201.343199 
L 683.999996 186.677628 
L 696.000002 195.502447 
L 708.000009 224.165359 
L 719.999997 237.078914 
L 732.000004 233.034031 
L 744.00001 235.458455 
L 755.999999 237.429735 
L 768.000005 234.195082 
L 780.000011 240.906622 
L 792 252.143335 
L 803.999989 257.104947 
L 815.999977 245.02668 
L 828.000001 229.845319 
L 829 230.611171 
" clip-path="url(#p4f7a3fb682)" style="fill: none; stroke: #0e87cc; stroke-opacity: 0.363636; stroke-width: 2; stroke-linecap: square"/>
   </g>
   <g id="line2d_20">
    <path d="M -1 326.670184 
L -0.000005 327.628325 
L 12.000002 334.983037 
L 23.999999 329.023256 
L 35.999997 314.305479 
L 47.999999 308.186993 
L 60.000001 291.786111 
L 72.000003 279.582551 
L 84 289.367951 
L 95.999998 297.311542 
L 108 309.168457 
L 120.000002 320.315377 
L 131.999999 319.108386 
L 143.999999 312.760196 
L 156 315.144943 
L 168 320.707962 
L 180 319.179385 
L 192 315.203414 
L 204 306.662592 
L 216 306.052832 
L 228 313.127723 
L 240.000001 302.807738 
L 252.000001 296.000139 
L 263.999998 308.416697 
L 276 310.4548 
L 288.000002 299.428997 
L 300 290.996763 
L 311.999997 294.112388 
L 323.999999 295.344438 
L 336.000001 292.821868 
L 348.000003 291.510465 
L 360.000001 286.862087 
L 371.999998 286.026799 
L 384.000005 292.16199 
L 396.000002 291.786111 
L 408 284.95763 
L 419.999997 284.130695 
L 431.999995 283.892638 
L 444.000001 268.531689 
L 455.999999 251.775809 
L 467.999996 253.012035 
L 480.000003 253.976793 
L 492 245.298149 
L 503.999989 237.191678 
L 515.999995 245.15615 
L 528.000001 249.441178 
L 539.99999 231.637012 
L 551.999996 216.355415 
L 564.000003 221.659495 
L 575.999991 228.976619 
L 587.999998 207.45542 
L 600.000004 171.366796 
L 611.999993 153.119926 
L 623.999999 153.900921 
L 636.000006 170.193216 
L 647.999994 190.524129 
L 660.000001 211.410509 
L 672.000007 230.049964 
L 683.999996 237.037149 
L 696.000002 239.994069 
L 708.000009 234.005053 
L 719.999997 231.900127 
L 732.000004 240.808475 
L 744.00001 254.08538 
L 755.999999 261.577915 
L 768.000005 269.655151 
L 780.000011 270.248206 
L 792 259.815457 
L 803.999989 268.585982 
L 815.999977 273.430654 
L 828.000001 267.972046 
L 829 268.936104 
" clip-path="url(#p4f7a3fb682)" style="fill: none; stroke: #f10c45; stroke-opacity: 0.363636; stroke-width: 2; stroke-linecap: square"/>
   </g>
   <g id="line2d_21">
    <path d="M -1 299.355362 
L -0.000005 299.917157 
L 12.000002 309.343987 
L 23.999999 320.263052 
L 35.999997 310.578678 
L 47.999999 301.875241 
L 60.000001 306.495865 
L 72.000003 305.700512 
L 84 311.302071 
L 95.999998 314.08202 
L 108 306.995801 
L 120.000002 312.419353 
L 131.999999 326.088067 
L 143.999999 318.418589 
L 156 302.681957 
L 168 311.620212 
L 180 312.745069 
L 192 303.715916 
L 204 304.874859 
L 216 304.340836 
L 228 302.863752 
L 240.000001 301.420753 
L 252.000001 304.594592 
L 263.999998 302.882689 
L 276 297.970435 
L 288.000002 297.591696 
L 300 290.247934 
L 311.999997 281.453599 
L 323.999999 281.809614 
L 336.000001 272.341122 
L 348.000003 241.345069 
L 360.000001 221.465024 
L 371.999998 222.120244 
L 384.000005 211.526895 
L 396.000002 178.474285 
L 408 151.193667 
L 419.999997 154.204648 
L 431.999995 166.888639 
L 444.000001 165.778932 
L 455.999999 160.90834 
L 467.999996 156.95051 
L 480.000003 153.83727 
L 492 165.83953 
L 503.999989 173.562032 
L 515.999995 164.900256 
L 528.000001 180.398283 
L 539.99999 206.663878 
L 551.999996 216.086921 
L 564.000003 218.643413 
L 575.999991 223.248888 
L 587.999998 227.331701 
L 600.000004 221.98011 
L 611.999993 219.726609 
L 623.999999 224.08969 
L 636.000006 228.592904 
L 647.999994 234.959518 
L 660.000001 233.141568 
L 672.000007 228.65729 
L 683.999996 230.653248 
L 696.000002 241.420817 
L 708.000009 267.966679 
L 719.999997 282.389086 
L 732.000004 277.658627 
L 744.00001 279.544751 
L 755.999999 284.831956 
L 768.000005 293.539181 
L 780.000011 297.057673 
L 792 289.259423 
L 803.999989 283.044305 
L 815.999977 282.218653 
L 828.000001 297.542459 
L 829 298.548325 
" clip-path="url(#p4f7a3fb682)" style="fill: none; stroke: #0e87cc; stroke-opacity: 0.427273; stroke-width: 2; stroke-linecap: square"/>
   </g>
   <g id="line2d_22">
    <path d="M -1 322.474575 
L -0.000005 322.253328 
L 12.000002 327.436381 
L 23.999999 323.870547 
L 35.999997 309.823093 
L 47.999999 311.006654 
L 60.000001 313.044274 
L 72.000003 319.539659 
L 84 333.221629 
L 95.999998 323.147154 
L 108 302.901626 
L 120.000002 302.108166 
L 131.999999 297.567077 
L 143.999999 295.478328 
L 156 308.934948 
L 168 320.848204 
L 180 323.779649 
L 192 308.541059 
L 204 293.234296 
L 216 301.708596 
L 228 313.92295 
L 240.000001 314.203217 
L 252.000001 309.073188 
L 263.999998 297.61442 
L 276 299.044162 
L 288.000002 305.221406 
L 300 302.704681 
L 311.999997 300.078121 
L 323.999999 302.854283 
L 336.000001 306.283771 
L 348.000003 293.499413 
L 360.000001 290.441091 
L 371.999998 295.588163 
L 384.000005 295.501053 
L 396.000002 297.161826 
L 408 304.213958 
L 419.999997 300.598888 
L 431.999995 276.266759 
L 444.000001 259.664706 
L 455.999999 274.645753 
L 467.999996 283.061348 
L 480.000003 261.89927 
L 492 271.803312 
L 503.999989 302.856177 
L 515.999995 318.946931 
L 528.000001 327.544321 
L 539.99999 312.362542 
L 551.999996 291.719337 
L 564.000003 288.456495 
L 575.999991 277.704076 
L 587.999998 271.663178 
L 600.000004 279.762526 
L 611.999993 276.450448 
L 623.999999 267.733754 
L 636.000006 264.980317 
L 647.999994 257.623299 
L 660.000001 262.134089 
L 672.000007 269.962637 
L 683.999996 254.564976 
L 696.000002 233.959645 
L 708.000009 222.156224 
L 719.999997 215.448744 
L 732.000004 224.31504 
L 744.00001 253.502612 
L 755.999999 279.849636 
L 768.000005 299.046056 
L 780.000011 304.412797 
L 792 290.115375 
L 803.999989 285.644353 
L 815.999977 307.12836 
L 828.000001 327.686349 
L 829 327.339645 
" clip-path="url(#p4f7a3fb682)" style="fill: none; stroke: #f10c45; stroke-opacity: 0.427273; stroke-width: 2; stroke-linecap: square"/>
   </g>
   <g id="line2d_23">
    <path d="M -1 312.317073 
L -0.000005 314.086619 
L 12.000002 304.293471 
L 23.999999 294.112476 
L 35.999997 299.930187 
L 47.999999 297.99095 
L 60.000001 300.027149 
L 72.000003 291.300582 
L 84 286.743374 
L 95.999998 326.885585 
L 108 362.373626 
L 120.000002 378.275372 
L 131.999999 396.504202 
L 143.999999 377.693601 
L 156 355.29541 
L 168 350.641241 
L 180 330.667098 
L 192 318.934712 
L 204 320.098255 
L 216 323.685844 
L 228 325.140271 
L 240.000001 298.863607 
L 252.000001 283.737557 
L 263.999998 295.37298 
L 276 301.287654 
L 288.000002 299.057531 
L 300 292.367162 
L 311.999997 292.2702 
L 323.999999 285.288946 
L 336.000001 278.598578 
L 348.000003 293.045895 
L 360.000001 319.128636 
L 371.999998 332.89722 
L 384.000005 318.643827 
L 396.000002 288.876535 
L 408 293.336781 
L 419.999997 293.433743 
L 431.999995 257.945701 
L 444.000001 256.782159 
L 455.999999 249.606981 
L 467.999996 211.597931 
L 480.000003 183.672915 
L 492 185.612153 
L 503.999989 218.094376 
L 515.999995 210.919198 
L 528.000001 167.286361 
L 539.99999 147.506141 
L 551.999996 165.056238 
L 564.000003 185.515191 
L 575.999991 185.224305 
L 587.999998 180.570136 
L 600.000004 171.843568 
L 611.999993 160.402069 
L 623.999999 164.862314 
L 636.000006 197.829347 
L 647.999994 212.373626 
L 660.000001 192.399483 
L 672.000007 173.685844 
L 683.999996 156.426632 
L 696.000002 155.457014 
L 708.000009 174.073691 
L 719.999997 209.94958 
L 732.000004 233.89916 
L 744.00001 218.676147 
L 755.999999 194.823529 
L 768.000005 188.424047 
L 780.000011 194.144796 
L 792 190.557207 
L 803.999989 210.628313 
L 815.999977 247.279897 
L 828.000001 263.375566 
L 829 263.383646 
" clip-path="url(#p4f7a3fb682)" style="fill: none; stroke: #0e87cc; stroke-opacity: 0.490909; stroke-width: 2; stroke-linecap: square"/>
   </g>
   <g id="line2d_24">
    <path d="M -1 317.270194 
L -0.000005 315.928895 
L 12.000002 295.566904 
L 23.999999 298.184874 
L 35.999997 307.105365 
L 47.999999 296.536522 
L 60.000001 323.297996 
L 72.000003 351.223012 
L 84 354.616677 
L 95.999998 326.303814 
L 108 277.628959 
L 120.000002 292.561086 
L 131.999999 312.826115 
L 143.999999 294.500323 
L 156 295.760827 
L 168 305.844861 
L 180 274.623142 
L 192 265.799612 
L 204 312.535229 
L 216 333.478992 
L 228 338.908856 
L 240.000001 344.435682 
L 252.000001 351.319974 
L 263.999998 355.683258 
L 276 339.490627 
L 288.000002 320.001293 
L 300 324.170653 
L 311.999997 328.436975 
L 323.999999 330.27925 
L 336.000001 315.734971 
L 348.000003 263.957337 
L 360.000001 252.321913 
L 371.999998 300.60892 
L 384.000005 341.138979 
L 396.000002 319.031674 
L 408 317.965094 
L 419.999997 338.811894 
L 431.999995 313.60181 
L 444.000001 298.087912 
L 455.999999 287.325145 
L 467.999996 257.36393 
L 480.000003 246.116354 
L 492 284.222366 
L 503.999989 298.47576 
L 515.999995 292.948933 
L 528.000001 328.340013 
L 539.99999 324.267615 
L 551.999996 278.501616 
L 564.000003 252.031028 
L 575.999991 253.485456 
L 587.999998 278.113769 
L 600.000004 293.045895 
L 611.999993 300.027149 
L 623.999999 295.663866 
L 636.000006 271.908209 
L 647.999994 273.071752 
L 660.000001 290.330963 
L 672.000007 281.604396 
L 683.999996 275.59276 
L 696.000002 287.325145 
L 708.000009 275.107951 
L 719.999997 239.522948 
L 732.000004 196.859729 
L 744.00001 157.590175 
L 755.999999 145.566904 
L 768.000005 149.057531 
L 780.000011 163.117001 
L 792 209.270847 
L 803.999989 249.219134 
L 815.999977 256.103426 
L 828.000001 258.721396 
L 829 259.028441 
" clip-path="url(#p4f7a3fb682)" style="fill: none; stroke: #f10c45; stroke-opacity: 0.490909; stroke-width: 2; stroke-linecap: square"/>
   </g>
   <g id="line2d_25">
    <path d="M -1 324.292199 
L -0.000005 326.101468 
L 12.000002 324.206465 
L 23.999999 298.992099 
L 35.999997 288.412569 
L 47.999999 295.214727 
L 60.000001 296.10989 
L 72.000003 298.419989 
L 84 305.220342 
L 95.999998 310.349483 
L 108 313.424801 
L 120.000002 322.499158 
L 131.999999 316.981992 
L 143.999999 308.748656 
L 156 319.87503 
L 168 315.951472 
L 180 303.608687 
L 192 311.56048 
L 204 318.369856 
L 216 307.245288 
L 228 297.817197 
L 240.000001 302.287599 
L 252.000001 306.164234 
L 263.999998 295.214727 
L 276 287.071629 
L 288.000002 291.928251 
L 300 289.997152 
L 311.999997 286.732333 
L 323.999999 271.889949 
L 336.000001 247.031122 
L 348.000003 250.373546 
L 360.000001 250.517927 
L 371.999998 236.231411 
L 384.000005 237.216812 
L 396.000002 226.969359 
L 408 204.720221 
L 419.999997 194.729045 
L 431.999995 189.67029 
L 444.000001 184.283067 
L 455.999999 180.296342 
L 467.999996 169.855779 
L 480.000003 160.34467 
L 492 162.080853 
L 503.999989 160.945657 
L 515.999995 149.42043 
L 528.000001 139.438277 
L 539.99999 136.846635 
L 551.999996 150.028636 
L 564.000003 164.163552 
L 575.999991 166.152402 
L 587.999998 175.847598 
L 600.000004 176.681399 
L 611.999993 176.201332 
L 623.999999 176.29157 
L 636.000006 187.737387 
L 647.999994 212.173899 
L 660.000001 203.779939 
L 672.000007 198.71216 
L 683.999996 220.916179 
L 696.000002 244.000922 
L 708.000009 250.646066 
L 719.999997 236.668164 
L 732.000004 238.523462 
L 744.00001 255.751745 
L 755.999999 259.263816 
L 768.000005 253.894642 
L 780.000011 248.184367 
L 792 248.153686 
L 803.999989 252.705302 
L 815.999977 271.435149 
L 828.000001 281.70065 
L 829 280.279252 
" clip-path="url(#p4f7a3fb682)" style="fill: none; stroke: #0e87cc; stroke-opacity: 0.554545; stroke-width: 2; stroke-linecap: square"/>
   </g>
   <g id="line2d_26">
    <path d="M -1 299.413209 
L -0.000005 299.076923 
L 12.000002 314.58707 
L 23.999999 328.5379 
L 35.999997 324.737066 
L 47.999999 316.27272 
L 60.000001 311.114703 
L 72.000003 312.522419 
L 84 315.406433 
L 95.999998 301.462822 
L 108 300.008182 
L 120.000002 321.452394 
L 131.999999 329.479987 
L 143.999999 318.745247 
L 156 312.414133 
L 168 313.670249 
L 180 317.26534 
L 192 318.561161 
L 204 321.308013 
L 216 318.03778 
L 228 304.837732 
L 240.000001 297.64755 
L 252.000001 295.406032 
L 263.999998 295.052298 
L 276 308.082698 
L 288.000002 319.615144 
L 300 312.865324 
L 311.999997 308.252346 
L 323.999999 308.515842 
L 336.000001 299.004732 
L 348.000003 285.938237 
L 360.000001 284.891473 
L 371.999998 303.873987 
L 384.000005 318.745247 
L 396.000002 304.624769 
L 408 293.727601 
L 419.999997 307.331916 
L 431.999995 310.580493 
L 444.000001 289.645223 
L 455.999999 281.682602 
L 467.999996 293.994706 
L 480.000003 296.651319 
L 492 289.905109 
L 503.999989 287.104115 
L 515.999995 290.702815 
L 528.000001 288.316917 
L 539.99999 278.563969 
L 551.999996 271.370177 
L 564.000003 256.592765 
L 575.999991 244.29149 
L 587.999998 230.246812 
L 600.000004 203.059838 
L 611.999993 182.478303 
L 623.999999 179.467955 
L 636.000006 199.074918 
L 647.999994 222.05679 
L 660.000001 237.53806 
L 672.000007 258.282025 
L 683.999996 274.87503 
L 696.000002 289.721024 
L 708.000009 296.936472 
L 719.999997 285.097217 
L 732.000004 284.389749 
L 744.00001 292.897409 
L 755.999999 291.543836 
L 768.000005 290.316596 
L 780.000011 295.016203 
L 792 300.351087 
L 803.999989 296.792091 
L 815.999977 286.154809 
L 828.000001 281.296382 
L 829 281.457908 
" clip-path="url(#p4f7a3fb682)" style="fill: none; stroke: #f10c45; stroke-opacity: 0.554545; stroke-width: 2; stroke-linecap: square"/>
   </g>
   <g id="line2d_27">
    <path d="M -1 331.903638 
L -0.000005 330.891956 
L 12.000002 340.221951 
L 23.999999 351.354663 
L 35.999997 342.682472 
L 47.999999 333.498193 
L 60.000001 326.26651 
L 72.000003 305.916213 
L 84 295.366366 
L 95.999998 305.025263 
L 108 317.894078 
L 120.000002 318.893275 
L 131.999999 317.415297 
L 143.999999 330.854486 
L 156 336.420842 
L 168 324.980045 
L 180 308.443347 
L 192 300.379001 
L 204 304.001087 
L 216 308.926292 
L 228 306.986186 
L 240.000001 297.652028 
L 252.000001 295.22065 
L 263.999998 305.129346 
L 276 313.560065 
L 288.000002 302.568906 
L 300 309.933815 
L 311.999997 336.803867 
L 323.999999 346.562684 
L 336.000001 327.536322 
L 348.000003 293.971655 
L 360.000001 283.975529 
L 371.999998 286.964791 
L 384.000005 284.57921 
L 396.000002 273.737931 
L 408 254.157848 
L 419.999997 238.841002 
L 431.999995 224.027917 
L 444.000001 207.287217 
L 455.999999 201.196283 
L 467.999996 190.854602 
L 480.000003 170.808227 
L 492 153.547112 
L 503.999989 144.058911 
L 515.999995 140.416008 
L 528.000001 129.283296 
L 539.99999 118.704306 
L 551.999996 116.164682 
L 564.000003 112.192877 
L 575.999991 108.874713 
L 587.999998 110.598327 
L 600.000004 114.649235 
L 611.999993 123.462978 
L 623.999999 130.582252 
L 636.000006 129.075131 
L 647.999994 130.1909 
L 660.000001 139.395995 
L 672.000007 155.995143 
L 683.999996 171.003903 
L 696.000002 175.442 
L 708.000009 168.335216 
L 719.999997 163.605688 
L 732.000004 174.713419 
L 744.00001 188.402408 
L 755.999999 199.202054 
L 768.000005 209.439652 
L 780.000011 210.201539 
L 792 208.16984 
L 803.999989 210.542931 
L 815.999977 216.171737 
L 828.000001 226.875627 
L 829 227.179201 
" clip-path="url(#p4f7a3fb682)" style="fill: none; stroke: #0e87cc; stroke-opacity: 0.618182; stroke-width: 2; stroke-linecap: square"/>
   </g>
   <g id="line2d_28">
    <path d="M -1 305.945526 
L -0.000005 305.152244 
L 12.000002 304.048965 
L 23.999999 312.606665 
L 35.999997 322.432095 
L 47.999999 330.184192 
L 60.000001 318.76213 
L 72.000003 306.805082 
L 84 318.884948 
L 95.999998 321.318407 
L 108 301.059703 
L 120.000002 295.678615 
L 131.999999 309.665281 
L 143.999999 311.191137 
L 156 294.096554 
L 168 288.06807 
L 180 292.959969 
L 192 298.717837 
L 204 309.386339 
L 216 320.225536 
L 228 312.400581 
L 240.000001 293.016173 
L 252.000001 294.004961 
L 263.999998 296.477972 
L 276 295.472531 
L 288.000002 303.253772 
L 300 310.395943 
L 311.999997 321.226814 
L 323.999999 337.863432 
L 336.000001 340.017949 
L 348.000003 318.445718 
L 360.000001 305.866253 
L 371.999998 313.799455 
L 384.000005 305.88707 
L 396.000002 292.164775 
L 408 289.562701 
L 419.999997 285.667918 
L 431.999995 292.801762 
L 444.000001 300.156263 
L 455.999999 299.367314 
L 467.999996 297.754029 
L 480.000003 297.410555 
L 492 292.406247 
L 503.999989 274.999416 
L 515.999995 252.840158 
L 528.000001 253.497962 
L 539.99999 277.243444 
L 551.999996 272.241218 
L 564.000003 254.530464 
L 575.999991 250.887562 
L 587.999998 239.371825 
L 600.000004 231.145109 
L 611.999993 239.236517 
L 623.999999 254.149521 
L 636.000006 264.072789 
L 647.999994 258.889458 
L 660.000001 233.859592 
L 672.000007 215.478544 
L 683.999996 213.544683 
L 696.000002 212.689122 
L 708.000009 222.300141 
L 719.999997 242.286147 
L 732.000004 254.257767 
L 744.00001 256.426856 
L 755.999999 261.791291 
L 768.000005 261.314591 
L 780.000011 262.682241 
L 792 257.42397 
L 803.999989 249.526157 
L 815.999977 264.593203 
L 828.000001 270.790302 
L 829 270.86316 
" clip-path="url(#p4f7a3fb682)" style="fill: none; stroke: #f10c45; stroke-opacity: 0.618182; stroke-width: 2; stroke-linecap: square"/>
   </g>
   <g id="line2d_29">
    <path d="M -1 295.595199 
L -0.000005 295.488894 
L 12.000002 300.537756 
L 23.999999 297.964882 
L 35.999997 306.447831 
L 47.999999 313.945767 
L 60.000001 302.034114 
L 72.000003 296.829157 
L 84 298.19095 
L 95.999998 301.310156 
L 108 316.090726 
L 120.000002 326.153463 
L 131.999999 321.887767 
L 143.999999 313.644343 
L 156 318.981173 
L 168 328.774781 
L 180 316.884657 
L 192 307.615851 
L 204 313.803129 
L 216 319.718587 
L 228 321.49753 
L 240.000001 300.860711 
L 252.000001 284.400775 
L 263.999998 292.4585 
L 276 316.626293 
L 288.000002 335.449182 
L 300 315.135318 
L 311.999997 282.791383 
L 323.999999 275.514132 
L 336.000001 285.988637 
L 348.000003 292.910637 
L 360.000001 283.173546 
L 371.999998 261.239525 
L 384.000005 237.461969 
L 396.000002 218.127735 
L 408 213.183833 
L 419.999997 211.644415 
L 431.999995 196.788488 
L 444.000001 188.477782 
L 455.999999 189.715776 
L 467.999996 177.438106 
L 480.000003 160.041601 
L 492 150.07306 
L 503.999989 137.652752 
L 515.999995 124.863737 
L 528.000001 111.67372 
L 539.99999 111.377678 
L 551.999996 121.51308 
L 564.000003 129.990646 
L 575.999991 129.947586 
L 587.999998 128.957191 
L 600.000004 141.638554 
L 611.999993 154.51369 
L 623.999999 157.937012 
L 636.000006 165.432257 
L 647.999994 179.136311 
L 660.000001 180.449661 
L 672.000007 180.21821 
L 683.999996 188.725381 
L 696.000002 213.576762 
L 708.000009 235.257802 
L 719.999997 231.027092 
L 732.000004 225.170843 
L 744.00001 228.529574 
L 755.999999 227.213533 
L 768.000005 236.455426 
L 780.000011 241.630779 
L 792 232.466933 
L 803.999989 238.573472 
L 815.999977 240.233999 
L 828.000001 245.923388 
L 829 247.232696 
" clip-path="url(#p4f7a3fb682)" style="fill: none; stroke: #0e87cc; stroke-opacity: 0.681818; stroke-width: 2; stroke-linecap: square"/>
   </g>
   <g id="line2d_30">
    <path d="M -1 328.937382 
L -0.000005 329.485282 
L 12.000002 336.105857 
L 23.999999 318.967716 
L 35.999997 305.322871 
L 47.999999 310.32329 
L 60.000001 322.272622 
L 72.000003 331.363803 
L 84 329.156944 
L 95.999998 319.931199 
L 108 318.074208 
L 120.000002 314.718168 
L 131.999999 296.761875 
L 143.999999 300.957597 
L 156 330.373408 
L 168 330.090822 
L 180 313.119541 
L 192 302.133691 
L 204 295.122878 
L 216 306.587778 
L 228 324.43642 
L 240.000001 323.863175 
L 252.000001 304.515484 
L 263.999998 294.748789 
L 276 308.536273 
L 288.000002 317.788931 
L 300 310.705453 
L 311.999997 310.465928 
L 323.999999 309.316747 
L 336.000001 299.969893 
L 348.000003 306.555482 
L 360.000001 318.416002 
L 371.999998 313.426348 
L 384.000005 300.73422 
L 396.000002 289.74837 
L 408 276.827482 
L 419.999997 276.709065 
L 431.999995 288.682619 
L 444.000001 287.081301 
L 455.999999 267.251869 
L 467.999996 259.242587 
L 480.000003 264.603639 
L 492 253.249082 
L 503.999989 237.27627 
L 515.999995 237.268196 
L 528.000001 241.052151 
L 539.99999 231.481921 
L 551.999996 220.549897 
L 564.000003 211.386051 
L 575.999991 195.574716 
L 587.999998 200.532074 
L 600.000004 227.095116 
L 611.999993 242.346662 
L 623.999999 252.280217 
L 636.000006 256.187972 
L 647.999994 264.057307 
L 660.000001 297.526201 
L 672.000007 321.823176 
L 683.999996 322.003493 
L 696.000002 320.203019 
L 708.000009 317.046135 
L 719.999997 322.234944 
L 732.000004 325.935469 
L 744.00001 309.211787 
L 755.999999 299.321292 
L 768.000005 308.065297 
L 780.000011 313.671256 
L 792 299.980659 
L 803.999989 286.303518 
L 815.999977 290.117077 
L 828.000001 293.804146 
L 829 293.513712 
" clip-path="url(#p4f7a3fb682)" style="fill: none; stroke: #f10c45; stroke-opacity: 0.681818; stroke-width: 2; stroke-linecap: square"/>
   </g>
   <g id="line2d_31">
    <path d="M -1 312.411725 
L -0.000005 311.482468 
L 12.000002 299.424164 
L 23.999999 294.888285 
L 35.999997 304.180892 
L 47.999999 312.314895 
L 60.000001 307.54118 
L 72.000003 303.436803 
L 84 304.05178 
L 95.999998 320.275618 
L 108 338.106551 
L 120.000002 345.608589 
L 131.999999 331.399565 
L 143.999999 304.354172 
L 156 307.364501 
L 168 317.224518 
L 180 320.068361 
L 192 326.53751 
L 204 327.733487 
L 216 321.386654 
L 228 312.67165 
L 240.000001 305.013319 
L 252.000001 293.563197 
L 263.999998 295.088747 
L 276 310.497146 
L 288.000002 308.774531 
L 300 280.580728 
L 311.999997 256.790296 
L 323.999999 259.460859 
L 336.000001 268.512232 
L 348.000003 267.628839 
L 360.000001 257.313536 
L 371.999998 235.908263 
L 384.000005 217.401196 
L 396.000002 206.844659 
L 408 199.064012 
L 419.999997 186.091737 
L 431.999995 162.036287 
L 444.000001 140.202908 
L 455.999999 133.193531 
L 467.999996 135.25931 
L 480.000003 131.535472 
L 492 128.100435 
L 503.999989 129.741506 
L 515.999995 122.052596 
L 528.000001 111.36355 
L 539.99999 106.294238 
L 551.999996 97.40935 
L 564.000003 98.306333 
L 575.999991 107.153846 
L 587.999998 115.253873 
L 600.000004 126.758358 
L 611.999993 128.749388 
L 623.999999 125.436668 
L 636.000006 135.337456 
L 647.999994 154.354172 
L 660.000001 158.061022 
L 672.000007 156.902419 
L 683.999996 173.578146 
L 696.000002 184.535608 
L 708.000009 177.46847 
L 719.999997 179.109541 
L 732.000004 192.927834 
L 744.00001 204.731313 
L 755.999999 210.11321 
L 768.000005 214.815575 
L 780.000011 217.618646 
L 792 210.160777 
L 803.999989 211.924164 
L 815.999977 218.067138 
L 828.000001 217.469149 
L 829 218.546488 
" clip-path="url(#p4f7a3fb682)" style="fill: none; stroke: #0e87cc; stroke-opacity: 0.745455; stroke-width: 2; stroke-linecap: square"/>
   </g>
   <g id="line2d_32">
    <path d="M -1 305.84589 
L -0.000005 306.285743 
L 12.000002 313.507475 
L 23.999999 303.530239 
L 35.999997 303.129315 
L 47.999999 305.918796 
L 60.000001 301.839902 
L 72.000003 296.155613 
L 84 299.395284 
L 95.999998 322.417845 
L 108 328.20916 
L 120.000002 309.151672 
L 131.999999 301.009174 
L 143.999999 314.302528 
L 156 317.769842 
L 168 299.451345 
L 180 295.861715 
L 192 315.362599 
L 204 321.746806 
L 216 317.243205 
L 228 310.633052 
L 240.000001 307.923417 
L 252.000001 318.417097 
L 263.999998 328.48607 
L 276 334.333447 
L 288.000002 331.559255 
L 300 318.620957 
L 311.999997 309.810818 
L 323.999999 291.471935 
L 336.000001 281.301033 
L 348.000003 287.99103 
L 360.000001 277.230633 
L 371.999998 266.845678 
L 384.000005 270.263727 
L 396.000002 276.228323 
L 408 268.42729 
L 419.999997 252.259513 
L 431.999995 245.267124 
L 444.000001 242.819108 
L 455.999999 237.427018 
L 467.999996 229.456102 
L 480.000003 222.927494 
L 492 206.323118 
L 503.999989 190.365996 
L 515.999995 183.431367 
L 528.000001 189.387469 
L 539.99999 213.086165 
L 551.999996 229.789073 
L 564.000003 234.798926 
L 575.999991 232.807896 
L 587.999998 240.816186 
L 600.000004 252.347853 
L 611.999993 259.595067 
L 623.999999 281.370685 
L 636.000006 295.544034 
L 647.999994 294.322574 
L 660.000001 302.876189 
L 672.000007 328.679736 
L 683.999996 344.803343 
L 696.000002 348.666485 
L 708.000009 360.320468 
L 719.999997 374.396983 
L 732.000004 382.587048 
L 744.00001 373.396371 
L 755.999999 354.979342 
L 768.000005 339.217586 
L 780.000011 331.65439 
L 792 328.243137 
L 803.999989 331.666282 
L 815.999977 346.065575 
L 828.000001 343.767056 
L 829 342.00226 
" clip-path="url(#p4f7a3fb682)" style="fill: none; stroke: #f10c45; stroke-opacity: 0.745455; stroke-width: 2; stroke-linecap: square"/>
   </g>
   <g id="line2d_33">
    <path d="M -1 315.023343 
L -0.000005 316.210188 
L 12.000002 322.556707 
L 23.999999 322.833066 
L 35.999997 310.994405 
L 47.999999 306.852917 
L 60.000001 313.631489 
L 72.000003 302.26186 
L 84 296.236462 
L 95.999998 309.723544 
L 108 307.520459 
L 120.000002 289.498759 
L 131.999999 308.053715 
L 143.999999 337.888775 
L 156 327.834769 
L 168 310.15949 
L 180 313.020386 
L 192 312.345059 
L 204 296.534229 
L 216 293.772588 
L 228 307.820172 
L 240.000001 306.434486 
L 252.000001 297.29908 
L 263.999998 303.81881 
L 276 313.849462 
L 288.000002 311.226001 
L 300 303.094828 
L 311.999997 305.484747 
L 323.999999 306.200944 
L 336.000001 304.714056 
L 348.000003 297.976354 
L 360.000001 291.304822 
L 371.999998 299.529412 
L 384.000005 294.593879 
L 396.000002 280.958887 
L 408 273.890332 
L 419.999997 270.640199 
L 431.999995 260.990999 
L 444.000001 250.45823 
L 455.999999 247.274267 
L 467.999996 245.584975 
L 480.000003 245.588868 
L 492 229.131903 
L 503.999989 209.743979 
L 515.999995 210.109862 
L 528.000001 204.948572 
L 539.99999 186.12115 
L 551.999996 179.414587 
L 564.000003 174.837153 
L 575.999991 154.600691 
L 587.999998 139.459349 
L 600.000004 148.66871 
L 611.999993 157.92478 
L 623.999999 152.751812 
L 636.000006 150.755024 
L 647.999994 150.01158 
L 660.000001 161.700384 
L 672.000007 179.340632 
L 683.999996 179.091519 
L 696.000002 177.729188 
L 708.000009 191.325257 
L 719.999997 202.208339 
L 732.000004 208.334939 
L 744.00001 227.434827 
L 755.999999 233.545857 
L 768.000005 222.242398 
L 780.000011 218.128156 
L 792 230.48645 
L 803.999989 252.038535 
L 815.999977 258.028901 
L 828.000001 250.088454 
L 829 250.11116 
" clip-path="url(#p4f7a3fb682)" style="fill: none; stroke: #0e87cc; stroke-opacity: 0.809091; stroke-width: 2; stroke-linecap: square"/>
   </g>
   <g id="line2d_34">
    <path d="M -1 298.785324 
L -0.000005 299.965358 
L 12.000002 303.11429 
L 23.999999 306.936603 
L 35.999997 310.089427 
L 47.999999 303.301124 
L 60.000001 303.569698 
L 72.000003 308.04593 
L 84 299.770739 
L 95.999998 297.653287 
L 108 294.329198 
L 120.000002 292.791709 
L 131.999999 306.971634 
L 143.999999 318.987398 
L 156 312.012261 
L 168 301.335474 
L 180 301.966039 
L 192 304.714056 
L 204 315.293534 
L 216 314.00905 
L 228 295.092103 
L 240.000001 294.796283 
L 252.000001 299.844694 
L 263.999998 258.721744 
L 276 155.737265 
L 288.000002 89.940544 
L 300 114.812825 
L 311.999997 137.15117 
L 323.999999 141.109716 
L 336.000001 154.768063 
L 348.000003 167.134141 
L 360.000001 177.947161 
L 371.999998 184.101007 
L 384.000005 185.260935 
L 396.000002 198.199192 
L 408 204.3725 
L 419.999997 187.767625 
L 431.999995 175.350946 
L 444.000001 180.543376 
L 455.999999 194.166691 
L 467.999996 199.942977 
L 480.000003 189.667105 
L 492 181.368559 
L 503.999989 188.865275 
L 515.999995 197.946188 
L 528.000001 205.528536 
L 539.99999 212.406364 
L 551.999996 213.830974 
L 564.000003 225.574271 
L 575.999991 252.182552 
L 587.999998 272.041454 
L 600.000004 286.844159 
L 611.999993 290.608086 
L 623.999999 280.791515 
L 636.000006 268.950907 
L 647.999994 258.826838 
L 660.000001 263.162945 
L 672.000007 272.177687 
L 683.999996 268.273634 
L 696.000002 264.677079 
L 708.000009 256.686031 
L 719.999997 237.866394 
L 732.000004 225.282343 
L 744.00001 234.733032 
L 755.999999 239.139201 
L 768.000005 212.495889 
L 780.000011 198.541721 
L 792 211.254221 
L 803.999989 217.742811 
L 815.999977 213.889359 
L 828.000001 217.392497 
L 829 218.011059 
" clip-path="url(#p4f7a3fb682)" style="fill: none; stroke: #f10c45; stroke-opacity: 0.809091; stroke-width: 2; stroke-linecap: square"/>
   </g>
   <g id="line2d_35">
    <path d="M -1 298.165002 
L -0.000005 297.502394 
L 12.000002 305.463571 
L 23.999999 320.005509 
L 35.999997 314.405141 
L 47.999999 306.086563 
L 60.000001 317.562725 
L 72.000003 332.911273 
L 84 332.478458 
L 95.999998 322.749951 
L 108 311.024592 
L 120.000002 311.142632 
L 131.999999 316.087219 
L 143.999999 318.313594 
L 156 320.667847 
L 168 310.017968 
L 180 304.702866 
L 192 312.552561 
L 204 327.369926 
L 216 329.160207 
L 228 304.74877 
L 240.000001 299.259886 
L 252.000001 318.628369 
L 263.999998 319.913699 
L 276 309.785166 
L 288.000002 314.792052 
L 300 315.621615 
L 311.999997 302.32894 
L 323.999999 298.007345 
L 336.000001 287.482064 
L 348.000003 267.943078 
L 360.000001 270.035019 
L 371.999998 275.238639 
L 384.000005 257.355499 
L 396.000002 228.242114 
L 408 216.362647 
L 419.999997 218.930028 
L 431.999995 216.336416 
L 444.000001 192.593875 
L 455.999999 161.677094 
L 467.999996 153.748705 
L 480.000003 153.060135 
L 492 138.655912 
L 503.999989 122.87127 
L 515.999995 122.559774 
L 528.000001 124.887796 
L 539.99999 122.759788 
L 551.999996 118.402125 
L 564.000003 103.017509 
L 575.999991 90.895403 
L 587.999998 87.665683 
L 600.000004 88.360811 
L 611.999993 95.967867 
L 623.999999 107.204669 
L 636.000006 121.369532 
L 647.999994 124.054954 
L 660.000001 121.300675 
L 672.000007 129.304479 
L 683.999996 139.059217 
L 696.000002 141.429864 
L 708.000009 148.987737 
L 719.999997 161.191816 
L 732.000004 163.178831 
L 744.00001 174.887796 
L 755.999999 200.148469 
L 768.000005 213.460817 
L 780.000011 216.103613 
L 792 214.992065 
L 803.999989 224.78615 
L 815.999977 243.246377 
L 828.000001 258.171946 
L 829 259.128289 
" clip-path="url(#p4f7a3fb682)" style="fill: none; stroke: #0e87cc; stroke-opacity: 0.872727; stroke-width: 2; stroke-linecap: square"/>
   </g>
   <g id="line2d_36">
    <path d="M -1 290.832827 
L -0.000005 290.093711 
L 12.000002 304.097908 
L 23.999999 311.263952 
L 35.999997 305.058627 
L 47.999999 310.614729 
L 60.000001 305.861958 
L 72.000003 303.653617 
L 84 314.275625 
L 95.999998 324.918946 
L 108 323.533609 
L 120.000002 309.973703 
L 131.999999 311.536101 
L 143.999999 314.970752 
L 156 301.858417 
L 168 294.777625 
L 180 285.896715 
L 192 273.607384 
L 204 288.157519 
L 216 310.280281 
L 228 324.640239 
L 240.000001 324.987802 
L 252.000001 311.416421 
L 263.999998 309.708112 
L 276 318.557873 
L 288.000002 322.969637 
L 300 322.104007 
L 311.999997 305.381599 
L 323.999999 280.814414 
L 336.000001 275.089448 
L 348.000003 281.760378 
L 360.000001 282.960456 
L 371.999998 273.564758 
L 384.000005 267.292216 
L 396.000002 273.376221 
L 408 266.700374 
L 419.999997 261.493475 
L 431.999995 268.221785 
L 444.000001 263.923143 
L 455.999999 264.152666 
L 467.999996 265.51505 
L 480.000003 258.053905 
L 492 258.853958 
L 503.999989 262.998492 
L 515.999995 258.322775 
L 528.000001 247.7811 
L 539.99999 239.447767 
L 551.999996 231.840711 
L 564.000003 226.476425 
L 575.999991 232.670273 
L 587.999998 231.498065 
L 600.000004 217.269264 
L 611.999993 205.653748 
L 623.999999 194.710407 
L 636.000006 190.254377 
L 647.999994 192.87914 
L 660.000001 204.297921 
L 672.000007 210.049118 
L 683.999996 212.288609 
L 696.000002 225.535379 
L 708.000009 231.145583 
L 719.999997 233.571972 
L 732.000004 249.759919 
L 744.00001 267.984065 
L 755.999999 269.005443 
L 768.000005 278.381468 
L 780.000011 286.35904 
L 792 273.835268 
L 803.999989 268.215227 
L 815.999977 271.777756 
L 828.000001 278.040462 
L 829 279.764339 
" clip-path="url(#p4f7a3fb682)" style="fill: none; stroke: #f10c45; stroke-opacity: 0.872727; stroke-width: 2; stroke-linecap: square"/>
   </g>
   <g id="line2d_37">
    <path d="M -1 311.559348 
L -0.000005 312.475602 
L 12.000002 318.804176 
L 23.999999 319.443426 
L 35.999997 313.562327 
L 47.999999 299.882378 
L 60.000001 307.297677 
L 72.000003 327.945451 
L 84 334.59365 
L 95.999998 349.679949 
L 108 345.013424 
L 120.000002 322.447901 
L 131.999999 310.621777 
L 143.999999 317.206052 
L 156 331.333475 
L 168 315.480077 
L 180 309.343277 
L 192 305.252078 
L 204 281.152355 
L 216 266.705306 
L 228 285.882804 
L 240.000001 348.209674 
L 252.000001 367.387172 
L 263.999998 326.666951 
L 276 307.041977 
L 288.000002 309.662902 
L 300 312.219902 
L 311.999997 301.736203 
L 323.999999 275.143405 
L 336.000001 273.16173 
L 348.000003 264.212231 
L 360.000001 232.633284 
L 371.999998 223.939484 
L 384.000005 226.049009 
L 396.000002 230.395909 
L 408 226.304709 
L 419.999997 204.761986 
L 431.999995 191.465587 
L 444.000001 201.182186 
L 455.999999 201.182186 
L 467.999996 172.224164 
L 480.000003 147.613041 
L 492 142.307266 
L 503.999989 134.444492 
L 515.999995 123.769018 
L 528.000001 112.198594 
L 539.99999 105.870019 
L 551.999996 115.075218 
L 564.000003 110.280844 
L 575.999991 88.610271 
L 587.999998 86.245046 
L 600.000004 109.066269 
L 611.999993 133.805242 
L 623.999999 144.416791 
L 636.000006 143.266141 
L 647.999994 144.288941 
L 660.000001 164.233539 
L 672.000007 167.493714 
L 683.999996 155.66759 
L 696.000002 174.333688 
L 708.000009 174.845088 
L 719.999997 149.019391 
L 732.000004 155.79544 
L 744.00001 172.735564 
L 755.999999 161.740465 
L 768.000005 159.24739 
L 780.000011 193.319412 
L 792 220.615385 
L 803.999989 217.35521 
L 815.999977 206.615811 
L 828.000001 213.200085 
L 829 215.448106 
" clip-path="url(#p4f7a3fb682)" style="fill: none; stroke: #0e87cc; stroke-opacity: 0.936364; stroke-width: 2; stroke-linecap: square"/>
   </g>
   <g id="line2d_38">
    <path d="M -1 278.099935 
L -0.000005 277.76433 
L 12.000002 289.462604 
L 23.999999 296.494353 
L 35.999997 293.553804 
L 47.999999 321.041551 
L 60.000001 349.999574 
L 72.000003 353.004049 
L 84 343.990624 
L 95.999998 322.511826 
L 108 298.028553 
L 120.000002 310.557852 
L 131.999999 345.844449 
L 143.999999 331.1417 
L 156 295.663328 
L 168 295.727253 
L 180 296.110803 
L 192 278.083955 
L 204 270.157255 
L 216 269.006606 
L 228 281.919455 
L 240.000001 285.946729 
L 252.000001 269.326231 
L 263.999998 298.412103 
L 276 324.621351 
L 288.000002 321.041551 
L 300 334.08225 
L 311.999997 349.232474 
L 323.999999 357.159173 
L 336.000001 352.045174 
L 348.000003 325.068826 
L 360.000001 297.389303 
L 371.999998 288.823354 
L 384.000005 292.019604 
L 396.000002 302.375453 
L 408 305.443853 
L 419.999997 301.544428 
L 431.999995 289.910079 
L 444.000001 290.805029 
L 455.999999 275.33518 
L 467.999996 244.715108 
L 480.000003 252.450032 
L 492 256.285532 
L 503.999989 255.262732 
L 515.999995 259.609631 
L 528.000001 264.467931 
L 539.99999 295.407628 
L 551.999996 329.160026 
L 564.000003 321.808651 
L 575.999991 287.928404 
L 587.999998 254.751332 
L 600.000004 259.545706 
L 611.999993 294.001278 
L 623.999999 273.28958 
L 636.000006 228.478159 
L 647.999994 220.615385 
L 660.000001 229.820584 
L 672.000007 246.952482 
L 683.999996 251.682932 
L 696.000002 236.340933 
L 708.000009 215.69316 
L 719.999997 196.323887 
L 732.000004 149.466866 
L 744.00001 126.134242 
L 755.999999 145.056041 
L 768.000005 149.658641 
L 780.000011 191.913062 
L 792 246.441082 
L 803.999989 264.340081 
L 815.999977 292.019604 
L 828.000001 315.352227 
L 829 314.32943 
" clip-path="url(#p4f7a3fb682)" style="fill: none; stroke: #f10c45; stroke-opacity: 0.936364; stroke-width: 2; stroke-linecap: square"/>
   </g>
   <g id="line2d_39">
    <path d="M -1 318.828389 
L -0.000005 315.763314 
L 12.000002 294.035503 
L 23.999999 276.426036 
L 35.999997 273.159763 
L 47.999999 263.360947 
L 60.000001 256.402367 
L 72.000003 268.189349 
L 84 272.16568 
L 95.999998 296.023669 
L 108 333.798817 
L 120.000002 345.443787 
L 131.999999 305.822485 
L 143.999999 258.390533 
L 156 289.775148 
L 168 331.810651 
L 180 330.390533 
L 192 326.272189 
L 204 310.934911 
L 216 316.615385 
L 228 314.627219 
L 240.000001 306.532544 
L 252.000001 322.295858 
L 263.999998 339.763314 
L 276 351.550296 
L 288.000002 351.12426 
L 300 333.372781 
L 311.999997 305.680473 
L 323.999999 290.485207 
L 336.000001 292.189349 
L 348.000003 288.923077 
L 360.000001 276.284024 
L 371.999998 295.313609 
L 384.000005 297.869822 
L 396.000002 275.005917 
L 408 252.994083 
L 419.999997 231.408284 
L 431.999995 234.248521 
L 444.000001 233.822485 
L 455.999999 229.136095 
L 467.999996 240.781065 
L 480.000003 240.639053 
L 492 200.591716 
L 503.999989 170.911243 
L 515.999995 193.207101 
L 528.000001 212.804734 
L 539.99999 199.171598 
L 551.999996 179.431953 
L 564.000003 202.153846 
L 575.999991 211.952663 
L 587.999998 176.307692 
L 600.000004 156.142012 
L 611.999993 139.242604 
L 623.999999 133.136095 
L 636.000006 146.059172 
L 647.999994 159.692308 
L 660.000001 139.952663 
L 672.000007 88.118343 
L 683.999996 89.822485 
L 696.000002 134.130178 
L 708.000009 141.940828 
L 719.999997 136.118343 
L 732.000004 130.863905 
L 744.00001 126.035503 
L 755.999999 126.035503 
L 768.000005 134.840237 
L 780.000011 139.384615 
L 792 150.60355 
L 803.999989 177.585799 
L 815.999977 191.218935 
L 828.000001 198.60355 
L 829 199.088756 
" clip-path="url(#p4f7a3fb682)" style="fill: none; stroke: #0e87cc; stroke-width: 2; stroke-linecap: square"/>
   </g>
   <g id="line2d_40">
    <path d="M -1 291.982243 
L -0.000005 290.627219 
L 12.000002 289.136095 
L 23.999999 281.254438 
L 35.999997 303.12426 
L 47.999999 321.798817 
L 60.000001 290.698225 
L 72.000003 271.597633 
L 84 264.568047 
L 95.999998 241.988166 
L 108 269.112426 
L 120.000002 332.16568 
L 131.999999 307.597633 
L 143.999999 251.857988 
L 156 265.846154 
L 168 302.840237 
L 180 311.715976 
L 192 297.869822 
L 204 298.366864 
L 216 316.544379 
L 228 322.650888 
L 240.000001 306.745562 
L 252.000001 300.071006 
L 263.999998 300.071006 
L 276 292.757396 
L 288.000002 287.005917 
L 300 296.804734 
L 311.999997 300.213018 
L 323.999999 287.786982 
L 336.000001 276.923077 
L 348.000003 279.12426 
L 360.000001 281.467456 
L 371.999998 299.928994 
L 384.000005 303.408284 
L 396.000002 271.455621 
L 408 263.573964 
L 419.999997 267.905325 
L 431.999995 276.994083 
L 444.000001 315.83432 
L 455.999999 334.295858 
L 467.999996 311.857988 
L 480.000003 279.550296 
L 492 304.544379 
L 503.999989 335.218935 
L 515.999995 314.556213 
L 528.000001 341.04142 
L 539.99999 362.272189 
L 551.999996 344.023669 
L 564.000003 341.325444 
L 575.999991 325.633136 
L 587.999998 315.692308 
L 600.000004 321.372781 
L 611.999993 324.35503 
L 623.999999 347.786982 
L 636.000006 328.473373 
L 647.999994 271.455621 
L 660.000001 242.130178 
L 672.000007 222.887574 
L 683.999996 190.792899 
L 696.000002 156.497041 
L 708.000009 159.47929 
L 719.999997 184.473373 
L 732.000004 231.621302 
L 744.00001 289.278107 
L 755.999999 297.798817 
L 768.000005 273.869822 
L 780.000011 298.43787 
L 792 322.43787 
L 803.999989 274.721893 
L 815.999977 268.260355 
L 828.000001 306.035503 
L 829 304.455627 
" clip-path="url(#p4f7a3fb682)" style="fill: none; stroke: #f10c45; stroke-width: 2; stroke-linecap: square"/>
   </g>
   <g id="patch_3">
    <path d="M 72 396 
L 72 36 
" style="fill: none; stroke: #000000; stroke-width: 0.8; stroke-linejoin: miter; stroke-linecap: square"/>
   </g>
   <g id="patch_4">
    <path d="M 792 396 
L 792 36 
" style="fill: none; stroke: #000000; stroke-width: 0.8; stroke-linejoin: miter; stroke-linecap: square"/>
   </g>
   <g id="patch_5">
    <path d="M 72 396 
L 792 396 
" style="fill: none; stroke: #000000; stroke-width: 0.8; stroke-linejoin: miter; stroke-linecap: square"/>
   </g>
   <g id="patch_6">
    <path d="M 72 36 
L 792 36 
" style="fill: none; stroke: #000000; stroke-width: 0.8; stroke-linejoin: miter; stroke-linecap: square"/>
   </g>
   <g id="text_17">
    <!-- n=12 sessions -->
    <g style="fill: #808080" transform="translate(646.478438 385.056562) scale(0.18 -0.18)">
     <defs>
      <path id="DejaVuSans-6e" d="M 3513 2113 
L 3513 0 
L 2938 0 
L 2938 2094 
Q 2938 2591 2744 2837 
Q 2550 3084 2163 3084 
Q 1697 3084 1428 2787 
Q 1159 2491 1159 1978 
L 1159 0 
L 581 0 
L 581 3500 
L 1159 3500 
L 1159 2956 
Q 1366 3272 1645 3428 
Q 1925 3584 2291 3584 
Q 2894 3584 3203 3211 
Q 3513 2838 3513 2113 
z
" transform="scale(0.015625)"/>
      <path id="DejaVuSans-3d" d="M 678 2906 
L 4684 2906 
L 4684 2381 
L 678 2381 
L 678 2906 
z
M 678 1631 
L 4684 1631 
L 4684 1100 
L 678 1100 
L 678 1631 
z
" transform="scale(0.015625)"/>
     </defs>
     <use xlink:href="#DejaVuSans-6e"/>
     <use xlink:href="#DejaVuSans-3d" x="63.378906"/>
     <use xlink:href="#DejaVuSans-31" x="147.167969"/>
     <use xlink:href="#DejaVuSans-32" x="210.791016"/>
     <use xlink:href="#DejaVuSans-20" x="274.414062"/>
     <use xlink:href="#DejaVuSans-73" x="306.201172"/>
     <use xlink:href="#DejaVuSans-65" x="358.300781"/>
     <use xlink:href="#DejaVuSans-73" x="419.824219"/>
     <use xlink:href="#DejaVuSans-73" x="471.923828"/>
     <use xlink:href="#DejaVuSans-69" x="524.023438"/>
     <use xlink:href="#DejaVuSans-6f" x="551.806641"/>
     <use xlink:href="#DejaVuSans-6e" x="612.988281"/>
     <use xlink:href="#DejaVuSans-73" x="676.367188"/>
    </g>
   </g>
   <g id="legend_1">
    <g id="line2d_41">
     <path d="M 90 62.196875 
L 110 62.196875 
L 130 62.196875 
" style="fill: none; stroke: #0e87cc; stroke-width: 2; stroke-linecap: square"/>
    </g>
    <g id="text_18">
     <!-- FEF -->
     <g transform="translate(146 69.196875) scale(0.2 -0.2)">
      <defs>
       <path id="DejaVuSans-46" d="M 628 4666 
L 3309 4666 
L 3309 4134 
L 1259 4134 
L 1259 2759 
L 3109 2759 
L 3109 2228 
L 1259 2228 
L 1259 0 
L 628 0 
L 628 4666 
z
" transform="scale(0.015625)"/>
       <path id="DejaVuSans-45" d="M 628 4666 
L 3578 4666 
L 3578 4134 
L 1259 4134 
L 1259 2753 
L 3481 2753 
L 3481 2222 
L 1259 2222 
L 1259 531 
L 3634 531 
L 3634 0 
L 628 0 
L 628 4666 
z
" transform="scale(0.015625)"/>
      </defs>
      <use xlink:href="#DejaVuSans-46"/>
      <use xlink:href="#DejaVuSans-45" x="57.519531"/>
      <use xlink:href="#DejaVuSans-46" x="120.703125"/>
     </g>
    </g>
    <g id="line2d_42">
     <path d="M 90 91.553125 
L 110 91.553125 
L 130 91.553125 
" style="fill: none; stroke: #f10c45; stroke-width: 2; stroke-linecap: square"/>
    </g>
    <g id="text_19">
     <!-- LIP -->
     <g transform="translate(146 98.553125) scale(0.2 -0.2)">
      <defs>
       <path id="DejaVuSans-4c" d="M 628 4666 
L 1259 4666 
L 1259 531 
L 3531 531 
L 3531 0 
L 628 0 
L 628 4666 
z
" transform="scale(0.015625)"/>
       <path id="DejaVuSans-49" d="M 628 4666 
L 1259 4666 
L 1259 0 
L 628 0 
L 628 4666 
z
" transform="scale(0.015625)"/>
       <path id="DejaVuSans-50" d="M 1259 4147 
L 1259 2394 
L 2053 2394 
Q 2494 2394 2734 2622 
Q 2975 2850 2975 3272 
Q 2975 3691 2734 3919 
Q 2494 4147 2053 4147 
L 1259 4147 
z
M 628 4666 
L 2053 4666 
Q 2838 4666 3239 4311 
Q 3641 3956 3641 3272 
Q 3641 2581 3239 2228 
Q 2838 1875 2053 1875 
L 1259 1875 
L 1259 0 
L 628 0 
L 628 4666 
z
" transform="scale(0.015625)"/>
      </defs>
      <use xlink:href="#DejaVuSans-4c"/>
      <use xlink:href="#DejaVuSans-49" x="55.712891"/>
      <use xlink:href="#DejaVuSans-50" x="85.205078"/>
     </g>
    </g>
   </g>
  </g>
 </g>
 <defs>
  <clipPath id="p4f7a3fb682">
   <rect x="72" y="36" width="720" height="360"/>
  </clipPath>
 </defs>
</svg>
