<?xml version="1.0" encoding="utf-8" standalone="no"?>
<!DOCTYPE svg PUBLIC "-//W3C//DTD SVG 1.1//EN"
  "http://www.w3.org/Graphics/SVG/1.1/DTD/svg11.dtd">
<svg xmlns:xlink="http://www.w3.org/1999/xlink" width="828pt" height="453.6pt" viewBox="0 0 828 453.6" xmlns="http://www.w3.org/2000/svg" version="1.1">
 <metadata>
  <rdf:RDF xmlns:dc="http://purl.org/dc/elements/1.1/" xmlns:cc="http://creativecommons.org/ns#" xmlns:rdf="http://www.w3.org/1999/02/22-rdf-syntax-ns#">
   <cc:Work>
    <dc:type rdf:resource="http://purl.org/dc/dcmitype/StillImage"/>
    <dc:date>2026-01-28T21:22:01.175853</dc:date>
    <dc:format>image/svg+xml</dc:format>
    <dc:creator>
     <cc:Agent>
      <dc:title>Matplotlib v3.10.5, https://matplotlib.org/</dc:title>
     </cc:Agent>
    </dc:creator>
   </cc:Work>
  </rdf:RDF>
 </metadata>
 <defs>
  <style type="text/css">*{stroke-linejoin: round; stroke-linecap: butt}</style>
 </defs>
 <g id="figure_1">
  <g id="patch_1">
   <path d="M 0 453.6 
L 828 453.6 
L 828 0 
L 0 0 
z
" style="fill: #ffffff"/>
  </g>
  <g id="axes_1">
   <g id="patch_2">
    <path d="M 72 396 
L 792 396 
L 792 36 
L 72 36 
z
" style="fill: #ffffff"/>
   </g>
   <g id="matplotlib.axis_1">
    <g id="xtick_1">
     <g id="line2d_1">
      <defs>
       <path id="m76cbb9eb2d" d="M 0 0 
L 0 3.5 
" style="stroke: #000000; stroke-width: 0.8"/>
      </defs>
      <g>
       <use xlink:href="#m76cbb9eb2d" x="72" y="396" style="stroke: #000000; stroke-width: 0.8"/>
      </g>
     </g>
     <g id="text_1">
      <!-- −100 -->
      <g transform="translate(47.279531 416.677187) scale(0.18 -0.18)">
       <defs>
        <path id="DejaVuSans-2212" d="M 678 2272 
L 4684 2272 
L 4684 1741 
L 678 1741 
L 678 2272 
z
" transform="scale(0.015625)"/>
        <path id="DejaVuSans-31" d="M 794 531 
L 1825 531 
L 1825 4091 
L 703 3866 
L 703 4441 
L 1819 4666 
L 2450 4666 
L 2450 531 
L 3481 531 
L 3481 0 
L 794 0 
L 794 531 
z
" transform="scale(0.015625)"/>
        <path id="DejaVuSans-30" d="M 2034 4250 
Q 1547 4250 1301 3770 
Q 1056 3291 1056 2328 
Q 1056 1369 1301 889 
Q 1547 409 2034 409 
Q 2525 409 2770 889 
Q 3016 1369 3016 2328 
Q 3016 3291 2770 3770 
Q 2525 4250 2034 4250 
z
M 2034 4750 
Q 2819 4750 3233 4129 
Q 3647 3509 3647 2328 
Q 3647 1150 3233 529 
Q 2819 -91 2034 -91 
Q 1250 -91 836 529 
Q 422 1150 422 2328 
Q 422 3509 836 4129 
Q 1250 4750 2034 4750 
z
" transform="scale(0.015625)"/>
       </defs>
       <use xlink:href="#DejaVuSans-2212"/>
       <use xlink:href="#DejaVuSans-31" transform="translate(83.789062 0)"/>
       <use xlink:href="#DejaVuSans-30" transform="translate(147.412109 0)"/>
       <use xlink:href="#DejaVuSans-30" transform="translate(211.035156 0)"/>
      </g>
     </g>
    </g>
    <g id="xtick_2">
     <g id="line2d_2">
      <g>
       <use xlink:href="#m76cbb9eb2d" x="216" y="396" style="stroke: #000000; stroke-width: 0.8"/>
      </g>
     </g>
     <g id="text_2">
      <!-- 0 -->
      <g transform="translate(210.27375 416.677187) scale(0.18 -0.18)">
       <use xlink:href="#DejaVuSans-30"/>
      </g>
     </g>
    </g>
    <g id="xtick_3">
     <g id="line2d_3">
      <g>
       <use xlink:href="#m76cbb9eb2d" x="360" y="396" style="stroke: #000000; stroke-width: 0.8"/>
      </g>
     </g>
     <g id="text_3">
      <!-- 100 -->
      <g transform="translate(342.82125 416.677187) scale(0.18 -0.18)">
       <use xlink:href="#DejaVuSans-31"/>
       <use xlink:href="#DejaVuSans-30" transform="translate(63.623047 0)"/>
       <use xlink:href="#DejaVuSans-30" transform="translate(127.246094 0)"/>
      </g>
     </g>
    </g>
    <g id="xtick_4">
     <g id="line2d_4">
      <g>
       <use xlink:href="#m76cbb9eb2d" x="504" y="396" style="stroke: #000000; stroke-width: 0.8"/>
      </g>
     </g>
     <g id="text_4">
      <!-- 200 -->
      <g transform="translate(486.82125 416.677187) scale(0.18 -0.18)">
       <defs>
        <path id="DejaVuSans-32" d="M 1228 531 
L 3431 531 
L 3431 0 
L 469 0 
L 469 531 
Q 828 903 1448 1529 
Q 2069 2156 2228 2338 
Q 2531 2678 2651 2914 
Q 2772 3150 2772 3378 
Q 2772 3750 2511 3984 
Q 2250 4219 1831 4219 
Q 1534 4219 1204 4116 
Q 875 4013 500 3803 
L 500 4441 
Q 881 4594 1212 4672 
Q 1544 4750 1819 4750 
Q 2544 4750 2975 4387 
Q 3406 4025 3406 3419 
Q 3406 3131 3298 2873 
Q 3191 2616 2906 2266 
Q 2828 2175 2409 1742 
Q 1991 1309 1228 531 
z
" transform="scale(0.015625)"/>
       </defs>
       <use xlink:href="#DejaVuSans-32"/>
       <use xlink:href="#DejaVuSans-30" transform="translate(63.623047 0)"/>
       <use xlink:href="#DejaVuSans-30" transform="translate(127.246094 0)"/>
      </g>
     </g>
    </g>
    <g id="xtick_5">
     <g id="line2d_5">
      <g>
       <use xlink:href="#m76cbb9eb2d" x="648" y="396" style="stroke: #000000; stroke-width: 0.8"/>
      </g>
     </g>
     <g id="text_5">
      <!-- 300 -->
      <g transform="translate(630.82125 416.677187) scale(0.18 -0.18)">
       <defs>
        <path id="DejaVuSans-33" d="M 2597 2516 
Q 3050 2419 3304 2112 
Q 3559 1806 3559 1356 
Q 3559 666 3084 287 
Q 2609 -91 1734 -91 
Q 1441 -91 1130 -33 
Q 819 25 488 141 
L 488 750 
Q 750 597 1062 519 
Q 1375 441 1716 441 
Q 2309 441 2620 675 
Q 2931 909 2931 1356 
Q 2931 1769 2642 2001 
Q 2353 2234 1838 2234 
L 1294 2234 
L 1294 2753 
L 1863 2753 
Q 2328 2753 2575 2939 
Q 2822 3125 2822 3475 
Q 2822 3834 2567 4026 
Q 2313 4219 1838 4219 
Q 1578 4219 1281 4162 
Q 984 4106 628 3988 
L 628 4550 
Q 988 4650 1302 4700 
Q 1616 4750 1894 4750 
Q 2613 4750 3031 4423 
Q 3450 4097 3450 3541 
Q 3450 3153 3228 2886 
Q 3006 2619 2597 2516 
z
" transform="scale(0.015625)"/>
       </defs>
       <use xlink:href="#DejaVuSans-33"/>
       <use xlink:href="#DejaVuSans-30" transform="translate(63.623047 0)"/>
       <use xlink:href="#DejaVuSans-30" transform="translate(127.246094 0)"/>
      </g>
     </g>
    </g>
    <g id="xtick_6">
     <g id="line2d_6">
      <g>
       <use xlink:href="#m76cbb9eb2d" x="792" y="396" style="stroke: #000000; stroke-width: 0.8"/>
      </g>
     </g>
     <g id="text_6">
      <!-- 400 -->
      <g transform="translate(774.82125 416.677187) scale(0.18 -0.18)">
       <defs>
        <path id="DejaVuSans-34" d="M 2419 4116 
L 825 1625 
L 2419 1625 
L 2419 4116 
z
M 2253 4666 
L 3047 4666 
L 3047 1625 
L 3713 1625 
L 3713 1100 
L 3047 1100 
L 3047 0 
L 2419 0 
L 2419 1100 
L 313 1100 
L 313 1709 
L 2253 4666 
z
" transform="scale(0.015625)"/>
       </defs>
       <use xlink:href="#DejaVuSans-34"/>
       <use xlink:href="#DejaVuSans-30" transform="translate(63.623047 0)"/>
       <use xlink:href="#DejaVuSans-30" transform="translate(127.246094 0)"/>
      </g>
     </g>
    </g>
    <g id="text_7">
     <!-- Time from Stimulus Onset (ms) -->
     <g transform="translate(291.473438 438.097812) scale(0.18 -0.18)">
      <defs>
       <path id="DejaVuSans-54" d="M -19 4666 
L 3928 4666 
L 3928 4134 
L 2272 4134 
L 2272 0 
L 1638 0 
L 1638 4134 
L -19 4134 
L -19 4666 
z
" transform="scale(0.015625)"/>
       <path id="DejaVuSans-69" d="M 603 3500 
L 1178 3500 
L 1178 0 
L 603 0 
L 603 3500 
z
M 603 4863 
L 1178 4863 
L 1178 4134 
L 603 4134 
L 603 4863 
z
" transform="scale(0.015625)"/>
       <path id="DejaVuSans-6d" d="M 3328 2828 
Q 3544 3216 3844 3400 
Q 4144 3584 4550 3584 
Q 5097 3584 5394 3201 
Q 5691 2819 5691 2113 
L 5691 0 
L 5113 0 
L 5113 2094 
Q 5113 2597 4934 2840 
Q 4756 3084 4391 3084 
Q 3944 3084 3684 2787 
Q 3425 2491 3425 1978 
L 3425 0 
L 2847 0 
L 2847 2094 
Q 2847 2600 2669 2842 
Q 2491 3084 2119 3084 
Q 1678 3084 1418 2786 
Q 1159 2488 1159 1978 
L 1159 0 
L 581 0 
L 581 3500 
L 1159 3500 
L 1159 2956 
Q 1356 3278 1631 3431 
Q 1906 3584 2284 3584 
Q 2666 3584 2933 3390 
Q 3200 3197 3328 2828 
z
" transform="scale(0.015625)"/>
       <path id="DejaVuSans-65" d="M 3597 1894 
L 3597 1613 
L 953 1613 
Q 991 1019 1311 708 
Q 1631 397 2203 397 
Q 2534 397 2845 478 
Q 3156 559 3463 722 
L 3463 178 
Q 3153 47 2828 -22 
Q 2503 -91 2169 -91 
Q 1331 -91 842 396 
Q 353 884 353 1716 
Q 353 2575 817 3079 
Q 1281 3584 2069 3584 
Q 2775 3584 3186 3129 
Q 3597 2675 3597 1894 
z
M 3022 2063 
Q 3016 2534 2758 2815 
Q 2500 3097 2075 3097 
Q 1594 3097 1305 2825 
Q 1016 2553 972 2059 
L 3022 2063 
z
" transform="scale(0.015625)"/>
       <path id="DejaVuSans-20" transform="scale(0.015625)"/>
       <path id="DejaVuSans-66" d="M 2375 4863 
L 2375 4384 
L 1825 4384 
Q 1516 4384 1395 4259 
Q 1275 4134 1275 3809 
L 1275 3500 
L 2222 3500 
L 2222 3053 
L 1275 3053 
L 1275 0 
L 697 0 
L 697 3053 
L 147 3053 
L 147 3500 
L 697 3500 
L 697 3744 
Q 697 4328 969 4595 
Q 1241 4863 1831 4863 
L 2375 4863 
z
" transform="scale(0.015625)"/>
       <path id="DejaVuSans-72" d="M 2631 2963 
Q 2534 3019 2420 3045 
Q 2306 3072 2169 3072 
Q 1681 3072 1420 2755 
Q 1159 2438 1159 1844 
L 1159 0 
L 581 0 
L 581 3500 
L 1159 3500 
L 1159 2956 
Q 1341 3275 1631 3429 
Q 1922 3584 2338 3584 
Q 2397 3584 2469 3576 
Q 2541 3569 2628 3553 
L 2631 2963 
z
" transform="scale(0.015625)"/>
       <path id="DejaVuSans-6f" d="M 1959 3097 
Q 1497 3097 1228 2736 
Q 959 2375 959 1747 
Q 959 1119 1226 758 
Q 1494 397 1959 397 
Q 2419 397 2687 759 
Q 2956 1122 2956 1747 
Q 2956 2369 2687 2733 
Q 2419 3097 1959 3097 
z
M 1959 3584 
Q 2709 3584 3137 3096 
Q 3566 2609 3566 1747 
Q 3566 888 3137 398 
Q 2709 -91 1959 -91 
Q 1206 -91 779 398 
Q 353 888 353 1747 
Q 353 2609 779 3096 
Q 1206 3584 1959 3584 
z
" transform="scale(0.015625)"/>
       <path id="DejaVuSans-53" d="M 3425 4513 
L 3425 3897 
Q 3066 4069 2747 4153 
Q 2428 4238 2131 4238 
Q 1616 4238 1336 4038 
Q 1056 3838 1056 3469 
Q 1056 3159 1242 3001 
Q 1428 2844 1947 2747 
L 2328 2669 
Q 3034 2534 3370 2195 
Q 3706 1856 3706 1288 
Q 3706 609 3251 259 
Q 2797 -91 1919 -91 
Q 1588 -91 1214 -16 
Q 841 59 441 206 
L 441 856 
Q 825 641 1194 531 
Q 1563 422 1919 422 
Q 2459 422 2753 634 
Q 3047 847 3047 1241 
Q 3047 1584 2836 1778 
Q 2625 1972 2144 2069 
L 1759 2144 
Q 1053 2284 737 2584 
Q 422 2884 422 3419 
Q 422 4038 858 4394 
Q 1294 4750 2059 4750 
Q 2388 4750 2728 4690 
Q 3069 4631 3425 4513 
z
" transform="scale(0.015625)"/>
       <path id="DejaVuSans-74" d="M 1172 4494 
L 1172 3500 
L 2356 3500 
L 2356 3053 
L 1172 3053 
L 1172 1153 
Q 1172 725 1289 603 
Q 1406 481 1766 481 
L 2356 481 
L 2356 0 
L 1766 0 
Q 1100 0 847 248 
Q 594 497 594 1153 
L 594 3053 
L 172 3053 
L 172 3500 
L 594 3500 
L 594 4494 
L 1172 4494 
z
" transform="scale(0.015625)"/>
       <path id="DejaVuSans-75" d="M 544 1381 
L 544 3500 
L 1119 3500 
L 1119 1403 
Q 1119 906 1312 657 
Q 1506 409 1894 409 
Q 2359 409 2629 706 
Q 2900 1003 2900 1516 
L 2900 3500 
L 3475 3500 
L 3475 0 
L 2900 0 
L 2900 538 
Q 2691 219 2414 64 
Q 2138 -91 1772 -91 
Q 1169 -91 856 284 
Q 544 659 544 1381 
z
M 1991 3584 
L 1991 3584 
z
" transform="scale(0.015625)"/>
       <path id="DejaVuSans-6c" d="M 603 4863 
L 1178 4863 
L 1178 0 
L 603 0 
L 603 4863 
z
" transform="scale(0.015625)"/>
       <path id="DejaVuSans-73" d="M 2834 3397 
L 2834 2853 
Q 2591 2978 2328 3040 
Q 2066 3103 1784 3103 
Q 1356 3103 1142 2972 
Q 928 2841 928 2578 
Q 928 2378 1081 2264 
Q 1234 2150 1697 2047 
L 1894 2003 
Q 2506 1872 2764 1633 
Q 3022 1394 3022 966 
Q 3022 478 2636 193 
Q 2250 -91 1575 -91 
Q 1294 -91 989 -36 
Q 684 19 347 128 
L 347 722 
Q 666 556 975 473 
Q 1284 391 1588 391 
Q 1994 391 2212 530 
Q 2431 669 2431 922 
Q 2431 1156 2273 1281 
Q 2116 1406 1581 1522 
L 1381 1569 
Q 847 1681 609 1914 
Q 372 2147 372 2553 
Q 372 3047 722 3315 
Q 1072 3584 1716 3584 
Q 2034 3584 2315 3537 
Q 2597 3491 2834 3397 
z
" transform="scale(0.015625)"/>
       <path id="DejaVuSans-4f" d="M 2522 4238 
Q 1834 4238 1429 3725 
Q 1025 3213 1025 2328 
Q 1025 1447 1429 934 
Q 1834 422 2522 422 
Q 3209 422 3611 934 
Q 4013 1447 4013 2328 
Q 4013 3213 3611 3725 
Q 3209 4238 2522 4238 
z
M 2522 4750 
Q 3503 4750 4090 4092 
Q 4678 3434 4678 2328 
Q 4678 1225 4090 567 
Q 3503 -91 2522 -91 
Q 1538 -91 948 565 
Q 359 1222 359 2328 
Q 359 3434 948 4092 
Q 1538 4750 2522 4750 
z
" transform="scale(0.015625)"/>
       <path id="DejaVuSans-6e" d="M 3513 2113 
L 3513 0 
L 2938 0 
L 2938 2094 
Q 2938 2591 2744 2837 
Q 2550 3084 2163 3084 
Q 1697 3084 1428 2787 
Q 1159 2491 1159 1978 
L 1159 0 
L 581 0 
L 581 3500 
L 1159 3500 
L 1159 2956 
Q 1366 3272 1645 3428 
Q 1925 3584 2291 3584 
Q 2894 3584 3203 3211 
Q 3513 2838 3513 2113 
z
" transform="scale(0.015625)"/>
       <path id="DejaVuSans-28" d="M 1984 4856 
Q 1566 4138 1362 3434 
Q 1159 2731 1159 2009 
Q 1159 1288 1364 580 
Q 1569 -128 1984 -844 
L 1484 -844 
Q 1016 -109 783 600 
Q 550 1309 550 2009 
Q 550 2706 781 3412 
Q 1013 4119 1484 4856 
L 1984 4856 
z
" transform="scale(0.015625)"/>
       <path id="DejaVuSans-29" d="M 513 4856 
L 1013 4856 
Q 1481 4119 1714 3412 
Q 1947 2706 1947 2009 
Q 1947 1309 1714 600 
Q 1481 -109 1013 -844 
L 513 -844 
Q 928 -128 1133 580 
Q 1338 1288 1338 2009 
Q 1338 2731 1133 3434 
Q 928 4138 513 4856 
z
" transform="scale(0.015625)"/>
      </defs>
      <use xlink:href="#DejaVuSans-54"/>
      <use xlink:href="#DejaVuSans-69" transform="translate(57.958984 0)"/>
      <use xlink:href="#DejaVuSans-6d" transform="translate(85.742188 0)"/>
      <use xlink:href="#DejaVuSans-65" transform="translate(183.154297 0)"/>
      <use xlink:href="#DejaVuSans-20" transform="translate(244.677734 0)"/>
      <use xlink:href="#DejaVuSans-66" transform="translate(276.464844 0)"/>
      <use xlink:href="#DejaVuSans-72" transform="translate(311.669922 0)"/>
      <use xlink:href="#DejaVuSans-6f" transform="translate(350.533203 0)"/>
      <use xlink:href="#DejaVuSans-6d" transform="translate(411.714844 0)"/>
      <use xlink:href="#DejaVuSans-20" transform="translate(509.126953 0)"/>
      <use xlink:href="#DejaVuSans-53" transform="translate(540.914062 0)"/>
      <use xlink:href="#DejaVuSans-74" transform="translate(604.390625 0)"/>
      <use xlink:href="#DejaVuSans-69" transform="translate(643.599609 0)"/>
      <use xlink:href="#DejaVuSans-6d" transform="translate(671.382812 0)"/>
      <use xlink:href="#DejaVuSans-75" transform="translate(768.794922 0)"/>
      <use xlink:href="#DejaVuSans-6c" transform="translate(832.173828 0)"/>
      <use xlink:href="#DejaVuSans-75" transform="translate(859.957031 0)"/>
      <use xlink:href="#DejaVuSans-73" transform="translate(923.335938 0)"/>
      <use xlink:href="#DejaVuSans-20" transform="translate(975.435547 0)"/>
      <use xlink:href="#DejaVuSans-4f" transform="translate(1007.222656 0)"/>
      <use xlink:href="#DejaVuSans-6e" transform="translate(1085.933594 0)"/>
      <use xlink:href="#DejaVuSans-73" transform="translate(1149.3125 0)"/>
      <use xlink:href="#DejaVuSans-65" transform="translate(1201.412109 0)"/>
      <use xlink:href="#DejaVuSans-74" transform="translate(1262.935547 0)"/>
      <use xlink:href="#DejaVuSans-20" transform="translate(1302.144531 0)"/>
      <use xlink:href="#DejaVuSans-28" transform="translate(1333.931641 0)"/>
      <use xlink:href="#DejaVuSans-6d" transform="translate(1372.945312 0)"/>
      <use xlink:href="#DejaVuSans-73" transform="translate(1470.357422 0)"/>
      <use xlink:href="#DejaVuSans-29" transform="translate(1522.457031 0)"/>
     </g>
    </g>
   </g>
   <g id="matplotlib.axis_2">
    <g id="ytick_1">
     <g id="line2d_7">
      <defs>
       <path id="md9ec44d457" d="M 0 0 
L -3.5 0 
" style="stroke: #000000; stroke-width: 0.8"/>
      </defs>
      <g>
       <use xlink:href="#md9ec44d457" x="72" y="368.307692" style="stroke: #000000; stroke-width: 0.8"/>
      </g>
     </g>
     <g id="text_8">
      <!-- 0.4 -->
      <g transform="translate(36.374375 375.146286) scale(0.18 -0.18)">
       <defs>
        <path id="DejaVuSans-2e" d="M 684 794 
L 1344 794 
L 1344 0 
L 684 0 
L 684 794 
z
" transform="scale(0.015625)"/>
       </defs>
       <use xlink:href="#DejaVuSans-30"/>
       <use xlink:href="#DejaVuSans-2e" transform="translate(63.623047 0)"/>
       <use xlink:href="#DejaVuSans-34" transform="translate(95.410156 0)"/>
      </g>
     </g>
    </g>
    <g id="ytick_2">
     <g id="line2d_8">
      <g>
       <use xlink:href="#md9ec44d457" x="72" y="312.923077" style="stroke: #000000; stroke-width: 0.8"/>
      </g>
     </g>
     <g id="text_9">
      <!-- 0.5 -->
      <g transform="translate(36.374375 319.761671) scale(0.18 -0.18)">
       <defs>
        <path id="DejaVuSans-35" d="M 691 4666 
L 3169 4666 
L 3169 4134 
L 1269 4134 
L 1269 2991 
Q 1406 3038 1543 3061 
Q 1681 3084 1819 3084 
Q 2600 3084 3056 2656 
Q 3513 2228 3513 1497 
Q 3513 744 3044 326 
Q 2575 -91 1722 -91 
Q 1428 -91 1123 -41 
Q 819 9 494 109 
L 494 744 
Q 775 591 1075 516 
Q 1375 441 1709 441 
Q 2250 441 2565 725 
Q 2881 1009 2881 1497 
Q 2881 1984 2565 2268 
Q 2250 2553 1709 2553 
Q 1456 2553 1204 2497 
Q 953 2441 691 2322 
L 691 4666 
z
" transform="scale(0.015625)"/>
       </defs>
       <use xlink:href="#DejaVuSans-30"/>
       <use xlink:href="#DejaVuSans-2e" transform="translate(63.623047 0)"/>
       <use xlink:href="#DejaVuSans-35" transform="translate(95.410156 0)"/>
      </g>
     </g>
    </g>
    <g id="ytick_3">
     <g id="line2d_9">
      <g>
       <use xlink:href="#md9ec44d457" x="72" y="257.538462" style="stroke: #000000; stroke-width: 0.8"/>
      </g>
     </g>
     <g id="text_10">
      <!-- 0.6 -->
      <g transform="translate(36.374375 264.377055) scale(0.18 -0.18)">
       <defs>
        <path id="DejaVuSans-36" d="M 2113 2584 
Q 1688 2584 1439 2293 
Q 1191 2003 1191 1497 
Q 1191 994 1439 701 
Q 1688 409 2113 409 
Q 2538 409 2786 701 
Q 3034 994 3034 1497 
Q 3034 2003 2786 2293 
Q 2538 2584 2113 2584 
z
M 3366 4563 
L 3366 3988 
Q 3128 4100 2886 4159 
Q 2644 4219 2406 4219 
Q 1781 4219 1451 3797 
Q 1122 3375 1075 2522 
Q 1259 2794 1537 2939 
Q 1816 3084 2150 3084 
Q 2853 3084 3261 2657 
Q 3669 2231 3669 1497 
Q 3669 778 3244 343 
Q 2819 -91 2113 -91 
Q 1303 -91 875 529 
Q 447 1150 447 2328 
Q 447 3434 972 4092 
Q 1497 4750 2381 4750 
Q 2619 4750 2861 4703 
Q 3103 4656 3366 4563 
z
" transform="scale(0.015625)"/>
       </defs>
       <use xlink:href="#DejaVuSans-30"/>
       <use xlink:href="#DejaVuSans-2e" transform="translate(63.623047 0)"/>
       <use xlink:href="#DejaVuSans-36" transform="translate(95.410156 0)"/>
      </g>
     </g>
    </g>
    <g id="ytick_4">
     <g id="line2d_10">
      <g>
       <use xlink:href="#md9ec44d457" x="72" y="202.153846" style="stroke: #000000; stroke-width: 0.8"/>
      </g>
     </g>
     <g id="text_11">
      <!-- 0.7 -->
      <g transform="translate(36.374375 208.99244) scale(0.18 -0.18)">
       <defs>
        <path id="DejaVuSans-37" d="M 525 4666 
L 3525 4666 
L 3525 4397 
L 1831 0 
L 1172 0 
L 2766 4134 
L 525 4134 
L 525 4666 
z
" transform="scale(0.015625)"/>
       </defs>
       <use xlink:href="#DejaVuSans-30"/>
       <use xlink:href="#DejaVuSans-2e" transform="translate(63.623047 0)"/>
       <use xlink:href="#DejaVuSans-37" transform="translate(95.410156 0)"/>
      </g>
     </g>
    </g>
    <g id="ytick_5">
     <g id="line2d_11">
      <g>
       <use xlink:href="#md9ec44d457" x="72" y="146.769231" style="stroke: #000000; stroke-width: 0.8"/>
      </g>
     </g>
     <g id="text_12">
      <!-- 0.8 -->
      <g transform="translate(36.374375 153.607825) scale(0.18 -0.18)">
       <defs>
        <path id="DejaVuSans-38" d="M 2034 2216 
Q 1584 2216 1326 1975 
Q 1069 1734 1069 1313 
Q 1069 891 1326 650 
Q 1584 409 2034 409 
Q 2484 409 2743 651 
Q 3003 894 3003 1313 
Q 3003 1734 2745 1975 
Q 2488 2216 2034 2216 
z
M 1403 2484 
Q 997 2584 770 2862 
Q 544 3141 544 3541 
Q 544 4100 942 4425 
Q 1341 4750 2034 4750 
Q 2731 4750 3128 4425 
Q 3525 4100 3525 3541 
Q 3525 3141 3298 2862 
Q 3072 2584 2669 2484 
Q 3125 2378 3379 2068 
Q 3634 1759 3634 1313 
Q 3634 634 3220 271 
Q 2806 -91 2034 -91 
Q 1263 -91 848 271 
Q 434 634 434 1313 
Q 434 1759 690 2068 
Q 947 2378 1403 2484 
z
M 1172 3481 
Q 1172 3119 1398 2916 
Q 1625 2713 2034 2713 
Q 2441 2713 2670 2916 
Q 2900 3119 2900 3481 
Q 2900 3844 2670 4047 
Q 2441 4250 2034 4250 
Q 1625 4250 1398 4047 
Q 1172 3844 1172 3481 
z
" transform="scale(0.015625)"/>
       </defs>
       <use xlink:href="#DejaVuSans-30"/>
       <use xlink:href="#DejaVuSans-2e" transform="translate(63.623047 0)"/>
       <use xlink:href="#DejaVuSans-38" transform="translate(95.410156 0)"/>
      </g>
     </g>
    </g>
    <g id="ytick_6">
     <g id="line2d_12">
      <g>
       <use xlink:href="#md9ec44d457" x="72" y="91.384615" style="stroke: #000000; stroke-width: 0.8"/>
      </g>
     </g>
     <g id="text_13">
      <!-- 0.9 -->
      <g transform="translate(36.374375 98.223209) scale(0.18 -0.18)">
       <defs>
        <path id="DejaVuSans-39" d="M 703 97 
L 703 672 
Q 941 559 1184 500 
Q 1428 441 1663 441 
Q 2288 441 2617 861 
Q 2947 1281 2994 2138 
Q 2813 1869 2534 1725 
Q 2256 1581 1919 1581 
Q 1219 1581 811 2004 
Q 403 2428 403 3163 
Q 403 3881 828 4315 
Q 1253 4750 1959 4750 
Q 2769 4750 3195 4129 
Q 3622 3509 3622 2328 
Q 3622 1225 3098 567 
Q 2575 -91 1691 -91 
Q 1453 -91 1209 -44 
Q 966 3 703 97 
z
M 1959 2075 
Q 2384 2075 2632 2365 
Q 2881 2656 2881 3163 
Q 2881 3666 2632 3958 
Q 2384 4250 1959 4250 
Q 1534 4250 1286 3958 
Q 1038 3666 1038 3163 
Q 1038 2656 1286 2365 
Q 1534 2075 1959 2075 
z
" transform="scale(0.015625)"/>
       </defs>
       <use xlink:href="#DejaVuSans-30"/>
       <use xlink:href="#DejaVuSans-2e" transform="translate(63.623047 0)"/>
       <use xlink:href="#DejaVuSans-39" transform="translate(95.410156 0)"/>
      </g>
     </g>
    </g>
    <g id="ytick_7">
     <g id="line2d_13">
      <g>
       <use xlink:href="#md9ec44d457" x="72" y="36" style="stroke: #000000; stroke-width: 0.8"/>
      </g>
     </g>
     <g id="text_14">
      <!-- 1.0 -->
      <g transform="translate(36.374375 42.838594) scale(0.18 -0.18)">
       <use xlink:href="#DejaVuSans-31"/>
       <use xlink:href="#DejaVuSans-2e" transform="translate(63.623047 0)"/>
       <use xlink:href="#DejaVuSans-30" transform="translate(95.410156 0)"/>
      </g>
     </g>
    </g>
    <g id="text_15">
     <!-- AUC (Category) -->
     <g transform="translate(28.215 293.804687) rotate(-90) scale(0.2 -0.2)">
      <defs>
       <path id="DejaVuSans-41" d="M 2188 4044 
L 1331 1722 
L 3047 1722 
L 2188 4044 
z
M 1831 4666 
L 2547 4666 
L 4325 0 
L 3669 0 
L 3244 1197 
L 1141 1197 
L 716 0 
L 50 0 
L 1831 4666 
z
" transform="scale(0.015625)"/>
       <path id="DejaVuSans-55" d="M 556 4666 
L 1191 4666 
L 1191 1831 
Q 1191 1081 1462 751 
Q 1734 422 2344 422 
Q 2950 422 3222 751 
Q 3494 1081 3494 1831 
L 3494 4666 
L 4128 4666 
L 4128 1753 
Q 4128 841 3676 375 
Q 3225 -91 2344 -91 
Q 1459 -91 1007 375 
Q 556 841 556 1753 
L 556 4666 
z
" transform="scale(0.015625)"/>
       <path id="DejaVuSans-43" d="M 4122 4306 
L 4122 3641 
Q 3803 3938 3442 4084 
Q 3081 4231 2675 4231 
Q 1875 4231 1450 3742 
Q 1025 3253 1025 2328 
Q 1025 1406 1450 917 
Q 1875 428 2675 428 
Q 3081 428 3442 575 
Q 3803 722 4122 1019 
L 4122 359 
Q 3791 134 3420 21 
Q 3050 -91 2638 -91 
Q 1578 -91 968 557 
Q 359 1206 359 2328 
Q 359 3453 968 4101 
Q 1578 4750 2638 4750 
Q 3056 4750 3426 4639 
Q 3797 4528 4122 4306 
z
" transform="scale(0.015625)"/>
       <path id="DejaVuSans-61" d="M 2194 1759 
Q 1497 1759 1228 1600 
Q 959 1441 959 1056 
Q 959 750 1161 570 
Q 1363 391 1709 391 
Q 2188 391 2477 730 
Q 2766 1069 2766 1631 
L 2766 1759 
L 2194 1759 
z
M 3341 1997 
L 3341 0 
L 2766 0 
L 2766 531 
Q 2569 213 2275 61 
Q 1981 -91 1556 -91 
Q 1019 -91 701 211 
Q 384 513 384 1019 
Q 384 1609 779 1909 
Q 1175 2209 1959 2209 
L 2766 2209 
L 2766 2266 
Q 2766 2663 2505 2880 
Q 2244 3097 1772 3097 
Q 1472 3097 1187 3025 
Q 903 2953 641 2809 
L 641 3341 
Q 956 3463 1253 3523 
Q 1550 3584 1831 3584 
Q 2591 3584 2966 3190 
Q 3341 2797 3341 1997 
z
" transform="scale(0.015625)"/>
       <path id="DejaVuSans-67" d="M 2906 1791 
Q 2906 2416 2648 2759 
Q 2391 3103 1925 3103 
Q 1463 3103 1205 2759 
Q 947 2416 947 1791 
Q 947 1169 1205 825 
Q 1463 481 1925 481 
Q 2391 481 2648 825 
Q 2906 1169 2906 1791 
z
M 3481 434 
Q 3481 -459 3084 -895 
Q 2688 -1331 1869 -1331 
Q 1566 -1331 1297 -1286 
Q 1028 -1241 775 -1147 
L 775 -588 
Q 1028 -725 1275 -790 
Q 1522 -856 1778 -856 
Q 2344 -856 2625 -561 
Q 2906 -266 2906 331 
L 2906 616 
Q 2728 306 2450 153 
Q 2172 0 1784 0 
Q 1141 0 747 490 
Q 353 981 353 1791 
Q 353 2603 747 3093 
Q 1141 3584 1784 3584 
Q 2172 3584 2450 3431 
Q 2728 3278 2906 2969 
L 2906 3500 
L 3481 3500 
L 3481 434 
z
" transform="scale(0.015625)"/>
       <path id="DejaVuSans-79" d="M 2059 -325 
Q 1816 -950 1584 -1140 
Q 1353 -1331 966 -1331 
L 506 -1331 
L 506 -850 
L 844 -850 
Q 1081 -850 1212 -737 
Q 1344 -625 1503 -206 
L 1606 56 
L 191 3500 
L 800 3500 
L 1894 763 
L 2988 3500 
L 3597 3500 
L 2059 -325 
z
" transform="scale(0.015625)"/>
      </defs>
      <use xlink:href="#DejaVuSans-41"/>
      <use xlink:href="#DejaVuSans-55" transform="translate(68.408203 0)"/>
      <use xlink:href="#DejaVuSans-43" transform="translate(141.601562 0)"/>
      <use xlink:href="#DejaVuSans-20" transform="translate(211.425781 0)"/>
      <use xlink:href="#DejaVuSans-28" transform="translate(243.212891 0)"/>
      <use xlink:href="#DejaVuSans-43" transform="translate(282.226562 0)"/>
      <use xlink:href="#DejaVuSans-61" transform="translate(352.050781 0)"/>
      <use xlink:href="#DejaVuSans-74" transform="translate(413.330078 0)"/>
      <use xlink:href="#DejaVuSans-65" transform="translate(452.539062 0)"/>
      <use xlink:href="#DejaVuSans-67" transform="translate(514.0625 0)"/>
      <use xlink:href="#DejaVuSans-6f" transform="translate(577.539062 0)"/>
      <use xlink:href="#DejaVuSans-72" transform="translate(638.720703 0)"/>
      <use xlink:href="#DejaVuSans-79" transform="translate(679.833984 0)"/>
      <use xlink:href="#DejaVuSans-29" transform="translate(739.013672 0)"/>
     </g>
    </g>
   </g>
   <g id="line2d_14">
    <path d="M 72 312.923077 
L 792 312.923077 
" clip-path="url(#pdb075f6f43)" style="fill: none; stroke-dasharray: 0.8,1.32; stroke-dashoffset: 0; stroke: #000000; stroke-width: 0.8"/>
   </g>
   <g id="line2d_15">
    <path d="M -1 306.265779 
L 0.000002 304.51171 
L 14.399999 291.568637 
L 28.799996 301.667168 
L 43.199998 313.933745 
L 57.600001 320.796508 
L 72.000003 306.565648 
L 86.4 299.246455 
L 100.799997 317.030954 
L 115.2 319.851044 
L 129.600002 316.688631 
L 143.999999 315.172629 
L 158.399999 294.372426 
L 172.8 275.577258 
L 187.2 274.843709 
L 201.6 285.357918 
L 216 306.696057 
L 230.4 305.359367 
L 244.8 292.041369 
L 259.2 305.946206 
L 273.600001 309.752513 
L 288.000001 308.171306 
L 302.399998 314.879209 
L 316.8 307.013928 
L 331.200003 286.702759 
L 345.6 272.602308 
L 359.999997 275.569108 
L 374.399999 299.262756 
L 388.800002 314.928112 
L 403.200004 293.312854 
L 417.600001 276.408614 
L 431.999998 298.252087 
L 446.400006 320.144464 
L 460.800003 318.987086 
L 475.2 311.309268 
L 489.599997 290.403108 
L 503.999994 269.896325 
L 518.400001 248.745649 
L 532.799998 229.526652 
L 547.199995 239.511076 
L 561.600003 260.148268 
L 576 265.486878 
L 590.399986 262.194056 
L 604.799994 275.349043 
L 619.200002 272.414845 
L 633.599988 246.626506 
L 647.999996 247.930594 
L 662.400003 263.245476 
L 676.79999 289.39244 
L 691.199997 301.870932 
L 705.600005 280.467588 
L 719.999991 266.138922 
L 734.399999 258.510007 
L 748.800007 260.808462 
L 763.199993 270.931445 
L 777.600001 265.046748 
L 792.000009 249.634058 
L 806.399995 259.724439 
L 820.800003 269.888174 
L 829 263.557467 
" clip-path="url(#pdb075f6f43)" style="fill: none; stroke: #0e87cc; stroke-opacity: 0.3; stroke-width: 2; stroke-linecap: square"/>
   </g>
   <g id="line2d_16">
    <path d="M -1 317.684365 
L 0.000002 316.575913 
L 14.399999 310.326274 
L 28.799996 318.514859 
L 43.199998 304.301691 
L 57.600001 296.805586 
L 72.000003 313.286629 
L 86.4 310.845634 
L 100.799997 287.751399 
L 115.2 288.997865 
L 129.600002 298.052051 
L 143.999999 288.426568 
L 158.399999 296.909458 
L 172.8 307.608287 
L 187.2 294.814704 
L 201.6 303.713082 
L 216 328.192279 
L 230.4 315.208264 
L 244.8 293.845231 
L 259.2 277.866236 
L 273.600001 263.826187 
L 288.000001 285.223844 
L 302.399998 315.34676 
L 316.8 305.686652 
L 331.200003 280.809279 
L 345.6 259.757863 
L 359.999997 238.516014 
L 374.399999 217.603093 
L 388.800002 196.915229 
L 403.200004 193.07196 
L 417.600001 195.235963 
L 431.999998 174.13261 
L 446.400006 155.71262 
L 460.800003 155.383692 
L 475.2 144.165503 
L 489.599997 133.414738 
L 503.999994 134.782388 
L 518.400001 129.519534 
L 532.799998 125.987882 
L 547.199995 121.00202 
L 561.600003 111.740089 
L 576 104.971089 
L 590.399986 106.667667 
L 604.799994 118.959201 
L 619.200002 113.246235 
L 633.599988 98.998442 
L 647.999996 95.587974 
L 662.400003 96.418951 
L 676.79999 99.171562 
L 691.199997 99.708235 
L 705.600005 87.745629 
L 719.999991 68.183046 
L 734.399999 58.782619 
L 748.800007 66.226787 
L 763.199993 72.216746 
L 777.600001 84.07548 
L 792.000009 96.540135 
L 806.399995 97.925097 
L 820.800003 89.632639 
L 829 86.980776 
" clip-path="url(#pdb075f6f43)" style="fill: none; stroke: #0e87cc; stroke-opacity: 0.37; stroke-width: 2; stroke-linecap: square"/>
   </g>
   <g id="line2d_17">
    <path d="M -1 324.275724 
L 0.000002 325.548661 
L 14.399999 327.228211 
L 28.799996 319.438573 
L 43.199998 317.643192 
L 57.600001 299.834169 
L 72.000003 277.884185 
L 86.4 298.661379 
L 100.799997 326.402915 
L 115.2 316.846854 
L 129.600002 303.815861 
L 143.999999 288.2945 
L 158.399999 267.864799 
L 172.8 278.130326 
L 187.2 292.913263 
L 201.6 296.185491 
L 216 305.756031 
L 230.4 291.769432 
L 244.8 284.949879 
L 259.2 306.089045 
L 273.600001 313.125781 
L 288.000001 314.805331 
L 302.399998 323.49266 
L 316.8 318.656714 
L 331.200003 308.955864 
L 345.6 311.011865 
L 359.999997 300.138225 
L 374.399999 295.982786 
L 388.800002 294.013658 
L 403.200004 273.830098 
L 417.600001 257.367611 
L 431.999998 215.682913 
L 446.400006 162.92187 
L 460.800003 141.522084 
L 475.2 127.274865 
L 489.599997 105.122178 
L 503.999994 92.27941 
L 518.400001 80.522559 
L 532.799998 67.433651 
L 547.199995 62.395 
L 561.600003 59.948069 
L 576 59.079336 
L 590.399986 57.370828 
L 604.799994 55.488574 
L 619.200002 57.60249 
L 633.599988 65.088072 
L 647.999996 74.846838 
L 662.400003 77.901881 
L 676.79999 75.97619 
L 691.199997 82.231067 
L 705.600005 100.069048 
L 719.999991 103.876994 
L 734.399999 94.306454 
L 748.800007 89.470507 
L 763.199993 90.006226 
L 777.600001 109.219701 
L 792.000009 120.064383 
L 806.399995 104.948431 
L 820.800003 95.566116 
L 829 96.316403 
" clip-path="url(#pdb075f6f43)" style="fill: none; stroke: #0e87cc; stroke-opacity: 0.44; stroke-width: 2; stroke-linecap: square"/>
   </g>
   <g id="line2d_18">
    <path d="M -1 339.492154 
L 0.000002 339.654336 
L 14.399999 323.676066 
L 28.799996 316.501806 
L 43.199998 326.565932 
L 57.600001 330.211867 
L 72.000003 314.888858 
L 86.4 295.012629 
L 100.799997 299.532245 
L 115.2 318.333175 
L 129.600002 315.980958 
L 143.999999 308.218644 
L 158.399999 314.418414 
L 172.8 305.765618 
L 187.2 304.169472 
L 201.6 321.239842 
L 216 318.585198 
L 230.4 315.829744 
L 244.8 319.626894 
L 259.2 332.84971 
L 273.600001 346.307748 
L 288.000001 334.395452 
L 302.399998 337.335723 
L 316.8 348.256728 
L 331.200003 343.451486 
L 345.6 315.224889 
L 359.999997 296.373554 
L 374.399999 295.970317 
L 388.800002 262.266417 
L 403.200004 236.240822 
L 417.600001 223.790877 
L 431.999998 194.203355 
L 446.400006 160.365042 
L 460.800003 134.809891 
L 475.2 118.428383 
L 489.599997 91.260284 
L 503.999994 71.720086 
L 518.400001 68.477388 
L 532.799998 63.940971 
L 547.199995 56.296267 
L 561.600003 55.792221 
L 576 61.739968 
L 590.399986 67.822128 
L 604.799994 72.593767 
L 619.200002 84.069222 
L 633.599988 99.896278 
L 647.999996 105.087956 
L 662.400003 100.148302 
L 676.79999 92.688415 
L 691.199997 104.953544 
L 705.600005 112.833469 
L 719.999991 106.314469 
L 734.399999 121.402257 
L 748.800007 138.455826 
L 763.199993 147.696676 
L 777.600001 157.996024 
L 792.000009 179.871636 
L 806.399995 197.647672 
L 820.800003 189.280502 
L 829 191.098334 
" clip-path="url(#pdb075f6f43)" style="fill: none; stroke: #0e87cc; stroke-opacity: 0.51; stroke-width: 2; stroke-linecap: square"/>
   </g>
   <g id="line2d_19">
    <path d="M -1 298.653781 
L 0.000002 298.507351 
L 14.399999 330.363081 
L 28.799996 326.070286 
L 43.199998 283.864804 
L 57.600001 298.960992 
L 72.000003 324.59175 
L 86.4 333.39576 
L 100.799997 314.972866 
L 115.2 296.474364 
L 129.600002 311.133712 
L 143.999999 302.531321 
L 158.399999 300.044692 
L 172.8 305.194366 
L 187.2 312.839069 
L 201.6 311.604156 
L 216 294.399373 
L 230.4 311.461342 
L 244.8 327.128784 
L 259.2 306.983731 
L 273.600001 300.775559 
L 288.000001 308.806698 
L 302.399998 313.460726 
L 316.8 320.004928 
L 331.200003 318.475988 
L 345.6 312.452634 
L 359.999997 304.883537 
L 374.399999 315.77934 
L 388.800002 334.630674 
L 403.200004 309.083924 
L 417.600001 291.719526 
L 431.999998 305.866428 
L 446.400006 292.895634 
L 460.800003 292.979642 
L 475.2 299.952284 
L 489.599997 286.309428 
L 503.999994 297.205231 
L 518.400001 304.144269 
L 532.799998 307.655792 
L 547.199995 307.176948 
L 561.600003 305.152362 
L 576 302.321302 
L 590.399986 274.086304 
L 604.799994 273.918288 
L 619.200002 267.810927 
L 633.599988 239.676738 
L 647.999996 236.257624 
L 662.400003 248.774775 
L 676.79999 258.872504 
L 691.199997 254.672118 
L 705.600005 227.117583 
L 719.999991 193.598499 
L 734.399999 212.231413 
L 748.800007 252.3031 
L 763.199993 246.052925 
L 777.600001 248.640363 
L 792.000009 270.667189 
L 806.399995 251.311809 
L 820.800003 252.487917 
L 829 263.107885 
" clip-path="url(#pdb075f6f43)" style="fill: none; stroke: #7b4fa3; stroke-opacity: 0.51; stroke-width: 2; stroke-linecap: square"/>
   </g>
   <g id="line2d_20">
    <path d="M -1 312.021891 
L 0.000002 311.47224 
L 14.399999 292.496445 
L 28.799996 292.352798 
L 43.199998 314.129713 
L 57.600001 316.09768 
L 72.000003 303.787115 
L 86.4 301.804783 
L 100.799997 303.298714 
L 115.2 312.765065 
L 129.600002 334.556346 
L 143.999999 354.710048 
L 158.399999 349.251454 
L 172.8 334.642534 
L 187.2 332.947497 
L 201.6 342.456942 
L 216 351.980751 
L 230.4 332.157437 
L 244.8 318.266753 
L 259.2 322.217051 
L 273.600001 318.898801 
L 288.000001 314.632479 
L 302.399998 309.576097 
L 316.8 302.422466 
L 331.200003 302.451196 
L 345.6 310.624722 
L 359.999997 307.837966 
L 374.399999 312.707606 
L 388.800002 321.498815 
L 403.200004 316.169504 
L 417.600001 316.686634 
L 431.999998 304.419163 
L 446.400006 268.62228 
L 460.800003 257.719457 
L 475.2 288.10084 
L 489.599997 300.540688 
L 503.999994 281.449975 
L 518.400001 277.973713 
L 532.799998 278.11736 
L 547.199995 243.397831 
L 561.600003 204.095956 
L 576 169.99411 
L 590.399986 131.324284 
L 604.799994 112.23357 
L 619.200002 96.489837 
L 633.599988 82.886447 
L 647.999996 83.389212 
L 662.400003 74.052144 
L 676.79999 61.913955 
L 691.199997 56.484091 
L 705.600005 52.332687 
L 719.999991 52.260863 
L 734.399999 56.915033 
L 748.800007 59.787977 
L 763.199993 61.023343 
L 777.600001 68.564821 
L 792.000009 71.69633 
L 806.399995 70.475329 
L 820.800003 79.467643 
L 829 81.913435 
" clip-path="url(#pdb075f6f43)" style="fill: none; stroke: #0e87cc; stroke-opacity: 0.58; stroke-width: 2; stroke-linecap: square"/>
   </g>
   <g id="line2d_21">
    <path d="M -1 302.053771 
L 0.000002 302.436831 
L 14.399999 309.40372 
L 28.799996 306.099835 
L 43.199998 281.248869 
L 57.600001 291.577103 
L 72.000003 330.002729 
L 86.4 335.260217 
L 100.799997 317.548517 
L 115.2 292.582633 
L 129.600002 294.134023 
L 143.999999 313.382748 
L 158.399999 310.265604 
L 172.8 293.430152 
L 187.2 281.737269 
L 201.6 283.719601 
L 216 271.6676 
L 230.4 274.224521 
L 244.8 296.489837 
L 259.2 290.93069 
L 273.600001 288.10084 
L 288.000001 305.755082 
L 302.399998 318.281118 
L 316.8 316.112045 
L 331.200003 307.536307 
L 345.6 304.203692 
L 359.999997 309.992674 
L 374.399999 298.615816 
L 388.800002 265.720606 
L 403.200004 240.007757 
L 417.600001 220.371184 
L 431.999998 225.384472 
L 446.400006 256.627738 
L 460.800003 251.068592 
L 475.2 223.244128 
L 489.599997 220.241902 
L 503.999994 207.802054 
L 518.400001 202.745673 
L 532.799998 238.197802 
L 547.199995 255.478561 
L 561.600003 235.310493 
L 576 227.754651 
L 590.399986 258.179128 
L 604.799994 281.780363 
L 619.200002 264.628887 
L 633.599988 262.043238 
L 647.999996 271.653236 
L 662.400003 276.451052 
L 676.79999 293.78927 
L 691.199997 286.908569 
L 705.600005 261.526108 
L 719.999991 274.339438 
L 734.399999 300.727429 
L 748.800007 288.057746 
L 763.199993 272.21346 
L 777.600001 271.480859 
L 792.000009 282.800259 
L 806.399995 298.802557 
L 820.800003 299.549522 
L 829 296.187582 
" clip-path="url(#pdb075f6f43)" style="fill: none; stroke: #7b4fa3; stroke-opacity: 0.58; stroke-width: 2; stroke-linecap: square"/>
   </g>
   <g id="line2d_22">
    <path d="M -1 276.114616 
L 0.000002 275.009497 
L 14.399999 261.745115 
L 28.799996 283.04689 
L 43.199998 298.888966 
L 57.600001 292.40893 
L 72.000003 281.722242 
L 86.4 275.922431 
L 100.799997 293.912585 
L 115.2 312.207051 
L 129.600002 304.563473 
L 143.999999 312.368157 
L 158.399999 308.555318 
L 172.8 276.835364 
L 187.2 273.058326 
L 201.6 273.112028 
L 216 260.635274 
L 230.4 291.478097 
L 244.8 336.874148 
L 259.2 331.450251 
L 273.600001 317.881557 
L 288.000001 316.503207 
L 302.399998 300.822237 
L 316.8 273.487942 
L 331.200003 269.334991 
L 345.6 296.060663 
L 359.999997 294.771816 
L 374.399999 266.041271 
L 388.800002 239.512506 
L 403.200004 216.689175 
L 417.600001 179.831734 
L 431.999998 148.075978 
L 446.400006 123.426781 
L 460.800003 92.06484 
L 475.2 84.09905 
L 489.599997 83.204018 
L 503.999994 73.072249 
L 518.400001 59.825767 
L 532.799998 50.55323 
L 547.199995 53.30993 
L 561.600003 58.447417 
L 576 60.881905 
L 590.399986 74.164189 
L 604.799994 91.635225 
L 619.200002 94.445627 
L 633.599988 94.606733 
L 647.999996 98.168962 
L 662.400003 104.953309 
L 676.79999 114.548058 
L 691.199997 106.206355 
L 705.600005 100.155935 
L 719.999991 110.269803 
L 734.399999 119.81085 
L 748.800007 134.274576 
L 763.199993 147.807469 
L 777.600001 153.302969 
L 792.000009 168.071006 
L 806.399995 184.199493 
L 820.800003 170.183283 
L 829 156.93184 
" clip-path="url(#pdb075f6f43)" style="fill: none; stroke: #0e87cc; stroke-opacity: 0.65; stroke-width: 2; stroke-linecap: square"/>
   </g>
   <g id="line2d_23">
    <path d="M -1 313.433741 
L 0.000002 314.211924 
L 14.399999 318.364875 
L 28.799996 320.208642 
L 43.199998 305.404803 
L 57.600001 288.739297 
L 72.000003 294.252698 
L 86.4 303.364129 
L 100.799997 317.613048 
L 115.2 333.759435 
L 129.600002 310.864502 
L 143.999999 283.04689 
L 158.399999 291.316991 
L 172.8 303.041917 
L 187.2 305.995525 
L 201.6 316.001989 
L 216 305.404803 
L 230.4 278.732833 
L 244.8 285.177067 
L 259.2 303.525235 
L 273.600001 308.197305 
L 288.000001 309.43245 
L 302.399998 311.777435 
L 316.8 313.907613 
L 331.200003 300.947541 
L 345.6 292.820645 
L 359.999997 305.118393 
L 374.399999 313.818109 
L 388.800002 315.840883 
L 403.200004 300.034608 
L 417.600001 266.417185 
L 431.999998 248.677639 
L 446.400006 242.197603 
L 460.800003 244.542589 
L 475.2 232.620755 
L 489.599997 204.301924 
L 503.999994 190.44682 
L 518.400001 188.764159 
L 532.799998 189.122172 
L 547.199995 179.688529 
L 561.600003 169.180846 
L 576 158.422555 
L 590.399986 149.078415 
L 604.799994 141.971856 
L 619.200002 136.386853 
L 633.599988 131.822187 
L 647.999996 122.334842 
L 662.400003 104.541594 
L 676.79999 95.788176 
L 691.199997 109.213664 
L 705.600005 115.872706 
L 719.999991 110.699418 
L 734.399999 111.129034 
L 748.800007 101.587987 
L 763.199993 90.525384 
L 777.600001 93.049376 
L 792.000009 93.819104 
L 806.399995 91.563622 
L 820.800003 88.789021 
L 829 83.121481 
" clip-path="url(#pdb075f6f43)" style="fill: none; stroke: #7b4fa3; stroke-opacity: 0.65; stroke-width: 2; stroke-linecap: square"/>
   </g>
   <g id="line2d_24">
    <path d="M -1 319.18334 
L 0.000002 319.741259 
L 14.399999 324.986014 
L 28.799996 297.880165 
L 43.199998 281.692943 
L 57.600001 307.654482 
L 72.000003 313.137635 
L 86.4 307.988239 
L 100.799997 323.341068 
L 115.2 329.324857 
L 129.600002 309.204069 
L 143.999999 288.678004 
L 158.399999 277.44946 
L 172.8 291.014304 
L 187.2 315.450095 
L 201.6 315.235537 
L 216 308.107438 
L 230.4 310.443738 
L 244.8 310.014622 
L 259.2 294.99555 
L 273.600001 276.543547 
L 288.000001 289.08328 
L 302.399998 305.5089 
L 316.8 294.065798 
L 331.200003 299.239034 
L 345.6 313.042276 
L 359.999997 294.280356 
L 374.399999 253.657343 
L 388.800002 211.413223 
L 403.200004 196.990146 
L 417.600001 215.25143 
L 431.999998 211.270184 
L 446.400006 171.028608 
L 460.800003 146.998093 
L 475.2 133.147171 
L 489.599997 116.554673 
L 503.999994 103.871901 
L 518.400001 91.451367 
L 532.799998 84.370947 
L 547.199995 73.190083 
L 561.600003 66.348061 
L 576 63.272727 
L 590.399986 64.035601 
L 604.799994 62.223776 
L 619.200002 52.42562 
L 633.599988 48.89733 
L 647.999996 47.538462 
L 662.400003 52.759377 
L 676.79999 59.029243 
L 691.199997 59.696758 
L 705.600005 68.922759 
L 719.999991 68.589002 
L 734.399999 62.605213 
L 748.800007 71.18754 
L 763.199993 88.566751 
L 777.600001 94.788938 
L 792.000009 89.353465 
L 806.399995 94.788938 
L 820.800003 100.677368 
L 829 102.116363 
" clip-path="url(#pdb075f6f43)" style="fill: none; stroke: #0e87cc; stroke-opacity: 0.72; stroke-width: 2; stroke-linecap: square"/>
   </g>
   <g id="line2d_25">
    <path d="M -1 315.249089 
L 0.000002 315.217602 
L 14.399999 299.169666 
L 28.799996 292.588363 
L 43.199998 311.700246 
L 57.600001 322.774421 
L 72.000003 311.301796 
L 86.4 309.680514 
L 100.799997 323.145392 
L 115.2 317.443429 
L 129.600002 309.529378 
L 143.999999 319.600557 
L 158.399999 326.140641 
L 172.8 329.575559 
L 187.2 325.536095 
L 201.6 324.780413 
L 216 320.273801 
L 230.4 311.54911 
L 244.8 332.213576 
L 259.2 353.977215 
L 273.600001 335.77215 
L 288.000001 317.993016 
L 302.399998 314.269565 
L 316.8 295.157682 
L 331.200003 298.262848 
L 345.6 316.371734 
L 359.999997 321.029483 
L 374.399999 309.721733 
L 388.800002 283.355304 
L 403.200004 279.75551 
L 417.600001 261.220693 
L 431.999998 230.883499 
L 446.400006 241.765319 
L 460.800003 250.022861 
L 475.2 235.761082 
L 489.599997 222.172547 
L 503.999994 209.490831 
L 518.400001 188.908803 
L 532.799998 170.264069 
L 547.199995 156.744232 
L 561.600003 147.882144 
L 576 128.784001 
L 590.399986 99.738336 
L 604.799994 80.32418 
L 619.200002 69.85455 
L 633.599988 72.341431 
L 647.999996 71.159819 
L 662.400003 61.363433 
L 676.79999 51.786882 
L 691.199997 48.640498 
L 705.600005 56.513329 
L 719.999991 63.891533 
L 734.399999 63.877793 
L 748.800007 52.157854 
L 763.199993 42.443906 
L 777.600001 44.669733 
L 792.000009 45.040704 
L 806.399995 47.829857 
L 820.800003 54.699693 
L 829 58.603855 
" clip-path="url(#pdb075f6f43)" style="fill: none; stroke: #0e87cc; stroke-opacity: 0.79; stroke-width: 2; stroke-linecap: square"/>
   </g>
   <g id="line2d_26">
    <path d="M -1 243.457982 
L 0.000002 241.969203 
L 14.399999 269.242891 
L 28.799996 291.526974 
L 43.199998 293.810353 
L 57.600001 294.064061 
L 72.000003 284.592269 
L 86.4 278.164981 
L 100.799997 291.378977 
L 115.2 299.074809 
L 129.600002 297.700553 
L 143.999999 312.479087 
L 158.399999 299.180521 
L 172.8 269.094894 
L 187.2 269.919447 
L 201.6 290.723563 
L 216 300.427922 
L 230.4 291.526974 
L 244.8 285.691673 
L 259.2 287.657916 
L 273.600001 293.154939 
L 288.000001 305.26953 
L 302.399998 289.920152 
L 316.8 275.649036 
L 331.200003 288.92646 
L 345.6 286.89679 
L 359.999997 298.419395 
L 374.399999 293.937207 
L 388.800002 239.410973 
L 403.200004 198.58501 
L 417.600001 179.662567 
L 431.999998 145.073611 
L 446.400006 110.949787 
L 460.800003 94.28958 
L 475.2 71.392368 
L 489.599997 52.596779 
L 503.999994 47.670602 
L 518.400001 42.680997 
L 532.799998 44.92209 
L 547.199995 46.782621 
L 561.600003 47.628317 
L 576 52.765918 
L 590.399986 56.592692 
L 604.799994 60.504035 
L 619.200002 63.337115 
L 633.599988 73.189471 
L 647.999996 84.902357 
L 662.400003 82.766976 
L 676.79999 83.908665 
L 691.199997 95.283273 
L 705.600005 100.336305 
L 719.999991 98.856337 
L 734.399999 101.900842 
L 748.800007 113.973149 
L 763.199993 137.187498 
L 777.600001 146.342154 
L 792.000009 133.67786 
L 806.399995 128.159696 
L 820.800003 130.717925 
L 829 132.174694 
" clip-path="url(#pdb075f6f43)" style="fill: none; stroke: #0e87cc; stroke-opacity: 0.86; stroke-width: 2; stroke-linecap: square"/>
   </g>
   <g id="line2d_27">
    <path d="M -1 284.462185 
L 0.000002 284.084851 
L 14.399999 293.387505 
L 28.799996 303.535854 
L 43.199998 309.709433 
L 57.600001 306.368935 
L 72.000003 292.753233 
L 86.4 296.897142 
L 100.799997 320.069206 
L 115.2 319.942352 
L 129.600002 301.062194 
L 143.999999 302.711301 
L 158.399999 309.920857 
L 172.8 295.649741 
L 187.2 287.657916 
L 201.6 298.736531 
L 216 312.098524 
L 230.4 314.085909 
L 244.8 313.620776 
L 259.2 309.307728 
L 273.600001 305.713521 
L 288.000001 313.007646 
L 302.399998 303.345572 
L 316.8 310.724268 
L 331.200003 325.671941 
L 345.6 298.165686 
L 359.999997 285.585961 
L 374.399999 308.314035 
L 388.800002 315.735015 
L 403.200004 312.479087 
L 417.600001 315.164171 
L 431.999998 308.060326 
L 446.400006 301.041051 
L 460.800003 313.515064 
L 475.2 321.654886 
L 489.599997 304.064414 
L 503.999994 291.463547 
L 518.400001 297.171993 
L 532.799998 289.074456 
L 547.199995 265.775538 
L 561.600003 249.030762 
L 576 227.063815 
L 590.399986 193.468551 
L 604.799994 161.353254 
L 619.200002 141.056556 
L 633.599988 130.147081 
L 647.999996 122.218683 
L 662.400003 136.806935 
L 676.79999 175.518658 
L 691.199997 190.677755 
L 705.600005 199.007858 
L 719.999991 243.216604 
L 734.399999 261.758483 
L 748.800007 253.618662 
L 763.199993 280.131224 
L 777.600001 300.216498 
L 792.000009 287.235068 
L 806.399995 292.774375 
L 820.800003 300.597061 
L 829 284.560569 
" clip-path="url(#pdb075f6f43)" style="fill: none; stroke: #7b4fa3; stroke-opacity: 0.86; stroke-width: 2; stroke-linecap: square"/>
   </g>
   <g id="line2d_28">
    <path d="M -1 314.547567 
L 0.000002 314.391151 
L 14.399999 318.795375 
L 28.799996 312.762192 
L 43.199998 308.780292 
L 57.600001 326.980392 
L 72.000003 327.342383 
L 86.4 306.869784 
L 100.799997 307.41277 
L 115.2 320.846657 
L 129.600002 327.322272 
L 143.999999 334.763198 
L 158.399999 329.514329 
L 172.8 308.07642 
L 187.2 314.290598 
L 201.6 322.797386 
L 216 324.084465 
L 230.4 344.717949 
L 244.8 351.233786 
L 259.2 340.514832 
L 273.600001 332.008044 
L 288.000001 323.60181 
L 302.399998 325.59276 
L 316.8 330.399196 
L 331.200003 338.46355 
L 345.6 330.519859 
L 359.999997 302.485671 
L 374.399999 294.863751 
L 388.800002 297.960784 
L 403.200004 279.599799 
L 417.600001 230.007039 
L 431.999998 185.562594 
L 446.400006 159.680241 
L 460.800003 131.364505 
L 475.2 107.895425 
L 489.599997 86.055304 
L 503.999994 65.944696 
L 518.400001 51.424837 
L 532.799998 45.472097 
L 547.199995 48.408245 
L 561.600003 48.006033 
L 576 50.017094 
L 590.399986 52.390146 
L 604.799994 47.463047 
L 619.200002 41.248869 
L 633.599988 38.714932 
L 647.999996 43.320261 
L 662.400003 55.808949 
L 676.79999 65.140271 
L 691.199997 65.381599 
L 705.600005 69.142283 
L 719.999991 68.679739 
L 734.399999 69.906486 
L 748.800007 83.863248 
L 763.199993 96.070387 
L 777.600001 103.068879 
L 792.000009 103.853193 
L 806.399995 90.620412 
L 820.800003 87.704374 
L 829 97.255229 
" clip-path="url(#pdb075f6f43)" style="fill: none; stroke: #0e87cc; stroke-opacity: 0.93; stroke-width: 2; stroke-linecap: square"/>
   </g>
   <g id="line2d_29">
    <path d="M -1 328.625412 
L 0.000002 328.559075 
L 14.399999 314.511815 
L 28.799996 305.10005 
L 43.199998 316.050277 
L 57.600001 304.516843 
L 72.000003 280.042232 
L 86.4 300.333836 
L 100.799997 327.362494 
L 115.2 337.417798 
L 129.600002 335.497235 
L 143.999999 308.870789 
L 158.399999 301.771745 
L 172.8 312.390146 
L 187.2 314.240322 
L 201.6 313.878331 
L 216 321.822021 
L 230.4 319.368527 
L 244.8 309.594771 
L 259.2 318.6546 
L 273.600001 321.329311 
L 288.000001 312.108597 
L 302.399998 307.684263 
L 316.8 311.927602 
L 331.200003 322.907994 
L 345.6 309.745601 
L 359.999997 292.229261 
L 374.399999 300.776269 
L 388.800002 308.820513 
L 403.200004 309.645048 
L 417.600001 306.08547 
L 431.999998 313.546506 
L 446.400006 342.063348 
L 460.800003 338.232278 
L 475.2 304.536953 
L 489.599997 309.514329 
L 503.999994 329.614882 
L 518.400001 338.724987 
L 532.799998 337.809955 
L 547.199995 344.305681 
L 561.600003 362.777275 
L 576 363.702363 
L 590.399986 353.204625 
L 604.799994 325.612871 
L 619.200002 296 
L 633.599988 282.857717 
L 647.999996 278.724987 
L 662.400003 288.166918 
L 676.79999 299.79085 
L 691.199997 296.653595 
L 705.600005 268.126697 
L 719.999991 236.050277 
L 734.399999 227.171443 
L 748.800007 213.476119 
L 763.199993 209.655103 
L 777.600001 221.801911 
L 792.000009 211.997989 
L 806.399995 213.506285 
L 820.800003 244.034188 
L 829 253.235761 
" clip-path="url(#pdb075f6f43)" style="fill: none; stroke: #7b4fa3; stroke-opacity: 0.93; stroke-width: 2; stroke-linecap: square"/>
   </g>
   <g id="line2d_30">
    <path d="M -1 302.447882 
L 0.000002 303.064589 
L 14.399999 293.258962 
L 28.799996 298.531799 
L 43.199998 316.914047 
L 57.600001 300.368702 
L 72.000003 288.303287 
L 86.4 309.791091 
L 100.799997 316.173999 
L 115.2 313.147734 
L 129.600002 323.719839 
L 143.999999 321.142889 
L 158.399999 315.077143 
L 172.8 324.169154 
L 187.2 332.468256 
L 201.6 323.468752 
L 216 309.183195 
L 230.4 316.623314 
L 244.8 327.81653 
L 259.2 318.447002 
L 273.600001 299.020759 
L 288.000001 309.381422 
L 302.399998 327.882606 
L 316.8 321.671494 
L 331.200003 315.486812 
L 345.6 304.71648 
L 359.999997 291.237046 
L 374.399999 278.021915 
L 388.800002 269.260283 
L 403.200004 265.639337 
L 417.600001 230.354936 
L 431.999998 172.618028 
L 446.400006 138.959088 
L 460.800003 116.823743 
L 475.2 85.728539 
L 489.599997 68.826386 
L 503.999994 63.870712 
L 518.400001 56.11343 
L 532.799998 51.567425 
L 547.199995 46.823193 
L 561.600003 40.215627 
L 576 38.761962 
L 590.399986 38.431584 
L 604.799994 38.114421 
L 619.200002 41.523925 
L 633.599988 42.51506 
L 647.999996 40.294918 
L 662.400003 43.453334 
L 676.79999 48.739387 
L 691.199997 52.479269 
L 705.600005 53.470404 
L 719.999991 55.386598 
L 734.399999 68.905677 
L 748.800007 77.469082 
L 763.199993 79.120974 
L 777.600001 83.746269 
L 792.000009 96.446011 
L 806.399995 110.282253 
L 820.800003 117.920599 
L 829 124.490166 
" clip-path="url(#pdb075f6f43)" style="fill: none; stroke: #0e87cc; stroke-width: 2; stroke-linecap: square"/>
   </g>
   <g id="line2d_31">
    <path d="M -1 348.364131 
L 0.000002 349.040031 
L 14.399999 346.70756 
L 28.799996 333.307417 
L 43.199998 326.415726 
L 57.600001 324.241837 
L 72.000003 302.113099 
L 86.4 296.305049 
L 100.799997 312.975937 
L 115.2 316.207037 
L 129.600002 316.220252 
L 143.999999 319.193657 
L 158.399999 312.982545 
L 172.8 314.766588 
L 187.2 320.204614 
L 201.6 322.219922 
L 216 313.51115 
L 230.4 300.983206 
L 244.8 309.037828 
L 259.2 322.689059 
L 273.600001 327.261494 
L 288.000001 311.912119 
L 302.399998 299.707946 
L 316.8 301.326799 
L 331.200003 301.670393 
L 345.6 296.820439 
L 359.999997 291.137933 
L 374.399999 294.170806 
L 388.800002 300.381917 
L 403.200004 293.648808 
L 417.600001 278.676064 
L 431.999998 272.412092 
L 446.400006 263.062386 
L 460.800003 272.015638 
L 475.2 301.16161 
L 489.599997 306.540168 
L 503.999994 310.372557 
L 518.400001 318.321458 
L 532.799998 309.639117 
L 547.199995 289.499257 
L 561.600003 288.184351 
L 576 303.93018 
L 590.399986 287.041242 
L 604.799994 251.122515 
L 619.200002 214.186223 
L 633.599988 200.825725 
L 647.999996 206.019272 
L 662.400003 200.442487 
L 676.79999 211.133528 
L 691.199997 221.936898 
L 705.600005 208.212984 
L 719.999991 195.599141 
L 734.399999 208.662298 
L 748.800007 209.019107 
L 763.199993 184.035901 
L 777.600001 176.318264 
L 792.000009 158.980012 
L 806.399995 158.557128 
L 820.800003 188.198667 
L 829 192.254792 
" clip-path="url(#pdb075f6f43)" style="fill: none; stroke: #7b4fa3; stroke-width: 2; stroke-linecap: square"/>
   </g>
   <g id="line2d_32">
    <path d="M 216 396 
L 216 36 
" clip-path="url(#pdb075f6f43)" style="fill: none; stroke-dasharray: 2.96,1.28; stroke-dashoffset: 0; stroke: #000000; stroke-width: 0.8"/>
   </g>
   <g id="patch_3">
    <path d="M 72 396 
L 72 36 
" style="fill: none; stroke: #000000; stroke-width: 0.8; stroke-linejoin: miter; stroke-linecap: square"/>
   </g>
   <g id="patch_4">
    <path d="M 792 396 
L 792 36 
" style="fill: none; stroke: #000000; stroke-width: 0.8; stroke-linejoin: miter; stroke-linecap: square"/>
   </g>
   <g id="patch_5">
    <path d="M 72 396 
L 792 396 
" style="fill: none; stroke: #000000; stroke-width: 0.8; stroke-linejoin: miter; stroke-linecap: square"/>
   </g>
   <g id="patch_6">
    <path d="M 72 36 
L 792 36 
" style="fill: none; stroke: #000000; stroke-width: 0.8; stroke-linejoin: miter; stroke-linecap: square"/>
   </g>
   <g id="text_16">
    <!-- n=11 sessions -->
    <g style="fill: #808080" transform="translate(646.478438 385.056562) scale(0.18 -0.18)">
     <defs>
      <path id="DejaVuSans-3d" d="M 678 2906 
L 4684 2906 
L 4684 2381 
L 678 2381 
L 678 2906 
z
M 678 1631 
L 4684 1631 
L 4684 1100 
L 678 1100 
L 678 1631 
z
" transform="scale(0.015625)"/>
     </defs>
     <use xlink:href="#DejaVuSans-6e"/>
     <use xlink:href="#DejaVuSans-3d" transform="translate(63.378906 0)"/>
     <use xlink:href="#DejaVuSans-31" transform="translate(147.167969 0)"/>
     <use xlink:href="#DejaVuSans-31" transform="translate(210.791016 0)"/>
     <use xlink:href="#DejaVuSans-20" transform="translate(274.414062 0)"/>
     <use xlink:href="#DejaVuSans-73" transform="translate(306.201172 0)"/>
     <use xlink:href="#DejaVuSans-65" transform="translate(358.300781 0)"/>
     <use xlink:href="#DejaVuSans-73" transform="translate(419.824219 0)"/>
     <use xlink:href="#DejaVuSans-73" transform="translate(471.923828 0)"/>
     <use xlink:href="#DejaVuSans-69" transform="translate(524.023438 0)"/>
     <use xlink:href="#DejaVuSans-6f" transform="translate(551.806641 0)"/>
     <use xlink:href="#DejaVuSans-6e" transform="translate(612.988281 0)"/>
     <use xlink:href="#DejaVuSans-73" transform="translate(676.367188 0)"/>
    </g>
   </g>
   <g id="legend_1">
    <g id="line2d_33">
     <path d="M 90 62.196875 
L 110 62.196875 
L 130 62.196875 
" style="fill: none; stroke: #0e87cc; stroke-width: 2; stroke-linecap: square"/>
    </g>
    <g id="text_17">
     <!-- FEF -->
     <g transform="translate(146 69.196875) scale(0.2 -0.2)">
      <defs>
       <path id="DejaVuSans-46" d="M 628 4666 
L 3309 4666 
L 3309 4134 
L 1259 4134 
L 1259 2759 
L 3109 2759 
L 3109 2228 
L 1259 2228 
L 1259 0 
L 628 0 
L 628 4666 
z
" transform="scale(0.015625)"/>
       <path id="DejaVuSans-45" d="M 628 4666 
L 3578 4666 
L 3578 4134 
L 1259 4134 
L 1259 2753 
L 3481 2753 
L 3481 2222 
L 1259 2222 
L 1259 531 
L 3634 531 
L 3634 0 
L 628 0 
L 628 4666 
z
" transform="scale(0.015625)"/>
      </defs>
      <use xlink:href="#DejaVuSans-46"/>
      <use xlink:href="#DejaVuSans-45" transform="translate(57.519531 0)"/>
      <use xlink:href="#DejaVuSans-46" transform="translate(120.703125 0)"/>
     </g>
    </g>
    <g id="line2d_34">
     <path d="M 90 91.553125 
L 110 91.553125 
L 130 91.553125 
" style="fill: none; stroke: #7b4fa3; stroke-width: 2; stroke-linecap: square"/>
    </g>
    <g id="text_18">
     <!-- SC -->
     <g transform="translate(146 98.553125) scale(0.2 -0.2)">
      <use xlink:href="#DejaVuSans-53"/>
      <use xlink:href="#DejaVuSans-43" transform="translate(63.476562 0)"/>
     </g>
    </g>
   </g>
  </g>
 </g>
 <defs>
  <clipPath id="pdb075f6f43">
   <rect x="72" y="36" width="720" height="360"/>
  </clipPath>
 </defs>
</svg>
