<?xml version="1.0" encoding="utf-8" standalone="no"?>
<!DOCTYPE svg PUBLIC "-//W3C//DTD SVG 1.1//EN"
  "http://www.w3.org/Graphics/SVG/1.1/DTD/svg11.dtd">
<svg xmlns:xlink="http://www.w3.org/1999/xlink" width="856.8pt" height="453.6pt" viewBox="0 0 856.8 453.6" xmlns="http://www.w3.org/2000/svg" version="1.1">
 <metadata>
  <rdf:RDF xmlns:dc="http://purl.org/dc/elements/1.1/" xmlns:cc="http://creativecommons.org/ns#" xmlns:rdf="http://www.w3.org/1999/02/22-rdf-syntax-ns#">
   <cc:Work>
    <dc:type rdf:resource="http://purl.org/dc/dcmitype/StillImage"/>
    <dc:date>2026-01-28T18:14:16.231014</dc:date>
    <dc:format>image/svg+xml</dc:format>
    <dc:creator>
     <cc:Agent>
      <dc:title>Matplotlib v3.9.4, https://matplotlib.org/</dc:title>
     </cc:Agent>
    </dc:creator>
   </cc:Work>
  </rdf:RDF>
 </metadata>
 <defs>
  <style type="text/css">*{stroke-linejoin: round; stroke-linecap: butt}</style>
 </defs>
 <g id="figure_1">
  <g id="patch_1">
   <path d="M 0 453.6 
L 856.8 453.6 
L 856.8 0 
L 0 0 
z
" style="fill: #ffffff"/>
  </g>
  <g id="axes_1">
   <g id="patch_2">
    <path d="M 100.8 396 
L 820.8 396 
L 820.8 36 
L 100.8 36 
z
" style="fill: #ffffff"/>
   </g>
   <g id="PolyCollection_1">
    <path d="M -19.199999 111.558498 
L -19.199999 296.475514 
L -7.200002 291.60831 
L 4.8 321.011364 
L 16.800002 327.378161 
L 28.8 339.797331 
L 40.800002 331.832291 
L 52.800004 319.021781 
L 64.800001 322.789827 
L 76.800001 310.786096 
L 88.800001 320.138037 
L 100.8 311.213878 
L 112.8 309.401554 
L 124.8 312.264644 
L 136.8 300.159547 
L 148.799999 298.611846 
L 160.8 294.654673 
L 172.8 305.966702 
L 184.8 328.310567 
L 196.8 350.351338 
L 208.8 360.461989 
L 220.8 364.015369 
L 232.8 341.169824 
L 244.8 330.414061 
L 256.8 285.033888 
L 268.8 312.083193 
L 280.8 318.308998 
L 292.800001 337.374909 
L 304.8 315.226421 
L 316.8 307.395215 
L 328.8 325.848902 
L 340.8 334.671044 
L 352.799999 351.957592 
L 364.799999 339.609057 
L 376.799999 321.480128 
L 388.799996 310.274314 
L 400.799998 321.458021 
L 412.8 324.494014 
L 424.799998 315.499559 
L 436.8 291.379447 
L 448.800002 296.429125 
L 460.799999 315.353009 
L 472.800001 325.596113 
L 484.800003 331.870627 
L 496.800001 327.430923 
L 508.800003 320.003403 
L 520.8 308.766436 
L 532.799997 302.451755 
L 544.800004 309.038707 
L 556.800001 323.92663 
L 568.799999 306.032123 
L 580.800005 307.040091 
L 592.800003 296.627548 
L 604.799991 299.013995 
L 616.799998 288.956873 
L 628.800004 270.435285 
L 640.799993 290.312607 
L 652.799999 290.041433 
L 664.800006 319.019692 
L 676.799994 306.22473 
L 688.800001 314.578297 
L 700.800007 274.904185 
L 712.799996 299.577222 
L 724.800002 292.247095 
L 736.800009 304.38671 
L 748.799997 298.86429 
L 760.799995 345.194607 
L 772.800001 377.67702 
L 784.799999 379.636364 
L 796.799996 338.032554 
L 808.800003 320.776503 
L 820.8 317.663356 
L 832.799989 340.765684 
L 844.799977 342.864877 
L 856.800001 323.103926 
L 868.800026 303.190891 
L 880.800014 303.389993 
L 892.800003 306.459128 
L 904.799991 322.894752 
L 916.79998 335.264587 
L 928.799986 335.182608 
L 940.800011 304.325982 
L 952.800017 290.185486 
L 964.800006 287.128735 
L 976.799994 299.87165 
L 988.799983 333.600403 
L 1000.799989 359.780061 
L 1012.800014 368.766115 
L 1024.80002 344.665399 
L 1036.800009 328.129114 
L 1048.799997 314.524862 
L 1060.799986 300.453858 
L 1072.799974 311.79065 
L 1084.799999 318.658446 
L 1096.800023 336.876927 
L 1108.800011 321.67555 
L 1120.8 312.879807 
L 1132.799989 302.305298 
L 1144.799977 321.094675 
L 1156.800001 327.535606 
L 1168.800026 333.946889 
L 1168.800026 230.90039 
L 1168.800026 230.90039 
L 1156.800001 224.837524 
L 1144.799977 188.036801 
L 1132.799989 197.362351 
L 1120.8 192.551319 
L 1108.800011 212.243842 
L 1096.800023 202.671422 
L 1084.799999 180.385032 
L 1072.799974 196.38438 
L 1060.799986 199.555751 
L 1048.799997 206.596619 
L 1036.800009 192.090835 
L 1024.80002 228.330202 
L 1012.800014 273.933256 
L 1000.799989 279.475991 
L 988.799983 249.308529 
L 976.799994 191.995624 
L 964.800006 170.11079 
L 952.800017 99.675079 
L 940.800011 126.714101 
L 928.799986 185.183926 
L 916.79998 204.600572 
L 904.799991 211.434882 
L 892.800003 183.166981 
L 880.800014 212.484757 
L 868.800026 203.811142 
L 856.800001 228.665644 
L 844.799977 264.992327 
L 832.799989 278.64476 
L 820.8 249.138365 
L 808.800003 260.541773 
L 796.799996 268.29641 
L 784.799999 299.956822 
L 772.800001 290.159495 
L 760.799995 249.418637 
L 748.799997 226.731687 
L 736.800009 204.824907 
L 724.800002 193.281149 
L 712.799996 187.211549 
L 700.800007 157.90295 
L 688.800001 227.903957 
L 676.799994 166.880249 
L 664.800006 181.216394 
L 652.799999 79.970815 
L 640.799993 127.230271 
L 628.800004 86.171711 
L 616.799998 139.310308 
L 604.799991 163.229081 
L 592.800003 159.897634 
L 580.800005 189.584103 
L 568.799999 197.686917 
L 556.800001 255.704562 
L 544.800004 240.849405 
L 532.799997 216.155321 
L 520.8 233.403673 
L 508.800003 254.99553 
L 496.800001 253.337323 
L 484.800003 233.963038 
L 472.800001 216.257586 
L 460.799999 213.713491 
L 448.800002 200.431931 
L 436.8 172.238818 
L 424.799998 200.21104 
L 412.8 217.157072 
L 400.799998 253.981223 
L 388.799996 216.683285 
L 376.799999 239.726827 
L 364.799999 231.744876 
L 352.799999 275.60292 
L 340.8 257.956831 
L 328.8 244.911821 
L 316.8 194.393903 
L 304.8 186.62323 
L 292.800001 218.699995 
L 280.8 185.862823 
L 268.8 145.083088 
L 256.8 86.965886 
L 244.8 164.774145 
L 232.8 226.664116 
L 220.8 269.730777 
L 208.8 274.227555 
L 196.8 240.387555 
L 184.8 176.068338 
L 172.8 124.673959 
L 160.8 114.684563 
L 148.799999 195.722522 
L 136.8 232.721184 
L 124.8 250.786833 
L 112.8 218.15454 
L 100.8 199.981349 
L 88.800001 198.041758 
L 76.800001 197.736879 
L 64.800001 224.417016 
L 52.800004 242.175184 
L 40.800002 213.666904 
L 28.8 233.167246 
L 16.800002 206.068055 
L 4.8 209.279193 
L -7.200002 142.955855 
L -19.199999 111.558498 
z
" clip-path="url(#p9d5596fb17)" style="fill: #c00a37; fill-opacity: 0.25"/>
   </g>
   <g id="PolyCollection_2">
    <path d="M -19.199999 238.64386 
L -19.199999 324.427382 
L -7.200002 320.54742 
L 4.8 312.925187 
L 16.800002 316.731031 
L 28.8 311.617743 
L 40.800002 309.170348 
L 52.800004 335.595954 
L 64.800001 328.919825 
L 76.800001 330.440273 
L 88.800001 282.337855 
L 100.8 303.958159 
L 112.8 311.690707 
L 124.8 341.898731 
L 136.8 330.029679 
L 148.799999 321.325671 
L 160.8 324.323665 
L 172.8 305.306326 
L 184.8 315.375831 
L 196.8 283.657024 
L 208.8 304.693367 
L 220.8 322.9553 
L 232.8 322.741777 
L 244.8 330.06475 
L 256.8 292.497044 
L 268.8 318.110779 
L 280.8 293.171754 
L 292.800001 322.951271 
L 304.8 296.938418 
L 316.8 298.442719 
L 328.8 290.816635 
L 340.8 268.282315 
L 352.799999 286.068335 
L 364.799999 282.94152 
L 376.799999 318.821442 
L 388.799996 320.581865 
L 400.799998 325.531752 
L 412.8 335.136861 
L 424.799998 329.220923 
L 436.8 314.505921 
L 448.800002 301.972611 
L 460.799999 295.66868 
L 472.800001 295.842966 
L 484.800003 287.416474 
L 496.800001 282.62456 
L 508.800003 272.214495 
L 520.8 277.504025 
L 532.799997 285.679522 
L 544.800004 294.308171 
L 556.800001 279.226228 
L 568.799999 278.053135 
L 580.800005 273.325837 
L 592.800003 274.04569 
L 604.799991 235.481313 
L 616.799998 211.890138 
L 628.800004 212.268528 
L 640.799993 233.798026 
L 652.799999 233.719224 
L 664.800006 208.176697 
L 676.799994 198.028603 
L 688.800001 195.911336 
L 700.800007 213.849311 
L 712.799996 233.280812 
L 724.800002 245.027227 
L 736.800009 267.91427 
L 748.799997 221.173901 
L 760.799995 237.640555 
L 772.800001 210.172474 
L 784.799999 251.616498 
L 796.799996 249.889077 
L 808.800003 267.901418 
L 820.8 291.293802 
L 832.799989 313.037785 
L 844.799977 328.78319 
L 856.800001 311.54386 
L 868.800026 297.449351 
L 880.800014 293.919615 
L 892.800003 299.235582 
L 904.799991 282.274811 
L 916.79998 279.943181 
L 928.799986 260.108542 
L 940.800011 277.16248 
L 952.800017 281.174414 
L 964.800006 327.379687 
L 976.799994 351.529866 
L 988.799983 351.02995 
L 1000.799989 309.399663 
L 1012.800014 293.864908 
L 1024.80002 307.512118 
L 1036.800009 334.476183 
L 1048.799997 324.64002 
L 1060.799986 298.07179 
L 1072.799974 307.098504 
L 1084.799999 323.354068 
L 1096.800023 341.538101 
L 1108.800011 337.469227 
L 1120.8 330.325343 
L 1132.799989 312.113632 
L 1144.799977 288.41582 
L 1156.800001 303.411489 
L 1168.800026 319.041862 
L 1168.800026 181.689526 
L 1168.800026 181.689526 
L 1156.800001 127.923186 
L 1144.799977 96.073075 
L 1132.799989 122.646098 
L 1120.8 178.818489 
L 1108.800011 212.572597 
L 1096.800023 176.83401 
L 1084.799999 182.288674 
L 1072.799974 170.074133 
L 1060.799986 216.036468 
L 1048.799997 240.71494 
L 1036.800009 227.981283 
L 1024.80002 184.310855 
L 1012.800014 164.489888 
L 1000.799989 179.19459 
L 988.799983 249.877672 
L 976.799994 262.40654 
L 964.800006 269.704297 
L 952.800017 185.597939 
L 940.800011 162.709123 
L 928.799986 108.295979 
L 916.79998 141.073778 
L 904.799991 164.379743 
L 892.800003 197.990004 
L 880.800014 221.220826 
L 868.800026 157.984514 
L 856.800001 165.5935 
L 844.799977 182.094608 
L 832.799989 228.085712 
L 820.8 233.587453 
L 808.800003 178.379878 
L 796.799996 124.322822 
L 784.799999 124.940697 
L 772.800001 52.731636 
L 760.799995 104.871135 
L 748.799997 52.363636 
L 736.800009 140.055282 
L 724.800002 121.658822 
L 712.799996 120.030882 
L 700.800007 82.706613 
L 688.800001 64.253728 
L 676.799994 77.644074 
L 664.800006 104.52538 
L 652.799999 109.836534 
L 640.799993 119.843167 
L 628.800004 77.397745 
L 616.799998 87.88518 
L 604.799991 95.061751 
L 592.800003 173.644785 
L 580.800005 172.015831 
L 568.799999 191.227987 
L 556.800001 176.549188 
L 544.800004 210.186906 
L 532.799997 163.125323 
L 520.8 167.347962 
L 508.800003 136.344191 
L 496.800001 182.515706 
L 484.800003 182.976328 
L 472.800001 212.150322 
L 460.799999 215.586494 
L 448.800002 184.23934 
L 436.8 209.038102 
L 424.799998 211.692875 
L 412.8 244.355779 
L 400.799998 219.947579 
L 388.799996 223.505523 
L 376.799999 233.530027 
L 364.799999 154.526294 
L 352.799999 152.003806 
L 340.8 98.082442 
L 328.8 155.654846 
L 316.8 171.76774 
L 304.8 172.94145 
L 292.800001 164.805227 
L 280.8 139.46079 
L 268.8 204.66722 
L 256.8 222.783927 
L 244.8 262.590551 
L 232.8 210.53334 
L 220.8 204.519561 
L 208.8 159.877553 
L 196.8 163.323832 
L 184.8 209.255339 
L 172.8 219.299514 
L 160.8 255.4678 
L 148.799999 254.27511 
L 136.8 273.705759 
L 124.8 292.847886 
L 112.8 255.955107 
L 100.8 237.115754 
L 88.800001 210.39019 
L 76.800001 259.613958 
L 64.800001 225.015176 
L 52.800004 150.603259 
L 40.800002 97.468207 
L 28.8 144.757414 
L 16.800002 210.725553 
L 4.8 227.219938 
L -7.200002 218.028677 
L -19.199999 238.64386 
z
" clip-path="url(#p9d5596fb17)" style="fill: #0e87cc; fill-opacity: 0.25"/>
   </g>
   <g id="matplotlib.axis_1">
    <g id="xtick_1">
     <g id="line2d_1">
      <defs>
       <path id="mf364d04ef4" d="M 0 0 
L 0 3.5 
" style="stroke: #000000; stroke-width: 0.8"/>
      </defs>
      <g>
       <use xlink:href="#mf364d04ef4" x="100.8" y="396" style="stroke: #000000; stroke-width: 0.8"/>
      </g>
     </g>
     <g id="text_1">
      <!-- −100 -->
      <g transform="translate(78.82625 415.1575) scale(0.16 -0.16)">
       <defs>
        <path id="DejaVuSans-2212" d="M 678 2272 
L 4684 2272 
L 4684 1741 
L 678 1741 
L 678 2272 
z
" transform="scale(0.015625)"/>
        <path id="DejaVuSans-31" d="M 794 531 
L 1825 531 
L 1825 4091 
L 703 3866 
L 703 4441 
L 1819 4666 
L 2450 4666 
L 2450 531 
L 3481 531 
L 3481 0 
L 794 0 
L 794 531 
z
" transform="scale(0.015625)"/>
        <path id="DejaVuSans-30" d="M 2034 4250 
Q 1547 4250 1301 3770 
Q 1056 3291 1056 2328 
Q 1056 1369 1301 889 
Q 1547 409 2034 409 
Q 2525 409 2770 889 
Q 3016 1369 3016 2328 
Q 3016 3291 2770 3770 
Q 2525 4250 2034 4250 
z
M 2034 4750 
Q 2819 4750 3233 4129 
Q 3647 3509 3647 2328 
Q 3647 1150 3233 529 
Q 2819 -91 2034 -91 
Q 1250 -91 836 529 
Q 422 1150 422 2328 
Q 422 3509 836 4129 
Q 1250 4750 2034 4750 
z
" transform="scale(0.015625)"/>
       </defs>
       <use xlink:href="#DejaVuSans-2212"/>
       <use xlink:href="#DejaVuSans-31" x="83.789062"/>
       <use xlink:href="#DejaVuSans-30" x="147.412109"/>
       <use xlink:href="#DejaVuSans-30" x="211.035156"/>
      </g>
     </g>
    </g>
    <g id="xtick_2">
     <g id="line2d_2">
      <g>
       <use xlink:href="#mf364d04ef4" x="220.8" y="396" style="stroke: #000000; stroke-width: 0.8"/>
      </g>
     </g>
     <g id="text_2">
      <!-- 0 -->
      <g transform="translate(215.71 415.1575) scale(0.16 -0.16)">
       <use xlink:href="#DejaVuSans-30"/>
      </g>
     </g>
    </g>
    <g id="xtick_3">
     <g id="line2d_3">
      <g>
       <use xlink:href="#mf364d04ef4" x="340.8" y="396" style="stroke: #000000; stroke-width: 0.8"/>
      </g>
     </g>
     <g id="text_3">
      <!-- 100 -->
      <g transform="translate(325.53 415.1575) scale(0.16 -0.16)">
       <use xlink:href="#DejaVuSans-31"/>
       <use xlink:href="#DejaVuSans-30" x="63.623047"/>
       <use xlink:href="#DejaVuSans-30" x="127.246094"/>
      </g>
     </g>
    </g>
    <g id="xtick_4">
     <g id="line2d_4">
      <g>
       <use xlink:href="#mf364d04ef4" x="460.8" y="396" style="stroke: #000000; stroke-width: 0.8"/>
      </g>
     </g>
     <g id="text_4">
      <!-- 200 -->
      <g transform="translate(445.53 415.1575) scale(0.16 -0.16)">
       <defs>
        <path id="DejaVuSans-32" d="M 1228 531 
L 3431 531 
L 3431 0 
L 469 0 
L 469 531 
Q 828 903 1448 1529 
Q 2069 2156 2228 2338 
Q 2531 2678 2651 2914 
Q 2772 3150 2772 3378 
Q 2772 3750 2511 3984 
Q 2250 4219 1831 4219 
Q 1534 4219 1204 4116 
Q 875 4013 500 3803 
L 500 4441 
Q 881 4594 1212 4672 
Q 1544 4750 1819 4750 
Q 2544 4750 2975 4387 
Q 3406 4025 3406 3419 
Q 3406 3131 3298 2873 
Q 3191 2616 2906 2266 
Q 2828 2175 2409 1742 
Q 1991 1309 1228 531 
z
" transform="scale(0.015625)"/>
       </defs>
       <use xlink:href="#DejaVuSans-32"/>
       <use xlink:href="#DejaVuSans-30" x="63.623047"/>
       <use xlink:href="#DejaVuSans-30" x="127.246094"/>
      </g>
     </g>
    </g>
    <g id="xtick_5">
     <g id="line2d_5">
      <g>
       <use xlink:href="#mf364d04ef4" x="580.8" y="396" style="stroke: #000000; stroke-width: 0.8"/>
      </g>
     </g>
     <g id="text_5">
      <!-- 300 -->
      <g transform="translate(565.53 415.1575) scale(0.16 -0.16)">
       <defs>
        <path id="DejaVuSans-33" d="M 2597 2516 
Q 3050 2419 3304 2112 
Q 3559 1806 3559 1356 
Q 3559 666 3084 287 
Q 2609 -91 1734 -91 
Q 1441 -91 1130 -33 
Q 819 25 488 141 
L 488 750 
Q 750 597 1062 519 
Q 1375 441 1716 441 
Q 2309 441 2620 675 
Q 2931 909 2931 1356 
Q 2931 1769 2642 2001 
Q 2353 2234 1838 2234 
L 1294 2234 
L 1294 2753 
L 1863 2753 
Q 2328 2753 2575 2939 
Q 2822 3125 2822 3475 
Q 2822 3834 2567 4026 
Q 2313 4219 1838 4219 
Q 1578 4219 1281 4162 
Q 984 4106 628 3988 
L 628 4550 
Q 988 4650 1302 4700 
Q 1616 4750 1894 4750 
Q 2613 4750 3031 4423 
Q 3450 4097 3450 3541 
Q 3450 3153 3228 2886 
Q 3006 2619 2597 2516 
z
" transform="scale(0.015625)"/>
       </defs>
       <use xlink:href="#DejaVuSans-33"/>
       <use xlink:href="#DejaVuSans-30" x="63.623047"/>
       <use xlink:href="#DejaVuSans-30" x="127.246094"/>
      </g>
     </g>
    </g>
    <g id="xtick_6">
     <g id="line2d_6">
      <g>
       <use xlink:href="#mf364d04ef4" x="700.8" y="396" style="stroke: #000000; stroke-width: 0.8"/>
      </g>
     </g>
     <g id="text_6">
      <!-- 400 -->
      <g transform="translate(685.53 415.1575) scale(0.16 -0.16)">
       <defs>
        <path id="DejaVuSans-34" d="M 2419 4116 
L 825 1625 
L 2419 1625 
L 2419 4116 
z
M 2253 4666 
L 3047 4666 
L 3047 1625 
L 3713 1625 
L 3713 1100 
L 3047 1100 
L 3047 0 
L 2419 0 
L 2419 1100 
L 313 1100 
L 313 1709 
L 2253 4666 
z
" transform="scale(0.015625)"/>
       </defs>
       <use xlink:href="#DejaVuSans-34"/>
       <use xlink:href="#DejaVuSans-30" x="63.623047"/>
       <use xlink:href="#DejaVuSans-30" x="127.246094"/>
      </g>
     </g>
    </g>
    <g id="xtick_7">
     <g id="line2d_7">
      <g>
       <use xlink:href="#mf364d04ef4" x="820.8" y="396" style="stroke: #000000; stroke-width: 0.8"/>
      </g>
     </g>
     <g id="text_7">
      <!-- 500 -->
      <g transform="translate(805.53 415.1575) scale(0.16 -0.16)">
       <defs>
        <path id="DejaVuSans-35" d="M 691 4666 
L 3169 4666 
L 3169 4134 
L 1269 4134 
L 1269 2991 
Q 1406 3038 1543 3061 
Q 1681 3084 1819 3084 
Q 2600 3084 3056 2656 
Q 3513 2228 3513 1497 
Q 3513 744 3044 326 
Q 2575 -91 1722 -91 
Q 1428 -91 1123 -41 
Q 819 9 494 109 
L 494 744 
Q 775 591 1075 516 
Q 1375 441 1709 441 
Q 2250 441 2565 725 
Q 2881 1009 2881 1497 
Q 2881 1984 2565 2268 
Q 2250 2553 1709 2553 
Q 1456 2553 1204 2497 
Q 953 2441 691 2322 
L 691 4666 
z
" transform="scale(0.015625)"/>
       </defs>
       <use xlink:href="#DejaVuSans-35"/>
       <use xlink:href="#DejaVuSans-30" x="63.623047"/>
       <use xlink:href="#DejaVuSans-30" x="127.246094"/>
      </g>
     </g>
    </g>
    <g id="text_8">
     <!-- Time from Stimulus Onset (ms) -->
     <g transform="translate(320.273438 436.162187) scale(0.18 -0.18)">
      <defs>
       <path id="DejaVuSans-54" d="M -19 4666 
L 3928 4666 
L 3928 4134 
L 2272 4134 
L 2272 0 
L 1638 0 
L 1638 4134 
L -19 4134 
L -19 4666 
z
" transform="scale(0.015625)"/>
       <path id="DejaVuSans-69" d="M 603 3500 
L 1178 3500 
L 1178 0 
L 603 0 
L 603 3500 
z
M 603 4863 
L 1178 4863 
L 1178 4134 
L 603 4134 
L 603 4863 
z
" transform="scale(0.015625)"/>
       <path id="DejaVuSans-6d" d="M 3328 2828 
Q 3544 3216 3844 3400 
Q 4144 3584 4550 3584 
Q 5097 3584 5394 3201 
Q 5691 2819 5691 2113 
L 5691 0 
L 5113 0 
L 5113 2094 
Q 5113 2597 4934 2840 
Q 4756 3084 4391 3084 
Q 3944 3084 3684 2787 
Q 3425 2491 3425 1978 
L 3425 0 
L 2847 0 
L 2847 2094 
Q 2847 2600 2669 2842 
Q 2491 3084 2119 3084 
Q 1678 3084 1418 2786 
Q 1159 2488 1159 1978 
L 1159 0 
L 581 0 
L 581 3500 
L 1159 3500 
L 1159 2956 
Q 1356 3278 1631 3431 
Q 1906 3584 2284 3584 
Q 2666 3584 2933 3390 
Q 3200 3197 3328 2828 
z
" transform="scale(0.015625)"/>
       <path id="DejaVuSans-65" d="M 3597 1894 
L 3597 1613 
L 953 1613 
Q 991 1019 1311 708 
Q 1631 397 2203 397 
Q 2534 397 2845 478 
Q 3156 559 3463 722 
L 3463 178 
Q 3153 47 2828 -22 
Q 2503 -91 2169 -91 
Q 1331 -91 842 396 
Q 353 884 353 1716 
Q 353 2575 817 3079 
Q 1281 3584 2069 3584 
Q 2775 3584 3186 3129 
Q 3597 2675 3597 1894 
z
M 3022 2063 
Q 3016 2534 2758 2815 
Q 2500 3097 2075 3097 
Q 1594 3097 1305 2825 
Q 1016 2553 972 2059 
L 3022 2063 
z
" transform="scale(0.015625)"/>
       <path id="DejaVuSans-20" transform="scale(0.015625)"/>
       <path id="DejaVuSans-66" d="M 2375 4863 
L 2375 4384 
L 1825 4384 
Q 1516 4384 1395 4259 
Q 1275 4134 1275 3809 
L 1275 3500 
L 2222 3500 
L 2222 3053 
L 1275 3053 
L 1275 0 
L 697 0 
L 697 3053 
L 147 3053 
L 147 3500 
L 697 3500 
L 697 3744 
Q 697 4328 969 4595 
Q 1241 4863 1831 4863 
L 2375 4863 
z
" transform="scale(0.015625)"/>
       <path id="DejaVuSans-72" d="M 2631 2963 
Q 2534 3019 2420 3045 
Q 2306 3072 2169 3072 
Q 1681 3072 1420 2755 
Q 1159 2438 1159 1844 
L 1159 0 
L 581 0 
L 581 3500 
L 1159 3500 
L 1159 2956 
Q 1341 3275 1631 3429 
Q 1922 3584 2338 3584 
Q 2397 3584 2469 3576 
Q 2541 3569 2628 3553 
L 2631 2963 
z
" transform="scale(0.015625)"/>
       <path id="DejaVuSans-6f" d="M 1959 3097 
Q 1497 3097 1228 2736 
Q 959 2375 959 1747 
Q 959 1119 1226 758 
Q 1494 397 1959 397 
Q 2419 397 2687 759 
Q 2956 1122 2956 1747 
Q 2956 2369 2687 2733 
Q 2419 3097 1959 3097 
z
M 1959 3584 
Q 2709 3584 3137 3096 
Q 3566 2609 3566 1747 
Q 3566 888 3137 398 
Q 2709 -91 1959 -91 
Q 1206 -91 779 398 
Q 353 888 353 1747 
Q 353 2609 779 3096 
Q 1206 3584 1959 3584 
z
" transform="scale(0.015625)"/>
       <path id="DejaVuSans-53" d="M 3425 4513 
L 3425 3897 
Q 3066 4069 2747 4153 
Q 2428 4238 2131 4238 
Q 1616 4238 1336 4038 
Q 1056 3838 1056 3469 
Q 1056 3159 1242 3001 
Q 1428 2844 1947 2747 
L 2328 2669 
Q 3034 2534 3370 2195 
Q 3706 1856 3706 1288 
Q 3706 609 3251 259 
Q 2797 -91 1919 -91 
Q 1588 -91 1214 -16 
Q 841 59 441 206 
L 441 856 
Q 825 641 1194 531 
Q 1563 422 1919 422 
Q 2459 422 2753 634 
Q 3047 847 3047 1241 
Q 3047 1584 2836 1778 
Q 2625 1972 2144 2069 
L 1759 2144 
Q 1053 2284 737 2584 
Q 422 2884 422 3419 
Q 422 4038 858 4394 
Q 1294 4750 2059 4750 
Q 2388 4750 2728 4690 
Q 3069 4631 3425 4513 
z
" transform="scale(0.015625)"/>
       <path id="DejaVuSans-74" d="M 1172 4494 
L 1172 3500 
L 2356 3500 
L 2356 3053 
L 1172 3053 
L 1172 1153 
Q 1172 725 1289 603 
Q 1406 481 1766 481 
L 2356 481 
L 2356 0 
L 1766 0 
Q 1100 0 847 248 
Q 594 497 594 1153 
L 594 3053 
L 172 3053 
L 172 3500 
L 594 3500 
L 594 4494 
L 1172 4494 
z
" transform="scale(0.015625)"/>
       <path id="DejaVuSans-75" d="M 544 1381 
L 544 3500 
L 1119 3500 
L 1119 1403 
Q 1119 906 1312 657 
Q 1506 409 1894 409 
Q 2359 409 2629 706 
Q 2900 1003 2900 1516 
L 2900 3500 
L 3475 3500 
L 3475 0 
L 2900 0 
L 2900 538 
Q 2691 219 2414 64 
Q 2138 -91 1772 -91 
Q 1169 -91 856 284 
Q 544 659 544 1381 
z
M 1991 3584 
L 1991 3584 
z
" transform="scale(0.015625)"/>
       <path id="DejaVuSans-6c" d="M 603 4863 
L 1178 4863 
L 1178 0 
L 603 0 
L 603 4863 
z
" transform="scale(0.015625)"/>
       <path id="DejaVuSans-73" d="M 2834 3397 
L 2834 2853 
Q 2591 2978 2328 3040 
Q 2066 3103 1784 3103 
Q 1356 3103 1142 2972 
Q 928 2841 928 2578 
Q 928 2378 1081 2264 
Q 1234 2150 1697 2047 
L 1894 2003 
Q 2506 1872 2764 1633 
Q 3022 1394 3022 966 
Q 3022 478 2636 193 
Q 2250 -91 1575 -91 
Q 1294 -91 989 -36 
Q 684 19 347 128 
L 347 722 
Q 666 556 975 473 
Q 1284 391 1588 391 
Q 1994 391 2212 530 
Q 2431 669 2431 922 
Q 2431 1156 2273 1281 
Q 2116 1406 1581 1522 
L 1381 1569 
Q 847 1681 609 1914 
Q 372 2147 372 2553 
Q 372 3047 722 3315 
Q 1072 3584 1716 3584 
Q 2034 3584 2315 3537 
Q 2597 3491 2834 3397 
z
" transform="scale(0.015625)"/>
       <path id="DejaVuSans-4f" d="M 2522 4238 
Q 1834 4238 1429 3725 
Q 1025 3213 1025 2328 
Q 1025 1447 1429 934 
Q 1834 422 2522 422 
Q 3209 422 3611 934 
Q 4013 1447 4013 2328 
Q 4013 3213 3611 3725 
Q 3209 4238 2522 4238 
z
M 2522 4750 
Q 3503 4750 4090 4092 
Q 4678 3434 4678 2328 
Q 4678 1225 4090 567 
Q 3503 -91 2522 -91 
Q 1538 -91 948 565 
Q 359 1222 359 2328 
Q 359 3434 948 4092 
Q 1538 4750 2522 4750 
z
" transform="scale(0.015625)"/>
       <path id="DejaVuSans-6e" d="M 3513 2113 
L 3513 0 
L 2938 0 
L 2938 2094 
Q 2938 2591 2744 2837 
Q 2550 3084 2163 3084 
Q 1697 3084 1428 2787 
Q 1159 2491 1159 1978 
L 1159 0 
L 581 0 
L 581 3500 
L 1159 3500 
L 1159 2956 
Q 1366 3272 1645 3428 
Q 1925 3584 2291 3584 
Q 2894 3584 3203 3211 
Q 3513 2838 3513 2113 
z
" transform="scale(0.015625)"/>
       <path id="DejaVuSans-28" d="M 1984 4856 
Q 1566 4138 1362 3434 
Q 1159 2731 1159 2009 
Q 1159 1288 1364 580 
Q 1569 -128 1984 -844 
L 1484 -844 
Q 1016 -109 783 600 
Q 550 1309 550 2009 
Q 550 2706 781 3412 
Q 1013 4119 1484 4856 
L 1984 4856 
z
" transform="scale(0.015625)"/>
       <path id="DejaVuSans-29" d="M 513 4856 
L 1013 4856 
Q 1481 4119 1714 3412 
Q 1947 2706 1947 2009 
Q 1947 1309 1714 600 
Q 1481 -109 1013 -844 
L 513 -844 
Q 928 -128 1133 580 
Q 1338 1288 1338 2009 
Q 1338 2731 1133 3434 
Q 928 4138 513 4856 
z
" transform="scale(0.015625)"/>
      </defs>
      <use xlink:href="#DejaVuSans-54"/>
      <use xlink:href="#DejaVuSans-69" x="57.958984"/>
      <use xlink:href="#DejaVuSans-6d" x="85.742188"/>
      <use xlink:href="#DejaVuSans-65" x="183.154297"/>
      <use xlink:href="#DejaVuSans-20" x="244.677734"/>
      <use xlink:href="#DejaVuSans-66" x="276.464844"/>
      <use xlink:href="#DejaVuSans-72" x="311.669922"/>
      <use xlink:href="#DejaVuSans-6f" x="350.533203"/>
      <use xlink:href="#DejaVuSans-6d" x="411.714844"/>
      <use xlink:href="#DejaVuSans-20" x="509.126953"/>
      <use xlink:href="#DejaVuSans-53" x="540.914062"/>
      <use xlink:href="#DejaVuSans-74" x="604.390625"/>
      <use xlink:href="#DejaVuSans-69" x="643.599609"/>
      <use xlink:href="#DejaVuSans-6d" x="671.382812"/>
      <use xlink:href="#DejaVuSans-75" x="768.794922"/>
      <use xlink:href="#DejaVuSans-6c" x="832.173828"/>
      <use xlink:href="#DejaVuSans-75" x="859.957031"/>
      <use xlink:href="#DejaVuSans-73" x="923.335938"/>
      <use xlink:href="#DejaVuSans-20" x="975.435547"/>
      <use xlink:href="#DejaVuSans-4f" x="1007.222656"/>
      <use xlink:href="#DejaVuSans-6e" x="1085.933594"/>
      <use xlink:href="#DejaVuSans-73" x="1149.3125"/>
      <use xlink:href="#DejaVuSans-65" x="1201.412109"/>
      <use xlink:href="#DejaVuSans-74" x="1262.935547"/>
      <use xlink:href="#DejaVuSans-20" x="1302.144531"/>
      <use xlink:href="#DejaVuSans-28" x="1333.931641"/>
      <use xlink:href="#DejaVuSans-6d" x="1372.945312"/>
      <use xlink:href="#DejaVuSans-73" x="1470.357422"/>
      <use xlink:href="#DejaVuSans-29" x="1522.457031"/>
     </g>
    </g>
   </g>
   <g id="matplotlib.axis_2">
    <g id="ytick_1">
     <g id="line2d_8">
      <defs>
       <path id="mbbb4552999" d="M 0 0 
L -3.5 0 
" style="stroke: #000000; stroke-width: 0.8"/>
      </defs>
      <g>
       <use xlink:href="#mbbb4552999" x="100.8" y="379.176754" style="stroke: #000000; stroke-width: 0.8"/>
      </g>
     </g>
     <g id="text_9">
      <!-- −0.01 -->
      <g transform="translate(44.7675 385.255504) scale(0.16 -0.16)">
       <defs>
        <path id="DejaVuSans-2e" d="M 684 794 
L 1344 794 
L 1344 0 
L 684 0 
L 684 794 
z
" transform="scale(0.015625)"/>
       </defs>
       <use xlink:href="#DejaVuSans-2212"/>
       <use xlink:href="#DejaVuSans-30" x="83.789062"/>
       <use xlink:href="#DejaVuSans-2e" x="147.412109"/>
       <use xlink:href="#DejaVuSans-30" x="179.199219"/>
       <use xlink:href="#DejaVuSans-31" x="242.822266"/>
      </g>
     </g>
    </g>
    <g id="ytick_2">
     <g id="line2d_9">
      <g>
       <use xlink:href="#mbbb4552999" x="100.8" y="311.856868" style="stroke: #000000; stroke-width: 0.8"/>
      </g>
     </g>
     <g id="text_10">
      <!-- 0.00 -->
      <g transform="translate(58.175 317.935618) scale(0.16 -0.16)">
       <use xlink:href="#DejaVuSans-30"/>
       <use xlink:href="#DejaVuSans-2e" x="63.623047"/>
       <use xlink:href="#DejaVuSans-30" x="95.410156"/>
       <use xlink:href="#DejaVuSans-30" x="159.033203"/>
      </g>
     </g>
    </g>
    <g id="ytick_3">
     <g id="line2d_10">
      <g>
       <use xlink:href="#mbbb4552999" x="100.8" y="244.536982" style="stroke: #000000; stroke-width: 0.8"/>
      </g>
     </g>
     <g id="text_11">
      <!-- 0.01 -->
      <g transform="translate(58.175 250.615732) scale(0.16 -0.16)">
       <use xlink:href="#DejaVuSans-30"/>
       <use xlink:href="#DejaVuSans-2e" x="63.623047"/>
       <use xlink:href="#DejaVuSans-30" x="95.410156"/>
       <use xlink:href="#DejaVuSans-31" x="159.033203"/>
      </g>
     </g>
    </g>
    <g id="ytick_4">
     <g id="line2d_11">
      <g>
       <use xlink:href="#mbbb4552999" x="100.8" y="177.217096" style="stroke: #000000; stroke-width: 0.8"/>
      </g>
     </g>
     <g id="text_12">
      <!-- 0.02 -->
      <g transform="translate(58.175 183.295846) scale(0.16 -0.16)">
       <use xlink:href="#DejaVuSans-30"/>
       <use xlink:href="#DejaVuSans-2e" x="63.623047"/>
       <use xlink:href="#DejaVuSans-30" x="95.410156"/>
       <use xlink:href="#DejaVuSans-32" x="159.033203"/>
      </g>
     </g>
    </g>
    <g id="ytick_5">
     <g id="line2d_12">
      <g>
       <use xlink:href="#mbbb4552999" x="100.8" y="109.897209" style="stroke: #000000; stroke-width: 0.8"/>
      </g>
     </g>
     <g id="text_13">
      <!-- 0.03 -->
      <g transform="translate(58.175 115.975959) scale(0.16 -0.16)">
       <use xlink:href="#DejaVuSans-30"/>
       <use xlink:href="#DejaVuSans-2e" x="63.623047"/>
       <use xlink:href="#DejaVuSans-30" x="95.410156"/>
       <use xlink:href="#DejaVuSans-33" x="159.033203"/>
      </g>
     </g>
    </g>
    <g id="ytick_6">
     <g id="line2d_13">
      <g>
       <use xlink:href="#mbbb4552999" x="100.8" y="42.577323" style="stroke: #000000; stroke-width: 0.8"/>
      </g>
     </g>
     <g id="text_14">
      <!-- 0.04 -->
      <g transform="translate(58.175 48.656073) scale(0.16 -0.16)">
       <use xlink:href="#DejaVuSans-30"/>
       <use xlink:href="#DejaVuSans-2e" x="63.623047"/>
       <use xlink:href="#DejaVuSans-30" x="95.410156"/>
       <use xlink:href="#DejaVuSans-34" x="159.033203"/>
      </g>
     </g>
    </g>
    <g id="text_15">
     <!-- Directed predictability gain (bits) -->
     <g transform="translate(37.024062 364.685625) rotate(-90) scale(0.18 -0.18)">
      <defs>
       <path id="DejaVuSans-44" d="M 1259 4147 
L 1259 519 
L 2022 519 
Q 2988 519 3436 956 
Q 3884 1394 3884 2338 
Q 3884 3275 3436 3711 
Q 2988 4147 2022 4147 
L 1259 4147 
z
M 628 4666 
L 1925 4666 
Q 3281 4666 3915 4102 
Q 4550 3538 4550 2338 
Q 4550 1131 3912 565 
Q 3275 0 1925 0 
L 628 0 
L 628 4666 
z
" transform="scale(0.015625)"/>
       <path id="DejaVuSans-63" d="M 3122 3366 
L 3122 2828 
Q 2878 2963 2633 3030 
Q 2388 3097 2138 3097 
Q 1578 3097 1268 2742 
Q 959 2388 959 1747 
Q 959 1106 1268 751 
Q 1578 397 2138 397 
Q 2388 397 2633 464 
Q 2878 531 3122 666 
L 3122 134 
Q 2881 22 2623 -34 
Q 2366 -91 2075 -91 
Q 1284 -91 818 406 
Q 353 903 353 1747 
Q 353 2603 823 3093 
Q 1294 3584 2113 3584 
Q 2378 3584 2631 3529 
Q 2884 3475 3122 3366 
z
" transform="scale(0.015625)"/>
       <path id="DejaVuSans-64" d="M 2906 2969 
L 2906 4863 
L 3481 4863 
L 3481 0 
L 2906 0 
L 2906 525 
Q 2725 213 2448 61 
Q 2172 -91 1784 -91 
Q 1150 -91 751 415 
Q 353 922 353 1747 
Q 353 2572 751 3078 
Q 1150 3584 1784 3584 
Q 2172 3584 2448 3432 
Q 2725 3281 2906 2969 
z
M 947 1747 
Q 947 1113 1208 752 
Q 1469 391 1925 391 
Q 2381 391 2643 752 
Q 2906 1113 2906 1747 
Q 2906 2381 2643 2742 
Q 2381 3103 1925 3103 
Q 1469 3103 1208 2742 
Q 947 2381 947 1747 
z
" transform="scale(0.015625)"/>
       <path id="DejaVuSans-70" d="M 1159 525 
L 1159 -1331 
L 581 -1331 
L 581 3500 
L 1159 3500 
L 1159 2969 
Q 1341 3281 1617 3432 
Q 1894 3584 2278 3584 
Q 2916 3584 3314 3078 
Q 3713 2572 3713 1747 
Q 3713 922 3314 415 
Q 2916 -91 2278 -91 
Q 1894 -91 1617 61 
Q 1341 213 1159 525 
z
M 3116 1747 
Q 3116 2381 2855 2742 
Q 2594 3103 2138 3103 
Q 1681 3103 1420 2742 
Q 1159 2381 1159 1747 
Q 1159 1113 1420 752 
Q 1681 391 2138 391 
Q 2594 391 2855 752 
Q 3116 1113 3116 1747 
z
" transform="scale(0.015625)"/>
       <path id="DejaVuSans-61" d="M 2194 1759 
Q 1497 1759 1228 1600 
Q 959 1441 959 1056 
Q 959 750 1161 570 
Q 1363 391 1709 391 
Q 2188 391 2477 730 
Q 2766 1069 2766 1631 
L 2766 1759 
L 2194 1759 
z
M 3341 1997 
L 3341 0 
L 2766 0 
L 2766 531 
Q 2569 213 2275 61 
Q 1981 -91 1556 -91 
Q 1019 -91 701 211 
Q 384 513 384 1019 
Q 384 1609 779 1909 
Q 1175 2209 1959 2209 
L 2766 2209 
L 2766 2266 
Q 2766 2663 2505 2880 
Q 2244 3097 1772 3097 
Q 1472 3097 1187 3025 
Q 903 2953 641 2809 
L 641 3341 
Q 956 3463 1253 3523 
Q 1550 3584 1831 3584 
Q 2591 3584 2966 3190 
Q 3341 2797 3341 1997 
z
" transform="scale(0.015625)"/>
       <path id="DejaVuSans-62" d="M 3116 1747 
Q 3116 2381 2855 2742 
Q 2594 3103 2138 3103 
Q 1681 3103 1420 2742 
Q 1159 2381 1159 1747 
Q 1159 1113 1420 752 
Q 1681 391 2138 391 
Q 2594 391 2855 752 
Q 3116 1113 3116 1747 
z
M 1159 2969 
Q 1341 3281 1617 3432 
Q 1894 3584 2278 3584 
Q 2916 3584 3314 3078 
Q 3713 2572 3713 1747 
Q 3713 922 3314 415 
Q 2916 -91 2278 -91 
Q 1894 -91 1617 61 
Q 1341 213 1159 525 
L 1159 0 
L 581 0 
L 581 4863 
L 1159 4863 
L 1159 2969 
z
" transform="scale(0.015625)"/>
       <path id="DejaVuSans-79" d="M 2059 -325 
Q 1816 -950 1584 -1140 
Q 1353 -1331 966 -1331 
L 506 -1331 
L 506 -850 
L 844 -850 
Q 1081 -850 1212 -737 
Q 1344 -625 1503 -206 
L 1606 56 
L 191 3500 
L 800 3500 
L 1894 763 
L 2988 3500 
L 3597 3500 
L 2059 -325 
z
" transform="scale(0.015625)"/>
       <path id="DejaVuSans-67" d="M 2906 1791 
Q 2906 2416 2648 2759 
Q 2391 3103 1925 3103 
Q 1463 3103 1205 2759 
Q 947 2416 947 1791 
Q 947 1169 1205 825 
Q 1463 481 1925 481 
Q 2391 481 2648 825 
Q 2906 1169 2906 1791 
z
M 3481 434 
Q 3481 -459 3084 -895 
Q 2688 -1331 1869 -1331 
Q 1566 -1331 1297 -1286 
Q 1028 -1241 775 -1147 
L 775 -588 
Q 1028 -725 1275 -790 
Q 1522 -856 1778 -856 
Q 2344 -856 2625 -561 
Q 2906 -266 2906 331 
L 2906 616 
Q 2728 306 2450 153 
Q 2172 0 1784 0 
Q 1141 0 747 490 
Q 353 981 353 1791 
Q 353 2603 747 3093 
Q 1141 3584 1784 3584 
Q 2172 3584 2450 3431 
Q 2728 3278 2906 2969 
L 2906 3500 
L 3481 3500 
L 3481 434 
z
" transform="scale(0.015625)"/>
      </defs>
      <use xlink:href="#DejaVuSans-44"/>
      <use xlink:href="#DejaVuSans-69" x="77.001953"/>
      <use xlink:href="#DejaVuSans-72" x="104.785156"/>
      <use xlink:href="#DejaVuSans-65" x="143.648438"/>
      <use xlink:href="#DejaVuSans-63" x="205.171875"/>
      <use xlink:href="#DejaVuSans-74" x="260.152344"/>
      <use xlink:href="#DejaVuSans-65" x="299.361328"/>
      <use xlink:href="#DejaVuSans-64" x="360.884766"/>
      <use xlink:href="#DejaVuSans-20" x="424.361328"/>
      <use xlink:href="#DejaVuSans-70" x="456.148438"/>
      <use xlink:href="#DejaVuSans-72" x="519.625"/>
      <use xlink:href="#DejaVuSans-65" x="558.488281"/>
      <use xlink:href="#DejaVuSans-64" x="620.011719"/>
      <use xlink:href="#DejaVuSans-69" x="683.488281"/>
      <use xlink:href="#DejaVuSans-63" x="711.271484"/>
      <use xlink:href="#DejaVuSans-74" x="766.251953"/>
      <use xlink:href="#DejaVuSans-61" x="805.460938"/>
      <use xlink:href="#DejaVuSans-62" x="866.740234"/>
      <use xlink:href="#DejaVuSans-69" x="930.216797"/>
      <use xlink:href="#DejaVuSans-6c" x="958"/>
      <use xlink:href="#DejaVuSans-69" x="985.783203"/>
      <use xlink:href="#DejaVuSans-74" x="1013.566406"/>
      <use xlink:href="#DejaVuSans-79" x="1052.775391"/>
      <use xlink:href="#DejaVuSans-20" x="1111.955078"/>
      <use xlink:href="#DejaVuSans-67" x="1143.742188"/>
      <use xlink:href="#DejaVuSans-61" x="1207.21875"/>
      <use xlink:href="#DejaVuSans-69" x="1268.498047"/>
      <use xlink:href="#DejaVuSans-6e" x="1296.28125"/>
      <use xlink:href="#DejaVuSans-20" x="1359.660156"/>
      <use xlink:href="#DejaVuSans-28" x="1391.447266"/>
      <use xlink:href="#DejaVuSans-62" x="1430.460938"/>
      <use xlink:href="#DejaVuSans-69" x="1493.9375"/>
      <use xlink:href="#DejaVuSans-74" x="1521.720703"/>
      <use xlink:href="#DejaVuSans-73" x="1560.929688"/>
      <use xlink:href="#DejaVuSans-29" x="1613.029297"/>
     </g>
    </g>
   </g>
   <g id="line2d_14">
    <path d="M 220.8 396 
L 220.8 36 
" clip-path="url(#p9d5596fb17)" style="fill: none; stroke-dasharray: 2.96,1.28; stroke-dashoffset: 0; stroke: #000000; stroke-width: 0.8"/>
   </g>
   <g id="line2d_15">
    <path d="M 100.8 311.856868 
L 820.8 311.856868 
" clip-path="url(#p9d5596fb17)" style="fill: none; stroke-dasharray: 0.8,1.32; stroke-dashoffset: 0; stroke: #000000; stroke-width: 0.8"/>
   </g>
   <g id="line2d_16">
    <path d="M -1 242.011403 
L 4.8 265.145279 
L 16.800002 266.723108 
L 28.8 286.482289 
L 40.800002 272.749597 
L 52.800004 280.598482 
L 64.800001 273.603421 
L 76.800001 254.261487 
L 88.800001 259.089898 
L 100.8 255.597614 
L 112.8 263.778047 
L 124.8 281.525739 
L 136.8 266.440365 
L 148.799999 247.167184 
L 160.8 204.669618 
L 172.8 215.320331 
L 184.8 252.189452 
L 196.8 295.369446 
L 208.8 317.344772 
L 220.8 316.873073 
L 232.8 283.91697 
L 244.8 247.594103 
L 256.8 185.999887 
L 268.8 228.58314 
L 280.8 252.085911 
L 292.800001 278.037452 
L 304.8 250.924825 
L 316.8 250.894559 
L 328.8 285.380362 
L 340.8 296.313937 
L 352.799999 313.780256 
L 364.799999 285.676966 
L 376.799999 280.603477 
L 388.799996 263.478799 
L 400.799998 287.719622 
L 412.8 270.825543 
L 424.799998 257.8553 
L 436.8 231.809133 
L 448.800002 248.430528 
L 460.799999 264.53325 
L 472.800001 270.92685 
L 484.800003 282.916832 
L 496.800001 290.384123 
L 508.800003 287.499467 
L 520.8 271.085055 
L 532.799997 259.303538 
L 544.800004 274.944056 
L 556.800001 289.815596 
L 568.799999 251.85952 
L 580.800005 248.312097 
L 592.800003 228.262591 
L 604.799991 231.121538 
L 616.799998 214.133591 
L 628.800004 178.303498 
L 640.799993 208.771439 
L 652.799999 185.006124 
L 664.800006 250.118043 
L 676.799994 236.55249 
L 688.800001 271.241127 
L 700.800007 216.403568 
L 712.799996 243.394385 
L 724.800002 242.764122 
L 736.800009 254.605809 
L 748.799997 262.797988 
L 760.799995 297.306622 
L 772.800001 333.918258 
L 784.799999 339.796593 
L 796.799996 303.164482 
L 808.800003 290.659138 
L 820.8 283.40086 
L 832.799989 309.705222 
L 844.799977 303.928602 
L 856.800001 275.884785 
L 857.8 274.019477 
" clip-path="url(#p9d5596fb17)" style="fill: none; stroke: #c00a37; stroke-width: 2.5; stroke-linecap: square"/>
   </g>
   <g id="line2d_17">
    <path d="M -1 269.693381 
L 4.8 270.072562 
L 16.800002 263.728292 
L 28.8 228.187579 
L 40.800002 203.319277 
L 52.800004 243.099606 
L 64.800001 276.967501 
L 76.800001 295.027116 
L 88.800001 246.364022 
L 100.8 270.536957 
L 112.8 283.822907 
L 124.8 317.373309 
L 136.8 301.867719 
L 148.799999 287.800391 
L 160.8 289.895733 
L 172.8 262.30292 
L 184.8 262.315585 
L 196.8 223.490428 
L 208.8 232.28546 
L 220.8 263.73743 
L 232.8 266.637559 
L 244.8 296.32765 
L 256.8 257.640486 
L 268.8 261.389 
L 280.8 216.316272 
L 292.800001 243.878249 
L 304.8 234.939934 
L 316.8 235.105229 
L 328.8 223.23574 
L 340.8 183.182379 
L 352.799999 219.03607 
L 364.799999 218.733907 
L 376.799999 276.175734 
L 388.799996 272.043694 
L 400.799998 272.739665 
L 412.8 289.74632 
L 424.799998 270.456899 
L 436.8 261.772011 
L 448.800002 243.105976 
L 460.799999 255.627587 
L 472.800001 253.996644 
L 484.800003 235.196401 
L 496.800001 232.570133 
L 508.800003 204.279343 
L 520.8 222.425993 
L 532.799997 224.402422 
L 544.800004 252.247539 
L 556.800001 227.887708 
L 568.799999 234.640561 
L 580.800005 222.670834 
L 592.800003 223.845237 
L 604.799991 165.271532 
L 616.799998 149.887659 
L 628.800004 144.833136 
L 640.799993 176.820597 
L 652.799999 171.777879 
L 664.800006 156.351039 
L 676.799994 137.836338 
L 688.800001 130.082532 
L 700.800007 148.277962 
L 712.799996 176.655847 
L 724.800002 183.343025 
L 736.800009 203.984776 
L 748.799997 136.768769 
L 760.799995 171.255845 
L 772.800001 131.452055 
L 784.799999 188.278597 
L 796.799996 187.10595 
L 808.800003 223.140648 
L 820.8 262.440627 
L 832.799989 270.561748 
L 844.799977 255.438899 
L 856.800001 238.56868 
L 857.8 237.664371 
" clip-path="url(#p9d5596fb17)" style="fill: none; stroke: #0e87cc; stroke-width: 2.5; stroke-linecap: square"/>
   </g>
   <g id="patch_3">
    <path d="M 100.8 396 
L 100.8 36 
" style="fill: none; stroke: #000000; stroke-width: 0.8; stroke-linejoin: miter; stroke-linecap: square"/>
   </g>
   <g id="patch_4">
    <path d="M 820.8 396 
L 820.8 36 
" style="fill: none; stroke: #000000; stroke-width: 0.8; stroke-linejoin: miter; stroke-linecap: square"/>
   </g>
   <g id="patch_5">
    <path d="M 100.8 396 
L 820.8 396 
" style="fill: none; stroke: #000000; stroke-width: 0.8; stroke-linejoin: miter; stroke-linecap: square"/>
   </g>
   <g id="patch_6">
    <path d="M 100.8 36 
L 820.8 36 
" style="fill: none; stroke: #000000; stroke-width: 0.8; stroke-linejoin: miter; stroke-linecap: square"/>
   </g>
   <g id="PathCollection_1">
    <defs>
     <path id="ma216a5b856" d="M 0 1.870829 
C 0.49615 1.870829 0.972045 1.673706 1.322876 1.322876 
C 1.673706 0.972045 1.870829 0.49615 1.870829 0 
C 1.870829 -0.49615 1.673706 -0.972045 1.322876 -1.322876 
C 0.972045 -1.673706 0.49615 -1.870829 0 -1.870829 
C -0.49615 -1.870829 -0.972045 -1.673706 -1.322876 -1.322876 
C -1.673706 -0.972045 -1.870829 -0.49615 -1.870829 0 
C -1.870829 0.49615 -1.673706 0.972045 -1.322876 1.322876 
C -0.972045 1.673706 -0.49615 1.870829 0 1.870829 
z
" style="stroke: #000000"/>
    </defs>
    <g clip-path="url(#p9d5596fb17)">
     <use xlink:href="#ma216a5b856" x="976.799994" y="378" style="stroke: #000000"/>
    </g>
   </g>
   <g id="legend_1">
    <g id="line2d_18">
     <path d="M 114.3 55.647656 
L 129.3 55.647656 
L 144.3 55.647656 
" style="fill: none; stroke: #c00a37; stroke-width: 2.5; stroke-linecap: square"/>
    </g>
    <g id="text_16">
     <!-- SLIP→SFEF -->
     <g transform="translate(156.3 60.897656) scale(0.15 -0.15)">
      <defs>
       <path id="DejaVuSans-4c" d="M 628 4666 
L 1259 4666 
L 1259 531 
L 3531 531 
L 3531 0 
L 628 0 
L 628 4666 
z
" transform="scale(0.015625)"/>
       <path id="DejaVuSans-49" d="M 628 4666 
L 1259 4666 
L 1259 0 
L 628 0 
L 628 4666 
z
" transform="scale(0.015625)"/>
       <path id="DejaVuSans-50" d="M 1259 4147 
L 1259 2394 
L 2053 2394 
Q 2494 2394 2734 2622 
Q 2975 2850 2975 3272 
Q 2975 3691 2734 3919 
Q 2494 4147 2053 4147 
L 1259 4147 
z
M 628 4666 
L 2053 4666 
Q 2838 4666 3239 4311 
Q 3641 3956 3641 3272 
Q 3641 2581 3239 2228 
Q 2838 1875 2053 1875 
L 1259 1875 
L 1259 0 
L 628 0 
L 628 4666 
z
" transform="scale(0.015625)"/>
       <path id="DejaVuSans-2192" d="M 5050 2147 
L 5050 1866 
L 3822 638 
L 3447 1013 
L 4175 1741 
L 366 1741 
L 366 2272 
L 4175 2272 
L 3447 3000 
L 3822 3375 
L 5050 2147 
z
" transform="scale(0.015625)"/>
       <path id="DejaVuSans-46" d="M 628 4666 
L 3309 4666 
L 3309 4134 
L 1259 4134 
L 1259 2759 
L 3109 2759 
L 3109 2228 
L 1259 2228 
L 1259 0 
L 628 0 
L 628 4666 
z
" transform="scale(0.015625)"/>
       <path id="DejaVuSans-45" d="M 628 4666 
L 3578 4666 
L 3578 4134 
L 1259 4134 
L 1259 2753 
L 3481 2753 
L 3481 2222 
L 1259 2222 
L 1259 531 
L 3634 531 
L 3634 0 
L 628 0 
L 628 4666 
z
" transform="scale(0.015625)"/>
      </defs>
      <use xlink:href="#DejaVuSans-53"/>
      <use xlink:href="#DejaVuSans-4c" x="63.476562"/>
      <use xlink:href="#DejaVuSans-49" x="119.189453"/>
      <use xlink:href="#DejaVuSans-50" x="148.681641"/>
      <use xlink:href="#DejaVuSans-2192" x="208.984375"/>
      <use xlink:href="#DejaVuSans-53" x="292.773438"/>
      <use xlink:href="#DejaVuSans-46" x="356.25"/>
      <use xlink:href="#DejaVuSans-45" x="413.769531"/>
      <use xlink:href="#DejaVuSans-46" x="476.953125"/>
     </g>
    </g>
    <g id="line2d_19">
     <path d="M 114.3 77.664844 
L 129.3 77.664844 
L 144.3 77.664844 
" style="fill: none; stroke: #0e87cc; stroke-width: 2.5; stroke-linecap: square"/>
    </g>
    <g id="text_17">
     <!-- SFEF→SLIP -->
     <g transform="translate(156.3 82.914844) scale(0.15 -0.15)">
      <use xlink:href="#DejaVuSans-53"/>
      <use xlink:href="#DejaVuSans-46" x="63.476562"/>
      <use xlink:href="#DejaVuSans-45" x="120.996094"/>
      <use xlink:href="#DejaVuSans-46" x="184.179688"/>
      <use xlink:href="#DejaVuSans-2192" x="241.699219"/>
      <use xlink:href="#DejaVuSans-53" x="325.488281"/>
      <use xlink:href="#DejaVuSans-4c" x="388.964844"/>
      <use xlink:href="#DejaVuSans-49" x="444.677734"/>
      <use xlink:href="#DejaVuSans-50" x="474.169922"/>
     </g>
    </g>
    <g id="PathCollection_2">
     <g>
      <use xlink:href="#ma216a5b856" x="129.3" y="100.994531" style="stroke: #000000"/>
     </g>
    </g>
    <g id="text_18">
     <!-- p&lt;α -->
     <g transform="translate(156.3 104.932031) scale(0.15 -0.15)">
      <defs>
       <path id="DejaVuSans-3c" d="M 4684 3150 
L 1459 2003 
L 4684 863 
L 4684 294 
L 678 1747 
L 678 2266 
L 4684 3719 
L 4684 3150 
z
" transform="scale(0.015625)"/>
       <path id="DejaVuSans-3b1" d="M 2644 1628 
L 2506 2350 
Q 2366 3091 1809 3091 
Q 1391 3091 1200 2747 
Q 959 2316 959 1747 
Q 959 1059 1194 731 
Q 1431 397 1809 397 
Q 2228 397 2453 1063 
L 2644 1628 
z
M 2966 2584 
L 3275 3500 
L 3788 3500 
L 3147 1603 
L 3272 919 
Q 3300 766 3409 638 
Q 3538 488 3638 488 
L 3913 488 
L 3913 0 
L 3569 0 
Q 3275 0 3013 263 
Q 2884 394 2831 669 
Q 2688 322 2394 50 
Q 2256 -78 1809 -78 
Q 1075 -78 719 397 
Q 353 888 353 1747 
Q 353 2666 750 3097 
Q 1191 3578 1809 3578 
Q 2781 3578 2966 2584 
z
" transform="scale(0.015625)"/>
      </defs>
      <use xlink:href="#DejaVuSans-70"/>
      <use xlink:href="#DejaVuSans-3c" x="63.476562"/>
      <use xlink:href="#DejaVuSans-3b1" x="147.265625"/>
     </g>
    </g>
   </g>
  </g>
 </g>
 <defs>
  <clipPath id="p9d5596fb17">
   <rect x="100.8" y="36" width="720" height="360"/>
  </clipPath>
 </defs>
</svg>
