<?xml version="1.0" encoding="utf-8" standalone="no"?>
<!DOCTYPE svg PUBLIC "-//W3C//DTD SVG 1.1//EN"
  "http://www.w3.org/Graphics/SVG/1.1/DTD/svg11.dtd">
<svg xmlns:xlink="http://www.w3.org/1999/xlink" width="856.8pt" height="453.6pt" viewBox="0 0 856.8 453.6" xmlns="http://www.w3.org/2000/svg" version="1.1">
 <metadata>
  <rdf:RDF xmlns:dc="http://purl.org/dc/elements/1.1/" xmlns:cc="http://creativecommons.org/ns#" xmlns:rdf="http://www.w3.org/1999/02/22-rdf-syntax-ns#">
   <cc:Work>
    <dc:type rdf:resource="http://purl.org/dc/dcmitype/StillImage"/>
    <dc:date>2026-01-28T18:07:06.995671</dc:date>
    <dc:format>image/svg+xml</dc:format>
    <dc:creator>
     <cc:Agent>
      <dc:title>Matplotlib v3.9.4, https://matplotlib.org/</dc:title>
     </cc:Agent>
    </dc:creator>
   </cc:Work>
  </rdf:RDF>
 </metadata>
 <defs>
  <style type="text/css">*{stroke-linejoin: round; stroke-linecap: butt}</style>
 </defs>
 <g id="figure_1">
  <g id="patch_1">
   <path d="M 0 453.6 
L 856.8 453.6 
L 856.8 0 
L 0 0 
z
" style="fill: #ffffff"/>
  </g>
  <g id="axes_1">
   <g id="patch_2">
    <path d="M 100.8 396 
L 820.8 396 
L 820.8 36 
L 100.8 36 
z
" style="fill: #ffffff"/>
   </g>
   <g id="PolyCollection_1">
    <path d="M -103.200004 342.500709 
L -103.200004 366.412004 
L -91.199997 372.464737 
L -79.2 361.21372 
L -67.200003 358.722202 
L -55.200001 351.123678 
L -43.200003 364.431351 
L -31.200001 373.931249 
L -19.199999 378.195709 
L -7.200002 379.636364 
L 4.8 365.646835 
L 16.800002 361.564254 
L 28.8 343.29609 
L 40.800002 341.196543 
L 52.800004 346.059781 
L 64.800001 356.878157 
L 76.800001 364.439917 
L 88.800001 364.807913 
L 100.8 369.250833 
L 112.8 355.693864 
L 124.8 351.412279 
L 136.8 347.309337 
L 148.799999 358.300744 
L 160.8 355.363314 
L 172.8 357.995858 
L 184.8 360.918631 
L 196.8 364.728318 
L 208.8 358.973595 
L 220.8 359.264901 
L 232.8 349.61673 
L 244.8 351.509414 
L 256.8 349.050766 
L 268.8 348.610717 
L 280.8 354.736022 
L 292.800001 354.940935 
L 304.8 362.569123 
L 316.8 354.509333 
L 328.8 356.405728 
L 340.8 363.435595 
L 352.799999 366.118244 
L 364.799999 361.74197 
L 376.799999 352.79722 
L 388.799996 353.80886 
L 400.799998 344.265268 
L 412.8 333.764387 
L 424.799998 318.362608 
L 436.8 312.919141 
L 448.800002 322.373997 
L 460.799999 327.106654 
L 472.800001 326.995748 
L 484.800003 313.323842 
L 496.800001 303.000307 
L 508.800003 296.808627 
L 520.8 298.960908 
L 532.799997 305.9173 
L 544.800004 303.556483 
L 556.800001 284.430602 
L 568.799999 272.012795 
L 580.800005 265.393016 
L 592.800003 233.914816 
L 604.799991 227.207876 
L 616.799998 217.801429 
L 628.800004 221.34662 
L 640.799993 212.545104 
L 652.799999 217.295893 
L 664.800006 232.425398 
L 676.799994 209.003532 
L 688.800001 193.169271 
L 700.800007 201.22645 
L 712.799996 220.741716 
L 724.800002 235.189712 
L 736.800009 202.782765 
L 748.799997 187.276842 
L 760.799995 184.536319 
L 772.800001 230.267252 
L 784.799999 272.014894 
L 796.799996 293.224922 
L 808.800003 302.085783 
L 820.8 297.447212 
L 832.799989 304.805462 
L 844.799977 319.176711 
L 856.800001 326.585526 
L 868.800026 332.120466 
L 880.800014 323.869264 
L 892.800003 326.065703 
L 904.799991 325.645385 
L 916.79998 327.071753 
L 928.799986 330.300652 
L 940.800011 327.226093 
L 952.800017 329.262252 
L 964.800006 330.589069 
L 976.799994 338.020497 
L 988.799983 324.792354 
L 1000.799989 328.82427 
L 1012.800014 329.029208 
L 1024.80002 345.020519 
L 1036.800009 343.756345 
L 1048.799997 345.560661 
L 1060.799986 357.385548 
L 1072.799974 359.171768 
L 1084.799999 359.03546 
L 1096.800023 352.786843 
L 1108.800011 354.162963 
L 1120.8 355.24321 
L 1132.799989 355.122047 
L 1144.799977 361.776443 
L 1156.800001 360.746921 
L 1168.800026 361.494374 
L 1168.800026 334.998796 
L 1168.800026 334.998796 
L 1156.800001 332.308668 
L 1144.799977 338.578219 
L 1132.799989 319.961296 
L 1120.8 317.502758 
L 1108.800011 317.440046 
L 1096.800023 323.044287 
L 1084.799999 337.599751 
L 1072.799974 329.989788 
L 1060.799986 322.491811 
L 1048.799997 301.646845 
L 1036.800009 304.113214 
L 1024.80002 295.783437 
L 1012.800014 277.527287 
L 1000.799989 280.678401 
L 988.799983 279.375995 
L 976.799994 299.451232 
L 964.800006 278.967502 
L 952.800017 282.546677 
L 940.800011 270.892816 
L 928.799986 275.014426 
L 916.79998 271.84731 
L 904.799991 276.08984 
L 892.800003 274.691857 
L 880.800014 269.458065 
L 868.800026 280.554545 
L 856.800001 279.162207 
L 844.799977 272.285381 
L 832.799989 244.097797 
L 820.8 235.966184 
L 808.800003 242.160912 
L 796.799996 235.330962 
L 784.799999 194.413044 
L 772.800001 136.702105 
L 760.799995 72.789464 
L 748.799997 52.363636 
L 736.800009 54.520378 
L 724.800002 96.287674 
L 712.799996 118.713165 
L 700.800007 121.051257 
L 688.800001 110.545031 
L 676.799994 122.764629 
L 664.800006 149.248652 
L 652.799999 119.693176 
L 640.799993 121.352574 
L 628.800004 133.881429 
L 616.799998 153.093297 
L 604.799991 154.04817 
L 592.800003 149.926302 
L 580.800005 182.405037 
L 568.799999 202.839207 
L 556.800001 223.968988 
L 544.800004 250.87028 
L 532.799997 245.465774 
L 520.8 234.313846 
L 508.800003 226.534796 
L 496.800001 232.687813 
L 484.800003 241.391889 
L 472.800001 267.933542 
L 460.799999 270.510218 
L 448.800002 279.264005 
L 436.8 262.70246 
L 424.799998 257.50402 
L 412.8 275.254803 
L 400.799998 285.902735 
L 388.799996 312.778998 
L 376.799999 311.645548 
L 364.799999 322.364753 
L 352.799999 330.126235 
L 340.8 327.616048 
L 328.8 324.373777 
L 316.8 323.706324 
L 304.8 333.910103 
L 292.800001 313.37007 
L 280.8 310.795027 
L 268.8 304.24357 
L 256.8 319.994402 
L 244.8 326.677548 
L 232.8 326.154796 
L 220.8 333.474223 
L 208.8 333.569616 
L 196.8 337.666615 
L 184.8 327.155828 
L 172.8 319.67686 
L 160.8 317.944799 
L 148.799999 326.571448 
L 136.8 318.594827 
L 124.8 325.02647 
L 112.8 332.648808 
L 100.8 346.439686 
L 88.800001 336.33761 
L 76.800001 334.889228 
L 64.800001 324.895748 
L 52.800004 314.71909 
L 40.800002 303.028827 
L 28.8 309.294515 
L 16.800002 331.926953 
L 4.8 343.19505 
L -7.200002 359.236146 
L -19.199999 356.017901 
L -31.200001 355.812249 
L -43.200003 340.938853 
L -55.200001 325.519962 
L -67.200003 332.033018 
L -79.2 336.431981 
L -91.199997 351.446636 
L -103.200004 342.500709 
z
" clip-path="url(#pdfe077fe98)" style="fill: #0e87cc; fill-opacity: 0.25"/>
   </g>
   <g id="PolyCollection_2">
    <path d="M -103.200004 324.81628 
L -103.200004 354.857988 
L -91.199997 353.051805 
L -79.2 358.567594 
L -67.200003 354.952518 
L -55.200001 362.675168 
L -43.200003 360.324725 
L -31.200001 367.57719 
L -19.199999 367.721783 
L -7.200002 368.793305 
L 4.8 369.958237 
L 16.800002 362.700846 
L 28.8 358.122284 
L 40.800002 351.817391 
L 52.800004 351.521813 
L 64.800001 358.360952 
L 76.800001 361.659436 
L 88.800001 364.015347 
L 100.8 359.314688 
L 112.8 361.975611 
L 124.8 359.503867 
L 136.8 358.768135 
L 148.799999 349.368513 
L 160.8 356.330446 
L 172.8 350.993211 
L 184.8 354.696662 
L 196.8 350.828887 
L 208.8 364.299404 
L 220.8 366.308478 
L 232.8 373.661881 
L 244.8 355.173316 
L 256.8 351.180128 
L 268.8 339.974597 
L 280.8 351.64888 
L 292.800001 350.641706 
L 304.8 355.383741 
L 316.8 354.851105 
L 328.8 355.246156 
L 340.8 349.905937 
L 352.799999 348.309933 
L 364.799999 351.282427 
L 376.799999 354.634159 
L 388.799996 356.729121 
L 400.799998 359.657635 
L 412.8 367.673111 
L 424.799998 371.928528 
L 436.8 358.260471 
L 448.800002 355.225874 
L 460.799999 347.876305 
L 472.800001 358.156767 
L 484.800003 350.634365 
L 496.800001 357.433668 
L 508.800003 354.223576 
L 520.8 363.139622 
L 532.799997 355.514804 
L 544.800004 359.200424 
L 556.800001 348.659143 
L 568.799999 346.77265 
L 580.800005 343.204554 
L 592.800003 346.109284 
L 604.799991 340.348501 
L 616.799998 339.055738 
L 628.800004 330.577958 
L 640.799993 323.811599 
L 652.799999 319.950355 
L 664.800006 309.499613 
L 676.799994 306.214908 
L 688.800001 307.173433 
L 700.800007 299.252445 
L 712.799996 289.824933 
L 724.800002 265.882946 
L 736.800009 259.243958 
L 748.799997 260.54444 
L 760.799995 248.494881 
L 772.800001 263.067797 
L 784.799999 266.336611 
L 796.799996 281.155735 
L 808.800003 278.246326 
L 820.8 284.584781 
L 832.799989 275.374354 
L 844.799977 289.013393 
L 856.800001 282.528429 
L 868.800026 289.957725 
L 880.800014 273.220323 
L 892.800003 291.296103 
L 904.799991 311.615684 
L 916.79998 332.661387 
L 928.799986 333.298477 
L 940.800011 332.274099 
L 952.800017 318.191333 
L 964.800006 308.375275 
L 976.799994 315.477553 
L 988.799983 314.436007 
L 1000.799989 321.605157 
L 1012.800014 324.726866 
L 1024.80002 339.947674 
L 1036.800009 338.805785 
L 1048.799997 340.635542 
L 1060.799986 348.707044 
L 1072.799974 354.118361 
L 1084.799999 351.444976 
L 1096.800023 342.851452 
L 1108.800011 355.229316 
L 1120.8 356.957669 
L 1132.799989 363.830211 
L 1144.799977 360.898952 
L 1156.800001 360.204362 
L 1168.800026 359.431696 
L 1168.800026 341.208663 
L 1168.800026 341.208663 
L 1156.800001 340.643074 
L 1144.799977 336.558335 
L 1132.799989 337.292809 
L 1120.8 323.12016 
L 1108.800011 315.250403 
L 1096.800023 299.283314 
L 1084.799999 315.284747 
L 1072.799974 326.884425 
L 1060.799986 317.408448 
L 1048.799997 302.05126 
L 1036.800009 294.642493 
L 1024.80002 304.444955 
L 1012.800014 276.420659 
L 1000.799989 263.213588 
L 988.799983 244.075468 
L 976.799994 255.763491 
L 964.800006 250.444523 
L 952.800017 248.977905 
L 940.800011 261.340129 
L 928.799986 273.519911 
L 916.79998 293.036896 
L 904.799991 264.631985 
L 892.800003 236.586569 
L 880.800014 196.188354 
L 868.800026 213.850453 
L 856.800001 194.640166 
L 844.799977 218.2599 
L 832.799989 209.496223 
L 820.8 232.104683 
L 808.800003 226.709044 
L 796.799996 234.744968 
L 784.799999 193.448168 
L 772.800001 184.874863 
L 760.799995 165.989193 
L 748.799997 192.605928 
L 736.800009 191.379716 
L 724.800002 193.703661 
L 712.799996 230.717553 
L 700.800007 248.701305 
L 688.800001 262.953753 
L 676.799994 252.017768 
L 664.800006 251.911588 
L 652.799999 259.81575 
L 640.799993 273.528519 
L 628.800004 280.142127 
L 616.799998 295.899689 
L 604.799991 299.78811 
L 592.800003 309.616573 
L 580.800005 303.820055 
L 568.799999 313.475787 
L 556.800001 319.003686 
L 544.800004 341.493146 
L 532.799997 328.437615 
L 520.8 337.48814 
L 508.800003 317.225852 
L 496.800001 326.73514 
L 484.800003 310.121277 
L 472.800001 321.09399 
L 460.799999 309.719462 
L 448.800002 323.507722 
L 436.8 333.761827 
L 424.799998 351.454907 
L 412.8 345.332872 
L 400.799998 328.169036 
L 388.799996 322.625648 
L 376.799999 312.928005 
L 364.799999 309.64498 
L 352.799999 308.612544 
L 340.8 321.712846 
L 328.8 325.839057 
L 316.8 323.049064 
L 304.8 322.410101 
L 292.800001 320.248936 
L 280.8 316.922705 
L 268.8 297.578317 
L 256.8 311.810298 
L 244.8 324.107644 
L 232.8 350.606714 
L 220.8 343.545932 
L 208.8 337.134513 
L 196.8 322.310922 
L 184.8 329.624803 
L 172.8 323.846958 
L 160.8 328.388289 
L 148.799999 315.256866 
L 136.8 329.739051 
L 124.8 326.8475 
L 112.8 328.12074 
L 100.8 323.625678 
L 88.800001 335.061422 
L 76.800001 335.145658 
L 64.800001 328.142726 
L 52.800004 319.847613 
L 40.800002 316.01751 
L 28.8 327.594223 
L 16.800002 335.206214 
L 4.8 347.039579 
L -7.200002 340.59524 
L -19.199999 338.482595 
L -31.200001 341.743308 
L -43.200003 331.726548 
L -55.200001 327.40948 
L -67.200003 315.813815 
L -79.2 325.320873 
L -91.199997 323.065886 
L -103.200004 324.81628 
z
" clip-path="url(#pdfe077fe98)" style="fill: #c00a37; fill-opacity: 0.25"/>
   </g>
   <g id="matplotlib.axis_1">
    <g id="xtick_1">
     <g id="line2d_1">
      <defs>
       <path id="meeee52946f" d="M 0 0 
L 0 3.5 
" style="stroke: #000000; stroke-width: 0.8"/>
      </defs>
      <g>
       <use xlink:href="#meeee52946f" x="100.8" y="396" style="stroke: #000000; stroke-width: 0.8"/>
      </g>
     </g>
     <g id="text_1">
      <!-- −100 -->
      <g transform="translate(78.82625 415.1575) scale(0.16 -0.16)">
       <defs>
        <path id="DejaVuSans-2212" d="M 678 2272 
L 4684 2272 
L 4684 1741 
L 678 1741 
L 678 2272 
z
" transform="scale(0.015625)"/>
        <path id="DejaVuSans-31" d="M 794 531 
L 1825 531 
L 1825 4091 
L 703 3866 
L 703 4441 
L 1819 4666 
L 2450 4666 
L 2450 531 
L 3481 531 
L 3481 0 
L 794 0 
L 794 531 
z
" transform="scale(0.015625)"/>
        <path id="DejaVuSans-30" d="M 2034 4250 
Q 1547 4250 1301 3770 
Q 1056 3291 1056 2328 
Q 1056 1369 1301 889 
Q 1547 409 2034 409 
Q 2525 409 2770 889 
Q 3016 1369 3016 2328 
Q 3016 3291 2770 3770 
Q 2525 4250 2034 4250 
z
M 2034 4750 
Q 2819 4750 3233 4129 
Q 3647 3509 3647 2328 
Q 3647 1150 3233 529 
Q 2819 -91 2034 -91 
Q 1250 -91 836 529 
Q 422 1150 422 2328 
Q 422 3509 836 4129 
Q 1250 4750 2034 4750 
z
" transform="scale(0.015625)"/>
       </defs>
       <use xlink:href="#DejaVuSans-2212"/>
       <use xlink:href="#DejaVuSans-31" x="83.789062"/>
       <use xlink:href="#DejaVuSans-30" x="147.412109"/>
       <use xlink:href="#DejaVuSans-30" x="211.035156"/>
      </g>
     </g>
    </g>
    <g id="xtick_2">
     <g id="line2d_2">
      <g>
       <use xlink:href="#meeee52946f" x="220.8" y="396" style="stroke: #000000; stroke-width: 0.8"/>
      </g>
     </g>
     <g id="text_2">
      <!-- 0 -->
      <g transform="translate(215.71 415.1575) scale(0.16 -0.16)">
       <use xlink:href="#DejaVuSans-30"/>
      </g>
     </g>
    </g>
    <g id="xtick_3">
     <g id="line2d_3">
      <g>
       <use xlink:href="#meeee52946f" x="340.8" y="396" style="stroke: #000000; stroke-width: 0.8"/>
      </g>
     </g>
     <g id="text_3">
      <!-- 100 -->
      <g transform="translate(325.53 415.1575) scale(0.16 -0.16)">
       <use xlink:href="#DejaVuSans-31"/>
       <use xlink:href="#DejaVuSans-30" x="63.623047"/>
       <use xlink:href="#DejaVuSans-30" x="127.246094"/>
      </g>
     </g>
    </g>
    <g id="xtick_4">
     <g id="line2d_4">
      <g>
       <use xlink:href="#meeee52946f" x="460.8" y="396" style="stroke: #000000; stroke-width: 0.8"/>
      </g>
     </g>
     <g id="text_4">
      <!-- 200 -->
      <g transform="translate(445.53 415.1575) scale(0.16 -0.16)">
       <defs>
        <path id="DejaVuSans-32" d="M 1228 531 
L 3431 531 
L 3431 0 
L 469 0 
L 469 531 
Q 828 903 1448 1529 
Q 2069 2156 2228 2338 
Q 2531 2678 2651 2914 
Q 2772 3150 2772 3378 
Q 2772 3750 2511 3984 
Q 2250 4219 1831 4219 
Q 1534 4219 1204 4116 
Q 875 4013 500 3803 
L 500 4441 
Q 881 4594 1212 4672 
Q 1544 4750 1819 4750 
Q 2544 4750 2975 4387 
Q 3406 4025 3406 3419 
Q 3406 3131 3298 2873 
Q 3191 2616 2906 2266 
Q 2828 2175 2409 1742 
Q 1991 1309 1228 531 
z
" transform="scale(0.015625)"/>
       </defs>
       <use xlink:href="#DejaVuSans-32"/>
       <use xlink:href="#DejaVuSans-30" x="63.623047"/>
       <use xlink:href="#DejaVuSans-30" x="127.246094"/>
      </g>
     </g>
    </g>
    <g id="xtick_5">
     <g id="line2d_5">
      <g>
       <use xlink:href="#meeee52946f" x="580.8" y="396" style="stroke: #000000; stroke-width: 0.8"/>
      </g>
     </g>
     <g id="text_5">
      <!-- 300 -->
      <g transform="translate(565.53 415.1575) scale(0.16 -0.16)">
       <defs>
        <path id="DejaVuSans-33" d="M 2597 2516 
Q 3050 2419 3304 2112 
Q 3559 1806 3559 1356 
Q 3559 666 3084 287 
Q 2609 -91 1734 -91 
Q 1441 -91 1130 -33 
Q 819 25 488 141 
L 488 750 
Q 750 597 1062 519 
Q 1375 441 1716 441 
Q 2309 441 2620 675 
Q 2931 909 2931 1356 
Q 2931 1769 2642 2001 
Q 2353 2234 1838 2234 
L 1294 2234 
L 1294 2753 
L 1863 2753 
Q 2328 2753 2575 2939 
Q 2822 3125 2822 3475 
Q 2822 3834 2567 4026 
Q 2313 4219 1838 4219 
Q 1578 4219 1281 4162 
Q 984 4106 628 3988 
L 628 4550 
Q 988 4650 1302 4700 
Q 1616 4750 1894 4750 
Q 2613 4750 3031 4423 
Q 3450 4097 3450 3541 
Q 3450 3153 3228 2886 
Q 3006 2619 2597 2516 
z
" transform="scale(0.015625)"/>
       </defs>
       <use xlink:href="#DejaVuSans-33"/>
       <use xlink:href="#DejaVuSans-30" x="63.623047"/>
       <use xlink:href="#DejaVuSans-30" x="127.246094"/>
      </g>
     </g>
    </g>
    <g id="xtick_6">
     <g id="line2d_6">
      <g>
       <use xlink:href="#meeee52946f" x="700.8" y="396" style="stroke: #000000; stroke-width: 0.8"/>
      </g>
     </g>
     <g id="text_6">
      <!-- 400 -->
      <g transform="translate(685.53 415.1575) scale(0.16 -0.16)">
       <defs>
        <path id="DejaVuSans-34" d="M 2419 4116 
L 825 1625 
L 2419 1625 
L 2419 4116 
z
M 2253 4666 
L 3047 4666 
L 3047 1625 
L 3713 1625 
L 3713 1100 
L 3047 1100 
L 3047 0 
L 2419 0 
L 2419 1100 
L 313 1100 
L 313 1709 
L 2253 4666 
z
" transform="scale(0.015625)"/>
       </defs>
       <use xlink:href="#DejaVuSans-34"/>
       <use xlink:href="#DejaVuSans-30" x="63.623047"/>
       <use xlink:href="#DejaVuSans-30" x="127.246094"/>
      </g>
     </g>
    </g>
    <g id="xtick_7">
     <g id="line2d_7">
      <g>
       <use xlink:href="#meeee52946f" x="820.8" y="396" style="stroke: #000000; stroke-width: 0.8"/>
      </g>
     </g>
     <g id="text_7">
      <!-- 500 -->
      <g transform="translate(805.53 415.1575) scale(0.16 -0.16)">
       <defs>
        <path id="DejaVuSans-35" d="M 691 4666 
L 3169 4666 
L 3169 4134 
L 1269 4134 
L 1269 2991 
Q 1406 3038 1543 3061 
Q 1681 3084 1819 3084 
Q 2600 3084 3056 2656 
Q 3513 2228 3513 1497 
Q 3513 744 3044 326 
Q 2575 -91 1722 -91 
Q 1428 -91 1123 -41 
Q 819 9 494 109 
L 494 744 
Q 775 591 1075 516 
Q 1375 441 1709 441 
Q 2250 441 2565 725 
Q 2881 1009 2881 1497 
Q 2881 1984 2565 2268 
Q 2250 2553 1709 2553 
Q 1456 2553 1204 2497 
Q 953 2441 691 2322 
L 691 4666 
z
" transform="scale(0.015625)"/>
       </defs>
       <use xlink:href="#DejaVuSans-35"/>
       <use xlink:href="#DejaVuSans-30" x="63.623047"/>
       <use xlink:href="#DejaVuSans-30" x="127.246094"/>
      </g>
     </g>
    </g>
    <g id="text_8">
     <!-- Time from Stimulus Onset (ms) -->
     <g transform="translate(320.273438 436.162187) scale(0.18 -0.18)">
      <defs>
       <path id="DejaVuSans-54" d="M -19 4666 
L 3928 4666 
L 3928 4134 
L 2272 4134 
L 2272 0 
L 1638 0 
L 1638 4134 
L -19 4134 
L -19 4666 
z
" transform="scale(0.015625)"/>
       <path id="DejaVuSans-69" d="M 603 3500 
L 1178 3500 
L 1178 0 
L 603 0 
L 603 3500 
z
M 603 4863 
L 1178 4863 
L 1178 4134 
L 603 4134 
L 603 4863 
z
" transform="scale(0.015625)"/>
       <path id="DejaVuSans-6d" d="M 3328 2828 
Q 3544 3216 3844 3400 
Q 4144 3584 4550 3584 
Q 5097 3584 5394 3201 
Q 5691 2819 5691 2113 
L 5691 0 
L 5113 0 
L 5113 2094 
Q 5113 2597 4934 2840 
Q 4756 3084 4391 3084 
Q 3944 3084 3684 2787 
Q 3425 2491 3425 1978 
L 3425 0 
L 2847 0 
L 2847 2094 
Q 2847 2600 2669 2842 
Q 2491 3084 2119 3084 
Q 1678 3084 1418 2786 
Q 1159 2488 1159 1978 
L 1159 0 
L 581 0 
L 581 3500 
L 1159 3500 
L 1159 2956 
Q 1356 3278 1631 3431 
Q 1906 3584 2284 3584 
Q 2666 3584 2933 3390 
Q 3200 3197 3328 2828 
z
" transform="scale(0.015625)"/>
       <path id="DejaVuSans-65" d="M 3597 1894 
L 3597 1613 
L 953 1613 
Q 991 1019 1311 708 
Q 1631 397 2203 397 
Q 2534 397 2845 478 
Q 3156 559 3463 722 
L 3463 178 
Q 3153 47 2828 -22 
Q 2503 -91 2169 -91 
Q 1331 -91 842 396 
Q 353 884 353 1716 
Q 353 2575 817 3079 
Q 1281 3584 2069 3584 
Q 2775 3584 3186 3129 
Q 3597 2675 3597 1894 
z
M 3022 2063 
Q 3016 2534 2758 2815 
Q 2500 3097 2075 3097 
Q 1594 3097 1305 2825 
Q 1016 2553 972 2059 
L 3022 2063 
z
" transform="scale(0.015625)"/>
       <path id="DejaVuSans-20" transform="scale(0.015625)"/>
       <path id="DejaVuSans-66" d="M 2375 4863 
L 2375 4384 
L 1825 4384 
Q 1516 4384 1395 4259 
Q 1275 4134 1275 3809 
L 1275 3500 
L 2222 3500 
L 2222 3053 
L 1275 3053 
L 1275 0 
L 697 0 
L 697 3053 
L 147 3053 
L 147 3500 
L 697 3500 
L 697 3744 
Q 697 4328 969 4595 
Q 1241 4863 1831 4863 
L 2375 4863 
z
" transform="scale(0.015625)"/>
       <path id="DejaVuSans-72" d="M 2631 2963 
Q 2534 3019 2420 3045 
Q 2306 3072 2169 3072 
Q 1681 3072 1420 2755 
Q 1159 2438 1159 1844 
L 1159 0 
L 581 0 
L 581 3500 
L 1159 3500 
L 1159 2956 
Q 1341 3275 1631 3429 
Q 1922 3584 2338 3584 
Q 2397 3584 2469 3576 
Q 2541 3569 2628 3553 
L 2631 2963 
z
" transform="scale(0.015625)"/>
       <path id="DejaVuSans-6f" d="M 1959 3097 
Q 1497 3097 1228 2736 
Q 959 2375 959 1747 
Q 959 1119 1226 758 
Q 1494 397 1959 397 
Q 2419 397 2687 759 
Q 2956 1122 2956 1747 
Q 2956 2369 2687 2733 
Q 2419 3097 1959 3097 
z
M 1959 3584 
Q 2709 3584 3137 3096 
Q 3566 2609 3566 1747 
Q 3566 888 3137 398 
Q 2709 -91 1959 -91 
Q 1206 -91 779 398 
Q 353 888 353 1747 
Q 353 2609 779 3096 
Q 1206 3584 1959 3584 
z
" transform="scale(0.015625)"/>
       <path id="DejaVuSans-53" d="M 3425 4513 
L 3425 3897 
Q 3066 4069 2747 4153 
Q 2428 4238 2131 4238 
Q 1616 4238 1336 4038 
Q 1056 3838 1056 3469 
Q 1056 3159 1242 3001 
Q 1428 2844 1947 2747 
L 2328 2669 
Q 3034 2534 3370 2195 
Q 3706 1856 3706 1288 
Q 3706 609 3251 259 
Q 2797 -91 1919 -91 
Q 1588 -91 1214 -16 
Q 841 59 441 206 
L 441 856 
Q 825 641 1194 531 
Q 1563 422 1919 422 
Q 2459 422 2753 634 
Q 3047 847 3047 1241 
Q 3047 1584 2836 1778 
Q 2625 1972 2144 2069 
L 1759 2144 
Q 1053 2284 737 2584 
Q 422 2884 422 3419 
Q 422 4038 858 4394 
Q 1294 4750 2059 4750 
Q 2388 4750 2728 4690 
Q 3069 4631 3425 4513 
z
" transform="scale(0.015625)"/>
       <path id="DejaVuSans-74" d="M 1172 4494 
L 1172 3500 
L 2356 3500 
L 2356 3053 
L 1172 3053 
L 1172 1153 
Q 1172 725 1289 603 
Q 1406 481 1766 481 
L 2356 481 
L 2356 0 
L 1766 0 
Q 1100 0 847 248 
Q 594 497 594 1153 
L 594 3053 
L 172 3053 
L 172 3500 
L 594 3500 
L 594 4494 
L 1172 4494 
z
" transform="scale(0.015625)"/>
       <path id="DejaVuSans-75" d="M 544 1381 
L 544 3500 
L 1119 3500 
L 1119 1403 
Q 1119 906 1312 657 
Q 1506 409 1894 409 
Q 2359 409 2629 706 
Q 2900 1003 2900 1516 
L 2900 3500 
L 3475 3500 
L 3475 0 
L 2900 0 
L 2900 538 
Q 2691 219 2414 64 
Q 2138 -91 1772 -91 
Q 1169 -91 856 284 
Q 544 659 544 1381 
z
M 1991 3584 
L 1991 3584 
z
" transform="scale(0.015625)"/>
       <path id="DejaVuSans-6c" d="M 603 4863 
L 1178 4863 
L 1178 0 
L 603 0 
L 603 4863 
z
" transform="scale(0.015625)"/>
       <path id="DejaVuSans-73" d="M 2834 3397 
L 2834 2853 
Q 2591 2978 2328 3040 
Q 2066 3103 1784 3103 
Q 1356 3103 1142 2972 
Q 928 2841 928 2578 
Q 928 2378 1081 2264 
Q 1234 2150 1697 2047 
L 1894 2003 
Q 2506 1872 2764 1633 
Q 3022 1394 3022 966 
Q 3022 478 2636 193 
Q 2250 -91 1575 -91 
Q 1294 -91 989 -36 
Q 684 19 347 128 
L 347 722 
Q 666 556 975 473 
Q 1284 391 1588 391 
Q 1994 391 2212 530 
Q 2431 669 2431 922 
Q 2431 1156 2273 1281 
Q 2116 1406 1581 1522 
L 1381 1569 
Q 847 1681 609 1914 
Q 372 2147 372 2553 
Q 372 3047 722 3315 
Q 1072 3584 1716 3584 
Q 2034 3584 2315 3537 
Q 2597 3491 2834 3397 
z
" transform="scale(0.015625)"/>
       <path id="DejaVuSans-4f" d="M 2522 4238 
Q 1834 4238 1429 3725 
Q 1025 3213 1025 2328 
Q 1025 1447 1429 934 
Q 1834 422 2522 422 
Q 3209 422 3611 934 
Q 4013 1447 4013 2328 
Q 4013 3213 3611 3725 
Q 3209 4238 2522 4238 
z
M 2522 4750 
Q 3503 4750 4090 4092 
Q 4678 3434 4678 2328 
Q 4678 1225 4090 567 
Q 3503 -91 2522 -91 
Q 1538 -91 948 565 
Q 359 1222 359 2328 
Q 359 3434 948 4092 
Q 1538 4750 2522 4750 
z
" transform="scale(0.015625)"/>
       <path id="DejaVuSans-6e" d="M 3513 2113 
L 3513 0 
L 2938 0 
L 2938 2094 
Q 2938 2591 2744 2837 
Q 2550 3084 2163 3084 
Q 1697 3084 1428 2787 
Q 1159 2491 1159 1978 
L 1159 0 
L 581 0 
L 581 3500 
L 1159 3500 
L 1159 2956 
Q 1366 3272 1645 3428 
Q 1925 3584 2291 3584 
Q 2894 3584 3203 3211 
Q 3513 2838 3513 2113 
z
" transform="scale(0.015625)"/>
       <path id="DejaVuSans-28" d="M 1984 4856 
Q 1566 4138 1362 3434 
Q 1159 2731 1159 2009 
Q 1159 1288 1364 580 
Q 1569 -128 1984 -844 
L 1484 -844 
Q 1016 -109 783 600 
Q 550 1309 550 2009 
Q 550 2706 781 3412 
Q 1013 4119 1484 4856 
L 1984 4856 
z
" transform="scale(0.015625)"/>
       <path id="DejaVuSans-29" d="M 513 4856 
L 1013 4856 
Q 1481 4119 1714 3412 
Q 1947 2706 1947 2009 
Q 1947 1309 1714 600 
Q 1481 -109 1013 -844 
L 513 -844 
Q 928 -128 1133 580 
Q 1338 1288 1338 2009 
Q 1338 2731 1133 3434 
Q 928 4138 513 4856 
z
" transform="scale(0.015625)"/>
      </defs>
      <use xlink:href="#DejaVuSans-54"/>
      <use xlink:href="#DejaVuSans-69" x="57.958984"/>
      <use xlink:href="#DejaVuSans-6d" x="85.742188"/>
      <use xlink:href="#DejaVuSans-65" x="183.154297"/>
      <use xlink:href="#DejaVuSans-20" x="244.677734"/>
      <use xlink:href="#DejaVuSans-66" x="276.464844"/>
      <use xlink:href="#DejaVuSans-72" x="311.669922"/>
      <use xlink:href="#DejaVuSans-6f" x="350.533203"/>
      <use xlink:href="#DejaVuSans-6d" x="411.714844"/>
      <use xlink:href="#DejaVuSans-20" x="509.126953"/>
      <use xlink:href="#DejaVuSans-53" x="540.914062"/>
      <use xlink:href="#DejaVuSans-74" x="604.390625"/>
      <use xlink:href="#DejaVuSans-69" x="643.599609"/>
      <use xlink:href="#DejaVuSans-6d" x="671.382812"/>
      <use xlink:href="#DejaVuSans-75" x="768.794922"/>
      <use xlink:href="#DejaVuSans-6c" x="832.173828"/>
      <use xlink:href="#DejaVuSans-75" x="859.957031"/>
      <use xlink:href="#DejaVuSans-73" x="923.335938"/>
      <use xlink:href="#DejaVuSans-20" x="975.435547"/>
      <use xlink:href="#DejaVuSans-4f" x="1007.222656"/>
      <use xlink:href="#DejaVuSans-6e" x="1085.933594"/>
      <use xlink:href="#DejaVuSans-73" x="1149.3125"/>
      <use xlink:href="#DejaVuSans-65" x="1201.412109"/>
      <use xlink:href="#DejaVuSans-74" x="1262.935547"/>
      <use xlink:href="#DejaVuSans-20" x="1302.144531"/>
      <use xlink:href="#DejaVuSans-28" x="1333.931641"/>
      <use xlink:href="#DejaVuSans-6d" x="1372.945312"/>
      <use xlink:href="#DejaVuSans-73" x="1470.357422"/>
      <use xlink:href="#DejaVuSans-29" x="1522.457031"/>
     </g>
    </g>
   </g>
   <g id="matplotlib.axis_2">
    <g id="ytick_1">
     <g id="line2d_8">
      <defs>
       <path id="mcf73a8acce" d="M 0 0 
L -3.5 0 
" style="stroke: #000000; stroke-width: 0.8"/>
      </defs>
      <g>
       <use xlink:href="#mcf73a8acce" x="100.8" y="349.924906" style="stroke: #000000; stroke-width: 0.8"/>
      </g>
     </g>
     <g id="text_9">
      <!-- 0.00 -->
      <g transform="translate(58.175 356.003656) scale(0.16 -0.16)">
       <defs>
        <path id="DejaVuSans-2e" d="M 684 794 
L 1344 794 
L 1344 0 
L 684 0 
L 684 794 
z
" transform="scale(0.015625)"/>
       </defs>
       <use xlink:href="#DejaVuSans-30"/>
       <use xlink:href="#DejaVuSans-2e" x="63.623047"/>
       <use xlink:href="#DejaVuSans-30" x="95.410156"/>
       <use xlink:href="#DejaVuSans-30" x="159.033203"/>
      </g>
     </g>
    </g>
    <g id="ytick_2">
     <g id="line2d_9">
      <g>
       <use xlink:href="#mcf73a8acce" x="100.8" y="280.297433" style="stroke: #000000; stroke-width: 0.8"/>
      </g>
     </g>
     <g id="text_10">
      <!-- 0.01 -->
      <g transform="translate(58.175 286.376183) scale(0.16 -0.16)">
       <use xlink:href="#DejaVuSans-30"/>
       <use xlink:href="#DejaVuSans-2e" x="63.623047"/>
       <use xlink:href="#DejaVuSans-30" x="95.410156"/>
       <use xlink:href="#DejaVuSans-31" x="159.033203"/>
      </g>
     </g>
    </g>
    <g id="ytick_3">
     <g id="line2d_10">
      <g>
       <use xlink:href="#mcf73a8acce" x="100.8" y="210.669961" style="stroke: #000000; stroke-width: 0.8"/>
      </g>
     </g>
     <g id="text_11">
      <!-- 0.02 -->
      <g transform="translate(58.175 216.748711) scale(0.16 -0.16)">
       <use xlink:href="#DejaVuSans-30"/>
       <use xlink:href="#DejaVuSans-2e" x="63.623047"/>
       <use xlink:href="#DejaVuSans-30" x="95.410156"/>
       <use xlink:href="#DejaVuSans-32" x="159.033203"/>
      </g>
     </g>
    </g>
    <g id="ytick_4">
     <g id="line2d_11">
      <g>
       <use xlink:href="#mcf73a8acce" x="100.8" y="141.042489" style="stroke: #000000; stroke-width: 0.8"/>
      </g>
     </g>
     <g id="text_12">
      <!-- 0.03 -->
      <g transform="translate(58.175 147.121239) scale(0.16 -0.16)">
       <use xlink:href="#DejaVuSans-30"/>
       <use xlink:href="#DejaVuSans-2e" x="63.623047"/>
       <use xlink:href="#DejaVuSans-30" x="95.410156"/>
       <use xlink:href="#DejaVuSans-33" x="159.033203"/>
      </g>
     </g>
    </g>
    <g id="ytick_5">
     <g id="line2d_12">
      <g>
       <use xlink:href="#mcf73a8acce" x="100.8" y="71.415016" style="stroke: #000000; stroke-width: 0.8"/>
      </g>
     </g>
     <g id="text_13">
      <!-- 0.04 -->
      <g transform="translate(58.175 77.493766) scale(0.16 -0.16)">
       <use xlink:href="#DejaVuSans-30"/>
       <use xlink:href="#DejaVuSans-2e" x="63.623047"/>
       <use xlink:href="#DejaVuSans-30" x="95.410156"/>
       <use xlink:href="#DejaVuSans-34" x="159.033203"/>
      </g>
     </g>
    </g>
    <g id="text_14">
     <!-- Directed predictability gain (bits) -->
     <g transform="translate(50.431562 364.685625) rotate(-90) scale(0.18 -0.18)">
      <defs>
       <path id="DejaVuSans-44" d="M 1259 4147 
L 1259 519 
L 2022 519 
Q 2988 519 3436 956 
Q 3884 1394 3884 2338 
Q 3884 3275 3436 3711 
Q 2988 4147 2022 4147 
L 1259 4147 
z
M 628 4666 
L 1925 4666 
Q 3281 4666 3915 4102 
Q 4550 3538 4550 2338 
Q 4550 1131 3912 565 
Q 3275 0 1925 0 
L 628 0 
L 628 4666 
z
" transform="scale(0.015625)"/>
       <path id="DejaVuSans-63" d="M 3122 3366 
L 3122 2828 
Q 2878 2963 2633 3030 
Q 2388 3097 2138 3097 
Q 1578 3097 1268 2742 
Q 959 2388 959 1747 
Q 959 1106 1268 751 
Q 1578 397 2138 397 
Q 2388 397 2633 464 
Q 2878 531 3122 666 
L 3122 134 
Q 2881 22 2623 -34 
Q 2366 -91 2075 -91 
Q 1284 -91 818 406 
Q 353 903 353 1747 
Q 353 2603 823 3093 
Q 1294 3584 2113 3584 
Q 2378 3584 2631 3529 
Q 2884 3475 3122 3366 
z
" transform="scale(0.015625)"/>
       <path id="DejaVuSans-64" d="M 2906 2969 
L 2906 4863 
L 3481 4863 
L 3481 0 
L 2906 0 
L 2906 525 
Q 2725 213 2448 61 
Q 2172 -91 1784 -91 
Q 1150 -91 751 415 
Q 353 922 353 1747 
Q 353 2572 751 3078 
Q 1150 3584 1784 3584 
Q 2172 3584 2448 3432 
Q 2725 3281 2906 2969 
z
M 947 1747 
Q 947 1113 1208 752 
Q 1469 391 1925 391 
Q 2381 391 2643 752 
Q 2906 1113 2906 1747 
Q 2906 2381 2643 2742 
Q 2381 3103 1925 3103 
Q 1469 3103 1208 2742 
Q 947 2381 947 1747 
z
" transform="scale(0.015625)"/>
       <path id="DejaVuSans-70" d="M 1159 525 
L 1159 -1331 
L 581 -1331 
L 581 3500 
L 1159 3500 
L 1159 2969 
Q 1341 3281 1617 3432 
Q 1894 3584 2278 3584 
Q 2916 3584 3314 3078 
Q 3713 2572 3713 1747 
Q 3713 922 3314 415 
Q 2916 -91 2278 -91 
Q 1894 -91 1617 61 
Q 1341 213 1159 525 
z
M 3116 1747 
Q 3116 2381 2855 2742 
Q 2594 3103 2138 3103 
Q 1681 3103 1420 2742 
Q 1159 2381 1159 1747 
Q 1159 1113 1420 752 
Q 1681 391 2138 391 
Q 2594 391 2855 752 
Q 3116 1113 3116 1747 
z
" transform="scale(0.015625)"/>
       <path id="DejaVuSans-61" d="M 2194 1759 
Q 1497 1759 1228 1600 
Q 959 1441 959 1056 
Q 959 750 1161 570 
Q 1363 391 1709 391 
Q 2188 391 2477 730 
Q 2766 1069 2766 1631 
L 2766 1759 
L 2194 1759 
z
M 3341 1997 
L 3341 0 
L 2766 0 
L 2766 531 
Q 2569 213 2275 61 
Q 1981 -91 1556 -91 
Q 1019 -91 701 211 
Q 384 513 384 1019 
Q 384 1609 779 1909 
Q 1175 2209 1959 2209 
L 2766 2209 
L 2766 2266 
Q 2766 2663 2505 2880 
Q 2244 3097 1772 3097 
Q 1472 3097 1187 3025 
Q 903 2953 641 2809 
L 641 3341 
Q 956 3463 1253 3523 
Q 1550 3584 1831 3584 
Q 2591 3584 2966 3190 
Q 3341 2797 3341 1997 
z
" transform="scale(0.015625)"/>
       <path id="DejaVuSans-62" d="M 3116 1747 
Q 3116 2381 2855 2742 
Q 2594 3103 2138 3103 
Q 1681 3103 1420 2742 
Q 1159 2381 1159 1747 
Q 1159 1113 1420 752 
Q 1681 391 2138 391 
Q 2594 391 2855 752 
Q 3116 1113 3116 1747 
z
M 1159 2969 
Q 1341 3281 1617 3432 
Q 1894 3584 2278 3584 
Q 2916 3584 3314 3078 
Q 3713 2572 3713 1747 
Q 3713 922 3314 415 
Q 2916 -91 2278 -91 
Q 1894 -91 1617 61 
Q 1341 213 1159 525 
L 1159 0 
L 581 0 
L 581 4863 
L 1159 4863 
L 1159 2969 
z
" transform="scale(0.015625)"/>
       <path id="DejaVuSans-79" d="M 2059 -325 
Q 1816 -950 1584 -1140 
Q 1353 -1331 966 -1331 
L 506 -1331 
L 506 -850 
L 844 -850 
Q 1081 -850 1212 -737 
Q 1344 -625 1503 -206 
L 1606 56 
L 191 3500 
L 800 3500 
L 1894 763 
L 2988 3500 
L 3597 3500 
L 2059 -325 
z
" transform="scale(0.015625)"/>
       <path id="DejaVuSans-67" d="M 2906 1791 
Q 2906 2416 2648 2759 
Q 2391 3103 1925 3103 
Q 1463 3103 1205 2759 
Q 947 2416 947 1791 
Q 947 1169 1205 825 
Q 1463 481 1925 481 
Q 2391 481 2648 825 
Q 2906 1169 2906 1791 
z
M 3481 434 
Q 3481 -459 3084 -895 
Q 2688 -1331 1869 -1331 
Q 1566 -1331 1297 -1286 
Q 1028 -1241 775 -1147 
L 775 -588 
Q 1028 -725 1275 -790 
Q 1522 -856 1778 -856 
Q 2344 -856 2625 -561 
Q 2906 -266 2906 331 
L 2906 616 
Q 2728 306 2450 153 
Q 2172 0 1784 0 
Q 1141 0 747 490 
Q 353 981 353 1791 
Q 353 2603 747 3093 
Q 1141 3584 1784 3584 
Q 2172 3584 2450 3431 
Q 2728 3278 2906 2969 
L 2906 3500 
L 3481 3500 
L 3481 434 
z
" transform="scale(0.015625)"/>
      </defs>
      <use xlink:href="#DejaVuSans-44"/>
      <use xlink:href="#DejaVuSans-69" x="77.001953"/>
      <use xlink:href="#DejaVuSans-72" x="104.785156"/>
      <use xlink:href="#DejaVuSans-65" x="143.648438"/>
      <use xlink:href="#DejaVuSans-63" x="205.171875"/>
      <use xlink:href="#DejaVuSans-74" x="260.152344"/>
      <use xlink:href="#DejaVuSans-65" x="299.361328"/>
      <use xlink:href="#DejaVuSans-64" x="360.884766"/>
      <use xlink:href="#DejaVuSans-20" x="424.361328"/>
      <use xlink:href="#DejaVuSans-70" x="456.148438"/>
      <use xlink:href="#DejaVuSans-72" x="519.625"/>
      <use xlink:href="#DejaVuSans-65" x="558.488281"/>
      <use xlink:href="#DejaVuSans-64" x="620.011719"/>
      <use xlink:href="#DejaVuSans-69" x="683.488281"/>
      <use xlink:href="#DejaVuSans-63" x="711.271484"/>
      <use xlink:href="#DejaVuSans-74" x="766.251953"/>
      <use xlink:href="#DejaVuSans-61" x="805.460938"/>
      <use xlink:href="#DejaVuSans-62" x="866.740234"/>
      <use xlink:href="#DejaVuSans-69" x="930.216797"/>
      <use xlink:href="#DejaVuSans-6c" x="958"/>
      <use xlink:href="#DejaVuSans-69" x="985.783203"/>
      <use xlink:href="#DejaVuSans-74" x="1013.566406"/>
      <use xlink:href="#DejaVuSans-79" x="1052.775391"/>
      <use xlink:href="#DejaVuSans-20" x="1111.955078"/>
      <use xlink:href="#DejaVuSans-67" x="1143.742188"/>
      <use xlink:href="#DejaVuSans-61" x="1207.21875"/>
      <use xlink:href="#DejaVuSans-69" x="1268.498047"/>
      <use xlink:href="#DejaVuSans-6e" x="1296.28125"/>
      <use xlink:href="#DejaVuSans-20" x="1359.660156"/>
      <use xlink:href="#DejaVuSans-28" x="1391.447266"/>
      <use xlink:href="#DejaVuSans-62" x="1430.460938"/>
      <use xlink:href="#DejaVuSans-69" x="1493.9375"/>
      <use xlink:href="#DejaVuSans-74" x="1521.720703"/>
      <use xlink:href="#DejaVuSans-73" x="1560.929688"/>
      <use xlink:href="#DejaVuSans-29" x="1613.029297"/>
     </g>
    </g>
   </g>
   <g id="line2d_13">
    <path d="M 220.8 396 
L 220.8 36 
" clip-path="url(#pdfe077fe98)" style="fill: none; stroke-dasharray: 2.96,1.28; stroke-dashoffset: 0; stroke: #000000; stroke-width: 0.8"/>
   </g>
   <g id="line2d_14">
    <path d="M 100.8 349.924906 
L 820.8 349.924906 
" clip-path="url(#pdfe077fe98)" style="fill: none; stroke-dasharray: 0.8,1.32; stroke-dashoffset: 0; stroke: #000000; stroke-width: 0.8"/>
   </g>
   <g id="line2d_15">
    <path d="M -1 361.678343 
L 4.8 354.420943 
L 16.800002 346.745604 
L 28.8 326.295303 
L 40.800002 322.112685 
L 52.800004 330.389436 
L 64.800001 340.886953 
L 76.800001 349.664572 
L 88.800001 350.572762 
L 100.8 357.845259 
L 112.8 344.171336 
L 124.8 338.219374 
L 136.8 332.952082 
L 148.799999 342.436096 
L 160.8 336.654056 
L 172.8 338.836359 
L 184.8 344.037229 
L 196.8 351.197466 
L 208.8 346.271606 
L 220.8 346.369562 
L 232.8 337.885763 
L 244.8 339.093481 
L 256.8 334.522584 
L 268.8 326.427144 
L 280.8 332.765524 
L 292.800001 334.155502 
L 304.8 348.239613 
L 316.8 339.107829 
L 328.8 340.389752 
L 340.8 345.525822 
L 352.799999 348.122239 
L 364.799999 342.053361 
L 376.799999 332.221384 
L 388.799996 333.293929 
L 400.799998 315.084001 
L 412.8 304.509595 
L 424.799998 287.933314 
L 436.8 287.8108 
L 448.800002 300.819001 
L 460.799999 298.808436 
L 472.800001 297.464645 
L 484.800003 277.357865 
L 496.800001 267.84406 
L 508.800003 261.671712 
L 520.8 266.637377 
L 532.799997 275.691537 
L 544.800004 277.213382 
L 556.800001 254.199795 
L 568.799999 237.426001 
L 580.800005 223.899026 
L 592.800003 191.920559 
L 604.799991 190.628023 
L 616.799998 185.447363 
L 628.800004 177.614024 
L 640.799993 166.948839 
L 652.799999 168.494535 
L 664.800006 190.837025 
L 676.799994 165.884081 
L 688.800001 151.857151 
L 700.800007 161.138853 
L 712.799996 169.727441 
L 724.800002 165.738693 
L 736.800009 128.651571 
L 748.799997 119.820239 
L 760.799995 128.662891 
L 772.800001 183.484678 
L 784.799999 233.213969 
L 796.799996 264.277942 
L 808.800003 272.123347 
L 820.8 266.706698 
L 832.799989 274.45163 
L 844.799977 295.731046 
L 856.800001 302.873866 
L 857.8 303.162502 
" clip-path="url(#pdfe077fe98)" style="fill: none; stroke: #0e87cc; stroke-width: 2.5; stroke-linecap: square"/>
   </g>
   <g id="line2d_16">
    <path d="M -1 356.660001 
L 4.8 358.498908 
L 16.800002 348.95353 
L 28.8 342.858253 
L 40.800002 333.917451 
L 52.800004 335.684713 
L 64.800001 343.251839 
L 76.800001 348.402547 
L 88.800001 349.538384 
L 100.8 341.470183 
L 112.8 345.048176 
L 124.8 343.175684 
L 136.8 344.253593 
L 148.799999 332.31269 
L 160.8 342.359367 
L 172.8 337.420085 
L 184.8 342.160733 
L 196.8 336.569904 
L 208.8 350.716958 
L 220.8 354.927205 
L 232.8 362.134297 
L 244.8 339.64048 
L 256.8 331.495213 
L 268.8 318.776457 
L 280.8 334.285793 
L 292.800001 335.445321 
L 304.8 338.896921 
L 316.8 338.950084 
L 328.8 340.542606 
L 340.8 335.809392 
L 352.799999 328.461239 
L 364.799999 330.463703 
L 376.799999 333.781082 
L 388.799996 339.677384 
L 400.799998 343.913335 
L 412.8 356.502991 
L 424.799998 361.691718 
L 436.8 346.011149 
L 448.800002 339.366798 
L 460.799999 328.797883 
L 472.800001 339.625379 
L 484.800003 330.377821 
L 496.800001 342.084404 
L 508.800003 335.724714 
L 520.8 350.313881 
L 532.799997 341.976209 
L 544.800004 350.346785 
L 556.800001 333.831414 
L 568.799999 330.124219 
L 580.800005 323.512304 
L 592.800003 327.862929 
L 604.799991 320.068305 
L 616.799998 317.477713 
L 628.800004 305.360042 
L 640.799993 298.670059 
L 652.799999 289.883052 
L 664.800006 280.705601 
L 676.799994 279.116338 
L 688.800001 285.063593 
L 700.800007 273.976875 
L 712.799996 260.271243 
L 724.800002 229.793304 
L 736.800009 225.311837 
L 748.799997 226.575184 
L 760.799995 207.242037 
L 772.800001 223.97133 
L 784.799999 229.892389 
L 796.799996 257.950352 
L 808.800003 252.477685 
L 820.8 258.344732 
L 832.799989 242.435289 
L 844.799977 253.636646 
L 856.800001 238.584297 
L 857.8 239.694276 
" clip-path="url(#pdfe077fe98)" style="fill: none; stroke: #c00a37; stroke-width: 2.5; stroke-linecap: square"/>
   </g>
   <g id="patch_3">
    <path d="M 100.8 396 
L 100.8 36 
" style="fill: none; stroke: #000000; stroke-width: 0.8; stroke-linejoin: miter; stroke-linecap: square"/>
   </g>
   <g id="patch_4">
    <path d="M 820.8 396 
L 820.8 36 
" style="fill: none; stroke: #000000; stroke-width: 0.8; stroke-linejoin: miter; stroke-linecap: square"/>
   </g>
   <g id="patch_5">
    <path d="M 100.8 396 
L 820.8 396 
" style="fill: none; stroke: #000000; stroke-width: 0.8; stroke-linejoin: miter; stroke-linecap: square"/>
   </g>
   <g id="patch_6">
    <path d="M 100.8 36 
L 820.8 36 
" style="fill: none; stroke: #000000; stroke-width: 0.8; stroke-linejoin: miter; stroke-linecap: square"/>
   </g>
   <g id="PathCollection_1">
    <defs>
     <path id="mf5c2ac3d16" d="M 0 1.870829 
C 0.49615 1.870829 0.972045 1.673706 1.322876 1.322876 
C 1.673706 0.972045 1.870829 0.49615 1.870829 0 
C 1.870829 -0.49615 1.673706 -0.972045 1.322876 -1.322876 
C 0.972045 -1.673706 0.49615 -1.870829 0 -1.870829 
C -0.49615 -1.870829 -0.972045 -1.673706 -1.322876 -1.322876 
C -1.673706 -0.972045 -1.870829 -0.49615 -1.870829 0 
C -1.870829 0.49615 -1.673706 0.972045 -1.322876 1.322876 
C -0.972045 1.673706 -0.49615 1.870829 0 1.870829 
z
" style="stroke: #0e87cc"/>
    </defs>
    <g clip-path="url(#pdfe077fe98)">
     <use xlink:href="#mf5c2ac3d16" x="232.8" y="378" style="fill: #0e87cc; stroke: #0e87cc"/>
     <use xlink:href="#mf5c2ac3d16" x="400.799998" y="378" style="fill: #0e87cc; stroke: #0e87cc"/>
     <use xlink:href="#mf5c2ac3d16" x="412.8" y="378" style="fill: #0e87cc; stroke: #0e87cc"/>
     <use xlink:href="#mf5c2ac3d16" x="424.799998" y="378" style="fill: #0e87cc; stroke: #0e87cc"/>
     <use xlink:href="#mf5c2ac3d16" x="436.8" y="378" style="fill: #0e87cc; stroke: #0e87cc"/>
     <use xlink:href="#mf5c2ac3d16" x="448.800002" y="378" style="fill: #0e87cc; stroke: #0e87cc"/>
     <use xlink:href="#mf5c2ac3d16" x="520.8" y="378" style="fill: #0e87cc; stroke: #0e87cc"/>
     <use xlink:href="#mf5c2ac3d16" x="544.800004" y="378" style="fill: #0e87cc; stroke: #0e87cc"/>
     <use xlink:href="#mf5c2ac3d16" x="748.799997" y="378" style="fill: #0e87cc; stroke: #0e87cc"/>
     <use xlink:href="#mf5c2ac3d16" x="760.799995" y="378" style="fill: #0e87cc; stroke: #0e87cc"/>
     <use xlink:href="#mf5c2ac3d16" x="772.800001" y="378" style="fill: #0e87cc; stroke: #0e87cc"/>
    </g>
   </g>
   <g id="PathCollection_2">
    <defs>
     <path id="m7e024e5bce" d="M 0 1.870829 
C 0.49615 1.870829 0.972045 1.673706 1.322876 1.322876 
C 1.673706 0.972045 1.870829 0.49615 1.870829 0 
C 1.870829 -0.49615 1.673706 -0.972045 1.322876 -1.322876 
C 0.972045 -1.673706 0.49615 -1.870829 0 -1.870829 
C -0.49615 -1.870829 -0.972045 -1.673706 -1.322876 -1.322876 
C -1.673706 -0.972045 -1.870829 -0.49615 -1.870829 0 
C -1.870829 0.49615 -1.673706 0.972045 -1.322876 1.322876 
C -0.972045 1.673706 -0.49615 1.870829 0 1.870829 
z
" style="stroke: #c00a37"/>
    </defs>
    <g clip-path="url(#pdfe077fe98)">
     <use xlink:href="#m7e024e5bce" x="856.800001" y="378" style="fill: #c00a37; stroke: #c00a37"/>
     <use xlink:href="#m7e024e5bce" x="880.800014" y="378" style="fill: #c00a37; stroke: #c00a37"/>
     <use xlink:href="#m7e024e5bce" x="892.800003" y="378" style="fill: #c00a37; stroke: #c00a37"/>
    </g>
   </g>
   <g id="legend_1">
    <g id="line2d_17">
     <path d="M 114.3 55.647656 
L 129.3 55.647656 
L 144.3 55.647656 
" style="fill: none; stroke: #0e87cc; stroke-width: 2.5; stroke-linecap: square"/>
    </g>
    <g id="text_15">
     <!-- MFEF→MLIP -->
     <g transform="translate(156.3 60.897656) scale(0.15 -0.15)">
      <defs>
       <path id="DejaVuSans-4d" d="M 628 4666 
L 1569 4666 
L 2759 1491 
L 3956 4666 
L 4897 4666 
L 4897 0 
L 4281 0 
L 4281 4097 
L 3078 897 
L 2444 897 
L 1241 4097 
L 1241 0 
L 628 0 
L 628 4666 
z
" transform="scale(0.015625)"/>
       <path id="DejaVuSans-46" d="M 628 4666 
L 3309 4666 
L 3309 4134 
L 1259 4134 
L 1259 2759 
L 3109 2759 
L 3109 2228 
L 1259 2228 
L 1259 0 
L 628 0 
L 628 4666 
z
" transform="scale(0.015625)"/>
       <path id="DejaVuSans-45" d="M 628 4666 
L 3578 4666 
L 3578 4134 
L 1259 4134 
L 1259 2753 
L 3481 2753 
L 3481 2222 
L 1259 2222 
L 1259 531 
L 3634 531 
L 3634 0 
L 628 0 
L 628 4666 
z
" transform="scale(0.015625)"/>
       <path id="DejaVuSans-2192" d="M 5050 2147 
L 5050 1866 
L 3822 638 
L 3447 1013 
L 4175 1741 
L 366 1741 
L 366 2272 
L 4175 2272 
L 3447 3000 
L 3822 3375 
L 5050 2147 
z
" transform="scale(0.015625)"/>
       <path id="DejaVuSans-4c" d="M 628 4666 
L 1259 4666 
L 1259 531 
L 3531 531 
L 3531 0 
L 628 0 
L 628 4666 
z
" transform="scale(0.015625)"/>
       <path id="DejaVuSans-49" d="M 628 4666 
L 1259 4666 
L 1259 0 
L 628 0 
L 628 4666 
z
" transform="scale(0.015625)"/>
       <path id="DejaVuSans-50" d="M 1259 4147 
L 1259 2394 
L 2053 2394 
Q 2494 2394 2734 2622 
Q 2975 2850 2975 3272 
Q 2975 3691 2734 3919 
Q 2494 4147 2053 4147 
L 1259 4147 
z
M 628 4666 
L 2053 4666 
Q 2838 4666 3239 4311 
Q 3641 3956 3641 3272 
Q 3641 2581 3239 2228 
Q 2838 1875 2053 1875 
L 1259 1875 
L 1259 0 
L 628 0 
L 628 4666 
z
" transform="scale(0.015625)"/>
      </defs>
      <use xlink:href="#DejaVuSans-4d"/>
      <use xlink:href="#DejaVuSans-46" x="86.279297"/>
      <use xlink:href="#DejaVuSans-45" x="143.798828"/>
      <use xlink:href="#DejaVuSans-46" x="206.982422"/>
      <use xlink:href="#DejaVuSans-2192" x="264.501953"/>
      <use xlink:href="#DejaVuSans-4d" x="348.291016"/>
      <use xlink:href="#DejaVuSans-4c" x="434.570312"/>
      <use xlink:href="#DejaVuSans-49" x="490.283203"/>
      <use xlink:href="#DejaVuSans-50" x="519.775391"/>
     </g>
    </g>
    <g id="line2d_18">
     <path d="M 114.3 77.664844 
L 129.3 77.664844 
L 144.3 77.664844 
" style="fill: none; stroke: #c00a37; stroke-width: 2.5; stroke-linecap: square"/>
    </g>
    <g id="text_16">
     <!-- MLIP→MFEF -->
     <g transform="translate(156.3 82.914844) scale(0.15 -0.15)">
      <use xlink:href="#DejaVuSans-4d"/>
      <use xlink:href="#DejaVuSans-4c" x="86.279297"/>
      <use xlink:href="#DejaVuSans-49" x="141.992188"/>
      <use xlink:href="#DejaVuSans-50" x="171.484375"/>
      <use xlink:href="#DejaVuSans-2192" x="231.787109"/>
      <use xlink:href="#DejaVuSans-4d" x="315.576172"/>
      <use xlink:href="#DejaVuSans-46" x="401.855469"/>
      <use xlink:href="#DejaVuSans-45" x="459.375"/>
      <use xlink:href="#DejaVuSans-46" x="522.558594"/>
     </g>
    </g>
   </g>
  </g>
 </g>
 <defs>
  <clipPath id="pdfe077fe98">
   <rect x="100.8" y="36" width="720" height="360"/>
  </clipPath>
 </defs>
</svg>
