<?xml version="1.0" encoding="utf-8" standalone="no"?>
<!DOCTYPE svg PUBLIC "-//W3C//DTD SVG 1.1//EN"
  "http://www.w3.org/Graphics/SVG/1.1/DTD/svg11.dtd">
<svg xmlns:xlink="http://www.w3.org/1999/xlink" width="561.6pt" height="561.6pt" viewBox="0 0 561.6 561.6" xmlns="http://www.w3.org/2000/svg" version="1.1">
 <metadata>
  <rdf:RDF xmlns:dc="http://purl.org/dc/elements/1.1/" xmlns:cc="http://creativecommons.org/ns#" xmlns:rdf="http://www.w3.org/1999/02/22-rdf-syntax-ns#">
   <cc:Work>
    <dc:type rdf:resource="http://purl.org/dc/dcmitype/StillImage"/>
    <dc:date>2025-12-06T19:19:55.367519</dc:date>
    <dc:format>image/svg+xml</dc:format>
    <dc:creator>
     <cc:Agent>
      <dc:title>Matplotlib v3.10.5, https://matplotlib.org/</dc:title>
     </cc:Agent>
    </dc:creator>
   </cc:Work>
  </rdf:RDF>
 </metadata>
 <defs>
  <style type="text/css">*{stroke-linejoin: round; stroke-linecap: butt}</style>
 </defs>
 <g id="figure_1">
  <g id="patch_1">
   <path d="M 0 561.6 
L 561.6 561.6 
L 561.6 0 
L 0 0 
z
" style="fill: #ffffff"/>
  </g>
  <g id="axes_1">
   <g id="patch_2">
    <path d="M 70.2 206.388 
L 505.44 206.388 
L 505.44 67.392 
L 70.2 67.392 
z
" style="fill: #ffffff"/>
   </g>
   <g id="FillBetweenPolyCollection_1">
    <defs>
     <path id="mcb41836a36" d="M 89.983636 -447.537261 
L 89.983636 -385.591002 
L 93.980327 -379.989242 
L 97.977023 -374.278471 
L 101.973713 -374.896937 
L 105.97041 -371.355857 
L 109.967106 -376.610995 
L 113.963796 -373.704226 
L 117.960493 -377.82926 
L 121.957186 -380.327384 
L 125.953882 -376.709212 
L 129.950576 -377.343713 
L 133.947269 -381.850105 
L 137.943962 -371.895376 
L 141.940659 -371.065152 
L 145.937352 -375.635966 
L 149.934045 -374.347891 
L 153.93074 -375.647486 
L 157.927434 -374.201504 
L 161.924129 -373.139761 
L 165.920823 -374.66733 
L 169.917517 -372.27504 
L 173.914211 -374.38187 
L 177.910906 -384.531992 
L 181.9076 -378.428587 
L 185.904294 -375.62552 
L 189.900988 -373.399464 
L 193.897681 -376.537851 
L 197.894377 -377.660743 
L 201.891071 -371.836414 
L 205.887764 -374.065997 
L 209.884457 -375.43639 
L 213.881154 -376.171402 
L 217.877847 -373.300774 
L 221.874543 -374.004677 
L 225.871234 -375.606826 
L 229.86793 -376.299252 
L 233.864626 -377.097691 
L 237.861317 -374.267674 
L 241.858013 -376.281181 
L 245.854704 -377.960183 
L 249.8514 -376.341147 
L 253.848096 -379.718472 
L 257.844787 -373.512347 
L 261.841483 -377.374473 
L 265.838179 -376.576319 
L 269.83487 -375.767777 
L 273.83156 -375.412229 
L 277.828262 -380.997195 
L 281.824953 -371.682195 
L 285.821643 -372.490276 
L 289.818345 -373.420945 
L 293.815036 -374.13737 
L 297.811726 -377.131431 
L 301.808428 -376.30464 
L 305.805119 -377.505734 
L 309.801809 -377.605378 
L 313.798511 -373.052233 
L 317.795202 -374.854952 
L 321.791892 -370.909133 
L 325.788594 -374.214926 
L 329.785285 -373.638156 
L 333.781975 -374.835364 
L 337.778677 -372.850016 
L 341.775368 -376.017022 
L 345.772058 -372.768359 
L 349.76876 -377.128738 
L 353.765451 -374.119905 
L 357.762141 -380.301959 
L 361.758843 -377.395965 
L 365.755534 -376.710248 
L 369.752224 -376.848795 
L 373.748914 -370.847936 
L 377.745605 -375.675955 
L 381.742319 -373.534504 
L 385.739009 -372.333792 
L 389.7357 -378.041756 
L 393.73239 -398.522587 
L 397.72908 -375.318187 
L 401.725771 -376.877267 
L 405.722485 -375.877669 
L 409.719175 -375.206386 
L 413.715866 -377.751175 
L 417.712556 -373.943615 
L 421.709246 -372.888625 
L 425.705937 -374.323494 
L 429.702627 -374.995868 
L 433.699341 -377.729978 
L 437.696032 -376.688751 
L 441.692722 -377.021926 
L 445.689412 -370.554295 
L 449.686103 -380.726317 
L 453.682793 -377.329835 
L 457.679507 -373.340954 
L 461.676198 -374.178568 
L 465.672888 -377.752213 
L 469.669578 -375.566423 
L 473.666269 -375.403663 
L 477.662959 -373.900794 
L 481.659673 -376.350591 
L 485.656364 -375.138341 
L 485.656364 -428.901681 
L 485.656364 -428.901681 
L 481.659673 -435.352452 
L 477.662959 -427.377596 
L 473.666269 -427.019754 
L 469.669578 -429.058092 
L 465.672888 -433.498836 
L 461.676198 -426.488228 
L 457.679507 -432.609234 
L 453.682793 -432.055663 
L 449.686103 -451.445444 
L 445.689412 -412.070493 
L 441.692722 -437.590922 
L 437.696032 -438.04911 
L 433.699341 -436.868108 
L 429.702627 -426.740894 
L 425.705937 -437.447092 
L 421.709246 -425.375109 
L 417.712556 -432.36553 
L 413.715866 -435.346492 
L 409.719175 -434.247792 
L 405.722485 -431.661154 
L 401.725771 -447.477597 
L 397.72908 -426.543182 
L 393.73239 -454.913601 
L 389.7357 -438.507394 
L 385.739009 -431.954673 
L 381.742319 -432.071052 
L 377.745605 -431.10917 
L 373.748914 -427.90506 
L 369.752224 -433.416459 
L 365.755534 -434.072095 
L 361.758843 -434.859411 
L 357.762141 -443.937295 
L 353.765451 -437.995951 
L 349.76876 -439.565107 
L 345.772058 -433.745227 
L 341.775368 -436.991467 
L 337.778677 -423.186562 
L 333.781975 -437.298238 
L 329.785285 -426.583612 
L 325.788594 -424.35821 
L 321.791892 -428.417454 
L 317.795202 -421.228808 
L 313.798511 -429.058806 
L 309.801809 -433.660352 
L 305.805119 -433.011867 
L 301.808428 -432.558879 
L 297.811726 -438.849831 
L 293.815036 -430.022052 
L 289.818345 -433.910333 
L 285.821643 -421.748012 
L 281.824953 -425.864983 
L 277.828262 -437.534941 
L 273.83156 -434.180934 
L 269.83487 -436.645335 
L 265.838179 -436.48003 
L 261.841483 -435.765387 
L 257.844787 -435.293831 
L 253.848096 -439.714677 
L 249.8514 -432.2812 
L 245.854704 -436.206476 
L 241.858013 -436.476336 
L 237.861317 -429.519866 
L 233.864626 -436.068507 
L 229.86793 -425.857675 
L 225.871234 -431.630895 
L 221.874543 -432.425397 
L 217.877847 -425.438899 
L 213.881154 -438.070575 
L 209.884457 -428.470076 
L 205.887764 -435.833741 
L 201.891071 -428.90647 
L 197.894377 -440.464604 
L 193.897681 -443.181533 
L 189.900988 -426.391582 
L 185.904294 -430.367759 
L 181.9076 -446.362027 
L 177.910906 -451.689976 
L 173.914211 -434.05765 
L 169.917517 -428.216509 
L 165.920823 -429.739387 
L 161.924129 -431.059424 
L 157.927434 -425.94585 
L 153.93074 -433.177867 
L 149.934045 -436.579254 
L 145.937352 -433.062918 
L 141.940659 -426.79818 
L 137.943962 -432.749076 
L 133.947269 -445.335901 
L 129.950576 -438.889795 
L 125.953882 -436.381927 
L 121.957186 -434.652282 
L 117.960493 -438.940942 
L 113.963796 -418.864958 
L 109.967106 -434.247753 
L 105.97041 -439.520241 
L 101.973713 -435.450747 
L 97.977023 -439.66083 
L 93.980327 -438.792867 
L 89.983636 -447.537261 
z
"/>
    </defs>
    <g clip-path="url(#p0bf7bd7468)">
     <use xlink:href="#mcb41836a36" x="0" y="561.6" style="fill: #1f77b4; fill-opacity: 0.15"/>
    </g>
   </g>
   <g id="FillBetweenPolyCollection_2">
    <defs>
     <path id="m5572ab8715" d="M 89.983636 -449.531216 
L 89.983636 -378.557215 
L 93.980327 -376.191734 
L 97.977023 -373.918651 
L 101.973713 -382.752005 
L 105.97041 -375.336644 
L 109.967106 -377.472705 
L 113.963796 -375.391205 
L 117.960493 -374.74903 
L 121.957186 -374.20087 
L 125.953882 -371.34409 
L 129.950576 -374.554469 
L 133.947269 -379.977992 
L 137.943962 -382.074638 
L 141.940659 -380.935797 
L 145.937352 -374.399446 
L 149.934045 -370.952381 
L 153.93074 -377.66387 
L 157.927434 -376.930326 
L 161.924129 -377.757236 
L 165.920823 -373.081596 
L 169.917517 -377.441822 
L 173.914211 -373.301067 
L 177.910906 -374.277328 
L 181.9076 -376.497653 
L 185.904294 -375.103927 
L 189.900988 -375.650138 
L 193.897681 -381.731344 
L 197.894377 -378.110834 
L 201.891071 -375.324773 
L 205.887764 -378.261435 
L 209.884457 -374.598946 
L 213.881154 -371.190438 
L 217.877847 -372.195288 
L 221.874543 -371.703385 
L 225.871234 -374.793912 
L 229.86793 -375.113133 
L 233.864626 -373.411598 
L 237.861317 -373.630987 
L 241.858013 -372.832974 
L 245.854704 -373.621037 
L 249.8514 -378.386135 
L 253.848096 -378.640541 
L 257.844787 -377.804042 
L 261.841483 -373.704807 
L 265.838179 -374.147598 
L 269.83487 -371.605797 
L 273.83156 -373.10307 
L 277.828262 -374.826755 
L 281.824953 -374.717766 
L 285.821643 -377.286138 
L 289.818345 -373.247359 
L 293.815036 -372.399162 
L 297.811726 -375.895822 
L 301.808428 -372.745499 
L 305.805119 -376.167097 
L 309.801809 -374.54606 
L 313.798511 -376.372046 
L 317.795202 -383.67432 
L 321.791892 -377.137488 
L 325.788594 -375.105981 
L 329.785285 -378.062735 
L 333.781975 -375.01039 
L 337.778677 -378.127092 
L 341.775368 -379.39707 
L 345.772058 -378.08931 
L 349.76876 -373.212964 
L 353.765451 -372.163304 
L 357.762141 -375.016107 
L 361.758843 -374.927996 
L 365.755534 -375.526286 
L 369.752224 -374.79685 
L 373.748914 -369.506306 
L 377.745605 -372.957719 
L 381.742319 -374.646883 
L 385.739009 -373.805002 
L 389.7357 -376.904385 
L 393.73239 -379.625778 
L 397.72908 -375.80153 
L 401.725771 -371.327657 
L 405.722485 -374.983153 
L 409.719175 -375.027747 
L 413.715866 -370.197816 
L 417.712556 -380.52928 
L 421.709246 -375.062729 
L 425.705937 -377.422397 
L 429.702627 -377.71752 
L 433.699341 -374.923614 
L 437.696032 -374.09612 
L 441.692722 -375.395269 
L 445.689412 -374.464428 
L 449.686103 -372.624165 
L 453.682793 -370.728714 
L 457.679507 -375.001315 
L 461.676198 -373.375097 
L 465.672888 -379.925177 
L 469.669578 -378.428683 
L 473.666269 -376.297113 
L 477.662959 -374.38315 
L 481.659673 -373.751356 
L 485.656364 -374.715805 
L 485.656364 -437.623391 
L 485.656364 -437.623391 
L 481.659673 -423.244081 
L 477.662959 -428.400926 
L 473.666269 -437.696235 
L 469.669578 -445.420473 
L 465.672888 -434.145182 
L 461.676198 -436.127256 
L 457.679507 -440.820176 
L 453.682793 -419.126 
L 449.686103 -417.972132 
L 445.689412 -426.243192 
L 441.692722 -437.945181 
L 437.696032 -424.436035 
L 433.699341 -426.172053 
L 429.702627 -430.813648 
L 425.705937 -433.218248 
L 421.709246 -426.534754 
L 417.712556 -443.05794 
L 413.715866 -421.45957 
L 409.719175 -427.96527 
L 405.722485 -430.28675 
L 401.725771 -423.515383 
L 397.72908 -434.807474 
L 393.73239 -437.155219 
L 389.7357 -433.68133 
L 385.739009 -423.610614 
L 381.742319 -428.394875 
L 377.745605 -432.77478 
L 373.748914 -412.272803 
L 369.752224 -432.60575 
L 365.755534 -426.620408 
L 361.758843 -442.655471 
L 357.762141 -434.166655 
L 353.765451 -434.282127 
L 349.76876 -425.40797 
L 345.772058 -436.734959 
L 341.775368 -447.98355 
L 337.778677 -437.5374 
L 333.781975 -434.762678 
L 329.785285 -436.359742 
L 325.788594 -433.972253 
L 321.791892 -437.246785 
L 317.795202 -449.770803 
L 313.798511 -434.863399 
L 309.801809 -436.529627 
L 305.805119 -425.631602 
L 301.808428 -423.69437 
L 297.811726 -436.277378 
L 293.815036 -430.505226 
L 289.818345 -431.849815 
L 285.821643 -435.275586 
L 281.824953 -428.678915 
L 277.828262 -438.532044 
L 273.83156 -426.907797 
L 269.83487 -430.814098 
L 265.838179 -428.932394 
L 261.841483 -429.247253 
L 257.844787 -432.456339 
L 253.848096 -447.872774 
L 249.8514 -441.985707 
L 245.854704 -431.280536 
L 241.858013 -417.352312 
L 237.861317 -431.572132 
L 233.864626 -427.315697 
L 229.86793 -434.052051 
L 225.871234 -430.448573 
L 221.874543 -430.088439 
L 217.877847 -417.658939 
L 213.881154 -429.044748 
L 209.884457 -433.907541 
L 205.887764 -431.58383 
L 201.891071 -435.10539 
L 197.894377 -436.263938 
L 193.897681 -434.947523 
L 189.900988 -420.620122 
L 185.904294 -427.012241 
L 181.9076 -439.223707 
L 177.910906 -433.370259 
L 173.914211 -429.653881 
L 169.917517 -434.828239 
L 165.920823 -427.349668 
L 161.924129 -438.986614 
L 157.927434 -435.277035 
L 153.93074 -435.362993 
L 149.934045 -427.476124 
L 145.937352 -432.394695 
L 141.940659 -432.93536 
L 137.943962 -433.607225 
L 133.947269 -442.787046 
L 129.950576 -430.383154 
L 125.953882 -426.384795 
L 121.957186 -425.146162 
L 117.960493 -431.547729 
L 113.963796 -424.602381 
L 109.967106 -433.91336 
L 105.97041 -434.095907 
L 101.973713 -449.484131 
L 97.977023 -431.131057 
L 93.980327 -433.282051 
L 89.983636 -449.531216 
z
"/>
    </defs>
    <g clip-path="url(#p0bf7bd7468)">
     <use xlink:href="#m5572ab8715" x="0" y="561.6" style="fill: #ff7f0e; fill-opacity: 0.15"/>
    </g>
   </g>
   <g id="matplotlib.axis_1">
    <g id="xtick_1">
     <g id="line2d_1">
      <defs>
       <path id="m9ea1b202ed" d="M 0 0 
L 0 3.5 
" style="stroke: #000000; stroke-width: 0.8"/>
      </defs>
      <g>
       <use xlink:href="#m9ea1b202ed" x="87.985286" y="206.388" style="stroke: #000000; stroke-width: 0.8"/>
      </g>
     </g>
     <g id="text_1">
      <!-- −200 -->
      <g transform="translate(74.251693 220.986437) scale(0.1 -0.1)">
       <defs>
        <path id="DejaVuSans-2212" d="M 678 2272 
L 4684 2272 
L 4684 1741 
L 678 1741 
L 678 2272 
z
" transform="scale(0.015625)"/>
        <path id="DejaVuSans-32" d="M 1228 531 
L 3431 531 
L 3431 0 
L 469 0 
L 469 531 
Q 828 903 1448 1529 
Q 2069 2156 2228 2338 
Q 2531 2678 2651 2914 
Q 2772 3150 2772 3378 
Q 2772 3750 2511 3984 
Q 2250 4219 1831 4219 
Q 1534 4219 1204 4116 
Q 875 4013 500 3803 
L 500 4441 
Q 881 4594 1212 4672 
Q 1544 4750 1819 4750 
Q 2544 4750 2975 4387 
Q 3406 4025 3406 3419 
Q 3406 3131 3298 2873 
Q 3191 2616 2906 2266 
Q 2828 2175 2409 1742 
Q 1991 1309 1228 531 
z
" transform="scale(0.015625)"/>
        <path id="DejaVuSans-30" d="M 2034 4250 
Q 1547 4250 1301 3770 
Q 1056 3291 1056 2328 
Q 1056 1369 1301 889 
Q 1547 409 2034 409 
Q 2525 409 2770 889 
Q 3016 1369 3016 2328 
Q 3016 3291 2770 3770 
Q 2525 4250 2034 4250 
z
M 2034 4750 
Q 2819 4750 3233 4129 
Q 3647 3509 3647 2328 
Q 3647 1150 3233 529 
Q 2819 -91 2034 -91 
Q 1250 -91 836 529 
Q 422 1150 422 2328 
Q 422 3509 836 4129 
Q 1250 4750 2034 4750 
z
" transform="scale(0.015625)"/>
       </defs>
       <use xlink:href="#DejaVuSans-2212"/>
       <use xlink:href="#DejaVuSans-32" transform="translate(83.789062 0)"/>
       <use xlink:href="#DejaVuSans-30" transform="translate(147.412109 0)"/>
       <use xlink:href="#DejaVuSans-30" transform="translate(211.035156 0)"/>
      </g>
     </g>
    </g>
    <g id="xtick_2">
     <g id="line2d_2">
      <g>
       <use xlink:href="#m9ea1b202ed" x="167.91917" y="206.388" style="stroke: #000000; stroke-width: 0.8"/>
      </g>
     </g>
     <g id="text_2">
      <!-- 0 -->
      <g transform="translate(164.73792 220.986437) scale(0.1 -0.1)">
       <use xlink:href="#DejaVuSans-30"/>
      </g>
     </g>
    </g>
    <g id="xtick_3">
     <g id="line2d_3">
      <g>
       <use xlink:href="#m9ea1b202ed" x="247.853053" y="206.388" style="stroke: #000000; stroke-width: 0.8"/>
      </g>
     </g>
     <g id="text_3">
      <!-- 200 -->
      <g transform="translate(238.309303 220.986437) scale(0.1 -0.1)">
       <use xlink:href="#DejaVuSans-32"/>
       <use xlink:href="#DejaVuSans-30" transform="translate(63.623047 0)"/>
       <use xlink:href="#DejaVuSans-30" transform="translate(127.246094 0)"/>
      </g>
     </g>
    </g>
    <g id="xtick_4">
     <g id="line2d_4">
      <g>
       <use xlink:href="#m9ea1b202ed" x="327.786937" y="206.388" style="stroke: #000000; stroke-width: 0.8"/>
      </g>
     </g>
     <g id="text_4">
      <!-- 400 -->
      <g transform="translate(318.243187 220.986437) scale(0.1 -0.1)">
       <defs>
        <path id="DejaVuSans-34" d="M 2419 4116 
L 825 1625 
L 2419 1625 
L 2419 4116 
z
M 2253 4666 
L 3047 4666 
L 3047 1625 
L 3713 1625 
L 3713 1100 
L 3047 1100 
L 3047 0 
L 2419 0 
L 2419 1100 
L 313 1100 
L 313 1709 
L 2253 4666 
z
" transform="scale(0.015625)"/>
       </defs>
       <use xlink:href="#DejaVuSans-34"/>
       <use xlink:href="#DejaVuSans-30" transform="translate(63.623047 0)"/>
       <use xlink:href="#DejaVuSans-30" transform="translate(127.246094 0)"/>
      </g>
     </g>
    </g>
    <g id="xtick_5">
     <g id="line2d_5">
      <g>
       <use xlink:href="#m9ea1b202ed" x="407.720821" y="206.388" style="stroke: #000000; stroke-width: 0.8"/>
      </g>
     </g>
     <g id="text_5">
      <!-- 600 -->
      <g transform="translate(398.177071 220.986437) scale(0.1 -0.1)">
       <defs>
        <path id="DejaVuSans-36" d="M 2113 2584 
Q 1688 2584 1439 2293 
Q 1191 2003 1191 1497 
Q 1191 994 1439 701 
Q 1688 409 2113 409 
Q 2538 409 2786 701 
Q 3034 994 3034 1497 
Q 3034 2003 2786 2293 
Q 2538 2584 2113 2584 
z
M 3366 4563 
L 3366 3988 
Q 3128 4100 2886 4159 
Q 2644 4219 2406 4219 
Q 1781 4219 1451 3797 
Q 1122 3375 1075 2522 
Q 1259 2794 1537 2939 
Q 1816 3084 2150 3084 
Q 2853 3084 3261 2657 
Q 3669 2231 3669 1497 
Q 3669 778 3244 343 
Q 2819 -91 2113 -91 
Q 1303 -91 875 529 
Q 447 1150 447 2328 
Q 447 3434 972 4092 
Q 1497 4750 2381 4750 
Q 2619 4750 2861 4703 
Q 3103 4656 3366 4563 
z
" transform="scale(0.015625)"/>
       </defs>
       <use xlink:href="#DejaVuSans-36"/>
       <use xlink:href="#DejaVuSans-30" transform="translate(63.623047 0)"/>
       <use xlink:href="#DejaVuSans-30" transform="translate(127.246094 0)"/>
      </g>
     </g>
    </g>
    <g id="xtick_6">
     <g id="line2d_6">
      <g>
       <use xlink:href="#m9ea1b202ed" x="487.654704" y="206.388" style="stroke: #000000; stroke-width: 0.8"/>
      </g>
     </g>
     <g id="text_6">
      <!-- 800 -->
      <g transform="translate(478.110954 220.986437) scale(0.1 -0.1)">
       <defs>
        <path id="DejaVuSans-38" d="M 2034 2216 
Q 1584 2216 1326 1975 
Q 1069 1734 1069 1313 
Q 1069 891 1326 650 
Q 1584 409 2034 409 
Q 2484 409 2743 651 
Q 3003 894 3003 1313 
Q 3003 1734 2745 1975 
Q 2488 2216 2034 2216 
z
M 1403 2484 
Q 997 2584 770 2862 
Q 544 3141 544 3541 
Q 544 4100 942 4425 
Q 1341 4750 2034 4750 
Q 2731 4750 3128 4425 
Q 3525 4100 3525 3541 
Q 3525 3141 3298 2862 
Q 3072 2584 2669 2484 
Q 3125 2378 3379 2068 
Q 3634 1759 3634 1313 
Q 3634 634 3220 271 
Q 2806 -91 2034 -91 
Q 1263 -91 848 271 
Q 434 634 434 1313 
Q 434 1759 690 2068 
Q 947 2378 1403 2484 
z
M 1172 3481 
Q 1172 3119 1398 2916 
Q 1625 2713 2034 2713 
Q 2441 2713 2670 2916 
Q 2900 3119 2900 3481 
Q 2900 3844 2670 4047 
Q 2441 4250 2034 4250 
Q 1625 4250 1398 4047 
Q 1172 3844 1172 3481 
z
" transform="scale(0.015625)"/>
       </defs>
       <use xlink:href="#DejaVuSans-38"/>
       <use xlink:href="#DejaVuSans-30" transform="translate(63.623047 0)"/>
       <use xlink:href="#DejaVuSans-30" transform="translate(127.246094 0)"/>
      </g>
     </g>
    </g>
   </g>
   <g id="matplotlib.axis_2">
    <g id="ytick_1">
     <g id="line2d_7">
      <defs>
       <path id="m608db98c5c" d="M 0 0 
L -3.5 0 
" style="stroke: #000000; stroke-width: 0.8"/>
      </defs>
      <g>
       <use xlink:href="#m608db98c5c" x="70.2" y="203.069743" style="stroke: #000000; stroke-width: 0.8"/>
      </g>
     </g>
     <g id="text_7">
      <!-- 0 -->
      <g transform="translate(56.8375 206.868962) scale(0.1 -0.1)">
       <use xlink:href="#DejaVuSans-30"/>
      </g>
     </g>
    </g>
    <g id="ytick_2">
     <g id="line2d_8">
      <g>
       <use xlink:href="#m608db98c5c" x="70.2" y="175.84979" style="stroke: #000000; stroke-width: 0.8"/>
      </g>
     </g>
     <g id="text_8">
      <!-- 5 -->
      <g transform="translate(56.8375 179.649009) scale(0.1 -0.1)">
       <defs>
        <path id="DejaVuSans-35" d="M 691 4666 
L 3169 4666 
L 3169 4134 
L 1269 4134 
L 1269 2991 
Q 1406 3038 1543 3061 
Q 1681 3084 1819 3084 
Q 2600 3084 3056 2656 
Q 3513 2228 3513 1497 
Q 3513 744 3044 326 
Q 2575 -91 1722 -91 
Q 1428 -91 1123 -41 
Q 819 9 494 109 
L 494 744 
Q 775 591 1075 516 
Q 1375 441 1709 441 
Q 2250 441 2565 725 
Q 2881 1009 2881 1497 
Q 2881 1984 2565 2268 
Q 2250 2553 1709 2553 
Q 1456 2553 1204 2497 
Q 953 2441 691 2322 
L 691 4666 
z
" transform="scale(0.015625)"/>
       </defs>
       <use xlink:href="#DejaVuSans-35"/>
      </g>
     </g>
    </g>
    <g id="ytick_3">
     <g id="line2d_9">
      <g>
       <use xlink:href="#m608db98c5c" x="70.2" y="148.629837" style="stroke: #000000; stroke-width: 0.8"/>
      </g>
     </g>
     <g id="text_9">
      <!-- 10 -->
      <g transform="translate(50.475 152.429056) scale(0.1 -0.1)">
       <defs>
        <path id="DejaVuSans-31" d="M 794 531 
L 1825 531 
L 1825 4091 
L 703 3866 
L 703 4441 
L 1819 4666 
L 2450 4666 
L 2450 531 
L 3481 531 
L 3481 0 
L 794 0 
L 794 531 
z
" transform="scale(0.015625)"/>
       </defs>
       <use xlink:href="#DejaVuSans-31"/>
       <use xlink:href="#DejaVuSans-30" transform="translate(63.623047 0)"/>
      </g>
     </g>
    </g>
    <g id="ytick_4">
     <g id="line2d_10">
      <g>
       <use xlink:href="#m608db98c5c" x="70.2" y="121.409884" style="stroke: #000000; stroke-width: 0.8"/>
      </g>
     </g>
     <g id="text_10">
      <!-- 15 -->
      <g transform="translate(50.475 125.209103) scale(0.1 -0.1)">
       <use xlink:href="#DejaVuSans-31"/>
       <use xlink:href="#DejaVuSans-35" transform="translate(63.623047 0)"/>
      </g>
     </g>
    </g>
    <g id="ytick_5">
     <g id="line2d_11">
      <g>
       <use xlink:href="#m608db98c5c" x="70.2" y="94.189932" style="stroke: #000000; stroke-width: 0.8"/>
      </g>
     </g>
     <g id="text_11">
      <!-- 20 -->
      <g transform="translate(50.475 97.98915) scale(0.1 -0.1)">
       <use xlink:href="#DejaVuSans-32"/>
       <use xlink:href="#DejaVuSans-30" transform="translate(63.623047 0)"/>
      </g>
     </g>
    </g>
    <g id="text_12">
     <!-- ΔLL (bits) -->
     <g transform="translate(44.395313 160.500937) rotate(-90) scale(0.1 -0.1)">
      <defs>
       <path id="DejaVuSans-394" d="M 2188 4044 
L 906 525 
L 3472 525 
L 2188 4044 
z
M 50 0 
L 1831 4666 
L 2547 4666 
L 4325 0 
L 50 0 
z
" transform="scale(0.015625)"/>
       <path id="DejaVuSans-4c" d="M 628 4666 
L 1259 4666 
L 1259 531 
L 3531 531 
L 3531 0 
L 628 0 
L 628 4666 
z
" transform="scale(0.015625)"/>
       <path id="DejaVuSans-20" transform="scale(0.015625)"/>
       <path id="DejaVuSans-28" d="M 1984 4856 
Q 1566 4138 1362 3434 
Q 1159 2731 1159 2009 
Q 1159 1288 1364 580 
Q 1569 -128 1984 -844 
L 1484 -844 
Q 1016 -109 783 600 
Q 550 1309 550 2009 
Q 550 2706 781 3412 
Q 1013 4119 1484 4856 
L 1984 4856 
z
" transform="scale(0.015625)"/>
       <path id="DejaVuSans-62" d="M 3116 1747 
Q 3116 2381 2855 2742 
Q 2594 3103 2138 3103 
Q 1681 3103 1420 2742 
Q 1159 2381 1159 1747 
Q 1159 1113 1420 752 
Q 1681 391 2138 391 
Q 2594 391 2855 752 
Q 3116 1113 3116 1747 
z
M 1159 2969 
Q 1341 3281 1617 3432 
Q 1894 3584 2278 3584 
Q 2916 3584 3314 3078 
Q 3713 2572 3713 1747 
Q 3713 922 3314 415 
Q 2916 -91 2278 -91 
Q 1894 -91 1617 61 
Q 1341 213 1159 525 
L 1159 0 
L 581 0 
L 581 4863 
L 1159 4863 
L 1159 2969 
z
" transform="scale(0.015625)"/>
       <path id="DejaVuSans-69" d="M 603 3500 
L 1178 3500 
L 1178 0 
L 603 0 
L 603 3500 
z
M 603 4863 
L 1178 4863 
L 1178 4134 
L 603 4134 
L 603 4863 
z
" transform="scale(0.015625)"/>
       <path id="DejaVuSans-74" d="M 1172 4494 
L 1172 3500 
L 2356 3500 
L 2356 3053 
L 1172 3053 
L 1172 1153 
Q 1172 725 1289 603 
Q 1406 481 1766 481 
L 2356 481 
L 2356 0 
L 1766 0 
Q 1100 0 847 248 
Q 594 497 594 1153 
L 594 3053 
L 172 3053 
L 172 3500 
L 594 3500 
L 594 4494 
L 1172 4494 
z
" transform="scale(0.015625)"/>
       <path id="DejaVuSans-73" d="M 2834 3397 
L 2834 2853 
Q 2591 2978 2328 3040 
Q 2066 3103 1784 3103 
Q 1356 3103 1142 2972 
Q 928 2841 928 2578 
Q 928 2378 1081 2264 
Q 1234 2150 1697 2047 
L 1894 2003 
Q 2506 1872 2764 1633 
Q 3022 1394 3022 966 
Q 3022 478 2636 193 
Q 2250 -91 1575 -91 
Q 1294 -91 989 -36 
Q 684 19 347 128 
L 347 722 
Q 666 556 975 473 
Q 1284 391 1588 391 
Q 1994 391 2212 530 
Q 2431 669 2431 922 
Q 2431 1156 2273 1281 
Q 2116 1406 1581 1522 
L 1381 1569 
Q 847 1681 609 1914 
Q 372 2147 372 2553 
Q 372 3047 722 3315 
Q 1072 3584 1716 3584 
Q 2034 3584 2315 3537 
Q 2597 3491 2834 3397 
z
" transform="scale(0.015625)"/>
       <path id="DejaVuSans-29" d="M 513 4856 
L 1013 4856 
Q 1481 4119 1714 3412 
Q 1947 2706 1947 2009 
Q 1947 1309 1714 600 
Q 1481 -109 1013 -844 
L 513 -844 
Q 928 -128 1133 580 
Q 1338 1288 1338 2009 
Q 1338 2731 1133 3434 
Q 928 4138 513 4856 
z
" transform="scale(0.015625)"/>
      </defs>
      <use xlink:href="#DejaVuSans-394"/>
      <use xlink:href="#DejaVuSans-4c" transform="translate(68.408203 0)"/>
      <use xlink:href="#DejaVuSans-4c" transform="translate(124.121094 0)"/>
      <use xlink:href="#DejaVuSans-20" transform="translate(179.833984 0)"/>
      <use xlink:href="#DejaVuSans-28" transform="translate(211.621094 0)"/>
      <use xlink:href="#DejaVuSans-62" transform="translate(250.634766 0)"/>
      <use xlink:href="#DejaVuSans-69" transform="translate(314.111328 0)"/>
      <use xlink:href="#DejaVuSans-74" transform="translate(341.894531 0)"/>
      <use xlink:href="#DejaVuSans-73" transform="translate(381.103516 0)"/>
      <use xlink:href="#DejaVuSans-29" transform="translate(433.203125 0)"/>
     </g>
    </g>
   </g>
   <g id="line2d_12">
    <path d="M 167.91917 206.388 
L 167.91917 67.392 
" clip-path="url(#p0bf7bd7468)" style="fill: none; stroke-dasharray: 2.96,1.28; stroke-dashoffset: 0; stroke: #000000; stroke-width: 0.8"/>
   </g>
   <g id="line2d_13">
    <path d="M 89.983636 145.035868 
L 93.980327 152.208946 
L 97.977023 154.63035 
L 101.973713 156.426158 
L 105.97041 156.161951 
L 109.967106 156.170626 
L 113.963796 165.315408 
L 117.960493 153.214899 
L 121.957186 154.110167 
L 125.953882 155.054431 
L 129.950576 153.483246 
L 133.947269 148.006997 
L 137.943962 159.277774 
L 141.940659 162.668334 
L 145.937352 157.250558 
L 149.934045 156.136428 
L 153.93074 157.187324 
L 157.927434 161.526323 
L 161.924129 159.500407 
L 165.920823 159.396642 
L 169.917517 161.354225 
L 173.914211 157.38024 
L 177.910906 143.489016 
L 181.9076 149.204693 
L 185.904294 158.603361 
L 189.900988 161.704477 
L 193.897681 151.740308 
L 197.894377 152.537326 
L 201.891071 161.228558 
L 205.887764 156.650131 
L 209.884457 159.646767 
L 213.881154 154.479012 
L 217.877847 162.230164 
L 221.874543 158.384963 
L 225.871234 157.981139 
L 229.86793 160.521536 
L 233.864626 155.016901 
L 237.861317 159.70623 
L 241.858013 155.221242 
L 245.854704 154.516671 
L 249.8514 157.288826 
L 253.848096 151.883426 
L 257.844787 157.196911 
L 261.841483 155.03007 
L 265.838179 155.071825 
L 269.83487 155.393444 
L 273.83156 156.803419 
L 277.828262 152.333932 
L 281.824953 162.826411 
L 285.821643 164.480856 
L 289.818345 157.934361 
L 293.815036 159.520289 
L 297.811726 153.609369 
L 301.808428 157.16824 
L 305.805119 156.341199 
L 309.801809 155.967135 
L 313.798511 160.54448 
L 317.795202 163.55812 
L 321.791892 161.936706 
L 325.788594 162.313432 
L 329.785285 161.489116 
L 333.781975 155.533199 
L 337.778677 163.581711 
L 341.775368 155.095756 
L 345.772058 158.343207 
L 349.76876 153.253078 
L 353.765451 155.542072 
L 357.762141 149.480373 
L 361.758843 155.472312 
L 365.755534 156.208828 
L 369.752224 156.467373 
L 373.748914 162.223502 
L 377.745605 158.207437 
L 381.742319 158.797222 
L 385.739009 159.455767 
L 389.7357 153.325425 
L 393.73239 134.881906 
L 397.72908 160.669315 
L 401.725771 149.422568 
L 405.722485 157.830589 
L 409.719175 156.872911 
L 413.715866 155.051167 
L 417.712556 158.445427 
L 421.709246 162.468133 
L 425.705937 155.714707 
L 429.702627 160.731619 
L 433.699341 154.300957 
L 437.696032 154.23107 
L 441.692722 154.293576 
L 445.689412 170.287606 
L 449.686103 145.514119 
L 453.682793 156.907251 
L 457.679507 158.624906 
L 461.676198 161.266602 
L 465.672888 155.974476 
L 469.669578 159.287743 
L 473.666269 160.388291 
L 477.662959 160.960805 
L 481.659673 155.748478 
L 485.656364 159.579989 
" clip-path="url(#p0bf7bd7468)" style="fill: none; stroke-dasharray: 1,1.65; stroke-dashoffset: 0; stroke: #1f77b4"/>
   </g>
   <g id="line2d_14">
    <path d="M 89.983636 147.555785 
L 93.980327 156.863108 
L 97.977023 159.075146 
L 101.973713 145.481932 
L 105.97041 156.883724 
L 109.967106 155.906968 
L 113.963796 161.603207 
L 117.960493 158.45162 
L 121.957186 161.926484 
L 125.953882 162.735558 
L 129.950576 159.131189 
L 133.947269 150.217481 
L 137.943962 153.759068 
L 141.940659 154.664421 
L 145.937352 158.20293 
L 149.934045 162.385747 
L 153.93074 155.086568 
L 157.927434 155.496319 
L 161.924129 153.228075 
L 165.920823 161.384368 
L 169.917517 155.46497 
L 173.914211 160.122526 
L 177.910906 157.776207 
L 181.9076 153.73932 
L 185.904294 160.541916 
L 189.900988 163.46487 
L 193.897681 153.260566 
L 197.894377 154.412614 
L 201.891071 156.384919 
L 205.887764 156.677368 
L 209.884457 157.346756 
L 213.881154 161.482407 
L 217.877847 166.672887 
L 221.874543 160.704088 
L 225.871234 158.978757 
L 229.86793 157.017408 
L 233.864626 161.236353 
L 237.861317 158.99844 
L 241.858013 166.507357 
L 245.854704 159.149213 
L 249.8514 151.414079 
L 253.848096 148.343343 
L 257.844787 156.46981 
L 261.841483 160.12397 
L 265.838179 160.060004 
L 269.83487 160.390052 
L 273.83156 161.594566 
L 277.828262 154.9206 
L 281.824953 159.90166 
L 285.821643 155.319138 
L 289.818345 159.051413 
L 293.815036 160.147806 
L 297.811726 155.5134 
L 301.808428 163.380066 
L 305.805119 160.70065 
L 309.801809 156.062157 
L 313.798511 155.982277 
L 317.795202 144.877439 
L 321.791892 154.407863 
L 325.788594 157.060883 
L 329.785285 154.388761 
L 333.781975 156.713466 
L 337.778677 153.767754 
L 341.775368 147.90969 
L 345.772058 154.187866 
L 349.76876 162.289533 
L 353.765451 158.377285 
L 357.762141 157.008619 
L 361.758843 152.808267 
L 365.755534 160.526653 
L 369.752224 157.8987 
L 373.748914 170.710446 
L 377.745605 158.733751 
L 381.742319 160.079121 
L 385.739009 162.892192 
L 389.7357 156.307142 
L 393.73239 153.209501 
L 397.72908 156.295498 
L 401.725771 164.17848 
L 405.722485 158.965049 
L 409.719175 160.103492 
L 413.715866 165.771307 
L 417.712556 149.80639 
L 421.709246 160.801259 
L 425.705937 156.279678 
L 429.702627 157.334416 
L 433.699341 161.052167 
L 437.696032 162.333923 
L 441.692722 154.929775 
L 445.689412 161.24619 
L 449.686103 166.301852 
L 453.682793 166.672643 
L 457.679507 153.689255 
L 461.676198 156.848824 
L 465.672888 154.564821 
L 469.669578 149.675422 
L 473.666269 154.603326 
L 477.662959 160.207962 
L 481.659673 163.102281 
L 485.656364 155.430402 
" clip-path="url(#p0bf7bd7468)" style="fill: none; stroke-dasharray: 1,1.65; stroke-dashoffset: 0; stroke: #ff7f0e"/>
   </g>
   <g id="line2d_15">
    <path d="M 89.983636 171.219954 
L 93.980327 187.889418 
L 97.977023 151.605022 
L 101.973713 175.899817 
L 105.97041 133.690004 
L 109.967106 130.804624 
L 113.963796 159.425995 
L 117.960493 170.968954 
L 121.957186 181.362858 
L 125.953882 188.369931 
L 129.950576 106.487315 
L 133.947269 129.324766 
L 137.943962 155.149162 
L 141.940659 191.685898 
L 145.937352 170.716163 
L 149.934045 178.343427 
L 153.93074 139.555205 
L 157.927434 145.625804 
L 161.924129 185.434913 
L 165.920823 100.573206 
L 169.917517 179.295317 
L 173.914211 187.554934 
L 177.910906 166.29831 
L 181.9076 103.054924 
L 185.904294 186.15693 
L 189.900988 167.567641 
L 193.897681 193.521389 
L 197.894377 149.377839 
L 201.891071 156.827279 
L 205.887764 187.498323 
L 209.884457 175.692291 
L 213.881154 128.562223 
L 217.877847 165.84067 
L 221.874543 144.180122 
L 225.871234 85.588723 
L 229.86793 145.340561 
L 233.864626 170.017818 
L 237.861317 178.615664 
L 241.858013 187.40934 
L 245.854704 186.872153 
L 249.8514 175.940129 
L 253.848096 132.838523 
L 257.844787 185.767022 
L 261.841483 173.267434 
L 265.838179 144.227942 
L 269.83487 145.321223 
L 273.83156 130.152634 
L 277.828262 159.152486 
L 281.824953 127.736476 
L 285.821643 178.947417 
L 289.818345 177.98257 
L 293.815036 73.71 
L 297.811726 147.210221 
L 301.808428 181.576798 
L 305.805119 193.969405 
L 309.801809 145.606211 
L 313.798511 155.510471 
L 317.795202 153.358648 
L 321.791892 174.965088 
L 325.788594 174.737026 
L 329.785285 122.65689 
L 333.781975 111.444396 
L 337.778677 193.095139 
L 341.775368 170.289441 
L 345.772058 156.633259 
L 349.76876 184.418229 
L 353.765451 189.743286 
L 357.762141 146.406249 
L 361.758843 194.088291 
L 365.755534 167.697073 
L 369.752224 153.04761 
L 373.748914 200.07 
L 377.745605 102.263514 
L 381.742319 175.105145 
L 385.739009 147.130597 
L 389.7357 182.113049 
L 393.73239 79.215318 
L 397.72908 137.838032 
L 401.725771 96.935793 
L 405.722485 174.450642 
L 409.719175 181.242571 
L 413.715866 167.921926 
L 417.712556 187.581315 
L 421.709246 154.060322 
L 425.705937 170.648013 
L 429.702627 137.034177 
L 433.699341 131.004158 
L 437.696032 171.289086 
L 441.692722 159.589931 
L 445.689412 168.36273 
L 449.686103 163.883487 
L 453.682793 152.16772 
L 457.679507 174.091723 
L 461.676198 198.196217 
L 465.672888 184.526907 
L 469.669578 131.598281 
L 473.666269 107.538725 
L 477.662959 151.13527 
L 481.659673 128.576383 
L 485.656364 140.89502 
" clip-path="url(#p0bf7bd7468)" style="fill: none; stroke: #1f77b4; stroke-width: 2.2; stroke-linecap: square"/>
   </g>
   <g id="line2d_16">
    <path d="M 89.983636 148.961986 
L 93.980327 142.859103 
L 97.977023 141.742292 
L 101.973713 144.697153 
L 105.97041 192.117211 
L 109.967106 156.257715 
L 113.963796 192.307852 
L 117.960493 116.552007 
L 121.957186 183.019077 
L 125.953882 146.613247 
L 129.950576 128.957748 
L 133.947269 188.200057 
L 137.943962 185.583804 
L 141.940659 182.546014 
L 145.937352 167.667697 
L 149.934045 131.059591 
L 153.93074 157.924257 
L 157.927434 173.981495 
L 161.924129 111.101696 
L 165.920823 177.054183 
L 169.917517 186.615649 
L 173.914211 143.945823 
L 177.910906 198.17682 
L 181.9076 172.071042 
L 185.904294 166.7679 
L 189.900988 192.332354 
L 193.897681 146.33125 
L 197.894377 182.07541 
L 201.891071 126.785348 
L 205.887764 110.508763 
L 209.884457 147.232027 
L 213.881154 164.921991 
L 217.877847 160.475556 
L 221.874543 110.179077 
L 225.871234 140.760041 
L 229.86793 135.473627 
L 233.864626 197.9567 
L 237.861317 167.441236 
L 241.858013 193.419542 
L 245.854704 186.076754 
L 249.8514 182.771512 
L 253.848096 175.390649 
L 257.844787 169.646313 
L 261.841483 165.073534 
L 265.838179 179.745905 
L 269.83487 175.322495 
L 273.83156 189.209439 
L 277.828262 118.88972 
L 281.824953 177.510321 
L 285.821643 159.302508 
L 289.818345 168.285724 
L 293.815036 125.443969 
L 297.811726 173.016512 
L 301.808428 174.650761 
L 305.805119 151.523182 
L 309.801809 100.616996 
L 313.798511 177.321392 
L 317.795202 185.568666 
L 321.791892 162.659048 
L 325.788594 113.243632 
L 329.785285 182.763973 
L 333.781975 146.435266 
L 337.778677 172.240181 
L 341.775368 149.791551 
L 345.772058 167.716924 
L 349.76876 172.913767 
L 353.765451 159.939885 
L 357.762141 179.75609 
L 361.758843 199.197831 
L 365.755534 152.686893 
L 369.752224 142.631975 
L 373.748914 152.139505 
L 377.745605 161.598915 
L 381.742319 148.930795 
L 385.739009 174.297033 
L 389.7357 100.012238 
L 393.73239 164.237529 
L 397.72908 130.983364 
L 401.725771 135.751501 
L 405.722485 157.964407 
L 409.719175 154.940592 
L 413.715866 123.040862 
L 417.712556 168.386043 
L 421.709246 154.815467 
L 425.705937 129.105271 
L 429.702627 162.139958 
L 433.699341 195.344899 
L 437.696032 170.917507 
L 441.692722 113.058392 
L 445.689412 180.535448 
L 449.686103 156.238393 
L 453.682793 156.268945 
L 457.679507 174.561112 
L 461.676198 182.029678 
L 465.672888 152.310574 
L 469.669578 129.271066 
L 473.666269 177.687119 
L 477.662959 164.833428 
L 481.659673 176.345633 
L 485.656364 187.014376 
" clip-path="url(#p0bf7bd7468)" style="fill: none; stroke: #ff7f0e; stroke-width: 2.2; stroke-linecap: square"/>
   </g>
   <g id="patch_3">
    <path d="M 70.2 206.388 
L 70.2 67.392 
" style="fill: none; stroke: #000000; stroke-width: 0.8; stroke-linejoin: miter; stroke-linecap: square"/>
   </g>
   <g id="patch_4">
    <path d="M 505.44 206.388 
L 505.44 67.392 
" style="fill: none; stroke: #000000; stroke-width: 0.8; stroke-linejoin: miter; stroke-linecap: square"/>
   </g>
   <g id="patch_5">
    <path d="M 70.2 206.388 
L 505.44 206.388 
" style="fill: none; stroke: #000000; stroke-width: 0.8; stroke-linejoin: miter; stroke-linecap: square"/>
   </g>
   <g id="patch_6">
    <path d="M 70.2 67.392 
L 505.44 67.392 
" style="fill: none; stroke: #000000; stroke-width: 0.8; stroke-linejoin: miter; stroke-linecap: square"/>
   </g>
   <g id="text_13">
    <!-- (SLIP vs SSC) — C-flow — Panel A: overlay + null bands -->
    <g transform="translate(121.754063 61.392) scale(0.12 -0.12)">
     <defs>
      <path id="DejaVuSans-53" d="M 3425 4513 
L 3425 3897 
Q 3066 4069 2747 4153 
Q 2428 4238 2131 4238 
Q 1616 4238 1336 4038 
Q 1056 3838 1056 3469 
Q 1056 3159 1242 3001 
Q 1428 2844 1947 2747 
L 2328 2669 
Q 3034 2534 3370 2195 
Q 3706 1856 3706 1288 
Q 3706 609 3251 259 
Q 2797 -91 1919 -91 
Q 1588 -91 1214 -16 
Q 841 59 441 206 
L 441 856 
Q 825 641 1194 531 
Q 1563 422 1919 422 
Q 2459 422 2753 634 
Q 3047 847 3047 1241 
Q 3047 1584 2836 1778 
Q 2625 1972 2144 2069 
L 1759 2144 
Q 1053 2284 737 2584 
Q 422 2884 422 3419 
Q 422 4038 858 4394 
Q 1294 4750 2059 4750 
Q 2388 4750 2728 4690 
Q 3069 4631 3425 4513 
z
" transform="scale(0.015625)"/>
      <path id="DejaVuSans-49" d="M 628 4666 
L 1259 4666 
L 1259 0 
L 628 0 
L 628 4666 
z
" transform="scale(0.015625)"/>
      <path id="DejaVuSans-50" d="M 1259 4147 
L 1259 2394 
L 2053 2394 
Q 2494 2394 2734 2622 
Q 2975 2850 2975 3272 
Q 2975 3691 2734 3919 
Q 2494 4147 2053 4147 
L 1259 4147 
z
M 628 4666 
L 2053 4666 
Q 2838 4666 3239 4311 
Q 3641 3956 3641 3272 
Q 3641 2581 3239 2228 
Q 2838 1875 2053 1875 
L 1259 1875 
L 1259 0 
L 628 0 
L 628 4666 
z
" transform="scale(0.015625)"/>
      <path id="DejaVuSans-76" d="M 191 3500 
L 800 3500 
L 1894 563 
L 2988 3500 
L 3597 3500 
L 2284 0 
L 1503 0 
L 191 3500 
z
" transform="scale(0.015625)"/>
      <path id="DejaVuSans-43" d="M 4122 4306 
L 4122 3641 
Q 3803 3938 3442 4084 
Q 3081 4231 2675 4231 
Q 1875 4231 1450 3742 
Q 1025 3253 1025 2328 
Q 1025 1406 1450 917 
Q 1875 428 2675 428 
Q 3081 428 3442 575 
Q 3803 722 4122 1019 
L 4122 359 
Q 3791 134 3420 21 
Q 3050 -91 2638 -91 
Q 1578 -91 968 557 
Q 359 1206 359 2328 
Q 359 3453 968 4101 
Q 1578 4750 2638 4750 
Q 3056 4750 3426 4639 
Q 3797 4528 4122 4306 
z
" transform="scale(0.015625)"/>
      <path id="DejaVuSans-2014" d="M 313 1978 
L 6088 1978 
L 6088 1528 
L 313 1528 
L 313 1978 
z
" transform="scale(0.015625)"/>
      <path id="DejaVuSans-2d" d="M 313 2009 
L 1997 2009 
L 1997 1497 
L 313 1497 
L 313 2009 
z
" transform="scale(0.015625)"/>
      <path id="DejaVuSans-66" d="M 2375 4863 
L 2375 4384 
L 1825 4384 
Q 1516 4384 1395 4259 
Q 1275 4134 1275 3809 
L 1275 3500 
L 2222 3500 
L 2222 3053 
L 1275 3053 
L 1275 0 
L 697 0 
L 697 3053 
L 147 3053 
L 147 3500 
L 697 3500 
L 697 3744 
Q 697 4328 969 4595 
Q 1241 4863 1831 4863 
L 2375 4863 
z
" transform="scale(0.015625)"/>
      <path id="DejaVuSans-6c" d="M 603 4863 
L 1178 4863 
L 1178 0 
L 603 0 
L 603 4863 
z
" transform="scale(0.015625)"/>
      <path id="DejaVuSans-6f" d="M 1959 3097 
Q 1497 3097 1228 2736 
Q 959 2375 959 1747 
Q 959 1119 1226 758 
Q 1494 397 1959 397 
Q 2419 397 2687 759 
Q 2956 1122 2956 1747 
Q 2956 2369 2687 2733 
Q 2419 3097 1959 3097 
z
M 1959 3584 
Q 2709 3584 3137 3096 
Q 3566 2609 3566 1747 
Q 3566 888 3137 398 
Q 2709 -91 1959 -91 
Q 1206 -91 779 398 
Q 353 888 353 1747 
Q 353 2609 779 3096 
Q 1206 3584 1959 3584 
z
" transform="scale(0.015625)"/>
      <path id="DejaVuSans-77" d="M 269 3500 
L 844 3500 
L 1563 769 
L 2278 3500 
L 2956 3500 
L 3675 769 
L 4391 3500 
L 4966 3500 
L 4050 0 
L 3372 0 
L 2619 2869 
L 1863 0 
L 1184 0 
L 269 3500 
z
" transform="scale(0.015625)"/>
      <path id="DejaVuSans-61" d="M 2194 1759 
Q 1497 1759 1228 1600 
Q 959 1441 959 1056 
Q 959 750 1161 570 
Q 1363 391 1709 391 
Q 2188 391 2477 730 
Q 2766 1069 2766 1631 
L 2766 1759 
L 2194 1759 
z
M 3341 1997 
L 3341 0 
L 2766 0 
L 2766 531 
Q 2569 213 2275 61 
Q 1981 -91 1556 -91 
Q 1019 -91 701 211 
Q 384 513 384 1019 
Q 384 1609 779 1909 
Q 1175 2209 1959 2209 
L 2766 2209 
L 2766 2266 
Q 2766 2663 2505 2880 
Q 2244 3097 1772 3097 
Q 1472 3097 1187 3025 
Q 903 2953 641 2809 
L 641 3341 
Q 956 3463 1253 3523 
Q 1550 3584 1831 3584 
Q 2591 3584 2966 3190 
Q 3341 2797 3341 1997 
z
" transform="scale(0.015625)"/>
      <path id="DejaVuSans-6e" d="M 3513 2113 
L 3513 0 
L 2938 0 
L 2938 2094 
Q 2938 2591 2744 2837 
Q 2550 3084 2163 3084 
Q 1697 3084 1428 2787 
Q 1159 2491 1159 1978 
L 1159 0 
L 581 0 
L 581 3500 
L 1159 3500 
L 1159 2956 
Q 1366 3272 1645 3428 
Q 1925 3584 2291 3584 
Q 2894 3584 3203 3211 
Q 3513 2838 3513 2113 
z
" transform="scale(0.015625)"/>
      <path id="DejaVuSans-65" d="M 3597 1894 
L 3597 1613 
L 953 1613 
Q 991 1019 1311 708 
Q 1631 397 2203 397 
Q 2534 397 2845 478 
Q 3156 559 3463 722 
L 3463 178 
Q 3153 47 2828 -22 
Q 2503 -91 2169 -91 
Q 1331 -91 842 396 
Q 353 884 353 1716 
Q 353 2575 817 3079 
Q 1281 3584 2069 3584 
Q 2775 3584 3186 3129 
Q 3597 2675 3597 1894 
z
M 3022 2063 
Q 3016 2534 2758 2815 
Q 2500 3097 2075 3097 
Q 1594 3097 1305 2825 
Q 1016 2553 972 2059 
L 3022 2063 
z
" transform="scale(0.015625)"/>
      <path id="DejaVuSans-41" d="M 2188 4044 
L 1331 1722 
L 3047 1722 
L 2188 4044 
z
M 1831 4666 
L 2547 4666 
L 4325 0 
L 3669 0 
L 3244 1197 
L 1141 1197 
L 716 0 
L 50 0 
L 1831 4666 
z
" transform="scale(0.015625)"/>
      <path id="DejaVuSans-3a" d="M 750 794 
L 1409 794 
L 1409 0 
L 750 0 
L 750 794 
z
M 750 3309 
L 1409 3309 
L 1409 2516 
L 750 2516 
L 750 3309 
z
" transform="scale(0.015625)"/>
      <path id="DejaVuSans-72" d="M 2631 2963 
Q 2534 3019 2420 3045 
Q 2306 3072 2169 3072 
Q 1681 3072 1420 2755 
Q 1159 2438 1159 1844 
L 1159 0 
L 581 0 
L 581 3500 
L 1159 3500 
L 1159 2956 
Q 1341 3275 1631 3429 
Q 1922 3584 2338 3584 
Q 2397 3584 2469 3576 
Q 2541 3569 2628 3553 
L 2631 2963 
z
" transform="scale(0.015625)"/>
      <path id="DejaVuSans-79" d="M 2059 -325 
Q 1816 -950 1584 -1140 
Q 1353 -1331 966 -1331 
L 506 -1331 
L 506 -850 
L 844 -850 
Q 1081 -850 1212 -737 
Q 1344 -625 1503 -206 
L 1606 56 
L 191 3500 
L 800 3500 
L 1894 763 
L 2988 3500 
L 3597 3500 
L 2059 -325 
z
" transform="scale(0.015625)"/>
      <path id="DejaVuSans-2b" d="M 2944 4013 
L 2944 2272 
L 4684 2272 
L 4684 1741 
L 2944 1741 
L 2944 0 
L 2419 0 
L 2419 1741 
L 678 1741 
L 678 2272 
L 2419 2272 
L 2419 4013 
L 2944 4013 
z
" transform="scale(0.015625)"/>
      <path id="DejaVuSans-75" d="M 544 1381 
L 544 3500 
L 1119 3500 
L 1119 1403 
Q 1119 906 1312 657 
Q 1506 409 1894 409 
Q 2359 409 2629 706 
Q 2900 1003 2900 1516 
L 2900 3500 
L 3475 3500 
L 3475 0 
L 2900 0 
L 2900 538 
Q 2691 219 2414 64 
Q 2138 -91 1772 -91 
Q 1169 -91 856 284 
Q 544 659 544 1381 
z
M 1991 3584 
L 1991 3584 
z
" transform="scale(0.015625)"/>
      <path id="DejaVuSans-64" d="M 2906 2969 
L 2906 4863 
L 3481 4863 
L 3481 0 
L 2906 0 
L 2906 525 
Q 2725 213 2448 61 
Q 2172 -91 1784 -91 
Q 1150 -91 751 415 
Q 353 922 353 1747 
Q 353 2572 751 3078 
Q 1150 3584 1784 3584 
Q 2172 3584 2448 3432 
Q 2725 3281 2906 2969 
z
M 947 1747 
Q 947 1113 1208 752 
Q 1469 391 1925 391 
Q 2381 391 2643 752 
Q 2906 1113 2906 1747 
Q 2906 2381 2643 2742 
Q 2381 3103 1925 3103 
Q 1469 3103 1208 2742 
Q 947 2381 947 1747 
z
" transform="scale(0.015625)"/>
     </defs>
     <use xlink:href="#DejaVuSans-28"/>
     <use xlink:href="#DejaVuSans-53" transform="translate(39.013672 0)"/>
     <use xlink:href="#DejaVuSans-4c" transform="translate(102.490234 0)"/>
     <use xlink:href="#DejaVuSans-49" transform="translate(158.203125 0)"/>
     <use xlink:href="#DejaVuSans-50" transform="translate(187.695312 0)"/>
     <use xlink:href="#DejaVuSans-20" transform="translate(247.998047 0)"/>
     <use xlink:href="#DejaVuSans-76" transform="translate(279.785156 0)"/>
     <use xlink:href="#DejaVuSans-73" transform="translate(338.964844 0)"/>
     <use xlink:href="#DejaVuSans-20" transform="translate(391.064453 0)"/>
     <use xlink:href="#DejaVuSans-53" transform="translate(422.851562 0)"/>
     <use xlink:href="#DejaVuSans-53" transform="translate(486.328125 0)"/>
     <use xlink:href="#DejaVuSans-43" transform="translate(549.804688 0)"/>
     <use xlink:href="#DejaVuSans-29" transform="translate(619.628906 0)"/>
     <use xlink:href="#DejaVuSans-20" transform="translate(658.642578 0)"/>
     <use xlink:href="#DejaVuSans-2014" transform="translate(690.429688 0)"/>
     <use xlink:href="#DejaVuSans-20" transform="translate(790.429688 0)"/>
     <use xlink:href="#DejaVuSans-43" transform="translate(822.216797 0)"/>
     <use xlink:href="#DejaVuSans-2d" transform="translate(892.041016 0)"/>
     <use xlink:href="#DejaVuSans-66" transform="translate(928.125 0)"/>
     <use xlink:href="#DejaVuSans-6c" transform="translate(963.330078 0)"/>
     <use xlink:href="#DejaVuSans-6f" transform="translate(991.113281 0)"/>
     <use xlink:href="#DejaVuSans-77" transform="translate(1052.294922 0)"/>
     <use xlink:href="#DejaVuSans-20" transform="translate(1134.082031 0)"/>
     <use xlink:href="#DejaVuSans-2014" transform="translate(1165.869141 0)"/>
     <use xlink:href="#DejaVuSans-20" transform="translate(1265.869141 0)"/>
     <use xlink:href="#DejaVuSans-50" transform="translate(1297.65625 0)"/>
     <use xlink:href="#DejaVuSans-61" transform="translate(1353.458984 0)"/>
     <use xlink:href="#DejaVuSans-6e" transform="translate(1414.738281 0)"/>
     <use xlink:href="#DejaVuSans-65" transform="translate(1478.117188 0)"/>
     <use xlink:href="#DejaVuSans-6c" transform="translate(1539.640625 0)"/>
     <use xlink:href="#DejaVuSans-20" transform="translate(1567.423828 0)"/>
     <use xlink:href="#DejaVuSans-41" transform="translate(1599.210938 0)"/>
     <use xlink:href="#DejaVuSans-3a" transform="translate(1665.869141 0)"/>
     <use xlink:href="#DejaVuSans-20" transform="translate(1699.560547 0)"/>
     <use xlink:href="#DejaVuSans-6f" transform="translate(1731.347656 0)"/>
     <use xlink:href="#DejaVuSans-76" transform="translate(1792.529297 0)"/>
     <use xlink:href="#DejaVuSans-65" transform="translate(1851.708984 0)"/>
     <use xlink:href="#DejaVuSans-72" transform="translate(1913.232422 0)"/>
     <use xlink:href="#DejaVuSans-6c" transform="translate(1954.345703 0)"/>
     <use xlink:href="#DejaVuSans-61" transform="translate(1982.128906 0)"/>
     <use xlink:href="#DejaVuSans-79" transform="translate(2043.408203 0)"/>
     <use xlink:href="#DejaVuSans-20" transform="translate(2102.587891 0)"/>
     <use xlink:href="#DejaVuSans-2b" transform="translate(2134.375 0)"/>
     <use xlink:href="#DejaVuSans-20" transform="translate(2218.164062 0)"/>
     <use xlink:href="#DejaVuSans-6e" transform="translate(2249.951172 0)"/>
     <use xlink:href="#DejaVuSans-75" transform="translate(2313.330078 0)"/>
     <use xlink:href="#DejaVuSans-6c" transform="translate(2376.708984 0)"/>
     <use xlink:href="#DejaVuSans-6c" transform="translate(2404.492188 0)"/>
     <use xlink:href="#DejaVuSans-20" transform="translate(2432.275391 0)"/>
     <use xlink:href="#DejaVuSans-62" transform="translate(2464.0625 0)"/>
     <use xlink:href="#DejaVuSans-61" transform="translate(2527.539062 0)"/>
     <use xlink:href="#DejaVuSans-6e" transform="translate(2588.818359 0)"/>
     <use xlink:href="#DejaVuSans-64" transform="translate(2652.197266 0)"/>
     <use xlink:href="#DejaVuSans-73" transform="translate(2715.673828 0)"/>
    </g>
   </g>
   <g id="legend_1">
    <g id="patch_7">
     <path d="M 79.2 83.990437 
L 99.2 83.990437 
L 99.2 76.990437 
L 79.2 76.990437 
z
" style="fill: #1f77b4; fill-opacity: 0.15"/>
    </g>
    <g id="text_14">
     <!-- SLIP→SSC null μ±σ -->
     <g transform="translate(107.2 83.990437) scale(0.1 -0.1)">
      <defs>
       <path id="DejaVuSans-2192" d="M 5050 2147 
L 5050 1866 
L 3822 638 
L 3447 1013 
L 4175 1741 
L 366 1741 
L 366 2272 
L 4175 2272 
L 3447 3000 
L 3822 3375 
L 5050 2147 
z
" transform="scale(0.015625)"/>
       <path id="DejaVuSans-3bc" d="M 544 -1331 
L 544 3500 
L 1119 3500 
L 1119 1325 
Q 1119 872 1334 640 
Q 1550 409 1972 409 
Q 2434 409 2667 671 
Q 2900 934 2900 1459 
L 2900 3500 
L 3475 3500 
L 3475 806 
Q 3475 619 3529 530 
Q 3584 441 3700 441 
Q 3728 441 3778 458 
Q 3828 475 3916 513 
L 3916 50 
Q 3788 -22 3673 -56 
Q 3559 -91 3450 -91 
Q 3234 -91 3106 31 
Q 2978 153 2931 403 
Q 2775 156 2548 32 
Q 2322 -91 2016 -91 
Q 1697 -91 1473 31 
Q 1250 153 1119 397 
L 1119 -1331 
L 544 -1331 
z
" transform="scale(0.015625)"/>
       <path id="DejaVuSans-b1" d="M 2944 4013 
L 2944 2803 
L 4684 2803 
L 4684 2272 
L 2944 2272 
L 2944 1063 
L 2419 1063 
L 2419 2272 
L 678 2272 
L 678 2803 
L 2419 2803 
L 2419 4013 
L 2944 4013 
z
M 678 531 
L 4684 531 
L 4684 0 
L 678 0 
L 678 531 
z
" transform="scale(0.015625)"/>
       <path id="DejaVuSans-3c3" d="M 1959 3044 
Q 1484 3044 1228 2700 
Q 959 2341 959 1747 
Q 959 1119 1226 758 
Q 1494 397 1959 397 
Q 2419 397 2687 759 
Q 2956 1122 2956 1747 
Q 2956 2319 2688 2700 
Q 2441 3044 1959 3044 
z
M 1959 3500 
L 3869 3500 
L 3869 2925 
L 3225 2925 
Q 3566 2438 3566 1747 
Q 3566 888 3138 400 
Q 2709 -91 1959 -91 
Q 1206 -91 781 400 
Q 353 888 353 1747 
Q 353 2613 781 3097 
Q 1134 3500 1959 3500 
z
" transform="scale(0.015625)"/>
      </defs>
      <use xlink:href="#DejaVuSans-53"/>
      <use xlink:href="#DejaVuSans-4c" transform="translate(63.476562 0)"/>
      <use xlink:href="#DejaVuSans-49" transform="translate(119.189453 0)"/>
      <use xlink:href="#DejaVuSans-50" transform="translate(148.681641 0)"/>
      <use xlink:href="#DejaVuSans-2192" transform="translate(208.984375 0)"/>
      <use xlink:href="#DejaVuSans-53" transform="translate(292.773438 0)"/>
      <use xlink:href="#DejaVuSans-53" transform="translate(356.25 0)"/>
      <use xlink:href="#DejaVuSans-43" transform="translate(419.726562 0)"/>
      <use xlink:href="#DejaVuSans-20" transform="translate(489.550781 0)"/>
      <use xlink:href="#DejaVuSans-6e" transform="translate(521.337891 0)"/>
      <use xlink:href="#DejaVuSans-75" transform="translate(584.716797 0)"/>
      <use xlink:href="#DejaVuSans-6c" transform="translate(648.095703 0)"/>
      <use xlink:href="#DejaVuSans-6c" transform="translate(675.878906 0)"/>
      <use xlink:href="#DejaVuSans-20" transform="translate(703.662109 0)"/>
      <use xlink:href="#DejaVuSans-3bc" transform="translate(735.449219 0)"/>
      <use xlink:href="#DejaVuSans-b1" transform="translate(799.072266 0)"/>
      <use xlink:href="#DejaVuSans-3c3" transform="translate(882.861328 0)"/>
     </g>
    </g>
    <g id="patch_8">
     <path d="M 79.2 98.668563 
L 99.2 98.668563 
L 99.2 91.668563 
L 79.2 91.668563 
z
" style="fill: #ff7f0e; fill-opacity: 0.15"/>
    </g>
    <g id="text_15">
     <!-- SSC→SLIP null μ±σ -->
     <g transform="translate(107.2 98.668563) scale(0.1 -0.1)">
      <use xlink:href="#DejaVuSans-53"/>
      <use xlink:href="#DejaVuSans-53" transform="translate(63.476562 0)"/>
      <use xlink:href="#DejaVuSans-43" transform="translate(126.953125 0)"/>
      <use xlink:href="#DejaVuSans-2192" transform="translate(196.777344 0)"/>
      <use xlink:href="#DejaVuSans-53" transform="translate(280.566406 0)"/>
      <use xlink:href="#DejaVuSans-4c" transform="translate(344.042969 0)"/>
      <use xlink:href="#DejaVuSans-49" transform="translate(399.755859 0)"/>
      <use xlink:href="#DejaVuSans-50" transform="translate(429.248047 0)"/>
      <use xlink:href="#DejaVuSans-20" transform="translate(489.550781 0)"/>
      <use xlink:href="#DejaVuSans-6e" transform="translate(521.337891 0)"/>
      <use xlink:href="#DejaVuSans-75" transform="translate(584.716797 0)"/>
      <use xlink:href="#DejaVuSans-6c" transform="translate(648.095703 0)"/>
      <use xlink:href="#DejaVuSans-6c" transform="translate(675.878906 0)"/>
      <use xlink:href="#DejaVuSans-20" transform="translate(703.662109 0)"/>
      <use xlink:href="#DejaVuSans-3bc" transform="translate(735.449219 0)"/>
      <use xlink:href="#DejaVuSans-b1" transform="translate(799.072266 0)"/>
      <use xlink:href="#DejaVuSans-3c3" transform="translate(882.861328 0)"/>
     </g>
    </g>
    <g id="line2d_17">
     <path d="M 221.826563 80.490437 
L 231.826563 80.490437 
L 241.826563 80.490437 
" style="fill: none; stroke: #1f77b4; stroke-width: 2.2; stroke-linecap: square"/>
    </g>
    <g id="text_16">
     <!-- SLIP→SSC -->
     <g transform="translate(249.826563 83.990437) scale(0.1 -0.1)">
      <use xlink:href="#DejaVuSans-53"/>
      <use xlink:href="#DejaVuSans-4c" transform="translate(63.476562 0)"/>
      <use xlink:href="#DejaVuSans-49" transform="translate(119.189453 0)"/>
      <use xlink:href="#DejaVuSans-50" transform="translate(148.681641 0)"/>
      <use xlink:href="#DejaVuSans-2192" transform="translate(208.984375 0)"/>
      <use xlink:href="#DejaVuSans-53" transform="translate(292.773438 0)"/>
      <use xlink:href="#DejaVuSans-53" transform="translate(356.25 0)"/>
      <use xlink:href="#DejaVuSans-43" transform="translate(419.726562 0)"/>
     </g>
    </g>
    <g id="line2d_18">
     <path d="M 221.826563 95.168563 
L 231.826563 95.168563 
L 241.826563 95.168563 
" style="fill: none; stroke: #ff7f0e; stroke-width: 2.2; stroke-linecap: square"/>
    </g>
    <g id="text_17">
     <!-- SSC→SLIP -->
     <g transform="translate(249.826563 98.668563) scale(0.1 -0.1)">
      <use xlink:href="#DejaVuSans-53"/>
      <use xlink:href="#DejaVuSans-53" transform="translate(63.476562 0)"/>
      <use xlink:href="#DejaVuSans-43" transform="translate(126.953125 0)"/>
      <use xlink:href="#DejaVuSans-2192" transform="translate(196.777344 0)"/>
      <use xlink:href="#DejaVuSans-53" transform="translate(280.566406 0)"/>
      <use xlink:href="#DejaVuSans-4c" transform="translate(344.042969 0)"/>
      <use xlink:href="#DejaVuSans-49" transform="translate(399.755859 0)"/>
      <use xlink:href="#DejaVuSans-50" transform="translate(429.248047 0)"/>
     </g>
    </g>
   </g>
  </g>
  <g id="axes_2">
   <g id="patch_9">
    <path d="M 70.2 353.106 
L 505.44 353.106 
L 505.44 237.276 
L 70.2 237.276 
z
" style="fill: #ffffff"/>
   </g>
   <g id="matplotlib.axis_3">
    <g id="xtick_7">
     <g id="line2d_19">
      <g>
       <use xlink:href="#m9ea1b202ed" x="87.985286" y="353.106" style="stroke: #000000; stroke-width: 0.8"/>
      </g>
     </g>
     <g id="text_18">
      <!-- −200 -->
      <g transform="translate(74.251693 367.704438) scale(0.1 -0.1)">
       <use xlink:href="#DejaVuSans-2212"/>
       <use xlink:href="#DejaVuSans-32" transform="translate(83.789062 0)"/>
       <use xlink:href="#DejaVuSans-30" transform="translate(147.412109 0)"/>
       <use xlink:href="#DejaVuSans-30" transform="translate(211.035156 0)"/>
      </g>
     </g>
    </g>
    <g id="xtick_8">
     <g id="line2d_20">
      <g>
       <use xlink:href="#m9ea1b202ed" x="167.91917" y="353.106" style="stroke: #000000; stroke-width: 0.8"/>
      </g>
     </g>
     <g id="text_19">
      <!-- 0 -->
      <g transform="translate(164.73792 367.704438) scale(0.1 -0.1)">
       <use xlink:href="#DejaVuSans-30"/>
      </g>
     </g>
    </g>
    <g id="xtick_9">
     <g id="line2d_21">
      <g>
       <use xlink:href="#m9ea1b202ed" x="247.853053" y="353.106" style="stroke: #000000; stroke-width: 0.8"/>
      </g>
     </g>
     <g id="text_20">
      <!-- 200 -->
      <g transform="translate(238.309303 367.704438) scale(0.1 -0.1)">
       <use xlink:href="#DejaVuSans-32"/>
       <use xlink:href="#DejaVuSans-30" transform="translate(63.623047 0)"/>
       <use xlink:href="#DejaVuSans-30" transform="translate(127.246094 0)"/>
      </g>
     </g>
    </g>
    <g id="xtick_10">
     <g id="line2d_22">
      <g>
       <use xlink:href="#m9ea1b202ed" x="327.786937" y="353.106" style="stroke: #000000; stroke-width: 0.8"/>
      </g>
     </g>
     <g id="text_21">
      <!-- 400 -->
      <g transform="translate(318.243187 367.704438) scale(0.1 -0.1)">
       <use xlink:href="#DejaVuSans-34"/>
       <use xlink:href="#DejaVuSans-30" transform="translate(63.623047 0)"/>
       <use xlink:href="#DejaVuSans-30" transform="translate(127.246094 0)"/>
      </g>
     </g>
    </g>
    <g id="xtick_11">
     <g id="line2d_23">
      <g>
       <use xlink:href="#m9ea1b202ed" x="407.720821" y="353.106" style="stroke: #000000; stroke-width: 0.8"/>
      </g>
     </g>
     <g id="text_22">
      <!-- 600 -->
      <g transform="translate(398.177071 367.704438) scale(0.1 -0.1)">
       <use xlink:href="#DejaVuSans-36"/>
       <use xlink:href="#DejaVuSans-30" transform="translate(63.623047 0)"/>
       <use xlink:href="#DejaVuSans-30" transform="translate(127.246094 0)"/>
      </g>
     </g>
    </g>
    <g id="xtick_12">
     <g id="line2d_24">
      <g>
       <use xlink:href="#m9ea1b202ed" x="487.654704" y="353.106" style="stroke: #000000; stroke-width: 0.8"/>
      </g>
     </g>
     <g id="text_23">
      <!-- 800 -->
      <g transform="translate(478.110954 367.704438) scale(0.1 -0.1)">
       <use xlink:href="#DejaVuSans-38"/>
       <use xlink:href="#DejaVuSans-30" transform="translate(63.623047 0)"/>
       <use xlink:href="#DejaVuSans-30" transform="translate(127.246094 0)"/>
      </g>
     </g>
    </g>
   </g>
   <g id="matplotlib.axis_4">
    <g id="ytick_6">
     <g id="line2d_25">
      <g>
       <use xlink:href="#m608db98c5c" x="70.2" y="330.412561" style="stroke: #000000; stroke-width: 0.8"/>
      </g>
     </g>
     <g id="text_24">
      <!-- −10 -->
      <g transform="translate(42.095313 334.21178) scale(0.1 -0.1)">
       <use xlink:href="#DejaVuSans-2212"/>
       <use xlink:href="#DejaVuSans-31" transform="translate(83.789062 0)"/>
       <use xlink:href="#DejaVuSans-30" transform="translate(147.412109 0)"/>
      </g>
     </g>
    </g>
    <g id="ytick_7">
     <g id="line2d_26">
      <g>
       <use xlink:href="#m608db98c5c" x="70.2" y="296.11135" style="stroke: #000000; stroke-width: 0.8"/>
      </g>
     </g>
     <g id="text_25">
      <!-- 0 -->
      <g transform="translate(56.8375 299.910569) scale(0.1 -0.1)">
       <use xlink:href="#DejaVuSans-30"/>
      </g>
     </g>
    </g>
    <g id="ytick_8">
     <g id="line2d_27">
      <g>
       <use xlink:href="#m608db98c5c" x="70.2" y="261.810139" style="stroke: #000000; stroke-width: 0.8"/>
      </g>
     </g>
     <g id="text_26">
      <!-- 10 -->
      <g transform="translate(50.475 265.609357) scale(0.1 -0.1)">
       <use xlink:href="#DejaVuSans-31"/>
       <use xlink:href="#DejaVuSans-30" transform="translate(63.623047 0)"/>
      </g>
     </g>
    </g>
    <g id="text_27">
     <!-- ΔΔLL (bits) -->
     <g transform="translate(36.015625 322.22225) rotate(-90) scale(0.1 -0.1)">
      <use xlink:href="#DejaVuSans-394"/>
      <use xlink:href="#DejaVuSans-394" transform="translate(68.408203 0)"/>
      <use xlink:href="#DejaVuSans-4c" transform="translate(136.816406 0)"/>
      <use xlink:href="#DejaVuSans-4c" transform="translate(192.529297 0)"/>
      <use xlink:href="#DejaVuSans-20" transform="translate(248.242188 0)"/>
      <use xlink:href="#DejaVuSans-28" transform="translate(280.029297 0)"/>
      <use xlink:href="#DejaVuSans-62" transform="translate(319.042969 0)"/>
      <use xlink:href="#DejaVuSans-69" transform="translate(382.519531 0)"/>
      <use xlink:href="#DejaVuSans-74" transform="translate(410.302734 0)"/>
      <use xlink:href="#DejaVuSans-73" transform="translate(449.511719 0)"/>
      <use xlink:href="#DejaVuSans-29" transform="translate(501.611328 0)"/>
     </g>
    </g>
   </g>
   <g id="line2d_28">
    <path d="M 167.91917 353.106 
L 167.91917 237.276 
" clip-path="url(#p1f30aabdee)" style="fill: none; stroke-dasharray: 2.96,1.28; stroke-dashoffset: 0; stroke: #000000; stroke-width: 0.8"/>
   </g>
   <g id="line2d_29">
    <path d="M 70.2 296.11135 
L 505.44 296.11135 
" clip-path="url(#p1f30aabdee)" style="fill: none; stroke-dasharray: 0.8,1.32; stroke-dashoffset: 0; stroke: #000000; stroke-width: 0.8"/>
   </g>
   <g id="line2d_30">
    <path d="M 89.983636 310.135534 
L 93.980327 324.483816 
L 97.977023 302.325607 
L 101.973713 315.771362 
L 105.97041 259.297841 
L 109.967106 280.073999 
L 113.963796 275.393321 
L 117.960493 330.398096 
L 121.957186 295.067808 
L 125.953882 322.421183 
L 129.950576 281.953297 
L 133.947269 259.015514 
L 137.943962 276.93525 
L 141.940659 301.87016 
L 145.937352 298.032112 
L 149.934045 325.903702 
L 153.93074 284.537473 
L 157.927434 278.245144 
L 161.924129 342.946835 
L 165.920823 247.922616 
L 169.917517 291.498993 
L 173.914211 323.588351 
L 177.910906 276.025505 
L 181.9076 252.626035 
L 185.904294 308.327889 
L 189.900988 280.507729 
L 193.897681 325.844666 
L 197.894377 275.509435 
L 201.891071 315.040013 
L 205.887764 344.62053 
L 209.884457 314.043445 
L 213.881154 273.201977 
L 217.877847 299.491773 
L 221.874543 317.534551 
L 225.871234 261.349294 
L 229.86793 302.328256 
L 233.864626 278.507766 
L 237.861317 303.152075 
L 241.858013 292.324473 
L 245.854704 296.612511 
L 249.8514 291.807068 
L 253.848096 269.300328 
L 257.844787 306.268602 
L 261.841483 301.27412 
L 265.838179 273.732378 
L 269.83487 277.208305 
L 273.83156 258.901147 
L 277.828262 321.479903 
L 281.824953 264.750106 
L 285.821643 308.489112 
L 289.818345 302.221088 
L 293.815036 263.515081 
L 297.811726 279.851457 
L 301.808428 300.475271 
L 305.805119 322.855645 
L 309.801809 324.457919 
L 313.798511 282.368839 
L 317.795202 275.81663 
L 321.791892 303.865075 
L 325.788594 334.856787 
L 329.785285 258.239393 
L 333.781975 274.064485 
L 337.778677 309.251533 
L 341.775368 309.026553 
L 345.772058 289.127812 
L 349.76876 303.360022 
L 353.765451 314.889721 
L 357.762141 275.098457 
L 361.758843 292.891958 
L 365.755534 305.568886 
L 369.752224 302.673979 
L 373.748914 326.311146 
L 377.745605 258.72561 
L 381.742319 312.603148 
L 385.739009 278.994464 
L 389.7357 347.841 
L 393.73239 242.541 
L 397.72908 300.430303 
L 401.725771 271.654551 
L 405.722485 306.498911 
L 409.719175 312.683563 
L 413.715866 324.389777 
L 417.712556 308.205807 
L 421.709246 295.635552 
L 425.705937 322.286383 
L 429.702627 280.292831 
L 433.699341 255.571872 
L 437.696032 296.345472 
L 441.692722 325.429699 
L 445.689412 288.441627 
L 449.686103 300.928331 
L 453.682793 293.527272 
L 457.679507 295.8156 
L 461.676198 306.297479 
L 465.672888 316.410048 
L 469.669578 297.577669 
L 473.666269 251.912616 
L 477.662959 287.480486 
L 481.659673 266.013151 
L 485.656364 267.052707 
" clip-path="url(#p1f30aabdee)" style="fill: none; stroke: #d62728; stroke-width: 2.2; stroke-linecap: square"/>
   </g>
   <g id="line2d_31">
    <defs>
     <path id="md664cf75bc" d="M 0 1.25 
C 0.331504 1.25 0.649475 1.118292 0.883883 0.883883 
C 1.118292 0.649475 1.25 0.331504 1.25 0 
C 1.25 -0.331504 1.118292 -0.649475 0.883883 -0.883883 
C 0.649475 -1.118292 0.331504 -1.25 0 -1.25 
C -0.331504 -1.25 -0.649475 -1.118292 -0.883883 -0.883883 
C -1.118292 -0.649475 -1.25 -0.331504 -1.25 0 
C -1.25 0.331504 -1.118292 0.649475 -0.883883 0.883883 
C -0.649475 1.118292 -0.331504 1.25 0 1.25 
z
" style="stroke: #000000"/>
    </defs>
    <g clip-path="url(#p1f30aabdee)">
     <use xlink:href="#md664cf75bc" x="165.920823" y="247.922616" style="stroke: #000000"/>
     <use xlink:href="#md664cf75bc" x="225.871234" y="261.349294" style="stroke: #000000"/>
     <use xlink:href="#md664cf75bc" x="293.815036" y="263.515081" style="stroke: #000000"/>
     <use xlink:href="#md664cf75bc" x="377.745605" y="258.72561" style="stroke: #000000"/>
     <use xlink:href="#md664cf75bc" x="393.73239" y="242.541" style="stroke: #000000"/>
     <use xlink:href="#md664cf75bc" x="473.666269" y="251.912616" style="stroke: #000000"/>
    </g>
   </g>
   <g id="patch_10">
    <path d="M 70.2 353.106 
L 70.2 237.276 
" style="fill: none; stroke: #000000; stroke-width: 0.8; stroke-linejoin: miter; stroke-linecap: square"/>
   </g>
   <g id="patch_11">
    <path d="M 505.44 353.106 
L 505.44 237.276 
" style="fill: none; stroke: #000000; stroke-width: 0.8; stroke-linejoin: miter; stroke-linecap: square"/>
   </g>
   <g id="patch_12">
    <path d="M 70.2 353.106 
L 505.44 353.106 
" style="fill: none; stroke: #000000; stroke-width: 0.8; stroke-linejoin: miter; stroke-linecap: square"/>
   </g>
   <g id="patch_13">
    <path d="M 70.2 237.276 
L 505.44 237.276 
" style="fill: none; stroke: #000000; stroke-width: 0.8; stroke-linejoin: miter; stroke-linecap: square"/>
   </g>
   <g id="text_28">
    <!-- Panel B: pair-diff with significance dots -->
    <g transform="translate(171.554063 231.276) scale(0.12 -0.12)">
     <defs>
      <path id="DejaVuSans-42" d="M 1259 2228 
L 1259 519 
L 2272 519 
Q 2781 519 3026 730 
Q 3272 941 3272 1375 
Q 3272 1813 3026 2020 
Q 2781 2228 2272 2228 
L 1259 2228 
z
M 1259 4147 
L 1259 2741 
L 2194 2741 
Q 2656 2741 2882 2914 
Q 3109 3088 3109 3444 
Q 3109 3797 2882 3972 
Q 2656 4147 2194 4147 
L 1259 4147 
z
M 628 4666 
L 2241 4666 
Q 2963 4666 3353 4366 
Q 3744 4066 3744 3513 
Q 3744 3084 3544 2831 
Q 3344 2578 2956 2516 
Q 3422 2416 3680 2098 
Q 3938 1781 3938 1306 
Q 3938 681 3513 340 
Q 3088 0 2303 0 
L 628 0 
L 628 4666 
z
" transform="scale(0.015625)"/>
      <path id="DejaVuSans-70" d="M 1159 525 
L 1159 -1331 
L 581 -1331 
L 581 3500 
L 1159 3500 
L 1159 2969 
Q 1341 3281 1617 3432 
Q 1894 3584 2278 3584 
Q 2916 3584 3314 3078 
Q 3713 2572 3713 1747 
Q 3713 922 3314 415 
Q 2916 -91 2278 -91 
Q 1894 -91 1617 61 
Q 1341 213 1159 525 
z
M 3116 1747 
Q 3116 2381 2855 2742 
Q 2594 3103 2138 3103 
Q 1681 3103 1420 2742 
Q 1159 2381 1159 1747 
Q 1159 1113 1420 752 
Q 1681 391 2138 391 
Q 2594 391 2855 752 
Q 3116 1113 3116 1747 
z
" transform="scale(0.015625)"/>
      <path id="DejaVuSans-68" d="M 3513 2113 
L 3513 0 
L 2938 0 
L 2938 2094 
Q 2938 2591 2744 2837 
Q 2550 3084 2163 3084 
Q 1697 3084 1428 2787 
Q 1159 2491 1159 1978 
L 1159 0 
L 581 0 
L 581 4863 
L 1159 4863 
L 1159 2956 
Q 1366 3272 1645 3428 
Q 1925 3584 2291 3584 
Q 2894 3584 3203 3211 
Q 3513 2838 3513 2113 
z
" transform="scale(0.015625)"/>
      <path id="DejaVuSans-67" d="M 2906 1791 
Q 2906 2416 2648 2759 
Q 2391 3103 1925 3103 
Q 1463 3103 1205 2759 
Q 947 2416 947 1791 
Q 947 1169 1205 825 
Q 1463 481 1925 481 
Q 2391 481 2648 825 
Q 2906 1169 2906 1791 
z
M 3481 434 
Q 3481 -459 3084 -895 
Q 2688 -1331 1869 -1331 
Q 1566 -1331 1297 -1286 
Q 1028 -1241 775 -1147 
L 775 -588 
Q 1028 -725 1275 -790 
Q 1522 -856 1778 -856 
Q 2344 -856 2625 -561 
Q 2906 -266 2906 331 
L 2906 616 
Q 2728 306 2450 153 
Q 2172 0 1784 0 
Q 1141 0 747 490 
Q 353 981 353 1791 
Q 353 2603 747 3093 
Q 1141 3584 1784 3584 
Q 2172 3584 2450 3431 
Q 2728 3278 2906 2969 
L 2906 3500 
L 3481 3500 
L 3481 434 
z
" transform="scale(0.015625)"/>
      <path id="DejaVuSans-63" d="M 3122 3366 
L 3122 2828 
Q 2878 2963 2633 3030 
Q 2388 3097 2138 3097 
Q 1578 3097 1268 2742 
Q 959 2388 959 1747 
Q 959 1106 1268 751 
Q 1578 397 2138 397 
Q 2388 397 2633 464 
Q 2878 531 3122 666 
L 3122 134 
Q 2881 22 2623 -34 
Q 2366 -91 2075 -91 
Q 1284 -91 818 406 
Q 353 903 353 1747 
Q 353 2603 823 3093 
Q 1294 3584 2113 3584 
Q 2378 3584 2631 3529 
Q 2884 3475 3122 3366 
z
" transform="scale(0.015625)"/>
     </defs>
     <use xlink:href="#DejaVuSans-50"/>
     <use xlink:href="#DejaVuSans-61" transform="translate(55.802734 0)"/>
     <use xlink:href="#DejaVuSans-6e" transform="translate(117.082031 0)"/>
     <use xlink:href="#DejaVuSans-65" transform="translate(180.460938 0)"/>
     <use xlink:href="#DejaVuSans-6c" transform="translate(241.984375 0)"/>
     <use xlink:href="#DejaVuSans-20" transform="translate(269.767578 0)"/>
     <use xlink:href="#DejaVuSans-42" transform="translate(301.554688 0)"/>
     <use xlink:href="#DejaVuSans-3a" transform="translate(370.158203 0)"/>
     <use xlink:href="#DejaVuSans-20" transform="translate(403.849609 0)"/>
     <use xlink:href="#DejaVuSans-70" transform="translate(435.636719 0)"/>
     <use xlink:href="#DejaVuSans-61" transform="translate(499.113281 0)"/>
     <use xlink:href="#DejaVuSans-69" transform="translate(560.392578 0)"/>
     <use xlink:href="#DejaVuSans-72" transform="translate(588.175781 0)"/>
     <use xlink:href="#DejaVuSans-2d" transform="translate(622.914062 0)"/>
     <use xlink:href="#DejaVuSans-64" transform="translate(658.998047 0)"/>
     <use xlink:href="#DejaVuSans-69" transform="translate(722.474609 0)"/>
     <use xlink:href="#DejaVuSans-66" transform="translate(750.257812 0)"/>
     <use xlink:href="#DejaVuSans-66" transform="translate(785.462891 0)"/>
     <use xlink:href="#DejaVuSans-20" transform="translate(820.667969 0)"/>
     <use xlink:href="#DejaVuSans-77" transform="translate(852.455078 0)"/>
     <use xlink:href="#DejaVuSans-69" transform="translate(934.242188 0)"/>
     <use xlink:href="#DejaVuSans-74" transform="translate(962.025391 0)"/>
     <use xlink:href="#DejaVuSans-68" transform="translate(1001.234375 0)"/>
     <use xlink:href="#DejaVuSans-20" transform="translate(1064.613281 0)"/>
     <use xlink:href="#DejaVuSans-73" transform="translate(1096.400391 0)"/>
     <use xlink:href="#DejaVuSans-69" transform="translate(1148.5 0)"/>
     <use xlink:href="#DejaVuSans-67" transform="translate(1176.283203 0)"/>
     <use xlink:href="#DejaVuSans-6e" transform="translate(1239.759766 0)"/>
     <use xlink:href="#DejaVuSans-69" transform="translate(1303.138672 0)"/>
     <use xlink:href="#DejaVuSans-66" transform="translate(1330.921875 0)"/>
     <use xlink:href="#DejaVuSans-69" transform="translate(1366.126953 0)"/>
     <use xlink:href="#DejaVuSans-63" transform="translate(1393.910156 0)"/>
     <use xlink:href="#DejaVuSans-61" transform="translate(1448.890625 0)"/>
     <use xlink:href="#DejaVuSans-6e" transform="translate(1510.169922 0)"/>
     <use xlink:href="#DejaVuSans-63" transform="translate(1573.548828 0)"/>
     <use xlink:href="#DejaVuSans-65" transform="translate(1628.529297 0)"/>
     <use xlink:href="#DejaVuSans-20" transform="translate(1690.052734 0)"/>
     <use xlink:href="#DejaVuSans-64" transform="translate(1721.839844 0)"/>
     <use xlink:href="#DejaVuSans-6f" transform="translate(1785.316406 0)"/>
     <use xlink:href="#DejaVuSans-74" transform="translate(1846.498047 0)"/>
     <use xlink:href="#DejaVuSans-73" transform="translate(1885.707031 0)"/>
    </g>
   </g>
   <g id="legend_2">
    <g id="line2d_32">
     <path d="M 79.2 250.374437 
L 89.2 250.374437 
L 99.2 250.374437 
" style="fill: none; stroke: #d62728; stroke-width: 2.2; stroke-linecap: square"/>
    </g>
    <g id="text_29">
     <!-- (A→B − B→A) -->
     <g transform="translate(107.2 253.874437) scale(0.1 -0.1)">
      <use xlink:href="#DejaVuSans-28"/>
      <use xlink:href="#DejaVuSans-41" transform="translate(39.013672 0)"/>
      <use xlink:href="#DejaVuSans-2192" transform="translate(107.421875 0)"/>
      <use xlink:href="#DejaVuSans-42" transform="translate(191.210938 0)"/>
      <use xlink:href="#DejaVuSans-20" transform="translate(259.814453 0)"/>
      <use xlink:href="#DejaVuSans-2212" transform="translate(291.601562 0)"/>
      <use xlink:href="#DejaVuSans-20" transform="translate(375.390625 0)"/>
      <use xlink:href="#DejaVuSans-42" transform="translate(407.177734 0)"/>
      <use xlink:href="#DejaVuSans-2192" transform="translate(475.78125 0)"/>
      <use xlink:href="#DejaVuSans-41" transform="translate(559.570312 0)"/>
      <use xlink:href="#DejaVuSans-29" transform="translate(627.978516 0)"/>
     </g>
    </g>
    <g id="line2d_33">
     <g>
      <use xlink:href="#md664cf75bc" x="89.2" y="265.052563" style="stroke: #000000"/>
     </g>
    </g>
    <g id="text_30">
     <!-- p&lt;0.05 (one-sided) -->
     <g transform="translate(107.2 268.552563) scale(0.1 -0.1)">
      <defs>
       <path id="DejaVuSans-3c" d="M 4684 3150 
L 1459 2003 
L 4684 863 
L 4684 294 
L 678 1747 
L 678 2266 
L 4684 3719 
L 4684 3150 
z
" transform="scale(0.015625)"/>
       <path id="DejaVuSans-2e" d="M 684 794 
L 1344 794 
L 1344 0 
L 684 0 
L 684 794 
z
" transform="scale(0.015625)"/>
      </defs>
      <use xlink:href="#DejaVuSans-70"/>
      <use xlink:href="#DejaVuSans-3c" transform="translate(63.476562 0)"/>
      <use xlink:href="#DejaVuSans-30" transform="translate(147.265625 0)"/>
      <use xlink:href="#DejaVuSans-2e" transform="translate(210.888672 0)"/>
      <use xlink:href="#DejaVuSans-30" transform="translate(242.675781 0)"/>
      <use xlink:href="#DejaVuSans-35" transform="translate(306.298828 0)"/>
      <use xlink:href="#DejaVuSans-20" transform="translate(369.921875 0)"/>
      <use xlink:href="#DejaVuSans-28" transform="translate(401.708984 0)"/>
      <use xlink:href="#DejaVuSans-6f" transform="translate(440.722656 0)"/>
      <use xlink:href="#DejaVuSans-6e" transform="translate(501.904297 0)"/>
      <use xlink:href="#DejaVuSans-65" transform="translate(565.283203 0)"/>
      <use xlink:href="#DejaVuSans-2d" transform="translate(626.806641 0)"/>
      <use xlink:href="#DejaVuSans-73" transform="translate(662.890625 0)"/>
      <use xlink:href="#DejaVuSans-69" transform="translate(714.990234 0)"/>
      <use xlink:href="#DejaVuSans-64" transform="translate(742.773438 0)"/>
      <use xlink:href="#DejaVuSans-65" transform="translate(806.25 0)"/>
      <use xlink:href="#DejaVuSans-64" transform="translate(867.773438 0)"/>
      <use xlink:href="#DejaVuSans-29" transform="translate(931.25 0)"/>
     </g>
    </g>
   </g>
  </g>
  <g id="axes_3">
   <g id="patch_14">
    <path d="M 70.2 499.824 
L 505.44 499.824 
L 505.44 383.994 
L 70.2 383.994 
z
" style="fill: #ffffff"/>
   </g>
   <g id="matplotlib.axis_5">
    <g id="xtick_13">
     <g id="line2d_34">
      <g>
       <use xlink:href="#m9ea1b202ed" x="87.985286" y="499.824" style="stroke: #000000; stroke-width: 0.8"/>
      </g>
     </g>
     <g id="text_31">
      <!-- −200 -->
      <g transform="translate(74.251693 514.422438) scale(0.1 -0.1)">
       <use xlink:href="#DejaVuSans-2212"/>
       <use xlink:href="#DejaVuSans-32" transform="translate(83.789062 0)"/>
       <use xlink:href="#DejaVuSans-30" transform="translate(147.412109 0)"/>
       <use xlink:href="#DejaVuSans-30" transform="translate(211.035156 0)"/>
      </g>
     </g>
    </g>
    <g id="xtick_14">
     <g id="line2d_35">
      <g>
       <use xlink:href="#m9ea1b202ed" x="167.91917" y="499.824" style="stroke: #000000; stroke-width: 0.8"/>
      </g>
     </g>
     <g id="text_32">
      <!-- 0 -->
      <g transform="translate(164.73792 514.422438) scale(0.1 -0.1)">
       <use xlink:href="#DejaVuSans-30"/>
      </g>
     </g>
    </g>
    <g id="xtick_15">
     <g id="line2d_36">
      <g>
       <use xlink:href="#m9ea1b202ed" x="247.853053" y="499.824" style="stroke: #000000; stroke-width: 0.8"/>
      </g>
     </g>
     <g id="text_33">
      <!-- 200 -->
      <g transform="translate(238.309303 514.422438) scale(0.1 -0.1)">
       <use xlink:href="#DejaVuSans-32"/>
       <use xlink:href="#DejaVuSans-30" transform="translate(63.623047 0)"/>
       <use xlink:href="#DejaVuSans-30" transform="translate(127.246094 0)"/>
      </g>
     </g>
    </g>
    <g id="xtick_16">
     <g id="line2d_37">
      <g>
       <use xlink:href="#m9ea1b202ed" x="327.786937" y="499.824" style="stroke: #000000; stroke-width: 0.8"/>
      </g>
     </g>
     <g id="text_34">
      <!-- 400 -->
      <g transform="translate(318.243187 514.422438) scale(0.1 -0.1)">
       <use xlink:href="#DejaVuSans-34"/>
       <use xlink:href="#DejaVuSans-30" transform="translate(63.623047 0)"/>
       <use xlink:href="#DejaVuSans-30" transform="translate(127.246094 0)"/>
      </g>
     </g>
    </g>
    <g id="xtick_17">
     <g id="line2d_38">
      <g>
       <use xlink:href="#m9ea1b202ed" x="407.720821" y="499.824" style="stroke: #000000; stroke-width: 0.8"/>
      </g>
     </g>
     <g id="text_35">
      <!-- 600 -->
      <g transform="translate(398.177071 514.422438) scale(0.1 -0.1)">
       <use xlink:href="#DejaVuSans-36"/>
       <use xlink:href="#DejaVuSans-30" transform="translate(63.623047 0)"/>
       <use xlink:href="#DejaVuSans-30" transform="translate(127.246094 0)"/>
      </g>
     </g>
    </g>
    <g id="xtick_18">
     <g id="line2d_39">
      <g>
       <use xlink:href="#m9ea1b202ed" x="487.654704" y="499.824" style="stroke: #000000; stroke-width: 0.8"/>
      </g>
     </g>
     <g id="text_36">
      <!-- 800 -->
      <g transform="translate(478.110954 514.422438) scale(0.1 -0.1)">
       <use xlink:href="#DejaVuSans-38"/>
       <use xlink:href="#DejaVuSans-30" transform="translate(63.623047 0)"/>
       <use xlink:href="#DejaVuSans-30" transform="translate(127.246094 0)"/>
      </g>
     </g>
    </g>
    <g id="text_37">
     <!-- Time (ms) -->
     <g transform="translate(262.620781 528.100563) scale(0.1 -0.1)">
      <defs>
       <path id="DejaVuSans-54" d="M -19 4666 
L 3928 4666 
L 3928 4134 
L 2272 4134 
L 2272 0 
L 1638 0 
L 1638 4134 
L -19 4134 
L -19 4666 
z
" transform="scale(0.015625)"/>
       <path id="DejaVuSans-6d" d="M 3328 2828 
Q 3544 3216 3844 3400 
Q 4144 3584 4550 3584 
Q 5097 3584 5394 3201 
Q 5691 2819 5691 2113 
L 5691 0 
L 5113 0 
L 5113 2094 
Q 5113 2597 4934 2840 
Q 4756 3084 4391 3084 
Q 3944 3084 3684 2787 
Q 3425 2491 3425 1978 
L 3425 0 
L 2847 0 
L 2847 2094 
Q 2847 2600 2669 2842 
Q 2491 3084 2119 3084 
Q 1678 3084 1418 2786 
Q 1159 2488 1159 1978 
L 1159 0 
L 581 0 
L 581 3500 
L 1159 3500 
L 1159 2956 
Q 1356 3278 1631 3431 
Q 1906 3584 2284 3584 
Q 2666 3584 2933 3390 
Q 3200 3197 3328 2828 
z
" transform="scale(0.015625)"/>
      </defs>
      <use xlink:href="#DejaVuSans-54"/>
      <use xlink:href="#DejaVuSans-69" transform="translate(57.958984 0)"/>
      <use xlink:href="#DejaVuSans-6d" transform="translate(85.742188 0)"/>
      <use xlink:href="#DejaVuSans-65" transform="translate(183.154297 0)"/>
      <use xlink:href="#DejaVuSans-20" transform="translate(244.677734 0)"/>
      <use xlink:href="#DejaVuSans-28" transform="translate(276.464844 0)"/>
      <use xlink:href="#DejaVuSans-6d" transform="translate(315.478516 0)"/>
      <use xlink:href="#DejaVuSans-73" transform="translate(412.890625 0)"/>
      <use xlink:href="#DejaVuSans-29" transform="translate(464.990234 0)"/>
     </g>
    </g>
   </g>
   <g id="matplotlib.axis_6">
    <g id="ytick_9">
     <g id="line2d_40">
      <g>
       <use xlink:href="#m608db98c5c" x="70.2" y="484.882411" style="stroke: #000000; stroke-width: 0.8"/>
      </g>
     </g>
     <g id="text_38">
      <!-- −1 -->
      <g transform="translate(48.457813 488.68163) scale(0.1 -0.1)">
       <use xlink:href="#DejaVuSans-2212"/>
       <use xlink:href="#DejaVuSans-31" transform="translate(83.789062 0)"/>
      </g>
     </g>
    </g>
    <g id="ytick_10">
     <g id="line2d_41">
      <g>
       <use xlink:href="#m608db98c5c" x="70.2" y="461.393354" style="stroke: #000000; stroke-width: 0.8"/>
      </g>
     </g>
     <g id="text_39">
      <!-- 0 -->
      <g transform="translate(56.8375 465.192573) scale(0.1 -0.1)">
       <use xlink:href="#DejaVuSans-30"/>
      </g>
     </g>
    </g>
    <g id="ytick_11">
     <g id="line2d_42">
      <g>
       <use xlink:href="#m608db98c5c" x="70.2" y="437.904298" style="stroke: #000000; stroke-width: 0.8"/>
      </g>
     </g>
     <g id="text_40">
      <!-- 1 -->
      <g transform="translate(56.8375 441.703517) scale(0.1 -0.1)">
       <use xlink:href="#DejaVuSans-31"/>
      </g>
     </g>
    </g>
    <g id="ytick_12">
     <g id="line2d_43">
      <g>
       <use xlink:href="#m608db98c5c" x="70.2" y="414.415242" style="stroke: #000000; stroke-width: 0.8"/>
      </g>
     </g>
     <g id="text_41">
      <!-- 2 -->
      <g transform="translate(56.8375 418.21446) scale(0.1 -0.1)">
       <use xlink:href="#DejaVuSans-32"/>
      </g>
     </g>
    </g>
    <g id="ytick_13">
     <g id="line2d_44">
      <g>
       <use xlink:href="#m608db98c5c" x="70.2" y="390.926185" style="stroke: #000000; stroke-width: 0.8"/>
      </g>
     </g>
     <g id="text_42">
      <!-- 3 -->
      <g transform="translate(56.8375 394.725404) scale(0.1 -0.1)">
       <defs>
        <path id="DejaVuSans-33" d="M 2597 2516 
Q 3050 2419 3304 2112 
Q 3559 1806 3559 1356 
Q 3559 666 3084 287 
Q 2609 -91 1734 -91 
Q 1441 -91 1130 -33 
Q 819 25 488 141 
L 488 750 
Q 750 597 1062 519 
Q 1375 441 1716 441 
Q 2309 441 2620 675 
Q 2931 909 2931 1356 
Q 2931 1769 2642 2001 
Q 2353 2234 1838 2234 
L 1294 2234 
L 1294 2753 
L 1863 2753 
Q 2328 2753 2575 2939 
Q 2822 3125 2822 3475 
Q 2822 3834 2567 4026 
Q 2313 4219 1838 4219 
Q 1578 4219 1281 4162 
Q 984 4106 628 3988 
L 628 4550 
Q 988 4650 1302 4700 
Q 1616 4750 1894 4750 
Q 2613 4750 3031 4423 
Q 3450 4097 3450 3541 
Q 3450 3153 3228 2886 
Q 3006 2619 2597 2516 
z
" transform="scale(0.015625)"/>
       </defs>
       <use xlink:href="#DejaVuSans-33"/>
      </g>
     </g>
    </g>
    <g id="text_43">
     <!-- Z (σ from null) -->
     <g transform="translate(42.378125 477.919938) rotate(-90) scale(0.1 -0.1)">
      <defs>
       <path id="DejaVuSans-5a" d="M 359 4666 
L 4025 4666 
L 4025 4184 
L 1075 531 
L 4097 531 
L 4097 0 
L 288 0 
L 288 481 
L 3238 4134 
L 359 4134 
L 359 4666 
z
" transform="scale(0.015625)"/>
      </defs>
      <use xlink:href="#DejaVuSans-5a"/>
      <use xlink:href="#DejaVuSans-20" transform="translate(68.505859 0)"/>
      <use xlink:href="#DejaVuSans-28" transform="translate(100.292969 0)"/>
      <use xlink:href="#DejaVuSans-3c3" transform="translate(139.306641 0)"/>
      <use xlink:href="#DejaVuSans-20" transform="translate(202.685547 0)"/>
      <use xlink:href="#DejaVuSans-66" transform="translate(234.472656 0)"/>
      <use xlink:href="#DejaVuSans-72" transform="translate(269.677734 0)"/>
      <use xlink:href="#DejaVuSans-6f" transform="translate(308.541016 0)"/>
      <use xlink:href="#DejaVuSans-6d" transform="translate(369.722656 0)"/>
      <use xlink:href="#DejaVuSans-20" transform="translate(467.134766 0)"/>
      <use xlink:href="#DejaVuSans-6e" transform="translate(498.921875 0)"/>
      <use xlink:href="#DejaVuSans-75" transform="translate(562.300781 0)"/>
      <use xlink:href="#DejaVuSans-6c" transform="translate(625.679688 0)"/>
      <use xlink:href="#DejaVuSans-6c" transform="translate(653.462891 0)"/>
      <use xlink:href="#DejaVuSans-29" transform="translate(681.246094 0)"/>
     </g>
    </g>
   </g>
   <g id="line2d_45">
    <path d="M 167.91917 499.824 
L 167.91917 383.994 
" clip-path="url(#pb1a6bd8127)" style="fill: none; stroke-dasharray: 2.96,1.28; stroke-dashoffset: 0; stroke: #000000; stroke-width: 0.8"/>
   </g>
   <g id="line2d_46">
    <path d="M 89.983636 481.250549 
L 93.980327 489.898421 
L 97.977023 459.219615 
L 101.973713 476.50117 
L 105.97041 445.905946 
L 109.967106 440.718234 
L 113.963796 455.266936 
L 117.960493 475.041351 
L 121.957186 484.960449 
L 125.953882 487.621411 
L 129.950576 425.52137 
L 133.947269 447.568909 
L 137.943962 458.20613 
L 141.940659 485.852646 
L 145.937352 472.408892 
L 149.934045 478.157296 
L 153.93074 446.995333 
L 157.927434 446.957451 
L 161.924129 482.428597 
L 165.920823 411.215204 
L 169.917517 476.459791 
L 173.914211 485.147551 
L 177.910906 477.34883 
L 181.9076 429.479336 
L 185.904294 485.038983 
L 189.900988 466.591115 
L 193.897681 490.845454 
L 197.894377 459.030016 
L 201.891071 457.770373 
L 205.887764 484.855274 
L 209.884457 475.606744 
L 213.881154 441.723918 
L 217.877847 464.646536 
L 221.874543 449.970753 
L 225.871234 400.689818 
L 229.86793 447.002792 
L 233.864626 473.343584 
L 237.861317 477.471079 
L 241.858013 486.513916 
L 245.854704 487.489427 
L 249.8514 477.056604 
L 253.848096 446.480851 
L 257.844787 483.117823 
L 261.841483 476.066133 
L 265.838179 452.889288 
L 269.83487 453.620803 
L 273.83156 440.089438 
L 277.828262 467.058999 
L 281.824953 430.969322 
L 285.821643 475.19041 
L 289.818345 476.963474 
L 293.815036 389.259 
L 297.811726 456.522524 
L 301.808428 481.777027 
L 305.805119 493.240324 
L 309.801809 452.710152 
L 313.798511 457.170846 
L 317.795202 451.060982 
L 321.791892 472.036141 
L 325.788594 473.03274 
L 329.785285 426.937807 
L 333.781975 428.234318 
L 337.778677 488.937659 
L 341.775368 473.099417 
L 345.772058 460.075968 
L 349.76876 484.842508 
L 353.765451 486.546891 
L 357.762141 459.123915 
L 361.758843 492.963091 
L 365.755534 470.801978 
L 369.752224 458.553322 
L 373.748914 492.554354 
L 377.745605 413.982431 
L 381.742319 474.481168 
L 385.739009 451.681769 
L 389.7357 483.759583 
L 393.73239 415.018746 
L 397.72908 440.454932 
L 401.725771 426.468169 
L 405.722485 475.389947 
L 409.719175 480.783825 
L 413.715866 471.8915 
L 417.712556 484.822046 
L 421.709246 453.867929 
L 425.705937 472.507083 
L 429.702627 439.878995 
L 433.699341 442.886857 
L 437.696032 474.453145 
L 441.692722 465.501278 
L 445.689412 459.21524 
L 449.686103 473.595969 
L 453.682793 457.324815 
L 457.679507 473.652895 
L 461.676198 494.559 
L 465.672888 485.45471 
L 469.669578 437.075574 
L 473.666269 413.2926 
L 477.662959 452.761853 
L 481.659673 439.75855 
L 485.656364 445.06653 
" clip-path="url(#pb1a6bd8127)" style="fill: none; stroke: #1f77b4; stroke-width: 2; stroke-linecap: square"/>
   </g>
   <g id="line2d_47">
    <path d="M 89.983636 462.324127 
L 93.980327 449.869829 
L 97.977023 447.161043 
L 101.973713 460.840885 
L 105.97041 489.562576 
L 109.967106 461.685298 
L 113.963796 490.70471 
L 117.960493 426.738251 
L 121.957186 480.843439 
L 125.953882 447.632708 
L 129.950576 436.003337 
L 133.947269 489.802471 
L 137.943962 490.405405 
L 141.940659 486.582501 
L 145.937352 469.060136 
L 149.934045 435.357504 
L 153.93074 463.703776 
L 157.927434 476.276776 
L 161.924129 429.071977 
L 165.920823 474.958206 
L 169.917517 486.894165 
L 173.914211 447.907764 
L 177.910906 493.511317 
L 181.9076 475.122732 
L 185.904294 467.028 
L 189.900988 491.549912 
L 193.897681 455.276301 
L 197.894377 483.740329 
L 201.891071 438.132772 
L 205.887764 420.717876 
L 209.884457 453.381516 
L 213.881154 464.186322 
L 217.877847 454.989581 
L 221.874543 420.739634 
L 225.871234 446.014931 
L 229.86793 444.221574 
L 233.864626 493.395607 
L 237.861317 468.23869 
L 241.858013 489.791882 
L 245.854704 483.332584 
L 249.8514 484.555665 
L 253.848096 479.746531 
L 257.844787 472.719635 
L 261.841483 465.579724 
L 265.838179 478.274068 
L 269.83487 473.241321 
L 273.83156 485.504518 
L 277.828262 434.823147 
L 281.824953 476.723304 
L 285.821643 464.620341 
L 289.818345 468.795954 
L 293.815036 433.335685 
L 297.811726 475.011141 
L 301.808428 471.785656 
L 305.805119 452.677202 
L 309.801809 419.370781 
L 313.798511 478.532149 
L 317.795202 490.314667 
L 321.791892 467.842025 
L 325.788594 426.425083 
L 329.785285 484.259261 
L 333.781975 453.312485 
L 337.778677 476.000243 
L 341.775368 462.68233 
L 345.772058 472.23081 
L 349.76876 470.955696 
L 353.765451 462.57509 
L 357.762141 479.459683 
L 361.758843 493.570757 
L 365.755534 454.185145 
L 369.752224 448.986927 
L 373.748914 440.99356 
L 377.745605 463.643549 
L 381.742319 451.649226 
L 385.739009 472.150735 
L 389.7357 414.814089 
L 393.73239 470.398759 
L 397.72908 441.240871 
L 401.725771 435.804085 
L 405.722485 460.543351 
L 409.719175 456.811665 
L 413.715866 422.23364 
L 417.712556 475.352346 
L 421.709246 455.930169 
L 425.705937 438.513475 
L 429.702627 465.645176 
L 433.699341 492.828611 
L 437.696032 469.40371 
L 441.692722 429.945852 
L 445.689412 478.894216 
L 449.686103 450.96814 
L 453.682793 451.294728 
L 457.679507 476.290611 
L 461.676198 480.244483 
L 465.672888 459.440196 
L 469.669578 447.084763 
L 473.666269 479.055383 
L 477.662959 465.416024 
L 481.659673 473.963842 
L 485.656364 484.979628 
" clip-path="url(#pb1a6bd8127)" style="fill: none; stroke: #ff7f0e; stroke-width: 2; stroke-linecap: square"/>
   </g>
   <g id="patch_15">
    <path d="M 70.2 499.824 
L 70.2 383.994 
" style="fill: none; stroke: #000000; stroke-width: 0.8; stroke-linejoin: miter; stroke-linecap: square"/>
   </g>
   <g id="patch_16">
    <path d="M 505.44 499.824 
L 505.44 383.994 
" style="fill: none; stroke: #000000; stroke-width: 0.8; stroke-linejoin: miter; stroke-linecap: square"/>
   </g>
   <g id="patch_17">
    <path d="M 70.2 499.824 
L 505.44 499.824 
" style="fill: none; stroke: #000000; stroke-width: 0.8; stroke-linejoin: miter; stroke-linecap: square"/>
   </g>
   <g id="patch_18">
    <path d="M 70.2 383.994 
L 505.44 383.994 
" style="fill: none; stroke: #000000; stroke-width: 0.8; stroke-linejoin: miter; stroke-linecap: square"/>
   </g>
   <g id="text_44">
    <!-- Panel C: evidence strength vs null -->
    <g transform="translate(185.80125 377.994) scale(0.12 -0.12)">
     <use xlink:href="#DejaVuSans-50"/>
     <use xlink:href="#DejaVuSans-61" transform="translate(55.802734 0)"/>
     <use xlink:href="#DejaVuSans-6e" transform="translate(117.082031 0)"/>
     <use xlink:href="#DejaVuSans-65" transform="translate(180.460938 0)"/>
     <use xlink:href="#DejaVuSans-6c" transform="translate(241.984375 0)"/>
     <use xlink:href="#DejaVuSans-20" transform="translate(269.767578 0)"/>
     <use xlink:href="#DejaVuSans-43" transform="translate(301.554688 0)"/>
     <use xlink:href="#DejaVuSans-3a" transform="translate(371.378906 0)"/>
     <use xlink:href="#DejaVuSans-20" transform="translate(405.070312 0)"/>
     <use xlink:href="#DejaVuSans-65" transform="translate(436.857422 0)"/>
     <use xlink:href="#DejaVuSans-76" transform="translate(498.380859 0)"/>
     <use xlink:href="#DejaVuSans-69" transform="translate(557.560547 0)"/>
     <use xlink:href="#DejaVuSans-64" transform="translate(585.34375 0)"/>
     <use xlink:href="#DejaVuSans-65" transform="translate(648.820312 0)"/>
     <use xlink:href="#DejaVuSans-6e" transform="translate(710.34375 0)"/>
     <use xlink:href="#DejaVuSans-63" transform="translate(773.722656 0)"/>
     <use xlink:href="#DejaVuSans-65" transform="translate(828.703125 0)"/>
     <use xlink:href="#DejaVuSans-20" transform="translate(890.226562 0)"/>
     <use xlink:href="#DejaVuSans-73" transform="translate(922.013672 0)"/>
     <use xlink:href="#DejaVuSans-74" transform="translate(974.113281 0)"/>
     <use xlink:href="#DejaVuSans-72" transform="translate(1013.322266 0)"/>
     <use xlink:href="#DejaVuSans-65" transform="translate(1052.185547 0)"/>
     <use xlink:href="#DejaVuSans-6e" transform="translate(1113.708984 0)"/>
     <use xlink:href="#DejaVuSans-67" transform="translate(1177.087891 0)"/>
     <use xlink:href="#DejaVuSans-74" transform="translate(1240.564453 0)"/>
     <use xlink:href="#DejaVuSans-68" transform="translate(1279.773438 0)"/>
     <use xlink:href="#DejaVuSans-20" transform="translate(1343.152344 0)"/>
     <use xlink:href="#DejaVuSans-76" transform="translate(1374.939453 0)"/>
     <use xlink:href="#DejaVuSans-73" transform="translate(1434.119141 0)"/>
     <use xlink:href="#DejaVuSans-20" transform="translate(1486.21875 0)"/>
     <use xlink:href="#DejaVuSans-6e" transform="translate(1518.005859 0)"/>
     <use xlink:href="#DejaVuSans-75" transform="translate(1581.384766 0)"/>
     <use xlink:href="#DejaVuSans-6c" transform="translate(1644.763672 0)"/>
     <use xlink:href="#DejaVuSans-6c" transform="translate(1672.546875 0)"/>
    </g>
   </g>
   <g id="legend_3">
    <g id="line2d_48">
     <path d="M 79.2 397.092438 
L 89.2 397.092438 
L 99.2 397.092438 
" style="fill: none; stroke: #1f77b4; stroke-width: 2; stroke-linecap: square"/>
    </g>
    <g id="text_45">
     <!-- z(SLIP→SSC) -->
     <g transform="translate(107.2 400.592438) scale(0.1 -0.1)">
      <defs>
       <path id="DejaVuSans-7a" d="M 353 3500 
L 3084 3500 
L 3084 2975 
L 922 459 
L 3084 459 
L 3084 0 
L 275 0 
L 275 525 
L 2438 3041 
L 353 3041 
L 353 3500 
z
" transform="scale(0.015625)"/>
      </defs>
      <use xlink:href="#DejaVuSans-7a"/>
      <use xlink:href="#DejaVuSans-28" transform="translate(52.490234 0)"/>
      <use xlink:href="#DejaVuSans-53" transform="translate(91.503906 0)"/>
      <use xlink:href="#DejaVuSans-4c" transform="translate(154.980469 0)"/>
      <use xlink:href="#DejaVuSans-49" transform="translate(210.693359 0)"/>
      <use xlink:href="#DejaVuSans-50" transform="translate(240.185547 0)"/>
      <use xlink:href="#DejaVuSans-2192" transform="translate(300.488281 0)"/>
      <use xlink:href="#DejaVuSans-53" transform="translate(384.277344 0)"/>
      <use xlink:href="#DejaVuSans-53" transform="translate(447.753906 0)"/>
      <use xlink:href="#DejaVuSans-43" transform="translate(511.230469 0)"/>
      <use xlink:href="#DejaVuSans-29" transform="translate(581.054688 0)"/>
     </g>
    </g>
    <g id="line2d_49">
     <path d="M 79.2 411.770563 
L 89.2 411.770563 
L 99.2 411.770563 
" style="fill: none; stroke: #ff7f0e; stroke-width: 2; stroke-linecap: square"/>
    </g>
    <g id="text_46">
     <!-- z(SSC→SLIP) -->
     <g transform="translate(107.2 415.270563) scale(0.1 -0.1)">
      <use xlink:href="#DejaVuSans-7a"/>
      <use xlink:href="#DejaVuSans-28" transform="translate(52.490234 0)"/>
      <use xlink:href="#DejaVuSans-53" transform="translate(91.503906 0)"/>
      <use xlink:href="#DejaVuSans-53" transform="translate(154.980469 0)"/>
      <use xlink:href="#DejaVuSans-43" transform="translate(218.457031 0)"/>
      <use xlink:href="#DejaVuSans-2192" transform="translate(288.28125 0)"/>
      <use xlink:href="#DejaVuSans-53" transform="translate(372.070312 0)"/>
      <use xlink:href="#DejaVuSans-4c" transform="translate(435.546875 0)"/>
      <use xlink:href="#DejaVuSans-49" transform="translate(491.259766 0)"/>
      <use xlink:href="#DejaVuSans-50" transform="translate(520.751953 0)"/>
      <use xlink:href="#DejaVuSans-29" transform="translate(581.054688 0)"/>
     </g>
    </g>
   </g>
  </g>
 </g>
 <defs>
  <clipPath id="p0bf7bd7468">
   <rect x="70.2" y="67.392" width="435.24" height="138.996"/>
  </clipPath>
  <clipPath id="p1f30aabdee">
   <rect x="70.2" y="237.276" width="435.24" height="115.83"/>
  </clipPath>
  <clipPath id="pb1a6bd8127">
   <rect x="70.2" y="383.994" width="435.24" height="115.83"/>
  </clipPath>
 </defs>
</svg>
