<?xml version="1.0" encoding="utf-8" standalone="no"?>
<!DOCTYPE svg PUBLIC "-//W3C//DTD SVG 1.1//EN"
  "http://www.w3.org/Graphics/SVG/1.1/DTD/svg11.dtd">
<svg xmlns:xlink="http://www.w3.org/1999/xlink" width="561.6pt" height="561.6pt" viewBox="0 0 561.6 561.6" xmlns="http://www.w3.org/2000/svg" version="1.1">
 <metadata>
  <rdf:RDF xmlns:dc="http://purl.org/dc/elements/1.1/" xmlns:cc="http://creativecommons.org/ns#" xmlns:rdf="http://www.w3.org/1999/02/22-rdf-syntax-ns#">
   <cc:Work>
    <dc:type rdf:resource="http://purl.org/dc/dcmitype/StillImage"/>
    <dc:date>2025-12-07T14:06:38.649514</dc:date>
    <dc:format>image/svg+xml</dc:format>
    <dc:creator>
     <cc:Agent>
      <dc:title>Matplotlib v3.10.5, https://matplotlib.org/</dc:title>
     </cc:Agent>
    </dc:creator>
   </cc:Work>
  </rdf:RDF>
 </metadata>
 <defs>
  <style type="text/css">*{stroke-linejoin: round; stroke-linecap: butt}</style>
 </defs>
 <g id="figure_1">
  <g id="patch_1">
   <path d="M 0 561.6 
L 561.6 561.6 
L 561.6 0 
L 0 0 
z
" style="fill: #ffffff"/>
  </g>
  <g id="axes_1">
   <g id="patch_2">
    <path d="M 70.2 206.388 
L 505.44 206.388 
L 505.44 67.392 
L 70.2 67.392 
z
" style="fill: #ffffff"/>
   </g>
   <g id="FillBetweenPolyCollection_1">
    <defs>
     <path id="m94eb61ccd5" d="M 89.983636 -428.623228 
L 89.983636 -390.418477 
L 93.980327 -385.814585 
L 97.977023 -388.155868 
L 101.973713 -386.136849 
L 105.97041 -387.959953 
L 109.967106 -386.857534 
L 113.963796 -388.550024 
L 117.960493 -389.897574 
L 121.957186 -388.444817 
L 125.953882 -389.950598 
L 129.950576 -389.917431 
L 133.947269 -388.908677 
L 137.943962 -387.895581 
L 141.940659 -390.513063 
L 145.937352 -389.63413 
L 149.934045 -387.386465 
L 153.93074 -387.785128 
L 157.927434 -386.469379 
L 161.924129 -386.880927 
L 165.920823 -386.030223 
L 169.917517 -387.367509 
L 173.914211 -389.379017 
L 177.910906 -388.079014 
L 181.9076 -386.230786 
L 185.904294 -387.42764 
L 189.900988 -389.678715 
L 193.897681 -385.877936 
L 197.894377 -387.65378 
L 201.891071 -386.919986 
L 205.887764 -387.921206 
L 209.884457 -390.002495 
L 213.881154 -391.435151 
L 217.877847 -389.8642 
L 221.874543 -388.054063 
L 225.871234 -390.306396 
L 229.86793 -388.034489 
L 233.864626 -386.834803 
L 237.861317 -385.792478 
L 241.858013 -388.13462 
L 245.854704 -387.55453 
L 249.8514 -386.380227 
L 253.848096 -387.651118 
L 257.844787 -386.628533 
L 261.841483 -390.464664 
L 265.838179 -387.657505 
L 269.83487 -388.424597 
L 273.83156 -388.019809 
L 277.828262 -389.147688 
L 281.824953 -390.869913 
L 285.821643 -389.992631 
L 289.818345 -388.887273 
L 293.815036 -388.735384 
L 297.811726 -390.818397 
L 301.808428 -392.276072 
L 305.805119 -388.197914 
L 309.801809 -387.641138 
L 313.798511 -388.987614 
L 317.795202 -391.767693 
L 321.791892 -390.774466 
L 325.788594 -390.064028 
L 329.785285 -390.780106 
L 333.781975 -390.022971 
L 337.778677 -388.375807 
L 341.775368 -387.465743 
L 345.772058 -388.4438 
L 349.76876 -389.817144 
L 353.765451 -390.254985 
L 357.762141 -390.311153 
L 361.758843 -385.882364 
L 365.755534 -387.59237 
L 369.752224 -387.052861 
L 373.748914 -388.228971 
L 377.745605 -388.306168 
L 381.742319 -391.967064 
L 385.739009 -390.335346 
L 389.7357 -387.712052 
L 393.73239 -386.427534 
L 397.72908 -390.582918 
L 401.725771 -385.688553 
L 405.722485 -385.675071 
L 409.719175 -391.334662 
L 413.715866 -386.941617 
L 417.712556 -386.119969 
L 421.709246 -389.216981 
L 425.705937 -387.571765 
L 429.702627 -386.49581 
L 433.699341 -386.860248 
L 437.696032 -388.282466 
L 441.692722 -389.801957 
L 445.689412 -385.397425 
L 449.686103 -387.865067 
L 453.682793 -385.53457 
L 457.679507 -387.022078 
L 461.676198 -385.747376 
L 465.672888 -387.569958 
L 469.669578 -388.507121 
L 473.666269 -385.899548 
L 477.662959 -384.435441 
L 481.659673 -387.080824 
L 485.656364 -385.562497 
L 485.656364 -425.811764 
L 485.656364 -425.811764 
L 481.659673 -425.989254 
L 477.662959 -423.720907 
L 473.666269 -422.600791 
L 469.669578 -427.351072 
L 465.672888 -425.504591 
L 461.676198 -423.379232 
L 457.679507 -425.312851 
L 453.682793 -425.201177 
L 449.686103 -425.638265 
L 445.689412 -424.587657 
L 441.692722 -430.863849 
L 437.696032 -425.752052 
L 433.699341 -425.895712 
L 429.702627 -424.092637 
L 425.705937 -424.788759 
L 421.709246 -427.510402 
L 417.712556 -425.206946 
L 413.715866 -426.111739 
L 409.719175 -429.776088 
L 405.722485 -425.402283 
L 401.725771 -427.527044 
L 397.72908 -430.710033 
L 393.73239 -427.258746 
L 389.7357 -424.300725 
L 385.739009 -430.329658 
L 381.742319 -435.214778 
L 377.745605 -430.291323 
L 373.748914 -427.38882 
L 369.752224 -426.358291 
L 365.755534 -426.270755 
L 361.758843 -424.135265 
L 357.762141 -428.274654 
L 353.765451 -428.082222 
L 349.76876 -430.130293 
L 345.772058 -426.324232 
L 341.775368 -429.215728 
L 337.778677 -427.494585 
L 333.781975 -430.61223 
L 329.785285 -432.324749 
L 325.788594 -437.150056 
L 321.791892 -433.227904 
L 317.795202 -430.595733 
L 313.798511 -429.994891 
L 309.801809 -425.924984 
L 305.805119 -431.534434 
L 301.808428 -432.047396 
L 297.811726 -433.861901 
L 293.815036 -431.932963 
L 289.818345 -433.220378 
L 285.821643 -430.368021 
L 281.824953 -433.854506 
L 277.828262 -428.660986 
L 273.83156 -429.877114 
L 269.83487 -428.932111 
L 265.838179 -426.486756 
L 261.841483 -431.531675 
L 257.844787 -428.42969 
L 253.848096 -426.277749 
L 249.8514 -425.407819 
L 245.854704 -427.37037 
L 241.858013 -425.0181 
L 237.861317 -425.536626 
L 233.864626 -424.942202 
L 229.86793 -426.14686 
L 225.871234 -429.116058 
L 221.874543 -426.312921 
L 217.877847 -430.502516 
L 213.881154 -430.469615 
L 209.884457 -429.031393 
L 205.887764 -426.561907 
L 201.891071 -426.318536 
L 197.894377 -428.354815 
L 193.897681 -426.419502 
L 189.900988 -429.42326 
L 185.904294 -426.783996 
L 181.9076 -424.637425 
L 177.910906 -427.196781 
L 173.914211 -429.509791 
L 169.917517 -427.238013 
L 165.920823 -426.975511 
L 161.924129 -424.840896 
L 157.927434 -424.659121 
L 153.93074 -427.315603 
L 149.934045 -428.579209 
L 145.937352 -428.978861 
L 141.940659 -431.045135 
L 137.943962 -427.696703 
L 133.947269 -430.13782 
L 129.950576 -430.647443 
L 125.953882 -430.868659 
L 121.957186 -429.609609 
L 117.960493 -430.131993 
L 113.963796 -429.020221 
L 109.967106 -424.799575 
L 105.97041 -426.699338 
L 101.973713 -427.622853 
L 97.977023 -426.374583 
L 93.980327 -425.071696 
L 89.983636 -428.623228 
z
"/>
    </defs>
    <g clip-path="url(#p3f08d2c8d0)">
     <use xlink:href="#m94eb61ccd5" x="0" y="561.6" style="fill: #1f77b4; fill-opacity: 0.15"/>
    </g>
   </g>
   <g id="FillBetweenPolyCollection_2">
    <defs>
     <path id="mf1ff46c7dc" d="M 89.983636 -424.239732 
L 89.983636 -387.797777 
L 93.980327 -389.530395 
L 97.977023 -389.572986 
L 101.973713 -390.440279 
L 105.97041 -389.060458 
L 109.967106 -388.799729 
L 113.963796 -386.936745 
L 117.960493 -386.37247 
L 121.957186 -389.861389 
L 125.953882 -387.197425 
L 129.950576 -388.385819 
L 133.947269 -389.505346 
L 137.943962 -389.393047 
L 141.940659 -385.327231 
L 145.937352 -389.217688 
L 149.934045 -390.406374 
L 153.93074 -386.377865 
L 157.927434 -391.425292 
L 161.924129 -389.344645 
L 165.920823 -390.004286 
L 169.917517 -394.382184 
L 173.914211 -390.429039 
L 177.910906 -388.451174 
L 181.9076 -386.961129 
L 185.904294 -391.467051 
L 189.900988 -388.582902 
L 193.897681 -391.05488 
L 197.894377 -390.497275 
L 201.891071 -387.086528 
L 205.887764 -387.120925 
L 209.884457 -387.521232 
L 213.881154 -394.107997 
L 217.877847 -387.148781 
L 221.874543 -389.175436 
L 225.871234 -393.86671 
L 229.86793 -388.086249 
L 233.864626 -389.464861 
L 237.861317 -390.987461 
L 241.858013 -396.818067 
L 245.854704 -390.745178 
L 249.8514 -394.050288 
L 253.848096 -391.235451 
L 257.844787 -390.754292 
L 261.841483 -393.113982 
L 265.838179 -392.117519 
L 269.83487 -390.967802 
L 273.83156 -393.081861 
L 277.828262 -387.969827 
L 281.824953 -395.48271 
L 285.821643 -395.208921 
L 289.818345 -394.565044 
L 293.815036 -396.480533 
L 297.811726 -391.233425 
L 301.808428 -390.865304 
L 305.805119 -386.028298 
L 309.801809 -394.230933 
L 313.798511 -391.458658 
L 317.795202 -388.282442 
L 321.791892 -395.164799 
L 325.788594 -387.860152 
L 329.785285 -389.780058 
L 333.781975 -389.193998 
L 337.778677 -391.073322 
L 341.775368 -388.975741 
L 345.772058 -389.415199 
L 349.76876 -389.29459 
L 353.765451 -391.135825 
L 357.762141 -390.136602 
L 361.758843 -387.378585 
L 365.755534 -388.352258 
L 369.752224 -389.329534 
L 373.748914 -389.11658 
L 377.745605 -389.700051 
L 381.742319 -384.359724 
L 385.739009 -391.404136 
L 389.7357 -387.684282 
L 393.73239 -388.667215 
L 397.72908 -387.093558 
L 401.725771 -388.97301 
L 405.722485 -388.171296 
L 409.719175 -386.11598 
L 413.715866 -392.25119 
L 417.712556 -390.739122 
L 421.709246 -387.795064 
L 425.705937 -389.693822 
L 429.702627 -386.787032 
L 433.699341 -386.904638 
L 437.696032 -389.944379 
L 441.692722 -388.372982 
L 445.689412 -390.114889 
L 449.686103 -391.335923 
L 453.682793 -385.794027 
L 457.679507 -386.945215 
L 461.676198 -390.456888 
L 465.672888 -387.443668 
L 469.669578 -386.627724 
L 473.666269 -389.453511 
L 477.662959 -385.754081 
L 481.659673 -387.197301 
L 485.656364 -386.925194 
L 485.656364 -425.86334 
L 485.656364 -425.86334 
L 481.659673 -424.866241 
L 477.662959 -426.178771 
L 473.666269 -430.353107 
L 469.669578 -423.61528 
L 465.672888 -426.849163 
L 461.676198 -429.688948 
L 457.679507 -427.876573 
L 453.682793 -426.333469 
L 449.686103 -431.237729 
L 445.689412 -430.804089 
L 441.692722 -425.258336 
L 437.696032 -428.283382 
L 433.699341 -426.720439 
L 429.702627 -425.241534 
L 425.705937 -428.968619 
L 421.709246 -427.371568 
L 417.712556 -429.087362 
L 413.715866 -433.2037 
L 409.719175 -427.549933 
L 405.722485 -425.532927 
L 401.725771 -429.333159 
L 397.72908 -424.959314 
L 393.73239 -431.286098 
L 389.7357 -428.340032 
L 385.739009 -430.079925 
L 381.742319 -423.599107 
L 377.745605 -429.237492 
L 373.748914 -427.041308 
L 369.752224 -428.570901 
L 365.755534 -426.618176 
L 361.758843 -426.152837 
L 357.762141 -430.04528 
L 353.765451 -429.084622 
L 349.76876 -431.14227 
L 345.772058 -428.468653 
L 341.775368 -427.964015 
L 337.778677 -432.333172 
L 333.781975 -428.287296 
L 329.785285 -432.820646 
L 325.788594 -425.228968 
L 321.791892 -435.151198 
L 317.795202 -427.899518 
L 313.798511 -432.604921 
L 309.801809 -435.601768 
L 305.805119 -425.600389 
L 301.808428 -430.592163 
L 297.811726 -431.817159 
L 293.815036 -437.027076 
L 289.818345 -437.380853 
L 285.821643 -435.871271 
L 281.824953 -437.922757 
L 277.828262 -425.706604 
L 273.83156 -433.393398 
L 269.83487 -429.823272 
L 265.838179 -430.890553 
L 261.841483 -430.957918 
L 257.844787 -431.243521 
L 253.848096 -429.824221 
L 249.8514 -434.020461 
L 245.854704 -429.373119 
L 241.858013 -435.715249 
L 237.861317 -431.639361 
L 233.864626 -432.028929 
L 229.86793 -429.094976 
L 225.871234 -435.0873 
L 221.874543 -429.459579 
L 217.877847 -426.035155 
L 213.881154 -432.88358 
L 209.884457 -425.078946 
L 205.887764 -426.658854 
L 201.891071 -424.266945 
L 197.894377 -429.925015 
L 193.897681 -431.514483 
L 189.900988 -428.36679 
L 185.904294 -430.745446 
L 181.9076 -425.840046 
L 177.910906 -426.630044 
L 173.914211 -429.424097 
L 169.917517 -433.3215 
L 165.920823 -430.305583 
L 161.924129 -428.8361 
L 157.927434 -432.089109 
L 153.93074 -426.037931 
L 149.934045 -430.146807 
L 145.937352 -427.787611 
L 141.940659 -425.355481 
L 137.943962 -429.844875 
L 133.947269 -426.291278 
L 129.950576 -425.268055 
L 125.953882 -426.219215 
L 121.957186 -427.628355 
L 117.960493 -425.788923 
L 113.963796 -427.35455 
L 109.967106 -424.85799 
L 105.97041 -427.61505 
L 101.973713 -428.834232 
L 97.977023 -427.992835 
L 93.980327 -428.055734 
L 89.983636 -424.239732 
z
"/>
    </defs>
    <g clip-path="url(#p3f08d2c8d0)">
     <use xlink:href="#mf1ff46c7dc" x="0" y="561.6" style="fill: #ff7f0e; fill-opacity: 0.15"/>
    </g>
   </g>
   <g id="matplotlib.axis_1">
    <g id="xtick_1">
     <g id="line2d_1">
      <defs>
       <path id="mb074c24dad" d="M 0 0 
L 0 3.5 
" style="stroke: #000000; stroke-width: 0.8"/>
      </defs>
      <g>
       <use xlink:href="#mb074c24dad" x="87.985286" y="206.388" style="stroke: #000000; stroke-width: 0.8"/>
      </g>
     </g>
     <g id="text_1">
      <!-- −200 -->
      <g transform="translate(74.251693 220.986437) scale(0.1 -0.1)">
       <defs>
        <path id="DejaVuSans-2212" d="M 678 2272 
L 4684 2272 
L 4684 1741 
L 678 1741 
L 678 2272 
z
" transform="scale(0.015625)"/>
        <path id="DejaVuSans-32" d="M 1228 531 
L 3431 531 
L 3431 0 
L 469 0 
L 469 531 
Q 828 903 1448 1529 
Q 2069 2156 2228 2338 
Q 2531 2678 2651 2914 
Q 2772 3150 2772 3378 
Q 2772 3750 2511 3984 
Q 2250 4219 1831 4219 
Q 1534 4219 1204 4116 
Q 875 4013 500 3803 
L 500 4441 
Q 881 4594 1212 4672 
Q 1544 4750 1819 4750 
Q 2544 4750 2975 4387 
Q 3406 4025 3406 3419 
Q 3406 3131 3298 2873 
Q 3191 2616 2906 2266 
Q 2828 2175 2409 1742 
Q 1991 1309 1228 531 
z
" transform="scale(0.015625)"/>
        <path id="DejaVuSans-30" d="M 2034 4250 
Q 1547 4250 1301 3770 
Q 1056 3291 1056 2328 
Q 1056 1369 1301 889 
Q 1547 409 2034 409 
Q 2525 409 2770 889 
Q 3016 1369 3016 2328 
Q 3016 3291 2770 3770 
Q 2525 4250 2034 4250 
z
M 2034 4750 
Q 2819 4750 3233 4129 
Q 3647 3509 3647 2328 
Q 3647 1150 3233 529 
Q 2819 -91 2034 -91 
Q 1250 -91 836 529 
Q 422 1150 422 2328 
Q 422 3509 836 4129 
Q 1250 4750 2034 4750 
z
" transform="scale(0.015625)"/>
       </defs>
       <use xlink:href="#DejaVuSans-2212"/>
       <use xlink:href="#DejaVuSans-32" transform="translate(83.789062 0)"/>
       <use xlink:href="#DejaVuSans-30" transform="translate(147.412109 0)"/>
       <use xlink:href="#DejaVuSans-30" transform="translate(211.035156 0)"/>
      </g>
     </g>
    </g>
    <g id="xtick_2">
     <g id="line2d_2">
      <g>
       <use xlink:href="#mb074c24dad" x="167.91917" y="206.388" style="stroke: #000000; stroke-width: 0.8"/>
      </g>
     </g>
     <g id="text_2">
      <!-- 0 -->
      <g transform="translate(164.73792 220.986437) scale(0.1 -0.1)">
       <use xlink:href="#DejaVuSans-30"/>
      </g>
     </g>
    </g>
    <g id="xtick_3">
     <g id="line2d_3">
      <g>
       <use xlink:href="#mb074c24dad" x="247.853053" y="206.388" style="stroke: #000000; stroke-width: 0.8"/>
      </g>
     </g>
     <g id="text_3">
      <!-- 200 -->
      <g transform="translate(238.309303 220.986437) scale(0.1 -0.1)">
       <use xlink:href="#DejaVuSans-32"/>
       <use xlink:href="#DejaVuSans-30" transform="translate(63.623047 0)"/>
       <use xlink:href="#DejaVuSans-30" transform="translate(127.246094 0)"/>
      </g>
     </g>
    </g>
    <g id="xtick_4">
     <g id="line2d_4">
      <g>
       <use xlink:href="#mb074c24dad" x="327.786937" y="206.388" style="stroke: #000000; stroke-width: 0.8"/>
      </g>
     </g>
     <g id="text_4">
      <!-- 400 -->
      <g transform="translate(318.243187 220.986437) scale(0.1 -0.1)">
       <defs>
        <path id="DejaVuSans-34" d="M 2419 4116 
L 825 1625 
L 2419 1625 
L 2419 4116 
z
M 2253 4666 
L 3047 4666 
L 3047 1625 
L 3713 1625 
L 3713 1100 
L 3047 1100 
L 3047 0 
L 2419 0 
L 2419 1100 
L 313 1100 
L 313 1709 
L 2253 4666 
z
" transform="scale(0.015625)"/>
       </defs>
       <use xlink:href="#DejaVuSans-34"/>
       <use xlink:href="#DejaVuSans-30" transform="translate(63.623047 0)"/>
       <use xlink:href="#DejaVuSans-30" transform="translate(127.246094 0)"/>
      </g>
     </g>
    </g>
    <g id="xtick_5">
     <g id="line2d_5">
      <g>
       <use xlink:href="#mb074c24dad" x="407.720821" y="206.388" style="stroke: #000000; stroke-width: 0.8"/>
      </g>
     </g>
     <g id="text_5">
      <!-- 600 -->
      <g transform="translate(398.177071 220.986437) scale(0.1 -0.1)">
       <defs>
        <path id="DejaVuSans-36" d="M 2113 2584 
Q 1688 2584 1439 2293 
Q 1191 2003 1191 1497 
Q 1191 994 1439 701 
Q 1688 409 2113 409 
Q 2538 409 2786 701 
Q 3034 994 3034 1497 
Q 3034 2003 2786 2293 
Q 2538 2584 2113 2584 
z
M 3366 4563 
L 3366 3988 
Q 3128 4100 2886 4159 
Q 2644 4219 2406 4219 
Q 1781 4219 1451 3797 
Q 1122 3375 1075 2522 
Q 1259 2794 1537 2939 
Q 1816 3084 2150 3084 
Q 2853 3084 3261 2657 
Q 3669 2231 3669 1497 
Q 3669 778 3244 343 
Q 2819 -91 2113 -91 
Q 1303 -91 875 529 
Q 447 1150 447 2328 
Q 447 3434 972 4092 
Q 1497 4750 2381 4750 
Q 2619 4750 2861 4703 
Q 3103 4656 3366 4563 
z
" transform="scale(0.015625)"/>
       </defs>
       <use xlink:href="#DejaVuSans-36"/>
       <use xlink:href="#DejaVuSans-30" transform="translate(63.623047 0)"/>
       <use xlink:href="#DejaVuSans-30" transform="translate(127.246094 0)"/>
      </g>
     </g>
    </g>
    <g id="xtick_6">
     <g id="line2d_6">
      <g>
       <use xlink:href="#mb074c24dad" x="487.654704" y="206.388" style="stroke: #000000; stroke-width: 0.8"/>
      </g>
     </g>
     <g id="text_6">
      <!-- 800 -->
      <g transform="translate(478.110954 220.986437) scale(0.1 -0.1)">
       <defs>
        <path id="DejaVuSans-38" d="M 2034 2216 
Q 1584 2216 1326 1975 
Q 1069 1734 1069 1313 
Q 1069 891 1326 650 
Q 1584 409 2034 409 
Q 2484 409 2743 651 
Q 3003 894 3003 1313 
Q 3003 1734 2745 1975 
Q 2488 2216 2034 2216 
z
M 1403 2484 
Q 997 2584 770 2862 
Q 544 3141 544 3541 
Q 544 4100 942 4425 
Q 1341 4750 2034 4750 
Q 2731 4750 3128 4425 
Q 3525 4100 3525 3541 
Q 3525 3141 3298 2862 
Q 3072 2584 2669 2484 
Q 3125 2378 3379 2068 
Q 3634 1759 3634 1313 
Q 3634 634 3220 271 
Q 2806 -91 2034 -91 
Q 1263 -91 848 271 
Q 434 634 434 1313 
Q 434 1759 690 2068 
Q 947 2378 1403 2484 
z
M 1172 3481 
Q 1172 3119 1398 2916 
Q 1625 2713 2034 2713 
Q 2441 2713 2670 2916 
Q 2900 3119 2900 3481 
Q 2900 3844 2670 4047 
Q 2441 4250 2034 4250 
Q 1625 4250 1398 4047 
Q 1172 3844 1172 3481 
z
" transform="scale(0.015625)"/>
       </defs>
       <use xlink:href="#DejaVuSans-38"/>
       <use xlink:href="#DejaVuSans-30" transform="translate(63.623047 0)"/>
       <use xlink:href="#DejaVuSans-30" transform="translate(127.246094 0)"/>
      </g>
     </g>
    </g>
   </g>
   <g id="matplotlib.axis_2">
    <g id="ytick_1">
     <g id="line2d_7">
      <defs>
       <path id="mfcde9ebe60" d="M 0 0 
L -3.5 0 
" style="stroke: #000000; stroke-width: 0.8"/>
      </defs>
      <g>
       <use xlink:href="#mfcde9ebe60" x="70.2" y="197.022375" style="stroke: #000000; stroke-width: 0.8"/>
      </g>
     </g>
     <g id="text_7">
      <!-- 10 -->
      <g transform="translate(50.475 200.821594) scale(0.1 -0.1)">
       <defs>
        <path id="DejaVuSans-31" d="M 794 531 
L 1825 531 
L 1825 4091 
L 703 3866 
L 703 4441 
L 1819 4666 
L 2450 4666 
L 2450 531 
L 3481 531 
L 3481 0 
L 794 0 
L 794 531 
z
" transform="scale(0.015625)"/>
       </defs>
       <use xlink:href="#DejaVuSans-31"/>
       <use xlink:href="#DejaVuSans-30" transform="translate(63.623047 0)"/>
      </g>
     </g>
    </g>
    <g id="ytick_2">
     <g id="line2d_8">
      <g>
       <use xlink:href="#mfcde9ebe60" x="70.2" y="157.126818" style="stroke: #000000; stroke-width: 0.8"/>
      </g>
     </g>
     <g id="text_8">
      <!-- 15 -->
      <g transform="translate(50.475 160.926037) scale(0.1 -0.1)">
       <defs>
        <path id="DejaVuSans-35" d="M 691 4666 
L 3169 4666 
L 3169 4134 
L 1269 4134 
L 1269 2991 
Q 1406 3038 1543 3061 
Q 1681 3084 1819 3084 
Q 2600 3084 3056 2656 
Q 3513 2228 3513 1497 
Q 3513 744 3044 326 
Q 2575 -91 1722 -91 
Q 1428 -91 1123 -41 
Q 819 9 494 109 
L 494 744 
Q 775 591 1075 516 
Q 1375 441 1709 441 
Q 2250 441 2565 725 
Q 2881 1009 2881 1497 
Q 2881 1984 2565 2268 
Q 2250 2553 1709 2553 
Q 1456 2553 1204 2497 
Q 953 2441 691 2322 
L 691 4666 
z
" transform="scale(0.015625)"/>
       </defs>
       <use xlink:href="#DejaVuSans-31"/>
       <use xlink:href="#DejaVuSans-35" transform="translate(63.623047 0)"/>
      </g>
     </g>
    </g>
    <g id="ytick_3">
     <g id="line2d_9">
      <g>
       <use xlink:href="#mfcde9ebe60" x="70.2" y="117.23126" style="stroke: #000000; stroke-width: 0.8"/>
      </g>
     </g>
     <g id="text_9">
      <!-- 20 -->
      <g transform="translate(50.475 121.030479) scale(0.1 -0.1)">
       <use xlink:href="#DejaVuSans-32"/>
       <use xlink:href="#DejaVuSans-30" transform="translate(63.623047 0)"/>
      </g>
     </g>
    </g>
    <g id="ytick_4">
     <g id="line2d_10">
      <g>
       <use xlink:href="#mfcde9ebe60" x="70.2" y="77.335703" style="stroke: #000000; stroke-width: 0.8"/>
      </g>
     </g>
     <g id="text_10">
      <!-- 25 -->
      <g transform="translate(50.475 81.134922) scale(0.1 -0.1)">
       <use xlink:href="#DejaVuSans-32"/>
       <use xlink:href="#DejaVuSans-35" transform="translate(63.623047 0)"/>
      </g>
     </g>
    </g>
    <g id="text_11">
     <!-- ΔLL (bits) -->
     <g transform="translate(44.395313 160.500937) rotate(-90) scale(0.1 -0.1)">
      <defs>
       <path id="DejaVuSans-394" d="M 2188 4044 
L 906 525 
L 3472 525 
L 2188 4044 
z
M 50 0 
L 1831 4666 
L 2547 4666 
L 4325 0 
L 50 0 
z
" transform="scale(0.015625)"/>
       <path id="DejaVuSans-4c" d="M 628 4666 
L 1259 4666 
L 1259 531 
L 3531 531 
L 3531 0 
L 628 0 
L 628 4666 
z
" transform="scale(0.015625)"/>
       <path id="DejaVuSans-20" transform="scale(0.015625)"/>
       <path id="DejaVuSans-28" d="M 1984 4856 
Q 1566 4138 1362 3434 
Q 1159 2731 1159 2009 
Q 1159 1288 1364 580 
Q 1569 -128 1984 -844 
L 1484 -844 
Q 1016 -109 783 600 
Q 550 1309 550 2009 
Q 550 2706 781 3412 
Q 1013 4119 1484 4856 
L 1984 4856 
z
" transform="scale(0.015625)"/>
       <path id="DejaVuSans-62" d="M 3116 1747 
Q 3116 2381 2855 2742 
Q 2594 3103 2138 3103 
Q 1681 3103 1420 2742 
Q 1159 2381 1159 1747 
Q 1159 1113 1420 752 
Q 1681 391 2138 391 
Q 2594 391 2855 752 
Q 3116 1113 3116 1747 
z
M 1159 2969 
Q 1341 3281 1617 3432 
Q 1894 3584 2278 3584 
Q 2916 3584 3314 3078 
Q 3713 2572 3713 1747 
Q 3713 922 3314 415 
Q 2916 -91 2278 -91 
Q 1894 -91 1617 61 
Q 1341 213 1159 525 
L 1159 0 
L 581 0 
L 581 4863 
L 1159 4863 
L 1159 2969 
z
" transform="scale(0.015625)"/>
       <path id="DejaVuSans-69" d="M 603 3500 
L 1178 3500 
L 1178 0 
L 603 0 
L 603 3500 
z
M 603 4863 
L 1178 4863 
L 1178 4134 
L 603 4134 
L 603 4863 
z
" transform="scale(0.015625)"/>
       <path id="DejaVuSans-74" d="M 1172 4494 
L 1172 3500 
L 2356 3500 
L 2356 3053 
L 1172 3053 
L 1172 1153 
Q 1172 725 1289 603 
Q 1406 481 1766 481 
L 2356 481 
L 2356 0 
L 1766 0 
Q 1100 0 847 248 
Q 594 497 594 1153 
L 594 3053 
L 172 3053 
L 172 3500 
L 594 3500 
L 594 4494 
L 1172 4494 
z
" transform="scale(0.015625)"/>
       <path id="DejaVuSans-73" d="M 2834 3397 
L 2834 2853 
Q 2591 2978 2328 3040 
Q 2066 3103 1784 3103 
Q 1356 3103 1142 2972 
Q 928 2841 928 2578 
Q 928 2378 1081 2264 
Q 1234 2150 1697 2047 
L 1894 2003 
Q 2506 1872 2764 1633 
Q 3022 1394 3022 966 
Q 3022 478 2636 193 
Q 2250 -91 1575 -91 
Q 1294 -91 989 -36 
Q 684 19 347 128 
L 347 722 
Q 666 556 975 473 
Q 1284 391 1588 391 
Q 1994 391 2212 530 
Q 2431 669 2431 922 
Q 2431 1156 2273 1281 
Q 2116 1406 1581 1522 
L 1381 1569 
Q 847 1681 609 1914 
Q 372 2147 372 2553 
Q 372 3047 722 3315 
Q 1072 3584 1716 3584 
Q 2034 3584 2315 3537 
Q 2597 3491 2834 3397 
z
" transform="scale(0.015625)"/>
       <path id="DejaVuSans-29" d="M 513 4856 
L 1013 4856 
Q 1481 4119 1714 3412 
Q 1947 2706 1947 2009 
Q 1947 1309 1714 600 
Q 1481 -109 1013 -844 
L 513 -844 
Q 928 -128 1133 580 
Q 1338 1288 1338 2009 
Q 1338 2731 1133 3434 
Q 928 4138 513 4856 
z
" transform="scale(0.015625)"/>
      </defs>
      <use xlink:href="#DejaVuSans-394"/>
      <use xlink:href="#DejaVuSans-4c" transform="translate(68.408203 0)"/>
      <use xlink:href="#DejaVuSans-4c" transform="translate(124.121094 0)"/>
      <use xlink:href="#DejaVuSans-20" transform="translate(179.833984 0)"/>
      <use xlink:href="#DejaVuSans-28" transform="translate(211.621094 0)"/>
      <use xlink:href="#DejaVuSans-62" transform="translate(250.634766 0)"/>
      <use xlink:href="#DejaVuSans-69" transform="translate(314.111328 0)"/>
      <use xlink:href="#DejaVuSans-74" transform="translate(341.894531 0)"/>
      <use xlink:href="#DejaVuSans-73" transform="translate(381.103516 0)"/>
      <use xlink:href="#DejaVuSans-29" transform="translate(433.203125 0)"/>
     </g>
    </g>
   </g>
   <g id="line2d_11">
    <path d="M 167.91917 206.388 
L 167.91917 67.392 
" clip-path="url(#p3f08d2c8d0)" style="fill: none; stroke-dasharray: 2.96,1.28; stroke-dashoffset: 0; stroke: #000000; stroke-width: 0.8"/>
   </g>
   <g id="line2d_12">
    <path d="M 89.983636 152.079147 
L 93.980327 156.156859 
L 97.977023 154.334775 
L 101.973713 154.720149 
L 105.97041 154.270354 
L 109.967106 155.771445 
L 113.963796 152.814877 
L 117.960493 151.585216 
L 121.957186 152.572787 
L 125.953882 151.190371 
L 129.950576 151.317563 
L 133.947269 152.076751 
L 137.943962 153.803858 
L 141.940659 150.820901 
L 145.937352 152.293505 
L 149.934045 153.617163 
L 153.93074 154.049634 
L 157.927434 156.03575 
L 161.924129 155.739088 
L 165.920823 155.097133 
L 169.917517 154.297239 
L 173.914211 152.155596 
L 177.910906 153.962102 
L 181.9076 156.165895 
L 185.904294 154.494182 
L 189.900988 152.049012 
L 193.897681 155.451281 
L 197.894377 153.595702 
L 201.891071 154.980739 
L 205.887764 154.358444 
L 209.884457 152.083056 
L 213.881154 150.647617 
L 217.877847 151.416642 
L 221.874543 154.416508 
L 225.871234 151.888773 
L 229.86793 154.509325 
L 233.864626 155.711498 
L 237.861317 155.935448 
L 241.858013 155.02364 
L 245.854704 154.13755 
L 249.8514 155.705977 
L 253.848096 154.635566 
L 257.844787 154.070888 
L 261.841483 150.601831 
L 265.838179 154.527869 
L 269.83487 152.921646 
L 273.83156 152.651539 
L 277.828262 152.695663 
L 281.824953 149.237791 
L 285.821643 151.419674 
L 289.818345 150.546175 
L 293.815036 151.265827 
L 297.811726 149.259851 
L 301.808428 149.438266 
L 305.805119 151.733826 
L 309.801809 154.816939 
L 313.798511 152.108748 
L 317.795202 150.418287 
L 321.791892 149.598815 
L 325.788594 147.992958 
L 329.785285 150.047573 
L 333.781975 151.2824 
L 337.778677 153.664804 
L 341.775368 153.259264 
L 345.772058 154.215984 
L 349.76876 151.626282 
L 353.765451 152.431396 
L 357.762141 152.307096 
L 361.758843 156.591185 
L 365.755534 154.668437 
L 369.752224 154.894424 
L 373.748914 153.791105 
L 377.745605 152.301254 
L 381.742319 148.009079 
L 385.739009 151.267498 
L 389.7357 155.593611 
L 393.73239 154.75686 
L 397.72908 150.953524 
L 401.725771 154.992202 
L 405.722485 156.061323 
L 409.719175 151.044625 
L 413.715866 155.073322 
L 417.712556 155.936543 
L 421.709246 153.236308 
L 425.705937 155.419738 
L 429.702627 156.305776 
L 433.699341 155.22202 
L 437.696032 154.582741 
L 441.692722 151.267097 
L 445.689412 156.607459 
L 449.686103 154.848334 
L 453.682793 156.232127 
L 457.679507 155.432535 
L 461.676198 157.036696 
L 465.672888 155.062726 
L 469.669578 153.670904 
L 473.666269 157.349831 
L 477.662959 157.521826 
L 481.659673 155.064961 
L 485.656364 155.912869 
" clip-path="url(#p3f08d2c8d0)" style="fill: none; stroke-dasharray: 1,1.65; stroke-dashoffset: 0; stroke: #1f77b4"/>
   </g>
   <g id="line2d_13">
    <path d="M 89.983636 155.581245 
L 93.980327 152.806936 
L 97.977023 152.81709 
L 101.973713 151.962744 
L 105.97041 153.262246 
L 109.967106 154.77114 
L 113.963796 154.454353 
L 117.960493 155.519304 
L 121.957186 152.855128 
L 125.953882 154.89168 
L 129.950576 154.773063 
L 133.947269 153.701688 
L 137.943962 151.981039 
L 141.940659 156.258644 
L 145.937352 153.097351 
L 149.934045 151.32341 
L 153.93074 155.392102 
L 157.927434 149.8428 
L 161.924129 152.509627 
L 165.920823 151.445065 
L 169.917517 147.748158 
L 173.914211 151.673432 
L 177.910906 154.059391 
L 181.9076 155.199413 
L 185.904294 150.493752 
L 189.900988 153.125154 
L 193.897681 150.315319 
L 197.894377 151.388855 
L 201.891071 155.923263 
L 205.887764 154.71011 
L 209.884457 155.299911 
L 213.881154 148.104212 
L 217.877847 155.008032 
L 221.874543 152.282493 
L 225.871234 147.122995 
L 229.86793 153.009388 
L 233.864626 150.853105 
L 237.861317 150.286589 
L 241.858013 145.333342 
L 245.854704 151.540851 
L 249.8514 147.564625 
L 253.848096 151.070164 
L 257.844787 150.601094 
L 261.841483 149.56405 
L 265.838179 150.095964 
L 269.83487 151.204463 
L 273.83156 148.36237 
L 277.828262 154.761784 
L 281.824953 144.897266 
L 285.821643 146.059904 
L 289.818345 145.627051 
L 293.815036 144.846196 
L 297.811726 150.074708 
L 301.808428 150.871266 
L 305.805119 155.785656 
L 309.801809 146.68365 
L 313.798511 149.568211 
L 317.795202 153.50902 
L 321.791892 146.442002 
L 325.788594 155.05544 
L 329.785285 150.299648 
L 333.781975 152.859353 
L 337.778677 149.896753 
L 341.775368 153.130122 
L 345.772058 152.658074 
L 349.76876 151.38157 
L 353.765451 151.489776 
L 357.762141 151.509059 
L 361.758843 154.834289 
L 365.755534 154.114783 
L 369.752224 152.649782 
L 373.748914 153.521056 
L 377.745605 152.131228 
L 381.742319 157.620585 
L 385.739009 150.85797 
L 389.7357 153.587843 
L 393.73239 151.623344 
L 397.72908 155.573564 
L 401.725771 152.446915 
L 405.722485 154.747888 
L 409.719175 154.767043 
L 413.715866 148.872555 
L 417.712556 151.686758 
L 421.709246 154.016684 
L 425.705937 152.268779 
L 429.702627 155.585717 
L 433.699341 154.787461 
L 437.696032 152.48612 
L 441.692722 154.784341 
L 445.689412 151.140511 
L 449.686103 150.313174 
L 453.682793 155.536252 
L 457.679507 154.189106 
L 461.676198 151.527082 
L 465.672888 154.453584 
L 469.669578 156.478498 
L 473.666269 151.696691 
L 477.662959 155.633574 
L 481.659673 155.568229 
L 485.656364 155.205733 
" clip-path="url(#p3f08d2c8d0)" style="fill: none; stroke-dasharray: 1,1.65; stroke-dashoffset: 0; stroke: #ff7f0e"/>
   </g>
   <g id="line2d_14">
    <path d="M 89.983636 174.620629 
L 93.980327 187.757996 
L 97.977023 150.962032 
L 101.973713 157.415929 
L 105.97041 154.393691 
L 109.967106 147.069986 
L 113.963796 166.802249 
L 117.960493 123.78896 
L 121.957186 151.061557 
L 125.953882 132.042668 
L 129.950576 111.550405 
L 133.947269 198.154997 
L 137.943962 174.84051 
L 141.940659 173.88005 
L 145.937352 174.224495 
L 149.934045 146.340321 
L 153.93074 168.52396 
L 157.927434 148.332828 
L 161.924129 148.031445 
L 165.920823 200.07 
L 169.917517 163.880551 
L 173.914211 127.481982 
L 177.910906 158.843723 
L 181.9076 118.564455 
L 185.904294 180.422278 
L 189.900988 147.085015 
L 193.897681 128.997424 
L 197.894377 136.049452 
L 201.891071 166.950791 
L 205.887764 90.155092 
L 209.884457 91.907434 
L 213.881154 152.749844 
L 217.877847 176.208675 
L 221.874543 141.928088 
L 225.871234 118.209876 
L 229.86793 145.690987 
L 233.864626 122.380662 
L 237.861317 100.033298 
L 241.858013 162.21079 
L 245.854704 152.818383 
L 249.8514 170.520662 
L 253.848096 166.561218 
L 257.844787 168.637459 
L 261.841483 156.25509 
L 265.838179 137.429356 
L 269.83487 138.453274 
L 273.83156 135.033766 
L 277.828262 144.466506 
L 281.824953 162.483946 
L 285.821643 148.087635 
L 289.818345 119.093631 
L 293.815036 140.453401 
L 297.811726 140.46875 
L 301.808428 144.099629 
L 305.805119 142.728454 
L 309.801809 115.199355 
L 313.798511 114.438318 
L 317.795202 133.13581 
L 321.791892 119.722677 
L 325.788594 149.787451 
L 329.785285 127.639329 
L 333.781975 147.953854 
L 337.778677 166.272355 
L 341.775368 119.625682 
L 345.772058 155.827856 
L 349.76876 121.895073 
L 353.765451 162.541385 
L 357.762141 164.067264 
L 361.758843 106.668375 
L 365.755534 141.84236 
L 369.752224 161.048145 
L 373.748914 176.111033 
L 377.745605 117.482951 
L 381.742319 184.516925 
L 385.739009 156.053961 
L 389.7357 143.483638 
L 393.73239 149.755297 
L 397.72908 73.71 
L 401.725771 159.585181 
L 405.722485 156.22125 
L 409.719175 118.454367 
L 413.715866 142.456835 
L 417.712556 154.239488 
L 421.709246 140.625566 
L 425.705937 152.043237 
L 429.702627 136.418455 
L 433.699341 167.629065 
L 437.696032 97.73926 
L 441.692722 125.566154 
L 445.689412 146.776388 
L 449.686103 127.450305 
L 453.682793 138.251674 
L 457.679507 173.806773 
L 461.676198 141.142204 
L 465.672888 149.124575 
L 469.669578 149.106881 
L 473.666269 131.083963 
L 477.662959 182.386958 
L 481.659673 143.735676 
L 485.656364 167.488561 
" clip-path="url(#p3f08d2c8d0)" style="fill: none; stroke: #1f77b4; stroke-width: 2.2; stroke-linecap: square"/>
   </g>
   <g id="line2d_15">
    <path d="M 89.983636 152.969212 
L 93.980327 181.826415 
L 97.977023 139.730849 
L 101.973713 174.696175 
L 105.97041 154.12605 
L 109.967106 132.674944 
L 113.963796 167.899642 
L 117.960493 153.460253 
L 121.957186 141.346579 
L 125.953882 146.913971 
L 129.950576 165.391599 
L 133.947269 114.706991 
L 137.943962 138.566937 
L 141.940659 154.609329 
L 145.937352 151.293711 
L 149.934045 124.386786 
L 153.93074 171.687782 
L 157.927434 169.063453 
L 161.924129 159.020239 
L 165.920823 160.561307 
L 169.917517 167.568039 
L 173.914211 162.164735 
L 177.910906 197.341041 
L 181.9076 170.905155 
L 185.904294 132.552489 
L 189.900988 154.605922 
L 193.897681 152.645878 
L 197.894377 161.028367 
L 201.891071 158.714669 
L 205.887764 141.301166 
L 209.884457 155.049826 
L 213.881154 136.255391 
L 217.877847 118.513159 
L 221.874543 104.786773 
L 225.871234 135.365522 
L 229.86793 175.088797 
L 233.864626 118.753409 
L 237.861317 151.603056 
L 241.858013 119.904875 
L 245.854704 136.115696 
L 249.8514 176.811073 
L 253.848096 85.278355 
L 257.844787 136.449959 
L 261.841483 167.361674 
L 265.838179 152.016614 
L 269.83487 138.123934 
L 273.83156 135.529919 
L 277.828262 156.400056 
L 281.824953 129.579758 
L 285.821643 136.454328 
L 289.818345 167.532822 
L 293.815036 144.313407 
L 297.811726 171.579929 
L 301.808428 142.403493 
L 305.805119 93.407277 
L 309.801809 129.812039 
L 313.798511 152.925036 
L 317.795202 168.770374 
L 321.791892 151.162463 
L 325.788594 145.522053 
L 329.785285 135.643882 
L 333.781975 134.827332 
L 337.778677 151.79611 
L 341.775368 166.493116 
L 345.772058 105.183786 
L 349.76876 152.479397 
L 353.765451 147.49269 
L 357.762141 182.761516 
L 361.758843 163.192811 
L 365.755534 142.662868 
L 369.752224 119.888673 
L 373.748914 145.905834 
L 377.745605 143.172364 
L 381.742319 162.113547 
L 385.739009 121.627687 
L 389.7357 167.55945 
L 393.73239 147.966971 
L 397.72908 152.940643 
L 401.725771 162.085464 
L 405.722485 174.864128 
L 409.719175 148.840613 
L 413.715866 150.593921 
L 417.712556 163.007121 
L 421.709246 145.489425 
L 425.705937 156.577827 
L 429.702627 142.518845 
L 433.699341 157.433983 
L 437.696032 165.369808 
L 441.692722 163.203577 
L 445.689412 123.344582 
L 449.686103 137.486179 
L 453.682793 122.189518 
L 457.679507 161.783492 
L 461.676198 176.661602 
L 465.672888 173.615081 
L 469.669578 165.788799 
L 473.666269 155.159503 
L 477.662959 169.644557 
L 481.659673 157.612206 
L 485.656364 172.419386 
" clip-path="url(#p3f08d2c8d0)" style="fill: none; stroke: #ff7f0e; stroke-width: 2.2; stroke-linecap: square"/>
   </g>
   <g id="patch_3">
    <path d="M 70.2 206.388 
L 70.2 67.392 
" style="fill: none; stroke: #000000; stroke-width: 0.8; stroke-linejoin: miter; stroke-linecap: square"/>
   </g>
   <g id="patch_4">
    <path d="M 505.44 206.388 
L 505.44 67.392 
" style="fill: none; stroke: #000000; stroke-width: 0.8; stroke-linejoin: miter; stroke-linecap: square"/>
   </g>
   <g id="patch_5">
    <path d="M 70.2 206.388 
L 505.44 206.388 
" style="fill: none; stroke: #000000; stroke-width: 0.8; stroke-linejoin: miter; stroke-linecap: square"/>
   </g>
   <g id="patch_6">
    <path d="M 70.2 67.392 
L 505.44 67.392 
" style="fill: none; stroke: #000000; stroke-width: 0.8; stroke-linejoin: miter; stroke-linecap: square"/>
   </g>
   <g id="text_12">
    <!-- (MFEF vs MLIP) — R-flow — Panel A: overlay + null bands -->
    <g transform="translate(116.584688 61.392) scale(0.12 -0.12)">
     <defs>
      <path id="DejaVuSans-4d" d="M 628 4666 
L 1569 4666 
L 2759 1491 
L 3956 4666 
L 4897 4666 
L 4897 0 
L 4281 0 
L 4281 4097 
L 3078 897 
L 2444 897 
L 1241 4097 
L 1241 0 
L 628 0 
L 628 4666 
z
" transform="scale(0.015625)"/>
      <path id="DejaVuSans-46" d="M 628 4666 
L 3309 4666 
L 3309 4134 
L 1259 4134 
L 1259 2759 
L 3109 2759 
L 3109 2228 
L 1259 2228 
L 1259 0 
L 628 0 
L 628 4666 
z
" transform="scale(0.015625)"/>
      <path id="DejaVuSans-45" d="M 628 4666 
L 3578 4666 
L 3578 4134 
L 1259 4134 
L 1259 2753 
L 3481 2753 
L 3481 2222 
L 1259 2222 
L 1259 531 
L 3634 531 
L 3634 0 
L 628 0 
L 628 4666 
z
" transform="scale(0.015625)"/>
      <path id="DejaVuSans-76" d="M 191 3500 
L 800 3500 
L 1894 563 
L 2988 3500 
L 3597 3500 
L 2284 0 
L 1503 0 
L 191 3500 
z
" transform="scale(0.015625)"/>
      <path id="DejaVuSans-49" d="M 628 4666 
L 1259 4666 
L 1259 0 
L 628 0 
L 628 4666 
z
" transform="scale(0.015625)"/>
      <path id="DejaVuSans-50" d="M 1259 4147 
L 1259 2394 
L 2053 2394 
Q 2494 2394 2734 2622 
Q 2975 2850 2975 3272 
Q 2975 3691 2734 3919 
Q 2494 4147 2053 4147 
L 1259 4147 
z
M 628 4666 
L 2053 4666 
Q 2838 4666 3239 4311 
Q 3641 3956 3641 3272 
Q 3641 2581 3239 2228 
Q 2838 1875 2053 1875 
L 1259 1875 
L 1259 0 
L 628 0 
L 628 4666 
z
" transform="scale(0.015625)"/>
      <path id="DejaVuSans-2014" d="M 313 1978 
L 6088 1978 
L 6088 1528 
L 313 1528 
L 313 1978 
z
" transform="scale(0.015625)"/>
      <path id="DejaVuSans-52" d="M 2841 2188 
Q 3044 2119 3236 1894 
Q 3428 1669 3622 1275 
L 4263 0 
L 3584 0 
L 2988 1197 
Q 2756 1666 2539 1819 
Q 2322 1972 1947 1972 
L 1259 1972 
L 1259 0 
L 628 0 
L 628 4666 
L 2053 4666 
Q 2853 4666 3247 4331 
Q 3641 3997 3641 3322 
Q 3641 2881 3436 2590 
Q 3231 2300 2841 2188 
z
M 1259 4147 
L 1259 2491 
L 2053 2491 
Q 2509 2491 2742 2702 
Q 2975 2913 2975 3322 
Q 2975 3731 2742 3939 
Q 2509 4147 2053 4147 
L 1259 4147 
z
" transform="scale(0.015625)"/>
      <path id="DejaVuSans-2d" d="M 313 2009 
L 1997 2009 
L 1997 1497 
L 313 1497 
L 313 2009 
z
" transform="scale(0.015625)"/>
      <path id="DejaVuSans-66" d="M 2375 4863 
L 2375 4384 
L 1825 4384 
Q 1516 4384 1395 4259 
Q 1275 4134 1275 3809 
L 1275 3500 
L 2222 3500 
L 2222 3053 
L 1275 3053 
L 1275 0 
L 697 0 
L 697 3053 
L 147 3053 
L 147 3500 
L 697 3500 
L 697 3744 
Q 697 4328 969 4595 
Q 1241 4863 1831 4863 
L 2375 4863 
z
" transform="scale(0.015625)"/>
      <path id="DejaVuSans-6c" d="M 603 4863 
L 1178 4863 
L 1178 0 
L 603 0 
L 603 4863 
z
" transform="scale(0.015625)"/>
      <path id="DejaVuSans-6f" d="M 1959 3097 
Q 1497 3097 1228 2736 
Q 959 2375 959 1747 
Q 959 1119 1226 758 
Q 1494 397 1959 397 
Q 2419 397 2687 759 
Q 2956 1122 2956 1747 
Q 2956 2369 2687 2733 
Q 2419 3097 1959 3097 
z
M 1959 3584 
Q 2709 3584 3137 3096 
Q 3566 2609 3566 1747 
Q 3566 888 3137 398 
Q 2709 -91 1959 -91 
Q 1206 -91 779 398 
Q 353 888 353 1747 
Q 353 2609 779 3096 
Q 1206 3584 1959 3584 
z
" transform="scale(0.015625)"/>
      <path id="DejaVuSans-77" d="M 269 3500 
L 844 3500 
L 1563 769 
L 2278 3500 
L 2956 3500 
L 3675 769 
L 4391 3500 
L 4966 3500 
L 4050 0 
L 3372 0 
L 2619 2869 
L 1863 0 
L 1184 0 
L 269 3500 
z
" transform="scale(0.015625)"/>
      <path id="DejaVuSans-61" d="M 2194 1759 
Q 1497 1759 1228 1600 
Q 959 1441 959 1056 
Q 959 750 1161 570 
Q 1363 391 1709 391 
Q 2188 391 2477 730 
Q 2766 1069 2766 1631 
L 2766 1759 
L 2194 1759 
z
M 3341 1997 
L 3341 0 
L 2766 0 
L 2766 531 
Q 2569 213 2275 61 
Q 1981 -91 1556 -91 
Q 1019 -91 701 211 
Q 384 513 384 1019 
Q 384 1609 779 1909 
Q 1175 2209 1959 2209 
L 2766 2209 
L 2766 2266 
Q 2766 2663 2505 2880 
Q 2244 3097 1772 3097 
Q 1472 3097 1187 3025 
Q 903 2953 641 2809 
L 641 3341 
Q 956 3463 1253 3523 
Q 1550 3584 1831 3584 
Q 2591 3584 2966 3190 
Q 3341 2797 3341 1997 
z
" transform="scale(0.015625)"/>
      <path id="DejaVuSans-6e" d="M 3513 2113 
L 3513 0 
L 2938 0 
L 2938 2094 
Q 2938 2591 2744 2837 
Q 2550 3084 2163 3084 
Q 1697 3084 1428 2787 
Q 1159 2491 1159 1978 
L 1159 0 
L 581 0 
L 581 3500 
L 1159 3500 
L 1159 2956 
Q 1366 3272 1645 3428 
Q 1925 3584 2291 3584 
Q 2894 3584 3203 3211 
Q 3513 2838 3513 2113 
z
" transform="scale(0.015625)"/>
      <path id="DejaVuSans-65" d="M 3597 1894 
L 3597 1613 
L 953 1613 
Q 991 1019 1311 708 
Q 1631 397 2203 397 
Q 2534 397 2845 478 
Q 3156 559 3463 722 
L 3463 178 
Q 3153 47 2828 -22 
Q 2503 -91 2169 -91 
Q 1331 -91 842 396 
Q 353 884 353 1716 
Q 353 2575 817 3079 
Q 1281 3584 2069 3584 
Q 2775 3584 3186 3129 
Q 3597 2675 3597 1894 
z
M 3022 2063 
Q 3016 2534 2758 2815 
Q 2500 3097 2075 3097 
Q 1594 3097 1305 2825 
Q 1016 2553 972 2059 
L 3022 2063 
z
" transform="scale(0.015625)"/>
      <path id="DejaVuSans-41" d="M 2188 4044 
L 1331 1722 
L 3047 1722 
L 2188 4044 
z
M 1831 4666 
L 2547 4666 
L 4325 0 
L 3669 0 
L 3244 1197 
L 1141 1197 
L 716 0 
L 50 0 
L 1831 4666 
z
" transform="scale(0.015625)"/>
      <path id="DejaVuSans-3a" d="M 750 794 
L 1409 794 
L 1409 0 
L 750 0 
L 750 794 
z
M 750 3309 
L 1409 3309 
L 1409 2516 
L 750 2516 
L 750 3309 
z
" transform="scale(0.015625)"/>
      <path id="DejaVuSans-72" d="M 2631 2963 
Q 2534 3019 2420 3045 
Q 2306 3072 2169 3072 
Q 1681 3072 1420 2755 
Q 1159 2438 1159 1844 
L 1159 0 
L 581 0 
L 581 3500 
L 1159 3500 
L 1159 2956 
Q 1341 3275 1631 3429 
Q 1922 3584 2338 3584 
Q 2397 3584 2469 3576 
Q 2541 3569 2628 3553 
L 2631 2963 
z
" transform="scale(0.015625)"/>
      <path id="DejaVuSans-79" d="M 2059 -325 
Q 1816 -950 1584 -1140 
Q 1353 -1331 966 -1331 
L 506 -1331 
L 506 -850 
L 844 -850 
Q 1081 -850 1212 -737 
Q 1344 -625 1503 -206 
L 1606 56 
L 191 3500 
L 800 3500 
L 1894 763 
L 2988 3500 
L 3597 3500 
L 2059 -325 
z
" transform="scale(0.015625)"/>
      <path id="DejaVuSans-2b" d="M 2944 4013 
L 2944 2272 
L 4684 2272 
L 4684 1741 
L 2944 1741 
L 2944 0 
L 2419 0 
L 2419 1741 
L 678 1741 
L 678 2272 
L 2419 2272 
L 2419 4013 
L 2944 4013 
z
" transform="scale(0.015625)"/>
      <path id="DejaVuSans-75" d="M 544 1381 
L 544 3500 
L 1119 3500 
L 1119 1403 
Q 1119 906 1312 657 
Q 1506 409 1894 409 
Q 2359 409 2629 706 
Q 2900 1003 2900 1516 
L 2900 3500 
L 3475 3500 
L 3475 0 
L 2900 0 
L 2900 538 
Q 2691 219 2414 64 
Q 2138 -91 1772 -91 
Q 1169 -91 856 284 
Q 544 659 544 1381 
z
M 1991 3584 
L 1991 3584 
z
" transform="scale(0.015625)"/>
      <path id="DejaVuSans-64" d="M 2906 2969 
L 2906 4863 
L 3481 4863 
L 3481 0 
L 2906 0 
L 2906 525 
Q 2725 213 2448 61 
Q 2172 -91 1784 -91 
Q 1150 -91 751 415 
Q 353 922 353 1747 
Q 353 2572 751 3078 
Q 1150 3584 1784 3584 
Q 2172 3584 2448 3432 
Q 2725 3281 2906 2969 
z
M 947 1747 
Q 947 1113 1208 752 
Q 1469 391 1925 391 
Q 2381 391 2643 752 
Q 2906 1113 2906 1747 
Q 2906 2381 2643 2742 
Q 2381 3103 1925 3103 
Q 1469 3103 1208 2742 
Q 947 2381 947 1747 
z
" transform="scale(0.015625)"/>
     </defs>
     <use xlink:href="#DejaVuSans-28"/>
     <use xlink:href="#DejaVuSans-4d" transform="translate(39.013672 0)"/>
     <use xlink:href="#DejaVuSans-46" transform="translate(125.292969 0)"/>
     <use xlink:href="#DejaVuSans-45" transform="translate(182.8125 0)"/>
     <use xlink:href="#DejaVuSans-46" transform="translate(245.996094 0)"/>
     <use xlink:href="#DejaVuSans-20" transform="translate(303.515625 0)"/>
     <use xlink:href="#DejaVuSans-76" transform="translate(335.302734 0)"/>
     <use xlink:href="#DejaVuSans-73" transform="translate(394.482422 0)"/>
     <use xlink:href="#DejaVuSans-20" transform="translate(446.582031 0)"/>
     <use xlink:href="#DejaVuSans-4d" transform="translate(478.369141 0)"/>
     <use xlink:href="#DejaVuSans-4c" transform="translate(564.648438 0)"/>
     <use xlink:href="#DejaVuSans-49" transform="translate(620.361328 0)"/>
     <use xlink:href="#DejaVuSans-50" transform="translate(649.853516 0)"/>
     <use xlink:href="#DejaVuSans-29" transform="translate(710.15625 0)"/>
     <use xlink:href="#DejaVuSans-20" transform="translate(749.169922 0)"/>
     <use xlink:href="#DejaVuSans-2014" transform="translate(780.957031 0)"/>
     <use xlink:href="#DejaVuSans-20" transform="translate(880.957031 0)"/>
     <use xlink:href="#DejaVuSans-52" transform="translate(912.744141 0)"/>
     <use xlink:href="#DejaVuSans-2d" transform="translate(978.226562 0)"/>
     <use xlink:href="#DejaVuSans-66" transform="translate(1014.310547 0)"/>
     <use xlink:href="#DejaVuSans-6c" transform="translate(1049.515625 0)"/>
     <use xlink:href="#DejaVuSans-6f" transform="translate(1077.298828 0)"/>
     <use xlink:href="#DejaVuSans-77" transform="translate(1138.480469 0)"/>
     <use xlink:href="#DejaVuSans-20" transform="translate(1220.267578 0)"/>
     <use xlink:href="#DejaVuSans-2014" transform="translate(1252.054688 0)"/>
     <use xlink:href="#DejaVuSans-20" transform="translate(1352.054688 0)"/>
     <use xlink:href="#DejaVuSans-50" transform="translate(1383.841797 0)"/>
     <use xlink:href="#DejaVuSans-61" transform="translate(1439.644531 0)"/>
     <use xlink:href="#DejaVuSans-6e" transform="translate(1500.923828 0)"/>
     <use xlink:href="#DejaVuSans-65" transform="translate(1564.302734 0)"/>
     <use xlink:href="#DejaVuSans-6c" transform="translate(1625.826172 0)"/>
     <use xlink:href="#DejaVuSans-20" transform="translate(1653.609375 0)"/>
     <use xlink:href="#DejaVuSans-41" transform="translate(1685.396484 0)"/>
     <use xlink:href="#DejaVuSans-3a" transform="translate(1752.054688 0)"/>
     <use xlink:href="#DejaVuSans-20" transform="translate(1785.746094 0)"/>
     <use xlink:href="#DejaVuSans-6f" transform="translate(1817.533203 0)"/>
     <use xlink:href="#DejaVuSans-76" transform="translate(1878.714844 0)"/>
     <use xlink:href="#DejaVuSans-65" transform="translate(1937.894531 0)"/>
     <use xlink:href="#DejaVuSans-72" transform="translate(1999.417969 0)"/>
     <use xlink:href="#DejaVuSans-6c" transform="translate(2040.53125 0)"/>
     <use xlink:href="#DejaVuSans-61" transform="translate(2068.314453 0)"/>
     <use xlink:href="#DejaVuSans-79" transform="translate(2129.59375 0)"/>
     <use xlink:href="#DejaVuSans-20" transform="translate(2188.773438 0)"/>
     <use xlink:href="#DejaVuSans-2b" transform="translate(2220.560547 0)"/>
     <use xlink:href="#DejaVuSans-20" transform="translate(2304.349609 0)"/>
     <use xlink:href="#DejaVuSans-6e" transform="translate(2336.136719 0)"/>
     <use xlink:href="#DejaVuSans-75" transform="translate(2399.515625 0)"/>
     <use xlink:href="#DejaVuSans-6c" transform="translate(2462.894531 0)"/>
     <use xlink:href="#DejaVuSans-6c" transform="translate(2490.677734 0)"/>
     <use xlink:href="#DejaVuSans-20" transform="translate(2518.460938 0)"/>
     <use xlink:href="#DejaVuSans-62" transform="translate(2550.248047 0)"/>
     <use xlink:href="#DejaVuSans-61" transform="translate(2613.724609 0)"/>
     <use xlink:href="#DejaVuSans-6e" transform="translate(2675.003906 0)"/>
     <use xlink:href="#DejaVuSans-64" transform="translate(2738.382812 0)"/>
     <use xlink:href="#DejaVuSans-73" transform="translate(2801.859375 0)"/>
    </g>
   </g>
   <g id="legend_1">
    <g id="patch_7">
     <path d="M 79.2 83.990437 
L 99.2 83.990437 
L 99.2 76.990437 
L 79.2 76.990437 
z
" style="fill: #1f77b4; fill-opacity: 0.15"/>
    </g>
    <g id="text_13">
     <!-- MFEF→MLIP null μ±σ -->
     <g transform="translate(107.2 83.990437) scale(0.1 -0.1)">
      <defs>
       <path id="DejaVuSans-2192" d="M 5050 2147 
L 5050 1866 
L 3822 638 
L 3447 1013 
L 4175 1741 
L 366 1741 
L 366 2272 
L 4175 2272 
L 3447 3000 
L 3822 3375 
L 5050 2147 
z
" transform="scale(0.015625)"/>
       <path id="DejaVuSans-3bc" d="M 544 -1331 
L 544 3500 
L 1119 3500 
L 1119 1325 
Q 1119 872 1334 640 
Q 1550 409 1972 409 
Q 2434 409 2667 671 
Q 2900 934 2900 1459 
L 2900 3500 
L 3475 3500 
L 3475 806 
Q 3475 619 3529 530 
Q 3584 441 3700 441 
Q 3728 441 3778 458 
Q 3828 475 3916 513 
L 3916 50 
Q 3788 -22 3673 -56 
Q 3559 -91 3450 -91 
Q 3234 -91 3106 31 
Q 2978 153 2931 403 
Q 2775 156 2548 32 
Q 2322 -91 2016 -91 
Q 1697 -91 1473 31 
Q 1250 153 1119 397 
L 1119 -1331 
L 544 -1331 
z
" transform="scale(0.015625)"/>
       <path id="DejaVuSans-b1" d="M 2944 4013 
L 2944 2803 
L 4684 2803 
L 4684 2272 
L 2944 2272 
L 2944 1063 
L 2419 1063 
L 2419 2272 
L 678 2272 
L 678 2803 
L 2419 2803 
L 2419 4013 
L 2944 4013 
z
M 678 531 
L 4684 531 
L 4684 0 
L 678 0 
L 678 531 
z
" transform="scale(0.015625)"/>
       <path id="DejaVuSans-3c3" d="M 1959 3044 
Q 1484 3044 1228 2700 
Q 959 2341 959 1747 
Q 959 1119 1226 758 
Q 1494 397 1959 397 
Q 2419 397 2687 759 
Q 2956 1122 2956 1747 
Q 2956 2319 2688 2700 
Q 2441 3044 1959 3044 
z
M 1959 3500 
L 3869 3500 
L 3869 2925 
L 3225 2925 
Q 3566 2438 3566 1747 
Q 3566 888 3138 400 
Q 2709 -91 1959 -91 
Q 1206 -91 781 400 
Q 353 888 353 1747 
Q 353 2613 781 3097 
Q 1134 3500 1959 3500 
z
" transform="scale(0.015625)"/>
      </defs>
      <use xlink:href="#DejaVuSans-4d"/>
      <use xlink:href="#DejaVuSans-46" transform="translate(86.279297 0)"/>
      <use xlink:href="#DejaVuSans-45" transform="translate(143.798828 0)"/>
      <use xlink:href="#DejaVuSans-46" transform="translate(206.982422 0)"/>
      <use xlink:href="#DejaVuSans-2192" transform="translate(264.501953 0)"/>
      <use xlink:href="#DejaVuSans-4d" transform="translate(348.291016 0)"/>
      <use xlink:href="#DejaVuSans-4c" transform="translate(434.570312 0)"/>
      <use xlink:href="#DejaVuSans-49" transform="translate(490.283203 0)"/>
      <use xlink:href="#DejaVuSans-50" transform="translate(519.775391 0)"/>
      <use xlink:href="#DejaVuSans-20" transform="translate(580.078125 0)"/>
      <use xlink:href="#DejaVuSans-6e" transform="translate(611.865234 0)"/>
      <use xlink:href="#DejaVuSans-75" transform="translate(675.244141 0)"/>
      <use xlink:href="#DejaVuSans-6c" transform="translate(738.623047 0)"/>
      <use xlink:href="#DejaVuSans-6c" transform="translate(766.40625 0)"/>
      <use xlink:href="#DejaVuSans-20" transform="translate(794.189453 0)"/>
      <use xlink:href="#DejaVuSans-3bc" transform="translate(825.976562 0)"/>
      <use xlink:href="#DejaVuSans-b1" transform="translate(889.599609 0)"/>
      <use xlink:href="#DejaVuSans-3c3" transform="translate(973.388672 0)"/>
     </g>
    </g>
    <g id="patch_8">
     <path d="M 79.2 98.668563 
L 99.2 98.668563 
L 99.2 91.668563 
L 79.2 91.668563 
z
" style="fill: #ff7f0e; fill-opacity: 0.15"/>
    </g>
    <g id="text_14">
     <!-- MLIP→MFEF null μ±σ -->
     <g transform="translate(107.2 98.668563) scale(0.1 -0.1)">
      <use xlink:href="#DejaVuSans-4d"/>
      <use xlink:href="#DejaVuSans-4c" transform="translate(86.279297 0)"/>
      <use xlink:href="#DejaVuSans-49" transform="translate(141.992188 0)"/>
      <use xlink:href="#DejaVuSans-50" transform="translate(171.484375 0)"/>
      <use xlink:href="#DejaVuSans-2192" transform="translate(231.787109 0)"/>
      <use xlink:href="#DejaVuSans-4d" transform="translate(315.576172 0)"/>
      <use xlink:href="#DejaVuSans-46" transform="translate(401.855469 0)"/>
      <use xlink:href="#DejaVuSans-45" transform="translate(459.375 0)"/>
      <use xlink:href="#DejaVuSans-46" transform="translate(522.558594 0)"/>
      <use xlink:href="#DejaVuSans-20" transform="translate(580.078125 0)"/>
      <use xlink:href="#DejaVuSans-6e" transform="translate(611.865234 0)"/>
      <use xlink:href="#DejaVuSans-75" transform="translate(675.244141 0)"/>
      <use xlink:href="#DejaVuSans-6c" transform="translate(738.623047 0)"/>
      <use xlink:href="#DejaVuSans-6c" transform="translate(766.40625 0)"/>
      <use xlink:href="#DejaVuSans-20" transform="translate(794.189453 0)"/>
      <use xlink:href="#DejaVuSans-3bc" transform="translate(825.976562 0)"/>
      <use xlink:href="#DejaVuSans-b1" transform="translate(889.599609 0)"/>
      <use xlink:href="#DejaVuSans-3c3" transform="translate(973.388672 0)"/>
     </g>
    </g>
    <g id="line2d_16">
     <path d="M 230.876562 80.490437 
L 240.876562 80.490437 
L 250.876562 80.490437 
" style="fill: none; stroke: #1f77b4; stroke-width: 2.2; stroke-linecap: square"/>
    </g>
    <g id="text_15">
     <!-- MFEF→MLIP -->
     <g transform="translate(258.876562 83.990437) scale(0.1 -0.1)">
      <use xlink:href="#DejaVuSans-4d"/>
      <use xlink:href="#DejaVuSans-46" transform="translate(86.279297 0)"/>
      <use xlink:href="#DejaVuSans-45" transform="translate(143.798828 0)"/>
      <use xlink:href="#DejaVuSans-46" transform="translate(206.982422 0)"/>
      <use xlink:href="#DejaVuSans-2192" transform="translate(264.501953 0)"/>
      <use xlink:href="#DejaVuSans-4d" transform="translate(348.291016 0)"/>
      <use xlink:href="#DejaVuSans-4c" transform="translate(434.570312 0)"/>
      <use xlink:href="#DejaVuSans-49" transform="translate(490.283203 0)"/>
      <use xlink:href="#DejaVuSans-50" transform="translate(519.775391 0)"/>
     </g>
    </g>
    <g id="line2d_17">
     <path d="M 230.876562 95.168563 
L 240.876562 95.168563 
L 250.876562 95.168563 
" style="fill: none; stroke: #ff7f0e; stroke-width: 2.2; stroke-linecap: square"/>
    </g>
    <g id="text_16">
     <!-- MLIP→MFEF -->
     <g transform="translate(258.876562 98.668563) scale(0.1 -0.1)">
      <use xlink:href="#DejaVuSans-4d"/>
      <use xlink:href="#DejaVuSans-4c" transform="translate(86.279297 0)"/>
      <use xlink:href="#DejaVuSans-49" transform="translate(141.992188 0)"/>
      <use xlink:href="#DejaVuSans-50" transform="translate(171.484375 0)"/>
      <use xlink:href="#DejaVuSans-2192" transform="translate(231.787109 0)"/>
      <use xlink:href="#DejaVuSans-4d" transform="translate(315.576172 0)"/>
      <use xlink:href="#DejaVuSans-46" transform="translate(401.855469 0)"/>
      <use xlink:href="#DejaVuSans-45" transform="translate(459.375 0)"/>
      <use xlink:href="#DejaVuSans-46" transform="translate(522.558594 0)"/>
     </g>
    </g>
   </g>
  </g>
  <g id="axes_2">
   <g id="patch_9">
    <path d="M 70.2 353.106 
L 505.44 353.106 
L 505.44 237.276 
L 70.2 237.276 
z
" style="fill: #ffffff"/>
   </g>
   <g id="matplotlib.axis_3">
    <g id="xtick_7">
     <g id="line2d_18">
      <g>
       <use xlink:href="#mb074c24dad" x="87.985286" y="353.106" style="stroke: #000000; stroke-width: 0.8"/>
      </g>
     </g>
     <g id="text_17">
      <!-- −200 -->
      <g transform="translate(74.251693 367.704438) scale(0.1 -0.1)">
       <use xlink:href="#DejaVuSans-2212"/>
       <use xlink:href="#DejaVuSans-32" transform="translate(83.789062 0)"/>
       <use xlink:href="#DejaVuSans-30" transform="translate(147.412109 0)"/>
       <use xlink:href="#DejaVuSans-30" transform="translate(211.035156 0)"/>
      </g>
     </g>
    </g>
    <g id="xtick_8">
     <g id="line2d_19">
      <g>
       <use xlink:href="#mb074c24dad" x="167.91917" y="353.106" style="stroke: #000000; stroke-width: 0.8"/>
      </g>
     </g>
     <g id="text_18">
      <!-- 0 -->
      <g transform="translate(164.73792 367.704438) scale(0.1 -0.1)">
       <use xlink:href="#DejaVuSans-30"/>
      </g>
     </g>
    </g>
    <g id="xtick_9">
     <g id="line2d_20">
      <g>
       <use xlink:href="#mb074c24dad" x="247.853053" y="353.106" style="stroke: #000000; stroke-width: 0.8"/>
      </g>
     </g>
     <g id="text_19">
      <!-- 200 -->
      <g transform="translate(238.309303 367.704438) scale(0.1 -0.1)">
       <use xlink:href="#DejaVuSans-32"/>
       <use xlink:href="#DejaVuSans-30" transform="translate(63.623047 0)"/>
       <use xlink:href="#DejaVuSans-30" transform="translate(127.246094 0)"/>
      </g>
     </g>
    </g>
    <g id="xtick_10">
     <g id="line2d_21">
      <g>
       <use xlink:href="#mb074c24dad" x="327.786937" y="353.106" style="stroke: #000000; stroke-width: 0.8"/>
      </g>
     </g>
     <g id="text_20">
      <!-- 400 -->
      <g transform="translate(318.243187 367.704438) scale(0.1 -0.1)">
       <use xlink:href="#DejaVuSans-34"/>
       <use xlink:href="#DejaVuSans-30" transform="translate(63.623047 0)"/>
       <use xlink:href="#DejaVuSans-30" transform="translate(127.246094 0)"/>
      </g>
     </g>
    </g>
    <g id="xtick_11">
     <g id="line2d_22">
      <g>
       <use xlink:href="#mb074c24dad" x="407.720821" y="353.106" style="stroke: #000000; stroke-width: 0.8"/>
      </g>
     </g>
     <g id="text_21">
      <!-- 600 -->
      <g transform="translate(398.177071 367.704438) scale(0.1 -0.1)">
       <use xlink:href="#DejaVuSans-36"/>
       <use xlink:href="#DejaVuSans-30" transform="translate(63.623047 0)"/>
       <use xlink:href="#DejaVuSans-30" transform="translate(127.246094 0)"/>
      </g>
     </g>
    </g>
    <g id="xtick_12">
     <g id="line2d_23">
      <g>
       <use xlink:href="#mb074c24dad" x="487.654704" y="353.106" style="stroke: #000000; stroke-width: 0.8"/>
      </g>
     </g>
     <g id="text_22">
      <!-- 800 -->
      <g transform="translate(478.110954 367.704438) scale(0.1 -0.1)">
       <use xlink:href="#DejaVuSans-38"/>
       <use xlink:href="#DejaVuSans-30" transform="translate(63.623047 0)"/>
       <use xlink:href="#DejaVuSans-30" transform="translate(127.246094 0)"/>
      </g>
     </g>
    </g>
   </g>
   <g id="matplotlib.axis_4">
    <g id="ytick_5">
     <g id="line2d_24">
      <g>
       <use xlink:href="#mfcde9ebe60" x="70.2" y="345.473937" style="stroke: #000000; stroke-width: 0.8"/>
      </g>
     </g>
     <g id="text_23">
      <!-- −10 -->
      <g transform="translate(42.095313 349.273156) scale(0.1 -0.1)">
       <use xlink:href="#DejaVuSans-2212"/>
       <use xlink:href="#DejaVuSans-31" transform="translate(83.789062 0)"/>
       <use xlink:href="#DejaVuSans-30" transform="translate(147.412109 0)"/>
      </g>
     </g>
    </g>
    <g id="ytick_6">
     <g id="line2d_25">
      <g>
       <use xlink:href="#mfcde9ebe60" x="70.2" y="319.650006" style="stroke: #000000; stroke-width: 0.8"/>
      </g>
     </g>
     <g id="text_24">
      <!-- −5 -->
      <g transform="translate(48.457813 323.449225) scale(0.1 -0.1)">
       <use xlink:href="#DejaVuSans-2212"/>
       <use xlink:href="#DejaVuSans-35" transform="translate(83.789062 0)"/>
      </g>
     </g>
    </g>
    <g id="ytick_7">
     <g id="line2d_26">
      <g>
       <use xlink:href="#mfcde9ebe60" x="70.2" y="293.826075" style="stroke: #000000; stroke-width: 0.8"/>
      </g>
     </g>
     <g id="text_25">
      <!-- 0 -->
      <g transform="translate(56.8375 297.625294) scale(0.1 -0.1)">
       <use xlink:href="#DejaVuSans-30"/>
      </g>
     </g>
    </g>
    <g id="ytick_8">
     <g id="line2d_27">
      <g>
       <use xlink:href="#mfcde9ebe60" x="70.2" y="268.002144" style="stroke: #000000; stroke-width: 0.8"/>
      </g>
     </g>
     <g id="text_26">
      <!-- 5 -->
      <g transform="translate(56.8375 271.801363) scale(0.1 -0.1)">
       <use xlink:href="#DejaVuSans-35"/>
      </g>
     </g>
    </g>
    <g id="ytick_9">
     <g id="line2d_28">
      <g>
       <use xlink:href="#mfcde9ebe60" x="70.2" y="242.178213" style="stroke: #000000; stroke-width: 0.8"/>
      </g>
     </g>
     <g id="text_27">
      <!-- 10 -->
      <g transform="translate(50.475 245.977432) scale(0.1 -0.1)">
       <use xlink:href="#DejaVuSans-31"/>
       <use xlink:href="#DejaVuSans-30" transform="translate(63.623047 0)"/>
      </g>
     </g>
    </g>
    <g id="text_28">
     <!-- ΔΔLL (bits) -->
     <g transform="translate(36.015625 322.22225) rotate(-90) scale(0.1 -0.1)">
      <use xlink:href="#DejaVuSans-394"/>
      <use xlink:href="#DejaVuSans-394" transform="translate(68.408203 0)"/>
      <use xlink:href="#DejaVuSans-4c" transform="translate(136.816406 0)"/>
      <use xlink:href="#DejaVuSans-4c" transform="translate(192.529297 0)"/>
      <use xlink:href="#DejaVuSans-20" transform="translate(248.242188 0)"/>
      <use xlink:href="#DejaVuSans-28" transform="translate(280.029297 0)"/>
      <use xlink:href="#DejaVuSans-62" transform="translate(319.042969 0)"/>
      <use xlink:href="#DejaVuSans-69" transform="translate(382.519531 0)"/>
      <use xlink:href="#DejaVuSans-74" transform="translate(410.302734 0)"/>
      <use xlink:href="#DejaVuSans-73" transform="translate(449.511719 0)"/>
      <use xlink:href="#DejaVuSans-29" transform="translate(501.611328 0)"/>
     </g>
    </g>
   </g>
   <g id="line2d_29">
    <path d="M 167.91917 353.106 
L 167.91917 237.276 
" clip-path="url(#p078615c66e)" style="fill: none; stroke-dasharray: 2.96,1.28; stroke-dashoffset: 0; stroke: #000000; stroke-width: 0.8"/>
   </g>
   <g id="line2d_30">
    <path d="M 70.2 293.826075 
L 505.44 293.826075 
" clip-path="url(#p078615c66e)" style="fill: none; stroke-dasharray: 0.8,1.32; stroke-dashoffset: 0; stroke: #000000; stroke-width: 0.8"/>
   </g>
   <g id="line2d_31">
    <path d="M 89.983636 307.840786 
L 93.980327 297.665519 
L 97.977023 301.09589 
L 101.973713 282.640772 
L 105.97041 293.999316 
L 109.967106 303.143818 
L 113.963796 293.115745 
L 117.960493 274.620192 
L 121.957186 300.114467 
L 125.953882 284.200053 
L 129.950576 258.975295 
L 133.947269 347.841 
L 137.943962 317.305538 
L 141.940659 306.299789 
L 145.937352 308.668905 
L 149.934045 308.036343 
L 153.93074 291.77817 
L 157.927434 280.407382 
L 161.924129 286.713156 
L 165.920823 319.399593 
L 169.917517 291.439207 
L 173.914211 271.376332 
L 177.910906 268.907208 
L 181.9076 259.946548 
L 185.904294 324.811634 
L 189.900988 288.957879 
L 193.897681 278.518705 
L 197.894377 277.657513 
L 201.891071 299.157222 
L 205.887764 260.719815 
L 209.884457 252.954738 
L 213.881154 304.502743 
L 217.877847 331.171712 
L 221.874543 317.867217 
L 225.871234 282.721425 
L 229.86793 274.797214 
L 233.864626 296.173954 
L 237.861317 260.44557 
L 241.858013 321.210203 
L 245.854704 304.637531 
L 249.8514 289.754365 
L 253.848096 346.439529 
L 257.844787 314.66067 
L 261.841483 286.636912 
L 265.838179 284.383912 
L 269.83487 294.039253 
L 273.83156 293.504921 
L 277.828262 286.101626 
L 281.824953 315.124574 
L 285.821643 301.356179 
L 289.818345 262.471949 
L 293.815036 291.327537 
L 297.811726 273.68817 
L 301.808428 294.923964 
L 305.805119 325.7511 
L 309.801809 284.367455 
L 313.798511 268.91407 
L 317.795202 270.760236 
L 321.791892 273.475467 
L 325.788594 296.587018 
L 329.785285 288.644821 
L 333.781975 302.322721 
L 337.778677 303.19638 
L 341.775368 263.489329 
L 345.772058 326.607393 
L 349.76876 274.029198 
L 353.765451 303.566921 
L 357.762141 281.725503 
L 361.758843 257.238464 
L 365.755534 293.29497 
L 369.752224 320.468123 
L 373.748914 313.37755 
L 377.745605 277.197616 
L 381.742319 308.327522 
L 385.739009 316.109802 
L 389.7357 278.242082 
L 393.73239 294.983638 
L 397.72908 242.541 
L 401.725771 292.207671 
L 405.722485 281.758756 
L 409.719175 274.157411 
L 413.715866 288.559034 
L 417.712556 288.150888 
L 421.709246 290.677756 
L 425.705937 290.890888 
L 429.702627 289.877363 
L 433.699341 300.425234 
L 437.696032 250.049606 
L 441.692722 269.463808 
L 445.689412 308.993211 
L 449.686103 287.32997 
L 453.682793 304.222922 
L 457.679507 301.608605 
L 461.676198 270.834781 
L 465.672888 277.973655 
L 469.669578 283.028063 
L 473.666269 278.242257 
L 477.662959 302.074083 
L 481.659673 284.843958 
L 485.656364 290.634409 
" clip-path="url(#p078615c66e)" style="fill: none; stroke: #d62728; stroke-width: 2.2; stroke-linecap: square"/>
   </g>
   <g id="line2d_32">
    <defs>
     <path id="m9bcfa14a9a" d="M 0 1.25 
C 0.331504 1.25 0.649475 1.118292 0.883883 0.883883 
C 1.118292 0.649475 1.25 0.331504 1.25 0 
C 1.25 -0.331504 1.118292 -0.649475 0.883883 -0.883883 
C 0.649475 -1.118292 0.331504 -1.25 0 -1.25 
C -0.331504 -1.25 -0.649475 -1.118292 -0.883883 -0.883883 
C -1.118292 -0.649475 -1.25 -0.331504 -1.25 0 
C -1.25 0.331504 -1.118292 0.649475 -0.883883 0.883883 
C -0.649475 1.118292 -0.331504 1.25 0 1.25 
z
" style="stroke: #000000"/>
    </defs>
    <g clip-path="url(#p078615c66e)">
     <use xlink:href="#m9bcfa14a9a" x="129.950576" y="258.975295" style="stroke: #000000"/>
     <use xlink:href="#m9bcfa14a9a" x="133.947269" y="347.841" style="stroke: #000000"/>
     <use xlink:href="#m9bcfa14a9a" x="181.9076" y="259.946548" style="stroke: #000000"/>
     <use xlink:href="#m9bcfa14a9a" x="205.887764" y="260.719815" style="stroke: #000000"/>
     <use xlink:href="#m9bcfa14a9a" x="209.884457" y="252.954738" style="stroke: #000000"/>
     <use xlink:href="#m9bcfa14a9a" x="217.877847" y="331.171712" style="stroke: #000000"/>
     <use xlink:href="#m9bcfa14a9a" x="221.874543" y="317.867217" style="stroke: #000000"/>
     <use xlink:href="#m9bcfa14a9a" x="237.861317" y="260.44557" style="stroke: #000000"/>
     <use xlink:href="#m9bcfa14a9a" x="253.848096" y="346.439529" style="stroke: #000000"/>
     <use xlink:href="#m9bcfa14a9a" x="305.805119" y="325.7511" style="stroke: #000000"/>
     <use xlink:href="#m9bcfa14a9a" x="309.801809" y="284.367455" style="stroke: #000000"/>
     <use xlink:href="#m9bcfa14a9a" x="313.798511" y="268.91407" style="stroke: #000000"/>
     <use xlink:href="#m9bcfa14a9a" x="345.772058" y="326.607393" style="stroke: #000000"/>
     <use xlink:href="#m9bcfa14a9a" x="361.758843" y="257.238464" style="stroke: #000000"/>
     <use xlink:href="#m9bcfa14a9a" x="397.72908" y="242.541" style="stroke: #000000"/>
     <use xlink:href="#m9bcfa14a9a" x="437.696032" y="250.049606" style="stroke: #000000"/>
    </g>
   </g>
   <g id="patch_10">
    <path d="M 70.2 353.106 
L 70.2 237.276 
" style="fill: none; stroke: #000000; stroke-width: 0.8; stroke-linejoin: miter; stroke-linecap: square"/>
   </g>
   <g id="patch_11">
    <path d="M 505.44 353.106 
L 505.44 237.276 
" style="fill: none; stroke: #000000; stroke-width: 0.8; stroke-linejoin: miter; stroke-linecap: square"/>
   </g>
   <g id="patch_12">
    <path d="M 70.2 353.106 
L 505.44 353.106 
" style="fill: none; stroke: #000000; stroke-width: 0.8; stroke-linejoin: miter; stroke-linecap: square"/>
   </g>
   <g id="patch_13">
    <path d="M 70.2 237.276 
L 505.44 237.276 
" style="fill: none; stroke: #000000; stroke-width: 0.8; stroke-linejoin: miter; stroke-linecap: square"/>
   </g>
   <g id="text_29">
    <!-- Panel B: pair-diff with significance dots -->
    <g transform="translate(171.554063 231.276) scale(0.12 -0.12)">
     <defs>
      <path id="DejaVuSans-42" d="M 1259 2228 
L 1259 519 
L 2272 519 
Q 2781 519 3026 730 
Q 3272 941 3272 1375 
Q 3272 1813 3026 2020 
Q 2781 2228 2272 2228 
L 1259 2228 
z
M 1259 4147 
L 1259 2741 
L 2194 2741 
Q 2656 2741 2882 2914 
Q 3109 3088 3109 3444 
Q 3109 3797 2882 3972 
Q 2656 4147 2194 4147 
L 1259 4147 
z
M 628 4666 
L 2241 4666 
Q 2963 4666 3353 4366 
Q 3744 4066 3744 3513 
Q 3744 3084 3544 2831 
Q 3344 2578 2956 2516 
Q 3422 2416 3680 2098 
Q 3938 1781 3938 1306 
Q 3938 681 3513 340 
Q 3088 0 2303 0 
L 628 0 
L 628 4666 
z
" transform="scale(0.015625)"/>
      <path id="DejaVuSans-70" d="M 1159 525 
L 1159 -1331 
L 581 -1331 
L 581 3500 
L 1159 3500 
L 1159 2969 
Q 1341 3281 1617 3432 
Q 1894 3584 2278 3584 
Q 2916 3584 3314 3078 
Q 3713 2572 3713 1747 
Q 3713 922 3314 415 
Q 2916 -91 2278 -91 
Q 1894 -91 1617 61 
Q 1341 213 1159 525 
z
M 3116 1747 
Q 3116 2381 2855 2742 
Q 2594 3103 2138 3103 
Q 1681 3103 1420 2742 
Q 1159 2381 1159 1747 
Q 1159 1113 1420 752 
Q 1681 391 2138 391 
Q 2594 391 2855 752 
Q 3116 1113 3116 1747 
z
" transform="scale(0.015625)"/>
      <path id="DejaVuSans-68" d="M 3513 2113 
L 3513 0 
L 2938 0 
L 2938 2094 
Q 2938 2591 2744 2837 
Q 2550 3084 2163 3084 
Q 1697 3084 1428 2787 
Q 1159 2491 1159 1978 
L 1159 0 
L 581 0 
L 581 4863 
L 1159 4863 
L 1159 2956 
Q 1366 3272 1645 3428 
Q 1925 3584 2291 3584 
Q 2894 3584 3203 3211 
Q 3513 2838 3513 2113 
z
" transform="scale(0.015625)"/>
      <path id="DejaVuSans-67" d="M 2906 1791 
Q 2906 2416 2648 2759 
Q 2391 3103 1925 3103 
Q 1463 3103 1205 2759 
Q 947 2416 947 1791 
Q 947 1169 1205 825 
Q 1463 481 1925 481 
Q 2391 481 2648 825 
Q 2906 1169 2906 1791 
z
M 3481 434 
Q 3481 -459 3084 -895 
Q 2688 -1331 1869 -1331 
Q 1566 -1331 1297 -1286 
Q 1028 -1241 775 -1147 
L 775 -588 
Q 1028 -725 1275 -790 
Q 1522 -856 1778 -856 
Q 2344 -856 2625 -561 
Q 2906 -266 2906 331 
L 2906 616 
Q 2728 306 2450 153 
Q 2172 0 1784 0 
Q 1141 0 747 490 
Q 353 981 353 1791 
Q 353 2603 747 3093 
Q 1141 3584 1784 3584 
Q 2172 3584 2450 3431 
Q 2728 3278 2906 2969 
L 2906 3500 
L 3481 3500 
L 3481 434 
z
" transform="scale(0.015625)"/>
      <path id="DejaVuSans-63" d="M 3122 3366 
L 3122 2828 
Q 2878 2963 2633 3030 
Q 2388 3097 2138 3097 
Q 1578 3097 1268 2742 
Q 959 2388 959 1747 
Q 959 1106 1268 751 
Q 1578 397 2138 397 
Q 2388 397 2633 464 
Q 2878 531 3122 666 
L 3122 134 
Q 2881 22 2623 -34 
Q 2366 -91 2075 -91 
Q 1284 -91 818 406 
Q 353 903 353 1747 
Q 353 2603 823 3093 
Q 1294 3584 2113 3584 
Q 2378 3584 2631 3529 
Q 2884 3475 3122 3366 
z
" transform="scale(0.015625)"/>
     </defs>
     <use xlink:href="#DejaVuSans-50"/>
     <use xlink:href="#DejaVuSans-61" transform="translate(55.802734 0)"/>
     <use xlink:href="#DejaVuSans-6e" transform="translate(117.082031 0)"/>
     <use xlink:href="#DejaVuSans-65" transform="translate(180.460938 0)"/>
     <use xlink:href="#DejaVuSans-6c" transform="translate(241.984375 0)"/>
     <use xlink:href="#DejaVuSans-20" transform="translate(269.767578 0)"/>
     <use xlink:href="#DejaVuSans-42" transform="translate(301.554688 0)"/>
     <use xlink:href="#DejaVuSans-3a" transform="translate(370.158203 0)"/>
     <use xlink:href="#DejaVuSans-20" transform="translate(403.849609 0)"/>
     <use xlink:href="#DejaVuSans-70" transform="translate(435.636719 0)"/>
     <use xlink:href="#DejaVuSans-61" transform="translate(499.113281 0)"/>
     <use xlink:href="#DejaVuSans-69" transform="translate(560.392578 0)"/>
     <use xlink:href="#DejaVuSans-72" transform="translate(588.175781 0)"/>
     <use xlink:href="#DejaVuSans-2d" transform="translate(622.914062 0)"/>
     <use xlink:href="#DejaVuSans-64" transform="translate(658.998047 0)"/>
     <use xlink:href="#DejaVuSans-69" transform="translate(722.474609 0)"/>
     <use xlink:href="#DejaVuSans-66" transform="translate(750.257812 0)"/>
     <use xlink:href="#DejaVuSans-66" transform="translate(785.462891 0)"/>
     <use xlink:href="#DejaVuSans-20" transform="translate(820.667969 0)"/>
     <use xlink:href="#DejaVuSans-77" transform="translate(852.455078 0)"/>
     <use xlink:href="#DejaVuSans-69" transform="translate(934.242188 0)"/>
     <use xlink:href="#DejaVuSans-74" transform="translate(962.025391 0)"/>
     <use xlink:href="#DejaVuSans-68" transform="translate(1001.234375 0)"/>
     <use xlink:href="#DejaVuSans-20" transform="translate(1064.613281 0)"/>
     <use xlink:href="#DejaVuSans-73" transform="translate(1096.400391 0)"/>
     <use xlink:href="#DejaVuSans-69" transform="translate(1148.5 0)"/>
     <use xlink:href="#DejaVuSans-67" transform="translate(1176.283203 0)"/>
     <use xlink:href="#DejaVuSans-6e" transform="translate(1239.759766 0)"/>
     <use xlink:href="#DejaVuSans-69" transform="translate(1303.138672 0)"/>
     <use xlink:href="#DejaVuSans-66" transform="translate(1330.921875 0)"/>
     <use xlink:href="#DejaVuSans-69" transform="translate(1366.126953 0)"/>
     <use xlink:href="#DejaVuSans-63" transform="translate(1393.910156 0)"/>
     <use xlink:href="#DejaVuSans-61" transform="translate(1448.890625 0)"/>
     <use xlink:href="#DejaVuSans-6e" transform="translate(1510.169922 0)"/>
     <use xlink:href="#DejaVuSans-63" transform="translate(1573.548828 0)"/>
     <use xlink:href="#DejaVuSans-65" transform="translate(1628.529297 0)"/>
     <use xlink:href="#DejaVuSans-20" transform="translate(1690.052734 0)"/>
     <use xlink:href="#DejaVuSans-64" transform="translate(1721.839844 0)"/>
     <use xlink:href="#DejaVuSans-6f" transform="translate(1785.316406 0)"/>
     <use xlink:href="#DejaVuSans-74" transform="translate(1846.498047 0)"/>
     <use xlink:href="#DejaVuSans-73" transform="translate(1885.707031 0)"/>
    </g>
   </g>
   <g id="legend_2">
    <g id="line2d_33">
     <path d="M 79.2 250.374437 
L 89.2 250.374437 
L 99.2 250.374437 
" style="fill: none; stroke: #d62728; stroke-width: 2.2; stroke-linecap: square"/>
    </g>
    <g id="text_30">
     <!-- (A→B − B→A) -->
     <g transform="translate(107.2 253.874437) scale(0.1 -0.1)">
      <use xlink:href="#DejaVuSans-28"/>
      <use xlink:href="#DejaVuSans-41" transform="translate(39.013672 0)"/>
      <use xlink:href="#DejaVuSans-2192" transform="translate(107.421875 0)"/>
      <use xlink:href="#DejaVuSans-42" transform="translate(191.210938 0)"/>
      <use xlink:href="#DejaVuSans-20" transform="translate(259.814453 0)"/>
      <use xlink:href="#DejaVuSans-2212" transform="translate(291.601562 0)"/>
      <use xlink:href="#DejaVuSans-20" transform="translate(375.390625 0)"/>
      <use xlink:href="#DejaVuSans-42" transform="translate(407.177734 0)"/>
      <use xlink:href="#DejaVuSans-2192" transform="translate(475.78125 0)"/>
      <use xlink:href="#DejaVuSans-41" transform="translate(559.570312 0)"/>
      <use xlink:href="#DejaVuSans-29" transform="translate(627.978516 0)"/>
     </g>
    </g>
    <g id="line2d_34">
     <g>
      <use xlink:href="#m9bcfa14a9a" x="89.2" y="265.052563" style="stroke: #000000"/>
     </g>
    </g>
    <g id="text_31">
     <!-- p&lt;0.05 (one-sided) -->
     <g transform="translate(107.2 268.552563) scale(0.1 -0.1)">
      <defs>
       <path id="DejaVuSans-3c" d="M 4684 3150 
L 1459 2003 
L 4684 863 
L 4684 294 
L 678 1747 
L 678 2266 
L 4684 3719 
L 4684 3150 
z
" transform="scale(0.015625)"/>
       <path id="DejaVuSans-2e" d="M 684 794 
L 1344 794 
L 1344 0 
L 684 0 
L 684 794 
z
" transform="scale(0.015625)"/>
      </defs>
      <use xlink:href="#DejaVuSans-70"/>
      <use xlink:href="#DejaVuSans-3c" transform="translate(63.476562 0)"/>
      <use xlink:href="#DejaVuSans-30" transform="translate(147.265625 0)"/>
      <use xlink:href="#DejaVuSans-2e" transform="translate(210.888672 0)"/>
      <use xlink:href="#DejaVuSans-30" transform="translate(242.675781 0)"/>
      <use xlink:href="#DejaVuSans-35" transform="translate(306.298828 0)"/>
      <use xlink:href="#DejaVuSans-20" transform="translate(369.921875 0)"/>
      <use xlink:href="#DejaVuSans-28" transform="translate(401.708984 0)"/>
      <use xlink:href="#DejaVuSans-6f" transform="translate(440.722656 0)"/>
      <use xlink:href="#DejaVuSans-6e" transform="translate(501.904297 0)"/>
      <use xlink:href="#DejaVuSans-65" transform="translate(565.283203 0)"/>
      <use xlink:href="#DejaVuSans-2d" transform="translate(626.806641 0)"/>
      <use xlink:href="#DejaVuSans-73" transform="translate(662.890625 0)"/>
      <use xlink:href="#DejaVuSans-69" transform="translate(714.990234 0)"/>
      <use xlink:href="#DejaVuSans-64" transform="translate(742.773438 0)"/>
      <use xlink:href="#DejaVuSans-65" transform="translate(806.25 0)"/>
      <use xlink:href="#DejaVuSans-64" transform="translate(867.773438 0)"/>
      <use xlink:href="#DejaVuSans-29" transform="translate(931.25 0)"/>
     </g>
    </g>
   </g>
  </g>
  <g id="axes_3">
   <g id="patch_14">
    <path d="M 70.2 499.824 
L 505.44 499.824 
L 505.44 383.994 
L 70.2 383.994 
z
" style="fill: #ffffff"/>
   </g>
   <g id="matplotlib.axis_5">
    <g id="xtick_13">
     <g id="line2d_35">
      <g>
       <use xlink:href="#mb074c24dad" x="87.985286" y="499.824" style="stroke: #000000; stroke-width: 0.8"/>
      </g>
     </g>
     <g id="text_32">
      <!-- −200 -->
      <g transform="translate(74.251693 514.422438) scale(0.1 -0.1)">
       <use xlink:href="#DejaVuSans-2212"/>
       <use xlink:href="#DejaVuSans-32" transform="translate(83.789062 0)"/>
       <use xlink:href="#DejaVuSans-30" transform="translate(147.412109 0)"/>
       <use xlink:href="#DejaVuSans-30" transform="translate(211.035156 0)"/>
      </g>
     </g>
    </g>
    <g id="xtick_14">
     <g id="line2d_36">
      <g>
       <use xlink:href="#mb074c24dad" x="167.91917" y="499.824" style="stroke: #000000; stroke-width: 0.8"/>
      </g>
     </g>
     <g id="text_33">
      <!-- 0 -->
      <g transform="translate(164.73792 514.422438) scale(0.1 -0.1)">
       <use xlink:href="#DejaVuSans-30"/>
      </g>
     </g>
    </g>
    <g id="xtick_15">
     <g id="line2d_37">
      <g>
       <use xlink:href="#mb074c24dad" x="247.853053" y="499.824" style="stroke: #000000; stroke-width: 0.8"/>
      </g>
     </g>
     <g id="text_34">
      <!-- 200 -->
      <g transform="translate(238.309303 514.422438) scale(0.1 -0.1)">
       <use xlink:href="#DejaVuSans-32"/>
       <use xlink:href="#DejaVuSans-30" transform="translate(63.623047 0)"/>
       <use xlink:href="#DejaVuSans-30" transform="translate(127.246094 0)"/>
      </g>
     </g>
    </g>
    <g id="xtick_16">
     <g id="line2d_38">
      <g>
       <use xlink:href="#mb074c24dad" x="327.786937" y="499.824" style="stroke: #000000; stroke-width: 0.8"/>
      </g>
     </g>
     <g id="text_35">
      <!-- 400 -->
      <g transform="translate(318.243187 514.422438) scale(0.1 -0.1)">
       <use xlink:href="#DejaVuSans-34"/>
       <use xlink:href="#DejaVuSans-30" transform="translate(63.623047 0)"/>
       <use xlink:href="#DejaVuSans-30" transform="translate(127.246094 0)"/>
      </g>
     </g>
    </g>
    <g id="xtick_17">
     <g id="line2d_39">
      <g>
       <use xlink:href="#mb074c24dad" x="407.720821" y="499.824" style="stroke: #000000; stroke-width: 0.8"/>
      </g>
     </g>
     <g id="text_36">
      <!-- 600 -->
      <g transform="translate(398.177071 514.422438) scale(0.1 -0.1)">
       <use xlink:href="#DejaVuSans-36"/>
       <use xlink:href="#DejaVuSans-30" transform="translate(63.623047 0)"/>
       <use xlink:href="#DejaVuSans-30" transform="translate(127.246094 0)"/>
      </g>
     </g>
    </g>
    <g id="xtick_18">
     <g id="line2d_40">
      <g>
       <use xlink:href="#mb074c24dad" x="487.654704" y="499.824" style="stroke: #000000; stroke-width: 0.8"/>
      </g>
     </g>
     <g id="text_37">
      <!-- 800 -->
      <g transform="translate(478.110954 514.422438) scale(0.1 -0.1)">
       <use xlink:href="#DejaVuSans-38"/>
       <use xlink:href="#DejaVuSans-30" transform="translate(63.623047 0)"/>
       <use xlink:href="#DejaVuSans-30" transform="translate(127.246094 0)"/>
      </g>
     </g>
    </g>
    <g id="text_38">
     <!-- Time (ms) -->
     <g transform="translate(262.620781 528.100563) scale(0.1 -0.1)">
      <defs>
       <path id="DejaVuSans-54" d="M -19 4666 
L 3928 4666 
L 3928 4134 
L 2272 4134 
L 2272 0 
L 1638 0 
L 1638 4134 
L -19 4134 
L -19 4666 
z
" transform="scale(0.015625)"/>
       <path id="DejaVuSans-6d" d="M 3328 2828 
Q 3544 3216 3844 3400 
Q 4144 3584 4550 3584 
Q 5097 3584 5394 3201 
Q 5691 2819 5691 2113 
L 5691 0 
L 5113 0 
L 5113 2094 
Q 5113 2597 4934 2840 
Q 4756 3084 4391 3084 
Q 3944 3084 3684 2787 
Q 3425 2491 3425 1978 
L 3425 0 
L 2847 0 
L 2847 2094 
Q 2847 2600 2669 2842 
Q 2491 3084 2119 3084 
Q 1678 3084 1418 2786 
Q 1159 2488 1159 1978 
L 1159 0 
L 581 0 
L 581 3500 
L 1159 3500 
L 1159 2956 
Q 1356 3278 1631 3431 
Q 1906 3584 2284 3584 
Q 2666 3584 2933 3390 
Q 3200 3197 3328 2828 
z
" transform="scale(0.015625)"/>
      </defs>
      <use xlink:href="#DejaVuSans-54"/>
      <use xlink:href="#DejaVuSans-69" transform="translate(57.958984 0)"/>
      <use xlink:href="#DejaVuSans-6d" transform="translate(85.742188 0)"/>
      <use xlink:href="#DejaVuSans-65" transform="translate(183.154297 0)"/>
      <use xlink:href="#DejaVuSans-20" transform="translate(244.677734 0)"/>
      <use xlink:href="#DejaVuSans-28" transform="translate(276.464844 0)"/>
      <use xlink:href="#DejaVuSans-6d" transform="translate(315.478516 0)"/>
      <use xlink:href="#DejaVuSans-73" transform="translate(412.890625 0)"/>
      <use xlink:href="#DejaVuSans-29" transform="translate(464.990234 0)"/>
     </g>
    </g>
   </g>
   <g id="matplotlib.axis_6">
    <g id="ytick_10">
     <g id="line2d_41">
      <g>
       <use xlink:href="#mfcde9ebe60" x="70.2" y="489.957644" style="stroke: #000000; stroke-width: 0.8"/>
      </g>
     </g>
     <g id="text_39">
      <!-- −2 -->
      <g transform="translate(48.457813 493.756863) scale(0.1 -0.1)">
       <use xlink:href="#DejaVuSans-2212"/>
       <use xlink:href="#DejaVuSans-32" transform="translate(83.789062 0)"/>
      </g>
     </g>
    </g>
    <g id="ytick_11">
     <g id="line2d_42">
      <g>
       <use xlink:href="#mfcde9ebe60" x="70.2" y="455.530413" style="stroke: #000000; stroke-width: 0.8"/>
      </g>
     </g>
     <g id="text_40">
      <!-- 0 -->
      <g transform="translate(56.8375 459.329632) scale(0.1 -0.1)">
       <use xlink:href="#DejaVuSans-30"/>
      </g>
     </g>
    </g>
    <g id="ytick_12">
     <g id="line2d_43">
      <g>
       <use xlink:href="#mfcde9ebe60" x="70.2" y="421.103182" style="stroke: #000000; stroke-width: 0.8"/>
      </g>
     </g>
     <g id="text_41">
      <!-- 2 -->
      <g transform="translate(56.8375 424.902401) scale(0.1 -0.1)">
       <use xlink:href="#DejaVuSans-32"/>
      </g>
     </g>
    </g>
    <g id="ytick_13">
     <g id="line2d_44">
      <g>
       <use xlink:href="#mfcde9ebe60" x="70.2" y="386.675951" style="stroke: #000000; stroke-width: 0.8"/>
      </g>
     </g>
     <g id="text_42">
      <!-- 4 -->
      <g transform="translate(56.8375 390.47517) scale(0.1 -0.1)">
       <use xlink:href="#DejaVuSans-34"/>
      </g>
     </g>
    </g>
    <g id="text_43">
     <!-- Z (σ from null) -->
     <g transform="translate(42.378125 477.919938) rotate(-90) scale(0.1 -0.1)">
      <defs>
       <path id="DejaVuSans-5a" d="M 359 4666 
L 4025 4666 
L 4025 4184 
L 1075 531 
L 4097 531 
L 4097 0 
L 288 0 
L 288 481 
L 3238 4134 
L 359 4134 
L 359 4666 
z
" transform="scale(0.015625)"/>
      </defs>
      <use xlink:href="#DejaVuSans-5a"/>
      <use xlink:href="#DejaVuSans-20" transform="translate(68.505859 0)"/>
      <use xlink:href="#DejaVuSans-28" transform="translate(100.292969 0)"/>
      <use xlink:href="#DejaVuSans-3c3" transform="translate(139.306641 0)"/>
      <use xlink:href="#DejaVuSans-20" transform="translate(202.685547 0)"/>
      <use xlink:href="#DejaVuSans-66" transform="translate(234.472656 0)"/>
      <use xlink:href="#DejaVuSans-72" transform="translate(269.677734 0)"/>
      <use xlink:href="#DejaVuSans-6f" transform="translate(308.541016 0)"/>
      <use xlink:href="#DejaVuSans-6d" transform="translate(369.722656 0)"/>
      <use xlink:href="#DejaVuSans-20" transform="translate(467.134766 0)"/>
      <use xlink:href="#DejaVuSans-6e" transform="translate(498.921875 0)"/>
      <use xlink:href="#DejaVuSans-75" transform="translate(562.300781 0)"/>
      <use xlink:href="#DejaVuSans-6c" transform="translate(625.679688 0)"/>
      <use xlink:href="#DejaVuSans-6c" transform="translate(653.462891 0)"/>
      <use xlink:href="#DejaVuSans-29" transform="translate(681.246094 0)"/>
     </g>
    </g>
   </g>
   <g id="line2d_45">
    <path d="M 167.91917 499.824 
L 167.91917 383.994 
" clip-path="url(#p5ccbb5dcfc)" style="fill: none; stroke-dasharray: 2.96,1.28; stroke-dashoffset: 0; stroke: #000000; stroke-width: 0.8"/>
   </g>
   <g id="line2d_46">
    <path d="M 89.983636 475.843091 
L 93.980327 483.243599 
L 97.977023 452.492263 
L 101.973713 457.76751 
L 105.97041 455.640021 
L 109.967106 447.635025 
L 113.963796 467.429206 
L 117.960493 431.746098 
L 121.957186 454.266531 
L 125.953882 439.42011 
L 129.950576 421.917039 
L 133.947269 494.00675 
L 137.943962 473.726727 
L 141.940659 475.11645 
L 145.937352 474.720359 
L 149.934045 449.448722 
L 153.93074 468.136154 
L 157.927434 448.586394 
L 161.924129 448.540081 
L 165.920823 493.344075 
L 169.917517 463.805375 
L 173.914211 434.36351 
L 177.910906 459.826688 
L 181.9076 421.824953 
L 185.904294 478.211186 
L 189.900988 451.230535 
L 193.897681 433.066233 
L 197.894377 440.688805 
L 201.891071 465.990081 
L 205.887764 398.32794 
L 209.884457 402.449745 
L 213.881154 457.384514 
L 217.877847 476.533278 
L 221.874543 444.292709 
L 225.871234 425.654575 
L 229.86793 447.564732 
L 233.864626 425.418456 
L 237.861317 407.106776 
L 241.858013 462.238936 
L 245.854704 454.38978 
L 249.8514 468.598824 
L 253.848096 466.159535 
L 257.844787 467.52737 
L 261.841483 460.269644 
L 265.838179 440.370335 
L 269.83487 443.233782 
L 273.83156 441.039965 
L 277.828262 448.360495 
L 281.824953 466.139528 
L 285.821643 452.689255 
L 289.818345 431.105687 
L 293.815036 446.91322 
L 297.811726 448.499079 
L 301.808428 450.909132 
L 305.805119 448.3764 
L 309.801809 419.903802 
L 313.798511 423.904598 
L 317.795202 440.20675 
L 321.791892 431.30263 
L 325.788594 456.842467 
L 329.785285 436.961141 
L 333.781975 452.707188 
L 337.778677 466.62593 
L 341.775368 427.796005 
L 345.772058 456.995345 
L 349.76876 430.140107 
L 353.765451 464.731691 
L 357.762141 466.19513 
L 361.758843 410.60038 
L 365.755534 444.114055 
L 369.752224 460.920395 
L 373.748914 475.152893 
L 377.745605 426.979899 
L 381.742319 484.59239 
L 385.739009 459.650616 
L 389.7357 444.135826 
L 393.73239 451.313296 
L 397.72908 389.259 
L 401.725771 459.309793 
L 405.722485 455.669004 
L 409.719175 426.34335 
L 413.715866 444.441586 
L 417.712556 454.035673 
L 421.709246 444.19288 
L 425.705937 452.407012 
L 429.702627 437.31969 
L 433.699341 466.472776 
L 437.696032 403.302356 
L 441.692722 433.982154 
L 445.689412 446.894166 
L 449.686103 430.559314 
L 453.682793 439.924914 
L 457.679507 472.050689 
L 461.676198 440.989452 
L 465.672888 450.141299 
L 469.669578 451.485338 
L 473.666269 430.891981 
L 477.662959 477.3206 
L 481.659673 445.505955 
L 485.656364 465.431687 
" clip-path="url(#p5ccbb5dcfc)" style="fill: none; stroke: #1f77b4; stroke-width: 2; stroke-linecap: square"/>
   </g>
   <g id="line2d_47">
    <path d="M 89.983636 453.062789 
L 93.980327 481.462964 
L 97.977023 443.804104 
L 101.973713 475.915109 
L 105.97041 456.301744 
L 109.967106 434.433699 
L 113.963796 466.982893 
L 117.960493 453.731991 
L 121.957186 445.039566 
L 125.953882 448.492027 
L 129.950576 465.442144 
L 133.947269 419.036043 
L 137.943962 444.114109 
L 141.940659 454.111881 
L 145.937352 453.920497 
L 149.934045 432.195153 
L 153.93074 469.676006 
L 157.927434 471.803206 
L 161.924129 461.206131 
L 165.920823 463.317928 
L 169.917517 473.05367 
L 173.914211 464.79278 
L 177.910906 494.559 
L 181.9076 469.437828 
L 185.904294 439.805026 
L 189.900988 456.811804 
L 193.897681 457.513495 
L 197.894377 463.947373 
L 201.891071 458.115117 
L 205.887764 443.854717 
L 209.884457 455.301173 
L 213.881154 445.010337 
L 217.877847 423.220447 
L 221.874543 414.940097 
L 225.871234 445.71063 
L 229.86793 474.066295 
L 233.864626 429.567114 
L 237.861317 456.645301 
L 241.858013 433.024111 
L 245.854704 441.782712 
L 249.8514 480.721052 
L 253.848096 396.833808 
L 257.844787 443.497969 
L 261.841483 471.721195 
L 265.838179 457.235791 
L 269.83487 443.940632 
L 273.83156 444.571125 
L 277.828262 457.025007 
L 281.824953 443.104899 
L 285.821643 447.397745 
L 289.818345 473.144352 
L 293.815036 455.078034 
L 297.811726 473.773319 
L 301.808428 448.192255 
L 305.805119 401.261993 
L 309.801809 441.490502 
L 313.798511 458.339081 
L 317.795202 468.792526 
L 321.791892 459.594606 
L 325.788594 446.747472 
L 329.785285 443.807585 
L 333.781975 439.650644 
L 337.778677 457.115237 
L 341.775368 467.330137 
L 345.772058 413.679871 
L 349.76876 456.433573 
L 353.765451 451.904248 
L 357.762141 482.490353 
L 361.758843 462.951853 
L 365.755534 445.22731 
L 369.752224 426.788441 
L 373.748914 448.617483 
L 377.745605 447.729481 
L 381.742319 459.472377 
L 385.739009 429.511094 
L 389.7357 467.361551 
L 393.73239 452.576821 
L 397.72908 453.136583 
L 401.725771 463.752101 
L 405.722485 474.066714 
L 409.719175 450.606177 
L 413.715866 456.9775 
L 417.712556 465.693298 
L 421.709246 448.112631 
L 425.705937 459.307608 
L 429.702627 443.832011 
L 433.699341 457.818761 
L 437.696032 467.099564 
L 441.692722 463.388572 
L 445.689412 432.01221 
L 449.686103 444.463298 
L 453.682793 427.211432 
L 457.679507 461.918026 
L 461.676198 477.586658 
L 465.672888 472.271156 
L 469.669578 464.196243 
L 473.666269 458.445235 
L 477.662959 467.462709 
L 481.659673 457.39849 
L 485.656364 470.749895 
" clip-path="url(#p5ccbb5dcfc)" style="fill: none; stroke: #ff7f0e; stroke-width: 2; stroke-linecap: square"/>
   </g>
   <g id="patch_15">
    <path d="M 70.2 499.824 
L 70.2 383.994 
" style="fill: none; stroke: #000000; stroke-width: 0.8; stroke-linejoin: miter; stroke-linecap: square"/>
   </g>
   <g id="patch_16">
    <path d="M 505.44 499.824 
L 505.44 383.994 
" style="fill: none; stroke: #000000; stroke-width: 0.8; stroke-linejoin: miter; stroke-linecap: square"/>
   </g>
   <g id="patch_17">
    <path d="M 70.2 499.824 
L 505.44 499.824 
" style="fill: none; stroke: #000000; stroke-width: 0.8; stroke-linejoin: miter; stroke-linecap: square"/>
   </g>
   <g id="patch_18">
    <path d="M 70.2 383.994 
L 505.44 383.994 
" style="fill: none; stroke: #000000; stroke-width: 0.8; stroke-linejoin: miter; stroke-linecap: square"/>
   </g>
   <g id="text_44">
    <!-- Panel C: evidence strength vs null -->
    <g transform="translate(185.80125 377.994) scale(0.12 -0.12)">
     <defs>
      <path id="DejaVuSans-43" d="M 4122 4306 
L 4122 3641 
Q 3803 3938 3442 4084 
Q 3081 4231 2675 4231 
Q 1875 4231 1450 3742 
Q 1025 3253 1025 2328 
Q 1025 1406 1450 917 
Q 1875 428 2675 428 
Q 3081 428 3442 575 
Q 3803 722 4122 1019 
L 4122 359 
Q 3791 134 3420 21 
Q 3050 -91 2638 -91 
Q 1578 -91 968 557 
Q 359 1206 359 2328 
Q 359 3453 968 4101 
Q 1578 4750 2638 4750 
Q 3056 4750 3426 4639 
Q 3797 4528 4122 4306 
z
" transform="scale(0.015625)"/>
     </defs>
     <use xlink:href="#DejaVuSans-50"/>
     <use xlink:href="#DejaVuSans-61" transform="translate(55.802734 0)"/>
     <use xlink:href="#DejaVuSans-6e" transform="translate(117.082031 0)"/>
     <use xlink:href="#DejaVuSans-65" transform="translate(180.460938 0)"/>
     <use xlink:href="#DejaVuSans-6c" transform="translate(241.984375 0)"/>
     <use xlink:href="#DejaVuSans-20" transform="translate(269.767578 0)"/>
     <use xlink:href="#DejaVuSans-43" transform="translate(301.554688 0)"/>
     <use xlink:href="#DejaVuSans-3a" transform="translate(371.378906 0)"/>
     <use xlink:href="#DejaVuSans-20" transform="translate(405.070312 0)"/>
     <use xlink:href="#DejaVuSans-65" transform="translate(436.857422 0)"/>
     <use xlink:href="#DejaVuSans-76" transform="translate(498.380859 0)"/>
     <use xlink:href="#DejaVuSans-69" transform="translate(557.560547 0)"/>
     <use xlink:href="#DejaVuSans-64" transform="translate(585.34375 0)"/>
     <use xlink:href="#DejaVuSans-65" transform="translate(648.820312 0)"/>
     <use xlink:href="#DejaVuSans-6e" transform="translate(710.34375 0)"/>
     <use xlink:href="#DejaVuSans-63" transform="translate(773.722656 0)"/>
     <use xlink:href="#DejaVuSans-65" transform="translate(828.703125 0)"/>
     <use xlink:href="#DejaVuSans-20" transform="translate(890.226562 0)"/>
     <use xlink:href="#DejaVuSans-73" transform="translate(922.013672 0)"/>
     <use xlink:href="#DejaVuSans-74" transform="translate(974.113281 0)"/>
     <use xlink:href="#DejaVuSans-72" transform="translate(1013.322266 0)"/>
     <use xlink:href="#DejaVuSans-65" transform="translate(1052.185547 0)"/>
     <use xlink:href="#DejaVuSans-6e" transform="translate(1113.708984 0)"/>
     <use xlink:href="#DejaVuSans-67" transform="translate(1177.087891 0)"/>
     <use xlink:href="#DejaVuSans-74" transform="translate(1240.564453 0)"/>
     <use xlink:href="#DejaVuSans-68" transform="translate(1279.773438 0)"/>
     <use xlink:href="#DejaVuSans-20" transform="translate(1343.152344 0)"/>
     <use xlink:href="#DejaVuSans-76" transform="translate(1374.939453 0)"/>
     <use xlink:href="#DejaVuSans-73" transform="translate(1434.119141 0)"/>
     <use xlink:href="#DejaVuSans-20" transform="translate(1486.21875 0)"/>
     <use xlink:href="#DejaVuSans-6e" transform="translate(1518.005859 0)"/>
     <use xlink:href="#DejaVuSans-75" transform="translate(1581.384766 0)"/>
     <use xlink:href="#DejaVuSans-6c" transform="translate(1644.763672 0)"/>
     <use xlink:href="#DejaVuSans-6c" transform="translate(1672.546875 0)"/>
    </g>
   </g>
   <g id="legend_3">
    <g id="line2d_48">
     <path d="M 79.2 397.092438 
L 89.2 397.092438 
L 99.2 397.092438 
" style="fill: none; stroke: #1f77b4; stroke-width: 2; stroke-linecap: square"/>
    </g>
    <g id="text_45">
     <!-- z(MFEF→MLIP) -->
     <g transform="translate(107.2 400.592438) scale(0.1 -0.1)">
      <defs>
       <path id="DejaVuSans-7a" d="M 353 3500 
L 3084 3500 
L 3084 2975 
L 922 459 
L 3084 459 
L 3084 0 
L 275 0 
L 275 525 
L 2438 3041 
L 353 3041 
L 353 3500 
z
" transform="scale(0.015625)"/>
      </defs>
      <use xlink:href="#DejaVuSans-7a"/>
      <use xlink:href="#DejaVuSans-28" transform="translate(52.490234 0)"/>
      <use xlink:href="#DejaVuSans-4d" transform="translate(91.503906 0)"/>
      <use xlink:href="#DejaVuSans-46" transform="translate(177.783203 0)"/>
      <use xlink:href="#DejaVuSans-45" transform="translate(235.302734 0)"/>
      <use xlink:href="#DejaVuSans-46" transform="translate(298.486328 0)"/>
      <use xlink:href="#DejaVuSans-2192" transform="translate(356.005859 0)"/>
      <use xlink:href="#DejaVuSans-4d" transform="translate(439.794922 0)"/>
      <use xlink:href="#DejaVuSans-4c" transform="translate(526.074219 0)"/>
      <use xlink:href="#DejaVuSans-49" transform="translate(581.787109 0)"/>
      <use xlink:href="#DejaVuSans-50" transform="translate(611.279297 0)"/>
      <use xlink:href="#DejaVuSans-29" transform="translate(671.582031 0)"/>
     </g>
    </g>
    <g id="line2d_49">
     <path d="M 79.2 411.770563 
L 89.2 411.770563 
L 99.2 411.770563 
" style="fill: none; stroke: #ff7f0e; stroke-width: 2; stroke-linecap: square"/>
    </g>
    <g id="text_46">
     <!-- z(MLIP→MFEF) -->
     <g transform="translate(107.2 415.270563) scale(0.1 -0.1)">
      <use xlink:href="#DejaVuSans-7a"/>
      <use xlink:href="#DejaVuSans-28" transform="translate(52.490234 0)"/>
      <use xlink:href="#DejaVuSans-4d" transform="translate(91.503906 0)"/>
      <use xlink:href="#DejaVuSans-4c" transform="translate(177.783203 0)"/>
      <use xlink:href="#DejaVuSans-49" transform="translate(233.496094 0)"/>
      <use xlink:href="#DejaVuSans-50" transform="translate(262.988281 0)"/>
      <use xlink:href="#DejaVuSans-2192" transform="translate(323.291016 0)"/>
      <use xlink:href="#DejaVuSans-4d" transform="translate(407.080078 0)"/>
      <use xlink:href="#DejaVuSans-46" transform="translate(493.359375 0)"/>
      <use xlink:href="#DejaVuSans-45" transform="translate(550.878906 0)"/>
      <use xlink:href="#DejaVuSans-46" transform="translate(614.0625 0)"/>
      <use xlink:href="#DejaVuSans-29" transform="translate(671.582031 0)"/>
     </g>
    </g>
   </g>
  </g>
 </g>
 <defs>
  <clipPath id="p3f08d2c8d0">
   <rect x="70.2" y="67.392" width="435.24" height="138.996"/>
  </clipPath>
  <clipPath id="p078615c66e">
   <rect x="70.2" y="237.276" width="435.24" height="115.83"/>
  </clipPath>
  <clipPath id="p5ccbb5dcfc">
   <rect x="70.2" y="383.994" width="435.24" height="115.83"/>
  </clipPath>
 </defs>
</svg>
