<?xml version="1.0" encoding="utf-8" standalone="no"?>
<!DOCTYPE svg PUBLIC "-//W3C//DTD SVG 1.1//EN"
  "http://www.w3.org/Graphics/SVG/1.1/DTD/svg11.dtd">
<svg xmlns:xlink="http://www.w3.org/1999/xlink" width="619.2pt" height="259.2pt" viewBox="0 0 619.2 259.2" xmlns="http://www.w3.org/2000/svg" version="1.1">
 <metadata>
  <rdf:RDF xmlns:dc="http://purl.org/dc/elements/1.1/" xmlns:cc="http://creativecommons.org/ns#" xmlns:rdf="http://www.w3.org/1999/02/22-rdf-syntax-ns#">
   <cc:Work>
    <dc:type rdf:resource="http://purl.org/dc/dcmitype/StillImage"/>
    <dc:date>2025-10-09T21:00:48.783419</dc:date>
    <dc:format>image/svg+xml</dc:format>
    <dc:creator>
     <cc:Agent>
      <dc:title>Matplotlib v3.10.5, https://matplotlib.org/</dc:title>
     </cc:Agent>
    </dc:creator>
   </cc:Work>
  </rdf:RDF>
 </metadata>
 <defs>
  <style type="text/css">*{stroke-linejoin: round; stroke-linecap: butt}</style>
 </defs>
 <g id="figure_1">
  <g id="patch_1">
   <path d="M 0 259.2 
L 619.2 259.2 
L 619.2 0 
L 0 0 
z
" style="fill: #ffffff"/>
  </g>
  <g id="axes_1">
   <g id="patch_2">
    <path d="M 68.96 217.24 
L 608.4 217.24 
L 608.4 10.8 
L 68.96 10.8 
z
" style="fill: #ffffff"/>
   </g>
   <g id="FillBetweenPolyCollection_1">
    <defs>
     <path id="m1505720a54" d="M 93.48 -93.034374 
L 93.48 -87.47862 
L 104.625455 -88.109171 
L 115.770909 -86.936528 
L 126.916364 -89.494889 
L 138.061818 -87.236667 
L 149.207273 -86.59337 
L 160.352727 -88.788521 
L 171.498182 -87.503419 
L 182.643636 -85.960891 
L 193.789091 -88.023176 
L 204.934545 -83.471633 
L 216.08 -77.24422 
L 227.225455 -76.922396 
L 238.370909 -73.818869 
L 249.516364 -55.036783 
L 260.661818 -58.981335 
L 271.807273 -93.275432 
L 282.952727 -131.329466 
L 294.098182 -155.545934 
L 305.243636 -175.489411 
L 316.389091 -185.61026 
L 327.534545 -161.032476 
L 338.68 -141.485137 
L 349.825455 -125.369134 
L 360.970909 -112.485431 
L 372.116364 -98.294368 
L 383.261818 -94.9758 
L 394.407273 -95.051912 
L 405.552727 -92.864289 
L 416.698182 -85.1426 
L 427.843636 -82.358774 
L 438.989091 -84.075275 
L 450.134545 -89.443046 
L 461.28 -89.886585 
L 472.425455 -87.214553 
L 483.570909 -86.805741 
L 494.716364 -79.358771 
L 505.861818 -78.948018 
L 517.007273 -84.218428 
L 528.152727 -81.595825 
L 539.298182 -82.390119 
L 550.443636 -75.838679 
L 561.589091 -76.567347 
L 572.734545 -74.943514 
L 583.88 -78.968504 
L 583.88 -87.123626 
L 583.88 -87.123626 
L 572.734545 -85.13669 
L 561.589091 -86.506857 
L 550.443636 -88.47226 
L 539.298182 -92.325793 
L 528.152727 -89.248126 
L 517.007273 -88.420143 
L 505.861818 -85.949295 
L 494.716364 -85.320708 
L 483.570909 -90.313192 
L 472.425455 -92.943615 
L 461.28 -96.539712 
L 450.134545 -95.526317 
L 438.989091 -90.685045 
L 427.843636 -89.177872 
L 416.698182 -91.773851 
L 405.552727 -103.808449 
L 394.407273 -105.537527 
L 383.261818 -107.170807 
L 372.116364 -113.089262 
L 360.970909 -139.89536 
L 349.825455 -163.329668 
L 338.68 -188.34734 
L 327.534545 -208.299398 
L 316.389091 -239.016364 
L 305.243636 -226.211861 
L 294.098182 -200.561944 
L 282.952727 -178.852312 
L 271.807273 -152.675645 
L 260.661818 -105.191869 
L 249.516364 -81.78187 
L 238.370909 -94.240819 
L 227.225455 -91.064632 
L 216.08 -86.148836 
L 204.934545 -88.799661 
L 193.789091 -93.883171 
L 182.643636 -91.743596 
L 171.498182 -94.552124 
L 160.352727 -97.373238 
L 149.207273 -94.058493 
L 138.061818 -95.055296 
L 126.916364 -97.010873 
L 115.770909 -91.130998 
L 104.625455 -91.598506 
L 93.48 -93.034374 
z
"/>
    </defs>
    <g clip-path="url(#p2eb3a24d04)">
     <use xlink:href="#m1505720a54" x="0" y="259.2" style="fill: #1f77b4; fill-opacity: 0.2"/>
    </g>
   </g>
   <g id="matplotlib.axis_1">
    <g id="xtick_1">
     <g id="line2d_1">
      <path d="M 73.975455 217.24 
L 73.975455 10.8 
" clip-path="url(#p2eb3a24d04)" style="fill: none; stroke: #b0b0b0; stroke-opacity: 0.15; stroke-width: 0.8; stroke-linecap: square"/>
     </g>
     <g id="line2d_2">
      <defs>
       <path id="m1a30ca79cb" d="M 0 0 
L 0 3.5 
" style="stroke: #000000; stroke-width: 0.8"/>
      </defs>
      <g>
       <use xlink:href="#m1a30ca79cb" x="73.975455" y="217.24" style="stroke: #000000; stroke-width: 0.8"/>
      </g>
     </g>
     <g id="text_1">
      <!-- −200 -->
      <g transform="translate(60.241861 231.838437) scale(0.1 -0.1)">
       <defs>
        <path id="DejaVuSans-2212" d="M 678 2272 
L 4684 2272 
L 4684 1741 
L 678 1741 
L 678 2272 
z
" transform="scale(0.015625)"/>
        <path id="DejaVuSans-32" d="M 1228 531 
L 3431 531 
L 3431 0 
L 469 0 
L 469 531 
Q 828 903 1448 1529 
Q 2069 2156 2228 2338 
Q 2531 2678 2651 2914 
Q 2772 3150 2772 3378 
Q 2772 3750 2511 3984 
Q 2250 4219 1831 4219 
Q 1534 4219 1204 4116 
Q 875 4013 500 3803 
L 500 4441 
Q 881 4594 1212 4672 
Q 1544 4750 1819 4750 
Q 2544 4750 2975 4387 
Q 3406 4025 3406 3419 
Q 3406 3131 3298 2873 
Q 3191 2616 2906 2266 
Q 2828 2175 2409 1742 
Q 1991 1309 1228 531 
z
" transform="scale(0.015625)"/>
        <path id="DejaVuSans-30" d="M 2034 4250 
Q 1547 4250 1301 3770 
Q 1056 3291 1056 2328 
Q 1056 1369 1301 889 
Q 1547 409 2034 409 
Q 2525 409 2770 889 
Q 3016 1369 3016 2328 
Q 3016 3291 2770 3770 
Q 2525 4250 2034 4250 
z
M 2034 4750 
Q 2819 4750 3233 4129 
Q 3647 3509 3647 2328 
Q 3647 1150 3233 529 
Q 2819 -91 2034 -91 
Q 1250 -91 836 529 
Q 422 1150 422 2328 
Q 422 3509 836 4129 
Q 1250 4750 2034 4750 
z
" transform="scale(0.015625)"/>
       </defs>
       <use xlink:href="#DejaVuSans-2212"/>
       <use xlink:href="#DejaVuSans-32" transform="translate(83.789062 0)"/>
       <use xlink:href="#DejaVuSans-30" transform="translate(147.412109 0)"/>
       <use xlink:href="#DejaVuSans-30" transform="translate(211.035156 0)"/>
      </g>
     </g>
    </g>
    <g id="xtick_2">
     <g id="line2d_3">
      <path d="M 185.43 217.24 
L 185.43 10.8 
" clip-path="url(#p2eb3a24d04)" style="fill: none; stroke: #b0b0b0; stroke-opacity: 0.15; stroke-width: 0.8; stroke-linecap: square"/>
     </g>
     <g id="line2d_4">
      <g>
       <use xlink:href="#m1a30ca79cb" x="185.43" y="217.24" style="stroke: #000000; stroke-width: 0.8"/>
      </g>
     </g>
     <g id="text_2">
      <!-- 0 -->
      <g transform="translate(182.24875 231.838437) scale(0.1 -0.1)">
       <use xlink:href="#DejaVuSans-30"/>
      </g>
     </g>
    </g>
    <g id="xtick_3">
     <g id="line2d_5">
      <path d="M 296.884545 217.24 
L 296.884545 10.8 
" clip-path="url(#p2eb3a24d04)" style="fill: none; stroke: #b0b0b0; stroke-opacity: 0.15; stroke-width: 0.8; stroke-linecap: square"/>
     </g>
     <g id="line2d_6">
      <g>
       <use xlink:href="#m1a30ca79cb" x="296.884545" y="217.24" style="stroke: #000000; stroke-width: 0.8"/>
      </g>
     </g>
     <g id="text_3">
      <!-- 200 -->
      <g transform="translate(287.340795 231.838437) scale(0.1 -0.1)">
       <use xlink:href="#DejaVuSans-32"/>
       <use xlink:href="#DejaVuSans-30" transform="translate(63.623047 0)"/>
       <use xlink:href="#DejaVuSans-30" transform="translate(127.246094 0)"/>
      </g>
     </g>
    </g>
    <g id="xtick_4">
     <g id="line2d_7">
      <path d="M 408.339091 217.24 
L 408.339091 10.8 
" clip-path="url(#p2eb3a24d04)" style="fill: none; stroke: #b0b0b0; stroke-opacity: 0.15; stroke-width: 0.8; stroke-linecap: square"/>
     </g>
     <g id="line2d_8">
      <g>
       <use xlink:href="#m1a30ca79cb" x="408.339091" y="217.24" style="stroke: #000000; stroke-width: 0.8"/>
      </g>
     </g>
     <g id="text_4">
      <!-- 400 -->
      <g transform="translate(398.795341 231.838437) scale(0.1 -0.1)">
       <defs>
        <path id="DejaVuSans-34" d="M 2419 4116 
L 825 1625 
L 2419 1625 
L 2419 4116 
z
M 2253 4666 
L 3047 4666 
L 3047 1625 
L 3713 1625 
L 3713 1100 
L 3047 1100 
L 3047 0 
L 2419 0 
L 2419 1100 
L 313 1100 
L 313 1709 
L 2253 4666 
z
" transform="scale(0.015625)"/>
       </defs>
       <use xlink:href="#DejaVuSans-34"/>
       <use xlink:href="#DejaVuSans-30" transform="translate(63.623047 0)"/>
       <use xlink:href="#DejaVuSans-30" transform="translate(127.246094 0)"/>
      </g>
     </g>
    </g>
    <g id="xtick_5">
     <g id="line2d_9">
      <path d="M 519.793636 217.24 
L 519.793636 10.8 
" clip-path="url(#p2eb3a24d04)" style="fill: none; stroke: #b0b0b0; stroke-opacity: 0.15; stroke-width: 0.8; stroke-linecap: square"/>
     </g>
     <g id="line2d_10">
      <g>
       <use xlink:href="#m1a30ca79cb" x="519.793636" y="217.24" style="stroke: #000000; stroke-width: 0.8"/>
      </g>
     </g>
     <g id="text_5">
      <!-- 600 -->
      <g transform="translate(510.249886 231.838437) scale(0.1 -0.1)">
       <defs>
        <path id="DejaVuSans-36" d="M 2113 2584 
Q 1688 2584 1439 2293 
Q 1191 2003 1191 1497 
Q 1191 994 1439 701 
Q 1688 409 2113 409 
Q 2538 409 2786 701 
Q 3034 994 3034 1497 
Q 3034 2003 2786 2293 
Q 2538 2584 2113 2584 
z
M 3366 4563 
L 3366 3988 
Q 3128 4100 2886 4159 
Q 2644 4219 2406 4219 
Q 1781 4219 1451 3797 
Q 1122 3375 1075 2522 
Q 1259 2794 1537 2939 
Q 1816 3084 2150 3084 
Q 2853 3084 3261 2657 
Q 3669 2231 3669 1497 
Q 3669 778 3244 343 
Q 2819 -91 2113 -91 
Q 1303 -91 875 529 
Q 447 1150 447 2328 
Q 447 3434 972 4092 
Q 1497 4750 2381 4750 
Q 2619 4750 2861 4703 
Q 3103 4656 3366 4563 
z
" transform="scale(0.015625)"/>
       </defs>
       <use xlink:href="#DejaVuSans-36"/>
       <use xlink:href="#DejaVuSans-30" transform="translate(63.623047 0)"/>
       <use xlink:href="#DejaVuSans-30" transform="translate(127.246094 0)"/>
      </g>
     </g>
    </g>
    <g id="text_6">
     <!-- Time from Stimulus Onset (ms) -->
     <g transform="translate(260.609687 245.516563) scale(0.1 -0.1)">
      <defs>
       <path id="DejaVuSans-54" d="M -19 4666 
L 3928 4666 
L 3928 4134 
L 2272 4134 
L 2272 0 
L 1638 0 
L 1638 4134 
L -19 4134 
L -19 4666 
z
" transform="scale(0.015625)"/>
       <path id="DejaVuSans-69" d="M 603 3500 
L 1178 3500 
L 1178 0 
L 603 0 
L 603 3500 
z
M 603 4863 
L 1178 4863 
L 1178 4134 
L 603 4134 
L 603 4863 
z
" transform="scale(0.015625)"/>
       <path id="DejaVuSans-6d" d="M 3328 2828 
Q 3544 3216 3844 3400 
Q 4144 3584 4550 3584 
Q 5097 3584 5394 3201 
Q 5691 2819 5691 2113 
L 5691 0 
L 5113 0 
L 5113 2094 
Q 5113 2597 4934 2840 
Q 4756 3084 4391 3084 
Q 3944 3084 3684 2787 
Q 3425 2491 3425 1978 
L 3425 0 
L 2847 0 
L 2847 2094 
Q 2847 2600 2669 2842 
Q 2491 3084 2119 3084 
Q 1678 3084 1418 2786 
Q 1159 2488 1159 1978 
L 1159 0 
L 581 0 
L 581 3500 
L 1159 3500 
L 1159 2956 
Q 1356 3278 1631 3431 
Q 1906 3584 2284 3584 
Q 2666 3584 2933 3390 
Q 3200 3197 3328 2828 
z
" transform="scale(0.015625)"/>
       <path id="DejaVuSans-65" d="M 3597 1894 
L 3597 1613 
L 953 1613 
Q 991 1019 1311 708 
Q 1631 397 2203 397 
Q 2534 397 2845 478 
Q 3156 559 3463 722 
L 3463 178 
Q 3153 47 2828 -22 
Q 2503 -91 2169 -91 
Q 1331 -91 842 396 
Q 353 884 353 1716 
Q 353 2575 817 3079 
Q 1281 3584 2069 3584 
Q 2775 3584 3186 3129 
Q 3597 2675 3597 1894 
z
M 3022 2063 
Q 3016 2534 2758 2815 
Q 2500 3097 2075 3097 
Q 1594 3097 1305 2825 
Q 1016 2553 972 2059 
L 3022 2063 
z
" transform="scale(0.015625)"/>
       <path id="DejaVuSans-20" transform="scale(0.015625)"/>
       <path id="DejaVuSans-66" d="M 2375 4863 
L 2375 4384 
L 1825 4384 
Q 1516 4384 1395 4259 
Q 1275 4134 1275 3809 
L 1275 3500 
L 2222 3500 
L 2222 3053 
L 1275 3053 
L 1275 0 
L 697 0 
L 697 3053 
L 147 3053 
L 147 3500 
L 697 3500 
L 697 3744 
Q 697 4328 969 4595 
Q 1241 4863 1831 4863 
L 2375 4863 
z
" transform="scale(0.015625)"/>
       <path id="DejaVuSans-72" d="M 2631 2963 
Q 2534 3019 2420 3045 
Q 2306 3072 2169 3072 
Q 1681 3072 1420 2755 
Q 1159 2438 1159 1844 
L 1159 0 
L 581 0 
L 581 3500 
L 1159 3500 
L 1159 2956 
Q 1341 3275 1631 3429 
Q 1922 3584 2338 3584 
Q 2397 3584 2469 3576 
Q 2541 3569 2628 3553 
L 2631 2963 
z
" transform="scale(0.015625)"/>
       <path id="DejaVuSans-6f" d="M 1959 3097 
Q 1497 3097 1228 2736 
Q 959 2375 959 1747 
Q 959 1119 1226 758 
Q 1494 397 1959 397 
Q 2419 397 2687 759 
Q 2956 1122 2956 1747 
Q 2956 2369 2687 2733 
Q 2419 3097 1959 3097 
z
M 1959 3584 
Q 2709 3584 3137 3096 
Q 3566 2609 3566 1747 
Q 3566 888 3137 398 
Q 2709 -91 1959 -91 
Q 1206 -91 779 398 
Q 353 888 353 1747 
Q 353 2609 779 3096 
Q 1206 3584 1959 3584 
z
" transform="scale(0.015625)"/>
       <path id="DejaVuSans-53" d="M 3425 4513 
L 3425 3897 
Q 3066 4069 2747 4153 
Q 2428 4238 2131 4238 
Q 1616 4238 1336 4038 
Q 1056 3838 1056 3469 
Q 1056 3159 1242 3001 
Q 1428 2844 1947 2747 
L 2328 2669 
Q 3034 2534 3370 2195 
Q 3706 1856 3706 1288 
Q 3706 609 3251 259 
Q 2797 -91 1919 -91 
Q 1588 -91 1214 -16 
Q 841 59 441 206 
L 441 856 
Q 825 641 1194 531 
Q 1563 422 1919 422 
Q 2459 422 2753 634 
Q 3047 847 3047 1241 
Q 3047 1584 2836 1778 
Q 2625 1972 2144 2069 
L 1759 2144 
Q 1053 2284 737 2584 
Q 422 2884 422 3419 
Q 422 4038 858 4394 
Q 1294 4750 2059 4750 
Q 2388 4750 2728 4690 
Q 3069 4631 3425 4513 
z
" transform="scale(0.015625)"/>
       <path id="DejaVuSans-74" d="M 1172 4494 
L 1172 3500 
L 2356 3500 
L 2356 3053 
L 1172 3053 
L 1172 1153 
Q 1172 725 1289 603 
Q 1406 481 1766 481 
L 2356 481 
L 2356 0 
L 1766 0 
Q 1100 0 847 248 
Q 594 497 594 1153 
L 594 3053 
L 172 3053 
L 172 3500 
L 594 3500 
L 594 4494 
L 1172 4494 
z
" transform="scale(0.015625)"/>
       <path id="DejaVuSans-75" d="M 544 1381 
L 544 3500 
L 1119 3500 
L 1119 1403 
Q 1119 906 1312 657 
Q 1506 409 1894 409 
Q 2359 409 2629 706 
Q 2900 1003 2900 1516 
L 2900 3500 
L 3475 3500 
L 3475 0 
L 2900 0 
L 2900 538 
Q 2691 219 2414 64 
Q 2138 -91 1772 -91 
Q 1169 -91 856 284 
Q 544 659 544 1381 
z
M 1991 3584 
L 1991 3584 
z
" transform="scale(0.015625)"/>
       <path id="DejaVuSans-6c" d="M 603 4863 
L 1178 4863 
L 1178 0 
L 603 0 
L 603 4863 
z
" transform="scale(0.015625)"/>
       <path id="DejaVuSans-73" d="M 2834 3397 
L 2834 2853 
Q 2591 2978 2328 3040 
Q 2066 3103 1784 3103 
Q 1356 3103 1142 2972 
Q 928 2841 928 2578 
Q 928 2378 1081 2264 
Q 1234 2150 1697 2047 
L 1894 2003 
Q 2506 1872 2764 1633 
Q 3022 1394 3022 966 
Q 3022 478 2636 193 
Q 2250 -91 1575 -91 
Q 1294 -91 989 -36 
Q 684 19 347 128 
L 347 722 
Q 666 556 975 473 
Q 1284 391 1588 391 
Q 1994 391 2212 530 
Q 2431 669 2431 922 
Q 2431 1156 2273 1281 
Q 2116 1406 1581 1522 
L 1381 1569 
Q 847 1681 609 1914 
Q 372 2147 372 2553 
Q 372 3047 722 3315 
Q 1072 3584 1716 3584 
Q 2034 3584 2315 3537 
Q 2597 3491 2834 3397 
z
" transform="scale(0.015625)"/>
       <path id="DejaVuSans-4f" d="M 2522 4238 
Q 1834 4238 1429 3725 
Q 1025 3213 1025 2328 
Q 1025 1447 1429 934 
Q 1834 422 2522 422 
Q 3209 422 3611 934 
Q 4013 1447 4013 2328 
Q 4013 3213 3611 3725 
Q 3209 4238 2522 4238 
z
M 2522 4750 
Q 3503 4750 4090 4092 
Q 4678 3434 4678 2328 
Q 4678 1225 4090 567 
Q 3503 -91 2522 -91 
Q 1538 -91 948 565 
Q 359 1222 359 2328 
Q 359 3434 948 4092 
Q 1538 4750 2522 4750 
z
" transform="scale(0.015625)"/>
       <path id="DejaVuSans-6e" d="M 3513 2113 
L 3513 0 
L 2938 0 
L 2938 2094 
Q 2938 2591 2744 2837 
Q 2550 3084 2163 3084 
Q 1697 3084 1428 2787 
Q 1159 2491 1159 1978 
L 1159 0 
L 581 0 
L 581 3500 
L 1159 3500 
L 1159 2956 
Q 1366 3272 1645 3428 
Q 1925 3584 2291 3584 
Q 2894 3584 3203 3211 
Q 3513 2838 3513 2113 
z
" transform="scale(0.015625)"/>
       <path id="DejaVuSans-28" d="M 1984 4856 
Q 1566 4138 1362 3434 
Q 1159 2731 1159 2009 
Q 1159 1288 1364 580 
Q 1569 -128 1984 -844 
L 1484 -844 
Q 1016 -109 783 600 
Q 550 1309 550 2009 
Q 550 2706 781 3412 
Q 1013 4119 1484 4856 
L 1984 4856 
z
" transform="scale(0.015625)"/>
       <path id="DejaVuSans-29" d="M 513 4856 
L 1013 4856 
Q 1481 4119 1714 3412 
Q 1947 2706 1947 2009 
Q 1947 1309 1714 600 
Q 1481 -109 1013 -844 
L 513 -844 
Q 928 -128 1133 580 
Q 1338 1288 1338 2009 
Q 1338 2731 1133 3434 
Q 928 4138 513 4856 
z
" transform="scale(0.015625)"/>
      </defs>
      <use xlink:href="#DejaVuSans-54"/>
      <use xlink:href="#DejaVuSans-69" transform="translate(57.958984 0)"/>
      <use xlink:href="#DejaVuSans-6d" transform="translate(85.742188 0)"/>
      <use xlink:href="#DejaVuSans-65" transform="translate(183.154297 0)"/>
      <use xlink:href="#DejaVuSans-20" transform="translate(244.677734 0)"/>
      <use xlink:href="#DejaVuSans-66" transform="translate(276.464844 0)"/>
      <use xlink:href="#DejaVuSans-72" transform="translate(311.669922 0)"/>
      <use xlink:href="#DejaVuSans-6f" transform="translate(350.533203 0)"/>
      <use xlink:href="#DejaVuSans-6d" transform="translate(411.714844 0)"/>
      <use xlink:href="#DejaVuSans-20" transform="translate(509.126953 0)"/>
      <use xlink:href="#DejaVuSans-53" transform="translate(540.914062 0)"/>
      <use xlink:href="#DejaVuSans-74" transform="translate(604.390625 0)"/>
      <use xlink:href="#DejaVuSans-69" transform="translate(643.599609 0)"/>
      <use xlink:href="#DejaVuSans-6d" transform="translate(671.382812 0)"/>
      <use xlink:href="#DejaVuSans-75" transform="translate(768.794922 0)"/>
      <use xlink:href="#DejaVuSans-6c" transform="translate(832.173828 0)"/>
      <use xlink:href="#DejaVuSans-75" transform="translate(859.957031 0)"/>
      <use xlink:href="#DejaVuSans-73" transform="translate(923.335938 0)"/>
      <use xlink:href="#DejaVuSans-20" transform="translate(975.435547 0)"/>
      <use xlink:href="#DejaVuSans-4f" transform="translate(1007.222656 0)"/>
      <use xlink:href="#DejaVuSans-6e" transform="translate(1085.933594 0)"/>
      <use xlink:href="#DejaVuSans-73" transform="translate(1149.3125 0)"/>
      <use xlink:href="#DejaVuSans-65" transform="translate(1201.412109 0)"/>
      <use xlink:href="#DejaVuSans-74" transform="translate(1262.935547 0)"/>
      <use xlink:href="#DejaVuSans-20" transform="translate(1302.144531 0)"/>
      <use xlink:href="#DejaVuSans-28" transform="translate(1333.931641 0)"/>
      <use xlink:href="#DejaVuSans-6d" transform="translate(1372.945312 0)"/>
      <use xlink:href="#DejaVuSans-73" transform="translate(1470.357422 0)"/>
      <use xlink:href="#DejaVuSans-29" transform="translate(1522.457031 0)"/>
     </g>
    </g>
   </g>
   <g id="matplotlib.axis_2">
    <g id="ytick_1">
     <g id="line2d_11">
      <path d="M 68.96 212.928867 
L 608.4 212.928867 
" clip-path="url(#p2eb3a24d04)" style="fill: none; stroke: #b0b0b0; stroke-opacity: 0.15; stroke-width: 0.8; stroke-linecap: square"/>
     </g>
     <g id="line2d_12">
      <defs>
       <path id="m87566e6e55" d="M 0 0 
L -3.5 0 
" style="stroke: #000000; stroke-width: 0.8"/>
      </defs>
      <g>
       <use xlink:href="#m87566e6e55" x="68.96" y="212.928867" style="stroke: #000000; stroke-width: 0.8"/>
      </g>
     </g>
     <g id="text_7">
      <!-- −0.005 -->
      <g transform="translate(24.952188 216.728086) scale(0.1 -0.1)">
       <defs>
        <path id="DejaVuSans-2e" d="M 684 794 
L 1344 794 
L 1344 0 
L 684 0 
L 684 794 
z
" transform="scale(0.015625)"/>
        <path id="DejaVuSans-35" d="M 691 4666 
L 3169 4666 
L 3169 4134 
L 1269 4134 
L 1269 2991 
Q 1406 3038 1543 3061 
Q 1681 3084 1819 3084 
Q 2600 3084 3056 2656 
Q 3513 2228 3513 1497 
Q 3513 744 3044 326 
Q 2575 -91 1722 -91 
Q 1428 -91 1123 -41 
Q 819 9 494 109 
L 494 744 
Q 775 591 1075 516 
Q 1375 441 1709 441 
Q 2250 441 2565 725 
Q 2881 1009 2881 1497 
Q 2881 1984 2565 2268 
Q 2250 2553 1709 2553 
Q 1456 2553 1204 2497 
Q 953 2441 691 2322 
L 691 4666 
z
" transform="scale(0.015625)"/>
       </defs>
       <use xlink:href="#DejaVuSans-2212"/>
       <use xlink:href="#DejaVuSans-30" transform="translate(83.789062 0)"/>
       <use xlink:href="#DejaVuSans-2e" transform="translate(147.412109 0)"/>
       <use xlink:href="#DejaVuSans-30" transform="translate(179.199219 0)"/>
       <use xlink:href="#DejaVuSans-30" transform="translate(242.822266 0)"/>
       <use xlink:href="#DejaVuSans-35" transform="translate(306.445312 0)"/>
      </g>
     </g>
    </g>
    <g id="ytick_2">
     <g id="line2d_13">
      <path d="M 68.96 173.325893 
L 608.4 173.325893 
" clip-path="url(#p2eb3a24d04)" style="fill: none; stroke: #b0b0b0; stroke-opacity: 0.15; stroke-width: 0.8; stroke-linecap: square"/>
     </g>
     <g id="line2d_14">
      <g>
       <use xlink:href="#m87566e6e55" x="68.96" y="173.325893" style="stroke: #000000; stroke-width: 0.8"/>
      </g>
     </g>
     <g id="text_8">
      <!-- 0.000 -->
      <g transform="translate(33.331875 177.125111) scale(0.1 -0.1)">
       <use xlink:href="#DejaVuSans-30"/>
       <use xlink:href="#DejaVuSans-2e" transform="translate(63.623047 0)"/>
       <use xlink:href="#DejaVuSans-30" transform="translate(95.410156 0)"/>
       <use xlink:href="#DejaVuSans-30" transform="translate(159.033203 0)"/>
       <use xlink:href="#DejaVuSans-30" transform="translate(222.65625 0)"/>
      </g>
     </g>
    </g>
    <g id="ytick_3">
     <g id="line2d_15">
      <path d="M 68.96 133.722918 
L 608.4 133.722918 
" clip-path="url(#p2eb3a24d04)" style="fill: none; stroke: #b0b0b0; stroke-opacity: 0.15; stroke-width: 0.8; stroke-linecap: square"/>
     </g>
     <g id="line2d_16">
      <g>
       <use xlink:href="#m87566e6e55" x="68.96" y="133.722918" style="stroke: #000000; stroke-width: 0.8"/>
      </g>
     </g>
     <g id="text_9">
      <!-- 0.005 -->
      <g transform="translate(33.331875 137.522137) scale(0.1 -0.1)">
       <use xlink:href="#DejaVuSans-30"/>
       <use xlink:href="#DejaVuSans-2e" transform="translate(63.623047 0)"/>
       <use xlink:href="#DejaVuSans-30" transform="translate(95.410156 0)"/>
       <use xlink:href="#DejaVuSans-30" transform="translate(159.033203 0)"/>
       <use xlink:href="#DejaVuSans-35" transform="translate(222.65625 0)"/>
      </g>
     </g>
    </g>
    <g id="ytick_4">
     <g id="line2d_17">
      <path d="M 68.96 94.119944 
L 608.4 94.119944 
" clip-path="url(#p2eb3a24d04)" style="fill: none; stroke: #b0b0b0; stroke-opacity: 0.15; stroke-width: 0.8; stroke-linecap: square"/>
     </g>
     <g id="line2d_18">
      <g>
       <use xlink:href="#m87566e6e55" x="68.96" y="94.119944" style="stroke: #000000; stroke-width: 0.8"/>
      </g>
     </g>
     <g id="text_10">
      <!-- 0.010 -->
      <g transform="translate(33.331875 97.919163) scale(0.1 -0.1)">
       <defs>
        <path id="DejaVuSans-31" d="M 794 531 
L 1825 531 
L 1825 4091 
L 703 3866 
L 703 4441 
L 1819 4666 
L 2450 4666 
L 2450 531 
L 3481 531 
L 3481 0 
L 794 0 
L 794 531 
z
" transform="scale(0.015625)"/>
       </defs>
       <use xlink:href="#DejaVuSans-30"/>
       <use xlink:href="#DejaVuSans-2e" transform="translate(63.623047 0)"/>
       <use xlink:href="#DejaVuSans-30" transform="translate(95.410156 0)"/>
       <use xlink:href="#DejaVuSans-31" transform="translate(159.033203 0)"/>
       <use xlink:href="#DejaVuSans-30" transform="translate(222.65625 0)"/>
      </g>
     </g>
    </g>
    <g id="ytick_5">
     <g id="line2d_19">
      <path d="M 68.96 54.51697 
L 608.4 54.51697 
" clip-path="url(#p2eb3a24d04)" style="fill: none; stroke: #b0b0b0; stroke-opacity: 0.15; stroke-width: 0.8; stroke-linecap: square"/>
     </g>
     <g id="line2d_20">
      <g>
       <use xlink:href="#m87566e6e55" x="68.96" y="54.51697" style="stroke: #000000; stroke-width: 0.8"/>
      </g>
     </g>
     <g id="text_11">
      <!-- 0.015 -->
      <g transform="translate(33.331875 58.316188) scale(0.1 -0.1)">
       <use xlink:href="#DejaVuSans-30"/>
       <use xlink:href="#DejaVuSans-2e" transform="translate(63.623047 0)"/>
       <use xlink:href="#DejaVuSans-30" transform="translate(95.410156 0)"/>
       <use xlink:href="#DejaVuSans-31" transform="translate(159.033203 0)"/>
       <use xlink:href="#DejaVuSans-35" transform="translate(222.65625 0)"/>
      </g>
     </g>
    </g>
    <g id="ytick_6">
     <g id="line2d_21">
      <path d="M 68.96 14.913995 
L 608.4 14.913995 
" clip-path="url(#p2eb3a24d04)" style="fill: none; stroke: #b0b0b0; stroke-opacity: 0.15; stroke-width: 0.8; stroke-linecap: square"/>
     </g>
     <g id="line2d_22">
      <g>
       <use xlink:href="#m87566e6e55" x="68.96" y="14.913995" style="stroke: #000000; stroke-width: 0.8"/>
      </g>
     </g>
     <g id="text_12">
      <!-- 0.020 -->
      <g transform="translate(33.331875 18.713214) scale(0.1 -0.1)">
       <use xlink:href="#DejaVuSans-30"/>
       <use xlink:href="#DejaVuSans-2e" transform="translate(63.623047 0)"/>
       <use xlink:href="#DejaVuSans-30" transform="translate(95.410156 0)"/>
       <use xlink:href="#DejaVuSans-32" transform="translate(159.033203 0)"/>
       <use xlink:href="#DejaVuSans-30" transform="translate(222.65625 0)"/>
      </g>
     </g>
    </g>
    <g id="text_13">
     <!-- Category flow difference (bits) -->
     <g transform="translate(18.8725 190.129375) rotate(-90) scale(0.1 -0.1)">
      <defs>
       <path id="DejaVuSans-43" d="M 4122 4306 
L 4122 3641 
Q 3803 3938 3442 4084 
Q 3081 4231 2675 4231 
Q 1875 4231 1450 3742 
Q 1025 3253 1025 2328 
Q 1025 1406 1450 917 
Q 1875 428 2675 428 
Q 3081 428 3442 575 
Q 3803 722 4122 1019 
L 4122 359 
Q 3791 134 3420 21 
Q 3050 -91 2638 -91 
Q 1578 -91 968 557 
Q 359 1206 359 2328 
Q 359 3453 968 4101 
Q 1578 4750 2638 4750 
Q 3056 4750 3426 4639 
Q 3797 4528 4122 4306 
z
" transform="scale(0.015625)"/>
       <path id="DejaVuSans-61" d="M 2194 1759 
Q 1497 1759 1228 1600 
Q 959 1441 959 1056 
Q 959 750 1161 570 
Q 1363 391 1709 391 
Q 2188 391 2477 730 
Q 2766 1069 2766 1631 
L 2766 1759 
L 2194 1759 
z
M 3341 1997 
L 3341 0 
L 2766 0 
L 2766 531 
Q 2569 213 2275 61 
Q 1981 -91 1556 -91 
Q 1019 -91 701 211 
Q 384 513 384 1019 
Q 384 1609 779 1909 
Q 1175 2209 1959 2209 
L 2766 2209 
L 2766 2266 
Q 2766 2663 2505 2880 
Q 2244 3097 1772 3097 
Q 1472 3097 1187 3025 
Q 903 2953 641 2809 
L 641 3341 
Q 956 3463 1253 3523 
Q 1550 3584 1831 3584 
Q 2591 3584 2966 3190 
Q 3341 2797 3341 1997 
z
" transform="scale(0.015625)"/>
       <path id="DejaVuSans-67" d="M 2906 1791 
Q 2906 2416 2648 2759 
Q 2391 3103 1925 3103 
Q 1463 3103 1205 2759 
Q 947 2416 947 1791 
Q 947 1169 1205 825 
Q 1463 481 1925 481 
Q 2391 481 2648 825 
Q 2906 1169 2906 1791 
z
M 3481 434 
Q 3481 -459 3084 -895 
Q 2688 -1331 1869 -1331 
Q 1566 -1331 1297 -1286 
Q 1028 -1241 775 -1147 
L 775 -588 
Q 1028 -725 1275 -790 
Q 1522 -856 1778 -856 
Q 2344 -856 2625 -561 
Q 2906 -266 2906 331 
L 2906 616 
Q 2728 306 2450 153 
Q 2172 0 1784 0 
Q 1141 0 747 490 
Q 353 981 353 1791 
Q 353 2603 747 3093 
Q 1141 3584 1784 3584 
Q 2172 3584 2450 3431 
Q 2728 3278 2906 2969 
L 2906 3500 
L 3481 3500 
L 3481 434 
z
" transform="scale(0.015625)"/>
       <path id="DejaVuSans-79" d="M 2059 -325 
Q 1816 -950 1584 -1140 
Q 1353 -1331 966 -1331 
L 506 -1331 
L 506 -850 
L 844 -850 
Q 1081 -850 1212 -737 
Q 1344 -625 1503 -206 
L 1606 56 
L 191 3500 
L 800 3500 
L 1894 763 
L 2988 3500 
L 3597 3500 
L 2059 -325 
z
" transform="scale(0.015625)"/>
       <path id="DejaVuSans-77" d="M 269 3500 
L 844 3500 
L 1563 769 
L 2278 3500 
L 2956 3500 
L 3675 769 
L 4391 3500 
L 4966 3500 
L 4050 0 
L 3372 0 
L 2619 2869 
L 1863 0 
L 1184 0 
L 269 3500 
z
" transform="scale(0.015625)"/>
       <path id="DejaVuSans-64" d="M 2906 2969 
L 2906 4863 
L 3481 4863 
L 3481 0 
L 2906 0 
L 2906 525 
Q 2725 213 2448 61 
Q 2172 -91 1784 -91 
Q 1150 -91 751 415 
Q 353 922 353 1747 
Q 353 2572 751 3078 
Q 1150 3584 1784 3584 
Q 2172 3584 2448 3432 
Q 2725 3281 2906 2969 
z
M 947 1747 
Q 947 1113 1208 752 
Q 1469 391 1925 391 
Q 2381 391 2643 752 
Q 2906 1113 2906 1747 
Q 2906 2381 2643 2742 
Q 2381 3103 1925 3103 
Q 1469 3103 1208 2742 
Q 947 2381 947 1747 
z
" transform="scale(0.015625)"/>
       <path id="DejaVuSans-63" d="M 3122 3366 
L 3122 2828 
Q 2878 2963 2633 3030 
Q 2388 3097 2138 3097 
Q 1578 3097 1268 2742 
Q 959 2388 959 1747 
Q 959 1106 1268 751 
Q 1578 397 2138 397 
Q 2388 397 2633 464 
Q 2878 531 3122 666 
L 3122 134 
Q 2881 22 2623 -34 
Q 2366 -91 2075 -91 
Q 1284 -91 818 406 
Q 353 903 353 1747 
Q 353 2603 823 3093 
Q 1294 3584 2113 3584 
Q 2378 3584 2631 3529 
Q 2884 3475 3122 3366 
z
" transform="scale(0.015625)"/>
       <path id="DejaVuSans-62" d="M 3116 1747 
Q 3116 2381 2855 2742 
Q 2594 3103 2138 3103 
Q 1681 3103 1420 2742 
Q 1159 2381 1159 1747 
Q 1159 1113 1420 752 
Q 1681 391 2138 391 
Q 2594 391 2855 752 
Q 3116 1113 3116 1747 
z
M 1159 2969 
Q 1341 3281 1617 3432 
Q 1894 3584 2278 3584 
Q 2916 3584 3314 3078 
Q 3713 2572 3713 1747 
Q 3713 922 3314 415 
Q 2916 -91 2278 -91 
Q 1894 -91 1617 61 
Q 1341 213 1159 525 
L 1159 0 
L 581 0 
L 581 4863 
L 1159 4863 
L 1159 2969 
z
" transform="scale(0.015625)"/>
      </defs>
      <use xlink:href="#DejaVuSans-43"/>
      <use xlink:href="#DejaVuSans-61" transform="translate(69.824219 0)"/>
      <use xlink:href="#DejaVuSans-74" transform="translate(131.103516 0)"/>
      <use xlink:href="#DejaVuSans-65" transform="translate(170.3125 0)"/>
      <use xlink:href="#DejaVuSans-67" transform="translate(231.835938 0)"/>
      <use xlink:href="#DejaVuSans-6f" transform="translate(295.3125 0)"/>
      <use xlink:href="#DejaVuSans-72" transform="translate(356.494141 0)"/>
      <use xlink:href="#DejaVuSans-79" transform="translate(397.607422 0)"/>
      <use xlink:href="#DejaVuSans-20" transform="translate(456.787109 0)"/>
      <use xlink:href="#DejaVuSans-66" transform="translate(488.574219 0)"/>
      <use xlink:href="#DejaVuSans-6c" transform="translate(523.779297 0)"/>
      <use xlink:href="#DejaVuSans-6f" transform="translate(551.5625 0)"/>
      <use xlink:href="#DejaVuSans-77" transform="translate(612.744141 0)"/>
      <use xlink:href="#DejaVuSans-20" transform="translate(694.53125 0)"/>
      <use xlink:href="#DejaVuSans-64" transform="translate(726.318359 0)"/>
      <use xlink:href="#DejaVuSans-69" transform="translate(789.794922 0)"/>
      <use xlink:href="#DejaVuSans-66" transform="translate(817.578125 0)"/>
      <use xlink:href="#DejaVuSans-66" transform="translate(852.783203 0)"/>
      <use xlink:href="#DejaVuSans-65" transform="translate(887.988281 0)"/>
      <use xlink:href="#DejaVuSans-72" transform="translate(949.511719 0)"/>
      <use xlink:href="#DejaVuSans-65" transform="translate(988.375 0)"/>
      <use xlink:href="#DejaVuSans-6e" transform="translate(1049.898438 0)"/>
      <use xlink:href="#DejaVuSans-63" transform="translate(1113.277344 0)"/>
      <use xlink:href="#DejaVuSans-65" transform="translate(1168.257812 0)"/>
      <use xlink:href="#DejaVuSans-20" transform="translate(1229.78125 0)"/>
      <use xlink:href="#DejaVuSans-28" transform="translate(1261.568359 0)"/>
      <use xlink:href="#DejaVuSans-62" transform="translate(1300.582031 0)"/>
      <use xlink:href="#DejaVuSans-69" transform="translate(1364.058594 0)"/>
      <use xlink:href="#DejaVuSans-74" transform="translate(1391.841797 0)"/>
      <use xlink:href="#DejaVuSans-73" transform="translate(1431.050781 0)"/>
      <use xlink:href="#DejaVuSans-29" transform="translate(1483.150391 0)"/>
     </g>
    </g>
   </g>
   <g id="line2d_23">
    <path d="M 93.48 168.943503 
L 104.625455 169.346161 
L 115.770909 170.166237 
L 126.916364 165.947119 
L 138.061818 168.054018 
L 149.207273 168.874068 
L 160.352727 166.119121 
L 171.498182 168.172228 
L 182.643636 170.347757 
L 193.789091 168.246827 
L 204.934545 173.064353 
L 216.08 177.503472 
L 227.225455 175.206486 
L 238.370909 175.170156 
L 249.516364 190.790673 
L 260.661818 177.113398 
L 271.807273 136.224461 
L 282.952727 104.109111 
L 294.098182 81.146061 
L 305.243636 58.349364 
L 316.389091 46.886688 
L 327.534545 74.534063 
L 338.68 94.283761 
L 349.825455 114.850599 
L 360.970909 133.009604 
L 372.116364 153.508185 
L 383.261818 158.126696 
L 394.407273 158.905281 
L 405.552727 160.863631 
L 416.698182 170.741775 
L 427.843636 173.431677 
L 438.989091 171.81984 
L 450.134545 166.715318 
L 461.28 165.986852 
L 472.425455 169.120916 
L 483.570909 170.640534 
L 494.716364 176.86026 
L 505.861818 176.751343 
L 517.007273 172.880715 
L 528.152727 173.778025 
L 539.298182 171.842044 
L 550.443636 177.044531 
L 561.589091 177.662898 
L 572.734545 179.159898 
L 583.88 176.153935 
" clip-path="url(#p2eb3a24d04)" style="fill: none; stroke: #1f77b4; stroke-width: 2.4; stroke-linecap: square"/>
   </g>
   <g id="line2d_24">
    <path d="M 93.48 173.219537 
L 104.625455 173.396642 
L 115.770909 173.335321 
L 126.916364 173.15982 
L 138.061818 173.065207 
L 149.207273 173.184701 
L 160.352727 173.12853 
L 171.498182 173.205351 
L 182.643636 173.350473 
L 193.789091 173.158813 
L 204.934545 173.246434 
L 216.08 175.348658 
L 227.225455 181.435243 
L 238.370909 193.929125 
L 249.516364 207.856364 
L 260.661818 206.83775 
L 271.807273 187.687248 
L 282.952727 159.748356 
L 294.098182 135.978924 
L 305.243636 120.411771 
L 316.389091 111.378756 
L 327.534545 123.791221 
L 338.68 136.544844 
L 349.825455 148.007687 
L 360.970909 155.237105 
L 372.116364 163.129302 
L 383.261818 164.685544 
L 394.407273 167.742952 
L 405.552727 167.24095 
L 416.698182 170.564235 
L 427.843636 171.548867 
L 438.989091 172.27829 
L 450.134545 171.920693 
L 461.28 172.001992 
L 472.425455 172.695717 
L 483.570909 172.721005 
L 494.716364 172.994959 
L 505.861818 172.954689 
L 517.007273 173.052975 
L 528.152727 172.995831 
L 539.298182 173.152423 
L 550.443636 173.31491 
L 561.589091 173.279003 
L 572.734545 173.360623 
L 583.88 173.299996 
" clip-path="url(#p2eb3a24d04)" style="fill: none; stroke-dasharray: 5.55,2.4; stroke-dashoffset: 0; stroke: #7f7f7f; stroke-opacity: 0.9; stroke-width: 1.5"/>
   </g>
   <g id="line2d_25">
    <path d="M 185.43 217.24 
L 185.43 10.8 
" clip-path="url(#p2eb3a24d04)" style="fill: none; stroke-dasharray: 3.7,1.6; stroke-dashoffset: 0; stroke: #000000"/>
   </g>
   <g id="line2d_26">
    <path d="M 68.96 173.325893 
L 608.4 173.325893 
" clip-path="url(#p2eb3a24d04)" style="fill: none; stroke-dasharray: 1,1.65; stroke-dashoffset: 0; stroke: #000000"/>
   </g>
   <g id="line2d_27">
    <defs>
     <path id="m4535b7f7b9" d="M 0 1.5 
C 0.397805 1.5 0.77937 1.341951 1.06066 1.06066 
C 1.341951 0.77937 1.5 0.397805 1.5 0 
C 1.5 -0.397805 1.341951 -0.77937 1.06066 -1.06066 
C 0.77937 -1.341951 0.397805 -1.5 0 -1.5 
C -0.397805 -1.5 -0.77937 -1.341951 -1.06066 -1.06066 
C -1.341951 -0.77937 -1.5 -0.397805 -1.5 0 
C -1.5 0.397805 -1.341951 0.77937 -1.06066 1.06066 
C -0.77937 1.341951 -0.397805 1.5 0 1.5 
z
" style="stroke: #000000"/>
    </defs>
    <g clip-path="url(#p2eb3a24d04)">
     <use xlink:href="#m4535b7f7b9" x="93.48" y="197.985873" style="stroke: #000000"/>
     <use xlink:href="#m4535b7f7b9" x="104.625455" y="197.985873" style="stroke: #000000"/>
     <use xlink:href="#m4535b7f7b9" x="126.916364" y="197.985873" style="stroke: #000000"/>
     <use xlink:href="#m4535b7f7b9" x="138.061818" y="197.985873" style="stroke: #000000"/>
     <use xlink:href="#m4535b7f7b9" x="149.207273" y="197.985873" style="stroke: #000000"/>
     <use xlink:href="#m4535b7f7b9" x="160.352727" y="197.985873" style="stroke: #000000"/>
     <use xlink:href="#m4535b7f7b9" x="171.498182" y="197.985873" style="stroke: #000000"/>
     <use xlink:href="#m4535b7f7b9" x="193.789091" y="197.985873" style="stroke: #000000"/>
     <use xlink:href="#m4535b7f7b9" x="227.225455" y="197.985873" style="stroke: #000000"/>
     <use xlink:href="#m4535b7f7b9" x="238.370909" y="197.985873" style="stroke: #000000"/>
     <use xlink:href="#m4535b7f7b9" x="249.516364" y="197.985873" style="stroke: #000000"/>
     <use xlink:href="#m4535b7f7b9" x="260.661818" y="197.985873" style="stroke: #000000"/>
     <use xlink:href="#m4535b7f7b9" x="271.807273" y="197.985873" style="stroke: #000000"/>
     <use xlink:href="#m4535b7f7b9" x="282.952727" y="197.985873" style="stroke: #000000"/>
     <use xlink:href="#m4535b7f7b9" x="294.098182" y="197.985873" style="stroke: #000000"/>
     <use xlink:href="#m4535b7f7b9" x="305.243636" y="197.985873" style="stroke: #000000"/>
     <use xlink:href="#m4535b7f7b9" x="316.389091" y="197.985873" style="stroke: #000000"/>
     <use xlink:href="#m4535b7f7b9" x="327.534545" y="197.985873" style="stroke: #000000"/>
     <use xlink:href="#m4535b7f7b9" x="338.68" y="197.985873" style="stroke: #000000"/>
     <use xlink:href="#m4535b7f7b9" x="349.825455" y="197.985873" style="stroke: #000000"/>
     <use xlink:href="#m4535b7f7b9" x="360.970909" y="197.985873" style="stroke: #000000"/>
     <use xlink:href="#m4535b7f7b9" x="372.116364" y="197.985873" style="stroke: #000000"/>
     <use xlink:href="#m4535b7f7b9" x="394.407273" y="197.985873" style="stroke: #000000"/>
     <use xlink:href="#m4535b7f7b9" x="405.552727" y="197.985873" style="stroke: #000000"/>
     <use xlink:href="#m4535b7f7b9" x="450.134545" y="197.985873" style="stroke: #000000"/>
     <use xlink:href="#m4535b7f7b9" x="461.28" y="197.985873" style="stroke: #000000"/>
    </g>
   </g>
   <g id="patch_3">
    <path d="M 68.96 217.24 
L 68.96 10.8 
" style="fill: none; stroke: #000000; stroke-width: 0.8; stroke-linejoin: miter; stroke-linecap: square"/>
   </g>
   <g id="patch_4">
    <path d="M 608.4 217.24 
L 608.4 10.8 
" style="fill: none; stroke: #000000; stroke-width: 0.8; stroke-linejoin: miter; stroke-linecap: square"/>
   </g>
   <g id="patch_5">
    <path d="M 68.96 217.24 
L 608.4 217.24 
" style="fill: none; stroke: #000000; stroke-width: 0.8; stroke-linejoin: miter; stroke-linecap: square"/>
   </g>
   <g id="patch_6">
    <path d="M 68.96 10.8 
L 608.4 10.8 
" style="fill: none; stroke: #000000; stroke-width: 0.8; stroke-linejoin: miter; stroke-linecap: square"/>
   </g>
   <g id="legend_1">
    <g id="patch_7">
     <path d="M 412.0625 27.398438 
L 432.0625 27.398438 
L 432.0625 20.398438 
L 412.0625 20.398438 
z
" style="fill: #1f77b4; fill-opacity: 0.2"/>
    </g>
    <g id="text_14">
     <!-- mean ± SEM -->
     <g transform="translate(440.0625 27.398438) scale(0.1 -0.1)">
      <defs>
       <path id="DejaVuSans-b1" d="M 2944 4013 
L 2944 2803 
L 4684 2803 
L 4684 2272 
L 2944 2272 
L 2944 1063 
L 2419 1063 
L 2419 2272 
L 678 2272 
L 678 2803 
L 2419 2803 
L 2419 4013 
L 2944 4013 
z
M 678 531 
L 4684 531 
L 4684 0 
L 678 0 
L 678 531 
z
" transform="scale(0.015625)"/>
       <path id="DejaVuSans-45" d="M 628 4666 
L 3578 4666 
L 3578 4134 
L 1259 4134 
L 1259 2753 
L 3481 2753 
L 3481 2222 
L 1259 2222 
L 1259 531 
L 3634 531 
L 3634 0 
L 628 0 
L 628 4666 
z
" transform="scale(0.015625)"/>
       <path id="DejaVuSans-4d" d="M 628 4666 
L 1569 4666 
L 2759 1491 
L 3956 4666 
L 4897 4666 
L 4897 0 
L 4281 0 
L 4281 4097 
L 3078 897 
L 2444 897 
L 1241 4097 
L 1241 0 
L 628 0 
L 628 4666 
z
" transform="scale(0.015625)"/>
      </defs>
      <use xlink:href="#DejaVuSans-6d"/>
      <use xlink:href="#DejaVuSans-65" transform="translate(97.412109 0)"/>
      <use xlink:href="#DejaVuSans-61" transform="translate(158.935547 0)"/>
      <use xlink:href="#DejaVuSans-6e" transform="translate(220.214844 0)"/>
      <use xlink:href="#DejaVuSans-20" transform="translate(283.59375 0)"/>
      <use xlink:href="#DejaVuSans-b1" transform="translate(315.380859 0)"/>
      <use xlink:href="#DejaVuSans-20" transform="translate(399.169922 0)"/>
      <use xlink:href="#DejaVuSans-53" transform="translate(430.957031 0)"/>
      <use xlink:href="#DejaVuSans-45" transform="translate(494.433594 0)"/>
      <use xlink:href="#DejaVuSans-4d" transform="translate(557.617188 0)"/>
     </g>
    </g>
    <g id="line2d_28">
     <path d="M 412.0625 38.576563 
L 422.0625 38.576563 
L 432.0625 38.576563 
" style="fill: none; stroke: #1f77b4; stroke-width: 2.4; stroke-linecap: square"/>
    </g>
    <g id="text_15">
     <!-- Directional difference (FEF↔LIP) -->
     <g transform="translate(440.0625 42.076563) scale(0.1 -0.1)">
      <defs>
       <path id="DejaVuSans-44" d="M 1259 4147 
L 1259 519 
L 2022 519 
Q 2988 519 3436 956 
Q 3884 1394 3884 2338 
Q 3884 3275 3436 3711 
Q 2988 4147 2022 4147 
L 1259 4147 
z
M 628 4666 
L 1925 4666 
Q 3281 4666 3915 4102 
Q 4550 3538 4550 2338 
Q 4550 1131 3912 565 
Q 3275 0 1925 0 
L 628 0 
L 628 4666 
z
" transform="scale(0.015625)"/>
       <path id="DejaVuSans-46" d="M 628 4666 
L 3309 4666 
L 3309 4134 
L 1259 4134 
L 1259 2759 
L 3109 2759 
L 3109 2228 
L 1259 2228 
L 1259 0 
L 628 0 
L 628 4666 
z
" transform="scale(0.015625)"/>
       <path id="DejaVuSans-2194" d="M 313 1866 
L 313 2147 
L 1541 3375 
L 1916 3000 
L 1188 2272 
L 4175 2272 
L 3447 3000 
L 3822 3375 
L 5050 2147 
L 5050 1866 
L 3822 638 
L 3447 1013 
L 4175 1741 
L 1188 1741 
L 1916 1013 
L 1541 638 
L 313 1866 
z
" transform="scale(0.015625)"/>
       <path id="DejaVuSans-4c" d="M 628 4666 
L 1259 4666 
L 1259 531 
L 3531 531 
L 3531 0 
L 628 0 
L 628 4666 
z
" transform="scale(0.015625)"/>
       <path id="DejaVuSans-49" d="M 628 4666 
L 1259 4666 
L 1259 0 
L 628 0 
L 628 4666 
z
" transform="scale(0.015625)"/>
       <path id="DejaVuSans-50" d="M 1259 4147 
L 1259 2394 
L 2053 2394 
Q 2494 2394 2734 2622 
Q 2975 2850 2975 3272 
Q 2975 3691 2734 3919 
Q 2494 4147 2053 4147 
L 1259 4147 
z
M 628 4666 
L 2053 4666 
Q 2838 4666 3239 4311 
Q 3641 3956 3641 3272 
Q 3641 2581 3239 2228 
Q 2838 1875 2053 1875 
L 1259 1875 
L 1259 0 
L 628 0 
L 628 4666 
z
" transform="scale(0.015625)"/>
      </defs>
      <use xlink:href="#DejaVuSans-44"/>
      <use xlink:href="#DejaVuSans-69" transform="translate(77.001953 0)"/>
      <use xlink:href="#DejaVuSans-72" transform="translate(104.785156 0)"/>
      <use xlink:href="#DejaVuSans-65" transform="translate(143.648438 0)"/>
      <use xlink:href="#DejaVuSans-63" transform="translate(205.171875 0)"/>
      <use xlink:href="#DejaVuSans-74" transform="translate(260.152344 0)"/>
      <use xlink:href="#DejaVuSans-69" transform="translate(299.361328 0)"/>
      <use xlink:href="#DejaVuSans-6f" transform="translate(327.144531 0)"/>
      <use xlink:href="#DejaVuSans-6e" transform="translate(388.326172 0)"/>
      <use xlink:href="#DejaVuSans-61" transform="translate(451.705078 0)"/>
      <use xlink:href="#DejaVuSans-6c" transform="translate(512.984375 0)"/>
      <use xlink:href="#DejaVuSans-20" transform="translate(540.767578 0)"/>
      <use xlink:href="#DejaVuSans-64" transform="translate(572.554688 0)"/>
      <use xlink:href="#DejaVuSans-69" transform="translate(636.03125 0)"/>
      <use xlink:href="#DejaVuSans-66" transform="translate(663.814453 0)"/>
      <use xlink:href="#DejaVuSans-66" transform="translate(699.019531 0)"/>
      <use xlink:href="#DejaVuSans-65" transform="translate(734.224609 0)"/>
      <use xlink:href="#DejaVuSans-72" transform="translate(795.748047 0)"/>
      <use xlink:href="#DejaVuSans-65" transform="translate(834.611328 0)"/>
      <use xlink:href="#DejaVuSans-6e" transform="translate(896.134766 0)"/>
      <use xlink:href="#DejaVuSans-63" transform="translate(959.513672 0)"/>
      <use xlink:href="#DejaVuSans-65" transform="translate(1014.494141 0)"/>
      <use xlink:href="#DejaVuSans-20" transform="translate(1076.017578 0)"/>
      <use xlink:href="#DejaVuSans-28" transform="translate(1107.804688 0)"/>
      <use xlink:href="#DejaVuSans-46" transform="translate(1146.818359 0)"/>
      <use xlink:href="#DejaVuSans-45" transform="translate(1204.337891 0)"/>
      <use xlink:href="#DejaVuSans-46" transform="translate(1267.521484 0)"/>
      <use xlink:href="#DejaVuSans-2194" transform="translate(1325.041016 0)"/>
      <use xlink:href="#DejaVuSans-4c" transform="translate(1408.830078 0)"/>
      <use xlink:href="#DejaVuSans-49" transform="translate(1464.542969 0)"/>
      <use xlink:href="#DejaVuSans-50" transform="translate(1494.035156 0)"/>
      <use xlink:href="#DejaVuSans-29" transform="translate(1554.337891 0)"/>
     </g>
    </g>
    <g id="line2d_29">
     <path d="M 412.0625 53.254688 
L 422.0625 53.254688 
L 432.0625 53.254688 
" style="fill: none; stroke-dasharray: 5.55,2.4; stroke-dashoffset: 0; stroke: #7f7f7f; stroke-opacity: 0.9; stroke-width: 1.5"/>
    </g>
    <g id="text_16">
     <!-- Mean null μ (difference) -->
     <g transform="translate(440.0625 56.754688) scale(0.1 -0.1)">
      <defs>
       <path id="DejaVuSans-3bc" d="M 544 -1331 
L 544 3500 
L 1119 3500 
L 1119 1325 
Q 1119 872 1334 640 
Q 1550 409 1972 409 
Q 2434 409 2667 671 
Q 2900 934 2900 1459 
L 2900 3500 
L 3475 3500 
L 3475 806 
Q 3475 619 3529 530 
Q 3584 441 3700 441 
Q 3728 441 3778 458 
Q 3828 475 3916 513 
L 3916 50 
Q 3788 -22 3673 -56 
Q 3559 -91 3450 -91 
Q 3234 -91 3106 31 
Q 2978 153 2931 403 
Q 2775 156 2548 32 
Q 2322 -91 2016 -91 
Q 1697 -91 1473 31 
Q 1250 153 1119 397 
L 1119 -1331 
L 544 -1331 
z
" transform="scale(0.015625)"/>
      </defs>
      <use xlink:href="#DejaVuSans-4d"/>
      <use xlink:href="#DejaVuSans-65" transform="translate(86.279297 0)"/>
      <use xlink:href="#DejaVuSans-61" transform="translate(147.802734 0)"/>
      <use xlink:href="#DejaVuSans-6e" transform="translate(209.082031 0)"/>
      <use xlink:href="#DejaVuSans-20" transform="translate(272.460938 0)"/>
      <use xlink:href="#DejaVuSans-6e" transform="translate(304.248047 0)"/>
      <use xlink:href="#DejaVuSans-75" transform="translate(367.626953 0)"/>
      <use xlink:href="#DejaVuSans-6c" transform="translate(431.005859 0)"/>
      <use xlink:href="#DejaVuSans-6c" transform="translate(458.789062 0)"/>
      <use xlink:href="#DejaVuSans-20" transform="translate(486.572266 0)"/>
      <use xlink:href="#DejaVuSans-3bc" transform="translate(518.359375 0)"/>
      <use xlink:href="#DejaVuSans-20" transform="translate(581.982422 0)"/>
      <use xlink:href="#DejaVuSans-28" transform="translate(613.769531 0)"/>
      <use xlink:href="#DejaVuSans-64" transform="translate(652.783203 0)"/>
      <use xlink:href="#DejaVuSans-69" transform="translate(716.259766 0)"/>
      <use xlink:href="#DejaVuSans-66" transform="translate(744.042969 0)"/>
      <use xlink:href="#DejaVuSans-66" transform="translate(779.248047 0)"/>
      <use xlink:href="#DejaVuSans-65" transform="translate(814.453125 0)"/>
      <use xlink:href="#DejaVuSans-72" transform="translate(875.976562 0)"/>
      <use xlink:href="#DejaVuSans-65" transform="translate(914.839844 0)"/>
      <use xlink:href="#DejaVuSans-6e" transform="translate(976.363281 0)"/>
      <use xlink:href="#DejaVuSans-63" transform="translate(1039.742188 0)"/>
      <use xlink:href="#DejaVuSans-65" transform="translate(1094.722656 0)"/>
      <use xlink:href="#DejaVuSans-29" transform="translate(1156.246094 0)"/>
     </g>
    </g>
    <g id="line2d_30">
     <g>
      <use xlink:href="#m4535b7f7b9" x="422.0625" y="67.932813" style="stroke: #000000"/>
     </g>
    </g>
    <g id="text_17">
     <!-- p &lt; 0.05 -->
     <g transform="translate(440.0625 71.432813) scale(0.1 -0.1)">
      <defs>
       <path id="DejaVuSans-70" d="M 1159 525 
L 1159 -1331 
L 581 -1331 
L 581 3500 
L 1159 3500 
L 1159 2969 
Q 1341 3281 1617 3432 
Q 1894 3584 2278 3584 
Q 2916 3584 3314 3078 
Q 3713 2572 3713 1747 
Q 3713 922 3314 415 
Q 2916 -91 2278 -91 
Q 1894 -91 1617 61 
Q 1341 213 1159 525 
z
M 3116 1747 
Q 3116 2381 2855 2742 
Q 2594 3103 2138 3103 
Q 1681 3103 1420 2742 
Q 1159 2381 1159 1747 
Q 1159 1113 1420 752 
Q 1681 391 2138 391 
Q 2594 391 2855 752 
Q 3116 1113 3116 1747 
z
" transform="scale(0.015625)"/>
       <path id="DejaVuSans-3c" d="M 4684 3150 
L 1459 2003 
L 4684 863 
L 4684 294 
L 678 1747 
L 678 2266 
L 4684 3719 
L 4684 3150 
z
" transform="scale(0.015625)"/>
      </defs>
      <use xlink:href="#DejaVuSans-70"/>
      <use xlink:href="#DejaVuSans-20" transform="translate(63.476562 0)"/>
      <use xlink:href="#DejaVuSans-3c" transform="translate(95.263672 0)"/>
      <use xlink:href="#DejaVuSans-20" transform="translate(179.052734 0)"/>
      <use xlink:href="#DejaVuSans-30" transform="translate(210.839844 0)"/>
      <use xlink:href="#DejaVuSans-2e" transform="translate(274.462891 0)"/>
      <use xlink:href="#DejaVuSans-30" transform="translate(306.25 0)"/>
      <use xlink:href="#DejaVuSans-35" transform="translate(369.873047 0)"/>
     </g>
    </g>
   </g>
  </g>
 </g>
 <defs>
  <clipPath id="p2eb3a24d04">
   <rect x="68.96" y="10.8" width="539.44" height="206.44"/>
  </clipPath>
 </defs>
</svg>
