<?xml version="1.0" encoding="utf-8" standalone="no"?>
<!DOCTYPE svg PUBLIC "-//W3C//DTD SVG 1.1//EN"
  "http://www.w3.org/Graphics/SVG/1.1/DTD/svg11.dtd">
<svg xmlns:xlink="http://www.w3.org/1999/xlink" width="561.6pt" height="561.6pt" viewBox="0 0 561.6 561.6" xmlns="http://www.w3.org/2000/svg" version="1.1">
 <metadata>
  <rdf:RDF xmlns:dc="http://purl.org/dc/elements/1.1/" xmlns:cc="http://creativecommons.org/ns#" xmlns:rdf="http://www.w3.org/1999/02/22-rdf-syntax-ns#">
   <cc:Work>
    <dc:type rdf:resource="http://purl.org/dc/dcmitype/StillImage"/>
    <dc:date>2025-12-07T13:55:12.775783</dc:date>
    <dc:format>image/svg+xml</dc:format>
    <dc:creator>
     <cc:Agent>
      <dc:title>Matplotlib v3.10.5, https://matplotlib.org/</dc:title>
     </cc:Agent>
    </dc:creator>
   </cc:Work>
  </rdf:RDF>
 </metadata>
 <defs>
  <style type="text/css">*{stroke-linejoin: round; stroke-linecap: butt}</style>
 </defs>
 <g id="figure_1">
  <g id="patch_1">
   <path d="M 0 561.6 
L 561.6 561.6 
L 561.6 0 
L 0 0 
z
" style="fill: #ffffff"/>
  </g>
  <g id="axes_1">
   <g id="patch_2">
    <path d="M 70.2 206.388 
L 505.44 206.388 
L 505.44 67.392 
L 70.2 67.392 
z
" style="fill: #ffffff"/>
   </g>
   <g id="FillBetweenPolyCollection_1">
    <defs>
     <path id="mbed4f4dd9f" d="M 89.983636 -417.071344 
L 89.983636 -373.814491 
L 93.980327 -371.77805 
L 97.977023 -371.619053 
L 101.973713 -372.407385 
L 105.97041 -372.53089 
L 109.967106 -371.928443 
L 113.963796 -372.511391 
L 117.960493 -371.270121 
L 121.957186 -372.160862 
L 125.953882 -374.223049 
L 129.950576 -372.212424 
L 133.947269 -369.746282 
L 137.943962 -372.239515 
L 141.940659 -371.666382 
L 145.937352 -372.558536 
L 149.934045 -371.965772 
L 153.93074 -370.198374 
L 157.927434 -372.063128 
L 161.924129 -371.215771 
L 165.920823 -369.75046 
L 169.917517 -372.830346 
L 173.914211 -372.531629 
L 177.910906 -373.727243 
L 181.9076 -371.232749 
L 185.904294 -372.527263 
L 189.900988 -371.591636 
L 193.897681 -371.960147 
L 197.894377 -372.046402 
L 201.891071 -371.780484 
L 205.887764 -371.678722 
L 209.884457 -372.327905 
L 213.881154 -370.564784 
L 217.877847 -370.486375 
L 221.874543 -374.716391 
L 225.871234 -371.813887 
L 229.86793 -373.845331 
L 233.864626 -371.430976 
L 237.861317 -372.875522 
L 241.858013 -372.70371 
L 245.854704 -373.07021 
L 249.8514 -374.289067 
L 253.848096 -372.31024 
L 257.844787 -374.614631 
L 261.841483 -373.216117 
L 265.838179 -369.427588 
L 269.83487 -372.105723 
L 273.83156 -371.998896 
L 277.828262 -371.985799 
L 281.824953 -372.277626 
L 285.821643 -372.059197 
L 289.818345 -372.155845 
L 293.815036 -371.324393 
L 297.811726 -371.907625 
L 301.808428 -370.650772 
L 305.805119 -372.815848 
L 309.801809 -373.345382 
L 313.798511 -371.193489 
L 317.795202 -372.731996 
L 321.791892 -371.612559 
L 325.788594 -372.565164 
L 329.785285 -370.664507 
L 333.781975 -371.518539 
L 337.778677 -371.472649 
L 341.775368 -370.261942 
L 345.772058 -371.459165 
L 349.76876 -374.322864 
L 353.765451 -373.035427 
L 357.762141 -371.916907 
L 361.758843 -372.668848 
L 365.755534 -370.295407 
L 369.752224 -370.292564 
L 373.748914 -370.972503 
L 377.745605 -370.903534 
L 381.742319 -372.440856 
L 385.739009 -373.903303 
L 389.7357 -370.621663 
L 393.73239 -372.35405 
L 397.72908 -371.94974 
L 401.725771 -371.769999 
L 405.722485 -371.036311 
L 409.719175 -370.820023 
L 413.715866 -372.672246 
L 417.712556 -371.347912 
L 421.709246 -371.286725 
L 425.705937 -371.226481 
L 429.702627 -370.681184 
L 433.699341 -372.91687 
L 437.696032 -372.254535 
L 441.692722 -372.02572 
L 445.689412 -375.165597 
L 449.686103 -370.446935 
L 453.682793 -373.084177 
L 457.679507 -371.659383 
L 461.676198 -372.46782 
L 465.672888 -372.146766 
L 469.669578 -374.022705 
L 473.666269 -371.60305 
L 477.662959 -371.569717 
L 481.659673 -372.797889 
L 485.656364 -371.599402 
L 485.656364 -414.706512 
L 485.656364 -414.706512 
L 481.659673 -413.057213 
L 477.662959 -413.116625 
L 473.666269 -413.603627 
L 469.669578 -414.764448 
L 465.672888 -414.228061 
L 461.676198 -412.802007 
L 457.679507 -417.335634 
L 453.682793 -415.693445 
L 449.686103 -411.368709 
L 445.689412 -421.880465 
L 441.692722 -420.559956 
L 437.696032 -411.456809 
L 433.699341 -413.980257 
L 429.702627 -414.666866 
L 425.705937 -411.381577 
L 421.709246 -413.088854 
L 417.712556 -414.848695 
L 413.715866 -411.728614 
L 409.719175 -415.212647 
L 405.722485 -412.665698 
L 401.725771 -414.60472 
L 397.72908 -415.381678 
L 393.73239 -414.556463 
L 389.7357 -415.194871 
L 385.739009 -413.27952 
L 381.742319 -413.231504 
L 377.745605 -416.446516 
L 373.748914 -409.605215 
L 369.752224 -414.967476 
L 365.755534 -418.050004 
L 361.758843 -412.535551 
L 357.762141 -415.317354 
L 353.765451 -418.633009 
L 349.76876 -415.218743 
L 345.772058 -414.747822 
L 341.775368 -416.089084 
L 337.778677 -413.660844 
L 333.781975 -412.043683 
L 329.785285 -415.74283 
L 325.788594 -414.686145 
L 321.791892 -415.112759 
L 317.795202 -413.667934 
L 313.798511 -411.923613 
L 309.801809 -413.259614 
L 305.805119 -412.784689 
L 301.808428 -411.486214 
L 297.811726 -413.326529 
L 293.815036 -414.139866 
L 289.818345 -415.791861 
L 285.821643 -417.512099 
L 281.824953 -413.505935 
L 277.828262 -414.48153 
L 273.83156 -416.570133 
L 269.83487 -415.858212 
L 265.838179 -417.060684 
L 261.841483 -421.108036 
L 257.844787 -422.122806 
L 253.848096 -412.251653 
L 249.8514 -415.687144 
L 245.854704 -419.47542 
L 241.858013 -412.107696 
L 237.861317 -415.976171 
L 233.864626 -416.177878 
L 229.86793 -419.975729 
L 225.871234 -415.241185 
L 221.874543 -415.327869 
L 217.877847 -414.31193 
L 213.881154 -415.945503 
L 209.884457 -418.593467 
L 205.887764 -414.845068 
L 201.891071 -414.315266 
L 197.894377 -416.030348 
L 193.897681 -411.708244 
L 189.900988 -414.758641 
L 185.904294 -415.709443 
L 181.9076 -416.947029 
L 177.910906 -416.460409 
L 173.914211 -411.296113 
L 169.917517 -416.12867 
L 165.920823 -415.197524 
L 161.924129 -413.093212 
L 157.927434 -413.798633 
L 153.93074 -418.261434 
L 149.934045 -415.777097 
L 145.937352 -416.178952 
L 141.940659 -415.027315 
L 137.943962 -417.757128 
L 133.947269 -415.011255 
L 129.950576 -413.753192 
L 125.953882 -416.683477 
L 121.957186 -416.384126 
L 117.960493 -415.803411 
L 113.963796 -420.595947 
L 109.967106 -414.995035 
L 105.97041 -418.144869 
L 101.973713 -412.842022 
L 97.977023 -414.629498 
L 93.980327 -413.907192 
L 89.983636 -417.071344 
z
"/>
    </defs>
    <g clip-path="url(#pe6b08e5a17)">
     <use xlink:href="#mbed4f4dd9f" x="0" y="561.6" style="fill: #1f77b4; fill-opacity: 0.15"/>
    </g>
   </g>
   <g id="FillBetweenPolyCollection_2">
    <defs>
     <path id="m9963f4f274" d="M 89.983636 -411.668119 
L 89.983636 -367.848813 
L 93.980327 -371.65955 
L 97.977023 -370.449097 
L 101.973713 -371.399526 
L 105.97041 -373.82114 
L 109.967106 -372.29323 
L 113.963796 -374.083903 
L 117.960493 -372.088762 
L 121.957186 -372.437437 
L 125.953882 -375.55512 
L 129.950576 -371.663462 
L 133.947269 -371.520487 
L 137.943962 -371.713658 
L 141.940659 -371.066784 
L 145.937352 -371.472019 
L 149.934045 -371.954663 
L 153.93074 -372.266943 
L 157.927434 -372.965436 
L 161.924129 -374.4202 
L 165.920823 -371.110307 
L 169.917517 -371.169607 
L 173.914211 -371.808171 
L 177.910906 -371.162059 
L 181.9076 -377.62441 
L 185.904294 -370.624278 
L 189.900988 -373.028029 
L 193.897681 -371.616834 
L 197.894377 -372.498756 
L 201.891071 -375.296942 
L 205.887764 -369.963334 
L 209.884457 -373.940098 
L 213.881154 -374.524937 
L 217.877847 -371.97994 
L 221.874543 -372.148548 
L 225.871234 -373.064125 
L 229.86793 -371.236726 
L 233.864626 -372.952488 
L 237.861317 -381.660224 
L 241.858013 -372.586841 
L 245.854704 -374.099937 
L 249.8514 -372.710698 
L 253.848096 -372.659384 
L 257.844787 -380.380982 
L 261.841483 -372.77276 
L 265.838179 -370.774704 
L 269.83487 -371.422883 
L 273.83156 -371.769219 
L 277.828262 -372.623502 
L 281.824953 -373.650422 
L 285.821643 -372.279053 
L 289.818345 -372.253906 
L 293.815036 -371.916359 
L 297.811726 -371.251138 
L 301.808428 -372.717123 
L 305.805119 -372.622105 
L 309.801809 -370.901156 
L 313.798511 -372.260508 
L 317.795202 -373.30068 
L 321.791892 -370.905653 
L 325.788594 -370.328095 
L 329.785285 -373.371329 
L 333.781975 -372.676162 
L 337.778677 -371.49972 
L 341.775368 -372.701005 
L 345.772058 -372.409925 
L 349.76876 -371.504308 
L 353.765451 -373.472324 
L 357.762141 -372.590241 
L 361.758843 -371.045034 
L 365.755534 -371.290217 
L 369.752224 -371.560376 
L 373.748914 -371.942716 
L 377.745605 -371.053232 
L 381.742319 -372.813026 
L 385.739009 -371.902787 
L 389.7357 -372.023915 
L 393.73239 -374.037323 
L 397.72908 -371.018133 
L 401.725771 -374.675635 
L 405.722485 -372.410035 
L 409.719175 -372.67645 
L 413.715866 -375.714644 
L 417.712556 -371.516344 
L 421.709246 -371.916222 
L 425.705937 -372.705346 
L 429.702627 -371.403863 
L 433.699341 -372.74592 
L 437.696032 -373.098317 
L 441.692722 -371.33834 
L 445.689412 -372.806755 
L 449.686103 -371.256024 
L 453.682793 -372.846147 
L 457.679507 -372.994302 
L 461.676198 -373.073618 
L 465.672888 -370.937022 
L 469.669578 -374.318552 
L 473.666269 -371.508371 
L 477.662959 -372.865704 
L 481.659673 -371.593837 
L 485.656364 -372.84424 
L 485.656364 -418.947156 
L 485.656364 -418.947156 
L 481.659673 -413.098417 
L 477.662959 -415.517009 
L 473.666269 -412.868487 
L 469.669578 -418.839819 
L 465.672888 -415.776534 
L 461.676198 -415.250833 
L 457.679507 -419.707563 
L 453.682793 -416.911666 
L 449.686103 -411.651424 
L 445.689412 -413.599344 
L 441.692722 -417.359446 
L 437.696032 -420.093935 
L 433.699341 -415.24722 
L 429.702627 -411.742331 
L 425.705937 -416.520814 
L 421.709246 -412.137907 
L 417.712556 -412.296579 
L 413.715866 -420.64299 
L 409.719175 -415.568142 
L 405.722485 -417.693894 
L 401.725771 -416.610375 
L 397.72908 -416.547732 
L 393.73239 -421.402523 
L 389.7357 -414.316808 
L 385.739009 -417.700414 
L 381.742319 -413.604161 
L 377.745605 -410.151126 
L 373.748914 -413.386763 
L 369.752224 -416.722561 
L 365.755534 -411.88742 
L 361.758843 -414.701275 
L 357.762141 -417.178552 
L 353.765451 -424.94478 
L 349.76876 -409.893615 
L 345.772058 -419.951178 
L 341.775368 -417.847413 
L 337.778677 -413.308607 
L 333.781975 -418.844618 
L 329.785285 -414.362761 
L 325.788594 -414.335185 
L 321.791892 -412.271037 
L 317.795202 -417.732289 
L 313.798511 -419.38919 
L 309.801809 -411.834514 
L 305.805119 -409.261 
L 301.808428 -411.954884 
L 297.811726 -408.813884 
L 293.815036 -413.922725 
L 289.818345 -410.690122 
L 285.821643 -413.771244 
L 281.824953 -416.897419 
L 277.828262 -410.734429 
L 273.83156 -411.038919 
L 269.83487 -411.762714 
L 265.838179 -412.782018 
L 261.841483 -408.778619 
L 257.844787 -432.739488 
L 253.848096 -416.09759 
L 249.8514 -416.102524 
L 245.854704 -424.103381 
L 241.858013 -416.306855 
L 237.861317 -435.392838 
L 233.864626 -414.428336 
L 229.86793 -417.374699 
L 225.871234 -418.01813 
L 221.874543 -413.69115 
L 217.877847 -413.171662 
L 213.881154 -419.783449 
L 209.884457 -419.719247 
L 205.887764 -415.37238 
L 201.891071 -424.649889 
L 197.894377 -417.984608 
L 193.897681 -412.047446 
L 189.900988 -424.944394 
L 185.904294 -415.917623 
L 181.9076 -430.589712 
L 177.910906 -412.957573 
L 173.914211 -416.137764 
L 169.917517 -414.292637 
L 165.920823 -416.764356 
L 161.924129 -419.115964 
L 157.927434 -418.755116 
L 153.93074 -417.90566 
L 149.934045 -413.148668 
L 145.937352 -412.683357 
L 141.940659 -416.091971 
L 137.943962 -415.318404 
L 133.947269 -412.705243 
L 129.950576 -420.003821 
L 125.953882 -419.714862 
L 121.957186 -415.682885 
L 117.960493 -416.116667 
L 113.963796 -421.296441 
L 109.967106 -412.368329 
L 105.97041 -423.095613 
L 101.973713 -415.748164 
L 97.977023 -415.456364 
L 93.980327 -413.22674 
L 89.983636 -411.668119 
z
"/>
    </defs>
    <g clip-path="url(#pe6b08e5a17)">
     <use xlink:href="#m9963f4f274" x="0" y="561.6" style="fill: #ff7f0e; fill-opacity: 0.15"/>
    </g>
   </g>
   <g id="matplotlib.axis_1">
    <g id="xtick_1">
     <g id="line2d_1">
      <defs>
       <path id="m69f988ee9c" d="M 0 0 
L 0 3.5 
" style="stroke: #000000; stroke-width: 0.8"/>
      </defs>
      <g>
       <use xlink:href="#m69f988ee9c" x="87.985286" y="206.388" style="stroke: #000000; stroke-width: 0.8"/>
      </g>
     </g>
     <g id="text_1">
      <!-- −200 -->
      <g transform="translate(74.251693 220.986437) scale(0.1 -0.1)">
       <defs>
        <path id="DejaVuSans-2212" d="M 678 2272 
L 4684 2272 
L 4684 1741 
L 678 1741 
L 678 2272 
z
" transform="scale(0.015625)"/>
        <path id="DejaVuSans-32" d="M 1228 531 
L 3431 531 
L 3431 0 
L 469 0 
L 469 531 
Q 828 903 1448 1529 
Q 2069 2156 2228 2338 
Q 2531 2678 2651 2914 
Q 2772 3150 2772 3378 
Q 2772 3750 2511 3984 
Q 2250 4219 1831 4219 
Q 1534 4219 1204 4116 
Q 875 4013 500 3803 
L 500 4441 
Q 881 4594 1212 4672 
Q 1544 4750 1819 4750 
Q 2544 4750 2975 4387 
Q 3406 4025 3406 3419 
Q 3406 3131 3298 2873 
Q 3191 2616 2906 2266 
Q 2828 2175 2409 1742 
Q 1991 1309 1228 531 
z
" transform="scale(0.015625)"/>
        <path id="DejaVuSans-30" d="M 2034 4250 
Q 1547 4250 1301 3770 
Q 1056 3291 1056 2328 
Q 1056 1369 1301 889 
Q 1547 409 2034 409 
Q 2525 409 2770 889 
Q 3016 1369 3016 2328 
Q 3016 3291 2770 3770 
Q 2525 4250 2034 4250 
z
M 2034 4750 
Q 2819 4750 3233 4129 
Q 3647 3509 3647 2328 
Q 3647 1150 3233 529 
Q 2819 -91 2034 -91 
Q 1250 -91 836 529 
Q 422 1150 422 2328 
Q 422 3509 836 4129 
Q 1250 4750 2034 4750 
z
" transform="scale(0.015625)"/>
       </defs>
       <use xlink:href="#DejaVuSans-2212"/>
       <use xlink:href="#DejaVuSans-32" transform="translate(83.789062 0)"/>
       <use xlink:href="#DejaVuSans-30" transform="translate(147.412109 0)"/>
       <use xlink:href="#DejaVuSans-30" transform="translate(211.035156 0)"/>
      </g>
     </g>
    </g>
    <g id="xtick_2">
     <g id="line2d_2">
      <g>
       <use xlink:href="#m69f988ee9c" x="167.91917" y="206.388" style="stroke: #000000; stroke-width: 0.8"/>
      </g>
     </g>
     <g id="text_2">
      <!-- 0 -->
      <g transform="translate(164.73792 220.986437) scale(0.1 -0.1)">
       <use xlink:href="#DejaVuSans-30"/>
      </g>
     </g>
    </g>
    <g id="xtick_3">
     <g id="line2d_3">
      <g>
       <use xlink:href="#m69f988ee9c" x="247.853053" y="206.388" style="stroke: #000000; stroke-width: 0.8"/>
      </g>
     </g>
     <g id="text_3">
      <!-- 200 -->
      <g transform="translate(238.309303 220.986437) scale(0.1 -0.1)">
       <use xlink:href="#DejaVuSans-32"/>
       <use xlink:href="#DejaVuSans-30" transform="translate(63.623047 0)"/>
       <use xlink:href="#DejaVuSans-30" transform="translate(127.246094 0)"/>
      </g>
     </g>
    </g>
    <g id="xtick_4">
     <g id="line2d_4">
      <g>
       <use xlink:href="#m69f988ee9c" x="327.786937" y="206.388" style="stroke: #000000; stroke-width: 0.8"/>
      </g>
     </g>
     <g id="text_4">
      <!-- 400 -->
      <g transform="translate(318.243187 220.986437) scale(0.1 -0.1)">
       <defs>
        <path id="DejaVuSans-34" d="M 2419 4116 
L 825 1625 
L 2419 1625 
L 2419 4116 
z
M 2253 4666 
L 3047 4666 
L 3047 1625 
L 3713 1625 
L 3713 1100 
L 3047 1100 
L 3047 0 
L 2419 0 
L 2419 1100 
L 313 1100 
L 313 1709 
L 2253 4666 
z
" transform="scale(0.015625)"/>
       </defs>
       <use xlink:href="#DejaVuSans-34"/>
       <use xlink:href="#DejaVuSans-30" transform="translate(63.623047 0)"/>
       <use xlink:href="#DejaVuSans-30" transform="translate(127.246094 0)"/>
      </g>
     </g>
    </g>
    <g id="xtick_5">
     <g id="line2d_5">
      <g>
       <use xlink:href="#m69f988ee9c" x="407.720821" y="206.388" style="stroke: #000000; stroke-width: 0.8"/>
      </g>
     </g>
     <g id="text_5">
      <!-- 600 -->
      <g transform="translate(398.177071 220.986437) scale(0.1 -0.1)">
       <defs>
        <path id="DejaVuSans-36" d="M 2113 2584 
Q 1688 2584 1439 2293 
Q 1191 2003 1191 1497 
Q 1191 994 1439 701 
Q 1688 409 2113 409 
Q 2538 409 2786 701 
Q 3034 994 3034 1497 
Q 3034 2003 2786 2293 
Q 2538 2584 2113 2584 
z
M 3366 4563 
L 3366 3988 
Q 3128 4100 2886 4159 
Q 2644 4219 2406 4219 
Q 1781 4219 1451 3797 
Q 1122 3375 1075 2522 
Q 1259 2794 1537 2939 
Q 1816 3084 2150 3084 
Q 2853 3084 3261 2657 
Q 3669 2231 3669 1497 
Q 3669 778 3244 343 
Q 2819 -91 2113 -91 
Q 1303 -91 875 529 
Q 447 1150 447 2328 
Q 447 3434 972 4092 
Q 1497 4750 2381 4750 
Q 2619 4750 2861 4703 
Q 3103 4656 3366 4563 
z
" transform="scale(0.015625)"/>
       </defs>
       <use xlink:href="#DejaVuSans-36"/>
       <use xlink:href="#DejaVuSans-30" transform="translate(63.623047 0)"/>
       <use xlink:href="#DejaVuSans-30" transform="translate(127.246094 0)"/>
      </g>
     </g>
    </g>
    <g id="xtick_6">
     <g id="line2d_6">
      <g>
       <use xlink:href="#m69f988ee9c" x="487.654704" y="206.388" style="stroke: #000000; stroke-width: 0.8"/>
      </g>
     </g>
     <g id="text_6">
      <!-- 800 -->
      <g transform="translate(478.110954 220.986437) scale(0.1 -0.1)">
       <defs>
        <path id="DejaVuSans-38" d="M 2034 2216 
Q 1584 2216 1326 1975 
Q 1069 1734 1069 1313 
Q 1069 891 1326 650 
Q 1584 409 2034 409 
Q 2484 409 2743 651 
Q 3003 894 3003 1313 
Q 3003 1734 2745 1975 
Q 2488 2216 2034 2216 
z
M 1403 2484 
Q 997 2584 770 2862 
Q 544 3141 544 3541 
Q 544 4100 942 4425 
Q 1341 4750 2034 4750 
Q 2731 4750 3128 4425 
Q 3525 4100 3525 3541 
Q 3525 3141 3298 2862 
Q 3072 2584 2669 2484 
Q 3125 2378 3379 2068 
Q 3634 1759 3634 1313 
Q 3634 634 3220 271 
Q 2806 -91 2034 -91 
Q 1263 -91 848 271 
Q 434 634 434 1313 
Q 434 1759 690 2068 
Q 947 2378 1403 2484 
z
M 1172 3481 
Q 1172 3119 1398 2916 
Q 1625 2713 2034 2713 
Q 2441 2713 2670 2916 
Q 2900 3119 2900 3481 
Q 2900 3844 2670 4047 
Q 2441 4250 2034 4250 
Q 1625 4250 1398 4047 
Q 1172 3844 1172 3481 
z
" transform="scale(0.015625)"/>
       </defs>
       <use xlink:href="#DejaVuSans-38"/>
       <use xlink:href="#DejaVuSans-30" transform="translate(63.623047 0)"/>
       <use xlink:href="#DejaVuSans-30" transform="translate(127.246094 0)"/>
      </g>
     </g>
    </g>
   </g>
   <g id="matplotlib.axis_2">
    <g id="ytick_1">
     <g id="line2d_7">
      <defs>
       <path id="m5544da8b4a" d="M 0 0 
L -3.5 0 
" style="stroke: #000000; stroke-width: 0.8"/>
      </defs>
      <g>
       <use xlink:href="#m5544da8b4a" x="70.2" y="202.276708" style="stroke: #000000; stroke-width: 0.8"/>
      </g>
     </g>
     <g id="text_7">
      <!-- 0.0 -->
      <g transform="translate(47.296875 206.075927) scale(0.1 -0.1)">
       <defs>
        <path id="DejaVuSans-2e" d="M 684 794 
L 1344 794 
L 1344 0 
L 684 0 
L 684 794 
z
" transform="scale(0.015625)"/>
       </defs>
       <use xlink:href="#DejaVuSans-30"/>
       <use xlink:href="#DejaVuSans-2e" transform="translate(63.623047 0)"/>
       <use xlink:href="#DejaVuSans-30" transform="translate(95.410156 0)"/>
      </g>
     </g>
    </g>
    <g id="ytick_2">
     <g id="line2d_8">
      <g>
       <use xlink:href="#m5544da8b4a" x="70.2" y="179.092642" style="stroke: #000000; stroke-width: 0.8"/>
      </g>
     </g>
     <g id="text_8">
      <!-- 2.5 -->
      <g transform="translate(47.296875 182.89186) scale(0.1 -0.1)">
       <defs>
        <path id="DejaVuSans-35" d="M 691 4666 
L 3169 4666 
L 3169 4134 
L 1269 4134 
L 1269 2991 
Q 1406 3038 1543 3061 
Q 1681 3084 1819 3084 
Q 2600 3084 3056 2656 
Q 3513 2228 3513 1497 
Q 3513 744 3044 326 
Q 2575 -91 1722 -91 
Q 1428 -91 1123 -41 
Q 819 9 494 109 
L 494 744 
Q 775 591 1075 516 
Q 1375 441 1709 441 
Q 2250 441 2565 725 
Q 2881 1009 2881 1497 
Q 2881 1984 2565 2268 
Q 2250 2553 1709 2553 
Q 1456 2553 1204 2497 
Q 953 2441 691 2322 
L 691 4666 
z
" transform="scale(0.015625)"/>
       </defs>
       <use xlink:href="#DejaVuSans-32"/>
       <use xlink:href="#DejaVuSans-2e" transform="translate(63.623047 0)"/>
       <use xlink:href="#DejaVuSans-35" transform="translate(95.410156 0)"/>
      </g>
     </g>
    </g>
    <g id="ytick_3">
     <g id="line2d_9">
      <g>
       <use xlink:href="#m5544da8b4a" x="70.2" y="155.908575" style="stroke: #000000; stroke-width: 0.8"/>
      </g>
     </g>
     <g id="text_9">
      <!-- 5.0 -->
      <g transform="translate(47.296875 159.707793) scale(0.1 -0.1)">
       <use xlink:href="#DejaVuSans-35"/>
       <use xlink:href="#DejaVuSans-2e" transform="translate(63.623047 0)"/>
       <use xlink:href="#DejaVuSans-30" transform="translate(95.410156 0)"/>
      </g>
     </g>
    </g>
    <g id="ytick_4">
     <g id="line2d_10">
      <g>
       <use xlink:href="#m5544da8b4a" x="70.2" y="132.724508" style="stroke: #000000; stroke-width: 0.8"/>
      </g>
     </g>
     <g id="text_10">
      <!-- 7.5 -->
      <g transform="translate(47.296875 136.523727) scale(0.1 -0.1)">
       <defs>
        <path id="DejaVuSans-37" d="M 525 4666 
L 3525 4666 
L 3525 4397 
L 1831 0 
L 1172 0 
L 2766 4134 
L 525 4134 
L 525 4666 
z
" transform="scale(0.015625)"/>
       </defs>
       <use xlink:href="#DejaVuSans-37"/>
       <use xlink:href="#DejaVuSans-2e" transform="translate(63.623047 0)"/>
       <use xlink:href="#DejaVuSans-35" transform="translate(95.410156 0)"/>
      </g>
     </g>
    </g>
    <g id="ytick_5">
     <g id="line2d_11">
      <g>
       <use xlink:href="#m5544da8b4a" x="70.2" y="109.540441" style="stroke: #000000; stroke-width: 0.8"/>
      </g>
     </g>
     <g id="text_11">
      <!-- 10.0 -->
      <g transform="translate(40.934375 113.33966) scale(0.1 -0.1)">
       <defs>
        <path id="DejaVuSans-31" d="M 794 531 
L 1825 531 
L 1825 4091 
L 703 3866 
L 703 4441 
L 1819 4666 
L 2450 4666 
L 2450 531 
L 3481 531 
L 3481 0 
L 794 0 
L 794 531 
z
" transform="scale(0.015625)"/>
       </defs>
       <use xlink:href="#DejaVuSans-31"/>
       <use xlink:href="#DejaVuSans-30" transform="translate(63.623047 0)"/>
       <use xlink:href="#DejaVuSans-2e" transform="translate(127.246094 0)"/>
       <use xlink:href="#DejaVuSans-30" transform="translate(159.033203 0)"/>
      </g>
     </g>
    </g>
    <g id="ytick_6">
     <g id="line2d_12">
      <g>
       <use xlink:href="#m5544da8b4a" x="70.2" y="86.356374" style="stroke: #000000; stroke-width: 0.8"/>
      </g>
     </g>
     <g id="text_12">
      <!-- 12.5 -->
      <g transform="translate(40.934375 90.155593) scale(0.1 -0.1)">
       <use xlink:href="#DejaVuSans-31"/>
       <use xlink:href="#DejaVuSans-32" transform="translate(63.623047 0)"/>
       <use xlink:href="#DejaVuSans-2e" transform="translate(127.246094 0)"/>
       <use xlink:href="#DejaVuSans-35" transform="translate(159.033203 0)"/>
      </g>
     </g>
    </g>
    <g id="text_13">
     <!-- ΔLL (bits) -->
     <g transform="translate(34.854687 160.500937) rotate(-90) scale(0.1 -0.1)">
      <defs>
       <path id="DejaVuSans-394" d="M 2188 4044 
L 906 525 
L 3472 525 
L 2188 4044 
z
M 50 0 
L 1831 4666 
L 2547 4666 
L 4325 0 
L 50 0 
z
" transform="scale(0.015625)"/>
       <path id="DejaVuSans-4c" d="M 628 4666 
L 1259 4666 
L 1259 531 
L 3531 531 
L 3531 0 
L 628 0 
L 628 4666 
z
" transform="scale(0.015625)"/>
       <path id="DejaVuSans-20" transform="scale(0.015625)"/>
       <path id="DejaVuSans-28" d="M 1984 4856 
Q 1566 4138 1362 3434 
Q 1159 2731 1159 2009 
Q 1159 1288 1364 580 
Q 1569 -128 1984 -844 
L 1484 -844 
Q 1016 -109 783 600 
Q 550 1309 550 2009 
Q 550 2706 781 3412 
Q 1013 4119 1484 4856 
L 1984 4856 
z
" transform="scale(0.015625)"/>
       <path id="DejaVuSans-62" d="M 3116 1747 
Q 3116 2381 2855 2742 
Q 2594 3103 2138 3103 
Q 1681 3103 1420 2742 
Q 1159 2381 1159 1747 
Q 1159 1113 1420 752 
Q 1681 391 2138 391 
Q 2594 391 2855 752 
Q 3116 1113 3116 1747 
z
M 1159 2969 
Q 1341 3281 1617 3432 
Q 1894 3584 2278 3584 
Q 2916 3584 3314 3078 
Q 3713 2572 3713 1747 
Q 3713 922 3314 415 
Q 2916 -91 2278 -91 
Q 1894 -91 1617 61 
Q 1341 213 1159 525 
L 1159 0 
L 581 0 
L 581 4863 
L 1159 4863 
L 1159 2969 
z
" transform="scale(0.015625)"/>
       <path id="DejaVuSans-69" d="M 603 3500 
L 1178 3500 
L 1178 0 
L 603 0 
L 603 3500 
z
M 603 4863 
L 1178 4863 
L 1178 4134 
L 603 4134 
L 603 4863 
z
" transform="scale(0.015625)"/>
       <path id="DejaVuSans-74" d="M 1172 4494 
L 1172 3500 
L 2356 3500 
L 2356 3053 
L 1172 3053 
L 1172 1153 
Q 1172 725 1289 603 
Q 1406 481 1766 481 
L 2356 481 
L 2356 0 
L 1766 0 
Q 1100 0 847 248 
Q 594 497 594 1153 
L 594 3053 
L 172 3053 
L 172 3500 
L 594 3500 
L 594 4494 
L 1172 4494 
z
" transform="scale(0.015625)"/>
       <path id="DejaVuSans-73" d="M 2834 3397 
L 2834 2853 
Q 2591 2978 2328 3040 
Q 2066 3103 1784 3103 
Q 1356 3103 1142 2972 
Q 928 2841 928 2578 
Q 928 2378 1081 2264 
Q 1234 2150 1697 2047 
L 1894 2003 
Q 2506 1872 2764 1633 
Q 3022 1394 3022 966 
Q 3022 478 2636 193 
Q 2250 -91 1575 -91 
Q 1294 -91 989 -36 
Q 684 19 347 128 
L 347 722 
Q 666 556 975 473 
Q 1284 391 1588 391 
Q 1994 391 2212 530 
Q 2431 669 2431 922 
Q 2431 1156 2273 1281 
Q 2116 1406 1581 1522 
L 1381 1569 
Q 847 1681 609 1914 
Q 372 2147 372 2553 
Q 372 3047 722 3315 
Q 1072 3584 1716 3584 
Q 2034 3584 2315 3537 
Q 2597 3491 2834 3397 
z
" transform="scale(0.015625)"/>
       <path id="DejaVuSans-29" d="M 513 4856 
L 1013 4856 
Q 1481 4119 1714 3412 
Q 1947 2706 1947 2009 
Q 1947 1309 1714 600 
Q 1481 -109 1013 -844 
L 513 -844 
Q 928 -128 1133 580 
Q 1338 1288 1338 2009 
Q 1338 2731 1133 3434 
Q 928 4138 513 4856 
z
" transform="scale(0.015625)"/>
      </defs>
      <use xlink:href="#DejaVuSans-394"/>
      <use xlink:href="#DejaVuSans-4c" transform="translate(68.408203 0)"/>
      <use xlink:href="#DejaVuSans-4c" transform="translate(124.121094 0)"/>
      <use xlink:href="#DejaVuSans-20" transform="translate(179.833984 0)"/>
      <use xlink:href="#DejaVuSans-28" transform="translate(211.621094 0)"/>
      <use xlink:href="#DejaVuSans-62" transform="translate(250.634766 0)"/>
      <use xlink:href="#DejaVuSans-69" transform="translate(314.111328 0)"/>
      <use xlink:href="#DejaVuSans-74" transform="translate(341.894531 0)"/>
      <use xlink:href="#DejaVuSans-73" transform="translate(381.103516 0)"/>
      <use xlink:href="#DejaVuSans-29" transform="translate(433.203125 0)"/>
     </g>
    </g>
   </g>
   <g id="line2d_13">
    <path d="M 167.91917 206.388 
L 167.91917 67.392 
" clip-path="url(#pe6b08e5a17)" style="fill: none; stroke-dasharray: 2.96,1.28; stroke-dashoffset: 0; stroke: #000000; stroke-width: 0.8"/>
   </g>
   <g id="line2d_14">
    <path d="M 89.983636 166.157083 
L 93.980327 168.757379 
L 97.977023 168.475725 
L 101.973713 168.975297 
L 105.97041 166.262121 
L 109.967106 168.138261 
L 113.963796 165.046331 
L 117.960493 168.063234 
L 121.957186 167.327506 
L 125.953882 166.146737 
L 129.950576 168.617192 
L 133.947269 169.221231 
L 137.943962 166.601678 
L 141.940659 168.253151 
L 145.937352 167.231256 
L 149.934045 167.728566 
L 153.93074 167.370096 
L 157.927434 168.66912 
L 161.924129 169.445509 
L 165.920823 169.126008 
L 169.917517 167.120492 
L 173.914211 169.686129 
L 177.910906 166.506174 
L 181.9076 167.510111 
L 185.904294 167.481647 
L 189.900988 168.424862 
L 193.897681 169.765805 
L 197.894377 167.561625 
L 201.891071 168.552125 
L 205.887764 168.338105 
L 209.884457 166.139314 
L 213.881154 168.344856 
L 217.877847 169.200847 
L 221.874543 166.57787 
L 225.871234 168.072464 
L 229.86793 164.68947 
L 233.864626 167.795573 
L 237.861317 167.174154 
L 241.858013 169.194297 
L 245.854704 165.327185 
L 249.8514 166.611894 
L 253.848096 169.319053 
L 257.844787 163.231281 
L 261.841483 164.437924 
L 265.838179 168.355864 
L 269.83487 167.618032 
L 273.83156 167.315486 
L 277.828262 168.366336 
L 281.824953 168.70822 
L 285.821643 166.814352 
L 289.818345 167.626147 
L 293.815036 168.86787 
L 297.811726 168.982923 
L 301.808428 170.531507 
L 305.805119 168.799731 
L 309.801809 168.297502 
L 313.798511 170.041449 
L 317.795202 168.400035 
L 321.791892 168.237341 
L 325.788594 167.974346 
L 329.785285 168.396331 
L 333.781975 169.818889 
L 337.778677 169.033253 
L 341.775368 168.424487 
L 345.772058 168.496506 
L 349.76876 166.829197 
L 353.765451 165.765782 
L 357.762141 167.982869 
L 361.758843 168.9978 
L 365.755534 167.427294 
L 369.752224 168.96998 
L 373.748914 171.311141 
L 377.745605 167.924975 
L 381.742319 168.76382 
L 385.739009 168.008589 
L 389.7357 168.691733 
L 393.73239 168.144743 
L 397.72908 167.934291 
L 401.725771 168.41264 
L 405.722485 169.748996 
L 409.719175 168.583665 
L 413.715866 169.39957 
L 417.712556 168.501696 
L 421.709246 169.41221 
L 425.705937 170.295971 
L 429.702627 168.925975 
L 433.699341 168.151437 
L 437.696032 169.744328 
L 441.692722 165.307162 
L 445.689412 163.076969 
L 449.686103 170.692178 
L 453.682793 167.211189 
L 457.679507 167.102492 
L 461.676198 168.965087 
L 465.672888 168.412586 
L 469.669578 167.206424 
L 473.666269 168.996662 
L 477.662959 169.256829 
L 481.659673 168.672449 
L 485.656364 168.447043 
" clip-path="url(#pe6b08e5a17)" style="fill: none; stroke-dasharray: 1,1.65; stroke-dashoffset: 0; stroke: #1f77b4"/>
   </g>
   <g id="line2d_15">
    <path d="M 89.983636 171.841534 
L 93.980327 169.156855 
L 97.977023 168.647269 
L 101.973713 168.026155 
L 105.97041 163.141624 
L 109.967106 169.26922 
L 113.963796 163.909828 
L 117.960493 167.497285 
L 121.957186 167.539839 
L 125.953882 163.965009 
L 129.950576 165.766359 
L 133.947269 169.487135 
L 137.943962 168.083969 
L 141.940659 168.020622 
L 145.937352 169.522312 
L 149.934045 169.048335 
L 153.93074 166.513699 
L 157.927434 165.739724 
L 161.924129 164.831918 
L 165.920823 167.662668 
L 169.917517 168.868878 
L 173.914211 167.627033 
L 177.910906 169.540184 
L 181.9076 157.492939 
L 185.904294 168.329049 
L 189.900988 162.613789 
L 193.897681 169.76786 
L 197.894377 166.358318 
L 201.891071 161.626584 
L 205.887764 168.932143 
L 209.884457 164.770327 
L 213.881154 164.445807 
L 217.877847 169.024199 
L 221.874543 168.680151 
L 225.871234 166.058873 
L 229.86793 167.294287 
L 233.864626 167.909588 
L 237.861317 153.073469 
L 241.858013 167.153152 
L 245.854704 162.498341 
L 249.8514 167.193389 
L 253.848096 167.221513 
L 257.844787 155.039765 
L 261.841483 170.824311 
L 265.838179 169.821639 
L 269.83487 170.007201 
L 273.83156 170.195931 
L 277.828262 169.921035 
L 281.824953 166.326079 
L 285.821643 168.574851 
L 289.818345 170.127986 
L 293.815036 168.680458 
L 297.811726 171.567489 
L 301.808428 169.263997 
L 305.805119 170.658448 
L 309.801809 170.232165 
L 313.798511 165.775151 
L 317.795202 166.083516 
L 321.791892 170.011655 
L 325.788594 169.26836 
L 329.785285 167.732955 
L 333.781975 165.83961 
L 337.778677 169.195837 
L 341.775368 166.325791 
L 345.772058 165.419448 
L 349.76876 170.901038 
L 353.765451 162.391448 
L 357.762141 166.715603 
L 361.758843 168.726846 
L 365.755534 170.011181 
L 369.752224 167.458532 
L 373.748914 168.93526 
L 377.745605 170.997821 
L 381.742319 168.391406 
L 385.739009 166.7984 
L 389.7357 168.429638 
L 393.73239 163.880077 
L 397.72908 167.817067 
L 401.725771 165.956995 
L 405.722485 166.548036 
L 409.719175 167.477704 
L 413.715866 163.421183 
L 417.712556 169.693538 
L 421.709246 169.572935 
L 425.705937 166.98692 
L 429.702627 170.026903 
L 433.699341 167.60343 
L 437.696032 165.003874 
L 441.692722 167.251107 
L 445.689412 168.39695 
L 449.686103 170.146276 
L 453.682793 166.721093 
L 457.679507 165.249067 
L 461.676198 167.437775 
L 465.672888 168.243222 
L 469.669578 165.020814 
L 473.666269 169.411571 
L 477.662959 167.408644 
L 481.659673 169.253873 
L 485.656364 165.704302 
" clip-path="url(#pe6b08e5a17)" style="fill: none; stroke-dasharray: 1,1.65; stroke-dashoffset: 0; stroke: #ff7f0e"/>
   </g>
   <g id="line2d_16">
    <path d="M 89.983636 175.029601 
L 93.980327 145.664892 
L 97.977023 177.876128 
L 101.973713 167.528063 
L 105.97041 177.303254 
L 109.967106 181.531492 
L 113.963796 178.45083 
L 117.960493 181.656843 
L 121.957186 162.381608 
L 125.953882 180.95274 
L 129.950576 158.557779 
L 133.947269 161.829043 
L 137.943962 174.23053 
L 141.940659 152.549709 
L 145.937352 191.971113 
L 149.934045 197.306715 
L 153.93074 183.235602 
L 157.927434 195.925459 
L 161.924129 161.429184 
L 165.920823 159.791942 
L 169.917517 175.605119 
L 173.914211 167.60062 
L 177.910906 180.806133 
L 181.9076 172.353054 
L 185.904294 169.808508 
L 189.900988 119.10817 
L 193.897681 128.364588 
L 197.894377 128.711375 
L 201.891071 193.907154 
L 205.887764 183.657034 
L 209.884457 187.397755 
L 213.881154 159.824076 
L 217.877847 190.978743 
L 221.874543 167.846625 
L 225.871234 156.60465 
L 229.86793 169.760157 
L 233.864626 178.828562 
L 237.861317 116.289008 
L 241.858013 183.74767 
L 245.854704 180.477911 
L 249.8514 152.397105 
L 253.848096 132.558068 
L 257.844787 184.404022 
L 261.841483 168.666671 
L 265.838179 175.93533 
L 269.83487 154.657277 
L 273.83156 161.954599 
L 277.828262 110.64587 
L 281.824953 190.047993 
L 285.821643 181.669997 
L 289.818345 178.815537 
L 293.815036 193.81811 
L 297.811726 180.800643 
L 301.808428 159.434024 
L 305.805119 122.157111 
L 309.801809 155.570783 
L 313.798511 186.180946 
L 317.795202 171.728114 
L 321.791892 191.678613 
L 325.788594 142.327411 
L 329.785285 167.208777 
L 333.781975 165.612239 
L 337.778677 183.183027 
L 341.775368 138.155487 
L 345.772058 163.129049 
L 349.76876 187.383295 
L 353.765451 190.946446 
L 357.762141 185.3481 
L 361.758843 176.311806 
L 365.755534 165.674694 
L 369.752224 127.182523 
L 373.748914 187.346969 
L 377.745605 197.150428 
L 381.742319 195.845229 
L 385.739009 185.249222 
L 389.7357 193.692549 
L 393.73239 168.236554 
L 397.72908 157.9781 
L 401.725771 176.585251 
L 405.722485 166.781843 
L 409.719175 165.840128 
L 413.715866 169.79536 
L 417.712556 181.073526 
L 421.709246 140.817252 
L 425.705937 180.488425 
L 429.702627 182.85886 
L 433.699341 199.23183 
L 437.696032 185.711765 
L 441.692722 163.708182 
L 445.689412 163.5463 
L 449.686103 191.570924 
L 453.682793 186.886519 
L 457.679507 138.902456 
L 461.676198 182.916405 
L 465.672888 185.72498 
L 469.669578 163.808636 
L 473.666269 181.751614 
L 477.662959 184.748436 
L 481.659673 177.799 
L 485.656364 150.276797 
" clip-path="url(#pe6b08e5a17)" style="fill: none; stroke: #1f77b4; stroke-width: 2.2; stroke-linecap: square"/>
   </g>
   <g id="line2d_17">
    <path d="M 89.983636 138.096677 
L 93.980327 188.300696 
L 97.977023 177.686228 
L 101.973713 169.016516 
L 105.97041 187.938117 
L 109.967106 189.050826 
L 113.963796 147.706057 
L 117.960493 197.751563 
L 121.957186 177.320345 
L 125.953882 192.72495 
L 129.950576 144.522442 
L 133.947269 190.400791 
L 137.943962 186.987586 
L 141.940659 126.900961 
L 145.937352 157.558469 
L 149.934045 132.432856 
L 153.93074 181.739559 
L 157.927434 113.618827 
L 161.924129 155.714282 
L 165.920823 186.788454 
L 169.917517 171.814941 
L 173.914211 143.302025 
L 177.910906 167.226032 
L 181.9076 169.30321 
L 185.904294 167.922595 
L 189.900988 157.500492 
L 193.897681 171.92252 
L 197.894377 162.113414 
L 201.891071 141.146898 
L 205.887764 167.196427 
L 209.884457 141.691596 
L 213.881154 162.397078 
L 217.877847 172.060503 
L 221.874543 162.205203 
L 225.871234 175.990393 
L 229.86793 173.44895 
L 233.864626 178.377041 
L 237.861317 185.474857 
L 241.858013 114.446656 
L 245.854704 73.71 
L 249.8514 127.476523 
L 253.848096 172.460471 
L 257.844787 181.127782 
L 261.841483 173.114244 
L 265.838179 194.418421 
L 269.83487 160.652052 
L 273.83156 174.197685 
L 277.828262 167.777144 
L 281.824953 108.199118 
L 285.821643 163.28861 
L 289.818345 179.597231 
L 293.815036 162.54892 
L 297.811726 154.531838 
L 301.808428 175.763862 
L 305.805119 165.649114 
L 309.801809 193.035433 
L 313.798511 161.738515 
L 317.795202 188.828776 
L 321.791892 143.514644 
L 325.788594 125.868718 
L 329.785285 191.879853 
L 333.781975 185.941871 
L 337.778677 195.552669 
L 341.775368 131.191952 
L 345.772058 162.788326 
L 349.76876 153.194264 
L 353.765451 132.946905 
L 357.762141 165.093747 
L 361.758843 180.124463 
L 365.755534 134.816832 
L 369.752224 139.128315 
L 373.748914 178.175006 
L 377.745605 185.860957 
L 381.742319 200.07 
L 385.739009 165.688128 
L 389.7357 171.307795 
L 393.73239 169.44563 
L 397.72908 177.403632 
L 401.725771 168.657861 
L 405.722485 144.815409 
L 409.719175 187.627131 
L 413.715866 189.434609 
L 417.712556 193.415452 
L 421.709246 190.685317 
L 425.705937 162.548759 
L 429.702627 181.976597 
L 433.699341 143.333398 
L 437.696032 167.320282 
L 441.692722 108.892514 
L 445.689412 176.757154 
L 449.686103 175.480653 
L 453.682793 197.098973 
L 457.679507 176.907944 
L 461.676198 124.105747 
L 465.672888 173.587875 
L 469.669578 172.59342 
L 473.666269 165.38081 
L 477.662959 175.736725 
L 481.659673 185.782715 
L 485.656364 186.52663 
" clip-path="url(#pe6b08e5a17)" style="fill: none; stroke: #ff7f0e; stroke-width: 2.2; stroke-linecap: square"/>
   </g>
   <g id="patch_3">
    <path d="M 70.2 206.388 
L 70.2 67.392 
" style="fill: none; stroke: #000000; stroke-width: 0.8; stroke-linejoin: miter; stroke-linecap: square"/>
   </g>
   <g id="patch_4">
    <path d="M 505.44 206.388 
L 505.44 67.392 
" style="fill: none; stroke: #000000; stroke-width: 0.8; stroke-linejoin: miter; stroke-linecap: square"/>
   </g>
   <g id="patch_5">
    <path d="M 70.2 206.388 
L 505.44 206.388 
" style="fill: none; stroke: #000000; stroke-width: 0.8; stroke-linejoin: miter; stroke-linecap: square"/>
   </g>
   <g id="patch_6">
    <path d="M 70.2 67.392 
L 505.44 67.392 
" style="fill: none; stroke: #000000; stroke-width: 0.8; stroke-linejoin: miter; stroke-linecap: square"/>
   </g>
   <g id="text_14">
    <!-- (SFEF vs SLIP) — C-flow — Panel A: overlay + null bands -->
    <g transform="translate(119.059688 61.392) scale(0.12 -0.12)">
     <defs>
      <path id="DejaVuSans-53" d="M 3425 4513 
L 3425 3897 
Q 3066 4069 2747 4153 
Q 2428 4238 2131 4238 
Q 1616 4238 1336 4038 
Q 1056 3838 1056 3469 
Q 1056 3159 1242 3001 
Q 1428 2844 1947 2747 
L 2328 2669 
Q 3034 2534 3370 2195 
Q 3706 1856 3706 1288 
Q 3706 609 3251 259 
Q 2797 -91 1919 -91 
Q 1588 -91 1214 -16 
Q 841 59 441 206 
L 441 856 
Q 825 641 1194 531 
Q 1563 422 1919 422 
Q 2459 422 2753 634 
Q 3047 847 3047 1241 
Q 3047 1584 2836 1778 
Q 2625 1972 2144 2069 
L 1759 2144 
Q 1053 2284 737 2584 
Q 422 2884 422 3419 
Q 422 4038 858 4394 
Q 1294 4750 2059 4750 
Q 2388 4750 2728 4690 
Q 3069 4631 3425 4513 
z
" transform="scale(0.015625)"/>
      <path id="DejaVuSans-46" d="M 628 4666 
L 3309 4666 
L 3309 4134 
L 1259 4134 
L 1259 2759 
L 3109 2759 
L 3109 2228 
L 1259 2228 
L 1259 0 
L 628 0 
L 628 4666 
z
" transform="scale(0.015625)"/>
      <path id="DejaVuSans-45" d="M 628 4666 
L 3578 4666 
L 3578 4134 
L 1259 4134 
L 1259 2753 
L 3481 2753 
L 3481 2222 
L 1259 2222 
L 1259 531 
L 3634 531 
L 3634 0 
L 628 0 
L 628 4666 
z
" transform="scale(0.015625)"/>
      <path id="DejaVuSans-76" d="M 191 3500 
L 800 3500 
L 1894 563 
L 2988 3500 
L 3597 3500 
L 2284 0 
L 1503 0 
L 191 3500 
z
" transform="scale(0.015625)"/>
      <path id="DejaVuSans-49" d="M 628 4666 
L 1259 4666 
L 1259 0 
L 628 0 
L 628 4666 
z
" transform="scale(0.015625)"/>
      <path id="DejaVuSans-50" d="M 1259 4147 
L 1259 2394 
L 2053 2394 
Q 2494 2394 2734 2622 
Q 2975 2850 2975 3272 
Q 2975 3691 2734 3919 
Q 2494 4147 2053 4147 
L 1259 4147 
z
M 628 4666 
L 2053 4666 
Q 2838 4666 3239 4311 
Q 3641 3956 3641 3272 
Q 3641 2581 3239 2228 
Q 2838 1875 2053 1875 
L 1259 1875 
L 1259 0 
L 628 0 
L 628 4666 
z
" transform="scale(0.015625)"/>
      <path id="DejaVuSans-2014" d="M 313 1978 
L 6088 1978 
L 6088 1528 
L 313 1528 
L 313 1978 
z
" transform="scale(0.015625)"/>
      <path id="DejaVuSans-43" d="M 4122 4306 
L 4122 3641 
Q 3803 3938 3442 4084 
Q 3081 4231 2675 4231 
Q 1875 4231 1450 3742 
Q 1025 3253 1025 2328 
Q 1025 1406 1450 917 
Q 1875 428 2675 428 
Q 3081 428 3442 575 
Q 3803 722 4122 1019 
L 4122 359 
Q 3791 134 3420 21 
Q 3050 -91 2638 -91 
Q 1578 -91 968 557 
Q 359 1206 359 2328 
Q 359 3453 968 4101 
Q 1578 4750 2638 4750 
Q 3056 4750 3426 4639 
Q 3797 4528 4122 4306 
z
" transform="scale(0.015625)"/>
      <path id="DejaVuSans-2d" d="M 313 2009 
L 1997 2009 
L 1997 1497 
L 313 1497 
L 313 2009 
z
" transform="scale(0.015625)"/>
      <path id="DejaVuSans-66" d="M 2375 4863 
L 2375 4384 
L 1825 4384 
Q 1516 4384 1395 4259 
Q 1275 4134 1275 3809 
L 1275 3500 
L 2222 3500 
L 2222 3053 
L 1275 3053 
L 1275 0 
L 697 0 
L 697 3053 
L 147 3053 
L 147 3500 
L 697 3500 
L 697 3744 
Q 697 4328 969 4595 
Q 1241 4863 1831 4863 
L 2375 4863 
z
" transform="scale(0.015625)"/>
      <path id="DejaVuSans-6c" d="M 603 4863 
L 1178 4863 
L 1178 0 
L 603 0 
L 603 4863 
z
" transform="scale(0.015625)"/>
      <path id="DejaVuSans-6f" d="M 1959 3097 
Q 1497 3097 1228 2736 
Q 959 2375 959 1747 
Q 959 1119 1226 758 
Q 1494 397 1959 397 
Q 2419 397 2687 759 
Q 2956 1122 2956 1747 
Q 2956 2369 2687 2733 
Q 2419 3097 1959 3097 
z
M 1959 3584 
Q 2709 3584 3137 3096 
Q 3566 2609 3566 1747 
Q 3566 888 3137 398 
Q 2709 -91 1959 -91 
Q 1206 -91 779 398 
Q 353 888 353 1747 
Q 353 2609 779 3096 
Q 1206 3584 1959 3584 
z
" transform="scale(0.015625)"/>
      <path id="DejaVuSans-77" d="M 269 3500 
L 844 3500 
L 1563 769 
L 2278 3500 
L 2956 3500 
L 3675 769 
L 4391 3500 
L 4966 3500 
L 4050 0 
L 3372 0 
L 2619 2869 
L 1863 0 
L 1184 0 
L 269 3500 
z
" transform="scale(0.015625)"/>
      <path id="DejaVuSans-61" d="M 2194 1759 
Q 1497 1759 1228 1600 
Q 959 1441 959 1056 
Q 959 750 1161 570 
Q 1363 391 1709 391 
Q 2188 391 2477 730 
Q 2766 1069 2766 1631 
L 2766 1759 
L 2194 1759 
z
M 3341 1997 
L 3341 0 
L 2766 0 
L 2766 531 
Q 2569 213 2275 61 
Q 1981 -91 1556 -91 
Q 1019 -91 701 211 
Q 384 513 384 1019 
Q 384 1609 779 1909 
Q 1175 2209 1959 2209 
L 2766 2209 
L 2766 2266 
Q 2766 2663 2505 2880 
Q 2244 3097 1772 3097 
Q 1472 3097 1187 3025 
Q 903 2953 641 2809 
L 641 3341 
Q 956 3463 1253 3523 
Q 1550 3584 1831 3584 
Q 2591 3584 2966 3190 
Q 3341 2797 3341 1997 
z
" transform="scale(0.015625)"/>
      <path id="DejaVuSans-6e" d="M 3513 2113 
L 3513 0 
L 2938 0 
L 2938 2094 
Q 2938 2591 2744 2837 
Q 2550 3084 2163 3084 
Q 1697 3084 1428 2787 
Q 1159 2491 1159 1978 
L 1159 0 
L 581 0 
L 581 3500 
L 1159 3500 
L 1159 2956 
Q 1366 3272 1645 3428 
Q 1925 3584 2291 3584 
Q 2894 3584 3203 3211 
Q 3513 2838 3513 2113 
z
" transform="scale(0.015625)"/>
      <path id="DejaVuSans-65" d="M 3597 1894 
L 3597 1613 
L 953 1613 
Q 991 1019 1311 708 
Q 1631 397 2203 397 
Q 2534 397 2845 478 
Q 3156 559 3463 722 
L 3463 178 
Q 3153 47 2828 -22 
Q 2503 -91 2169 -91 
Q 1331 -91 842 396 
Q 353 884 353 1716 
Q 353 2575 817 3079 
Q 1281 3584 2069 3584 
Q 2775 3584 3186 3129 
Q 3597 2675 3597 1894 
z
M 3022 2063 
Q 3016 2534 2758 2815 
Q 2500 3097 2075 3097 
Q 1594 3097 1305 2825 
Q 1016 2553 972 2059 
L 3022 2063 
z
" transform="scale(0.015625)"/>
      <path id="DejaVuSans-41" d="M 2188 4044 
L 1331 1722 
L 3047 1722 
L 2188 4044 
z
M 1831 4666 
L 2547 4666 
L 4325 0 
L 3669 0 
L 3244 1197 
L 1141 1197 
L 716 0 
L 50 0 
L 1831 4666 
z
" transform="scale(0.015625)"/>
      <path id="DejaVuSans-3a" d="M 750 794 
L 1409 794 
L 1409 0 
L 750 0 
L 750 794 
z
M 750 3309 
L 1409 3309 
L 1409 2516 
L 750 2516 
L 750 3309 
z
" transform="scale(0.015625)"/>
      <path id="DejaVuSans-72" d="M 2631 2963 
Q 2534 3019 2420 3045 
Q 2306 3072 2169 3072 
Q 1681 3072 1420 2755 
Q 1159 2438 1159 1844 
L 1159 0 
L 581 0 
L 581 3500 
L 1159 3500 
L 1159 2956 
Q 1341 3275 1631 3429 
Q 1922 3584 2338 3584 
Q 2397 3584 2469 3576 
Q 2541 3569 2628 3553 
L 2631 2963 
z
" transform="scale(0.015625)"/>
      <path id="DejaVuSans-79" d="M 2059 -325 
Q 1816 -950 1584 -1140 
Q 1353 -1331 966 -1331 
L 506 -1331 
L 506 -850 
L 844 -850 
Q 1081 -850 1212 -737 
Q 1344 -625 1503 -206 
L 1606 56 
L 191 3500 
L 800 3500 
L 1894 763 
L 2988 3500 
L 3597 3500 
L 2059 -325 
z
" transform="scale(0.015625)"/>
      <path id="DejaVuSans-2b" d="M 2944 4013 
L 2944 2272 
L 4684 2272 
L 4684 1741 
L 2944 1741 
L 2944 0 
L 2419 0 
L 2419 1741 
L 678 1741 
L 678 2272 
L 2419 2272 
L 2419 4013 
L 2944 4013 
z
" transform="scale(0.015625)"/>
      <path id="DejaVuSans-75" d="M 544 1381 
L 544 3500 
L 1119 3500 
L 1119 1403 
Q 1119 906 1312 657 
Q 1506 409 1894 409 
Q 2359 409 2629 706 
Q 2900 1003 2900 1516 
L 2900 3500 
L 3475 3500 
L 3475 0 
L 2900 0 
L 2900 538 
Q 2691 219 2414 64 
Q 2138 -91 1772 -91 
Q 1169 -91 856 284 
Q 544 659 544 1381 
z
M 1991 3584 
L 1991 3584 
z
" transform="scale(0.015625)"/>
      <path id="DejaVuSans-64" d="M 2906 2969 
L 2906 4863 
L 3481 4863 
L 3481 0 
L 2906 0 
L 2906 525 
Q 2725 213 2448 61 
Q 2172 -91 1784 -91 
Q 1150 -91 751 415 
Q 353 922 353 1747 
Q 353 2572 751 3078 
Q 1150 3584 1784 3584 
Q 2172 3584 2448 3432 
Q 2725 3281 2906 2969 
z
M 947 1747 
Q 947 1113 1208 752 
Q 1469 391 1925 391 
Q 2381 391 2643 752 
Q 2906 1113 2906 1747 
Q 2906 2381 2643 2742 
Q 2381 3103 1925 3103 
Q 1469 3103 1208 2742 
Q 947 2381 947 1747 
z
" transform="scale(0.015625)"/>
     </defs>
     <use xlink:href="#DejaVuSans-28"/>
     <use xlink:href="#DejaVuSans-53" transform="translate(39.013672 0)"/>
     <use xlink:href="#DejaVuSans-46" transform="translate(102.490234 0)"/>
     <use xlink:href="#DejaVuSans-45" transform="translate(160.009766 0)"/>
     <use xlink:href="#DejaVuSans-46" transform="translate(223.193359 0)"/>
     <use xlink:href="#DejaVuSans-20" transform="translate(280.712891 0)"/>
     <use xlink:href="#DejaVuSans-76" transform="translate(312.5 0)"/>
     <use xlink:href="#DejaVuSans-73" transform="translate(371.679688 0)"/>
     <use xlink:href="#DejaVuSans-20" transform="translate(423.779297 0)"/>
     <use xlink:href="#DejaVuSans-53" transform="translate(455.566406 0)"/>
     <use xlink:href="#DejaVuSans-4c" transform="translate(519.042969 0)"/>
     <use xlink:href="#DejaVuSans-49" transform="translate(574.755859 0)"/>
     <use xlink:href="#DejaVuSans-50" transform="translate(604.248047 0)"/>
     <use xlink:href="#DejaVuSans-29" transform="translate(664.550781 0)"/>
     <use xlink:href="#DejaVuSans-20" transform="translate(703.564453 0)"/>
     <use xlink:href="#DejaVuSans-2014" transform="translate(735.351562 0)"/>
     <use xlink:href="#DejaVuSans-20" transform="translate(835.351562 0)"/>
     <use xlink:href="#DejaVuSans-43" transform="translate(867.138672 0)"/>
     <use xlink:href="#DejaVuSans-2d" transform="translate(936.962891 0)"/>
     <use xlink:href="#DejaVuSans-66" transform="translate(973.046875 0)"/>
     <use xlink:href="#DejaVuSans-6c" transform="translate(1008.251953 0)"/>
     <use xlink:href="#DejaVuSans-6f" transform="translate(1036.035156 0)"/>
     <use xlink:href="#DejaVuSans-77" transform="translate(1097.216797 0)"/>
     <use xlink:href="#DejaVuSans-20" transform="translate(1179.003906 0)"/>
     <use xlink:href="#DejaVuSans-2014" transform="translate(1210.791016 0)"/>
     <use xlink:href="#DejaVuSans-20" transform="translate(1310.791016 0)"/>
     <use xlink:href="#DejaVuSans-50" transform="translate(1342.578125 0)"/>
     <use xlink:href="#DejaVuSans-61" transform="translate(1398.380859 0)"/>
     <use xlink:href="#DejaVuSans-6e" transform="translate(1459.660156 0)"/>
     <use xlink:href="#DejaVuSans-65" transform="translate(1523.039062 0)"/>
     <use xlink:href="#DejaVuSans-6c" transform="translate(1584.5625 0)"/>
     <use xlink:href="#DejaVuSans-20" transform="translate(1612.345703 0)"/>
     <use xlink:href="#DejaVuSans-41" transform="translate(1644.132812 0)"/>
     <use xlink:href="#DejaVuSans-3a" transform="translate(1710.791016 0)"/>
     <use xlink:href="#DejaVuSans-20" transform="translate(1744.482422 0)"/>
     <use xlink:href="#DejaVuSans-6f" transform="translate(1776.269531 0)"/>
     <use xlink:href="#DejaVuSans-76" transform="translate(1837.451172 0)"/>
     <use xlink:href="#DejaVuSans-65" transform="translate(1896.630859 0)"/>
     <use xlink:href="#DejaVuSans-72" transform="translate(1958.154297 0)"/>
     <use xlink:href="#DejaVuSans-6c" transform="translate(1999.267578 0)"/>
     <use xlink:href="#DejaVuSans-61" transform="translate(2027.050781 0)"/>
     <use xlink:href="#DejaVuSans-79" transform="translate(2088.330078 0)"/>
     <use xlink:href="#DejaVuSans-20" transform="translate(2147.509766 0)"/>
     <use xlink:href="#DejaVuSans-2b" transform="translate(2179.296875 0)"/>
     <use xlink:href="#DejaVuSans-20" transform="translate(2263.085938 0)"/>
     <use xlink:href="#DejaVuSans-6e" transform="translate(2294.873047 0)"/>
     <use xlink:href="#DejaVuSans-75" transform="translate(2358.251953 0)"/>
     <use xlink:href="#DejaVuSans-6c" transform="translate(2421.630859 0)"/>
     <use xlink:href="#DejaVuSans-6c" transform="translate(2449.414062 0)"/>
     <use xlink:href="#DejaVuSans-20" transform="translate(2477.197266 0)"/>
     <use xlink:href="#DejaVuSans-62" transform="translate(2508.984375 0)"/>
     <use xlink:href="#DejaVuSans-61" transform="translate(2572.460938 0)"/>
     <use xlink:href="#DejaVuSans-6e" transform="translate(2633.740234 0)"/>
     <use xlink:href="#DejaVuSans-64" transform="translate(2697.119141 0)"/>
     <use xlink:href="#DejaVuSans-73" transform="translate(2760.595703 0)"/>
    </g>
   </g>
   <g id="legend_1">
    <g id="patch_7">
     <path d="M 79.2 83.990437 
L 99.2 83.990437 
L 99.2 76.990437 
L 79.2 76.990437 
z
" style="fill: #1f77b4; fill-opacity: 0.15"/>
    </g>
    <g id="text_15">
     <!-- SFEF→SLIP null μ±σ -->
     <g transform="translate(107.2 83.990437) scale(0.1 -0.1)">
      <defs>
       <path id="DejaVuSans-2192" d="M 5050 2147 
L 5050 1866 
L 3822 638 
L 3447 1013 
L 4175 1741 
L 366 1741 
L 366 2272 
L 4175 2272 
L 3447 3000 
L 3822 3375 
L 5050 2147 
z
" transform="scale(0.015625)"/>
       <path id="DejaVuSans-3bc" d="M 544 -1331 
L 544 3500 
L 1119 3500 
L 1119 1325 
Q 1119 872 1334 640 
Q 1550 409 1972 409 
Q 2434 409 2667 671 
Q 2900 934 2900 1459 
L 2900 3500 
L 3475 3500 
L 3475 806 
Q 3475 619 3529 530 
Q 3584 441 3700 441 
Q 3728 441 3778 458 
Q 3828 475 3916 513 
L 3916 50 
Q 3788 -22 3673 -56 
Q 3559 -91 3450 -91 
Q 3234 -91 3106 31 
Q 2978 153 2931 403 
Q 2775 156 2548 32 
Q 2322 -91 2016 -91 
Q 1697 -91 1473 31 
Q 1250 153 1119 397 
L 1119 -1331 
L 544 -1331 
z
" transform="scale(0.015625)"/>
       <path id="DejaVuSans-b1" d="M 2944 4013 
L 2944 2803 
L 4684 2803 
L 4684 2272 
L 2944 2272 
L 2944 1063 
L 2419 1063 
L 2419 2272 
L 678 2272 
L 678 2803 
L 2419 2803 
L 2419 4013 
L 2944 4013 
z
M 678 531 
L 4684 531 
L 4684 0 
L 678 0 
L 678 531 
z
" transform="scale(0.015625)"/>
       <path id="DejaVuSans-3c3" d="M 1959 3044 
Q 1484 3044 1228 2700 
Q 959 2341 959 1747 
Q 959 1119 1226 758 
Q 1494 397 1959 397 
Q 2419 397 2687 759 
Q 2956 1122 2956 1747 
Q 2956 2319 2688 2700 
Q 2441 3044 1959 3044 
z
M 1959 3500 
L 3869 3500 
L 3869 2925 
L 3225 2925 
Q 3566 2438 3566 1747 
Q 3566 888 3138 400 
Q 2709 -91 1959 -91 
Q 1206 -91 781 400 
Q 353 888 353 1747 
Q 353 2613 781 3097 
Q 1134 3500 1959 3500 
z
" transform="scale(0.015625)"/>
      </defs>
      <use xlink:href="#DejaVuSans-53"/>
      <use xlink:href="#DejaVuSans-46" transform="translate(63.476562 0)"/>
      <use xlink:href="#DejaVuSans-45" transform="translate(120.996094 0)"/>
      <use xlink:href="#DejaVuSans-46" transform="translate(184.179688 0)"/>
      <use xlink:href="#DejaVuSans-2192" transform="translate(241.699219 0)"/>
      <use xlink:href="#DejaVuSans-53" transform="translate(325.488281 0)"/>
      <use xlink:href="#DejaVuSans-4c" transform="translate(388.964844 0)"/>
      <use xlink:href="#DejaVuSans-49" transform="translate(444.677734 0)"/>
      <use xlink:href="#DejaVuSans-50" transform="translate(474.169922 0)"/>
      <use xlink:href="#DejaVuSans-20" transform="translate(534.472656 0)"/>
      <use xlink:href="#DejaVuSans-6e" transform="translate(566.259766 0)"/>
      <use xlink:href="#DejaVuSans-75" transform="translate(629.638672 0)"/>
      <use xlink:href="#DejaVuSans-6c" transform="translate(693.017578 0)"/>
      <use xlink:href="#DejaVuSans-6c" transform="translate(720.800781 0)"/>
      <use xlink:href="#DejaVuSans-20" transform="translate(748.583984 0)"/>
      <use xlink:href="#DejaVuSans-3bc" transform="translate(780.371094 0)"/>
      <use xlink:href="#DejaVuSans-b1" transform="translate(843.994141 0)"/>
      <use xlink:href="#DejaVuSans-3c3" transform="translate(927.783203 0)"/>
     </g>
    </g>
    <g id="patch_8">
     <path d="M 79.2 98.668563 
L 99.2 98.668563 
L 99.2 91.668563 
L 79.2 91.668563 
z
" style="fill: #ff7f0e; fill-opacity: 0.15"/>
    </g>
    <g id="text_16">
     <!-- SLIP→SFEF null μ±σ -->
     <g transform="translate(107.2 98.668563) scale(0.1 -0.1)">
      <use xlink:href="#DejaVuSans-53"/>
      <use xlink:href="#DejaVuSans-4c" transform="translate(63.476562 0)"/>
      <use xlink:href="#DejaVuSans-49" transform="translate(119.189453 0)"/>
      <use xlink:href="#DejaVuSans-50" transform="translate(148.681641 0)"/>
      <use xlink:href="#DejaVuSans-2192" transform="translate(208.984375 0)"/>
      <use xlink:href="#DejaVuSans-53" transform="translate(292.773438 0)"/>
      <use xlink:href="#DejaVuSans-46" transform="translate(356.25 0)"/>
      <use xlink:href="#DejaVuSans-45" transform="translate(413.769531 0)"/>
      <use xlink:href="#DejaVuSans-46" transform="translate(476.953125 0)"/>
      <use xlink:href="#DejaVuSans-20" transform="translate(534.472656 0)"/>
      <use xlink:href="#DejaVuSans-6e" transform="translate(566.259766 0)"/>
      <use xlink:href="#DejaVuSans-75" transform="translate(629.638672 0)"/>
      <use xlink:href="#DejaVuSans-6c" transform="translate(693.017578 0)"/>
      <use xlink:href="#DejaVuSans-6c" transform="translate(720.800781 0)"/>
      <use xlink:href="#DejaVuSans-20" transform="translate(748.583984 0)"/>
      <use xlink:href="#DejaVuSans-3bc" transform="translate(780.371094 0)"/>
      <use xlink:href="#DejaVuSans-b1" transform="translate(843.994141 0)"/>
      <use xlink:href="#DejaVuSans-3c3" transform="translate(927.783203 0)"/>
     </g>
    </g>
    <g id="line2d_18">
     <path d="M 226.317187 80.490437 
L 236.317187 80.490437 
L 246.317187 80.490437 
" style="fill: none; stroke: #1f77b4; stroke-width: 2.2; stroke-linecap: square"/>
    </g>
    <g id="text_17">
     <!-- SFEF→SLIP -->
     <g transform="translate(254.317187 83.990437) scale(0.1 -0.1)">
      <use xlink:href="#DejaVuSans-53"/>
      <use xlink:href="#DejaVuSans-46" transform="translate(63.476562 0)"/>
      <use xlink:href="#DejaVuSans-45" transform="translate(120.996094 0)"/>
      <use xlink:href="#DejaVuSans-46" transform="translate(184.179688 0)"/>
      <use xlink:href="#DejaVuSans-2192" transform="translate(241.699219 0)"/>
      <use xlink:href="#DejaVuSans-53" transform="translate(325.488281 0)"/>
      <use xlink:href="#DejaVuSans-4c" transform="translate(388.964844 0)"/>
      <use xlink:href="#DejaVuSans-49" transform="translate(444.677734 0)"/>
      <use xlink:href="#DejaVuSans-50" transform="translate(474.169922 0)"/>
     </g>
    </g>
    <g id="line2d_19">
     <path d="M 226.317187 95.168563 
L 236.317187 95.168563 
L 246.317187 95.168563 
" style="fill: none; stroke: #ff7f0e; stroke-width: 2.2; stroke-linecap: square"/>
    </g>
    <g id="text_18">
     <!-- SLIP→SFEF -->
     <g transform="translate(254.317187 98.668563) scale(0.1 -0.1)">
      <use xlink:href="#DejaVuSans-53"/>
      <use xlink:href="#DejaVuSans-4c" transform="translate(63.476562 0)"/>
      <use xlink:href="#DejaVuSans-49" transform="translate(119.189453 0)"/>
      <use xlink:href="#DejaVuSans-50" transform="translate(148.681641 0)"/>
      <use xlink:href="#DejaVuSans-2192" transform="translate(208.984375 0)"/>
      <use xlink:href="#DejaVuSans-53" transform="translate(292.773438 0)"/>
      <use xlink:href="#DejaVuSans-46" transform="translate(356.25 0)"/>
      <use xlink:href="#DejaVuSans-45" transform="translate(413.769531 0)"/>
      <use xlink:href="#DejaVuSans-46" transform="translate(476.953125 0)"/>
     </g>
    </g>
   </g>
  </g>
  <g id="axes_2">
   <g id="patch_9">
    <path d="M 70.2 353.106 
L 505.44 353.106 
L 505.44 237.276 
L 70.2 237.276 
z
" style="fill: #ffffff"/>
   </g>
   <g id="matplotlib.axis_3">
    <g id="xtick_7">
     <g id="line2d_20">
      <g>
       <use xlink:href="#m69f988ee9c" x="87.985286" y="353.106" style="stroke: #000000; stroke-width: 0.8"/>
      </g>
     </g>
     <g id="text_19">
      <!-- −200 -->
      <g transform="translate(74.251693 367.704438) scale(0.1 -0.1)">
       <use xlink:href="#DejaVuSans-2212"/>
       <use xlink:href="#DejaVuSans-32" transform="translate(83.789062 0)"/>
       <use xlink:href="#DejaVuSans-30" transform="translate(147.412109 0)"/>
       <use xlink:href="#DejaVuSans-30" transform="translate(211.035156 0)"/>
      </g>
     </g>
    </g>
    <g id="xtick_8">
     <g id="line2d_21">
      <g>
       <use xlink:href="#m69f988ee9c" x="167.91917" y="353.106" style="stroke: #000000; stroke-width: 0.8"/>
      </g>
     </g>
     <g id="text_20">
      <!-- 0 -->
      <g transform="translate(164.73792 367.704438) scale(0.1 -0.1)">
       <use xlink:href="#DejaVuSans-30"/>
      </g>
     </g>
    </g>
    <g id="xtick_9">
     <g id="line2d_22">
      <g>
       <use xlink:href="#m69f988ee9c" x="247.853053" y="353.106" style="stroke: #000000; stroke-width: 0.8"/>
      </g>
     </g>
     <g id="text_21">
      <!-- 200 -->
      <g transform="translate(238.309303 367.704438) scale(0.1 -0.1)">
       <use xlink:href="#DejaVuSans-32"/>
       <use xlink:href="#DejaVuSans-30" transform="translate(63.623047 0)"/>
       <use xlink:href="#DejaVuSans-30" transform="translate(127.246094 0)"/>
      </g>
     </g>
    </g>
    <g id="xtick_10">
     <g id="line2d_23">
      <g>
       <use xlink:href="#m69f988ee9c" x="327.786937" y="353.106" style="stroke: #000000; stroke-width: 0.8"/>
      </g>
     </g>
     <g id="text_22">
      <!-- 400 -->
      <g transform="translate(318.243187 367.704438) scale(0.1 -0.1)">
       <use xlink:href="#DejaVuSans-34"/>
       <use xlink:href="#DejaVuSans-30" transform="translate(63.623047 0)"/>
       <use xlink:href="#DejaVuSans-30" transform="translate(127.246094 0)"/>
      </g>
     </g>
    </g>
    <g id="xtick_11">
     <g id="line2d_24">
      <g>
       <use xlink:href="#m69f988ee9c" x="407.720821" y="353.106" style="stroke: #000000; stroke-width: 0.8"/>
      </g>
     </g>
     <g id="text_23">
      <!-- 600 -->
      <g transform="translate(398.177071 367.704438) scale(0.1 -0.1)">
       <use xlink:href="#DejaVuSans-36"/>
       <use xlink:href="#DejaVuSans-30" transform="translate(63.623047 0)"/>
       <use xlink:href="#DejaVuSans-30" transform="translate(127.246094 0)"/>
      </g>
     </g>
    </g>
    <g id="xtick_12">
     <g id="line2d_25">
      <g>
       <use xlink:href="#m69f988ee9c" x="487.654704" y="353.106" style="stroke: #000000; stroke-width: 0.8"/>
      </g>
     </g>
     <g id="text_24">
      <!-- 800 -->
      <g transform="translate(478.110954 367.704438) scale(0.1 -0.1)">
       <use xlink:href="#DejaVuSans-38"/>
       <use xlink:href="#DejaVuSans-30" transform="translate(63.623047 0)"/>
       <use xlink:href="#DejaVuSans-30" transform="translate(127.246094 0)"/>
      </g>
     </g>
    </g>
   </g>
   <g id="matplotlib.axis_4">
    <g id="ytick_7">
     <g id="line2d_26">
      <g>
       <use xlink:href="#m5544da8b4a" x="70.2" y="339.443725" style="stroke: #000000; stroke-width: 0.8"/>
      </g>
     </g>
     <g id="text_25">
      <!-- −10 -->
      <g transform="translate(42.095313 343.242944) scale(0.1 -0.1)">
       <use xlink:href="#DejaVuSans-2212"/>
       <use xlink:href="#DejaVuSans-31" transform="translate(83.789062 0)"/>
       <use xlink:href="#DejaVuSans-30" transform="translate(147.412109 0)"/>
      </g>
     </g>
    </g>
    <g id="ytick_8">
     <g id="line2d_27">
      <g>
       <use xlink:href="#m5544da8b4a" x="70.2" y="311.694591" style="stroke: #000000; stroke-width: 0.8"/>
      </g>
     </g>
     <g id="text_26">
      <!-- −5 -->
      <g transform="translate(48.457813 315.49381) scale(0.1 -0.1)">
       <use xlink:href="#DejaVuSans-2212"/>
       <use xlink:href="#DejaVuSans-35" transform="translate(83.789062 0)"/>
      </g>
     </g>
    </g>
    <g id="ytick_9">
     <g id="line2d_28">
      <g>
       <use xlink:href="#m5544da8b4a" x="70.2" y="283.945457" style="stroke: #000000; stroke-width: 0.8"/>
      </g>
     </g>
     <g id="text_27">
      <!-- 0 -->
      <g transform="translate(56.8375 287.744676) scale(0.1 -0.1)">
       <use xlink:href="#DejaVuSans-30"/>
      </g>
     </g>
    </g>
    <g id="ytick_10">
     <g id="line2d_29">
      <g>
       <use xlink:href="#m5544da8b4a" x="70.2" y="256.196323" style="stroke: #000000; stroke-width: 0.8"/>
      </g>
     </g>
     <g id="text_28">
      <!-- 5 -->
      <g transform="translate(56.8375 259.995542) scale(0.1 -0.1)">
       <use xlink:href="#DejaVuSans-35"/>
      </g>
     </g>
    </g>
    <g id="text_29">
     <!-- ΔΔLL (bits) -->
     <g transform="translate(36.015625 322.22225) rotate(-90) scale(0.1 -0.1)">
      <use xlink:href="#DejaVuSans-394"/>
      <use xlink:href="#DejaVuSans-394" transform="translate(68.408203 0)"/>
      <use xlink:href="#DejaVuSans-4c" transform="translate(136.816406 0)"/>
      <use xlink:href="#DejaVuSans-4c" transform="translate(192.529297 0)"/>
      <use xlink:href="#DejaVuSans-20" transform="translate(248.242188 0)"/>
      <use xlink:href="#DejaVuSans-28" transform="translate(280.029297 0)"/>
      <use xlink:href="#DejaVuSans-62" transform="translate(319.042969 0)"/>
      <use xlink:href="#DejaVuSans-69" transform="translate(382.519531 0)"/>
      <use xlink:href="#DejaVuSans-74" transform="translate(410.302734 0)"/>
      <use xlink:href="#DejaVuSans-73" transform="translate(449.511719 0)"/>
      <use xlink:href="#DejaVuSans-29" transform="translate(501.611328 0)"/>
     </g>
    </g>
   </g>
   <g id="line2d_30">
    <path d="M 167.91917 353.106 
L 167.91917 237.276 
" clip-path="url(#p77891274d7)" style="fill: none; stroke-dasharray: 2.96,1.28; stroke-dashoffset: 0; stroke: #000000; stroke-width: 0.8"/>
   </g>
   <g id="line2d_31">
    <path d="M 70.2 283.945457 
L 505.44 283.945457 
" clip-path="url(#p77891274d7)" style="fill: none; stroke-dasharray: 0.8,1.32; stroke-dashoffset: 0; stroke: #000000; stroke-width: 0.8"/>
   </g>
   <g id="line2d_32">
    <path d="M 89.983636 306.048064 
L 93.980327 258.429946 
L 97.977023 284.059103 
L 101.973713 283.054688 
L 105.97041 277.580995 
L 109.967106 279.445491 
L 113.963796 302.344749 
L 117.960493 274.313528 
L 121.957186 275.00533 
L 125.953882 276.900346 
L 129.950576 292.344942 
L 133.947269 266.846618 
L 137.943962 276.310963 
L 141.940659 299.295019 
L 145.937352 304.539796 
L 149.934045 322.769392 
L 153.93074 284.840768 
L 157.927434 333.202082 
L 161.924129 287.365555 
L 165.920823 267.789322 
L 169.917517 286.213699 
L 173.914211 298.487017 
L 177.910906 292.072505 
L 181.9076 285.770644 
L 185.904294 285.074086 
L 189.900988 260.969469 
L 193.897681 257.878096 
L 197.894377 263.955917 
L 201.891071 315.519974 
L 205.887764 293.796351 
L 209.884457 311.298431 
L 213.881154 282.405637 
L 217.877847 295.267128 
L 221.874543 287.321582 
L 225.871234 272.344007 
L 229.86793 281.737889 
L 233.864626 284.215671 
L 237.861317 242.541 
L 241.858013 325.418834 
L 245.854704 347.841 
L 249.8514 298.859246 
L 253.848096 260.065757 
L 257.844787 285.906132 
L 261.841483 281.283795 
L 265.838179 272.884202 
L 269.83487 280.357868 
L 273.83156 276.61855 
L 277.828262 249.755093 
L 281.824953 332.928136 
L 285.821643 294.945848 
L 289.818345 283.47765 
L 293.815036 302.658588 
L 297.811726 299.666094 
L 301.808428 274.172822 
L 305.805119 257.917551 
L 309.801809 261.524637 
L 313.798511 298.573096 
L 317.795202 273.71152 
L 321.791892 312.769314 
L 325.788594 293.795206 
L 329.785285 269.180985 
L 333.781975 271.779134 
L 337.778677 276.542812 
L 341.775368 288.112803 
L 345.772058 284.149363 
L 349.76876 304.405975 
L 353.765451 318.655438 
L 357.762141 296.066729 
L 361.758843 281.663763 
L 365.755534 302.412427 
L 369.752224 276.796466 
L 373.748914 289.434443 
L 377.745605 290.701672 
L 381.742319 281.417132 
L 385.739009 295.651846 
L 389.7357 297.341673 
L 393.73239 283.221883 
L 397.72908 272.320196 
L 401.725771 288.689625 
L 405.722485 297.091329 
L 409.719175 270.906966 
L 413.715866 272.192296 
L 417.712556 276.559398 
L 421.709246 254.10178 
L 425.705937 294.681498 
L 429.702627 284.473449 
L 433.699341 317.398024 
L 437.696032 294.95189 
L 441.692722 316.75004 
L 445.689412 276.039386 
L 449.686103 293.574723 
L 453.682793 277.833786 
L 457.679507 261.200971 
L 461.676198 319.140853 
L 465.672888 291.20894 
L 469.669578 278.688179 
L 473.666269 293.742609 
L 477.662959 289.33854 
L 481.659673 279.167581 
L 485.656364 262.251647 
" clip-path="url(#p77891274d7)" style="fill: none; stroke: #d62728; stroke-width: 2.2; stroke-linecap: square"/>
   </g>
   <g id="line2d_33">
    <defs>
     <path id="mbc5cf79843" d="M 0 1.25 
C 0.331504 1.25 0.649475 1.118292 0.883883 0.883883 
C 1.118292 0.649475 1.25 0.331504 1.25 0 
C 1.25 -0.331504 1.118292 -0.649475 0.883883 -0.883883 
C 0.649475 -1.118292 0.331504 -1.25 0 -1.25 
C -0.331504 -1.25 -0.649475 -1.118292 -0.883883 -0.883883 
C -1.118292 -0.649475 -1.25 -0.331504 -1.25 0 
C -1.25 0.331504 -1.118292 0.649475 -0.883883 0.883883 
C -0.649475 1.118292 -0.331504 1.25 0 1.25 
z
" style="stroke: #000000"/>
    </defs>
    <g clip-path="url(#p77891274d7)">
     <use xlink:href="#mbc5cf79843" x="157.927434" y="333.202082" style="stroke: #000000"/>
     <use xlink:href="#mbc5cf79843" x="189.900988" y="260.969469" style="stroke: #000000"/>
     <use xlink:href="#mbc5cf79843" x="193.897681" y="257.878096" style="stroke: #000000"/>
     <use xlink:href="#mbc5cf79843" x="237.861317" y="242.541" style="stroke: #000000"/>
     <use xlink:href="#mbc5cf79843" x="241.858013" y="325.418834" style="stroke: #000000"/>
     <use xlink:href="#mbc5cf79843" x="245.854704" y="347.841" style="stroke: #000000"/>
     <use xlink:href="#mbc5cf79843" x="277.828262" y="249.755093" style="stroke: #000000"/>
     <use xlink:href="#mbc5cf79843" x="281.824953" y="332.928136" style="stroke: #000000"/>
     <use xlink:href="#mbc5cf79843" x="305.805119" y="257.917551" style="stroke: #000000"/>
     <use xlink:href="#mbc5cf79843" x="441.692722" y="316.75004" style="stroke: #000000"/>
     <use xlink:href="#mbc5cf79843" x="461.676198" y="319.140853" style="stroke: #000000"/>
    </g>
   </g>
   <g id="patch_10">
    <path d="M 70.2 353.106 
L 70.2 237.276 
" style="fill: none; stroke: #000000; stroke-width: 0.8; stroke-linejoin: miter; stroke-linecap: square"/>
   </g>
   <g id="patch_11">
    <path d="M 505.44 353.106 
L 505.44 237.276 
" style="fill: none; stroke: #000000; stroke-width: 0.8; stroke-linejoin: miter; stroke-linecap: square"/>
   </g>
   <g id="patch_12">
    <path d="M 70.2 353.106 
L 505.44 353.106 
" style="fill: none; stroke: #000000; stroke-width: 0.8; stroke-linejoin: miter; stroke-linecap: square"/>
   </g>
   <g id="patch_13">
    <path d="M 70.2 237.276 
L 505.44 237.276 
" style="fill: none; stroke: #000000; stroke-width: 0.8; stroke-linejoin: miter; stroke-linecap: square"/>
   </g>
   <g id="text_30">
    <!-- Panel B: pair-diff with significance dots -->
    <g transform="translate(171.554063 231.276) scale(0.12 -0.12)">
     <defs>
      <path id="DejaVuSans-42" d="M 1259 2228 
L 1259 519 
L 2272 519 
Q 2781 519 3026 730 
Q 3272 941 3272 1375 
Q 3272 1813 3026 2020 
Q 2781 2228 2272 2228 
L 1259 2228 
z
M 1259 4147 
L 1259 2741 
L 2194 2741 
Q 2656 2741 2882 2914 
Q 3109 3088 3109 3444 
Q 3109 3797 2882 3972 
Q 2656 4147 2194 4147 
L 1259 4147 
z
M 628 4666 
L 2241 4666 
Q 2963 4666 3353 4366 
Q 3744 4066 3744 3513 
Q 3744 3084 3544 2831 
Q 3344 2578 2956 2516 
Q 3422 2416 3680 2098 
Q 3938 1781 3938 1306 
Q 3938 681 3513 340 
Q 3088 0 2303 0 
L 628 0 
L 628 4666 
z
" transform="scale(0.015625)"/>
      <path id="DejaVuSans-70" d="M 1159 525 
L 1159 -1331 
L 581 -1331 
L 581 3500 
L 1159 3500 
L 1159 2969 
Q 1341 3281 1617 3432 
Q 1894 3584 2278 3584 
Q 2916 3584 3314 3078 
Q 3713 2572 3713 1747 
Q 3713 922 3314 415 
Q 2916 -91 2278 -91 
Q 1894 -91 1617 61 
Q 1341 213 1159 525 
z
M 3116 1747 
Q 3116 2381 2855 2742 
Q 2594 3103 2138 3103 
Q 1681 3103 1420 2742 
Q 1159 2381 1159 1747 
Q 1159 1113 1420 752 
Q 1681 391 2138 391 
Q 2594 391 2855 752 
Q 3116 1113 3116 1747 
z
" transform="scale(0.015625)"/>
      <path id="DejaVuSans-68" d="M 3513 2113 
L 3513 0 
L 2938 0 
L 2938 2094 
Q 2938 2591 2744 2837 
Q 2550 3084 2163 3084 
Q 1697 3084 1428 2787 
Q 1159 2491 1159 1978 
L 1159 0 
L 581 0 
L 581 4863 
L 1159 4863 
L 1159 2956 
Q 1366 3272 1645 3428 
Q 1925 3584 2291 3584 
Q 2894 3584 3203 3211 
Q 3513 2838 3513 2113 
z
" transform="scale(0.015625)"/>
      <path id="DejaVuSans-67" d="M 2906 1791 
Q 2906 2416 2648 2759 
Q 2391 3103 1925 3103 
Q 1463 3103 1205 2759 
Q 947 2416 947 1791 
Q 947 1169 1205 825 
Q 1463 481 1925 481 
Q 2391 481 2648 825 
Q 2906 1169 2906 1791 
z
M 3481 434 
Q 3481 -459 3084 -895 
Q 2688 -1331 1869 -1331 
Q 1566 -1331 1297 -1286 
Q 1028 -1241 775 -1147 
L 775 -588 
Q 1028 -725 1275 -790 
Q 1522 -856 1778 -856 
Q 2344 -856 2625 -561 
Q 2906 -266 2906 331 
L 2906 616 
Q 2728 306 2450 153 
Q 2172 0 1784 0 
Q 1141 0 747 490 
Q 353 981 353 1791 
Q 353 2603 747 3093 
Q 1141 3584 1784 3584 
Q 2172 3584 2450 3431 
Q 2728 3278 2906 2969 
L 2906 3500 
L 3481 3500 
L 3481 434 
z
" transform="scale(0.015625)"/>
      <path id="DejaVuSans-63" d="M 3122 3366 
L 3122 2828 
Q 2878 2963 2633 3030 
Q 2388 3097 2138 3097 
Q 1578 3097 1268 2742 
Q 959 2388 959 1747 
Q 959 1106 1268 751 
Q 1578 397 2138 397 
Q 2388 397 2633 464 
Q 2878 531 3122 666 
L 3122 134 
Q 2881 22 2623 -34 
Q 2366 -91 2075 -91 
Q 1284 -91 818 406 
Q 353 903 353 1747 
Q 353 2603 823 3093 
Q 1294 3584 2113 3584 
Q 2378 3584 2631 3529 
Q 2884 3475 3122 3366 
z
" transform="scale(0.015625)"/>
     </defs>
     <use xlink:href="#DejaVuSans-50"/>
     <use xlink:href="#DejaVuSans-61" transform="translate(55.802734 0)"/>
     <use xlink:href="#DejaVuSans-6e" transform="translate(117.082031 0)"/>
     <use xlink:href="#DejaVuSans-65" transform="translate(180.460938 0)"/>
     <use xlink:href="#DejaVuSans-6c" transform="translate(241.984375 0)"/>
     <use xlink:href="#DejaVuSans-20" transform="translate(269.767578 0)"/>
     <use xlink:href="#DejaVuSans-42" transform="translate(301.554688 0)"/>
     <use xlink:href="#DejaVuSans-3a" transform="translate(370.158203 0)"/>
     <use xlink:href="#DejaVuSans-20" transform="translate(403.849609 0)"/>
     <use xlink:href="#DejaVuSans-70" transform="translate(435.636719 0)"/>
     <use xlink:href="#DejaVuSans-61" transform="translate(499.113281 0)"/>
     <use xlink:href="#DejaVuSans-69" transform="translate(560.392578 0)"/>
     <use xlink:href="#DejaVuSans-72" transform="translate(588.175781 0)"/>
     <use xlink:href="#DejaVuSans-2d" transform="translate(622.914062 0)"/>
     <use xlink:href="#DejaVuSans-64" transform="translate(658.998047 0)"/>
     <use xlink:href="#DejaVuSans-69" transform="translate(722.474609 0)"/>
     <use xlink:href="#DejaVuSans-66" transform="translate(750.257812 0)"/>
     <use xlink:href="#DejaVuSans-66" transform="translate(785.462891 0)"/>
     <use xlink:href="#DejaVuSans-20" transform="translate(820.667969 0)"/>
     <use xlink:href="#DejaVuSans-77" transform="translate(852.455078 0)"/>
     <use xlink:href="#DejaVuSans-69" transform="translate(934.242188 0)"/>
     <use xlink:href="#DejaVuSans-74" transform="translate(962.025391 0)"/>
     <use xlink:href="#DejaVuSans-68" transform="translate(1001.234375 0)"/>
     <use xlink:href="#DejaVuSans-20" transform="translate(1064.613281 0)"/>
     <use xlink:href="#DejaVuSans-73" transform="translate(1096.400391 0)"/>
     <use xlink:href="#DejaVuSans-69" transform="translate(1148.5 0)"/>
     <use xlink:href="#DejaVuSans-67" transform="translate(1176.283203 0)"/>
     <use xlink:href="#DejaVuSans-6e" transform="translate(1239.759766 0)"/>
     <use xlink:href="#DejaVuSans-69" transform="translate(1303.138672 0)"/>
     <use xlink:href="#DejaVuSans-66" transform="translate(1330.921875 0)"/>
     <use xlink:href="#DejaVuSans-69" transform="translate(1366.126953 0)"/>
     <use xlink:href="#DejaVuSans-63" transform="translate(1393.910156 0)"/>
     <use xlink:href="#DejaVuSans-61" transform="translate(1448.890625 0)"/>
     <use xlink:href="#DejaVuSans-6e" transform="translate(1510.169922 0)"/>
     <use xlink:href="#DejaVuSans-63" transform="translate(1573.548828 0)"/>
     <use xlink:href="#DejaVuSans-65" transform="translate(1628.529297 0)"/>
     <use xlink:href="#DejaVuSans-20" transform="translate(1690.052734 0)"/>
     <use xlink:href="#DejaVuSans-64" transform="translate(1721.839844 0)"/>
     <use xlink:href="#DejaVuSans-6f" transform="translate(1785.316406 0)"/>
     <use xlink:href="#DejaVuSans-74" transform="translate(1846.498047 0)"/>
     <use xlink:href="#DejaVuSans-73" transform="translate(1885.707031 0)"/>
    </g>
   </g>
   <g id="legend_2">
    <g id="line2d_34">
     <path d="M 79.2 250.374437 
L 89.2 250.374437 
L 99.2 250.374437 
" style="fill: none; stroke: #d62728; stroke-width: 2.2; stroke-linecap: square"/>
    </g>
    <g id="text_31">
     <!-- (A→B − B→A) -->
     <g transform="translate(107.2 253.874437) scale(0.1 -0.1)">
      <use xlink:href="#DejaVuSans-28"/>
      <use xlink:href="#DejaVuSans-41" transform="translate(39.013672 0)"/>
      <use xlink:href="#DejaVuSans-2192" transform="translate(107.421875 0)"/>
      <use xlink:href="#DejaVuSans-42" transform="translate(191.210938 0)"/>
      <use xlink:href="#DejaVuSans-20" transform="translate(259.814453 0)"/>
      <use xlink:href="#DejaVuSans-2212" transform="translate(291.601562 0)"/>
      <use xlink:href="#DejaVuSans-20" transform="translate(375.390625 0)"/>
      <use xlink:href="#DejaVuSans-42" transform="translate(407.177734 0)"/>
      <use xlink:href="#DejaVuSans-2192" transform="translate(475.78125 0)"/>
      <use xlink:href="#DejaVuSans-41" transform="translate(559.570312 0)"/>
      <use xlink:href="#DejaVuSans-29" transform="translate(627.978516 0)"/>
     </g>
    </g>
    <g id="line2d_35">
     <g>
      <use xlink:href="#mbc5cf79843" x="89.2" y="265.052563" style="stroke: #000000"/>
     </g>
    </g>
    <g id="text_32">
     <!-- p&lt;0.05 (one-sided) -->
     <g transform="translate(107.2 268.552563) scale(0.1 -0.1)">
      <defs>
       <path id="DejaVuSans-3c" d="M 4684 3150 
L 1459 2003 
L 4684 863 
L 4684 294 
L 678 1747 
L 678 2266 
L 4684 3719 
L 4684 3150 
z
" transform="scale(0.015625)"/>
      </defs>
      <use xlink:href="#DejaVuSans-70"/>
      <use xlink:href="#DejaVuSans-3c" transform="translate(63.476562 0)"/>
      <use xlink:href="#DejaVuSans-30" transform="translate(147.265625 0)"/>
      <use xlink:href="#DejaVuSans-2e" transform="translate(210.888672 0)"/>
      <use xlink:href="#DejaVuSans-30" transform="translate(242.675781 0)"/>
      <use xlink:href="#DejaVuSans-35" transform="translate(306.298828 0)"/>
      <use xlink:href="#DejaVuSans-20" transform="translate(369.921875 0)"/>
      <use xlink:href="#DejaVuSans-28" transform="translate(401.708984 0)"/>
      <use xlink:href="#DejaVuSans-6f" transform="translate(440.722656 0)"/>
      <use xlink:href="#DejaVuSans-6e" transform="translate(501.904297 0)"/>
      <use xlink:href="#DejaVuSans-65" transform="translate(565.283203 0)"/>
      <use xlink:href="#DejaVuSans-2d" transform="translate(626.806641 0)"/>
      <use xlink:href="#DejaVuSans-73" transform="translate(662.890625 0)"/>
      <use xlink:href="#DejaVuSans-69" transform="translate(714.990234 0)"/>
      <use xlink:href="#DejaVuSans-64" transform="translate(742.773438 0)"/>
      <use xlink:href="#DejaVuSans-65" transform="translate(806.25 0)"/>
      <use xlink:href="#DejaVuSans-64" transform="translate(867.773438 0)"/>
      <use xlink:href="#DejaVuSans-29" transform="translate(931.25 0)"/>
     </g>
    </g>
   </g>
  </g>
  <g id="axes_3">
   <g id="patch_14">
    <path d="M 70.2 499.824 
L 505.44 499.824 
L 505.44 383.994 
L 70.2 383.994 
z
" style="fill: #ffffff"/>
   </g>
   <g id="matplotlib.axis_5">
    <g id="xtick_13">
     <g id="line2d_36">
      <g>
       <use xlink:href="#m69f988ee9c" x="87.985286" y="499.824" style="stroke: #000000; stroke-width: 0.8"/>
      </g>
     </g>
     <g id="text_33">
      <!-- −200 -->
      <g transform="translate(74.251693 514.422438) scale(0.1 -0.1)">
       <use xlink:href="#DejaVuSans-2212"/>
       <use xlink:href="#DejaVuSans-32" transform="translate(83.789062 0)"/>
       <use xlink:href="#DejaVuSans-30" transform="translate(147.412109 0)"/>
       <use xlink:href="#DejaVuSans-30" transform="translate(211.035156 0)"/>
      </g>
     </g>
    </g>
    <g id="xtick_14">
     <g id="line2d_37">
      <g>
       <use xlink:href="#m69f988ee9c" x="167.91917" y="499.824" style="stroke: #000000; stroke-width: 0.8"/>
      </g>
     </g>
     <g id="text_34">
      <!-- 0 -->
      <g transform="translate(164.73792 514.422438) scale(0.1 -0.1)">
       <use xlink:href="#DejaVuSans-30"/>
      </g>
     </g>
    </g>
    <g id="xtick_15">
     <g id="line2d_38">
      <g>
       <use xlink:href="#m69f988ee9c" x="247.853053" y="499.824" style="stroke: #000000; stroke-width: 0.8"/>
      </g>
     </g>
     <g id="text_35">
      <!-- 200 -->
      <g transform="translate(238.309303 514.422438) scale(0.1 -0.1)">
       <use xlink:href="#DejaVuSans-32"/>
       <use xlink:href="#DejaVuSans-30" transform="translate(63.623047 0)"/>
       <use xlink:href="#DejaVuSans-30" transform="translate(127.246094 0)"/>
      </g>
     </g>
    </g>
    <g id="xtick_16">
     <g id="line2d_39">
      <g>
       <use xlink:href="#m69f988ee9c" x="327.786937" y="499.824" style="stroke: #000000; stroke-width: 0.8"/>
      </g>
     </g>
     <g id="text_36">
      <!-- 400 -->
      <g transform="translate(318.243187 514.422438) scale(0.1 -0.1)">
       <use xlink:href="#DejaVuSans-34"/>
       <use xlink:href="#DejaVuSans-30" transform="translate(63.623047 0)"/>
       <use xlink:href="#DejaVuSans-30" transform="translate(127.246094 0)"/>
      </g>
     </g>
    </g>
    <g id="xtick_17">
     <g id="line2d_40">
      <g>
       <use xlink:href="#m69f988ee9c" x="407.720821" y="499.824" style="stroke: #000000; stroke-width: 0.8"/>
      </g>
     </g>
     <g id="text_37">
      <!-- 600 -->
      <g transform="translate(398.177071 514.422438) scale(0.1 -0.1)">
       <use xlink:href="#DejaVuSans-36"/>
       <use xlink:href="#DejaVuSans-30" transform="translate(63.623047 0)"/>
       <use xlink:href="#DejaVuSans-30" transform="translate(127.246094 0)"/>
      </g>
     </g>
    </g>
    <g id="xtick_18">
     <g id="line2d_41">
      <g>
       <use xlink:href="#m69f988ee9c" x="487.654704" y="499.824" style="stroke: #000000; stroke-width: 0.8"/>
      </g>
     </g>
     <g id="text_38">
      <!-- 800 -->
      <g transform="translate(478.110954 514.422438) scale(0.1 -0.1)">
       <use xlink:href="#DejaVuSans-38"/>
       <use xlink:href="#DejaVuSans-30" transform="translate(63.623047 0)"/>
       <use xlink:href="#DejaVuSans-30" transform="translate(127.246094 0)"/>
      </g>
     </g>
    </g>
    <g id="text_39">
     <!-- Time (ms) -->
     <g transform="translate(262.620781 528.100563) scale(0.1 -0.1)">
      <defs>
       <path id="DejaVuSans-54" d="M -19 4666 
L 3928 4666 
L 3928 4134 
L 2272 4134 
L 2272 0 
L 1638 0 
L 1638 4134 
L -19 4134 
L -19 4666 
z
" transform="scale(0.015625)"/>
       <path id="DejaVuSans-6d" d="M 3328 2828 
Q 3544 3216 3844 3400 
Q 4144 3584 4550 3584 
Q 5097 3584 5394 3201 
Q 5691 2819 5691 2113 
L 5691 0 
L 5113 0 
L 5113 2094 
Q 5113 2597 4934 2840 
Q 4756 3084 4391 3084 
Q 3944 3084 3684 2787 
Q 3425 2491 3425 1978 
L 3425 0 
L 2847 0 
L 2847 2094 
Q 2847 2600 2669 2842 
Q 2491 3084 2119 3084 
Q 1678 3084 1418 2786 
Q 1159 2488 1159 1978 
L 1159 0 
L 581 0 
L 581 3500 
L 1159 3500 
L 1159 2956 
Q 1356 3278 1631 3431 
Q 1906 3584 2284 3584 
Q 2666 3584 2933 3390 
Q 3200 3197 3328 2828 
z
" transform="scale(0.015625)"/>
      </defs>
      <use xlink:href="#DejaVuSans-54"/>
      <use xlink:href="#DejaVuSans-69" transform="translate(57.958984 0)"/>
      <use xlink:href="#DejaVuSans-6d" transform="translate(85.742188 0)"/>
      <use xlink:href="#DejaVuSans-65" transform="translate(183.154297 0)"/>
      <use xlink:href="#DejaVuSans-20" transform="translate(244.677734 0)"/>
      <use xlink:href="#DejaVuSans-28" transform="translate(276.464844 0)"/>
      <use xlink:href="#DejaVuSans-6d" transform="translate(315.478516 0)"/>
      <use xlink:href="#DejaVuSans-73" transform="translate(412.890625 0)"/>
      <use xlink:href="#DejaVuSans-29" transform="translate(464.990234 0)"/>
     </g>
    </g>
   </g>
   <g id="matplotlib.axis_6">
    <g id="ytick_11">
     <g id="line2d_42">
      <g>
       <use xlink:href="#m5544da8b4a" x="70.2" y="462.518051" style="stroke: #000000; stroke-width: 0.8"/>
      </g>
     </g>
     <g id="text_40">
      <!-- 0 -->
      <g transform="translate(56.8375 466.31727) scale(0.1 -0.1)">
       <use xlink:href="#DejaVuSans-30"/>
      </g>
     </g>
    </g>
    <g id="ytick_12">
     <g id="line2d_43">
      <g>
       <use xlink:href="#m5544da8b4a" x="70.2" y="421.260328" style="stroke: #000000; stroke-width: 0.8"/>
      </g>
     </g>
     <g id="text_41">
      <!-- 2 -->
      <g transform="translate(56.8375 425.059546) scale(0.1 -0.1)">
       <use xlink:href="#DejaVuSans-32"/>
      </g>
     </g>
    </g>
    <g id="text_42">
     <!-- Z (σ from null) -->
     <g transform="translate(50.757812 477.919938) rotate(-90) scale(0.1 -0.1)">
      <defs>
       <path id="DejaVuSans-5a" d="M 359 4666 
L 4025 4666 
L 4025 4184 
L 1075 531 
L 4097 531 
L 4097 0 
L 288 0 
L 288 481 
L 3238 4134 
L 359 4134 
L 359 4666 
z
" transform="scale(0.015625)"/>
      </defs>
      <use xlink:href="#DejaVuSans-5a"/>
      <use xlink:href="#DejaVuSans-20" transform="translate(68.505859 0)"/>
      <use xlink:href="#DejaVuSans-28" transform="translate(100.292969 0)"/>
      <use xlink:href="#DejaVuSans-3c3" transform="translate(139.306641 0)"/>
      <use xlink:href="#DejaVuSans-20" transform="translate(202.685547 0)"/>
      <use xlink:href="#DejaVuSans-66" transform="translate(234.472656 0)"/>
      <use xlink:href="#DejaVuSans-72" transform="translate(269.677734 0)"/>
      <use xlink:href="#DejaVuSans-6f" transform="translate(308.541016 0)"/>
      <use xlink:href="#DejaVuSans-6d" transform="translate(369.722656 0)"/>
      <use xlink:href="#DejaVuSans-20" transform="translate(467.134766 0)"/>
      <use xlink:href="#DejaVuSans-6e" transform="translate(498.921875 0)"/>
      <use xlink:href="#DejaVuSans-75" transform="translate(562.300781 0)"/>
      <use xlink:href="#DejaVuSans-6c" transform="translate(625.679688 0)"/>
      <use xlink:href="#DejaVuSans-6c" transform="translate(653.462891 0)"/>
      <use xlink:href="#DejaVuSans-29" transform="translate(681.246094 0)"/>
     </g>
    </g>
   </g>
   <g id="line2d_44">
    <path d="M 167.91917 499.824 
L 167.91917 383.994 
" clip-path="url(#p20c302b04d)" style="fill: none; stroke-dasharray: 2.96,1.28; stroke-dashoffset: 0; stroke: #000000; stroke-width: 0.8"/>
   </g>
   <g id="line2d_45">
    <path d="M 89.983636 470.980523 
L 93.980327 439.90322 
L 97.977023 471.535378 
L 101.973713 461.041357 
L 105.97041 472.504727 
L 109.967106 475.348745 
L 113.963796 474.019439 
L 117.960493 475.111807 
L 121.957186 457.903817 
L 125.953882 476.90467 
L 129.950576 452.527179 
L 133.947269 455.780284 
L 137.943962 469.432936 
L 141.940659 447.5763 
L 145.937352 485.917878 
L 149.934045 490.372199 
L 153.93074 476.137132 
L 157.927434 489.462364 
L 161.924129 454.620356 
L 165.920823 454.044405 
L 169.917517 470.602808 
L 173.914211 460.298407 
L 177.910906 476.324278 
L 181.9076 466.888869 
L 185.904294 464.741213 
L 189.900988 415.382642 
L 193.897681 419.544422 
L 197.894377 426.075827 
L 201.891071 487.111825 
L 205.887764 477.159645 
L 209.884457 481.475454 
L 213.881154 454.771414 
L 217.877847 483.019935 
L 221.874543 463.806996 
L 225.871234 451.623155 
L 229.86793 467.053131 
L 233.864626 472.690733 
L 237.861317 413.808685 
L 241.858013 477.756079 
L 245.854704 475.988187 
L 249.8514 448.351454 
L 253.848096 424.54557 
L 257.844787 480.905184 
L 261.841483 466.161015 
L 265.838179 469.083057 
L 269.83487 450.296318 
L 273.83156 457.555703 
L 277.828262 406.479128 
L 281.824953 483.87305 
L 285.821643 476.002562 
L 289.818345 473.097587 
L 293.815036 486.56053 
L 297.811726 474.289783 
L 301.808428 451.305809 
L 305.805119 414.371338 
L 309.801809 449.362957 
L 313.798511 478.866613 
L 317.795202 465.872291 
L 321.791892 484.750904 
L 325.788594 437.396742 
L 329.785285 461.431148 
L 333.781975 458.235357 
L 337.778677 476.355748 
L 341.775368 435.267169 
L 345.772058 457.402413 
L 349.76876 483.254012 
L 353.765451 485.302085 
L 357.762141 479.025943 
L 361.758843 470.087256 
L 365.755534 461.003887 
L 369.752224 423.926921 
L 373.748914 479.64348 
L 377.745605 488.993605 
L 381.742319 489.909558 
L 385.739009 480.582491 
L 389.7357 485.659235 
L 393.73239 462.607807 
L 397.72908 453.06027 
L 401.725771 470.38978 
L 405.722485 459.577389 
L 409.719175 459.968256 
L 413.715866 462.93615 
L 417.712556 474.441632 
L 421.709246 434.295496 
L 425.705937 472.990382 
L 429.702627 475.586829 
L 433.699341 493.745535 
L 437.696032 479.322692 
L 441.692722 461.158799 
L 445.689412 462.932556 
L 449.686103 483.568202 
L 453.682793 481.56929 
L 457.679507 437.045968 
L 461.676198 476.788815 
L 465.672888 479.491624 
L 469.669578 459.077231 
L 473.666269 475.04741 
L 477.662959 477.90183 
L 481.659673 471.870933 
L 485.656364 445.127347 
" clip-path="url(#p20c302b04d)" style="fill: none; stroke: #1f77b4; stroke-width: 2; stroke-linecap: square"/>
   </g>
   <g id="line2d_46">
    <path d="M 89.983636 430.745846 
L 93.980327 481.519367 
L 97.977023 470.803977 
L 101.973713 463.439388 
L 105.97041 483.280259 
L 109.967106 482.883416 
L 113.963796 448.358026 
L 117.960493 490.868768 
L 121.957186 471.849008 
L 125.953882 489.387993 
L 129.950576 444.386708 
L 133.947269 483.46876 
L 137.943962 480.404182 
L 141.940659 424.83906 
L 145.937352 450.540743 
L 149.934045 425.845936 
L 153.93074 476.282337 
L 157.927434 415.555732 
L 161.924129 454.101753 
L 165.920823 479.802091 
L 169.917517 465.336681 
L 173.914211 439.878672 
L 177.910906 460.233676 
L 181.9076 471.717751 
L 185.904294 462.147812 
L 189.900988 458.454535 
L 193.897681 464.716791 
L 197.894377 458.667732 
L 201.891071 445.39759 
L 205.887764 460.941016 
L 209.884457 441.718714 
L 213.881154 460.650427 
L 217.877847 465.559221 
L 221.874543 456.087505 
L 225.871234 471.632966 
L 229.86793 468.021704 
L 233.864626 472.930456 
L 237.861317 487.396936 
L 241.858013 412.77996 
L 245.854704 389.259 
L 249.8514 424.754544 
L 253.848096 467.494028 
L 257.844787 483.07502 
L 261.841483 465.141998 
L 265.838179 486.675921 
L 269.83487 452.950034 
L 273.83156 466.722393 
L 277.828262 460.197141 
L 281.824953 407.064812 
L 285.821643 457.261682 
L 289.818345 472.68241 
L 293.815036 456.49579 
L 297.811726 443.806635 
L 301.808428 469.35253 
L 305.805119 456.877223 
L 309.801809 485.502018 
L 313.798511 458.984271 
L 317.795202 483.638548 
L 321.791892 436.090003 
L 325.788594 421.829824 
L 329.785285 486.821815 
L 333.781975 480.482125 
L 337.778677 488.527424 
L 341.775368 430.410464 
L 345.772058 460.234685 
L 349.76876 443.488241 
L 353.765451 438.916791 
L 357.762141 461.017342 
L 361.758843 473.289472 
L 365.755534 426.751086 
L 369.752224 436.637101 
L 373.748914 471.716257 
L 377.745605 478.202251 
L 381.742319 494.559 
L 385.739009 461.517841 
L 389.7357 465.325761 
L 393.73239 467.365958 
L 397.72908 471.205143 
L 401.725771 465.175313 
L 405.722485 442.717647 
L 409.719175 481.899882 
L 413.715866 486.406194 
L 417.712556 486.517721 
L 421.709246 484.17425 
L 425.705937 458.33897 
L 429.702627 474.740062 
L 433.699341 438.958154 
L 437.696032 464.551639 
L 441.692722 410.199823 
L 445.689412 470.973581 
L 449.686103 467.966302 
L 453.682793 490.960294 
L 457.679507 472.815314 
L 461.676198 420.13069 
L 465.672888 467.435773 
L 469.669578 469.535562 
L 473.666269 458.497268 
L 477.662959 470.574022 
L 481.659673 478.948585 
L 485.656364 481.152054 
" clip-path="url(#p20c302b04d)" style="fill: none; stroke: #ff7f0e; stroke-width: 2; stroke-linecap: square"/>
   </g>
   <g id="patch_15">
    <path d="M 70.2 499.824 
L 70.2 383.994 
" style="fill: none; stroke: #000000; stroke-width: 0.8; stroke-linejoin: miter; stroke-linecap: square"/>
   </g>
   <g id="patch_16">
    <path d="M 505.44 499.824 
L 505.44 383.994 
" style="fill: none; stroke: #000000; stroke-width: 0.8; stroke-linejoin: miter; stroke-linecap: square"/>
   </g>
   <g id="patch_17">
    <path d="M 70.2 499.824 
L 505.44 499.824 
" style="fill: none; stroke: #000000; stroke-width: 0.8; stroke-linejoin: miter; stroke-linecap: square"/>
   </g>
   <g id="patch_18">
    <path d="M 70.2 383.994 
L 505.44 383.994 
" style="fill: none; stroke: #000000; stroke-width: 0.8; stroke-linejoin: miter; stroke-linecap: square"/>
   </g>
   <g id="text_43">
    <!-- Panel C: evidence strength vs null -->
    <g transform="translate(185.80125 377.994) scale(0.12 -0.12)">
     <use xlink:href="#DejaVuSans-50"/>
     <use xlink:href="#DejaVuSans-61" transform="translate(55.802734 0)"/>
     <use xlink:href="#DejaVuSans-6e" transform="translate(117.082031 0)"/>
     <use xlink:href="#DejaVuSans-65" transform="translate(180.460938 0)"/>
     <use xlink:href="#DejaVuSans-6c" transform="translate(241.984375 0)"/>
     <use xlink:href="#DejaVuSans-20" transform="translate(269.767578 0)"/>
     <use xlink:href="#DejaVuSans-43" transform="translate(301.554688 0)"/>
     <use xlink:href="#DejaVuSans-3a" transform="translate(371.378906 0)"/>
     <use xlink:href="#DejaVuSans-20" transform="translate(405.070312 0)"/>
     <use xlink:href="#DejaVuSans-65" transform="translate(436.857422 0)"/>
     <use xlink:href="#DejaVuSans-76" transform="translate(498.380859 0)"/>
     <use xlink:href="#DejaVuSans-69" transform="translate(557.560547 0)"/>
     <use xlink:href="#DejaVuSans-64" transform="translate(585.34375 0)"/>
     <use xlink:href="#DejaVuSans-65" transform="translate(648.820312 0)"/>
     <use xlink:href="#DejaVuSans-6e" transform="translate(710.34375 0)"/>
     <use xlink:href="#DejaVuSans-63" transform="translate(773.722656 0)"/>
     <use xlink:href="#DejaVuSans-65" transform="translate(828.703125 0)"/>
     <use xlink:href="#DejaVuSans-20" transform="translate(890.226562 0)"/>
     <use xlink:href="#DejaVuSans-73" transform="translate(922.013672 0)"/>
     <use xlink:href="#DejaVuSans-74" transform="translate(974.113281 0)"/>
     <use xlink:href="#DejaVuSans-72" transform="translate(1013.322266 0)"/>
     <use xlink:href="#DejaVuSans-65" transform="translate(1052.185547 0)"/>
     <use xlink:href="#DejaVuSans-6e" transform="translate(1113.708984 0)"/>
     <use xlink:href="#DejaVuSans-67" transform="translate(1177.087891 0)"/>
     <use xlink:href="#DejaVuSans-74" transform="translate(1240.564453 0)"/>
     <use xlink:href="#DejaVuSans-68" transform="translate(1279.773438 0)"/>
     <use xlink:href="#DejaVuSans-20" transform="translate(1343.152344 0)"/>
     <use xlink:href="#DejaVuSans-76" transform="translate(1374.939453 0)"/>
     <use xlink:href="#DejaVuSans-73" transform="translate(1434.119141 0)"/>
     <use xlink:href="#DejaVuSans-20" transform="translate(1486.21875 0)"/>
     <use xlink:href="#DejaVuSans-6e" transform="translate(1518.005859 0)"/>
     <use xlink:href="#DejaVuSans-75" transform="translate(1581.384766 0)"/>
     <use xlink:href="#DejaVuSans-6c" transform="translate(1644.763672 0)"/>
     <use xlink:href="#DejaVuSans-6c" transform="translate(1672.546875 0)"/>
    </g>
   </g>
   <g id="legend_3">
    <g id="line2d_47">
     <path d="M 79.2 397.092438 
L 89.2 397.092438 
L 99.2 397.092438 
" style="fill: none; stroke: #1f77b4; stroke-width: 2; stroke-linecap: square"/>
    </g>
    <g id="text_44">
     <!-- z(SFEF→SLIP) -->
     <g transform="translate(107.2 400.592438) scale(0.1 -0.1)">
      <defs>
       <path id="DejaVuSans-7a" d="M 353 3500 
L 3084 3500 
L 3084 2975 
L 922 459 
L 3084 459 
L 3084 0 
L 275 0 
L 275 525 
L 2438 3041 
L 353 3041 
L 353 3500 
z
" transform="scale(0.015625)"/>
      </defs>
      <use xlink:href="#DejaVuSans-7a"/>
      <use xlink:href="#DejaVuSans-28" transform="translate(52.490234 0)"/>
      <use xlink:href="#DejaVuSans-53" transform="translate(91.503906 0)"/>
      <use xlink:href="#DejaVuSans-46" transform="translate(154.980469 0)"/>
      <use xlink:href="#DejaVuSans-45" transform="translate(212.5 0)"/>
      <use xlink:href="#DejaVuSans-46" transform="translate(275.683594 0)"/>
      <use xlink:href="#DejaVuSans-2192" transform="translate(333.203125 0)"/>
      <use xlink:href="#DejaVuSans-53" transform="translate(416.992188 0)"/>
      <use xlink:href="#DejaVuSans-4c" transform="translate(480.46875 0)"/>
      <use xlink:href="#DejaVuSans-49" transform="translate(536.181641 0)"/>
      <use xlink:href="#DejaVuSans-50" transform="translate(565.673828 0)"/>
      <use xlink:href="#DejaVuSans-29" transform="translate(625.976562 0)"/>
     </g>
    </g>
    <g id="line2d_48">
     <path d="M 79.2 411.770563 
L 89.2 411.770563 
L 99.2 411.770563 
" style="fill: none; stroke: #ff7f0e; stroke-width: 2; stroke-linecap: square"/>
    </g>
    <g id="text_45">
     <!-- z(SLIP→SFEF) -->
     <g transform="translate(107.2 415.270563) scale(0.1 -0.1)">
      <use xlink:href="#DejaVuSans-7a"/>
      <use xlink:href="#DejaVuSans-28" transform="translate(52.490234 0)"/>
      <use xlink:href="#DejaVuSans-53" transform="translate(91.503906 0)"/>
      <use xlink:href="#DejaVuSans-4c" transform="translate(154.980469 0)"/>
      <use xlink:href="#DejaVuSans-49" transform="translate(210.693359 0)"/>
      <use xlink:href="#DejaVuSans-50" transform="translate(240.185547 0)"/>
      <use xlink:href="#DejaVuSans-2192" transform="translate(300.488281 0)"/>
      <use xlink:href="#DejaVuSans-53" transform="translate(384.277344 0)"/>
      <use xlink:href="#DejaVuSans-46" transform="translate(447.753906 0)"/>
      <use xlink:href="#DejaVuSans-45" transform="translate(505.273438 0)"/>
      <use xlink:href="#DejaVuSans-46" transform="translate(568.457031 0)"/>
      <use xlink:href="#DejaVuSans-29" transform="translate(625.976562 0)"/>
     </g>
    </g>
   </g>
  </g>
 </g>
 <defs>
  <clipPath id="pe6b08e5a17">
   <rect x="70.2" y="67.392" width="435.24" height="138.996"/>
  </clipPath>
  <clipPath id="p77891274d7">
   <rect x="70.2" y="237.276" width="435.24" height="115.83"/>
  </clipPath>
  <clipPath id="p20c302b04d">
   <rect x="70.2" y="383.994" width="435.24" height="115.83"/>
  </clipPath>
 </defs>
</svg>
