<?xml version="1.0" encoding="utf-8" standalone="no"?>
<!DOCTYPE svg PUBLIC "-//W3C//DTD SVG 1.1//EN"
  "http://www.w3.org/Graphics/SVG/1.1/DTD/svg11.dtd">
<svg xmlns:xlink="http://www.w3.org/1999/xlink" width="561.6pt" height="561.6pt" viewBox="0 0 561.6 561.6" xmlns="http://www.w3.org/2000/svg" version="1.1">
 <metadata>
  <rdf:RDF xmlns:dc="http://purl.org/dc/elements/1.1/" xmlns:cc="http://creativecommons.org/ns#" xmlns:rdf="http://www.w3.org/1999/02/22-rdf-syntax-ns#">
   <cc:Work>
    <dc:type rdf:resource="http://purl.org/dc/dcmitype/StillImage"/>
    <dc:date>2025-12-08T02:21:40.135699</dc:date>
    <dc:format>image/svg+xml</dc:format>
    <dc:creator>
     <cc:Agent>
      <dc:title>Matplotlib v3.10.5, https://matplotlib.org/</dc:title>
     </cc:Agent>
    </dc:creator>
   </cc:Work>
  </rdf:RDF>
 </metadata>
 <defs>
  <style type="text/css">*{stroke-linejoin: round; stroke-linecap: butt}</style>
 </defs>
 <g id="figure_1">
  <g id="patch_1">
   <path d="M 0 561.6 
L 561.6 561.6 
L 561.6 0 
L 0 0 
z
" style="fill: #ffffff"/>
  </g>
  <g id="axes_1">
   <g id="patch_2">
    <path d="M 70.2 206.388 
L 505.44 206.388 
L 505.44 67.392 
L 70.2 67.392 
z
" style="fill: #ffffff"/>
   </g>
   <g id="FillBetweenPolyCollection_1">
    <defs>
     <path id="md217647fca" d="M 89.983636 -379.08563 
L 89.983636 -363.152562 
L 93.980327 -363.90774 
L 97.977023 -363.538207 
L 101.973713 -363.597565 
L 105.97041 -362.95799 
L 109.967106 -363.617348 
L 113.963796 -363.342542 
L 117.960493 -363.543853 
L 121.957186 -363.280249 
L 125.953882 -363.263946 
L 129.950576 -363.703727 
L 133.947269 -363.138645 
L 137.943962 -363.149726 
L 141.940659 -363.690399 
L 145.937352 -363.57251 
L 149.934045 -363.948291 
L 153.93074 -363.402585 
L 157.927434 -363.770456 
L 161.924129 -363.216428 
L 165.920823 -363.18036 
L 169.917517 -363.587758 
L 173.914211 -363.463127 
L 177.910906 -364.025923 
L 181.9076 -363.502361 
L 185.904294 -363.634449 
L 189.900988 -363.925278 
L 193.897681 -363.066138 
L 197.894377 -363.282851 
L 201.891071 -362.918438 
L 205.887764 -363.078895 
L 209.884457 -363.055974 
L 213.881154 -363.845106 
L 217.877847 -363.393767 
L 221.874543 -363.499972 
L 225.871234 -363.866073 
L 229.86793 -363.625942 
L 233.864626 -362.956956 
L 237.861317 -362.847154 
L 241.858013 -363.850441 
L 245.854704 -363.355996 
L 249.8514 -363.943348 
L 253.848096 -363.3833 
L 257.844787 -363.041839 
L 261.841483 -363.297259 
L 265.838179 -363.733022 
L 269.83487 -363.37079 
L 273.83156 -364.20239 
L 277.828262 -363.039548 
L 281.824953 -363.464778 
L 285.821643 -364.018898 
L 289.818345 -363.372177 
L 293.815036 -363.037138 
L 297.811726 -363.905331 
L 301.808428 -363.731993 
L 305.805119 -363.461755 
L 309.801809 -363.436285 
L 313.798511 -364.038422 
L 317.795202 -363.349201 
L 321.791892 -363.558187 
L 325.788594 -363.463472 
L 329.785285 -363.634383 
L 333.781975 -363.410117 
L 337.778677 -363.688675 
L 341.775368 -363.706228 
L 345.772058 -363.741473 
L 349.76876 -364.387557 
L 353.765451 -363.626481 
L 357.762141 -363.763518 
L 361.758843 -363.245201 
L 365.755534 -363.989826 
L 369.752224 -363.017763 
L 373.748914 -363.470831 
L 377.745605 -363.756788 
L 381.742319 -363.434546 
L 385.739009 -363.622631 
L 389.7357 -363.030023 
L 393.73239 -363.311343 
L 397.72908 -364.070284 
L 401.725771 -363.350451 
L 405.722485 -363.792341 
L 409.719175 -363.436514 
L 413.715866 -363.659506 
L 417.712556 -363.350674 
L 421.709246 -362.990249 
L 425.705937 -364.088015 
L 429.702627 -363.591587 
L 433.699341 -363.585412 
L 437.696032 -364.039141 
L 441.692722 -363.66938 
L 445.689412 -363.394568 
L 449.686103 -363.649692 
L 453.682793 -363.438156 
L 457.679507 -363.44394 
L 461.676198 -363.607197 
L 465.672888 -363.41987 
L 469.669578 -362.980533 
L 473.666269 -364.164561 
L 477.662959 -363.199542 
L 481.659673 -362.802885 
L 485.656364 -362.967675 
L 485.656364 -378.076019 
L 485.656364 -378.076019 
L 481.659673 -377.46101 
L 477.662959 -377.434715 
L 473.666269 -378.8094 
L 469.669578 -378.814588 
L 465.672888 -378.618327 
L 461.676198 -379.016009 
L 457.679507 -378.690076 
L 453.682793 -377.743273 
L 449.686103 -378.541701 
L 445.689412 -377.578846 
L 441.692722 -378.156835 
L 437.696032 -377.557843 
L 433.699341 -377.982535 
L 429.702627 -377.66857 
L 425.705937 -378.166972 
L 421.709246 -377.962214 
L 417.712556 -378.843875 
L 413.715866 -378.753473 
L 409.719175 -377.912988 
L 405.722485 -377.770884 
L 401.725771 -377.919231 
L 397.72908 -377.386096 
L 393.73239 -377.218541 
L 389.7357 -379.221155 
L 385.739009 -377.264838 
L 381.742319 -378.001091 
L 377.745605 -378.900912 
L 373.748914 -378.526467 
L 369.752224 -378.289474 
L 365.755534 -377.905807 
L 361.758843 -379.305347 
L 357.762141 -378.455375 
L 353.765451 -378.947349 
L 349.76876 -377.929533 
L 345.772058 -377.581378 
L 341.775368 -378.299056 
L 337.778677 -379.108201 
L 333.781975 -377.958823 
L 329.785285 -378.74001 
L 325.788594 -377.314072 
L 321.791892 -378.199143 
L 317.795202 -380.125987 
L 313.798511 -378.75072 
L 309.801809 -378.562133 
L 305.805119 -378.420316 
L 301.808428 -376.914993 
L 297.811726 -378.042002 
L 293.815036 -376.689059 
L 289.818345 -379.331991 
L 285.821643 -378.604499 
L 281.824953 -378.224234 
L 277.828262 -378.870238 
L 273.83156 -378.346519 
L 269.83487 -377.330437 
L 265.838179 -377.555518 
L 261.841483 -378.329454 
L 257.844787 -378.339053 
L 253.848096 -378.362665 
L 249.8514 -378.646437 
L 245.854704 -377.020193 
L 241.858013 -378.472968 
L 237.861317 -379.059333 
L 233.864626 -378.647738 
L 229.86793 -378.45286 
L 225.871234 -379.330354 
L 221.874543 -378.145148 
L 217.877847 -378.558619 
L 213.881154 -377.548819 
L 209.884457 -377.921093 
L 205.887764 -378.587234 
L 201.891071 -378.66886 
L 197.894377 -378.053989 
L 193.897681 -378.158885 
L 189.900988 -378.226706 
L 185.904294 -378.547379 
L 181.9076 -378.149308 
L 177.910906 -378.045173 
L 173.914211 -378.392813 
L 169.917517 -379.227357 
L 165.920823 -377.330727 
L 161.924129 -378.498609 
L 157.927434 -378.499724 
L 153.93074 -378.417727 
L 149.934045 -378.759231 
L 145.937352 -379.53172 
L 141.940659 -377.943691 
L 137.943962 -377.416134 
L 133.947269 -377.04219 
L 129.950576 -377.040167 
L 125.953882 -378.667505 
L 121.957186 -377.525971 
L 117.960493 -377.59061 
L 113.963796 -378.028795 
L 109.967106 -377.868545 
L 105.97041 -378.088196 
L 101.973713 -378.763996 
L 97.977023 -378.154891 
L 93.980327 -378.794445 
L 89.983636 -379.08563 
z
"/>
    </defs>
    <g clip-path="url(#p70213f3e02)">
     <use xlink:href="#md217647fca" x="0" y="561.6" style="fill: #1f77b4; fill-opacity: 0.15"/>
    </g>
   </g>
   <g id="FillBetweenPolyCollection_2">
    <defs>
     <path id="mee6330e476" d="M 89.983636 -377.762975 
L 89.983636 -363.353233 
L 93.980327 -362.815734 
L 97.977023 -363.361232 
L 101.973713 -363.668559 
L 105.97041 -364.364898 
L 109.967106 -363.303581 
L 113.963796 -363.65892 
L 117.960493 -363.690732 
L 121.957186 -363.333443 
L 125.953882 -363.890486 
L 129.950576 -363.73218 
L 133.947269 -363.553185 
L 137.943962 -363.094214 
L 141.940659 -363.213995 
L 145.937352 -363.067263 
L 149.934045 -363.714968 
L 153.93074 -363.559139 
L 157.927434 -363.252621 
L 161.924129 -363.512244 
L 165.920823 -363.692272 
L 169.917517 -363.832333 
L 173.914211 -363.379639 
L 177.910906 -363.046965 
L 181.9076 -363.572639 
L 185.904294 -363.438542 
L 189.900988 -363.385921 
L 193.897681 -363.293644 
L 197.894377 -363.820617 
L 201.891071 -363.883605 
L 205.887764 -363.802412 
L 209.884457 -363.608309 
L 213.881154 -363.138074 
L 217.877847 -363.568103 
L 221.874543 -363.112964 
L 225.871234 -363.490712 
L 229.86793 -364.175684 
L 233.864626 -363.7298 
L 237.861317 -363.881559 
L 241.858013 -363.323048 
L 245.854704 -363.704462 
L 249.8514 -363.647451 
L 253.848096 -363.306797 
L 257.844787 -363.647994 
L 261.841483 -363.170634 
L 265.838179 -363.795108 
L 269.83487 -362.686964 
L 273.83156 -363.566905 
L 277.828262 -363.365462 
L 281.824953 -363.403751 
L 285.821643 -363.910505 
L 289.818345 -362.707002 
L 293.815036 -363.451106 
L 297.811726 -363.371314 
L 301.808428 -363.688963 
L 305.805119 -363.913986 
L 309.801809 -363.166132 
L 313.798511 -363.658505 
L 317.795202 -363.713423 
L 321.791892 -363.143787 
L 325.788594 -363.269841 
L 329.785285 -363.203448 
L 333.781975 -363.422457 
L 337.778677 -363.163094 
L 341.775368 -363.393535 
L 345.772058 -363.355792 
L 349.76876 -363.711126 
L 353.765451 -363.588557 
L 357.762141 -363.365732 
L 361.758843 -362.548311 
L 365.755534 -363.333826 
L 369.752224 -363.6793 
L 373.748914 -363.608632 
L 377.745605 -363.405215 
L 381.742319 -363.013045 
L 385.739009 -363.934348 
L 389.7357 -363.833562 
L 393.73239 -362.95102 
L 397.72908 -363.677725 
L 401.725771 -363.359203 
L 405.722485 -363.206485 
L 409.719175 -363.209862 
L 413.715866 -363.868647 
L 417.712556 -363.769816 
L 421.709246 -363.728611 
L 425.705937 -363.264968 
L 429.702627 -363.324801 
L 433.699341 -363.662054 
L 437.696032 -363.077884 
L 441.692722 -363.865287 
L 445.689412 -363.015932 
L 449.686103 -363.594521 
L 453.682793 -363.897367 
L 457.679507 -363.809159 
L 461.676198 -362.925092 
L 465.672888 -363.839339 
L 469.669578 -363.697893 
L 473.666269 -363.943403 
L 477.662959 -363.650718 
L 481.659673 -363.497516 
L 485.656364 -363.53206 
L 485.656364 -378.396764 
L 485.656364 -378.396764 
L 481.659673 -377.650348 
L 477.662959 -378.240366 
L 473.666269 -379.477561 
L 469.669578 -377.827607 
L 465.672888 -378.274281 
L 461.676198 -378.861109 
L 457.679507 -378.223264 
L 453.682793 -378.95869 
L 449.686103 -378.634165 
L 445.689412 -377.268637 
L 441.692722 -378.561754 
L 437.696032 -378.162389 
L 433.699341 -378.185102 
L 429.702627 -377.747404 
L 425.705937 -378.026724 
L 421.709246 -378.406015 
L 417.712556 -378.340091 
L 413.715866 -379.762338 
L 409.719175 -379.288383 
L 405.722485 -377.711157 
L 401.725771 -378.94874 
L 397.72908 -379.179188 
L 393.73239 -378.686014 
L 389.7357 -377.984602 
L 385.739009 -376.264107 
L 381.742319 -378.422993 
L 377.745605 -376.795188 
L 373.748914 -377.878168 
L 369.752224 -379.229946 
L 365.755534 -378.253289 
L 361.758843 -378.65965 
L 357.762141 -378.237359 
L 353.765451 -378.446362 
L 349.76876 -377.725705 
L 345.772058 -377.965718 
L 341.775368 -378.308119 
L 337.778677 -378.433178 
L 333.781975 -378.475859 
L 329.785285 -377.082766 
L 325.788594 -379.624689 
L 321.791892 -377.158835 
L 317.795202 -377.316982 
L 313.798511 -377.742667 
L 309.801809 -379.431722 
L 305.805119 -378.042406 
L 301.808428 -378.923113 
L 297.811726 -378.141769 
L 293.815036 -378.651061 
L 289.818345 -378.328539 
L 285.821643 -379.067838 
L 281.824953 -378.433419 
L 277.828262 -377.979022 
L 273.83156 -378.900754 
L 269.83487 -378.022904 
L 265.838179 -378.202436 
L 261.841483 -377.531172 
L 257.844787 -377.741329 
L 253.848096 -380.301688 
L 249.8514 -378.499467 
L 245.854704 -377.468914 
L 241.858013 -377.86999 
L 237.861317 -377.704178 
L 233.864626 -377.79071 
L 229.86793 -379.326828 
L 225.871234 -378.487674 
L 221.874543 -378.229834 
L 217.877847 -377.622371 
L 213.881154 -377.650457 
L 209.884457 -378.19118 
L 205.887764 -377.733732 
L 201.891071 -377.775977 
L 197.894377 -377.704427 
L 193.897681 -378.108603 
L 189.900988 -378.47399 
L 185.904294 -378.586926 
L 181.9076 -378.18985 
L 177.910906 -377.521541 
L 173.914211 -378.733473 
L 169.917517 -377.715627 
L 165.920823 -378.05838 
L 161.924129 -377.673312 
L 157.927434 -378.87743 
L 153.93074 -377.77859 
L 149.934045 -377.9772 
L 145.937352 -378.551637 
L 141.940659 -378.429411 
L 137.943962 -378.465932 
L 133.947269 -378.114472 
L 129.950576 -379.378032 
L 125.953882 -378.540002 
L 121.957186 -378.516578 
L 117.960493 -378.744979 
L 113.963796 -377.836403 
L 109.967106 -378.004942 
L 105.97041 -378.117259 
L 101.973713 -376.606387 
L 97.977023 -377.902799 
L 93.980327 -378.643708 
L 89.983636 -377.762975 
z
"/>
    </defs>
    <g clip-path="url(#p70213f3e02)">
     <use xlink:href="#mee6330e476" x="0" y="561.6" style="fill: #ff7f0e; fill-opacity: 0.15"/>
    </g>
   </g>
   <g id="matplotlib.axis_1">
    <g id="xtick_1">
     <g id="line2d_1">
      <defs>
       <path id="m4796f425af" d="M 0 0 
L 0 3.5 
" style="stroke: #000000; stroke-width: 0.8"/>
      </defs>
      <g>
       <use xlink:href="#m4796f425af" x="87.985286" y="206.388" style="stroke: #000000; stroke-width: 0.8"/>
      </g>
     </g>
     <g id="text_1">
      <!-- −200 -->
      <g transform="translate(74.251693 220.986437) scale(0.1 -0.1)">
       <defs>
        <path id="DejaVuSans-2212" d="M 678 2272 
L 4684 2272 
L 4684 1741 
L 678 1741 
L 678 2272 
z
" transform="scale(0.015625)"/>
        <path id="DejaVuSans-32" d="M 1228 531 
L 3431 531 
L 3431 0 
L 469 0 
L 469 531 
Q 828 903 1448 1529 
Q 2069 2156 2228 2338 
Q 2531 2678 2651 2914 
Q 2772 3150 2772 3378 
Q 2772 3750 2511 3984 
Q 2250 4219 1831 4219 
Q 1534 4219 1204 4116 
Q 875 4013 500 3803 
L 500 4441 
Q 881 4594 1212 4672 
Q 1544 4750 1819 4750 
Q 2544 4750 2975 4387 
Q 3406 4025 3406 3419 
Q 3406 3131 3298 2873 
Q 3191 2616 2906 2266 
Q 2828 2175 2409 1742 
Q 1991 1309 1228 531 
z
" transform="scale(0.015625)"/>
        <path id="DejaVuSans-30" d="M 2034 4250 
Q 1547 4250 1301 3770 
Q 1056 3291 1056 2328 
Q 1056 1369 1301 889 
Q 1547 409 2034 409 
Q 2525 409 2770 889 
Q 3016 1369 3016 2328 
Q 3016 3291 2770 3770 
Q 2525 4250 2034 4250 
z
M 2034 4750 
Q 2819 4750 3233 4129 
Q 3647 3509 3647 2328 
Q 3647 1150 3233 529 
Q 2819 -91 2034 -91 
Q 1250 -91 836 529 
Q 422 1150 422 2328 
Q 422 3509 836 4129 
Q 1250 4750 2034 4750 
z
" transform="scale(0.015625)"/>
       </defs>
       <use xlink:href="#DejaVuSans-2212"/>
       <use xlink:href="#DejaVuSans-32" transform="translate(83.789062 0)"/>
       <use xlink:href="#DejaVuSans-30" transform="translate(147.412109 0)"/>
       <use xlink:href="#DejaVuSans-30" transform="translate(211.035156 0)"/>
      </g>
     </g>
    </g>
    <g id="xtick_2">
     <g id="line2d_2">
      <g>
       <use xlink:href="#m4796f425af" x="167.91917" y="206.388" style="stroke: #000000; stroke-width: 0.8"/>
      </g>
     </g>
     <g id="text_2">
      <!-- 0 -->
      <g transform="translate(164.73792 220.986437) scale(0.1 -0.1)">
       <use xlink:href="#DejaVuSans-30"/>
      </g>
     </g>
    </g>
    <g id="xtick_3">
     <g id="line2d_3">
      <g>
       <use xlink:href="#m4796f425af" x="247.853053" y="206.388" style="stroke: #000000; stroke-width: 0.8"/>
      </g>
     </g>
     <g id="text_3">
      <!-- 200 -->
      <g transform="translate(238.309303 220.986437) scale(0.1 -0.1)">
       <use xlink:href="#DejaVuSans-32"/>
       <use xlink:href="#DejaVuSans-30" transform="translate(63.623047 0)"/>
       <use xlink:href="#DejaVuSans-30" transform="translate(127.246094 0)"/>
      </g>
     </g>
    </g>
    <g id="xtick_4">
     <g id="line2d_4">
      <g>
       <use xlink:href="#m4796f425af" x="327.786937" y="206.388" style="stroke: #000000; stroke-width: 0.8"/>
      </g>
     </g>
     <g id="text_4">
      <!-- 400 -->
      <g transform="translate(318.243187 220.986437) scale(0.1 -0.1)">
       <defs>
        <path id="DejaVuSans-34" d="M 2419 4116 
L 825 1625 
L 2419 1625 
L 2419 4116 
z
M 2253 4666 
L 3047 4666 
L 3047 1625 
L 3713 1625 
L 3713 1100 
L 3047 1100 
L 3047 0 
L 2419 0 
L 2419 1100 
L 313 1100 
L 313 1709 
L 2253 4666 
z
" transform="scale(0.015625)"/>
       </defs>
       <use xlink:href="#DejaVuSans-34"/>
       <use xlink:href="#DejaVuSans-30" transform="translate(63.623047 0)"/>
       <use xlink:href="#DejaVuSans-30" transform="translate(127.246094 0)"/>
      </g>
     </g>
    </g>
    <g id="xtick_5">
     <g id="line2d_5">
      <g>
       <use xlink:href="#m4796f425af" x="407.720821" y="206.388" style="stroke: #000000; stroke-width: 0.8"/>
      </g>
     </g>
     <g id="text_5">
      <!-- 600 -->
      <g transform="translate(398.177071 220.986437) scale(0.1 -0.1)">
       <defs>
        <path id="DejaVuSans-36" d="M 2113 2584 
Q 1688 2584 1439 2293 
Q 1191 2003 1191 1497 
Q 1191 994 1439 701 
Q 1688 409 2113 409 
Q 2538 409 2786 701 
Q 3034 994 3034 1497 
Q 3034 2003 2786 2293 
Q 2538 2584 2113 2584 
z
M 3366 4563 
L 3366 3988 
Q 3128 4100 2886 4159 
Q 2644 4219 2406 4219 
Q 1781 4219 1451 3797 
Q 1122 3375 1075 2522 
Q 1259 2794 1537 2939 
Q 1816 3084 2150 3084 
Q 2853 3084 3261 2657 
Q 3669 2231 3669 1497 
Q 3669 778 3244 343 
Q 2819 -91 2113 -91 
Q 1303 -91 875 529 
Q 447 1150 447 2328 
Q 447 3434 972 4092 
Q 1497 4750 2381 4750 
Q 2619 4750 2861 4703 
Q 3103 4656 3366 4563 
z
" transform="scale(0.015625)"/>
       </defs>
       <use xlink:href="#DejaVuSans-36"/>
       <use xlink:href="#DejaVuSans-30" transform="translate(63.623047 0)"/>
       <use xlink:href="#DejaVuSans-30" transform="translate(127.246094 0)"/>
      </g>
     </g>
    </g>
    <g id="xtick_6">
     <g id="line2d_6">
      <g>
       <use xlink:href="#m4796f425af" x="487.654704" y="206.388" style="stroke: #000000; stroke-width: 0.8"/>
      </g>
     </g>
     <g id="text_6">
      <!-- 800 -->
      <g transform="translate(478.110954 220.986437) scale(0.1 -0.1)">
       <defs>
        <path id="DejaVuSans-38" d="M 2034 2216 
Q 1584 2216 1326 1975 
Q 1069 1734 1069 1313 
Q 1069 891 1326 650 
Q 1584 409 2034 409 
Q 2484 409 2743 651 
Q 3003 894 3003 1313 
Q 3003 1734 2745 1975 
Q 2488 2216 2034 2216 
z
M 1403 2484 
Q 997 2584 770 2862 
Q 544 3141 544 3541 
Q 544 4100 942 4425 
Q 1341 4750 2034 4750 
Q 2731 4750 3128 4425 
Q 3525 4100 3525 3541 
Q 3525 3141 3298 2862 
Q 3072 2584 2669 2484 
Q 3125 2378 3379 2068 
Q 3634 1759 3634 1313 
Q 3634 634 3220 271 
Q 2806 -91 2034 -91 
Q 1263 -91 848 271 
Q 434 634 434 1313 
Q 434 1759 690 2068 
Q 947 2378 1403 2484 
z
M 1172 3481 
Q 1172 3119 1398 2916 
Q 1625 2713 2034 2713 
Q 2441 2713 2670 2916 
Q 2900 3119 2900 3481 
Q 2900 3844 2670 4047 
Q 2441 4250 2034 4250 
Q 1625 4250 1398 4047 
Q 1172 3844 1172 3481 
z
" transform="scale(0.015625)"/>
       </defs>
       <use xlink:href="#DejaVuSans-38"/>
       <use xlink:href="#DejaVuSans-30" transform="translate(63.623047 0)"/>
       <use xlink:href="#DejaVuSans-30" transform="translate(127.246094 0)"/>
      </g>
     </g>
    </g>
   </g>
   <g id="matplotlib.axis_2">
    <g id="ytick_1">
     <g id="line2d_7">
      <defs>
       <path id="m4e43d4d5a6" d="M 0 0 
L -3.5 0 
" style="stroke: #000000; stroke-width: 0.8"/>
      </defs>
      <g>
       <use xlink:href="#m4e43d4d5a6" x="70.2" y="202.43488" style="stroke: #000000; stroke-width: 0.8"/>
      </g>
     </g>
     <g id="text_7">
      <!-- 0 -->
      <g transform="translate(56.8375 206.234099) scale(0.1 -0.1)">
       <use xlink:href="#DejaVuSans-30"/>
      </g>
     </g>
    </g>
    <g id="ytick_2">
     <g id="line2d_8">
      <g>
       <use xlink:href="#m4e43d4d5a6" x="70.2" y="170.935959" style="stroke: #000000; stroke-width: 0.8"/>
      </g>
     </g>
     <g id="text_8">
      <!-- 10 -->
      <g transform="translate(50.475 174.735178) scale(0.1 -0.1)">
       <defs>
        <path id="DejaVuSans-31" d="M 794 531 
L 1825 531 
L 1825 4091 
L 703 3866 
L 703 4441 
L 1819 4666 
L 2450 4666 
L 2450 531 
L 3481 531 
L 3481 0 
L 794 0 
L 794 531 
z
" transform="scale(0.015625)"/>
       </defs>
       <use xlink:href="#DejaVuSans-31"/>
       <use xlink:href="#DejaVuSans-30" transform="translate(63.623047 0)"/>
      </g>
     </g>
    </g>
    <g id="ytick_3">
     <g id="line2d_9">
      <g>
       <use xlink:href="#m4e43d4d5a6" x="70.2" y="139.437038" style="stroke: #000000; stroke-width: 0.8"/>
      </g>
     </g>
     <g id="text_9">
      <!-- 20 -->
      <g transform="translate(50.475 143.236257) scale(0.1 -0.1)">
       <use xlink:href="#DejaVuSans-32"/>
       <use xlink:href="#DejaVuSans-30" transform="translate(63.623047 0)"/>
      </g>
     </g>
    </g>
    <g id="ytick_4">
     <g id="line2d_10">
      <g>
       <use xlink:href="#m4e43d4d5a6" x="70.2" y="107.938117" style="stroke: #000000; stroke-width: 0.8"/>
      </g>
     </g>
     <g id="text_10">
      <!-- 30 -->
      <g transform="translate(50.475 111.737335) scale(0.1 -0.1)">
       <defs>
        <path id="DejaVuSans-33" d="M 2597 2516 
Q 3050 2419 3304 2112 
Q 3559 1806 3559 1356 
Q 3559 666 3084 287 
Q 2609 -91 1734 -91 
Q 1441 -91 1130 -33 
Q 819 25 488 141 
L 488 750 
Q 750 597 1062 519 
Q 1375 441 1716 441 
Q 2309 441 2620 675 
Q 2931 909 2931 1356 
Q 2931 1769 2642 2001 
Q 2353 2234 1838 2234 
L 1294 2234 
L 1294 2753 
L 1863 2753 
Q 2328 2753 2575 2939 
Q 2822 3125 2822 3475 
Q 2822 3834 2567 4026 
Q 2313 4219 1838 4219 
Q 1578 4219 1281 4162 
Q 984 4106 628 3988 
L 628 4550 
Q 988 4650 1302 4700 
Q 1616 4750 1894 4750 
Q 2613 4750 3031 4423 
Q 3450 4097 3450 3541 
Q 3450 3153 3228 2886 
Q 3006 2619 2597 2516 
z
" transform="scale(0.015625)"/>
       </defs>
       <use xlink:href="#DejaVuSans-33"/>
       <use xlink:href="#DejaVuSans-30" transform="translate(63.623047 0)"/>
      </g>
     </g>
    </g>
    <g id="ytick_5">
     <g id="line2d_11">
      <g>
       <use xlink:href="#m4e43d4d5a6" x="70.2" y="76.439196" style="stroke: #000000; stroke-width: 0.8"/>
      </g>
     </g>
     <g id="text_11">
      <!-- 40 -->
      <g transform="translate(50.475 80.238414) scale(0.1 -0.1)">
       <use xlink:href="#DejaVuSans-34"/>
       <use xlink:href="#DejaVuSans-30" transform="translate(63.623047 0)"/>
      </g>
     </g>
    </g>
    <g id="text_12">
     <!-- ΔLL (bits) -->
     <g transform="translate(44.395313 160.500937) rotate(-90) scale(0.1 -0.1)">
      <defs>
       <path id="DejaVuSans-394" d="M 2188 4044 
L 906 525 
L 3472 525 
L 2188 4044 
z
M 50 0 
L 1831 4666 
L 2547 4666 
L 4325 0 
L 50 0 
z
" transform="scale(0.015625)"/>
       <path id="DejaVuSans-4c" d="M 628 4666 
L 1259 4666 
L 1259 531 
L 3531 531 
L 3531 0 
L 628 0 
L 628 4666 
z
" transform="scale(0.015625)"/>
       <path id="DejaVuSans-20" transform="scale(0.015625)"/>
       <path id="DejaVuSans-28" d="M 1984 4856 
Q 1566 4138 1362 3434 
Q 1159 2731 1159 2009 
Q 1159 1288 1364 580 
Q 1569 -128 1984 -844 
L 1484 -844 
Q 1016 -109 783 600 
Q 550 1309 550 2009 
Q 550 2706 781 3412 
Q 1013 4119 1484 4856 
L 1984 4856 
z
" transform="scale(0.015625)"/>
       <path id="DejaVuSans-62" d="M 3116 1747 
Q 3116 2381 2855 2742 
Q 2594 3103 2138 3103 
Q 1681 3103 1420 2742 
Q 1159 2381 1159 1747 
Q 1159 1113 1420 752 
Q 1681 391 2138 391 
Q 2594 391 2855 752 
Q 3116 1113 3116 1747 
z
M 1159 2969 
Q 1341 3281 1617 3432 
Q 1894 3584 2278 3584 
Q 2916 3584 3314 3078 
Q 3713 2572 3713 1747 
Q 3713 922 3314 415 
Q 2916 -91 2278 -91 
Q 1894 -91 1617 61 
Q 1341 213 1159 525 
L 1159 0 
L 581 0 
L 581 4863 
L 1159 4863 
L 1159 2969 
z
" transform="scale(0.015625)"/>
       <path id="DejaVuSans-69" d="M 603 3500 
L 1178 3500 
L 1178 0 
L 603 0 
L 603 3500 
z
M 603 4863 
L 1178 4863 
L 1178 4134 
L 603 4134 
L 603 4863 
z
" transform="scale(0.015625)"/>
       <path id="DejaVuSans-74" d="M 1172 4494 
L 1172 3500 
L 2356 3500 
L 2356 3053 
L 1172 3053 
L 1172 1153 
Q 1172 725 1289 603 
Q 1406 481 1766 481 
L 2356 481 
L 2356 0 
L 1766 0 
Q 1100 0 847 248 
Q 594 497 594 1153 
L 594 3053 
L 172 3053 
L 172 3500 
L 594 3500 
L 594 4494 
L 1172 4494 
z
" transform="scale(0.015625)"/>
       <path id="DejaVuSans-73" d="M 2834 3397 
L 2834 2853 
Q 2591 2978 2328 3040 
Q 2066 3103 1784 3103 
Q 1356 3103 1142 2972 
Q 928 2841 928 2578 
Q 928 2378 1081 2264 
Q 1234 2150 1697 2047 
L 1894 2003 
Q 2506 1872 2764 1633 
Q 3022 1394 3022 966 
Q 3022 478 2636 193 
Q 2250 -91 1575 -91 
Q 1294 -91 989 -36 
Q 684 19 347 128 
L 347 722 
Q 666 556 975 473 
Q 1284 391 1588 391 
Q 1994 391 2212 530 
Q 2431 669 2431 922 
Q 2431 1156 2273 1281 
Q 2116 1406 1581 1522 
L 1381 1569 
Q 847 1681 609 1914 
Q 372 2147 372 2553 
Q 372 3047 722 3315 
Q 1072 3584 1716 3584 
Q 2034 3584 2315 3537 
Q 2597 3491 2834 3397 
z
" transform="scale(0.015625)"/>
       <path id="DejaVuSans-29" d="M 513 4856 
L 1013 4856 
Q 1481 4119 1714 3412 
Q 1947 2706 1947 2009 
Q 1947 1309 1714 600 
Q 1481 -109 1013 -844 
L 513 -844 
Q 928 -128 1133 580 
Q 1338 1288 1338 2009 
Q 1338 2731 1133 3434 
Q 928 4138 513 4856 
z
" transform="scale(0.015625)"/>
      </defs>
      <use xlink:href="#DejaVuSans-394"/>
      <use xlink:href="#DejaVuSans-4c" transform="translate(68.408203 0)"/>
      <use xlink:href="#DejaVuSans-4c" transform="translate(124.121094 0)"/>
      <use xlink:href="#DejaVuSans-20" transform="translate(179.833984 0)"/>
      <use xlink:href="#DejaVuSans-28" transform="translate(211.621094 0)"/>
      <use xlink:href="#DejaVuSans-62" transform="translate(250.634766 0)"/>
      <use xlink:href="#DejaVuSans-69" transform="translate(314.111328 0)"/>
      <use xlink:href="#DejaVuSans-74" transform="translate(341.894531 0)"/>
      <use xlink:href="#DejaVuSans-73" transform="translate(381.103516 0)"/>
      <use xlink:href="#DejaVuSans-29" transform="translate(433.203125 0)"/>
     </g>
    </g>
   </g>
   <g id="line2d_12">
    <path d="M 167.91917 206.388 
L 167.91917 67.392 
" clip-path="url(#p70213f3e02)" style="fill: none; stroke-dasharray: 2.96,1.28; stroke-dashoffset: 0; stroke: #000000; stroke-width: 0.8"/>
   </g>
   <g id="line2d_13">
    <path d="M 89.983636 190.480904 
L 93.980327 190.248908 
L 97.977023 190.753451 
L 101.973713 190.41922 
L 105.97041 191.076907 
L 109.967106 190.857053 
L 113.963796 190.914331 
L 117.960493 191.032768 
L 121.957186 191.19689 
L 125.953882 190.634274 
L 129.950576 191.228053 
L 133.947269 191.509583 
L 137.943962 191.31707 
L 141.940659 190.782955 
L 145.937352 190.047885 
L 149.934045 190.246239 
L 153.93074 190.689844 
L 157.927434 190.46491 
L 161.924129 190.742482 
L 165.920823 191.344457 
L 169.917517 190.192442 
L 173.914211 190.67203 
L 177.910906 190.564452 
L 181.9076 190.774165 
L 185.904294 190.509086 
L 189.900988 190.524008 
L 193.897681 190.987488 
L 197.894377 190.93158 
L 201.891071 190.806351 
L 205.887764 190.766936 
L 209.884457 191.111466 
L 213.881154 190.903038 
L 217.877847 190.623807 
L 221.874543 190.77744 
L 225.871234 190.001787 
L 229.86793 190.560599 
L 233.864626 190.797653 
L 237.861317 190.646757 
L 241.858013 190.438295 
L 245.854704 191.411905 
L 249.8514 190.305107 
L 253.848096 190.727018 
L 257.844787 190.909554 
L 261.841483 190.786643 
L 265.838179 190.95573 
L 269.83487 191.249386 
L 273.83156 190.325546 
L 277.828262 190.645107 
L 281.824953 190.755494 
L 285.821643 190.288301 
L 289.818345 190.247916 
L 293.815036 191.736902 
L 297.811726 190.626333 
L 301.808428 191.276507 
L 305.805119 190.658964 
L 309.801809 190.600791 
L 313.798511 190.205429 
L 317.795202 189.862406 
L 321.791892 190.721335 
L 325.788594 191.211228 
L 329.785285 190.412803 
L 333.781975 190.91553 
L 337.778677 190.201562 
L 341.775368 190.597358 
L 345.772058 190.938575 
L 349.76876 190.441455 
L 353.765451 190.313085 
L 357.762141 190.490554 
L 361.758843 190.324726 
L 365.755534 190.652183 
L 369.752224 190.946381 
L 373.748914 190.601351 
L 377.745605 190.27115 
L 381.742319 190.882182 
L 385.739009 191.156266 
L 389.7357 190.474411 
L 393.73239 191.335058 
L 397.72908 190.87181 
L 401.725771 190.965159 
L 405.722485 190.818387 
L 409.719175 190.925249 
L 413.715866 190.39351 
L 417.712556 190.502725 
L 421.709246 191.123768 
L 425.705937 190.472506 
L 429.702627 190.969921 
L 433.699341 190.816027 
L 437.696032 190.801508 
L 441.692722 190.686893 
L 445.689412 191.113293 
L 449.686103 190.504304 
L 453.682793 191.009286 
L 457.679507 190.532992 
L 461.676198 190.288397 
L 465.672888 190.580902 
L 469.669578 190.702439 
L 473.666269 190.113019 
L 477.662959 191.282871 
L 481.659673 191.468052 
L 485.656364 191.078153 
" clip-path="url(#p70213f3e02)" style="fill: none; stroke-dasharray: 1,1.65; stroke-dashoffset: 0; stroke: #1f77b4"/>
   </g>
   <g id="line2d_14">
    <path d="M 89.983636 191.041896 
L 93.980327 190.870279 
L 97.977023 190.967984 
L 101.973713 191.462527 
L 105.97041 190.358922 
L 109.967106 190.945738 
L 113.963796 190.852338 
L 117.960493 190.382145 
L 121.957186 190.67499 
L 125.953882 190.384756 
L 129.950576 190.044894 
L 133.947269 190.766171 
L 137.943962 190.819927 
L 141.940659 190.778297 
L 145.937352 190.79055 
L 149.934045 190.753916 
L 153.93074 190.931136 
L 157.927434 190.534974 
L 161.924129 191.007222 
L 165.920823 190.724674 
L 169.917517 190.82602 
L 173.914211 190.543444 
L 177.910906 191.315747 
L 181.9076 190.718755 
L 185.904294 190.587266 
L 189.900988 190.670045 
L 193.897681 190.898877 
L 197.894377 190.837478 
L 201.891071 190.770209 
L 205.887764 190.831928 
L 209.884457 190.700255 
L 213.881154 191.205735 
L 217.877847 191.004763 
L 221.874543 190.928601 
L 225.871234 190.610807 
L 229.86793 189.848744 
L 233.864626 190.839745 
L 237.861317 190.807132 
L 241.858013 191.003481 
L 245.854704 191.013312 
L 249.8514 190.526541 
L 253.848096 189.795757 
L 257.844787 190.905339 
L 261.841483 191.249097 
L 265.838179 190.601228 
L 269.83487 191.245066 
L 273.83156 190.36617 
L 277.828262 190.927758 
L 281.824953 190.681415 
L 285.821643 190.110829 
L 289.818345 191.082229 
L 293.815036 190.548917 
L 297.811726 190.843458 
L 301.808428 190.293962 
L 305.805119 190.621804 
L 309.801809 190.301073 
L 313.798511 190.899414 
L 317.795202 191.084797 
L 321.791892 191.448689 
L 325.788594 190.152735 
L 329.785285 191.456893 
L 333.781975 190.650842 
L 337.778677 190.801864 
L 341.775368 190.749173 
L 345.772058 190.939245 
L 349.76876 190.881585 
L 353.765451 190.582541 
L 357.762141 190.798454 
L 361.758843 190.996019 
L 365.755534 190.806442 
L 369.752224 190.145377 
L 373.748914 190.8566 
L 377.745605 191.499798 
L 381.742319 190.881981 
L 385.739009 191.500772 
L 389.7357 190.690918 
L 393.73239 190.781483 
L 397.72908 190.171543 
L 401.725771 190.446028 
L 405.722485 191.141179 
L 409.719175 190.350878 
L 413.715866 189.784507 
L 417.712556 190.545046 
L 421.709246 190.532687 
L 425.705937 190.954154 
L 429.702627 191.063898 
L 433.699341 190.676422 
L 437.696032 190.979864 
L 441.692722 190.386479 
L 445.689412 191.457716 
L 449.686103 190.485657 
L 453.682793 190.171972 
L 457.679507 190.583789 
L 461.676198 190.706899 
L 465.672888 190.54319 
L 469.669578 190.83725 
L 473.666269 189.889518 
L 477.662959 190.654458 
L 481.659673 191.026068 
L 485.656364 190.635588 
" clip-path="url(#p70213f3e02)" style="fill: none; stroke-dasharray: 1,1.65; stroke-dashoffset: 0; stroke: #ff7f0e"/>
   </g>
   <g id="line2d_15">
    <path d="M 89.983636 158.269696 
L 93.980327 156.417942 
L 97.977023 154.471461 
L 101.973713 148.769783 
L 105.97041 182.649485 
L 109.967106 149.67663 
L 113.963796 151.847923 
L 117.960493 133.318385 
L 121.957186 85.37231 
L 125.953882 152.093266 
L 129.950576 110.413664 
L 133.947269 158.83223 
L 137.943962 129.749737 
L 141.940659 152.46798 
L 145.937352 109.832762 
L 149.934045 150.838491 
L 153.93074 159.321505 
L 157.927434 148.53868 
L 161.924129 163.246376 
L 165.920823 119.154278 
L 169.917517 122.78766 
L 173.914211 147.367048 
L 177.910906 130.208556 
L 181.9076 113.377326 
L 185.904294 161.393112 
L 189.900988 173.806251 
L 193.897681 104.890354 
L 197.894377 83.527551 
L 201.891071 128.143818 
L 205.887764 147.713637 
L 209.884457 131.621009 
L 213.881154 73.71 
L 217.877847 132.35436 
L 221.874543 157.113291 
L 225.871234 143.218013 
L 229.86793 126.919759 
L 233.864626 114.050909 
L 237.861317 164.539271 
L 241.858013 113.33243 
L 245.854704 166.140044 
L 249.8514 131.565414 
L 253.848096 152.104603 
L 257.844787 176.83298 
L 261.841483 161.279166 
L 265.838179 180.450332 
L 269.83487 106.309981 
L 273.83156 147.637272 
L 277.828262 133.633483 
L 281.824953 180.66625 
L 285.821643 144.087069 
L 289.818345 149.065302 
L 293.815036 191.030391 
L 297.811726 164.304953 
L 301.808428 151.016109 
L 305.805119 161.041551 
L 309.801809 177.19205 
L 313.798511 177.691938 
L 317.795202 186.18425 
L 321.791892 163.702532 
L 325.788594 196.331729 
L 329.785285 193.5624 
L 333.781975 187.076771 
L 337.778677 188.27413 
L 341.775368 156.561754 
L 345.772058 188.046412 
L 349.76876 188.680176 
L 353.765451 174.595916 
L 357.762141 180.146527 
L 361.758843 180.681867 
L 365.755534 160.331742 
L 369.752224 200.07 
L 373.748914 194.506889 
L 377.745605 195.442697 
L 381.742319 179.954987 
L 385.739009 191.323131 
L 389.7357 193.614758 
L 393.73239 196.049525 
L 397.72908 175.696571 
L 401.725771 191.913293 
L 405.722485 188.652307 
L 409.719175 195.066531 
L 413.715866 188.821385 
L 417.712556 187.9245 
L 421.709246 185.216987 
L 425.705937 189.712941 
L 429.702627 158.620677 
L 433.699341 189.028847 
L 437.696032 191.802083 
L 441.692722 181.165832 
L 445.689412 146.790034 
L 449.686103 187.792025 
L 453.682793 187.786391 
L 457.679507 192.204789 
L 461.676198 192.467589 
L 465.672888 190.757761 
L 469.669578 193.776854 
L 473.666269 191.116764 
L 477.662959 197.541615 
L 481.659673 197.831383 
L 485.656364 196.023037 
" clip-path="url(#p70213f3e02)" style="fill: none; stroke: #1f77b4; stroke-width: 2.2; stroke-linecap: square"/>
   </g>
   <g id="line2d_16">
    <path d="M 89.983636 175.148941 
L 93.980327 172.551787 
L 97.977023 184.142733 
L 101.973713 154.608092 
L 105.97041 168.353426 
L 109.967106 173.779524 
L 113.963796 164.85502 
L 117.960493 162.840642 
L 121.957186 161.462763 
L 125.953882 156.282498 
L 129.950576 147.220193 
L 133.947269 166.521947 
L 137.943962 153.673376 
L 141.940659 101.525376 
L 145.937352 187.145712 
L 149.934045 168.844877 
L 153.93074 163.569338 
L 157.927434 121.271764 
L 161.924129 180.379686 
L 165.920823 157.673912 
L 169.917517 167.323652 
L 173.914211 184.124515 
L 177.910906 187.287697 
L 181.9076 159.240449 
L 185.904294 164.48846 
L 189.900988 164.805756 
L 193.897681 148.141795 
L 197.894377 169.14065 
L 201.891071 144.920763 
L 205.887764 154.390808 
L 209.884457 184.742983 
L 213.881154 147.003915 
L 217.877847 156.767101 
L 221.874543 120.403314 
L 225.871234 124.71421 
L 229.86793 178.36962 
L 233.864626 127.471558 
L 237.861317 174.909315 
L 241.858013 152.007026 
L 245.854704 159.400835 
L 249.8514 127.641804 
L 253.848096 155.591745 
L 257.844787 128.016887 
L 261.841483 119.306606 
L 265.838179 140.444217 
L 269.83487 155.548491 
L 273.83156 162.543002 
L 277.828262 182.798337 
L 281.824953 160.073145 
L 285.821643 178.034028 
L 289.818345 169.766491 
L 293.815036 188.488852 
L 297.811726 149.239636 
L 301.808428 147.36012 
L 305.805119 184.212847 
L 309.801809 169.180622 
L 313.798511 184.126363 
L 317.795202 183.046863 
L 321.791892 175.623511 
L 325.788594 184.949892 
L 329.785285 195.166765 
L 333.781975 196.625248 
L 337.778677 194.336936 
L 341.775368 194.645109 
L 345.772058 191.297647 
L 349.76876 194.007345 
L 353.765451 193.048363 
L 357.762141 182.933393 
L 361.758843 180.823455 
L 365.755534 192.67042 
L 369.752224 192.923798 
L 373.748914 189.183441 
L 377.745605 189.878784 
L 381.742319 191.716925 
L 385.739009 198.406421 
L 389.7357 196.632375 
L 393.73239 189.106767 
L 397.72908 194.813071 
L 401.725771 180.170505 
L 405.722485 197.706865 
L 409.719175 192.99191 
L 413.715866 181.427475 
L 417.712556 190.124891 
L 421.709246 167.746473 
L 425.705937 177.982472 
L 429.702627 196.800814 
L 433.699341 197.374913 
L 437.696032 197.894914 
L 441.692722 198.751089 
L 445.689412 192.693284 
L 449.686103 197.976755 
L 453.682793 168.11678 
L 457.679507 179.526984 
L 461.676198 174.478169 
L 465.672888 192.056242 
L 469.669578 183.659156 
L 473.666269 192.893079 
L 477.662959 189.450945 
L 481.659673 182.245255 
L 485.656364 193.524647 
" clip-path="url(#p70213f3e02)" style="fill: none; stroke: #ff7f0e; stroke-width: 2.2; stroke-linecap: square"/>
   </g>
   <g id="patch_3">
    <path d="M 70.2 206.388 
L 70.2 67.392 
" style="fill: none; stroke: #000000; stroke-width: 0.8; stroke-linejoin: miter; stroke-linecap: square"/>
   </g>
   <g id="patch_4">
    <path d="M 505.44 206.388 
L 505.44 67.392 
" style="fill: none; stroke: #000000; stroke-width: 0.8; stroke-linejoin: miter; stroke-linecap: square"/>
   </g>
   <g id="patch_5">
    <path d="M 70.2 206.388 
L 505.44 206.388 
" style="fill: none; stroke: #000000; stroke-width: 0.8; stroke-linejoin: miter; stroke-linecap: square"/>
   </g>
   <g id="patch_6">
    <path d="M 70.2 67.392 
L 505.44 67.392 
" style="fill: none; stroke: #000000; stroke-width: 0.8; stroke-linejoin: miter; stroke-linecap: square"/>
   </g>
   <g id="text_13">
    <!-- (MFEF vs MLIP) — O-flow — Panel A: overlay + null bands -->
    <g transform="translate(115.625625 61.392) scale(0.12 -0.12)">
     <defs>
      <path id="DejaVuSans-4d" d="M 628 4666 
L 1569 4666 
L 2759 1491 
L 3956 4666 
L 4897 4666 
L 4897 0 
L 4281 0 
L 4281 4097 
L 3078 897 
L 2444 897 
L 1241 4097 
L 1241 0 
L 628 0 
L 628 4666 
z
" transform="scale(0.015625)"/>
      <path id="DejaVuSans-46" d="M 628 4666 
L 3309 4666 
L 3309 4134 
L 1259 4134 
L 1259 2759 
L 3109 2759 
L 3109 2228 
L 1259 2228 
L 1259 0 
L 628 0 
L 628 4666 
z
" transform="scale(0.015625)"/>
      <path id="DejaVuSans-45" d="M 628 4666 
L 3578 4666 
L 3578 4134 
L 1259 4134 
L 1259 2753 
L 3481 2753 
L 3481 2222 
L 1259 2222 
L 1259 531 
L 3634 531 
L 3634 0 
L 628 0 
L 628 4666 
z
" transform="scale(0.015625)"/>
      <path id="DejaVuSans-76" d="M 191 3500 
L 800 3500 
L 1894 563 
L 2988 3500 
L 3597 3500 
L 2284 0 
L 1503 0 
L 191 3500 
z
" transform="scale(0.015625)"/>
      <path id="DejaVuSans-49" d="M 628 4666 
L 1259 4666 
L 1259 0 
L 628 0 
L 628 4666 
z
" transform="scale(0.015625)"/>
      <path id="DejaVuSans-50" d="M 1259 4147 
L 1259 2394 
L 2053 2394 
Q 2494 2394 2734 2622 
Q 2975 2850 2975 3272 
Q 2975 3691 2734 3919 
Q 2494 4147 2053 4147 
L 1259 4147 
z
M 628 4666 
L 2053 4666 
Q 2838 4666 3239 4311 
Q 3641 3956 3641 3272 
Q 3641 2581 3239 2228 
Q 2838 1875 2053 1875 
L 1259 1875 
L 1259 0 
L 628 0 
L 628 4666 
z
" transform="scale(0.015625)"/>
      <path id="DejaVuSans-2014" d="M 313 1978 
L 6088 1978 
L 6088 1528 
L 313 1528 
L 313 1978 
z
" transform="scale(0.015625)"/>
      <path id="DejaVuSans-4f" d="M 2522 4238 
Q 1834 4238 1429 3725 
Q 1025 3213 1025 2328 
Q 1025 1447 1429 934 
Q 1834 422 2522 422 
Q 3209 422 3611 934 
Q 4013 1447 4013 2328 
Q 4013 3213 3611 3725 
Q 3209 4238 2522 4238 
z
M 2522 4750 
Q 3503 4750 4090 4092 
Q 4678 3434 4678 2328 
Q 4678 1225 4090 567 
Q 3503 -91 2522 -91 
Q 1538 -91 948 565 
Q 359 1222 359 2328 
Q 359 3434 948 4092 
Q 1538 4750 2522 4750 
z
" transform="scale(0.015625)"/>
      <path id="DejaVuSans-2d" d="M 313 2009 
L 1997 2009 
L 1997 1497 
L 313 1497 
L 313 2009 
z
" transform="scale(0.015625)"/>
      <path id="DejaVuSans-66" d="M 2375 4863 
L 2375 4384 
L 1825 4384 
Q 1516 4384 1395 4259 
Q 1275 4134 1275 3809 
L 1275 3500 
L 2222 3500 
L 2222 3053 
L 1275 3053 
L 1275 0 
L 697 0 
L 697 3053 
L 147 3053 
L 147 3500 
L 697 3500 
L 697 3744 
Q 697 4328 969 4595 
Q 1241 4863 1831 4863 
L 2375 4863 
z
" transform="scale(0.015625)"/>
      <path id="DejaVuSans-6c" d="M 603 4863 
L 1178 4863 
L 1178 0 
L 603 0 
L 603 4863 
z
" transform="scale(0.015625)"/>
      <path id="DejaVuSans-6f" d="M 1959 3097 
Q 1497 3097 1228 2736 
Q 959 2375 959 1747 
Q 959 1119 1226 758 
Q 1494 397 1959 397 
Q 2419 397 2687 759 
Q 2956 1122 2956 1747 
Q 2956 2369 2687 2733 
Q 2419 3097 1959 3097 
z
M 1959 3584 
Q 2709 3584 3137 3096 
Q 3566 2609 3566 1747 
Q 3566 888 3137 398 
Q 2709 -91 1959 -91 
Q 1206 -91 779 398 
Q 353 888 353 1747 
Q 353 2609 779 3096 
Q 1206 3584 1959 3584 
z
" transform="scale(0.015625)"/>
      <path id="DejaVuSans-77" d="M 269 3500 
L 844 3500 
L 1563 769 
L 2278 3500 
L 2956 3500 
L 3675 769 
L 4391 3500 
L 4966 3500 
L 4050 0 
L 3372 0 
L 2619 2869 
L 1863 0 
L 1184 0 
L 269 3500 
z
" transform="scale(0.015625)"/>
      <path id="DejaVuSans-61" d="M 2194 1759 
Q 1497 1759 1228 1600 
Q 959 1441 959 1056 
Q 959 750 1161 570 
Q 1363 391 1709 391 
Q 2188 391 2477 730 
Q 2766 1069 2766 1631 
L 2766 1759 
L 2194 1759 
z
M 3341 1997 
L 3341 0 
L 2766 0 
L 2766 531 
Q 2569 213 2275 61 
Q 1981 -91 1556 -91 
Q 1019 -91 701 211 
Q 384 513 384 1019 
Q 384 1609 779 1909 
Q 1175 2209 1959 2209 
L 2766 2209 
L 2766 2266 
Q 2766 2663 2505 2880 
Q 2244 3097 1772 3097 
Q 1472 3097 1187 3025 
Q 903 2953 641 2809 
L 641 3341 
Q 956 3463 1253 3523 
Q 1550 3584 1831 3584 
Q 2591 3584 2966 3190 
Q 3341 2797 3341 1997 
z
" transform="scale(0.015625)"/>
      <path id="DejaVuSans-6e" d="M 3513 2113 
L 3513 0 
L 2938 0 
L 2938 2094 
Q 2938 2591 2744 2837 
Q 2550 3084 2163 3084 
Q 1697 3084 1428 2787 
Q 1159 2491 1159 1978 
L 1159 0 
L 581 0 
L 581 3500 
L 1159 3500 
L 1159 2956 
Q 1366 3272 1645 3428 
Q 1925 3584 2291 3584 
Q 2894 3584 3203 3211 
Q 3513 2838 3513 2113 
z
" transform="scale(0.015625)"/>
      <path id="DejaVuSans-65" d="M 3597 1894 
L 3597 1613 
L 953 1613 
Q 991 1019 1311 708 
Q 1631 397 2203 397 
Q 2534 397 2845 478 
Q 3156 559 3463 722 
L 3463 178 
Q 3153 47 2828 -22 
Q 2503 -91 2169 -91 
Q 1331 -91 842 396 
Q 353 884 353 1716 
Q 353 2575 817 3079 
Q 1281 3584 2069 3584 
Q 2775 3584 3186 3129 
Q 3597 2675 3597 1894 
z
M 3022 2063 
Q 3016 2534 2758 2815 
Q 2500 3097 2075 3097 
Q 1594 3097 1305 2825 
Q 1016 2553 972 2059 
L 3022 2063 
z
" transform="scale(0.015625)"/>
      <path id="DejaVuSans-41" d="M 2188 4044 
L 1331 1722 
L 3047 1722 
L 2188 4044 
z
M 1831 4666 
L 2547 4666 
L 4325 0 
L 3669 0 
L 3244 1197 
L 1141 1197 
L 716 0 
L 50 0 
L 1831 4666 
z
" transform="scale(0.015625)"/>
      <path id="DejaVuSans-3a" d="M 750 794 
L 1409 794 
L 1409 0 
L 750 0 
L 750 794 
z
M 750 3309 
L 1409 3309 
L 1409 2516 
L 750 2516 
L 750 3309 
z
" transform="scale(0.015625)"/>
      <path id="DejaVuSans-72" d="M 2631 2963 
Q 2534 3019 2420 3045 
Q 2306 3072 2169 3072 
Q 1681 3072 1420 2755 
Q 1159 2438 1159 1844 
L 1159 0 
L 581 0 
L 581 3500 
L 1159 3500 
L 1159 2956 
Q 1341 3275 1631 3429 
Q 1922 3584 2338 3584 
Q 2397 3584 2469 3576 
Q 2541 3569 2628 3553 
L 2631 2963 
z
" transform="scale(0.015625)"/>
      <path id="DejaVuSans-79" d="M 2059 -325 
Q 1816 -950 1584 -1140 
Q 1353 -1331 966 -1331 
L 506 -1331 
L 506 -850 
L 844 -850 
Q 1081 -850 1212 -737 
Q 1344 -625 1503 -206 
L 1606 56 
L 191 3500 
L 800 3500 
L 1894 763 
L 2988 3500 
L 3597 3500 
L 2059 -325 
z
" transform="scale(0.015625)"/>
      <path id="DejaVuSans-2b" d="M 2944 4013 
L 2944 2272 
L 4684 2272 
L 4684 1741 
L 2944 1741 
L 2944 0 
L 2419 0 
L 2419 1741 
L 678 1741 
L 678 2272 
L 2419 2272 
L 2419 4013 
L 2944 4013 
z
" transform="scale(0.015625)"/>
      <path id="DejaVuSans-75" d="M 544 1381 
L 544 3500 
L 1119 3500 
L 1119 1403 
Q 1119 906 1312 657 
Q 1506 409 1894 409 
Q 2359 409 2629 706 
Q 2900 1003 2900 1516 
L 2900 3500 
L 3475 3500 
L 3475 0 
L 2900 0 
L 2900 538 
Q 2691 219 2414 64 
Q 2138 -91 1772 -91 
Q 1169 -91 856 284 
Q 544 659 544 1381 
z
M 1991 3584 
L 1991 3584 
z
" transform="scale(0.015625)"/>
      <path id="DejaVuSans-64" d="M 2906 2969 
L 2906 4863 
L 3481 4863 
L 3481 0 
L 2906 0 
L 2906 525 
Q 2725 213 2448 61 
Q 2172 -91 1784 -91 
Q 1150 -91 751 415 
Q 353 922 353 1747 
Q 353 2572 751 3078 
Q 1150 3584 1784 3584 
Q 2172 3584 2448 3432 
Q 2725 3281 2906 2969 
z
M 947 1747 
Q 947 1113 1208 752 
Q 1469 391 1925 391 
Q 2381 391 2643 752 
Q 2906 1113 2906 1747 
Q 2906 2381 2643 2742 
Q 2381 3103 1925 3103 
Q 1469 3103 1208 2742 
Q 947 2381 947 1747 
z
" transform="scale(0.015625)"/>
     </defs>
     <use xlink:href="#DejaVuSans-28"/>
     <use xlink:href="#DejaVuSans-4d" transform="translate(39.013672 0)"/>
     <use xlink:href="#DejaVuSans-46" transform="translate(125.292969 0)"/>
     <use xlink:href="#DejaVuSans-45" transform="translate(182.8125 0)"/>
     <use xlink:href="#DejaVuSans-46" transform="translate(245.996094 0)"/>
     <use xlink:href="#DejaVuSans-20" transform="translate(303.515625 0)"/>
     <use xlink:href="#DejaVuSans-76" transform="translate(335.302734 0)"/>
     <use xlink:href="#DejaVuSans-73" transform="translate(394.482422 0)"/>
     <use xlink:href="#DejaVuSans-20" transform="translate(446.582031 0)"/>
     <use xlink:href="#DejaVuSans-4d" transform="translate(478.369141 0)"/>
     <use xlink:href="#DejaVuSans-4c" transform="translate(564.648438 0)"/>
     <use xlink:href="#DejaVuSans-49" transform="translate(620.361328 0)"/>
     <use xlink:href="#DejaVuSans-50" transform="translate(649.853516 0)"/>
     <use xlink:href="#DejaVuSans-29" transform="translate(710.15625 0)"/>
     <use xlink:href="#DejaVuSans-20" transform="translate(749.169922 0)"/>
     <use xlink:href="#DejaVuSans-2014" transform="translate(780.957031 0)"/>
     <use xlink:href="#DejaVuSans-20" transform="translate(880.957031 0)"/>
     <use xlink:href="#DejaVuSans-4f" transform="translate(912.744141 0)"/>
     <use xlink:href="#DejaVuSans-2d" transform="translate(994.205078 0)"/>
     <use xlink:href="#DejaVuSans-66" transform="translate(1030.289062 0)"/>
     <use xlink:href="#DejaVuSans-6c" transform="translate(1065.494141 0)"/>
     <use xlink:href="#DejaVuSans-6f" transform="translate(1093.277344 0)"/>
     <use xlink:href="#DejaVuSans-77" transform="translate(1154.458984 0)"/>
     <use xlink:href="#DejaVuSans-20" transform="translate(1236.246094 0)"/>
     <use xlink:href="#DejaVuSans-2014" transform="translate(1268.033203 0)"/>
     <use xlink:href="#DejaVuSans-20" transform="translate(1368.033203 0)"/>
     <use xlink:href="#DejaVuSans-50" transform="translate(1399.820312 0)"/>
     <use xlink:href="#DejaVuSans-61" transform="translate(1455.623047 0)"/>
     <use xlink:href="#DejaVuSans-6e" transform="translate(1516.902344 0)"/>
     <use xlink:href="#DejaVuSans-65" transform="translate(1580.28125 0)"/>
     <use xlink:href="#DejaVuSans-6c" transform="translate(1641.804688 0)"/>
     <use xlink:href="#DejaVuSans-20" transform="translate(1669.587891 0)"/>
     <use xlink:href="#DejaVuSans-41" transform="translate(1701.375 0)"/>
     <use xlink:href="#DejaVuSans-3a" transform="translate(1768.033203 0)"/>
     <use xlink:href="#DejaVuSans-20" transform="translate(1801.724609 0)"/>
     <use xlink:href="#DejaVuSans-6f" transform="translate(1833.511719 0)"/>
     <use xlink:href="#DejaVuSans-76" transform="translate(1894.693359 0)"/>
     <use xlink:href="#DejaVuSans-65" transform="translate(1953.873047 0)"/>
     <use xlink:href="#DejaVuSans-72" transform="translate(2015.396484 0)"/>
     <use xlink:href="#DejaVuSans-6c" transform="translate(2056.509766 0)"/>
     <use xlink:href="#DejaVuSans-61" transform="translate(2084.292969 0)"/>
     <use xlink:href="#DejaVuSans-79" transform="translate(2145.572266 0)"/>
     <use xlink:href="#DejaVuSans-20" transform="translate(2204.751953 0)"/>
     <use xlink:href="#DejaVuSans-2b" transform="translate(2236.539062 0)"/>
     <use xlink:href="#DejaVuSans-20" transform="translate(2320.328125 0)"/>
     <use xlink:href="#DejaVuSans-6e" transform="translate(2352.115234 0)"/>
     <use xlink:href="#DejaVuSans-75" transform="translate(2415.494141 0)"/>
     <use xlink:href="#DejaVuSans-6c" transform="translate(2478.873047 0)"/>
     <use xlink:href="#DejaVuSans-6c" transform="translate(2506.65625 0)"/>
     <use xlink:href="#DejaVuSans-20" transform="translate(2534.439453 0)"/>
     <use xlink:href="#DejaVuSans-62" transform="translate(2566.226562 0)"/>
     <use xlink:href="#DejaVuSans-61" transform="translate(2629.703125 0)"/>
     <use xlink:href="#DejaVuSans-6e" transform="translate(2690.982422 0)"/>
     <use xlink:href="#DejaVuSans-64" transform="translate(2754.361328 0)"/>
     <use xlink:href="#DejaVuSans-73" transform="translate(2817.837891 0)"/>
    </g>
   </g>
   <g id="legend_1">
    <g id="patch_7">
     <path d="M 79.2 83.990437 
L 99.2 83.990437 
L 99.2 76.990437 
L 79.2 76.990437 
z
" style="fill: #1f77b4; fill-opacity: 0.15"/>
    </g>
    <g id="text_14">
     <!-- MFEF→MLIP null μ±σ -->
     <g transform="translate(107.2 83.990437) scale(0.1 -0.1)">
      <defs>
       <path id="DejaVuSans-2192" d="M 5050 2147 
L 5050 1866 
L 3822 638 
L 3447 1013 
L 4175 1741 
L 366 1741 
L 366 2272 
L 4175 2272 
L 3447 3000 
L 3822 3375 
L 5050 2147 
z
" transform="scale(0.015625)"/>
       <path id="DejaVuSans-3bc" d="M 544 -1331 
L 544 3500 
L 1119 3500 
L 1119 1325 
Q 1119 872 1334 640 
Q 1550 409 1972 409 
Q 2434 409 2667 671 
Q 2900 934 2900 1459 
L 2900 3500 
L 3475 3500 
L 3475 806 
Q 3475 619 3529 530 
Q 3584 441 3700 441 
Q 3728 441 3778 458 
Q 3828 475 3916 513 
L 3916 50 
Q 3788 -22 3673 -56 
Q 3559 -91 3450 -91 
Q 3234 -91 3106 31 
Q 2978 153 2931 403 
Q 2775 156 2548 32 
Q 2322 -91 2016 -91 
Q 1697 -91 1473 31 
Q 1250 153 1119 397 
L 1119 -1331 
L 544 -1331 
z
" transform="scale(0.015625)"/>
       <path id="DejaVuSans-b1" d="M 2944 4013 
L 2944 2803 
L 4684 2803 
L 4684 2272 
L 2944 2272 
L 2944 1063 
L 2419 1063 
L 2419 2272 
L 678 2272 
L 678 2803 
L 2419 2803 
L 2419 4013 
L 2944 4013 
z
M 678 531 
L 4684 531 
L 4684 0 
L 678 0 
L 678 531 
z
" transform="scale(0.015625)"/>
       <path id="DejaVuSans-3c3" d="M 1959 3044 
Q 1484 3044 1228 2700 
Q 959 2341 959 1747 
Q 959 1119 1226 758 
Q 1494 397 1959 397 
Q 2419 397 2687 759 
Q 2956 1122 2956 1747 
Q 2956 2319 2688 2700 
Q 2441 3044 1959 3044 
z
M 1959 3500 
L 3869 3500 
L 3869 2925 
L 3225 2925 
Q 3566 2438 3566 1747 
Q 3566 888 3138 400 
Q 2709 -91 1959 -91 
Q 1206 -91 781 400 
Q 353 888 353 1747 
Q 353 2613 781 3097 
Q 1134 3500 1959 3500 
z
" transform="scale(0.015625)"/>
      </defs>
      <use xlink:href="#DejaVuSans-4d"/>
      <use xlink:href="#DejaVuSans-46" transform="translate(86.279297 0)"/>
      <use xlink:href="#DejaVuSans-45" transform="translate(143.798828 0)"/>
      <use xlink:href="#DejaVuSans-46" transform="translate(206.982422 0)"/>
      <use xlink:href="#DejaVuSans-2192" transform="translate(264.501953 0)"/>
      <use xlink:href="#DejaVuSans-4d" transform="translate(348.291016 0)"/>
      <use xlink:href="#DejaVuSans-4c" transform="translate(434.570312 0)"/>
      <use xlink:href="#DejaVuSans-49" transform="translate(490.283203 0)"/>
      <use xlink:href="#DejaVuSans-50" transform="translate(519.775391 0)"/>
      <use xlink:href="#DejaVuSans-20" transform="translate(580.078125 0)"/>
      <use xlink:href="#DejaVuSans-6e" transform="translate(611.865234 0)"/>
      <use xlink:href="#DejaVuSans-75" transform="translate(675.244141 0)"/>
      <use xlink:href="#DejaVuSans-6c" transform="translate(738.623047 0)"/>
      <use xlink:href="#DejaVuSans-6c" transform="translate(766.40625 0)"/>
      <use xlink:href="#DejaVuSans-20" transform="translate(794.189453 0)"/>
      <use xlink:href="#DejaVuSans-3bc" transform="translate(825.976562 0)"/>
      <use xlink:href="#DejaVuSans-b1" transform="translate(889.599609 0)"/>
      <use xlink:href="#DejaVuSans-3c3" transform="translate(973.388672 0)"/>
     </g>
    </g>
    <g id="patch_8">
     <path d="M 79.2 98.668563 
L 99.2 98.668563 
L 99.2 91.668563 
L 79.2 91.668563 
z
" style="fill: #ff7f0e; fill-opacity: 0.15"/>
    </g>
    <g id="text_15">
     <!-- MLIP→MFEF null μ±σ -->
     <g transform="translate(107.2 98.668563) scale(0.1 -0.1)">
      <use xlink:href="#DejaVuSans-4d"/>
      <use xlink:href="#DejaVuSans-4c" transform="translate(86.279297 0)"/>
      <use xlink:href="#DejaVuSans-49" transform="translate(141.992188 0)"/>
      <use xlink:href="#DejaVuSans-50" transform="translate(171.484375 0)"/>
      <use xlink:href="#DejaVuSans-2192" transform="translate(231.787109 0)"/>
      <use xlink:href="#DejaVuSans-4d" transform="translate(315.576172 0)"/>
      <use xlink:href="#DejaVuSans-46" transform="translate(401.855469 0)"/>
      <use xlink:href="#DejaVuSans-45" transform="translate(459.375 0)"/>
      <use xlink:href="#DejaVuSans-46" transform="translate(522.558594 0)"/>
      <use xlink:href="#DejaVuSans-20" transform="translate(580.078125 0)"/>
      <use xlink:href="#DejaVuSans-6e" transform="translate(611.865234 0)"/>
      <use xlink:href="#DejaVuSans-75" transform="translate(675.244141 0)"/>
      <use xlink:href="#DejaVuSans-6c" transform="translate(738.623047 0)"/>
      <use xlink:href="#DejaVuSans-6c" transform="translate(766.40625 0)"/>
      <use xlink:href="#DejaVuSans-20" transform="translate(794.189453 0)"/>
      <use xlink:href="#DejaVuSans-3bc" transform="translate(825.976562 0)"/>
      <use xlink:href="#DejaVuSans-b1" transform="translate(889.599609 0)"/>
      <use xlink:href="#DejaVuSans-3c3" transform="translate(973.388672 0)"/>
     </g>
    </g>
    <g id="line2d_17">
     <path d="M 230.876562 80.490437 
L 240.876562 80.490437 
L 250.876562 80.490437 
" style="fill: none; stroke: #1f77b4; stroke-width: 2.2; stroke-linecap: square"/>
    </g>
    <g id="text_16">
     <!-- MFEF→MLIP -->
     <g transform="translate(258.876562 83.990437) scale(0.1 -0.1)">
      <use xlink:href="#DejaVuSans-4d"/>
      <use xlink:href="#DejaVuSans-46" transform="translate(86.279297 0)"/>
      <use xlink:href="#DejaVuSans-45" transform="translate(143.798828 0)"/>
      <use xlink:href="#DejaVuSans-46" transform="translate(206.982422 0)"/>
      <use xlink:href="#DejaVuSans-2192" transform="translate(264.501953 0)"/>
      <use xlink:href="#DejaVuSans-4d" transform="translate(348.291016 0)"/>
      <use xlink:href="#DejaVuSans-4c" transform="translate(434.570312 0)"/>
      <use xlink:href="#DejaVuSans-49" transform="translate(490.283203 0)"/>
      <use xlink:href="#DejaVuSans-50" transform="translate(519.775391 0)"/>
     </g>
    </g>
    <g id="line2d_18">
     <path d="M 230.876562 95.168563 
L 240.876562 95.168563 
L 250.876562 95.168563 
" style="fill: none; stroke: #ff7f0e; stroke-width: 2.2; stroke-linecap: square"/>
    </g>
    <g id="text_17">
     <!-- MLIP→MFEF -->
     <g transform="translate(258.876562 98.668563) scale(0.1 -0.1)">
      <use xlink:href="#DejaVuSans-4d"/>
      <use xlink:href="#DejaVuSans-4c" transform="translate(86.279297 0)"/>
      <use xlink:href="#DejaVuSans-49" transform="translate(141.992188 0)"/>
      <use xlink:href="#DejaVuSans-50" transform="translate(171.484375 0)"/>
      <use xlink:href="#DejaVuSans-2192" transform="translate(231.787109 0)"/>
      <use xlink:href="#DejaVuSans-4d" transform="translate(315.576172 0)"/>
      <use xlink:href="#DejaVuSans-46" transform="translate(401.855469 0)"/>
      <use xlink:href="#DejaVuSans-45" transform="translate(459.375 0)"/>
      <use xlink:href="#DejaVuSans-46" transform="translate(522.558594 0)"/>
     </g>
    </g>
   </g>
  </g>
  <g id="axes_2">
   <g id="patch_9">
    <path d="M 70.2 353.106 
L 505.44 353.106 
L 505.44 237.276 
L 70.2 237.276 
z
" style="fill: #ffffff"/>
   </g>
   <g id="matplotlib.axis_3">
    <g id="xtick_7">
     <g id="line2d_19">
      <g>
       <use xlink:href="#m4796f425af" x="87.985286" y="353.106" style="stroke: #000000; stroke-width: 0.8"/>
      </g>
     </g>
     <g id="text_18">
      <!-- −200 -->
      <g transform="translate(74.251693 367.704438) scale(0.1 -0.1)">
       <use xlink:href="#DejaVuSans-2212"/>
       <use xlink:href="#DejaVuSans-32" transform="translate(83.789062 0)"/>
       <use xlink:href="#DejaVuSans-30" transform="translate(147.412109 0)"/>
       <use xlink:href="#DejaVuSans-30" transform="translate(211.035156 0)"/>
      </g>
     </g>
    </g>
    <g id="xtick_8">
     <g id="line2d_20">
      <g>
       <use xlink:href="#m4796f425af" x="167.91917" y="353.106" style="stroke: #000000; stroke-width: 0.8"/>
      </g>
     </g>
     <g id="text_19">
      <!-- 0 -->
      <g transform="translate(164.73792 367.704438) scale(0.1 -0.1)">
       <use xlink:href="#DejaVuSans-30"/>
      </g>
     </g>
    </g>
    <g id="xtick_9">
     <g id="line2d_21">
      <g>
       <use xlink:href="#m4796f425af" x="247.853053" y="353.106" style="stroke: #000000; stroke-width: 0.8"/>
      </g>
     </g>
     <g id="text_20">
      <!-- 200 -->
      <g transform="translate(238.309303 367.704438) scale(0.1 -0.1)">
       <use xlink:href="#DejaVuSans-32"/>
       <use xlink:href="#DejaVuSans-30" transform="translate(63.623047 0)"/>
       <use xlink:href="#DejaVuSans-30" transform="translate(127.246094 0)"/>
      </g>
     </g>
    </g>
    <g id="xtick_10">
     <g id="line2d_22">
      <g>
       <use xlink:href="#m4796f425af" x="327.786937" y="353.106" style="stroke: #000000; stroke-width: 0.8"/>
      </g>
     </g>
     <g id="text_21">
      <!-- 400 -->
      <g transform="translate(318.243187 367.704438) scale(0.1 -0.1)">
       <use xlink:href="#DejaVuSans-34"/>
       <use xlink:href="#DejaVuSans-30" transform="translate(63.623047 0)"/>
       <use xlink:href="#DejaVuSans-30" transform="translate(127.246094 0)"/>
      </g>
     </g>
    </g>
    <g id="xtick_11">
     <g id="line2d_23">
      <g>
       <use xlink:href="#m4796f425af" x="407.720821" y="353.106" style="stroke: #000000; stroke-width: 0.8"/>
      </g>
     </g>
     <g id="text_22">
      <!-- 600 -->
      <g transform="translate(398.177071 367.704438) scale(0.1 -0.1)">
       <use xlink:href="#DejaVuSans-36"/>
       <use xlink:href="#DejaVuSans-30" transform="translate(63.623047 0)"/>
       <use xlink:href="#DejaVuSans-30" transform="translate(127.246094 0)"/>
      </g>
     </g>
    </g>
    <g id="xtick_12">
     <g id="line2d_24">
      <g>
       <use xlink:href="#m4796f425af" x="487.654704" y="353.106" style="stroke: #000000; stroke-width: 0.8"/>
      </g>
     </g>
     <g id="text_23">
      <!-- 800 -->
      <g transform="translate(478.110954 367.704438) scale(0.1 -0.1)">
       <use xlink:href="#DejaVuSans-38"/>
       <use xlink:href="#DejaVuSans-30" transform="translate(63.623047 0)"/>
       <use xlink:href="#DejaVuSans-30" transform="translate(127.246094 0)"/>
      </g>
     </g>
    </g>
   </g>
   <g id="matplotlib.axis_4">
    <g id="ytick_6">
     <g id="line2d_25">
      <g>
       <use xlink:href="#m4e43d4d5a6" x="70.2" y="332.847706" style="stroke: #000000; stroke-width: 0.8"/>
      </g>
     </g>
     <g id="text_24">
      <!-- −10 -->
      <g transform="translate(42.095313 336.646925) scale(0.1 -0.1)">
       <use xlink:href="#DejaVuSans-2212"/>
       <use xlink:href="#DejaVuSans-31" transform="translate(83.789062 0)"/>
       <use xlink:href="#DejaVuSans-30" transform="translate(147.412109 0)"/>
      </g>
     </g>
    </g>
    <g id="ytick_7">
     <g id="line2d_26">
      <g>
       <use xlink:href="#m4e43d4d5a6" x="70.2" y="308.55845" style="stroke: #000000; stroke-width: 0.8"/>
      </g>
     </g>
     <g id="text_25">
      <!-- 0 -->
      <g transform="translate(56.8375 312.357669) scale(0.1 -0.1)">
       <use xlink:href="#DejaVuSans-30"/>
      </g>
     </g>
    </g>
    <g id="ytick_8">
     <g id="line2d_27">
      <g>
       <use xlink:href="#m4e43d4d5a6" x="70.2" y="284.269194" style="stroke: #000000; stroke-width: 0.8"/>
      </g>
     </g>
     <g id="text_26">
      <!-- 10 -->
      <g transform="translate(50.475 288.068413) scale(0.1 -0.1)">
       <use xlink:href="#DejaVuSans-31"/>
       <use xlink:href="#DejaVuSans-30" transform="translate(63.623047 0)"/>
      </g>
     </g>
    </g>
    <g id="ytick_9">
     <g id="line2d_28">
      <g>
       <use xlink:href="#m4e43d4d5a6" x="70.2" y="259.979939" style="stroke: #000000; stroke-width: 0.8"/>
      </g>
     </g>
     <g id="text_27">
      <!-- 20 -->
      <g transform="translate(50.475 263.779157) scale(0.1 -0.1)">
       <use xlink:href="#DejaVuSans-32"/>
       <use xlink:href="#DejaVuSans-30" transform="translate(63.623047 0)"/>
      </g>
     </g>
    </g>
    <g id="text_28">
     <!-- ΔΔLL (bits) -->
     <g transform="translate(36.015625 322.22225) rotate(-90) scale(0.1 -0.1)">
      <use xlink:href="#DejaVuSans-394"/>
      <use xlink:href="#DejaVuSans-394" transform="translate(68.408203 0)"/>
      <use xlink:href="#DejaVuSans-4c" transform="translate(136.816406 0)"/>
      <use xlink:href="#DejaVuSans-4c" transform="translate(192.529297 0)"/>
      <use xlink:href="#DejaVuSans-20" transform="translate(248.242188 0)"/>
      <use xlink:href="#DejaVuSans-28" transform="translate(280.029297 0)"/>
      <use xlink:href="#DejaVuSans-62" transform="translate(319.042969 0)"/>
      <use xlink:href="#DejaVuSans-69" transform="translate(382.519531 0)"/>
      <use xlink:href="#DejaVuSans-74" transform="translate(410.302734 0)"/>
      <use xlink:href="#DejaVuSans-73" transform="translate(449.511719 0)"/>
      <use xlink:href="#DejaVuSans-29" transform="translate(501.611328 0)"/>
     </g>
    </g>
   </g>
   <g id="line2d_29">
    <path d="M 167.91917 353.106 
L 167.91917 237.276 
" clip-path="url(#pa1630a7a45)" style="fill: none; stroke-dasharray: 2.96,1.28; stroke-dashoffset: 0; stroke: #000000; stroke-width: 0.8"/>
   </g>
   <g id="line2d_30">
    <path d="M 70.2 308.55845 
L 505.44 308.55845 
" clip-path="url(#pa1630a7a45)" style="fill: none; stroke-dasharray: 0.8,1.32; stroke-dashoffset: 0; stroke: #000000; stroke-width: 0.8"/>
   </g>
   <g id="line2d_31">
    <path d="M 89.983636 295.54263 
L 93.980327 296.117418 
L 97.977023 285.67852 
L 101.973713 304.056449 
L 105.97041 319.58234 
L 109.967106 289.972374 
L 113.963796 298.528497 
L 117.960493 285.793428 
L 121.957186 249.884045 
L 125.953882 305.328075 
L 129.950576 280.176425 
L 133.947269 302.628802 
L 137.943962 290.1106 
L 141.940659 347.841 
L 145.937352 248.94136 
L 149.934045 294.673476 
L 153.93074 305.282887 
L 157.927434 329.584348 
L 161.924129 295.346716 
L 165.920823 278.855425 
L 169.917517 274.216127 
L 173.914211 280.214256 
L 177.910906 264.543932 
L 181.9076 273.192759 
L 185.904294 306.171584 
L 189.900988 315.498857 
L 193.897681 275.206663 
L 197.894377 242.541 
L 201.891071 295.621515 
L 205.887764 303.409591 
L 209.884457 267.595358 
L 213.881154 252.040494 
L 217.877847 289.733446 
L 221.874543 336.866023 
L 225.871234 322.82699 
L 229.86793 268.884748 
L 233.864626 298.209601 
L 237.861317 300.561965 
L 241.858013 278.735931 
L 245.854704 313.755149 
L 249.8514 311.584 
L 253.848096 305.869467 
L 257.844787 346.201218 
L 261.841483 340.924074 
L 265.838179 339.407721 
L 269.83487 270.589951 
L 273.83156 297.064434 
L 277.828262 270.646748 
L 281.824953 324.438079 
L 285.821643 282.381479 
L 289.818345 292.595476 
L 293.815036 310.518266 
L 297.811726 320.175525 
L 301.808428 311.377634 
L 305.805119 290.690742 
L 309.801809 314.736173 
L 313.798511 303.596775 
L 317.795202 310.977733 
L 321.791892 299.366017 
L 325.788594 317.335143 
L 329.785285 307.321302 
L 333.781975 301.195487 
L 337.778677 303.883336 
L 341.775368 279.191846 
L 345.772058 306.051378 
L 349.76876 304.450596 
L 353.765451 294.329511 
L 357.762141 306.409459 
L 361.758843 308.44927 
L 365.755534 283.621647 
L 369.752224 314.068986 
L 373.748914 312.663435 
L 377.745605 312.848861 
L 381.742319 299.488656 
L 385.739009 303.096427 
L 389.7357 306.231524 
L 393.73239 313.912108 
L 397.72908 293.817452 
L 401.725771 317.613476 
L 405.722485 301.576355 
L 409.719175 310.158219 
L 413.715866 314.259997 
L 417.712556 306.861698 
L 421.709246 322.030207 
L 425.705937 317.603978 
L 429.702627 279.117216 
L 433.699341 302.122682 
L 437.696032 303.860183 
L 441.692722 294.998214 
L 445.689412 273.161817 
L 449.686103 300.704863 
L 453.682793 323.725961 
L 457.679507 318.334482 
L 461.676198 322.430341 
L 465.672888 307.557173 
L 469.669578 316.360347 
L 473.666269 307.188709 
L 477.662959 314.797278 
L 481.659673 320.57713 
L 485.656364 310.484993 
" clip-path="url(#pa1630a7a45)" style="fill: none; stroke: #d62728; stroke-width: 2.2; stroke-linecap: square"/>
   </g>
   <g id="line2d_32">
    <defs>
     <path id="mb06451d8be" d="M 0 1.25 
C 0.331504 1.25 0.649475 1.118292 0.883883 0.883883 
C 1.118292 0.649475 1.25 0.331504 1.25 0 
C 1.25 -0.331504 1.118292 -0.649475 0.883883 -0.883883 
C 0.649475 -1.118292 0.331504 -1.25 0 -1.25 
C -0.331504 -1.25 -0.649475 -1.118292 -0.883883 -0.883883 
C -1.118292 -0.649475 -1.25 -0.331504 -1.25 0 
C -1.25 0.331504 -1.118292 0.649475 -0.883883 0.883883 
C -0.649475 1.118292 -0.331504 1.25 0 1.25 
z
" style="stroke: #000000"/>
    </defs>
    <g clip-path="url(#pa1630a7a45)">
     <use xlink:href="#mb06451d8be" x="97.977023" y="285.67852" style="stroke: #000000"/>
     <use xlink:href="#mb06451d8be" x="105.97041" y="319.58234" style="stroke: #000000"/>
     <use xlink:href="#mb06451d8be" x="145.937352" y="248.94136" style="stroke: #000000"/>
     <use xlink:href="#mb06451d8be" x="161.924129" y="295.346716" style="stroke: #000000"/>
     <use xlink:href="#mb06451d8be" x="173.914211" y="280.214256" style="stroke: #000000"/>
     <use xlink:href="#mb06451d8be" x="177.910906" y="264.543932" style="stroke: #000000"/>
     <use xlink:href="#mb06451d8be" x="209.884457" y="267.595358" style="stroke: #000000"/>
     <use xlink:href="#mb06451d8be" x="229.86793" y="268.884748" style="stroke: #000000"/>
     <use xlink:href="#mb06451d8be" x="257.844787" y="346.201218" style="stroke: #000000"/>
     <use xlink:href="#mb06451d8be" x="265.838179" y="339.407721" style="stroke: #000000"/>
     <use xlink:href="#mb06451d8be" x="277.828262" y="270.646748" style="stroke: #000000"/>
     <use xlink:href="#mb06451d8be" x="281.824953" y="324.438079" style="stroke: #000000"/>
     <use xlink:href="#mb06451d8be" x="285.821643" y="282.381479" style="stroke: #000000"/>
     <use xlink:href="#mb06451d8be" x="305.805119" y="290.690742" style="stroke: #000000"/>
     <use xlink:href="#mb06451d8be" x="309.801809" y="314.736173" style="stroke: #000000"/>
     <use xlink:href="#mb06451d8be" x="341.775368" y="279.191846" style="stroke: #000000"/>
     <use xlink:href="#mb06451d8be" x="353.765451" y="294.329511" style="stroke: #000000"/>
     <use xlink:href="#mb06451d8be" x="365.755534" y="283.621647" style="stroke: #000000"/>
     <use xlink:href="#mb06451d8be" x="397.72908" y="293.817452" style="stroke: #000000"/>
     <use xlink:href="#mb06451d8be" x="421.709246" y="322.030207" style="stroke: #000000"/>
     <use xlink:href="#mb06451d8be" x="429.702627" y="279.117216" style="stroke: #000000"/>
     <use xlink:href="#mb06451d8be" x="445.689412" y="273.161817" style="stroke: #000000"/>
     <use xlink:href="#mb06451d8be" x="453.682793" y="323.725961" style="stroke: #000000"/>
     <use xlink:href="#mb06451d8be" x="461.676198" y="322.430341" style="stroke: #000000"/>
    </g>
   </g>
   <g id="patch_10">
    <path d="M 70.2 353.106 
L 70.2 237.276 
" style="fill: none; stroke: #000000; stroke-width: 0.8; stroke-linejoin: miter; stroke-linecap: square"/>
   </g>
   <g id="patch_11">
    <path d="M 505.44 353.106 
L 505.44 237.276 
" style="fill: none; stroke: #000000; stroke-width: 0.8; stroke-linejoin: miter; stroke-linecap: square"/>
   </g>
   <g id="patch_12">
    <path d="M 70.2 353.106 
L 505.44 353.106 
" style="fill: none; stroke: #000000; stroke-width: 0.8; stroke-linejoin: miter; stroke-linecap: square"/>
   </g>
   <g id="patch_13">
    <path d="M 70.2 237.276 
L 505.44 237.276 
" style="fill: none; stroke: #000000; stroke-width: 0.8; stroke-linejoin: miter; stroke-linecap: square"/>
   </g>
   <g id="text_29">
    <!-- Panel B: pair-diff with significance dots -->
    <g transform="translate(171.554063 231.276) scale(0.12 -0.12)">
     <defs>
      <path id="DejaVuSans-42" d="M 1259 2228 
L 1259 519 
L 2272 519 
Q 2781 519 3026 730 
Q 3272 941 3272 1375 
Q 3272 1813 3026 2020 
Q 2781 2228 2272 2228 
L 1259 2228 
z
M 1259 4147 
L 1259 2741 
L 2194 2741 
Q 2656 2741 2882 2914 
Q 3109 3088 3109 3444 
Q 3109 3797 2882 3972 
Q 2656 4147 2194 4147 
L 1259 4147 
z
M 628 4666 
L 2241 4666 
Q 2963 4666 3353 4366 
Q 3744 4066 3744 3513 
Q 3744 3084 3544 2831 
Q 3344 2578 2956 2516 
Q 3422 2416 3680 2098 
Q 3938 1781 3938 1306 
Q 3938 681 3513 340 
Q 3088 0 2303 0 
L 628 0 
L 628 4666 
z
" transform="scale(0.015625)"/>
      <path id="DejaVuSans-70" d="M 1159 525 
L 1159 -1331 
L 581 -1331 
L 581 3500 
L 1159 3500 
L 1159 2969 
Q 1341 3281 1617 3432 
Q 1894 3584 2278 3584 
Q 2916 3584 3314 3078 
Q 3713 2572 3713 1747 
Q 3713 922 3314 415 
Q 2916 -91 2278 -91 
Q 1894 -91 1617 61 
Q 1341 213 1159 525 
z
M 3116 1747 
Q 3116 2381 2855 2742 
Q 2594 3103 2138 3103 
Q 1681 3103 1420 2742 
Q 1159 2381 1159 1747 
Q 1159 1113 1420 752 
Q 1681 391 2138 391 
Q 2594 391 2855 752 
Q 3116 1113 3116 1747 
z
" transform="scale(0.015625)"/>
      <path id="DejaVuSans-68" d="M 3513 2113 
L 3513 0 
L 2938 0 
L 2938 2094 
Q 2938 2591 2744 2837 
Q 2550 3084 2163 3084 
Q 1697 3084 1428 2787 
Q 1159 2491 1159 1978 
L 1159 0 
L 581 0 
L 581 4863 
L 1159 4863 
L 1159 2956 
Q 1366 3272 1645 3428 
Q 1925 3584 2291 3584 
Q 2894 3584 3203 3211 
Q 3513 2838 3513 2113 
z
" transform="scale(0.015625)"/>
      <path id="DejaVuSans-67" d="M 2906 1791 
Q 2906 2416 2648 2759 
Q 2391 3103 1925 3103 
Q 1463 3103 1205 2759 
Q 947 2416 947 1791 
Q 947 1169 1205 825 
Q 1463 481 1925 481 
Q 2391 481 2648 825 
Q 2906 1169 2906 1791 
z
M 3481 434 
Q 3481 -459 3084 -895 
Q 2688 -1331 1869 -1331 
Q 1566 -1331 1297 -1286 
Q 1028 -1241 775 -1147 
L 775 -588 
Q 1028 -725 1275 -790 
Q 1522 -856 1778 -856 
Q 2344 -856 2625 -561 
Q 2906 -266 2906 331 
L 2906 616 
Q 2728 306 2450 153 
Q 2172 0 1784 0 
Q 1141 0 747 490 
Q 353 981 353 1791 
Q 353 2603 747 3093 
Q 1141 3584 1784 3584 
Q 2172 3584 2450 3431 
Q 2728 3278 2906 2969 
L 2906 3500 
L 3481 3500 
L 3481 434 
z
" transform="scale(0.015625)"/>
      <path id="DejaVuSans-63" d="M 3122 3366 
L 3122 2828 
Q 2878 2963 2633 3030 
Q 2388 3097 2138 3097 
Q 1578 3097 1268 2742 
Q 959 2388 959 1747 
Q 959 1106 1268 751 
Q 1578 397 2138 397 
Q 2388 397 2633 464 
Q 2878 531 3122 666 
L 3122 134 
Q 2881 22 2623 -34 
Q 2366 -91 2075 -91 
Q 1284 -91 818 406 
Q 353 903 353 1747 
Q 353 2603 823 3093 
Q 1294 3584 2113 3584 
Q 2378 3584 2631 3529 
Q 2884 3475 3122 3366 
z
" transform="scale(0.015625)"/>
     </defs>
     <use xlink:href="#DejaVuSans-50"/>
     <use xlink:href="#DejaVuSans-61" transform="translate(55.802734 0)"/>
     <use xlink:href="#DejaVuSans-6e" transform="translate(117.082031 0)"/>
     <use xlink:href="#DejaVuSans-65" transform="translate(180.460938 0)"/>
     <use xlink:href="#DejaVuSans-6c" transform="translate(241.984375 0)"/>
     <use xlink:href="#DejaVuSans-20" transform="translate(269.767578 0)"/>
     <use xlink:href="#DejaVuSans-42" transform="translate(301.554688 0)"/>
     <use xlink:href="#DejaVuSans-3a" transform="translate(370.158203 0)"/>
     <use xlink:href="#DejaVuSans-20" transform="translate(403.849609 0)"/>
     <use xlink:href="#DejaVuSans-70" transform="translate(435.636719 0)"/>
     <use xlink:href="#DejaVuSans-61" transform="translate(499.113281 0)"/>
     <use xlink:href="#DejaVuSans-69" transform="translate(560.392578 0)"/>
     <use xlink:href="#DejaVuSans-72" transform="translate(588.175781 0)"/>
     <use xlink:href="#DejaVuSans-2d" transform="translate(622.914062 0)"/>
     <use xlink:href="#DejaVuSans-64" transform="translate(658.998047 0)"/>
     <use xlink:href="#DejaVuSans-69" transform="translate(722.474609 0)"/>
     <use xlink:href="#DejaVuSans-66" transform="translate(750.257812 0)"/>
     <use xlink:href="#DejaVuSans-66" transform="translate(785.462891 0)"/>
     <use xlink:href="#DejaVuSans-20" transform="translate(820.667969 0)"/>
     <use xlink:href="#DejaVuSans-77" transform="translate(852.455078 0)"/>
     <use xlink:href="#DejaVuSans-69" transform="translate(934.242188 0)"/>
     <use xlink:href="#DejaVuSans-74" transform="translate(962.025391 0)"/>
     <use xlink:href="#DejaVuSans-68" transform="translate(1001.234375 0)"/>
     <use xlink:href="#DejaVuSans-20" transform="translate(1064.613281 0)"/>
     <use xlink:href="#DejaVuSans-73" transform="translate(1096.400391 0)"/>
     <use xlink:href="#DejaVuSans-69" transform="translate(1148.5 0)"/>
     <use xlink:href="#DejaVuSans-67" transform="translate(1176.283203 0)"/>
     <use xlink:href="#DejaVuSans-6e" transform="translate(1239.759766 0)"/>
     <use xlink:href="#DejaVuSans-69" transform="translate(1303.138672 0)"/>
     <use xlink:href="#DejaVuSans-66" transform="translate(1330.921875 0)"/>
     <use xlink:href="#DejaVuSans-69" transform="translate(1366.126953 0)"/>
     <use xlink:href="#DejaVuSans-63" transform="translate(1393.910156 0)"/>
     <use xlink:href="#DejaVuSans-61" transform="translate(1448.890625 0)"/>
     <use xlink:href="#DejaVuSans-6e" transform="translate(1510.169922 0)"/>
     <use xlink:href="#DejaVuSans-63" transform="translate(1573.548828 0)"/>
     <use xlink:href="#DejaVuSans-65" transform="translate(1628.529297 0)"/>
     <use xlink:href="#DejaVuSans-20" transform="translate(1690.052734 0)"/>
     <use xlink:href="#DejaVuSans-64" transform="translate(1721.839844 0)"/>
     <use xlink:href="#DejaVuSans-6f" transform="translate(1785.316406 0)"/>
     <use xlink:href="#DejaVuSans-74" transform="translate(1846.498047 0)"/>
     <use xlink:href="#DejaVuSans-73" transform="translate(1885.707031 0)"/>
    </g>
   </g>
   <g id="legend_2">
    <g id="line2d_33">
     <path d="M 79.2 250.374437 
L 89.2 250.374437 
L 99.2 250.374437 
" style="fill: none; stroke: #d62728; stroke-width: 2.2; stroke-linecap: square"/>
    </g>
    <g id="text_30">
     <!-- (A→B − B→A) -->
     <g transform="translate(107.2 253.874437) scale(0.1 -0.1)">
      <use xlink:href="#DejaVuSans-28"/>
      <use xlink:href="#DejaVuSans-41" transform="translate(39.013672 0)"/>
      <use xlink:href="#DejaVuSans-2192" transform="translate(107.421875 0)"/>
      <use xlink:href="#DejaVuSans-42" transform="translate(191.210938 0)"/>
      <use xlink:href="#DejaVuSans-20" transform="translate(259.814453 0)"/>
      <use xlink:href="#DejaVuSans-2212" transform="translate(291.601562 0)"/>
      <use xlink:href="#DejaVuSans-20" transform="translate(375.390625 0)"/>
      <use xlink:href="#DejaVuSans-42" transform="translate(407.177734 0)"/>
      <use xlink:href="#DejaVuSans-2192" transform="translate(475.78125 0)"/>
      <use xlink:href="#DejaVuSans-41" transform="translate(559.570312 0)"/>
      <use xlink:href="#DejaVuSans-29" transform="translate(627.978516 0)"/>
     </g>
    </g>
    <g id="line2d_34">
     <g>
      <use xlink:href="#mb06451d8be" x="89.2" y="265.052563" style="stroke: #000000"/>
     </g>
    </g>
    <g id="text_31">
     <!-- p&lt;0.05 (one-sided) -->
     <g transform="translate(107.2 268.552563) scale(0.1 -0.1)">
      <defs>
       <path id="DejaVuSans-3c" d="M 4684 3150 
L 1459 2003 
L 4684 863 
L 4684 294 
L 678 1747 
L 678 2266 
L 4684 3719 
L 4684 3150 
z
" transform="scale(0.015625)"/>
       <path id="DejaVuSans-2e" d="M 684 794 
L 1344 794 
L 1344 0 
L 684 0 
L 684 794 
z
" transform="scale(0.015625)"/>
       <path id="DejaVuSans-35" d="M 691 4666 
L 3169 4666 
L 3169 4134 
L 1269 4134 
L 1269 2991 
Q 1406 3038 1543 3061 
Q 1681 3084 1819 3084 
Q 2600 3084 3056 2656 
Q 3513 2228 3513 1497 
Q 3513 744 3044 326 
Q 2575 -91 1722 -91 
Q 1428 -91 1123 -41 
Q 819 9 494 109 
L 494 744 
Q 775 591 1075 516 
Q 1375 441 1709 441 
Q 2250 441 2565 725 
Q 2881 1009 2881 1497 
Q 2881 1984 2565 2268 
Q 2250 2553 1709 2553 
Q 1456 2553 1204 2497 
Q 953 2441 691 2322 
L 691 4666 
z
" transform="scale(0.015625)"/>
      </defs>
      <use xlink:href="#DejaVuSans-70"/>
      <use xlink:href="#DejaVuSans-3c" transform="translate(63.476562 0)"/>
      <use xlink:href="#DejaVuSans-30" transform="translate(147.265625 0)"/>
      <use xlink:href="#DejaVuSans-2e" transform="translate(210.888672 0)"/>
      <use xlink:href="#DejaVuSans-30" transform="translate(242.675781 0)"/>
      <use xlink:href="#DejaVuSans-35" transform="translate(306.298828 0)"/>
      <use xlink:href="#DejaVuSans-20" transform="translate(369.921875 0)"/>
      <use xlink:href="#DejaVuSans-28" transform="translate(401.708984 0)"/>
      <use xlink:href="#DejaVuSans-6f" transform="translate(440.722656 0)"/>
      <use xlink:href="#DejaVuSans-6e" transform="translate(501.904297 0)"/>
      <use xlink:href="#DejaVuSans-65" transform="translate(565.283203 0)"/>
      <use xlink:href="#DejaVuSans-2d" transform="translate(626.806641 0)"/>
      <use xlink:href="#DejaVuSans-73" transform="translate(662.890625 0)"/>
      <use xlink:href="#DejaVuSans-69" transform="translate(714.990234 0)"/>
      <use xlink:href="#DejaVuSans-64" transform="translate(742.773438 0)"/>
      <use xlink:href="#DejaVuSans-65" transform="translate(806.25 0)"/>
      <use xlink:href="#DejaVuSans-64" transform="translate(867.773438 0)"/>
      <use xlink:href="#DejaVuSans-29" transform="translate(931.25 0)"/>
     </g>
    </g>
   </g>
  </g>
  <g id="axes_3">
   <g id="patch_14">
    <path d="M 70.2 499.824 
L 505.44 499.824 
L 505.44 383.994 
L 70.2 383.994 
z
" style="fill: #ffffff"/>
   </g>
   <g id="matplotlib.axis_5">
    <g id="xtick_13">
     <g id="line2d_35">
      <g>
       <use xlink:href="#m4796f425af" x="87.985286" y="499.824" style="stroke: #000000; stroke-width: 0.8"/>
      </g>
     </g>
     <g id="text_32">
      <!-- −200 -->
      <g transform="translate(74.251693 514.422438) scale(0.1 -0.1)">
       <use xlink:href="#DejaVuSans-2212"/>
       <use xlink:href="#DejaVuSans-32" transform="translate(83.789062 0)"/>
       <use xlink:href="#DejaVuSans-30" transform="translate(147.412109 0)"/>
       <use xlink:href="#DejaVuSans-30" transform="translate(211.035156 0)"/>
      </g>
     </g>
    </g>
    <g id="xtick_14">
     <g id="line2d_36">
      <g>
       <use xlink:href="#m4796f425af" x="167.91917" y="499.824" style="stroke: #000000; stroke-width: 0.8"/>
      </g>
     </g>
     <g id="text_33">
      <!-- 0 -->
      <g transform="translate(164.73792 514.422438) scale(0.1 -0.1)">
       <use xlink:href="#DejaVuSans-30"/>
      </g>
     </g>
    </g>
    <g id="xtick_15">
     <g id="line2d_37">
      <g>
       <use xlink:href="#m4796f425af" x="247.853053" y="499.824" style="stroke: #000000; stroke-width: 0.8"/>
      </g>
     </g>
     <g id="text_34">
      <!-- 200 -->
      <g transform="translate(238.309303 514.422438) scale(0.1 -0.1)">
       <use xlink:href="#DejaVuSans-32"/>
       <use xlink:href="#DejaVuSans-30" transform="translate(63.623047 0)"/>
       <use xlink:href="#DejaVuSans-30" transform="translate(127.246094 0)"/>
      </g>
     </g>
    </g>
    <g id="xtick_16">
     <g id="line2d_38">
      <g>
       <use xlink:href="#m4796f425af" x="327.786937" y="499.824" style="stroke: #000000; stroke-width: 0.8"/>
      </g>
     </g>
     <g id="text_35">
      <!-- 400 -->
      <g transform="translate(318.243187 514.422438) scale(0.1 -0.1)">
       <use xlink:href="#DejaVuSans-34"/>
       <use xlink:href="#DejaVuSans-30" transform="translate(63.623047 0)"/>
       <use xlink:href="#DejaVuSans-30" transform="translate(127.246094 0)"/>
      </g>
     </g>
    </g>
    <g id="xtick_17">
     <g id="line2d_39">
      <g>
       <use xlink:href="#m4796f425af" x="407.720821" y="499.824" style="stroke: #000000; stroke-width: 0.8"/>
      </g>
     </g>
     <g id="text_36">
      <!-- 600 -->
      <g transform="translate(398.177071 514.422438) scale(0.1 -0.1)">
       <use xlink:href="#DejaVuSans-36"/>
       <use xlink:href="#DejaVuSans-30" transform="translate(63.623047 0)"/>
       <use xlink:href="#DejaVuSans-30" transform="translate(127.246094 0)"/>
      </g>
     </g>
    </g>
    <g id="xtick_18">
     <g id="line2d_40">
      <g>
       <use xlink:href="#m4796f425af" x="487.654704" y="499.824" style="stroke: #000000; stroke-width: 0.8"/>
      </g>
     </g>
     <g id="text_37">
      <!-- 800 -->
      <g transform="translate(478.110954 514.422438) scale(0.1 -0.1)">
       <use xlink:href="#DejaVuSans-38"/>
       <use xlink:href="#DejaVuSans-30" transform="translate(63.623047 0)"/>
       <use xlink:href="#DejaVuSans-30" transform="translate(127.246094 0)"/>
      </g>
     </g>
    </g>
    <g id="text_38">
     <!-- Time (ms) -->
     <g transform="translate(262.620781 528.100563) scale(0.1 -0.1)">
      <defs>
       <path id="DejaVuSans-54" d="M -19 4666 
L 3928 4666 
L 3928 4134 
L 2272 4134 
L 2272 0 
L 1638 0 
L 1638 4134 
L -19 4134 
L -19 4666 
z
" transform="scale(0.015625)"/>
       <path id="DejaVuSans-6d" d="M 3328 2828 
Q 3544 3216 3844 3400 
Q 4144 3584 4550 3584 
Q 5097 3584 5394 3201 
Q 5691 2819 5691 2113 
L 5691 0 
L 5113 0 
L 5113 2094 
Q 5113 2597 4934 2840 
Q 4756 3084 4391 3084 
Q 3944 3084 3684 2787 
Q 3425 2491 3425 1978 
L 3425 0 
L 2847 0 
L 2847 2094 
Q 2847 2600 2669 2842 
Q 2491 3084 2119 3084 
Q 1678 3084 1418 2786 
Q 1159 2488 1159 1978 
L 1159 0 
L 581 0 
L 581 3500 
L 1159 3500 
L 1159 2956 
Q 1356 3278 1631 3431 
Q 1906 3584 2284 3584 
Q 2666 3584 2933 3390 
Q 3200 3197 3328 2828 
z
" transform="scale(0.015625)"/>
      </defs>
      <use xlink:href="#DejaVuSans-54"/>
      <use xlink:href="#DejaVuSans-69" transform="translate(57.958984 0)"/>
      <use xlink:href="#DejaVuSans-6d" transform="translate(85.742188 0)"/>
      <use xlink:href="#DejaVuSans-65" transform="translate(183.154297 0)"/>
      <use xlink:href="#DejaVuSans-20" transform="translate(244.677734 0)"/>
      <use xlink:href="#DejaVuSans-28" transform="translate(276.464844 0)"/>
      <use xlink:href="#DejaVuSans-6d" transform="translate(315.478516 0)"/>
      <use xlink:href="#DejaVuSans-73" transform="translate(412.890625 0)"/>
      <use xlink:href="#DejaVuSans-29" transform="translate(464.990234 0)"/>
     </g>
    </g>
   </g>
   <g id="matplotlib.axis_6">
    <g id="ytick_10">
     <g id="line2d_41">
      <g>
       <use xlink:href="#m4e43d4d5a6" x="70.2" y="487.683281" style="stroke: #000000; stroke-width: 0.8"/>
      </g>
     </g>
     <g id="text_39">
      <!-- 0 -->
      <g transform="translate(56.8375 491.482499) scale(0.1 -0.1)">
       <use xlink:href="#DejaVuSans-30"/>
      </g>
     </g>
    </g>
    <g id="ytick_11">
     <g id="line2d_42">
      <g>
       <use xlink:href="#m4e43d4d5a6" x="70.2" y="458.910707" style="stroke: #000000; stroke-width: 0.8"/>
      </g>
     </g>
     <g id="text_40">
      <!-- 5 -->
      <g transform="translate(56.8375 462.709926) scale(0.1 -0.1)">
       <use xlink:href="#DejaVuSans-35"/>
      </g>
     </g>
    </g>
    <g id="ytick_12">
     <g id="line2d_43">
      <g>
       <use xlink:href="#m4e43d4d5a6" x="70.2" y="430.138134" style="stroke: #000000; stroke-width: 0.8"/>
      </g>
     </g>
     <g id="text_41">
      <!-- 10 -->
      <g transform="translate(50.475 433.937353) scale(0.1 -0.1)">
       <use xlink:href="#DejaVuSans-31"/>
       <use xlink:href="#DejaVuSans-30" transform="translate(63.623047 0)"/>
      </g>
     </g>
    </g>
    <g id="ytick_13">
     <g id="line2d_44">
      <g>
       <use xlink:href="#m4e43d4d5a6" x="70.2" y="401.36556" style="stroke: #000000; stroke-width: 0.8"/>
      </g>
     </g>
     <g id="text_42">
      <!-- 15 -->
      <g transform="translate(50.475 405.164779) scale(0.1 -0.1)">
       <use xlink:href="#DejaVuSans-31"/>
       <use xlink:href="#DejaVuSans-35" transform="translate(63.623047 0)"/>
      </g>
     </g>
    </g>
    <g id="text_43">
     <!-- Z (σ from null) -->
     <g transform="translate(44.395313 477.919938) rotate(-90) scale(0.1 -0.1)">
      <defs>
       <path id="DejaVuSans-5a" d="M 359 4666 
L 4025 4666 
L 4025 4184 
L 1075 531 
L 4097 531 
L 4097 0 
L 288 0 
L 288 481 
L 3238 4134 
L 359 4134 
L 359 4666 
z
" transform="scale(0.015625)"/>
      </defs>
      <use xlink:href="#DejaVuSans-5a"/>
      <use xlink:href="#DejaVuSans-20" transform="translate(68.505859 0)"/>
      <use xlink:href="#DejaVuSans-28" transform="translate(100.292969 0)"/>
      <use xlink:href="#DejaVuSans-3c3" transform="translate(139.306641 0)"/>
      <use xlink:href="#DejaVuSans-20" transform="translate(202.685547 0)"/>
      <use xlink:href="#DejaVuSans-66" transform="translate(234.472656 0)"/>
      <use xlink:href="#DejaVuSans-72" transform="translate(269.677734 0)"/>
      <use xlink:href="#DejaVuSans-6f" transform="translate(308.541016 0)"/>
      <use xlink:href="#DejaVuSans-6d" transform="translate(369.722656 0)"/>
      <use xlink:href="#DejaVuSans-20" transform="translate(467.134766 0)"/>
      <use xlink:href="#DejaVuSans-6e" transform="translate(498.921875 0)"/>
      <use xlink:href="#DejaVuSans-75" transform="translate(562.300781 0)"/>
      <use xlink:href="#DejaVuSans-6c" transform="translate(625.679688 0)"/>
      <use xlink:href="#DejaVuSans-6c" transform="translate(653.462891 0)"/>
      <use xlink:href="#DejaVuSans-29" transform="translate(681.246094 0)"/>
     </g>
    </g>
   </g>
   <g id="line2d_45">
    <path d="M 167.91917 499.824 
L 167.91917 383.994 
" clip-path="url(#pfd5f394f17)" style="fill: none; stroke-dasharray: 2.96,1.28; stroke-dashoffset: 0; stroke: #000000; stroke-width: 0.8"/>
   </g>
   <g id="line2d_46">
    <path d="M 89.983636 464.415963 
L 93.980327 461.528293 
L 97.977023 459.115209 
L 101.973713 456.07765 
L 105.97041 481.272829 
L 109.967106 454.426655 
L 113.963796 457.0685 
L 117.960493 440.395742 
L 121.957186 402.188266 
L 125.953882 458.886714 
L 129.950576 417.94239 
L 133.947269 460.633733 
L 137.943962 438.015541 
L 141.940659 456.745293 
L 145.937352 429.835919 
L 149.934045 457.060988 
L 153.93074 463.63961 
L 157.927434 454.923323 
L 161.924129 466.97593 
L 165.920823 428.968275 
L 169.917517 438.080756 
L 173.914211 454.300242 
L 177.910906 438.134425 
L 181.9076 426.867703 
L 185.904294 465.213075 
L 189.900988 474.229718 
L 193.897681 422.029596 
L 197.894377 403.998726 
L 201.891071 441.894988 
L 205.887764 455.732619 
L 209.884457 441.623952 
L 213.881154 389.259 
L 217.877847 443.460972 
L 221.874543 461.228037 
L 225.871234 452.86525 
L 229.86793 438.283649 
L 233.864626 431.390322 
L 237.861317 469.149571 
L 241.858013 426.995162 
L 245.854704 466.397391 
L 249.8514 441.704039 
L 253.848096 458.00869 
L 257.844787 477.092613 
L 261.841483 465.091608 
L 265.838179 478.936168 
L 269.83487 417.654995 
L 273.83156 452.947977 
L 277.828262 446.235405 
L 281.824953 479.815957 
L 285.821643 451.227374 
L 289.818345 457.985446 
L 293.815036 487.087668 
L 297.811726 466.254365 
L 301.808428 452.535127 
L 305.805119 464.895815 
L 309.801809 477.480772 
L 313.798511 477.894318 
L 317.795202 485.160032 
L 321.791892 466.444217 
L 325.788594 491.938114 
L 329.785285 490.08297 
L 333.781975 484.646558 
L 337.778677 486.244659 
L 341.775368 460.840179 
L 345.772058 485.278208 
L 349.76876 486.186408 
L 353.765451 475.87655 
L 357.762141 479.580173 
L 361.758843 480.77301 
L 365.755534 462.607158 
L 369.752224 494.559 
L 373.748914 490.668804 
L 377.745605 491.613484 
L 381.742319 479.049702 
L 385.739009 487.824054 
L 389.7357 489.915511 
L 393.73239 491.584781 
L 397.72908 474.567124 
L 401.725771 488.432286 
L 405.722485 485.89987 
L 409.719175 490.975666 
L 413.715866 486.484548 
L 417.712556 485.768062 
L 421.709246 483.142707 
L 425.705937 487.062364 
L 429.702627 461.235255 
L 433.699341 486.254613 
L 437.696032 488.535111 
L 441.692722 480.119622 
L 445.689412 451.719682 
L 449.686103 485.587143 
L 453.682793 485.090335 
L 457.679507 488.945289 
L 461.676198 489.310946 
L 465.672888 487.817207 
L 469.669578 489.917928 
L 473.666269 488.472099 
L 477.662959 492.743428 
L 481.659673 492.679538 
L 485.656364 491.450127 
" clip-path="url(#pfd5f394f17)" style="fill: none; stroke: #1f77b4; stroke-width: 2; stroke-linecap: square"/>
   </g>
   <g id="line2d_47">
    <path d="M 89.983636 474.989612 
L 93.980327 474.363316 
L 97.977023 482.281385 
L 101.973713 454.898893 
L 105.97041 469.267395 
L 109.967106 474.244629 
L 113.963796 466.579119 
L 117.960493 466.627696 
L 121.957186 465.540003 
L 125.953882 460.891687 
L 129.950576 456.181592 
L 133.947269 468.520999 
L 137.943962 459.871116 
L 141.940659 420.171849 
L 145.937352 484.974192 
L 149.934045 470.003595 
L 153.93074 465.537015 
L 157.927434 436.664911 
L 161.924129 479.046035 
L 165.920823 461.205533 
L 169.917517 468.200193 
L 173.914211 482.871737 
L 177.910906 484.480496 
L 181.9076 462.898474 
L 185.904294 467.854635 
L 189.900988 467.954258 
L 193.897681 454.467361 
L 197.894377 469.697624 
L 201.891071 449.699657 
L 205.887764 457.578314 
L 209.884457 482.981709 
L 213.881154 452.629076 
L 217.877847 459.646086 
L 221.874543 433.989784 
L 225.871234 437.112647 
L 229.86793 478.963571 
L 233.864626 435.815636 
L 237.861317 474.446394 
L 241.858013 456.830658 
L 245.854704 461.250777 
L 249.8514 438.953042 
L 253.848096 464.520144 
L 257.844787 436.326732 
L 261.841483 430.026094 
L 265.838179 447.616272 
L 269.83487 460.894381 
L 273.83156 466.800223 
L 277.828262 481.280888 
L 281.824953 464.244873 
L 285.821643 478.513313 
L 289.818345 471.979099 
L 293.815036 486.123451 
L 297.811726 455.265889 
L 301.808428 455.247807 
L 305.805119 482.462536 
L 309.801809 472.739102 
L 313.798511 482.148606 
L 317.795202 480.882941 
L 321.791892 474.687789 
L 325.788594 484.022001 
L 329.785285 490.759586 
L 333.781975 492.250993 
L 337.778677 490.347657 
L 341.775368 490.689629 
L 345.772058 487.965613 
L 349.76876 490.250212 
L 353.765451 489.593336 
L 357.762141 481.596575 
L 361.758843 480.416576 
L 365.755534 489.121172 
L 369.752224 489.739589 
L 373.748914 486.333801 
L 377.745605 486.289977 
L 381.742319 488.306865 
L 385.739009 494.129256 
L 389.7357 492.515463 
L 393.73239 486.458345 
L 397.72908 491.129373 
L 401.725771 480.097341 
L 405.722485 492.892959 
L 409.719175 489.573736 
L 413.715866 481.631739 
L 417.712556 487.351401 
L 421.709246 469.815869 
L 425.705937 477.569886 
L 429.702627 492.261257 
L 433.699341 492.991611 
L 437.696032 492.959259 
L 441.692722 494.233735 
L 445.689412 488.680999 
L 449.686103 493.415815 
L 453.682793 470.829924 
L 457.679507 478.854908 
L 461.676198 475.962854 
L 465.672888 488.889643 
L 469.669578 481.836532 
L 473.666269 489.908574 
L 477.662959 486.733891 
L 481.659673 480.542757 
L 485.656364 489.920141 
" clip-path="url(#pfd5f394f17)" style="fill: none; stroke: #ff7f0e; stroke-width: 2; stroke-linecap: square"/>
   </g>
   <g id="patch_15">
    <path d="M 70.2 499.824 
L 70.2 383.994 
" style="fill: none; stroke: #000000; stroke-width: 0.8; stroke-linejoin: miter; stroke-linecap: square"/>
   </g>
   <g id="patch_16">
    <path d="M 505.44 499.824 
L 505.44 383.994 
" style="fill: none; stroke: #000000; stroke-width: 0.8; stroke-linejoin: miter; stroke-linecap: square"/>
   </g>
   <g id="patch_17">
    <path d="M 70.2 499.824 
L 505.44 499.824 
" style="fill: none; stroke: #000000; stroke-width: 0.8; stroke-linejoin: miter; stroke-linecap: square"/>
   </g>
   <g id="patch_18">
    <path d="M 70.2 383.994 
L 505.44 383.994 
" style="fill: none; stroke: #000000; stroke-width: 0.8; stroke-linejoin: miter; stroke-linecap: square"/>
   </g>
   <g id="text_44">
    <!-- Panel C: evidence strength vs null -->
    <g transform="translate(185.80125 377.994) scale(0.12 -0.12)">
     <defs>
      <path id="DejaVuSans-43" d="M 4122 4306 
L 4122 3641 
Q 3803 3938 3442 4084 
Q 3081 4231 2675 4231 
Q 1875 4231 1450 3742 
Q 1025 3253 1025 2328 
Q 1025 1406 1450 917 
Q 1875 428 2675 428 
Q 3081 428 3442 575 
Q 3803 722 4122 1019 
L 4122 359 
Q 3791 134 3420 21 
Q 3050 -91 2638 -91 
Q 1578 -91 968 557 
Q 359 1206 359 2328 
Q 359 3453 968 4101 
Q 1578 4750 2638 4750 
Q 3056 4750 3426 4639 
Q 3797 4528 4122 4306 
z
" transform="scale(0.015625)"/>
     </defs>
     <use xlink:href="#DejaVuSans-50"/>
     <use xlink:href="#DejaVuSans-61" transform="translate(55.802734 0)"/>
     <use xlink:href="#DejaVuSans-6e" transform="translate(117.082031 0)"/>
     <use xlink:href="#DejaVuSans-65" transform="translate(180.460938 0)"/>
     <use xlink:href="#DejaVuSans-6c" transform="translate(241.984375 0)"/>
     <use xlink:href="#DejaVuSans-20" transform="translate(269.767578 0)"/>
     <use xlink:href="#DejaVuSans-43" transform="translate(301.554688 0)"/>
     <use xlink:href="#DejaVuSans-3a" transform="translate(371.378906 0)"/>
     <use xlink:href="#DejaVuSans-20" transform="translate(405.070312 0)"/>
     <use xlink:href="#DejaVuSans-65" transform="translate(436.857422 0)"/>
     <use xlink:href="#DejaVuSans-76" transform="translate(498.380859 0)"/>
     <use xlink:href="#DejaVuSans-69" transform="translate(557.560547 0)"/>
     <use xlink:href="#DejaVuSans-64" transform="translate(585.34375 0)"/>
     <use xlink:href="#DejaVuSans-65" transform="translate(648.820312 0)"/>
     <use xlink:href="#DejaVuSans-6e" transform="translate(710.34375 0)"/>
     <use xlink:href="#DejaVuSans-63" transform="translate(773.722656 0)"/>
     <use xlink:href="#DejaVuSans-65" transform="translate(828.703125 0)"/>
     <use xlink:href="#DejaVuSans-20" transform="translate(890.226562 0)"/>
     <use xlink:href="#DejaVuSans-73" transform="translate(922.013672 0)"/>
     <use xlink:href="#DejaVuSans-74" transform="translate(974.113281 0)"/>
     <use xlink:href="#DejaVuSans-72" transform="translate(1013.322266 0)"/>
     <use xlink:href="#DejaVuSans-65" transform="translate(1052.185547 0)"/>
     <use xlink:href="#DejaVuSans-6e" transform="translate(1113.708984 0)"/>
     <use xlink:href="#DejaVuSans-67" transform="translate(1177.087891 0)"/>
     <use xlink:href="#DejaVuSans-74" transform="translate(1240.564453 0)"/>
     <use xlink:href="#DejaVuSans-68" transform="translate(1279.773438 0)"/>
     <use xlink:href="#DejaVuSans-20" transform="translate(1343.152344 0)"/>
     <use xlink:href="#DejaVuSans-76" transform="translate(1374.939453 0)"/>
     <use xlink:href="#DejaVuSans-73" transform="translate(1434.119141 0)"/>
     <use xlink:href="#DejaVuSans-20" transform="translate(1486.21875 0)"/>
     <use xlink:href="#DejaVuSans-6e" transform="translate(1518.005859 0)"/>
     <use xlink:href="#DejaVuSans-75" transform="translate(1581.384766 0)"/>
     <use xlink:href="#DejaVuSans-6c" transform="translate(1644.763672 0)"/>
     <use xlink:href="#DejaVuSans-6c" transform="translate(1672.546875 0)"/>
    </g>
   </g>
   <g id="legend_3">
    <g id="line2d_48">
     <path d="M 79.2 397.092438 
L 89.2 397.092438 
L 99.2 397.092438 
" style="fill: none; stroke: #1f77b4; stroke-width: 2; stroke-linecap: square"/>
    </g>
    <g id="text_45">
     <!-- z(MFEF→MLIP) -->
     <g transform="translate(107.2 400.592438) scale(0.1 -0.1)">
      <defs>
       <path id="DejaVuSans-7a" d="M 353 3500 
L 3084 3500 
L 3084 2975 
L 922 459 
L 3084 459 
L 3084 0 
L 275 0 
L 275 525 
L 2438 3041 
L 353 3041 
L 353 3500 
z
" transform="scale(0.015625)"/>
      </defs>
      <use xlink:href="#DejaVuSans-7a"/>
      <use xlink:href="#DejaVuSans-28" transform="translate(52.490234 0)"/>
      <use xlink:href="#DejaVuSans-4d" transform="translate(91.503906 0)"/>
      <use xlink:href="#DejaVuSans-46" transform="translate(177.783203 0)"/>
      <use xlink:href="#DejaVuSans-45" transform="translate(235.302734 0)"/>
      <use xlink:href="#DejaVuSans-46" transform="translate(298.486328 0)"/>
      <use xlink:href="#DejaVuSans-2192" transform="translate(356.005859 0)"/>
      <use xlink:href="#DejaVuSans-4d" transform="translate(439.794922 0)"/>
      <use xlink:href="#DejaVuSans-4c" transform="translate(526.074219 0)"/>
      <use xlink:href="#DejaVuSans-49" transform="translate(581.787109 0)"/>
      <use xlink:href="#DejaVuSans-50" transform="translate(611.279297 0)"/>
      <use xlink:href="#DejaVuSans-29" transform="translate(671.582031 0)"/>
     </g>
    </g>
    <g id="line2d_49">
     <path d="M 79.2 411.770563 
L 89.2 411.770563 
L 99.2 411.770563 
" style="fill: none; stroke: #ff7f0e; stroke-width: 2; stroke-linecap: square"/>
    </g>
    <g id="text_46">
     <!-- z(MLIP→MFEF) -->
     <g transform="translate(107.2 415.270563) scale(0.1 -0.1)">
      <use xlink:href="#DejaVuSans-7a"/>
      <use xlink:href="#DejaVuSans-28" transform="translate(52.490234 0)"/>
      <use xlink:href="#DejaVuSans-4d" transform="translate(91.503906 0)"/>
      <use xlink:href="#DejaVuSans-4c" transform="translate(177.783203 0)"/>
      <use xlink:href="#DejaVuSans-49" transform="translate(233.496094 0)"/>
      <use xlink:href="#DejaVuSans-50" transform="translate(262.988281 0)"/>
      <use xlink:href="#DejaVuSans-2192" transform="translate(323.291016 0)"/>
      <use xlink:href="#DejaVuSans-4d" transform="translate(407.080078 0)"/>
      <use xlink:href="#DejaVuSans-46" transform="translate(493.359375 0)"/>
      <use xlink:href="#DejaVuSans-45" transform="translate(550.878906 0)"/>
      <use xlink:href="#DejaVuSans-46" transform="translate(614.0625 0)"/>
      <use xlink:href="#DejaVuSans-29" transform="translate(671.582031 0)"/>
     </g>
    </g>
   </g>
  </g>
 </g>
 <defs>
  <clipPath id="p70213f3e02">
   <rect x="70.2" y="67.392" width="435.24" height="138.996"/>
  </clipPath>
  <clipPath id="pa1630a7a45">
   <rect x="70.2" y="237.276" width="435.24" height="115.83"/>
  </clipPath>
  <clipPath id="pfd5f394f17">
   <rect x="70.2" y="383.994" width="435.24" height="115.83"/>
  </clipPath>
 </defs>
</svg>
