<?xml version="1.0" encoding="utf-8" standalone="no"?>
<!DOCTYPE svg PUBLIC "-//W3C//DTD SVG 1.1//EN"
  "http://www.w3.org/Graphics/SVG/1.1/DTD/svg11.dtd">
<svg xmlns:xlink="http://www.w3.org/1999/xlink" width="828pt" height="453.6pt" viewBox="0 0 828 453.6" xmlns="http://www.w3.org/2000/svg" version="1.1">
 <metadata>
  <rdf:RDF xmlns:dc="http://purl.org/dc/elements/1.1/" xmlns:cc="http://creativecommons.org/ns#" xmlns:rdf="http://www.w3.org/1999/02/22-rdf-syntax-ns#">
   <cc:Work>
    <dc:type rdf:resource="http://purl.org/dc/dcmitype/StillImage"/>
    <dc:date>2026-01-28T18:09:10.206425</dc:date>
    <dc:format>image/svg+xml</dc:format>
    <dc:creator>
     <cc:Agent>
      <dc:title>Matplotlib v3.9.4, https://matplotlib.org/</dc:title>
     </cc:Agent>
    </dc:creator>
   </cc:Work>
  </rdf:RDF>
 </metadata>
 <defs>
  <style type="text/css">*{stroke-linejoin: round; stroke-linecap: butt}</style>
 </defs>
 <g id="figure_1">
  <g id="patch_1">
   <path d="M 0 453.6 
L 828 453.6 
L 828 0 
L 0 0 
z
" style="fill: #ffffff"/>
  </g>
  <g id="axes_1">
   <g id="patch_2">
    <path d="M 72 396 
L 792 396 
L 792 36 
L 72 36 
z
" style="fill: #ffffff"/>
   </g>
   <g id="PolyCollection_1">
    <path d="M -108 305.735257 
L -108 337.21477 
L -96.000003 351.410198 
L -84.000001 327.139103 
L -72.000003 344.449336 
L -60.000001 320.7567 
L -47.999999 307.590944 
L -36.000002 341.01712 
L -24 348.18895 
L -11.999998 345.280691 
L -0 355.060322 
L 12.000002 349.50551 
L 24.000004 340.77766 
L 36.000001 355.003602 
L 48.000001 337.114143 
L 60.000001 338.234057 
L 72 318.086796 
L 84 339.938768 
L 96 359.549109 
L 108 350.057405 
L 119.999999 323.668763 
L 132 349.380981 
L 144 338.252575 
L 156 342.904362 
L 168 331.676089 
L 180 330.95695 
L 192 345.640559 
L 204 369.820572 
L 216 344.510963 
L 228 351.410286 
L 240 342.257865 
L 252 362.601421 
L 264.000001 334.556717 
L 276 353.832244 
L 288 311.700955 
L 300 342.60708 
L 312 341.352468 
L 323.999999 331.83285 
L 335.999999 346.062189 
L 347.999999 316.294301 
L 359.999996 362.73892 
L 371.999998 338.758391 
L 384 339.417921 
L 395.999998 336.850184 
L 408 334.563287 
L 420.000002 350.608824 
L 431.999999 333.566249 
L 444.000001 316.049724 
L 456.000003 342.915159 
L 468.000001 313.335402 
L 480.000003 333.472627 
L 492 328.156954 
L 503.999997 329.75701 
L 516.000004 312.877838 
L 528.000001 292.653687 
L 539.999999 324.533141 
L 552.000005 327.010543 
L 564.000003 278.727768 
L 575.999991 289.021481 
L 587.999998 322.530508 
L 600.000004 318.816415 
L 611.999993 287.908226 
L 623.999999 323.226649 
L 636.000006 294.693751 
L 647.999994 310.304002 
L 660.000001 294.71145 
L 672.000007 339.045297 
L 683.999996 293.491149 
L 696.000002 311.514227 
L 708.000009 310.04719 
L 719.999997 300.786624 
L 731.999995 314.341214 
L 744.000001 323.376039 
L 755.999999 303.148368 
L 767.999996 331.421707 
L 780.000003 334.568291 
L 792 345.847771 
L 803.999989 346.328983 
L 815.999977 305.249978 
L 828.000001 354.132552 
L 840.000026 317.498395 
L 852.000014 299.58921 
L 864.000003 339.318398 
L 875.999991 336.863522 
L 887.99998 333.821142 
L 899.999986 345.453778 
L 912.000011 323.216287 
L 924.000017 349.306875 
L 936.000006 344.359821 
L 947.999994 379.636364 
L 959.999983 312.412491 
L 971.999989 348.571166 
L 984.000014 326.304535 
L 996.00002 337.850959 
L 1008.000009 332.709171 
L 1019.999997 336.827778 
L 1031.999986 337.645121 
L 1043.999974 320.437855 
L 1055.999999 354.024055 
L 1068.000023 339.811488 
L 1080.000011 355.035009 
L 1092 340.044577 
L 1103.999989 359.860447 
L 1115.999977 343.981017 
L 1128.000001 352.304699 
L 1140.000026 350.243186 
L 1140.000026 331.529058 
L 1140.000026 331.529058 
L 1128.000001 325.425034 
L 1115.999977 293.388788 
L 1103.999989 341.88562 
L 1092 304.747136 
L 1080.000011 333.010224 
L 1068.000023 313.954992 
L 1055.999999 338.587195 
L 1043.999974 258.738087 
L 1031.999986 306.402021 
L 1019.999997 319.563102 
L 1008.000009 283.66651 
L 996.00002 291.414683 
L 984.000014 301.907474 
L 971.999989 266.358345 
L 959.999983 288.381352 
L 947.999994 368.331104 
L 936.000006 308.406875 
L 924.000017 296.667232 
L 912.000011 264.658052 
L 899.999986 284.628483 
L 887.99998 288.610402 
L 875.999991 308.853948 
L 864.000003 305.250256 
L 852.000014 241.510224 
L 840.000026 264.429688 
L 828.000001 330.127073 
L 815.999977 264.662474 
L 803.999989 311.980703 
L 792 290.673295 
L 780.000003 300.885705 
L 767.999996 308.807053 
L 755.999999 243.588264 
L 744.000001 292.822705 
L 731.999995 239.520402 
L 719.999997 249.322306 
L 708.000009 225.563352 
L 696.000002 267.981353 
L 683.999996 206.063976 
L 672.000007 281.560664 
L 660.000001 236.528038 
L 647.999994 266.501884 
L 636.000006 239.040356 
L 623.999999 278.022348 
L 611.999993 228.529146 
L 600.000004 247.975561 
L 587.999998 227.619627 
L 575.999991 193.071411 
L 564.000003 199.95169 
L 552.000005 196.188197 
L 539.999999 270.325758 
L 528.000001 168.747915 
L 516.000004 252.129629 
L 503.999997 284.934438 
L 492 275.697731 
L 480.000003 280.372218 
L 468.000001 254.988021 
L 456.000003 306.303869 
L 444.000001 251.800309 
L 431.999999 285.07533 
L 420.000002 327.898034 
L 408 296.98653 
L 395.999998 295.027757 
L 384 323.024614 
L 371.999998 311.411477 
L 359.999996 317.807218 
L 347.999999 287.52627 
L 335.999999 326.132921 
L 323.999999 289.134089 
L 312 307.09649 
L 300 314.247164 
L 288 269.120735 
L 276 330.251182 
L 264.000001 299.38484 
L 252 335.119643 
L 240 261.727432 
L 228 324.792065 
L 216 321.173842 
L 204 342.869272 
L 192 315.678078 
L 180 311.121128 
L 168 292.591195 
L 156 310.314999 
L 144 301.883624 
L 132 290.512384 
L 119.999999 294.148154 
L 108 305.213007 
L 96 325.45951 
L 84 309.113329 
L 72 290.398023 
L 60.000001 296.633469 
L 48.000001 300.250276 
L 36.000001 320.618721 
L 24.000004 275.754545 
L 12.000002 319.859543 
L -0 313.004622 
L -11.999998 305.142688 
L -24 325.07604 
L -36.000002 314.642333 
L -47.999999 201.236588 
L -60.000001 282.870786 
L -72.000003 309.92427 
L -84.000001 279.78262 
L -96.000003 323.467396 
L -108 305.735257 
z
" clip-path="url(#p1d7e045d2e)" style="fill: #7b4fa3; fill-opacity: 0.25"/>
   </g>
   <g id="PolyCollection_2">
    <path d="M -108 324.854627 
L -108 350.814269 
L -96.000003 362.905179 
L -84.000001 336.828532 
L -72.000003 341.125601 
L -60.000001 321.831781 
L -47.999999 349.024583 
L -36.000002 350.608112 
L -24 299.873833 
L -11.999998 296.391254 
L -0 341.214425 
L 12.000002 340.01634 
L 24.000004 298.775828 
L 36.000001 350.418801 
L 48.000001 347.819411 
L 60.000001 336.531716 
L 72 326.443875 
L 84 332.556457 
L 96 349.1172 
L 108 337.323064 
L 119.999999 350.78475 
L 132 312.590727 
L 144 314.995031 
L 156 339.91118 
L 168 336.279158 
L 180 362.374317 
L 192 306.714657 
L 204 341.897505 
L 216 341.864105 
L 228 334.41052 
L 240 361.274721 
L 252 315.358754 
L 264.000001 339.376892 
L 276 338.743558 
L 288 358.012891 
L 300 333.871704 
L 312 349.96756 
L 323.999999 305.203421 
L 335.999999 313.057834 
L 347.999999 340.668023 
L 359.999996 331.121559 
L 371.999998 336.663814 
L 384 331.602652 
L 395.999998 350.041363 
L 408 294.679839 
L 420.000002 315.363841 
L 431.999999 334.979791 
L 444.000001 278.428136 
L 456.000003 292.073841 
L 468.000001 313.735436 
L 480.000003 313.585796 
L 492 302.675747 
L 503.999997 292.684679 
L 516.000004 303.115592 
L 528.000001 278.444605 
L 539.999999 281.857068 
L 552.000005 309.781027 
L 564.000003 297.812601 
L 575.999991 279.481123 
L 587.999998 284.945222 
L 600.000004 305.428002 
L 611.999993 251.962592 
L 623.999999 277.203728 
L 636.000006 274.519674 
L 647.999994 276.680904 
L 660.000001 309.943514 
L 672.000007 265.554894 
L 683.999996 301.551243 
L 696.000002 321.829852 
L 708.000009 306.768621 
L 719.999997 310.19956 
L 731.999995 258.544583 
L 744.000001 254.703709 
L 755.999999 323.302945 
L 767.999996 312.285841 
L 780.000003 343.631182 
L 792 293.130065 
L 803.999989 343.396309 
L 815.999977 286.482581 
L 828.000001 319.344785 
L 840.000026 337.390734 
L 852.000014 347.985766 
L 864.000003 319.861395 
L 875.999991 328.892706 
L 887.99998 328.42369 
L 899.999986 338.374182 
L 912.000011 339.987978 
L 924.000017 342.635995 
L 936.000006 339.558092 
L 947.999994 295.277953 
L 959.999983 312.4473 
L 971.999989 339.005235 
L 984.000014 330.478636 
L 996.00002 357.233481 
L 1008.000009 330.600767 
L 1019.999997 336.82975 
L 1031.999986 329.984559 
L 1043.999974 342.041636 
L 1055.999999 323.344793 
L 1068.000023 332.079788 
L 1080.000011 316.785029 
L 1092 352.696364 
L 1103.999989 329.392578 
L 1115.999977 337.983623 
L 1128.000001 374.094011 
L 1140.000026 349.414257 
L 1140.000026 328.21788 
L 1140.000026 328.21788 
L 1128.000001 362.386161 
L 1115.999977 316.60011 
L 1103.999989 295.831197 
L 1092 328.224353 
L 1080.000011 291.355041 
L 1068.000023 297.919294 
L 1055.999999 298.961475 
L 1043.999974 307.581071 
L 1031.999986 270.489166 
L 1019.999997 271.221777 
L 1008.000009 289.07864 
L 996.00002 331.360122 
L 984.000014 294.082053 
L 971.999989 318.062088 
L 959.999983 278.149913 
L 947.999994 221.44894 
L 936.000006 313.334422 
L 924.000017 295.809836 
L 912.000011 304.511224 
L 899.999986 312.706974 
L 887.99998 245.431947 
L 875.999991 275.441806 
L 864.000003 293.010668 
L 852.000014 325.809946 
L 840.000026 293.739762 
L 828.000001 242.857438 
L 815.999977 234.890726 
L 803.999989 286.72038 
L 792 202.613525 
L 780.000003 299.46139 
L 767.999996 192.133165 
L 755.999999 146.116019 
L 744.000001 185.501316 
L 731.999995 187.067364 
L 719.999997 241.880412 
L 708.000009 219.531978 
L 696.000002 196.783053 
L 683.999996 130.014443 
L 672.000007 160.686205 
L 660.000001 197.782123 
L 647.999994 161.233734 
L 636.000006 135.281369 
L 623.999999 214.907966 
L 611.999993 52.363636 
L 600.000004 161.104577 
L 587.999998 166.332703 
L 575.999991 170.341153 
L 564.000003 189.172494 
L 552.000005 244.365304 
L 539.999999 189.327975 
L 528.000001 182.26697 
L 516.000004 185.14088 
L 503.999997 216.967872 
L 492 202.719678 
L 480.000003 269.66989 
L 468.000001 249.710851 
L 456.000003 136.717467 
L 444.000001 168.233186 
L 431.999999 282.331388 
L 420.000002 267.439309 
L 408 229.828005 
L 395.999998 304.747412 
L 384 277.145895 
L 371.999998 299.189601 
L 359.999996 291.267079 
L 347.999999 310.907778 
L 335.999999 281.611917 
L 323.999999 269.883511 
L 312 315.899085 
L 300 296.226935 
L 288 317.576771 
L 276 305.320169 
L 264.000001 311.178399 
L 252 264.994672 
L 240 310.552124 
L 228 308.583761 
L 216 315.296112 
L 204 314.118857 
L 192 281.856716 
L 180 340.253579 
L 168 304.178979 
L 156 298.764264 
L 144 260.264914 
L 132 281.168202 
L 119.999999 317.185 
L 108 306.49424 
L 96 312.423843 
L 84 299.532246 
L 72 300.704042 
L 60.000001 311.590513 
L 48.000001 326.136897 
L 36.000001 319.737717 
L 24.000004 271.167749 
L 12.000002 308.470951 
L -0 297.7207 
L -11.999998 206.668775 
L -24 200.104573 
L -36.000002 321.193373 
L -47.999999 313.957927 
L -60.000001 253.288137 
L -72.000003 299.57835 
L -84.000001 312.221661 
L -96.000003 338.706965 
L -108 324.854627 
z
" clip-path="url(#p1d7e045d2e)" style="fill: #0e87cc; fill-opacity: 0.25"/>
   </g>
   <g id="matplotlib.axis_1">
    <g id="xtick_1">
     <g id="line2d_1">
      <defs>
       <path id="m8d45959b31" d="M 0 0 
L 0 3.5 
" style="stroke: #000000; stroke-width: 0.8"/>
      </defs>
      <g>
       <use xlink:href="#m8d45959b31" x="72" y="396" style="stroke: #000000; stroke-width: 0.8"/>
      </g>
     </g>
     <g id="text_1">
      <!-- −100 -->
      <g transform="translate(50.02625 415.1575) scale(0.16 -0.16)">
       <defs>
        <path id="DejaVuSans-2212" d="M 678 2272 
L 4684 2272 
L 4684 1741 
L 678 1741 
L 678 2272 
z
" transform="scale(0.015625)"/>
        <path id="DejaVuSans-31" d="M 794 531 
L 1825 531 
L 1825 4091 
L 703 3866 
L 703 4441 
L 1819 4666 
L 2450 4666 
L 2450 531 
L 3481 531 
L 3481 0 
L 794 0 
L 794 531 
z
" transform="scale(0.015625)"/>
        <path id="DejaVuSans-30" d="M 2034 4250 
Q 1547 4250 1301 3770 
Q 1056 3291 1056 2328 
Q 1056 1369 1301 889 
Q 1547 409 2034 409 
Q 2525 409 2770 889 
Q 3016 1369 3016 2328 
Q 3016 3291 2770 3770 
Q 2525 4250 2034 4250 
z
M 2034 4750 
Q 2819 4750 3233 4129 
Q 3647 3509 3647 2328 
Q 3647 1150 3233 529 
Q 2819 -91 2034 -91 
Q 1250 -91 836 529 
Q 422 1150 422 2328 
Q 422 3509 836 4129 
Q 1250 4750 2034 4750 
z
" transform="scale(0.015625)"/>
       </defs>
       <use xlink:href="#DejaVuSans-2212"/>
       <use xlink:href="#DejaVuSans-31" x="83.789062"/>
       <use xlink:href="#DejaVuSans-30" x="147.412109"/>
       <use xlink:href="#DejaVuSans-30" x="211.035156"/>
      </g>
     </g>
    </g>
    <g id="xtick_2">
     <g id="line2d_2">
      <g>
       <use xlink:href="#m8d45959b31" x="192" y="396" style="stroke: #000000; stroke-width: 0.8"/>
      </g>
     </g>
     <g id="text_2">
      <!-- 0 -->
      <g transform="translate(186.91 415.1575) scale(0.16 -0.16)">
       <use xlink:href="#DejaVuSans-30"/>
      </g>
     </g>
    </g>
    <g id="xtick_3">
     <g id="line2d_3">
      <g>
       <use xlink:href="#m8d45959b31" x="312" y="396" style="stroke: #000000; stroke-width: 0.8"/>
      </g>
     </g>
     <g id="text_3">
      <!-- 100 -->
      <g transform="translate(296.73 415.1575) scale(0.16 -0.16)">
       <use xlink:href="#DejaVuSans-31"/>
       <use xlink:href="#DejaVuSans-30" x="63.623047"/>
       <use xlink:href="#DejaVuSans-30" x="127.246094"/>
      </g>
     </g>
    </g>
    <g id="xtick_4">
     <g id="line2d_4">
      <g>
       <use xlink:href="#m8d45959b31" x="432" y="396" style="stroke: #000000; stroke-width: 0.8"/>
      </g>
     </g>
     <g id="text_4">
      <!-- 200 -->
      <g transform="translate(416.73 415.1575) scale(0.16 -0.16)">
       <defs>
        <path id="DejaVuSans-32" d="M 1228 531 
L 3431 531 
L 3431 0 
L 469 0 
L 469 531 
Q 828 903 1448 1529 
Q 2069 2156 2228 2338 
Q 2531 2678 2651 2914 
Q 2772 3150 2772 3378 
Q 2772 3750 2511 3984 
Q 2250 4219 1831 4219 
Q 1534 4219 1204 4116 
Q 875 4013 500 3803 
L 500 4441 
Q 881 4594 1212 4672 
Q 1544 4750 1819 4750 
Q 2544 4750 2975 4387 
Q 3406 4025 3406 3419 
Q 3406 3131 3298 2873 
Q 3191 2616 2906 2266 
Q 2828 2175 2409 1742 
Q 1991 1309 1228 531 
z
" transform="scale(0.015625)"/>
       </defs>
       <use xlink:href="#DejaVuSans-32"/>
       <use xlink:href="#DejaVuSans-30" x="63.623047"/>
       <use xlink:href="#DejaVuSans-30" x="127.246094"/>
      </g>
     </g>
    </g>
    <g id="xtick_5">
     <g id="line2d_5">
      <g>
       <use xlink:href="#m8d45959b31" x="552" y="396" style="stroke: #000000; stroke-width: 0.8"/>
      </g>
     </g>
     <g id="text_5">
      <!-- 300 -->
      <g transform="translate(536.73 415.1575) scale(0.16 -0.16)">
       <defs>
        <path id="DejaVuSans-33" d="M 2597 2516 
Q 3050 2419 3304 2112 
Q 3559 1806 3559 1356 
Q 3559 666 3084 287 
Q 2609 -91 1734 -91 
Q 1441 -91 1130 -33 
Q 819 25 488 141 
L 488 750 
Q 750 597 1062 519 
Q 1375 441 1716 441 
Q 2309 441 2620 675 
Q 2931 909 2931 1356 
Q 2931 1769 2642 2001 
Q 2353 2234 1838 2234 
L 1294 2234 
L 1294 2753 
L 1863 2753 
Q 2328 2753 2575 2939 
Q 2822 3125 2822 3475 
Q 2822 3834 2567 4026 
Q 2313 4219 1838 4219 
Q 1578 4219 1281 4162 
Q 984 4106 628 3988 
L 628 4550 
Q 988 4650 1302 4700 
Q 1616 4750 1894 4750 
Q 2613 4750 3031 4423 
Q 3450 4097 3450 3541 
Q 3450 3153 3228 2886 
Q 3006 2619 2597 2516 
z
" transform="scale(0.015625)"/>
       </defs>
       <use xlink:href="#DejaVuSans-33"/>
       <use xlink:href="#DejaVuSans-30" x="63.623047"/>
       <use xlink:href="#DejaVuSans-30" x="127.246094"/>
      </g>
     </g>
    </g>
    <g id="xtick_6">
     <g id="line2d_6">
      <g>
       <use xlink:href="#m8d45959b31" x="672" y="396" style="stroke: #000000; stroke-width: 0.8"/>
      </g>
     </g>
     <g id="text_6">
      <!-- 400 -->
      <g transform="translate(656.73 415.1575) scale(0.16 -0.16)">
       <defs>
        <path id="DejaVuSans-34" d="M 2419 4116 
L 825 1625 
L 2419 1625 
L 2419 4116 
z
M 2253 4666 
L 3047 4666 
L 3047 1625 
L 3713 1625 
L 3713 1100 
L 3047 1100 
L 3047 0 
L 2419 0 
L 2419 1100 
L 313 1100 
L 313 1709 
L 2253 4666 
z
" transform="scale(0.015625)"/>
       </defs>
       <use xlink:href="#DejaVuSans-34"/>
       <use xlink:href="#DejaVuSans-30" x="63.623047"/>
       <use xlink:href="#DejaVuSans-30" x="127.246094"/>
      </g>
     </g>
    </g>
    <g id="xtick_7">
     <g id="line2d_7">
      <g>
       <use xlink:href="#m8d45959b31" x="792" y="396" style="stroke: #000000; stroke-width: 0.8"/>
      </g>
     </g>
     <g id="text_7">
      <!-- 500 -->
      <g transform="translate(776.73 415.1575) scale(0.16 -0.16)">
       <defs>
        <path id="DejaVuSans-35" d="M 691 4666 
L 3169 4666 
L 3169 4134 
L 1269 4134 
L 1269 2991 
Q 1406 3038 1543 3061 
Q 1681 3084 1819 3084 
Q 2600 3084 3056 2656 
Q 3513 2228 3513 1497 
Q 3513 744 3044 326 
Q 2575 -91 1722 -91 
Q 1428 -91 1123 -41 
Q 819 9 494 109 
L 494 744 
Q 775 591 1075 516 
Q 1375 441 1709 441 
Q 2250 441 2565 725 
Q 2881 1009 2881 1497 
Q 2881 1984 2565 2268 
Q 2250 2553 1709 2553 
Q 1456 2553 1204 2497 
Q 953 2441 691 2322 
L 691 4666 
z
" transform="scale(0.015625)"/>
       </defs>
       <use xlink:href="#DejaVuSans-35"/>
       <use xlink:href="#DejaVuSans-30" x="63.623047"/>
       <use xlink:href="#DejaVuSans-30" x="127.246094"/>
      </g>
     </g>
    </g>
    <g id="text_8">
     <!-- Time from Stimulus Onset (ms) -->
     <g transform="translate(291.473438 436.162187) scale(0.18 -0.18)">
      <defs>
       <path id="DejaVuSans-54" d="M -19 4666 
L 3928 4666 
L 3928 4134 
L 2272 4134 
L 2272 0 
L 1638 0 
L 1638 4134 
L -19 4134 
L -19 4666 
z
" transform="scale(0.015625)"/>
       <path id="DejaVuSans-69" d="M 603 3500 
L 1178 3500 
L 1178 0 
L 603 0 
L 603 3500 
z
M 603 4863 
L 1178 4863 
L 1178 4134 
L 603 4134 
L 603 4863 
z
" transform="scale(0.015625)"/>
       <path id="DejaVuSans-6d" d="M 3328 2828 
Q 3544 3216 3844 3400 
Q 4144 3584 4550 3584 
Q 5097 3584 5394 3201 
Q 5691 2819 5691 2113 
L 5691 0 
L 5113 0 
L 5113 2094 
Q 5113 2597 4934 2840 
Q 4756 3084 4391 3084 
Q 3944 3084 3684 2787 
Q 3425 2491 3425 1978 
L 3425 0 
L 2847 0 
L 2847 2094 
Q 2847 2600 2669 2842 
Q 2491 3084 2119 3084 
Q 1678 3084 1418 2786 
Q 1159 2488 1159 1978 
L 1159 0 
L 581 0 
L 581 3500 
L 1159 3500 
L 1159 2956 
Q 1356 3278 1631 3431 
Q 1906 3584 2284 3584 
Q 2666 3584 2933 3390 
Q 3200 3197 3328 2828 
z
" transform="scale(0.015625)"/>
       <path id="DejaVuSans-65" d="M 3597 1894 
L 3597 1613 
L 953 1613 
Q 991 1019 1311 708 
Q 1631 397 2203 397 
Q 2534 397 2845 478 
Q 3156 559 3463 722 
L 3463 178 
Q 3153 47 2828 -22 
Q 2503 -91 2169 -91 
Q 1331 -91 842 396 
Q 353 884 353 1716 
Q 353 2575 817 3079 
Q 1281 3584 2069 3584 
Q 2775 3584 3186 3129 
Q 3597 2675 3597 1894 
z
M 3022 2063 
Q 3016 2534 2758 2815 
Q 2500 3097 2075 3097 
Q 1594 3097 1305 2825 
Q 1016 2553 972 2059 
L 3022 2063 
z
" transform="scale(0.015625)"/>
       <path id="DejaVuSans-20" transform="scale(0.015625)"/>
       <path id="DejaVuSans-66" d="M 2375 4863 
L 2375 4384 
L 1825 4384 
Q 1516 4384 1395 4259 
Q 1275 4134 1275 3809 
L 1275 3500 
L 2222 3500 
L 2222 3053 
L 1275 3053 
L 1275 0 
L 697 0 
L 697 3053 
L 147 3053 
L 147 3500 
L 697 3500 
L 697 3744 
Q 697 4328 969 4595 
Q 1241 4863 1831 4863 
L 2375 4863 
z
" transform="scale(0.015625)"/>
       <path id="DejaVuSans-72" d="M 2631 2963 
Q 2534 3019 2420 3045 
Q 2306 3072 2169 3072 
Q 1681 3072 1420 2755 
Q 1159 2438 1159 1844 
L 1159 0 
L 581 0 
L 581 3500 
L 1159 3500 
L 1159 2956 
Q 1341 3275 1631 3429 
Q 1922 3584 2338 3584 
Q 2397 3584 2469 3576 
Q 2541 3569 2628 3553 
L 2631 2963 
z
" transform="scale(0.015625)"/>
       <path id="DejaVuSans-6f" d="M 1959 3097 
Q 1497 3097 1228 2736 
Q 959 2375 959 1747 
Q 959 1119 1226 758 
Q 1494 397 1959 397 
Q 2419 397 2687 759 
Q 2956 1122 2956 1747 
Q 2956 2369 2687 2733 
Q 2419 3097 1959 3097 
z
M 1959 3584 
Q 2709 3584 3137 3096 
Q 3566 2609 3566 1747 
Q 3566 888 3137 398 
Q 2709 -91 1959 -91 
Q 1206 -91 779 398 
Q 353 888 353 1747 
Q 353 2609 779 3096 
Q 1206 3584 1959 3584 
z
" transform="scale(0.015625)"/>
       <path id="DejaVuSans-53" d="M 3425 4513 
L 3425 3897 
Q 3066 4069 2747 4153 
Q 2428 4238 2131 4238 
Q 1616 4238 1336 4038 
Q 1056 3838 1056 3469 
Q 1056 3159 1242 3001 
Q 1428 2844 1947 2747 
L 2328 2669 
Q 3034 2534 3370 2195 
Q 3706 1856 3706 1288 
Q 3706 609 3251 259 
Q 2797 -91 1919 -91 
Q 1588 -91 1214 -16 
Q 841 59 441 206 
L 441 856 
Q 825 641 1194 531 
Q 1563 422 1919 422 
Q 2459 422 2753 634 
Q 3047 847 3047 1241 
Q 3047 1584 2836 1778 
Q 2625 1972 2144 2069 
L 1759 2144 
Q 1053 2284 737 2584 
Q 422 2884 422 3419 
Q 422 4038 858 4394 
Q 1294 4750 2059 4750 
Q 2388 4750 2728 4690 
Q 3069 4631 3425 4513 
z
" transform="scale(0.015625)"/>
       <path id="DejaVuSans-74" d="M 1172 4494 
L 1172 3500 
L 2356 3500 
L 2356 3053 
L 1172 3053 
L 1172 1153 
Q 1172 725 1289 603 
Q 1406 481 1766 481 
L 2356 481 
L 2356 0 
L 1766 0 
Q 1100 0 847 248 
Q 594 497 594 1153 
L 594 3053 
L 172 3053 
L 172 3500 
L 594 3500 
L 594 4494 
L 1172 4494 
z
" transform="scale(0.015625)"/>
       <path id="DejaVuSans-75" d="M 544 1381 
L 544 3500 
L 1119 3500 
L 1119 1403 
Q 1119 906 1312 657 
Q 1506 409 1894 409 
Q 2359 409 2629 706 
Q 2900 1003 2900 1516 
L 2900 3500 
L 3475 3500 
L 3475 0 
L 2900 0 
L 2900 538 
Q 2691 219 2414 64 
Q 2138 -91 1772 -91 
Q 1169 -91 856 284 
Q 544 659 544 1381 
z
M 1991 3584 
L 1991 3584 
z
" transform="scale(0.015625)"/>
       <path id="DejaVuSans-6c" d="M 603 4863 
L 1178 4863 
L 1178 0 
L 603 0 
L 603 4863 
z
" transform="scale(0.015625)"/>
       <path id="DejaVuSans-73" d="M 2834 3397 
L 2834 2853 
Q 2591 2978 2328 3040 
Q 2066 3103 1784 3103 
Q 1356 3103 1142 2972 
Q 928 2841 928 2578 
Q 928 2378 1081 2264 
Q 1234 2150 1697 2047 
L 1894 2003 
Q 2506 1872 2764 1633 
Q 3022 1394 3022 966 
Q 3022 478 2636 193 
Q 2250 -91 1575 -91 
Q 1294 -91 989 -36 
Q 684 19 347 128 
L 347 722 
Q 666 556 975 473 
Q 1284 391 1588 391 
Q 1994 391 2212 530 
Q 2431 669 2431 922 
Q 2431 1156 2273 1281 
Q 2116 1406 1581 1522 
L 1381 1569 
Q 847 1681 609 1914 
Q 372 2147 372 2553 
Q 372 3047 722 3315 
Q 1072 3584 1716 3584 
Q 2034 3584 2315 3537 
Q 2597 3491 2834 3397 
z
" transform="scale(0.015625)"/>
       <path id="DejaVuSans-4f" d="M 2522 4238 
Q 1834 4238 1429 3725 
Q 1025 3213 1025 2328 
Q 1025 1447 1429 934 
Q 1834 422 2522 422 
Q 3209 422 3611 934 
Q 4013 1447 4013 2328 
Q 4013 3213 3611 3725 
Q 3209 4238 2522 4238 
z
M 2522 4750 
Q 3503 4750 4090 4092 
Q 4678 3434 4678 2328 
Q 4678 1225 4090 567 
Q 3503 -91 2522 -91 
Q 1538 -91 948 565 
Q 359 1222 359 2328 
Q 359 3434 948 4092 
Q 1538 4750 2522 4750 
z
" transform="scale(0.015625)"/>
       <path id="DejaVuSans-6e" d="M 3513 2113 
L 3513 0 
L 2938 0 
L 2938 2094 
Q 2938 2591 2744 2837 
Q 2550 3084 2163 3084 
Q 1697 3084 1428 2787 
Q 1159 2491 1159 1978 
L 1159 0 
L 581 0 
L 581 3500 
L 1159 3500 
L 1159 2956 
Q 1366 3272 1645 3428 
Q 1925 3584 2291 3584 
Q 2894 3584 3203 3211 
Q 3513 2838 3513 2113 
z
" transform="scale(0.015625)"/>
       <path id="DejaVuSans-28" d="M 1984 4856 
Q 1566 4138 1362 3434 
Q 1159 2731 1159 2009 
Q 1159 1288 1364 580 
Q 1569 -128 1984 -844 
L 1484 -844 
Q 1016 -109 783 600 
Q 550 1309 550 2009 
Q 550 2706 781 3412 
Q 1013 4119 1484 4856 
L 1984 4856 
z
" transform="scale(0.015625)"/>
       <path id="DejaVuSans-29" d="M 513 4856 
L 1013 4856 
Q 1481 4119 1714 3412 
Q 1947 2706 1947 2009 
Q 1947 1309 1714 600 
Q 1481 -109 1013 -844 
L 513 -844 
Q 928 -128 1133 580 
Q 1338 1288 1338 2009 
Q 1338 2731 1133 3434 
Q 928 4138 513 4856 
z
" transform="scale(0.015625)"/>
      </defs>
      <use xlink:href="#DejaVuSans-54"/>
      <use xlink:href="#DejaVuSans-69" x="57.958984"/>
      <use xlink:href="#DejaVuSans-6d" x="85.742188"/>
      <use xlink:href="#DejaVuSans-65" x="183.154297"/>
      <use xlink:href="#DejaVuSans-20" x="244.677734"/>
      <use xlink:href="#DejaVuSans-66" x="276.464844"/>
      <use xlink:href="#DejaVuSans-72" x="311.669922"/>
      <use xlink:href="#DejaVuSans-6f" x="350.533203"/>
      <use xlink:href="#DejaVuSans-6d" x="411.714844"/>
      <use xlink:href="#DejaVuSans-20" x="509.126953"/>
      <use xlink:href="#DejaVuSans-53" x="540.914062"/>
      <use xlink:href="#DejaVuSans-74" x="604.390625"/>
      <use xlink:href="#DejaVuSans-69" x="643.599609"/>
      <use xlink:href="#DejaVuSans-6d" x="671.382812"/>
      <use xlink:href="#DejaVuSans-75" x="768.794922"/>
      <use xlink:href="#DejaVuSans-6c" x="832.173828"/>
      <use xlink:href="#DejaVuSans-75" x="859.957031"/>
      <use xlink:href="#DejaVuSans-73" x="923.335938"/>
      <use xlink:href="#DejaVuSans-20" x="975.435547"/>
      <use xlink:href="#DejaVuSans-4f" x="1007.222656"/>
      <use xlink:href="#DejaVuSans-6e" x="1085.933594"/>
      <use xlink:href="#DejaVuSans-73" x="1149.3125"/>
      <use xlink:href="#DejaVuSans-65" x="1201.412109"/>
      <use xlink:href="#DejaVuSans-74" x="1262.935547"/>
      <use xlink:href="#DejaVuSans-20" x="1302.144531"/>
      <use xlink:href="#DejaVuSans-28" x="1333.931641"/>
      <use xlink:href="#DejaVuSans-6d" x="1372.945312"/>
      <use xlink:href="#DejaVuSans-73" x="1470.357422"/>
      <use xlink:href="#DejaVuSans-29" x="1522.457031"/>
     </g>
    </g>
   </g>
   <g id="matplotlib.axis_2">
    <g id="ytick_1">
     <g id="line2d_8">
      <defs>
       <path id="mc893d4651e" d="M 0 0 
L -3.5 0 
" style="stroke: #000000; stroke-width: 0.8"/>
      </defs>
      <g>
       <use xlink:href="#mc893d4651e" x="72" y="392.458326" style="stroke: #000000; stroke-width: 0.8"/>
      </g>
     </g>
     <g id="text_9">
      <!-- 0 -->
      <g transform="translate(54.82 398.537076) scale(0.16 -0.16)">
       <use xlink:href="#DejaVuSans-30"/>
      </g>
     </g>
    </g>
    <g id="ytick_2">
     <g id="line2d_9">
      <g>
       <use xlink:href="#mc893d4651e" x="72" y="345.918531" style="stroke: #000000; stroke-width: 0.8"/>
      </g>
     </g>
     <g id="text_10">
      <!-- 2 -->
      <g transform="translate(54.82 351.997281) scale(0.16 -0.16)">
       <use xlink:href="#DejaVuSans-32"/>
      </g>
     </g>
    </g>
    <g id="ytick_3">
     <g id="line2d_10">
      <g>
       <use xlink:href="#mc893d4651e" x="72" y="299.378736" style="stroke: #000000; stroke-width: 0.8"/>
      </g>
     </g>
     <g id="text_11">
      <!-- 4 -->
      <g transform="translate(54.82 305.457486) scale(0.16 -0.16)">
       <use xlink:href="#DejaVuSans-34"/>
      </g>
     </g>
    </g>
    <g id="ytick_4">
     <g id="line2d_11">
      <g>
       <use xlink:href="#mc893d4651e" x="72" y="252.838941" style="stroke: #000000; stroke-width: 0.8"/>
      </g>
     </g>
     <g id="text_12">
      <!-- 6 -->
      <g transform="translate(54.82 258.917691) scale(0.16 -0.16)">
       <defs>
        <path id="DejaVuSans-36" d="M 2113 2584 
Q 1688 2584 1439 2293 
Q 1191 2003 1191 1497 
Q 1191 994 1439 701 
Q 1688 409 2113 409 
Q 2538 409 2786 701 
Q 3034 994 3034 1497 
Q 3034 2003 2786 2293 
Q 2538 2584 2113 2584 
z
M 3366 4563 
L 3366 3988 
Q 3128 4100 2886 4159 
Q 2644 4219 2406 4219 
Q 1781 4219 1451 3797 
Q 1122 3375 1075 2522 
Q 1259 2794 1537 2939 
Q 1816 3084 2150 3084 
Q 2853 3084 3261 2657 
Q 3669 2231 3669 1497 
Q 3669 778 3244 343 
Q 2819 -91 2113 -91 
Q 1303 -91 875 529 
Q 447 1150 447 2328 
Q 447 3434 972 4092 
Q 1497 4750 2381 4750 
Q 2619 4750 2861 4703 
Q 3103 4656 3366 4563 
z
" transform="scale(0.015625)"/>
       </defs>
       <use xlink:href="#DejaVuSans-36"/>
      </g>
     </g>
    </g>
    <g id="ytick_5">
     <g id="line2d_12">
      <g>
       <use xlink:href="#mc893d4651e" x="72" y="206.299146" style="stroke: #000000; stroke-width: 0.8"/>
      </g>
     </g>
     <g id="text_13">
      <!-- 8 -->
      <g transform="translate(54.82 212.377896) scale(0.16 -0.16)">
       <defs>
        <path id="DejaVuSans-38" d="M 2034 2216 
Q 1584 2216 1326 1975 
Q 1069 1734 1069 1313 
Q 1069 891 1326 650 
Q 1584 409 2034 409 
Q 2484 409 2743 651 
Q 3003 894 3003 1313 
Q 3003 1734 2745 1975 
Q 2488 2216 2034 2216 
z
M 1403 2484 
Q 997 2584 770 2862 
Q 544 3141 544 3541 
Q 544 4100 942 4425 
Q 1341 4750 2034 4750 
Q 2731 4750 3128 4425 
Q 3525 4100 3525 3541 
Q 3525 3141 3298 2862 
Q 3072 2584 2669 2484 
Q 3125 2378 3379 2068 
Q 3634 1759 3634 1313 
Q 3634 634 3220 271 
Q 2806 -91 2034 -91 
Q 1263 -91 848 271 
Q 434 634 434 1313 
Q 434 1759 690 2068 
Q 947 2378 1403 2484 
z
M 1172 3481 
Q 1172 3119 1398 2916 
Q 1625 2713 2034 2713 
Q 2441 2713 2670 2916 
Q 2900 3119 2900 3481 
Q 2900 3844 2670 4047 
Q 2441 4250 2034 4250 
Q 1625 4250 1398 4047 
Q 1172 3844 1172 3481 
z
" transform="scale(0.015625)"/>
       </defs>
       <use xlink:href="#DejaVuSans-38"/>
      </g>
     </g>
    </g>
    <g id="ytick_6">
     <g id="line2d_13">
      <g>
       <use xlink:href="#mc893d4651e" x="72" y="159.759351" style="stroke: #000000; stroke-width: 0.8"/>
      </g>
     </g>
     <g id="text_14">
      <!-- 10 -->
      <g transform="translate(44.64 165.838101) scale(0.16 -0.16)">
       <use xlink:href="#DejaVuSans-31"/>
       <use xlink:href="#DejaVuSans-30" x="63.623047"/>
      </g>
     </g>
    </g>
    <g id="ytick_7">
     <g id="line2d_14">
      <g>
       <use xlink:href="#mc893d4651e" x="72" y="113.219556" style="stroke: #000000; stroke-width: 0.8"/>
      </g>
     </g>
     <g id="text_15">
      <!-- 12 -->
      <g transform="translate(44.64 119.298306) scale(0.16 -0.16)">
       <use xlink:href="#DejaVuSans-31"/>
       <use xlink:href="#DejaVuSans-32" x="63.623047"/>
      </g>
     </g>
    </g>
    <g id="ytick_8">
     <g id="line2d_15">
      <g>
       <use xlink:href="#mc893d4651e" x="72" y="66.679762" style="stroke: #000000; stroke-width: 0.8"/>
      </g>
     </g>
     <g id="text_16">
      <!-- 14 -->
      <g transform="translate(44.64 72.758512) scale(0.16 -0.16)">
       <use xlink:href="#DejaVuSans-31"/>
       <use xlink:href="#DejaVuSans-34" x="63.623047"/>
      </g>
     </g>
    </g>
    <g id="text_17">
     <!-- ΔLL (bits) -->
     <g transform="translate(36.896563 258.499687) rotate(-90) scale(0.18 -0.18)">
      <defs>
       <path id="DejaVuSans-394" d="M 2188 4044 
L 906 525 
L 3472 525 
L 2188 4044 
z
M 50 0 
L 1831 4666 
L 2547 4666 
L 4325 0 
L 50 0 
z
" transform="scale(0.015625)"/>
       <path id="DejaVuSans-4c" d="M 628 4666 
L 1259 4666 
L 1259 531 
L 3531 531 
L 3531 0 
L 628 0 
L 628 4666 
z
" transform="scale(0.015625)"/>
       <path id="DejaVuSans-62" d="M 3116 1747 
Q 3116 2381 2855 2742 
Q 2594 3103 2138 3103 
Q 1681 3103 1420 2742 
Q 1159 2381 1159 1747 
Q 1159 1113 1420 752 
Q 1681 391 2138 391 
Q 2594 391 2855 752 
Q 3116 1113 3116 1747 
z
M 1159 2969 
Q 1341 3281 1617 3432 
Q 1894 3584 2278 3584 
Q 2916 3584 3314 3078 
Q 3713 2572 3713 1747 
Q 3713 922 3314 415 
Q 2916 -91 2278 -91 
Q 1894 -91 1617 61 
Q 1341 213 1159 525 
L 1159 0 
L 581 0 
L 581 4863 
L 1159 4863 
L 1159 2969 
z
" transform="scale(0.015625)"/>
      </defs>
      <use xlink:href="#DejaVuSans-394"/>
      <use xlink:href="#DejaVuSans-4c" x="68.408203"/>
      <use xlink:href="#DejaVuSans-4c" x="124.121094"/>
      <use xlink:href="#DejaVuSans-20" x="179.833984"/>
      <use xlink:href="#DejaVuSans-28" x="211.621094"/>
      <use xlink:href="#DejaVuSans-62" x="250.634766"/>
      <use xlink:href="#DejaVuSans-69" x="314.111328"/>
      <use xlink:href="#DejaVuSans-74" x="341.894531"/>
      <use xlink:href="#DejaVuSans-73" x="381.103516"/>
      <use xlink:href="#DejaVuSans-29" x="433.203125"/>
     </g>
    </g>
   </g>
   <g id="line2d_16">
    <path d="M 192 396 
L 192 36 
" clip-path="url(#p1d7e045d2e)" style="fill: none; stroke-dasharray: 2.96,1.28; stroke-dashoffset: 0; stroke: #000000; stroke-width: 0.8"/>
   </g>
   <g id="line2d_17">
    <path d="M -1 333.297407 
L -0 334.032472 
L 12.000002 334.682526 
L 24.000004 308.266103 
L 36.000001 337.811161 
L 48.000001 318.682209 
L 60.000001 317.433763 
L 72 304.242409 
L 84 324.526049 
L 96 342.504309 
L 108 327.635206 
L 119.999999 308.908458 
L 132 319.946683 
L 144 320.0681 
L 156 326.60968 
L 168 312.133642 
L 180 321.039039 
L 192 330.659319 
L 204 356.344922 
L 216 332.842402 
L 228 338.101175 
L 240 301.992649 
L 252 348.860532 
L 264.000001 316.970778 
L 276 342.041713 
L 288 290.410845 
L 300 328.427122 
L 312 324.224479 
L 323.999999 310.48347 
L 335.999999 336.097555 
L 347.999999 301.910285 
L 359.999996 340.273069 
L 371.999998 325.084934 
L 384 331.221268 
L 395.999998 315.93897 
L 408 315.774908 
L 420.000002 339.253429 
L 431.999999 309.320789 
L 444.000001 283.925016 
L 456.000003 324.609514 
L 468.000001 284.161712 
L 480.000003 306.922422 
L 492 301.927342 
L 503.999997 307.345724 
L 516.000004 282.503734 
L 528.000001 230.700801 
L 539.999999 297.42945 
L 552.000005 261.59937 
L 564.000003 239.339729 
L 575.999991 241.046446 
L 587.999998 275.075068 
L 600.000004 283.395988 
L 611.999993 258.218686 
L 623.999999 300.624499 
L 636.000006 266.867053 
L 647.999994 288.402943 
L 660.000001 265.619744 
L 672.000007 310.30298 
L 683.999996 249.777562 
L 696.000002 289.74779 
L 708.000009 267.805271 
L 719.999997 275.054465 
L 731.999995 276.930808 
L 744.000001 308.099372 
L 755.999999 273.368316 
L 767.999996 320.11438 
L 780.000003 317.726998 
L 792 318.260533 
L 803.999989 329.154843 
L 815.999977 284.956226 
L 828.000001 342.129812 
L 829 337.866013 
" clip-path="url(#p1d7e045d2e)" style="fill: none; stroke: #7b4fa3; stroke-width: 2; stroke-linecap: square"/>
   </g>
   <g id="line2d_18">
    <path d="M -1 313.8061 
L -0 319.467562 
L 12.000002 324.243646 
L 24.000004 284.971788 
L 36.000001 335.078259 
L 48.000001 336.978154 
L 60.000001 324.061114 
L 72 313.573959 
L 84 316.044352 
L 96 330.770522 
L 108 321.908652 
L 119.999999 333.984875 
L 132 296.879464 
L 144 287.629973 
L 156 319.337722 
L 168 320.229068 
L 180 351.313948 
L 192 294.285687 
L 204 328.008181 
L 216 328.580109 
L 228 321.497141 
L 240 335.913423 
L 252 290.176713 
L 264.000001 325.277645 
L 276 322.031863 
L 288 337.794831 
L 300 315.049319 
L 312 332.933322 
L 323.999999 287.543466 
L 335.999999 297.334876 
L 347.999999 325.787901 
L 359.999996 311.194319 
L 371.999998 317.926708 
L 384 304.374273 
L 395.999998 327.394387 
L 408 262.253922 
L 420.000002 291.401575 
L 431.999999 308.65559 
L 444.000001 223.330661 
L 456.000003 214.395654 
L 468.000001 281.723144 
L 480.000003 291.627843 
L 492 252.697713 
L 503.999997 254.826275 
L 516.000004 244.128236 
L 528.000001 230.355788 
L 539.999999 235.592522 
L 552.000005 277.073165 
L 564.000003 243.492547 
L 575.999991 224.911138 
L 587.999998 225.638963 
L 600.000004 233.26629 
L 611.999993 152.163114 
L 623.999999 246.055847 
L 636.000006 204.900522 
L 647.999994 218.957319 
L 660.000001 253.862818 
L 672.000007 213.120549 
L 683.999996 215.782843 
L 696.000002 259.306453 
L 708.000009 263.1503 
L 719.999997 276.039986 
L 731.999995 222.805974 
L 744.000001 220.102513 
L 755.999999 234.709482 
L 767.999996 252.209503 
L 780.000003 321.546286 
L 792 247.871795 
L 803.999989 315.058344 
L 815.999977 260.686654 
L 828.000001 281.101112 
L 829 283.973113 
" clip-path="url(#p1d7e045d2e)" style="fill: none; stroke: #0e87cc; stroke-width: 2; stroke-linecap: square"/>
   </g>
   <g id="patch_3">
    <path d="M 72 396 
L 72 36 
" style="fill: none; stroke: #000000; stroke-width: 0.8; stroke-linejoin: miter; stroke-linecap: square"/>
   </g>
   <g id="patch_4">
    <path d="M 792 396 
L 792 36 
" style="fill: none; stroke: #000000; stroke-width: 0.8; stroke-linejoin: miter; stroke-linecap: square"/>
   </g>
   <g id="patch_5">
    <path d="M 72 396 
L 792 396 
" style="fill: none; stroke: #000000; stroke-width: 0.8; stroke-linejoin: miter; stroke-linecap: square"/>
   </g>
   <g id="patch_6">
    <path d="M 72 36 
L 792 36 
" style="fill: none; stroke: #000000; stroke-width: 0.8; stroke-linejoin: miter; stroke-linecap: square"/>
   </g>
   <g id="legend_1">
    <g id="line2d_19">
     <path d="M 85.5 55.647656 
L 100.5 55.647656 
L 115.5 55.647656 
" style="fill: none; stroke: #7b4fa3; stroke-width: 2; stroke-linecap: square"/>
    </g>
    <g id="text_18">
     <!-- SSC→SFEF -->
     <g transform="translate(127.5 60.897656) scale(0.15 -0.15)">
      <defs>
       <path id="DejaVuSans-43" d="M 4122 4306 
L 4122 3641 
Q 3803 3938 3442 4084 
Q 3081 4231 2675 4231 
Q 1875 4231 1450 3742 
Q 1025 3253 1025 2328 
Q 1025 1406 1450 917 
Q 1875 428 2675 428 
Q 3081 428 3442 575 
Q 3803 722 4122 1019 
L 4122 359 
Q 3791 134 3420 21 
Q 3050 -91 2638 -91 
Q 1578 -91 968 557 
Q 359 1206 359 2328 
Q 359 3453 968 4101 
Q 1578 4750 2638 4750 
Q 3056 4750 3426 4639 
Q 3797 4528 4122 4306 
z
" transform="scale(0.015625)"/>
       <path id="DejaVuSans-2192" d="M 5050 2147 
L 5050 1866 
L 3822 638 
L 3447 1013 
L 4175 1741 
L 366 1741 
L 366 2272 
L 4175 2272 
L 3447 3000 
L 3822 3375 
L 5050 2147 
z
" transform="scale(0.015625)"/>
       <path id="DejaVuSans-46" d="M 628 4666 
L 3309 4666 
L 3309 4134 
L 1259 4134 
L 1259 2759 
L 3109 2759 
L 3109 2228 
L 1259 2228 
L 1259 0 
L 628 0 
L 628 4666 
z
" transform="scale(0.015625)"/>
       <path id="DejaVuSans-45" d="M 628 4666 
L 3578 4666 
L 3578 4134 
L 1259 4134 
L 1259 2753 
L 3481 2753 
L 3481 2222 
L 1259 2222 
L 1259 531 
L 3634 531 
L 3634 0 
L 628 0 
L 628 4666 
z
" transform="scale(0.015625)"/>
      </defs>
      <use xlink:href="#DejaVuSans-53"/>
      <use xlink:href="#DejaVuSans-53" x="63.476562"/>
      <use xlink:href="#DejaVuSans-43" x="126.953125"/>
      <use xlink:href="#DejaVuSans-2192" x="196.777344"/>
      <use xlink:href="#DejaVuSans-53" x="280.566406"/>
      <use xlink:href="#DejaVuSans-46" x="344.042969"/>
      <use xlink:href="#DejaVuSans-45" x="401.5625"/>
      <use xlink:href="#DejaVuSans-46" x="464.746094"/>
     </g>
    </g>
    <g id="line2d_20">
     <path d="M 85.5 77.664844 
L 100.5 77.664844 
L 115.5 77.664844 
" style="fill: none; stroke: #0e87cc; stroke-width: 2; stroke-linecap: square"/>
    </g>
    <g id="text_19">
     <!-- SFEF→SSC -->
     <g transform="translate(127.5 82.914844) scale(0.15 -0.15)">
      <use xlink:href="#DejaVuSans-53"/>
      <use xlink:href="#DejaVuSans-46" x="63.476562"/>
      <use xlink:href="#DejaVuSans-45" x="120.996094"/>
      <use xlink:href="#DejaVuSans-46" x="184.179688"/>
      <use xlink:href="#DejaVuSans-2192" x="241.699219"/>
      <use xlink:href="#DejaVuSans-53" x="325.488281"/>
      <use xlink:href="#DejaVuSans-53" x="388.964844"/>
      <use xlink:href="#DejaVuSans-43" x="452.441406"/>
     </g>
    </g>
   </g>
  </g>
 </g>
 <defs>
  <clipPath id="p1d7e045d2e">
   <rect x="72" y="36" width="720" height="360"/>
  </clipPath>
 </defs>
</svg>
