<?xml version="1.0" encoding="utf-8" standalone="no"?>
<!DOCTYPE svg PUBLIC "-//W3C//DTD SVG 1.1//EN"
  "http://www.w3.org/Graphics/SVG/1.1/DTD/svg11.dtd">
<svg xmlns:xlink="http://www.w3.org/1999/xlink" width="561.6pt" height="561.6pt" viewBox="0 0 561.6 561.6" xmlns="http://www.w3.org/2000/svg" version="1.1">
 <metadata>
  <rdf:RDF xmlns:dc="http://purl.org/dc/elements/1.1/" xmlns:cc="http://creativecommons.org/ns#" xmlns:rdf="http://www.w3.org/1999/02/22-rdf-syntax-ns#">
   <cc:Work>
    <dc:type rdf:resource="http://purl.org/dc/dcmitype/StillImage"/>
    <dc:date>2025-12-08T02:21:06.832363</dc:date>
    <dc:format>image/svg+xml</dc:format>
    <dc:creator>
     <cc:Agent>
      <dc:title>Matplotlib v3.10.5, https://matplotlib.org/</dc:title>
     </cc:Agent>
    </dc:creator>
   </cc:Work>
  </rdf:RDF>
 </metadata>
 <defs>
  <style type="text/css">*{stroke-linejoin: round; stroke-linecap: butt}</style>
 </defs>
 <g id="figure_1">
  <g id="patch_1">
   <path d="M 0 561.6 
L 561.6 561.6 
L 561.6 0 
L 0 0 
z
" style="fill: #ffffff"/>
  </g>
  <g id="axes_1">
   <g id="patch_2">
    <path d="M 70.2 206.388 
L 505.44 206.388 
L 505.44 67.392 
L 70.2 67.392 
z
" style="fill: #ffffff"/>
   </g>
   <g id="FillBetweenPolyCollection_1">
    <defs>
     <path id="m3c931d0d9d" d="M 89.983636 -379.558386 
L 89.983636 -363.989478 
L 93.980327 -364.009976 
L 97.977023 -363.608268 
L 101.973713 -363.694678 
L 105.97041 -363.654193 
L 109.967106 -363.800432 
L 113.963796 -363.30334 
L 117.960493 -363.731997 
L 121.957186 -363.834795 
L 125.953882 -363.583969 
L 129.950576 -363.741543 
L 133.947269 -363.502112 
L 137.943962 -363.641406 
L 141.940659 -363.569306 
L 145.937352 -363.718637 
L 149.934045 -363.205118 
L 153.93074 -363.331218 
L 157.927434 -363.354542 
L 161.924129 -363.358324 
L 165.920823 -363.639801 
L 169.917517 -363.294115 
L 173.914211 -364.032912 
L 177.910906 -364.07375 
L 181.9076 -364.188429 
L 185.904294 -363.378389 
L 189.900988 -363.573871 
L 193.897681 -363.968535 
L 197.894377 -363.253287 
L 201.891071 -363.723707 
L 205.887764 -363.796384 
L 209.884457 -363.525374 
L 213.881154 -363.446482 
L 217.877847 -364.291871 
L 221.874543 -363.695544 
L 225.871234 -364.052024 
L 229.86793 -363.022331 
L 233.864626 -363.263623 
L 237.861317 -364.077375 
L 241.858013 -363.164262 
L 245.854704 -363.911586 
L 249.8514 -363.573994 
L 253.848096 -363.492518 
L 257.844787 -364.135415 
L 261.841483 -363.833361 
L 265.838179 -363.717795 
L 269.83487 -363.682875 
L 273.83156 -363.093332 
L 277.828262 -362.99709 
L 281.824953 -362.97951 
L 285.821643 -363.803136 
L 289.818345 -363.417752 
L 293.815036 -363.180906 
L 297.811726 -363.498531 
L 301.808428 -363.965949 
L 305.805119 -363.702937 
L 309.801809 -363.966711 
L 313.798511 -363.787437 
L 317.795202 -363.556897 
L 321.791892 -363.920343 
L 325.788594 -363.685519 
L 329.785285 -363.417346 
L 333.781975 -363.453179 
L 337.778677 -363.583393 
L 341.775368 -363.550799 
L 345.772058 -364.094746 
L 349.76876 -363.215053 
L 353.765451 -363.40601 
L 357.762141 -363.321728 
L 361.758843 -363.219534 
L 365.755534 -363.107668 
L 369.752224 -363.601582 
L 373.748914 -363.304074 
L 377.745605 -363.936506 
L 381.742319 -363.54947 
L 385.739009 -364.010091 
L 389.7357 -364.125195 
L 393.73239 -363.606339 
L 397.72908 -364.361658 
L 401.725771 -363.786397 
L 405.722485 -362.775811 
L 409.719175 -363.733376 
L 413.715866 -364.037958 
L 417.712556 -363.037176 
L 421.709246 -363.749492 
L 425.705937 -363.665853 
L 429.702627 -363.536485 
L 433.699341 -364.006445 
L 437.696032 -363.275218 
L 441.692722 -364.017823 
L 445.689412 -363.220563 
L 449.686103 -364.336717 
L 453.682793 -363.396616 
L 457.679507 -363.645745 
L 461.676198 -362.865094 
L 465.672888 -364.673979 
L 469.669578 -363.661408 
L 473.666269 -363.996616 
L 477.662959 -363.594205 
L 481.659673 -363.885462 
L 485.656364 -363.645174 
L 485.656364 -380.614453 
L 485.656364 -380.614453 
L 481.659673 -379.648996 
L 477.662959 -379.036286 
L 473.666269 -380.580842 
L 469.669578 -378.727623 
L 465.672888 -379.669509 
L 461.676198 -380.234497 
L 457.679507 -378.452321 
L 453.682793 -378.772026 
L 449.686103 -378.918595 
L 445.689412 -380.575536 
L 441.692722 -378.779021 
L 437.696032 -379.173755 
L 433.699341 -380.253473 
L 429.702627 -379.431052 
L 425.705937 -379.093183 
L 421.709246 -378.923287 
L 417.712556 -379.019476 
L 413.715866 -379.325657 
L 409.719175 -378.871435 
L 405.722485 -379.586673 
L 401.725771 -379.56831 
L 397.72908 -378.270082 
L 393.73239 -378.103024 
L 389.7357 -379.000106 
L 385.739009 -379.18092 
L 381.742319 -378.494352 
L 377.745605 -379.566447 
L 373.748914 -378.987257 
L 369.752224 -378.295378 
L 365.755534 -380.512198 
L 361.758843 -379.479999 
L 357.762141 -379.314379 
L 353.765451 -378.536786 
L 349.76876 -379.072549 
L 345.772058 -380.97171 
L 341.775368 -378.889585 
L 337.778677 -378.568403 
L 333.781975 -378.767777 
L 329.785285 -378.595544 
L 325.788594 -379.569566 
L 321.791892 -380.335961 
L 317.795202 -379.68579 
L 313.798511 -379.22786 
L 309.801809 -380.055261 
L 305.805119 -378.920859 
L 301.808428 -379.771157 
L 297.811726 -379.557374 
L 293.815036 -379.084474 
L 289.818345 -379.578725 
L 285.821643 -379.524714 
L 281.824953 -379.633485 
L 277.828262 -378.854134 
L 273.83156 -379.866398 
L 269.83487 -377.869286 
L 265.838179 -378.821951 
L 261.841483 -379.235229 
L 257.844787 -379.686454 
L 253.848096 -379.258135 
L 249.8514 -379.099125 
L 245.854704 -378.851844 
L 241.858013 -378.564759 
L 237.861317 -379.772635 
L 233.864626 -379.315354 
L 229.86793 -379.30327 
L 225.871234 -378.033289 
L 221.874543 -378.205938 
L 217.877847 -379.270209 
L 213.881154 -378.063807 
L 209.884457 -378.065674 
L 205.887764 -378.09222 
L 201.891071 -379.910542 
L 197.894377 -379.288012 
L 193.897681 -378.490052 
L 189.900988 -378.545223 
L 185.904294 -379.018518 
L 181.9076 -377.816379 
L 177.910906 -379.197629 
L 173.914211 -379.731825 
L 169.917517 -378.456892 
L 165.920823 -379.263789 
L 161.924129 -378.551427 
L 157.927434 -379.17112 
L 153.93074 -379.408982 
L 149.934045 -378.983624 
L 145.937352 -379.634363 
L 141.940659 -380.291765 
L 137.943962 -380.237598 
L 133.947269 -379.424523 
L 129.950576 -379.541667 
L 125.953882 -380.805802 
L 121.957186 -379.578092 
L 117.960493 -379.374228 
L 113.963796 -379.333782 
L 109.967106 -378.94483 
L 105.97041 -379.183226 
L 101.973713 -378.727365 
L 97.977023 -378.321377 
L 93.980327 -378.674152 
L 89.983636 -379.558386 
z
"/>
    </defs>
    <g clip-path="url(#pb46158735c)">
     <use xlink:href="#m3c931d0d9d" x="0" y="561.6" style="fill: #1f77b4; fill-opacity: 0.15"/>
    </g>
   </g>
   <g id="FillBetweenPolyCollection_2">
    <defs>
     <path id="m2dfe1f62af" d="M 89.983636 -379.547582 
L 89.983636 -363.748678 
L 93.980327 -363.809936 
L 97.977023 -363.541618 
L 101.973713 -363.371808 
L 105.97041 -363.33235 
L 109.967106 -363.923581 
L 113.963796 -363.722073 
L 117.960493 -363.311569 
L 121.957186 -363.70321 
L 125.953882 -363.441294 
L 129.950576 -363.213061 
L 133.947269 -363.848685 
L 137.943962 -364.357991 
L 141.940659 -363.860672 
L 145.937352 -363.902686 
L 149.934045 -362.973664 
L 153.93074 -363.85596 
L 157.927434 -363.314002 
L 161.924129 -363.8307 
L 165.920823 -363.58784 
L 169.917517 -362.93219 
L 173.914211 -363.172512 
L 177.910906 -363.77262 
L 181.9076 -364.075421 
L 185.904294 -363.411 
L 189.900988 -363.764534 
L 193.897681 -363.234255 
L 197.894377 -363.496081 
L 201.891071 -363.748267 
L 205.887764 -363.411232 
L 209.884457 -363.37975 
L 213.881154 -363.889725 
L 217.877847 -363.219484 
L 221.874543 -363.761798 
L 225.871234 -363.477606 
L 229.86793 -364.046099 
L 233.864626 -363.629804 
L 237.861317 -363.430259 
L 241.858013 -364.498711 
L 245.854704 -362.840428 
L 249.8514 -363.5116 
L 253.848096 -363.421606 
L 257.844787 -364.220503 
L 261.841483 -363.778465 
L 265.838179 -363.803359 
L 269.83487 -363.492904 
L 273.83156 -363.083883 
L 277.828262 -363.254509 
L 281.824953 -363.962601 
L 285.821643 -363.390787 
L 289.818345 -363.77746 
L 293.815036 -363.236546 
L 297.811726 -363.501692 
L 301.808428 -363.942288 
L 305.805119 -363.885465 
L 309.801809 -363.18338 
L 313.798511 -363.13628 
L 317.795202 -363.775115 
L 321.791892 -363.549887 
L 325.788594 -363.660104 
L 329.785285 -363.042492 
L 333.781975 -364.178804 
L 337.778677 -363.410624 
L 341.775368 -363.664663 
L 345.772058 -363.355515 
L 349.76876 -363.89603 
L 353.765451 -363.853675 
L 357.762141 -363.815808 
L 361.758843 -364.130573 
L 365.755534 -363.844949 
L 369.752224 -363.828786 
L 373.748914 -363.671629 
L 377.745605 -363.689642 
L 381.742319 -363.893123 
L 385.739009 -363.744006 
L 389.7357 -363.738673 
L 393.73239 -363.279239 
L 397.72908 -362.673879 
L 401.725771 -363.239905 
L 405.722485 -363.443362 
L 409.719175 -363.383517 
L 413.715866 -363.927188 
L 417.712556 -363.557417 
L 421.709246 -363.463018 
L 425.705937 -363.779346 
L 429.702627 -363.313219 
L 433.699341 -363.310689 
L 437.696032 -363.11785 
L 441.692722 -364.131386 
L 445.689412 -363.713657 
L 449.686103 -364.033882 
L 453.682793 -363.529777 
L 457.679507 -364.105308 
L 461.676198 -363.257393 
L 465.672888 -363.334848 
L 469.669578 -363.040706 
L 473.666269 -363.747234 
L 477.662959 -363.795245 
L 481.659673 -363.092968 
L 485.656364 -363.344318 
L 485.656364 -379.970442 
L 485.656364 -379.970442 
L 481.659673 -379.777608 
L 477.662959 -378.500909 
L 473.666269 -378.812118 
L 469.669578 -379.881818 
L 465.672888 -379.591591 
L 461.676198 -378.931146 
L 457.679507 -380.146799 
L 453.682793 -378.793803 
L 449.686103 -378.939128 
L 445.689412 -378.506179 
L 441.692722 -378.768452 
L 437.696032 -378.643114 
L 433.699341 -378.652315 
L 429.702627 -379.439226 
L 425.705937 -379.40622 
L 421.709246 -379.635559 
L 417.712556 -379.6689 
L 413.715866 -379.337324 
L 409.719175 -378.370537 
L 405.722485 -379.088135 
L 401.725771 -379.050539 
L 397.72908 -379.064754 
L 393.73239 -379.632696 
L 389.7357 -379.419725 
L 385.739009 -377.887346 
L 381.742319 -377.836854 
L 377.745605 -379.388161 
L 373.748914 -378.759799 
L 369.752224 -379.071793 
L 365.755534 -379.091675 
L 361.758843 -379.823445 
L 357.762141 -379.11459 
L 353.765451 -378.272893 
L 349.76876 -378.866459 
L 345.772058 -379.575874 
L 341.775368 -378.377491 
L 337.778677 -379.308794 
L 333.781975 -379.519803 
L 329.785285 -379.208176 
L 325.788594 -380.300491 
L 321.791892 -379.288373 
L 317.795202 -380.92319 
L 313.798511 -378.923034 
L 309.801809 -379.234108 
L 305.805119 -379.401014 
L 301.808428 -379.099295 
L 297.811726 -380.002493 
L 293.815036 -379.571555 
L 289.818345 -379.471046 
L 285.821643 -377.926076 
L 281.824953 -378.477679 
L 277.828262 -377.947337 
L 273.83156 -379.049511 
L 269.83487 -378.516085 
L 265.838179 -379.595857 
L 261.841483 -378.743326 
L 257.844787 -378.814489 
L 253.848096 -378.452301 
L 249.8514 -380.963693 
L 245.854704 -379.410806 
L 241.858013 -380.100826 
L 237.861317 -378.55765 
L 233.864626 -379.408759 
L 229.86793 -378.876406 
L 225.871234 -378.684013 
L 221.874543 -378.971738 
L 217.877847 -378.884948 
L 213.881154 -379.478429 
L 209.884457 -379.568129 
L 205.887764 -377.917735 
L 201.891071 -380.912123 
L 197.894377 -378.901866 
L 193.897681 -379.516334 
L 189.900988 -378.446604 
L 185.904294 -378.491666 
L 181.9076 -379.372812 
L 177.910906 -378.114543 
L 173.914211 -380.068886 
L 169.917517 -380.02063 
L 165.920823 -379.143203 
L 161.924129 -379.508085 
L 157.927434 -378.962856 
L 153.93074 -379.588922 
L 149.934045 -379.461068 
L 145.937352 -379.754291 
L 141.940659 -379.163789 
L 137.943962 -379.65035 
L 133.947269 -377.954254 
L 129.950576 -378.427229 
L 125.953882 -378.333499 
L 121.957186 -379.142682 
L 117.960493 -379.394851 
L 113.963796 -378.281093 
L 109.967106 -380.098495 
L 105.97041 -379.574681 
L 101.973713 -380.122169 
L 97.977023 -379.260623 
L 93.980327 -378.266732 
L 89.983636 -379.547582 
z
"/>
    </defs>
    <g clip-path="url(#pb46158735c)">
     <use xlink:href="#m2dfe1f62af" x="0" y="561.6" style="fill: #ff7f0e; fill-opacity: 0.15"/>
    </g>
   </g>
   <g id="matplotlib.axis_1">
    <g id="xtick_1">
     <g id="line2d_1">
      <defs>
       <path id="mc8544b7128" d="M 0 0 
L 0 3.5 
" style="stroke: #000000; stroke-width: 0.8"/>
      </defs>
      <g>
       <use xlink:href="#mc8544b7128" x="87.985286" y="206.388" style="stroke: #000000; stroke-width: 0.8"/>
      </g>
     </g>
     <g id="text_1">
      <!-- −200 -->
      <g transform="translate(74.251693 220.986437) scale(0.1 -0.1)">
       <defs>
        <path id="DejaVuSans-2212" d="M 678 2272 
L 4684 2272 
L 4684 1741 
L 678 1741 
L 678 2272 
z
" transform="scale(0.015625)"/>
        <path id="DejaVuSans-32" d="M 1228 531 
L 3431 531 
L 3431 0 
L 469 0 
L 469 531 
Q 828 903 1448 1529 
Q 2069 2156 2228 2338 
Q 2531 2678 2651 2914 
Q 2772 3150 2772 3378 
Q 2772 3750 2511 3984 
Q 2250 4219 1831 4219 
Q 1534 4219 1204 4116 
Q 875 4013 500 3803 
L 500 4441 
Q 881 4594 1212 4672 
Q 1544 4750 1819 4750 
Q 2544 4750 2975 4387 
Q 3406 4025 3406 3419 
Q 3406 3131 3298 2873 
Q 3191 2616 2906 2266 
Q 2828 2175 2409 1742 
Q 1991 1309 1228 531 
z
" transform="scale(0.015625)"/>
        <path id="DejaVuSans-30" d="M 2034 4250 
Q 1547 4250 1301 3770 
Q 1056 3291 1056 2328 
Q 1056 1369 1301 889 
Q 1547 409 2034 409 
Q 2525 409 2770 889 
Q 3016 1369 3016 2328 
Q 3016 3291 2770 3770 
Q 2525 4250 2034 4250 
z
M 2034 4750 
Q 2819 4750 3233 4129 
Q 3647 3509 3647 2328 
Q 3647 1150 3233 529 
Q 2819 -91 2034 -91 
Q 1250 -91 836 529 
Q 422 1150 422 2328 
Q 422 3509 836 4129 
Q 1250 4750 2034 4750 
z
" transform="scale(0.015625)"/>
       </defs>
       <use xlink:href="#DejaVuSans-2212"/>
       <use xlink:href="#DejaVuSans-32" transform="translate(83.789062 0)"/>
       <use xlink:href="#DejaVuSans-30" transform="translate(147.412109 0)"/>
       <use xlink:href="#DejaVuSans-30" transform="translate(211.035156 0)"/>
      </g>
     </g>
    </g>
    <g id="xtick_2">
     <g id="line2d_2">
      <g>
       <use xlink:href="#mc8544b7128" x="167.91917" y="206.388" style="stroke: #000000; stroke-width: 0.8"/>
      </g>
     </g>
     <g id="text_2">
      <!-- 0 -->
      <g transform="translate(164.73792 220.986437) scale(0.1 -0.1)">
       <use xlink:href="#DejaVuSans-30"/>
      </g>
     </g>
    </g>
    <g id="xtick_3">
     <g id="line2d_3">
      <g>
       <use xlink:href="#mc8544b7128" x="247.853053" y="206.388" style="stroke: #000000; stroke-width: 0.8"/>
      </g>
     </g>
     <g id="text_3">
      <!-- 200 -->
      <g transform="translate(238.309303 220.986437) scale(0.1 -0.1)">
       <use xlink:href="#DejaVuSans-32"/>
       <use xlink:href="#DejaVuSans-30" transform="translate(63.623047 0)"/>
       <use xlink:href="#DejaVuSans-30" transform="translate(127.246094 0)"/>
      </g>
     </g>
    </g>
    <g id="xtick_4">
     <g id="line2d_4">
      <g>
       <use xlink:href="#mc8544b7128" x="327.786937" y="206.388" style="stroke: #000000; stroke-width: 0.8"/>
      </g>
     </g>
     <g id="text_4">
      <!-- 400 -->
      <g transform="translate(318.243187 220.986437) scale(0.1 -0.1)">
       <defs>
        <path id="DejaVuSans-34" d="M 2419 4116 
L 825 1625 
L 2419 1625 
L 2419 4116 
z
M 2253 4666 
L 3047 4666 
L 3047 1625 
L 3713 1625 
L 3713 1100 
L 3047 1100 
L 3047 0 
L 2419 0 
L 2419 1100 
L 313 1100 
L 313 1709 
L 2253 4666 
z
" transform="scale(0.015625)"/>
       </defs>
       <use xlink:href="#DejaVuSans-34"/>
       <use xlink:href="#DejaVuSans-30" transform="translate(63.623047 0)"/>
       <use xlink:href="#DejaVuSans-30" transform="translate(127.246094 0)"/>
      </g>
     </g>
    </g>
    <g id="xtick_5">
     <g id="line2d_5">
      <g>
       <use xlink:href="#mc8544b7128" x="407.720821" y="206.388" style="stroke: #000000; stroke-width: 0.8"/>
      </g>
     </g>
     <g id="text_5">
      <!-- 600 -->
      <g transform="translate(398.177071 220.986437) scale(0.1 -0.1)">
       <defs>
        <path id="DejaVuSans-36" d="M 2113 2584 
Q 1688 2584 1439 2293 
Q 1191 2003 1191 1497 
Q 1191 994 1439 701 
Q 1688 409 2113 409 
Q 2538 409 2786 701 
Q 3034 994 3034 1497 
Q 3034 2003 2786 2293 
Q 2538 2584 2113 2584 
z
M 3366 4563 
L 3366 3988 
Q 3128 4100 2886 4159 
Q 2644 4219 2406 4219 
Q 1781 4219 1451 3797 
Q 1122 3375 1075 2522 
Q 1259 2794 1537 2939 
Q 1816 3084 2150 3084 
Q 2853 3084 3261 2657 
Q 3669 2231 3669 1497 
Q 3669 778 3244 343 
Q 2819 -91 2113 -91 
Q 1303 -91 875 529 
Q 447 1150 447 2328 
Q 447 3434 972 4092 
Q 1497 4750 2381 4750 
Q 2619 4750 2861 4703 
Q 3103 4656 3366 4563 
z
" transform="scale(0.015625)"/>
       </defs>
       <use xlink:href="#DejaVuSans-36"/>
       <use xlink:href="#DejaVuSans-30" transform="translate(63.623047 0)"/>
       <use xlink:href="#DejaVuSans-30" transform="translate(127.246094 0)"/>
      </g>
     </g>
    </g>
    <g id="xtick_6">
     <g id="line2d_6">
      <g>
       <use xlink:href="#mc8544b7128" x="487.654704" y="206.388" style="stroke: #000000; stroke-width: 0.8"/>
      </g>
     </g>
     <g id="text_6">
      <!-- 800 -->
      <g transform="translate(478.110954 220.986437) scale(0.1 -0.1)">
       <defs>
        <path id="DejaVuSans-38" d="M 2034 2216 
Q 1584 2216 1326 1975 
Q 1069 1734 1069 1313 
Q 1069 891 1326 650 
Q 1584 409 2034 409 
Q 2484 409 2743 651 
Q 3003 894 3003 1313 
Q 3003 1734 2745 1975 
Q 2488 2216 2034 2216 
z
M 1403 2484 
Q 997 2584 770 2862 
Q 544 3141 544 3541 
Q 544 4100 942 4425 
Q 1341 4750 2034 4750 
Q 2731 4750 3128 4425 
Q 3525 4100 3525 3541 
Q 3525 3141 3298 2862 
Q 3072 2584 2669 2484 
Q 3125 2378 3379 2068 
Q 3634 1759 3634 1313 
Q 3634 634 3220 271 
Q 2806 -91 2034 -91 
Q 1263 -91 848 271 
Q 434 634 434 1313 
Q 434 1759 690 2068 
Q 947 2378 1403 2484 
z
M 1172 3481 
Q 1172 3119 1398 2916 
Q 1625 2713 2034 2713 
Q 2441 2713 2670 2916 
Q 2900 3119 2900 3481 
Q 2900 3844 2670 4047 
Q 2441 4250 2034 4250 
Q 1625 4250 1398 4047 
Q 1172 3844 1172 3481 
z
" transform="scale(0.015625)"/>
       </defs>
       <use xlink:href="#DejaVuSans-38"/>
       <use xlink:href="#DejaVuSans-30" transform="translate(63.623047 0)"/>
       <use xlink:href="#DejaVuSans-30" transform="translate(127.246094 0)"/>
      </g>
     </g>
    </g>
   </g>
   <g id="matplotlib.axis_2">
    <g id="ytick_1">
     <g id="line2d_7">
      <defs>
       <path id="m005ed7bb2b" d="M 0 0 
L -3.5 0 
" style="stroke: #000000; stroke-width: 0.8"/>
      </defs>
      <g>
       <use xlink:href="#m005ed7bb2b" x="70.2" y="202.560958" style="stroke: #000000; stroke-width: 0.8"/>
      </g>
     </g>
     <g id="text_7">
      <!-- 0 -->
      <g transform="translate(56.8375 206.360176) scale(0.1 -0.1)">
       <use xlink:href="#DejaVuSans-30"/>
      </g>
     </g>
    </g>
    <g id="ytick_2">
     <g id="line2d_8">
      <g>
       <use xlink:href="#m005ed7bb2b" x="70.2" y="169.133284" style="stroke: #000000; stroke-width: 0.8"/>
      </g>
     </g>
     <g id="text_8">
      <!-- 10 -->
      <g transform="translate(50.475 172.932503) scale(0.1 -0.1)">
       <defs>
        <path id="DejaVuSans-31" d="M 794 531 
L 1825 531 
L 1825 4091 
L 703 3866 
L 703 4441 
L 1819 4666 
L 2450 4666 
L 2450 531 
L 3481 531 
L 3481 0 
L 794 0 
L 794 531 
z
" transform="scale(0.015625)"/>
       </defs>
       <use xlink:href="#DejaVuSans-31"/>
       <use xlink:href="#DejaVuSans-30" transform="translate(63.623047 0)"/>
      </g>
     </g>
    </g>
    <g id="ytick_3">
     <g id="line2d_9">
      <g>
       <use xlink:href="#m005ed7bb2b" x="70.2" y="135.705611" style="stroke: #000000; stroke-width: 0.8"/>
      </g>
     </g>
     <g id="text_9">
      <!-- 20 -->
      <g transform="translate(50.475 139.50483) scale(0.1 -0.1)">
       <use xlink:href="#DejaVuSans-32"/>
       <use xlink:href="#DejaVuSans-30" transform="translate(63.623047 0)"/>
      </g>
     </g>
    </g>
    <g id="ytick_4">
     <g id="line2d_10">
      <g>
       <use xlink:href="#m005ed7bb2b" x="70.2" y="102.277938" style="stroke: #000000; stroke-width: 0.8"/>
      </g>
     </g>
     <g id="text_10">
      <!-- 30 -->
      <g transform="translate(50.475 106.077157) scale(0.1 -0.1)">
       <defs>
        <path id="DejaVuSans-33" d="M 2597 2516 
Q 3050 2419 3304 2112 
Q 3559 1806 3559 1356 
Q 3559 666 3084 287 
Q 2609 -91 1734 -91 
Q 1441 -91 1130 -33 
Q 819 25 488 141 
L 488 750 
Q 750 597 1062 519 
Q 1375 441 1716 441 
Q 2309 441 2620 675 
Q 2931 909 2931 1356 
Q 2931 1769 2642 2001 
Q 2353 2234 1838 2234 
L 1294 2234 
L 1294 2753 
L 1863 2753 
Q 2328 2753 2575 2939 
Q 2822 3125 2822 3475 
Q 2822 3834 2567 4026 
Q 2313 4219 1838 4219 
Q 1578 4219 1281 4162 
Q 984 4106 628 3988 
L 628 4550 
Q 988 4650 1302 4700 
Q 1616 4750 1894 4750 
Q 2613 4750 3031 4423 
Q 3450 4097 3450 3541 
Q 3450 3153 3228 2886 
Q 3006 2619 2597 2516 
z
" transform="scale(0.015625)"/>
       </defs>
       <use xlink:href="#DejaVuSans-33"/>
       <use xlink:href="#DejaVuSans-30" transform="translate(63.623047 0)"/>
      </g>
     </g>
    </g>
    <g id="ytick_5">
     <g id="line2d_11">
      <g>
       <use xlink:href="#m005ed7bb2b" x="70.2" y="68.850265" style="stroke: #000000; stroke-width: 0.8"/>
      </g>
     </g>
     <g id="text_11">
      <!-- 40 -->
      <g transform="translate(50.475 72.649484) scale(0.1 -0.1)">
       <use xlink:href="#DejaVuSans-34"/>
       <use xlink:href="#DejaVuSans-30" transform="translate(63.623047 0)"/>
      </g>
     </g>
    </g>
    <g id="text_12">
     <!-- ΔLL (bits) -->
     <g transform="translate(44.395313 160.500937) rotate(-90) scale(0.1 -0.1)">
      <defs>
       <path id="DejaVuSans-394" d="M 2188 4044 
L 906 525 
L 3472 525 
L 2188 4044 
z
M 50 0 
L 1831 4666 
L 2547 4666 
L 4325 0 
L 50 0 
z
" transform="scale(0.015625)"/>
       <path id="DejaVuSans-4c" d="M 628 4666 
L 1259 4666 
L 1259 531 
L 3531 531 
L 3531 0 
L 628 0 
L 628 4666 
z
" transform="scale(0.015625)"/>
       <path id="DejaVuSans-20" transform="scale(0.015625)"/>
       <path id="DejaVuSans-28" d="M 1984 4856 
Q 1566 4138 1362 3434 
Q 1159 2731 1159 2009 
Q 1159 1288 1364 580 
Q 1569 -128 1984 -844 
L 1484 -844 
Q 1016 -109 783 600 
Q 550 1309 550 2009 
Q 550 2706 781 3412 
Q 1013 4119 1484 4856 
L 1984 4856 
z
" transform="scale(0.015625)"/>
       <path id="DejaVuSans-62" d="M 3116 1747 
Q 3116 2381 2855 2742 
Q 2594 3103 2138 3103 
Q 1681 3103 1420 2742 
Q 1159 2381 1159 1747 
Q 1159 1113 1420 752 
Q 1681 391 2138 391 
Q 2594 391 2855 752 
Q 3116 1113 3116 1747 
z
M 1159 2969 
Q 1341 3281 1617 3432 
Q 1894 3584 2278 3584 
Q 2916 3584 3314 3078 
Q 3713 2572 3713 1747 
Q 3713 922 3314 415 
Q 2916 -91 2278 -91 
Q 1894 -91 1617 61 
Q 1341 213 1159 525 
L 1159 0 
L 581 0 
L 581 4863 
L 1159 4863 
L 1159 2969 
z
" transform="scale(0.015625)"/>
       <path id="DejaVuSans-69" d="M 603 3500 
L 1178 3500 
L 1178 0 
L 603 0 
L 603 3500 
z
M 603 4863 
L 1178 4863 
L 1178 4134 
L 603 4134 
L 603 4863 
z
" transform="scale(0.015625)"/>
       <path id="DejaVuSans-74" d="M 1172 4494 
L 1172 3500 
L 2356 3500 
L 2356 3053 
L 1172 3053 
L 1172 1153 
Q 1172 725 1289 603 
Q 1406 481 1766 481 
L 2356 481 
L 2356 0 
L 1766 0 
Q 1100 0 847 248 
Q 594 497 594 1153 
L 594 3053 
L 172 3053 
L 172 3500 
L 594 3500 
L 594 4494 
L 1172 4494 
z
" transform="scale(0.015625)"/>
       <path id="DejaVuSans-73" d="M 2834 3397 
L 2834 2853 
Q 2591 2978 2328 3040 
Q 2066 3103 1784 3103 
Q 1356 3103 1142 2972 
Q 928 2841 928 2578 
Q 928 2378 1081 2264 
Q 1234 2150 1697 2047 
L 1894 2003 
Q 2506 1872 2764 1633 
Q 3022 1394 3022 966 
Q 3022 478 2636 193 
Q 2250 -91 1575 -91 
Q 1294 -91 989 -36 
Q 684 19 347 128 
L 347 722 
Q 666 556 975 473 
Q 1284 391 1588 391 
Q 1994 391 2212 530 
Q 2431 669 2431 922 
Q 2431 1156 2273 1281 
Q 2116 1406 1581 1522 
L 1381 1569 
Q 847 1681 609 1914 
Q 372 2147 372 2553 
Q 372 3047 722 3315 
Q 1072 3584 1716 3584 
Q 2034 3584 2315 3537 
Q 2597 3491 2834 3397 
z
" transform="scale(0.015625)"/>
       <path id="DejaVuSans-29" d="M 513 4856 
L 1013 4856 
Q 1481 4119 1714 3412 
Q 1947 2706 1947 2009 
Q 1947 1309 1714 600 
Q 1481 -109 1013 -844 
L 513 -844 
Q 928 -128 1133 580 
Q 1338 1288 1338 2009 
Q 1338 2731 1133 3434 
Q 928 4138 513 4856 
z
" transform="scale(0.015625)"/>
      </defs>
      <use xlink:href="#DejaVuSans-394"/>
      <use xlink:href="#DejaVuSans-4c" transform="translate(68.408203 0)"/>
      <use xlink:href="#DejaVuSans-4c" transform="translate(124.121094 0)"/>
      <use xlink:href="#DejaVuSans-20" transform="translate(179.833984 0)"/>
      <use xlink:href="#DejaVuSans-28" transform="translate(211.621094 0)"/>
      <use xlink:href="#DejaVuSans-62" transform="translate(250.634766 0)"/>
      <use xlink:href="#DejaVuSans-69" transform="translate(314.111328 0)"/>
      <use xlink:href="#DejaVuSans-74" transform="translate(341.894531 0)"/>
      <use xlink:href="#DejaVuSans-73" transform="translate(381.103516 0)"/>
      <use xlink:href="#DejaVuSans-29" transform="translate(433.203125 0)"/>
     </g>
    </g>
   </g>
   <g id="line2d_12">
    <path d="M 167.91917 206.388 
L 167.91917 67.392 
" clip-path="url(#pb46158735c)" style="fill: none; stroke-dasharray: 2.96,1.28; stroke-dashoffset: 0; stroke: #000000; stroke-width: 0.8"/>
   </g>
   <g id="line2d_13">
    <path d="M 89.983636 189.826068 
L 93.980327 190.257936 
L 97.977023 190.635178 
L 101.973713 190.388978 
L 105.97041 190.181291 
L 109.967106 190.227369 
L 113.963796 190.281439 
L 117.960493 190.046887 
L 121.957186 189.893557 
L 125.953882 189.405115 
L 129.950576 189.958395 
L 133.947269 190.136683 
L 137.943962 189.660498 
L 141.940659 189.669464 
L 145.937352 189.9235 
L 149.934045 190.505629 
L 153.93074 190.2299 
L 157.927434 190.337169 
L 161.924129 190.645124 
L 165.920823 190.148205 
L 169.917517 190.724496 
L 173.914211 189.717632 
L 177.910906 189.964311 
L 181.9076 190.597596 
L 185.904294 190.401546 
L 189.900988 190.540453 
L 193.897681 190.370706 
L 197.894377 190.32935 
L 201.891071 189.782876 
L 205.887764 190.655698 
L 209.884457 190.804476 
L 213.881154 190.844856 
L 217.877847 189.81896 
L 221.874543 190.649259 
L 225.871234 190.557344 
L 229.86793 190.437199 
L 233.864626 190.310511 
L 237.861317 189.674995 
L 241.858013 190.73549 
L 245.854704 190.218285 
L 249.8514 190.263441 
L 253.848096 190.224674 
L 257.844787 189.689066 
L 261.841483 190.065705 
L 265.838179 190.330127 
L 269.83487 190.82392 
L 273.83156 190.120135 
L 277.828262 190.674388 
L 281.824953 190.293503 
L 285.821643 189.936075 
L 289.818345 190.101762 
L 293.815036 190.46731 
L 297.811726 190.072047 
L 301.808428 189.731447 
L 305.805119 190.288102 
L 309.801809 189.589014 
L 313.798511 190.092352 
L 317.795202 189.978657 
L 321.791892 189.471848 
L 325.788594 189.972457 
L 329.785285 190.593555 
L 333.781975 190.489522 
L 337.778677 190.524102 
L 341.775368 190.379808 
L 345.772058 189.066772 
L 349.76876 190.456199 
L 353.765451 190.628602 
L 357.762141 190.281946 
L 361.758843 190.250234 
L 365.755534 189.790067 
L 369.752224 190.65152 
L 373.748914 190.454335 
L 377.745605 189.848523 
L 381.742319 190.578089 
L 385.739009 190.004495 
L 389.7357 190.03735 
L 393.73239 190.745319 
L 397.72908 190.28413 
L 401.725771 189.922646 
L 405.722485 190.418758 
L 409.719175 190.297594 
L 413.715866 189.918193 
L 417.712556 190.571674 
L 421.709246 190.263611 
L 425.705937 190.220482 
L 429.702627 190.116232 
L 433.699341 189.470041 
L 437.696032 190.375513 
L 441.692722 190.201578 
L 445.689412 189.701951 
L 449.686103 189.972344 
L 453.682793 190.515679 
L 457.679507 190.550967 
L 461.676198 190.050204 
L 465.672888 189.428256 
L 469.669578 190.405484 
L 473.666269 189.311271 
L 477.662959 190.284754 
L 481.659673 189.832771 
L 485.656364 189.470186 
" clip-path="url(#pb46158735c)" style="fill: none; stroke-dasharray: 1,1.65; stroke-dashoffset: 0; stroke: #1f77b4"/>
   </g>
   <g id="line2d_14">
    <path d="M 89.983636 189.95187 
L 93.980327 190.561666 
L 97.977023 190.198879 
L 101.973713 189.853012 
L 105.97041 190.146485 
L 109.967106 189.588962 
L 113.963796 190.598417 
L 117.960493 190.24679 
L 121.957186 190.177054 
L 125.953882 190.712604 
L 129.950576 190.779855 
L 133.947269 190.698531 
L 137.943962 189.595829 
L 141.940659 190.08777 
L 145.937352 189.771512 
L 149.934045 190.382634 
L 153.93074 189.877559 
L 157.927434 190.461571 
L 161.924129 189.930608 
L 165.920823 190.234479 
L 169.917517 190.12359 
L 173.914211 189.979301 
L 177.910906 190.656418 
L 181.9076 189.875884 
L 185.904294 190.648667 
L 189.900988 190.494431 
L 193.897681 190.224705 
L 197.894377 190.401026 
L 201.891071 189.269805 
L 205.887764 190.935517 
L 209.884457 190.126061 
L 213.881154 189.915923 
L 217.877847 190.547784 
L 221.874543 190.233232 
L 225.871234 190.51919 
L 229.86793 190.138747 
L 233.864626 190.080719 
L 237.861317 190.606046 
L 241.858013 189.300232 
L 245.854704 190.474383 
L 249.8514 189.362353 
L 253.848096 190.663047 
L 257.844787 190.082504 
L 261.841483 190.339105 
L 265.838179 189.900392 
L 269.83487 190.595505 
L 273.83156 190.533303 
L 277.828262 190.999077 
L 281.824953 190.37986 
L 285.821643 190.941568 
L 289.818345 189.975747 
L 293.815036 190.19595 
L 297.811726 189.847908 
L 301.808428 190.079209 
L 305.805119 189.95676 
L 309.801809 190.391256 
L 313.798511 190.570343 
L 317.795202 189.250848 
L 321.791892 190.18087 
L 325.788594 189.619702 
L 329.785285 190.474666 
L 333.781975 189.750697 
L 337.778677 190.240291 
L 341.775368 190.578923 
L 345.772058 190.134306 
L 349.76876 190.218755 
L 353.765451 190.536716 
L 357.762141 190.134801 
L 361.758843 189.622991 
L 365.755534 190.131688 
L 369.752224 190.14971 
L 373.748914 190.384286 
L 377.745605 190.061099 
L 381.742319 190.735011 
L 385.739009 190.784324 
L 389.7357 190.020801 
L 393.73239 190.144033 
L 397.72908 190.730683 
L 401.725771 190.454778 
L 405.722485 190.334252 
L 409.719175 190.722973 
L 413.715866 189.967744 
L 417.712556 189.986841 
L 421.709246 190.050711 
L 425.705937 190.007217 
L 429.702627 190.223777 
L 433.699341 190.618498 
L 437.696032 190.719518 
L 441.692722 190.150081 
L 445.689412 190.490082 
L 449.686103 190.113495 
L 453.682793 190.43821 
L 457.679507 189.473947 
L 461.676198 190.50573 
L 465.672888 190.136781 
L 469.669578 190.138738 
L 473.666269 190.320324 
L 477.662959 190.451923 
L 481.659673 190.164712 
L 485.656364 189.94262 
" clip-path="url(#pb46158735c)" style="fill: none; stroke-dasharray: 1,1.65; stroke-dashoffset: 0; stroke: #ff7f0e"/>
   </g>
   <g id="line2d_15">
    <path d="M 89.983636 165.944756 
L 93.980327 153.696465 
L 97.977023 122.484254 
L 101.973713 180.104492 
L 105.97041 138.146229 
L 109.967106 167.34281 
L 113.963796 187.967913 
L 117.960493 125.163018 
L 121.957186 159.253719 
L 125.953882 155.694825 
L 129.950576 91.121326 
L 133.947269 138.389624 
L 137.943962 150.248582 
L 141.940659 119.527251 
L 145.937352 145.270275 
L 149.934045 139.840123 
L 153.93074 164.606576 
L 157.927434 146.87805 
L 161.924129 158.261617 
L 165.920823 144.654139 
L 169.917517 114.02151 
L 173.914211 173.271262 
L 177.910906 165.595667 
L 181.9076 119.798649 
L 185.904294 101.293627 
L 189.900988 134.53053 
L 193.897681 150.785363 
L 197.894377 114.68172 
L 201.891071 161.9062 
L 205.887764 143.920896 
L 209.884457 73.71 
L 213.881154 118.806836 
L 217.877847 118.594811 
L 221.874543 88.327094 
L 225.871234 124.170982 
L 229.86793 143.361389 
L 233.864626 82.774119 
L 237.861317 117.236573 
L 241.858013 118.966524 
L 245.854704 108.294745 
L 249.8514 162.116453 
L 253.848096 83.903032 
L 257.844787 91.673825 
L 261.841483 108.823648 
L 265.838179 144.932025 
L 269.83487 81.385344 
L 273.83156 82.436418 
L 277.828262 128.52756 
L 281.824953 139.446367 
L 285.821643 144.064641 
L 289.818345 113.80465 
L 293.815036 152.157589 
L 297.811726 180.937566 
L 301.808428 166.63537 
L 305.805119 191.93957 
L 309.801809 171.652214 
L 313.798511 184.098948 
L 317.795202 186.349437 
L 321.791892 176.479418 
L 325.788594 162.187166 
L 329.785285 188.25361 
L 333.781975 188.356567 
L 337.778677 192.704456 
L 341.775368 179.918768 
L 345.772058 164.019426 
L 349.76876 171.320368 
L 353.765451 190.851432 
L 357.762141 158.905142 
L 361.758843 185.091551 
L 365.755534 194.896975 
L 369.752224 198.955035 
L 373.748914 167.327531 
L 377.745605 165.940737 
L 381.742319 196.698938 
L 385.739009 192.810631 
L 389.7357 200.07 
L 393.73239 178.79798 
L 397.72908 192.753085 
L 401.725771 195.297668 
L 405.722485 173.923809 
L 409.719175 186.161382 
L 413.715866 187.406688 
L 417.712556 186.229066 
L 421.709246 190.206126 
L 425.705937 184.866617 
L 429.702627 177.951777 
L 433.699341 190.960091 
L 437.696032 182.930149 
L 441.692722 183.877838 
L 445.689412 186.841867 
L 449.686103 175.863764 
L 453.682793 183.795783 
L 457.679507 173.629906 
L 461.676198 162.69037 
L 465.672888 189.484309 
L 469.669578 194.206613 
L 473.666269 191.951239 
L 477.662959 192.780036 
L 481.659673 194.527176 
L 485.656364 188.61782 
" clip-path="url(#pb46158735c)" style="fill: none; stroke: #1f77b4; stroke-width: 2.2; stroke-linecap: square"/>
   </g>
   <g id="line2d_16">
    <path d="M 89.983636 191.071136 
L 93.980327 178.525196 
L 97.977023 188.958109 
L 101.973713 167.696628 
L 105.97041 190.464659 
L 109.967106 176.827509 
L 113.963796 171.212868 
L 117.960493 181.694841 
L 121.957186 192.654448 
L 125.953882 187.285306 
L 129.950576 172.536662 
L 133.947269 187.143099 
L 137.943962 164.073302 
L 141.940659 159.973646 
L 145.937352 172.309514 
L 149.934045 171.216019 
L 153.93074 154.025255 
L 157.927434 126.426678 
L 161.924129 191.454608 
L 165.920823 181.464248 
L 169.917517 179.351245 
L 173.914211 189.581751 
L 177.910906 187.572227 
L 181.9076 166.896564 
L 185.904294 150.632245 
L 189.900988 184.479848 
L 193.897681 186.295035 
L 197.894377 169.897961 
L 201.891071 184.122428 
L 205.887764 187.429141 
L 209.884457 180.740345 
L 213.881154 171.02099 
L 217.877847 165.745453 
L 221.874543 162.247154 
L 225.871234 167.164196 
L 229.86793 179.63044 
L 233.864626 179.16722 
L 237.861317 155.080164 
L 241.858013 134.84831 
L 245.854704 161.245073 
L 249.8514 139.407039 
L 253.848096 188.616132 
L 257.844787 178.761682 
L 261.841483 131.269729 
L 265.838179 165.124832 
L 269.83487 130.011754 
L 273.83156 157.427856 
L 277.828262 181.683402 
L 281.824953 181.454591 
L 285.821643 161.363244 
L 289.818345 151.38652 
L 293.815036 150.862639 
L 297.811726 171.07444 
L 301.808428 160.806665 
L 305.805119 181.347432 
L 309.801809 182.3374 
L 313.798511 182.674615 
L 317.795202 190.550163 
L 321.791892 189.09381 
L 325.788594 190.137426 
L 329.785285 147.597384 
L 333.781975 185.09083 
L 337.778677 200.060191 
L 341.775368 191.623046 
L 345.772058 194.198405 
L 349.76876 185.808892 
L 353.765451 188.17524 
L 357.762141 184.208326 
L 361.758843 185.771209 
L 365.755534 178.49443 
L 369.752224 178.515947 
L 373.748914 195.432187 
L 377.745605 199.088036 
L 381.742319 182.339661 
L 385.739009 191.266614 
L 389.7357 184.769319 
L 393.73239 183.291016 
L 397.72908 199.084363 
L 401.725771 182.954717 
L 405.722485 169.612196 
L 409.719175 178.612587 
L 413.715866 180.742211 
L 417.712556 176.475643 
L 421.709246 165.789107 
L 425.705937 194.029963 
L 429.702627 185.616389 
L 433.699341 175.458216 
L 437.696032 187.446207 
L 441.692722 191.951984 
L 445.689412 177.416907 
L 449.686103 187.567409 
L 453.682793 197.787126 
L 457.679507 198.184295 
L 461.676198 188.550509 
L 465.672888 193.129922 
L 469.669578 195.592247 
L 473.666269 173.470224 
L 477.662959 192.009033 
L 481.659673 194.847542 
L 485.656364 175.761653 
" clip-path="url(#pb46158735c)" style="fill: none; stroke: #ff7f0e; stroke-width: 2.2; stroke-linecap: square"/>
   </g>
   <g id="patch_3">
    <path d="M 70.2 206.388 
L 70.2 67.392 
" style="fill: none; stroke: #000000; stroke-width: 0.8; stroke-linejoin: miter; stroke-linecap: square"/>
   </g>
   <g id="patch_4">
    <path d="M 505.44 206.388 
L 505.44 67.392 
" style="fill: none; stroke: #000000; stroke-width: 0.8; stroke-linejoin: miter; stroke-linecap: square"/>
   </g>
   <g id="patch_5">
    <path d="M 70.2 206.388 
L 505.44 206.388 
" style="fill: none; stroke: #000000; stroke-width: 0.8; stroke-linejoin: miter; stroke-linecap: square"/>
   </g>
   <g id="patch_6">
    <path d="M 70.2 67.392 
L 505.44 67.392 
" style="fill: none; stroke: #000000; stroke-width: 0.8; stroke-linejoin: miter; stroke-linecap: square"/>
   </g>
   <g id="text_13">
    <!-- (MLIP vs MSC) — O-flow — Panel A: overlay + null bands -->
    <g transform="translate(118.32 61.392) scale(0.12 -0.12)">
     <defs>
      <path id="DejaVuSans-4d" d="M 628 4666 
L 1569 4666 
L 2759 1491 
L 3956 4666 
L 4897 4666 
L 4897 0 
L 4281 0 
L 4281 4097 
L 3078 897 
L 2444 897 
L 1241 4097 
L 1241 0 
L 628 0 
L 628 4666 
z
" transform="scale(0.015625)"/>
      <path id="DejaVuSans-49" d="M 628 4666 
L 1259 4666 
L 1259 0 
L 628 0 
L 628 4666 
z
" transform="scale(0.015625)"/>
      <path id="DejaVuSans-50" d="M 1259 4147 
L 1259 2394 
L 2053 2394 
Q 2494 2394 2734 2622 
Q 2975 2850 2975 3272 
Q 2975 3691 2734 3919 
Q 2494 4147 2053 4147 
L 1259 4147 
z
M 628 4666 
L 2053 4666 
Q 2838 4666 3239 4311 
Q 3641 3956 3641 3272 
Q 3641 2581 3239 2228 
Q 2838 1875 2053 1875 
L 1259 1875 
L 1259 0 
L 628 0 
L 628 4666 
z
" transform="scale(0.015625)"/>
      <path id="DejaVuSans-76" d="M 191 3500 
L 800 3500 
L 1894 563 
L 2988 3500 
L 3597 3500 
L 2284 0 
L 1503 0 
L 191 3500 
z
" transform="scale(0.015625)"/>
      <path id="DejaVuSans-53" d="M 3425 4513 
L 3425 3897 
Q 3066 4069 2747 4153 
Q 2428 4238 2131 4238 
Q 1616 4238 1336 4038 
Q 1056 3838 1056 3469 
Q 1056 3159 1242 3001 
Q 1428 2844 1947 2747 
L 2328 2669 
Q 3034 2534 3370 2195 
Q 3706 1856 3706 1288 
Q 3706 609 3251 259 
Q 2797 -91 1919 -91 
Q 1588 -91 1214 -16 
Q 841 59 441 206 
L 441 856 
Q 825 641 1194 531 
Q 1563 422 1919 422 
Q 2459 422 2753 634 
Q 3047 847 3047 1241 
Q 3047 1584 2836 1778 
Q 2625 1972 2144 2069 
L 1759 2144 
Q 1053 2284 737 2584 
Q 422 2884 422 3419 
Q 422 4038 858 4394 
Q 1294 4750 2059 4750 
Q 2388 4750 2728 4690 
Q 3069 4631 3425 4513 
z
" transform="scale(0.015625)"/>
      <path id="DejaVuSans-43" d="M 4122 4306 
L 4122 3641 
Q 3803 3938 3442 4084 
Q 3081 4231 2675 4231 
Q 1875 4231 1450 3742 
Q 1025 3253 1025 2328 
Q 1025 1406 1450 917 
Q 1875 428 2675 428 
Q 3081 428 3442 575 
Q 3803 722 4122 1019 
L 4122 359 
Q 3791 134 3420 21 
Q 3050 -91 2638 -91 
Q 1578 -91 968 557 
Q 359 1206 359 2328 
Q 359 3453 968 4101 
Q 1578 4750 2638 4750 
Q 3056 4750 3426 4639 
Q 3797 4528 4122 4306 
z
" transform="scale(0.015625)"/>
      <path id="DejaVuSans-2014" d="M 313 1978 
L 6088 1978 
L 6088 1528 
L 313 1528 
L 313 1978 
z
" transform="scale(0.015625)"/>
      <path id="DejaVuSans-4f" d="M 2522 4238 
Q 1834 4238 1429 3725 
Q 1025 3213 1025 2328 
Q 1025 1447 1429 934 
Q 1834 422 2522 422 
Q 3209 422 3611 934 
Q 4013 1447 4013 2328 
Q 4013 3213 3611 3725 
Q 3209 4238 2522 4238 
z
M 2522 4750 
Q 3503 4750 4090 4092 
Q 4678 3434 4678 2328 
Q 4678 1225 4090 567 
Q 3503 -91 2522 -91 
Q 1538 -91 948 565 
Q 359 1222 359 2328 
Q 359 3434 948 4092 
Q 1538 4750 2522 4750 
z
" transform="scale(0.015625)"/>
      <path id="DejaVuSans-2d" d="M 313 2009 
L 1997 2009 
L 1997 1497 
L 313 1497 
L 313 2009 
z
" transform="scale(0.015625)"/>
      <path id="DejaVuSans-66" d="M 2375 4863 
L 2375 4384 
L 1825 4384 
Q 1516 4384 1395 4259 
Q 1275 4134 1275 3809 
L 1275 3500 
L 2222 3500 
L 2222 3053 
L 1275 3053 
L 1275 0 
L 697 0 
L 697 3053 
L 147 3053 
L 147 3500 
L 697 3500 
L 697 3744 
Q 697 4328 969 4595 
Q 1241 4863 1831 4863 
L 2375 4863 
z
" transform="scale(0.015625)"/>
      <path id="DejaVuSans-6c" d="M 603 4863 
L 1178 4863 
L 1178 0 
L 603 0 
L 603 4863 
z
" transform="scale(0.015625)"/>
      <path id="DejaVuSans-6f" d="M 1959 3097 
Q 1497 3097 1228 2736 
Q 959 2375 959 1747 
Q 959 1119 1226 758 
Q 1494 397 1959 397 
Q 2419 397 2687 759 
Q 2956 1122 2956 1747 
Q 2956 2369 2687 2733 
Q 2419 3097 1959 3097 
z
M 1959 3584 
Q 2709 3584 3137 3096 
Q 3566 2609 3566 1747 
Q 3566 888 3137 398 
Q 2709 -91 1959 -91 
Q 1206 -91 779 398 
Q 353 888 353 1747 
Q 353 2609 779 3096 
Q 1206 3584 1959 3584 
z
" transform="scale(0.015625)"/>
      <path id="DejaVuSans-77" d="M 269 3500 
L 844 3500 
L 1563 769 
L 2278 3500 
L 2956 3500 
L 3675 769 
L 4391 3500 
L 4966 3500 
L 4050 0 
L 3372 0 
L 2619 2869 
L 1863 0 
L 1184 0 
L 269 3500 
z
" transform="scale(0.015625)"/>
      <path id="DejaVuSans-61" d="M 2194 1759 
Q 1497 1759 1228 1600 
Q 959 1441 959 1056 
Q 959 750 1161 570 
Q 1363 391 1709 391 
Q 2188 391 2477 730 
Q 2766 1069 2766 1631 
L 2766 1759 
L 2194 1759 
z
M 3341 1997 
L 3341 0 
L 2766 0 
L 2766 531 
Q 2569 213 2275 61 
Q 1981 -91 1556 -91 
Q 1019 -91 701 211 
Q 384 513 384 1019 
Q 384 1609 779 1909 
Q 1175 2209 1959 2209 
L 2766 2209 
L 2766 2266 
Q 2766 2663 2505 2880 
Q 2244 3097 1772 3097 
Q 1472 3097 1187 3025 
Q 903 2953 641 2809 
L 641 3341 
Q 956 3463 1253 3523 
Q 1550 3584 1831 3584 
Q 2591 3584 2966 3190 
Q 3341 2797 3341 1997 
z
" transform="scale(0.015625)"/>
      <path id="DejaVuSans-6e" d="M 3513 2113 
L 3513 0 
L 2938 0 
L 2938 2094 
Q 2938 2591 2744 2837 
Q 2550 3084 2163 3084 
Q 1697 3084 1428 2787 
Q 1159 2491 1159 1978 
L 1159 0 
L 581 0 
L 581 3500 
L 1159 3500 
L 1159 2956 
Q 1366 3272 1645 3428 
Q 1925 3584 2291 3584 
Q 2894 3584 3203 3211 
Q 3513 2838 3513 2113 
z
" transform="scale(0.015625)"/>
      <path id="DejaVuSans-65" d="M 3597 1894 
L 3597 1613 
L 953 1613 
Q 991 1019 1311 708 
Q 1631 397 2203 397 
Q 2534 397 2845 478 
Q 3156 559 3463 722 
L 3463 178 
Q 3153 47 2828 -22 
Q 2503 -91 2169 -91 
Q 1331 -91 842 396 
Q 353 884 353 1716 
Q 353 2575 817 3079 
Q 1281 3584 2069 3584 
Q 2775 3584 3186 3129 
Q 3597 2675 3597 1894 
z
M 3022 2063 
Q 3016 2534 2758 2815 
Q 2500 3097 2075 3097 
Q 1594 3097 1305 2825 
Q 1016 2553 972 2059 
L 3022 2063 
z
" transform="scale(0.015625)"/>
      <path id="DejaVuSans-41" d="M 2188 4044 
L 1331 1722 
L 3047 1722 
L 2188 4044 
z
M 1831 4666 
L 2547 4666 
L 4325 0 
L 3669 0 
L 3244 1197 
L 1141 1197 
L 716 0 
L 50 0 
L 1831 4666 
z
" transform="scale(0.015625)"/>
      <path id="DejaVuSans-3a" d="M 750 794 
L 1409 794 
L 1409 0 
L 750 0 
L 750 794 
z
M 750 3309 
L 1409 3309 
L 1409 2516 
L 750 2516 
L 750 3309 
z
" transform="scale(0.015625)"/>
      <path id="DejaVuSans-72" d="M 2631 2963 
Q 2534 3019 2420 3045 
Q 2306 3072 2169 3072 
Q 1681 3072 1420 2755 
Q 1159 2438 1159 1844 
L 1159 0 
L 581 0 
L 581 3500 
L 1159 3500 
L 1159 2956 
Q 1341 3275 1631 3429 
Q 1922 3584 2338 3584 
Q 2397 3584 2469 3576 
Q 2541 3569 2628 3553 
L 2631 2963 
z
" transform="scale(0.015625)"/>
      <path id="DejaVuSans-79" d="M 2059 -325 
Q 1816 -950 1584 -1140 
Q 1353 -1331 966 -1331 
L 506 -1331 
L 506 -850 
L 844 -850 
Q 1081 -850 1212 -737 
Q 1344 -625 1503 -206 
L 1606 56 
L 191 3500 
L 800 3500 
L 1894 763 
L 2988 3500 
L 3597 3500 
L 2059 -325 
z
" transform="scale(0.015625)"/>
      <path id="DejaVuSans-2b" d="M 2944 4013 
L 2944 2272 
L 4684 2272 
L 4684 1741 
L 2944 1741 
L 2944 0 
L 2419 0 
L 2419 1741 
L 678 1741 
L 678 2272 
L 2419 2272 
L 2419 4013 
L 2944 4013 
z
" transform="scale(0.015625)"/>
      <path id="DejaVuSans-75" d="M 544 1381 
L 544 3500 
L 1119 3500 
L 1119 1403 
Q 1119 906 1312 657 
Q 1506 409 1894 409 
Q 2359 409 2629 706 
Q 2900 1003 2900 1516 
L 2900 3500 
L 3475 3500 
L 3475 0 
L 2900 0 
L 2900 538 
Q 2691 219 2414 64 
Q 2138 -91 1772 -91 
Q 1169 -91 856 284 
Q 544 659 544 1381 
z
M 1991 3584 
L 1991 3584 
z
" transform="scale(0.015625)"/>
      <path id="DejaVuSans-64" d="M 2906 2969 
L 2906 4863 
L 3481 4863 
L 3481 0 
L 2906 0 
L 2906 525 
Q 2725 213 2448 61 
Q 2172 -91 1784 -91 
Q 1150 -91 751 415 
Q 353 922 353 1747 
Q 353 2572 751 3078 
Q 1150 3584 1784 3584 
Q 2172 3584 2448 3432 
Q 2725 3281 2906 2969 
z
M 947 1747 
Q 947 1113 1208 752 
Q 1469 391 1925 391 
Q 2381 391 2643 752 
Q 2906 1113 2906 1747 
Q 2906 2381 2643 2742 
Q 2381 3103 1925 3103 
Q 1469 3103 1208 2742 
Q 947 2381 947 1747 
z
" transform="scale(0.015625)"/>
     </defs>
     <use xlink:href="#DejaVuSans-28"/>
     <use xlink:href="#DejaVuSans-4d" transform="translate(39.013672 0)"/>
     <use xlink:href="#DejaVuSans-4c" transform="translate(125.292969 0)"/>
     <use xlink:href="#DejaVuSans-49" transform="translate(181.005859 0)"/>
     <use xlink:href="#DejaVuSans-50" transform="translate(210.498047 0)"/>
     <use xlink:href="#DejaVuSans-20" transform="translate(270.800781 0)"/>
     <use xlink:href="#DejaVuSans-76" transform="translate(302.587891 0)"/>
     <use xlink:href="#DejaVuSans-73" transform="translate(361.767578 0)"/>
     <use xlink:href="#DejaVuSans-20" transform="translate(413.867188 0)"/>
     <use xlink:href="#DejaVuSans-4d" transform="translate(445.654297 0)"/>
     <use xlink:href="#DejaVuSans-53" transform="translate(531.933594 0)"/>
     <use xlink:href="#DejaVuSans-43" transform="translate(595.410156 0)"/>
     <use xlink:href="#DejaVuSans-29" transform="translate(665.234375 0)"/>
     <use xlink:href="#DejaVuSans-20" transform="translate(704.248047 0)"/>
     <use xlink:href="#DejaVuSans-2014" transform="translate(736.035156 0)"/>
     <use xlink:href="#DejaVuSans-20" transform="translate(836.035156 0)"/>
     <use xlink:href="#DejaVuSans-4f" transform="translate(867.822266 0)"/>
     <use xlink:href="#DejaVuSans-2d" transform="translate(949.283203 0)"/>
     <use xlink:href="#DejaVuSans-66" transform="translate(985.367188 0)"/>
     <use xlink:href="#DejaVuSans-6c" transform="translate(1020.572266 0)"/>
     <use xlink:href="#DejaVuSans-6f" transform="translate(1048.355469 0)"/>
     <use xlink:href="#DejaVuSans-77" transform="translate(1109.537109 0)"/>
     <use xlink:href="#DejaVuSans-20" transform="translate(1191.324219 0)"/>
     <use xlink:href="#DejaVuSans-2014" transform="translate(1223.111328 0)"/>
     <use xlink:href="#DejaVuSans-20" transform="translate(1323.111328 0)"/>
     <use xlink:href="#DejaVuSans-50" transform="translate(1354.898438 0)"/>
     <use xlink:href="#DejaVuSans-61" transform="translate(1410.701172 0)"/>
     <use xlink:href="#DejaVuSans-6e" transform="translate(1471.980469 0)"/>
     <use xlink:href="#DejaVuSans-65" transform="translate(1535.359375 0)"/>
     <use xlink:href="#DejaVuSans-6c" transform="translate(1596.882812 0)"/>
     <use xlink:href="#DejaVuSans-20" transform="translate(1624.666016 0)"/>
     <use xlink:href="#DejaVuSans-41" transform="translate(1656.453125 0)"/>
     <use xlink:href="#DejaVuSans-3a" transform="translate(1723.111328 0)"/>
     <use xlink:href="#DejaVuSans-20" transform="translate(1756.802734 0)"/>
     <use xlink:href="#DejaVuSans-6f" transform="translate(1788.589844 0)"/>
     <use xlink:href="#DejaVuSans-76" transform="translate(1849.771484 0)"/>
     <use xlink:href="#DejaVuSans-65" transform="translate(1908.951172 0)"/>
     <use xlink:href="#DejaVuSans-72" transform="translate(1970.474609 0)"/>
     <use xlink:href="#DejaVuSans-6c" transform="translate(2011.587891 0)"/>
     <use xlink:href="#DejaVuSans-61" transform="translate(2039.371094 0)"/>
     <use xlink:href="#DejaVuSans-79" transform="translate(2100.650391 0)"/>
     <use xlink:href="#DejaVuSans-20" transform="translate(2159.830078 0)"/>
     <use xlink:href="#DejaVuSans-2b" transform="translate(2191.617188 0)"/>
     <use xlink:href="#DejaVuSans-20" transform="translate(2275.40625 0)"/>
     <use xlink:href="#DejaVuSans-6e" transform="translate(2307.193359 0)"/>
     <use xlink:href="#DejaVuSans-75" transform="translate(2370.572266 0)"/>
     <use xlink:href="#DejaVuSans-6c" transform="translate(2433.951172 0)"/>
     <use xlink:href="#DejaVuSans-6c" transform="translate(2461.734375 0)"/>
     <use xlink:href="#DejaVuSans-20" transform="translate(2489.517578 0)"/>
     <use xlink:href="#DejaVuSans-62" transform="translate(2521.304688 0)"/>
     <use xlink:href="#DejaVuSans-61" transform="translate(2584.78125 0)"/>
     <use xlink:href="#DejaVuSans-6e" transform="translate(2646.060547 0)"/>
     <use xlink:href="#DejaVuSans-64" transform="translate(2709.439453 0)"/>
     <use xlink:href="#DejaVuSans-73" transform="translate(2772.916016 0)"/>
    </g>
   </g>
   <g id="legend_1">
    <g id="patch_7">
     <path d="M 79.2 83.990437 
L 99.2 83.990437 
L 99.2 76.990437 
L 79.2 76.990437 
z
" style="fill: #1f77b4; fill-opacity: 0.15"/>
    </g>
    <g id="text_14">
     <!-- MLIP→MSC null μ±σ -->
     <g transform="translate(107.2 83.990437) scale(0.1 -0.1)">
      <defs>
       <path id="DejaVuSans-2192" d="M 5050 2147 
L 5050 1866 
L 3822 638 
L 3447 1013 
L 4175 1741 
L 366 1741 
L 366 2272 
L 4175 2272 
L 3447 3000 
L 3822 3375 
L 5050 2147 
z
" transform="scale(0.015625)"/>
       <path id="DejaVuSans-3bc" d="M 544 -1331 
L 544 3500 
L 1119 3500 
L 1119 1325 
Q 1119 872 1334 640 
Q 1550 409 1972 409 
Q 2434 409 2667 671 
Q 2900 934 2900 1459 
L 2900 3500 
L 3475 3500 
L 3475 806 
Q 3475 619 3529 530 
Q 3584 441 3700 441 
Q 3728 441 3778 458 
Q 3828 475 3916 513 
L 3916 50 
Q 3788 -22 3673 -56 
Q 3559 -91 3450 -91 
Q 3234 -91 3106 31 
Q 2978 153 2931 403 
Q 2775 156 2548 32 
Q 2322 -91 2016 -91 
Q 1697 -91 1473 31 
Q 1250 153 1119 397 
L 1119 -1331 
L 544 -1331 
z
" transform="scale(0.015625)"/>
       <path id="DejaVuSans-b1" d="M 2944 4013 
L 2944 2803 
L 4684 2803 
L 4684 2272 
L 2944 2272 
L 2944 1063 
L 2419 1063 
L 2419 2272 
L 678 2272 
L 678 2803 
L 2419 2803 
L 2419 4013 
L 2944 4013 
z
M 678 531 
L 4684 531 
L 4684 0 
L 678 0 
L 678 531 
z
" transform="scale(0.015625)"/>
       <path id="DejaVuSans-3c3" d="M 1959 3044 
Q 1484 3044 1228 2700 
Q 959 2341 959 1747 
Q 959 1119 1226 758 
Q 1494 397 1959 397 
Q 2419 397 2687 759 
Q 2956 1122 2956 1747 
Q 2956 2319 2688 2700 
Q 2441 3044 1959 3044 
z
M 1959 3500 
L 3869 3500 
L 3869 2925 
L 3225 2925 
Q 3566 2438 3566 1747 
Q 3566 888 3138 400 
Q 2709 -91 1959 -91 
Q 1206 -91 781 400 
Q 353 888 353 1747 
Q 353 2613 781 3097 
Q 1134 3500 1959 3500 
z
" transform="scale(0.015625)"/>
      </defs>
      <use xlink:href="#DejaVuSans-4d"/>
      <use xlink:href="#DejaVuSans-4c" transform="translate(86.279297 0)"/>
      <use xlink:href="#DejaVuSans-49" transform="translate(141.992188 0)"/>
      <use xlink:href="#DejaVuSans-50" transform="translate(171.484375 0)"/>
      <use xlink:href="#DejaVuSans-2192" transform="translate(231.787109 0)"/>
      <use xlink:href="#DejaVuSans-4d" transform="translate(315.576172 0)"/>
      <use xlink:href="#DejaVuSans-53" transform="translate(401.855469 0)"/>
      <use xlink:href="#DejaVuSans-43" transform="translate(465.332031 0)"/>
      <use xlink:href="#DejaVuSans-20" transform="translate(535.15625 0)"/>
      <use xlink:href="#DejaVuSans-6e" transform="translate(566.943359 0)"/>
      <use xlink:href="#DejaVuSans-75" transform="translate(630.322266 0)"/>
      <use xlink:href="#DejaVuSans-6c" transform="translate(693.701172 0)"/>
      <use xlink:href="#DejaVuSans-6c" transform="translate(721.484375 0)"/>
      <use xlink:href="#DejaVuSans-20" transform="translate(749.267578 0)"/>
      <use xlink:href="#DejaVuSans-3bc" transform="translate(781.054688 0)"/>
      <use xlink:href="#DejaVuSans-b1" transform="translate(844.677734 0)"/>
      <use xlink:href="#DejaVuSans-3c3" transform="translate(928.466797 0)"/>
     </g>
    </g>
    <g id="patch_8">
     <path d="M 79.2 98.668563 
L 99.2 98.668563 
L 99.2 91.668563 
L 79.2 91.668563 
z
" style="fill: #ff7f0e; fill-opacity: 0.15"/>
    </g>
    <g id="text_15">
     <!-- MSC→MLIP null μ±σ -->
     <g transform="translate(107.2 98.668563) scale(0.1 -0.1)">
      <use xlink:href="#DejaVuSans-4d"/>
      <use xlink:href="#DejaVuSans-53" transform="translate(86.279297 0)"/>
      <use xlink:href="#DejaVuSans-43" transform="translate(149.755859 0)"/>
      <use xlink:href="#DejaVuSans-2192" transform="translate(219.580078 0)"/>
      <use xlink:href="#DejaVuSans-4d" transform="translate(303.369141 0)"/>
      <use xlink:href="#DejaVuSans-4c" transform="translate(389.648438 0)"/>
      <use xlink:href="#DejaVuSans-49" transform="translate(445.361328 0)"/>
      <use xlink:href="#DejaVuSans-50" transform="translate(474.853516 0)"/>
      <use xlink:href="#DejaVuSans-20" transform="translate(535.15625 0)"/>
      <use xlink:href="#DejaVuSans-6e" transform="translate(566.943359 0)"/>
      <use xlink:href="#DejaVuSans-75" transform="translate(630.322266 0)"/>
      <use xlink:href="#DejaVuSans-6c" transform="translate(693.701172 0)"/>
      <use xlink:href="#DejaVuSans-6c" transform="translate(721.484375 0)"/>
      <use xlink:href="#DejaVuSans-20" transform="translate(749.267578 0)"/>
      <use xlink:href="#DejaVuSans-3bc" transform="translate(781.054688 0)"/>
      <use xlink:href="#DejaVuSans-b1" transform="translate(844.677734 0)"/>
      <use xlink:href="#DejaVuSans-3c3" transform="translate(928.466797 0)"/>
     </g>
    </g>
    <g id="line2d_17">
     <path d="M 226.385938 80.490437 
L 236.385938 80.490437 
L 246.385938 80.490437 
" style="fill: none; stroke: #1f77b4; stroke-width: 2.2; stroke-linecap: square"/>
    </g>
    <g id="text_16">
     <!-- MLIP→MSC -->
     <g transform="translate(254.385938 83.990437) scale(0.1 -0.1)">
      <use xlink:href="#DejaVuSans-4d"/>
      <use xlink:href="#DejaVuSans-4c" transform="translate(86.279297 0)"/>
      <use xlink:href="#DejaVuSans-49" transform="translate(141.992188 0)"/>
      <use xlink:href="#DejaVuSans-50" transform="translate(171.484375 0)"/>
      <use xlink:href="#DejaVuSans-2192" transform="translate(231.787109 0)"/>
      <use xlink:href="#DejaVuSans-4d" transform="translate(315.576172 0)"/>
      <use xlink:href="#DejaVuSans-53" transform="translate(401.855469 0)"/>
      <use xlink:href="#DejaVuSans-43" transform="translate(465.332031 0)"/>
     </g>
    </g>
    <g id="line2d_18">
     <path d="M 226.385938 95.168563 
L 236.385938 95.168563 
L 246.385938 95.168563 
" style="fill: none; stroke: #ff7f0e; stroke-width: 2.2; stroke-linecap: square"/>
    </g>
    <g id="text_17">
     <!-- MSC→MLIP -->
     <g transform="translate(254.385938 98.668563) scale(0.1 -0.1)">
      <use xlink:href="#DejaVuSans-4d"/>
      <use xlink:href="#DejaVuSans-53" transform="translate(86.279297 0)"/>
      <use xlink:href="#DejaVuSans-43" transform="translate(149.755859 0)"/>
      <use xlink:href="#DejaVuSans-2192" transform="translate(219.580078 0)"/>
      <use xlink:href="#DejaVuSans-4d" transform="translate(303.369141 0)"/>
      <use xlink:href="#DejaVuSans-4c" transform="translate(389.648438 0)"/>
      <use xlink:href="#DejaVuSans-49" transform="translate(445.361328 0)"/>
      <use xlink:href="#DejaVuSans-50" transform="translate(474.853516 0)"/>
     </g>
    </g>
   </g>
  </g>
  <g id="axes_2">
   <g id="patch_9">
    <path d="M 70.2 353.106 
L 505.44 353.106 
L 505.44 237.276 
L 70.2 237.276 
z
" style="fill: #ffffff"/>
   </g>
   <g id="matplotlib.axis_3">
    <g id="xtick_7">
     <g id="line2d_19">
      <g>
       <use xlink:href="#mc8544b7128" x="87.985286" y="353.106" style="stroke: #000000; stroke-width: 0.8"/>
      </g>
     </g>
     <g id="text_18">
      <!-- −200 -->
      <g transform="translate(74.251693 367.704438) scale(0.1 -0.1)">
       <use xlink:href="#DejaVuSans-2212"/>
       <use xlink:href="#DejaVuSans-32" transform="translate(83.789062 0)"/>
       <use xlink:href="#DejaVuSans-30" transform="translate(147.412109 0)"/>
       <use xlink:href="#DejaVuSans-30" transform="translate(211.035156 0)"/>
      </g>
     </g>
    </g>
    <g id="xtick_8">
     <g id="line2d_20">
      <g>
       <use xlink:href="#mc8544b7128" x="167.91917" y="353.106" style="stroke: #000000; stroke-width: 0.8"/>
      </g>
     </g>
     <g id="text_19">
      <!-- 0 -->
      <g transform="translate(164.73792 367.704438) scale(0.1 -0.1)">
       <use xlink:href="#DejaVuSans-30"/>
      </g>
     </g>
    </g>
    <g id="xtick_9">
     <g id="line2d_21">
      <g>
       <use xlink:href="#mc8544b7128" x="247.853053" y="353.106" style="stroke: #000000; stroke-width: 0.8"/>
      </g>
     </g>
     <g id="text_20">
      <!-- 200 -->
      <g transform="translate(238.309303 367.704438) scale(0.1 -0.1)">
       <use xlink:href="#DejaVuSans-32"/>
       <use xlink:href="#DejaVuSans-30" transform="translate(63.623047 0)"/>
       <use xlink:href="#DejaVuSans-30" transform="translate(127.246094 0)"/>
      </g>
     </g>
    </g>
    <g id="xtick_10">
     <g id="line2d_22">
      <g>
       <use xlink:href="#mc8544b7128" x="327.786937" y="353.106" style="stroke: #000000; stroke-width: 0.8"/>
      </g>
     </g>
     <g id="text_21">
      <!-- 400 -->
      <g transform="translate(318.243187 367.704438) scale(0.1 -0.1)">
       <use xlink:href="#DejaVuSans-34"/>
       <use xlink:href="#DejaVuSans-30" transform="translate(63.623047 0)"/>
       <use xlink:href="#DejaVuSans-30" transform="translate(127.246094 0)"/>
      </g>
     </g>
    </g>
    <g id="xtick_11">
     <g id="line2d_23">
      <g>
       <use xlink:href="#mc8544b7128" x="407.720821" y="353.106" style="stroke: #000000; stroke-width: 0.8"/>
      </g>
     </g>
     <g id="text_22">
      <!-- 600 -->
      <g transform="translate(398.177071 367.704438) scale(0.1 -0.1)">
       <use xlink:href="#DejaVuSans-36"/>
       <use xlink:href="#DejaVuSans-30" transform="translate(63.623047 0)"/>
       <use xlink:href="#DejaVuSans-30" transform="translate(127.246094 0)"/>
      </g>
     </g>
    </g>
    <g id="xtick_12">
     <g id="line2d_24">
      <g>
       <use xlink:href="#mc8544b7128" x="487.654704" y="353.106" style="stroke: #000000; stroke-width: 0.8"/>
      </g>
     </g>
     <g id="text_23">
      <!-- 800 -->
      <g transform="translate(478.110954 367.704438) scale(0.1 -0.1)">
       <use xlink:href="#DejaVuSans-38"/>
       <use xlink:href="#DejaVuSans-30" transform="translate(63.623047 0)"/>
       <use xlink:href="#DejaVuSans-30" transform="translate(127.246094 0)"/>
      </g>
     </g>
    </g>
   </g>
   <g id="matplotlib.axis_4">
    <g id="ytick_6">
     <g id="line2d_25">
      <g>
       <use xlink:href="#m005ed7bb2b" x="70.2" y="342.687067" style="stroke: #000000; stroke-width: 0.8"/>
      </g>
     </g>
     <g id="text_24">
      <!-- −10 -->
      <g transform="translate(42.095313 346.486286) scale(0.1 -0.1)">
       <use xlink:href="#DejaVuSans-2212"/>
       <use xlink:href="#DejaVuSans-31" transform="translate(83.789062 0)"/>
       <use xlink:href="#DejaVuSans-30" transform="translate(147.412109 0)"/>
      </g>
     </g>
    </g>
    <g id="ytick_7">
     <g id="line2d_26">
      <g>
       <use xlink:href="#m005ed7bb2b" x="70.2" y="318.853255" style="stroke: #000000; stroke-width: 0.8"/>
      </g>
     </g>
     <g id="text_25">
      <!-- 0 -->
      <g transform="translate(56.8375 322.652474) scale(0.1 -0.1)">
       <use xlink:href="#DejaVuSans-30"/>
      </g>
     </g>
    </g>
    <g id="ytick_8">
     <g id="line2d_27">
      <g>
       <use xlink:href="#m005ed7bb2b" x="70.2" y="295.019443" style="stroke: #000000; stroke-width: 0.8"/>
      </g>
     </g>
     <g id="text_26">
      <!-- 10 -->
      <g transform="translate(50.475 298.818662) scale(0.1 -0.1)">
       <use xlink:href="#DejaVuSans-31"/>
       <use xlink:href="#DejaVuSans-30" transform="translate(63.623047 0)"/>
      </g>
     </g>
    </g>
    <g id="ytick_9">
     <g id="line2d_28">
      <g>
       <use xlink:href="#m005ed7bb2b" x="70.2" y="271.185631" style="stroke: #000000; stroke-width: 0.8"/>
      </g>
     </g>
     <g id="text_27">
      <!-- 20 -->
      <g transform="translate(50.475 274.98485) scale(0.1 -0.1)">
       <use xlink:href="#DejaVuSans-32"/>
       <use xlink:href="#DejaVuSans-30" transform="translate(63.623047 0)"/>
      </g>
     </g>
    </g>
    <g id="ytick_10">
     <g id="line2d_29">
      <g>
       <use xlink:href="#m005ed7bb2b" x="70.2" y="247.351819" style="stroke: #000000; stroke-width: 0.8"/>
      </g>
     </g>
     <g id="text_28">
      <!-- 30 -->
      <g transform="translate(50.475 251.151037) scale(0.1 -0.1)">
       <use xlink:href="#DejaVuSans-33"/>
       <use xlink:href="#DejaVuSans-30" transform="translate(63.623047 0)"/>
      </g>
     </g>
    </g>
    <g id="text_29">
     <!-- ΔΔLL (bits) -->
     <g transform="translate(36.015625 322.22225) rotate(-90) scale(0.1 -0.1)">
      <use xlink:href="#DejaVuSans-394"/>
      <use xlink:href="#DejaVuSans-394" transform="translate(68.408203 0)"/>
      <use xlink:href="#DejaVuSans-4c" transform="translate(136.816406 0)"/>
      <use xlink:href="#DejaVuSans-4c" transform="translate(192.529297 0)"/>
      <use xlink:href="#DejaVuSans-20" transform="translate(248.242188 0)"/>
      <use xlink:href="#DejaVuSans-28" transform="translate(280.029297 0)"/>
      <use xlink:href="#DejaVuSans-62" transform="translate(319.042969 0)"/>
      <use xlink:href="#DejaVuSans-69" transform="translate(382.519531 0)"/>
      <use xlink:href="#DejaVuSans-74" transform="translate(410.302734 0)"/>
      <use xlink:href="#DejaVuSans-73" transform="translate(449.511719 0)"/>
      <use xlink:href="#DejaVuSans-29" transform="translate(501.611328 0)"/>
     </g>
    </g>
   </g>
   <g id="line2d_30">
    <path d="M 167.91917 353.106 
L 167.91917 237.276 
" clip-path="url(#pfc6c557352)" style="fill: none; stroke-dasharray: 2.96,1.28; stroke-dashoffset: 0; stroke: #000000; stroke-width: 0.8"/>
   </g>
   <g id="line2d_31">
    <path d="M 70.2 318.853255 
L 505.44 318.853255 
" clip-path="url(#pfc6c557352)" style="fill: none; stroke-dasharray: 0.8,1.32; stroke-dashoffset: 0; stroke: #000000; stroke-width: 0.8"/>
   </g>
   <g id="line2d_32">
    <path d="M 89.983636 300.938236 
L 93.980327 301.150458 
L 97.977023 271.457633 
L 101.973713 327.700018 
L 105.97041 281.5504 
L 109.967106 312.090699 
L 113.963796 330.799542 
L 117.960493 278.546266 
L 121.957186 295.038655 
L 125.953882 296.329354 
L 129.950576 260.80441 
L 133.947269 284.092201 
L 137.943962 308.99628 
L 141.940659 290.015119 
L 145.937352 299.574374 
L 149.934045 296.482353 
L 153.93074 326.397699 
L 157.927434 333.43501 
L 161.924129 295.18677 
L 165.920823 292.607779 
L 169.917517 272.273386 
L 173.914211 307.223935 
L 177.910906 303.184046 
L 181.9076 285.272609 
L 185.904294 283.674996 
L 189.900988 283.239569 
L 193.897681 293.534986 
L 197.894377 279.484272 
L 201.891071 303.013164 
L 205.887764 287.832031 
L 209.884457 242.541 
L 213.881154 281.624749 
L 217.877847 285.235015 
L 221.874543 266.148516 
L 225.871234 288.199246 
L 229.86793 292.993551 
L 233.864626 250.125317 
L 237.861317 291.870909 
L 241.858013 307.529598 
L 245.854704 281.099859 
L 249.8514 335.044987 
L 253.848096 244.193188 
L 257.844787 256.759923 
L 261.841483 302.849279 
L 265.838179 304.455856 
L 269.83487 284.182798 
L 273.83156 265.384626 
L 277.828262 280.953328 
L 281.824953 288.901541 
L 285.821643 306.519412 
L 289.818345 292.057516 
L 293.815036 319.77655 
L 297.811726 325.885628 
L 301.808428 323.009101 
L 305.805119 326.405412 
L 309.801809 311.234755 
L 313.798511 319.868799 
L 317.795202 315.858152 
L 321.791892 309.859238 
L 325.788594 298.924819 
L 329.785285 347.841 
L 333.781975 321.181714 
L 337.778677 313.608642 
L 341.775368 310.508146 
L 345.772058 297.33575 
L 349.76876 308.522989 
L 353.765451 320.761371 
L 357.762141 300.812175 
L 361.758843 318.368661 
L 365.755534 330.548211 
L 369.752224 333.426253 
L 373.748914 298.814736 
L 377.745605 295.219349 
L 381.742319 329.091368 
L 385.739009 319.954134 
L 389.7357 329.762586 
L 393.73239 315.649736 
L 397.72908 314.339076 
L 401.725771 327.653735 
L 405.722485 321.92742 
L 409.719175 324.235519 
L 413.715866 323.605003 
L 417.712556 325.807411 
L 421.709246 336.262503 
L 425.705937 312.319822 
L 429.702627 313.388414 
L 433.699341 329.906037 
L 437.696032 315.633322 
L 441.692722 313.096418 
L 445.689412 325.573219 
L 449.686103 310.508598 
L 453.682793 308.877478 
L 457.679507 301.346063 
L 461.676198 300.415068 
L 465.672888 316.253946 
L 469.669578 317.865303 
L 473.666269 332.030154 
L 477.662959 319.402977 
L 481.659673 318.624835 
L 485.656364 328.019657 
" clip-path="url(#pfc6c557352)" style="fill: none; stroke: #d62728; stroke-width: 2.2; stroke-linecap: square"/>
   </g>
   <g id="line2d_33">
    <defs>
     <path id="me7a2e33ce8" d="M 0 1.25 
C 0.331504 1.25 0.649475 1.118292 0.883883 0.883883 
C 1.118292 0.649475 1.25 0.331504 1.25 0 
C 1.25 -0.331504 1.118292 -0.649475 0.883883 -0.883883 
C 0.649475 -1.118292 0.331504 -1.25 0 -1.25 
C -0.331504 -1.25 -0.649475 -1.118292 -0.883883 -0.883883 
C -1.118292 -0.649475 -1.25 -0.331504 -1.25 0 
C -1.25 0.331504 -1.118292 0.649475 -0.883883 0.883883 
C -0.649475 1.118292 -0.331504 1.25 0 1.25 
z
" style="stroke: #000000"/>
    </defs>
    <g clip-path="url(#pfc6c557352)">
     <use xlink:href="#me7a2e33ce8" x="89.983636" y="300.938236" style="stroke: #000000"/>
     <use xlink:href="#me7a2e33ce8" x="93.980327" y="301.150458" style="stroke: #000000"/>
     <use xlink:href="#me7a2e33ce8" x="97.977023" y="271.457633" style="stroke: #000000"/>
     <use xlink:href="#me7a2e33ce8" x="101.973713" y="327.700018" style="stroke: #000000"/>
     <use xlink:href="#me7a2e33ce8" x="105.97041" y="281.5504" style="stroke: #000000"/>
     <use xlink:href="#me7a2e33ce8" x="109.967106" y="312.090699" style="stroke: #000000"/>
     <use xlink:href="#me7a2e33ce8" x="113.963796" y="330.799542" style="stroke: #000000"/>
     <use xlink:href="#me7a2e33ce8" x="117.960493" y="278.546266" style="stroke: #000000"/>
     <use xlink:href="#me7a2e33ce8" x="121.957186" y="295.038655" style="stroke: #000000"/>
     <use xlink:href="#me7a2e33ce8" x="125.953882" y="296.329354" style="stroke: #000000"/>
     <use xlink:href="#me7a2e33ce8" x="133.947269" y="284.092201" style="stroke: #000000"/>
     <use xlink:href="#me7a2e33ce8" x="161.924129" y="295.18677" style="stroke: #000000"/>
     <use xlink:href="#me7a2e33ce8" x="165.920823" y="292.607779" style="stroke: #000000"/>
     <use xlink:href="#me7a2e33ce8" x="169.917517" y="272.273386" style="stroke: #000000"/>
     <use xlink:href="#me7a2e33ce8" x="173.914211" y="307.223935" style="stroke: #000000"/>
     <use xlink:href="#me7a2e33ce8" x="177.910906" y="303.184046" style="stroke: #000000"/>
     <use xlink:href="#me7a2e33ce8" x="189.900988" y="283.239569" style="stroke: #000000"/>
     <use xlink:href="#me7a2e33ce8" x="193.897681" y="293.534986" style="stroke: #000000"/>
     <use xlink:href="#me7a2e33ce8" x="201.891071" y="303.013164" style="stroke: #000000"/>
     <use xlink:href="#me7a2e33ce8" x="205.887764" y="287.832031" style="stroke: #000000"/>
     <use xlink:href="#me7a2e33ce8" x="209.884457" y="242.541" style="stroke: #000000"/>
     <use xlink:href="#me7a2e33ce8" x="229.86793" y="292.993551" style="stroke: #000000"/>
     <use xlink:href="#me7a2e33ce8" x="233.864626" y="250.125317" style="stroke: #000000"/>
     <use xlink:href="#me7a2e33ce8" x="253.848096" y="244.193188" style="stroke: #000000"/>
     <use xlink:href="#me7a2e33ce8" x="257.844787" y="256.759923" style="stroke: #000000"/>
     <use xlink:href="#me7a2e33ce8" x="277.828262" y="280.953328" style="stroke: #000000"/>
     <use xlink:href="#me7a2e33ce8" x="281.824953" y="288.901541" style="stroke: #000000"/>
     <use xlink:href="#me7a2e33ce8" x="297.811726" y="325.885628" style="stroke: #000000"/>
     <use xlink:href="#me7a2e33ce8" x="309.801809" y="311.234755" style="stroke: #000000"/>
     <use xlink:href="#me7a2e33ce8" x="325.788594" y="298.924819" style="stroke: #000000"/>
     <use xlink:href="#me7a2e33ce8" x="329.785285" y="347.841" style="stroke: #000000"/>
     <use xlink:href="#me7a2e33ce8" x="345.772058" y="297.33575" style="stroke: #000000"/>
     <use xlink:href="#me7a2e33ce8" x="349.76876" y="308.522989" style="stroke: #000000"/>
     <use xlink:href="#me7a2e33ce8" x="357.762141" y="300.812175" style="stroke: #000000"/>
     <use xlink:href="#me7a2e33ce8" x="373.748914" y="298.814736" style="stroke: #000000"/>
     <use xlink:href="#me7a2e33ce8" x="377.745605" y="295.219349" style="stroke: #000000"/>
     <use xlink:href="#me7a2e33ce8" x="421.709246" y="336.262503" style="stroke: #000000"/>
     <use xlink:href="#me7a2e33ce8" x="433.699341" y="329.906037" style="stroke: #000000"/>
     <use xlink:href="#me7a2e33ce8" x="457.679507" y="301.346063" style="stroke: #000000"/>
     <use xlink:href="#me7a2e33ce8" x="461.676198" y="300.415068" style="stroke: #000000"/>
     <use xlink:href="#me7a2e33ce8" x="473.666269" y="332.030154" style="stroke: #000000"/>
    </g>
   </g>
   <g id="patch_10">
    <path d="M 70.2 353.106 
L 70.2 237.276 
" style="fill: none; stroke: #000000; stroke-width: 0.8; stroke-linejoin: miter; stroke-linecap: square"/>
   </g>
   <g id="patch_11">
    <path d="M 505.44 353.106 
L 505.44 237.276 
" style="fill: none; stroke: #000000; stroke-width: 0.8; stroke-linejoin: miter; stroke-linecap: square"/>
   </g>
   <g id="patch_12">
    <path d="M 70.2 353.106 
L 505.44 353.106 
" style="fill: none; stroke: #000000; stroke-width: 0.8; stroke-linejoin: miter; stroke-linecap: square"/>
   </g>
   <g id="patch_13">
    <path d="M 70.2 237.276 
L 505.44 237.276 
" style="fill: none; stroke: #000000; stroke-width: 0.8; stroke-linejoin: miter; stroke-linecap: square"/>
   </g>
   <g id="text_30">
    <!-- Panel B: pair-diff with significance dots -->
    <g transform="translate(171.554063 231.276) scale(0.12 -0.12)">
     <defs>
      <path id="DejaVuSans-42" d="M 1259 2228 
L 1259 519 
L 2272 519 
Q 2781 519 3026 730 
Q 3272 941 3272 1375 
Q 3272 1813 3026 2020 
Q 2781 2228 2272 2228 
L 1259 2228 
z
M 1259 4147 
L 1259 2741 
L 2194 2741 
Q 2656 2741 2882 2914 
Q 3109 3088 3109 3444 
Q 3109 3797 2882 3972 
Q 2656 4147 2194 4147 
L 1259 4147 
z
M 628 4666 
L 2241 4666 
Q 2963 4666 3353 4366 
Q 3744 4066 3744 3513 
Q 3744 3084 3544 2831 
Q 3344 2578 2956 2516 
Q 3422 2416 3680 2098 
Q 3938 1781 3938 1306 
Q 3938 681 3513 340 
Q 3088 0 2303 0 
L 628 0 
L 628 4666 
z
" transform="scale(0.015625)"/>
      <path id="DejaVuSans-70" d="M 1159 525 
L 1159 -1331 
L 581 -1331 
L 581 3500 
L 1159 3500 
L 1159 2969 
Q 1341 3281 1617 3432 
Q 1894 3584 2278 3584 
Q 2916 3584 3314 3078 
Q 3713 2572 3713 1747 
Q 3713 922 3314 415 
Q 2916 -91 2278 -91 
Q 1894 -91 1617 61 
Q 1341 213 1159 525 
z
M 3116 1747 
Q 3116 2381 2855 2742 
Q 2594 3103 2138 3103 
Q 1681 3103 1420 2742 
Q 1159 2381 1159 1747 
Q 1159 1113 1420 752 
Q 1681 391 2138 391 
Q 2594 391 2855 752 
Q 3116 1113 3116 1747 
z
" transform="scale(0.015625)"/>
      <path id="DejaVuSans-68" d="M 3513 2113 
L 3513 0 
L 2938 0 
L 2938 2094 
Q 2938 2591 2744 2837 
Q 2550 3084 2163 3084 
Q 1697 3084 1428 2787 
Q 1159 2491 1159 1978 
L 1159 0 
L 581 0 
L 581 4863 
L 1159 4863 
L 1159 2956 
Q 1366 3272 1645 3428 
Q 1925 3584 2291 3584 
Q 2894 3584 3203 3211 
Q 3513 2838 3513 2113 
z
" transform="scale(0.015625)"/>
      <path id="DejaVuSans-67" d="M 2906 1791 
Q 2906 2416 2648 2759 
Q 2391 3103 1925 3103 
Q 1463 3103 1205 2759 
Q 947 2416 947 1791 
Q 947 1169 1205 825 
Q 1463 481 1925 481 
Q 2391 481 2648 825 
Q 2906 1169 2906 1791 
z
M 3481 434 
Q 3481 -459 3084 -895 
Q 2688 -1331 1869 -1331 
Q 1566 -1331 1297 -1286 
Q 1028 -1241 775 -1147 
L 775 -588 
Q 1028 -725 1275 -790 
Q 1522 -856 1778 -856 
Q 2344 -856 2625 -561 
Q 2906 -266 2906 331 
L 2906 616 
Q 2728 306 2450 153 
Q 2172 0 1784 0 
Q 1141 0 747 490 
Q 353 981 353 1791 
Q 353 2603 747 3093 
Q 1141 3584 1784 3584 
Q 2172 3584 2450 3431 
Q 2728 3278 2906 2969 
L 2906 3500 
L 3481 3500 
L 3481 434 
z
" transform="scale(0.015625)"/>
      <path id="DejaVuSans-63" d="M 3122 3366 
L 3122 2828 
Q 2878 2963 2633 3030 
Q 2388 3097 2138 3097 
Q 1578 3097 1268 2742 
Q 959 2388 959 1747 
Q 959 1106 1268 751 
Q 1578 397 2138 397 
Q 2388 397 2633 464 
Q 2878 531 3122 666 
L 3122 134 
Q 2881 22 2623 -34 
Q 2366 -91 2075 -91 
Q 1284 -91 818 406 
Q 353 903 353 1747 
Q 353 2603 823 3093 
Q 1294 3584 2113 3584 
Q 2378 3584 2631 3529 
Q 2884 3475 3122 3366 
z
" transform="scale(0.015625)"/>
     </defs>
     <use xlink:href="#DejaVuSans-50"/>
     <use xlink:href="#DejaVuSans-61" transform="translate(55.802734 0)"/>
     <use xlink:href="#DejaVuSans-6e" transform="translate(117.082031 0)"/>
     <use xlink:href="#DejaVuSans-65" transform="translate(180.460938 0)"/>
     <use xlink:href="#DejaVuSans-6c" transform="translate(241.984375 0)"/>
     <use xlink:href="#DejaVuSans-20" transform="translate(269.767578 0)"/>
     <use xlink:href="#DejaVuSans-42" transform="translate(301.554688 0)"/>
     <use xlink:href="#DejaVuSans-3a" transform="translate(370.158203 0)"/>
     <use xlink:href="#DejaVuSans-20" transform="translate(403.849609 0)"/>
     <use xlink:href="#DejaVuSans-70" transform="translate(435.636719 0)"/>
     <use xlink:href="#DejaVuSans-61" transform="translate(499.113281 0)"/>
     <use xlink:href="#DejaVuSans-69" transform="translate(560.392578 0)"/>
     <use xlink:href="#DejaVuSans-72" transform="translate(588.175781 0)"/>
     <use xlink:href="#DejaVuSans-2d" transform="translate(622.914062 0)"/>
     <use xlink:href="#DejaVuSans-64" transform="translate(658.998047 0)"/>
     <use xlink:href="#DejaVuSans-69" transform="translate(722.474609 0)"/>
     <use xlink:href="#DejaVuSans-66" transform="translate(750.257812 0)"/>
     <use xlink:href="#DejaVuSans-66" transform="translate(785.462891 0)"/>
     <use xlink:href="#DejaVuSans-20" transform="translate(820.667969 0)"/>
     <use xlink:href="#DejaVuSans-77" transform="translate(852.455078 0)"/>
     <use xlink:href="#DejaVuSans-69" transform="translate(934.242188 0)"/>
     <use xlink:href="#DejaVuSans-74" transform="translate(962.025391 0)"/>
     <use xlink:href="#DejaVuSans-68" transform="translate(1001.234375 0)"/>
     <use xlink:href="#DejaVuSans-20" transform="translate(1064.613281 0)"/>
     <use xlink:href="#DejaVuSans-73" transform="translate(1096.400391 0)"/>
     <use xlink:href="#DejaVuSans-69" transform="translate(1148.5 0)"/>
     <use xlink:href="#DejaVuSans-67" transform="translate(1176.283203 0)"/>
     <use xlink:href="#DejaVuSans-6e" transform="translate(1239.759766 0)"/>
     <use xlink:href="#DejaVuSans-69" transform="translate(1303.138672 0)"/>
     <use xlink:href="#DejaVuSans-66" transform="translate(1330.921875 0)"/>
     <use xlink:href="#DejaVuSans-69" transform="translate(1366.126953 0)"/>
     <use xlink:href="#DejaVuSans-63" transform="translate(1393.910156 0)"/>
     <use xlink:href="#DejaVuSans-61" transform="translate(1448.890625 0)"/>
     <use xlink:href="#DejaVuSans-6e" transform="translate(1510.169922 0)"/>
     <use xlink:href="#DejaVuSans-63" transform="translate(1573.548828 0)"/>
     <use xlink:href="#DejaVuSans-65" transform="translate(1628.529297 0)"/>
     <use xlink:href="#DejaVuSans-20" transform="translate(1690.052734 0)"/>
     <use xlink:href="#DejaVuSans-64" transform="translate(1721.839844 0)"/>
     <use xlink:href="#DejaVuSans-6f" transform="translate(1785.316406 0)"/>
     <use xlink:href="#DejaVuSans-74" transform="translate(1846.498047 0)"/>
     <use xlink:href="#DejaVuSans-73" transform="translate(1885.707031 0)"/>
    </g>
   </g>
   <g id="legend_2">
    <g id="line2d_34">
     <path d="M 79.2 250.374437 
L 89.2 250.374437 
L 99.2 250.374437 
" style="fill: none; stroke: #d62728; stroke-width: 2.2; stroke-linecap: square"/>
    </g>
    <g id="text_31">
     <!-- (A→B − B→A) -->
     <g transform="translate(107.2 253.874437) scale(0.1 -0.1)">
      <use xlink:href="#DejaVuSans-28"/>
      <use xlink:href="#DejaVuSans-41" transform="translate(39.013672 0)"/>
      <use xlink:href="#DejaVuSans-2192" transform="translate(107.421875 0)"/>
      <use xlink:href="#DejaVuSans-42" transform="translate(191.210938 0)"/>
      <use xlink:href="#DejaVuSans-20" transform="translate(259.814453 0)"/>
      <use xlink:href="#DejaVuSans-2212" transform="translate(291.601562 0)"/>
      <use xlink:href="#DejaVuSans-20" transform="translate(375.390625 0)"/>
      <use xlink:href="#DejaVuSans-42" transform="translate(407.177734 0)"/>
      <use xlink:href="#DejaVuSans-2192" transform="translate(475.78125 0)"/>
      <use xlink:href="#DejaVuSans-41" transform="translate(559.570312 0)"/>
      <use xlink:href="#DejaVuSans-29" transform="translate(627.978516 0)"/>
     </g>
    </g>
    <g id="line2d_35">
     <g>
      <use xlink:href="#me7a2e33ce8" x="89.2" y="265.052563" style="stroke: #000000"/>
     </g>
    </g>
    <g id="text_32">
     <!-- p&lt;0.05 (one-sided) -->
     <g transform="translate(107.2 268.552563) scale(0.1 -0.1)">
      <defs>
       <path id="DejaVuSans-3c" d="M 4684 3150 
L 1459 2003 
L 4684 863 
L 4684 294 
L 678 1747 
L 678 2266 
L 4684 3719 
L 4684 3150 
z
" transform="scale(0.015625)"/>
       <path id="DejaVuSans-2e" d="M 684 794 
L 1344 794 
L 1344 0 
L 684 0 
L 684 794 
z
" transform="scale(0.015625)"/>
       <path id="DejaVuSans-35" d="M 691 4666 
L 3169 4666 
L 3169 4134 
L 1269 4134 
L 1269 2991 
Q 1406 3038 1543 3061 
Q 1681 3084 1819 3084 
Q 2600 3084 3056 2656 
Q 3513 2228 3513 1497 
Q 3513 744 3044 326 
Q 2575 -91 1722 -91 
Q 1428 -91 1123 -41 
Q 819 9 494 109 
L 494 744 
Q 775 591 1075 516 
Q 1375 441 1709 441 
Q 2250 441 2565 725 
Q 2881 1009 2881 1497 
Q 2881 1984 2565 2268 
Q 2250 2553 1709 2553 
Q 1456 2553 1204 2497 
Q 953 2441 691 2322 
L 691 4666 
z
" transform="scale(0.015625)"/>
      </defs>
      <use xlink:href="#DejaVuSans-70"/>
      <use xlink:href="#DejaVuSans-3c" transform="translate(63.476562 0)"/>
      <use xlink:href="#DejaVuSans-30" transform="translate(147.265625 0)"/>
      <use xlink:href="#DejaVuSans-2e" transform="translate(210.888672 0)"/>
      <use xlink:href="#DejaVuSans-30" transform="translate(242.675781 0)"/>
      <use xlink:href="#DejaVuSans-35" transform="translate(306.298828 0)"/>
      <use xlink:href="#DejaVuSans-20" transform="translate(369.921875 0)"/>
      <use xlink:href="#DejaVuSans-28" transform="translate(401.708984 0)"/>
      <use xlink:href="#DejaVuSans-6f" transform="translate(440.722656 0)"/>
      <use xlink:href="#DejaVuSans-6e" transform="translate(501.904297 0)"/>
      <use xlink:href="#DejaVuSans-65" transform="translate(565.283203 0)"/>
      <use xlink:href="#DejaVuSans-2d" transform="translate(626.806641 0)"/>
      <use xlink:href="#DejaVuSans-73" transform="translate(662.890625 0)"/>
      <use xlink:href="#DejaVuSans-69" transform="translate(714.990234 0)"/>
      <use xlink:href="#DejaVuSans-64" transform="translate(742.773438 0)"/>
      <use xlink:href="#DejaVuSans-65" transform="translate(806.25 0)"/>
      <use xlink:href="#DejaVuSans-64" transform="translate(867.773438 0)"/>
      <use xlink:href="#DejaVuSans-29" transform="translate(931.25 0)"/>
     </g>
    </g>
   </g>
  </g>
  <g id="axes_3">
   <g id="patch_14">
    <path d="M 70.2 499.824 
L 505.44 499.824 
L 505.44 383.994 
L 70.2 383.994 
z
" style="fill: #ffffff"/>
   </g>
   <g id="matplotlib.axis_5">
    <g id="xtick_13">
     <g id="line2d_36">
      <g>
       <use xlink:href="#mc8544b7128" x="87.985286" y="499.824" style="stroke: #000000; stroke-width: 0.8"/>
      </g>
     </g>
     <g id="text_33">
      <!-- −200 -->
      <g transform="translate(74.251693 514.422438) scale(0.1 -0.1)">
       <use xlink:href="#DejaVuSans-2212"/>
       <use xlink:href="#DejaVuSans-32" transform="translate(83.789062 0)"/>
       <use xlink:href="#DejaVuSans-30" transform="translate(147.412109 0)"/>
       <use xlink:href="#DejaVuSans-30" transform="translate(211.035156 0)"/>
      </g>
     </g>
    </g>
    <g id="xtick_14">
     <g id="line2d_37">
      <g>
       <use xlink:href="#mc8544b7128" x="167.91917" y="499.824" style="stroke: #000000; stroke-width: 0.8"/>
      </g>
     </g>
     <g id="text_34">
      <!-- 0 -->
      <g transform="translate(164.73792 514.422438) scale(0.1 -0.1)">
       <use xlink:href="#DejaVuSans-30"/>
      </g>
     </g>
    </g>
    <g id="xtick_15">
     <g id="line2d_38">
      <g>
       <use xlink:href="#mc8544b7128" x="247.853053" y="499.824" style="stroke: #000000; stroke-width: 0.8"/>
      </g>
     </g>
     <g id="text_35">
      <!-- 200 -->
      <g transform="translate(238.309303 514.422438) scale(0.1 -0.1)">
       <use xlink:href="#DejaVuSans-32"/>
       <use xlink:href="#DejaVuSans-30" transform="translate(63.623047 0)"/>
       <use xlink:href="#DejaVuSans-30" transform="translate(127.246094 0)"/>
      </g>
     </g>
    </g>
    <g id="xtick_16">
     <g id="line2d_39">
      <g>
       <use xlink:href="#mc8544b7128" x="327.786937" y="499.824" style="stroke: #000000; stroke-width: 0.8"/>
      </g>
     </g>
     <g id="text_36">
      <!-- 400 -->
      <g transform="translate(318.243187 514.422438) scale(0.1 -0.1)">
       <use xlink:href="#DejaVuSans-34"/>
       <use xlink:href="#DejaVuSans-30" transform="translate(63.623047 0)"/>
       <use xlink:href="#DejaVuSans-30" transform="translate(127.246094 0)"/>
      </g>
     </g>
    </g>
    <g id="xtick_17">
     <g id="line2d_40">
      <g>
       <use xlink:href="#mc8544b7128" x="407.720821" y="499.824" style="stroke: #000000; stroke-width: 0.8"/>
      </g>
     </g>
     <g id="text_37">
      <!-- 600 -->
      <g transform="translate(398.177071 514.422438) scale(0.1 -0.1)">
       <use xlink:href="#DejaVuSans-36"/>
       <use xlink:href="#DejaVuSans-30" transform="translate(63.623047 0)"/>
       <use xlink:href="#DejaVuSans-30" transform="translate(127.246094 0)"/>
      </g>
     </g>
    </g>
    <g id="xtick_18">
     <g id="line2d_41">
      <g>
       <use xlink:href="#mc8544b7128" x="487.654704" y="499.824" style="stroke: #000000; stroke-width: 0.8"/>
      </g>
     </g>
     <g id="text_38">
      <!-- 800 -->
      <g transform="translate(478.110954 514.422438) scale(0.1 -0.1)">
       <use xlink:href="#DejaVuSans-38"/>
       <use xlink:href="#DejaVuSans-30" transform="translate(63.623047 0)"/>
       <use xlink:href="#DejaVuSans-30" transform="translate(127.246094 0)"/>
      </g>
     </g>
    </g>
    <g id="text_39">
     <!-- Time (ms) -->
     <g transform="translate(262.620781 528.100563) scale(0.1 -0.1)">
      <defs>
       <path id="DejaVuSans-54" d="M -19 4666 
L 3928 4666 
L 3928 4134 
L 2272 4134 
L 2272 0 
L 1638 0 
L 1638 4134 
L -19 4134 
L -19 4666 
z
" transform="scale(0.015625)"/>
       <path id="DejaVuSans-6d" d="M 3328 2828 
Q 3544 3216 3844 3400 
Q 4144 3584 4550 3584 
Q 5097 3584 5394 3201 
Q 5691 2819 5691 2113 
L 5691 0 
L 5113 0 
L 5113 2094 
Q 5113 2597 4934 2840 
Q 4756 3084 4391 3084 
Q 3944 3084 3684 2787 
Q 3425 2491 3425 1978 
L 3425 0 
L 2847 0 
L 2847 2094 
Q 2847 2600 2669 2842 
Q 2491 3084 2119 3084 
Q 1678 3084 1418 2786 
Q 1159 2488 1159 1978 
L 1159 0 
L 581 0 
L 581 3500 
L 1159 3500 
L 1159 2956 
Q 1356 3278 1631 3431 
Q 1906 3584 2284 3584 
Q 2666 3584 2933 3390 
Q 3200 3197 3328 2828 
z
" transform="scale(0.015625)"/>
      </defs>
      <use xlink:href="#DejaVuSans-54"/>
      <use xlink:href="#DejaVuSans-69" transform="translate(57.958984 0)"/>
      <use xlink:href="#DejaVuSans-6d" transform="translate(85.742188 0)"/>
      <use xlink:href="#DejaVuSans-65" transform="translate(183.154297 0)"/>
      <use xlink:href="#DejaVuSans-20" transform="translate(244.677734 0)"/>
      <use xlink:href="#DejaVuSans-28" transform="translate(276.464844 0)"/>
      <use xlink:href="#DejaVuSans-6d" transform="translate(315.478516 0)"/>
      <use xlink:href="#DejaVuSans-73" transform="translate(412.890625 0)"/>
      <use xlink:href="#DejaVuSans-29" transform="translate(464.990234 0)"/>
     </g>
    </g>
   </g>
   <g id="matplotlib.axis_6">
    <g id="ytick_11">
     <g id="line2d_42">
      <g>
       <use xlink:href="#m005ed7bb2b" x="70.2" y="486.421397" style="stroke: #000000; stroke-width: 0.8"/>
      </g>
     </g>
     <g id="text_40">
      <!-- 0 -->
      <g transform="translate(56.8375 490.220616) scale(0.1 -0.1)">
       <use xlink:href="#DejaVuSans-30"/>
      </g>
     </g>
    </g>
    <g id="ytick_12">
     <g id="line2d_43">
      <g>
       <use xlink:href="#m005ed7bb2b" x="70.2" y="456.258352" style="stroke: #000000; stroke-width: 0.8"/>
      </g>
     </g>
     <g id="text_41">
      <!-- 5 -->
      <g transform="translate(56.8375 460.05757) scale(0.1 -0.1)">
       <use xlink:href="#DejaVuSans-35"/>
      </g>
     </g>
    </g>
    <g id="ytick_13">
     <g id="line2d_44">
      <g>
       <use xlink:href="#m005ed7bb2b" x="70.2" y="426.095306" style="stroke: #000000; stroke-width: 0.8"/>
      </g>
     </g>
     <g id="text_42">
      <!-- 10 -->
      <g transform="translate(50.475 429.894525) scale(0.1 -0.1)">
       <use xlink:href="#DejaVuSans-31"/>
       <use xlink:href="#DejaVuSans-30" transform="translate(63.623047 0)"/>
      </g>
     </g>
    </g>
    <g id="ytick_14">
     <g id="line2d_45">
      <g>
       <use xlink:href="#m005ed7bb2b" x="70.2" y="395.932261" style="stroke: #000000; stroke-width: 0.8"/>
      </g>
     </g>
     <g id="text_43">
      <!-- 15 -->
      <g transform="translate(50.475 399.731479) scale(0.1 -0.1)">
       <use xlink:href="#DejaVuSans-31"/>
       <use xlink:href="#DejaVuSans-35" transform="translate(63.623047 0)"/>
      </g>
     </g>
    </g>
    <g id="text_44">
     <!-- Z (σ from null) -->
     <g transform="translate(44.395313 477.919938) rotate(-90) scale(0.1 -0.1)">
      <defs>
       <path id="DejaVuSans-5a" d="M 359 4666 
L 4025 4666 
L 4025 4184 
L 1075 531 
L 4097 531 
L 4097 0 
L 288 0 
L 288 481 
L 3238 4134 
L 359 4134 
L 359 4666 
z
" transform="scale(0.015625)"/>
      </defs>
      <use xlink:href="#DejaVuSans-5a"/>
      <use xlink:href="#DejaVuSans-20" transform="translate(68.505859 0)"/>
      <use xlink:href="#DejaVuSans-28" transform="translate(100.292969 0)"/>
      <use xlink:href="#DejaVuSans-3c3" transform="translate(139.306641 0)"/>
      <use xlink:href="#DejaVuSans-20" transform="translate(202.685547 0)"/>
      <use xlink:href="#DejaVuSans-66" transform="translate(234.472656 0)"/>
      <use xlink:href="#DejaVuSans-72" transform="translate(269.677734 0)"/>
      <use xlink:href="#DejaVuSans-6f" transform="translate(308.541016 0)"/>
      <use xlink:href="#DejaVuSans-6d" transform="translate(369.722656 0)"/>
      <use xlink:href="#DejaVuSans-20" transform="translate(467.134766 0)"/>
      <use xlink:href="#DejaVuSans-6e" transform="translate(498.921875 0)"/>
      <use xlink:href="#DejaVuSans-75" transform="translate(562.300781 0)"/>
      <use xlink:href="#DejaVuSans-6c" transform="translate(625.679688 0)"/>
      <use xlink:href="#DejaVuSans-6c" transform="translate(653.462891 0)"/>
      <use xlink:href="#DejaVuSans-29" transform="translate(681.246094 0)"/>
     </g>
    </g>
   </g>
   <g id="line2d_46">
    <path d="M 167.91917 499.824 
L 167.91917 383.994 
" clip-path="url(#p098315783b)" style="fill: none; stroke-dasharray: 2.96,1.28; stroke-dashoffset: 0; stroke: #000000; stroke-width: 0.8"/>
   </g>
   <g id="line2d_47">
    <path d="M 89.983636 467.914432 
L 93.980327 456.339779 
L 97.977023 430.535468 
L 101.973713 478.16708 
L 105.97041 445.992971 
L 109.967106 468.189757 
L 113.963796 484.680135 
L 117.960493 436.374953 
L 121.957186 462.939892 
L 125.953882 462.804748 
L 129.950576 410.947888 
L 133.947269 447.210027 
L 137.943962 457.769441 
L 141.940659 435.81394 
L 145.937352 452.57117 
L 149.934045 447.679428 
L 153.93074 467.192916 
L 157.927434 453.269868 
L 161.924129 460.704854 
L 165.920823 451.289787 
L 169.917517 425.387838 
L 173.914211 473.78173 
L 177.910906 466.981081 
L 181.9076 423.74104 
L 185.904294 417.681137 
L 189.900988 441.283728 
L 193.897681 453.53187 
L 197.894377 429.500861 
L 201.891071 465.642896 
L 205.887764 446.97875 
L 209.884457 389.259 
L 213.881154 426.960829 
L 217.877847 429.049551 
L 221.874543 401.341748 
L 225.871234 429.132878 
L 229.86793 451.535207 
L 233.864626 405.592107 
L 237.861317 430.736725 
L 241.858013 430.195405 
L 245.854704 420.262873 
L 249.8514 464.547214 
L 253.848096 405.054851 
L 257.844787 410.376622 
L 261.841483 422.779562 
L 265.838179 450.157337 
L 269.83487 393.346396 
L 273.83156 408.96224 
L 277.828262 439.135466 
L 281.824953 449.584438 
L 285.821643 451.218261 
L 289.818345 429.460638 
L 293.815036 457.357785 
L 297.811726 479.558542 
L 301.808428 468.79055 
L 305.805119 487.73073 
L 309.801809 472.970129 
L 313.798511 481.738123 
L 317.795202 483.706559 
L 321.791892 476.872167 
L 325.788594 465.316221 
L 329.785285 484.561364 
L 333.781975 484.741003 
L 337.778677 488.176914 
L 341.775368 478.192927 
L 345.772058 468.515232 
L 349.76876 471.861849 
L 353.765451 486.599081 
L 357.762141 462.750025 
L 361.758843 482.593669 
L 365.755534 489.961622 
L 369.752224 493.239494 
L 373.748914 468.629732 
L 377.745605 467.966263 
L 381.742319 491.362847 
L 385.739009 488.653091 
L 389.7357 494.559 
L 393.73239 476.477934 
L 397.72908 488.563155 
L 401.725771 490.530582 
L 405.722485 474.582911 
L 409.719175 483.124786 
L 413.715866 484.43929 
L 417.712556 483.143114 
L 421.709246 486.375689 
L 425.705937 482.234312 
L 429.702627 477.187626 
L 433.699341 487.527924 
L 437.696032 480.771195 
L 441.692722 481.252623 
L 445.689412 484.43306 
L 449.686103 474.747791 
L 453.682793 481.148236 
L 457.679507 472.633179 
L 461.676198 467.416577 
L 465.672888 486.466497 
L 469.669578 489.465389 
L 473.666269 488.342005 
L 477.662959 488.371012 
L 481.659673 490.014438 
L 485.656364 485.815361 
" clip-path="url(#p098315783b)" style="fill: none; stroke: #1f77b4; stroke-width: 2; stroke-linecap: square"/>
   </g>
   <g id="line2d_48">
    <path d="M 89.983636 487.276152 
L 93.980327 476.376112 
L 97.977023 485.469036 
L 101.973713 470.462242 
L 105.97041 486.657745 
L 109.967106 476.902353 
L 113.963796 470.356382 
L 117.960493 480.005969 
L 121.957186 488.357363 
L 125.953882 483.644704 
L 129.950576 471.954087 
L 133.947269 483.380253 
L 137.943962 466.284878 
L 141.940659 462.678948 
L 145.937352 473.130452 
L 149.934045 472.395574 
L 153.93074 458.927156 
L 157.927434 437.050692 
L 161.924129 487.594258 
L 165.920823 479.618936 
L 169.917517 478.81563 
L 173.914211 486.137518 
L 177.910906 483.826805 
L 181.9076 468.297359 
L 185.904294 454.406442 
L 189.900988 481.47882 
L 193.897681 483.509463 
L 197.894377 470.364185 
L 201.891071 482.803083 
L 205.887764 483.505106 
L 209.884457 479.426211 
L 213.881154 471.797251 
L 217.877847 467.319151 
L 221.874543 464.221562 
L 225.871234 467.890846 
L 229.86793 477.872348 
L 233.864626 478.076501 
L 237.861317 458.086866 
L 241.858013 444.313367 
L 245.854704 465.138962 
L 249.8514 451.88561 
L 253.848096 484.778328 
L 257.844787 477.062187 
L 261.841483 438.797508 
L 265.838179 467.493261 
L 269.83487 437.766177 
L 273.83156 461.403626 
L 277.828262 478.771702 
L 281.824953 479.002537 
L 285.821643 461.869499 
L 289.818345 456.754025 
L 293.815036 457.369379 
L 297.811726 472.694428 
L 301.808428 463.119987 
L 305.805119 479.726601 
L 309.801809 480.367371 
L 313.798511 480.386991 
L 317.795202 487.335582 
L 321.791892 485.58805 
L 325.788594 486.796776 
L 329.785285 454.420044 
L 333.781975 482.756557 
L 337.778677 493.873779 
L 341.775368 487.277628 
L 345.772058 489.444403 
L 349.76876 482.867326 
L 353.765451 484.445442 
L 357.762141 481.747547 
L 361.758843 483.460016 
L 365.755534 477.212466 
L 369.752224 477.212984 
L 373.748914 490.457938 
L 377.745605 493.359119 
L 381.742319 479.157076 
L 385.739009 486.832822 
L 389.7357 482.380834 
L 393.73239 481.365393 
L 397.72908 492.570487 
L 401.725771 480.698042 
L 405.722485 470.440588 
L 409.719175 476.671998 
L 413.715866 479.198354 
L 417.712556 476.303424 
L 421.709246 468.321487 
L 425.705937 489.527284 
L 429.702627 482.974223 
L 433.699341 474.498794 
L 437.696032 483.877594 
L 441.692722 487.906692 
L 445.689412 475.758529 
L 449.686103 484.360439 
L 453.682793 492.230236 
L 457.679507 492.972674 
L 461.676198 484.916322 
L 465.672888 488.642808 
L 469.669578 490.328371 
L 473.666269 472.926428 
L 477.662959 487.698923 
L 481.659673 489.807707 
L 485.656364 476.130576 
" clip-path="url(#p098315783b)" style="fill: none; stroke: #ff7f0e; stroke-width: 2; stroke-linecap: square"/>
   </g>
   <g id="patch_15">
    <path d="M 70.2 499.824 
L 70.2 383.994 
" style="fill: none; stroke: #000000; stroke-width: 0.8; stroke-linejoin: miter; stroke-linecap: square"/>
   </g>
   <g id="patch_16">
    <path d="M 505.44 499.824 
L 505.44 383.994 
" style="fill: none; stroke: #000000; stroke-width: 0.8; stroke-linejoin: miter; stroke-linecap: square"/>
   </g>
   <g id="patch_17">
    <path d="M 70.2 499.824 
L 505.44 499.824 
" style="fill: none; stroke: #000000; stroke-width: 0.8; stroke-linejoin: miter; stroke-linecap: square"/>
   </g>
   <g id="patch_18">
    <path d="M 70.2 383.994 
L 505.44 383.994 
" style="fill: none; stroke: #000000; stroke-width: 0.8; stroke-linejoin: miter; stroke-linecap: square"/>
   </g>
   <g id="text_45">
    <!-- Panel C: evidence strength vs null -->
    <g transform="translate(185.80125 377.994) scale(0.12 -0.12)">
     <use xlink:href="#DejaVuSans-50"/>
     <use xlink:href="#DejaVuSans-61" transform="translate(55.802734 0)"/>
     <use xlink:href="#DejaVuSans-6e" transform="translate(117.082031 0)"/>
     <use xlink:href="#DejaVuSans-65" transform="translate(180.460938 0)"/>
     <use xlink:href="#DejaVuSans-6c" transform="translate(241.984375 0)"/>
     <use xlink:href="#DejaVuSans-20" transform="translate(269.767578 0)"/>
     <use xlink:href="#DejaVuSans-43" transform="translate(301.554688 0)"/>
     <use xlink:href="#DejaVuSans-3a" transform="translate(371.378906 0)"/>
     <use xlink:href="#DejaVuSans-20" transform="translate(405.070312 0)"/>
     <use xlink:href="#DejaVuSans-65" transform="translate(436.857422 0)"/>
     <use xlink:href="#DejaVuSans-76" transform="translate(498.380859 0)"/>
     <use xlink:href="#DejaVuSans-69" transform="translate(557.560547 0)"/>
     <use xlink:href="#DejaVuSans-64" transform="translate(585.34375 0)"/>
     <use xlink:href="#DejaVuSans-65" transform="translate(648.820312 0)"/>
     <use xlink:href="#DejaVuSans-6e" transform="translate(710.34375 0)"/>
     <use xlink:href="#DejaVuSans-63" transform="translate(773.722656 0)"/>
     <use xlink:href="#DejaVuSans-65" transform="translate(828.703125 0)"/>
     <use xlink:href="#DejaVuSans-20" transform="translate(890.226562 0)"/>
     <use xlink:href="#DejaVuSans-73" transform="translate(922.013672 0)"/>
     <use xlink:href="#DejaVuSans-74" transform="translate(974.113281 0)"/>
     <use xlink:href="#DejaVuSans-72" transform="translate(1013.322266 0)"/>
     <use xlink:href="#DejaVuSans-65" transform="translate(1052.185547 0)"/>
     <use xlink:href="#DejaVuSans-6e" transform="translate(1113.708984 0)"/>
     <use xlink:href="#DejaVuSans-67" transform="translate(1177.087891 0)"/>
     <use xlink:href="#DejaVuSans-74" transform="translate(1240.564453 0)"/>
     <use xlink:href="#DejaVuSans-68" transform="translate(1279.773438 0)"/>
     <use xlink:href="#DejaVuSans-20" transform="translate(1343.152344 0)"/>
     <use xlink:href="#DejaVuSans-76" transform="translate(1374.939453 0)"/>
     <use xlink:href="#DejaVuSans-73" transform="translate(1434.119141 0)"/>
     <use xlink:href="#DejaVuSans-20" transform="translate(1486.21875 0)"/>
     <use xlink:href="#DejaVuSans-6e" transform="translate(1518.005859 0)"/>
     <use xlink:href="#DejaVuSans-75" transform="translate(1581.384766 0)"/>
     <use xlink:href="#DejaVuSans-6c" transform="translate(1644.763672 0)"/>
     <use xlink:href="#DejaVuSans-6c" transform="translate(1672.546875 0)"/>
    </g>
   </g>
   <g id="legend_3">
    <g id="line2d_49">
     <path d="M 79.2 397.092438 
L 89.2 397.092438 
L 99.2 397.092438 
" style="fill: none; stroke: #1f77b4; stroke-width: 2; stroke-linecap: square"/>
    </g>
    <g id="text_46">
     <!-- z(MLIP→MSC) -->
     <g transform="translate(107.2 400.592438) scale(0.1 -0.1)">
      <defs>
       <path id="DejaVuSans-7a" d="M 353 3500 
L 3084 3500 
L 3084 2975 
L 922 459 
L 3084 459 
L 3084 0 
L 275 0 
L 275 525 
L 2438 3041 
L 353 3041 
L 353 3500 
z
" transform="scale(0.015625)"/>
      </defs>
      <use xlink:href="#DejaVuSans-7a"/>
      <use xlink:href="#DejaVuSans-28" transform="translate(52.490234 0)"/>
      <use xlink:href="#DejaVuSans-4d" transform="translate(91.503906 0)"/>
      <use xlink:href="#DejaVuSans-4c" transform="translate(177.783203 0)"/>
      <use xlink:href="#DejaVuSans-49" transform="translate(233.496094 0)"/>
      <use xlink:href="#DejaVuSans-50" transform="translate(262.988281 0)"/>
      <use xlink:href="#DejaVuSans-2192" transform="translate(323.291016 0)"/>
      <use xlink:href="#DejaVuSans-4d" transform="translate(407.080078 0)"/>
      <use xlink:href="#DejaVuSans-53" transform="translate(493.359375 0)"/>
      <use xlink:href="#DejaVuSans-43" transform="translate(556.835938 0)"/>
      <use xlink:href="#DejaVuSans-29" transform="translate(626.660156 0)"/>
     </g>
    </g>
    <g id="line2d_50">
     <path d="M 79.2 411.770563 
L 89.2 411.770563 
L 99.2 411.770563 
" style="fill: none; stroke: #ff7f0e; stroke-width: 2; stroke-linecap: square"/>
    </g>
    <g id="text_47">
     <!-- z(MSC→MLIP) -->
     <g transform="translate(107.2 415.270563) scale(0.1 -0.1)">
      <use xlink:href="#DejaVuSans-7a"/>
      <use xlink:href="#DejaVuSans-28" transform="translate(52.490234 0)"/>
      <use xlink:href="#DejaVuSans-4d" transform="translate(91.503906 0)"/>
      <use xlink:href="#DejaVuSans-53" transform="translate(177.783203 0)"/>
      <use xlink:href="#DejaVuSans-43" transform="translate(241.259766 0)"/>
      <use xlink:href="#DejaVuSans-2192" transform="translate(311.083984 0)"/>
      <use xlink:href="#DejaVuSans-4d" transform="translate(394.873047 0)"/>
      <use xlink:href="#DejaVuSans-4c" transform="translate(481.152344 0)"/>
      <use xlink:href="#DejaVuSans-49" transform="translate(536.865234 0)"/>
      <use xlink:href="#DejaVuSans-50" transform="translate(566.357422 0)"/>
      <use xlink:href="#DejaVuSans-29" transform="translate(626.660156 0)"/>
     </g>
    </g>
   </g>
  </g>
 </g>
 <defs>
  <clipPath id="pb46158735c">
   <rect x="70.2" y="67.392" width="435.24" height="138.996"/>
  </clipPath>
  <clipPath id="pfc6c557352">
   <rect x="70.2" y="237.276" width="435.24" height="115.83"/>
  </clipPath>
  <clipPath id="p098315783b">
   <rect x="70.2" y="383.994" width="435.24" height="115.83"/>
  </clipPath>
 </defs>
</svg>
