<?xml version="1.0" encoding="utf-8" standalone="no"?>
<!DOCTYPE svg PUBLIC "-//W3C//DTD SVG 1.1//EN"
  "http://www.w3.org/Graphics/SVG/1.1/DTD/svg11.dtd">
<svg xmlns:xlink="http://www.w3.org/1999/xlink" width="561.6pt" height="561.6pt" viewBox="0 0 561.6 561.6" xmlns="http://www.w3.org/2000/svg" version="1.1">
 <metadata>
  <rdf:RDF xmlns:dc="http://purl.org/dc/elements/1.1/" xmlns:cc="http://creativecommons.org/ns#" xmlns:rdf="http://www.w3.org/1999/02/22-rdf-syntax-ns#">
   <cc:Work>
    <dc:type rdf:resource="http://purl.org/dc/dcmitype/StillImage"/>
    <dc:date>2025-12-08T16:00:24.221497</dc:date>
    <dc:format>image/svg+xml</dc:format>
    <dc:creator>
     <cc:Agent>
      <dc:title>Matplotlib v3.10.5, https://matplotlib.org/</dc:title>
     </cc:Agent>
    </dc:creator>
   </cc:Work>
  </rdf:RDF>
 </metadata>
 <defs>
  <style type="text/css">*{stroke-linejoin: round; stroke-linecap: butt}</style>
 </defs>
 <g id="figure_1">
  <g id="patch_1">
   <path d="M 0 561.6 
L 561.6 561.6 
L 561.6 0 
L 0 0 
z
" style="fill: #ffffff"/>
  </g>
  <g id="axes_1">
   <g id="patch_2">
    <path d="M 70.2 206.388 
L 505.44 206.388 
L 505.44 67.392 
L 70.2 67.392 
z
" style="fill: #ffffff"/>
   </g>
   <g id="FillBetweenPolyCollection_1">
    <defs>
     <path id="m85d46f51c9" d="M 89.983636 -431.309904 
L 89.983636 -389.600392 
L 93.980327 -388.779337 
L 97.977023 -389.817237 
L 101.973713 -388.587878 
L 105.97041 -388.463436 
L 109.967106 -389.918658 
L 113.963796 -389.681545 
L 117.960493 -388.959598 
L 121.957186 -388.944321 
L 125.953882 -389.520123 
L 129.950576 -387.228324 
L 133.947269 -388.806963 
L 137.943962 -387.346815 
L 141.940659 -388.438624 
L 145.937352 -387.820835 
L 149.934045 -387.820598 
L 153.93074 -388.09974 
L 157.927434 -388.821904 
L 161.924129 -389.100778 
L 165.920823 -386.092176 
L 169.917517 -390.397877 
L 173.914211 -389.947955 
L 177.910906 -389.948165 
L 181.9076 -388.861898 
L 185.904294 -387.64658 
L 189.900988 -390.271609 
L 193.897681 -388.59417 
L 197.894377 -387.429376 
L 201.891071 -389.680684 
L 205.887764 -390.300337 
L 209.884457 -389.9351 
L 213.881154 -388.035303 
L 217.877847 -387.212164 
L 221.874543 -390.117072 
L 225.871234 -388.29744 
L 229.86793 -390.752803 
L 233.864626 -388.732327 
L 237.861317 -387.529207 
L 241.858013 -387.463727 
L 245.854704 -387.833792 
L 249.8514 -388.313575 
L 253.848096 -387.572197 
L 257.844787 -390.466557 
L 261.841483 -388.390699 
L 265.838179 -388.123748 
L 269.83487 -389.336874 
L 273.83156 -388.151288 
L 277.828262 -389.51229 
L 281.824953 -389.298244 
L 285.821643 -389.505736 
L 289.818345 -390.38674 
L 293.815036 -386.85453 
L 297.811726 -389.930989 
L 301.808428 -390.809775 
L 305.805119 -389.019945 
L 309.801809 -388.838344 
L 313.798511 -387.849271 
L 317.795202 -389.30811 
L 321.791892 -389.179204 
L 325.788594 -387.047016 
L 329.785285 -389.570384 
L 333.781975 -388.585318 
L 337.778677 -389.870477 
L 341.775368 -387.782201 
L 345.772058 -386.876594 
L 349.76876 -389.239202 
L 353.765451 -388.63345 
L 357.762141 -387.965151 
L 361.758843 -387.143573 
L 365.755534 -390.853647 
L 369.752224 -388.510026 
L 373.748914 -390.496248 
L 377.745605 -389.094562 
L 381.742319 -389.997978 
L 385.739009 -389.259931 
L 389.7357 -388.323786 
L 393.73239 -387.273461 
L 397.72908 -388.884851 
L 401.725771 -388.12261 
L 405.722485 -388.441526 
L 409.719175 -388.091903 
L 413.715866 -388.205436 
L 417.712556 -388.599055 
L 421.709246 -389.551587 
L 425.705937 -387.18325 
L 429.702627 -390.230064 
L 433.699341 -386.533688 
L 437.696032 -389.689887 
L 441.692722 -390.561323 
L 445.689412 -388.939773 
L 449.686103 -389.410003 
L 453.682793 -386.475687 
L 457.679507 -388.737795 
L 461.676198 -387.647017 
L 465.672888 -386.187791 
L 469.669578 -388.959891 
L 473.666269 -387.1333 
L 477.662959 -389.318956 
L 481.659673 -388.144286 
L 485.656364 -387.252799 
L 485.656364 -428.382091 
L 485.656364 -428.382091 
L 481.659673 -429.963176 
L 477.662959 -430.785459 
L 473.666269 -427.434561 
L 469.669578 -429.78886 
L 465.672888 -429.862769 
L 461.676198 -431.548954 
L 457.679507 -430.106124 
L 453.682793 -430.275803 
L 449.686103 -431.846391 
L 445.689412 -432.278365 
L 441.692722 -432.098292 
L 437.696032 -431.097607 
L 433.699341 -430.213139 
L 429.702627 -430.453263 
L 425.705937 -428.731106 
L 421.709246 -430.573565 
L 417.712556 -430.005248 
L 413.715866 -431.98692 
L 409.719175 -429.578272 
L 405.722485 -431.467842 
L 401.725771 -431.917487 
L 397.72908 -430.036086 
L 393.73239 -430.132874 
L 389.7357 -429.613509 
L 385.739009 -431.706964 
L 381.742319 -429.276994 
L 377.745605 -429.468068 
L 373.748914 -430.658186 
L 369.752224 -430.599198 
L 365.755534 -433.39745 
L 361.758843 -431.197278 
L 357.762141 -429.900707 
L 353.765451 -429.407748 
L 349.76876 -428.989413 
L 345.772058 -428.538873 
L 341.775368 -434.376343 
L 337.778677 -433.936458 
L 333.781975 -430.753685 
L 329.785285 -431.129742 
L 325.788594 -429.318283 
L 321.791892 -430.323612 
L 317.795202 -431.275198 
L 313.798511 -430.513183 
L 309.801809 -429.123046 
L 305.805119 -432.053294 
L 301.808428 -433.116066 
L 297.811726 -431.649666 
L 293.815036 -428.632925 
L 289.818345 -431.946206 
L 285.821643 -434.175508 
L 281.824953 -431.926857 
L 277.828262 -432.954397 
L 273.83156 -431.311112 
L 269.83487 -430.883086 
L 265.838179 -431.879265 
L 261.841483 -428.682861 
L 257.844787 -432.722262 
L 253.848096 -432.847848 
L 249.8514 -429.930522 
L 245.854704 -428.60949 
L 241.858013 -430.268106 
L 237.861317 -432.363543 
L 233.864626 -430.438067 
L 229.86793 -433.184681 
L 225.871234 -429.912359 
L 221.874543 -432.570503 
L 217.877847 -430.383288 
L 213.881154 -429.458289 
L 209.884457 -429.7827 
L 205.887764 -432.40407 
L 201.891071 -433.631983 
L 197.894377 -429.976787 
L 193.897681 -431.149348 
L 189.900988 -431.574996 
L 185.904294 -429.084557 
L 181.9076 -429.027237 
L 177.910906 -432.33341 
L 173.914211 -431.877211 
L 169.917517 -432.636692 
L 165.920823 -428.4837 
L 161.924129 -432.470725 
L 157.927434 -431.806813 
L 153.93074 -428.246903 
L 149.934045 -430.497363 
L 145.937352 -430.599573 
L 141.940659 -430.573328 
L 137.943962 -433.686069 
L 133.947269 -430.009936 
L 129.950576 -430.601074 
L 125.953882 -431.363369 
L 121.957186 -431.041775 
L 117.960493 -431.711031 
L 113.963796 -432.335872 
L 109.967106 -432.023604 
L 105.97041 -431.293356 
L 101.973713 -431.861592 
L 97.977023 -432.004976 
L 93.980327 -432.923348 
L 89.983636 -431.309904 
z
"/>
    </defs>
    <g clip-path="url(#pdfdfa31930)">
     <use xlink:href="#m85d46f51c9" x="0" y="561.6" style="fill: #1f77b4; fill-opacity: 0.15"/>
    </g>
   </g>
   <g id="FillBetweenPolyCollection_2">
    <defs>
     <path id="me4933b0f49" d="M 89.983636 -434.081375 
L 89.983636 -389.955403 
L 93.980327 -387.972275 
L 97.977023 -388.304195 
L 101.973713 -388.833433 
L 105.97041 -388.312702 
L 109.967106 -388.094763 
L 113.963796 -386.971272 
L 117.960493 -390.340449 
L 121.957186 -388.235292 
L 125.953882 -389.116921 
L 129.950576 -389.397363 
L 133.947269 -387.233777 
L 137.943962 -387.147002 
L 141.940659 -388.231405 
L 145.937352 -388.140925 
L 149.934045 -388.016715 
L 153.93074 -388.065765 
L 157.927434 -389.600772 
L 161.924129 -388.486677 
L 165.920823 -388.006862 
L 169.917517 -389.063319 
L 173.914211 -390.135605 
L 177.910906 -388.888031 
L 181.9076 -387.461431 
L 185.904294 -388.507901 
L 189.900988 -386.956382 
L 193.897681 -390.557082 
L 197.894377 -389.182839 
L 201.891071 -387.439422 
L 205.887764 -388.643463 
L 209.884457 -389.023356 
L 213.881154 -388.787789 
L 217.877847 -388.114397 
L 221.874543 -388.48932 
L 225.871234 -387.354966 
L 229.86793 -388.669205 
L 233.864626 -390.585602 
L 237.861317 -388.80814 
L 241.858013 -389.66206 
L 245.854704 -388.736804 
L 249.8514 -386.580694 
L 253.848096 -389.959145 
L 257.844787 -385.550835 
L 261.841483 -387.535364 
L 265.838179 -389.645982 
L 269.83487 -390.002308 
L 273.83156 -387.761174 
L 277.828262 -388.970868 
L 281.824953 -388.624349 
L 285.821643 -387.48708 
L 289.818345 -387.932799 
L 293.815036 -386.337145 
L 297.811726 -389.616765 
L 301.808428 -387.624995 
L 305.805119 -388.382438 
L 309.801809 -387.553126 
L 313.798511 -389.367026 
L 317.795202 -389.572173 
L 321.791892 -388.194513 
L 325.788594 -387.510396 
L 329.785285 -386.374748 
L 333.781975 -390.002053 
L 337.778677 -388.905267 
L 341.775368 -388.715439 
L 345.772058 -387.492146 
L 349.76876 -388.307088 
L 353.765451 -389.741309 
L 357.762141 -388.75213 
L 361.758843 -388.526212 
L 365.755534 -388.588941 
L 369.752224 -390.163799 
L 373.748914 -388.570192 
L 377.745605 -388.594382 
L 381.742319 -388.115196 
L 385.739009 -387.851251 
L 389.7357 -385.920884 
L 393.73239 -387.531628 
L 397.72908 -386.291424 
L 401.725771 -391.384439 
L 405.722485 -388.071005 
L 409.719175 -386.2767 
L 413.715866 -388.617954 
L 417.712556 -387.4535 
L 421.709246 -389.12142 
L 425.705937 -389.128875 
L 429.702627 -388.688529 
L 433.699341 -388.961128 
L 437.696032 -388.289646 
L 441.692722 -387.617367 
L 445.689412 -389.040807 
L 449.686103 -388.82156 
L 453.682793 -389.067839 
L 457.679507 -391.454139 
L 461.676198 -387.534363 
L 465.672888 -388.158826 
L 469.669578 -389.795235 
L 473.666269 -387.631492 
L 477.662959 -389.729032 
L 481.659673 -388.578711 
L 485.656364 -389.390259 
L 485.656364 -430.279316 
L 485.656364 -430.279316 
L 481.659673 -432.108892 
L 477.662959 -431.394008 
L 473.666269 -429.950093 
L 469.669578 -432.792112 
L 465.672888 -428.407849 
L 461.676198 -431.244817 
L 457.679507 -433.678446 
L 453.682793 -429.3492 
L 449.686103 -428.231978 
L 445.689412 -429.701698 
L 441.692722 -431.363056 
L 437.696032 -431.987536 
L 433.699341 -434.607856 
L 429.702627 -432.557238 
L 425.705937 -431.861579 
L 421.709246 -432.161262 
L 417.712556 -429.979071 
L 413.715866 -431.191156 
L 409.719175 -430.824314 
L 405.722485 -429.285128 
L 401.725771 -431.437131 
L 397.72908 -431.989502 
L 393.73239 -429.522235 
L 389.7357 -429.275857 
L 385.739009 -429.852271 
L 381.742319 -431.070384 
L 377.745605 -430.432624 
L 373.748914 -430.30748 
L 369.752224 -432.655689 
L 365.755534 -430.9519 
L 361.758843 -429.972499 
L 357.762141 -431.098531 
L 353.765451 -433.220804 
L 349.76876 -434.000181 
L 345.772058 -430.458922 
L 341.775368 -430.039234 
L 337.778677 -429.551134 
L 333.781975 -432.279471 
L 329.785285 -430.683484 
L 325.788594 -428.954444 
L 321.791892 -432.892727 
L 317.795202 -431.514885 
L 313.798511 -432.651636 
L 309.801809 -429.788943 
L 305.805119 -429.443908 
L 301.808428 -430.738082 
L 297.811726 -432.084237 
L 293.815036 -429.039459 
L 289.818345 -432.723506 
L 285.821643 -431.123127 
L 281.824953 -431.066522 
L 277.828262 -431.345134 
L 273.83156 -430.910886 
L 269.83487 -431.87963 
L 265.838179 -432.700255 
L 261.841483 -432.101292 
L 257.844787 -428.935665 
L 253.848096 -431.583555 
L 249.8514 -429.312146 
L 245.854704 -430.80589 
L 241.858013 -432.193542 
L 237.861317 -430.498286 
L 233.864626 -433.550975 
L 229.86793 -430.852041 
L 225.871234 -430.994293 
L 221.874543 -431.537693 
L 217.877847 -429.444663 
L 213.881154 -432.081512 
L 209.884457 -433.915566 
L 205.887764 -430.753274 
L 201.891071 -429.743401 
L 197.894377 -432.440003 
L 193.897681 -430.301162 
L 189.900988 -432.064093 
L 185.904294 -430.200541 
L 181.9076 -429.542914 
L 177.910906 -431.176726 
L 173.914211 -429.701213 
L 169.917517 -431.329375 
L 165.920823 -431.679247 
L 161.924129 -431.966284 
L 157.927434 -433.628455 
L 153.93074 -431.571612 
L 149.934045 -432.927884 
L 145.937352 -431.517256 
L 141.940659 -429.476045 
L 137.943962 -428.733346 
L 133.947269 -430.784824 
L 129.950576 -433.49924 
L 125.953882 -432.305927 
L 121.957186 -429.262827 
L 117.960493 -431.865987 
L 113.963796 -433.881866 
L 109.967106 -429.960103 
L 105.97041 -431.944642 
L 101.973713 -432.174698 
L 97.977023 -431.563118 
L 93.980327 -429.857004 
L 89.983636 -434.081375 
z
"/>
    </defs>
    <g clip-path="url(#pdfdfa31930)">
     <use xlink:href="#me4933b0f49" x="0" y="561.6" style="fill: #ff7f0e; fill-opacity: 0.15"/>
    </g>
   </g>
   <g id="matplotlib.axis_1">
    <g id="xtick_1">
     <g id="line2d_1">
      <defs>
       <path id="ma1af1ce598" d="M 0 0 
L 0 3.5 
" style="stroke: #000000; stroke-width: 0.8"/>
      </defs>
      <g>
       <use xlink:href="#ma1af1ce598" x="87.985286" y="206.388" style="stroke: #000000; stroke-width: 0.8"/>
      </g>
     </g>
     <g id="text_1">
      <!-- −200 -->
      <g transform="translate(74.251693 220.986437) scale(0.1 -0.1)">
       <defs>
        <path id="DejaVuSans-2212" d="M 678 2272 
L 4684 2272 
L 4684 1741 
L 678 1741 
L 678 2272 
z
" transform="scale(0.015625)"/>
        <path id="DejaVuSans-32" d="M 1228 531 
L 3431 531 
L 3431 0 
L 469 0 
L 469 531 
Q 828 903 1448 1529 
Q 2069 2156 2228 2338 
Q 2531 2678 2651 2914 
Q 2772 3150 2772 3378 
Q 2772 3750 2511 3984 
Q 2250 4219 1831 4219 
Q 1534 4219 1204 4116 
Q 875 4013 500 3803 
L 500 4441 
Q 881 4594 1212 4672 
Q 1544 4750 1819 4750 
Q 2544 4750 2975 4387 
Q 3406 4025 3406 3419 
Q 3406 3131 3298 2873 
Q 3191 2616 2906 2266 
Q 2828 2175 2409 1742 
Q 1991 1309 1228 531 
z
" transform="scale(0.015625)"/>
        <path id="DejaVuSans-30" d="M 2034 4250 
Q 1547 4250 1301 3770 
Q 1056 3291 1056 2328 
Q 1056 1369 1301 889 
Q 1547 409 2034 409 
Q 2525 409 2770 889 
Q 3016 1369 3016 2328 
Q 3016 3291 2770 3770 
Q 2525 4250 2034 4250 
z
M 2034 4750 
Q 2819 4750 3233 4129 
Q 3647 3509 3647 2328 
Q 3647 1150 3233 529 
Q 2819 -91 2034 -91 
Q 1250 -91 836 529 
Q 422 1150 422 2328 
Q 422 3509 836 4129 
Q 1250 4750 2034 4750 
z
" transform="scale(0.015625)"/>
       </defs>
       <use xlink:href="#DejaVuSans-2212"/>
       <use xlink:href="#DejaVuSans-32" transform="translate(83.789062 0)"/>
       <use xlink:href="#DejaVuSans-30" transform="translate(147.412109 0)"/>
       <use xlink:href="#DejaVuSans-30" transform="translate(211.035156 0)"/>
      </g>
     </g>
    </g>
    <g id="xtick_2">
     <g id="line2d_2">
      <g>
       <use xlink:href="#ma1af1ce598" x="167.91917" y="206.388" style="stroke: #000000; stroke-width: 0.8"/>
      </g>
     </g>
     <g id="text_2">
      <!-- 0 -->
      <g transform="translate(164.73792 220.986437) scale(0.1 -0.1)">
       <use xlink:href="#DejaVuSans-30"/>
      </g>
     </g>
    </g>
    <g id="xtick_3">
     <g id="line2d_3">
      <g>
       <use xlink:href="#ma1af1ce598" x="247.853053" y="206.388" style="stroke: #000000; stroke-width: 0.8"/>
      </g>
     </g>
     <g id="text_3">
      <!-- 200 -->
      <g transform="translate(238.309303 220.986437) scale(0.1 -0.1)">
       <use xlink:href="#DejaVuSans-32"/>
       <use xlink:href="#DejaVuSans-30" transform="translate(63.623047 0)"/>
       <use xlink:href="#DejaVuSans-30" transform="translate(127.246094 0)"/>
      </g>
     </g>
    </g>
    <g id="xtick_4">
     <g id="line2d_4">
      <g>
       <use xlink:href="#ma1af1ce598" x="327.786937" y="206.388" style="stroke: #000000; stroke-width: 0.8"/>
      </g>
     </g>
     <g id="text_4">
      <!-- 400 -->
      <g transform="translate(318.243187 220.986437) scale(0.1 -0.1)">
       <defs>
        <path id="DejaVuSans-34" d="M 2419 4116 
L 825 1625 
L 2419 1625 
L 2419 4116 
z
M 2253 4666 
L 3047 4666 
L 3047 1625 
L 3713 1625 
L 3713 1100 
L 3047 1100 
L 3047 0 
L 2419 0 
L 2419 1100 
L 313 1100 
L 313 1709 
L 2253 4666 
z
" transform="scale(0.015625)"/>
       </defs>
       <use xlink:href="#DejaVuSans-34"/>
       <use xlink:href="#DejaVuSans-30" transform="translate(63.623047 0)"/>
       <use xlink:href="#DejaVuSans-30" transform="translate(127.246094 0)"/>
      </g>
     </g>
    </g>
    <g id="xtick_5">
     <g id="line2d_5">
      <g>
       <use xlink:href="#ma1af1ce598" x="407.720821" y="206.388" style="stroke: #000000; stroke-width: 0.8"/>
      </g>
     </g>
     <g id="text_5">
      <!-- 600 -->
      <g transform="translate(398.177071 220.986437) scale(0.1 -0.1)">
       <defs>
        <path id="DejaVuSans-36" d="M 2113 2584 
Q 1688 2584 1439 2293 
Q 1191 2003 1191 1497 
Q 1191 994 1439 701 
Q 1688 409 2113 409 
Q 2538 409 2786 701 
Q 3034 994 3034 1497 
Q 3034 2003 2786 2293 
Q 2538 2584 2113 2584 
z
M 3366 4563 
L 3366 3988 
Q 3128 4100 2886 4159 
Q 2644 4219 2406 4219 
Q 1781 4219 1451 3797 
Q 1122 3375 1075 2522 
Q 1259 2794 1537 2939 
Q 1816 3084 2150 3084 
Q 2853 3084 3261 2657 
Q 3669 2231 3669 1497 
Q 3669 778 3244 343 
Q 2819 -91 2113 -91 
Q 1303 -91 875 529 
Q 447 1150 447 2328 
Q 447 3434 972 4092 
Q 1497 4750 2381 4750 
Q 2619 4750 2861 4703 
Q 3103 4656 3366 4563 
z
" transform="scale(0.015625)"/>
       </defs>
       <use xlink:href="#DejaVuSans-36"/>
       <use xlink:href="#DejaVuSans-30" transform="translate(63.623047 0)"/>
       <use xlink:href="#DejaVuSans-30" transform="translate(127.246094 0)"/>
      </g>
     </g>
    </g>
    <g id="xtick_6">
     <g id="line2d_6">
      <g>
       <use xlink:href="#ma1af1ce598" x="487.654704" y="206.388" style="stroke: #000000; stroke-width: 0.8"/>
      </g>
     </g>
     <g id="text_6">
      <!-- 800 -->
      <g transform="translate(478.110954 220.986437) scale(0.1 -0.1)">
       <defs>
        <path id="DejaVuSans-38" d="M 2034 2216 
Q 1584 2216 1326 1975 
Q 1069 1734 1069 1313 
Q 1069 891 1326 650 
Q 1584 409 2034 409 
Q 2484 409 2743 651 
Q 3003 894 3003 1313 
Q 3003 1734 2745 1975 
Q 2488 2216 2034 2216 
z
M 1403 2484 
Q 997 2584 770 2862 
Q 544 3141 544 3541 
Q 544 4100 942 4425 
Q 1341 4750 2034 4750 
Q 2731 4750 3128 4425 
Q 3525 4100 3525 3541 
Q 3525 3141 3298 2862 
Q 3072 2584 2669 2484 
Q 3125 2378 3379 2068 
Q 3634 1759 3634 1313 
Q 3634 634 3220 271 
Q 2806 -91 2034 -91 
Q 1263 -91 848 271 
Q 434 634 434 1313 
Q 434 1759 690 2068 
Q 947 2378 1403 2484 
z
M 1172 3481 
Q 1172 3119 1398 2916 
Q 1625 2713 2034 2713 
Q 2441 2713 2670 2916 
Q 2900 3119 2900 3481 
Q 2900 3844 2670 4047 
Q 2441 4250 2034 4250 
Q 1625 4250 1398 4047 
Q 1172 3844 1172 3481 
z
" transform="scale(0.015625)"/>
       </defs>
       <use xlink:href="#DejaVuSans-38"/>
       <use xlink:href="#DejaVuSans-30" transform="translate(63.623047 0)"/>
       <use xlink:href="#DejaVuSans-30" transform="translate(127.246094 0)"/>
      </g>
     </g>
    </g>
   </g>
   <g id="matplotlib.axis_2">
    <g id="ytick_1">
     <g id="line2d_7">
      <defs>
       <path id="mfce26cbdf0" d="M 0 0 
L -3.5 0 
" style="stroke: #000000; stroke-width: 0.8"/>
      </defs>
      <g>
       <use xlink:href="#mfce26cbdf0" x="70.2" y="196.671922" style="stroke: #000000; stroke-width: 0.8"/>
      </g>
     </g>
     <g id="text_7">
      <!-- 10 -->
      <g transform="translate(50.475 200.471141) scale(0.1 -0.1)">
       <defs>
        <path id="DejaVuSans-31" d="M 794 531 
L 1825 531 
L 1825 4091 
L 703 3866 
L 703 4441 
L 1819 4666 
L 2450 4666 
L 2450 531 
L 3481 531 
L 3481 0 
L 794 0 
L 794 531 
z
" transform="scale(0.015625)"/>
       </defs>
       <use xlink:href="#DejaVuSans-31"/>
       <use xlink:href="#DejaVuSans-30" transform="translate(63.623047 0)"/>
      </g>
     </g>
    </g>
    <g id="ytick_2">
     <g id="line2d_8">
      <g>
       <use xlink:href="#mfce26cbdf0" x="70.2" y="153.193761" style="stroke: #000000; stroke-width: 0.8"/>
      </g>
     </g>
     <g id="text_8">
      <!-- 15 -->
      <g transform="translate(50.475 156.99298) scale(0.1 -0.1)">
       <defs>
        <path id="DejaVuSans-35" d="M 691 4666 
L 3169 4666 
L 3169 4134 
L 1269 4134 
L 1269 2991 
Q 1406 3038 1543 3061 
Q 1681 3084 1819 3084 
Q 2600 3084 3056 2656 
Q 3513 2228 3513 1497 
Q 3513 744 3044 326 
Q 2575 -91 1722 -91 
Q 1428 -91 1123 -41 
Q 819 9 494 109 
L 494 744 
Q 775 591 1075 516 
Q 1375 441 1709 441 
Q 2250 441 2565 725 
Q 2881 1009 2881 1497 
Q 2881 1984 2565 2268 
Q 2250 2553 1709 2553 
Q 1456 2553 1204 2497 
Q 953 2441 691 2322 
L 691 4666 
z
" transform="scale(0.015625)"/>
       </defs>
       <use xlink:href="#DejaVuSans-31"/>
       <use xlink:href="#DejaVuSans-35" transform="translate(63.623047 0)"/>
      </g>
     </g>
    </g>
    <g id="ytick_3">
     <g id="line2d_9">
      <g>
       <use xlink:href="#mfce26cbdf0" x="70.2" y="109.7156" style="stroke: #000000; stroke-width: 0.8"/>
      </g>
     </g>
     <g id="text_9">
      <!-- 20 -->
      <g transform="translate(50.475 113.514819) scale(0.1 -0.1)">
       <use xlink:href="#DejaVuSans-32"/>
       <use xlink:href="#DejaVuSans-30" transform="translate(63.623047 0)"/>
      </g>
     </g>
    </g>
    <g id="text_10">
     <!-- ΔLL (bits) -->
     <g transform="translate(44.395313 160.500937) rotate(-90) scale(0.1 -0.1)">
      <defs>
       <path id="DejaVuSans-394" d="M 2188 4044 
L 906 525 
L 3472 525 
L 2188 4044 
z
M 50 0 
L 1831 4666 
L 2547 4666 
L 4325 0 
L 50 0 
z
" transform="scale(0.015625)"/>
       <path id="DejaVuSans-4c" d="M 628 4666 
L 1259 4666 
L 1259 531 
L 3531 531 
L 3531 0 
L 628 0 
L 628 4666 
z
" transform="scale(0.015625)"/>
       <path id="DejaVuSans-20" transform="scale(0.015625)"/>
       <path id="DejaVuSans-28" d="M 1984 4856 
Q 1566 4138 1362 3434 
Q 1159 2731 1159 2009 
Q 1159 1288 1364 580 
Q 1569 -128 1984 -844 
L 1484 -844 
Q 1016 -109 783 600 
Q 550 1309 550 2009 
Q 550 2706 781 3412 
Q 1013 4119 1484 4856 
L 1984 4856 
z
" transform="scale(0.015625)"/>
       <path id="DejaVuSans-62" d="M 3116 1747 
Q 3116 2381 2855 2742 
Q 2594 3103 2138 3103 
Q 1681 3103 1420 2742 
Q 1159 2381 1159 1747 
Q 1159 1113 1420 752 
Q 1681 391 2138 391 
Q 2594 391 2855 752 
Q 3116 1113 3116 1747 
z
M 1159 2969 
Q 1341 3281 1617 3432 
Q 1894 3584 2278 3584 
Q 2916 3584 3314 3078 
Q 3713 2572 3713 1747 
Q 3713 922 3314 415 
Q 2916 -91 2278 -91 
Q 1894 -91 1617 61 
Q 1341 213 1159 525 
L 1159 0 
L 581 0 
L 581 4863 
L 1159 4863 
L 1159 2969 
z
" transform="scale(0.015625)"/>
       <path id="DejaVuSans-69" d="M 603 3500 
L 1178 3500 
L 1178 0 
L 603 0 
L 603 3500 
z
M 603 4863 
L 1178 4863 
L 1178 4134 
L 603 4134 
L 603 4863 
z
" transform="scale(0.015625)"/>
       <path id="DejaVuSans-74" d="M 1172 4494 
L 1172 3500 
L 2356 3500 
L 2356 3053 
L 1172 3053 
L 1172 1153 
Q 1172 725 1289 603 
Q 1406 481 1766 481 
L 2356 481 
L 2356 0 
L 1766 0 
Q 1100 0 847 248 
Q 594 497 594 1153 
L 594 3053 
L 172 3053 
L 172 3500 
L 594 3500 
L 594 4494 
L 1172 4494 
z
" transform="scale(0.015625)"/>
       <path id="DejaVuSans-73" d="M 2834 3397 
L 2834 2853 
Q 2591 2978 2328 3040 
Q 2066 3103 1784 3103 
Q 1356 3103 1142 2972 
Q 928 2841 928 2578 
Q 928 2378 1081 2264 
Q 1234 2150 1697 2047 
L 1894 2003 
Q 2506 1872 2764 1633 
Q 3022 1394 3022 966 
Q 3022 478 2636 193 
Q 2250 -91 1575 -91 
Q 1294 -91 989 -36 
Q 684 19 347 128 
L 347 722 
Q 666 556 975 473 
Q 1284 391 1588 391 
Q 1994 391 2212 530 
Q 2431 669 2431 922 
Q 2431 1156 2273 1281 
Q 2116 1406 1581 1522 
L 1381 1569 
Q 847 1681 609 1914 
Q 372 2147 372 2553 
Q 372 3047 722 3315 
Q 1072 3584 1716 3584 
Q 2034 3584 2315 3537 
Q 2597 3491 2834 3397 
z
" transform="scale(0.015625)"/>
       <path id="DejaVuSans-29" d="M 513 4856 
L 1013 4856 
Q 1481 4119 1714 3412 
Q 1947 2706 1947 2009 
Q 1947 1309 1714 600 
Q 1481 -109 1013 -844 
L 513 -844 
Q 928 -128 1133 580 
Q 1338 1288 1338 2009 
Q 1338 2731 1133 3434 
Q 928 4138 513 4856 
z
" transform="scale(0.015625)"/>
      </defs>
      <use xlink:href="#DejaVuSans-394"/>
      <use xlink:href="#DejaVuSans-4c" transform="translate(68.408203 0)"/>
      <use xlink:href="#DejaVuSans-4c" transform="translate(124.121094 0)"/>
      <use xlink:href="#DejaVuSans-20" transform="translate(179.833984 0)"/>
      <use xlink:href="#DejaVuSans-28" transform="translate(211.621094 0)"/>
      <use xlink:href="#DejaVuSans-62" transform="translate(250.634766 0)"/>
      <use xlink:href="#DejaVuSans-69" transform="translate(314.111328 0)"/>
      <use xlink:href="#DejaVuSans-74" transform="translate(341.894531 0)"/>
      <use xlink:href="#DejaVuSans-73" transform="translate(381.103516 0)"/>
      <use xlink:href="#DejaVuSans-29" transform="translate(433.203125 0)"/>
     </g>
    </g>
   </g>
   <g id="line2d_10">
    <path d="M 167.91917 206.388 
L 167.91917 67.392 
" clip-path="url(#pdfdfa31930)" style="fill: none; stroke-dasharray: 2.96,1.28; stroke-dashoffset: 0; stroke: #000000; stroke-width: 0.8"/>
   </g>
   <g id="line2d_11">
    <path d="M 89.983636 151.144852 
L 93.980327 150.748658 
L 97.977023 150.688894 
L 101.973713 151.375265 
L 105.97041 151.721604 
L 109.967106 150.628869 
L 113.963796 150.591292 
L 117.960493 151.264686 
L 121.957186 151.606952 
L 125.953882 151.158254 
L 129.950576 152.685301 
L 133.947269 152.191551 
L 137.943962 151.083558 
L 141.940659 152.094024 
L 145.937352 152.389796 
L 149.934045 152.441019 
L 153.93074 153.426678 
L 157.927434 151.285642 
L 161.924129 150.814249 
L 165.920823 154.312062 
L 169.917517 150.082715 
L 173.914211 150.687417 
L 177.910906 150.459213 
L 181.9076 152.655433 
L 185.904294 153.234432 
L 189.900988 150.676698 
L 193.897681 151.728241 
L 197.894377 152.896918 
L 201.891071 149.943666 
L 205.887764 150.247796 
L 209.884457 151.7411 
L 213.881154 152.853204 
L 217.877847 152.802274 
L 221.874543 150.256212 
L 225.871234 152.4951 
L 229.86793 149.631258 
L 233.864626 152.014803 
L 237.861317 151.653625 
L 241.858013 152.734083 
L 245.854704 153.378359 
L 249.8514 152.477951 
L 253.848096 151.389977 
L 257.844787 150.005591 
L 261.841483 153.06322 
L 265.838179 151.598493 
L 269.83487 151.49002 
L 273.83156 151.8688 
L 277.828262 150.366656 
L 281.824953 150.987449 
L 285.821643 149.759378 
L 289.818345 150.433527 
L 293.815036 153.856272 
L 297.811726 150.809672 
L 301.808428 149.637079 
L 305.805119 151.06338 
L 309.801809 152.619305 
L 313.798511 152.418773 
L 317.795202 151.308346 
L 321.791892 151.848592 
L 325.788594 153.41735 
L 329.785285 151.249937 
L 333.781975 151.930498 
L 337.778677 149.696533 
L 341.775368 150.520728 
L 345.772058 153.892266 
L 349.76876 152.485692 
L 353.765451 152.579401 
L 357.762141 152.667071 
L 361.758843 152.429574 
L 365.755534 149.474452 
L 369.752224 152.045388 
L 373.748914 151.022783 
L 377.745605 152.318685 
L 381.742319 151.962514 
L 385.739009 151.116553 
L 389.7357 152.631353 
L 393.73239 152.896833 
L 397.72908 152.139531 
L 401.725771 151.579951 
L 405.722485 151.645316 
L 409.719175 152.764913 
L 413.715866 151.503822 
L 417.712556 152.297848 
L 421.709246 151.537424 
L 425.705937 153.642822 
L 429.702627 151.258337 
L 433.699341 153.226586 
L 437.696032 151.206253 
L 441.692722 150.270193 
L 445.689412 150.990931 
L 449.686103 150.971803 
L 453.682793 153.224255 
L 457.679507 152.17804 
L 461.676198 152.002014 
L 465.672888 153.57472 
L 469.669578 152.225625 
L 473.666269 154.316069 
L 477.662959 151.547793 
L 481.659673 152.546269 
L 485.656364 153.782555 
" clip-path="url(#pdfdfa31930)" style="fill: none; stroke-dasharray: 1,1.65; stroke-dashoffset: 0; stroke: #1f77b4"/>
   </g>
   <g id="line2d_12">
    <path d="M 89.983636 149.581611 
L 93.980327 152.685361 
L 97.977023 151.666343 
L 101.973713 151.095935 
L 105.97041 151.471328 
L 109.967106 152.572567 
L 113.963796 151.173431 
L 117.960493 150.496782 
L 121.957186 152.850941 
L 125.953882 150.888576 
L 129.950576 150.151698 
L 133.947269 152.5907 
L 137.943962 153.659826 
L 141.940659 152.746275 
L 145.937352 151.770909 
L 149.934045 151.127701 
L 153.93074 151.781311 
L 157.927434 149.985386 
L 161.924129 151.373519 
L 165.920823 151.756945 
L 169.917517 151.403653 
L 173.914211 151.681591 
L 177.910906 151.567622 
L 181.9076 153.097828 
L 185.904294 152.245779 
L 189.900988 152.089763 
L 193.897681 151.170878 
L 197.894377 150.788579 
L 201.891071 153.008589 
L 205.887764 151.901632 
L 209.884457 150.130539 
L 213.881154 151.165349 
L 217.877847 152.82047 
L 221.874543 151.586494 
L 225.871234 152.42537 
L 229.86793 151.839377 
L 233.864626 149.531712 
L 237.861317 151.946787 
L 241.858013 150.672199 
L 245.854704 151.828653 
L 249.8514 153.65358 
L 253.848096 150.82865 
L 257.844787 154.35675 
L 261.841483 151.781672 
L 265.838179 150.426882 
L 269.83487 150.659031 
L 273.83156 152.26397 
L 277.828262 151.441999 
L 281.824953 151.754565 
L 285.821643 152.294896 
L 289.818345 151.271848 
L 293.815036 153.911698 
L 297.811726 150.749499 
L 301.808428 152.418461 
L 305.805119 152.686827 
L 309.801809 152.928966 
L 313.798511 150.590669 
L 317.795202 151.056471 
L 321.791892 151.05638 
L 325.788594 153.36758 
L 329.785285 153.070884 
L 333.781975 150.459238 
L 337.778677 152.371799 
L 341.775368 152.222664 
L 345.772058 152.624466 
L 349.76876 150.446366 
L 353.765451 150.118944 
L 357.762141 151.67467 
L 361.758843 152.350645 
L 365.755534 151.829579 
L 369.752224 150.190256 
L 373.748914 152.161164 
L 377.745605 152.086497 
L 381.742319 152.00721 
L 385.739009 152.748239 
L 389.7357 154.001629 
L 393.73239 153.073068 
L 397.72908 152.459537 
L 401.725771 150.189215 
L 405.722485 152.921933 
L 409.719175 153.049493 
L 413.715866 151.695445 
L 417.712556 152.883715 
L 421.709246 150.958659 
L 425.705937 151.104773 
L 429.702627 150.977116 
L 433.699341 149.815508 
L 437.696032 151.461409 
L 441.692722 152.109789 
L 445.689412 152.228747 
L 449.686103 153.073231 
L 453.682793 152.39148 
L 457.679507 149.033707 
L 461.676198 152.21041 
L 465.672888 153.316662 
L 469.669578 150.306327 
L 473.666269 152.809208 
L 477.662959 151.03848 
L 481.659673 151.256199 
L 485.656364 151.765212 
" clip-path="url(#pdfdfa31930)" style="fill: none; stroke-dasharray: 1,1.65; stroke-dashoffset: 0; stroke: #ff7f0e"/>
   </g>
   <g id="line2d_13">
    <path d="M 89.983636 159.945066 
L 93.980327 141.471482 
L 97.977023 133.329551 
L 101.973713 117.861399 
L 105.97041 147.162615 
L 109.967106 133.51011 
L 113.963796 135.834983 
L 117.960493 114.993601 
L 121.957186 138.31808 
L 125.953882 111.681543 
L 129.950576 109.197012 
L 133.947269 125.739515 
L 137.943962 133.034083 
L 141.940659 133.792371 
L 145.937352 152.315607 
L 149.934045 176.74464 
L 153.93074 127.138562 
L 157.927434 156.342435 
L 161.924129 125.201754 
L 165.920823 110.910745 
L 169.917517 145.245972 
L 173.914211 123.81316 
L 177.910906 137.524126 
L 181.9076 136.399595 
L 185.904294 142.579784 
L 189.900988 169.535329 
L 193.897681 148.06969 
L 197.894377 161.095925 
L 201.891071 98.035489 
L 205.887764 129.340427 
L 209.884457 145.525774 
L 213.881154 110.685849 
L 217.877847 140.626875 
L 221.874543 167.618682 
L 225.871234 147.772159 
L 229.86793 133.199139 
L 233.864626 169.542487 
L 237.861317 117.840981 
L 241.858013 184.661214 
L 245.854704 162.496626 
L 249.8514 125.048466 
L 253.848096 104.493324 
L 257.844787 143.093707 
L 261.841483 157.335215 
L 265.838179 156.449679 
L 269.83487 173.634759 
L 273.83156 136.130699 
L 277.828262 136.101689 
L 281.824953 73.71 
L 285.821643 122.384959 
L 289.818345 175.081228 
L 293.815036 155.232215 
L 297.811726 135.218452 
L 301.808428 142.943724 
L 305.805119 143.503324 
L 309.801809 177.138189 
L 313.798511 150.348445 
L 317.795202 135.539458 
L 321.791892 165.143012 
L 325.788594 100.546538 
L 329.785285 164.706849 
L 333.781975 183.990348 
L 337.778677 165.62925 
L 341.775368 139.921909 
L 345.772058 161.92496 
L 349.76876 141.976 
L 353.765451 133.245604 
L 357.762141 161.964895 
L 361.758843 151.154728 
L 365.755534 175.163677 
L 369.752224 148.638712 
L 373.748914 160.364294 
L 377.745605 152.287808 
L 381.742319 144.496628 
L 385.739009 144.25841 
L 389.7357 163.203676 
L 393.73239 126.100271 
L 397.72908 181.803805 
L 401.725771 137.319593 
L 405.722485 150.814597 
L 409.719175 119.273717 
L 413.715866 155.652386 
L 417.712556 104.233048 
L 421.709246 171.656512 
L 425.705937 156.689076 
L 429.702627 175.30437 
L 433.699341 113.729582 
L 437.696032 158.357998 
L 441.692722 150.400349 
L 445.689412 122.457218 
L 449.686103 161.721043 
L 453.682793 121.100228 
L 457.679507 159.632366 
L 461.676198 151.620016 
L 465.672888 155.948028 
L 469.669578 141.305065 
L 473.666269 173.514603 
L 477.662959 149.695653 
L 481.659673 138.207604 
L 485.656364 167.20172 
" clip-path="url(#pdfdfa31930)" style="fill: none; stroke: #1f77b4; stroke-width: 2.2; stroke-linecap: square"/>
   </g>
   <g id="line2d_14">
    <path d="M 89.983636 148.80822 
L 93.980327 185.783658 
L 97.977023 149.901516 
L 101.973713 153.465032 
L 105.97041 136.827752 
L 109.967106 167.620512 
L 113.963796 136.211817 
L 117.960493 142.27959 
L 121.957186 125.364355 
L 125.953882 106.841707 
L 129.950576 154.668237 
L 133.947269 159.566722 
L 137.943962 122.173591 
L 141.940659 125.127884 
L 145.937352 79.700037 
L 149.934045 142.747114 
L 153.93074 158.338599 
L 157.927434 117.577455 
L 161.924129 113.997921 
L 165.920823 144.520693 
L 169.917517 135.468939 
L 173.914211 159.955676 
L 177.910906 123.505051 
L 181.9076 141.281408 
L 185.904294 171.889125 
L 189.900988 127.524087 
L 193.897681 92.782316 
L 197.894377 118.349154 
L 201.891071 166.243679 
L 205.887764 172.851561 
L 209.884457 135.950151 
L 213.881154 134.143295 
L 217.877847 140.136266 
L 221.874543 119.647892 
L 225.871234 103.474925 
L 229.86793 127.857314 
L 233.864626 179.194871 
L 237.861317 151.905826 
L 241.858013 155.675909 
L 245.854704 161.30683 
L 249.8514 164.744952 
L 253.848096 114.195984 
L 257.844787 141.088363 
L 261.841483 170.5918 
L 265.838179 159.542355 
L 269.83487 101.273348 
L 273.83156 153.776101 
L 277.828262 133.981369 
L 281.824953 133.677087 
L 285.821643 112.10144 
L 289.818345 172.967154 
L 293.815036 94.853098 
L 297.811726 136.775397 
L 301.808428 157.568767 
L 305.805119 129.714129 
L 309.801809 164.695071 
L 313.798511 159.760389 
L 317.795202 126.626976 
L 321.791892 133.661401 
L 325.788594 177.971584 
L 329.785285 182.674042 
L 333.781975 127.833125 
L 337.778677 146.064232 
L 341.775368 161.853438 
L 345.772058 151.412002 
L 349.76876 151.461382 
L 353.765451 140.335118 
L 357.762141 137.122933 
L 361.758843 153.124918 
L 365.755534 144.578331 
L 369.752224 140.416113 
L 373.748914 147.594831 
L 377.745605 120.422954 
L 381.742319 140.537651 
L 385.739009 149.23281 
L 389.7357 193.743821 
L 393.73239 121.373971 
L 397.72908 94.767475 
L 401.725771 145.496408 
L 405.722485 158.34939 
L 409.719175 170.229235 
L 413.715866 160.740994 
L 417.712556 152.77789 
L 421.709246 150.029228 
L 425.705937 108.969559 
L 429.702627 173.880248 
L 433.699341 156.75119 
L 437.696032 145.416486 
L 441.692722 155.054611 
L 445.689412 140.0415 
L 449.686103 129.208632 
L 453.682793 180.027562 
L 457.679507 167.978903 
L 461.676198 152.023939 
L 465.672888 131.075005 
L 469.669578 200.07 
L 473.666269 157.774028 
L 477.662959 127.429361 
L 481.659673 158.246707 
L 485.656364 145.93983 
" clip-path="url(#pdfdfa31930)" style="fill: none; stroke: #ff7f0e; stroke-width: 2.2; stroke-linecap: square"/>
   </g>
   <g id="patch_3">
    <path d="M 70.2 206.388 
L 70.2 67.392 
" style="fill: none; stroke: #000000; stroke-width: 0.8; stroke-linejoin: miter; stroke-linecap: square"/>
   </g>
   <g id="patch_4">
    <path d="M 505.44 206.388 
L 505.44 67.392 
" style="fill: none; stroke: #000000; stroke-width: 0.8; stroke-linejoin: miter; stroke-linecap: square"/>
   </g>
   <g id="patch_5">
    <path d="M 70.2 206.388 
L 505.44 206.388 
" style="fill: none; stroke: #000000; stroke-width: 0.8; stroke-linejoin: miter; stroke-linecap: square"/>
   </g>
   <g id="patch_6">
    <path d="M 70.2 67.392 
L 505.44 67.392 
" style="fill: none; stroke: #000000; stroke-width: 0.8; stroke-linejoin: miter; stroke-linecap: square"/>
   </g>
   <g id="text_11">
    <!-- (SFEF vs SLIP) — R-flow — Panel A: overlay + null bands -->
    <g transform="translate(119.320313 61.392) scale(0.12 -0.12)">
     <defs>
      <path id="DejaVuSans-53" d="M 3425 4513 
L 3425 3897 
Q 3066 4069 2747 4153 
Q 2428 4238 2131 4238 
Q 1616 4238 1336 4038 
Q 1056 3838 1056 3469 
Q 1056 3159 1242 3001 
Q 1428 2844 1947 2747 
L 2328 2669 
Q 3034 2534 3370 2195 
Q 3706 1856 3706 1288 
Q 3706 609 3251 259 
Q 2797 -91 1919 -91 
Q 1588 -91 1214 -16 
Q 841 59 441 206 
L 441 856 
Q 825 641 1194 531 
Q 1563 422 1919 422 
Q 2459 422 2753 634 
Q 3047 847 3047 1241 
Q 3047 1584 2836 1778 
Q 2625 1972 2144 2069 
L 1759 2144 
Q 1053 2284 737 2584 
Q 422 2884 422 3419 
Q 422 4038 858 4394 
Q 1294 4750 2059 4750 
Q 2388 4750 2728 4690 
Q 3069 4631 3425 4513 
z
" transform="scale(0.015625)"/>
      <path id="DejaVuSans-46" d="M 628 4666 
L 3309 4666 
L 3309 4134 
L 1259 4134 
L 1259 2759 
L 3109 2759 
L 3109 2228 
L 1259 2228 
L 1259 0 
L 628 0 
L 628 4666 
z
" transform="scale(0.015625)"/>
      <path id="DejaVuSans-45" d="M 628 4666 
L 3578 4666 
L 3578 4134 
L 1259 4134 
L 1259 2753 
L 3481 2753 
L 3481 2222 
L 1259 2222 
L 1259 531 
L 3634 531 
L 3634 0 
L 628 0 
L 628 4666 
z
" transform="scale(0.015625)"/>
      <path id="DejaVuSans-76" d="M 191 3500 
L 800 3500 
L 1894 563 
L 2988 3500 
L 3597 3500 
L 2284 0 
L 1503 0 
L 191 3500 
z
" transform="scale(0.015625)"/>
      <path id="DejaVuSans-49" d="M 628 4666 
L 1259 4666 
L 1259 0 
L 628 0 
L 628 4666 
z
" transform="scale(0.015625)"/>
      <path id="DejaVuSans-50" d="M 1259 4147 
L 1259 2394 
L 2053 2394 
Q 2494 2394 2734 2622 
Q 2975 2850 2975 3272 
Q 2975 3691 2734 3919 
Q 2494 4147 2053 4147 
L 1259 4147 
z
M 628 4666 
L 2053 4666 
Q 2838 4666 3239 4311 
Q 3641 3956 3641 3272 
Q 3641 2581 3239 2228 
Q 2838 1875 2053 1875 
L 1259 1875 
L 1259 0 
L 628 0 
L 628 4666 
z
" transform="scale(0.015625)"/>
      <path id="DejaVuSans-2014" d="M 313 1978 
L 6088 1978 
L 6088 1528 
L 313 1528 
L 313 1978 
z
" transform="scale(0.015625)"/>
      <path id="DejaVuSans-52" d="M 2841 2188 
Q 3044 2119 3236 1894 
Q 3428 1669 3622 1275 
L 4263 0 
L 3584 0 
L 2988 1197 
Q 2756 1666 2539 1819 
Q 2322 1972 1947 1972 
L 1259 1972 
L 1259 0 
L 628 0 
L 628 4666 
L 2053 4666 
Q 2853 4666 3247 4331 
Q 3641 3997 3641 3322 
Q 3641 2881 3436 2590 
Q 3231 2300 2841 2188 
z
M 1259 4147 
L 1259 2491 
L 2053 2491 
Q 2509 2491 2742 2702 
Q 2975 2913 2975 3322 
Q 2975 3731 2742 3939 
Q 2509 4147 2053 4147 
L 1259 4147 
z
" transform="scale(0.015625)"/>
      <path id="DejaVuSans-2d" d="M 313 2009 
L 1997 2009 
L 1997 1497 
L 313 1497 
L 313 2009 
z
" transform="scale(0.015625)"/>
      <path id="DejaVuSans-66" d="M 2375 4863 
L 2375 4384 
L 1825 4384 
Q 1516 4384 1395 4259 
Q 1275 4134 1275 3809 
L 1275 3500 
L 2222 3500 
L 2222 3053 
L 1275 3053 
L 1275 0 
L 697 0 
L 697 3053 
L 147 3053 
L 147 3500 
L 697 3500 
L 697 3744 
Q 697 4328 969 4595 
Q 1241 4863 1831 4863 
L 2375 4863 
z
" transform="scale(0.015625)"/>
      <path id="DejaVuSans-6c" d="M 603 4863 
L 1178 4863 
L 1178 0 
L 603 0 
L 603 4863 
z
" transform="scale(0.015625)"/>
      <path id="DejaVuSans-6f" d="M 1959 3097 
Q 1497 3097 1228 2736 
Q 959 2375 959 1747 
Q 959 1119 1226 758 
Q 1494 397 1959 397 
Q 2419 397 2687 759 
Q 2956 1122 2956 1747 
Q 2956 2369 2687 2733 
Q 2419 3097 1959 3097 
z
M 1959 3584 
Q 2709 3584 3137 3096 
Q 3566 2609 3566 1747 
Q 3566 888 3137 398 
Q 2709 -91 1959 -91 
Q 1206 -91 779 398 
Q 353 888 353 1747 
Q 353 2609 779 3096 
Q 1206 3584 1959 3584 
z
" transform="scale(0.015625)"/>
      <path id="DejaVuSans-77" d="M 269 3500 
L 844 3500 
L 1563 769 
L 2278 3500 
L 2956 3500 
L 3675 769 
L 4391 3500 
L 4966 3500 
L 4050 0 
L 3372 0 
L 2619 2869 
L 1863 0 
L 1184 0 
L 269 3500 
z
" transform="scale(0.015625)"/>
      <path id="DejaVuSans-61" d="M 2194 1759 
Q 1497 1759 1228 1600 
Q 959 1441 959 1056 
Q 959 750 1161 570 
Q 1363 391 1709 391 
Q 2188 391 2477 730 
Q 2766 1069 2766 1631 
L 2766 1759 
L 2194 1759 
z
M 3341 1997 
L 3341 0 
L 2766 0 
L 2766 531 
Q 2569 213 2275 61 
Q 1981 -91 1556 -91 
Q 1019 -91 701 211 
Q 384 513 384 1019 
Q 384 1609 779 1909 
Q 1175 2209 1959 2209 
L 2766 2209 
L 2766 2266 
Q 2766 2663 2505 2880 
Q 2244 3097 1772 3097 
Q 1472 3097 1187 3025 
Q 903 2953 641 2809 
L 641 3341 
Q 956 3463 1253 3523 
Q 1550 3584 1831 3584 
Q 2591 3584 2966 3190 
Q 3341 2797 3341 1997 
z
" transform="scale(0.015625)"/>
      <path id="DejaVuSans-6e" d="M 3513 2113 
L 3513 0 
L 2938 0 
L 2938 2094 
Q 2938 2591 2744 2837 
Q 2550 3084 2163 3084 
Q 1697 3084 1428 2787 
Q 1159 2491 1159 1978 
L 1159 0 
L 581 0 
L 581 3500 
L 1159 3500 
L 1159 2956 
Q 1366 3272 1645 3428 
Q 1925 3584 2291 3584 
Q 2894 3584 3203 3211 
Q 3513 2838 3513 2113 
z
" transform="scale(0.015625)"/>
      <path id="DejaVuSans-65" d="M 3597 1894 
L 3597 1613 
L 953 1613 
Q 991 1019 1311 708 
Q 1631 397 2203 397 
Q 2534 397 2845 478 
Q 3156 559 3463 722 
L 3463 178 
Q 3153 47 2828 -22 
Q 2503 -91 2169 -91 
Q 1331 -91 842 396 
Q 353 884 353 1716 
Q 353 2575 817 3079 
Q 1281 3584 2069 3584 
Q 2775 3584 3186 3129 
Q 3597 2675 3597 1894 
z
M 3022 2063 
Q 3016 2534 2758 2815 
Q 2500 3097 2075 3097 
Q 1594 3097 1305 2825 
Q 1016 2553 972 2059 
L 3022 2063 
z
" transform="scale(0.015625)"/>
      <path id="DejaVuSans-41" d="M 2188 4044 
L 1331 1722 
L 3047 1722 
L 2188 4044 
z
M 1831 4666 
L 2547 4666 
L 4325 0 
L 3669 0 
L 3244 1197 
L 1141 1197 
L 716 0 
L 50 0 
L 1831 4666 
z
" transform="scale(0.015625)"/>
      <path id="DejaVuSans-3a" d="M 750 794 
L 1409 794 
L 1409 0 
L 750 0 
L 750 794 
z
M 750 3309 
L 1409 3309 
L 1409 2516 
L 750 2516 
L 750 3309 
z
" transform="scale(0.015625)"/>
      <path id="DejaVuSans-72" d="M 2631 2963 
Q 2534 3019 2420 3045 
Q 2306 3072 2169 3072 
Q 1681 3072 1420 2755 
Q 1159 2438 1159 1844 
L 1159 0 
L 581 0 
L 581 3500 
L 1159 3500 
L 1159 2956 
Q 1341 3275 1631 3429 
Q 1922 3584 2338 3584 
Q 2397 3584 2469 3576 
Q 2541 3569 2628 3553 
L 2631 2963 
z
" transform="scale(0.015625)"/>
      <path id="DejaVuSans-79" d="M 2059 -325 
Q 1816 -950 1584 -1140 
Q 1353 -1331 966 -1331 
L 506 -1331 
L 506 -850 
L 844 -850 
Q 1081 -850 1212 -737 
Q 1344 -625 1503 -206 
L 1606 56 
L 191 3500 
L 800 3500 
L 1894 763 
L 2988 3500 
L 3597 3500 
L 2059 -325 
z
" transform="scale(0.015625)"/>
      <path id="DejaVuSans-2b" d="M 2944 4013 
L 2944 2272 
L 4684 2272 
L 4684 1741 
L 2944 1741 
L 2944 0 
L 2419 0 
L 2419 1741 
L 678 1741 
L 678 2272 
L 2419 2272 
L 2419 4013 
L 2944 4013 
z
" transform="scale(0.015625)"/>
      <path id="DejaVuSans-75" d="M 544 1381 
L 544 3500 
L 1119 3500 
L 1119 1403 
Q 1119 906 1312 657 
Q 1506 409 1894 409 
Q 2359 409 2629 706 
Q 2900 1003 2900 1516 
L 2900 3500 
L 3475 3500 
L 3475 0 
L 2900 0 
L 2900 538 
Q 2691 219 2414 64 
Q 2138 -91 1772 -91 
Q 1169 -91 856 284 
Q 544 659 544 1381 
z
M 1991 3584 
L 1991 3584 
z
" transform="scale(0.015625)"/>
      <path id="DejaVuSans-64" d="M 2906 2969 
L 2906 4863 
L 3481 4863 
L 3481 0 
L 2906 0 
L 2906 525 
Q 2725 213 2448 61 
Q 2172 -91 1784 -91 
Q 1150 -91 751 415 
Q 353 922 353 1747 
Q 353 2572 751 3078 
Q 1150 3584 1784 3584 
Q 2172 3584 2448 3432 
Q 2725 3281 2906 2969 
z
M 947 1747 
Q 947 1113 1208 752 
Q 1469 391 1925 391 
Q 2381 391 2643 752 
Q 2906 1113 2906 1747 
Q 2906 2381 2643 2742 
Q 2381 3103 1925 3103 
Q 1469 3103 1208 2742 
Q 947 2381 947 1747 
z
" transform="scale(0.015625)"/>
     </defs>
     <use xlink:href="#DejaVuSans-28"/>
     <use xlink:href="#DejaVuSans-53" transform="translate(39.013672 0)"/>
     <use xlink:href="#DejaVuSans-46" transform="translate(102.490234 0)"/>
     <use xlink:href="#DejaVuSans-45" transform="translate(160.009766 0)"/>
     <use xlink:href="#DejaVuSans-46" transform="translate(223.193359 0)"/>
     <use xlink:href="#DejaVuSans-20" transform="translate(280.712891 0)"/>
     <use xlink:href="#DejaVuSans-76" transform="translate(312.5 0)"/>
     <use xlink:href="#DejaVuSans-73" transform="translate(371.679688 0)"/>
     <use xlink:href="#DejaVuSans-20" transform="translate(423.779297 0)"/>
     <use xlink:href="#DejaVuSans-53" transform="translate(455.566406 0)"/>
     <use xlink:href="#DejaVuSans-4c" transform="translate(519.042969 0)"/>
     <use xlink:href="#DejaVuSans-49" transform="translate(574.755859 0)"/>
     <use xlink:href="#DejaVuSans-50" transform="translate(604.248047 0)"/>
     <use xlink:href="#DejaVuSans-29" transform="translate(664.550781 0)"/>
     <use xlink:href="#DejaVuSans-20" transform="translate(703.564453 0)"/>
     <use xlink:href="#DejaVuSans-2014" transform="translate(735.351562 0)"/>
     <use xlink:href="#DejaVuSans-20" transform="translate(835.351562 0)"/>
     <use xlink:href="#DejaVuSans-52" transform="translate(867.138672 0)"/>
     <use xlink:href="#DejaVuSans-2d" transform="translate(932.621094 0)"/>
     <use xlink:href="#DejaVuSans-66" transform="translate(968.705078 0)"/>
     <use xlink:href="#DejaVuSans-6c" transform="translate(1003.910156 0)"/>
     <use xlink:href="#DejaVuSans-6f" transform="translate(1031.693359 0)"/>
     <use xlink:href="#DejaVuSans-77" transform="translate(1092.875 0)"/>
     <use xlink:href="#DejaVuSans-20" transform="translate(1174.662109 0)"/>
     <use xlink:href="#DejaVuSans-2014" transform="translate(1206.449219 0)"/>
     <use xlink:href="#DejaVuSans-20" transform="translate(1306.449219 0)"/>
     <use xlink:href="#DejaVuSans-50" transform="translate(1338.236328 0)"/>
     <use xlink:href="#DejaVuSans-61" transform="translate(1394.039062 0)"/>
     <use xlink:href="#DejaVuSans-6e" transform="translate(1455.318359 0)"/>
     <use xlink:href="#DejaVuSans-65" transform="translate(1518.697266 0)"/>
     <use xlink:href="#DejaVuSans-6c" transform="translate(1580.220703 0)"/>
     <use xlink:href="#DejaVuSans-20" transform="translate(1608.003906 0)"/>
     <use xlink:href="#DejaVuSans-41" transform="translate(1639.791016 0)"/>
     <use xlink:href="#DejaVuSans-3a" transform="translate(1706.449219 0)"/>
     <use xlink:href="#DejaVuSans-20" transform="translate(1740.140625 0)"/>
     <use xlink:href="#DejaVuSans-6f" transform="translate(1771.927734 0)"/>
     <use xlink:href="#DejaVuSans-76" transform="translate(1833.109375 0)"/>
     <use xlink:href="#DejaVuSans-65" transform="translate(1892.289062 0)"/>
     <use xlink:href="#DejaVuSans-72" transform="translate(1953.8125 0)"/>
     <use xlink:href="#DejaVuSans-6c" transform="translate(1994.925781 0)"/>
     <use xlink:href="#DejaVuSans-61" transform="translate(2022.708984 0)"/>
     <use xlink:href="#DejaVuSans-79" transform="translate(2083.988281 0)"/>
     <use xlink:href="#DejaVuSans-20" transform="translate(2143.167969 0)"/>
     <use xlink:href="#DejaVuSans-2b" transform="translate(2174.955078 0)"/>
     <use xlink:href="#DejaVuSans-20" transform="translate(2258.744141 0)"/>
     <use xlink:href="#DejaVuSans-6e" transform="translate(2290.53125 0)"/>
     <use xlink:href="#DejaVuSans-75" transform="translate(2353.910156 0)"/>
     <use xlink:href="#DejaVuSans-6c" transform="translate(2417.289062 0)"/>
     <use xlink:href="#DejaVuSans-6c" transform="translate(2445.072266 0)"/>
     <use xlink:href="#DejaVuSans-20" transform="translate(2472.855469 0)"/>
     <use xlink:href="#DejaVuSans-62" transform="translate(2504.642578 0)"/>
     <use xlink:href="#DejaVuSans-61" transform="translate(2568.119141 0)"/>
     <use xlink:href="#DejaVuSans-6e" transform="translate(2629.398438 0)"/>
     <use xlink:href="#DejaVuSans-64" transform="translate(2692.777344 0)"/>
     <use xlink:href="#DejaVuSans-73" transform="translate(2756.253906 0)"/>
    </g>
   </g>
   <g id="legend_1">
    <g id="patch_7">
     <path d="M 79.2 83.990437 
L 99.2 83.990437 
L 99.2 76.990437 
L 79.2 76.990437 
z
" style="fill: #1f77b4; fill-opacity: 0.15"/>
    </g>
    <g id="text_12">
     <!-- SFEF→SLIP null μ±σ -->
     <g transform="translate(107.2 83.990437) scale(0.1 -0.1)">
      <defs>
       <path id="DejaVuSans-2192" d="M 5050 2147 
L 5050 1866 
L 3822 638 
L 3447 1013 
L 4175 1741 
L 366 1741 
L 366 2272 
L 4175 2272 
L 3447 3000 
L 3822 3375 
L 5050 2147 
z
" transform="scale(0.015625)"/>
       <path id="DejaVuSans-3bc" d="M 544 -1331 
L 544 3500 
L 1119 3500 
L 1119 1325 
Q 1119 872 1334 640 
Q 1550 409 1972 409 
Q 2434 409 2667 671 
Q 2900 934 2900 1459 
L 2900 3500 
L 3475 3500 
L 3475 806 
Q 3475 619 3529 530 
Q 3584 441 3700 441 
Q 3728 441 3778 458 
Q 3828 475 3916 513 
L 3916 50 
Q 3788 -22 3673 -56 
Q 3559 -91 3450 -91 
Q 3234 -91 3106 31 
Q 2978 153 2931 403 
Q 2775 156 2548 32 
Q 2322 -91 2016 -91 
Q 1697 -91 1473 31 
Q 1250 153 1119 397 
L 1119 -1331 
L 544 -1331 
z
" transform="scale(0.015625)"/>
       <path id="DejaVuSans-b1" d="M 2944 4013 
L 2944 2803 
L 4684 2803 
L 4684 2272 
L 2944 2272 
L 2944 1063 
L 2419 1063 
L 2419 2272 
L 678 2272 
L 678 2803 
L 2419 2803 
L 2419 4013 
L 2944 4013 
z
M 678 531 
L 4684 531 
L 4684 0 
L 678 0 
L 678 531 
z
" transform="scale(0.015625)"/>
       <path id="DejaVuSans-3c3" d="M 1959 3044 
Q 1484 3044 1228 2700 
Q 959 2341 959 1747 
Q 959 1119 1226 758 
Q 1494 397 1959 397 
Q 2419 397 2687 759 
Q 2956 1122 2956 1747 
Q 2956 2319 2688 2700 
Q 2441 3044 1959 3044 
z
M 1959 3500 
L 3869 3500 
L 3869 2925 
L 3225 2925 
Q 3566 2438 3566 1747 
Q 3566 888 3138 400 
Q 2709 -91 1959 -91 
Q 1206 -91 781 400 
Q 353 888 353 1747 
Q 353 2613 781 3097 
Q 1134 3500 1959 3500 
z
" transform="scale(0.015625)"/>
      </defs>
      <use xlink:href="#DejaVuSans-53"/>
      <use xlink:href="#DejaVuSans-46" transform="translate(63.476562 0)"/>
      <use xlink:href="#DejaVuSans-45" transform="translate(120.996094 0)"/>
      <use xlink:href="#DejaVuSans-46" transform="translate(184.179688 0)"/>
      <use xlink:href="#DejaVuSans-2192" transform="translate(241.699219 0)"/>
      <use xlink:href="#DejaVuSans-53" transform="translate(325.488281 0)"/>
      <use xlink:href="#DejaVuSans-4c" transform="translate(388.964844 0)"/>
      <use xlink:href="#DejaVuSans-49" transform="translate(444.677734 0)"/>
      <use xlink:href="#DejaVuSans-50" transform="translate(474.169922 0)"/>
      <use xlink:href="#DejaVuSans-20" transform="translate(534.472656 0)"/>
      <use xlink:href="#DejaVuSans-6e" transform="translate(566.259766 0)"/>
      <use xlink:href="#DejaVuSans-75" transform="translate(629.638672 0)"/>
      <use xlink:href="#DejaVuSans-6c" transform="translate(693.017578 0)"/>
      <use xlink:href="#DejaVuSans-6c" transform="translate(720.800781 0)"/>
      <use xlink:href="#DejaVuSans-20" transform="translate(748.583984 0)"/>
      <use xlink:href="#DejaVuSans-3bc" transform="translate(780.371094 0)"/>
      <use xlink:href="#DejaVuSans-b1" transform="translate(843.994141 0)"/>
      <use xlink:href="#DejaVuSans-3c3" transform="translate(927.783203 0)"/>
     </g>
    </g>
    <g id="patch_8">
     <path d="M 79.2 98.668563 
L 99.2 98.668563 
L 99.2 91.668563 
L 79.2 91.668563 
z
" style="fill: #ff7f0e; fill-opacity: 0.15"/>
    </g>
    <g id="text_13">
     <!-- SLIP→SFEF null μ±σ -->
     <g transform="translate(107.2 98.668563) scale(0.1 -0.1)">
      <use xlink:href="#DejaVuSans-53"/>
      <use xlink:href="#DejaVuSans-4c" transform="translate(63.476562 0)"/>
      <use xlink:href="#DejaVuSans-49" transform="translate(119.189453 0)"/>
      <use xlink:href="#DejaVuSans-50" transform="translate(148.681641 0)"/>
      <use xlink:href="#DejaVuSans-2192" transform="translate(208.984375 0)"/>
      <use xlink:href="#DejaVuSans-53" transform="translate(292.773438 0)"/>
      <use xlink:href="#DejaVuSans-46" transform="translate(356.25 0)"/>
      <use xlink:href="#DejaVuSans-45" transform="translate(413.769531 0)"/>
      <use xlink:href="#DejaVuSans-46" transform="translate(476.953125 0)"/>
      <use xlink:href="#DejaVuSans-20" transform="translate(534.472656 0)"/>
      <use xlink:href="#DejaVuSans-6e" transform="translate(566.259766 0)"/>
      <use xlink:href="#DejaVuSans-75" transform="translate(629.638672 0)"/>
      <use xlink:href="#DejaVuSans-6c" transform="translate(693.017578 0)"/>
      <use xlink:href="#DejaVuSans-6c" transform="translate(720.800781 0)"/>
      <use xlink:href="#DejaVuSans-20" transform="translate(748.583984 0)"/>
      <use xlink:href="#DejaVuSans-3bc" transform="translate(780.371094 0)"/>
      <use xlink:href="#DejaVuSans-b1" transform="translate(843.994141 0)"/>
      <use xlink:href="#DejaVuSans-3c3" transform="translate(927.783203 0)"/>
     </g>
    </g>
    <g id="line2d_15">
     <path d="M 226.317187 80.490437 
L 236.317187 80.490437 
L 246.317187 80.490437 
" style="fill: none; stroke: #1f77b4; stroke-width: 2.2; stroke-linecap: square"/>
    </g>
    <g id="text_14">
     <!-- SFEF→SLIP -->
     <g transform="translate(254.317187 83.990437) scale(0.1 -0.1)">
      <use xlink:href="#DejaVuSans-53"/>
      <use xlink:href="#DejaVuSans-46" transform="translate(63.476562 0)"/>
      <use xlink:href="#DejaVuSans-45" transform="translate(120.996094 0)"/>
      <use xlink:href="#DejaVuSans-46" transform="translate(184.179688 0)"/>
      <use xlink:href="#DejaVuSans-2192" transform="translate(241.699219 0)"/>
      <use xlink:href="#DejaVuSans-53" transform="translate(325.488281 0)"/>
      <use xlink:href="#DejaVuSans-4c" transform="translate(388.964844 0)"/>
      <use xlink:href="#DejaVuSans-49" transform="translate(444.677734 0)"/>
      <use xlink:href="#DejaVuSans-50" transform="translate(474.169922 0)"/>
     </g>
    </g>
    <g id="line2d_16">
     <path d="M 226.317187 95.168563 
L 236.317187 95.168563 
L 246.317187 95.168563 
" style="fill: none; stroke: #ff7f0e; stroke-width: 2.2; stroke-linecap: square"/>
    </g>
    <g id="text_15">
     <!-- SLIP→SFEF -->
     <g transform="translate(254.317187 98.668563) scale(0.1 -0.1)">
      <use xlink:href="#DejaVuSans-53"/>
      <use xlink:href="#DejaVuSans-4c" transform="translate(63.476562 0)"/>
      <use xlink:href="#DejaVuSans-49" transform="translate(119.189453 0)"/>
      <use xlink:href="#DejaVuSans-50" transform="translate(148.681641 0)"/>
      <use xlink:href="#DejaVuSans-2192" transform="translate(208.984375 0)"/>
      <use xlink:href="#DejaVuSans-53" transform="translate(292.773438 0)"/>
      <use xlink:href="#DejaVuSans-46" transform="translate(356.25 0)"/>
      <use xlink:href="#DejaVuSans-45" transform="translate(413.769531 0)"/>
      <use xlink:href="#DejaVuSans-46" transform="translate(476.953125 0)"/>
     </g>
    </g>
   </g>
  </g>
  <g id="axes_2">
   <g id="patch_9">
    <path d="M 70.2 353.106 
L 505.44 353.106 
L 505.44 237.276 
L 70.2 237.276 
z
" style="fill: #ffffff"/>
   </g>
   <g id="matplotlib.axis_3">
    <g id="xtick_7">
     <g id="line2d_17">
      <g>
       <use xlink:href="#ma1af1ce598" x="87.985286" y="353.106" style="stroke: #000000; stroke-width: 0.8"/>
      </g>
     </g>
     <g id="text_16">
      <!-- −200 -->
      <g transform="translate(74.251693 367.704438) scale(0.1 -0.1)">
       <use xlink:href="#DejaVuSans-2212"/>
       <use xlink:href="#DejaVuSans-32" transform="translate(83.789062 0)"/>
       <use xlink:href="#DejaVuSans-30" transform="translate(147.412109 0)"/>
       <use xlink:href="#DejaVuSans-30" transform="translate(211.035156 0)"/>
      </g>
     </g>
    </g>
    <g id="xtick_8">
     <g id="line2d_18">
      <g>
       <use xlink:href="#ma1af1ce598" x="167.91917" y="353.106" style="stroke: #000000; stroke-width: 0.8"/>
      </g>
     </g>
     <g id="text_17">
      <!-- 0 -->
      <g transform="translate(164.73792 367.704438) scale(0.1 -0.1)">
       <use xlink:href="#DejaVuSans-30"/>
      </g>
     </g>
    </g>
    <g id="xtick_9">
     <g id="line2d_19">
      <g>
       <use xlink:href="#ma1af1ce598" x="247.853053" y="353.106" style="stroke: #000000; stroke-width: 0.8"/>
      </g>
     </g>
     <g id="text_18">
      <!-- 200 -->
      <g transform="translate(238.309303 367.704438) scale(0.1 -0.1)">
       <use xlink:href="#DejaVuSans-32"/>
       <use xlink:href="#DejaVuSans-30" transform="translate(63.623047 0)"/>
       <use xlink:href="#DejaVuSans-30" transform="translate(127.246094 0)"/>
      </g>
     </g>
    </g>
    <g id="xtick_10">
     <g id="line2d_20">
      <g>
       <use xlink:href="#ma1af1ce598" x="327.786937" y="353.106" style="stroke: #000000; stroke-width: 0.8"/>
      </g>
     </g>
     <g id="text_19">
      <!-- 400 -->
      <g transform="translate(318.243187 367.704438) scale(0.1 -0.1)">
       <use xlink:href="#DejaVuSans-34"/>
       <use xlink:href="#DejaVuSans-30" transform="translate(63.623047 0)"/>
       <use xlink:href="#DejaVuSans-30" transform="translate(127.246094 0)"/>
      </g>
     </g>
    </g>
    <g id="xtick_11">
     <g id="line2d_21">
      <g>
       <use xlink:href="#ma1af1ce598" x="407.720821" y="353.106" style="stroke: #000000; stroke-width: 0.8"/>
      </g>
     </g>
     <g id="text_20">
      <!-- 600 -->
      <g transform="translate(398.177071 367.704438) scale(0.1 -0.1)">
       <use xlink:href="#DejaVuSans-36"/>
       <use xlink:href="#DejaVuSans-30" transform="translate(63.623047 0)"/>
       <use xlink:href="#DejaVuSans-30" transform="translate(127.246094 0)"/>
      </g>
     </g>
    </g>
    <g id="xtick_12">
     <g id="line2d_22">
      <g>
       <use xlink:href="#ma1af1ce598" x="487.654704" y="353.106" style="stroke: #000000; stroke-width: 0.8"/>
      </g>
     </g>
     <g id="text_21">
      <!-- 800 -->
      <g transform="translate(478.110954 367.704438) scale(0.1 -0.1)">
       <use xlink:href="#DejaVuSans-38"/>
       <use xlink:href="#DejaVuSans-30" transform="translate(63.623047 0)"/>
       <use xlink:href="#DejaVuSans-30" transform="translate(127.246094 0)"/>
      </g>
     </g>
    </g>
   </g>
   <g id="matplotlib.axis_4">
    <g id="ytick_4">
     <g id="line2d_23">
      <g>
       <use xlink:href="#mfce26cbdf0" x="70.2" y="347.789773" style="stroke: #000000; stroke-width: 0.8"/>
      </g>
     </g>
     <g id="text_22">
      <!-- −10 -->
      <g transform="translate(42.095313 351.588992) scale(0.1 -0.1)">
       <use xlink:href="#DejaVuSans-2212"/>
       <use xlink:href="#DejaVuSans-31" transform="translate(83.789062 0)"/>
       <use xlink:href="#DejaVuSans-30" transform="translate(147.412109 0)"/>
      </g>
     </g>
    </g>
    <g id="ytick_5">
     <g id="line2d_24">
      <g>
       <use xlink:href="#mfce26cbdf0" x="70.2" y="319.951928" style="stroke: #000000; stroke-width: 0.8"/>
      </g>
     </g>
     <g id="text_23">
      <!-- −5 -->
      <g transform="translate(48.457813 323.751147) scale(0.1 -0.1)">
       <use xlink:href="#DejaVuSans-2212"/>
       <use xlink:href="#DejaVuSans-35" transform="translate(83.789062 0)"/>
      </g>
     </g>
    </g>
    <g id="ytick_6">
     <g id="line2d_25">
      <g>
       <use xlink:href="#mfce26cbdf0" x="70.2" y="292.114082" style="stroke: #000000; stroke-width: 0.8"/>
      </g>
     </g>
     <g id="text_24">
      <!-- 0 -->
      <g transform="translate(56.8375 295.913301) scale(0.1 -0.1)">
       <use xlink:href="#DejaVuSans-30"/>
      </g>
     </g>
    </g>
    <g id="ytick_7">
     <g id="line2d_26">
      <g>
       <use xlink:href="#mfce26cbdf0" x="70.2" y="264.276237" style="stroke: #000000; stroke-width: 0.8"/>
      </g>
     </g>
     <g id="text_25">
      <!-- 5 -->
      <g transform="translate(56.8375 268.075456) scale(0.1 -0.1)">
       <use xlink:href="#DejaVuSans-35"/>
      </g>
     </g>
    </g>
    <g id="text_26">
     <!-- ΔΔLL (bits) -->
     <g transform="translate(36.015625 322.22225) rotate(-90) scale(0.1 -0.1)">
      <use xlink:href="#DejaVuSans-394"/>
      <use xlink:href="#DejaVuSans-394" transform="translate(68.408203 0)"/>
      <use xlink:href="#DejaVuSans-4c" transform="translate(136.816406 0)"/>
      <use xlink:href="#DejaVuSans-4c" transform="translate(192.529297 0)"/>
      <use xlink:href="#DejaVuSans-20" transform="translate(248.242188 0)"/>
      <use xlink:href="#DejaVuSans-28" transform="translate(280.029297 0)"/>
      <use xlink:href="#DejaVuSans-62" transform="translate(319.042969 0)"/>
      <use xlink:href="#DejaVuSans-69" transform="translate(382.519531 0)"/>
      <use xlink:href="#DejaVuSans-74" transform="translate(410.302734 0)"/>
      <use xlink:href="#DejaVuSans-73" transform="translate(449.511719 0)"/>
      <use xlink:href="#DejaVuSans-29" transform="translate(501.611328 0)"/>
     </g>
    </g>
   </g>
   <g id="line2d_27">
    <path d="M 167.91917 353.106 
L 167.91917 237.276 
" clip-path="url(#p4d760c8f43)" style="fill: none; stroke-dasharray: 2.96,1.28; stroke-dashoffset: 0; stroke: #000000; stroke-width: 0.8"/>
   </g>
   <g id="line2d_28">
    <path d="M 70.2 292.114082 
L 505.44 292.114082 
" clip-path="url(#p4d760c8f43)" style="fill: none; stroke-dasharray: 0.8,1.32; stroke-dashoffset: 0; stroke: #000000; stroke-width: 0.8"/>
   </g>
   <g id="line2d_29">
    <path d="M 89.983636 299.244692 
L 93.980327 263.742241 
L 97.977023 281.503519 
L 101.973713 269.318076 
L 105.97041 298.731205 
L 109.967106 270.27415 
L 113.963796 291.872806 
L 117.960493 274.64363 
L 121.957186 300.407989 
L 125.953882 295.212894 
L 129.950576 263.000134 
L 133.947269 270.455472 
L 137.943962 299.06775 
L 141.940659 297.66171 
L 145.937352 338.607793 
L 149.934045 313.881744 
L 153.93074 272.137575 
L 157.927434 316.93421 
L 161.924129 299.287582 
L 165.920823 270.594576 
L 169.917517 298.374042 
L 173.914211 268.973044 
L 177.910906 301.090102 
L 181.9076 288.988395 
L 185.904294 273.348135 
L 189.900988 319.012701 
L 193.897681 327.513035 
L 197.894377 319.483639 
L 201.891071 248.442294 
L 205.887764 264.255125 
L 209.884457 298.245085 
L 213.881154 277.094939 
L 217.877847 292.428206 
L 221.874543 322.828432 
L 225.871234 320.476357 
L 229.86793 295.534303 
L 233.864626 285.933932 
L 237.861317 270.303319 
L 241.858013 310.672559 
L 245.854704 292.875875 
L 249.8514 266.697538 
L 253.848096 285.901741 
L 257.844787 293.398048 
L 261.841483 283.626263 
L 265.838179 290.133929 
L 269.83487 338.445061 
L 273.83156 280.816227 
L 277.828262 293.471663 
L 281.824953 253.718841 
L 285.821643 298.698331 
L 289.818345 293.467664 
L 293.815036 330.773136 
L 297.811726 291.117214 
L 301.808428 282.750078 
L 305.805119 300.942917 
L 309.801809 300.081062 
L 313.798511 286.08788 
L 317.795202 297.820494 
L 321.791892 312.270874 
L 325.788594 242.541 
L 329.785285 280.610194 
L 333.781975 328.069975 
L 337.778677 304.641014 
L 341.775368 278.071941 
L 345.772058 298.845234 
L 349.76876 286.040859 
L 353.765451 287.574866 
L 357.762141 308.019693 
L 361.758843 290.852625 
L 365.755534 311.69702 
L 369.752224 297.378782 
L 373.748914 300.290011 
L 377.745605 312.516254 
L 381.742319 294.648904 
L 385.739009 288.929113 
L 389.7357 272.560085 
L 393.73239 295.1402 
L 397.72908 347.841 
L 401.725771 286.878698 
L 405.722485 287.289767 
L 409.719175 259.488695 
L 413.715866 288.85599 
L 417.712556 261.032183 
L 421.709246 305.961425 
L 425.705937 322.667549 
L 429.702627 293.025908 
L 433.699341 264.568555 
L 437.696032 300.400169 
L 441.692722 289.134089 
L 445.689412 280.85536 
L 449.686103 312.930866 
L 453.682793 254.384565 
L 457.679507 286.770029 
L 461.676198 291.855462 
L 465.672888 308.039581 
L 469.669578 254.488545 
L 473.666269 302.192331 
L 477.662959 306.370564 
L 481.659673 279.283607 
L 485.656364 305.727473 
" clip-path="url(#p4d760c8f43)" style="fill: none; stroke: #d62728; stroke-width: 2.2; stroke-linecap: square"/>
   </g>
   <g id="line2d_30">
    <defs>
     <path id="mc0536cf549" d="M 0 1.25 
C 0.331504 1.25 0.649475 1.118292 0.883883 0.883883 
C 1.118292 0.649475 1.25 0.331504 1.25 0 
C 1.25 -0.331504 1.118292 -0.649475 0.883883 -0.883883 
C 0.649475 -1.118292 0.331504 -1.25 0 -1.25 
C -0.331504 -1.25 -0.649475 -1.118292 -0.883883 -0.883883 
C -1.118292 -0.649475 -1.25 -0.331504 -1.25 0 
C -1.25 0.331504 -1.118292 0.649475 -0.883883 0.883883 
C -0.649475 1.118292 -0.331504 1.25 0 1.25 
z
" style="stroke: #000000"/>
    </defs>
    <g clip-path="url(#p4d760c8f43)">
     <use xlink:href="#mc0536cf549" x="129.950576" y="263.000134" style="stroke: #000000"/>
     <use xlink:href="#mc0536cf549" x="145.937352" y="338.607793" style="stroke: #000000"/>
     <use xlink:href="#mc0536cf549" x="165.920823" y="270.594576" style="stroke: #000000"/>
     <use xlink:href="#mc0536cf549" x="193.897681" y="327.513035" style="stroke: #000000"/>
     <use xlink:href="#mc0536cf549" x="201.891071" y="248.442294" style="stroke: #000000"/>
     <use xlink:href="#mc0536cf549" x="213.881154" y="277.094939" style="stroke: #000000"/>
     <use xlink:href="#mc0536cf549" x="225.871234" y="320.476357" style="stroke: #000000"/>
     <use xlink:href="#mc0536cf549" x="269.83487" y="338.445061" style="stroke: #000000"/>
     <use xlink:href="#mc0536cf549" x="281.824953" y="253.718841" style="stroke: #000000"/>
     <use xlink:href="#mc0536cf549" x="285.821643" y="298.698331" style="stroke: #000000"/>
     <use xlink:href="#mc0536cf549" x="293.815036" y="330.773136" style="stroke: #000000"/>
     <use xlink:href="#mc0536cf549" x="325.788594" y="242.541" style="stroke: #000000"/>
     <use xlink:href="#mc0536cf549" x="397.72908" y="347.841" style="stroke: #000000"/>
     <use xlink:href="#mc0536cf549" x="417.712556" y="261.032183" style="stroke: #000000"/>
     <use xlink:href="#mc0536cf549" x="425.705937" y="322.667549" style="stroke: #000000"/>
     <use xlink:href="#mc0536cf549" x="433.699341" y="264.568555" style="stroke: #000000"/>
    </g>
   </g>
   <g id="patch_10">
    <path d="M 70.2 353.106 
L 70.2 237.276 
" style="fill: none; stroke: #000000; stroke-width: 0.8; stroke-linejoin: miter; stroke-linecap: square"/>
   </g>
   <g id="patch_11">
    <path d="M 505.44 353.106 
L 505.44 237.276 
" style="fill: none; stroke: #000000; stroke-width: 0.8; stroke-linejoin: miter; stroke-linecap: square"/>
   </g>
   <g id="patch_12">
    <path d="M 70.2 353.106 
L 505.44 353.106 
" style="fill: none; stroke: #000000; stroke-width: 0.8; stroke-linejoin: miter; stroke-linecap: square"/>
   </g>
   <g id="patch_13">
    <path d="M 70.2 237.276 
L 505.44 237.276 
" style="fill: none; stroke: #000000; stroke-width: 0.8; stroke-linejoin: miter; stroke-linecap: square"/>
   </g>
   <g id="text_27">
    <!-- Panel B: pair-diff with significance dots -->
    <g transform="translate(171.554063 231.276) scale(0.12 -0.12)">
     <defs>
      <path id="DejaVuSans-42" d="M 1259 2228 
L 1259 519 
L 2272 519 
Q 2781 519 3026 730 
Q 3272 941 3272 1375 
Q 3272 1813 3026 2020 
Q 2781 2228 2272 2228 
L 1259 2228 
z
M 1259 4147 
L 1259 2741 
L 2194 2741 
Q 2656 2741 2882 2914 
Q 3109 3088 3109 3444 
Q 3109 3797 2882 3972 
Q 2656 4147 2194 4147 
L 1259 4147 
z
M 628 4666 
L 2241 4666 
Q 2963 4666 3353 4366 
Q 3744 4066 3744 3513 
Q 3744 3084 3544 2831 
Q 3344 2578 2956 2516 
Q 3422 2416 3680 2098 
Q 3938 1781 3938 1306 
Q 3938 681 3513 340 
Q 3088 0 2303 0 
L 628 0 
L 628 4666 
z
" transform="scale(0.015625)"/>
      <path id="DejaVuSans-70" d="M 1159 525 
L 1159 -1331 
L 581 -1331 
L 581 3500 
L 1159 3500 
L 1159 2969 
Q 1341 3281 1617 3432 
Q 1894 3584 2278 3584 
Q 2916 3584 3314 3078 
Q 3713 2572 3713 1747 
Q 3713 922 3314 415 
Q 2916 -91 2278 -91 
Q 1894 -91 1617 61 
Q 1341 213 1159 525 
z
M 3116 1747 
Q 3116 2381 2855 2742 
Q 2594 3103 2138 3103 
Q 1681 3103 1420 2742 
Q 1159 2381 1159 1747 
Q 1159 1113 1420 752 
Q 1681 391 2138 391 
Q 2594 391 2855 752 
Q 3116 1113 3116 1747 
z
" transform="scale(0.015625)"/>
      <path id="DejaVuSans-68" d="M 3513 2113 
L 3513 0 
L 2938 0 
L 2938 2094 
Q 2938 2591 2744 2837 
Q 2550 3084 2163 3084 
Q 1697 3084 1428 2787 
Q 1159 2491 1159 1978 
L 1159 0 
L 581 0 
L 581 4863 
L 1159 4863 
L 1159 2956 
Q 1366 3272 1645 3428 
Q 1925 3584 2291 3584 
Q 2894 3584 3203 3211 
Q 3513 2838 3513 2113 
z
" transform="scale(0.015625)"/>
      <path id="DejaVuSans-67" d="M 2906 1791 
Q 2906 2416 2648 2759 
Q 2391 3103 1925 3103 
Q 1463 3103 1205 2759 
Q 947 2416 947 1791 
Q 947 1169 1205 825 
Q 1463 481 1925 481 
Q 2391 481 2648 825 
Q 2906 1169 2906 1791 
z
M 3481 434 
Q 3481 -459 3084 -895 
Q 2688 -1331 1869 -1331 
Q 1566 -1331 1297 -1286 
Q 1028 -1241 775 -1147 
L 775 -588 
Q 1028 -725 1275 -790 
Q 1522 -856 1778 -856 
Q 2344 -856 2625 -561 
Q 2906 -266 2906 331 
L 2906 616 
Q 2728 306 2450 153 
Q 2172 0 1784 0 
Q 1141 0 747 490 
Q 353 981 353 1791 
Q 353 2603 747 3093 
Q 1141 3584 1784 3584 
Q 2172 3584 2450 3431 
Q 2728 3278 2906 2969 
L 2906 3500 
L 3481 3500 
L 3481 434 
z
" transform="scale(0.015625)"/>
      <path id="DejaVuSans-63" d="M 3122 3366 
L 3122 2828 
Q 2878 2963 2633 3030 
Q 2388 3097 2138 3097 
Q 1578 3097 1268 2742 
Q 959 2388 959 1747 
Q 959 1106 1268 751 
Q 1578 397 2138 397 
Q 2388 397 2633 464 
Q 2878 531 3122 666 
L 3122 134 
Q 2881 22 2623 -34 
Q 2366 -91 2075 -91 
Q 1284 -91 818 406 
Q 353 903 353 1747 
Q 353 2603 823 3093 
Q 1294 3584 2113 3584 
Q 2378 3584 2631 3529 
Q 2884 3475 3122 3366 
z
" transform="scale(0.015625)"/>
     </defs>
     <use xlink:href="#DejaVuSans-50"/>
     <use xlink:href="#DejaVuSans-61" transform="translate(55.802734 0)"/>
     <use xlink:href="#DejaVuSans-6e" transform="translate(117.082031 0)"/>
     <use xlink:href="#DejaVuSans-65" transform="translate(180.460938 0)"/>
     <use xlink:href="#DejaVuSans-6c" transform="translate(241.984375 0)"/>
     <use xlink:href="#DejaVuSans-20" transform="translate(269.767578 0)"/>
     <use xlink:href="#DejaVuSans-42" transform="translate(301.554688 0)"/>
     <use xlink:href="#DejaVuSans-3a" transform="translate(370.158203 0)"/>
     <use xlink:href="#DejaVuSans-20" transform="translate(403.849609 0)"/>
     <use xlink:href="#DejaVuSans-70" transform="translate(435.636719 0)"/>
     <use xlink:href="#DejaVuSans-61" transform="translate(499.113281 0)"/>
     <use xlink:href="#DejaVuSans-69" transform="translate(560.392578 0)"/>
     <use xlink:href="#DejaVuSans-72" transform="translate(588.175781 0)"/>
     <use xlink:href="#DejaVuSans-2d" transform="translate(622.914062 0)"/>
     <use xlink:href="#DejaVuSans-64" transform="translate(658.998047 0)"/>
     <use xlink:href="#DejaVuSans-69" transform="translate(722.474609 0)"/>
     <use xlink:href="#DejaVuSans-66" transform="translate(750.257812 0)"/>
     <use xlink:href="#DejaVuSans-66" transform="translate(785.462891 0)"/>
     <use xlink:href="#DejaVuSans-20" transform="translate(820.667969 0)"/>
     <use xlink:href="#DejaVuSans-77" transform="translate(852.455078 0)"/>
     <use xlink:href="#DejaVuSans-69" transform="translate(934.242188 0)"/>
     <use xlink:href="#DejaVuSans-74" transform="translate(962.025391 0)"/>
     <use xlink:href="#DejaVuSans-68" transform="translate(1001.234375 0)"/>
     <use xlink:href="#DejaVuSans-20" transform="translate(1064.613281 0)"/>
     <use xlink:href="#DejaVuSans-73" transform="translate(1096.400391 0)"/>
     <use xlink:href="#DejaVuSans-69" transform="translate(1148.5 0)"/>
     <use xlink:href="#DejaVuSans-67" transform="translate(1176.283203 0)"/>
     <use xlink:href="#DejaVuSans-6e" transform="translate(1239.759766 0)"/>
     <use xlink:href="#DejaVuSans-69" transform="translate(1303.138672 0)"/>
     <use xlink:href="#DejaVuSans-66" transform="translate(1330.921875 0)"/>
     <use xlink:href="#DejaVuSans-69" transform="translate(1366.126953 0)"/>
     <use xlink:href="#DejaVuSans-63" transform="translate(1393.910156 0)"/>
     <use xlink:href="#DejaVuSans-61" transform="translate(1448.890625 0)"/>
     <use xlink:href="#DejaVuSans-6e" transform="translate(1510.169922 0)"/>
     <use xlink:href="#DejaVuSans-63" transform="translate(1573.548828 0)"/>
     <use xlink:href="#DejaVuSans-65" transform="translate(1628.529297 0)"/>
     <use xlink:href="#DejaVuSans-20" transform="translate(1690.052734 0)"/>
     <use xlink:href="#DejaVuSans-64" transform="translate(1721.839844 0)"/>
     <use xlink:href="#DejaVuSans-6f" transform="translate(1785.316406 0)"/>
     <use xlink:href="#DejaVuSans-74" transform="translate(1846.498047 0)"/>
     <use xlink:href="#DejaVuSans-73" transform="translate(1885.707031 0)"/>
    </g>
   </g>
   <g id="legend_2">
    <g id="line2d_31">
     <path d="M 79.2 250.374437 
L 89.2 250.374437 
L 99.2 250.374437 
" style="fill: none; stroke: #d62728; stroke-width: 2.2; stroke-linecap: square"/>
    </g>
    <g id="text_28">
     <!-- (A→B − B→A) -->
     <g transform="translate(107.2 253.874437) scale(0.1 -0.1)">
      <use xlink:href="#DejaVuSans-28"/>
      <use xlink:href="#DejaVuSans-41" transform="translate(39.013672 0)"/>
      <use xlink:href="#DejaVuSans-2192" transform="translate(107.421875 0)"/>
      <use xlink:href="#DejaVuSans-42" transform="translate(191.210938 0)"/>
      <use xlink:href="#DejaVuSans-20" transform="translate(259.814453 0)"/>
      <use xlink:href="#DejaVuSans-2212" transform="translate(291.601562 0)"/>
      <use xlink:href="#DejaVuSans-20" transform="translate(375.390625 0)"/>
      <use xlink:href="#DejaVuSans-42" transform="translate(407.177734 0)"/>
      <use xlink:href="#DejaVuSans-2192" transform="translate(475.78125 0)"/>
      <use xlink:href="#DejaVuSans-41" transform="translate(559.570312 0)"/>
      <use xlink:href="#DejaVuSans-29" transform="translate(627.978516 0)"/>
     </g>
    </g>
    <g id="line2d_32">
     <g>
      <use xlink:href="#mc0536cf549" x="89.2" y="265.052563" style="stroke: #000000"/>
     </g>
    </g>
    <g id="text_29">
     <!-- p&lt;0.05 (one-sided) -->
     <g transform="translate(107.2 268.552563) scale(0.1 -0.1)">
      <defs>
       <path id="DejaVuSans-3c" d="M 4684 3150 
L 1459 2003 
L 4684 863 
L 4684 294 
L 678 1747 
L 678 2266 
L 4684 3719 
L 4684 3150 
z
" transform="scale(0.015625)"/>
       <path id="DejaVuSans-2e" d="M 684 794 
L 1344 794 
L 1344 0 
L 684 0 
L 684 794 
z
" transform="scale(0.015625)"/>
      </defs>
      <use xlink:href="#DejaVuSans-70"/>
      <use xlink:href="#DejaVuSans-3c" transform="translate(63.476562 0)"/>
      <use xlink:href="#DejaVuSans-30" transform="translate(147.265625 0)"/>
      <use xlink:href="#DejaVuSans-2e" transform="translate(210.888672 0)"/>
      <use xlink:href="#DejaVuSans-30" transform="translate(242.675781 0)"/>
      <use xlink:href="#DejaVuSans-35" transform="translate(306.298828 0)"/>
      <use xlink:href="#DejaVuSans-20" transform="translate(369.921875 0)"/>
      <use xlink:href="#DejaVuSans-28" transform="translate(401.708984 0)"/>
      <use xlink:href="#DejaVuSans-6f" transform="translate(440.722656 0)"/>
      <use xlink:href="#DejaVuSans-6e" transform="translate(501.904297 0)"/>
      <use xlink:href="#DejaVuSans-65" transform="translate(565.283203 0)"/>
      <use xlink:href="#DejaVuSans-2d" transform="translate(626.806641 0)"/>
      <use xlink:href="#DejaVuSans-73" transform="translate(662.890625 0)"/>
      <use xlink:href="#DejaVuSans-69" transform="translate(714.990234 0)"/>
      <use xlink:href="#DejaVuSans-64" transform="translate(742.773438 0)"/>
      <use xlink:href="#DejaVuSans-65" transform="translate(806.25 0)"/>
      <use xlink:href="#DejaVuSans-64" transform="translate(867.773438 0)"/>
      <use xlink:href="#DejaVuSans-29" transform="translate(931.25 0)"/>
     </g>
    </g>
   </g>
  </g>
  <g id="axes_3">
   <g id="patch_14">
    <path d="M 70.2 499.824 
L 505.44 499.824 
L 505.44 383.994 
L 70.2 383.994 
z
" style="fill: #ffffff"/>
   </g>
   <g id="matplotlib.axis_5">
    <g id="xtick_13">
     <g id="line2d_33">
      <g>
       <use xlink:href="#ma1af1ce598" x="87.985286" y="499.824" style="stroke: #000000; stroke-width: 0.8"/>
      </g>
     </g>
     <g id="text_30">
      <!-- −200 -->
      <g transform="translate(74.251693 514.422438) scale(0.1 -0.1)">
       <use xlink:href="#DejaVuSans-2212"/>
       <use xlink:href="#DejaVuSans-32" transform="translate(83.789062 0)"/>
       <use xlink:href="#DejaVuSans-30" transform="translate(147.412109 0)"/>
       <use xlink:href="#DejaVuSans-30" transform="translate(211.035156 0)"/>
      </g>
     </g>
    </g>
    <g id="xtick_14">
     <g id="line2d_34">
      <g>
       <use xlink:href="#ma1af1ce598" x="167.91917" y="499.824" style="stroke: #000000; stroke-width: 0.8"/>
      </g>
     </g>
     <g id="text_31">
      <!-- 0 -->
      <g transform="translate(164.73792 514.422438) scale(0.1 -0.1)">
       <use xlink:href="#DejaVuSans-30"/>
      </g>
     </g>
    </g>
    <g id="xtick_15">
     <g id="line2d_35">
      <g>
       <use xlink:href="#ma1af1ce598" x="247.853053" y="499.824" style="stroke: #000000; stroke-width: 0.8"/>
      </g>
     </g>
     <g id="text_32">
      <!-- 200 -->
      <g transform="translate(238.309303 514.422438) scale(0.1 -0.1)">
       <use xlink:href="#DejaVuSans-32"/>
       <use xlink:href="#DejaVuSans-30" transform="translate(63.623047 0)"/>
       <use xlink:href="#DejaVuSans-30" transform="translate(127.246094 0)"/>
      </g>
     </g>
    </g>
    <g id="xtick_16">
     <g id="line2d_36">
      <g>
       <use xlink:href="#ma1af1ce598" x="327.786937" y="499.824" style="stroke: #000000; stroke-width: 0.8"/>
      </g>
     </g>
     <g id="text_33">
      <!-- 400 -->
      <g transform="translate(318.243187 514.422438) scale(0.1 -0.1)">
       <use xlink:href="#DejaVuSans-34"/>
       <use xlink:href="#DejaVuSans-30" transform="translate(63.623047 0)"/>
       <use xlink:href="#DejaVuSans-30" transform="translate(127.246094 0)"/>
      </g>
     </g>
    </g>
    <g id="xtick_17">
     <g id="line2d_37">
      <g>
       <use xlink:href="#ma1af1ce598" x="407.720821" y="499.824" style="stroke: #000000; stroke-width: 0.8"/>
      </g>
     </g>
     <g id="text_34">
      <!-- 600 -->
      <g transform="translate(398.177071 514.422438) scale(0.1 -0.1)">
       <use xlink:href="#DejaVuSans-36"/>
       <use xlink:href="#DejaVuSans-30" transform="translate(63.623047 0)"/>
       <use xlink:href="#DejaVuSans-30" transform="translate(127.246094 0)"/>
      </g>
     </g>
    </g>
    <g id="xtick_18">
     <g id="line2d_38">
      <g>
       <use xlink:href="#ma1af1ce598" x="487.654704" y="499.824" style="stroke: #000000; stroke-width: 0.8"/>
      </g>
     </g>
     <g id="text_35">
      <!-- 800 -->
      <g transform="translate(478.110954 514.422438) scale(0.1 -0.1)">
       <use xlink:href="#DejaVuSans-38"/>
       <use xlink:href="#DejaVuSans-30" transform="translate(63.623047 0)"/>
       <use xlink:href="#DejaVuSans-30" transform="translate(127.246094 0)"/>
      </g>
     </g>
    </g>
    <g id="text_36">
     <!-- Time (ms) -->
     <g transform="translate(262.620781 528.100563) scale(0.1 -0.1)">
      <defs>
       <path id="DejaVuSans-54" d="M -19 4666 
L 3928 4666 
L 3928 4134 
L 2272 4134 
L 2272 0 
L 1638 0 
L 1638 4134 
L -19 4134 
L -19 4666 
z
" transform="scale(0.015625)"/>
       <path id="DejaVuSans-6d" d="M 3328 2828 
Q 3544 3216 3844 3400 
Q 4144 3584 4550 3584 
Q 5097 3584 5394 3201 
Q 5691 2819 5691 2113 
L 5691 0 
L 5113 0 
L 5113 2094 
Q 5113 2597 4934 2840 
Q 4756 3084 4391 3084 
Q 3944 3084 3684 2787 
Q 3425 2491 3425 1978 
L 3425 0 
L 2847 0 
L 2847 2094 
Q 2847 2600 2669 2842 
Q 2491 3084 2119 3084 
Q 1678 3084 1418 2786 
Q 1159 2488 1159 1978 
L 1159 0 
L 581 0 
L 581 3500 
L 1159 3500 
L 1159 2956 
Q 1356 3278 1631 3431 
Q 1906 3584 2284 3584 
Q 2666 3584 2933 3390 
Q 3200 3197 3328 2828 
z
" transform="scale(0.015625)"/>
      </defs>
      <use xlink:href="#DejaVuSans-54"/>
      <use xlink:href="#DejaVuSans-69" transform="translate(57.958984 0)"/>
      <use xlink:href="#DejaVuSans-6d" transform="translate(85.742188 0)"/>
      <use xlink:href="#DejaVuSans-65" transform="translate(183.154297 0)"/>
      <use xlink:href="#DejaVuSans-20" transform="translate(244.677734 0)"/>
      <use xlink:href="#DejaVuSans-28" transform="translate(276.464844 0)"/>
      <use xlink:href="#DejaVuSans-6d" transform="translate(315.478516 0)"/>
      <use xlink:href="#DejaVuSans-73" transform="translate(412.890625 0)"/>
      <use xlink:href="#DejaVuSans-29" transform="translate(464.990234 0)"/>
     </g>
    </g>
   </g>
   <g id="matplotlib.axis_6">
    <g id="ytick_8">
     <g id="line2d_39">
      <g>
       <use xlink:href="#mfce26cbdf0" x="70.2" y="488.979556" style="stroke: #000000; stroke-width: 0.8"/>
      </g>
     </g>
     <g id="text_37">
      <!-- −2 -->
      <g transform="translate(48.457813 492.778774) scale(0.1 -0.1)">
       <use xlink:href="#DejaVuSans-2212"/>
       <use xlink:href="#DejaVuSans-32" transform="translate(83.789062 0)"/>
      </g>
     </g>
    </g>
    <g id="ytick_9">
     <g id="line2d_40">
      <g>
       <use xlink:href="#mfce26cbdf0" x="70.2" y="453.527228" style="stroke: #000000; stroke-width: 0.8"/>
      </g>
     </g>
     <g id="text_38">
      <!-- 0 -->
      <g transform="translate(56.8375 457.326447) scale(0.1 -0.1)">
       <use xlink:href="#DejaVuSans-30"/>
      </g>
     </g>
    </g>
    <g id="ytick_10">
     <g id="line2d_41">
      <g>
       <use xlink:href="#mfce26cbdf0" x="70.2" y="418.074901" style="stroke: #000000; stroke-width: 0.8"/>
      </g>
     </g>
     <g id="text_39">
      <!-- 2 -->
      <g transform="translate(56.8375 421.87412) scale(0.1 -0.1)">
       <use xlink:href="#DejaVuSans-32"/>
      </g>
     </g>
    </g>
    <g id="text_40">
     <!-- Z (σ from null) -->
     <g transform="translate(42.378125 477.919938) rotate(-90) scale(0.1 -0.1)">
      <defs>
       <path id="DejaVuSans-5a" d="M 359 4666 
L 4025 4666 
L 4025 4184 
L 1075 531 
L 4097 531 
L 4097 0 
L 288 0 
L 288 481 
L 3238 4134 
L 359 4134 
L 359 4666 
z
" transform="scale(0.015625)"/>
      </defs>
      <use xlink:href="#DejaVuSans-5a"/>
      <use xlink:href="#DejaVuSans-20" transform="translate(68.505859 0)"/>
      <use xlink:href="#DejaVuSans-28" transform="translate(100.292969 0)"/>
      <use xlink:href="#DejaVuSans-3c3" transform="translate(139.306641 0)"/>
      <use xlink:href="#DejaVuSans-20" transform="translate(202.685547 0)"/>
      <use xlink:href="#DejaVuSans-66" transform="translate(234.472656 0)"/>
      <use xlink:href="#DejaVuSans-72" transform="translate(269.677734 0)"/>
      <use xlink:href="#DejaVuSans-6f" transform="translate(308.541016 0)"/>
      <use xlink:href="#DejaVuSans-6d" transform="translate(369.722656 0)"/>
      <use xlink:href="#DejaVuSans-20" transform="translate(467.134766 0)"/>
      <use xlink:href="#DejaVuSans-6e" transform="translate(498.921875 0)"/>
      <use xlink:href="#DejaVuSans-75" transform="translate(562.300781 0)"/>
      <use xlink:href="#DejaVuSans-6c" transform="translate(625.679688 0)"/>
      <use xlink:href="#DejaVuSans-6c" transform="translate(653.462891 0)"/>
      <use xlink:href="#DejaVuSans-29" transform="translate(681.246094 0)"/>
     </g>
    </g>
   </g>
   <g id="line2d_42">
    <path d="M 167.91917 499.824 
L 167.91917 383.994 
" clip-path="url(#pd7a701d308)" style="fill: none; stroke-dasharray: 2.96,1.28; stroke-dashoffset: 0; stroke: #000000; stroke-width: 0.8"/>
   </g>
   <g id="line2d_43">
    <path d="M 89.983636 461.007251 
L 93.980327 446.076672 
L 97.977023 438.939363 
L 101.973713 426.070733 
L 105.97041 449.75354 
L 109.967106 439.113248 
L 113.963796 441.262459 
L 117.960493 423.448837 
L 121.957186 442.336019 
L 125.953882 420.079984 
L 129.950576 417.980461 
L 133.947269 430.767069 
L 137.943962 439.71829 
L 141.940659 438.128136 
L 145.937352 453.465745 
L 149.934045 473.716667 
L 153.93074 430.313262 
L 157.927434 457.69788 
L 161.924129 432.590552 
L 165.920823 417.230404 
L 169.917517 449.467602 
L 173.914211 430.804312 
L 177.910906 442.707923 
L 181.9076 439.178855 
L 185.904294 444.411628 
L 189.900988 469.714336 
L 193.897681 450.479324 
L 197.894377 460.358992 
L 201.891071 411.656664 
L 205.887764 435.922735 
L 209.884457 447.997466 
L 213.881154 417.437825 
L 217.877847 443.528735 
L 221.874543 468.026408 
L 225.871234 449.503689 
L 229.86793 439.798002 
L 233.864626 468.426788 
L 237.861317 426.7902 
L 241.858013 479.970577 
L 245.854704 461.455083 
L 249.8514 430.160808 
L 253.848096 416.805603 
L 257.844787 447.728192 
L 261.841483 457.286078 
L 265.838179 457.457837 
L 269.83487 472.423838 
L 273.83156 440.599642 
L 277.828262 441.885843 
L 281.824953 389.259 
L 285.821643 431.801421 
L 289.818345 474.552964 
L 293.815036 454.694827 
L 297.811726 440.277885 
L 301.808428 447.918252 
L 305.805119 447.298999 
L 309.801809 475.104936 
L 313.798511 451.806854 
L 317.795202 440.206224 
L 321.791892 464.982446 
L 325.788594 409.185209 
L 329.785285 465.006686 
L 333.781975 480.480994 
L 337.778677 466.34555 
L 341.775368 445.46285 
L 345.772058 460.362612 
L 349.76876 444.153868 
L 353.765451 436.71693 
L 357.762141 461.38761 
L 361.758843 452.501293 
L 365.755534 474.934408 
L 369.752224 450.657736 
L 373.748914 461.773302 
L 377.745605 453.500116 
L 381.742319 446.788693 
L 385.739009 447.799216 
L 389.7357 462.604874 
L 393.73239 431.361725 
L 397.72908 479.083388 
L 401.725771 441.983347 
L 405.722485 452.842743 
L 409.719175 424.907205 
L 413.715866 456.886554 
L 417.712556 412.373746 
L 421.709246 470.914701 
L 425.705937 456.126563 
L 429.702627 474.721163 
L 433.699341 421.469574 
L 437.696032 459.650386 
L 441.692722 453.638318 
L 445.689412 430.185756 
L 449.686103 462.507389 
L 453.682793 427.525664 
L 457.679507 459.915526 
L 461.676198 453.218751 
L 465.672888 455.453716 
L 469.669578 444.044764 
L 473.666269 470.415849 
L 477.662959 451.943717 
L 481.659673 441.371501 
L 485.656364 465.094183 
" clip-path="url(#pd7a701d308)" style="fill: none; stroke: #1f77b4; stroke-width: 2; stroke-linecap: square"/>
   </g>
   <g id="line2d_44">
    <path d="M 89.983636 452.90586 
L 93.980327 481.542491 
L 97.977023 452.080885 
L 101.973713 455.465105 
L 105.97041 441.628861 
L 109.967106 466.270101 
L 113.963796 442.220101 
L 117.960493 446.511821 
L 121.957186 429.775779 
L 125.953882 417.370711 
L 129.950576 457.157954 
L 133.947269 459.205995 
L 137.943962 426.685236 
L 141.940659 429.787508 
L 145.937352 394.622288 
L 149.934045 446.911696 
L 153.93074 458.870673 
L 157.927434 427.431452 
L 161.924129 423.051977 
L 165.920823 447.652991 
L 169.917517 440.161356 
L 173.914211 460.941131 
L 177.910906 430.001238 
L 181.9076 443.572266 
L 185.904294 470.230472 
L 189.900988 434.219878 
L 193.897681 401.443739 
L 197.894377 426.940809 
L 201.891071 464.618732 
L 205.887764 471.165013 
L 209.884457 442.328677 
L 213.881154 439.588223 
L 217.877847 442.646955 
L 221.874543 427.224311 
L 225.871234 413.76018 
L 229.86793 433.371639 
L 233.864626 478.003404 
L 237.861317 453.492396 
L 241.858013 457.698096 
L 245.854704 461.514648 
L 249.8514 462.729231 
L 253.848096 422.326468 
L 257.844787 442.68484 
L 261.841483 468.490741 
L 265.838179 461.033213 
L 269.83487 411.718504 
L 273.83156 454.769614 
L 277.828262 438.918835 
L 281.824953 438.42695 
L 285.821643 420.871851 
L 289.818345 470.699297 
L 293.815036 404.49558 
L 297.811726 441.86149 
L 301.808428 457.762377 
L 305.805119 433.692683 
L 309.801809 463.40358 
L 313.798511 461.037702 
L 317.795202 432.878052 
L 321.791892 439.730425 
L 325.788594 474.574139 
L 329.785285 477.213321 
L 333.781975 434.553781 
L 337.778677 448.025613 
L 341.775368 461.789619 
L 345.772058 452.526812 
L 349.76876 454.314758 
L 353.765451 445.549689 
L 357.762141 441.344542 
L 361.758843 454.189526 
L 365.755534 447.45887 
L 369.752224 445.372352 
L 373.748914 449.648511 
L 377.745605 426.6966 
L 381.742319 444.061025 
L 385.739009 450.559917 
L 389.7357 486.025304 
L 393.73239 426.763938 
L 397.72908 408.770032 
L 401.725771 449.373427 
L 405.722485 458.195918 
L 409.719175 467.199382 
L 413.715866 461.059801 
L 417.712556 453.439006 
L 421.709246 452.761647 
L 425.705937 418.570597 
L 429.702627 472.036305 
L 433.699341 458.913947 
L 437.696032 448.62295 
L 441.692722 455.913768 
L 445.689412 442.901139 
L 449.686103 432.059413 
L 453.682793 477.850225 
L 457.679507 469.433973 
L 461.676198 453.375987 
L 465.672888 433.936231 
L 469.669578 494.559 
L 473.666269 457.686497 
L 477.662959 433.438456 
L 481.659673 459.220515 
L 485.656364 448.476406 
" clip-path="url(#pd7a701d308)" style="fill: none; stroke: #ff7f0e; stroke-width: 2; stroke-linecap: square"/>
   </g>
   <g id="patch_15">
    <path d="M 70.2 499.824 
L 70.2 383.994 
" style="fill: none; stroke: #000000; stroke-width: 0.8; stroke-linejoin: miter; stroke-linecap: square"/>
   </g>
   <g id="patch_16">
    <path d="M 505.44 499.824 
L 505.44 383.994 
" style="fill: none; stroke: #000000; stroke-width: 0.8; stroke-linejoin: miter; stroke-linecap: square"/>
   </g>
   <g id="patch_17">
    <path d="M 70.2 499.824 
L 505.44 499.824 
" style="fill: none; stroke: #000000; stroke-width: 0.8; stroke-linejoin: miter; stroke-linecap: square"/>
   </g>
   <g id="patch_18">
    <path d="M 70.2 383.994 
L 505.44 383.994 
" style="fill: none; stroke: #000000; stroke-width: 0.8; stroke-linejoin: miter; stroke-linecap: square"/>
   </g>
   <g id="text_41">
    <!-- Panel C: evidence strength vs null -->
    <g transform="translate(185.80125 377.994) scale(0.12 -0.12)">
     <defs>
      <path id="DejaVuSans-43" d="M 4122 4306 
L 4122 3641 
Q 3803 3938 3442 4084 
Q 3081 4231 2675 4231 
Q 1875 4231 1450 3742 
Q 1025 3253 1025 2328 
Q 1025 1406 1450 917 
Q 1875 428 2675 428 
Q 3081 428 3442 575 
Q 3803 722 4122 1019 
L 4122 359 
Q 3791 134 3420 21 
Q 3050 -91 2638 -91 
Q 1578 -91 968 557 
Q 359 1206 359 2328 
Q 359 3453 968 4101 
Q 1578 4750 2638 4750 
Q 3056 4750 3426 4639 
Q 3797 4528 4122 4306 
z
" transform="scale(0.015625)"/>
     </defs>
     <use xlink:href="#DejaVuSans-50"/>
     <use xlink:href="#DejaVuSans-61" transform="translate(55.802734 0)"/>
     <use xlink:href="#DejaVuSans-6e" transform="translate(117.082031 0)"/>
     <use xlink:href="#DejaVuSans-65" transform="translate(180.460938 0)"/>
     <use xlink:href="#DejaVuSans-6c" transform="translate(241.984375 0)"/>
     <use xlink:href="#DejaVuSans-20" transform="translate(269.767578 0)"/>
     <use xlink:href="#DejaVuSans-43" transform="translate(301.554688 0)"/>
     <use xlink:href="#DejaVuSans-3a" transform="translate(371.378906 0)"/>
     <use xlink:href="#DejaVuSans-20" transform="translate(405.070312 0)"/>
     <use xlink:href="#DejaVuSans-65" transform="translate(436.857422 0)"/>
     <use xlink:href="#DejaVuSans-76" transform="translate(498.380859 0)"/>
     <use xlink:href="#DejaVuSans-69" transform="translate(557.560547 0)"/>
     <use xlink:href="#DejaVuSans-64" transform="translate(585.34375 0)"/>
     <use xlink:href="#DejaVuSans-65" transform="translate(648.820312 0)"/>
     <use xlink:href="#DejaVuSans-6e" transform="translate(710.34375 0)"/>
     <use xlink:href="#DejaVuSans-63" transform="translate(773.722656 0)"/>
     <use xlink:href="#DejaVuSans-65" transform="translate(828.703125 0)"/>
     <use xlink:href="#DejaVuSans-20" transform="translate(890.226562 0)"/>
     <use xlink:href="#DejaVuSans-73" transform="translate(922.013672 0)"/>
     <use xlink:href="#DejaVuSans-74" transform="translate(974.113281 0)"/>
     <use xlink:href="#DejaVuSans-72" transform="translate(1013.322266 0)"/>
     <use xlink:href="#DejaVuSans-65" transform="translate(1052.185547 0)"/>
     <use xlink:href="#DejaVuSans-6e" transform="translate(1113.708984 0)"/>
     <use xlink:href="#DejaVuSans-67" transform="translate(1177.087891 0)"/>
     <use xlink:href="#DejaVuSans-74" transform="translate(1240.564453 0)"/>
     <use xlink:href="#DejaVuSans-68" transform="translate(1279.773438 0)"/>
     <use xlink:href="#DejaVuSans-20" transform="translate(1343.152344 0)"/>
     <use xlink:href="#DejaVuSans-76" transform="translate(1374.939453 0)"/>
     <use xlink:href="#DejaVuSans-73" transform="translate(1434.119141 0)"/>
     <use xlink:href="#DejaVuSans-20" transform="translate(1486.21875 0)"/>
     <use xlink:href="#DejaVuSans-6e" transform="translate(1518.005859 0)"/>
     <use xlink:href="#DejaVuSans-75" transform="translate(1581.384766 0)"/>
     <use xlink:href="#DejaVuSans-6c" transform="translate(1644.763672 0)"/>
     <use xlink:href="#DejaVuSans-6c" transform="translate(1672.546875 0)"/>
    </g>
   </g>
   <g id="legend_3">
    <g id="line2d_45">
     <path d="M 79.2 397.092438 
L 89.2 397.092438 
L 99.2 397.092438 
" style="fill: none; stroke: #1f77b4; stroke-width: 2; stroke-linecap: square"/>
    </g>
    <g id="text_42">
     <!-- z(SFEF→SLIP) -->
     <g transform="translate(107.2 400.592438) scale(0.1 -0.1)">
      <defs>
       <path id="DejaVuSans-7a" d="M 353 3500 
L 3084 3500 
L 3084 2975 
L 922 459 
L 3084 459 
L 3084 0 
L 275 0 
L 275 525 
L 2438 3041 
L 353 3041 
L 353 3500 
z
" transform="scale(0.015625)"/>
      </defs>
      <use xlink:href="#DejaVuSans-7a"/>
      <use xlink:href="#DejaVuSans-28" transform="translate(52.490234 0)"/>
      <use xlink:href="#DejaVuSans-53" transform="translate(91.503906 0)"/>
      <use xlink:href="#DejaVuSans-46" transform="translate(154.980469 0)"/>
      <use xlink:href="#DejaVuSans-45" transform="translate(212.5 0)"/>
      <use xlink:href="#DejaVuSans-46" transform="translate(275.683594 0)"/>
      <use xlink:href="#DejaVuSans-2192" transform="translate(333.203125 0)"/>
      <use xlink:href="#DejaVuSans-53" transform="translate(416.992188 0)"/>
      <use xlink:href="#DejaVuSans-4c" transform="translate(480.46875 0)"/>
      <use xlink:href="#DejaVuSans-49" transform="translate(536.181641 0)"/>
      <use xlink:href="#DejaVuSans-50" transform="translate(565.673828 0)"/>
      <use xlink:href="#DejaVuSans-29" transform="translate(625.976562 0)"/>
     </g>
    </g>
    <g id="line2d_46">
     <path d="M 79.2 411.770563 
L 89.2 411.770563 
L 99.2 411.770563 
" style="fill: none; stroke: #ff7f0e; stroke-width: 2; stroke-linecap: square"/>
    </g>
    <g id="text_43">
     <!-- z(SLIP→SFEF) -->
     <g transform="translate(107.2 415.270563) scale(0.1 -0.1)">
      <use xlink:href="#DejaVuSans-7a"/>
      <use xlink:href="#DejaVuSans-28" transform="translate(52.490234 0)"/>
      <use xlink:href="#DejaVuSans-53" transform="translate(91.503906 0)"/>
      <use xlink:href="#DejaVuSans-4c" transform="translate(154.980469 0)"/>
      <use xlink:href="#DejaVuSans-49" transform="translate(210.693359 0)"/>
      <use xlink:href="#DejaVuSans-50" transform="translate(240.185547 0)"/>
      <use xlink:href="#DejaVuSans-2192" transform="translate(300.488281 0)"/>
      <use xlink:href="#DejaVuSans-53" transform="translate(384.277344 0)"/>
      <use xlink:href="#DejaVuSans-46" transform="translate(447.753906 0)"/>
      <use xlink:href="#DejaVuSans-45" transform="translate(505.273438 0)"/>
      <use xlink:href="#DejaVuSans-46" transform="translate(568.457031 0)"/>
      <use xlink:href="#DejaVuSans-29" transform="translate(625.976562 0)"/>
     </g>
    </g>
   </g>
  </g>
 </g>
 <defs>
  <clipPath id="pdfdfa31930">
   <rect x="70.2" y="67.392" width="435.24" height="138.996"/>
  </clipPath>
  <clipPath id="p4d760c8f43">
   <rect x="70.2" y="237.276" width="435.24" height="115.83"/>
  </clipPath>
  <clipPath id="pd7a701d308">
   <rect x="70.2" y="383.994" width="435.24" height="115.83"/>
  </clipPath>
 </defs>
</svg>
