<?xml version="1.0" encoding="utf-8" standalone="no"?>
<!DOCTYPE svg PUBLIC "-//W3C//DTD SVG 1.1//EN"
  "http://www.w3.org/Graphics/SVG/1.1/DTD/svg11.dtd">
<svg xmlns:xlink="http://www.w3.org/1999/xlink" width="561.6pt" height="561.6pt" viewBox="0 0 561.6 561.6" xmlns="http://www.w3.org/2000/svg" version="1.1">
 <metadata>
  <rdf:RDF xmlns:dc="http://purl.org/dc/elements/1.1/" xmlns:cc="http://creativecommons.org/ns#" xmlns:rdf="http://www.w3.org/1999/02/22-rdf-syntax-ns#">
   <cc:Work>
    <dc:type rdf:resource="http://purl.org/dc/dcmitype/StillImage"/>
    <dc:date>2025-12-08T02:14:02.054985</dc:date>
    <dc:format>image/svg+xml</dc:format>
    <dc:creator>
     <cc:Agent>
      <dc:title>Matplotlib v3.10.5, https://matplotlib.org/</dc:title>
     </cc:Agent>
    </dc:creator>
   </cc:Work>
  </rdf:RDF>
 </metadata>
 <defs>
  <style type="text/css">*{stroke-linejoin: round; stroke-linecap: butt}</style>
 </defs>
 <g id="figure_1">
  <g id="patch_1">
   <path d="M 0 561.6 
L 561.6 561.6 
L 561.6 0 
L 0 0 
z
" style="fill: #ffffff"/>
  </g>
  <g id="axes_1">
   <g id="patch_2">
    <path d="M 70.2 206.388 
L 505.44 206.388 
L 505.44 67.392 
L 70.2 67.392 
z
" style="fill: #ffffff"/>
   </g>
   <g id="FillBetweenPolyCollection_1">
    <defs>
     <path id="mdd5a1177b5" d="M 89.983636 -426.852226 
L 89.983636 -384.154599 
L 93.980327 -385.449822 
L 97.977023 -384.529982 
L 101.973713 -384.833788 
L 105.97041 -381.158589 
L 109.967106 -381.435752 
L 113.963796 -384.316593 
L 117.960493 -381.700733 
L 121.957186 -385.073932 
L 125.953882 -383.02645 
L 129.950576 -384.792102 
L 133.947269 -385.474422 
L 137.943962 -383.078231 
L 141.940659 -385.56968 
L 145.937352 -383.676509 
L 149.934045 -387.096614 
L 153.93074 -388.797996 
L 157.927434 -383.874513 
L 161.924129 -387.763324 
L 165.920823 -383.59856 
L 169.917517 -384.977126 
L 173.914211 -384.68622 
L 177.910906 -382.564586 
L 181.9076 -385.438312 
L 185.904294 -383.173171 
L 189.900988 -382.200126 
L 193.897681 -386.399597 
L 197.894377 -384.105359 
L 201.891071 -383.515006 
L 205.887764 -386.869223 
L 209.884457 -384.330044 
L 213.881154 -386.216307 
L 217.877847 -385.712696 
L 221.874543 -384.399607 
L 225.871234 -384.625856 
L 229.86793 -385.269121 
L 233.864626 -383.981543 
L 237.861317 -384.202665 
L 241.858013 -388.662946 
L 245.854704 -382.930154 
L 249.8514 -382.247541 
L 253.848096 -384.601853 
L 257.844787 -385.009276 
L 261.841483 -384.26691 
L 265.838179 -385.778867 
L 269.83487 -386.533833 
L 273.83156 -381.267791 
L 277.828262 -385.820665 
L 281.824953 -381.822581 
L 285.821643 -383.76198 
L 289.818345 -384.789937 
L 293.815036 -386.681402 
L 297.811726 -383.265868 
L 301.808428 -384.010126 
L 305.805119 -383.401894 
L 309.801809 -386.312882 
L 313.798511 -383.914567 
L 317.795202 -384.961763 
L 321.791892 -381.935988 
L 325.788594 -383.454792 
L 329.785285 -385.99992 
L 333.781975 -382.477963 
L 337.778677 -385.571432 
L 341.775368 -384.66781 
L 345.772058 -382.819658 
L 349.76876 -383.613148 
L 353.765451 -385.957247 
L 357.762141 -384.517567 
L 361.758843 -383.30121 
L 365.755534 -385.323768 
L 369.752224 -384.415747 
L 373.748914 -385.796362 
L 377.745605 -384.263634 
L 381.742319 -384.679232 
L 385.739009 -384.003353 
L 389.7357 -382.22371 
L 393.73239 -383.820195 
L 397.72908 -383.397693 
L 401.725771 -384.249891 
L 405.722485 -382.789978 
L 409.719175 -382.979648 
L 413.715866 -386.438634 
L 417.712556 -382.750426 
L 421.709246 -382.403144 
L 425.705937 -383.884294 
L 429.702627 -382.169449 
L 433.699341 -383.152568 
L 437.696032 -383.816277 
L 441.692722 -384.361702 
L 445.689412 -384.105539 
L 449.686103 -385.189102 
L 453.682793 -382.395283 
L 457.679507 -383.939904 
L 461.676198 -381.049237 
L 465.672888 -383.037198 
L 469.669578 -383.778719 
L 473.666269 -386.333712 
L 477.662959 -380.057163 
L 481.659673 -385.279654 
L 485.656364 -385.219956 
L 485.656364 -427.709387 
L 485.656364 -427.709387 
L 481.659673 -428.813072 
L 477.662959 -423.111356 
L 473.666269 -428.751285 
L 469.669578 -423.63001 
L 465.672888 -423.549266 
L 461.676198 -420.916767 
L 457.679507 -426.996392 
L 453.682793 -422.77239 
L 449.686103 -426.823929 
L 445.689412 -424.743176 
L 441.692722 -424.816069 
L 437.696032 -428.595408 
L 433.699341 -424.248004 
L 429.702627 -422.51986 
L 425.705937 -427.93457 
L 421.709246 -424.83293 
L 417.712556 -426.825689 
L 413.715866 -429.23479 
L 409.719175 -425.47399 
L 405.722485 -422.07552 
L 401.725771 -426.156334 
L 397.72908 -425.32152 
L 393.73239 -425.706756 
L 389.7357 -424.935365 
L 385.739009 -427.989338 
L 381.742319 -427.443835 
L 377.745605 -427.205326 
L 373.748914 -428.847206 
L 369.752224 -430.781508 
L 365.755534 -428.489447 
L 361.758843 -422.808076 
L 357.762141 -424.825929 
L 353.765451 -426.574136 
L 349.76876 -426.659975 
L 345.772058 -426.777919 
L 341.775368 -427.910773 
L 337.778677 -428.537378 
L 333.781975 -424.806708 
L 329.785285 -425.469185 
L 325.788594 -425.816337 
L 321.791892 -423.392326 
L 317.795202 -426.613753 
L 313.798511 -426.566088 
L 309.801809 -430.207093 
L 305.805119 -424.142001 
L 301.808428 -428.081978 
L 297.811726 -424.738809 
L 293.815036 -431.149715 
L 289.818345 -426.87697 
L 285.821643 -427.29499 
L 281.824953 -423.331023 
L 277.828262 -426.473656 
L 273.83156 -423.926073 
L 269.83487 -427.591611 
L 265.838179 -428.062538 
L 261.841483 -425.39613 
L 257.844787 -427.050523 
L 253.848096 -427.660301 
L 249.8514 -425.835522 
L 245.854704 -422.965386 
L 241.858013 -430.840297 
L 237.861317 -424.927192 
L 233.864626 -426.679038 
L 229.86793 -429.478415 
L 225.871234 -428.322257 
L 221.874543 -425.620743 
L 217.877847 -426.247815 
L 213.881154 -429.476383 
L 209.884457 -429.630082 
L 205.887764 -429.93019 
L 201.891071 -427.300489 
L 197.894377 -426.87859 
L 193.897681 -427.749295 
L 189.900988 -423.106215 
L 185.904294 -428.059314 
L 181.9076 -430.485191 
L 177.910906 -425.152363 
L 173.914211 -429.877049 
L 169.917517 -427.951372 
L 165.920823 -427.066124 
L 161.924129 -431.109288 
L 157.927434 -424.04751 
L 153.93074 -430.920694 
L 149.934045 -428.189577 
L 145.937352 -429.204487 
L 141.940659 -427.99871 
L 137.943962 -426.030721 
L 133.947269 -427.202754 
L 129.950576 -424.827224 
L 125.953882 -427.077085 
L 121.957186 -427.067065 
L 117.960493 -421.989506 
L 113.963796 -427.778691 
L 109.967106 -422.865647 
L 105.97041 -423.158752 
L 101.973713 -425.20781 
L 97.977023 -428.332257 
L 93.980327 -427.842746 
L 89.983636 -426.852226 
z
"/>
    </defs>
    <g clip-path="url(#pa92f13ffbf)">
     <use xlink:href="#mdd5a1177b5" x="0" y="561.6" style="fill: #1f77b4; fill-opacity: 0.15"/>
    </g>
   </g>
   <g id="FillBetweenPolyCollection_2">
    <defs>
     <path id="m1fd8d2f81c" d="M 89.983636 -425.079119 
L 89.983636 -384.189704 
L 93.980327 -386.117056 
L 97.977023 -391.029304 
L 101.973713 -382.746789 
L 105.97041 -385.612719 
L 109.967106 -383.267235 
L 113.963796 -384.937986 
L 117.960493 -384.540017 
L 121.957186 -384.194772 
L 125.953882 -385.140725 
L 129.950576 -387.846005 
L 133.947269 -383.815472 
L 137.943962 -382.571922 
L 141.940659 -388.06177 
L 145.937352 -381.767849 
L 149.934045 -384.21274 
L 153.93074 -382.070268 
L 157.927434 -383.553197 
L 161.924129 -381.679974 
L 165.920823 -385.894706 
L 169.917517 -384.752977 
L 173.914211 -383.354403 
L 177.910906 -385.628154 
L 181.9076 -386.094513 
L 185.904294 -387.607821 
L 189.900988 -385.036411 
L 193.897681 -383.259593 
L 197.894377 -384.424352 
L 201.891071 -388.679225 
L 205.887764 -386.312196 
L 209.884457 -385.431964 
L 213.881154 -385.240916 
L 217.877847 -387.279113 
L 221.874543 -380.857059 
L 225.871234 -382.585779 
L 229.86793 -385.09805 
L 233.864626 -384.838847 
L 237.861317 -385.593332 
L 241.858013 -381.051 
L 245.854704 -384.960814 
L 249.8514 -383.731395 
L 253.848096 -384.962009 
L 257.844787 -381.451452 
L 261.841483 -386.488823 
L 265.838179 -387.314073 
L 269.83487 -384.036446 
L 273.83156 -387.123437 
L 277.828262 -387.075677 
L 281.824953 -384.234651 
L 285.821643 -383.268535 
L 289.818345 -385.178114 
L 293.815036 -387.241391 
L 297.811726 -383.768268 
L 301.808428 -383.919264 
L 305.805119 -381.768437 
L 309.801809 -384.086812 
L 313.798511 -385.981597 
L 317.795202 -385.047704 
L 321.791892 -383.429235 
L 325.788594 -382.531698 
L 329.785285 -383.578446 
L 333.781975 -381.696707 
L 337.778677 -386.072956 
L 341.775368 -383.971144 
L 345.772058 -383.063526 
L 349.76876 -384.654209 
L 353.765451 -387.731723 
L 357.762141 -383.302472 
L 361.758843 -384.834669 
L 365.755534 -383.537556 
L 369.752224 -384.490796 
L 373.748914 -384.551559 
L 377.745605 -382.86393 
L 381.742319 -389.306024 
L 385.739009 -380.301466 
L 389.7357 -384.209984 
L 393.73239 -386.604029 
L 397.72908 -384.179628 
L 401.725771 -383.678161 
L 405.722485 -383.144509 
L 409.719175 -381.458569 
L 413.715866 -382.919908 
L 417.712556 -380.959725 
L 421.709246 -381.268106 
L 425.705937 -384.805086 
L 429.702627 -382.906211 
L 433.699341 -382.137274 
L 437.696032 -384.355406 
L 441.692722 -381.995356 
L 445.689412 -383.66264 
L 449.686103 -382.937583 
L 453.682793 -383.78202 
L 457.679507 -384.081746 
L 461.676198 -383.478916 
L 465.672888 -382.534286 
L 469.669578 -382.153191 
L 473.666269 -385.054645 
L 477.662959 -383.581549 
L 481.659673 -387.887358 
L 485.656364 -385.273268 
L 485.656364 -428.034468 
L 485.656364 -428.034468 
L 481.659673 -431.661094 
L 477.662959 -425.603199 
L 473.666269 -428.352286 
L 469.669578 -424.222774 
L 465.672888 -426.708623 
L 461.676198 -426.172661 
L 457.679507 -425.763613 
L 453.682793 -428.665827 
L 449.686103 -426.963944 
L 445.689412 -427.365932 
L 441.692722 -423.379491 
L 437.696032 -425.888402 
L 433.699341 -424.902686 
L 429.702627 -426.32989 
L 425.705937 -427.197756 
L 421.709246 -424.141071 
L 417.712556 -425.164756 
L 413.715866 -424.596097 
L 409.719175 -420.909116 
L 405.722485 -427.830847 
L 401.725771 -427.270696 
L 397.72908 -427.386848 
L 393.73239 -430.69996 
L 389.7357 -425.197656 
L 385.739009 -423.913281 
L 381.742319 -433.062713 
L 377.745605 -424.627326 
L 373.748914 -428.969282 
L 369.752224 -425.201592 
L 365.755534 -423.561313 
L 361.758843 -427.121808 
L 357.762141 -426.790831 
L 353.765451 -428.845534 
L 349.76876 -431.095773 
L 345.772058 -426.728537 
L 341.775368 -424.494854 
L 337.778677 -430.109459 
L 333.781975 -423.021952 
L 329.785285 -424.771135 
L 325.788594 -426.766052 
L 321.791892 -424.653468 
L 317.795202 -427.062779 
L 313.798511 -429.91046 
L 309.801809 -426.729929 
L 305.805119 -422.76993 
L 301.808428 -427.978306 
L 297.811726 -424.628946 
L 293.815036 -430.29501 
L 289.818345 -428.29268 
L 285.821643 -424.969231 
L 281.824953 -427.039624 
L 277.828262 -429.731121 
L 273.83156 -431.907218 
L 269.83487 -426.568223 
L 265.838179 -429.288898 
L 261.841483 -430.194926 
L 257.844787 -422.428264 
L 253.848096 -430.355013 
L 249.8514 -423.978122 
L 245.854704 -426.372324 
L 241.858013 -424.338416 
L 237.861317 -429.945403 
L 233.864626 -429.213066 
L 229.86793 -429.703361 
L 225.871234 -425.770376 
L 221.874543 -423.590913 
L 217.877847 -433.738093 
L 213.881154 -427.189217 
L 209.884457 -426.483196 
L 205.887764 -429.138416 
L 201.891071 -437.088818 
L 197.894377 -424.170393 
L 193.897681 -427.81131 
L 189.900988 -430.501105 
L 185.904294 -433.639908 
L 181.9076 -427.934104 
L 177.910906 -426.765472 
L 173.914211 -424.439229 
L 169.917517 -426.148471 
L 165.920823 -428.995658 
L 161.924129 -421.631064 
L 157.927434 -426.575284 
L 153.93074 -426.592863 
L 149.934045 -425.322496 
L 145.937352 -423.862111 
L 141.940659 -431.120552 
L 137.943962 -426.496779 
L 133.947269 -429.822654 
L 129.950576 -432.323947 
L 125.953882 -427.087449 
L 121.957186 -425.210389 
L 117.960493 -425.497113 
L 113.963796 -427.724856 
L 109.967106 -429.357685 
L 105.97041 -426.288597 
L 101.973713 -425.811221 
L 97.977023 -431.571503 
L 93.980327 -428.601178 
L 89.983636 -425.079119 
z
"/>
    </defs>
    <g clip-path="url(#pa92f13ffbf)">
     <use xlink:href="#m1fd8d2f81c" x="0" y="561.6" style="fill: #ff7f0e; fill-opacity: 0.15"/>
    </g>
   </g>
   <g id="matplotlib.axis_1">
    <g id="xtick_1">
     <g id="line2d_1">
      <defs>
       <path id="mc2cb7e183f" d="M 0 0 
L 0 3.5 
" style="stroke: #000000; stroke-width: 0.8"/>
      </defs>
      <g>
       <use xlink:href="#mc2cb7e183f" x="87.985286" y="206.388" style="stroke: #000000; stroke-width: 0.8"/>
      </g>
     </g>
     <g id="text_1">
      <!-- −200 -->
      <g transform="translate(74.251693 220.986437) scale(0.1 -0.1)">
       <defs>
        <path id="DejaVuSans-2212" d="M 678 2272 
L 4684 2272 
L 4684 1741 
L 678 1741 
L 678 2272 
z
" transform="scale(0.015625)"/>
        <path id="DejaVuSans-32" d="M 1228 531 
L 3431 531 
L 3431 0 
L 469 0 
L 469 531 
Q 828 903 1448 1529 
Q 2069 2156 2228 2338 
Q 2531 2678 2651 2914 
Q 2772 3150 2772 3378 
Q 2772 3750 2511 3984 
Q 2250 4219 1831 4219 
Q 1534 4219 1204 4116 
Q 875 4013 500 3803 
L 500 4441 
Q 881 4594 1212 4672 
Q 1544 4750 1819 4750 
Q 2544 4750 2975 4387 
Q 3406 4025 3406 3419 
Q 3406 3131 3298 2873 
Q 3191 2616 2906 2266 
Q 2828 2175 2409 1742 
Q 1991 1309 1228 531 
z
" transform="scale(0.015625)"/>
        <path id="DejaVuSans-30" d="M 2034 4250 
Q 1547 4250 1301 3770 
Q 1056 3291 1056 2328 
Q 1056 1369 1301 889 
Q 1547 409 2034 409 
Q 2525 409 2770 889 
Q 3016 1369 3016 2328 
Q 3016 3291 2770 3770 
Q 2525 4250 2034 4250 
z
M 2034 4750 
Q 2819 4750 3233 4129 
Q 3647 3509 3647 2328 
Q 3647 1150 3233 529 
Q 2819 -91 2034 -91 
Q 1250 -91 836 529 
Q 422 1150 422 2328 
Q 422 3509 836 4129 
Q 1250 4750 2034 4750 
z
" transform="scale(0.015625)"/>
       </defs>
       <use xlink:href="#DejaVuSans-2212"/>
       <use xlink:href="#DejaVuSans-32" transform="translate(83.789062 0)"/>
       <use xlink:href="#DejaVuSans-30" transform="translate(147.412109 0)"/>
       <use xlink:href="#DejaVuSans-30" transform="translate(211.035156 0)"/>
      </g>
     </g>
    </g>
    <g id="xtick_2">
     <g id="line2d_2">
      <g>
       <use xlink:href="#mc2cb7e183f" x="167.91917" y="206.388" style="stroke: #000000; stroke-width: 0.8"/>
      </g>
     </g>
     <g id="text_2">
      <!-- 0 -->
      <g transform="translate(164.73792 220.986437) scale(0.1 -0.1)">
       <use xlink:href="#DejaVuSans-30"/>
      </g>
     </g>
    </g>
    <g id="xtick_3">
     <g id="line2d_3">
      <g>
       <use xlink:href="#mc2cb7e183f" x="247.853053" y="206.388" style="stroke: #000000; stroke-width: 0.8"/>
      </g>
     </g>
     <g id="text_3">
      <!-- 200 -->
      <g transform="translate(238.309303 220.986437) scale(0.1 -0.1)">
       <use xlink:href="#DejaVuSans-32"/>
       <use xlink:href="#DejaVuSans-30" transform="translate(63.623047 0)"/>
       <use xlink:href="#DejaVuSans-30" transform="translate(127.246094 0)"/>
      </g>
     </g>
    </g>
    <g id="xtick_4">
     <g id="line2d_4">
      <g>
       <use xlink:href="#mc2cb7e183f" x="327.786937" y="206.388" style="stroke: #000000; stroke-width: 0.8"/>
      </g>
     </g>
     <g id="text_4">
      <!-- 400 -->
      <g transform="translate(318.243187 220.986437) scale(0.1 -0.1)">
       <defs>
        <path id="DejaVuSans-34" d="M 2419 4116 
L 825 1625 
L 2419 1625 
L 2419 4116 
z
M 2253 4666 
L 3047 4666 
L 3047 1625 
L 3713 1625 
L 3713 1100 
L 3047 1100 
L 3047 0 
L 2419 0 
L 2419 1100 
L 313 1100 
L 313 1709 
L 2253 4666 
z
" transform="scale(0.015625)"/>
       </defs>
       <use xlink:href="#DejaVuSans-34"/>
       <use xlink:href="#DejaVuSans-30" transform="translate(63.623047 0)"/>
       <use xlink:href="#DejaVuSans-30" transform="translate(127.246094 0)"/>
      </g>
     </g>
    </g>
    <g id="xtick_5">
     <g id="line2d_5">
      <g>
       <use xlink:href="#mc2cb7e183f" x="407.720821" y="206.388" style="stroke: #000000; stroke-width: 0.8"/>
      </g>
     </g>
     <g id="text_5">
      <!-- 600 -->
      <g transform="translate(398.177071 220.986437) scale(0.1 -0.1)">
       <defs>
        <path id="DejaVuSans-36" d="M 2113 2584 
Q 1688 2584 1439 2293 
Q 1191 2003 1191 1497 
Q 1191 994 1439 701 
Q 1688 409 2113 409 
Q 2538 409 2786 701 
Q 3034 994 3034 1497 
Q 3034 2003 2786 2293 
Q 2538 2584 2113 2584 
z
M 3366 4563 
L 3366 3988 
Q 3128 4100 2886 4159 
Q 2644 4219 2406 4219 
Q 1781 4219 1451 3797 
Q 1122 3375 1075 2522 
Q 1259 2794 1537 2939 
Q 1816 3084 2150 3084 
Q 2853 3084 3261 2657 
Q 3669 2231 3669 1497 
Q 3669 778 3244 343 
Q 2819 -91 2113 -91 
Q 1303 -91 875 529 
Q 447 1150 447 2328 
Q 447 3434 972 4092 
Q 1497 4750 2381 4750 
Q 2619 4750 2861 4703 
Q 3103 4656 3366 4563 
z
" transform="scale(0.015625)"/>
       </defs>
       <use xlink:href="#DejaVuSans-36"/>
       <use xlink:href="#DejaVuSans-30" transform="translate(63.623047 0)"/>
       <use xlink:href="#DejaVuSans-30" transform="translate(127.246094 0)"/>
      </g>
     </g>
    </g>
    <g id="xtick_6">
     <g id="line2d_6">
      <g>
       <use xlink:href="#mc2cb7e183f" x="487.654704" y="206.388" style="stroke: #000000; stroke-width: 0.8"/>
      </g>
     </g>
     <g id="text_6">
      <!-- 800 -->
      <g transform="translate(478.110954 220.986437) scale(0.1 -0.1)">
       <defs>
        <path id="DejaVuSans-38" d="M 2034 2216 
Q 1584 2216 1326 1975 
Q 1069 1734 1069 1313 
Q 1069 891 1326 650 
Q 1584 409 2034 409 
Q 2484 409 2743 651 
Q 3003 894 3003 1313 
Q 3003 1734 2745 1975 
Q 2488 2216 2034 2216 
z
M 1403 2484 
Q 997 2584 770 2862 
Q 544 3141 544 3541 
Q 544 4100 942 4425 
Q 1341 4750 2034 4750 
Q 2731 4750 3128 4425 
Q 3525 4100 3525 3541 
Q 3525 3141 3298 2862 
Q 3072 2584 2669 2484 
Q 3125 2378 3379 2068 
Q 3634 1759 3634 1313 
Q 3634 634 3220 271 
Q 2806 -91 2034 -91 
Q 1263 -91 848 271 
Q 434 634 434 1313 
Q 434 1759 690 2068 
Q 947 2378 1403 2484 
z
M 1172 3481 
Q 1172 3119 1398 2916 
Q 1625 2713 2034 2713 
Q 2441 2713 2670 2916 
Q 2900 3119 2900 3481 
Q 2900 3844 2670 4047 
Q 2441 4250 2034 4250 
Q 1625 4250 1398 4047 
Q 1172 3844 1172 3481 
z
" transform="scale(0.015625)"/>
       </defs>
       <use xlink:href="#DejaVuSans-38"/>
       <use xlink:href="#DejaVuSans-30" transform="translate(63.623047 0)"/>
       <use xlink:href="#DejaVuSans-30" transform="translate(127.246094 0)"/>
      </g>
     </g>
    </g>
   </g>
   <g id="matplotlib.axis_2">
    <g id="ytick_1">
     <g id="line2d_7">
      <defs>
       <path id="m50672892fc" d="M 0 0 
L -3.5 0 
" style="stroke: #000000; stroke-width: 0.8"/>
      </defs>
      <g>
       <use xlink:href="#m50672892fc" x="70.2" y="202.724714" style="stroke: #000000; stroke-width: 0.8"/>
      </g>
     </g>
     <g id="text_7">
      <!-- 10 -->
      <g transform="translate(50.475 206.523933) scale(0.1 -0.1)">
       <defs>
        <path id="DejaVuSans-31" d="M 794 531 
L 1825 531 
L 1825 4091 
L 703 3866 
L 703 4441 
L 1819 4666 
L 2450 4666 
L 2450 531 
L 3481 531 
L 3481 0 
L 794 0 
L 794 531 
z
" transform="scale(0.015625)"/>
       </defs>
       <use xlink:href="#DejaVuSans-31"/>
       <use xlink:href="#DejaVuSans-30" transform="translate(63.623047 0)"/>
      </g>
     </g>
    </g>
    <g id="ytick_2">
     <g id="line2d_8">
      <g>
       <use xlink:href="#m50672892fc" x="70.2" y="158.958789" style="stroke: #000000; stroke-width: 0.8"/>
      </g>
     </g>
     <g id="text_8">
      <!-- 15 -->
      <g transform="translate(50.475 162.758007) scale(0.1 -0.1)">
       <defs>
        <path id="DejaVuSans-35" d="M 691 4666 
L 3169 4666 
L 3169 4134 
L 1269 4134 
L 1269 2991 
Q 1406 3038 1543 3061 
Q 1681 3084 1819 3084 
Q 2600 3084 3056 2656 
Q 3513 2228 3513 1497 
Q 3513 744 3044 326 
Q 2575 -91 1722 -91 
Q 1428 -91 1123 -41 
Q 819 9 494 109 
L 494 744 
Q 775 591 1075 516 
Q 1375 441 1709 441 
Q 2250 441 2565 725 
Q 2881 1009 2881 1497 
Q 2881 1984 2565 2268 
Q 2250 2553 1709 2553 
Q 1456 2553 1204 2497 
Q 953 2441 691 2322 
L 691 4666 
z
" transform="scale(0.015625)"/>
       </defs>
       <use xlink:href="#DejaVuSans-31"/>
       <use xlink:href="#DejaVuSans-35" transform="translate(63.623047 0)"/>
      </g>
     </g>
    </g>
    <g id="ytick_3">
     <g id="line2d_9">
      <g>
       <use xlink:href="#m50672892fc" x="70.2" y="115.192863" style="stroke: #000000; stroke-width: 0.8"/>
      </g>
     </g>
     <g id="text_9">
      <!-- 20 -->
      <g transform="translate(50.475 118.992082) scale(0.1 -0.1)">
       <use xlink:href="#DejaVuSans-32"/>
       <use xlink:href="#DejaVuSans-30" transform="translate(63.623047 0)"/>
      </g>
     </g>
    </g>
    <g id="ytick_4">
     <g id="line2d_10">
      <g>
       <use xlink:href="#m50672892fc" x="70.2" y="71.426938" style="stroke: #000000; stroke-width: 0.8"/>
      </g>
     </g>
     <g id="text_10">
      <!-- 25 -->
      <g transform="translate(50.475 75.226157) scale(0.1 -0.1)">
       <use xlink:href="#DejaVuSans-32"/>
       <use xlink:href="#DejaVuSans-35" transform="translate(63.623047 0)"/>
      </g>
     </g>
    </g>
    <g id="text_11">
     <!-- ΔLL (bits) -->
     <g transform="translate(44.395313 160.500937) rotate(-90) scale(0.1 -0.1)">
      <defs>
       <path id="DejaVuSans-394" d="M 2188 4044 
L 906 525 
L 3472 525 
L 2188 4044 
z
M 50 0 
L 1831 4666 
L 2547 4666 
L 4325 0 
L 50 0 
z
" transform="scale(0.015625)"/>
       <path id="DejaVuSans-4c" d="M 628 4666 
L 1259 4666 
L 1259 531 
L 3531 531 
L 3531 0 
L 628 0 
L 628 4666 
z
" transform="scale(0.015625)"/>
       <path id="DejaVuSans-20" transform="scale(0.015625)"/>
       <path id="DejaVuSans-28" d="M 1984 4856 
Q 1566 4138 1362 3434 
Q 1159 2731 1159 2009 
Q 1159 1288 1364 580 
Q 1569 -128 1984 -844 
L 1484 -844 
Q 1016 -109 783 600 
Q 550 1309 550 2009 
Q 550 2706 781 3412 
Q 1013 4119 1484 4856 
L 1984 4856 
z
" transform="scale(0.015625)"/>
       <path id="DejaVuSans-62" d="M 3116 1747 
Q 3116 2381 2855 2742 
Q 2594 3103 2138 3103 
Q 1681 3103 1420 2742 
Q 1159 2381 1159 1747 
Q 1159 1113 1420 752 
Q 1681 391 2138 391 
Q 2594 391 2855 752 
Q 3116 1113 3116 1747 
z
M 1159 2969 
Q 1341 3281 1617 3432 
Q 1894 3584 2278 3584 
Q 2916 3584 3314 3078 
Q 3713 2572 3713 1747 
Q 3713 922 3314 415 
Q 2916 -91 2278 -91 
Q 1894 -91 1617 61 
Q 1341 213 1159 525 
L 1159 0 
L 581 0 
L 581 4863 
L 1159 4863 
L 1159 2969 
z
" transform="scale(0.015625)"/>
       <path id="DejaVuSans-69" d="M 603 3500 
L 1178 3500 
L 1178 0 
L 603 0 
L 603 3500 
z
M 603 4863 
L 1178 4863 
L 1178 4134 
L 603 4134 
L 603 4863 
z
" transform="scale(0.015625)"/>
       <path id="DejaVuSans-74" d="M 1172 4494 
L 1172 3500 
L 2356 3500 
L 2356 3053 
L 1172 3053 
L 1172 1153 
Q 1172 725 1289 603 
Q 1406 481 1766 481 
L 2356 481 
L 2356 0 
L 1766 0 
Q 1100 0 847 248 
Q 594 497 594 1153 
L 594 3053 
L 172 3053 
L 172 3500 
L 594 3500 
L 594 4494 
L 1172 4494 
z
" transform="scale(0.015625)"/>
       <path id="DejaVuSans-73" d="M 2834 3397 
L 2834 2853 
Q 2591 2978 2328 3040 
Q 2066 3103 1784 3103 
Q 1356 3103 1142 2972 
Q 928 2841 928 2578 
Q 928 2378 1081 2264 
Q 1234 2150 1697 2047 
L 1894 2003 
Q 2506 1872 2764 1633 
Q 3022 1394 3022 966 
Q 3022 478 2636 193 
Q 2250 -91 1575 -91 
Q 1294 -91 989 -36 
Q 684 19 347 128 
L 347 722 
Q 666 556 975 473 
Q 1284 391 1588 391 
Q 1994 391 2212 530 
Q 2431 669 2431 922 
Q 2431 1156 2273 1281 
Q 2116 1406 1581 1522 
L 1381 1569 
Q 847 1681 609 1914 
Q 372 2147 372 2553 
Q 372 3047 722 3315 
Q 1072 3584 1716 3584 
Q 2034 3584 2315 3537 
Q 2597 3491 2834 3397 
z
" transform="scale(0.015625)"/>
       <path id="DejaVuSans-29" d="M 513 4856 
L 1013 4856 
Q 1481 4119 1714 3412 
Q 1947 2706 1947 2009 
Q 1947 1309 1714 600 
Q 1481 -109 1013 -844 
L 513 -844 
Q 928 -128 1133 580 
Q 1338 1288 1338 2009 
Q 1338 2731 1133 3434 
Q 928 4138 513 4856 
z
" transform="scale(0.015625)"/>
      </defs>
      <use xlink:href="#DejaVuSans-394"/>
      <use xlink:href="#DejaVuSans-4c" transform="translate(68.408203 0)"/>
      <use xlink:href="#DejaVuSans-4c" transform="translate(124.121094 0)"/>
      <use xlink:href="#DejaVuSans-20" transform="translate(179.833984 0)"/>
      <use xlink:href="#DejaVuSans-28" transform="translate(211.621094 0)"/>
      <use xlink:href="#DejaVuSans-62" transform="translate(250.634766 0)"/>
      <use xlink:href="#DejaVuSans-69" transform="translate(314.111328 0)"/>
      <use xlink:href="#DejaVuSans-74" transform="translate(341.894531 0)"/>
      <use xlink:href="#DejaVuSans-73" transform="translate(381.103516 0)"/>
      <use xlink:href="#DejaVuSans-29" transform="translate(433.203125 0)"/>
     </g>
    </g>
   </g>
   <g id="line2d_11">
    <path d="M 167.91917 206.388 
L 167.91917 67.392 
" clip-path="url(#pa92f13ffbf)" style="fill: none; stroke-dasharray: 2.96,1.28; stroke-dashoffset: 0; stroke: #000000; stroke-width: 0.8"/>
   </g>
   <g id="line2d_12">
    <path d="M 89.983636 156.096588 
L 93.980327 154.953716 
L 97.977023 155.168881 
L 101.973713 156.579201 
L 105.97041 159.441329 
L 109.967106 159.449301 
L 113.963796 155.552358 
L 117.960493 159.754881 
L 121.957186 155.529502 
L 125.953882 156.548233 
L 129.950576 156.790337 
L 133.947269 155.261412 
L 137.943962 157.045524 
L 141.940659 154.815805 
L 145.937352 155.159502 
L 149.934045 153.956905 
L 153.93074 151.740655 
L 157.927434 157.638989 
L 161.924129 152.163694 
L 165.920823 156.267658 
L 169.917517 155.135751 
L 173.914211 154.318365 
L 177.910906 157.741526 
L 181.9076 153.638249 
L 185.904294 155.983758 
L 189.900988 158.94683 
L 193.897681 154.525554 
L 197.894377 156.108025 
L 201.891071 156.192252 
L 205.887764 153.200294 
L 209.884457 154.619937 
L 213.881154 153.753655 
L 217.877847 155.619745 
L 221.874543 156.589825 
L 225.871234 155.125944 
L 229.86793 154.226232 
L 233.864626 156.269709 
L 237.861317 157.035072 
L 241.858013 151.848378 
L 245.854704 158.65223 
L 249.8514 157.558468 
L 253.848096 155.468923 
L 257.844787 155.5701 
L 261.841483 156.76848 
L 265.838179 154.679297 
L 269.83487 154.537278 
L 273.83156 159.003068 
L 277.828262 155.45284 
L 281.824953 159.023198 
L 285.821643 156.071515 
L 289.818345 155.766547 
L 293.815036 152.684441 
L 297.811726 157.597662 
L 301.808428 155.553948 
L 305.805119 157.828052 
L 309.801809 153.340013 
L 313.798511 156.359672 
L 317.795202 155.812242 
L 321.791892 158.935843 
L 325.788594 156.964436 
L 329.785285 155.865448 
L 333.781975 157.957664 
L 337.778677 154.545595 
L 341.775368 155.310709 
L 345.772058 156.801212 
L 349.76876 156.463438 
L 353.765451 155.334308 
L 357.762141 156.928252 
L 361.758843 158.545357 
L 365.755534 154.693393 
L 369.752224 154.001373 
L 373.748914 154.278216 
L 377.745605 155.86552 
L 381.742319 155.538467 
L 385.739009 155.603654 
L 389.7357 158.020462 
L 393.73239 156.836524 
L 397.72908 157.240394 
L 401.725771 156.396887 
L 405.722485 159.167251 
L 409.719175 157.373181 
L 413.715866 153.763288 
L 417.712556 156.811942 
L 421.709246 157.981963 
L 425.705937 155.690568 
L 429.702627 159.255345 
L 433.699341 157.899714 
L 437.696032 155.394157 
L 441.692722 157.011114 
L 445.689412 157.175643 
L 449.686103 155.593485 
L 453.682793 159.016164 
L 457.679507 156.131852 
L 461.676198 160.616998 
L 465.672888 158.306768 
L 469.669578 157.895636 
L 473.666269 154.057502 
L 477.662959 160.01574 
L 481.659673 154.553637 
L 485.656364 155.135328 
" clip-path="url(#pa92f13ffbf)" style="fill: none; stroke-dasharray: 1,1.65; stroke-dashoffset: 0; stroke: #1f77b4"/>
   </g>
   <g id="line2d_13">
    <path d="M 89.983636 156.965588 
L 93.980327 154.240883 
L 97.977023 150.299597 
L 101.973713 157.320995 
L 105.97041 155.649342 
L 109.967106 155.28754 
L 113.963796 155.268579 
L 117.960493 156.581435 
L 121.957186 156.89742 
L 125.953882 155.485913 
L 129.950576 151.515024 
L 133.947269 154.780937 
L 137.943962 157.065649 
L 141.940659 152.008839 
L 145.937352 158.78502 
L 149.934045 156.832382 
L 153.93074 157.268435 
L 157.927434 156.53576 
L 161.924129 159.944481 
L 165.920823 154.154818 
L 169.917517 156.149276 
L 173.914211 157.703184 
L 177.910906 155.403187 
L 181.9076 154.585692 
L 185.904294 150.976135 
L 189.900988 153.831242 
L 193.897681 156.064548 
L 197.894377 157.302628 
L 201.891071 148.715979 
L 205.887764 153.874694 
L 209.884457 155.64242 
L 213.881154 155.384934 
L 217.877847 151.091397 
L 221.874543 159.376014 
L 225.871234 157.421922 
L 229.86793 154.199294 
L 233.864626 154.574043 
L 237.861317 153.830632 
L 241.858013 158.905292 
L 245.854704 155.933431 
L 249.8514 157.745242 
L 253.848096 153.941489 
L 257.844787 159.660142 
L 261.841483 153.258125 
L 265.838179 153.298514 
L 269.83487 156.297665 
L 273.83156 152.084672 
L 277.828262 153.196601 
L 281.824953 155.962862 
L 285.821643 157.481117 
L 289.818345 154.864603 
L 293.815036 152.831799 
L 297.811726 157.401393 
L 301.808428 155.651215 
L 305.805119 159.330816 
L 309.801809 156.191629 
L 313.798511 153.653971 
L 317.795202 155.544758 
L 321.791892 157.558649 
L 325.788594 156.951125 
L 329.785285 157.425209 
L 333.781975 159.240671 
L 337.778677 153.508792 
L 341.775368 157.367001 
L 345.772058 156.703968 
L 349.76876 153.725009 
L 353.765451 153.311371 
L 357.762141 156.553348 
L 361.758843 155.621762 
L 365.755534 158.050566 
L 369.752224 156.753806 
L 373.748914 154.839579 
L 377.745605 157.854372 
L 381.742319 150.415632 
L 385.739009 159.492626 
L 389.7357 156.89618 
L 393.73239 152.948005 
L 397.72908 155.816762 
L 401.725771 156.125572 
L 405.722485 156.112322 
L 409.719175 160.416158 
L 413.715866 157.841998 
L 417.712556 158.53776 
L 421.709246 158.895412 
L 425.705937 155.598579 
L 429.702627 156.98195 
L 433.699341 158.08002 
L 437.696032 156.478096 
L 441.692722 158.912576 
L 445.689412 156.085714 
L 449.686103 156.649237 
L 453.682793 155.376077 
L 457.679507 156.677321 
L 461.676198 156.774211 
L 465.672888 156.978545 
L 469.669578 158.412017 
L 473.666269 154.896534 
L 477.662959 157.007626 
L 481.659673 151.825774 
L 485.656364 154.946132 
" clip-path="url(#pa92f13ffbf)" style="fill: none; stroke-dasharray: 1,1.65; stroke-dashoffset: 0; stroke: #ff7f0e"/>
   </g>
   <g id="line2d_14">
    <path d="M 89.983636 153.304437 
L 93.980327 127.694404 
L 97.977023 180.63985 
L 101.973713 149.830529 
L 105.97041 141.999255 
L 109.967106 141.094017 
L 113.963796 128.488405 
L 117.960493 158.726905 
L 121.957186 166.53418 
L 125.953882 138.773544 
L 129.950576 128.9205 
L 133.947269 137.522277 
L 137.943962 161.640743 
L 141.940659 171.752862 
L 145.937352 180.786555 
L 149.934045 162.915908 
L 153.93074 137.952816 
L 157.927434 176.126406 
L 161.924129 162.818816 
L 165.920823 152.509589 
L 169.917517 127.812098 
L 173.914211 144.20379 
L 177.910906 165.050713 
L 181.9076 96.756544 
L 185.904294 171.193015 
L 189.900988 173.825135 
L 193.897681 175.006821 
L 197.894377 129.027246 
L 201.891071 150.047 
L 205.887764 114.649967 
L 209.884457 116.541859 
L 213.881154 157.594187 
L 217.877847 143.332923 
L 221.874543 147.781707 
L 225.871234 156.178873 
L 229.86793 134.650583 
L 233.864626 119.125994 
L 237.861317 128.827159 
L 241.858013 170.148338 
L 245.854704 176.356751 
L 249.8514 116.117538 
L 253.848096 147.55461 
L 257.844787 123.839681 
L 261.841483 185.542036 
L 265.838179 167.831615 
L 269.83487 130.972138 
L 273.83156 186.725538 
L 277.828262 173.893112 
L 281.824953 160.648212 
L 285.821643 131.536106 
L 289.818345 174.037075 
L 293.815036 192.711531 
L 297.811726 178.067798 
L 301.808428 97.352942 
L 305.805119 174.791209 
L 309.801809 172.32241 
L 313.798511 166.296125 
L 317.795202 148.838587 
L 321.791892 147.095045 
L 325.788594 141.031004 
L 329.785285 133.861599 
L 333.781975 115.763171 
L 337.778677 156.202368 
L 341.775368 141.194971 
L 345.772058 140.294934 
L 349.76876 139.685836 
L 353.765451 117.927733 
L 357.762141 156.568589 
L 361.758843 145.471699 
L 365.755534 114.285706 
L 369.752224 164.487383 
L 373.748914 130.14599 
L 377.745605 142.461533 
L 381.742319 128.845223 
L 385.739009 128.01451 
L 389.7357 133.832942 
L 393.73239 107.512239 
L 397.72908 171.060139 
L 401.725771 139.28905 
L 405.722485 158.023478 
L 409.719175 159.306429 
L 413.715866 127.429717 
L 417.712556 144.703974 
L 421.709246 101.674926 
L 425.705937 168.890869 
L 429.702627 124.702712 
L 433.699341 174.846029 
L 437.696032 167.222198 
L 441.692722 182.874315 
L 445.689412 196.913851 
L 449.686103 138.183272 
L 453.682793 111.951999 
L 457.679507 137.114329 
L 461.676198 167.59467 
L 465.672888 150.840088 
L 469.669578 168.67028 
L 473.666269 149.583573 
L 477.662959 149.790379 
L 481.659673 184.107975 
L 485.656364 182.679186 
" clip-path="url(#pa92f13ffbf)" style="fill: none; stroke: #1f77b4; stroke-width: 2.2; stroke-linecap: square"/>
   </g>
   <g id="line2d_15">
    <path d="M 89.983636 189.236832 
L 93.980327 156.476215 
L 97.977023 124.577962 
L 101.973713 116.421236 
L 105.97041 164.737356 
L 109.967106 143.113853 
L 113.963796 166.948842 
L 117.960493 153.019357 
L 121.957186 159.275209 
L 125.953882 106.672708 
L 129.950576 176.371861 
L 133.947269 171.136966 
L 137.943962 200.07 
L 141.940659 157.335263 
L 145.937352 165.01529 
L 149.934045 189.399985 
L 153.93074 161.245485 
L 157.927434 156.003769 
L 161.924129 159.230177 
L 165.920823 123.536327 
L 169.917517 171.737507 
L 173.914211 109.688621 
L 177.910906 143.590002 
L 181.9076 163.505321 
L 185.904294 172.568846 
L 189.900988 116.702808 
L 193.897681 148.192963 
L 197.894377 136.106403 
L 201.891071 139.75423 
L 205.887764 148.033562 
L 209.884457 122.02122 
L 213.881154 107.649173 
L 217.877847 77.193005 
L 221.874543 145.975721 
L 225.871234 184.567101 
L 229.86793 182.933676 
L 233.864626 151.278112 
L 237.861317 172.166138 
L 241.858013 128.447271 
L 245.854704 162.139347 
L 249.8514 155.916601 
L 253.848096 140.5114 
L 257.844787 158.341028 
L 261.841483 149.030011 
L 265.838179 148.915541 
L 269.83487 128.905131 
L 273.83156 140.709087 
L 277.828262 168.319755 
L 281.824953 157.659586 
L 285.821643 114.713321 
L 289.818345 135.940408 
L 293.815036 174.069392 
L 297.811726 117.778193 
L 301.808428 141.626032 
L 305.805119 73.71 
L 309.801809 160.347431 
L 313.798511 125.236919 
L 317.795202 112.785629 
L 321.791892 144.471976 
L 325.788594 184.220147 
L 329.785285 170.97672 
L 333.781975 126.425717 
L 337.778677 138.825715 
L 341.775368 150.563776 
L 345.772058 134.498899 
L 349.76876 174.014989 
L 353.765451 152.246959 
L 357.762141 178.57109 
L 361.758843 131.523732 
L 365.755534 167.757322 
L 369.752224 169.234939 
L 373.748914 170.942355 
L 377.745605 160.651238 
L 381.742319 174.828253 
L 385.739009 155.958491 
L 389.7357 169.646124 
L 393.73239 143.96454 
L 397.72908 193.827456 
L 401.725771 183.272973 
L 405.722485 154.447844 
L 409.719175 129.955655 
L 413.715866 144.60027 
L 417.712556 151.937204 
L 421.709246 144.180777 
L 425.705937 167.482383 
L 429.702627 192.192003 
L 433.699341 147.386371 
L 437.696032 166.429779 
L 441.692722 136.653206 
L 445.689412 143.964728 
L 449.686103 131.996976 
L 453.682793 151.478032 
L 457.679507 140.488185 
L 461.676198 172.430819 
L 465.672888 151.778065 
L 469.669578 129.309286 
L 473.666269 156.491826 
L 477.662959 153.849893 
L 481.659673 143.227495 
L 485.656364 152.321007 
" clip-path="url(#pa92f13ffbf)" style="fill: none; stroke: #ff7f0e; stroke-width: 2.2; stroke-linecap: square"/>
   </g>
   <g id="patch_3">
    <path d="M 70.2 206.388 
L 70.2 67.392 
" style="fill: none; stroke: #000000; stroke-width: 0.8; stroke-linejoin: miter; stroke-linecap: square"/>
   </g>
   <g id="patch_4">
    <path d="M 505.44 206.388 
L 505.44 67.392 
" style="fill: none; stroke: #000000; stroke-width: 0.8; stroke-linejoin: miter; stroke-linecap: square"/>
   </g>
   <g id="patch_5">
    <path d="M 70.2 206.388 
L 505.44 206.388 
" style="fill: none; stroke: #000000; stroke-width: 0.8; stroke-linejoin: miter; stroke-linecap: square"/>
   </g>
   <g id="patch_6">
    <path d="M 70.2 67.392 
L 505.44 67.392 
" style="fill: none; stroke: #000000; stroke-width: 0.8; stroke-linejoin: miter; stroke-linecap: square"/>
   </g>
   <g id="text_12">
    <!-- (MLIP vs MSC) — R-flow — Panel A: overlay + null bands -->
    <g transform="translate(119.279063 61.392) scale(0.12 -0.12)">
     <defs>
      <path id="DejaVuSans-4d" d="M 628 4666 
L 1569 4666 
L 2759 1491 
L 3956 4666 
L 4897 4666 
L 4897 0 
L 4281 0 
L 4281 4097 
L 3078 897 
L 2444 897 
L 1241 4097 
L 1241 0 
L 628 0 
L 628 4666 
z
" transform="scale(0.015625)"/>
      <path id="DejaVuSans-49" d="M 628 4666 
L 1259 4666 
L 1259 0 
L 628 0 
L 628 4666 
z
" transform="scale(0.015625)"/>
      <path id="DejaVuSans-50" d="M 1259 4147 
L 1259 2394 
L 2053 2394 
Q 2494 2394 2734 2622 
Q 2975 2850 2975 3272 
Q 2975 3691 2734 3919 
Q 2494 4147 2053 4147 
L 1259 4147 
z
M 628 4666 
L 2053 4666 
Q 2838 4666 3239 4311 
Q 3641 3956 3641 3272 
Q 3641 2581 3239 2228 
Q 2838 1875 2053 1875 
L 1259 1875 
L 1259 0 
L 628 0 
L 628 4666 
z
" transform="scale(0.015625)"/>
      <path id="DejaVuSans-76" d="M 191 3500 
L 800 3500 
L 1894 563 
L 2988 3500 
L 3597 3500 
L 2284 0 
L 1503 0 
L 191 3500 
z
" transform="scale(0.015625)"/>
      <path id="DejaVuSans-53" d="M 3425 4513 
L 3425 3897 
Q 3066 4069 2747 4153 
Q 2428 4238 2131 4238 
Q 1616 4238 1336 4038 
Q 1056 3838 1056 3469 
Q 1056 3159 1242 3001 
Q 1428 2844 1947 2747 
L 2328 2669 
Q 3034 2534 3370 2195 
Q 3706 1856 3706 1288 
Q 3706 609 3251 259 
Q 2797 -91 1919 -91 
Q 1588 -91 1214 -16 
Q 841 59 441 206 
L 441 856 
Q 825 641 1194 531 
Q 1563 422 1919 422 
Q 2459 422 2753 634 
Q 3047 847 3047 1241 
Q 3047 1584 2836 1778 
Q 2625 1972 2144 2069 
L 1759 2144 
Q 1053 2284 737 2584 
Q 422 2884 422 3419 
Q 422 4038 858 4394 
Q 1294 4750 2059 4750 
Q 2388 4750 2728 4690 
Q 3069 4631 3425 4513 
z
" transform="scale(0.015625)"/>
      <path id="DejaVuSans-43" d="M 4122 4306 
L 4122 3641 
Q 3803 3938 3442 4084 
Q 3081 4231 2675 4231 
Q 1875 4231 1450 3742 
Q 1025 3253 1025 2328 
Q 1025 1406 1450 917 
Q 1875 428 2675 428 
Q 3081 428 3442 575 
Q 3803 722 4122 1019 
L 4122 359 
Q 3791 134 3420 21 
Q 3050 -91 2638 -91 
Q 1578 -91 968 557 
Q 359 1206 359 2328 
Q 359 3453 968 4101 
Q 1578 4750 2638 4750 
Q 3056 4750 3426 4639 
Q 3797 4528 4122 4306 
z
" transform="scale(0.015625)"/>
      <path id="DejaVuSans-2014" d="M 313 1978 
L 6088 1978 
L 6088 1528 
L 313 1528 
L 313 1978 
z
" transform="scale(0.015625)"/>
      <path id="DejaVuSans-52" d="M 2841 2188 
Q 3044 2119 3236 1894 
Q 3428 1669 3622 1275 
L 4263 0 
L 3584 0 
L 2988 1197 
Q 2756 1666 2539 1819 
Q 2322 1972 1947 1972 
L 1259 1972 
L 1259 0 
L 628 0 
L 628 4666 
L 2053 4666 
Q 2853 4666 3247 4331 
Q 3641 3997 3641 3322 
Q 3641 2881 3436 2590 
Q 3231 2300 2841 2188 
z
M 1259 4147 
L 1259 2491 
L 2053 2491 
Q 2509 2491 2742 2702 
Q 2975 2913 2975 3322 
Q 2975 3731 2742 3939 
Q 2509 4147 2053 4147 
L 1259 4147 
z
" transform="scale(0.015625)"/>
      <path id="DejaVuSans-2d" d="M 313 2009 
L 1997 2009 
L 1997 1497 
L 313 1497 
L 313 2009 
z
" transform="scale(0.015625)"/>
      <path id="DejaVuSans-66" d="M 2375 4863 
L 2375 4384 
L 1825 4384 
Q 1516 4384 1395 4259 
Q 1275 4134 1275 3809 
L 1275 3500 
L 2222 3500 
L 2222 3053 
L 1275 3053 
L 1275 0 
L 697 0 
L 697 3053 
L 147 3053 
L 147 3500 
L 697 3500 
L 697 3744 
Q 697 4328 969 4595 
Q 1241 4863 1831 4863 
L 2375 4863 
z
" transform="scale(0.015625)"/>
      <path id="DejaVuSans-6c" d="M 603 4863 
L 1178 4863 
L 1178 0 
L 603 0 
L 603 4863 
z
" transform="scale(0.015625)"/>
      <path id="DejaVuSans-6f" d="M 1959 3097 
Q 1497 3097 1228 2736 
Q 959 2375 959 1747 
Q 959 1119 1226 758 
Q 1494 397 1959 397 
Q 2419 397 2687 759 
Q 2956 1122 2956 1747 
Q 2956 2369 2687 2733 
Q 2419 3097 1959 3097 
z
M 1959 3584 
Q 2709 3584 3137 3096 
Q 3566 2609 3566 1747 
Q 3566 888 3137 398 
Q 2709 -91 1959 -91 
Q 1206 -91 779 398 
Q 353 888 353 1747 
Q 353 2609 779 3096 
Q 1206 3584 1959 3584 
z
" transform="scale(0.015625)"/>
      <path id="DejaVuSans-77" d="M 269 3500 
L 844 3500 
L 1563 769 
L 2278 3500 
L 2956 3500 
L 3675 769 
L 4391 3500 
L 4966 3500 
L 4050 0 
L 3372 0 
L 2619 2869 
L 1863 0 
L 1184 0 
L 269 3500 
z
" transform="scale(0.015625)"/>
      <path id="DejaVuSans-61" d="M 2194 1759 
Q 1497 1759 1228 1600 
Q 959 1441 959 1056 
Q 959 750 1161 570 
Q 1363 391 1709 391 
Q 2188 391 2477 730 
Q 2766 1069 2766 1631 
L 2766 1759 
L 2194 1759 
z
M 3341 1997 
L 3341 0 
L 2766 0 
L 2766 531 
Q 2569 213 2275 61 
Q 1981 -91 1556 -91 
Q 1019 -91 701 211 
Q 384 513 384 1019 
Q 384 1609 779 1909 
Q 1175 2209 1959 2209 
L 2766 2209 
L 2766 2266 
Q 2766 2663 2505 2880 
Q 2244 3097 1772 3097 
Q 1472 3097 1187 3025 
Q 903 2953 641 2809 
L 641 3341 
Q 956 3463 1253 3523 
Q 1550 3584 1831 3584 
Q 2591 3584 2966 3190 
Q 3341 2797 3341 1997 
z
" transform="scale(0.015625)"/>
      <path id="DejaVuSans-6e" d="M 3513 2113 
L 3513 0 
L 2938 0 
L 2938 2094 
Q 2938 2591 2744 2837 
Q 2550 3084 2163 3084 
Q 1697 3084 1428 2787 
Q 1159 2491 1159 1978 
L 1159 0 
L 581 0 
L 581 3500 
L 1159 3500 
L 1159 2956 
Q 1366 3272 1645 3428 
Q 1925 3584 2291 3584 
Q 2894 3584 3203 3211 
Q 3513 2838 3513 2113 
z
" transform="scale(0.015625)"/>
      <path id="DejaVuSans-65" d="M 3597 1894 
L 3597 1613 
L 953 1613 
Q 991 1019 1311 708 
Q 1631 397 2203 397 
Q 2534 397 2845 478 
Q 3156 559 3463 722 
L 3463 178 
Q 3153 47 2828 -22 
Q 2503 -91 2169 -91 
Q 1331 -91 842 396 
Q 353 884 353 1716 
Q 353 2575 817 3079 
Q 1281 3584 2069 3584 
Q 2775 3584 3186 3129 
Q 3597 2675 3597 1894 
z
M 3022 2063 
Q 3016 2534 2758 2815 
Q 2500 3097 2075 3097 
Q 1594 3097 1305 2825 
Q 1016 2553 972 2059 
L 3022 2063 
z
" transform="scale(0.015625)"/>
      <path id="DejaVuSans-41" d="M 2188 4044 
L 1331 1722 
L 3047 1722 
L 2188 4044 
z
M 1831 4666 
L 2547 4666 
L 4325 0 
L 3669 0 
L 3244 1197 
L 1141 1197 
L 716 0 
L 50 0 
L 1831 4666 
z
" transform="scale(0.015625)"/>
      <path id="DejaVuSans-3a" d="M 750 794 
L 1409 794 
L 1409 0 
L 750 0 
L 750 794 
z
M 750 3309 
L 1409 3309 
L 1409 2516 
L 750 2516 
L 750 3309 
z
" transform="scale(0.015625)"/>
      <path id="DejaVuSans-72" d="M 2631 2963 
Q 2534 3019 2420 3045 
Q 2306 3072 2169 3072 
Q 1681 3072 1420 2755 
Q 1159 2438 1159 1844 
L 1159 0 
L 581 0 
L 581 3500 
L 1159 3500 
L 1159 2956 
Q 1341 3275 1631 3429 
Q 1922 3584 2338 3584 
Q 2397 3584 2469 3576 
Q 2541 3569 2628 3553 
L 2631 2963 
z
" transform="scale(0.015625)"/>
      <path id="DejaVuSans-79" d="M 2059 -325 
Q 1816 -950 1584 -1140 
Q 1353 -1331 966 -1331 
L 506 -1331 
L 506 -850 
L 844 -850 
Q 1081 -850 1212 -737 
Q 1344 -625 1503 -206 
L 1606 56 
L 191 3500 
L 800 3500 
L 1894 763 
L 2988 3500 
L 3597 3500 
L 2059 -325 
z
" transform="scale(0.015625)"/>
      <path id="DejaVuSans-2b" d="M 2944 4013 
L 2944 2272 
L 4684 2272 
L 4684 1741 
L 2944 1741 
L 2944 0 
L 2419 0 
L 2419 1741 
L 678 1741 
L 678 2272 
L 2419 2272 
L 2419 4013 
L 2944 4013 
z
" transform="scale(0.015625)"/>
      <path id="DejaVuSans-75" d="M 544 1381 
L 544 3500 
L 1119 3500 
L 1119 1403 
Q 1119 906 1312 657 
Q 1506 409 1894 409 
Q 2359 409 2629 706 
Q 2900 1003 2900 1516 
L 2900 3500 
L 3475 3500 
L 3475 0 
L 2900 0 
L 2900 538 
Q 2691 219 2414 64 
Q 2138 -91 1772 -91 
Q 1169 -91 856 284 
Q 544 659 544 1381 
z
M 1991 3584 
L 1991 3584 
z
" transform="scale(0.015625)"/>
      <path id="DejaVuSans-64" d="M 2906 2969 
L 2906 4863 
L 3481 4863 
L 3481 0 
L 2906 0 
L 2906 525 
Q 2725 213 2448 61 
Q 2172 -91 1784 -91 
Q 1150 -91 751 415 
Q 353 922 353 1747 
Q 353 2572 751 3078 
Q 1150 3584 1784 3584 
Q 2172 3584 2448 3432 
Q 2725 3281 2906 2969 
z
M 947 1747 
Q 947 1113 1208 752 
Q 1469 391 1925 391 
Q 2381 391 2643 752 
Q 2906 1113 2906 1747 
Q 2906 2381 2643 2742 
Q 2381 3103 1925 3103 
Q 1469 3103 1208 2742 
Q 947 2381 947 1747 
z
" transform="scale(0.015625)"/>
     </defs>
     <use xlink:href="#DejaVuSans-28"/>
     <use xlink:href="#DejaVuSans-4d" transform="translate(39.013672 0)"/>
     <use xlink:href="#DejaVuSans-4c" transform="translate(125.292969 0)"/>
     <use xlink:href="#DejaVuSans-49" transform="translate(181.005859 0)"/>
     <use xlink:href="#DejaVuSans-50" transform="translate(210.498047 0)"/>
     <use xlink:href="#DejaVuSans-20" transform="translate(270.800781 0)"/>
     <use xlink:href="#DejaVuSans-76" transform="translate(302.587891 0)"/>
     <use xlink:href="#DejaVuSans-73" transform="translate(361.767578 0)"/>
     <use xlink:href="#DejaVuSans-20" transform="translate(413.867188 0)"/>
     <use xlink:href="#DejaVuSans-4d" transform="translate(445.654297 0)"/>
     <use xlink:href="#DejaVuSans-53" transform="translate(531.933594 0)"/>
     <use xlink:href="#DejaVuSans-43" transform="translate(595.410156 0)"/>
     <use xlink:href="#DejaVuSans-29" transform="translate(665.234375 0)"/>
     <use xlink:href="#DejaVuSans-20" transform="translate(704.248047 0)"/>
     <use xlink:href="#DejaVuSans-2014" transform="translate(736.035156 0)"/>
     <use xlink:href="#DejaVuSans-20" transform="translate(836.035156 0)"/>
     <use xlink:href="#DejaVuSans-52" transform="translate(867.822266 0)"/>
     <use xlink:href="#DejaVuSans-2d" transform="translate(933.304688 0)"/>
     <use xlink:href="#DejaVuSans-66" transform="translate(969.388672 0)"/>
     <use xlink:href="#DejaVuSans-6c" transform="translate(1004.59375 0)"/>
     <use xlink:href="#DejaVuSans-6f" transform="translate(1032.376953 0)"/>
     <use xlink:href="#DejaVuSans-77" transform="translate(1093.558594 0)"/>
     <use xlink:href="#DejaVuSans-20" transform="translate(1175.345703 0)"/>
     <use xlink:href="#DejaVuSans-2014" transform="translate(1207.132812 0)"/>
     <use xlink:href="#DejaVuSans-20" transform="translate(1307.132812 0)"/>
     <use xlink:href="#DejaVuSans-50" transform="translate(1338.919922 0)"/>
     <use xlink:href="#DejaVuSans-61" transform="translate(1394.722656 0)"/>
     <use xlink:href="#DejaVuSans-6e" transform="translate(1456.001953 0)"/>
     <use xlink:href="#DejaVuSans-65" transform="translate(1519.380859 0)"/>
     <use xlink:href="#DejaVuSans-6c" transform="translate(1580.904297 0)"/>
     <use xlink:href="#DejaVuSans-20" transform="translate(1608.6875 0)"/>
     <use xlink:href="#DejaVuSans-41" transform="translate(1640.474609 0)"/>
     <use xlink:href="#DejaVuSans-3a" transform="translate(1707.132812 0)"/>
     <use xlink:href="#DejaVuSans-20" transform="translate(1740.824219 0)"/>
     <use xlink:href="#DejaVuSans-6f" transform="translate(1772.611328 0)"/>
     <use xlink:href="#DejaVuSans-76" transform="translate(1833.792969 0)"/>
     <use xlink:href="#DejaVuSans-65" transform="translate(1892.972656 0)"/>
     <use xlink:href="#DejaVuSans-72" transform="translate(1954.496094 0)"/>
     <use xlink:href="#DejaVuSans-6c" transform="translate(1995.609375 0)"/>
     <use xlink:href="#DejaVuSans-61" transform="translate(2023.392578 0)"/>
     <use xlink:href="#DejaVuSans-79" transform="translate(2084.671875 0)"/>
     <use xlink:href="#DejaVuSans-20" transform="translate(2143.851562 0)"/>
     <use xlink:href="#DejaVuSans-2b" transform="translate(2175.638672 0)"/>
     <use xlink:href="#DejaVuSans-20" transform="translate(2259.427734 0)"/>
     <use xlink:href="#DejaVuSans-6e" transform="translate(2291.214844 0)"/>
     <use xlink:href="#DejaVuSans-75" transform="translate(2354.59375 0)"/>
     <use xlink:href="#DejaVuSans-6c" transform="translate(2417.972656 0)"/>
     <use xlink:href="#DejaVuSans-6c" transform="translate(2445.755859 0)"/>
     <use xlink:href="#DejaVuSans-20" transform="translate(2473.539062 0)"/>
     <use xlink:href="#DejaVuSans-62" transform="translate(2505.326172 0)"/>
     <use xlink:href="#DejaVuSans-61" transform="translate(2568.802734 0)"/>
     <use xlink:href="#DejaVuSans-6e" transform="translate(2630.082031 0)"/>
     <use xlink:href="#DejaVuSans-64" transform="translate(2693.460938 0)"/>
     <use xlink:href="#DejaVuSans-73" transform="translate(2756.9375 0)"/>
    </g>
   </g>
   <g id="legend_1">
    <g id="patch_7">
     <path d="M 79.2 83.990437 
L 99.2 83.990437 
L 99.2 76.990437 
L 79.2 76.990437 
z
" style="fill: #1f77b4; fill-opacity: 0.15"/>
    </g>
    <g id="text_13">
     <!-- MLIP→MSC null μ±σ -->
     <g transform="translate(107.2 83.990437) scale(0.1 -0.1)">
      <defs>
       <path id="DejaVuSans-2192" d="M 5050 2147 
L 5050 1866 
L 3822 638 
L 3447 1013 
L 4175 1741 
L 366 1741 
L 366 2272 
L 4175 2272 
L 3447 3000 
L 3822 3375 
L 5050 2147 
z
" transform="scale(0.015625)"/>
       <path id="DejaVuSans-3bc" d="M 544 -1331 
L 544 3500 
L 1119 3500 
L 1119 1325 
Q 1119 872 1334 640 
Q 1550 409 1972 409 
Q 2434 409 2667 671 
Q 2900 934 2900 1459 
L 2900 3500 
L 3475 3500 
L 3475 806 
Q 3475 619 3529 530 
Q 3584 441 3700 441 
Q 3728 441 3778 458 
Q 3828 475 3916 513 
L 3916 50 
Q 3788 -22 3673 -56 
Q 3559 -91 3450 -91 
Q 3234 -91 3106 31 
Q 2978 153 2931 403 
Q 2775 156 2548 32 
Q 2322 -91 2016 -91 
Q 1697 -91 1473 31 
Q 1250 153 1119 397 
L 1119 -1331 
L 544 -1331 
z
" transform="scale(0.015625)"/>
       <path id="DejaVuSans-b1" d="M 2944 4013 
L 2944 2803 
L 4684 2803 
L 4684 2272 
L 2944 2272 
L 2944 1063 
L 2419 1063 
L 2419 2272 
L 678 2272 
L 678 2803 
L 2419 2803 
L 2419 4013 
L 2944 4013 
z
M 678 531 
L 4684 531 
L 4684 0 
L 678 0 
L 678 531 
z
" transform="scale(0.015625)"/>
       <path id="DejaVuSans-3c3" d="M 1959 3044 
Q 1484 3044 1228 2700 
Q 959 2341 959 1747 
Q 959 1119 1226 758 
Q 1494 397 1959 397 
Q 2419 397 2687 759 
Q 2956 1122 2956 1747 
Q 2956 2319 2688 2700 
Q 2441 3044 1959 3044 
z
M 1959 3500 
L 3869 3500 
L 3869 2925 
L 3225 2925 
Q 3566 2438 3566 1747 
Q 3566 888 3138 400 
Q 2709 -91 1959 -91 
Q 1206 -91 781 400 
Q 353 888 353 1747 
Q 353 2613 781 3097 
Q 1134 3500 1959 3500 
z
" transform="scale(0.015625)"/>
      </defs>
      <use xlink:href="#DejaVuSans-4d"/>
      <use xlink:href="#DejaVuSans-4c" transform="translate(86.279297 0)"/>
      <use xlink:href="#DejaVuSans-49" transform="translate(141.992188 0)"/>
      <use xlink:href="#DejaVuSans-50" transform="translate(171.484375 0)"/>
      <use xlink:href="#DejaVuSans-2192" transform="translate(231.787109 0)"/>
      <use xlink:href="#DejaVuSans-4d" transform="translate(315.576172 0)"/>
      <use xlink:href="#DejaVuSans-53" transform="translate(401.855469 0)"/>
      <use xlink:href="#DejaVuSans-43" transform="translate(465.332031 0)"/>
      <use xlink:href="#DejaVuSans-20" transform="translate(535.15625 0)"/>
      <use xlink:href="#DejaVuSans-6e" transform="translate(566.943359 0)"/>
      <use xlink:href="#DejaVuSans-75" transform="translate(630.322266 0)"/>
      <use xlink:href="#DejaVuSans-6c" transform="translate(693.701172 0)"/>
      <use xlink:href="#DejaVuSans-6c" transform="translate(721.484375 0)"/>
      <use xlink:href="#DejaVuSans-20" transform="translate(749.267578 0)"/>
      <use xlink:href="#DejaVuSans-3bc" transform="translate(781.054688 0)"/>
      <use xlink:href="#DejaVuSans-b1" transform="translate(844.677734 0)"/>
      <use xlink:href="#DejaVuSans-3c3" transform="translate(928.466797 0)"/>
     </g>
    </g>
    <g id="patch_8">
     <path d="M 79.2 98.668563 
L 99.2 98.668563 
L 99.2 91.668563 
L 79.2 91.668563 
z
" style="fill: #ff7f0e; fill-opacity: 0.15"/>
    </g>
    <g id="text_14">
     <!-- MSC→MLIP null μ±σ -->
     <g transform="translate(107.2 98.668563) scale(0.1 -0.1)">
      <use xlink:href="#DejaVuSans-4d"/>
      <use xlink:href="#DejaVuSans-53" transform="translate(86.279297 0)"/>
      <use xlink:href="#DejaVuSans-43" transform="translate(149.755859 0)"/>
      <use xlink:href="#DejaVuSans-2192" transform="translate(219.580078 0)"/>
      <use xlink:href="#DejaVuSans-4d" transform="translate(303.369141 0)"/>
      <use xlink:href="#DejaVuSans-4c" transform="translate(389.648438 0)"/>
      <use xlink:href="#DejaVuSans-49" transform="translate(445.361328 0)"/>
      <use xlink:href="#DejaVuSans-50" transform="translate(474.853516 0)"/>
      <use xlink:href="#DejaVuSans-20" transform="translate(535.15625 0)"/>
      <use xlink:href="#DejaVuSans-6e" transform="translate(566.943359 0)"/>
      <use xlink:href="#DejaVuSans-75" transform="translate(630.322266 0)"/>
      <use xlink:href="#DejaVuSans-6c" transform="translate(693.701172 0)"/>
      <use xlink:href="#DejaVuSans-6c" transform="translate(721.484375 0)"/>
      <use xlink:href="#DejaVuSans-20" transform="translate(749.267578 0)"/>
      <use xlink:href="#DejaVuSans-3bc" transform="translate(781.054688 0)"/>
      <use xlink:href="#DejaVuSans-b1" transform="translate(844.677734 0)"/>
      <use xlink:href="#DejaVuSans-3c3" transform="translate(928.466797 0)"/>
     </g>
    </g>
    <g id="line2d_16">
     <path d="M 226.385938 80.490437 
L 236.385938 80.490437 
L 246.385938 80.490437 
" style="fill: none; stroke: #1f77b4; stroke-width: 2.2; stroke-linecap: square"/>
    </g>
    <g id="text_15">
     <!-- MLIP→MSC -->
     <g transform="translate(254.385938 83.990437) scale(0.1 -0.1)">
      <use xlink:href="#DejaVuSans-4d"/>
      <use xlink:href="#DejaVuSans-4c" transform="translate(86.279297 0)"/>
      <use xlink:href="#DejaVuSans-49" transform="translate(141.992188 0)"/>
      <use xlink:href="#DejaVuSans-50" transform="translate(171.484375 0)"/>
      <use xlink:href="#DejaVuSans-2192" transform="translate(231.787109 0)"/>
      <use xlink:href="#DejaVuSans-4d" transform="translate(315.576172 0)"/>
      <use xlink:href="#DejaVuSans-53" transform="translate(401.855469 0)"/>
      <use xlink:href="#DejaVuSans-43" transform="translate(465.332031 0)"/>
     </g>
    </g>
    <g id="line2d_17">
     <path d="M 226.385938 95.168563 
L 236.385938 95.168563 
L 246.385938 95.168563 
" style="fill: none; stroke: #ff7f0e; stroke-width: 2.2; stroke-linecap: square"/>
    </g>
    <g id="text_16">
     <!-- MSC→MLIP -->
     <g transform="translate(254.385938 98.668563) scale(0.1 -0.1)">
      <use xlink:href="#DejaVuSans-4d"/>
      <use xlink:href="#DejaVuSans-53" transform="translate(86.279297 0)"/>
      <use xlink:href="#DejaVuSans-43" transform="translate(149.755859 0)"/>
      <use xlink:href="#DejaVuSans-2192" transform="translate(219.580078 0)"/>
      <use xlink:href="#DejaVuSans-4d" transform="translate(303.369141 0)"/>
      <use xlink:href="#DejaVuSans-4c" transform="translate(389.648438 0)"/>
      <use xlink:href="#DejaVuSans-49" transform="translate(445.361328 0)"/>
      <use xlink:href="#DejaVuSans-50" transform="translate(474.853516 0)"/>
     </g>
    </g>
   </g>
  </g>
  <g id="axes_2">
   <g id="patch_9">
    <path d="M 70.2 353.106 
L 505.44 353.106 
L 505.44 237.276 
L 70.2 237.276 
z
" style="fill: #ffffff"/>
   </g>
   <g id="matplotlib.axis_3">
    <g id="xtick_7">
     <g id="line2d_18">
      <g>
       <use xlink:href="#mc2cb7e183f" x="87.985286" y="353.106" style="stroke: #000000; stroke-width: 0.8"/>
      </g>
     </g>
     <g id="text_17">
      <!-- −200 -->
      <g transform="translate(74.251693 367.704438) scale(0.1 -0.1)">
       <use xlink:href="#DejaVuSans-2212"/>
       <use xlink:href="#DejaVuSans-32" transform="translate(83.789062 0)"/>
       <use xlink:href="#DejaVuSans-30" transform="translate(147.412109 0)"/>
       <use xlink:href="#DejaVuSans-30" transform="translate(211.035156 0)"/>
      </g>
     </g>
    </g>
    <g id="xtick_8">
     <g id="line2d_19">
      <g>
       <use xlink:href="#mc2cb7e183f" x="167.91917" y="353.106" style="stroke: #000000; stroke-width: 0.8"/>
      </g>
     </g>
     <g id="text_18">
      <!-- 0 -->
      <g transform="translate(164.73792 367.704438) scale(0.1 -0.1)">
       <use xlink:href="#DejaVuSans-30"/>
      </g>
     </g>
    </g>
    <g id="xtick_9">
     <g id="line2d_20">
      <g>
       <use xlink:href="#mc2cb7e183f" x="247.853053" y="353.106" style="stroke: #000000; stroke-width: 0.8"/>
      </g>
     </g>
     <g id="text_19">
      <!-- 200 -->
      <g transform="translate(238.309303 367.704438) scale(0.1 -0.1)">
       <use xlink:href="#DejaVuSans-32"/>
       <use xlink:href="#DejaVuSans-30" transform="translate(63.623047 0)"/>
       <use xlink:href="#DejaVuSans-30" transform="translate(127.246094 0)"/>
      </g>
     </g>
    </g>
    <g id="xtick_10">
     <g id="line2d_21">
      <g>
       <use xlink:href="#mc2cb7e183f" x="327.786937" y="353.106" style="stroke: #000000; stroke-width: 0.8"/>
      </g>
     </g>
     <g id="text_20">
      <!-- 400 -->
      <g transform="translate(318.243187 367.704438) scale(0.1 -0.1)">
       <use xlink:href="#DejaVuSans-34"/>
       <use xlink:href="#DejaVuSans-30" transform="translate(63.623047 0)"/>
       <use xlink:href="#DejaVuSans-30" transform="translate(127.246094 0)"/>
      </g>
     </g>
    </g>
    <g id="xtick_11">
     <g id="line2d_22">
      <g>
       <use xlink:href="#mc2cb7e183f" x="407.720821" y="353.106" style="stroke: #000000; stroke-width: 0.8"/>
      </g>
     </g>
     <g id="text_21">
      <!-- 600 -->
      <g transform="translate(398.177071 367.704438) scale(0.1 -0.1)">
       <use xlink:href="#DejaVuSans-36"/>
       <use xlink:href="#DejaVuSans-30" transform="translate(63.623047 0)"/>
       <use xlink:href="#DejaVuSans-30" transform="translate(127.246094 0)"/>
      </g>
     </g>
    </g>
    <g id="xtick_12">
     <g id="line2d_23">
      <g>
       <use xlink:href="#mc2cb7e183f" x="487.654704" y="353.106" style="stroke: #000000; stroke-width: 0.8"/>
      </g>
     </g>
     <g id="text_22">
      <!-- 800 -->
      <g transform="translate(478.110954 367.704438) scale(0.1 -0.1)">
       <use xlink:href="#DejaVuSans-38"/>
       <use xlink:href="#DejaVuSans-30" transform="translate(63.623047 0)"/>
       <use xlink:href="#DejaVuSans-30" transform="translate(127.246094 0)"/>
      </g>
     </g>
    </g>
   </g>
   <g id="matplotlib.axis_4">
    <g id="ytick_5">
     <g id="line2d_24">
      <g>
       <use xlink:href="#m50672892fc" x="70.2" y="339.377197" style="stroke: #000000; stroke-width: 0.8"/>
      </g>
     </g>
     <g id="text_23">
      <!-- −10 -->
      <g transform="translate(42.095313 343.176416) scale(0.1 -0.1)">
       <use xlink:href="#DejaVuSans-2212"/>
       <use xlink:href="#DejaVuSans-31" transform="translate(83.789062 0)"/>
       <use xlink:href="#DejaVuSans-30" transform="translate(147.412109 0)"/>
      </g>
     </g>
    </g>
    <g id="ytick_6">
     <g id="line2d_25">
      <g>
       <use xlink:href="#m50672892fc" x="70.2" y="312.038179" style="stroke: #000000; stroke-width: 0.8"/>
      </g>
     </g>
     <g id="text_24">
      <!-- −5 -->
      <g transform="translate(48.457813 315.837398) scale(0.1 -0.1)">
       <use xlink:href="#DejaVuSans-2212"/>
       <use xlink:href="#DejaVuSans-35" transform="translate(83.789062 0)"/>
      </g>
     </g>
    </g>
    <g id="ytick_7">
     <g id="line2d_26">
      <g>
       <use xlink:href="#m50672892fc" x="70.2" y="284.699161" style="stroke: #000000; stroke-width: 0.8"/>
      </g>
     </g>
     <g id="text_25">
      <!-- 0 -->
      <g transform="translate(56.8375 288.49838) scale(0.1 -0.1)">
       <use xlink:href="#DejaVuSans-30"/>
      </g>
     </g>
    </g>
    <g id="ytick_8">
     <g id="line2d_27">
      <g>
       <use xlink:href="#m50672892fc" x="70.2" y="257.360143" style="stroke: #000000; stroke-width: 0.8"/>
      </g>
     </g>
     <g id="text_26">
      <!-- 5 -->
      <g transform="translate(56.8375 261.159362) scale(0.1 -0.1)">
       <use xlink:href="#DejaVuSans-35"/>
      </g>
     </g>
    </g>
    <g id="text_27">
     <!-- ΔΔLL (bits) -->
     <g transform="translate(36.015625 322.22225) rotate(-90) scale(0.1 -0.1)">
      <use xlink:href="#DejaVuSans-394"/>
      <use xlink:href="#DejaVuSans-394" transform="translate(68.408203 0)"/>
      <use xlink:href="#DejaVuSans-4c" transform="translate(136.816406 0)"/>
      <use xlink:href="#DejaVuSans-4c" transform="translate(192.529297 0)"/>
      <use xlink:href="#DejaVuSans-20" transform="translate(248.242188 0)"/>
      <use xlink:href="#DejaVuSans-28" transform="translate(280.029297 0)"/>
      <use xlink:href="#DejaVuSans-62" transform="translate(319.042969 0)"/>
      <use xlink:href="#DejaVuSans-69" transform="translate(382.519531 0)"/>
      <use xlink:href="#DejaVuSans-74" transform="translate(410.302734 0)"/>
      <use xlink:href="#DejaVuSans-73" transform="translate(449.511719 0)"/>
      <use xlink:href="#DejaVuSans-29" transform="translate(501.611328 0)"/>
     </g>
    </g>
   </g>
   <g id="line2d_28">
    <path d="M 167.91917 353.106 
L 167.91917 237.276 
" clip-path="url(#p2f4bdd35f8)" style="fill: none; stroke-dasharray: 2.96,1.28; stroke-dashoffset: 0; stroke: #000000; stroke-width: 0.8"/>
   </g>
   <g id="line2d_29">
    <path d="M 70.2 284.699161 
L 505.44 284.699161 
" clip-path="url(#p2f4bdd35f8)" style="fill: none; stroke-dasharray: 0.8,1.32; stroke-dashoffset: 0; stroke: #000000; stroke-width: 0.8"/>
   </g>
   <g id="line2d_30">
    <path d="M 89.983636 262.253471 
L 93.980327 266.720187 
L 97.977023 319.71903 
L 101.973713 305.568759 
L 105.97041 270.495477 
L 109.967106 283.437441 
L 113.963796 260.674293 
L 117.960493 288.264463 
L 121.957186 289.233582 
L 125.953882 304.751413 
L 129.950576 255.057983 
L 133.947269 263.70126 
L 137.943962 260.69377 
L 141.940659 293.705323 
L 145.937352 294.55091 
L 149.934045 268.1555 
L 153.93074 270.149059 
L 157.927434 297.269058 
L 161.924129 286.940857 
L 165.920823 302.797728 
L 169.917517 257.26052 
L 173.914211 306.25956 
L 177.910906 298.104905 
L 181.9076 243.003572 
L 185.904294 283.839729 
L 189.900988 320.381449 
L 193.897681 301.448826 
L 197.894377 280.277063 
L 201.891071 291.128688 
L 205.887764 263.845616 
L 209.884457 281.276399 
L 213.881154 315.898036 
L 217.877847 326.014417 
L 221.874543 285.827297 
L 225.871234 266.966044 
L 229.86793 254.538429 
L 233.864626 264.614876 
L 237.861317 257.626842 
L 241.858013 310.748336 
L 245.854704 293.580268 
L 249.8514 259.838101 
L 253.848096 289.098805 
L 257.844787 263.147396 
L 261.841483 307.506925 
L 265.838179 296.515361 
L 269.83487 285.990347 
L 273.83156 313.444002 
L 277.828262 288.180639 
L 281.824953 286.56605 
L 285.821643 295.207757 
L 289.818345 308.496795 
L 293.815036 296.344243 
L 297.811726 322.359935 
L 301.808428 257.043335 
L 305.805119 347.841 
L 309.801809 292.179505 
L 313.798511 310.347388 
L 317.795202 307.220163 
L 321.791892 286.337699 
L 325.788594 257.720439 
L 329.785285 261.514664 
L 333.781975 278.038647 
L 337.778677 295.553739 
L 341.775368 278.846802 
L 345.772058 288.319738 
L 349.76876 263.254959 
L 353.765451 263.26116 
L 357.762141 270.954981 
L 361.758843 293.411961 
L 365.755534 251.297343 
L 369.752224 281.733532 
L 373.748914 259.215122 
L 377.745605 273.336699 
L 381.742319 255.975196 
L 385.739009 267.243549 
L 389.7357 262.327939 
L 393.73239 261.928704 
L 397.72908 270.477228 
L 401.725771 257.223968 
L 405.722485 286.932733 
L 409.719175 303.033546 
L 413.715866 273.973327 
L 417.712556 280.18082 
L 421.709246 258.147267 
L 425.705937 285.578992 
L 429.702627 242.541 
L 433.699341 301.852234 
L 437.696032 285.194157 
L 441.692722 313.571845 
L 445.689412 317.774597 
L 449.686103 288.563521 
L 453.682793 260.008653 
L 457.679507 282.591633 
L 461.676198 281.678191 
L 465.672888 284.113241 
L 469.669578 309.286575 
L 473.666269 280.383821 
L 477.662959 282.163327 
L 481.659673 310.235744 
L 485.656364 303.662836 
" clip-path="url(#p2f4bdd35f8)" style="fill: none; stroke: #d62728; stroke-width: 2.2; stroke-linecap: square"/>
   </g>
   <g id="line2d_31">
    <defs>
     <path id="ma565953a88" d="M 0 1.25 
C 0.331504 1.25 0.649475 1.118292 0.883883 0.883883 
C 1.118292 0.649475 1.25 0.331504 1.25 0 
C 1.25 -0.331504 1.118292 -0.649475 0.883883 -0.883883 
C 0.649475 -1.118292 0.331504 -1.25 0 -1.25 
C -0.331504 -1.25 -0.649475 -1.118292 -0.883883 -0.883883 
C -1.118292 -0.649475 -1.25 -0.331504 -1.25 0 
C -1.25 0.331504 -1.118292 0.649475 -0.883883 0.883883 
C -0.649475 1.118292 -0.331504 1.25 0 1.25 
z
" style="stroke: #000000"/>
    </defs>
    <g clip-path="url(#p2f4bdd35f8)">
     <use xlink:href="#ma565953a88" x="101.973713" y="305.568759" style="stroke: #000000"/>
     <use xlink:href="#ma565953a88" x="125.953882" y="304.751413" style="stroke: #000000"/>
     <use xlink:href="#ma565953a88" x="173.914211" y="306.25956" style="stroke: #000000"/>
     <use xlink:href="#ma565953a88" x="181.9076" y="243.003572" style="stroke: #000000"/>
     <use xlink:href="#ma565953a88" x="205.887764" y="263.845616" style="stroke: #000000"/>
     <use xlink:href="#ma565953a88" x="213.881154" y="315.898036" style="stroke: #000000"/>
     <use xlink:href="#ma565953a88" x="217.877847" y="326.014417" style="stroke: #000000"/>
     <use xlink:href="#ma565953a88" x="249.8514" y="259.838101" style="stroke: #000000"/>
     <use xlink:href="#ma565953a88" x="285.821643" y="295.207757" style="stroke: #000000"/>
     <use xlink:href="#ma565953a88" x="297.811726" y="322.359935" style="stroke: #000000"/>
     <use xlink:href="#ma565953a88" x="301.808428" y="257.043335" style="stroke: #000000"/>
     <use xlink:href="#ma565953a88" x="305.805119" y="347.841" style="stroke: #000000"/>
     <use xlink:href="#ma565953a88" x="317.795202" y="307.220163" style="stroke: #000000"/>
     <use xlink:href="#ma565953a88" x="333.781975" y="278.038647" style="stroke: #000000"/>
     <use xlink:href="#ma565953a88" x="353.765451" y="263.26116" style="stroke: #000000"/>
     <use xlink:href="#ma565953a88" x="365.755534" y="251.297343" style="stroke: #000000"/>
     <use xlink:href="#ma565953a88" x="393.73239" y="261.928704" style="stroke: #000000"/>
     <use xlink:href="#ma565953a88" x="421.709246" y="258.147267" style="stroke: #000000"/>
     <use xlink:href="#ma565953a88" x="429.702627" y="242.541" style="stroke: #000000"/>
     <use xlink:href="#ma565953a88" x="453.682793" y="260.008653" style="stroke: #000000"/>
    </g>
   </g>
   <g id="patch_10">
    <path d="M 70.2 353.106 
L 70.2 237.276 
" style="fill: none; stroke: #000000; stroke-width: 0.8; stroke-linejoin: miter; stroke-linecap: square"/>
   </g>
   <g id="patch_11">
    <path d="M 505.44 353.106 
L 505.44 237.276 
" style="fill: none; stroke: #000000; stroke-width: 0.8; stroke-linejoin: miter; stroke-linecap: square"/>
   </g>
   <g id="patch_12">
    <path d="M 70.2 353.106 
L 505.44 353.106 
" style="fill: none; stroke: #000000; stroke-width: 0.8; stroke-linejoin: miter; stroke-linecap: square"/>
   </g>
   <g id="patch_13">
    <path d="M 70.2 237.276 
L 505.44 237.276 
" style="fill: none; stroke: #000000; stroke-width: 0.8; stroke-linejoin: miter; stroke-linecap: square"/>
   </g>
   <g id="text_28">
    <!-- Panel B: pair-diff with significance dots -->
    <g transform="translate(171.554063 231.276) scale(0.12 -0.12)">
     <defs>
      <path id="DejaVuSans-42" d="M 1259 2228 
L 1259 519 
L 2272 519 
Q 2781 519 3026 730 
Q 3272 941 3272 1375 
Q 3272 1813 3026 2020 
Q 2781 2228 2272 2228 
L 1259 2228 
z
M 1259 4147 
L 1259 2741 
L 2194 2741 
Q 2656 2741 2882 2914 
Q 3109 3088 3109 3444 
Q 3109 3797 2882 3972 
Q 2656 4147 2194 4147 
L 1259 4147 
z
M 628 4666 
L 2241 4666 
Q 2963 4666 3353 4366 
Q 3744 4066 3744 3513 
Q 3744 3084 3544 2831 
Q 3344 2578 2956 2516 
Q 3422 2416 3680 2098 
Q 3938 1781 3938 1306 
Q 3938 681 3513 340 
Q 3088 0 2303 0 
L 628 0 
L 628 4666 
z
" transform="scale(0.015625)"/>
      <path id="DejaVuSans-70" d="M 1159 525 
L 1159 -1331 
L 581 -1331 
L 581 3500 
L 1159 3500 
L 1159 2969 
Q 1341 3281 1617 3432 
Q 1894 3584 2278 3584 
Q 2916 3584 3314 3078 
Q 3713 2572 3713 1747 
Q 3713 922 3314 415 
Q 2916 -91 2278 -91 
Q 1894 -91 1617 61 
Q 1341 213 1159 525 
z
M 3116 1747 
Q 3116 2381 2855 2742 
Q 2594 3103 2138 3103 
Q 1681 3103 1420 2742 
Q 1159 2381 1159 1747 
Q 1159 1113 1420 752 
Q 1681 391 2138 391 
Q 2594 391 2855 752 
Q 3116 1113 3116 1747 
z
" transform="scale(0.015625)"/>
      <path id="DejaVuSans-68" d="M 3513 2113 
L 3513 0 
L 2938 0 
L 2938 2094 
Q 2938 2591 2744 2837 
Q 2550 3084 2163 3084 
Q 1697 3084 1428 2787 
Q 1159 2491 1159 1978 
L 1159 0 
L 581 0 
L 581 4863 
L 1159 4863 
L 1159 2956 
Q 1366 3272 1645 3428 
Q 1925 3584 2291 3584 
Q 2894 3584 3203 3211 
Q 3513 2838 3513 2113 
z
" transform="scale(0.015625)"/>
      <path id="DejaVuSans-67" d="M 2906 1791 
Q 2906 2416 2648 2759 
Q 2391 3103 1925 3103 
Q 1463 3103 1205 2759 
Q 947 2416 947 1791 
Q 947 1169 1205 825 
Q 1463 481 1925 481 
Q 2391 481 2648 825 
Q 2906 1169 2906 1791 
z
M 3481 434 
Q 3481 -459 3084 -895 
Q 2688 -1331 1869 -1331 
Q 1566 -1331 1297 -1286 
Q 1028 -1241 775 -1147 
L 775 -588 
Q 1028 -725 1275 -790 
Q 1522 -856 1778 -856 
Q 2344 -856 2625 -561 
Q 2906 -266 2906 331 
L 2906 616 
Q 2728 306 2450 153 
Q 2172 0 1784 0 
Q 1141 0 747 490 
Q 353 981 353 1791 
Q 353 2603 747 3093 
Q 1141 3584 1784 3584 
Q 2172 3584 2450 3431 
Q 2728 3278 2906 2969 
L 2906 3500 
L 3481 3500 
L 3481 434 
z
" transform="scale(0.015625)"/>
      <path id="DejaVuSans-63" d="M 3122 3366 
L 3122 2828 
Q 2878 2963 2633 3030 
Q 2388 3097 2138 3097 
Q 1578 3097 1268 2742 
Q 959 2388 959 1747 
Q 959 1106 1268 751 
Q 1578 397 2138 397 
Q 2388 397 2633 464 
Q 2878 531 3122 666 
L 3122 134 
Q 2881 22 2623 -34 
Q 2366 -91 2075 -91 
Q 1284 -91 818 406 
Q 353 903 353 1747 
Q 353 2603 823 3093 
Q 1294 3584 2113 3584 
Q 2378 3584 2631 3529 
Q 2884 3475 3122 3366 
z
" transform="scale(0.015625)"/>
     </defs>
     <use xlink:href="#DejaVuSans-50"/>
     <use xlink:href="#DejaVuSans-61" transform="translate(55.802734 0)"/>
     <use xlink:href="#DejaVuSans-6e" transform="translate(117.082031 0)"/>
     <use xlink:href="#DejaVuSans-65" transform="translate(180.460938 0)"/>
     <use xlink:href="#DejaVuSans-6c" transform="translate(241.984375 0)"/>
     <use xlink:href="#DejaVuSans-20" transform="translate(269.767578 0)"/>
     <use xlink:href="#DejaVuSans-42" transform="translate(301.554688 0)"/>
     <use xlink:href="#DejaVuSans-3a" transform="translate(370.158203 0)"/>
     <use xlink:href="#DejaVuSans-20" transform="translate(403.849609 0)"/>
     <use xlink:href="#DejaVuSans-70" transform="translate(435.636719 0)"/>
     <use xlink:href="#DejaVuSans-61" transform="translate(499.113281 0)"/>
     <use xlink:href="#DejaVuSans-69" transform="translate(560.392578 0)"/>
     <use xlink:href="#DejaVuSans-72" transform="translate(588.175781 0)"/>
     <use xlink:href="#DejaVuSans-2d" transform="translate(622.914062 0)"/>
     <use xlink:href="#DejaVuSans-64" transform="translate(658.998047 0)"/>
     <use xlink:href="#DejaVuSans-69" transform="translate(722.474609 0)"/>
     <use xlink:href="#DejaVuSans-66" transform="translate(750.257812 0)"/>
     <use xlink:href="#DejaVuSans-66" transform="translate(785.462891 0)"/>
     <use xlink:href="#DejaVuSans-20" transform="translate(820.667969 0)"/>
     <use xlink:href="#DejaVuSans-77" transform="translate(852.455078 0)"/>
     <use xlink:href="#DejaVuSans-69" transform="translate(934.242188 0)"/>
     <use xlink:href="#DejaVuSans-74" transform="translate(962.025391 0)"/>
     <use xlink:href="#DejaVuSans-68" transform="translate(1001.234375 0)"/>
     <use xlink:href="#DejaVuSans-20" transform="translate(1064.613281 0)"/>
     <use xlink:href="#DejaVuSans-73" transform="translate(1096.400391 0)"/>
     <use xlink:href="#DejaVuSans-69" transform="translate(1148.5 0)"/>
     <use xlink:href="#DejaVuSans-67" transform="translate(1176.283203 0)"/>
     <use xlink:href="#DejaVuSans-6e" transform="translate(1239.759766 0)"/>
     <use xlink:href="#DejaVuSans-69" transform="translate(1303.138672 0)"/>
     <use xlink:href="#DejaVuSans-66" transform="translate(1330.921875 0)"/>
     <use xlink:href="#DejaVuSans-69" transform="translate(1366.126953 0)"/>
     <use xlink:href="#DejaVuSans-63" transform="translate(1393.910156 0)"/>
     <use xlink:href="#DejaVuSans-61" transform="translate(1448.890625 0)"/>
     <use xlink:href="#DejaVuSans-6e" transform="translate(1510.169922 0)"/>
     <use xlink:href="#DejaVuSans-63" transform="translate(1573.548828 0)"/>
     <use xlink:href="#DejaVuSans-65" transform="translate(1628.529297 0)"/>
     <use xlink:href="#DejaVuSans-20" transform="translate(1690.052734 0)"/>
     <use xlink:href="#DejaVuSans-64" transform="translate(1721.839844 0)"/>
     <use xlink:href="#DejaVuSans-6f" transform="translate(1785.316406 0)"/>
     <use xlink:href="#DejaVuSans-74" transform="translate(1846.498047 0)"/>
     <use xlink:href="#DejaVuSans-73" transform="translate(1885.707031 0)"/>
    </g>
   </g>
   <g id="legend_2">
    <g id="line2d_32">
     <path d="M 79.2 250.374437 
L 89.2 250.374437 
L 99.2 250.374437 
" style="fill: none; stroke: #d62728; stroke-width: 2.2; stroke-linecap: square"/>
    </g>
    <g id="text_29">
     <!-- (A→B − B→A) -->
     <g transform="translate(107.2 253.874437) scale(0.1 -0.1)">
      <use xlink:href="#DejaVuSans-28"/>
      <use xlink:href="#DejaVuSans-41" transform="translate(39.013672 0)"/>
      <use xlink:href="#DejaVuSans-2192" transform="translate(107.421875 0)"/>
      <use xlink:href="#DejaVuSans-42" transform="translate(191.210938 0)"/>
      <use xlink:href="#DejaVuSans-20" transform="translate(259.814453 0)"/>
      <use xlink:href="#DejaVuSans-2212" transform="translate(291.601562 0)"/>
      <use xlink:href="#DejaVuSans-20" transform="translate(375.390625 0)"/>
      <use xlink:href="#DejaVuSans-42" transform="translate(407.177734 0)"/>
      <use xlink:href="#DejaVuSans-2192" transform="translate(475.78125 0)"/>
      <use xlink:href="#DejaVuSans-41" transform="translate(559.570312 0)"/>
      <use xlink:href="#DejaVuSans-29" transform="translate(627.978516 0)"/>
     </g>
    </g>
    <g id="line2d_33">
     <g>
      <use xlink:href="#ma565953a88" x="89.2" y="265.052563" style="stroke: #000000"/>
     </g>
    </g>
    <g id="text_30">
     <!-- p&lt;0.05 (one-sided) -->
     <g transform="translate(107.2 268.552563) scale(0.1 -0.1)">
      <defs>
       <path id="DejaVuSans-3c" d="M 4684 3150 
L 1459 2003 
L 4684 863 
L 4684 294 
L 678 1747 
L 678 2266 
L 4684 3719 
L 4684 3150 
z
" transform="scale(0.015625)"/>
       <path id="DejaVuSans-2e" d="M 684 794 
L 1344 794 
L 1344 0 
L 684 0 
L 684 794 
z
" transform="scale(0.015625)"/>
      </defs>
      <use xlink:href="#DejaVuSans-70"/>
      <use xlink:href="#DejaVuSans-3c" transform="translate(63.476562 0)"/>
      <use xlink:href="#DejaVuSans-30" transform="translate(147.265625 0)"/>
      <use xlink:href="#DejaVuSans-2e" transform="translate(210.888672 0)"/>
      <use xlink:href="#DejaVuSans-30" transform="translate(242.675781 0)"/>
      <use xlink:href="#DejaVuSans-35" transform="translate(306.298828 0)"/>
      <use xlink:href="#DejaVuSans-20" transform="translate(369.921875 0)"/>
      <use xlink:href="#DejaVuSans-28" transform="translate(401.708984 0)"/>
      <use xlink:href="#DejaVuSans-6f" transform="translate(440.722656 0)"/>
      <use xlink:href="#DejaVuSans-6e" transform="translate(501.904297 0)"/>
      <use xlink:href="#DejaVuSans-65" transform="translate(565.283203 0)"/>
      <use xlink:href="#DejaVuSans-2d" transform="translate(626.806641 0)"/>
      <use xlink:href="#DejaVuSans-73" transform="translate(662.890625 0)"/>
      <use xlink:href="#DejaVuSans-69" transform="translate(714.990234 0)"/>
      <use xlink:href="#DejaVuSans-64" transform="translate(742.773438 0)"/>
      <use xlink:href="#DejaVuSans-65" transform="translate(806.25 0)"/>
      <use xlink:href="#DejaVuSans-64" transform="translate(867.773438 0)"/>
      <use xlink:href="#DejaVuSans-29" transform="translate(931.25 0)"/>
     </g>
    </g>
   </g>
  </g>
  <g id="axes_3">
   <g id="patch_14">
    <path d="M 70.2 499.824 
L 505.44 499.824 
L 505.44 383.994 
L 70.2 383.994 
z
" style="fill: #ffffff"/>
   </g>
   <g id="matplotlib.axis_5">
    <g id="xtick_13">
     <g id="line2d_34">
      <g>
       <use xlink:href="#mc2cb7e183f" x="87.985286" y="499.824" style="stroke: #000000; stroke-width: 0.8"/>
      </g>
     </g>
     <g id="text_31">
      <!-- −200 -->
      <g transform="translate(74.251693 514.422438) scale(0.1 -0.1)">
       <use xlink:href="#DejaVuSans-2212"/>
       <use xlink:href="#DejaVuSans-32" transform="translate(83.789062 0)"/>
       <use xlink:href="#DejaVuSans-30" transform="translate(147.412109 0)"/>
       <use xlink:href="#DejaVuSans-30" transform="translate(211.035156 0)"/>
      </g>
     </g>
    </g>
    <g id="xtick_14">
     <g id="line2d_35">
      <g>
       <use xlink:href="#mc2cb7e183f" x="167.91917" y="499.824" style="stroke: #000000; stroke-width: 0.8"/>
      </g>
     </g>
     <g id="text_32">
      <!-- 0 -->
      <g transform="translate(164.73792 514.422438) scale(0.1 -0.1)">
       <use xlink:href="#DejaVuSans-30"/>
      </g>
     </g>
    </g>
    <g id="xtick_15">
     <g id="line2d_36">
      <g>
       <use xlink:href="#mc2cb7e183f" x="247.853053" y="499.824" style="stroke: #000000; stroke-width: 0.8"/>
      </g>
     </g>
     <g id="text_33">
      <!-- 200 -->
      <g transform="translate(238.309303 514.422438) scale(0.1 -0.1)">
       <use xlink:href="#DejaVuSans-32"/>
       <use xlink:href="#DejaVuSans-30" transform="translate(63.623047 0)"/>
       <use xlink:href="#DejaVuSans-30" transform="translate(127.246094 0)"/>
      </g>
     </g>
    </g>
    <g id="xtick_16">
     <g id="line2d_37">
      <g>
       <use xlink:href="#mc2cb7e183f" x="327.786937" y="499.824" style="stroke: #000000; stroke-width: 0.8"/>
      </g>
     </g>
     <g id="text_34">
      <!-- 400 -->
      <g transform="translate(318.243187 514.422438) scale(0.1 -0.1)">
       <use xlink:href="#DejaVuSans-34"/>
       <use xlink:href="#DejaVuSans-30" transform="translate(63.623047 0)"/>
       <use xlink:href="#DejaVuSans-30" transform="translate(127.246094 0)"/>
      </g>
     </g>
    </g>
    <g id="xtick_17">
     <g id="line2d_38">
      <g>
       <use xlink:href="#mc2cb7e183f" x="407.720821" y="499.824" style="stroke: #000000; stroke-width: 0.8"/>
      </g>
     </g>
     <g id="text_35">
      <!-- 600 -->
      <g transform="translate(398.177071 514.422438) scale(0.1 -0.1)">
       <use xlink:href="#DejaVuSans-36"/>
       <use xlink:href="#DejaVuSans-30" transform="translate(63.623047 0)"/>
       <use xlink:href="#DejaVuSans-30" transform="translate(127.246094 0)"/>
      </g>
     </g>
    </g>
    <g id="xtick_18">
     <g id="line2d_39">
      <g>
       <use xlink:href="#mc2cb7e183f" x="487.654704" y="499.824" style="stroke: #000000; stroke-width: 0.8"/>
      </g>
     </g>
     <g id="text_36">
      <!-- 800 -->
      <g transform="translate(478.110954 514.422438) scale(0.1 -0.1)">
       <use xlink:href="#DejaVuSans-38"/>
       <use xlink:href="#DejaVuSans-30" transform="translate(63.623047 0)"/>
       <use xlink:href="#DejaVuSans-30" transform="translate(127.246094 0)"/>
      </g>
     </g>
    </g>
    <g id="text_37">
     <!-- Time (ms) -->
     <g transform="translate(262.620781 528.100563) scale(0.1 -0.1)">
      <defs>
       <path id="DejaVuSans-54" d="M -19 4666 
L 3928 4666 
L 3928 4134 
L 2272 4134 
L 2272 0 
L 1638 0 
L 1638 4134 
L -19 4134 
L -19 4666 
z
" transform="scale(0.015625)"/>
       <path id="DejaVuSans-6d" d="M 3328 2828 
Q 3544 3216 3844 3400 
Q 4144 3584 4550 3584 
Q 5097 3584 5394 3201 
Q 5691 2819 5691 2113 
L 5691 0 
L 5113 0 
L 5113 2094 
Q 5113 2597 4934 2840 
Q 4756 3084 4391 3084 
Q 3944 3084 3684 2787 
Q 3425 2491 3425 1978 
L 3425 0 
L 2847 0 
L 2847 2094 
Q 2847 2600 2669 2842 
Q 2491 3084 2119 3084 
Q 1678 3084 1418 2786 
Q 1159 2488 1159 1978 
L 1159 0 
L 581 0 
L 581 3500 
L 1159 3500 
L 1159 2956 
Q 1356 3278 1631 3431 
Q 1906 3584 2284 3584 
Q 2666 3584 2933 3390 
Q 3200 3197 3328 2828 
z
" transform="scale(0.015625)"/>
      </defs>
      <use xlink:href="#DejaVuSans-54"/>
      <use xlink:href="#DejaVuSans-69" transform="translate(57.958984 0)"/>
      <use xlink:href="#DejaVuSans-6d" transform="translate(85.742188 0)"/>
      <use xlink:href="#DejaVuSans-65" transform="translate(183.154297 0)"/>
      <use xlink:href="#DejaVuSans-20" transform="translate(244.677734 0)"/>
      <use xlink:href="#DejaVuSans-28" transform="translate(276.464844 0)"/>
      <use xlink:href="#DejaVuSans-6d" transform="translate(315.478516 0)"/>
      <use xlink:href="#DejaVuSans-73" transform="translate(412.890625 0)"/>
      <use xlink:href="#DejaVuSans-29" transform="translate(464.990234 0)"/>
     </g>
    </g>
   </g>
   <g id="matplotlib.axis_6">
    <g id="ytick_9">
     <g id="line2d_40">
      <g>
       <use xlink:href="#m50672892fc" x="70.2" y="495.278435" style="stroke: #000000; stroke-width: 0.8"/>
      </g>
     </g>
     <g id="text_38">
      <!-- −2 -->
      <g transform="translate(48.457813 499.077654) scale(0.1 -0.1)">
       <use xlink:href="#DejaVuSans-2212"/>
       <use xlink:href="#DejaVuSans-32" transform="translate(83.789062 0)"/>
      </g>
     </g>
    </g>
    <g id="ytick_10">
     <g id="line2d_41">
      <g>
       <use xlink:href="#m50672892fc" x="70.2" y="460.948346" style="stroke: #000000; stroke-width: 0.8"/>
      </g>
     </g>
     <g id="text_39">
      <!-- 0 -->
      <g transform="translate(56.8375 464.747565) scale(0.1 -0.1)">
       <use xlink:href="#DejaVuSans-30"/>
      </g>
     </g>
    </g>
    <g id="ytick_11">
     <g id="line2d_42">
      <g>
       <use xlink:href="#m50672892fc" x="70.2" y="426.618257" style="stroke: #000000; stroke-width: 0.8"/>
      </g>
     </g>
     <g id="text_40">
      <!-- 2 -->
      <g transform="translate(56.8375 430.417476) scale(0.1 -0.1)">
       <use xlink:href="#DejaVuSans-32"/>
      </g>
     </g>
    </g>
    <g id="ytick_12">
     <g id="line2d_43">
      <g>
       <use xlink:href="#m50672892fc" x="70.2" y="392.288169" style="stroke: #000000; stroke-width: 0.8"/>
      </g>
     </g>
     <g id="text_41">
      <!-- 4 -->
      <g transform="translate(56.8375 396.087387) scale(0.1 -0.1)">
       <use xlink:href="#DejaVuSans-34"/>
      </g>
     </g>
    </g>
    <g id="text_42">
     <!-- Z (σ from null) -->
     <g transform="translate(42.378125 477.919938) rotate(-90) scale(0.1 -0.1)">
      <defs>
       <path id="DejaVuSans-5a" d="M 359 4666 
L 4025 4666 
L 4025 4184 
L 1075 531 
L 4097 531 
L 4097 0 
L 288 0 
L 288 481 
L 3238 4134 
L 359 4134 
L 359 4666 
z
" transform="scale(0.015625)"/>
      </defs>
      <use xlink:href="#DejaVuSans-5a"/>
      <use xlink:href="#DejaVuSans-20" transform="translate(68.505859 0)"/>
      <use xlink:href="#DejaVuSans-28" transform="translate(100.292969 0)"/>
      <use xlink:href="#DejaVuSans-3c3" transform="translate(139.306641 0)"/>
      <use xlink:href="#DejaVuSans-20" transform="translate(202.685547 0)"/>
      <use xlink:href="#DejaVuSans-66" transform="translate(234.472656 0)"/>
      <use xlink:href="#DejaVuSans-72" transform="translate(269.677734 0)"/>
      <use xlink:href="#DejaVuSans-6f" transform="translate(308.541016 0)"/>
      <use xlink:href="#DejaVuSans-6d" transform="translate(369.722656 0)"/>
      <use xlink:href="#DejaVuSans-20" transform="translate(467.134766 0)"/>
      <use xlink:href="#DejaVuSans-6e" transform="translate(498.921875 0)"/>
      <use xlink:href="#DejaVuSans-75" transform="translate(562.300781 0)"/>
      <use xlink:href="#DejaVuSans-6c" transform="translate(625.679688 0)"/>
      <use xlink:href="#DejaVuSans-6c" transform="translate(653.462891 0)"/>
      <use xlink:href="#DejaVuSans-29" transform="translate(681.246094 0)"/>
     </g>
    </g>
   </g>
   <g id="line2d_44">
    <path d="M 167.91917 499.824 
L 167.91917 383.994 
" clip-path="url(#p0c8dcaa736)" style="fill: none; stroke-dasharray: 2.96,1.28; stroke-dashoffset: 0; stroke: #000000; stroke-width: 0.8"/>
   </g>
   <g id="line2d_45">
    <path d="M 89.983636 458.703379 
L 93.980327 438.873563 
L 97.977023 480.911251 
L 101.973713 455.209941 
L 105.97041 446.691545 
L 109.967106 445.738592 
L 113.963796 439.570917 
L 117.960493 460.072407 
L 121.957186 469.944855 
L 125.953882 447.095954 
L 129.950576 437.049981 
L 133.947269 446.354279 
L 137.943962 464.621108 
L 141.940659 474.652423 
L 145.937352 480.272267 
L 149.934045 468.432922 
L 153.93074 449.711228 
L 157.927434 476.746886 
L 161.924129 469.387224 
L 165.920823 457.980274 
L 169.917517 439.120775 
L 173.914211 453.264613 
L 177.910906 466.840296 
L 181.9076 417.598974 
L 185.904294 472.580782 
L 189.900988 473.434838 
L 193.897681 477.952672 
L 197.894377 439.213127 
L 201.891071 456.130149 
L 205.887764 430.214337 
L 209.884457 432.091333 
L 213.881154 463.996094 
L 217.877847 450.542365 
L 221.874543 453.612705 
L 225.871234 461.775581 
L 229.86793 445.747159 
L 233.864626 431.083666 
L 237.861317 437.169552 
L 241.858013 475.843526 
L 245.854704 476.129919 
L 249.8514 428.309284 
L 253.848096 454.63834 
L 257.844787 435.037885 
L 261.841483 484.965303 
L 265.838179 471.626706 
L 269.83487 441.244568 
L 273.83156 483.258547 
L 277.828262 476.520538 
L 281.824953 462.292335 
L 285.821643 441.599746 
L 289.818345 475.851484 
L 293.815036 491.849756 
L 297.811726 477.892927 
L 301.808428 415.61225 
L 305.805119 475.242532 
L 309.801809 475.794664 
L 313.798511 468.946169 
L 317.795202 455.200573 
L 321.791892 451.142955 
L 325.788594 448.035783 
L 329.785285 441.809553 
L 333.781975 426.72714 
L 337.778677 462.272119 
L 341.775368 449.742026 
L 345.772058 448.057436 
L 349.76876 447.568113 
L 353.765451 429.331669 
L 357.762141 460.642026 
L 361.758843 449.587794 
L 365.755534 428.811716 
L 369.752224 468.712387 
L 373.748914 441.704555 
L 377.745605 450.232419 
L 381.742319 439.519843 
L 385.739009 439.415629 
L 389.7357 441.507289 
L 393.73239 420.522323 
L 397.72908 472.264896 
L 401.725771 446.933471 
L 405.722485 459.948848 
L 409.719175 462.510167 
L 413.715866 439.824163 
L 417.712556 451.517487 
L 421.709246 415.390125 
L 425.705937 471.235853 
L 429.702627 431.551001 
L 433.699341 475.10487 
L 437.696032 470.016358 
L 441.692722 482.896186 
L 445.689412 494.518611 
L 449.686103 446.592717 
L 453.682793 420.932678 
L 457.679507 445.785167 
L 461.676198 466.956847 
L 465.672888 454.621052 
L 469.669578 470.230216 
L 473.666269 457.327433 
L 477.662959 452.794958 
L 481.659673 484.254649 
L 485.656364 483.202894 
" clip-path="url(#p0c8dcaa736)" style="fill: none; stroke: #1f77b4; stroke-width: 2; stroke-linecap: square"/>
   </g>
   <g id="line2d_46">
    <path d="M 89.983636 488.042758 
L 93.980327 462.754648 
L 97.977023 439.167929 
L 101.973713 428.343891 
L 105.97041 468.618551 
L 109.967106 451.880877 
L 113.963796 470.320017 
L 117.960493 457.962626 
L 121.957186 462.938557 
L 125.953882 420.998584 
L 129.950576 480.133978 
L 133.947269 473.153048 
L 137.943962 494.559 
L 141.940659 465.19502 
L 145.937352 466.02946 
L 149.934045 488.145022 
L 153.93074 464.014935 
L 157.927434 460.523837 
L 161.924129 460.334543 
L 165.920823 436.56059 
L 169.917517 473.875969 
L 173.914211 420.827835 
L 177.910906 451.089957 
L 181.9076 468.267053 
L 185.904294 477.051889 
L 189.900988 432.912912 
L 193.897681 454.882761 
L 197.894377 442.640403 
L 201.891071 454.593044 
L 205.887764 456.266014 
L 209.884457 432.831802 
L 213.881154 421.881856 
L 217.877847 406.342362 
L 221.874543 450.183269 
L 225.871234 482.527717 
L 229.86793 483.063512 
L 233.864626 458.398451 
L 237.861317 475.140683 
L 241.858013 436.792906 
L 245.854704 466.093043 
L 249.8514 459.388533 
L 253.848096 450.791359 
L 257.844787 459.843201 
L 261.841483 457.627265 
L 265.838179 457.363629 
L 269.83487 438.838098 
L 273.83156 452.228117 
L 277.828262 473.119811 
L 281.824953 462.309138 
L 285.821643 425.739768 
L 289.818345 445.879905 
L 293.815036 477.882774 
L 297.811726 427.657954 
L 301.808428 450.020152 
L 305.805119 389.259 
L 309.801809 464.293999 
L 313.798511 438.740626 
L 317.795202 426.010299 
L 321.791892 450.050227 
L 325.788594 482.111715 
L 329.785285 472.242209 
L 333.781975 433.688005 
L 337.778677 449.501675 
L 341.775368 455.184922 
L 345.772058 443.490387 
L 349.76876 475.946911 
L 353.765451 460.059561 
L 357.762141 478.329343 
L 361.758843 441.384774 
L 365.755534 469.274247 
L 369.752224 471.473279 
L 373.748914 473.394048 
L 377.745605 463.247408 
L 381.742319 480.101703 
L 385.739009 458.166367 
L 389.7357 471.627331 
L 393.73239 453.954432 
L 397.72908 491.149561 
L 401.725771 482.327527 
L 405.722485 459.669618 
L 409.719175 434.441445 
L 413.715866 450.040686 
L 417.712556 455.822286 
L 421.709246 449.165753 
L 425.705937 470.571992 
L 429.702627 488.784869 
L 433.699341 452.363981 
L 437.696032 469.174147 
L 441.692722 442.483151 
L 445.689412 451.426992 
L 449.686103 441.725447 
L 453.682793 457.966865 
L 457.679507 447.614623 
L 461.676198 473.537842 
L 465.672888 456.906793 
L 469.669578 437.199612 
L 473.666269 462.213231 
L 477.662959 458.368599 
L 481.659673 454.20504 
L 485.656364 458.84081 
" clip-path="url(#p0c8dcaa736)" style="fill: none; stroke: #ff7f0e; stroke-width: 2; stroke-linecap: square"/>
   </g>
   <g id="patch_15">
    <path d="M 70.2 499.824 
L 70.2 383.994 
" style="fill: none; stroke: #000000; stroke-width: 0.8; stroke-linejoin: miter; stroke-linecap: square"/>
   </g>
   <g id="patch_16">
    <path d="M 505.44 499.824 
L 505.44 383.994 
" style="fill: none; stroke: #000000; stroke-width: 0.8; stroke-linejoin: miter; stroke-linecap: square"/>
   </g>
   <g id="patch_17">
    <path d="M 70.2 499.824 
L 505.44 499.824 
" style="fill: none; stroke: #000000; stroke-width: 0.8; stroke-linejoin: miter; stroke-linecap: square"/>
   </g>
   <g id="patch_18">
    <path d="M 70.2 383.994 
L 505.44 383.994 
" style="fill: none; stroke: #000000; stroke-width: 0.8; stroke-linejoin: miter; stroke-linecap: square"/>
   </g>
   <g id="text_43">
    <!-- Panel C: evidence strength vs null -->
    <g transform="translate(185.80125 377.994) scale(0.12 -0.12)">
     <use xlink:href="#DejaVuSans-50"/>
     <use xlink:href="#DejaVuSans-61" transform="translate(55.802734 0)"/>
     <use xlink:href="#DejaVuSans-6e" transform="translate(117.082031 0)"/>
     <use xlink:href="#DejaVuSans-65" transform="translate(180.460938 0)"/>
     <use xlink:href="#DejaVuSans-6c" transform="translate(241.984375 0)"/>
     <use xlink:href="#DejaVuSans-20" transform="translate(269.767578 0)"/>
     <use xlink:href="#DejaVuSans-43" transform="translate(301.554688 0)"/>
     <use xlink:href="#DejaVuSans-3a" transform="translate(371.378906 0)"/>
     <use xlink:href="#DejaVuSans-20" transform="translate(405.070312 0)"/>
     <use xlink:href="#DejaVuSans-65" transform="translate(436.857422 0)"/>
     <use xlink:href="#DejaVuSans-76" transform="translate(498.380859 0)"/>
     <use xlink:href="#DejaVuSans-69" transform="translate(557.560547 0)"/>
     <use xlink:href="#DejaVuSans-64" transform="translate(585.34375 0)"/>
     <use xlink:href="#DejaVuSans-65" transform="translate(648.820312 0)"/>
     <use xlink:href="#DejaVuSans-6e" transform="translate(710.34375 0)"/>
     <use xlink:href="#DejaVuSans-63" transform="translate(773.722656 0)"/>
     <use xlink:href="#DejaVuSans-65" transform="translate(828.703125 0)"/>
     <use xlink:href="#DejaVuSans-20" transform="translate(890.226562 0)"/>
     <use xlink:href="#DejaVuSans-73" transform="translate(922.013672 0)"/>
     <use xlink:href="#DejaVuSans-74" transform="translate(974.113281 0)"/>
     <use xlink:href="#DejaVuSans-72" transform="translate(1013.322266 0)"/>
     <use xlink:href="#DejaVuSans-65" transform="translate(1052.185547 0)"/>
     <use xlink:href="#DejaVuSans-6e" transform="translate(1113.708984 0)"/>
     <use xlink:href="#DejaVuSans-67" transform="translate(1177.087891 0)"/>
     <use xlink:href="#DejaVuSans-74" transform="translate(1240.564453 0)"/>
     <use xlink:href="#DejaVuSans-68" transform="translate(1279.773438 0)"/>
     <use xlink:href="#DejaVuSans-20" transform="translate(1343.152344 0)"/>
     <use xlink:href="#DejaVuSans-76" transform="translate(1374.939453 0)"/>
     <use xlink:href="#DejaVuSans-73" transform="translate(1434.119141 0)"/>
     <use xlink:href="#DejaVuSans-20" transform="translate(1486.21875 0)"/>
     <use xlink:href="#DejaVuSans-6e" transform="translate(1518.005859 0)"/>
     <use xlink:href="#DejaVuSans-75" transform="translate(1581.384766 0)"/>
     <use xlink:href="#DejaVuSans-6c" transform="translate(1644.763672 0)"/>
     <use xlink:href="#DejaVuSans-6c" transform="translate(1672.546875 0)"/>
    </g>
   </g>
   <g id="legend_3">
    <g id="line2d_47">
     <path d="M 79.2 397.092438 
L 89.2 397.092438 
L 99.2 397.092438 
" style="fill: none; stroke: #1f77b4; stroke-width: 2; stroke-linecap: square"/>
    </g>
    <g id="text_44">
     <!-- z(MLIP→MSC) -->
     <g transform="translate(107.2 400.592438) scale(0.1 -0.1)">
      <defs>
       <path id="DejaVuSans-7a" d="M 353 3500 
L 3084 3500 
L 3084 2975 
L 922 459 
L 3084 459 
L 3084 0 
L 275 0 
L 275 525 
L 2438 3041 
L 353 3041 
L 353 3500 
z
" transform="scale(0.015625)"/>
      </defs>
      <use xlink:href="#DejaVuSans-7a"/>
      <use xlink:href="#DejaVuSans-28" transform="translate(52.490234 0)"/>
      <use xlink:href="#DejaVuSans-4d" transform="translate(91.503906 0)"/>
      <use xlink:href="#DejaVuSans-4c" transform="translate(177.783203 0)"/>
      <use xlink:href="#DejaVuSans-49" transform="translate(233.496094 0)"/>
      <use xlink:href="#DejaVuSans-50" transform="translate(262.988281 0)"/>
      <use xlink:href="#DejaVuSans-2192" transform="translate(323.291016 0)"/>
      <use xlink:href="#DejaVuSans-4d" transform="translate(407.080078 0)"/>
      <use xlink:href="#DejaVuSans-53" transform="translate(493.359375 0)"/>
      <use xlink:href="#DejaVuSans-43" transform="translate(556.835938 0)"/>
      <use xlink:href="#DejaVuSans-29" transform="translate(626.660156 0)"/>
     </g>
    </g>
    <g id="line2d_48">
     <path d="M 79.2 411.770563 
L 89.2 411.770563 
L 99.2 411.770563 
" style="fill: none; stroke: #ff7f0e; stroke-width: 2; stroke-linecap: square"/>
    </g>
    <g id="text_45">
     <!-- z(MSC→MLIP) -->
     <g transform="translate(107.2 415.270563) scale(0.1 -0.1)">
      <use xlink:href="#DejaVuSans-7a"/>
      <use xlink:href="#DejaVuSans-28" transform="translate(52.490234 0)"/>
      <use xlink:href="#DejaVuSans-4d" transform="translate(91.503906 0)"/>
      <use xlink:href="#DejaVuSans-53" transform="translate(177.783203 0)"/>
      <use xlink:href="#DejaVuSans-43" transform="translate(241.259766 0)"/>
      <use xlink:href="#DejaVuSans-2192" transform="translate(311.083984 0)"/>
      <use xlink:href="#DejaVuSans-4d" transform="translate(394.873047 0)"/>
      <use xlink:href="#DejaVuSans-4c" transform="translate(481.152344 0)"/>
      <use xlink:href="#DejaVuSans-49" transform="translate(536.865234 0)"/>
      <use xlink:href="#DejaVuSans-50" transform="translate(566.357422 0)"/>
      <use xlink:href="#DejaVuSans-29" transform="translate(626.660156 0)"/>
     </g>
    </g>
   </g>
  </g>
 </g>
 <defs>
  <clipPath id="pa92f13ffbf">
   <rect x="70.2" y="67.392" width="435.24" height="138.996"/>
  </clipPath>
  <clipPath id="p2f4bdd35f8">
   <rect x="70.2" y="237.276" width="435.24" height="115.83"/>
  </clipPath>
  <clipPath id="p0c8dcaa736">
   <rect x="70.2" y="383.994" width="435.24" height="115.83"/>
  </clipPath>
 </defs>
</svg>
