<?xml version="1.0" encoding="utf-8" standalone="no"?>
<!DOCTYPE svg PUBLIC "-//W3C//DTD SVG 1.1//EN"
  "http://www.w3.org/Graphics/SVG/1.1/DTD/svg11.dtd">
<svg xmlns:xlink="http://www.w3.org/1999/xlink" width="561.6pt" height="561.6pt" viewBox="0 0 561.6 561.6" xmlns="http://www.w3.org/2000/svg" version="1.1">
 <metadata>
  <rdf:RDF xmlns:dc="http://purl.org/dc/elements/1.1/" xmlns:cc="http://creativecommons.org/ns#" xmlns:rdf="http://www.w3.org/1999/02/22-rdf-syntax-ns#">
   <cc:Work>
    <dc:type rdf:resource="http://purl.org/dc/dcmitype/StillImage"/>
    <dc:date>2025-12-08T15:58:10.217922</dc:date>
    <dc:format>image/svg+xml</dc:format>
    <dc:creator>
     <cc:Agent>
      <dc:title>Matplotlib v3.10.5, https://matplotlib.org/</dc:title>
     </cc:Agent>
    </dc:creator>
   </cc:Work>
  </rdf:RDF>
 </metadata>
 <defs>
  <style type="text/css">*{stroke-linejoin: round; stroke-linecap: butt}</style>
 </defs>
 <g id="figure_1">
  <g id="patch_1">
   <path d="M 0 561.6 
L 561.6 561.6 
L 561.6 0 
L 0 0 
z
" style="fill: #ffffff"/>
  </g>
  <g id="axes_1">
   <g id="patch_2">
    <path d="M 70.2 206.388 
L 505.44 206.388 
L 505.44 67.392 
L 70.2 67.392 
z
" style="fill: #ffffff"/>
   </g>
   <g id="FillBetweenPolyCollection_1">
    <defs>
     <path id="me203b5f9c2" d="M 89.983636 -418.917423 
L 89.983636 -372.68766 
L 93.980327 -373.979655 
L 97.977023 -371.951207 
L 101.973713 -372.829091 
L 105.97041 -372.86208 
L 109.967106 -371.868817 
L 113.963796 -379.414163 
L 117.960493 -371.287926 
L 121.957186 -371.082951 
L 125.953882 -373.587327 
L 129.950576 -374.695419 
L 133.947269 -372.759847 
L 137.943962 -372.338115 
L 141.940659 -373.098057 
L 145.937352 -371.585799 
L 149.934045 -373.160648 
L 153.93074 -373.741814 
L 157.927434 -374.869199 
L 161.924129 -372.547325 
L 165.920823 -372.780844 
L 169.917517 -374.505627 
L 173.914211 -372.307063 
L 177.910906 -372.432167 
L 181.9076 -372.547613 
L 185.904294 -371.447655 
L 189.900988 -374.578939 
L 193.897681 -374.464598 
L 197.894377 -373.468014 
L 201.891071 -374.083032 
L 205.887764 -372.265767 
L 209.884457 -370.691082 
L 213.881154 -374.431003 
L 217.877847 -372.08782 
L 221.874543 -379.033788 
L 225.871234 -372.936957 
L 229.86793 -371.251954 
L 233.864626 -371.514713 
L 237.861317 -376.199319 
L 241.858013 -373.306101 
L 245.854704 -372.260626 
L 249.8514 -369.293408 
L 253.848096 -375.514998 
L 257.844787 -370.930234 
L 261.841483 -375.760899 
L 265.838179 -371.945517 
L 269.83487 -372.952954 
L 273.83156 -374.079734 
L 277.828262 -371.93429 
L 281.824953 -375.358422 
L 285.821643 -373.127687 
L 289.818345 -376.19099 
L 293.815036 -375.743056 
L 297.811726 -371.566808 
L 301.808428 -372.820985 
L 305.805119 -372.384621 
L 309.801809 -371.511636 
L 313.798511 -369.841892 
L 317.795202 -374.486065 
L 321.791892 -370.075864 
L 325.788594 -372.816892 
L 329.785285 -372.760753 
L 333.781975 -379.287217 
L 337.778677 -373.26483 
L 341.775368 -369.544094 
L 345.772058 -371.694062 
L 349.76876 -371.978434 
L 353.765451 -371.984327 
L 357.762141 -369.950214 
L 361.758843 -371.947937 
L 365.755534 -373.437674 
L 369.752224 -370.771973 
L 373.748914 -371.964411 
L 377.745605 -370.687137 
L 381.742319 -370.20378 
L 385.739009 -371.949636 
L 389.7357 -371.545147 
L 393.73239 -371.085199 
L 397.72908 -373.617046 
L 401.725771 -372.053367 
L 405.722485 -373.242923 
L 409.719175 -372.023276 
L 413.715866 -373.268082 
L 417.712556 -372.278738 
L 421.709246 -374.21587 
L 425.705937 -374.754752 
L 429.702627 -372.614287 
L 433.699341 -373.138258 
L 437.696032 -372.43612 
L 441.692722 -374.293386 
L 445.689412 -370.629883 
L 449.686103 -372.096287 
L 453.682793 -373.661945 
L 457.679507 -372.00311 
L 461.676198 -372.367391 
L 465.672888 -372.02266 
L 469.669578 -371.650471 
L 473.666269 -370.996268 
L 477.662959 -372.559087 
L 481.659673 -372.490689 
L 485.656364 -372.788392 
L 485.656364 -425.663277 
L 485.656364 -425.663277 
L 481.659673 -425.357423 
L 477.662959 -425.738571 
L 473.666269 -421.011418 
L 469.669578 -417.478617 
L 465.672888 -418.800471 
L 461.676198 -417.078557 
L 457.679507 -419.898491 
L 453.682793 -423.129815 
L 449.686103 -420.266762 
L 445.689412 -419.735648 
L 441.692722 -425.468575 
L 437.696032 -421.150315 
L 433.699341 -421.956127 
L 429.702627 -424.613178 
L 425.705937 -432.46243 
L 421.709246 -427.201531 
L 417.712556 -420.246566 
L 413.715866 -421.928358 
L 409.719175 -422.288319 
L 405.722485 -417.870157 
L 401.725771 -423.849007 
L 397.72908 -427.13193 
L 393.73239 -414.834682 
L 389.7357 -425.301141 
L 385.739009 -419.266784 
L 381.742319 -419.04996 
L 377.745605 -419.281138 
L 373.748914 -423.200219 
L 369.752224 -414.002408 
L 365.755534 -419.377364 
L 361.758843 -418.244025 
L 357.762141 -422.091872 
L 353.765451 -421.349252 
L 349.76876 -418.703242 
L 345.772058 -420.367372 
L 341.775368 -421.757275 
L 337.778677 -425.568961 
L 333.781975 -437.544574 
L 329.785285 -420.43361 
L 325.788594 -418.567799 
L 321.791892 -419.391965 
L 317.795202 -424.540943 
L 313.798511 -422.523318 
L 309.801809 -420.387754 
L 305.805119 -422.771896 
L 301.808428 -418.430461 
L 297.811726 -417.05394 
L 293.815036 -429.16183 
L 289.818345 -431.11711 
L 285.821643 -418.883807 
L 281.824953 -427.664081 
L 277.828262 -420.700718 
L 273.83156 -423.183644 
L 269.83487 -424.725704 
L 265.838179 -423.988429 
L 261.841483 -428.990428 
L 257.844787 -418.508993 
L 253.848096 -426.952962 
L 249.8514 -422.180528 
L 245.854704 -423.404805 
L 241.858013 -417.364828 
L 237.861317 -428.702462 
L 233.864626 -421.374926 
L 229.86793 -427.004628 
L 225.871234 -423.418083 
L 221.874543 -440.808166 
L 217.877847 -421.963434 
L 213.881154 -433.631445 
L 209.884457 -422.552262 
L 205.887764 -423.552492 
L 201.891071 -427.592761 
L 197.894377 -422.707708 
L 193.897681 -425.655217 
L 189.900988 -427.230118 
L 185.904294 -422.504302 
L 181.9076 -423.398546 
L 177.910906 -427.967301 
L 173.914211 -424.657807 
L 169.917517 -427.670846 
L 165.920823 -420.291314 
L 161.924129 -418.109165 
L 157.927434 -425.31155 
L 153.93074 -426.397179 
L 149.934045 -424.079002 
L 145.937352 -421.668065 
L 141.940659 -418.641394 
L 137.943962 -421.622289 
L 133.947269 -420.840789 
L 129.950576 -426.90952 
L 125.953882 -422.56921 
L 121.957186 -419.576268 
L 117.960493 -421.759393 
L 113.963796 -437.447545 
L 109.967106 -419.552289 
L 105.97041 -425.839556 
L 101.973713 -427.129704 
L 97.977023 -415.454746 
L 93.980327 -421.54904 
L 89.983636 -418.917423 
z
"/>
    </defs>
    <g clip-path="url(#p7ec2fa68c2)">
     <use xlink:href="#me203b5f9c2" x="0" y="561.6" style="fill: #1f77b4; fill-opacity: 0.15"/>
    </g>
   </g>
   <g id="FillBetweenPolyCollection_2">
    <defs>
     <path id="m11e0a06c86" d="M 89.983636 -419.837018 
L 89.983636 -371.68234 
L 93.980327 -373.038396 
L 97.977023 -375.957165 
L 101.973713 -378.234095 
L 105.97041 -373.655971 
L 109.967106 -372.421877 
L 113.963796 -370.784241 
L 117.960493 -373.430926 
L 121.957186 -372.13797 
L 125.953882 -378.131435 
L 129.950576 -375.907991 
L 133.947269 -374.888278 
L 137.943962 -370.844796 
L 141.940659 -372.416692 
L 145.937352 -371.824615 
L 149.934045 -375.567152 
L 153.93074 -373.727782 
L 157.927434 -374.310877 
L 161.924129 -373.036292 
L 165.920823 -372.839586 
L 169.917517 -373.075375 
L 173.914211 -373.423723 
L 177.910906 -373.246948 
L 181.9076 -376.381863 
L 185.904294 -375.209011 
L 189.900988 -375.19071 
L 193.897681 -372.318278 
L 197.894377 -375.631472 
L 201.891071 -374.04694 
L 205.887764 -373.892178 
L 209.884457 -375.106677 
L 213.881154 -373.084301 
L 217.877847 -373.928857 
L 221.874543 -372.305902 
L 225.871234 -371.904399 
L 229.86793 -372.587231 
L 233.864626 -373.002501 
L 237.861317 -372.890347 
L 241.858013 -371.470474 
L 245.854704 -371.375169 
L 249.8514 -371.782189 
L 253.848096 -372.772814 
L 257.844787 -373.720471 
L 261.841483 -372.261093 
L 265.838179 -369.945353 
L 269.83487 -368.865671 
L 273.83156 -373.221742 
L 277.828262 -371.385093 
L 281.824953 -372.066329 
L 285.821643 -373.17726 
L 289.818345 -373.72005 
L 293.815036 -375.867658 
L 297.811726 -372.898995 
L 301.808428 -372.551906 
L 305.805119 -371.323068 
L 309.801809 -371.747017 
L 313.798511 -371.469552 
L 317.795202 -371.173844 
L 321.791892 -371.990078 
L 325.788594 -373.244137 
L 329.785285 -371.809965 
L 333.781975 -370.561942 
L 337.778677 -376.909989 
L 341.775368 -373.614056 
L 345.772058 -372.575227 
L 349.76876 -371.172298 
L 353.765451 -372.956449 
L 357.762141 -370.016577 
L 361.758843 -371.286247 
L 365.755534 -372.345576 
L 369.752224 -370.879564 
L 373.748914 -373.41134 
L 377.745605 -374.42765 
L 381.742319 -369.627001 
L 385.739009 -370.723981 
L 389.7357 -371.837392 
L 393.73239 -372.44981 
L 397.72908 -371.935918 
L 401.725771 -371.156685 
L 405.722485 -372.651814 
L 409.719175 -372.337037 
L 413.715866 -371.999924 
L 417.712556 -371.768554 
L 421.709246 -370.928668 
L 425.705937 -370.164749 
L 429.702627 -373.014331 
L 433.699341 -370.67899 
L 437.696032 -370.432093 
L 441.692722 -371.842871 
L 445.689412 -371.800269 
L 449.686103 -372.846746 
L 453.682793 -372.358544 
L 457.679507 -372.057154 
L 461.676198 -371.043312 
L 465.672888 -372.485138 
L 469.669578 -374.330999 
L 473.666269 -372.092201 
L 477.662959 -373.756306 
L 481.659673 -371.344326 
L 485.656364 -370.462115 
L 485.656364 -422.404326 
L 485.656364 -422.404326 
L 481.659673 -422.446596 
L 477.662959 -424.730688 
L 473.666269 -420.729416 
L 469.669578 -423.500381 
L 465.672888 -421.359495 
L 461.676198 -423.924975 
L 457.679507 -424.655601 
L 453.682793 -424.117173 
L 449.686103 -417.893909 
L 445.689412 -420.328779 
L 441.692722 -416.310114 
L 437.696032 -419.856312 
L 433.699341 -419.47975 
L 429.702627 -423.311185 
L 425.705937 -419.121074 
L 421.709246 -420.04656 
L 417.712556 -419.766125 
L 413.715866 -421.690728 
L 409.719175 -423.33722 
L 405.722485 -420.336982 
L 401.725771 -423.989504 
L 397.72908 -420.810414 
L 393.73239 -420.868266 
L 389.7357 -415.665422 
L 385.739009 -420.893524 
L 381.742319 -425.720996 
L 377.745605 -422.199267 
L 373.748914 -421.587613 
L 369.752224 -419.944405 
L 365.755534 -419.05869 
L 361.758843 -418.388496 
L 357.762141 -416.138251 
L 353.765451 -425.2791 
L 349.76876 -418.312432 
L 345.772058 -412.345668 
L 341.775368 -420.433963 
L 337.778677 -428.169679 
L 333.781975 -421.905262 
L 329.785285 -424.734524 
L 325.788594 -421.33319 
L 321.791892 -420.177241 
L 317.795202 -416.572879 
L 313.798511 -420.250244 
L 309.801809 -416.128532 
L 305.805119 -418.217696 
L 301.808428 -425.79508 
L 297.811726 -422.418783 
L 293.815036 -429.296947 
L 289.818345 -420.234501 
L 285.821643 -420.863304 
L 281.824953 -418.397621 
L 277.828262 -418.894679 
L 273.83156 -418.991953 
L 269.83487 -417.248312 
L 265.838179 -419.518195 
L 261.841483 -419.537342 
L 257.844787 -426.081583 
L 253.848096 -417.928949 
L 249.8514 -421.670981 
L 245.854704 -421.779307 
L 241.858013 -419.269556 
L 237.861317 -418.782073 
L 233.864626 -421.12402 
L 229.86793 -419.079532 
L 225.871234 -418.70948 
L 221.874543 -423.562773 
L 217.877847 -417.464629 
L 213.881154 -423.392391 
L 209.884457 -429.084355 
L 205.887764 -426.562736 
L 201.891071 -421.178109 
L 197.894377 -424.079274 
L 193.897681 -419.581779 
L 189.900988 -425.967225 
L 185.904294 -427.242204 
L 181.9076 -426.774688 
L 177.910906 -421.20152 
L 173.914211 -424.217347 
L 169.917517 -425.87765 
L 165.920823 -420.741173 
L 161.924129 -426.352897 
L 157.927434 -422.990706 
L 153.93074 -429.964918 
L 149.934045 -433.213641 
L 145.937352 -418.984878 
L 141.940659 -425.000741 
L 137.943962 -421.223611 
L 133.947269 -430.827887 
L 129.950576 -430.704503 
L 125.953882 -434.138302 
L 121.957186 -419.570846 
L 117.960493 -424.837949 
L 113.963796 -418.95499 
L 109.967106 -417.396983 
L 105.97041 -424.061974 
L 101.973713 -429.386441 
L 97.977023 -434.120396 
L 93.980327 -423.093744 
L 89.983636 -419.837018 
z
"/>
    </defs>
    <g clip-path="url(#p7ec2fa68c2)">
     <use xlink:href="#m11e0a06c86" x="0" y="561.6" style="fill: #ff7f0e; fill-opacity: 0.15"/>
    </g>
   </g>
   <g id="matplotlib.axis_1">
    <g id="xtick_1">
     <g id="line2d_1">
      <defs>
       <path id="m82d11177bf" d="M 0 0 
L 0 3.5 
" style="stroke: #000000; stroke-width: 0.8"/>
      </defs>
      <g>
       <use xlink:href="#m82d11177bf" x="87.985286" y="206.388" style="stroke: #000000; stroke-width: 0.8"/>
      </g>
     </g>
     <g id="text_1">
      <!-- −200 -->
      <g transform="translate(74.251693 220.986437) scale(0.1 -0.1)">
       <defs>
        <path id="DejaVuSans-2212" d="M 678 2272 
L 4684 2272 
L 4684 1741 
L 678 1741 
L 678 2272 
z
" transform="scale(0.015625)"/>
        <path id="DejaVuSans-32" d="M 1228 531 
L 3431 531 
L 3431 0 
L 469 0 
L 469 531 
Q 828 903 1448 1529 
Q 2069 2156 2228 2338 
Q 2531 2678 2651 2914 
Q 2772 3150 2772 3378 
Q 2772 3750 2511 3984 
Q 2250 4219 1831 4219 
Q 1534 4219 1204 4116 
Q 875 4013 500 3803 
L 500 4441 
Q 881 4594 1212 4672 
Q 1544 4750 1819 4750 
Q 2544 4750 2975 4387 
Q 3406 4025 3406 3419 
Q 3406 3131 3298 2873 
Q 3191 2616 2906 2266 
Q 2828 2175 2409 1742 
Q 1991 1309 1228 531 
z
" transform="scale(0.015625)"/>
        <path id="DejaVuSans-30" d="M 2034 4250 
Q 1547 4250 1301 3770 
Q 1056 3291 1056 2328 
Q 1056 1369 1301 889 
Q 1547 409 2034 409 
Q 2525 409 2770 889 
Q 3016 1369 3016 2328 
Q 3016 3291 2770 3770 
Q 2525 4250 2034 4250 
z
M 2034 4750 
Q 2819 4750 3233 4129 
Q 3647 3509 3647 2328 
Q 3647 1150 3233 529 
Q 2819 -91 2034 -91 
Q 1250 -91 836 529 
Q 422 1150 422 2328 
Q 422 3509 836 4129 
Q 1250 4750 2034 4750 
z
" transform="scale(0.015625)"/>
       </defs>
       <use xlink:href="#DejaVuSans-2212"/>
       <use xlink:href="#DejaVuSans-32" transform="translate(83.789062 0)"/>
       <use xlink:href="#DejaVuSans-30" transform="translate(147.412109 0)"/>
       <use xlink:href="#DejaVuSans-30" transform="translate(211.035156 0)"/>
      </g>
     </g>
    </g>
    <g id="xtick_2">
     <g id="line2d_2">
      <g>
       <use xlink:href="#m82d11177bf" x="167.91917" y="206.388" style="stroke: #000000; stroke-width: 0.8"/>
      </g>
     </g>
     <g id="text_2">
      <!-- 0 -->
      <g transform="translate(164.73792 220.986437) scale(0.1 -0.1)">
       <use xlink:href="#DejaVuSans-30"/>
      </g>
     </g>
    </g>
    <g id="xtick_3">
     <g id="line2d_3">
      <g>
       <use xlink:href="#m82d11177bf" x="247.853053" y="206.388" style="stroke: #000000; stroke-width: 0.8"/>
      </g>
     </g>
     <g id="text_3">
      <!-- 200 -->
      <g transform="translate(238.309303 220.986437) scale(0.1 -0.1)">
       <use xlink:href="#DejaVuSans-32"/>
       <use xlink:href="#DejaVuSans-30" transform="translate(63.623047 0)"/>
       <use xlink:href="#DejaVuSans-30" transform="translate(127.246094 0)"/>
      </g>
     </g>
    </g>
    <g id="xtick_4">
     <g id="line2d_4">
      <g>
       <use xlink:href="#m82d11177bf" x="327.786937" y="206.388" style="stroke: #000000; stroke-width: 0.8"/>
      </g>
     </g>
     <g id="text_4">
      <!-- 400 -->
      <g transform="translate(318.243187 220.986437) scale(0.1 -0.1)">
       <defs>
        <path id="DejaVuSans-34" d="M 2419 4116 
L 825 1625 
L 2419 1625 
L 2419 4116 
z
M 2253 4666 
L 3047 4666 
L 3047 1625 
L 3713 1625 
L 3713 1100 
L 3047 1100 
L 3047 0 
L 2419 0 
L 2419 1100 
L 313 1100 
L 313 1709 
L 2253 4666 
z
" transform="scale(0.015625)"/>
       </defs>
       <use xlink:href="#DejaVuSans-34"/>
       <use xlink:href="#DejaVuSans-30" transform="translate(63.623047 0)"/>
       <use xlink:href="#DejaVuSans-30" transform="translate(127.246094 0)"/>
      </g>
     </g>
    </g>
    <g id="xtick_5">
     <g id="line2d_5">
      <g>
       <use xlink:href="#m82d11177bf" x="407.720821" y="206.388" style="stroke: #000000; stroke-width: 0.8"/>
      </g>
     </g>
     <g id="text_5">
      <!-- 600 -->
      <g transform="translate(398.177071 220.986437) scale(0.1 -0.1)">
       <defs>
        <path id="DejaVuSans-36" d="M 2113 2584 
Q 1688 2584 1439 2293 
Q 1191 2003 1191 1497 
Q 1191 994 1439 701 
Q 1688 409 2113 409 
Q 2538 409 2786 701 
Q 3034 994 3034 1497 
Q 3034 2003 2786 2293 
Q 2538 2584 2113 2584 
z
M 3366 4563 
L 3366 3988 
Q 3128 4100 2886 4159 
Q 2644 4219 2406 4219 
Q 1781 4219 1451 3797 
Q 1122 3375 1075 2522 
Q 1259 2794 1537 2939 
Q 1816 3084 2150 3084 
Q 2853 3084 3261 2657 
Q 3669 2231 3669 1497 
Q 3669 778 3244 343 
Q 2819 -91 2113 -91 
Q 1303 -91 875 529 
Q 447 1150 447 2328 
Q 447 3434 972 4092 
Q 1497 4750 2381 4750 
Q 2619 4750 2861 4703 
Q 3103 4656 3366 4563 
z
" transform="scale(0.015625)"/>
       </defs>
       <use xlink:href="#DejaVuSans-36"/>
       <use xlink:href="#DejaVuSans-30" transform="translate(63.623047 0)"/>
       <use xlink:href="#DejaVuSans-30" transform="translate(127.246094 0)"/>
      </g>
     </g>
    </g>
    <g id="xtick_6">
     <g id="line2d_6">
      <g>
       <use xlink:href="#m82d11177bf" x="487.654704" y="206.388" style="stroke: #000000; stroke-width: 0.8"/>
      </g>
     </g>
     <g id="text_6">
      <!-- 800 -->
      <g transform="translate(478.110954 220.986437) scale(0.1 -0.1)">
       <defs>
        <path id="DejaVuSans-38" d="M 2034 2216 
Q 1584 2216 1326 1975 
Q 1069 1734 1069 1313 
Q 1069 891 1326 650 
Q 1584 409 2034 409 
Q 2484 409 2743 651 
Q 3003 894 3003 1313 
Q 3003 1734 2745 1975 
Q 2488 2216 2034 2216 
z
M 1403 2484 
Q 997 2584 770 2862 
Q 544 3141 544 3541 
Q 544 4100 942 4425 
Q 1341 4750 2034 4750 
Q 2731 4750 3128 4425 
Q 3525 4100 3525 3541 
Q 3525 3141 3298 2862 
Q 3072 2584 2669 2484 
Q 3125 2378 3379 2068 
Q 3634 1759 3634 1313 
Q 3634 634 3220 271 
Q 2806 -91 2034 -91 
Q 1263 -91 848 271 
Q 434 634 434 1313 
Q 434 1759 690 2068 
Q 947 2378 1403 2484 
z
M 1172 3481 
Q 1172 3119 1398 2916 
Q 1625 2713 2034 2713 
Q 2441 2713 2670 2916 
Q 2900 3119 2900 3481 
Q 2900 3844 2670 4047 
Q 2441 4250 2034 4250 
Q 1625 4250 1398 4047 
Q 1172 3844 1172 3481 
z
" transform="scale(0.015625)"/>
       </defs>
       <use xlink:href="#DejaVuSans-38"/>
       <use xlink:href="#DejaVuSans-30" transform="translate(63.623047 0)"/>
       <use xlink:href="#DejaVuSans-30" transform="translate(127.246094 0)"/>
      </g>
     </g>
    </g>
   </g>
   <g id="matplotlib.axis_2">
    <g id="ytick_1">
     <g id="line2d_7">
      <defs>
       <path id="m880b620f01" d="M 0 0 
L -3.5 0 
" style="stroke: #000000; stroke-width: 0.8"/>
      </defs>
      <g>
       <use xlink:href="#m880b620f01" x="70.2" y="203.646024" style="stroke: #000000; stroke-width: 0.8"/>
      </g>
     </g>
     <g id="text_7">
      <!-- 0.0 -->
      <g transform="translate(47.296875 207.445242) scale(0.1 -0.1)">
       <defs>
        <path id="DejaVuSans-2e" d="M 684 794 
L 1344 794 
L 1344 0 
L 684 0 
L 684 794 
z
" transform="scale(0.015625)"/>
       </defs>
       <use xlink:href="#DejaVuSans-30"/>
       <use xlink:href="#DejaVuSans-2e" transform="translate(63.623047 0)"/>
       <use xlink:href="#DejaVuSans-30" transform="translate(95.410156 0)"/>
      </g>
     </g>
    </g>
    <g id="ytick_2">
     <g id="line2d_8">
      <g>
       <use xlink:href="#m880b620f01" x="70.2" y="176.822155" style="stroke: #000000; stroke-width: 0.8"/>
      </g>
     </g>
     <g id="text_8">
      <!-- 2.5 -->
      <g transform="translate(47.296875 180.621374) scale(0.1 -0.1)">
       <defs>
        <path id="DejaVuSans-35" d="M 691 4666 
L 3169 4666 
L 3169 4134 
L 1269 4134 
L 1269 2991 
Q 1406 3038 1543 3061 
Q 1681 3084 1819 3084 
Q 2600 3084 3056 2656 
Q 3513 2228 3513 1497 
Q 3513 744 3044 326 
Q 2575 -91 1722 -91 
Q 1428 -91 1123 -41 
Q 819 9 494 109 
L 494 744 
Q 775 591 1075 516 
Q 1375 441 1709 441 
Q 2250 441 2565 725 
Q 2881 1009 2881 1497 
Q 2881 1984 2565 2268 
Q 2250 2553 1709 2553 
Q 1456 2553 1204 2497 
Q 953 2441 691 2322 
L 691 4666 
z
" transform="scale(0.015625)"/>
       </defs>
       <use xlink:href="#DejaVuSans-32"/>
       <use xlink:href="#DejaVuSans-2e" transform="translate(63.623047 0)"/>
       <use xlink:href="#DejaVuSans-35" transform="translate(95.410156 0)"/>
      </g>
     </g>
    </g>
    <g id="ytick_3">
     <g id="line2d_9">
      <g>
       <use xlink:href="#m880b620f01" x="70.2" y="149.998286" style="stroke: #000000; stroke-width: 0.8"/>
      </g>
     </g>
     <g id="text_9">
      <!-- 5.0 -->
      <g transform="translate(47.296875 153.797505) scale(0.1 -0.1)">
       <use xlink:href="#DejaVuSans-35"/>
       <use xlink:href="#DejaVuSans-2e" transform="translate(63.623047 0)"/>
       <use xlink:href="#DejaVuSans-30" transform="translate(95.410156 0)"/>
      </g>
     </g>
    </g>
    <g id="ytick_4">
     <g id="line2d_10">
      <g>
       <use xlink:href="#m880b620f01" x="70.2" y="123.174417" style="stroke: #000000; stroke-width: 0.8"/>
      </g>
     </g>
     <g id="text_10">
      <!-- 7.5 -->
      <g transform="translate(47.296875 126.973636) scale(0.1 -0.1)">
       <defs>
        <path id="DejaVuSans-37" d="M 525 4666 
L 3525 4666 
L 3525 4397 
L 1831 0 
L 1172 0 
L 2766 4134 
L 525 4134 
L 525 4666 
z
" transform="scale(0.015625)"/>
       </defs>
       <use xlink:href="#DejaVuSans-37"/>
       <use xlink:href="#DejaVuSans-2e" transform="translate(63.623047 0)"/>
       <use xlink:href="#DejaVuSans-35" transform="translate(95.410156 0)"/>
      </g>
     </g>
    </g>
    <g id="ytick_5">
     <g id="line2d_11">
      <g>
       <use xlink:href="#m880b620f01" x="70.2" y="96.350549" style="stroke: #000000; stroke-width: 0.8"/>
      </g>
     </g>
     <g id="text_11">
      <!-- 10.0 -->
      <g transform="translate(40.934375 100.149767) scale(0.1 -0.1)">
       <defs>
        <path id="DejaVuSans-31" d="M 794 531 
L 1825 531 
L 1825 4091 
L 703 3866 
L 703 4441 
L 1819 4666 
L 2450 4666 
L 2450 531 
L 3481 531 
L 3481 0 
L 794 0 
L 794 531 
z
" transform="scale(0.015625)"/>
       </defs>
       <use xlink:href="#DejaVuSans-31"/>
       <use xlink:href="#DejaVuSans-30" transform="translate(63.623047 0)"/>
       <use xlink:href="#DejaVuSans-2e" transform="translate(127.246094 0)"/>
       <use xlink:href="#DejaVuSans-30" transform="translate(159.033203 0)"/>
      </g>
     </g>
    </g>
    <g id="ytick_6">
     <g id="line2d_12">
      <g>
       <use xlink:href="#m880b620f01" x="70.2" y="69.52668" style="stroke: #000000; stroke-width: 0.8"/>
      </g>
     </g>
     <g id="text_12">
      <!-- 12.5 -->
      <g transform="translate(40.934375 73.325899) scale(0.1 -0.1)">
       <use xlink:href="#DejaVuSans-31"/>
       <use xlink:href="#DejaVuSans-32" transform="translate(63.623047 0)"/>
       <use xlink:href="#DejaVuSans-2e" transform="translate(127.246094 0)"/>
       <use xlink:href="#DejaVuSans-35" transform="translate(159.033203 0)"/>
      </g>
     </g>
    </g>
    <g id="text_13">
     <!-- ΔLL (bits) -->
     <g transform="translate(34.854687 160.500937) rotate(-90) scale(0.1 -0.1)">
      <defs>
       <path id="DejaVuSans-394" d="M 2188 4044 
L 906 525 
L 3472 525 
L 2188 4044 
z
M 50 0 
L 1831 4666 
L 2547 4666 
L 4325 0 
L 50 0 
z
" transform="scale(0.015625)"/>
       <path id="DejaVuSans-4c" d="M 628 4666 
L 1259 4666 
L 1259 531 
L 3531 531 
L 3531 0 
L 628 0 
L 628 4666 
z
" transform="scale(0.015625)"/>
       <path id="DejaVuSans-20" transform="scale(0.015625)"/>
       <path id="DejaVuSans-28" d="M 1984 4856 
Q 1566 4138 1362 3434 
Q 1159 2731 1159 2009 
Q 1159 1288 1364 580 
Q 1569 -128 1984 -844 
L 1484 -844 
Q 1016 -109 783 600 
Q 550 1309 550 2009 
Q 550 2706 781 3412 
Q 1013 4119 1484 4856 
L 1984 4856 
z
" transform="scale(0.015625)"/>
       <path id="DejaVuSans-62" d="M 3116 1747 
Q 3116 2381 2855 2742 
Q 2594 3103 2138 3103 
Q 1681 3103 1420 2742 
Q 1159 2381 1159 1747 
Q 1159 1113 1420 752 
Q 1681 391 2138 391 
Q 2594 391 2855 752 
Q 3116 1113 3116 1747 
z
M 1159 2969 
Q 1341 3281 1617 3432 
Q 1894 3584 2278 3584 
Q 2916 3584 3314 3078 
Q 3713 2572 3713 1747 
Q 3713 922 3314 415 
Q 2916 -91 2278 -91 
Q 1894 -91 1617 61 
Q 1341 213 1159 525 
L 1159 0 
L 581 0 
L 581 4863 
L 1159 4863 
L 1159 2969 
z
" transform="scale(0.015625)"/>
       <path id="DejaVuSans-69" d="M 603 3500 
L 1178 3500 
L 1178 0 
L 603 0 
L 603 3500 
z
M 603 4863 
L 1178 4863 
L 1178 4134 
L 603 4134 
L 603 4863 
z
" transform="scale(0.015625)"/>
       <path id="DejaVuSans-74" d="M 1172 4494 
L 1172 3500 
L 2356 3500 
L 2356 3053 
L 1172 3053 
L 1172 1153 
Q 1172 725 1289 603 
Q 1406 481 1766 481 
L 2356 481 
L 2356 0 
L 1766 0 
Q 1100 0 847 248 
Q 594 497 594 1153 
L 594 3053 
L 172 3053 
L 172 3500 
L 594 3500 
L 594 4494 
L 1172 4494 
z
" transform="scale(0.015625)"/>
       <path id="DejaVuSans-73" d="M 2834 3397 
L 2834 2853 
Q 2591 2978 2328 3040 
Q 2066 3103 1784 3103 
Q 1356 3103 1142 2972 
Q 928 2841 928 2578 
Q 928 2378 1081 2264 
Q 1234 2150 1697 2047 
L 1894 2003 
Q 2506 1872 2764 1633 
Q 3022 1394 3022 966 
Q 3022 478 2636 193 
Q 2250 -91 1575 -91 
Q 1294 -91 989 -36 
Q 684 19 347 128 
L 347 722 
Q 666 556 975 473 
Q 1284 391 1588 391 
Q 1994 391 2212 530 
Q 2431 669 2431 922 
Q 2431 1156 2273 1281 
Q 2116 1406 1581 1522 
L 1381 1569 
Q 847 1681 609 1914 
Q 372 2147 372 2553 
Q 372 3047 722 3315 
Q 1072 3584 1716 3584 
Q 2034 3584 2315 3537 
Q 2597 3491 2834 3397 
z
" transform="scale(0.015625)"/>
       <path id="DejaVuSans-29" d="M 513 4856 
L 1013 4856 
Q 1481 4119 1714 3412 
Q 1947 2706 1947 2009 
Q 1947 1309 1714 600 
Q 1481 -109 1013 -844 
L 513 -844 
Q 928 -128 1133 580 
Q 1338 1288 1338 2009 
Q 1338 2731 1133 3434 
Q 928 4138 513 4856 
z
" transform="scale(0.015625)"/>
      </defs>
      <use xlink:href="#DejaVuSans-394"/>
      <use xlink:href="#DejaVuSans-4c" transform="translate(68.408203 0)"/>
      <use xlink:href="#DejaVuSans-4c" transform="translate(124.121094 0)"/>
      <use xlink:href="#DejaVuSans-20" transform="translate(179.833984 0)"/>
      <use xlink:href="#DejaVuSans-28" transform="translate(211.621094 0)"/>
      <use xlink:href="#DejaVuSans-62" transform="translate(250.634766 0)"/>
      <use xlink:href="#DejaVuSans-69" transform="translate(314.111328 0)"/>
      <use xlink:href="#DejaVuSans-74" transform="translate(341.894531 0)"/>
      <use xlink:href="#DejaVuSans-73" transform="translate(381.103516 0)"/>
      <use xlink:href="#DejaVuSans-29" transform="translate(433.203125 0)"/>
     </g>
    </g>
   </g>
   <g id="line2d_13">
    <path d="M 167.91917 206.388 
L 167.91917 67.392 
" clip-path="url(#p7ec2fa68c2)" style="fill: none; stroke-dasharray: 2.96,1.28; stroke-dashoffset: 0; stroke: #000000; stroke-width: 0.8"/>
   </g>
   <g id="line2d_14">
    <path d="M 89.983636 165.797459 
L 93.980327 163.835652 
L 97.977023 167.897023 
L 101.973713 161.620603 
L 105.97041 162.249182 
L 109.967106 165.889447 
L 113.963796 153.169146 
L 117.960493 165.076341 
L 121.957186 166.27039 
L 125.953882 163.521731 
L 129.950576 160.79753 
L 133.947269 164.799682 
L 137.943962 164.619798 
L 141.940659 165.730274 
L 145.937352 164.973068 
L 149.934045 162.980175 
L 153.93074 161.530503 
L 157.927434 161.509625 
L 161.924129 166.271755 
L 165.920823 165.063921 
L 169.917517 160.511763 
L 173.914211 163.117565 
L 177.910906 161.400266 
L 181.9076 163.626921 
L 185.904294 164.624022 
L 189.900988 160.695471 
L 193.897681 161.540093 
L 197.894377 163.512139 
L 201.891071 160.762103 
L 205.887764 163.69087 
L 209.884457 164.978328 
L 213.881154 157.568776 
L 217.877847 164.574373 
L 221.874543 151.679023 
L 225.871234 163.42248 
L 229.86793 162.471709 
L 233.864626 165.155181 
L 237.861317 159.14911 
L 241.858013 166.264535 
L 245.854704 163.767284 
L 249.8514 165.863032 
L 253.848096 160.36602 
L 257.844787 166.880386 
L 261.841483 159.224336 
L 265.838179 163.633027 
L 269.83487 162.760671 
L 273.83156 162.968311 
L 277.828262 165.282496 
L 281.824953 160.088748 
L 285.821643 165.594253 
L 289.818345 157.94595 
L 293.815036 159.147557 
L 297.811726 167.289626 
L 301.808428 165.974277 
L 305.805119 164.021742 
L 309.801809 165.650305 
L 313.798511 165.417395 
L 317.795202 162.086496 
L 321.791892 166.866086 
L 325.788594 165.907654 
L 329.785285 165.002818 
L 333.781975 153.184105 
L 337.778677 162.183104 
L 341.775368 165.949315 
L 345.772058 165.569283 
L 349.76876 166.259162 
L 353.765451 164.93321 
L 357.762141 165.578957 
L 361.758843 166.504019 
L 365.755534 165.192481 
L 369.752224 169.212809 
L 373.748914 164.017685 
L 377.745605 166.615862 
L 381.742319 166.97313 
L 385.739009 165.99179 
L 389.7357 163.176856 
L 393.73239 168.64006 
L 397.72908 161.225512 
L 401.725771 163.648813 
L 405.722485 166.04346 
L 409.719175 164.444203 
L 413.715866 164.00178 
L 417.712556 165.337348 
L 421.709246 160.891299 
L 425.705937 157.991409 
L 429.702627 162.986268 
L 433.699341 164.052808 
L 437.696032 164.806783 
L 441.692722 161.71902 
L 445.689412 166.417235 
L 449.686103 165.418476 
L 453.682793 163.20412 
L 457.679507 165.649199 
L 461.676198 166.877026 
L 465.672888 166.188435 
L 469.669578 167.035456 
L 473.666269 165.596157 
L 477.662959 162.451171 
L 481.659673 162.675944 
L 485.656364 162.374166 
" clip-path="url(#p7ec2fa68c2)" style="fill: none; stroke-dasharray: 1,1.65; stroke-dashoffset: 0; stroke: #1f77b4"/>
   </g>
   <g id="line2d_15">
    <path d="M 89.983636 165.840321 
L 93.980327 163.53393 
L 97.977023 156.56122 
L 101.973713 157.789732 
L 105.97041 162.741028 
L 109.967106 166.69057 
L 113.963796 166.730385 
L 117.960493 162.465562 
L 121.957186 165.745592 
L 125.953882 155.465131 
L 129.950576 158.293753 
L 133.947269 158.741917 
L 137.943962 165.565797 
L 141.940659 162.891284 
L 145.937352 166.195253 
L 149.934045 157.209604 
L 153.93074 159.75365 
L 157.927434 162.949208 
L 161.924129 161.905405 
L 165.920823 164.809621 
L 169.917517 162.123488 
L 173.914211 162.779465 
L 177.910906 164.375766 
L 181.9076 160.021724 
L 185.904294 160.374392 
L 189.900988 161.021033 
L 193.897681 165.649971 
L 197.894377 161.744627 
L 201.891071 163.987476 
L 205.887764 161.372543 
L 209.884457 159.504484 
L 213.881154 163.361654 
L 217.877847 165.903257 
L 221.874543 163.665663 
L 225.871234 166.293061 
L 229.86793 165.766618 
L 233.864626 164.53674 
L 237.861317 165.76379 
L 241.858013 166.229985 
L 245.854704 165.022762 
L 249.8514 164.873415 
L 253.848096 166.249119 
L 257.844787 161.698973 
L 261.841483 165.700783 
L 265.838179 166.868226 
L 269.83487 168.543009 
L 273.83156 165.493152 
L 277.828262 166.460114 
L 281.824953 166.368025 
L 285.821643 164.579718 
L 289.818345 164.622724 
L 293.815036 159.017697 
L 297.811726 163.941111 
L 301.808428 162.426507 
L 305.805119 166.829618 
L 309.801809 167.662225 
L 313.798511 165.740102 
L 317.795202 167.726639 
L 321.791892 165.51634 
L 325.788594 164.311337 
L 329.785285 163.327756 
L 333.781975 165.366398 
L 337.778677 159.060166 
L 341.775368 164.575991 
L 345.772058 169.139553 
L 349.76876 166.857635 
L 353.765451 162.482225 
L 357.762141 168.522586 
L 361.758843 166.762629 
L 365.755534 165.897867 
L 369.752224 166.188016 
L 373.748914 164.100524 
L 377.745605 163.286542 
L 381.742319 163.926002 
L 385.739009 165.791248 
L 389.7357 167.848593 
L 393.73239 164.940962 
L 397.72908 165.226834 
L 401.725771 164.026905 
L 405.722485 165.105602 
L 409.719175 163.762871 
L 413.715866 164.754674 
L 417.712556 165.832661 
L 421.709246 166.112386 
L 425.705937 166.957088 
L 429.702627 163.437242 
L 433.699341 166.52063 
L 437.696032 166.455798 
L 441.692722 167.523508 
L 445.689412 165.535476 
L 449.686103 166.229673 
L 453.682793 163.362142 
L 457.679507 163.243623 
L 461.676198 164.115857 
L 465.672888 164.677683 
L 469.669578 162.68431 
L 473.666269 165.189191 
L 477.662959 162.356503 
L 481.659673 164.704539 
L 485.656364 165.166779 
" clip-path="url(#p7ec2fa68c2)" style="fill: none; stroke-dasharray: 1,1.65; stroke-dashoffset: 0; stroke: #ff7f0e"/>
   </g>
   <g id="line2d_16">
    <path d="M 89.983636 124.137181 
L 93.980327 129.330251 
L 97.977023 188.208424 
L 101.973713 118.759977 
L 105.97041 183.874105 
L 109.967106 166.368952 
L 113.963796 123.216657 
L 117.960493 173.510685 
L 121.957186 179.537788 
L 125.953882 163.867072 
L 129.950576 183.288024 
L 133.947269 103.556964 
L 137.943962 176.474432 
L 141.940659 145.903297 
L 145.937352 196.584564 
L 149.934045 131.598775 
L 153.93074 170.683687 
L 157.927434 161.923242 
L 161.924129 161.418799 
L 165.920823 143.274857 
L 169.917517 112.188458 
L 173.914211 158.921709 
L 177.910906 152.658599 
L 181.9076 154.740069 
L 185.904294 162.027877 
L 189.900988 198.26326 
L 193.897681 179.633553 
L 197.894377 120.703199 
L 201.891071 181.024095 
L 205.887764 168.260168 
L 209.884457 186.480357 
L 213.881154 186.840175 
L 217.877847 196.201089 
L 221.874543 104.292461 
L 225.871234 178.380907 
L 229.86793 148.049789 
L 233.864626 132.937062 
L 237.861317 125.478254 
L 241.858013 175.886447 
L 245.854704 185.440525 
L 249.8514 162.448665 
L 253.848096 185.149566 
L 257.844787 153.768469 
L 261.841483 101.067754 
L 265.838179 155.694717 
L 269.83487 186.78089 
L 273.83156 169.131519 
L 277.828262 169.472048 
L 281.824953 162.287177 
L 285.821643 134.314081 
L 289.818345 137.602058 
L 293.815036 173.316143 
L 297.811726 183.133432 
L 301.808428 172.914755 
L 305.805119 191.573255 
L 309.801809 160.868531 
L 313.798511 167.186809 
L 317.795202 91.512093 
L 321.791892 155.640554 
L 325.788594 177.435483 
L 329.785285 143.441832 
L 333.781975 119.845546 
L 337.778677 144.91252 
L 341.775368 141.337433 
L 345.772058 182.686796 
L 349.76876 190.761433 
L 353.765451 161.928091 
L 357.762141 172.863977 
L 361.758843 170.504624 
L 365.755534 119.216334 
L 369.752224 179.235741 
L 373.748914 173.046251 
L 377.745605 181.581534 
L 381.742319 149.937781 
L 385.739009 174.682494 
L 389.7357 172.066489 
L 393.73239 121.292598 
L 397.72908 186.848275 
L 401.725771 152.138487 
L 405.722485 166.596353 
L 409.719175 137.552943 
L 413.715866 162.15863 
L 417.712556 171.280716 
L 421.709246 199.065654 
L 425.705937 189.049412 
L 429.702627 159.641409 
L 433.699341 126.579486 
L 437.696032 146.026253 
L 441.692722 184.938758 
L 445.689412 174.132002 
L 449.686103 159.718797 
L 453.682793 144.569209 
L 457.679507 157.718185 
L 461.676198 188.909161 
L 465.672888 113.201267 
L 469.669578 178.216555 
L 473.666269 185.655669 
L 477.662959 188.512319 
L 481.659673 172.137909 
L 485.656364 187.017285 
" clip-path="url(#p7ec2fa68c2)" style="fill: none; stroke: #1f77b4; stroke-width: 2.2; stroke-linecap: square"/>
   </g>
   <g id="line2d_17">
    <path d="M 89.983636 167.040017 
L 93.980327 164.888409 
L 97.977023 132.164784 
L 101.973713 154.470747 
L 105.97041 152.844621 
L 109.967106 158.212711 
L 113.963796 148.091194 
L 117.960493 146.563175 
L 121.957186 187.007897 
L 125.953882 191.810905 
L 129.950576 145.694793 
L 133.947269 198.086675 
L 137.943962 169.043549 
L 141.940659 165.921285 
L 145.937352 154.900478 
L 149.934045 185.438891 
L 153.93074 87.871116 
L 157.927434 183.698751 
L 161.924129 119.797702 
L 165.920823 166.256425 
L 169.917517 190.722408 
L 173.914211 176.335068 
L 177.910906 156.193595 
L 181.9076 134.363266 
L 185.904294 97.474675 
L 189.900988 95.931511 
L 193.897681 146.213652 
L 197.894377 168.21127 
L 201.891071 77.32491 
L 205.887764 162.675247 
L 209.884457 151.156359 
L 213.881154 184.799006 
L 217.877847 167.38832 
L 221.874543 158.997182 
L 225.871234 164.758119 
L 229.86793 197.958698 
L 233.864626 105.392255 
L 237.861317 186.329585 
L 241.858013 150.402271 
L 245.854704 163.215095 
L 249.8514 198.963183 
L 253.848096 117.609474 
L 257.844787 123.860478 
L 261.841483 184.527741 
L 265.838179 173.595966 
L 269.83487 164.372408 
L 273.83156 106.694501 
L 277.828262 200.07 
L 281.824953 119.700965 
L 285.821643 185.024767 
L 289.818345 182.196925 
L 293.815036 168.069408 
L 297.811726 137.088768 
L 301.808428 147.65946 
L 305.805119 199.219994 
L 309.801809 157.133061 
L 313.798511 159.095377 
L 317.795202 182.43581 
L 321.791892 190.203245 
L 325.788594 195.35703 
L 329.785285 170.566139 
L 333.781975 176.053609 
L 337.778677 137.445204 
L 341.775368 163.321375 
L 345.772058 165.283265 
L 349.76876 170.32072 
L 353.765451 167.424754 
L 357.762141 137.498149 
L 361.758843 149.806687 
L 365.755534 153.897373 
L 369.752224 163.535651 
L 373.748914 141.907564 
L 377.745605 174.588705 
L 381.742319 163.50715 
L 385.739009 170.752656 
L 389.7357 185.818881 
L 393.73239 196.533264 
L 397.72908 167.814294 
L 401.725771 189.981972 
L 405.722485 188.850123 
L 409.719175 145.968116 
L 413.715866 153.142723 
L 417.712556 162.57223 
L 421.709246 153.442146 
L 425.705937 186.501446 
L 429.702627 163.656464 
L 433.699341 175.927282 
L 437.696032 184.905633 
L 441.692722 163.648733 
L 445.689412 155.416102 
L 449.686103 147.511637 
L 453.682793 164.866971 
L 457.679507 166.200694 
L 461.676198 142.421028 
L 465.672888 194.845547 
L 469.669578 73.71 
L 473.666269 181.05525 
L 477.662959 136.296359 
L 481.659673 176.56591 
L 485.656364 91.447928 
" clip-path="url(#p7ec2fa68c2)" style="fill: none; stroke: #ff7f0e; stroke-width: 2.2; stroke-linecap: square"/>
   </g>
   <g id="patch_3">
    <path d="M 70.2 206.388 
L 70.2 67.392 
" style="fill: none; stroke: #000000; stroke-width: 0.8; stroke-linejoin: miter; stroke-linecap: square"/>
   </g>
   <g id="patch_4">
    <path d="M 505.44 206.388 
L 505.44 67.392 
" style="fill: none; stroke: #000000; stroke-width: 0.8; stroke-linejoin: miter; stroke-linecap: square"/>
   </g>
   <g id="patch_5">
    <path d="M 70.2 206.388 
L 505.44 206.388 
" style="fill: none; stroke: #000000; stroke-width: 0.8; stroke-linejoin: miter; stroke-linecap: square"/>
   </g>
   <g id="patch_6">
    <path d="M 70.2 67.392 
L 505.44 67.392 
" style="fill: none; stroke: #000000; stroke-width: 0.8; stroke-linejoin: miter; stroke-linecap: square"/>
   </g>
   <g id="text_14">
    <!-- (MFEF vs MLIP) — C-flow — Panel A: overlay + null bands -->
    <g transform="translate(116.324063 61.392) scale(0.12 -0.12)">
     <defs>
      <path id="DejaVuSans-4d" d="M 628 4666 
L 1569 4666 
L 2759 1491 
L 3956 4666 
L 4897 4666 
L 4897 0 
L 4281 0 
L 4281 4097 
L 3078 897 
L 2444 897 
L 1241 4097 
L 1241 0 
L 628 0 
L 628 4666 
z
" transform="scale(0.015625)"/>
      <path id="DejaVuSans-46" d="M 628 4666 
L 3309 4666 
L 3309 4134 
L 1259 4134 
L 1259 2759 
L 3109 2759 
L 3109 2228 
L 1259 2228 
L 1259 0 
L 628 0 
L 628 4666 
z
" transform="scale(0.015625)"/>
      <path id="DejaVuSans-45" d="M 628 4666 
L 3578 4666 
L 3578 4134 
L 1259 4134 
L 1259 2753 
L 3481 2753 
L 3481 2222 
L 1259 2222 
L 1259 531 
L 3634 531 
L 3634 0 
L 628 0 
L 628 4666 
z
" transform="scale(0.015625)"/>
      <path id="DejaVuSans-76" d="M 191 3500 
L 800 3500 
L 1894 563 
L 2988 3500 
L 3597 3500 
L 2284 0 
L 1503 0 
L 191 3500 
z
" transform="scale(0.015625)"/>
      <path id="DejaVuSans-49" d="M 628 4666 
L 1259 4666 
L 1259 0 
L 628 0 
L 628 4666 
z
" transform="scale(0.015625)"/>
      <path id="DejaVuSans-50" d="M 1259 4147 
L 1259 2394 
L 2053 2394 
Q 2494 2394 2734 2622 
Q 2975 2850 2975 3272 
Q 2975 3691 2734 3919 
Q 2494 4147 2053 4147 
L 1259 4147 
z
M 628 4666 
L 2053 4666 
Q 2838 4666 3239 4311 
Q 3641 3956 3641 3272 
Q 3641 2581 3239 2228 
Q 2838 1875 2053 1875 
L 1259 1875 
L 1259 0 
L 628 0 
L 628 4666 
z
" transform="scale(0.015625)"/>
      <path id="DejaVuSans-2014" d="M 313 1978 
L 6088 1978 
L 6088 1528 
L 313 1528 
L 313 1978 
z
" transform="scale(0.015625)"/>
      <path id="DejaVuSans-43" d="M 4122 4306 
L 4122 3641 
Q 3803 3938 3442 4084 
Q 3081 4231 2675 4231 
Q 1875 4231 1450 3742 
Q 1025 3253 1025 2328 
Q 1025 1406 1450 917 
Q 1875 428 2675 428 
Q 3081 428 3442 575 
Q 3803 722 4122 1019 
L 4122 359 
Q 3791 134 3420 21 
Q 3050 -91 2638 -91 
Q 1578 -91 968 557 
Q 359 1206 359 2328 
Q 359 3453 968 4101 
Q 1578 4750 2638 4750 
Q 3056 4750 3426 4639 
Q 3797 4528 4122 4306 
z
" transform="scale(0.015625)"/>
      <path id="DejaVuSans-2d" d="M 313 2009 
L 1997 2009 
L 1997 1497 
L 313 1497 
L 313 2009 
z
" transform="scale(0.015625)"/>
      <path id="DejaVuSans-66" d="M 2375 4863 
L 2375 4384 
L 1825 4384 
Q 1516 4384 1395 4259 
Q 1275 4134 1275 3809 
L 1275 3500 
L 2222 3500 
L 2222 3053 
L 1275 3053 
L 1275 0 
L 697 0 
L 697 3053 
L 147 3053 
L 147 3500 
L 697 3500 
L 697 3744 
Q 697 4328 969 4595 
Q 1241 4863 1831 4863 
L 2375 4863 
z
" transform="scale(0.015625)"/>
      <path id="DejaVuSans-6c" d="M 603 4863 
L 1178 4863 
L 1178 0 
L 603 0 
L 603 4863 
z
" transform="scale(0.015625)"/>
      <path id="DejaVuSans-6f" d="M 1959 3097 
Q 1497 3097 1228 2736 
Q 959 2375 959 1747 
Q 959 1119 1226 758 
Q 1494 397 1959 397 
Q 2419 397 2687 759 
Q 2956 1122 2956 1747 
Q 2956 2369 2687 2733 
Q 2419 3097 1959 3097 
z
M 1959 3584 
Q 2709 3584 3137 3096 
Q 3566 2609 3566 1747 
Q 3566 888 3137 398 
Q 2709 -91 1959 -91 
Q 1206 -91 779 398 
Q 353 888 353 1747 
Q 353 2609 779 3096 
Q 1206 3584 1959 3584 
z
" transform="scale(0.015625)"/>
      <path id="DejaVuSans-77" d="M 269 3500 
L 844 3500 
L 1563 769 
L 2278 3500 
L 2956 3500 
L 3675 769 
L 4391 3500 
L 4966 3500 
L 4050 0 
L 3372 0 
L 2619 2869 
L 1863 0 
L 1184 0 
L 269 3500 
z
" transform="scale(0.015625)"/>
      <path id="DejaVuSans-61" d="M 2194 1759 
Q 1497 1759 1228 1600 
Q 959 1441 959 1056 
Q 959 750 1161 570 
Q 1363 391 1709 391 
Q 2188 391 2477 730 
Q 2766 1069 2766 1631 
L 2766 1759 
L 2194 1759 
z
M 3341 1997 
L 3341 0 
L 2766 0 
L 2766 531 
Q 2569 213 2275 61 
Q 1981 -91 1556 -91 
Q 1019 -91 701 211 
Q 384 513 384 1019 
Q 384 1609 779 1909 
Q 1175 2209 1959 2209 
L 2766 2209 
L 2766 2266 
Q 2766 2663 2505 2880 
Q 2244 3097 1772 3097 
Q 1472 3097 1187 3025 
Q 903 2953 641 2809 
L 641 3341 
Q 956 3463 1253 3523 
Q 1550 3584 1831 3584 
Q 2591 3584 2966 3190 
Q 3341 2797 3341 1997 
z
" transform="scale(0.015625)"/>
      <path id="DejaVuSans-6e" d="M 3513 2113 
L 3513 0 
L 2938 0 
L 2938 2094 
Q 2938 2591 2744 2837 
Q 2550 3084 2163 3084 
Q 1697 3084 1428 2787 
Q 1159 2491 1159 1978 
L 1159 0 
L 581 0 
L 581 3500 
L 1159 3500 
L 1159 2956 
Q 1366 3272 1645 3428 
Q 1925 3584 2291 3584 
Q 2894 3584 3203 3211 
Q 3513 2838 3513 2113 
z
" transform="scale(0.015625)"/>
      <path id="DejaVuSans-65" d="M 3597 1894 
L 3597 1613 
L 953 1613 
Q 991 1019 1311 708 
Q 1631 397 2203 397 
Q 2534 397 2845 478 
Q 3156 559 3463 722 
L 3463 178 
Q 3153 47 2828 -22 
Q 2503 -91 2169 -91 
Q 1331 -91 842 396 
Q 353 884 353 1716 
Q 353 2575 817 3079 
Q 1281 3584 2069 3584 
Q 2775 3584 3186 3129 
Q 3597 2675 3597 1894 
z
M 3022 2063 
Q 3016 2534 2758 2815 
Q 2500 3097 2075 3097 
Q 1594 3097 1305 2825 
Q 1016 2553 972 2059 
L 3022 2063 
z
" transform="scale(0.015625)"/>
      <path id="DejaVuSans-41" d="M 2188 4044 
L 1331 1722 
L 3047 1722 
L 2188 4044 
z
M 1831 4666 
L 2547 4666 
L 4325 0 
L 3669 0 
L 3244 1197 
L 1141 1197 
L 716 0 
L 50 0 
L 1831 4666 
z
" transform="scale(0.015625)"/>
      <path id="DejaVuSans-3a" d="M 750 794 
L 1409 794 
L 1409 0 
L 750 0 
L 750 794 
z
M 750 3309 
L 1409 3309 
L 1409 2516 
L 750 2516 
L 750 3309 
z
" transform="scale(0.015625)"/>
      <path id="DejaVuSans-72" d="M 2631 2963 
Q 2534 3019 2420 3045 
Q 2306 3072 2169 3072 
Q 1681 3072 1420 2755 
Q 1159 2438 1159 1844 
L 1159 0 
L 581 0 
L 581 3500 
L 1159 3500 
L 1159 2956 
Q 1341 3275 1631 3429 
Q 1922 3584 2338 3584 
Q 2397 3584 2469 3576 
Q 2541 3569 2628 3553 
L 2631 2963 
z
" transform="scale(0.015625)"/>
      <path id="DejaVuSans-79" d="M 2059 -325 
Q 1816 -950 1584 -1140 
Q 1353 -1331 966 -1331 
L 506 -1331 
L 506 -850 
L 844 -850 
Q 1081 -850 1212 -737 
Q 1344 -625 1503 -206 
L 1606 56 
L 191 3500 
L 800 3500 
L 1894 763 
L 2988 3500 
L 3597 3500 
L 2059 -325 
z
" transform="scale(0.015625)"/>
      <path id="DejaVuSans-2b" d="M 2944 4013 
L 2944 2272 
L 4684 2272 
L 4684 1741 
L 2944 1741 
L 2944 0 
L 2419 0 
L 2419 1741 
L 678 1741 
L 678 2272 
L 2419 2272 
L 2419 4013 
L 2944 4013 
z
" transform="scale(0.015625)"/>
      <path id="DejaVuSans-75" d="M 544 1381 
L 544 3500 
L 1119 3500 
L 1119 1403 
Q 1119 906 1312 657 
Q 1506 409 1894 409 
Q 2359 409 2629 706 
Q 2900 1003 2900 1516 
L 2900 3500 
L 3475 3500 
L 3475 0 
L 2900 0 
L 2900 538 
Q 2691 219 2414 64 
Q 2138 -91 1772 -91 
Q 1169 -91 856 284 
Q 544 659 544 1381 
z
M 1991 3584 
L 1991 3584 
z
" transform="scale(0.015625)"/>
      <path id="DejaVuSans-64" d="M 2906 2969 
L 2906 4863 
L 3481 4863 
L 3481 0 
L 2906 0 
L 2906 525 
Q 2725 213 2448 61 
Q 2172 -91 1784 -91 
Q 1150 -91 751 415 
Q 353 922 353 1747 
Q 353 2572 751 3078 
Q 1150 3584 1784 3584 
Q 2172 3584 2448 3432 
Q 2725 3281 2906 2969 
z
M 947 1747 
Q 947 1113 1208 752 
Q 1469 391 1925 391 
Q 2381 391 2643 752 
Q 2906 1113 2906 1747 
Q 2906 2381 2643 2742 
Q 2381 3103 1925 3103 
Q 1469 3103 1208 2742 
Q 947 2381 947 1747 
z
" transform="scale(0.015625)"/>
     </defs>
     <use xlink:href="#DejaVuSans-28"/>
     <use xlink:href="#DejaVuSans-4d" transform="translate(39.013672 0)"/>
     <use xlink:href="#DejaVuSans-46" transform="translate(125.292969 0)"/>
     <use xlink:href="#DejaVuSans-45" transform="translate(182.8125 0)"/>
     <use xlink:href="#DejaVuSans-46" transform="translate(245.996094 0)"/>
     <use xlink:href="#DejaVuSans-20" transform="translate(303.515625 0)"/>
     <use xlink:href="#DejaVuSans-76" transform="translate(335.302734 0)"/>
     <use xlink:href="#DejaVuSans-73" transform="translate(394.482422 0)"/>
     <use xlink:href="#DejaVuSans-20" transform="translate(446.582031 0)"/>
     <use xlink:href="#DejaVuSans-4d" transform="translate(478.369141 0)"/>
     <use xlink:href="#DejaVuSans-4c" transform="translate(564.648438 0)"/>
     <use xlink:href="#DejaVuSans-49" transform="translate(620.361328 0)"/>
     <use xlink:href="#DejaVuSans-50" transform="translate(649.853516 0)"/>
     <use xlink:href="#DejaVuSans-29" transform="translate(710.15625 0)"/>
     <use xlink:href="#DejaVuSans-20" transform="translate(749.169922 0)"/>
     <use xlink:href="#DejaVuSans-2014" transform="translate(780.957031 0)"/>
     <use xlink:href="#DejaVuSans-20" transform="translate(880.957031 0)"/>
     <use xlink:href="#DejaVuSans-43" transform="translate(912.744141 0)"/>
     <use xlink:href="#DejaVuSans-2d" transform="translate(982.568359 0)"/>
     <use xlink:href="#DejaVuSans-66" transform="translate(1018.652344 0)"/>
     <use xlink:href="#DejaVuSans-6c" transform="translate(1053.857422 0)"/>
     <use xlink:href="#DejaVuSans-6f" transform="translate(1081.640625 0)"/>
     <use xlink:href="#DejaVuSans-77" transform="translate(1142.822266 0)"/>
     <use xlink:href="#DejaVuSans-20" transform="translate(1224.609375 0)"/>
     <use xlink:href="#DejaVuSans-2014" transform="translate(1256.396484 0)"/>
     <use xlink:href="#DejaVuSans-20" transform="translate(1356.396484 0)"/>
     <use xlink:href="#DejaVuSans-50" transform="translate(1388.183594 0)"/>
     <use xlink:href="#DejaVuSans-61" transform="translate(1443.986328 0)"/>
     <use xlink:href="#DejaVuSans-6e" transform="translate(1505.265625 0)"/>
     <use xlink:href="#DejaVuSans-65" transform="translate(1568.644531 0)"/>
     <use xlink:href="#DejaVuSans-6c" transform="translate(1630.167969 0)"/>
     <use xlink:href="#DejaVuSans-20" transform="translate(1657.951172 0)"/>
     <use xlink:href="#DejaVuSans-41" transform="translate(1689.738281 0)"/>
     <use xlink:href="#DejaVuSans-3a" transform="translate(1756.396484 0)"/>
     <use xlink:href="#DejaVuSans-20" transform="translate(1790.087891 0)"/>
     <use xlink:href="#DejaVuSans-6f" transform="translate(1821.875 0)"/>
     <use xlink:href="#DejaVuSans-76" transform="translate(1883.056641 0)"/>
     <use xlink:href="#DejaVuSans-65" transform="translate(1942.236328 0)"/>
     <use xlink:href="#DejaVuSans-72" transform="translate(2003.759766 0)"/>
     <use xlink:href="#DejaVuSans-6c" transform="translate(2044.873047 0)"/>
     <use xlink:href="#DejaVuSans-61" transform="translate(2072.65625 0)"/>
     <use xlink:href="#DejaVuSans-79" transform="translate(2133.935547 0)"/>
     <use xlink:href="#DejaVuSans-20" transform="translate(2193.115234 0)"/>
     <use xlink:href="#DejaVuSans-2b" transform="translate(2224.902344 0)"/>
     <use xlink:href="#DejaVuSans-20" transform="translate(2308.691406 0)"/>
     <use xlink:href="#DejaVuSans-6e" transform="translate(2340.478516 0)"/>
     <use xlink:href="#DejaVuSans-75" transform="translate(2403.857422 0)"/>
     <use xlink:href="#DejaVuSans-6c" transform="translate(2467.236328 0)"/>
     <use xlink:href="#DejaVuSans-6c" transform="translate(2495.019531 0)"/>
     <use xlink:href="#DejaVuSans-20" transform="translate(2522.802734 0)"/>
     <use xlink:href="#DejaVuSans-62" transform="translate(2554.589844 0)"/>
     <use xlink:href="#DejaVuSans-61" transform="translate(2618.066406 0)"/>
     <use xlink:href="#DejaVuSans-6e" transform="translate(2679.345703 0)"/>
     <use xlink:href="#DejaVuSans-64" transform="translate(2742.724609 0)"/>
     <use xlink:href="#DejaVuSans-73" transform="translate(2806.201172 0)"/>
    </g>
   </g>
   <g id="legend_1">
    <g id="patch_7">
     <path d="M 79.2 83.990437 
L 99.2 83.990437 
L 99.2 76.990437 
L 79.2 76.990437 
z
" style="fill: #1f77b4; fill-opacity: 0.15"/>
    </g>
    <g id="text_15">
     <!-- MFEF→MLIP null μ±σ -->
     <g transform="translate(107.2 83.990437) scale(0.1 -0.1)">
      <defs>
       <path id="DejaVuSans-2192" d="M 5050 2147 
L 5050 1866 
L 3822 638 
L 3447 1013 
L 4175 1741 
L 366 1741 
L 366 2272 
L 4175 2272 
L 3447 3000 
L 3822 3375 
L 5050 2147 
z
" transform="scale(0.015625)"/>
       <path id="DejaVuSans-3bc" d="M 544 -1331 
L 544 3500 
L 1119 3500 
L 1119 1325 
Q 1119 872 1334 640 
Q 1550 409 1972 409 
Q 2434 409 2667 671 
Q 2900 934 2900 1459 
L 2900 3500 
L 3475 3500 
L 3475 806 
Q 3475 619 3529 530 
Q 3584 441 3700 441 
Q 3728 441 3778 458 
Q 3828 475 3916 513 
L 3916 50 
Q 3788 -22 3673 -56 
Q 3559 -91 3450 -91 
Q 3234 -91 3106 31 
Q 2978 153 2931 403 
Q 2775 156 2548 32 
Q 2322 -91 2016 -91 
Q 1697 -91 1473 31 
Q 1250 153 1119 397 
L 1119 -1331 
L 544 -1331 
z
" transform="scale(0.015625)"/>
       <path id="DejaVuSans-b1" d="M 2944 4013 
L 2944 2803 
L 4684 2803 
L 4684 2272 
L 2944 2272 
L 2944 1063 
L 2419 1063 
L 2419 2272 
L 678 2272 
L 678 2803 
L 2419 2803 
L 2419 4013 
L 2944 4013 
z
M 678 531 
L 4684 531 
L 4684 0 
L 678 0 
L 678 531 
z
" transform="scale(0.015625)"/>
       <path id="DejaVuSans-3c3" d="M 1959 3044 
Q 1484 3044 1228 2700 
Q 959 2341 959 1747 
Q 959 1119 1226 758 
Q 1494 397 1959 397 
Q 2419 397 2687 759 
Q 2956 1122 2956 1747 
Q 2956 2319 2688 2700 
Q 2441 3044 1959 3044 
z
M 1959 3500 
L 3869 3500 
L 3869 2925 
L 3225 2925 
Q 3566 2438 3566 1747 
Q 3566 888 3138 400 
Q 2709 -91 1959 -91 
Q 1206 -91 781 400 
Q 353 888 353 1747 
Q 353 2613 781 3097 
Q 1134 3500 1959 3500 
z
" transform="scale(0.015625)"/>
      </defs>
      <use xlink:href="#DejaVuSans-4d"/>
      <use xlink:href="#DejaVuSans-46" transform="translate(86.279297 0)"/>
      <use xlink:href="#DejaVuSans-45" transform="translate(143.798828 0)"/>
      <use xlink:href="#DejaVuSans-46" transform="translate(206.982422 0)"/>
      <use xlink:href="#DejaVuSans-2192" transform="translate(264.501953 0)"/>
      <use xlink:href="#DejaVuSans-4d" transform="translate(348.291016 0)"/>
      <use xlink:href="#DejaVuSans-4c" transform="translate(434.570312 0)"/>
      <use xlink:href="#DejaVuSans-49" transform="translate(490.283203 0)"/>
      <use xlink:href="#DejaVuSans-50" transform="translate(519.775391 0)"/>
      <use xlink:href="#DejaVuSans-20" transform="translate(580.078125 0)"/>
      <use xlink:href="#DejaVuSans-6e" transform="translate(611.865234 0)"/>
      <use xlink:href="#DejaVuSans-75" transform="translate(675.244141 0)"/>
      <use xlink:href="#DejaVuSans-6c" transform="translate(738.623047 0)"/>
      <use xlink:href="#DejaVuSans-6c" transform="translate(766.40625 0)"/>
      <use xlink:href="#DejaVuSans-20" transform="translate(794.189453 0)"/>
      <use xlink:href="#DejaVuSans-3bc" transform="translate(825.976562 0)"/>
      <use xlink:href="#DejaVuSans-b1" transform="translate(889.599609 0)"/>
      <use xlink:href="#DejaVuSans-3c3" transform="translate(973.388672 0)"/>
     </g>
    </g>
    <g id="patch_8">
     <path d="M 79.2 98.668563 
L 99.2 98.668563 
L 99.2 91.668563 
L 79.2 91.668563 
z
" style="fill: #ff7f0e; fill-opacity: 0.15"/>
    </g>
    <g id="text_16">
     <!-- MLIP→MFEF null μ±σ -->
     <g transform="translate(107.2 98.668563) scale(0.1 -0.1)">
      <use xlink:href="#DejaVuSans-4d"/>
      <use xlink:href="#DejaVuSans-4c" transform="translate(86.279297 0)"/>
      <use xlink:href="#DejaVuSans-49" transform="translate(141.992188 0)"/>
      <use xlink:href="#DejaVuSans-50" transform="translate(171.484375 0)"/>
      <use xlink:href="#DejaVuSans-2192" transform="translate(231.787109 0)"/>
      <use xlink:href="#DejaVuSans-4d" transform="translate(315.576172 0)"/>
      <use xlink:href="#DejaVuSans-46" transform="translate(401.855469 0)"/>
      <use xlink:href="#DejaVuSans-45" transform="translate(459.375 0)"/>
      <use xlink:href="#DejaVuSans-46" transform="translate(522.558594 0)"/>
      <use xlink:href="#DejaVuSans-20" transform="translate(580.078125 0)"/>
      <use xlink:href="#DejaVuSans-6e" transform="translate(611.865234 0)"/>
      <use xlink:href="#DejaVuSans-75" transform="translate(675.244141 0)"/>
      <use xlink:href="#DejaVuSans-6c" transform="translate(738.623047 0)"/>
      <use xlink:href="#DejaVuSans-6c" transform="translate(766.40625 0)"/>
      <use xlink:href="#DejaVuSans-20" transform="translate(794.189453 0)"/>
      <use xlink:href="#DejaVuSans-3bc" transform="translate(825.976562 0)"/>
      <use xlink:href="#DejaVuSans-b1" transform="translate(889.599609 0)"/>
      <use xlink:href="#DejaVuSans-3c3" transform="translate(973.388672 0)"/>
     </g>
    </g>
    <g id="line2d_18">
     <path d="M 230.876562 80.490437 
L 240.876562 80.490437 
L 250.876562 80.490437 
" style="fill: none; stroke: #1f77b4; stroke-width: 2.2; stroke-linecap: square"/>
    </g>
    <g id="text_17">
     <!-- MFEF→MLIP -->
     <g transform="translate(258.876562 83.990437) scale(0.1 -0.1)">
      <use xlink:href="#DejaVuSans-4d"/>
      <use xlink:href="#DejaVuSans-46" transform="translate(86.279297 0)"/>
      <use xlink:href="#DejaVuSans-45" transform="translate(143.798828 0)"/>
      <use xlink:href="#DejaVuSans-46" transform="translate(206.982422 0)"/>
      <use xlink:href="#DejaVuSans-2192" transform="translate(264.501953 0)"/>
      <use xlink:href="#DejaVuSans-4d" transform="translate(348.291016 0)"/>
      <use xlink:href="#DejaVuSans-4c" transform="translate(434.570312 0)"/>
      <use xlink:href="#DejaVuSans-49" transform="translate(490.283203 0)"/>
      <use xlink:href="#DejaVuSans-50" transform="translate(519.775391 0)"/>
     </g>
    </g>
    <g id="line2d_19">
     <path d="M 230.876562 95.168563 
L 240.876562 95.168563 
L 250.876562 95.168563 
" style="fill: none; stroke: #ff7f0e; stroke-width: 2.2; stroke-linecap: square"/>
    </g>
    <g id="text_18">
     <!-- MLIP→MFEF -->
     <g transform="translate(258.876562 98.668563) scale(0.1 -0.1)">
      <use xlink:href="#DejaVuSans-4d"/>
      <use xlink:href="#DejaVuSans-4c" transform="translate(86.279297 0)"/>
      <use xlink:href="#DejaVuSans-49" transform="translate(141.992188 0)"/>
      <use xlink:href="#DejaVuSans-50" transform="translate(171.484375 0)"/>
      <use xlink:href="#DejaVuSans-2192" transform="translate(231.787109 0)"/>
      <use xlink:href="#DejaVuSans-4d" transform="translate(315.576172 0)"/>
      <use xlink:href="#DejaVuSans-46" transform="translate(401.855469 0)"/>
      <use xlink:href="#DejaVuSans-45" transform="translate(459.375 0)"/>
      <use xlink:href="#DejaVuSans-46" transform="translate(522.558594 0)"/>
     </g>
    </g>
   </g>
  </g>
  <g id="axes_2">
   <g id="patch_9">
    <path d="M 70.2 353.106 
L 505.44 353.106 
L 505.44 237.276 
L 70.2 237.276 
z
" style="fill: #ffffff"/>
   </g>
   <g id="matplotlib.axis_3">
    <g id="xtick_7">
     <g id="line2d_20">
      <g>
       <use xlink:href="#m82d11177bf" x="87.985286" y="353.106" style="stroke: #000000; stroke-width: 0.8"/>
      </g>
     </g>
     <g id="text_19">
      <!-- −200 -->
      <g transform="translate(74.251693 367.704438) scale(0.1 -0.1)">
       <use xlink:href="#DejaVuSans-2212"/>
       <use xlink:href="#DejaVuSans-32" transform="translate(83.789062 0)"/>
       <use xlink:href="#DejaVuSans-30" transform="translate(147.412109 0)"/>
       <use xlink:href="#DejaVuSans-30" transform="translate(211.035156 0)"/>
      </g>
     </g>
    </g>
    <g id="xtick_8">
     <g id="line2d_21">
      <g>
       <use xlink:href="#m82d11177bf" x="167.91917" y="353.106" style="stroke: #000000; stroke-width: 0.8"/>
      </g>
     </g>
     <g id="text_20">
      <!-- 0 -->
      <g transform="translate(164.73792 367.704438) scale(0.1 -0.1)">
       <use xlink:href="#DejaVuSans-30"/>
      </g>
     </g>
    </g>
    <g id="xtick_9">
     <g id="line2d_22">
      <g>
       <use xlink:href="#m82d11177bf" x="247.853053" y="353.106" style="stroke: #000000; stroke-width: 0.8"/>
      </g>
     </g>
     <g id="text_21">
      <!-- 200 -->
      <g transform="translate(238.309303 367.704438) scale(0.1 -0.1)">
       <use xlink:href="#DejaVuSans-32"/>
       <use xlink:href="#DejaVuSans-30" transform="translate(63.623047 0)"/>
       <use xlink:href="#DejaVuSans-30" transform="translate(127.246094 0)"/>
      </g>
     </g>
    </g>
    <g id="xtick_10">
     <g id="line2d_23">
      <g>
       <use xlink:href="#m82d11177bf" x="327.786937" y="353.106" style="stroke: #000000; stroke-width: 0.8"/>
      </g>
     </g>
     <g id="text_22">
      <!-- 400 -->
      <g transform="translate(318.243187 367.704438) scale(0.1 -0.1)">
       <use xlink:href="#DejaVuSans-34"/>
       <use xlink:href="#DejaVuSans-30" transform="translate(63.623047 0)"/>
       <use xlink:href="#DejaVuSans-30" transform="translate(127.246094 0)"/>
      </g>
     </g>
    </g>
    <g id="xtick_11">
     <g id="line2d_24">
      <g>
       <use xlink:href="#m82d11177bf" x="407.720821" y="353.106" style="stroke: #000000; stroke-width: 0.8"/>
      </g>
     </g>
     <g id="text_23">
      <!-- 600 -->
      <g transform="translate(398.177071 367.704438) scale(0.1 -0.1)">
       <use xlink:href="#DejaVuSans-36"/>
       <use xlink:href="#DejaVuSans-30" transform="translate(63.623047 0)"/>
       <use xlink:href="#DejaVuSans-30" transform="translate(127.246094 0)"/>
      </g>
     </g>
    </g>
    <g id="xtick_12">
     <g id="line2d_25">
      <g>
       <use xlink:href="#m82d11177bf" x="487.654704" y="353.106" style="stroke: #000000; stroke-width: 0.8"/>
      </g>
     </g>
     <g id="text_24">
      <!-- 800 -->
      <g transform="translate(478.110954 367.704438) scale(0.1 -0.1)">
       <use xlink:href="#DejaVuSans-38"/>
       <use xlink:href="#DejaVuSans-30" transform="translate(63.623047 0)"/>
       <use xlink:href="#DejaVuSans-30" transform="translate(127.246094 0)"/>
      </g>
     </g>
    </g>
   </g>
   <g id="matplotlib.axis_4">
    <g id="ytick_7">
     <g id="line2d_26">
      <g>
       <use xlink:href="#m880b620f01" x="70.2" y="349.316476" style="stroke: #000000; stroke-width: 0.8"/>
      </g>
     </g>
     <g id="text_25">
      <!-- −10 -->
      <g transform="translate(42.095313 353.115695) scale(0.1 -0.1)">
       <use xlink:href="#DejaVuSans-2212"/>
       <use xlink:href="#DejaVuSans-31" transform="translate(83.789062 0)"/>
       <use xlink:href="#DejaVuSans-30" transform="translate(147.412109 0)"/>
      </g>
     </g>
    </g>
    <g id="ytick_8">
     <g id="line2d_27">
      <g>
       <use xlink:href="#m880b620f01" x="70.2" y="320.934177" style="stroke: #000000; stroke-width: 0.8"/>
      </g>
     </g>
     <g id="text_26">
      <!-- −5 -->
      <g transform="translate(48.457813 324.733396) scale(0.1 -0.1)">
       <use xlink:href="#DejaVuSans-2212"/>
       <use xlink:href="#DejaVuSans-35" transform="translate(83.789062 0)"/>
      </g>
     </g>
    </g>
    <g id="ytick_9">
     <g id="line2d_28">
      <g>
       <use xlink:href="#m880b620f01" x="70.2" y="292.551879" style="stroke: #000000; stroke-width: 0.8"/>
      </g>
     </g>
     <g id="text_27">
      <!-- 0 -->
      <g transform="translate(56.8375 296.351098) scale(0.1 -0.1)">
       <use xlink:href="#DejaVuSans-30"/>
      </g>
     </g>
    </g>
    <g id="ytick_10">
     <g id="line2d_29">
      <g>
       <use xlink:href="#m880b620f01" x="70.2" y="264.16958" style="stroke: #000000; stroke-width: 0.8"/>
      </g>
     </g>
     <g id="text_28">
      <!-- 5 -->
      <g transform="translate(56.8375 267.968799) scale(0.1 -0.1)">
       <use xlink:href="#DejaVuSans-35"/>
      </g>
     </g>
    </g>
    <g id="text_29">
     <!-- ΔΔLL (bits) -->
     <g transform="translate(36.015625 322.22225) rotate(-90) scale(0.1 -0.1)">
      <use xlink:href="#DejaVuSans-394"/>
      <use xlink:href="#DejaVuSans-394" transform="translate(68.408203 0)"/>
      <use xlink:href="#DejaVuSans-4c" transform="translate(136.816406 0)"/>
      <use xlink:href="#DejaVuSans-4c" transform="translate(192.529297 0)"/>
      <use xlink:href="#DejaVuSans-20" transform="translate(248.242188 0)"/>
      <use xlink:href="#DejaVuSans-28" transform="translate(280.029297 0)"/>
      <use xlink:href="#DejaVuSans-62" transform="translate(319.042969 0)"/>
      <use xlink:href="#DejaVuSans-69" transform="translate(382.519531 0)"/>
      <use xlink:href="#DejaVuSans-74" transform="translate(410.302734 0)"/>
      <use xlink:href="#DejaVuSans-73" transform="translate(449.511719 0)"/>
      <use xlink:href="#DejaVuSans-29" transform="translate(501.611328 0)"/>
     </g>
    </g>
   </g>
   <g id="line2d_30">
    <path d="M 167.91917 353.106 
L 167.91917 237.276 
" clip-path="url(#pf81ce0e9b8)" style="fill: none; stroke-dasharray: 2.96,1.28; stroke-dashoffset: 0; stroke: #000000; stroke-width: 0.8"/>
   </g>
   <g id="line2d_31">
    <path d="M 70.2 292.551879 
L 505.44 292.551879 
" clip-path="url(#pf81ce0e9b8)" style="fill: none; stroke-dasharray: 0.8,1.32; stroke-dashoffset: 0; stroke: #000000; stroke-width: 0.8"/>
   </g>
   <g id="line2d_32">
    <path d="M 89.983636 269.854163 
L 93.980327 273.73986 
L 97.977023 322.201728 
L 101.973713 273.65912 
L 105.97041 308.968007 
L 109.967106 296.866933 
L 113.963796 279.392022 
L 117.960493 306.808441 
L 121.957186 288.599823 
L 125.953882 277.768213 
L 129.950576 312.440551 
L 133.947269 242.541 
L 137.943962 296.483182 
L 141.940659 281.961376 
L 145.937352 314.604816 
L 149.934045 264.067802 
L 153.93074 336.363812 
L 157.927434 281.031561 
L 161.924129 314.571492 
L 165.920823 280.393496 
L 169.917517 251.003546 
L 173.914211 283.339353 
L 177.910906 290.681692 
L 181.9076 303.332212 
L 185.904294 326.703706 
L 189.900988 346.69042 
L 193.897681 310.232655 
L 197.894377 267.417767 
L 201.891071 347.413861 
L 205.887764 295.506578 
L 209.884457 311.240016 
L 213.881154 293.631757 
L 217.877847 307.795254 
L 221.874543 263.610383 
L 225.871234 299.759006 
L 229.86793 266.147605 
L 233.864626 307.12444 
L 237.861317 260.358524 
L 241.858013 306.034265 
L 245.854704 304.310227 
L 249.8514 273.233898 
L 253.848096 328.283918 
L 257.844787 308.374681 
L 261.841483 248.39743 
L 265.838179 283.081236 
L 269.83487 304.407071 
L 273.83156 325.58414 
L 277.828262 276.364053 
L 281.824953 315.082085 
L 285.821643 265.723425 
L 289.818345 268.958995 
L 293.815036 295.32766 
L 297.811726 316.911776 
L 301.808428 305.913175 
L 305.805119 288.506377 
L 309.801809 294.528127 
L 313.798511 296.832646 
L 317.795202 244.448748 
L 321.791892 274.266511 
L 325.788594 283.070497 
L 329.785285 278.201782 
L 333.781975 262.815042 
L 337.778677 296.502457 
L 341.775368 280.921289 
L 345.772058 301.759205 
L 349.76876 303.366024 
L 353.765451 289.643873 
L 357.762141 311.262146 
L 361.758843 303.502108 
L 365.755534 274.203899 
L 369.752224 300.858001 
L 373.748914 309.02578 
L 377.745605 296.25143 
L 381.742319 285.373014 
L 385.739009 294.630957 
L 389.7357 285.276185 
L 393.73239 252.745856 
L 397.72908 302.621793 
L 401.725771 272.530809 
L 405.722485 280.778537 
L 409.719175 288.099838 
L 413.715866 297.321738 
L 417.712556 297.159097 
L 421.709246 316.688964 
L 425.705937 293.899878 
L 429.702627 290.427717 
L 433.699341 266.444462 
L 437.696032 271.982769 
L 441.692722 303.815352 
L 445.689412 302.453513 
L 449.686103 299.010069 
L 453.682793 281.813362 
L 457.679507 288.064213 
L 461.676198 317.146394 
L 465.672888 249.358029 
L 469.669578 347.841 
L 473.666269 294.985727 
L 477.662959 320.176696 
L 481.659673 290.209248 
L 485.656364 343.112781 
" clip-path="url(#pf81ce0e9b8)" style="fill: none; stroke: #d62728; stroke-width: 2.2; stroke-linecap: square"/>
   </g>
   <g id="line2d_33">
    <defs>
     <path id="mfedb28fe81" d="M 0 1.25 
C 0.331504 1.25 0.649475 1.118292 0.883883 0.883883 
C 1.118292 0.649475 1.25 0.331504 1.25 0 
C 1.25 -0.331504 1.118292 -0.649475 0.883883 -0.883883 
C 0.649475 -1.118292 0.331504 -1.25 0 -1.25 
C -0.331504 -1.25 -0.649475 -1.118292 -0.883883 -0.883883 
C -1.118292 -0.649475 -1.25 -0.331504 -1.25 0 
C -1.25 0.331504 -1.118292 0.649475 -0.883883 0.883883 
C -0.649475 1.118292 -0.331504 1.25 0 1.25 
z
" style="stroke: #000000"/>
    </defs>
    <g clip-path="url(#pf81ce0e9b8)">
     <use xlink:href="#mfedb28fe81" x="133.947269" y="242.541" style="stroke: #000000"/>
     <use xlink:href="#mfedb28fe81" x="153.93074" y="336.363812" style="stroke: #000000"/>
     <use xlink:href="#mfedb28fe81" x="185.904294" y="326.703706" style="stroke: #000000"/>
     <use xlink:href="#mfedb28fe81" x="189.900988" y="346.69042" style="stroke: #000000"/>
     <use xlink:href="#mfedb28fe81" x="201.891071" y="347.413861" style="stroke: #000000"/>
     <use xlink:href="#mfedb28fe81" x="233.864626" y="307.12444" style="stroke: #000000"/>
     <use xlink:href="#mfedb28fe81" x="253.848096" y="328.283918" style="stroke: #000000"/>
     <use xlink:href="#mfedb28fe81" x="261.841483" y="248.39743" style="stroke: #000000"/>
     <use xlink:href="#mfedb28fe81" x="273.83156" y="325.58414" style="stroke: #000000"/>
     <use xlink:href="#mfedb28fe81" x="281.824953" y="315.082085" style="stroke: #000000"/>
     <use xlink:href="#mfedb28fe81" x="317.795202" y="244.448748" style="stroke: #000000"/>
     <use xlink:href="#mfedb28fe81" x="365.755534" y="274.203899" style="stroke: #000000"/>
     <use xlink:href="#mfedb28fe81" x="393.73239" y="252.745856" style="stroke: #000000"/>
     <use xlink:href="#mfedb28fe81" x="465.672888" y="249.358029" style="stroke: #000000"/>
     <use xlink:href="#mfedb28fe81" x="469.669578" y="347.841" style="stroke: #000000"/>
     <use xlink:href="#mfedb28fe81" x="485.656364" y="343.112781" style="stroke: #000000"/>
    </g>
   </g>
   <g id="patch_10">
    <path d="M 70.2 353.106 
L 70.2 237.276 
" style="fill: none; stroke: #000000; stroke-width: 0.8; stroke-linejoin: miter; stroke-linecap: square"/>
   </g>
   <g id="patch_11">
    <path d="M 505.44 353.106 
L 505.44 237.276 
" style="fill: none; stroke: #000000; stroke-width: 0.8; stroke-linejoin: miter; stroke-linecap: square"/>
   </g>
   <g id="patch_12">
    <path d="M 70.2 353.106 
L 505.44 353.106 
" style="fill: none; stroke: #000000; stroke-width: 0.8; stroke-linejoin: miter; stroke-linecap: square"/>
   </g>
   <g id="patch_13">
    <path d="M 70.2 237.276 
L 505.44 237.276 
" style="fill: none; stroke: #000000; stroke-width: 0.8; stroke-linejoin: miter; stroke-linecap: square"/>
   </g>
   <g id="text_30">
    <!-- Panel B: pair-diff with significance dots -->
    <g transform="translate(171.554063 231.276) scale(0.12 -0.12)">
     <defs>
      <path id="DejaVuSans-42" d="M 1259 2228 
L 1259 519 
L 2272 519 
Q 2781 519 3026 730 
Q 3272 941 3272 1375 
Q 3272 1813 3026 2020 
Q 2781 2228 2272 2228 
L 1259 2228 
z
M 1259 4147 
L 1259 2741 
L 2194 2741 
Q 2656 2741 2882 2914 
Q 3109 3088 3109 3444 
Q 3109 3797 2882 3972 
Q 2656 4147 2194 4147 
L 1259 4147 
z
M 628 4666 
L 2241 4666 
Q 2963 4666 3353 4366 
Q 3744 4066 3744 3513 
Q 3744 3084 3544 2831 
Q 3344 2578 2956 2516 
Q 3422 2416 3680 2098 
Q 3938 1781 3938 1306 
Q 3938 681 3513 340 
Q 3088 0 2303 0 
L 628 0 
L 628 4666 
z
" transform="scale(0.015625)"/>
      <path id="DejaVuSans-70" d="M 1159 525 
L 1159 -1331 
L 581 -1331 
L 581 3500 
L 1159 3500 
L 1159 2969 
Q 1341 3281 1617 3432 
Q 1894 3584 2278 3584 
Q 2916 3584 3314 3078 
Q 3713 2572 3713 1747 
Q 3713 922 3314 415 
Q 2916 -91 2278 -91 
Q 1894 -91 1617 61 
Q 1341 213 1159 525 
z
M 3116 1747 
Q 3116 2381 2855 2742 
Q 2594 3103 2138 3103 
Q 1681 3103 1420 2742 
Q 1159 2381 1159 1747 
Q 1159 1113 1420 752 
Q 1681 391 2138 391 
Q 2594 391 2855 752 
Q 3116 1113 3116 1747 
z
" transform="scale(0.015625)"/>
      <path id="DejaVuSans-68" d="M 3513 2113 
L 3513 0 
L 2938 0 
L 2938 2094 
Q 2938 2591 2744 2837 
Q 2550 3084 2163 3084 
Q 1697 3084 1428 2787 
Q 1159 2491 1159 1978 
L 1159 0 
L 581 0 
L 581 4863 
L 1159 4863 
L 1159 2956 
Q 1366 3272 1645 3428 
Q 1925 3584 2291 3584 
Q 2894 3584 3203 3211 
Q 3513 2838 3513 2113 
z
" transform="scale(0.015625)"/>
      <path id="DejaVuSans-67" d="M 2906 1791 
Q 2906 2416 2648 2759 
Q 2391 3103 1925 3103 
Q 1463 3103 1205 2759 
Q 947 2416 947 1791 
Q 947 1169 1205 825 
Q 1463 481 1925 481 
Q 2391 481 2648 825 
Q 2906 1169 2906 1791 
z
M 3481 434 
Q 3481 -459 3084 -895 
Q 2688 -1331 1869 -1331 
Q 1566 -1331 1297 -1286 
Q 1028 -1241 775 -1147 
L 775 -588 
Q 1028 -725 1275 -790 
Q 1522 -856 1778 -856 
Q 2344 -856 2625 -561 
Q 2906 -266 2906 331 
L 2906 616 
Q 2728 306 2450 153 
Q 2172 0 1784 0 
Q 1141 0 747 490 
Q 353 981 353 1791 
Q 353 2603 747 3093 
Q 1141 3584 1784 3584 
Q 2172 3584 2450 3431 
Q 2728 3278 2906 2969 
L 2906 3500 
L 3481 3500 
L 3481 434 
z
" transform="scale(0.015625)"/>
      <path id="DejaVuSans-63" d="M 3122 3366 
L 3122 2828 
Q 2878 2963 2633 3030 
Q 2388 3097 2138 3097 
Q 1578 3097 1268 2742 
Q 959 2388 959 1747 
Q 959 1106 1268 751 
Q 1578 397 2138 397 
Q 2388 397 2633 464 
Q 2878 531 3122 666 
L 3122 134 
Q 2881 22 2623 -34 
Q 2366 -91 2075 -91 
Q 1284 -91 818 406 
Q 353 903 353 1747 
Q 353 2603 823 3093 
Q 1294 3584 2113 3584 
Q 2378 3584 2631 3529 
Q 2884 3475 3122 3366 
z
" transform="scale(0.015625)"/>
     </defs>
     <use xlink:href="#DejaVuSans-50"/>
     <use xlink:href="#DejaVuSans-61" transform="translate(55.802734 0)"/>
     <use xlink:href="#DejaVuSans-6e" transform="translate(117.082031 0)"/>
     <use xlink:href="#DejaVuSans-65" transform="translate(180.460938 0)"/>
     <use xlink:href="#DejaVuSans-6c" transform="translate(241.984375 0)"/>
     <use xlink:href="#DejaVuSans-20" transform="translate(269.767578 0)"/>
     <use xlink:href="#DejaVuSans-42" transform="translate(301.554688 0)"/>
     <use xlink:href="#DejaVuSans-3a" transform="translate(370.158203 0)"/>
     <use xlink:href="#DejaVuSans-20" transform="translate(403.849609 0)"/>
     <use xlink:href="#DejaVuSans-70" transform="translate(435.636719 0)"/>
     <use xlink:href="#DejaVuSans-61" transform="translate(499.113281 0)"/>
     <use xlink:href="#DejaVuSans-69" transform="translate(560.392578 0)"/>
     <use xlink:href="#DejaVuSans-72" transform="translate(588.175781 0)"/>
     <use xlink:href="#DejaVuSans-2d" transform="translate(622.914062 0)"/>
     <use xlink:href="#DejaVuSans-64" transform="translate(658.998047 0)"/>
     <use xlink:href="#DejaVuSans-69" transform="translate(722.474609 0)"/>
     <use xlink:href="#DejaVuSans-66" transform="translate(750.257812 0)"/>
     <use xlink:href="#DejaVuSans-66" transform="translate(785.462891 0)"/>
     <use xlink:href="#DejaVuSans-20" transform="translate(820.667969 0)"/>
     <use xlink:href="#DejaVuSans-77" transform="translate(852.455078 0)"/>
     <use xlink:href="#DejaVuSans-69" transform="translate(934.242188 0)"/>
     <use xlink:href="#DejaVuSans-74" transform="translate(962.025391 0)"/>
     <use xlink:href="#DejaVuSans-68" transform="translate(1001.234375 0)"/>
     <use xlink:href="#DejaVuSans-20" transform="translate(1064.613281 0)"/>
     <use xlink:href="#DejaVuSans-73" transform="translate(1096.400391 0)"/>
     <use xlink:href="#DejaVuSans-69" transform="translate(1148.5 0)"/>
     <use xlink:href="#DejaVuSans-67" transform="translate(1176.283203 0)"/>
     <use xlink:href="#DejaVuSans-6e" transform="translate(1239.759766 0)"/>
     <use xlink:href="#DejaVuSans-69" transform="translate(1303.138672 0)"/>
     <use xlink:href="#DejaVuSans-66" transform="translate(1330.921875 0)"/>
     <use xlink:href="#DejaVuSans-69" transform="translate(1366.126953 0)"/>
     <use xlink:href="#DejaVuSans-63" transform="translate(1393.910156 0)"/>
     <use xlink:href="#DejaVuSans-61" transform="translate(1448.890625 0)"/>
     <use xlink:href="#DejaVuSans-6e" transform="translate(1510.169922 0)"/>
     <use xlink:href="#DejaVuSans-63" transform="translate(1573.548828 0)"/>
     <use xlink:href="#DejaVuSans-65" transform="translate(1628.529297 0)"/>
     <use xlink:href="#DejaVuSans-20" transform="translate(1690.052734 0)"/>
     <use xlink:href="#DejaVuSans-64" transform="translate(1721.839844 0)"/>
     <use xlink:href="#DejaVuSans-6f" transform="translate(1785.316406 0)"/>
     <use xlink:href="#DejaVuSans-74" transform="translate(1846.498047 0)"/>
     <use xlink:href="#DejaVuSans-73" transform="translate(1885.707031 0)"/>
    </g>
   </g>
   <g id="legend_2">
    <g id="line2d_34">
     <path d="M 79.2 250.374437 
L 89.2 250.374437 
L 99.2 250.374437 
" style="fill: none; stroke: #d62728; stroke-width: 2.2; stroke-linecap: square"/>
    </g>
    <g id="text_31">
     <!-- (A→B − B→A) -->
     <g transform="translate(107.2 253.874437) scale(0.1 -0.1)">
      <use xlink:href="#DejaVuSans-28"/>
      <use xlink:href="#DejaVuSans-41" transform="translate(39.013672 0)"/>
      <use xlink:href="#DejaVuSans-2192" transform="translate(107.421875 0)"/>
      <use xlink:href="#DejaVuSans-42" transform="translate(191.210938 0)"/>
      <use xlink:href="#DejaVuSans-20" transform="translate(259.814453 0)"/>
      <use xlink:href="#DejaVuSans-2212" transform="translate(291.601562 0)"/>
      <use xlink:href="#DejaVuSans-20" transform="translate(375.390625 0)"/>
      <use xlink:href="#DejaVuSans-42" transform="translate(407.177734 0)"/>
      <use xlink:href="#DejaVuSans-2192" transform="translate(475.78125 0)"/>
      <use xlink:href="#DejaVuSans-41" transform="translate(559.570312 0)"/>
      <use xlink:href="#DejaVuSans-29" transform="translate(627.978516 0)"/>
     </g>
    </g>
    <g id="line2d_35">
     <g>
      <use xlink:href="#mfedb28fe81" x="89.2" y="265.052563" style="stroke: #000000"/>
     </g>
    </g>
    <g id="text_32">
     <!-- p&lt;0.05 (one-sided) -->
     <g transform="translate(107.2 268.552563) scale(0.1 -0.1)">
      <defs>
       <path id="DejaVuSans-3c" d="M 4684 3150 
L 1459 2003 
L 4684 863 
L 4684 294 
L 678 1747 
L 678 2266 
L 4684 3719 
L 4684 3150 
z
" transform="scale(0.015625)"/>
      </defs>
      <use xlink:href="#DejaVuSans-70"/>
      <use xlink:href="#DejaVuSans-3c" transform="translate(63.476562 0)"/>
      <use xlink:href="#DejaVuSans-30" transform="translate(147.265625 0)"/>
      <use xlink:href="#DejaVuSans-2e" transform="translate(210.888672 0)"/>
      <use xlink:href="#DejaVuSans-30" transform="translate(242.675781 0)"/>
      <use xlink:href="#DejaVuSans-35" transform="translate(306.298828 0)"/>
      <use xlink:href="#DejaVuSans-20" transform="translate(369.921875 0)"/>
      <use xlink:href="#DejaVuSans-28" transform="translate(401.708984 0)"/>
      <use xlink:href="#DejaVuSans-6f" transform="translate(440.722656 0)"/>
      <use xlink:href="#DejaVuSans-6e" transform="translate(501.904297 0)"/>
      <use xlink:href="#DejaVuSans-65" transform="translate(565.283203 0)"/>
      <use xlink:href="#DejaVuSans-2d" transform="translate(626.806641 0)"/>
      <use xlink:href="#DejaVuSans-73" transform="translate(662.890625 0)"/>
      <use xlink:href="#DejaVuSans-69" transform="translate(714.990234 0)"/>
      <use xlink:href="#DejaVuSans-64" transform="translate(742.773438 0)"/>
      <use xlink:href="#DejaVuSans-65" transform="translate(806.25 0)"/>
      <use xlink:href="#DejaVuSans-64" transform="translate(867.773438 0)"/>
      <use xlink:href="#DejaVuSans-29" transform="translate(931.25 0)"/>
     </g>
    </g>
   </g>
  </g>
  <g id="axes_3">
   <g id="patch_14">
    <path d="M 70.2 499.824 
L 505.44 499.824 
L 505.44 383.994 
L 70.2 383.994 
z
" style="fill: #ffffff"/>
   </g>
   <g id="matplotlib.axis_5">
    <g id="xtick_13">
     <g id="line2d_36">
      <g>
       <use xlink:href="#m82d11177bf" x="87.985286" y="499.824" style="stroke: #000000; stroke-width: 0.8"/>
      </g>
     </g>
     <g id="text_33">
      <!-- −200 -->
      <g transform="translate(74.251693 514.422438) scale(0.1 -0.1)">
       <use xlink:href="#DejaVuSans-2212"/>
       <use xlink:href="#DejaVuSans-32" transform="translate(83.789062 0)"/>
       <use xlink:href="#DejaVuSans-30" transform="translate(147.412109 0)"/>
       <use xlink:href="#DejaVuSans-30" transform="translate(211.035156 0)"/>
      </g>
     </g>
    </g>
    <g id="xtick_14">
     <g id="line2d_37">
      <g>
       <use xlink:href="#m82d11177bf" x="167.91917" y="499.824" style="stroke: #000000; stroke-width: 0.8"/>
      </g>
     </g>
     <g id="text_34">
      <!-- 0 -->
      <g transform="translate(164.73792 514.422438) scale(0.1 -0.1)">
       <use xlink:href="#DejaVuSans-30"/>
      </g>
     </g>
    </g>
    <g id="xtick_15">
     <g id="line2d_38">
      <g>
       <use xlink:href="#m82d11177bf" x="247.853053" y="499.824" style="stroke: #000000; stroke-width: 0.8"/>
      </g>
     </g>
     <g id="text_35">
      <!-- 200 -->
      <g transform="translate(238.309303 514.422438) scale(0.1 -0.1)">
       <use xlink:href="#DejaVuSans-32"/>
       <use xlink:href="#DejaVuSans-30" transform="translate(63.623047 0)"/>
       <use xlink:href="#DejaVuSans-30" transform="translate(127.246094 0)"/>
      </g>
     </g>
    </g>
    <g id="xtick_16">
     <g id="line2d_39">
      <g>
       <use xlink:href="#m82d11177bf" x="327.786937" y="499.824" style="stroke: #000000; stroke-width: 0.8"/>
      </g>
     </g>
     <g id="text_36">
      <!-- 400 -->
      <g transform="translate(318.243187 514.422438) scale(0.1 -0.1)">
       <use xlink:href="#DejaVuSans-34"/>
       <use xlink:href="#DejaVuSans-30" transform="translate(63.623047 0)"/>
       <use xlink:href="#DejaVuSans-30" transform="translate(127.246094 0)"/>
      </g>
     </g>
    </g>
    <g id="xtick_17">
     <g id="line2d_40">
      <g>
       <use xlink:href="#m82d11177bf" x="407.720821" y="499.824" style="stroke: #000000; stroke-width: 0.8"/>
      </g>
     </g>
     <g id="text_37">
      <!-- 600 -->
      <g transform="translate(398.177071 514.422438) scale(0.1 -0.1)">
       <use xlink:href="#DejaVuSans-36"/>
       <use xlink:href="#DejaVuSans-30" transform="translate(63.623047 0)"/>
       <use xlink:href="#DejaVuSans-30" transform="translate(127.246094 0)"/>
      </g>
     </g>
    </g>
    <g id="xtick_18">
     <g id="line2d_41">
      <g>
       <use xlink:href="#m82d11177bf" x="487.654704" y="499.824" style="stroke: #000000; stroke-width: 0.8"/>
      </g>
     </g>
     <g id="text_38">
      <!-- 800 -->
      <g transform="translate(478.110954 514.422438) scale(0.1 -0.1)">
       <use xlink:href="#DejaVuSans-38"/>
       <use xlink:href="#DejaVuSans-30" transform="translate(63.623047 0)"/>
       <use xlink:href="#DejaVuSans-30" transform="translate(127.246094 0)"/>
      </g>
     </g>
    </g>
    <g id="text_39">
     <!-- Time (ms) -->
     <g transform="translate(262.620781 528.100563) scale(0.1 -0.1)">
      <defs>
       <path id="DejaVuSans-54" d="M -19 4666 
L 3928 4666 
L 3928 4134 
L 2272 4134 
L 2272 0 
L 1638 0 
L 1638 4134 
L -19 4134 
L -19 4666 
z
" transform="scale(0.015625)"/>
       <path id="DejaVuSans-6d" d="M 3328 2828 
Q 3544 3216 3844 3400 
Q 4144 3584 4550 3584 
Q 5097 3584 5394 3201 
Q 5691 2819 5691 2113 
L 5691 0 
L 5113 0 
L 5113 2094 
Q 5113 2597 4934 2840 
Q 4756 3084 4391 3084 
Q 3944 3084 3684 2787 
Q 3425 2491 3425 1978 
L 3425 0 
L 2847 0 
L 2847 2094 
Q 2847 2600 2669 2842 
Q 2491 3084 2119 3084 
Q 1678 3084 1418 2786 
Q 1159 2488 1159 1978 
L 1159 0 
L 581 0 
L 581 3500 
L 1159 3500 
L 1159 2956 
Q 1356 3278 1631 3431 
Q 1906 3584 2284 3584 
Q 2666 3584 2933 3390 
Q 3200 3197 3328 2828 
z
" transform="scale(0.015625)"/>
      </defs>
      <use xlink:href="#DejaVuSans-54"/>
      <use xlink:href="#DejaVuSans-69" transform="translate(57.958984 0)"/>
      <use xlink:href="#DejaVuSans-6d" transform="translate(85.742188 0)"/>
      <use xlink:href="#DejaVuSans-65" transform="translate(183.154297 0)"/>
      <use xlink:href="#DejaVuSans-20" transform="translate(244.677734 0)"/>
      <use xlink:href="#DejaVuSans-28" transform="translate(276.464844 0)"/>
      <use xlink:href="#DejaVuSans-6d" transform="translate(315.478516 0)"/>
      <use xlink:href="#DejaVuSans-73" transform="translate(412.890625 0)"/>
      <use xlink:href="#DejaVuSans-29" transform="translate(464.990234 0)"/>
     </g>
    </g>
   </g>
   <g id="matplotlib.axis_6">
    <g id="ytick_11">
     <g id="line2d_42">
      <g>
       <use xlink:href="#m880b620f01" x="70.2" y="464.915167" style="stroke: #000000; stroke-width: 0.8"/>
      </g>
     </g>
     <g id="text_40">
      <!-- 0 -->
      <g transform="translate(56.8375 468.714386) scale(0.1 -0.1)">
       <use xlink:href="#DejaVuSans-30"/>
      </g>
     </g>
    </g>
    <g id="ytick_12">
     <g id="line2d_43">
      <g>
       <use xlink:href="#m880b620f01" x="70.2" y="423.769794" style="stroke: #000000; stroke-width: 0.8"/>
      </g>
     </g>
     <g id="text_41">
      <!-- 2 -->
      <g transform="translate(56.8375 427.569013) scale(0.1 -0.1)">
       <use xlink:href="#DejaVuSans-32"/>
      </g>
     </g>
    </g>
    <g id="text_42">
     <!-- Z (σ from null) -->
     <g transform="translate(50.757812 477.919938) rotate(-90) scale(0.1 -0.1)">
      <defs>
       <path id="DejaVuSans-5a" d="M 359 4666 
L 4025 4666 
L 4025 4184 
L 1075 531 
L 4097 531 
L 4097 0 
L 288 0 
L 288 481 
L 3238 4134 
L 359 4134 
L 359 4666 
z
" transform="scale(0.015625)"/>
      </defs>
      <use xlink:href="#DejaVuSans-5a"/>
      <use xlink:href="#DejaVuSans-20" transform="translate(68.505859 0)"/>
      <use xlink:href="#DejaVuSans-28" transform="translate(100.292969 0)"/>
      <use xlink:href="#DejaVuSans-3c3" transform="translate(139.306641 0)"/>
      <use xlink:href="#DejaVuSans-20" transform="translate(202.685547 0)"/>
      <use xlink:href="#DejaVuSans-66" transform="translate(234.472656 0)"/>
      <use xlink:href="#DejaVuSans-72" transform="translate(269.677734 0)"/>
      <use xlink:href="#DejaVuSans-6f" transform="translate(308.541016 0)"/>
      <use xlink:href="#DejaVuSans-6d" transform="translate(369.722656 0)"/>
      <use xlink:href="#DejaVuSans-20" transform="translate(467.134766 0)"/>
      <use xlink:href="#DejaVuSans-6e" transform="translate(498.921875 0)"/>
      <use xlink:href="#DejaVuSans-75" transform="translate(562.300781 0)"/>
      <use xlink:href="#DejaVuSans-6c" transform="translate(625.679688 0)"/>
      <use xlink:href="#DejaVuSans-6c" transform="translate(653.462891 0)"/>
      <use xlink:href="#DejaVuSans-29" transform="translate(681.246094 0)"/>
     </g>
    </g>
   </g>
   <g id="line2d_44">
    <path d="M 167.91917 499.824 
L 167.91917 383.994 
" clip-path="url(#pc7cb9432e8)" style="fill: none; stroke-dasharray: 2.96,1.28; stroke-dashoffset: 0; stroke: #000000; stroke-width: 0.8"/>
   </g>
   <g id="line2d_45">
    <path d="M 89.983636 427.836724 
L 93.980327 435.069551 
L 97.977023 484.125562 
L 101.973713 432.438252 
L 105.97041 481.710334 
L 109.967106 465.328925 
L 113.963796 443.679004 
L 117.960493 471.791017 
L 121.957186 476.172224 
L 125.953882 465.205257 
L 129.950576 482.63796 
L 133.947269 412.506575 
L 137.943962 474.812124 
L 141.940659 447.002813 
L 145.937352 490.885773 
L 149.934045 439.556936 
L 153.93074 472.067547 
L 157.927434 465.252551 
L 161.924129 460.532625 
L 165.920823 446.045238 
L 169.917517 427.517024 
L 173.914211 461.617409 
L 177.910906 458.438561 
L 181.9076 457.724486 
L 185.904294 462.822994 
L 189.900988 494.273306 
L 193.897681 479.458108 
L 197.894377 429.143421 
L 201.891071 480.495272 
L 205.887764 468.580939 
L 209.884457 481.974342 
L 213.881154 485.259316 
L 217.877847 491.005934 
L 221.874543 433.352926 
L 225.871234 477.10725 
L 229.86793 454.271816 
L 233.864626 438.328307 
L 237.861317 438.528177 
L 241.858013 473.900836 
L 245.854704 482.351238 
L 249.8514 462.258842 
L 253.848096 484.739596 
L 257.844787 453.576184 
L 261.841483 419.961279 
L 265.838179 458.639102 
L 269.83487 484.004762 
L 273.83156 470.07947 
L 277.828262 468.44999 
L 281.824953 466.644524 
L 285.821643 436.787032 
L 289.818345 449.675477 
L 293.815036 475.828404 
L 297.811726 479.246677 
L 301.808428 471.176334 
L 305.805119 487.413254 
L 309.801809 460.889727 
L 313.798511 466.297119 
L 317.795202 406.902637 
L 321.791892 455.54949 
L 325.788594 475.282542 
L 329.785285 446.306363 
L 333.781975 441.369172 
L 337.778677 451.329153 
L 341.775368 445.52035 
L 345.772058 479.385242 
L 349.76876 486.491608 
L 353.765451 462.410418 
L 357.762141 470.663831 
L 361.758843 468.47068 
L 365.755534 423.737141 
L 369.752224 474.454679 
L 373.748914 472.165637 
L 377.745605 477.586857 
L 381.742319 450.565513 
L 385.739009 472.472306 
L 389.7357 471.719381 
L 393.73239 420.385978 
L 397.72908 484.615446 
L 401.725771 455.771605 
L 405.722485 465.424923 
L 409.719175 442.902833 
L 413.715866 463.356666 
L 417.712556 470.013211 
L 421.709246 494.559 
L 425.705937 487.059414 
L 429.702627 462.268467 
L 433.699341 433.331367 
L 437.696032 449.052605 
L 441.692722 483.584073 
L 445.689412 471.379315 
L 449.686103 460.04672 
L 453.682793 449.415402 
L 457.679507 458.101889 
L 461.676198 485.190202 
L 465.672888 418.308095 
L 469.669578 474.953769 
L 473.666269 481.417289 
L 477.662959 485.078877 
L 481.659673 472.27927 
L 485.656364 484.091574 
" clip-path="url(#pc7cb9432e8)" style="fill: none; stroke: #1f77b4; stroke-width: 2; stroke-linecap: square"/>
   </g>
   <g id="line2d_46">
    <path d="M 89.983636 465.940237 
L 93.980327 466.028545 
L 97.977023 447.656834 
L 101.973713 462.245478 
L 105.97041 456.836935 
L 109.967106 457.159217 
L 113.963796 448.994375 
L 117.960493 452.187146 
L 121.957186 483.359029 
L 125.953882 491.616543 
L 129.950576 455.454914 
L 133.947269 493.854496 
L 137.943962 467.755516 
L 141.940659 467.286048 
L 145.937352 455.060944 
L 149.934045 485.063915 
L 153.93074 412.322985 
L 157.927434 482.453184 
L 161.924129 432.419903 
L 165.920823 466.157908 
L 169.917517 487.200443 
L 173.914211 475.895882 
L 177.910906 457.894805 
L 181.9076 443.965224 
L 185.904294 415.177064 
L 189.900988 412.171636 
L 193.897681 447.994825 
L 197.894377 470.407107 
L 201.891071 389.259 
L 205.887764 465.932817 
L 209.884457 458.551671 
L 213.881154 482.44809 
L 217.877847 466.318691 
L 221.874543 461.167643 
L 225.871234 463.565831 
L 229.86793 493.404941 
L 233.864626 414.344819 
L 237.861317 483.353944 
L 241.858013 451.290697 
L 245.854704 463.439552 
L 249.8514 493.030424 
L 253.848096 420.595689 
L 257.844787 435.181669 
L 261.841483 481.300608 
L 265.838179 470.499179 
L 269.83487 461.368421 
L 273.83156 412.057809 
L 277.828262 494.022793 
L 281.824953 423.471608 
L 285.821643 482.55595 
L 289.818345 480.46081 
L 293.815036 471.885801 
L 297.811726 442.603891 
L 301.808428 453.503457 
L 305.805119 493.334501 
L 309.801809 455.153752 
L 313.798511 459.310497 
L 317.795202 478.246163 
L 321.791892 485.994472 
L 325.788594 491.478107 
L 329.785285 470.542536 
L 333.781975 473.479656 
L 337.778677 447.565166 
L 341.775368 463.81261 
L 345.772058 460.925561 
L 349.76876 467.937855 
L 353.765451 468.801862 
L 357.762141 437.238114 
L 361.758843 450.103591 
L 365.755534 454.345013 
L 369.752224 462.690915 
L 373.748914 445.961072 
L 377.745605 474.649644 
L 381.742319 464.607936 
L 385.739009 468.984149 
L 389.7357 481.785517 
L 393.73239 491.761893 
L 397.72908 467.09344 
L 401.725771 485.128567 
L 405.722485 485.403239 
L 409.719175 450.558908 
L 413.715866 455.300147 
L 417.712556 462.120199 
L 421.709246 454.301484 
L 425.705937 481.341234 
L 429.702627 465.094501 
L 433.699341 472.846195 
L 437.696032 480.274547 
L 441.692722 461.329852 
L 445.689412 456.335356 
L 449.686103 447.818406 
L 453.682793 466.111427 
L 457.679507 467.228349 
L 461.676198 448.035179 
L 465.672888 490.312289 
L 469.669578 390.460678 
L 473.666269 478.337295 
L 477.662959 443.880006 
L 481.659673 474.465437 
L 485.656364 406.519701 
" clip-path="url(#pc7cb9432e8)" style="fill: none; stroke: #ff7f0e; stroke-width: 2; stroke-linecap: square"/>
   </g>
   <g id="patch_15">
    <path d="M 70.2 499.824 
L 70.2 383.994 
" style="fill: none; stroke: #000000; stroke-width: 0.8; stroke-linejoin: miter; stroke-linecap: square"/>
   </g>
   <g id="patch_16">
    <path d="M 505.44 499.824 
L 505.44 383.994 
" style="fill: none; stroke: #000000; stroke-width: 0.8; stroke-linejoin: miter; stroke-linecap: square"/>
   </g>
   <g id="patch_17">
    <path d="M 70.2 499.824 
L 505.44 499.824 
" style="fill: none; stroke: #000000; stroke-width: 0.8; stroke-linejoin: miter; stroke-linecap: square"/>
   </g>
   <g id="patch_18">
    <path d="M 70.2 383.994 
L 505.44 383.994 
" style="fill: none; stroke: #000000; stroke-width: 0.8; stroke-linejoin: miter; stroke-linecap: square"/>
   </g>
   <g id="text_43">
    <!-- Panel C: evidence strength vs null -->
    <g transform="translate(185.80125 377.994) scale(0.12 -0.12)">
     <use xlink:href="#DejaVuSans-50"/>
     <use xlink:href="#DejaVuSans-61" transform="translate(55.802734 0)"/>
     <use xlink:href="#DejaVuSans-6e" transform="translate(117.082031 0)"/>
     <use xlink:href="#DejaVuSans-65" transform="translate(180.460938 0)"/>
     <use xlink:href="#DejaVuSans-6c" transform="translate(241.984375 0)"/>
     <use xlink:href="#DejaVuSans-20" transform="translate(269.767578 0)"/>
     <use xlink:href="#DejaVuSans-43" transform="translate(301.554688 0)"/>
     <use xlink:href="#DejaVuSans-3a" transform="translate(371.378906 0)"/>
     <use xlink:href="#DejaVuSans-20" transform="translate(405.070312 0)"/>
     <use xlink:href="#DejaVuSans-65" transform="translate(436.857422 0)"/>
     <use xlink:href="#DejaVuSans-76" transform="translate(498.380859 0)"/>
     <use xlink:href="#DejaVuSans-69" transform="translate(557.560547 0)"/>
     <use xlink:href="#DejaVuSans-64" transform="translate(585.34375 0)"/>
     <use xlink:href="#DejaVuSans-65" transform="translate(648.820312 0)"/>
     <use xlink:href="#DejaVuSans-6e" transform="translate(710.34375 0)"/>
     <use xlink:href="#DejaVuSans-63" transform="translate(773.722656 0)"/>
     <use xlink:href="#DejaVuSans-65" transform="translate(828.703125 0)"/>
     <use xlink:href="#DejaVuSans-20" transform="translate(890.226562 0)"/>
     <use xlink:href="#DejaVuSans-73" transform="translate(922.013672 0)"/>
     <use xlink:href="#DejaVuSans-74" transform="translate(974.113281 0)"/>
     <use xlink:href="#DejaVuSans-72" transform="translate(1013.322266 0)"/>
     <use xlink:href="#DejaVuSans-65" transform="translate(1052.185547 0)"/>
     <use xlink:href="#DejaVuSans-6e" transform="translate(1113.708984 0)"/>
     <use xlink:href="#DejaVuSans-67" transform="translate(1177.087891 0)"/>
     <use xlink:href="#DejaVuSans-74" transform="translate(1240.564453 0)"/>
     <use xlink:href="#DejaVuSans-68" transform="translate(1279.773438 0)"/>
     <use xlink:href="#DejaVuSans-20" transform="translate(1343.152344 0)"/>
     <use xlink:href="#DejaVuSans-76" transform="translate(1374.939453 0)"/>
     <use xlink:href="#DejaVuSans-73" transform="translate(1434.119141 0)"/>
     <use xlink:href="#DejaVuSans-20" transform="translate(1486.21875 0)"/>
     <use xlink:href="#DejaVuSans-6e" transform="translate(1518.005859 0)"/>
     <use xlink:href="#DejaVuSans-75" transform="translate(1581.384766 0)"/>
     <use xlink:href="#DejaVuSans-6c" transform="translate(1644.763672 0)"/>
     <use xlink:href="#DejaVuSans-6c" transform="translate(1672.546875 0)"/>
    </g>
   </g>
   <g id="legend_3">
    <g id="line2d_47">
     <path d="M 79.2 397.092438 
L 89.2 397.092438 
L 99.2 397.092438 
" style="fill: none; stroke: #1f77b4; stroke-width: 2; stroke-linecap: square"/>
    </g>
    <g id="text_44">
     <!-- z(MFEF→MLIP) -->
     <g transform="translate(107.2 400.592438) scale(0.1 -0.1)">
      <defs>
       <path id="DejaVuSans-7a" d="M 353 3500 
L 3084 3500 
L 3084 2975 
L 922 459 
L 3084 459 
L 3084 0 
L 275 0 
L 275 525 
L 2438 3041 
L 353 3041 
L 353 3500 
z
" transform="scale(0.015625)"/>
      </defs>
      <use xlink:href="#DejaVuSans-7a"/>
      <use xlink:href="#DejaVuSans-28" transform="translate(52.490234 0)"/>
      <use xlink:href="#DejaVuSans-4d" transform="translate(91.503906 0)"/>
      <use xlink:href="#DejaVuSans-46" transform="translate(177.783203 0)"/>
      <use xlink:href="#DejaVuSans-45" transform="translate(235.302734 0)"/>
      <use xlink:href="#DejaVuSans-46" transform="translate(298.486328 0)"/>
      <use xlink:href="#DejaVuSans-2192" transform="translate(356.005859 0)"/>
      <use xlink:href="#DejaVuSans-4d" transform="translate(439.794922 0)"/>
      <use xlink:href="#DejaVuSans-4c" transform="translate(526.074219 0)"/>
      <use xlink:href="#DejaVuSans-49" transform="translate(581.787109 0)"/>
      <use xlink:href="#DejaVuSans-50" transform="translate(611.279297 0)"/>
      <use xlink:href="#DejaVuSans-29" transform="translate(671.582031 0)"/>
     </g>
    </g>
    <g id="line2d_48">
     <path d="M 79.2 411.770563 
L 89.2 411.770563 
L 99.2 411.770563 
" style="fill: none; stroke: #ff7f0e; stroke-width: 2; stroke-linecap: square"/>
    </g>
    <g id="text_45">
     <!-- z(MLIP→MFEF) -->
     <g transform="translate(107.2 415.270563) scale(0.1 -0.1)">
      <use xlink:href="#DejaVuSans-7a"/>
      <use xlink:href="#DejaVuSans-28" transform="translate(52.490234 0)"/>
      <use xlink:href="#DejaVuSans-4d" transform="translate(91.503906 0)"/>
      <use xlink:href="#DejaVuSans-4c" transform="translate(177.783203 0)"/>
      <use xlink:href="#DejaVuSans-49" transform="translate(233.496094 0)"/>
      <use xlink:href="#DejaVuSans-50" transform="translate(262.988281 0)"/>
      <use xlink:href="#DejaVuSans-2192" transform="translate(323.291016 0)"/>
      <use xlink:href="#DejaVuSans-4d" transform="translate(407.080078 0)"/>
      <use xlink:href="#DejaVuSans-46" transform="translate(493.359375 0)"/>
      <use xlink:href="#DejaVuSans-45" transform="translate(550.878906 0)"/>
      <use xlink:href="#DejaVuSans-46" transform="translate(614.0625 0)"/>
      <use xlink:href="#DejaVuSans-29" transform="translate(671.582031 0)"/>
     </g>
    </g>
   </g>
  </g>
 </g>
 <defs>
  <clipPath id="p7ec2fa68c2">
   <rect x="70.2" y="67.392" width="435.24" height="138.996"/>
  </clipPath>
  <clipPath id="pf81ce0e9b8">
   <rect x="70.2" y="237.276" width="435.24" height="115.83"/>
  </clipPath>
  <clipPath id="pc7cb9432e8">
   <rect x="70.2" y="383.994" width="435.24" height="115.83"/>
  </clipPath>
 </defs>
</svg>
