<?xml version="1.0" encoding="utf-8" standalone="no"?>
<!DOCTYPE svg PUBLIC "-//W3C//DTD SVG 1.1//EN"
  "http://www.w3.org/Graphics/SVG/1.1/DTD/svg11.dtd">
<svg xmlns:xlink="http://www.w3.org/1999/xlink" width="561.6pt" height="561.6pt" viewBox="0 0 561.6 561.6" xmlns="http://www.w3.org/2000/svg" version="1.1">
 <metadata>
  <rdf:RDF xmlns:dc="http://purl.org/dc/elements/1.1/" xmlns:cc="http://creativecommons.org/ns#" xmlns:rdf="http://www.w3.org/1999/02/22-rdf-syntax-ns#">
   <cc:Work>
    <dc:type rdf:resource="http://purl.org/dc/dcmitype/StillImage"/>
    <dc:date>2025-12-08T01:53:24.077469</dc:date>
    <dc:format>image/svg+xml</dc:format>
    <dc:creator>
     <cc:Agent>
      <dc:title>Matplotlib v3.10.5, https://matplotlib.org/</dc:title>
     </cc:Agent>
    </dc:creator>
   </cc:Work>
  </rdf:RDF>
 </metadata>
 <defs>
  <style type="text/css">*{stroke-linejoin: round; stroke-linecap: butt}</style>
 </defs>
 <g id="figure_1">
  <g id="patch_1">
   <path d="M 0 561.6 
L 561.6 561.6 
L 561.6 0 
L 0 0 
z
" style="fill: #ffffff"/>
  </g>
  <g id="axes_1">
   <g id="patch_2">
    <path d="M 70.2 206.388 
L 505.44 206.388 
L 505.44 67.392 
L 70.2 67.392 
z
" style="fill: #ffffff"/>
   </g>
   <g id="FillBetweenPolyCollection_1">
    <defs>
     <path id="mada6448b15" d="M 89.983636 -442.576331 
L 89.983636 -389.990508 
L 93.980327 -388.689402 
L 97.977023 -386.690807 
L 101.973713 -389.364104 
L 105.97041 -391.133996 
L 109.967106 -389.450194 
L 113.963796 -390.768757 
L 117.960493 -386.551812 
L 121.957186 -387.417894 
L 125.953882 -389.053336 
L 129.950576 -392.477751 
L 133.947269 -393.007948 
L 137.943962 -389.860087 
L 141.940659 -388.38912 
L 145.937352 -388.523884 
L 149.934045 -387.626098 
L 153.93074 -387.541862 
L 157.927434 -391.03659 
L 161.924129 -388.003008 
L 165.920823 -388.495334 
L 169.917517 -393.096895 
L 173.914211 -387.9654 
L 177.910906 -389.67164 
L 181.9076 -386.494883 
L 185.904294 -389.326581 
L 189.900988 -385.980095 
L 193.897681 -388.498361 
L 197.894377 -391.088436 
L 201.891071 -386.332462 
L 205.887764 -392.039844 
L 209.884457 -398.151016 
L 213.881154 -395.503261 
L 217.877847 -394.102692 
L 221.874543 -389.277507 
L 225.871234 -396.311589 
L 229.86793 -396.741127 
L 233.864626 -405.463334 
L 237.861317 -403.2339 
L 241.858013 -391.949357 
L 245.854704 -405.083903 
L 249.8514 -390.749867 
L 253.848096 -392.521483 
L 257.844787 -395.971666 
L 261.841483 -391.72914 
L 265.838179 -390.127892 
L 269.83487 -394.77907 
L 273.83156 -387.673902 
L 277.828262 -390.924137 
L 281.824953 -396.539896 
L 285.821643 -392.384324 
L 289.818345 -393.456683 
L 293.815036 -388.267389 
L 297.811726 -390.186971 
L 301.808428 -391.678003 
L 305.805119 -390.244434 
L 309.801809 -385.974446 
L 313.798511 -388.019089 
L 317.795202 -387.800174 
L 321.791892 -389.404796 
L 325.788594 -390.184412 
L 329.785285 -392.056484 
L 333.781975 -389.535487 
L 337.778677 -390.614457 
L 341.775368 -388.179769 
L 345.772058 -388.243013 
L 349.76876 -391.943532 
L 353.765451 -387.93901 
L 357.762141 -387.755548 
L 361.758843 -392.527226 
L 365.755534 -388.401573 
L 369.752224 -388.594554 
L 373.748914 -387.458683 
L 377.745605 -390.915296 
L 381.742319 -391.461508 
L 385.739009 -387.14107 
L 389.7357 -393.434011 
L 393.73239 -387.139549 
L 397.72908 -389.423624 
L 401.725771 -390.061284 
L 405.722485 -387.92236 
L 409.719175 -388.253697 
L 413.715866 -385.232585 
L 417.712556 -388.442677 
L 421.709246 -387.264422 
L 425.705937 -390.162396 
L 429.702627 -394.075683 
L 433.699341 -388.667392 
L 437.696032 -388.273943 
L 441.692722 -390.675184 
L 445.689412 -390.373444 
L 449.686103 -392.617705 
L 453.682793 -389.291864 
L 457.679507 -386.079777 
L 461.676198 -389.965313 
L 465.672888 -392.502903 
L 469.669578 -389.173475 
L 473.666269 -390.129173 
L 477.662959 -388.495094 
L 481.659673 -388.787127 
L 485.656364 -388.449493 
L 485.656364 -444.55202 
L 485.656364 -444.55202 
L 481.659673 -445.269391 
L 477.662959 -443.565534 
L 473.666269 -446.712185 
L 469.669578 -442.647069 
L 465.672888 -448.809197 
L 461.676198 -441.95266 
L 457.679507 -443.759571 
L 453.682793 -442.131267 
L 449.686103 -445.1271 
L 445.689412 -450.475613 
L 441.692722 -447.519565 
L 437.696032 -444.266869 
L 433.699341 -445.324957 
L 429.702627 -447.764765 
L 425.705937 -446.030355 
L 421.709246 -444.180637 
L 417.712556 -443.617604 
L 413.715866 -441.913878 
L 409.719175 -445.089445 
L 405.722485 -442.755479 
L 401.725771 -448.316953 
L 397.72908 -445.858957 
L 393.73239 -442.666875 
L 389.7357 -445.573842 
L 385.739009 -442.969177 
L 381.742319 -446.430577 
L 377.745605 -445.775274 
L 373.748914 -443.755842 
L 369.752224 -443.803652 
L 365.755534 -442.498738 
L 361.758843 -445.804184 
L 357.762141 -444.215624 
L 353.765451 -442.399044 
L 349.76876 -446.189647 
L 345.772058 -442.558724 
L 341.775368 -446.561012 
L 337.778677 -444.831022 
L 333.781975 -446.146341 
L 329.785285 -447.823514 
L 325.788594 -443.185374 
L 321.791892 -445.437193 
L 317.795202 -443.623919 
L 313.798511 -442.918674 
L 309.801809 -440.605288 
L 305.805119 -441.466886 
L 301.808428 -442.879496 
L 297.811726 -450.555065 
L 293.815036 -441.562216 
L 289.818345 -454.724137 
L 285.821643 -448.663925 
L 281.824953 -448.469328 
L 277.828262 -446.520712 
L 273.83156 -444.100525 
L 269.83487 -449.669683 
L 265.838179 -443.953972 
L 261.841483 -447.755057 
L 257.844787 -454.38114 
L 253.848096 -443.926288 
L 249.8514 -443.723064 
L 245.854704 -459.372395 
L 241.858013 -445.596894 
L 237.861317 -466.166442 
L 233.864626 -458.99043 
L 229.86793 -451.011115 
L 225.871234 -453.919139 
L 221.874543 -445.780058 
L 217.877847 -447.091811 
L 213.881154 -448.884903 
L 209.884457 -454.909438 
L 205.887764 -446.509659 
L 201.891071 -441.071496 
L 197.894377 -450.14869 
L 193.897681 -444.641528 
L 189.900988 -441.96225 
L 185.904294 -445.35722 
L 181.9076 -440.287049 
L 177.910906 -441.57101 
L 173.914211 -441.007087 
L 169.917517 -446.442122 
L 165.920823 -446.963205 
L 161.924129 -443.057701 
L 157.927434 -443.361755 
L 153.93074 -443.075684 
L 149.934045 -440.047446 
L 145.937352 -446.374221 
L 141.940659 -442.065141 
L 137.943962 -446.211826 
L 133.947269 -448.762038 
L 129.950576 -446.239899 
L 125.953882 -447.911653 
L 121.957186 -446.344051 
L 117.960493 -443.236224 
L 113.963796 -446.393714 
L 109.967106 -446.887098 
L 105.97041 -447.894884 
L 101.973713 -444.03614 
L 97.977023 -443.810045 
L 93.980327 -444.585662 
L 89.983636 -442.576331 
z
"/>
    </defs>
    <g clip-path="url(#p222a664d74)">
     <use xlink:href="#mada6448b15" x="0" y="561.6" style="fill: #1f77b4; fill-opacity: 0.15"/>
    </g>
   </g>
   <g id="FillBetweenPolyCollection_2">
    <defs>
     <path id="m1f75df7951" d="M 89.983636 -442.93787 
L 89.983636 -387.540266 
L 93.980327 -387.910934 
L 97.977023 -390.389827 
L 101.973713 -387.319781 
L 105.97041 -388.336394 
L 109.967106 -387.320336 
L 113.963796 -388.512108 
L 117.960493 -390.612639 
L 121.957186 -388.366184 
L 125.953882 -389.176432 
L 129.950576 -391.121144 
L 133.947269 -386.4156 
L 137.943962 -389.588314 
L 141.940659 -390.178435 
L 145.937352 -387.937387 
L 149.934045 -386.146196 
L 153.93074 -388.307945 
L 157.927434 -386.178058 
L 161.924129 -387.252297 
L 165.920823 -389.751134 
L 169.917517 -390.289297 
L 173.914211 -390.723226 
L 177.910906 -388.913253 
L 181.9076 -388.916398 
L 185.904294 -387.957769 
L 189.900988 -389.08567 
L 193.897681 -388.267691 
L 197.894377 -395.260873 
L 201.891071 -389.564029 
L 205.887764 -396.765506 
L 209.884457 -392.623063 
L 213.881154 -404.220831 
L 217.877847 -410.608806 
L 221.874543 -393.692886 
L 225.871234 -398.570383 
L 229.86793 -399.968335 
L 233.864626 -394.76762 
L 237.861317 -392.662152 
L 241.858013 -394.899957 
L 245.854704 -394.989428 
L 249.8514 -392.522603 
L 253.848096 -391.661786 
L 257.844787 -391.843766 
L 261.841483 -387.565082 
L 265.838179 -391.963447 
L 269.83487 -390.195011 
L 273.83156 -390.080171 
L 277.828262 -391.764359 
L 281.824953 -391.191884 
L 285.821643 -389.447168 
L 289.818345 -389.314159 
L 293.815036 -391.426181 
L 297.811726 -390.245277 
L 301.808428 -391.249585 
L 305.805119 -390.138534 
L 309.801809 -388.176916 
L 313.798511 -390.46948 
L 317.795202 -388.192718 
L 321.791892 -389.384275 
L 325.788594 -389.785104 
L 329.785285 -388.975723 
L 333.781975 -387.862019 
L 337.778677 -388.078586 
L 341.775368 -390.303192 
L 345.772058 -387.845188 
L 349.76876 -387.557654 
L 353.765451 -387.271035 
L 357.762141 -392.41461 
L 361.758843 -392.837251 
L 365.755534 -389.542091 
L 369.752224 -388.062667 
L 373.748914 -389.275863 
L 377.745605 -386.237428 
L 381.742319 -390.954819 
L 385.739009 -387.261926 
L 389.7357 -392.342959 
L 393.73239 -385.397055 
L 397.72908 -387.779212 
L 401.725771 -386.837117 
L 405.722485 -387.169189 
L 409.719175 -388.949876 
L 413.715866 -389.349567 
L 417.712556 -383.790386 
L 421.709246 -388.655354 
L 425.705937 -386.284912 
L 429.702627 -389.399936 
L 433.699341 -388.526874 
L 437.696032 -388.574866 
L 441.692722 -389.656812 
L 445.689412 -389.726266 
L 449.686103 -388.132195 
L 453.682793 -390.746762 
L 457.679507 -389.628657 
L 461.676198 -388.806561 
L 465.672888 -391.970644 
L 469.669578 -388.229937 
L 473.666269 -386.815979 
L 477.662959 -389.982229 
L 481.659673 -388.618773 
L 485.656364 -391.12974 
L 485.656364 -448.563336 
L 485.656364 -448.563336 
L 481.659673 -445.838005 
L 477.662959 -449.552889 
L 473.666269 -446.064218 
L 469.669578 -442.088027 
L 465.672888 -448.94643 
L 461.676198 -447.278498 
L 457.679507 -446.741902 
L 453.682793 -447.050216 
L 449.686103 -445.884357 
L 445.689412 -445.639819 
L 441.692722 -441.592959 
L 437.696032 -443.022917 
L 433.699341 -446.101881 
L 429.702627 -447.979695 
L 425.705937 -441.08972 
L 421.709246 -445.436325 
L 417.712556 -444.474241 
L 413.715866 -443.655505 
L 409.719175 -447.504244 
L 405.722485 -444.544659 
L 401.725771 -442.852364 
L 397.72908 -441.554938 
L 393.73239 -443.532559 
L 389.7357 -446.260848 
L 385.739009 -443.784499 
L 381.742319 -447.444031 
L 377.745605 -439.594599 
L 373.748914 -444.898092 
L 369.752224 -443.31545 
L 365.755534 -447.370295 
L 361.758843 -447.374321 
L 357.762141 -446.848671 
L 353.765451 -443.809616 
L 349.76876 -444.57398 
L 345.772058 -444.198608 
L 341.775368 -445.130426 
L 337.778677 -446.005143 
L 333.781975 -446.205598 
L 329.785285 -446.190954 
L 325.788594 -448.53515 
L 321.791892 -444.057423 
L 317.795202 -442.05267 
L 313.798511 -444.677063 
L 309.801809 -448.066012 
L 305.805119 -444.875687 
L 301.808428 -448.960784 
L 297.811726 -446.588194 
L 293.815036 -448.59394 
L 289.818345 -448.853581 
L 285.821643 -445.270672 
L 281.824953 -447.488272 
L 277.828262 -447.853738 
L 273.83156 -443.752148 
L 269.83487 -445.634045 
L 265.838179 -447.928108 
L 261.841483 -444.984937 
L 257.844787 -448.728476 
L 253.848096 -449.152907 
L 249.8514 -449.186458 
L 245.854704 -453.03381 
L 241.858013 -454.222232 
L 237.861317 -452.834944 
L 233.864626 -451.03715 
L 229.86793 -459.019797 
L 225.871234 -454.448243 
L 221.874543 -454.094219 
L 217.877847 -471.426665 
L 213.881154 -462.069123 
L 209.884457 -451.46428 
L 205.887764 -457.638553 
L 201.891071 -445.558451 
L 197.894377 -447.630371 
L 193.897681 -448.084465 
L 189.900988 -449.480844 
L 185.904294 -447.816221 
L 181.9076 -440.366132 
L 177.910906 -447.735723 
L 173.914211 -446.833038 
L 169.917517 -441.618418 
L 165.920823 -445.605393 
L 161.924129 -443.311001 
L 157.927434 -443.467513 
L 153.93074 -445.215333 
L 149.934045 -444.83885 
L 145.937352 -446.302389 
L 141.940659 -446.803716 
L 137.943962 -447.170416 
L 133.947269 -443.123111 
L 129.950576 -446.383877 
L 125.953882 -444.30336 
L 121.957186 -441.18846 
L 117.960493 -448.052208 
L 113.963796 -442.389269 
L 109.967106 -444.815294 
L 105.97041 -448.859031 
L 101.973713 -442.108103 
L 97.977023 -443.793864 
L 93.980327 -443.059137 
L 89.983636 -442.93787 
z
"/>
    </defs>
    <g clip-path="url(#p222a664d74)">
     <use xlink:href="#m1f75df7951" x="0" y="561.6" style="fill: #ff7f0e; fill-opacity: 0.15"/>
    </g>
   </g>
   <g id="matplotlib.axis_1">
    <g id="xtick_1">
     <g id="line2d_1">
      <defs>
       <path id="m67bad4a098" d="M 0 0 
L 0 3.5 
" style="stroke: #000000; stroke-width: 0.8"/>
      </defs>
      <g>
       <use xlink:href="#m67bad4a098" x="87.985286" y="206.388" style="stroke: #000000; stroke-width: 0.8"/>
      </g>
     </g>
     <g id="text_1">
      <!-- −200 -->
      <g transform="translate(74.251693 220.986437) scale(0.1 -0.1)">
       <defs>
        <path id="DejaVuSans-2212" d="M 678 2272 
L 4684 2272 
L 4684 1741 
L 678 1741 
L 678 2272 
z
" transform="scale(0.015625)"/>
        <path id="DejaVuSans-32" d="M 1228 531 
L 3431 531 
L 3431 0 
L 469 0 
L 469 531 
Q 828 903 1448 1529 
Q 2069 2156 2228 2338 
Q 2531 2678 2651 2914 
Q 2772 3150 2772 3378 
Q 2772 3750 2511 3984 
Q 2250 4219 1831 4219 
Q 1534 4219 1204 4116 
Q 875 4013 500 3803 
L 500 4441 
Q 881 4594 1212 4672 
Q 1544 4750 1819 4750 
Q 2544 4750 2975 4387 
Q 3406 4025 3406 3419 
Q 3406 3131 3298 2873 
Q 3191 2616 2906 2266 
Q 2828 2175 2409 1742 
Q 1991 1309 1228 531 
z
" transform="scale(0.015625)"/>
        <path id="DejaVuSans-30" d="M 2034 4250 
Q 1547 4250 1301 3770 
Q 1056 3291 1056 2328 
Q 1056 1369 1301 889 
Q 1547 409 2034 409 
Q 2525 409 2770 889 
Q 3016 1369 3016 2328 
Q 3016 3291 2770 3770 
Q 2525 4250 2034 4250 
z
M 2034 4750 
Q 2819 4750 3233 4129 
Q 3647 3509 3647 2328 
Q 3647 1150 3233 529 
Q 2819 -91 2034 -91 
Q 1250 -91 836 529 
Q 422 1150 422 2328 
Q 422 3509 836 4129 
Q 1250 4750 2034 4750 
z
" transform="scale(0.015625)"/>
       </defs>
       <use xlink:href="#DejaVuSans-2212"/>
       <use xlink:href="#DejaVuSans-32" transform="translate(83.789062 0)"/>
       <use xlink:href="#DejaVuSans-30" transform="translate(147.412109 0)"/>
       <use xlink:href="#DejaVuSans-30" transform="translate(211.035156 0)"/>
      </g>
     </g>
    </g>
    <g id="xtick_2">
     <g id="line2d_2">
      <g>
       <use xlink:href="#m67bad4a098" x="167.91917" y="206.388" style="stroke: #000000; stroke-width: 0.8"/>
      </g>
     </g>
     <g id="text_2">
      <!-- 0 -->
      <g transform="translate(164.73792 220.986437) scale(0.1 -0.1)">
       <use xlink:href="#DejaVuSans-30"/>
      </g>
     </g>
    </g>
    <g id="xtick_3">
     <g id="line2d_3">
      <g>
       <use xlink:href="#m67bad4a098" x="247.853053" y="206.388" style="stroke: #000000; stroke-width: 0.8"/>
      </g>
     </g>
     <g id="text_3">
      <!-- 200 -->
      <g transform="translate(238.309303 220.986437) scale(0.1 -0.1)">
       <use xlink:href="#DejaVuSans-32"/>
       <use xlink:href="#DejaVuSans-30" transform="translate(63.623047 0)"/>
       <use xlink:href="#DejaVuSans-30" transform="translate(127.246094 0)"/>
      </g>
     </g>
    </g>
    <g id="xtick_4">
     <g id="line2d_4">
      <g>
       <use xlink:href="#m67bad4a098" x="327.786937" y="206.388" style="stroke: #000000; stroke-width: 0.8"/>
      </g>
     </g>
     <g id="text_4">
      <!-- 400 -->
      <g transform="translate(318.243187 220.986437) scale(0.1 -0.1)">
       <defs>
        <path id="DejaVuSans-34" d="M 2419 4116 
L 825 1625 
L 2419 1625 
L 2419 4116 
z
M 2253 4666 
L 3047 4666 
L 3047 1625 
L 3713 1625 
L 3713 1100 
L 3047 1100 
L 3047 0 
L 2419 0 
L 2419 1100 
L 313 1100 
L 313 1709 
L 2253 4666 
z
" transform="scale(0.015625)"/>
       </defs>
       <use xlink:href="#DejaVuSans-34"/>
       <use xlink:href="#DejaVuSans-30" transform="translate(63.623047 0)"/>
       <use xlink:href="#DejaVuSans-30" transform="translate(127.246094 0)"/>
      </g>
     </g>
    </g>
    <g id="xtick_5">
     <g id="line2d_5">
      <g>
       <use xlink:href="#m67bad4a098" x="407.720821" y="206.388" style="stroke: #000000; stroke-width: 0.8"/>
      </g>
     </g>
     <g id="text_5">
      <!-- 600 -->
      <g transform="translate(398.177071 220.986437) scale(0.1 -0.1)">
       <defs>
        <path id="DejaVuSans-36" d="M 2113 2584 
Q 1688 2584 1439 2293 
Q 1191 2003 1191 1497 
Q 1191 994 1439 701 
Q 1688 409 2113 409 
Q 2538 409 2786 701 
Q 3034 994 3034 1497 
Q 3034 2003 2786 2293 
Q 2538 2584 2113 2584 
z
M 3366 4563 
L 3366 3988 
Q 3128 4100 2886 4159 
Q 2644 4219 2406 4219 
Q 1781 4219 1451 3797 
Q 1122 3375 1075 2522 
Q 1259 2794 1537 2939 
Q 1816 3084 2150 3084 
Q 2853 3084 3261 2657 
Q 3669 2231 3669 1497 
Q 3669 778 3244 343 
Q 2819 -91 2113 -91 
Q 1303 -91 875 529 
Q 447 1150 447 2328 
Q 447 3434 972 4092 
Q 1497 4750 2381 4750 
Q 2619 4750 2861 4703 
Q 3103 4656 3366 4563 
z
" transform="scale(0.015625)"/>
       </defs>
       <use xlink:href="#DejaVuSans-36"/>
       <use xlink:href="#DejaVuSans-30" transform="translate(63.623047 0)"/>
       <use xlink:href="#DejaVuSans-30" transform="translate(127.246094 0)"/>
      </g>
     </g>
    </g>
    <g id="xtick_6">
     <g id="line2d_6">
      <g>
       <use xlink:href="#m67bad4a098" x="487.654704" y="206.388" style="stroke: #000000; stroke-width: 0.8"/>
      </g>
     </g>
     <g id="text_6">
      <!-- 800 -->
      <g transform="translate(478.110954 220.986437) scale(0.1 -0.1)">
       <defs>
        <path id="DejaVuSans-38" d="M 2034 2216 
Q 1584 2216 1326 1975 
Q 1069 1734 1069 1313 
Q 1069 891 1326 650 
Q 1584 409 2034 409 
Q 2484 409 2743 651 
Q 3003 894 3003 1313 
Q 3003 1734 2745 1975 
Q 2488 2216 2034 2216 
z
M 1403 2484 
Q 997 2584 770 2862 
Q 544 3141 544 3541 
Q 544 4100 942 4425 
Q 1341 4750 2034 4750 
Q 2731 4750 3128 4425 
Q 3525 4100 3525 3541 
Q 3525 3141 3298 2862 
Q 3072 2584 2669 2484 
Q 3125 2378 3379 2068 
Q 3634 1759 3634 1313 
Q 3634 634 3220 271 
Q 2806 -91 2034 -91 
Q 1263 -91 848 271 
Q 434 634 434 1313 
Q 434 1759 690 2068 
Q 947 2378 1403 2484 
z
M 1172 3481 
Q 1172 3119 1398 2916 
Q 1625 2713 2034 2713 
Q 2441 2713 2670 2916 
Q 2900 3119 2900 3481 
Q 2900 3844 2670 4047 
Q 2441 4250 2034 4250 
Q 1625 4250 1398 4047 
Q 1172 3844 1172 3481 
z
" transform="scale(0.015625)"/>
       </defs>
       <use xlink:href="#DejaVuSans-38"/>
       <use xlink:href="#DejaVuSans-30" transform="translate(63.623047 0)"/>
       <use xlink:href="#DejaVuSans-30" transform="translate(127.246094 0)"/>
      </g>
     </g>
    </g>
   </g>
   <g id="matplotlib.axis_2">
    <g id="ytick_1">
     <g id="line2d_7">
      <defs>
       <path id="me307b4018d" d="M 0 0 
L -3.5 0 
" style="stroke: #000000; stroke-width: 0.8"/>
      </defs>
      <g>
       <use xlink:href="#me307b4018d" x="70.2" y="186.004855" style="stroke: #000000; stroke-width: 0.8"/>
      </g>
     </g>
     <g id="text_7">
      <!-- 12.5 -->
      <g transform="translate(40.934375 189.804073) scale(0.1 -0.1)">
       <defs>
        <path id="DejaVuSans-31" d="M 794 531 
L 1825 531 
L 1825 4091 
L 703 3866 
L 703 4441 
L 1819 4666 
L 2450 4666 
L 2450 531 
L 3481 531 
L 3481 0 
L 794 0 
L 794 531 
z
" transform="scale(0.015625)"/>
        <path id="DejaVuSans-2e" d="M 684 794 
L 1344 794 
L 1344 0 
L 684 0 
L 684 794 
z
" transform="scale(0.015625)"/>
        <path id="DejaVuSans-35" d="M 691 4666 
L 3169 4666 
L 3169 4134 
L 1269 4134 
L 1269 2991 
Q 1406 3038 1543 3061 
Q 1681 3084 1819 3084 
Q 2600 3084 3056 2656 
Q 3513 2228 3513 1497 
Q 3513 744 3044 326 
Q 2575 -91 1722 -91 
Q 1428 -91 1123 -41 
Q 819 9 494 109 
L 494 744 
Q 775 591 1075 516 
Q 1375 441 1709 441 
Q 2250 441 2565 725 
Q 2881 1009 2881 1497 
Q 2881 1984 2565 2268 
Q 2250 2553 1709 2553 
Q 1456 2553 1204 2497 
Q 953 2441 691 2322 
L 691 4666 
z
" transform="scale(0.015625)"/>
       </defs>
       <use xlink:href="#DejaVuSans-31"/>
       <use xlink:href="#DejaVuSans-32" transform="translate(63.623047 0)"/>
       <use xlink:href="#DejaVuSans-2e" transform="translate(127.246094 0)"/>
       <use xlink:href="#DejaVuSans-35" transform="translate(159.033203 0)"/>
      </g>
     </g>
    </g>
    <g id="ytick_2">
     <g id="line2d_8">
      <g>
       <use xlink:href="#me307b4018d" x="70.2" y="159.874923" style="stroke: #000000; stroke-width: 0.8"/>
      </g>
     </g>
     <g id="text_8">
      <!-- 15.0 -->
      <g transform="translate(40.934375 163.674142) scale(0.1 -0.1)">
       <use xlink:href="#DejaVuSans-31"/>
       <use xlink:href="#DejaVuSans-35" transform="translate(63.623047 0)"/>
       <use xlink:href="#DejaVuSans-2e" transform="translate(127.246094 0)"/>
       <use xlink:href="#DejaVuSans-30" transform="translate(159.033203 0)"/>
      </g>
     </g>
    </g>
    <g id="ytick_3">
     <g id="line2d_9">
      <g>
       <use xlink:href="#me307b4018d" x="70.2" y="133.744992" style="stroke: #000000; stroke-width: 0.8"/>
      </g>
     </g>
     <g id="text_9">
      <!-- 17.5 -->
      <g transform="translate(40.934375 137.54421) scale(0.1 -0.1)">
       <defs>
        <path id="DejaVuSans-37" d="M 525 4666 
L 3525 4666 
L 3525 4397 
L 1831 0 
L 1172 0 
L 2766 4134 
L 525 4134 
L 525 4666 
z
" transform="scale(0.015625)"/>
       </defs>
       <use xlink:href="#DejaVuSans-31"/>
       <use xlink:href="#DejaVuSans-37" transform="translate(63.623047 0)"/>
       <use xlink:href="#DejaVuSans-2e" transform="translate(127.246094 0)"/>
       <use xlink:href="#DejaVuSans-35" transform="translate(159.033203 0)"/>
      </g>
     </g>
    </g>
    <g id="ytick_4">
     <g id="line2d_10">
      <g>
       <use xlink:href="#me307b4018d" x="70.2" y="107.61506" style="stroke: #000000; stroke-width: 0.8"/>
      </g>
     </g>
     <g id="text_10">
      <!-- 20.0 -->
      <g transform="translate(40.934375 111.414279) scale(0.1 -0.1)">
       <use xlink:href="#DejaVuSans-32"/>
       <use xlink:href="#DejaVuSans-30" transform="translate(63.623047 0)"/>
       <use xlink:href="#DejaVuSans-2e" transform="translate(127.246094 0)"/>
       <use xlink:href="#DejaVuSans-30" transform="translate(159.033203 0)"/>
      </g>
     </g>
    </g>
    <g id="ytick_5">
     <g id="line2d_11">
      <g>
       <use xlink:href="#me307b4018d" x="70.2" y="81.485129" style="stroke: #000000; stroke-width: 0.8"/>
      </g>
     </g>
     <g id="text_11">
      <!-- 22.5 -->
      <g transform="translate(40.934375 85.284348) scale(0.1 -0.1)">
       <use xlink:href="#DejaVuSans-32"/>
       <use xlink:href="#DejaVuSans-32" transform="translate(63.623047 0)"/>
       <use xlink:href="#DejaVuSans-2e" transform="translate(127.246094 0)"/>
       <use xlink:href="#DejaVuSans-35" transform="translate(159.033203 0)"/>
      </g>
     </g>
    </g>
    <g id="text_12">
     <!-- ΔLL (bits) -->
     <g transform="translate(34.854687 160.500937) rotate(-90) scale(0.1 -0.1)">
      <defs>
       <path id="DejaVuSans-394" d="M 2188 4044 
L 906 525 
L 3472 525 
L 2188 4044 
z
M 50 0 
L 1831 4666 
L 2547 4666 
L 4325 0 
L 50 0 
z
" transform="scale(0.015625)"/>
       <path id="DejaVuSans-4c" d="M 628 4666 
L 1259 4666 
L 1259 531 
L 3531 531 
L 3531 0 
L 628 0 
L 628 4666 
z
" transform="scale(0.015625)"/>
       <path id="DejaVuSans-20" transform="scale(0.015625)"/>
       <path id="DejaVuSans-28" d="M 1984 4856 
Q 1566 4138 1362 3434 
Q 1159 2731 1159 2009 
Q 1159 1288 1364 580 
Q 1569 -128 1984 -844 
L 1484 -844 
Q 1016 -109 783 600 
Q 550 1309 550 2009 
Q 550 2706 781 3412 
Q 1013 4119 1484 4856 
L 1984 4856 
z
" transform="scale(0.015625)"/>
       <path id="DejaVuSans-62" d="M 3116 1747 
Q 3116 2381 2855 2742 
Q 2594 3103 2138 3103 
Q 1681 3103 1420 2742 
Q 1159 2381 1159 1747 
Q 1159 1113 1420 752 
Q 1681 391 2138 391 
Q 2594 391 2855 752 
Q 3116 1113 3116 1747 
z
M 1159 2969 
Q 1341 3281 1617 3432 
Q 1894 3584 2278 3584 
Q 2916 3584 3314 3078 
Q 3713 2572 3713 1747 
Q 3713 922 3314 415 
Q 2916 -91 2278 -91 
Q 1894 -91 1617 61 
Q 1341 213 1159 525 
L 1159 0 
L 581 0 
L 581 4863 
L 1159 4863 
L 1159 2969 
z
" transform="scale(0.015625)"/>
       <path id="DejaVuSans-69" d="M 603 3500 
L 1178 3500 
L 1178 0 
L 603 0 
L 603 3500 
z
M 603 4863 
L 1178 4863 
L 1178 4134 
L 603 4134 
L 603 4863 
z
" transform="scale(0.015625)"/>
       <path id="DejaVuSans-74" d="M 1172 4494 
L 1172 3500 
L 2356 3500 
L 2356 3053 
L 1172 3053 
L 1172 1153 
Q 1172 725 1289 603 
Q 1406 481 1766 481 
L 2356 481 
L 2356 0 
L 1766 0 
Q 1100 0 847 248 
Q 594 497 594 1153 
L 594 3053 
L 172 3053 
L 172 3500 
L 594 3500 
L 594 4494 
L 1172 4494 
z
" transform="scale(0.015625)"/>
       <path id="DejaVuSans-73" d="M 2834 3397 
L 2834 2853 
Q 2591 2978 2328 3040 
Q 2066 3103 1784 3103 
Q 1356 3103 1142 2972 
Q 928 2841 928 2578 
Q 928 2378 1081 2264 
Q 1234 2150 1697 2047 
L 1894 2003 
Q 2506 1872 2764 1633 
Q 3022 1394 3022 966 
Q 3022 478 2636 193 
Q 2250 -91 1575 -91 
Q 1294 -91 989 -36 
Q 684 19 347 128 
L 347 722 
Q 666 556 975 473 
Q 1284 391 1588 391 
Q 1994 391 2212 530 
Q 2431 669 2431 922 
Q 2431 1156 2273 1281 
Q 2116 1406 1581 1522 
L 1381 1569 
Q 847 1681 609 1914 
Q 372 2147 372 2553 
Q 372 3047 722 3315 
Q 1072 3584 1716 3584 
Q 2034 3584 2315 3537 
Q 2597 3491 2834 3397 
z
" transform="scale(0.015625)"/>
       <path id="DejaVuSans-29" d="M 513 4856 
L 1013 4856 
Q 1481 4119 1714 3412 
Q 1947 2706 1947 2009 
Q 1947 1309 1714 600 
Q 1481 -109 1013 -844 
L 513 -844 
Q 928 -128 1133 580 
Q 1338 1288 1338 2009 
Q 1338 2731 1133 3434 
Q 928 4138 513 4856 
z
" transform="scale(0.015625)"/>
      </defs>
      <use xlink:href="#DejaVuSans-394"/>
      <use xlink:href="#DejaVuSans-4c" transform="translate(68.408203 0)"/>
      <use xlink:href="#DejaVuSans-4c" transform="translate(124.121094 0)"/>
      <use xlink:href="#DejaVuSans-20" transform="translate(179.833984 0)"/>
      <use xlink:href="#DejaVuSans-28" transform="translate(211.621094 0)"/>
      <use xlink:href="#DejaVuSans-62" transform="translate(250.634766 0)"/>
      <use xlink:href="#DejaVuSans-69" transform="translate(314.111328 0)"/>
      <use xlink:href="#DejaVuSans-74" transform="translate(341.894531 0)"/>
      <use xlink:href="#DejaVuSans-73" transform="translate(381.103516 0)"/>
      <use xlink:href="#DejaVuSans-29" transform="translate(433.203125 0)"/>
     </g>
    </g>
   </g>
   <g id="line2d_12">
    <path d="M 167.91917 206.388 
L 167.91917 67.392 
" clip-path="url(#p222a664d74)" style="fill: none; stroke-dasharray: 2.96,1.28; stroke-dashoffset: 0; stroke: #000000; stroke-width: 0.8"/>
   </g>
   <g id="line2d_13">
    <path d="M 89.983636 145.31658 
L 93.980327 144.962468 
L 97.977023 146.349574 
L 101.973713 144.899878 
L 105.97041 142.08556 
L 109.967106 143.431354 
L 113.963796 143.018765 
L 117.960493 146.705982 
L 121.957186 144.719027 
L 125.953882 143.117506 
L 129.950576 142.241175 
L 133.947269 140.715007 
L 137.943962 143.564043 
L 141.940659 146.372869 
L 145.937352 144.150947 
L 149.934045 147.763228 
L 153.93074 146.291227 
L 157.927434 144.400827 
L 161.924129 146.069646 
L 165.920823 143.870731 
L 169.917517 141.830491 
L 173.914211 147.113756 
L 177.910906 145.978675 
L 181.9076 148.209034 
L 185.904294 144.2581 
L 189.900988 147.628827 
L 193.897681 145.030056 
L 197.894377 140.981437 
L 201.891071 147.898021 
L 205.887764 142.325249 
L 209.884457 135.069773 
L 213.881154 139.405918 
L 217.877847 141.002749 
L 221.874543 144.071217 
L 225.871234 136.484636 
L 229.86793 137.723879 
L 233.864626 129.373118 
L 237.861317 126.899829 
L 241.858013 142.826875 
L 245.854704 129.371851 
L 249.8514 144.363535 
L 253.848096 143.376114 
L 257.844787 136.423597 
L 261.841483 141.857901 
L 265.838179 144.559068 
L 269.83487 139.375623 
L 273.83156 145.712787 
L 277.828262 142.877576 
L 281.824953 139.095388 
L 285.821643 141.075876 
L 289.818345 137.50959 
L 293.815036 146.685197 
L 297.811726 141.228982 
L 301.808428 144.321251 
L 305.805119 145.74434 
L 309.801809 148.310133 
L 313.798511 146.131118 
L 317.795202 145.887954 
L 321.791892 144.179005 
L 325.788594 144.915107 
L 329.785285 141.660001 
L 333.781975 143.759086 
L 337.778677 143.87726 
L 341.775368 144.22961 
L 345.772058 146.199132 
L 349.76876 142.533411 
L 353.765451 146.430973 
L 357.762141 145.614414 
L 361.758843 142.434295 
L 365.755534 146.149845 
L 369.752224 145.400897 
L 373.748914 145.992737 
L 377.745605 143.254715 
L 381.742319 142.653957 
L 385.739009 146.544877 
L 389.7357 142.096073 
L 393.73239 146.696788 
L 397.72908 143.95871 
L 401.725771 142.410882 
L 405.722485 146.26108 
L 409.719175 144.928429 
L 413.715866 148.026769 
L 417.712556 145.56986 
L 421.709246 145.87747 
L 425.705937 143.503625 
L 429.702627 140.679776 
L 433.699341 144.603826 
L 437.696032 145.329594 
L 441.692722 142.502626 
L 445.689412 141.175471 
L 449.686103 142.727597 
L 453.682793 145.888435 
L 457.679507 146.680326 
L 461.676198 145.641014 
L 465.672888 140.94395 
L 469.669578 145.689728 
L 473.666269 143.179321 
L 477.662959 145.569686 
L 481.659673 144.571741 
L 485.656364 145.099244 
" clip-path="url(#p222a664d74)" style="fill: none; stroke-dasharray: 1,1.65; stroke-dashoffset: 0; stroke: #1f77b4"/>
   </g>
   <g id="line2d_14">
    <path d="M 89.983636 146.360932 
L 93.980327 146.114965 
L 97.977023 144.508155 
L 101.973713 146.886058 
L 105.97041 143.002288 
L 109.967106 145.532185 
L 113.963796 146.149312 
L 117.960493 142.267576 
L 121.957186 146.822678 
L 125.953882 144.860104 
L 129.950576 142.847489 
L 133.947269 146.830645 
L 137.943962 143.220635 
L 141.940659 143.108925 
L 145.937352 144.480112 
L 149.934045 146.107477 
L 153.93074 144.838361 
L 157.927434 146.777214 
L 161.924129 146.318351 
L 165.920823 143.921737 
L 169.917517 145.646143 
L 173.914211 142.821868 
L 177.910906 143.275512 
L 181.9076 146.958735 
L 185.904294 143.713005 
L 189.900988 142.316743 
L 193.897681 143.423922 
L 197.894377 140.154378 
L 201.891071 144.03876 
L 205.887764 134.39797 
L 209.884457 139.556329 
L 213.881154 128.455023 
L 217.877847 120.582265 
L 221.874543 137.706447 
L 225.871234 135.090687 
L 229.86793 132.105934 
L 233.864626 138.697615 
L 237.861317 138.851452 
L 241.858013 137.038905 
L 245.854704 137.588381 
L 249.8514 140.74547 
L 253.848096 141.192654 
L 257.844787 141.313879 
L 261.841483 145.324991 
L 265.838179 141.654223 
L 269.83487 143.685472 
L 273.83156 144.683841 
L 277.828262 141.790952 
L 281.824953 142.259922 
L 285.821643 144.24108 
L 289.818345 142.51613 
L 293.815036 141.58994 
L 297.811726 143.183265 
L 301.808428 141.494815 
L 305.805119 144.09289 
L 309.801809 143.478536 
L 313.798511 144.026729 
L 317.795202 146.477306 
L 321.791892 144.879151 
L 325.788594 142.439873 
L 329.785285 144.016662 
L 333.781975 144.566191 
L 337.778677 144.558136 
L 341.775368 143.883191 
L 345.772058 145.578102 
L 349.76876 145.534183 
L 353.765451 146.059674 
L 357.762141 141.968359 
L 361.758843 141.494214 
L 365.755534 143.143807 
L 369.752224 145.910941 
L 373.748914 144.513023 
L 377.745605 148.683987 
L 381.742319 142.400575 
L 385.739009 146.076788 
L 389.7357 142.298096 
L 393.73239 147.135193 
L 397.72908 146.932925 
L 401.725771 146.75526 
L 405.722485 145.743076 
L 409.719175 143.37294 
L 413.715866 145.097464 
L 417.712556 147.467686 
L 421.709246 144.55416 
L 425.705937 147.912684 
L 429.702627 142.910184 
L 433.699341 144.285623 
L 437.696032 145.801108 
L 441.692722 145.975115 
L 445.689412 143.916957 
L 449.686103 144.591724 
L 453.682793 142.701511 
L 457.679507 143.414721 
L 461.676198 143.557471 
L 465.672888 141.141463 
L 469.669578 146.441018 
L 473.666269 145.159902 
L 477.662959 141.832441 
L 481.659673 144.371611 
L 485.656364 141.753462 
" clip-path="url(#p222a664d74)" style="fill: none; stroke-dasharray: 1,1.65; stroke-dashoffset: 0; stroke: #ff7f0e"/>
   </g>
   <g id="line2d_15">
    <path d="M 89.983636 135.096621 
L 93.980327 129.511525 
L 97.977023 166.030375 
L 101.973713 182.91107 
L 105.97041 146.970288 
L 109.967106 107.682181 
L 113.963796 122.858752 
L 117.960493 170.285682 
L 121.957186 160.950962 
L 125.953882 122.09456 
L 129.950576 109.07065 
L 133.947269 153.970663 
L 137.943962 157.372487 
L 141.940659 141.818776 
L 145.937352 167.13535 
L 149.934045 141.112235 
L 153.93074 125.636599 
L 157.927434 129.542619 
L 161.924129 170.431691 
L 165.920823 139.90548 
L 169.917517 170.179337 
L 173.914211 118.829852 
L 177.910906 144.432595 
L 181.9076 200.07 
L 185.904294 88.788833 
L 189.900988 101.899548 
L 193.897681 132.029655 
L 197.894377 137.075516 
L 201.891071 168.237089 
L 205.887764 155.424832 
L 209.884457 158.554018 
L 213.881154 110.608778 
L 217.877847 107.477073 
L 221.874543 137.915426 
L 225.871234 148.476589 
L 229.86793 144.041753 
L 233.864626 132.46252 
L 237.861317 177.701516 
L 241.858013 105.284698 
L 245.854704 128.413468 
L 249.8514 142.320711 
L 253.848096 141.930294 
L 257.844787 149.34394 
L 261.841483 138.717627 
L 265.838179 151.392976 
L 269.83487 187.886552 
L 273.83156 77.698268 
L 277.828262 121.816021 
L 281.824953 175.373107 
L 285.821643 151.909931 
L 289.818345 88.614927 
L 293.815036 155.114965 
L 297.811726 134.602224 
L 301.808428 126.206392 
L 305.805119 170.916304 
L 309.801809 159.309915 
L 313.798511 147.010564 
L 317.795202 132.346421 
L 321.791892 109.229488 
L 325.788594 113.529582 
L 329.785285 149.786031 
L 333.781975 130.506603 
L 337.778677 86.130977 
L 341.775368 148.213231 
L 345.772058 170.221514 
L 349.76876 194.624892 
L 353.765451 108.778443 
L 357.762141 152.347206 
L 361.758843 174.579842 
L 365.755534 157.875499 
L 369.752224 133.07525 
L 373.748914 145.161784 
L 377.745605 122.998669 
L 381.742319 150.914051 
L 385.739009 122.530661 
L 389.7357 135.62224 
L 393.73239 170.856519 
L 397.72908 117.501444 
L 401.725771 126.946396 
L 405.722485 89.076343 
L 409.719175 116.704323 
L 413.715866 137.293188 
L 417.712556 123.357561 
L 421.709246 122.355157 
L 425.705937 167.762217 
L 429.702627 132.859418 
L 433.699341 98.955512 
L 437.696032 103.151035 
L 441.692722 112.283638 
L 445.689412 90.527891 
L 449.686103 153.724474 
L 453.682793 180.646673 
L 457.679507 197.48821 
L 461.676198 190.629866 
L 465.672888 126.541591 
L 469.669578 170.964361 
L 473.666269 147.633623 
L 477.662959 105.641159 
L 481.659673 188.23967 
L 485.656364 96.866778 
" clip-path="url(#p222a664d74)" style="fill: none; stroke: #1f77b4; stroke-width: 2.2; stroke-linecap: square"/>
   </g>
   <g id="line2d_16">
    <path d="M 89.983636 168.662786 
L 93.980327 132.484929 
L 97.977023 174.527299 
L 101.973713 171.302904 
L 105.97041 135.823455 
L 109.967106 139.807839 
L 113.963796 177.296857 
L 117.960493 160.001092 
L 121.957186 154.277766 
L 125.953882 145.180176 
L 129.950576 153.542752 
L 133.947269 152.610984 
L 137.943962 98.119548 
L 141.940659 147.044846 
L 145.937352 111.435303 
L 149.934045 127.258414 
L 153.93074 196.42292 
L 157.927434 136.971187 
L 161.924129 122.644421 
L 165.920823 145.094051 
L 169.917517 125.366604 
L 173.914211 155.199047 
L 177.910906 130.429983 
L 181.9076 100.968955 
L 185.904294 162.512226 
L 189.900988 97.034078 
L 193.897681 162.816662 
L 197.894377 140.048726 
L 201.891071 131.314564 
L 205.887764 94.868153 
L 209.884457 166.921703 
L 213.881154 151.455249 
L 217.877847 120.989699 
L 221.874543 157.320097 
L 225.871234 130.322465 
L 229.86793 164.922557 
L 233.864626 161.164703 
L 237.861317 132.357037 
L 241.858013 76.375578 
L 245.854704 132.825792 
L 249.8514 128.324449 
L 253.848096 131.23103 
L 257.844787 138.072714 
L 261.841483 164.952149 
L 265.838179 143.558557 
L 269.83487 172.389586 
L 273.83156 97.045449 
L 277.828262 165.582761 
L 281.824953 175.541024 
L 285.821643 146.415633 
L 289.818345 131.273781 
L 293.815036 173.439217 
L 297.811726 199.210031 
L 301.808428 134.379676 
L 305.805119 138.752398 
L 309.801809 117.042608 
L 313.798511 115.129999 
L 317.795202 102.123123 
L 321.791892 164.100009 
L 325.788594 146.033327 
L 329.785285 110.420582 
L 333.781975 140.880856 
L 337.778677 186.409547 
L 341.775368 152.040905 
L 345.772058 90.607053 
L 349.76876 144.780907 
L 353.765451 128.031715 
L 357.762141 125.641026 
L 361.758843 180.453737 
L 365.755534 182.179432 
L 369.752224 146.502617 
L 373.748914 173.147992 
L 377.745605 146.534183 
L 381.742319 124.235043 
L 385.739009 153.97957 
L 389.7357 161.723555 
L 393.73239 162.292213 
L 397.72908 125.314505 
L 401.725771 134.521553 
L 405.722485 103.141068 
L 409.719175 185.585561 
L 413.715866 126.926429 
L 417.712556 73.71 
L 421.709246 124.084018 
L 425.705937 164.891367 
L 429.702627 178.895058 
L 433.699341 112.456686 
L 437.696032 161.868671 
L 441.692722 145.639443 
L 445.689412 177.31326 
L 449.686103 192.89293 
L 453.682793 170.324156 
L 457.679507 152.872607 
L 461.676198 136.960993 
L 465.672888 144.580504 
L 469.669578 119.787439 
L 473.666269 158.267183 
L 477.662959 122.280184 
L 481.659673 125.947665 
L 485.656364 158.711221 
" clip-path="url(#p222a664d74)" style="fill: none; stroke: #ff7f0e; stroke-width: 2.2; stroke-linecap: square"/>
   </g>
   <g id="patch_3">
    <path d="M 70.2 206.388 
L 70.2 67.392 
" style="fill: none; stroke: #000000; stroke-width: 0.8; stroke-linejoin: miter; stroke-linecap: square"/>
   </g>
   <g id="patch_4">
    <path d="M 505.44 206.388 
L 505.44 67.392 
" style="fill: none; stroke: #000000; stroke-width: 0.8; stroke-linejoin: miter; stroke-linecap: square"/>
   </g>
   <g id="patch_5">
    <path d="M 70.2 206.388 
L 505.44 206.388 
" style="fill: none; stroke: #000000; stroke-width: 0.8; stroke-linejoin: miter; stroke-linecap: square"/>
   </g>
   <g id="patch_6">
    <path d="M 70.2 67.392 
L 505.44 67.392 
" style="fill: none; stroke: #000000; stroke-width: 0.8; stroke-linejoin: miter; stroke-linecap: square"/>
   </g>
   <g id="text_13">
    <!-- (MFEF vs MLIP) — R-flow — Panel A: overlay + null bands -->
    <g transform="translate(116.584688 61.392) scale(0.12 -0.12)">
     <defs>
      <path id="DejaVuSans-4d" d="M 628 4666 
L 1569 4666 
L 2759 1491 
L 3956 4666 
L 4897 4666 
L 4897 0 
L 4281 0 
L 4281 4097 
L 3078 897 
L 2444 897 
L 1241 4097 
L 1241 0 
L 628 0 
L 628 4666 
z
" transform="scale(0.015625)"/>
      <path id="DejaVuSans-46" d="M 628 4666 
L 3309 4666 
L 3309 4134 
L 1259 4134 
L 1259 2759 
L 3109 2759 
L 3109 2228 
L 1259 2228 
L 1259 0 
L 628 0 
L 628 4666 
z
" transform="scale(0.015625)"/>
      <path id="DejaVuSans-45" d="M 628 4666 
L 3578 4666 
L 3578 4134 
L 1259 4134 
L 1259 2753 
L 3481 2753 
L 3481 2222 
L 1259 2222 
L 1259 531 
L 3634 531 
L 3634 0 
L 628 0 
L 628 4666 
z
" transform="scale(0.015625)"/>
      <path id="DejaVuSans-76" d="M 191 3500 
L 800 3500 
L 1894 563 
L 2988 3500 
L 3597 3500 
L 2284 0 
L 1503 0 
L 191 3500 
z
" transform="scale(0.015625)"/>
      <path id="DejaVuSans-49" d="M 628 4666 
L 1259 4666 
L 1259 0 
L 628 0 
L 628 4666 
z
" transform="scale(0.015625)"/>
      <path id="DejaVuSans-50" d="M 1259 4147 
L 1259 2394 
L 2053 2394 
Q 2494 2394 2734 2622 
Q 2975 2850 2975 3272 
Q 2975 3691 2734 3919 
Q 2494 4147 2053 4147 
L 1259 4147 
z
M 628 4666 
L 2053 4666 
Q 2838 4666 3239 4311 
Q 3641 3956 3641 3272 
Q 3641 2581 3239 2228 
Q 2838 1875 2053 1875 
L 1259 1875 
L 1259 0 
L 628 0 
L 628 4666 
z
" transform="scale(0.015625)"/>
      <path id="DejaVuSans-2014" d="M 313 1978 
L 6088 1978 
L 6088 1528 
L 313 1528 
L 313 1978 
z
" transform="scale(0.015625)"/>
      <path id="DejaVuSans-52" d="M 2841 2188 
Q 3044 2119 3236 1894 
Q 3428 1669 3622 1275 
L 4263 0 
L 3584 0 
L 2988 1197 
Q 2756 1666 2539 1819 
Q 2322 1972 1947 1972 
L 1259 1972 
L 1259 0 
L 628 0 
L 628 4666 
L 2053 4666 
Q 2853 4666 3247 4331 
Q 3641 3997 3641 3322 
Q 3641 2881 3436 2590 
Q 3231 2300 2841 2188 
z
M 1259 4147 
L 1259 2491 
L 2053 2491 
Q 2509 2491 2742 2702 
Q 2975 2913 2975 3322 
Q 2975 3731 2742 3939 
Q 2509 4147 2053 4147 
L 1259 4147 
z
" transform="scale(0.015625)"/>
      <path id="DejaVuSans-2d" d="M 313 2009 
L 1997 2009 
L 1997 1497 
L 313 1497 
L 313 2009 
z
" transform="scale(0.015625)"/>
      <path id="DejaVuSans-66" d="M 2375 4863 
L 2375 4384 
L 1825 4384 
Q 1516 4384 1395 4259 
Q 1275 4134 1275 3809 
L 1275 3500 
L 2222 3500 
L 2222 3053 
L 1275 3053 
L 1275 0 
L 697 0 
L 697 3053 
L 147 3053 
L 147 3500 
L 697 3500 
L 697 3744 
Q 697 4328 969 4595 
Q 1241 4863 1831 4863 
L 2375 4863 
z
" transform="scale(0.015625)"/>
      <path id="DejaVuSans-6c" d="M 603 4863 
L 1178 4863 
L 1178 0 
L 603 0 
L 603 4863 
z
" transform="scale(0.015625)"/>
      <path id="DejaVuSans-6f" d="M 1959 3097 
Q 1497 3097 1228 2736 
Q 959 2375 959 1747 
Q 959 1119 1226 758 
Q 1494 397 1959 397 
Q 2419 397 2687 759 
Q 2956 1122 2956 1747 
Q 2956 2369 2687 2733 
Q 2419 3097 1959 3097 
z
M 1959 3584 
Q 2709 3584 3137 3096 
Q 3566 2609 3566 1747 
Q 3566 888 3137 398 
Q 2709 -91 1959 -91 
Q 1206 -91 779 398 
Q 353 888 353 1747 
Q 353 2609 779 3096 
Q 1206 3584 1959 3584 
z
" transform="scale(0.015625)"/>
      <path id="DejaVuSans-77" d="M 269 3500 
L 844 3500 
L 1563 769 
L 2278 3500 
L 2956 3500 
L 3675 769 
L 4391 3500 
L 4966 3500 
L 4050 0 
L 3372 0 
L 2619 2869 
L 1863 0 
L 1184 0 
L 269 3500 
z
" transform="scale(0.015625)"/>
      <path id="DejaVuSans-61" d="M 2194 1759 
Q 1497 1759 1228 1600 
Q 959 1441 959 1056 
Q 959 750 1161 570 
Q 1363 391 1709 391 
Q 2188 391 2477 730 
Q 2766 1069 2766 1631 
L 2766 1759 
L 2194 1759 
z
M 3341 1997 
L 3341 0 
L 2766 0 
L 2766 531 
Q 2569 213 2275 61 
Q 1981 -91 1556 -91 
Q 1019 -91 701 211 
Q 384 513 384 1019 
Q 384 1609 779 1909 
Q 1175 2209 1959 2209 
L 2766 2209 
L 2766 2266 
Q 2766 2663 2505 2880 
Q 2244 3097 1772 3097 
Q 1472 3097 1187 3025 
Q 903 2953 641 2809 
L 641 3341 
Q 956 3463 1253 3523 
Q 1550 3584 1831 3584 
Q 2591 3584 2966 3190 
Q 3341 2797 3341 1997 
z
" transform="scale(0.015625)"/>
      <path id="DejaVuSans-6e" d="M 3513 2113 
L 3513 0 
L 2938 0 
L 2938 2094 
Q 2938 2591 2744 2837 
Q 2550 3084 2163 3084 
Q 1697 3084 1428 2787 
Q 1159 2491 1159 1978 
L 1159 0 
L 581 0 
L 581 3500 
L 1159 3500 
L 1159 2956 
Q 1366 3272 1645 3428 
Q 1925 3584 2291 3584 
Q 2894 3584 3203 3211 
Q 3513 2838 3513 2113 
z
" transform="scale(0.015625)"/>
      <path id="DejaVuSans-65" d="M 3597 1894 
L 3597 1613 
L 953 1613 
Q 991 1019 1311 708 
Q 1631 397 2203 397 
Q 2534 397 2845 478 
Q 3156 559 3463 722 
L 3463 178 
Q 3153 47 2828 -22 
Q 2503 -91 2169 -91 
Q 1331 -91 842 396 
Q 353 884 353 1716 
Q 353 2575 817 3079 
Q 1281 3584 2069 3584 
Q 2775 3584 3186 3129 
Q 3597 2675 3597 1894 
z
M 3022 2063 
Q 3016 2534 2758 2815 
Q 2500 3097 2075 3097 
Q 1594 3097 1305 2825 
Q 1016 2553 972 2059 
L 3022 2063 
z
" transform="scale(0.015625)"/>
      <path id="DejaVuSans-41" d="M 2188 4044 
L 1331 1722 
L 3047 1722 
L 2188 4044 
z
M 1831 4666 
L 2547 4666 
L 4325 0 
L 3669 0 
L 3244 1197 
L 1141 1197 
L 716 0 
L 50 0 
L 1831 4666 
z
" transform="scale(0.015625)"/>
      <path id="DejaVuSans-3a" d="M 750 794 
L 1409 794 
L 1409 0 
L 750 0 
L 750 794 
z
M 750 3309 
L 1409 3309 
L 1409 2516 
L 750 2516 
L 750 3309 
z
" transform="scale(0.015625)"/>
      <path id="DejaVuSans-72" d="M 2631 2963 
Q 2534 3019 2420 3045 
Q 2306 3072 2169 3072 
Q 1681 3072 1420 2755 
Q 1159 2438 1159 1844 
L 1159 0 
L 581 0 
L 581 3500 
L 1159 3500 
L 1159 2956 
Q 1341 3275 1631 3429 
Q 1922 3584 2338 3584 
Q 2397 3584 2469 3576 
Q 2541 3569 2628 3553 
L 2631 2963 
z
" transform="scale(0.015625)"/>
      <path id="DejaVuSans-79" d="M 2059 -325 
Q 1816 -950 1584 -1140 
Q 1353 -1331 966 -1331 
L 506 -1331 
L 506 -850 
L 844 -850 
Q 1081 -850 1212 -737 
Q 1344 -625 1503 -206 
L 1606 56 
L 191 3500 
L 800 3500 
L 1894 763 
L 2988 3500 
L 3597 3500 
L 2059 -325 
z
" transform="scale(0.015625)"/>
      <path id="DejaVuSans-2b" d="M 2944 4013 
L 2944 2272 
L 4684 2272 
L 4684 1741 
L 2944 1741 
L 2944 0 
L 2419 0 
L 2419 1741 
L 678 1741 
L 678 2272 
L 2419 2272 
L 2419 4013 
L 2944 4013 
z
" transform="scale(0.015625)"/>
      <path id="DejaVuSans-75" d="M 544 1381 
L 544 3500 
L 1119 3500 
L 1119 1403 
Q 1119 906 1312 657 
Q 1506 409 1894 409 
Q 2359 409 2629 706 
Q 2900 1003 2900 1516 
L 2900 3500 
L 3475 3500 
L 3475 0 
L 2900 0 
L 2900 538 
Q 2691 219 2414 64 
Q 2138 -91 1772 -91 
Q 1169 -91 856 284 
Q 544 659 544 1381 
z
M 1991 3584 
L 1991 3584 
z
" transform="scale(0.015625)"/>
      <path id="DejaVuSans-64" d="M 2906 2969 
L 2906 4863 
L 3481 4863 
L 3481 0 
L 2906 0 
L 2906 525 
Q 2725 213 2448 61 
Q 2172 -91 1784 -91 
Q 1150 -91 751 415 
Q 353 922 353 1747 
Q 353 2572 751 3078 
Q 1150 3584 1784 3584 
Q 2172 3584 2448 3432 
Q 2725 3281 2906 2969 
z
M 947 1747 
Q 947 1113 1208 752 
Q 1469 391 1925 391 
Q 2381 391 2643 752 
Q 2906 1113 2906 1747 
Q 2906 2381 2643 2742 
Q 2381 3103 1925 3103 
Q 1469 3103 1208 2742 
Q 947 2381 947 1747 
z
" transform="scale(0.015625)"/>
     </defs>
     <use xlink:href="#DejaVuSans-28"/>
     <use xlink:href="#DejaVuSans-4d" transform="translate(39.013672 0)"/>
     <use xlink:href="#DejaVuSans-46" transform="translate(125.292969 0)"/>
     <use xlink:href="#DejaVuSans-45" transform="translate(182.8125 0)"/>
     <use xlink:href="#DejaVuSans-46" transform="translate(245.996094 0)"/>
     <use xlink:href="#DejaVuSans-20" transform="translate(303.515625 0)"/>
     <use xlink:href="#DejaVuSans-76" transform="translate(335.302734 0)"/>
     <use xlink:href="#DejaVuSans-73" transform="translate(394.482422 0)"/>
     <use xlink:href="#DejaVuSans-20" transform="translate(446.582031 0)"/>
     <use xlink:href="#DejaVuSans-4d" transform="translate(478.369141 0)"/>
     <use xlink:href="#DejaVuSans-4c" transform="translate(564.648438 0)"/>
     <use xlink:href="#DejaVuSans-49" transform="translate(620.361328 0)"/>
     <use xlink:href="#DejaVuSans-50" transform="translate(649.853516 0)"/>
     <use xlink:href="#DejaVuSans-29" transform="translate(710.15625 0)"/>
     <use xlink:href="#DejaVuSans-20" transform="translate(749.169922 0)"/>
     <use xlink:href="#DejaVuSans-2014" transform="translate(780.957031 0)"/>
     <use xlink:href="#DejaVuSans-20" transform="translate(880.957031 0)"/>
     <use xlink:href="#DejaVuSans-52" transform="translate(912.744141 0)"/>
     <use xlink:href="#DejaVuSans-2d" transform="translate(978.226562 0)"/>
     <use xlink:href="#DejaVuSans-66" transform="translate(1014.310547 0)"/>
     <use xlink:href="#DejaVuSans-6c" transform="translate(1049.515625 0)"/>
     <use xlink:href="#DejaVuSans-6f" transform="translate(1077.298828 0)"/>
     <use xlink:href="#DejaVuSans-77" transform="translate(1138.480469 0)"/>
     <use xlink:href="#DejaVuSans-20" transform="translate(1220.267578 0)"/>
     <use xlink:href="#DejaVuSans-2014" transform="translate(1252.054688 0)"/>
     <use xlink:href="#DejaVuSans-20" transform="translate(1352.054688 0)"/>
     <use xlink:href="#DejaVuSans-50" transform="translate(1383.841797 0)"/>
     <use xlink:href="#DejaVuSans-61" transform="translate(1439.644531 0)"/>
     <use xlink:href="#DejaVuSans-6e" transform="translate(1500.923828 0)"/>
     <use xlink:href="#DejaVuSans-65" transform="translate(1564.302734 0)"/>
     <use xlink:href="#DejaVuSans-6c" transform="translate(1625.826172 0)"/>
     <use xlink:href="#DejaVuSans-20" transform="translate(1653.609375 0)"/>
     <use xlink:href="#DejaVuSans-41" transform="translate(1685.396484 0)"/>
     <use xlink:href="#DejaVuSans-3a" transform="translate(1752.054688 0)"/>
     <use xlink:href="#DejaVuSans-20" transform="translate(1785.746094 0)"/>
     <use xlink:href="#DejaVuSans-6f" transform="translate(1817.533203 0)"/>
     <use xlink:href="#DejaVuSans-76" transform="translate(1878.714844 0)"/>
     <use xlink:href="#DejaVuSans-65" transform="translate(1937.894531 0)"/>
     <use xlink:href="#DejaVuSans-72" transform="translate(1999.417969 0)"/>
     <use xlink:href="#DejaVuSans-6c" transform="translate(2040.53125 0)"/>
     <use xlink:href="#DejaVuSans-61" transform="translate(2068.314453 0)"/>
     <use xlink:href="#DejaVuSans-79" transform="translate(2129.59375 0)"/>
     <use xlink:href="#DejaVuSans-20" transform="translate(2188.773438 0)"/>
     <use xlink:href="#DejaVuSans-2b" transform="translate(2220.560547 0)"/>
     <use xlink:href="#DejaVuSans-20" transform="translate(2304.349609 0)"/>
     <use xlink:href="#DejaVuSans-6e" transform="translate(2336.136719 0)"/>
     <use xlink:href="#DejaVuSans-75" transform="translate(2399.515625 0)"/>
     <use xlink:href="#DejaVuSans-6c" transform="translate(2462.894531 0)"/>
     <use xlink:href="#DejaVuSans-6c" transform="translate(2490.677734 0)"/>
     <use xlink:href="#DejaVuSans-20" transform="translate(2518.460938 0)"/>
     <use xlink:href="#DejaVuSans-62" transform="translate(2550.248047 0)"/>
     <use xlink:href="#DejaVuSans-61" transform="translate(2613.724609 0)"/>
     <use xlink:href="#DejaVuSans-6e" transform="translate(2675.003906 0)"/>
     <use xlink:href="#DejaVuSans-64" transform="translate(2738.382812 0)"/>
     <use xlink:href="#DejaVuSans-73" transform="translate(2801.859375 0)"/>
    </g>
   </g>
   <g id="legend_1">
    <g id="patch_7">
     <path d="M 79.2 83.990437 
L 99.2 83.990437 
L 99.2 76.990437 
L 79.2 76.990437 
z
" style="fill: #1f77b4; fill-opacity: 0.15"/>
    </g>
    <g id="text_14">
     <!-- MFEF→MLIP null μ±σ -->
     <g transform="translate(107.2 83.990437) scale(0.1 -0.1)">
      <defs>
       <path id="DejaVuSans-2192" d="M 5050 2147 
L 5050 1866 
L 3822 638 
L 3447 1013 
L 4175 1741 
L 366 1741 
L 366 2272 
L 4175 2272 
L 3447 3000 
L 3822 3375 
L 5050 2147 
z
" transform="scale(0.015625)"/>
       <path id="DejaVuSans-3bc" d="M 544 -1331 
L 544 3500 
L 1119 3500 
L 1119 1325 
Q 1119 872 1334 640 
Q 1550 409 1972 409 
Q 2434 409 2667 671 
Q 2900 934 2900 1459 
L 2900 3500 
L 3475 3500 
L 3475 806 
Q 3475 619 3529 530 
Q 3584 441 3700 441 
Q 3728 441 3778 458 
Q 3828 475 3916 513 
L 3916 50 
Q 3788 -22 3673 -56 
Q 3559 -91 3450 -91 
Q 3234 -91 3106 31 
Q 2978 153 2931 403 
Q 2775 156 2548 32 
Q 2322 -91 2016 -91 
Q 1697 -91 1473 31 
Q 1250 153 1119 397 
L 1119 -1331 
L 544 -1331 
z
" transform="scale(0.015625)"/>
       <path id="DejaVuSans-b1" d="M 2944 4013 
L 2944 2803 
L 4684 2803 
L 4684 2272 
L 2944 2272 
L 2944 1063 
L 2419 1063 
L 2419 2272 
L 678 2272 
L 678 2803 
L 2419 2803 
L 2419 4013 
L 2944 4013 
z
M 678 531 
L 4684 531 
L 4684 0 
L 678 0 
L 678 531 
z
" transform="scale(0.015625)"/>
       <path id="DejaVuSans-3c3" d="M 1959 3044 
Q 1484 3044 1228 2700 
Q 959 2341 959 1747 
Q 959 1119 1226 758 
Q 1494 397 1959 397 
Q 2419 397 2687 759 
Q 2956 1122 2956 1747 
Q 2956 2319 2688 2700 
Q 2441 3044 1959 3044 
z
M 1959 3500 
L 3869 3500 
L 3869 2925 
L 3225 2925 
Q 3566 2438 3566 1747 
Q 3566 888 3138 400 
Q 2709 -91 1959 -91 
Q 1206 -91 781 400 
Q 353 888 353 1747 
Q 353 2613 781 3097 
Q 1134 3500 1959 3500 
z
" transform="scale(0.015625)"/>
      </defs>
      <use xlink:href="#DejaVuSans-4d"/>
      <use xlink:href="#DejaVuSans-46" transform="translate(86.279297 0)"/>
      <use xlink:href="#DejaVuSans-45" transform="translate(143.798828 0)"/>
      <use xlink:href="#DejaVuSans-46" transform="translate(206.982422 0)"/>
      <use xlink:href="#DejaVuSans-2192" transform="translate(264.501953 0)"/>
      <use xlink:href="#DejaVuSans-4d" transform="translate(348.291016 0)"/>
      <use xlink:href="#DejaVuSans-4c" transform="translate(434.570312 0)"/>
      <use xlink:href="#DejaVuSans-49" transform="translate(490.283203 0)"/>
      <use xlink:href="#DejaVuSans-50" transform="translate(519.775391 0)"/>
      <use xlink:href="#DejaVuSans-20" transform="translate(580.078125 0)"/>
      <use xlink:href="#DejaVuSans-6e" transform="translate(611.865234 0)"/>
      <use xlink:href="#DejaVuSans-75" transform="translate(675.244141 0)"/>
      <use xlink:href="#DejaVuSans-6c" transform="translate(738.623047 0)"/>
      <use xlink:href="#DejaVuSans-6c" transform="translate(766.40625 0)"/>
      <use xlink:href="#DejaVuSans-20" transform="translate(794.189453 0)"/>
      <use xlink:href="#DejaVuSans-3bc" transform="translate(825.976562 0)"/>
      <use xlink:href="#DejaVuSans-b1" transform="translate(889.599609 0)"/>
      <use xlink:href="#DejaVuSans-3c3" transform="translate(973.388672 0)"/>
     </g>
    </g>
    <g id="patch_8">
     <path d="M 79.2 98.668563 
L 99.2 98.668563 
L 99.2 91.668563 
L 79.2 91.668563 
z
" style="fill: #ff7f0e; fill-opacity: 0.15"/>
    </g>
    <g id="text_15">
     <!-- MLIP→MFEF null μ±σ -->
     <g transform="translate(107.2 98.668563) scale(0.1 -0.1)">
      <use xlink:href="#DejaVuSans-4d"/>
      <use xlink:href="#DejaVuSans-4c" transform="translate(86.279297 0)"/>
      <use xlink:href="#DejaVuSans-49" transform="translate(141.992188 0)"/>
      <use xlink:href="#DejaVuSans-50" transform="translate(171.484375 0)"/>
      <use xlink:href="#DejaVuSans-2192" transform="translate(231.787109 0)"/>
      <use xlink:href="#DejaVuSans-4d" transform="translate(315.576172 0)"/>
      <use xlink:href="#DejaVuSans-46" transform="translate(401.855469 0)"/>
      <use xlink:href="#DejaVuSans-45" transform="translate(459.375 0)"/>
      <use xlink:href="#DejaVuSans-46" transform="translate(522.558594 0)"/>
      <use xlink:href="#DejaVuSans-20" transform="translate(580.078125 0)"/>
      <use xlink:href="#DejaVuSans-6e" transform="translate(611.865234 0)"/>
      <use xlink:href="#DejaVuSans-75" transform="translate(675.244141 0)"/>
      <use xlink:href="#DejaVuSans-6c" transform="translate(738.623047 0)"/>
      <use xlink:href="#DejaVuSans-6c" transform="translate(766.40625 0)"/>
      <use xlink:href="#DejaVuSans-20" transform="translate(794.189453 0)"/>
      <use xlink:href="#DejaVuSans-3bc" transform="translate(825.976562 0)"/>
      <use xlink:href="#DejaVuSans-b1" transform="translate(889.599609 0)"/>
      <use xlink:href="#DejaVuSans-3c3" transform="translate(973.388672 0)"/>
     </g>
    </g>
    <g id="line2d_17">
     <path d="M 230.876562 80.490437 
L 240.876562 80.490437 
L 250.876562 80.490437 
" style="fill: none; stroke: #1f77b4; stroke-width: 2.2; stroke-linecap: square"/>
    </g>
    <g id="text_16">
     <!-- MFEF→MLIP -->
     <g transform="translate(258.876562 83.990437) scale(0.1 -0.1)">
      <use xlink:href="#DejaVuSans-4d"/>
      <use xlink:href="#DejaVuSans-46" transform="translate(86.279297 0)"/>
      <use xlink:href="#DejaVuSans-45" transform="translate(143.798828 0)"/>
      <use xlink:href="#DejaVuSans-46" transform="translate(206.982422 0)"/>
      <use xlink:href="#DejaVuSans-2192" transform="translate(264.501953 0)"/>
      <use xlink:href="#DejaVuSans-4d" transform="translate(348.291016 0)"/>
      <use xlink:href="#DejaVuSans-4c" transform="translate(434.570312 0)"/>
      <use xlink:href="#DejaVuSans-49" transform="translate(490.283203 0)"/>
      <use xlink:href="#DejaVuSans-50" transform="translate(519.775391 0)"/>
     </g>
    </g>
    <g id="line2d_18">
     <path d="M 230.876562 95.168563 
L 240.876562 95.168563 
L 250.876562 95.168563 
" style="fill: none; stroke: #ff7f0e; stroke-width: 2.2; stroke-linecap: square"/>
    </g>
    <g id="text_17">
     <!-- MLIP→MFEF -->
     <g transform="translate(258.876562 98.668563) scale(0.1 -0.1)">
      <use xlink:href="#DejaVuSans-4d"/>
      <use xlink:href="#DejaVuSans-4c" transform="translate(86.279297 0)"/>
      <use xlink:href="#DejaVuSans-49" transform="translate(141.992188 0)"/>
      <use xlink:href="#DejaVuSans-50" transform="translate(171.484375 0)"/>
      <use xlink:href="#DejaVuSans-2192" transform="translate(231.787109 0)"/>
      <use xlink:href="#DejaVuSans-4d" transform="translate(315.576172 0)"/>
      <use xlink:href="#DejaVuSans-46" transform="translate(401.855469 0)"/>
      <use xlink:href="#DejaVuSans-45" transform="translate(459.375 0)"/>
      <use xlink:href="#DejaVuSans-46" transform="translate(522.558594 0)"/>
     </g>
    </g>
   </g>
  </g>
  <g id="axes_2">
   <g id="patch_9">
    <path d="M 70.2 353.106 
L 505.44 353.106 
L 505.44 237.276 
L 70.2 237.276 
z
" style="fill: #ffffff"/>
   </g>
   <g id="matplotlib.axis_3">
    <g id="xtick_7">
     <g id="line2d_19">
      <g>
       <use xlink:href="#m67bad4a098" x="87.985286" y="353.106" style="stroke: #000000; stroke-width: 0.8"/>
      </g>
     </g>
     <g id="text_18">
      <!-- −200 -->
      <g transform="translate(74.251693 367.704438) scale(0.1 -0.1)">
       <use xlink:href="#DejaVuSans-2212"/>
       <use xlink:href="#DejaVuSans-32" transform="translate(83.789062 0)"/>
       <use xlink:href="#DejaVuSans-30" transform="translate(147.412109 0)"/>
       <use xlink:href="#DejaVuSans-30" transform="translate(211.035156 0)"/>
      </g>
     </g>
    </g>
    <g id="xtick_8">
     <g id="line2d_20">
      <g>
       <use xlink:href="#m67bad4a098" x="167.91917" y="353.106" style="stroke: #000000; stroke-width: 0.8"/>
      </g>
     </g>
     <g id="text_19">
      <!-- 0 -->
      <g transform="translate(164.73792 367.704438) scale(0.1 -0.1)">
       <use xlink:href="#DejaVuSans-30"/>
      </g>
     </g>
    </g>
    <g id="xtick_9">
     <g id="line2d_21">
      <g>
       <use xlink:href="#m67bad4a098" x="247.853053" y="353.106" style="stroke: #000000; stroke-width: 0.8"/>
      </g>
     </g>
     <g id="text_20">
      <!-- 200 -->
      <g transform="translate(238.309303 367.704438) scale(0.1 -0.1)">
       <use xlink:href="#DejaVuSans-32"/>
       <use xlink:href="#DejaVuSans-30" transform="translate(63.623047 0)"/>
       <use xlink:href="#DejaVuSans-30" transform="translate(127.246094 0)"/>
      </g>
     </g>
    </g>
    <g id="xtick_10">
     <g id="line2d_22">
      <g>
       <use xlink:href="#m67bad4a098" x="327.786937" y="353.106" style="stroke: #000000; stroke-width: 0.8"/>
      </g>
     </g>
     <g id="text_21">
      <!-- 400 -->
      <g transform="translate(318.243187 367.704438) scale(0.1 -0.1)">
       <use xlink:href="#DejaVuSans-34"/>
       <use xlink:href="#DejaVuSans-30" transform="translate(63.623047 0)"/>
       <use xlink:href="#DejaVuSans-30" transform="translate(127.246094 0)"/>
      </g>
     </g>
    </g>
    <g id="xtick_11">
     <g id="line2d_23">
      <g>
       <use xlink:href="#m67bad4a098" x="407.720821" y="353.106" style="stroke: #000000; stroke-width: 0.8"/>
      </g>
     </g>
     <g id="text_22">
      <!-- 600 -->
      <g transform="translate(398.177071 367.704438) scale(0.1 -0.1)">
       <use xlink:href="#DejaVuSans-36"/>
       <use xlink:href="#DejaVuSans-30" transform="translate(63.623047 0)"/>
       <use xlink:href="#DejaVuSans-30" transform="translate(127.246094 0)"/>
      </g>
     </g>
    </g>
    <g id="xtick_12">
     <g id="line2d_24">
      <g>
       <use xlink:href="#m67bad4a098" x="487.654704" y="353.106" style="stroke: #000000; stroke-width: 0.8"/>
      </g>
     </g>
     <g id="text_23">
      <!-- 800 -->
      <g transform="translate(478.110954 367.704438) scale(0.1 -0.1)">
       <use xlink:href="#DejaVuSans-38"/>
       <use xlink:href="#DejaVuSans-30" transform="translate(63.623047 0)"/>
       <use xlink:href="#DejaVuSans-30" transform="translate(127.246094 0)"/>
      </g>
     </g>
    </g>
   </g>
   <g id="matplotlib.axis_4">
    <g id="ytick_6">
     <g id="line2d_25">
      <g>
       <use xlink:href="#me307b4018d" x="70.2" y="350.702813" style="stroke: #000000; stroke-width: 0.8"/>
      </g>
     </g>
     <g id="text_24">
      <!-- −10 -->
      <g transform="translate(42.095313 354.502031) scale(0.1 -0.1)">
       <use xlink:href="#DejaVuSans-2212"/>
       <use xlink:href="#DejaVuSans-31" transform="translate(83.789062 0)"/>
       <use xlink:href="#DejaVuSans-30" transform="translate(147.412109 0)"/>
      </g>
     </g>
    </g>
    <g id="ytick_7">
     <g id="line2d_26">
      <g>
       <use xlink:href="#me307b4018d" x="70.2" y="323.10238" style="stroke: #000000; stroke-width: 0.8"/>
      </g>
     </g>
     <g id="text_25">
      <!-- −5 -->
      <g transform="translate(48.457813 326.901599) scale(0.1 -0.1)">
       <use xlink:href="#DejaVuSans-2212"/>
       <use xlink:href="#DejaVuSans-35" transform="translate(83.789062 0)"/>
      </g>
     </g>
    </g>
    <g id="ytick_8">
     <g id="line2d_27">
      <g>
       <use xlink:href="#me307b4018d" x="70.2" y="295.501948" style="stroke: #000000; stroke-width: 0.8"/>
      </g>
     </g>
     <g id="text_26">
      <!-- 0 -->
      <g transform="translate(56.8375 299.301167) scale(0.1 -0.1)">
       <use xlink:href="#DejaVuSans-30"/>
      </g>
     </g>
    </g>
    <g id="ytick_9">
     <g id="line2d_28">
      <g>
       <use xlink:href="#me307b4018d" x="70.2" y="267.901516" style="stroke: #000000; stroke-width: 0.8"/>
      </g>
     </g>
     <g id="text_27">
      <!-- 5 -->
      <g transform="translate(56.8375 271.700734) scale(0.1 -0.1)">
       <use xlink:href="#DejaVuSans-35"/>
      </g>
     </g>
    </g>
    <g id="ytick_10">
     <g id="line2d_29">
      <g>
       <use xlink:href="#me307b4018d" x="70.2" y="240.301083" style="stroke: #000000; stroke-width: 0.8"/>
      </g>
     </g>
     <g id="text_28">
      <!-- 10 -->
      <g transform="translate(50.475 244.100302) scale(0.1 -0.1)">
       <use xlink:href="#DejaVuSans-31"/>
       <use xlink:href="#DejaVuSans-30" transform="translate(63.623047 0)"/>
      </g>
     </g>
    </g>
    <g id="text_29">
     <!-- ΔΔLL (bits) -->
     <g transform="translate(36.015625 322.22225) rotate(-90) scale(0.1 -0.1)">
      <use xlink:href="#DejaVuSans-394"/>
      <use xlink:href="#DejaVuSans-394" transform="translate(68.408203 0)"/>
      <use xlink:href="#DejaVuSans-4c" transform="translate(136.816406 0)"/>
      <use xlink:href="#DejaVuSans-4c" transform="translate(192.529297 0)"/>
      <use xlink:href="#DejaVuSans-20" transform="translate(248.242188 0)"/>
      <use xlink:href="#DejaVuSans-28" transform="translate(280.029297 0)"/>
      <use xlink:href="#DejaVuSans-62" transform="translate(319.042969 0)"/>
      <use xlink:href="#DejaVuSans-69" transform="translate(382.519531 0)"/>
      <use xlink:href="#DejaVuSans-74" transform="translate(410.302734 0)"/>
      <use xlink:href="#DejaVuSans-73" transform="translate(449.511719 0)"/>
      <use xlink:href="#DejaVuSans-29" transform="translate(501.611328 0)"/>
     </g>
    </g>
   </g>
   <g id="line2d_30">
    <path d="M 167.91917 353.106 
L 167.91917 237.276 
" clip-path="url(#p2e2c4c9b2c)" style="fill: none; stroke-dasharray: 2.96,1.28; stroke-dashoffset: 0; stroke: #000000; stroke-width: 0.8"/>
   </g>
   <g id="line2d_31">
    <path d="M 70.2 295.501948 
L 505.44 295.501948 
" clip-path="url(#p2e2c4c9b2c)" style="fill: none; stroke-dasharray: 0.8,1.32; stroke-dashoffset: 0; stroke: #000000; stroke-width: 0.8"/>
   </g>
   <g id="line2d_32">
    <path d="M 89.983636 277.774372 
L 93.980327 293.93158 
L 97.977023 291.014398 
L 101.973713 301.632665 
L 105.97041 301.389017 
L 109.967106 278.53516 
L 113.963796 266.751103 
L 117.960493 300.933633 
L 121.957186 299.026318 
L 125.953882 283.309551 
L 129.950576 272.01453 
L 133.947269 296.220046 
L 137.943962 326.795691 
L 141.940659 292.74186 
L 145.937352 324.919273 
L 149.934045 302.81868 
L 153.93074 258.116984 
L 157.927434 291.578637 
L 161.924129 320.740233 
L 165.920823 292.761665 
L 169.917517 319.169266 
L 173.914211 276.293985 
L 177.910906 302.897263 
L 181.9076 347.841 
L 185.904294 256.565804 
L 189.900988 298.071588 
L 193.897681 279.242152 
L 197.894377 293.931682 
L 201.891071 315.002146 
L 205.887764 327.484246 
L 209.884457 291.082654 
L 213.881154 273.929364 
L 217.877847 288.365413 
L 221.874543 285.253599 
L 225.871234 305.089835 
L 229.86793 284.473997 
L 233.864626 280.343227 
L 237.861317 319.450102 
L 241.858013 310.76996 
L 245.854704 293.17163 
L 249.8514 302.89391 
L 253.848096 301.152638 
L 257.844787 301.454714 
L 261.841483 281.646493 
L 265.838179 299.639604 
L 269.83487 303.686488 
L 273.83156 285.283962 
L 277.828262 272.387059 
L 281.824953 295.413264 
L 285.821643 298.403697 
L 289.818345 272.972175 
L 293.815036 285.824209 
L 297.811726 261.380094 
L 301.808428 291.185324 
L 305.805119 312.488937 
L 309.801809 317.824929 
L 313.798511 312.339294 
L 317.795202 311.464028 
L 321.791892 266.522727 
L 325.788594 278.335477 
L 329.785285 316.292347 
L 333.781975 290.022908 
L 337.778677 242.541 
L 341.775368 293.480407 
L 345.772058 337.54939 
L 349.76876 321.826463 
L 353.765451 285.333559 
L 357.762141 309.606503 
L 361.758843 292.399719 
L 365.755534 282.666111 
L 369.752224 288.410442 
L 373.748914 280.721361 
L 377.745605 283.071942 
L 381.742319 309.592153 
L 385.739009 278.892576 
L 389.7357 281.716845 
L 393.73239 300.025086 
L 397.72908 291.375572 
L 401.725771 291.501218 
L 405.722485 288.073829 
L 409.719175 259.123132 
L 413.715866 300.97703 
L 417.712556 321.722724 
L 421.709246 294.58887 
L 425.705937 297.018154 
L 429.702627 271.188766 
L 433.699341 288.371461 
L 437.696032 264.490919 
L 441.692722 277.885471 
L 445.689412 249.667275 
L 449.686103 274.815588 
L 453.682793 300.953664 
L 457.679507 319.065154 
L 461.676198 323.846532 
L 465.672888 285.974908 
L 469.669578 322.530438 
L 473.666269 289.885958 
L 477.662959 286.714242 
L 481.659673 328.400738 
L 485.656364 262.839532 
" clip-path="url(#p2e2c4c9b2c)" style="fill: none; stroke: #d62728; stroke-width: 2.2; stroke-linecap: square"/>
   </g>
   <g id="line2d_33">
    <defs>
     <path id="mb847b513b0" d="M 0 1.25 
C 0.331504 1.25 0.649475 1.118292 0.883883 0.883883 
C 1.118292 0.649475 1.25 0.331504 1.25 0 
C 1.25 -0.331504 1.118292 -0.649475 0.883883 -0.883883 
C 0.649475 -1.118292 0.331504 -1.25 0 -1.25 
C -0.331504 -1.25 -0.649475 -1.118292 -0.883883 -0.883883 
C -1.118292 -0.649475 -1.25 -0.331504 -1.25 0 
C -1.25 0.331504 -1.118292 0.649475 -0.883883 0.883883 
C -0.649475 1.118292 -0.331504 1.25 0 1.25 
z
" style="stroke: #000000"/>
    </defs>
    <g clip-path="url(#p2e2c4c9b2c)">
     <use xlink:href="#mb847b513b0" x="181.9076" y="347.841" style="stroke: #000000"/>
     <use xlink:href="#mb847b513b0" x="185.904294" y="256.565804" style="stroke: #000000"/>
     <use xlink:href="#mb847b513b0" x="241.858013" y="310.76996" style="stroke: #000000"/>
     <use xlink:href="#mb847b513b0" x="337.778677" y="242.541" style="stroke: #000000"/>
     <use xlink:href="#mb847b513b0" x="345.772058" y="337.54939" style="stroke: #000000"/>
     <use xlink:href="#mb847b513b0" x="405.722485" y="288.073829" style="stroke: #000000"/>
     <use xlink:href="#mb847b513b0" x="417.712556" y="321.722724" style="stroke: #000000"/>
    </g>
   </g>
   <g id="patch_10">
    <path d="M 70.2 353.106 
L 70.2 237.276 
" style="fill: none; stroke: #000000; stroke-width: 0.8; stroke-linejoin: miter; stroke-linecap: square"/>
   </g>
   <g id="patch_11">
    <path d="M 505.44 353.106 
L 505.44 237.276 
" style="fill: none; stroke: #000000; stroke-width: 0.8; stroke-linejoin: miter; stroke-linecap: square"/>
   </g>
   <g id="patch_12">
    <path d="M 70.2 353.106 
L 505.44 353.106 
" style="fill: none; stroke: #000000; stroke-width: 0.8; stroke-linejoin: miter; stroke-linecap: square"/>
   </g>
   <g id="patch_13">
    <path d="M 70.2 237.276 
L 505.44 237.276 
" style="fill: none; stroke: #000000; stroke-width: 0.8; stroke-linejoin: miter; stroke-linecap: square"/>
   </g>
   <g id="text_30">
    <!-- Panel B: pair-diff with significance dots -->
    <g transform="translate(171.554063 231.276) scale(0.12 -0.12)">
     <defs>
      <path id="DejaVuSans-42" d="M 1259 2228 
L 1259 519 
L 2272 519 
Q 2781 519 3026 730 
Q 3272 941 3272 1375 
Q 3272 1813 3026 2020 
Q 2781 2228 2272 2228 
L 1259 2228 
z
M 1259 4147 
L 1259 2741 
L 2194 2741 
Q 2656 2741 2882 2914 
Q 3109 3088 3109 3444 
Q 3109 3797 2882 3972 
Q 2656 4147 2194 4147 
L 1259 4147 
z
M 628 4666 
L 2241 4666 
Q 2963 4666 3353 4366 
Q 3744 4066 3744 3513 
Q 3744 3084 3544 2831 
Q 3344 2578 2956 2516 
Q 3422 2416 3680 2098 
Q 3938 1781 3938 1306 
Q 3938 681 3513 340 
Q 3088 0 2303 0 
L 628 0 
L 628 4666 
z
" transform="scale(0.015625)"/>
      <path id="DejaVuSans-70" d="M 1159 525 
L 1159 -1331 
L 581 -1331 
L 581 3500 
L 1159 3500 
L 1159 2969 
Q 1341 3281 1617 3432 
Q 1894 3584 2278 3584 
Q 2916 3584 3314 3078 
Q 3713 2572 3713 1747 
Q 3713 922 3314 415 
Q 2916 -91 2278 -91 
Q 1894 -91 1617 61 
Q 1341 213 1159 525 
z
M 3116 1747 
Q 3116 2381 2855 2742 
Q 2594 3103 2138 3103 
Q 1681 3103 1420 2742 
Q 1159 2381 1159 1747 
Q 1159 1113 1420 752 
Q 1681 391 2138 391 
Q 2594 391 2855 752 
Q 3116 1113 3116 1747 
z
" transform="scale(0.015625)"/>
      <path id="DejaVuSans-68" d="M 3513 2113 
L 3513 0 
L 2938 0 
L 2938 2094 
Q 2938 2591 2744 2837 
Q 2550 3084 2163 3084 
Q 1697 3084 1428 2787 
Q 1159 2491 1159 1978 
L 1159 0 
L 581 0 
L 581 4863 
L 1159 4863 
L 1159 2956 
Q 1366 3272 1645 3428 
Q 1925 3584 2291 3584 
Q 2894 3584 3203 3211 
Q 3513 2838 3513 2113 
z
" transform="scale(0.015625)"/>
      <path id="DejaVuSans-67" d="M 2906 1791 
Q 2906 2416 2648 2759 
Q 2391 3103 1925 3103 
Q 1463 3103 1205 2759 
Q 947 2416 947 1791 
Q 947 1169 1205 825 
Q 1463 481 1925 481 
Q 2391 481 2648 825 
Q 2906 1169 2906 1791 
z
M 3481 434 
Q 3481 -459 3084 -895 
Q 2688 -1331 1869 -1331 
Q 1566 -1331 1297 -1286 
Q 1028 -1241 775 -1147 
L 775 -588 
Q 1028 -725 1275 -790 
Q 1522 -856 1778 -856 
Q 2344 -856 2625 -561 
Q 2906 -266 2906 331 
L 2906 616 
Q 2728 306 2450 153 
Q 2172 0 1784 0 
Q 1141 0 747 490 
Q 353 981 353 1791 
Q 353 2603 747 3093 
Q 1141 3584 1784 3584 
Q 2172 3584 2450 3431 
Q 2728 3278 2906 2969 
L 2906 3500 
L 3481 3500 
L 3481 434 
z
" transform="scale(0.015625)"/>
      <path id="DejaVuSans-63" d="M 3122 3366 
L 3122 2828 
Q 2878 2963 2633 3030 
Q 2388 3097 2138 3097 
Q 1578 3097 1268 2742 
Q 959 2388 959 1747 
Q 959 1106 1268 751 
Q 1578 397 2138 397 
Q 2388 397 2633 464 
Q 2878 531 3122 666 
L 3122 134 
Q 2881 22 2623 -34 
Q 2366 -91 2075 -91 
Q 1284 -91 818 406 
Q 353 903 353 1747 
Q 353 2603 823 3093 
Q 1294 3584 2113 3584 
Q 2378 3584 2631 3529 
Q 2884 3475 3122 3366 
z
" transform="scale(0.015625)"/>
     </defs>
     <use xlink:href="#DejaVuSans-50"/>
     <use xlink:href="#DejaVuSans-61" transform="translate(55.802734 0)"/>
     <use xlink:href="#DejaVuSans-6e" transform="translate(117.082031 0)"/>
     <use xlink:href="#DejaVuSans-65" transform="translate(180.460938 0)"/>
     <use xlink:href="#DejaVuSans-6c" transform="translate(241.984375 0)"/>
     <use xlink:href="#DejaVuSans-20" transform="translate(269.767578 0)"/>
     <use xlink:href="#DejaVuSans-42" transform="translate(301.554688 0)"/>
     <use xlink:href="#DejaVuSans-3a" transform="translate(370.158203 0)"/>
     <use xlink:href="#DejaVuSans-20" transform="translate(403.849609 0)"/>
     <use xlink:href="#DejaVuSans-70" transform="translate(435.636719 0)"/>
     <use xlink:href="#DejaVuSans-61" transform="translate(499.113281 0)"/>
     <use xlink:href="#DejaVuSans-69" transform="translate(560.392578 0)"/>
     <use xlink:href="#DejaVuSans-72" transform="translate(588.175781 0)"/>
     <use xlink:href="#DejaVuSans-2d" transform="translate(622.914062 0)"/>
     <use xlink:href="#DejaVuSans-64" transform="translate(658.998047 0)"/>
     <use xlink:href="#DejaVuSans-69" transform="translate(722.474609 0)"/>
     <use xlink:href="#DejaVuSans-66" transform="translate(750.257812 0)"/>
     <use xlink:href="#DejaVuSans-66" transform="translate(785.462891 0)"/>
     <use xlink:href="#DejaVuSans-20" transform="translate(820.667969 0)"/>
     <use xlink:href="#DejaVuSans-77" transform="translate(852.455078 0)"/>
     <use xlink:href="#DejaVuSans-69" transform="translate(934.242188 0)"/>
     <use xlink:href="#DejaVuSans-74" transform="translate(962.025391 0)"/>
     <use xlink:href="#DejaVuSans-68" transform="translate(1001.234375 0)"/>
     <use xlink:href="#DejaVuSans-20" transform="translate(1064.613281 0)"/>
     <use xlink:href="#DejaVuSans-73" transform="translate(1096.400391 0)"/>
     <use xlink:href="#DejaVuSans-69" transform="translate(1148.5 0)"/>
     <use xlink:href="#DejaVuSans-67" transform="translate(1176.283203 0)"/>
     <use xlink:href="#DejaVuSans-6e" transform="translate(1239.759766 0)"/>
     <use xlink:href="#DejaVuSans-69" transform="translate(1303.138672 0)"/>
     <use xlink:href="#DejaVuSans-66" transform="translate(1330.921875 0)"/>
     <use xlink:href="#DejaVuSans-69" transform="translate(1366.126953 0)"/>
     <use xlink:href="#DejaVuSans-63" transform="translate(1393.910156 0)"/>
     <use xlink:href="#DejaVuSans-61" transform="translate(1448.890625 0)"/>
     <use xlink:href="#DejaVuSans-6e" transform="translate(1510.169922 0)"/>
     <use xlink:href="#DejaVuSans-63" transform="translate(1573.548828 0)"/>
     <use xlink:href="#DejaVuSans-65" transform="translate(1628.529297 0)"/>
     <use xlink:href="#DejaVuSans-20" transform="translate(1690.052734 0)"/>
     <use xlink:href="#DejaVuSans-64" transform="translate(1721.839844 0)"/>
     <use xlink:href="#DejaVuSans-6f" transform="translate(1785.316406 0)"/>
     <use xlink:href="#DejaVuSans-74" transform="translate(1846.498047 0)"/>
     <use xlink:href="#DejaVuSans-73" transform="translate(1885.707031 0)"/>
    </g>
   </g>
   <g id="legend_2">
    <g id="line2d_34">
     <path d="M 79.2 250.374437 
L 89.2 250.374437 
L 99.2 250.374437 
" style="fill: none; stroke: #d62728; stroke-width: 2.2; stroke-linecap: square"/>
    </g>
    <g id="text_31">
     <!-- (A→B − B→A) -->
     <g transform="translate(107.2 253.874437) scale(0.1 -0.1)">
      <use xlink:href="#DejaVuSans-28"/>
      <use xlink:href="#DejaVuSans-41" transform="translate(39.013672 0)"/>
      <use xlink:href="#DejaVuSans-2192" transform="translate(107.421875 0)"/>
      <use xlink:href="#DejaVuSans-42" transform="translate(191.210938 0)"/>
      <use xlink:href="#DejaVuSans-20" transform="translate(259.814453 0)"/>
      <use xlink:href="#DejaVuSans-2212" transform="translate(291.601562 0)"/>
      <use xlink:href="#DejaVuSans-20" transform="translate(375.390625 0)"/>
      <use xlink:href="#DejaVuSans-42" transform="translate(407.177734 0)"/>
      <use xlink:href="#DejaVuSans-2192" transform="translate(475.78125 0)"/>
      <use xlink:href="#DejaVuSans-41" transform="translate(559.570312 0)"/>
      <use xlink:href="#DejaVuSans-29" transform="translate(627.978516 0)"/>
     </g>
    </g>
    <g id="line2d_35">
     <g>
      <use xlink:href="#mb847b513b0" x="89.2" y="265.052563" style="stroke: #000000"/>
     </g>
    </g>
    <g id="text_32">
     <!-- p&lt;0.05 (one-sided) -->
     <g transform="translate(107.2 268.552563) scale(0.1 -0.1)">
      <defs>
       <path id="DejaVuSans-3c" d="M 4684 3150 
L 1459 2003 
L 4684 863 
L 4684 294 
L 678 1747 
L 678 2266 
L 4684 3719 
L 4684 3150 
z
" transform="scale(0.015625)"/>
      </defs>
      <use xlink:href="#DejaVuSans-70"/>
      <use xlink:href="#DejaVuSans-3c" transform="translate(63.476562 0)"/>
      <use xlink:href="#DejaVuSans-30" transform="translate(147.265625 0)"/>
      <use xlink:href="#DejaVuSans-2e" transform="translate(210.888672 0)"/>
      <use xlink:href="#DejaVuSans-30" transform="translate(242.675781 0)"/>
      <use xlink:href="#DejaVuSans-35" transform="translate(306.298828 0)"/>
      <use xlink:href="#DejaVuSans-20" transform="translate(369.921875 0)"/>
      <use xlink:href="#DejaVuSans-28" transform="translate(401.708984 0)"/>
      <use xlink:href="#DejaVuSans-6f" transform="translate(440.722656 0)"/>
      <use xlink:href="#DejaVuSans-6e" transform="translate(501.904297 0)"/>
      <use xlink:href="#DejaVuSans-65" transform="translate(565.283203 0)"/>
      <use xlink:href="#DejaVuSans-2d" transform="translate(626.806641 0)"/>
      <use xlink:href="#DejaVuSans-73" transform="translate(662.890625 0)"/>
      <use xlink:href="#DejaVuSans-69" transform="translate(714.990234 0)"/>
      <use xlink:href="#DejaVuSans-64" transform="translate(742.773438 0)"/>
      <use xlink:href="#DejaVuSans-65" transform="translate(806.25 0)"/>
      <use xlink:href="#DejaVuSans-64" transform="translate(867.773438 0)"/>
      <use xlink:href="#DejaVuSans-29" transform="translate(931.25 0)"/>
     </g>
    </g>
   </g>
  </g>
  <g id="axes_3">
   <g id="patch_14">
    <path d="M 70.2 499.824 
L 505.44 499.824 
L 505.44 383.994 
L 70.2 383.994 
z
" style="fill: #ffffff"/>
   </g>
   <g id="matplotlib.axis_5">
    <g id="xtick_13">
     <g id="line2d_36">
      <g>
       <use xlink:href="#m67bad4a098" x="87.985286" y="499.824" style="stroke: #000000; stroke-width: 0.8"/>
      </g>
     </g>
     <g id="text_33">
      <!-- −200 -->
      <g transform="translate(74.251693 514.422438) scale(0.1 -0.1)">
       <use xlink:href="#DejaVuSans-2212"/>
       <use xlink:href="#DejaVuSans-32" transform="translate(83.789062 0)"/>
       <use xlink:href="#DejaVuSans-30" transform="translate(147.412109 0)"/>
       <use xlink:href="#DejaVuSans-30" transform="translate(211.035156 0)"/>
      </g>
     </g>
    </g>
    <g id="xtick_14">
     <g id="line2d_37">
      <g>
       <use xlink:href="#m67bad4a098" x="167.91917" y="499.824" style="stroke: #000000; stroke-width: 0.8"/>
      </g>
     </g>
     <g id="text_34">
      <!-- 0 -->
      <g transform="translate(164.73792 514.422438) scale(0.1 -0.1)">
       <use xlink:href="#DejaVuSans-30"/>
      </g>
     </g>
    </g>
    <g id="xtick_15">
     <g id="line2d_38">
      <g>
       <use xlink:href="#m67bad4a098" x="247.853053" y="499.824" style="stroke: #000000; stroke-width: 0.8"/>
      </g>
     </g>
     <g id="text_35">
      <!-- 200 -->
      <g transform="translate(238.309303 514.422438) scale(0.1 -0.1)">
       <use xlink:href="#DejaVuSans-32"/>
       <use xlink:href="#DejaVuSans-30" transform="translate(63.623047 0)"/>
       <use xlink:href="#DejaVuSans-30" transform="translate(127.246094 0)"/>
      </g>
     </g>
    </g>
    <g id="xtick_16">
     <g id="line2d_39">
      <g>
       <use xlink:href="#m67bad4a098" x="327.786937" y="499.824" style="stroke: #000000; stroke-width: 0.8"/>
      </g>
     </g>
     <g id="text_36">
      <!-- 400 -->
      <g transform="translate(318.243187 514.422438) scale(0.1 -0.1)">
       <use xlink:href="#DejaVuSans-34"/>
       <use xlink:href="#DejaVuSans-30" transform="translate(63.623047 0)"/>
       <use xlink:href="#DejaVuSans-30" transform="translate(127.246094 0)"/>
      </g>
     </g>
    </g>
    <g id="xtick_17">
     <g id="line2d_40">
      <g>
       <use xlink:href="#m67bad4a098" x="407.720821" y="499.824" style="stroke: #000000; stroke-width: 0.8"/>
      </g>
     </g>
     <g id="text_37">
      <!-- 600 -->
      <g transform="translate(398.177071 514.422438) scale(0.1 -0.1)">
       <use xlink:href="#DejaVuSans-36"/>
       <use xlink:href="#DejaVuSans-30" transform="translate(63.623047 0)"/>
       <use xlink:href="#DejaVuSans-30" transform="translate(127.246094 0)"/>
      </g>
     </g>
    </g>
    <g id="xtick_18">
     <g id="line2d_41">
      <g>
       <use xlink:href="#m67bad4a098" x="487.654704" y="499.824" style="stroke: #000000; stroke-width: 0.8"/>
      </g>
     </g>
     <g id="text_38">
      <!-- 800 -->
      <g transform="translate(478.110954 514.422438) scale(0.1 -0.1)">
       <use xlink:href="#DejaVuSans-38"/>
       <use xlink:href="#DejaVuSans-30" transform="translate(63.623047 0)"/>
       <use xlink:href="#DejaVuSans-30" transform="translate(127.246094 0)"/>
      </g>
     </g>
    </g>
    <g id="text_39">
     <!-- Time (ms) -->
     <g transform="translate(262.620781 528.100563) scale(0.1 -0.1)">
      <defs>
       <path id="DejaVuSans-54" d="M -19 4666 
L 3928 4666 
L 3928 4134 
L 2272 4134 
L 2272 0 
L 1638 0 
L 1638 4134 
L -19 4134 
L -19 4666 
z
" transform="scale(0.015625)"/>
       <path id="DejaVuSans-6d" d="M 3328 2828 
Q 3544 3216 3844 3400 
Q 4144 3584 4550 3584 
Q 5097 3584 5394 3201 
Q 5691 2819 5691 2113 
L 5691 0 
L 5113 0 
L 5113 2094 
Q 5113 2597 4934 2840 
Q 4756 3084 4391 3084 
Q 3944 3084 3684 2787 
Q 3425 2491 3425 1978 
L 3425 0 
L 2847 0 
L 2847 2094 
Q 2847 2600 2669 2842 
Q 2491 3084 2119 3084 
Q 1678 3084 1418 2786 
Q 1159 2488 1159 1978 
L 1159 0 
L 581 0 
L 581 3500 
L 1159 3500 
L 1159 2956 
Q 1356 3278 1631 3431 
Q 1906 3584 2284 3584 
Q 2666 3584 2933 3390 
Q 3200 3197 3328 2828 
z
" transform="scale(0.015625)"/>
      </defs>
      <use xlink:href="#DejaVuSans-54"/>
      <use xlink:href="#DejaVuSans-69" transform="translate(57.958984 0)"/>
      <use xlink:href="#DejaVuSans-6d" transform="translate(85.742188 0)"/>
      <use xlink:href="#DejaVuSans-65" transform="translate(183.154297 0)"/>
      <use xlink:href="#DejaVuSans-20" transform="translate(244.677734 0)"/>
      <use xlink:href="#DejaVuSans-28" transform="translate(276.464844 0)"/>
      <use xlink:href="#DejaVuSans-6d" transform="translate(315.478516 0)"/>
      <use xlink:href="#DejaVuSans-73" transform="translate(412.890625 0)"/>
      <use xlink:href="#DejaVuSans-29" transform="translate(464.990234 0)"/>
     </g>
    </g>
   </g>
   <g id="matplotlib.axis_6">
    <g id="ytick_11">
     <g id="line2d_42">
      <g>
       <use xlink:href="#me307b4018d" x="70.2" y="494.826377" style="stroke: #000000; stroke-width: 0.8"/>
      </g>
     </g>
     <g id="text_40">
      <!-- −2 -->
      <g transform="translate(48.457813 498.625595) scale(0.1 -0.1)">
       <use xlink:href="#DejaVuSans-2212"/>
       <use xlink:href="#DejaVuSans-32" transform="translate(83.789062 0)"/>
      </g>
     </g>
    </g>
    <g id="ytick_12">
     <g id="line2d_43">
      <g>
       <use xlink:href="#me307b4018d" x="70.2" y="471.00102" style="stroke: #000000; stroke-width: 0.8"/>
      </g>
     </g>
     <g id="text_41">
      <!-- −1 -->
      <g transform="translate(48.457813 474.800239) scale(0.1 -0.1)">
       <use xlink:href="#DejaVuSans-2212"/>
       <use xlink:href="#DejaVuSans-31" transform="translate(83.789062 0)"/>
      </g>
     </g>
    </g>
    <g id="ytick_13">
     <g id="line2d_44">
      <g>
       <use xlink:href="#me307b4018d" x="70.2" y="447.175663" style="stroke: #000000; stroke-width: 0.8"/>
      </g>
     </g>
     <g id="text_42">
      <!-- 0 -->
      <g transform="translate(56.8375 450.974882) scale(0.1 -0.1)">
       <use xlink:href="#DejaVuSans-30"/>
      </g>
     </g>
    </g>
    <g id="ytick_14">
     <g id="line2d_45">
      <g>
       <use xlink:href="#me307b4018d" x="70.2" y="423.350306" style="stroke: #000000; stroke-width: 0.8"/>
      </g>
     </g>
     <g id="text_43">
      <!-- 1 -->
      <g transform="translate(56.8375 427.149525) scale(0.1 -0.1)">
       <use xlink:href="#DejaVuSans-31"/>
      </g>
     </g>
    </g>
    <g id="ytick_15">
     <g id="line2d_46">
      <g>
       <use xlink:href="#me307b4018d" x="70.2" y="399.52495" style="stroke: #000000; stroke-width: 0.8"/>
      </g>
     </g>
     <g id="text_44">
      <!-- 2 -->
      <g transform="translate(56.8375 403.324168) scale(0.1 -0.1)">
       <use xlink:href="#DejaVuSans-32"/>
      </g>
     </g>
    </g>
    <g id="text_45">
     <!-- Z (σ from null) -->
     <g transform="translate(42.378125 477.919938) rotate(-90) scale(0.1 -0.1)">
      <defs>
       <path id="DejaVuSans-5a" d="M 359 4666 
L 4025 4666 
L 4025 4184 
L 1075 531 
L 4097 531 
L 4097 0 
L 288 0 
L 288 481 
L 3238 4134 
L 359 4134 
L 359 4666 
z
" transform="scale(0.015625)"/>
      </defs>
      <use xlink:href="#DejaVuSans-5a"/>
      <use xlink:href="#DejaVuSans-20" transform="translate(68.505859 0)"/>
      <use xlink:href="#DejaVuSans-28" transform="translate(100.292969 0)"/>
      <use xlink:href="#DejaVuSans-3c3" transform="translate(139.306641 0)"/>
      <use xlink:href="#DejaVuSans-20" transform="translate(202.685547 0)"/>
      <use xlink:href="#DejaVuSans-66" transform="translate(234.472656 0)"/>
      <use xlink:href="#DejaVuSans-72" transform="translate(269.677734 0)"/>
      <use xlink:href="#DejaVuSans-6f" transform="translate(308.541016 0)"/>
      <use xlink:href="#DejaVuSans-6d" transform="translate(369.722656 0)"/>
      <use xlink:href="#DejaVuSans-20" transform="translate(467.134766 0)"/>
      <use xlink:href="#DejaVuSans-6e" transform="translate(498.921875 0)"/>
      <use xlink:href="#DejaVuSans-75" transform="translate(562.300781 0)"/>
      <use xlink:href="#DejaVuSans-6c" transform="translate(625.679688 0)"/>
      <use xlink:href="#DejaVuSans-6c" transform="translate(653.462891 0)"/>
      <use xlink:href="#DejaVuSans-29" transform="translate(681.246094 0)"/>
     </g>
    </g>
   </g>
   <g id="line2d_47">
    <path d="M 167.91917 499.824 
L 167.91917 383.994 
" clip-path="url(#pa386b33cb7)" style="fill: none; stroke-dasharray: 2.96,1.28; stroke-dashoffset: 0; stroke: #000000; stroke-width: 0.8"/>
   </g>
   <g id="line2d_48">
    <path d="M 89.983636 437.914833 
L 93.980327 434.003969 
L 97.977023 463.594023 
L 101.973713 480.305222 
L 105.97041 451.276388 
L 109.967106 417.517491 
L 113.963796 429.905735 
L 117.960493 466.997506 
L 121.957186 460.301638 
L 125.953882 430.155836 
L 129.950576 417.775811 
L 133.947269 458.504723 
L 137.943962 458.852006 
L 141.940659 443.132781 
L 145.937352 466.107674 
L 149.934045 441.129947 
L 153.93074 429.45299 
L 157.927434 433.644807 
L 161.924129 468.261401 
L 165.920823 443.944025 
L 169.917517 472.498317 
L 173.914211 421.766437 
L 177.910906 445.75615 
L 181.9076 493.115662 
L 185.904294 400.002364 
L 189.900988 408.25196 
L 193.897681 436.141758 
L 197.894377 444.024307 
L 201.891071 464.880965 
L 205.887764 458.635303 
L 209.884457 466.891522 
L 213.881154 421.470117 
L 217.877847 417.027542 
L 221.874543 441.984254 
L 225.871234 457.094938 
L 229.86793 452.722951 
L 233.864626 449.9259 
L 237.861317 485.641242 
L 241.858013 413.830022 
L 245.854704 446.33446 
L 249.8514 445.338092 
L 253.848096 445.83543 
L 257.844787 457.716137 
L 261.841483 444.504822 
L 265.838179 453.225529 
L 269.83487 489.288152 
L 273.83156 389.739293 
L 277.828262 429.124225 
L 281.824953 480.464284 
L 285.821643 456.348622 
L 289.818345 409.147878 
L 293.815036 454.712688 
L 297.811726 441.944924 
L 301.808428 430.317054 
L 305.805119 470.592387 
L 309.801809 456.770014 
L 313.798511 447.938988 
L 317.795202 435.616717 
L 321.791892 417.454117 
L 325.788594 418.958389 
L 329.785285 454.119033 
L 333.781975 436.02073 
L 337.778677 396.422695 
L 341.775368 450.427091 
L 345.772058 468.250296 
L 349.76876 492.93371 
L 353.765451 414.230955 
L 357.762141 452.85795 
L 361.758843 475.926521 
L 365.755534 457.504038 
L 369.752224 436.537455 
L 373.748914 446.472332 
L 377.745605 429.581506 
L 381.742319 454.336042 
L 385.739009 426.678917 
L 389.7357 441.259212 
L 393.73239 467.90831 
L 397.72908 424.836687 
L 401.725771 434.526358 
L 405.722485 397.481362 
L 409.719175 423.51276 
L 413.715866 438.152178 
L 417.712556 427.992459 
L 421.709246 427.482593 
L 425.705937 467.866221 
L 429.702627 440.234855 
L 433.699341 408.78406 
L 437.696032 411.281157 
L 441.692722 421.844112 
L 445.689412 407.020817 
L 449.686103 457.155002 
L 453.682793 478.520734 
L 457.679507 489.149321 
L 461.676198 488.411676 
L 465.672888 434.98728 
L 469.669578 469.698075 
L 473.666269 450.926801 
L 477.662959 412.626768 
L 481.659673 484.015687 
L 485.656364 406.209391 
" clip-path="url(#pa386b33cb7)" style="fill: none; stroke: #1f77b4; stroke-width: 2; stroke-linecap: square"/>
   </g>
   <g id="line2d_49">
    <path d="M 89.983636 466.35879 
L 93.980327 435.398653 
L 97.977023 473.960785 
L 101.973713 468.411578 
L 105.97041 441.523621 
L 109.967106 442.431435 
L 113.963796 474.723565 
L 117.960493 461.887031 
L 121.957186 453.900861 
L 125.953882 447.452327 
L 129.950576 456.397735 
L 133.947269 452.03282 
L 137.943962 409.85332 
L 141.940659 450.487779 
L 145.937352 420.197017 
L 149.934045 431.872704 
L 153.93074 490.369369 
L 157.927434 439.019464 
L 161.924129 427.052478 
L 165.920823 448.175795 
L 169.917517 428.34942 
L 173.914211 457.686862 
L 177.910906 436.769799 
L 181.9076 404.581744 
L 185.904294 462.140906 
L 189.900988 411.448449 
L 193.897681 462.624137 
L 197.894377 447.079531 
L 201.891071 436.347495 
L 205.887764 416.232182 
L 209.884457 469.336653 
L 213.881154 466.121377 
L 217.877847 447.494888 
L 221.874543 462.648905 
L 225.871234 443.109488 
L 229.86793 473.656557 
L 233.864626 466.201462 
L 237.861317 442.032749 
L 241.858013 398.447747 
L 245.854704 443.265884 
L 249.8514 436.730371 
L 253.848096 438.919111 
L 257.844787 444.46063 
L 261.841483 463.46355 
L 265.838179 448.797095 
L 269.83487 471.847296 
L 273.83156 404.881649 
L 277.828262 467.387987 
L 281.824953 475.345646 
L 285.821643 449.031853 
L 289.818345 438.178163 
L 293.815036 473.722809 
L 297.811726 494.559 
L 301.808428 441.300868 
L 305.805119 442.526568 
L 309.801809 426.141938 
L 313.798511 421.774239 
L 317.795202 407.934846 
L 321.791892 463.927718 
L 325.788594 450.090225 
L 329.785285 419.19575 
L 333.781975 444.165754 
L 337.778677 481.60287 
L 341.775368 454.265587 
L 345.772058 400.693839 
L 349.76876 446.546122 
L 353.765451 431.9817 
L 357.762141 432.882975 
L 361.758843 481.215796 
L 365.755534 479.341203 
L 369.752224 447.685931 
L 373.748914 471.706803 
L 377.745605 445.255778 
L 381.742319 431.852373 
L 385.739009 453.838014 
L 389.7357 464.343193 
L 393.73239 459.599101 
L 397.72908 428.019564 
L 401.725771 436.768767 
L 405.722485 411.794409 
L 409.719175 481.527694 
L 413.715866 431.231499 
L 417.712556 389.259 
L 421.709246 429.997075 
L 425.705937 461.937987 
L 429.702627 476.44695 
L 433.699341 420.83313 
L 437.696032 461.237339 
L 441.692722 446.867689 
L 445.689412 475.636699 
L 449.686103 487.02849 
L 453.682793 470.553247 
L 457.679507 455.066565 
L 461.676198 441.799975 
L 465.672888 450.051846 
L 469.669578 423.594024 
L 473.666269 457.717264 
L 477.662959 431.535766 
L 481.659673 431.832672 
L 485.656364 461.244942 
" clip-path="url(#pa386b33cb7)" style="fill: none; stroke: #ff7f0e; stroke-width: 2; stroke-linecap: square"/>
   </g>
   <g id="patch_15">
    <path d="M 70.2 499.824 
L 70.2 383.994 
" style="fill: none; stroke: #000000; stroke-width: 0.8; stroke-linejoin: miter; stroke-linecap: square"/>
   </g>
   <g id="patch_16">
    <path d="M 505.44 499.824 
L 505.44 383.994 
" style="fill: none; stroke: #000000; stroke-width: 0.8; stroke-linejoin: miter; stroke-linecap: square"/>
   </g>
   <g id="patch_17">
    <path d="M 70.2 499.824 
L 505.44 499.824 
" style="fill: none; stroke: #000000; stroke-width: 0.8; stroke-linejoin: miter; stroke-linecap: square"/>
   </g>
   <g id="patch_18">
    <path d="M 70.2 383.994 
L 505.44 383.994 
" style="fill: none; stroke: #000000; stroke-width: 0.8; stroke-linejoin: miter; stroke-linecap: square"/>
   </g>
   <g id="text_46">
    <!-- Panel C: evidence strength vs null -->
    <g transform="translate(185.80125 377.994) scale(0.12 -0.12)">
     <defs>
      <path id="DejaVuSans-43" d="M 4122 4306 
L 4122 3641 
Q 3803 3938 3442 4084 
Q 3081 4231 2675 4231 
Q 1875 4231 1450 3742 
Q 1025 3253 1025 2328 
Q 1025 1406 1450 917 
Q 1875 428 2675 428 
Q 3081 428 3442 575 
Q 3803 722 4122 1019 
L 4122 359 
Q 3791 134 3420 21 
Q 3050 -91 2638 -91 
Q 1578 -91 968 557 
Q 359 1206 359 2328 
Q 359 3453 968 4101 
Q 1578 4750 2638 4750 
Q 3056 4750 3426 4639 
Q 3797 4528 4122 4306 
z
" transform="scale(0.015625)"/>
     </defs>
     <use xlink:href="#DejaVuSans-50"/>
     <use xlink:href="#DejaVuSans-61" transform="translate(55.802734 0)"/>
     <use xlink:href="#DejaVuSans-6e" transform="translate(117.082031 0)"/>
     <use xlink:href="#DejaVuSans-65" transform="translate(180.460938 0)"/>
     <use xlink:href="#DejaVuSans-6c" transform="translate(241.984375 0)"/>
     <use xlink:href="#DejaVuSans-20" transform="translate(269.767578 0)"/>
     <use xlink:href="#DejaVuSans-43" transform="translate(301.554688 0)"/>
     <use xlink:href="#DejaVuSans-3a" transform="translate(371.378906 0)"/>
     <use xlink:href="#DejaVuSans-20" transform="translate(405.070312 0)"/>
     <use xlink:href="#DejaVuSans-65" transform="translate(436.857422 0)"/>
     <use xlink:href="#DejaVuSans-76" transform="translate(498.380859 0)"/>
     <use xlink:href="#DejaVuSans-69" transform="translate(557.560547 0)"/>
     <use xlink:href="#DejaVuSans-64" transform="translate(585.34375 0)"/>
     <use xlink:href="#DejaVuSans-65" transform="translate(648.820312 0)"/>
     <use xlink:href="#DejaVuSans-6e" transform="translate(710.34375 0)"/>
     <use xlink:href="#DejaVuSans-63" transform="translate(773.722656 0)"/>
     <use xlink:href="#DejaVuSans-65" transform="translate(828.703125 0)"/>
     <use xlink:href="#DejaVuSans-20" transform="translate(890.226562 0)"/>
     <use xlink:href="#DejaVuSans-73" transform="translate(922.013672 0)"/>
     <use xlink:href="#DejaVuSans-74" transform="translate(974.113281 0)"/>
     <use xlink:href="#DejaVuSans-72" transform="translate(1013.322266 0)"/>
     <use xlink:href="#DejaVuSans-65" transform="translate(1052.185547 0)"/>
     <use xlink:href="#DejaVuSans-6e" transform="translate(1113.708984 0)"/>
     <use xlink:href="#DejaVuSans-67" transform="translate(1177.087891 0)"/>
     <use xlink:href="#DejaVuSans-74" transform="translate(1240.564453 0)"/>
     <use xlink:href="#DejaVuSans-68" transform="translate(1279.773438 0)"/>
     <use xlink:href="#DejaVuSans-20" transform="translate(1343.152344 0)"/>
     <use xlink:href="#DejaVuSans-76" transform="translate(1374.939453 0)"/>
     <use xlink:href="#DejaVuSans-73" transform="translate(1434.119141 0)"/>
     <use xlink:href="#DejaVuSans-20" transform="translate(1486.21875 0)"/>
     <use xlink:href="#DejaVuSans-6e" transform="translate(1518.005859 0)"/>
     <use xlink:href="#DejaVuSans-75" transform="translate(1581.384766 0)"/>
     <use xlink:href="#DejaVuSans-6c" transform="translate(1644.763672 0)"/>
     <use xlink:href="#DejaVuSans-6c" transform="translate(1672.546875 0)"/>
    </g>
   </g>
   <g id="legend_3">
    <g id="line2d_50">
     <path d="M 79.2 397.092438 
L 89.2 397.092438 
L 99.2 397.092438 
" style="fill: none; stroke: #1f77b4; stroke-width: 2; stroke-linecap: square"/>
    </g>
    <g id="text_47">
     <!-- z(MFEF→MLIP) -->
     <g transform="translate(107.2 400.592438) scale(0.1 -0.1)">
      <defs>
       <path id="DejaVuSans-7a" d="M 353 3500 
L 3084 3500 
L 3084 2975 
L 922 459 
L 3084 459 
L 3084 0 
L 275 0 
L 275 525 
L 2438 3041 
L 353 3041 
L 353 3500 
z
" transform="scale(0.015625)"/>
      </defs>
      <use xlink:href="#DejaVuSans-7a"/>
      <use xlink:href="#DejaVuSans-28" transform="translate(52.490234 0)"/>
      <use xlink:href="#DejaVuSans-4d" transform="translate(91.503906 0)"/>
      <use xlink:href="#DejaVuSans-46" transform="translate(177.783203 0)"/>
      <use xlink:href="#DejaVuSans-45" transform="translate(235.302734 0)"/>
      <use xlink:href="#DejaVuSans-46" transform="translate(298.486328 0)"/>
      <use xlink:href="#DejaVuSans-2192" transform="translate(356.005859 0)"/>
      <use xlink:href="#DejaVuSans-4d" transform="translate(439.794922 0)"/>
      <use xlink:href="#DejaVuSans-4c" transform="translate(526.074219 0)"/>
      <use xlink:href="#DejaVuSans-49" transform="translate(581.787109 0)"/>
      <use xlink:href="#DejaVuSans-50" transform="translate(611.279297 0)"/>
      <use xlink:href="#DejaVuSans-29" transform="translate(671.582031 0)"/>
     </g>
    </g>
    <g id="line2d_51">
     <path d="M 79.2 411.770563 
L 89.2 411.770563 
L 99.2 411.770563 
" style="fill: none; stroke: #ff7f0e; stroke-width: 2; stroke-linecap: square"/>
    </g>
    <g id="text_48">
     <!-- z(MLIP→MFEF) -->
     <g transform="translate(107.2 415.270563) scale(0.1 -0.1)">
      <use xlink:href="#DejaVuSans-7a"/>
      <use xlink:href="#DejaVuSans-28" transform="translate(52.490234 0)"/>
      <use xlink:href="#DejaVuSans-4d" transform="translate(91.503906 0)"/>
      <use xlink:href="#DejaVuSans-4c" transform="translate(177.783203 0)"/>
      <use xlink:href="#DejaVuSans-49" transform="translate(233.496094 0)"/>
      <use xlink:href="#DejaVuSans-50" transform="translate(262.988281 0)"/>
      <use xlink:href="#DejaVuSans-2192" transform="translate(323.291016 0)"/>
      <use xlink:href="#DejaVuSans-4d" transform="translate(407.080078 0)"/>
      <use xlink:href="#DejaVuSans-46" transform="translate(493.359375 0)"/>
      <use xlink:href="#DejaVuSans-45" transform="translate(550.878906 0)"/>
      <use xlink:href="#DejaVuSans-46" transform="translate(614.0625 0)"/>
      <use xlink:href="#DejaVuSans-29" transform="translate(671.582031 0)"/>
     </g>
    </g>
   </g>
  </g>
 </g>
 <defs>
  <clipPath id="p222a664d74">
   <rect x="70.2" y="67.392" width="435.24" height="138.996"/>
  </clipPath>
  <clipPath id="p2e2c4c9b2c">
   <rect x="70.2" y="237.276" width="435.24" height="115.83"/>
  </clipPath>
  <clipPath id="pa386b33cb7">
   <rect x="70.2" y="383.994" width="435.24" height="115.83"/>
  </clipPath>
 </defs>
</svg>
