<?xml version="1.0" encoding="utf-8" standalone="no"?>
<!DOCTYPE svg PUBLIC "-//W3C//DTD SVG 1.1//EN"
  "http://www.w3.org/Graphics/SVG/1.1/DTD/svg11.dtd">
<svg xmlns:xlink="http://www.w3.org/1999/xlink" width="856.8pt" height="453.6pt" viewBox="0 0 856.8 453.6" xmlns="http://www.w3.org/2000/svg" version="1.1">
 <metadata>
  <rdf:RDF xmlns:dc="http://purl.org/dc/elements/1.1/" xmlns:cc="http://creativecommons.org/ns#" xmlns:rdf="http://www.w3.org/1999/02/22-rdf-syntax-ns#">
   <cc:Work>
    <dc:type rdf:resource="http://purl.org/dc/dcmitype/StillImage"/>
    <dc:date>2026-01-28T18:11:50.490755</dc:date>
    <dc:format>image/svg+xml</dc:format>
    <dc:creator>
     <cc:Agent>
      <dc:title>Matplotlib v3.9.4, https://matplotlib.org/</dc:title>
     </cc:Agent>
    </dc:creator>
   </cc:Work>
  </rdf:RDF>
 </metadata>
 <defs>
  <style type="text/css">*{stroke-linejoin: round; stroke-linecap: butt}</style>
 </defs>
 <g id="figure_1">
  <g id="patch_1">
   <path d="M 0 453.6 
L 856.8 453.6 
L 856.8 0 
L 0 0 
z
" style="fill: #ffffff"/>
  </g>
  <g id="axes_1">
   <g id="patch_2">
    <path d="M 100.8 396 
L 820.8 396 
L 820.8 36 
L 100.8 36 
z
" style="fill: #ffffff"/>
   </g>
   <g id="PolyCollection_1">
    <path d="M -67.200003 125.669292 
L -67.200003 275.322052 
L -55.200001 281.356148 
L -43.200003 282.506984 
L -31.200001 273.363715 
L -19.199999 285.58376 
L -7.200002 298.056741 
L 4.8 336.165516 
L 16.800002 339.792773 
L 28.8 348.433076 
L 40.800002 341.862069 
L 52.800004 362.707262 
L 64.800001 353.243541 
L 76.800001 343.803181 
L 88.800001 317.123663 
L 100.8 314.014523 
L 112.8 326.957101 
L 124.8 330.860084 
L 136.8 313.698304 
L 148.799999 302.415635 
L 160.8 314.092443 
L 172.8 341.944965 
L 184.8 343.853972 
L 196.8 330.795029 
L 208.8 335.049895 
L 220.8 362.702708 
L 232.8 357.250005 
L 244.8 359.603972 
L 256.8 320.342491 
L 268.8 330.824943 
L 280.8 329.120369 
L 292.800001 349.036646 
L 304.8 331.423155 
L 316.8 327.492705 
L 328.8 319.750552 
L 340.8 330.45748 
L 352.799999 337.939463 
L 364.799999 325.457219 
L 376.799999 330.41415 
L 388.799996 305.53528 
L 400.799998 310.084212 
L 412.8 301.907918 
L 424.799998 311.818661 
L 436.8 322.043752 
L 448.800002 334.322634 
L 460.799999 345.601143 
L 472.800001 372.171215 
L 484.800003 376.306107 
L 496.800001 379.636364 
L 508.800003 333.722739 
L 520.8 334.920293 
L 532.799997 321.255166 
L 544.800004 320.950913 
L 556.800001 313.998677 
L 568.799999 313.568331 
L 580.800005 328.809846 
L 592.800003 317.810465 
L 604.799991 308.110923 
L 616.799998 288.327756 
L 628.800004 287.986238 
L 640.799993 296.570368 
L 652.799999 298.758146 
L 664.800006 291.187716 
L 676.799994 285.666297 
L 688.800001 294.681208 
L 700.800007 298.944071 
L 712.799996 305.106948 
L 724.800002 310.270494 
L 736.800009 309.844601 
L 748.799997 307.133415 
L 760.799995 303.254478 
L 772.800001 279.802831 
L 784.799999 294.104843 
L 796.799996 316.446952 
L 808.800003 347.388598 
L 820.8 353.36342 
L 832.799989 322.069677 
L 844.799977 348.208452 
L 856.800001 324.167049 
L 868.800026 332.189029 
L 880.800014 304.867612 
L 892.800003 302.85635 
L 904.799991 301.880272 
L 916.79998 290.482505 
L 928.799986 295.769741 
L 940.800011 302.777396 
L 952.800017 314.108298 
L 964.800006 339.823862 
L 976.799994 334.314248 
L 988.799983 334.462197 
L 1000.799989 304.68512 
L 1012.800014 322.860609 
L 1024.80002 309.46626 
L 1036.800009 324.48368 
L 1048.799997 315.670351 
L 1060.799986 317.478454 
L 1072.799974 322.810989 
L 1084.799999 327.034305 
L 1096.800023 352.023008 
L 1108.800011 330.329587 
L 1120.8 329.954762 
L 1132.799989 322.163759 
L 1144.799977 322.224188 
L 1156.800001 327.715811 
L 1168.800026 325.345177 
L 1168.800026 289.697438 
L 1168.800026 289.697438 
L 1156.800001 260.316986 
L 1144.799977 249.808595 
L 1132.799989 235.263771 
L 1120.8 265.358919 
L 1108.800011 262.761993 
L 1096.800023 302.5905 
L 1084.799999 275.305617 
L 1072.799974 266.96391 
L 1060.799986 262.500807 
L 1048.799997 253.373293 
L 1036.800009 254.511671 
L 1024.80002 240.568185 
L 1012.800014 220.203981 
L 1000.799989 217.559538 
L 988.799983 238.058355 
L 976.799994 284.929973 
L 964.800006 257.360741 
L 952.800017 222.732726 
L 940.800011 202.817725 
L 928.799986 228.361923 
L 916.79998 197.086295 
L 904.799991 213.279392 
L 892.800003 195.391993 
L 880.800014 211.928406 
L 868.800026 244.38731 
L 856.800001 257.216549 
L 844.799977 298.249588 
L 832.799989 265.722663 
L 820.8 288.393134 
L 808.800003 288.808844 
L 796.799996 234.389042 
L 784.799999 214.744941 
L 772.800001 194.376129 
L 760.799995 236.134755 
L 748.799997 252.418675 
L 736.800009 266.090714 
L 724.800002 255.083706 
L 712.799996 233.91083 
L 700.800007 218.873662 
L 688.800001 232.945009 
L 676.799994 217.835011 
L 664.800006 199.872405 
L 652.799999 213.683151 
L 640.799993 154.269239 
L 628.800004 175.021877 
L 616.799998 168.967234 
L 604.799991 255.86505 
L 592.800003 243.96084 
L 580.800005 265.535988 
L 568.799999 239.577423 
L 556.800001 253.846424 
L 544.800004 243.395614 
L 532.799997 252.922827 
L 520.8 265.926781 
L 508.800003 273.666791 
L 496.800001 312.145455 
L 484.800003 308.023652 
L 472.800001 299.720482 
L 460.799999 286.552114 
L 448.800002 251.472732 
L 436.8 228.157929 
L 424.799998 217.28233 
L 412.8 222.266684 
L 400.799998 224.398046 
L 388.799996 205.703225 
L 376.799999 251.925557 
L 364.799999 264.404947 
L 352.799999 290.293103 
L 340.8 278.9651 
L 328.8 268.110854 
L 316.8 283.842294 
L 304.8 287.509708 
L 292.800001 309.191741 
L 280.8 220.552619 
L 268.8 222.342465 
L 256.8 218.497293 
L 244.8 312.930787 
L 232.8 307.264817 
L 220.8 318.564879 
L 208.8 298.46499 
L 196.8 283.485102 
L 184.8 282.83728 
L 172.8 270.891916 
L 160.8 205.277209 
L 148.799999 195.882344 
L 136.8 200.715434 
L 124.8 243.943823 
L 112.8 249.686162 
L 100.8 257.585192 
L 88.800001 274.906506 
L 76.800001 287.53002 
L 64.800001 287.85077 
L 52.800004 303.818545 
L 40.800002 294.807287 
L 28.8 288.488045 
L 16.800002 282.052442 
L 4.8 261.991189 
L -7.200002 176.440668 
L -19.199999 152.913408 
L -31.200001 96.902487 
L -43.200003 134.279733 
L -55.200001 100.521249 
L -67.200003 125.669292 
z
" clip-path="url(#p10312e5f8e)" style="fill: #7b4fa3; fill-opacity: 0.25"/>
   </g>
   <g id="PolyCollection_2">
    <path d="M -67.200003 245.729956 
L -67.200003 330.44353 
L -55.200001 327.928998 
L -43.200003 308.457347 
L -31.200001 295.006734 
L -19.199999 300.880985 
L -7.200002 313.774141 
L 4.8 307.086786 
L 16.800002 311.212525 
L 28.8 323.507914 
L 40.800002 330.151848 
L 52.800004 333.325699 
L 64.800001 329.39472 
L 76.800001 343.651406 
L 88.800001 324.057005 
L 100.8 314.095721 
L 112.8 317.64417 
L 124.8 336.628309 
L 136.8 358.402612 
L 148.799999 339.542786 
L 160.8 316.143273 
L 172.8 311.692635 
L 184.8 333.748856 
L 196.8 347.207344 
L 208.8 336.992082 
L 220.8 347.514292 
L 232.8 351.04219 
L 244.8 364.895291 
L 256.8 362.958342 
L 268.8 350.007253 
L 280.8 339.474447 
L 292.800001 307.139111 
L 304.8 325.241197 
L 316.8 328.601108 
L 328.8 353.991727 
L 340.8 336.42559 
L 352.799999 314.042354 
L 364.799999 309.60362 
L 376.799999 325.295177 
L 388.799996 345.027854 
L 400.799998 334.665703 
L 412.8 321.474466 
L 424.799998 309.498949 
L 436.8 309.359231 
L 448.800002 319.933548 
L 460.799999 322.651966 
L 472.800001 313.666332 
L 484.800003 302.58368 
L 496.800001 297.71025 
L 508.800003 306.190895 
L 520.8 302.664851 
L 532.799997 303.227164 
L 544.800004 287.794037 
L 556.800001 287.548453 
L 568.799999 277.717363 
L 580.800005 283.20099 
L 592.800003 274.117426 
L 604.799991 280.145465 
L 616.799998 289.061473 
L 628.800004 288.712934 
L 640.799993 291.328041 
L 652.799999 289.424272 
L 664.800006 279.15743 
L 676.799994 258.609147 
L 688.800001 255.480053 
L 700.800007 272.265303 
L 712.799996 298.981296 
L 724.800002 303.749784 
L 736.800009 296.712289 
L 748.799997 263.749268 
L 760.799995 254.674447 
L 772.800001 258.812739 
L 784.799999 288.594324 
L 796.799996 306.316807 
L 808.800003 319.096016 
L 820.8 318.297967 
L 832.799989 286.468224 
L 844.799977 293.130464 
L 856.800001 289.261935 
L 868.800026 329.417574 
L 880.800014 320.533697 
L 892.800003 326.611069 
L 904.799991 307.072346 
L 916.79998 312.799909 
L 928.799986 315.560194 
L 940.800011 332.775221 
L 952.800017 343.646812 
L 964.800006 331.166396 
L 976.799994 324.10654 
L 988.799983 314.560752 
L 1000.799989 325.276208 
L 1012.800014 335.985063 
L 1024.80002 330.581111 
L 1036.800009 320.116532 
L 1048.799997 291.895586 
L 1060.799986 281.998166 
L 1072.799974 290.922851 
L 1084.799999 303.379989 
L 1096.800023 293.382139 
L 1108.800011 309.651075 
L 1120.8 297.6883 
L 1132.799989 322.103415 
L 1144.799977 312.419058 
L 1156.800001 326.564271 
L 1168.800026 322.834767 
L 1168.800026 273.506347 
L 1168.800026 273.506347 
L 1156.800001 288.933275 
L 1144.799977 243.287301 
L 1132.799989 260.74688 
L 1120.8 215.286553 
L 1108.800011 252.655529 
L 1096.800023 243.700597 
L 1084.799999 255.125644 
L 1072.799974 222.201977 
L 1060.799986 165.891538 
L 1048.799997 154.687398 
L 1036.800009 208.528521 
L 1024.80002 238.296975 
L 1012.800014 272.012412 
L 1000.799989 263.524025 
L 988.799983 186.958281 
L 976.799994 184.161951 
L 964.800006 180.696546 
L 952.800017 245.456741 
L 940.800011 250.777791 
L 928.799986 180.128905 
L 916.79998 191.746516 
L 904.799991 163.020384 
L 892.800003 235.900374 
L 880.800014 238.568811 
L 868.800026 261.000288 
L 856.800001 214.146142 
L 844.799977 228.426957 
L 832.799989 230.935541 
L 820.8 272.8197 
L 808.800003 255.220799 
L 796.799996 235.294658 
L 784.799999 184.302805 
L 772.800001 144.930748 
L 760.799995 119.037705 
L 748.799997 152.396442 
L 736.800009 219.450538 
L 724.800002 250.876279 
L 712.799996 234.914739 
L 700.800007 174.430303 
L 688.800001 90.901509 
L 676.799994 52.363636 
L 664.800006 92.152034 
L 652.799999 135.076734 
L 640.799993 177.558134 
L 628.800004 177.615288 
L 616.799998 183.11618 
L 604.799991 178.730605 
L 592.800003 169.605387 
L 580.800005 197.40969 
L 568.799999 186.12136 
L 556.800001 197.893313 
L 544.800004 199.164273 
L 532.799997 225.792692 
L 520.8 237.551367 
L 508.800003 217.094239 
L 496.800001 215.496563 
L 484.800003 205.987964 
L 472.800001 249.630138 
L 460.799999 239.734122 
L 448.800002 250.749323 
L 436.8 249.710282 
L 424.799998 280.468547 
L 412.8 212.160322 
L 400.799998 197.003559 
L 388.799996 202.265875 
L 376.799999 235.95918 
L 364.799999 240.401048 
L 352.799999 232.056798 
L 340.8 270.158144 
L 328.8 294.061408 
L 316.8 278.538984 
L 304.8 287.471618 
L 292.800001 262.726493 
L 280.8 280.160072 
L 268.8 280.689279 
L 256.8 292.971043 
L 244.8 298.857195 
L 232.8 278.03172 
L 220.8 269.78215 
L 208.8 273.430762 
L 196.8 296.36937 
L 184.8 252.073975 
L 172.8 219.233591 
L 160.8 226.207957 
L 148.799999 286.328651 
L 136.8 312.538728 
L 124.8 260.56677 
L 112.8 236.012091 
L 100.8 214.405326 
L 88.800001 249.785099 
L 76.800001 274.088837 
L 64.800001 247.193985 
L 52.800004 245.170663 
L 40.800002 245.67109 
L 28.8 211.364893 
L 16.800002 162.578113 
L 4.8 148.397362 
L -7.200002 197.216285 
L -19.199999 213.925013 
L -31.200001 194.672081 
L -43.200003 213.202057 
L -55.200001 228.842287 
L -67.200003 245.729956 
z
" clip-path="url(#p10312e5f8e)" style="fill: #0e87cc; fill-opacity: 0.25"/>
   </g>
   <g id="matplotlib.axis_1">
    <g id="xtick_1">
     <g id="line2d_1">
      <defs>
       <path id="mbfa8a55330" d="M 0 0 
L 0 3.5 
" style="stroke: #000000; stroke-width: 0.8"/>
      </defs>
      <g>
       <use xlink:href="#mbfa8a55330" x="100.8" y="396" style="stroke: #000000; stroke-width: 0.8"/>
      </g>
     </g>
     <g id="text_1">
      <!-- −100 -->
      <g transform="translate(78.82625 415.1575) scale(0.16 -0.16)">
       <defs>
        <path id="DejaVuSans-2212" d="M 678 2272 
L 4684 2272 
L 4684 1741 
L 678 1741 
L 678 2272 
z
" transform="scale(0.015625)"/>
        <path id="DejaVuSans-31" d="M 794 531 
L 1825 531 
L 1825 4091 
L 703 3866 
L 703 4441 
L 1819 4666 
L 2450 4666 
L 2450 531 
L 3481 531 
L 3481 0 
L 794 0 
L 794 531 
z
" transform="scale(0.015625)"/>
        <path id="DejaVuSans-30" d="M 2034 4250 
Q 1547 4250 1301 3770 
Q 1056 3291 1056 2328 
Q 1056 1369 1301 889 
Q 1547 409 2034 409 
Q 2525 409 2770 889 
Q 3016 1369 3016 2328 
Q 3016 3291 2770 3770 
Q 2525 4250 2034 4250 
z
M 2034 4750 
Q 2819 4750 3233 4129 
Q 3647 3509 3647 2328 
Q 3647 1150 3233 529 
Q 2819 -91 2034 -91 
Q 1250 -91 836 529 
Q 422 1150 422 2328 
Q 422 3509 836 4129 
Q 1250 4750 2034 4750 
z
" transform="scale(0.015625)"/>
       </defs>
       <use xlink:href="#DejaVuSans-2212"/>
       <use xlink:href="#DejaVuSans-31" x="83.789062"/>
       <use xlink:href="#DejaVuSans-30" x="147.412109"/>
       <use xlink:href="#DejaVuSans-30" x="211.035156"/>
      </g>
     </g>
    </g>
    <g id="xtick_2">
     <g id="line2d_2">
      <g>
       <use xlink:href="#mbfa8a55330" x="220.8" y="396" style="stroke: #000000; stroke-width: 0.8"/>
      </g>
     </g>
     <g id="text_2">
      <!-- 0 -->
      <g transform="translate(215.71 415.1575) scale(0.16 -0.16)">
       <use xlink:href="#DejaVuSans-30"/>
      </g>
     </g>
    </g>
    <g id="xtick_3">
     <g id="line2d_3">
      <g>
       <use xlink:href="#mbfa8a55330" x="340.8" y="396" style="stroke: #000000; stroke-width: 0.8"/>
      </g>
     </g>
     <g id="text_3">
      <!-- 100 -->
      <g transform="translate(325.53 415.1575) scale(0.16 -0.16)">
       <use xlink:href="#DejaVuSans-31"/>
       <use xlink:href="#DejaVuSans-30" x="63.623047"/>
       <use xlink:href="#DejaVuSans-30" x="127.246094"/>
      </g>
     </g>
    </g>
    <g id="xtick_4">
     <g id="line2d_4">
      <g>
       <use xlink:href="#mbfa8a55330" x="460.8" y="396" style="stroke: #000000; stroke-width: 0.8"/>
      </g>
     </g>
     <g id="text_4">
      <!-- 200 -->
      <g transform="translate(445.53 415.1575) scale(0.16 -0.16)">
       <defs>
        <path id="DejaVuSans-32" d="M 1228 531 
L 3431 531 
L 3431 0 
L 469 0 
L 469 531 
Q 828 903 1448 1529 
Q 2069 2156 2228 2338 
Q 2531 2678 2651 2914 
Q 2772 3150 2772 3378 
Q 2772 3750 2511 3984 
Q 2250 4219 1831 4219 
Q 1534 4219 1204 4116 
Q 875 4013 500 3803 
L 500 4441 
Q 881 4594 1212 4672 
Q 1544 4750 1819 4750 
Q 2544 4750 2975 4387 
Q 3406 4025 3406 3419 
Q 3406 3131 3298 2873 
Q 3191 2616 2906 2266 
Q 2828 2175 2409 1742 
Q 1991 1309 1228 531 
z
" transform="scale(0.015625)"/>
       </defs>
       <use xlink:href="#DejaVuSans-32"/>
       <use xlink:href="#DejaVuSans-30" x="63.623047"/>
       <use xlink:href="#DejaVuSans-30" x="127.246094"/>
      </g>
     </g>
    </g>
    <g id="xtick_5">
     <g id="line2d_5">
      <g>
       <use xlink:href="#mbfa8a55330" x="580.8" y="396" style="stroke: #000000; stroke-width: 0.8"/>
      </g>
     </g>
     <g id="text_5">
      <!-- 300 -->
      <g transform="translate(565.53 415.1575) scale(0.16 -0.16)">
       <defs>
        <path id="DejaVuSans-33" d="M 2597 2516 
Q 3050 2419 3304 2112 
Q 3559 1806 3559 1356 
Q 3559 666 3084 287 
Q 2609 -91 1734 -91 
Q 1441 -91 1130 -33 
Q 819 25 488 141 
L 488 750 
Q 750 597 1062 519 
Q 1375 441 1716 441 
Q 2309 441 2620 675 
Q 2931 909 2931 1356 
Q 2931 1769 2642 2001 
Q 2353 2234 1838 2234 
L 1294 2234 
L 1294 2753 
L 1863 2753 
Q 2328 2753 2575 2939 
Q 2822 3125 2822 3475 
Q 2822 3834 2567 4026 
Q 2313 4219 1838 4219 
Q 1578 4219 1281 4162 
Q 984 4106 628 3988 
L 628 4550 
Q 988 4650 1302 4700 
Q 1616 4750 1894 4750 
Q 2613 4750 3031 4423 
Q 3450 4097 3450 3541 
Q 3450 3153 3228 2886 
Q 3006 2619 2597 2516 
z
" transform="scale(0.015625)"/>
       </defs>
       <use xlink:href="#DejaVuSans-33"/>
       <use xlink:href="#DejaVuSans-30" x="63.623047"/>
       <use xlink:href="#DejaVuSans-30" x="127.246094"/>
      </g>
     </g>
    </g>
    <g id="xtick_6">
     <g id="line2d_6">
      <g>
       <use xlink:href="#mbfa8a55330" x="700.8" y="396" style="stroke: #000000; stroke-width: 0.8"/>
      </g>
     </g>
     <g id="text_6">
      <!-- 400 -->
      <g transform="translate(685.53 415.1575) scale(0.16 -0.16)">
       <defs>
        <path id="DejaVuSans-34" d="M 2419 4116 
L 825 1625 
L 2419 1625 
L 2419 4116 
z
M 2253 4666 
L 3047 4666 
L 3047 1625 
L 3713 1625 
L 3713 1100 
L 3047 1100 
L 3047 0 
L 2419 0 
L 2419 1100 
L 313 1100 
L 313 1709 
L 2253 4666 
z
" transform="scale(0.015625)"/>
       </defs>
       <use xlink:href="#DejaVuSans-34"/>
       <use xlink:href="#DejaVuSans-30" x="63.623047"/>
       <use xlink:href="#DejaVuSans-30" x="127.246094"/>
      </g>
     </g>
    </g>
    <g id="xtick_7">
     <g id="line2d_7">
      <g>
       <use xlink:href="#mbfa8a55330" x="820.8" y="396" style="stroke: #000000; stroke-width: 0.8"/>
      </g>
     </g>
     <g id="text_7">
      <!-- 500 -->
      <g transform="translate(805.53 415.1575) scale(0.16 -0.16)">
       <defs>
        <path id="DejaVuSans-35" d="M 691 4666 
L 3169 4666 
L 3169 4134 
L 1269 4134 
L 1269 2991 
Q 1406 3038 1543 3061 
Q 1681 3084 1819 3084 
Q 2600 3084 3056 2656 
Q 3513 2228 3513 1497 
Q 3513 744 3044 326 
Q 2575 -91 1722 -91 
Q 1428 -91 1123 -41 
Q 819 9 494 109 
L 494 744 
Q 775 591 1075 516 
Q 1375 441 1709 441 
Q 2250 441 2565 725 
Q 2881 1009 2881 1497 
Q 2881 1984 2565 2268 
Q 2250 2553 1709 2553 
Q 1456 2553 1204 2497 
Q 953 2441 691 2322 
L 691 4666 
z
" transform="scale(0.015625)"/>
       </defs>
       <use xlink:href="#DejaVuSans-35"/>
       <use xlink:href="#DejaVuSans-30" x="63.623047"/>
       <use xlink:href="#DejaVuSans-30" x="127.246094"/>
      </g>
     </g>
    </g>
    <g id="text_8">
     <!-- Time from Stimulus Onset (ms) -->
     <g transform="translate(320.273438 436.162187) scale(0.18 -0.18)">
      <defs>
       <path id="DejaVuSans-54" d="M -19 4666 
L 3928 4666 
L 3928 4134 
L 2272 4134 
L 2272 0 
L 1638 0 
L 1638 4134 
L -19 4134 
L -19 4666 
z
" transform="scale(0.015625)"/>
       <path id="DejaVuSans-69" d="M 603 3500 
L 1178 3500 
L 1178 0 
L 603 0 
L 603 3500 
z
M 603 4863 
L 1178 4863 
L 1178 4134 
L 603 4134 
L 603 4863 
z
" transform="scale(0.015625)"/>
       <path id="DejaVuSans-6d" d="M 3328 2828 
Q 3544 3216 3844 3400 
Q 4144 3584 4550 3584 
Q 5097 3584 5394 3201 
Q 5691 2819 5691 2113 
L 5691 0 
L 5113 0 
L 5113 2094 
Q 5113 2597 4934 2840 
Q 4756 3084 4391 3084 
Q 3944 3084 3684 2787 
Q 3425 2491 3425 1978 
L 3425 0 
L 2847 0 
L 2847 2094 
Q 2847 2600 2669 2842 
Q 2491 3084 2119 3084 
Q 1678 3084 1418 2786 
Q 1159 2488 1159 1978 
L 1159 0 
L 581 0 
L 581 3500 
L 1159 3500 
L 1159 2956 
Q 1356 3278 1631 3431 
Q 1906 3584 2284 3584 
Q 2666 3584 2933 3390 
Q 3200 3197 3328 2828 
z
" transform="scale(0.015625)"/>
       <path id="DejaVuSans-65" d="M 3597 1894 
L 3597 1613 
L 953 1613 
Q 991 1019 1311 708 
Q 1631 397 2203 397 
Q 2534 397 2845 478 
Q 3156 559 3463 722 
L 3463 178 
Q 3153 47 2828 -22 
Q 2503 -91 2169 -91 
Q 1331 -91 842 396 
Q 353 884 353 1716 
Q 353 2575 817 3079 
Q 1281 3584 2069 3584 
Q 2775 3584 3186 3129 
Q 3597 2675 3597 1894 
z
M 3022 2063 
Q 3016 2534 2758 2815 
Q 2500 3097 2075 3097 
Q 1594 3097 1305 2825 
Q 1016 2553 972 2059 
L 3022 2063 
z
" transform="scale(0.015625)"/>
       <path id="DejaVuSans-20" transform="scale(0.015625)"/>
       <path id="DejaVuSans-66" d="M 2375 4863 
L 2375 4384 
L 1825 4384 
Q 1516 4384 1395 4259 
Q 1275 4134 1275 3809 
L 1275 3500 
L 2222 3500 
L 2222 3053 
L 1275 3053 
L 1275 0 
L 697 0 
L 697 3053 
L 147 3053 
L 147 3500 
L 697 3500 
L 697 3744 
Q 697 4328 969 4595 
Q 1241 4863 1831 4863 
L 2375 4863 
z
" transform="scale(0.015625)"/>
       <path id="DejaVuSans-72" d="M 2631 2963 
Q 2534 3019 2420 3045 
Q 2306 3072 2169 3072 
Q 1681 3072 1420 2755 
Q 1159 2438 1159 1844 
L 1159 0 
L 581 0 
L 581 3500 
L 1159 3500 
L 1159 2956 
Q 1341 3275 1631 3429 
Q 1922 3584 2338 3584 
Q 2397 3584 2469 3576 
Q 2541 3569 2628 3553 
L 2631 2963 
z
" transform="scale(0.015625)"/>
       <path id="DejaVuSans-6f" d="M 1959 3097 
Q 1497 3097 1228 2736 
Q 959 2375 959 1747 
Q 959 1119 1226 758 
Q 1494 397 1959 397 
Q 2419 397 2687 759 
Q 2956 1122 2956 1747 
Q 2956 2369 2687 2733 
Q 2419 3097 1959 3097 
z
M 1959 3584 
Q 2709 3584 3137 3096 
Q 3566 2609 3566 1747 
Q 3566 888 3137 398 
Q 2709 -91 1959 -91 
Q 1206 -91 779 398 
Q 353 888 353 1747 
Q 353 2609 779 3096 
Q 1206 3584 1959 3584 
z
" transform="scale(0.015625)"/>
       <path id="DejaVuSans-53" d="M 3425 4513 
L 3425 3897 
Q 3066 4069 2747 4153 
Q 2428 4238 2131 4238 
Q 1616 4238 1336 4038 
Q 1056 3838 1056 3469 
Q 1056 3159 1242 3001 
Q 1428 2844 1947 2747 
L 2328 2669 
Q 3034 2534 3370 2195 
Q 3706 1856 3706 1288 
Q 3706 609 3251 259 
Q 2797 -91 1919 -91 
Q 1588 -91 1214 -16 
Q 841 59 441 206 
L 441 856 
Q 825 641 1194 531 
Q 1563 422 1919 422 
Q 2459 422 2753 634 
Q 3047 847 3047 1241 
Q 3047 1584 2836 1778 
Q 2625 1972 2144 2069 
L 1759 2144 
Q 1053 2284 737 2584 
Q 422 2884 422 3419 
Q 422 4038 858 4394 
Q 1294 4750 2059 4750 
Q 2388 4750 2728 4690 
Q 3069 4631 3425 4513 
z
" transform="scale(0.015625)"/>
       <path id="DejaVuSans-74" d="M 1172 4494 
L 1172 3500 
L 2356 3500 
L 2356 3053 
L 1172 3053 
L 1172 1153 
Q 1172 725 1289 603 
Q 1406 481 1766 481 
L 2356 481 
L 2356 0 
L 1766 0 
Q 1100 0 847 248 
Q 594 497 594 1153 
L 594 3053 
L 172 3053 
L 172 3500 
L 594 3500 
L 594 4494 
L 1172 4494 
z
" transform="scale(0.015625)"/>
       <path id="DejaVuSans-75" d="M 544 1381 
L 544 3500 
L 1119 3500 
L 1119 1403 
Q 1119 906 1312 657 
Q 1506 409 1894 409 
Q 2359 409 2629 706 
Q 2900 1003 2900 1516 
L 2900 3500 
L 3475 3500 
L 3475 0 
L 2900 0 
L 2900 538 
Q 2691 219 2414 64 
Q 2138 -91 1772 -91 
Q 1169 -91 856 284 
Q 544 659 544 1381 
z
M 1991 3584 
L 1991 3584 
z
" transform="scale(0.015625)"/>
       <path id="DejaVuSans-6c" d="M 603 4863 
L 1178 4863 
L 1178 0 
L 603 0 
L 603 4863 
z
" transform="scale(0.015625)"/>
       <path id="DejaVuSans-73" d="M 2834 3397 
L 2834 2853 
Q 2591 2978 2328 3040 
Q 2066 3103 1784 3103 
Q 1356 3103 1142 2972 
Q 928 2841 928 2578 
Q 928 2378 1081 2264 
Q 1234 2150 1697 2047 
L 1894 2003 
Q 2506 1872 2764 1633 
Q 3022 1394 3022 966 
Q 3022 478 2636 193 
Q 2250 -91 1575 -91 
Q 1294 -91 989 -36 
Q 684 19 347 128 
L 347 722 
Q 666 556 975 473 
Q 1284 391 1588 391 
Q 1994 391 2212 530 
Q 2431 669 2431 922 
Q 2431 1156 2273 1281 
Q 2116 1406 1581 1522 
L 1381 1569 
Q 847 1681 609 1914 
Q 372 2147 372 2553 
Q 372 3047 722 3315 
Q 1072 3584 1716 3584 
Q 2034 3584 2315 3537 
Q 2597 3491 2834 3397 
z
" transform="scale(0.015625)"/>
       <path id="DejaVuSans-4f" d="M 2522 4238 
Q 1834 4238 1429 3725 
Q 1025 3213 1025 2328 
Q 1025 1447 1429 934 
Q 1834 422 2522 422 
Q 3209 422 3611 934 
Q 4013 1447 4013 2328 
Q 4013 3213 3611 3725 
Q 3209 4238 2522 4238 
z
M 2522 4750 
Q 3503 4750 4090 4092 
Q 4678 3434 4678 2328 
Q 4678 1225 4090 567 
Q 3503 -91 2522 -91 
Q 1538 -91 948 565 
Q 359 1222 359 2328 
Q 359 3434 948 4092 
Q 1538 4750 2522 4750 
z
" transform="scale(0.015625)"/>
       <path id="DejaVuSans-6e" d="M 3513 2113 
L 3513 0 
L 2938 0 
L 2938 2094 
Q 2938 2591 2744 2837 
Q 2550 3084 2163 3084 
Q 1697 3084 1428 2787 
Q 1159 2491 1159 1978 
L 1159 0 
L 581 0 
L 581 3500 
L 1159 3500 
L 1159 2956 
Q 1366 3272 1645 3428 
Q 1925 3584 2291 3584 
Q 2894 3584 3203 3211 
Q 3513 2838 3513 2113 
z
" transform="scale(0.015625)"/>
       <path id="DejaVuSans-28" d="M 1984 4856 
Q 1566 4138 1362 3434 
Q 1159 2731 1159 2009 
Q 1159 1288 1364 580 
Q 1569 -128 1984 -844 
L 1484 -844 
Q 1016 -109 783 600 
Q 550 1309 550 2009 
Q 550 2706 781 3412 
Q 1013 4119 1484 4856 
L 1984 4856 
z
" transform="scale(0.015625)"/>
       <path id="DejaVuSans-29" d="M 513 4856 
L 1013 4856 
Q 1481 4119 1714 3412 
Q 1947 2706 1947 2009 
Q 1947 1309 1714 600 
Q 1481 -109 1013 -844 
L 513 -844 
Q 928 -128 1133 580 
Q 1338 1288 1338 2009 
Q 1338 2731 1133 3434 
Q 928 4138 513 4856 
z
" transform="scale(0.015625)"/>
      </defs>
      <use xlink:href="#DejaVuSans-54"/>
      <use xlink:href="#DejaVuSans-69" x="57.958984"/>
      <use xlink:href="#DejaVuSans-6d" x="85.742188"/>
      <use xlink:href="#DejaVuSans-65" x="183.154297"/>
      <use xlink:href="#DejaVuSans-20" x="244.677734"/>
      <use xlink:href="#DejaVuSans-66" x="276.464844"/>
      <use xlink:href="#DejaVuSans-72" x="311.669922"/>
      <use xlink:href="#DejaVuSans-6f" x="350.533203"/>
      <use xlink:href="#DejaVuSans-6d" x="411.714844"/>
      <use xlink:href="#DejaVuSans-20" x="509.126953"/>
      <use xlink:href="#DejaVuSans-53" x="540.914062"/>
      <use xlink:href="#DejaVuSans-74" x="604.390625"/>
      <use xlink:href="#DejaVuSans-69" x="643.599609"/>
      <use xlink:href="#DejaVuSans-6d" x="671.382812"/>
      <use xlink:href="#DejaVuSans-75" x="768.794922"/>
      <use xlink:href="#DejaVuSans-6c" x="832.173828"/>
      <use xlink:href="#DejaVuSans-75" x="859.957031"/>
      <use xlink:href="#DejaVuSans-73" x="923.335938"/>
      <use xlink:href="#DejaVuSans-20" x="975.435547"/>
      <use xlink:href="#DejaVuSans-4f" x="1007.222656"/>
      <use xlink:href="#DejaVuSans-6e" x="1085.933594"/>
      <use xlink:href="#DejaVuSans-73" x="1149.3125"/>
      <use xlink:href="#DejaVuSans-65" x="1201.412109"/>
      <use xlink:href="#DejaVuSans-74" x="1262.935547"/>
      <use xlink:href="#DejaVuSans-20" x="1302.144531"/>
      <use xlink:href="#DejaVuSans-28" x="1333.931641"/>
      <use xlink:href="#DejaVuSans-6d" x="1372.945312"/>
      <use xlink:href="#DejaVuSans-73" x="1470.357422"/>
      <use xlink:href="#DejaVuSans-29" x="1522.457031"/>
     </g>
    </g>
   </g>
   <g id="matplotlib.axis_2">
    <g id="ytick_1">
     <g id="line2d_8">
      <defs>
       <path id="mede8f832df" d="M 0 0 
L -3.5 0 
" style="stroke: #000000; stroke-width: 0.8"/>
      </defs>
      <g>
       <use xlink:href="#mede8f832df" x="100.8" y="354.196372" style="stroke: #000000; stroke-width: 0.8"/>
      </g>
     </g>
     <g id="text_9">
      <!-- −0.01 -->
      <g transform="translate(44.7675 360.275122) scale(0.16 -0.16)">
       <defs>
        <path id="DejaVuSans-2e" d="M 684 794 
L 1344 794 
L 1344 0 
L 684 0 
L 684 794 
z
" transform="scale(0.015625)"/>
       </defs>
       <use xlink:href="#DejaVuSans-2212"/>
       <use xlink:href="#DejaVuSans-30" x="83.789062"/>
       <use xlink:href="#DejaVuSans-2e" x="147.412109"/>
       <use xlink:href="#DejaVuSans-30" x="179.199219"/>
       <use xlink:href="#DejaVuSans-31" x="242.822266"/>
      </g>
     </g>
    </g>
    <g id="ytick_2">
     <g id="line2d_9">
      <g>
       <use xlink:href="#mede8f832df" x="100.8" y="310.136052" style="stroke: #000000; stroke-width: 0.8"/>
      </g>
     </g>
     <g id="text_10">
      <!-- 0.00 -->
      <g transform="translate(58.175 316.214802) scale(0.16 -0.16)">
       <use xlink:href="#DejaVuSans-30"/>
       <use xlink:href="#DejaVuSans-2e" x="63.623047"/>
       <use xlink:href="#DejaVuSans-30" x="95.410156"/>
       <use xlink:href="#DejaVuSans-30" x="159.033203"/>
      </g>
     </g>
    </g>
    <g id="ytick_3">
     <g id="line2d_10">
      <g>
       <use xlink:href="#mede8f832df" x="100.8" y="266.075732" style="stroke: #000000; stroke-width: 0.8"/>
      </g>
     </g>
     <g id="text_11">
      <!-- 0.01 -->
      <g transform="translate(58.175 272.154482) scale(0.16 -0.16)">
       <use xlink:href="#DejaVuSans-30"/>
       <use xlink:href="#DejaVuSans-2e" x="63.623047"/>
       <use xlink:href="#DejaVuSans-30" x="95.410156"/>
       <use xlink:href="#DejaVuSans-31" x="159.033203"/>
      </g>
     </g>
    </g>
    <g id="ytick_4">
     <g id="line2d_11">
      <g>
       <use xlink:href="#mede8f832df" x="100.8" y="222.015412" style="stroke: #000000; stroke-width: 0.8"/>
      </g>
     </g>
     <g id="text_12">
      <!-- 0.02 -->
      <g transform="translate(58.175 228.094162) scale(0.16 -0.16)">
       <use xlink:href="#DejaVuSans-30"/>
       <use xlink:href="#DejaVuSans-2e" x="63.623047"/>
       <use xlink:href="#DejaVuSans-30" x="95.410156"/>
       <use xlink:href="#DejaVuSans-32" x="159.033203"/>
      </g>
     </g>
    </g>
    <g id="ytick_5">
     <g id="line2d_12">
      <g>
       <use xlink:href="#mede8f832df" x="100.8" y="177.955091" style="stroke: #000000; stroke-width: 0.8"/>
      </g>
     </g>
     <g id="text_13">
      <!-- 0.03 -->
      <g transform="translate(58.175 184.033841) scale(0.16 -0.16)">
       <use xlink:href="#DejaVuSans-30"/>
       <use xlink:href="#DejaVuSans-2e" x="63.623047"/>
       <use xlink:href="#DejaVuSans-30" x="95.410156"/>
       <use xlink:href="#DejaVuSans-33" x="159.033203"/>
      </g>
     </g>
    </g>
    <g id="ytick_6">
     <g id="line2d_13">
      <g>
       <use xlink:href="#mede8f832df" x="100.8" y="133.894771" style="stroke: #000000; stroke-width: 0.8"/>
      </g>
     </g>
     <g id="text_14">
      <!-- 0.04 -->
      <g transform="translate(58.175 139.973521) scale(0.16 -0.16)">
       <use xlink:href="#DejaVuSans-30"/>
       <use xlink:href="#DejaVuSans-2e" x="63.623047"/>
       <use xlink:href="#DejaVuSans-30" x="95.410156"/>
       <use xlink:href="#DejaVuSans-34" x="159.033203"/>
      </g>
     </g>
    </g>
    <g id="ytick_7">
     <g id="line2d_14">
      <g>
       <use xlink:href="#mede8f832df" x="100.8" y="89.834451" style="stroke: #000000; stroke-width: 0.8"/>
      </g>
     </g>
     <g id="text_15">
      <!-- 0.05 -->
      <g transform="translate(58.175 95.913201) scale(0.16 -0.16)">
       <use xlink:href="#DejaVuSans-30"/>
       <use xlink:href="#DejaVuSans-2e" x="63.623047"/>
       <use xlink:href="#DejaVuSans-30" x="95.410156"/>
       <use xlink:href="#DejaVuSans-35" x="159.033203"/>
      </g>
     </g>
    </g>
    <g id="ytick_8">
     <g id="line2d_15">
      <g>
       <use xlink:href="#mede8f832df" x="100.8" y="45.774131" style="stroke: #000000; stroke-width: 0.8"/>
      </g>
     </g>
     <g id="text_16">
      <!-- 0.06 -->
      <g transform="translate(58.175 51.852881) scale(0.16 -0.16)">
       <defs>
        <path id="DejaVuSans-36" d="M 2113 2584 
Q 1688 2584 1439 2293 
Q 1191 2003 1191 1497 
Q 1191 994 1439 701 
Q 1688 409 2113 409 
Q 2538 409 2786 701 
Q 3034 994 3034 1497 
Q 3034 2003 2786 2293 
Q 2538 2584 2113 2584 
z
M 3366 4563 
L 3366 3988 
Q 3128 4100 2886 4159 
Q 2644 4219 2406 4219 
Q 1781 4219 1451 3797 
Q 1122 3375 1075 2522 
Q 1259 2794 1537 2939 
Q 1816 3084 2150 3084 
Q 2853 3084 3261 2657 
Q 3669 2231 3669 1497 
Q 3669 778 3244 343 
Q 2819 -91 2113 -91 
Q 1303 -91 875 529 
Q 447 1150 447 2328 
Q 447 3434 972 4092 
Q 1497 4750 2381 4750 
Q 2619 4750 2861 4703 
Q 3103 4656 3366 4563 
z
" transform="scale(0.015625)"/>
       </defs>
       <use xlink:href="#DejaVuSans-30"/>
       <use xlink:href="#DejaVuSans-2e" x="63.623047"/>
       <use xlink:href="#DejaVuSans-30" x="95.410156"/>
       <use xlink:href="#DejaVuSans-36" x="159.033203"/>
      </g>
     </g>
    </g>
    <g id="text_17">
     <!-- Directed predictability gain (bits) -->
     <g transform="translate(37.024062 364.685625) rotate(-90) scale(0.18 -0.18)">
      <defs>
       <path id="DejaVuSans-44" d="M 1259 4147 
L 1259 519 
L 2022 519 
Q 2988 519 3436 956 
Q 3884 1394 3884 2338 
Q 3884 3275 3436 3711 
Q 2988 4147 2022 4147 
L 1259 4147 
z
M 628 4666 
L 1925 4666 
Q 3281 4666 3915 4102 
Q 4550 3538 4550 2338 
Q 4550 1131 3912 565 
Q 3275 0 1925 0 
L 628 0 
L 628 4666 
z
" transform="scale(0.015625)"/>
       <path id="DejaVuSans-63" d="M 3122 3366 
L 3122 2828 
Q 2878 2963 2633 3030 
Q 2388 3097 2138 3097 
Q 1578 3097 1268 2742 
Q 959 2388 959 1747 
Q 959 1106 1268 751 
Q 1578 397 2138 397 
Q 2388 397 2633 464 
Q 2878 531 3122 666 
L 3122 134 
Q 2881 22 2623 -34 
Q 2366 -91 2075 -91 
Q 1284 -91 818 406 
Q 353 903 353 1747 
Q 353 2603 823 3093 
Q 1294 3584 2113 3584 
Q 2378 3584 2631 3529 
Q 2884 3475 3122 3366 
z
" transform="scale(0.015625)"/>
       <path id="DejaVuSans-64" d="M 2906 2969 
L 2906 4863 
L 3481 4863 
L 3481 0 
L 2906 0 
L 2906 525 
Q 2725 213 2448 61 
Q 2172 -91 1784 -91 
Q 1150 -91 751 415 
Q 353 922 353 1747 
Q 353 2572 751 3078 
Q 1150 3584 1784 3584 
Q 2172 3584 2448 3432 
Q 2725 3281 2906 2969 
z
M 947 1747 
Q 947 1113 1208 752 
Q 1469 391 1925 391 
Q 2381 391 2643 752 
Q 2906 1113 2906 1747 
Q 2906 2381 2643 2742 
Q 2381 3103 1925 3103 
Q 1469 3103 1208 2742 
Q 947 2381 947 1747 
z
" transform="scale(0.015625)"/>
       <path id="DejaVuSans-70" d="M 1159 525 
L 1159 -1331 
L 581 -1331 
L 581 3500 
L 1159 3500 
L 1159 2969 
Q 1341 3281 1617 3432 
Q 1894 3584 2278 3584 
Q 2916 3584 3314 3078 
Q 3713 2572 3713 1747 
Q 3713 922 3314 415 
Q 2916 -91 2278 -91 
Q 1894 -91 1617 61 
Q 1341 213 1159 525 
z
M 3116 1747 
Q 3116 2381 2855 2742 
Q 2594 3103 2138 3103 
Q 1681 3103 1420 2742 
Q 1159 2381 1159 1747 
Q 1159 1113 1420 752 
Q 1681 391 2138 391 
Q 2594 391 2855 752 
Q 3116 1113 3116 1747 
z
" transform="scale(0.015625)"/>
       <path id="DejaVuSans-61" d="M 2194 1759 
Q 1497 1759 1228 1600 
Q 959 1441 959 1056 
Q 959 750 1161 570 
Q 1363 391 1709 391 
Q 2188 391 2477 730 
Q 2766 1069 2766 1631 
L 2766 1759 
L 2194 1759 
z
M 3341 1997 
L 3341 0 
L 2766 0 
L 2766 531 
Q 2569 213 2275 61 
Q 1981 -91 1556 -91 
Q 1019 -91 701 211 
Q 384 513 384 1019 
Q 384 1609 779 1909 
Q 1175 2209 1959 2209 
L 2766 2209 
L 2766 2266 
Q 2766 2663 2505 2880 
Q 2244 3097 1772 3097 
Q 1472 3097 1187 3025 
Q 903 2953 641 2809 
L 641 3341 
Q 956 3463 1253 3523 
Q 1550 3584 1831 3584 
Q 2591 3584 2966 3190 
Q 3341 2797 3341 1997 
z
" transform="scale(0.015625)"/>
       <path id="DejaVuSans-62" d="M 3116 1747 
Q 3116 2381 2855 2742 
Q 2594 3103 2138 3103 
Q 1681 3103 1420 2742 
Q 1159 2381 1159 1747 
Q 1159 1113 1420 752 
Q 1681 391 2138 391 
Q 2594 391 2855 752 
Q 3116 1113 3116 1747 
z
M 1159 2969 
Q 1341 3281 1617 3432 
Q 1894 3584 2278 3584 
Q 2916 3584 3314 3078 
Q 3713 2572 3713 1747 
Q 3713 922 3314 415 
Q 2916 -91 2278 -91 
Q 1894 -91 1617 61 
Q 1341 213 1159 525 
L 1159 0 
L 581 0 
L 581 4863 
L 1159 4863 
L 1159 2969 
z
" transform="scale(0.015625)"/>
       <path id="DejaVuSans-79" d="M 2059 -325 
Q 1816 -950 1584 -1140 
Q 1353 -1331 966 -1331 
L 506 -1331 
L 506 -850 
L 844 -850 
Q 1081 -850 1212 -737 
Q 1344 -625 1503 -206 
L 1606 56 
L 191 3500 
L 800 3500 
L 1894 763 
L 2988 3500 
L 3597 3500 
L 2059 -325 
z
" transform="scale(0.015625)"/>
       <path id="DejaVuSans-67" d="M 2906 1791 
Q 2906 2416 2648 2759 
Q 2391 3103 1925 3103 
Q 1463 3103 1205 2759 
Q 947 2416 947 1791 
Q 947 1169 1205 825 
Q 1463 481 1925 481 
Q 2391 481 2648 825 
Q 2906 1169 2906 1791 
z
M 3481 434 
Q 3481 -459 3084 -895 
Q 2688 -1331 1869 -1331 
Q 1566 -1331 1297 -1286 
Q 1028 -1241 775 -1147 
L 775 -588 
Q 1028 -725 1275 -790 
Q 1522 -856 1778 -856 
Q 2344 -856 2625 -561 
Q 2906 -266 2906 331 
L 2906 616 
Q 2728 306 2450 153 
Q 2172 0 1784 0 
Q 1141 0 747 490 
Q 353 981 353 1791 
Q 353 2603 747 3093 
Q 1141 3584 1784 3584 
Q 2172 3584 2450 3431 
Q 2728 3278 2906 2969 
L 2906 3500 
L 3481 3500 
L 3481 434 
z
" transform="scale(0.015625)"/>
      </defs>
      <use xlink:href="#DejaVuSans-44"/>
      <use xlink:href="#DejaVuSans-69" x="77.001953"/>
      <use xlink:href="#DejaVuSans-72" x="104.785156"/>
      <use xlink:href="#DejaVuSans-65" x="143.648438"/>
      <use xlink:href="#DejaVuSans-63" x="205.171875"/>
      <use xlink:href="#DejaVuSans-74" x="260.152344"/>
      <use xlink:href="#DejaVuSans-65" x="299.361328"/>
      <use xlink:href="#DejaVuSans-64" x="360.884766"/>
      <use xlink:href="#DejaVuSans-20" x="424.361328"/>
      <use xlink:href="#DejaVuSans-70" x="456.148438"/>
      <use xlink:href="#DejaVuSans-72" x="519.625"/>
      <use xlink:href="#DejaVuSans-65" x="558.488281"/>
      <use xlink:href="#DejaVuSans-64" x="620.011719"/>
      <use xlink:href="#DejaVuSans-69" x="683.488281"/>
      <use xlink:href="#DejaVuSans-63" x="711.271484"/>
      <use xlink:href="#DejaVuSans-74" x="766.251953"/>
      <use xlink:href="#DejaVuSans-61" x="805.460938"/>
      <use xlink:href="#DejaVuSans-62" x="866.740234"/>
      <use xlink:href="#DejaVuSans-69" x="930.216797"/>
      <use xlink:href="#DejaVuSans-6c" x="958"/>
      <use xlink:href="#DejaVuSans-69" x="985.783203"/>
      <use xlink:href="#DejaVuSans-74" x="1013.566406"/>
      <use xlink:href="#DejaVuSans-79" x="1052.775391"/>
      <use xlink:href="#DejaVuSans-20" x="1111.955078"/>
      <use xlink:href="#DejaVuSans-67" x="1143.742188"/>
      <use xlink:href="#DejaVuSans-61" x="1207.21875"/>
      <use xlink:href="#DejaVuSans-69" x="1268.498047"/>
      <use xlink:href="#DejaVuSans-6e" x="1296.28125"/>
      <use xlink:href="#DejaVuSans-20" x="1359.660156"/>
      <use xlink:href="#DejaVuSans-28" x="1391.447266"/>
      <use xlink:href="#DejaVuSans-62" x="1430.460938"/>
      <use xlink:href="#DejaVuSans-69" x="1493.9375"/>
      <use xlink:href="#DejaVuSans-74" x="1521.720703"/>
      <use xlink:href="#DejaVuSans-73" x="1560.929688"/>
      <use xlink:href="#DejaVuSans-29" x="1613.029297"/>
     </g>
    </g>
   </g>
   <g id="line2d_16">
    <path d="M 220.8 396 
L 220.8 36 
" clip-path="url(#p10312e5f8e)" style="fill: none; stroke-dasharray: 2.96,1.28; stroke-dashoffset: 0; stroke: #000000; stroke-width: 0.8"/>
   </g>
   <g id="line2d_17">
    <path d="M 100.8 310.136052 
L 820.8 310.136052 
" clip-path="url(#p10312e5f8e)" style="fill: none; stroke-dasharray: 0.8,1.32; stroke-dashoffset: 0; stroke: #000000; stroke-width: 0.8"/>
   </g>
   <g id="line2d_18">
    <path d="M -1 269.194026 
L 4.8 299.078352 
L 16.800002 310.922607 
L 28.8 318.460561 
L 40.800002 318.334678 
L 52.800004 333.262903 
L 64.800001 320.547155 
L 76.800001 315.6666 
L 88.800001 296.015084 
L 100.8 285.799858 
L 112.8 288.321631 
L 124.8 287.401954 
L 136.8 257.206869 
L 148.799999 249.14899 
L 160.8 259.684826 
L 172.8 306.418441 
L 184.8 313.345626 
L 196.8 307.140066 
L 208.8 316.757442 
L 220.8 340.633793 
L 232.8 332.257411 
L 244.8 336.26738 
L 256.8 269.419892 
L 268.8 276.583704 
L 280.8 274.836494 
L 292.800001 329.114194 
L 304.8 309.466432 
L 316.8 305.6675 
L 328.8 293.930703 
L 340.8 304.71129 
L 352.799999 314.116283 
L 364.799999 294.931083 
L 376.799999 291.169853 
L 388.799996 255.619253 
L 400.799998 267.241129 
L 412.8 262.087301 
L 424.799998 264.550496 
L 436.8 275.10084 
L 448.800002 292.897683 
L 460.799999 316.076629 
L 472.800001 335.945849 
L 484.800003 342.164879 
L 496.800001 345.89091 
L 508.800003 303.694765 
L 520.8 300.423537 
L 532.799997 287.088997 
L 544.800004 282.173263 
L 556.800001 283.922551 
L 568.799999 276.572877 
L 580.800005 297.172917 
L 592.800003 280.885653 
L 604.799991 281.987987 
L 616.799998 228.647495 
L 628.800004 231.504057 
L 640.799993 225.419803 
L 652.799999 256.220649 
L 664.800006 245.530061 
L 676.799994 251.750654 
L 688.800001 263.813108 
L 700.800007 258.908866 
L 712.799996 269.508889 
L 724.800002 282.6771 
L 736.800009 287.967657 
L 748.799997 279.776045 
L 760.799995 269.694616 
L 772.800001 237.08948 
L 784.799999 254.424892 
L 796.799996 275.417997 
L 808.800003 318.098721 
L 820.8 320.878277 
L 832.799989 293.89617 
L 844.799977 323.22902 
L 856.800001 290.691799 
L 857.8 290.491497 
" clip-path="url(#p10312e5f8e)" style="fill: none; stroke: #7b4fa3; stroke-width: 2.5; stroke-linecap: square"/>
   </g>
   <g id="line2d_19">
    <path d="M -1 241.15609 
L 4.8 227.742074 
L 16.800002 236.895319 
L 28.8 267.436404 
L 40.800002 287.911469 
L 52.800004 289.248181 
L 64.800001 288.294353 
L 76.800001 308.870121 
L 88.800001 286.921052 
L 100.8 264.250523 
L 112.8 276.82813 
L 124.8 298.59754 
L 136.8 335.47067 
L 148.799999 312.935718 
L 160.8 271.175615 
L 172.8 265.463113 
L 184.8 292.911416 
L 196.8 321.788357 
L 208.8 305.211422 
L 220.8 308.648221 
L 232.8 314.536955 
L 244.8 331.876243 
L 256.8 327.964692 
L 268.8 315.348266 
L 280.8 309.817259 
L 292.800001 284.932802 
L 304.8 306.356407 
L 316.8 303.570046 
L 328.8 324.026568 
L 340.8 303.291867 
L 352.799999 273.049576 
L 364.799999 275.002334 
L 376.799999 280.627178 
L 388.799996 273.646864 
L 400.799998 265.834631 
L 412.8 266.817394 
L 424.799998 294.983748 
L 436.8 279.534757 
L 448.800002 285.341436 
L 460.799999 281.193044 
L 472.800001 281.648235 
L 484.800003 254.285822 
L 496.800001 256.603407 
L 508.800003 261.642567 
L 520.8 270.108109 
L 532.799997 264.509928 
L 544.800004 243.479155 
L 556.800001 242.720883 
L 568.799999 231.919361 
L 580.800005 240.30534 
L 592.800003 221.861406 
L 604.799991 229.438035 
L 616.799998 236.088827 
L 628.800004 233.164111 
L 640.799993 234.443087 
L 652.799999 212.250503 
L 664.800006 185.654732 
L 676.799994 155.486392 
L 688.800001 173.190781 
L 700.800007 223.347803 
L 712.799996 266.948018 
L 724.800002 277.313032 
L 736.800009 258.081414 
L 748.799997 208.072855 
L 760.799995 186.856076 
L 772.800001 201.871744 
L 784.799999 236.448565 
L 796.799996 270.805732 
L 808.800003 287.158407 
L 820.8 295.558833 
L 832.799989 258.701883 
L 844.799977 260.77871 
L 856.800001 251.704039 
L 857.8 255.329434 
" clip-path="url(#p10312e5f8e)" style="fill: none; stroke: #0e87cc; stroke-width: 2.5; stroke-linecap: square"/>
   </g>
   <g id="patch_3">
    <path d="M 100.8 396 
L 100.8 36 
" style="fill: none; stroke: #000000; stroke-width: 0.8; stroke-linejoin: miter; stroke-linecap: square"/>
   </g>
   <g id="patch_4">
    <path d="M 820.8 396 
L 820.8 36 
" style="fill: none; stroke: #000000; stroke-width: 0.8; stroke-linejoin: miter; stroke-linecap: square"/>
   </g>
   <g id="patch_5">
    <path d="M 100.8 396 
L 820.8 396 
" style="fill: none; stroke: #000000; stroke-width: 0.8; stroke-linejoin: miter; stroke-linecap: square"/>
   </g>
   <g id="patch_6">
    <path d="M 100.8 36 
L 820.8 36 
" style="fill: none; stroke: #000000; stroke-width: 0.8; stroke-linejoin: miter; stroke-linecap: square"/>
   </g>
   <g id="PathCollection_1">
    <defs>
     <path id="mda1d017c5b" d="M 0 1.870829 
C 0.49615 1.870829 0.972045 1.673706 1.322876 1.322876 
C 1.673706 0.972045 1.870829 0.49615 1.870829 0 
C 1.870829 -0.49615 1.673706 -0.972045 1.322876 -1.322876 
C 0.972045 -1.673706 0.49615 -1.870829 0 -1.870829 
C -0.49615 -1.870829 -0.972045 -1.673706 -1.322876 -1.322876 
C -1.673706 -0.972045 -1.870829 -0.49615 -1.870829 0 
C -1.870829 0.49615 -1.673706 0.972045 -1.322876 1.322876 
C -0.972045 1.673706 -0.49615 1.870829 0 1.870829 
z
" style="stroke: #000000"/>
    </defs>
    <g clip-path="url(#p10312e5f8e)">
     <use xlink:href="#mda1d017c5b" x="136.8" y="378" style="stroke: #000000"/>
     <use xlink:href="#mda1d017c5b" x="148.799999" y="378" style="stroke: #000000"/>
     <use xlink:href="#mda1d017c5b" x="604.799991" y="378" style="stroke: #000000"/>
     <use xlink:href="#mda1d017c5b" x="616.799998" y="378" style="stroke: #000000"/>
    </g>
   </g>
   <g id="legend_1">
    <g id="line2d_20">
     <path d="M 114.3 55.647656 
L 129.3 55.647656 
L 144.3 55.647656 
" style="fill: none; stroke: #7b4fa3; stroke-width: 2.5; stroke-linecap: square"/>
    </g>
    <g id="text_18">
     <!-- SSC→SFEF -->
     <g transform="translate(156.3 60.897656) scale(0.15 -0.15)">
      <defs>
       <path id="DejaVuSans-43" d="M 4122 4306 
L 4122 3641 
Q 3803 3938 3442 4084 
Q 3081 4231 2675 4231 
Q 1875 4231 1450 3742 
Q 1025 3253 1025 2328 
Q 1025 1406 1450 917 
Q 1875 428 2675 428 
Q 3081 428 3442 575 
Q 3803 722 4122 1019 
L 4122 359 
Q 3791 134 3420 21 
Q 3050 -91 2638 -91 
Q 1578 -91 968 557 
Q 359 1206 359 2328 
Q 359 3453 968 4101 
Q 1578 4750 2638 4750 
Q 3056 4750 3426 4639 
Q 3797 4528 4122 4306 
z
" transform="scale(0.015625)"/>
       <path id="DejaVuSans-2192" d="M 5050 2147 
L 5050 1866 
L 3822 638 
L 3447 1013 
L 4175 1741 
L 366 1741 
L 366 2272 
L 4175 2272 
L 3447 3000 
L 3822 3375 
L 5050 2147 
z
" transform="scale(0.015625)"/>
       <path id="DejaVuSans-46" d="M 628 4666 
L 3309 4666 
L 3309 4134 
L 1259 4134 
L 1259 2759 
L 3109 2759 
L 3109 2228 
L 1259 2228 
L 1259 0 
L 628 0 
L 628 4666 
z
" transform="scale(0.015625)"/>
       <path id="DejaVuSans-45" d="M 628 4666 
L 3578 4666 
L 3578 4134 
L 1259 4134 
L 1259 2753 
L 3481 2753 
L 3481 2222 
L 1259 2222 
L 1259 531 
L 3634 531 
L 3634 0 
L 628 0 
L 628 4666 
z
" transform="scale(0.015625)"/>
      </defs>
      <use xlink:href="#DejaVuSans-53"/>
      <use xlink:href="#DejaVuSans-53" x="63.476562"/>
      <use xlink:href="#DejaVuSans-43" x="126.953125"/>
      <use xlink:href="#DejaVuSans-2192" x="196.777344"/>
      <use xlink:href="#DejaVuSans-53" x="280.566406"/>
      <use xlink:href="#DejaVuSans-46" x="344.042969"/>
      <use xlink:href="#DejaVuSans-45" x="401.5625"/>
      <use xlink:href="#DejaVuSans-46" x="464.746094"/>
     </g>
    </g>
    <g id="line2d_21">
     <path d="M 114.3 77.664844 
L 129.3 77.664844 
L 144.3 77.664844 
" style="fill: none; stroke: #0e87cc; stroke-width: 2.5; stroke-linecap: square"/>
    </g>
    <g id="text_19">
     <!-- SFEF→SSC -->
     <g transform="translate(156.3 82.914844) scale(0.15 -0.15)">
      <use xlink:href="#DejaVuSans-53"/>
      <use xlink:href="#DejaVuSans-46" x="63.476562"/>
      <use xlink:href="#DejaVuSans-45" x="120.996094"/>
      <use xlink:href="#DejaVuSans-46" x="184.179688"/>
      <use xlink:href="#DejaVuSans-2192" x="241.699219"/>
      <use xlink:href="#DejaVuSans-53" x="325.488281"/>
      <use xlink:href="#DejaVuSans-53" x="388.964844"/>
      <use xlink:href="#DejaVuSans-43" x="452.441406"/>
     </g>
    </g>
    <g id="PathCollection_2">
     <g>
      <use xlink:href="#mda1d017c5b" x="129.3" y="100.994531" style="stroke: #000000"/>
     </g>
    </g>
    <g id="text_20">
     <!-- p&lt;α -->
     <g transform="translate(156.3 104.932031) scale(0.15 -0.15)">
      <defs>
       <path id="DejaVuSans-3c" d="M 4684 3150 
L 1459 2003 
L 4684 863 
L 4684 294 
L 678 1747 
L 678 2266 
L 4684 3719 
L 4684 3150 
z
" transform="scale(0.015625)"/>
       <path id="DejaVuSans-3b1" d="M 2644 1628 
L 2506 2350 
Q 2366 3091 1809 3091 
Q 1391 3091 1200 2747 
Q 959 2316 959 1747 
Q 959 1059 1194 731 
Q 1431 397 1809 397 
Q 2228 397 2453 1063 
L 2644 1628 
z
M 2966 2584 
L 3275 3500 
L 3788 3500 
L 3147 1603 
L 3272 919 
Q 3300 766 3409 638 
Q 3538 488 3638 488 
L 3913 488 
L 3913 0 
L 3569 0 
Q 3275 0 3013 263 
Q 2884 394 2831 669 
Q 2688 322 2394 50 
Q 2256 -78 1809 -78 
Q 1075 -78 719 397 
Q 353 888 353 1747 
Q 353 2666 750 3097 
Q 1191 3578 1809 3578 
Q 2781 3578 2966 2584 
z
" transform="scale(0.015625)"/>
      </defs>
      <use xlink:href="#DejaVuSans-70"/>
      <use xlink:href="#DejaVuSans-3c" x="63.476562"/>
      <use xlink:href="#DejaVuSans-3b1" x="147.265625"/>
     </g>
    </g>
   </g>
  </g>
 </g>
 <defs>
  <clipPath id="p10312e5f8e">
   <rect x="100.8" y="36" width="720" height="360"/>
  </clipPath>
 </defs>
</svg>
