<?xml version="1.0" encoding="utf-8" standalone="no"?>
<!DOCTYPE svg PUBLIC "-//W3C//DTD SVG 1.1//EN"
  "http://www.w3.org/Graphics/SVG/1.1/DTD/svg11.dtd">
<svg xmlns:xlink="http://www.w3.org/1999/xlink" width="828pt" height="453.6pt" viewBox="0 0 828 453.6" xmlns="http://www.w3.org/2000/svg" version="1.1">
 <metadata>
  <rdf:RDF xmlns:dc="http://purl.org/dc/elements/1.1/" xmlns:cc="http://creativecommons.org/ns#" xmlns:rdf="http://www.w3.org/1999/02/22-rdf-syntax-ns#">
   <cc:Work>
    <dc:type rdf:resource="http://purl.org/dc/dcmitype/StillImage"/>
    <dc:date>2026-01-26T14:25:37.132853</dc:date>
    <dc:format>image/svg+xml</dc:format>
    <dc:creator>
     <cc:Agent>
      <dc:title>Matplotlib v3.9.4, https://matplotlib.org/</dc:title>
     </cc:Agent>
    </dc:creator>
   </cc:Work>
  </rdf:RDF>
 </metadata>
 <defs>
  <style type="text/css">*{stroke-linejoin: round; stroke-linecap: butt}</style>
 </defs>
 <g id="figure_1">
  <g id="patch_1">
   <path d="M 0 453.6 
L 828 453.6 
L 828 0 
L 0 0 
z
" style="fill: #ffffff"/>
  </g>
  <g id="axes_1">
   <g id="patch_2">
    <path d="M 72 396 
L 792 396 
L 792 36 
L 72 36 
z
" style="fill: #ffffff"/>
   </g>
   <g id="PolyCollection_1">
    <path d="M -47.999995 301.902287 
L -47.999995 335.492876 
L -35.999997 369.809123 
L -24 360.815087 
L -12.000002 360.148023 
L -0.000005 338.75236 
L 12.000002 343.682285 
L 23.999999 348.096201 
L 35.999997 334.637589 
L 47.999999 351.571042 
L 60.000001 353.964214 
L 72.000003 360.467239 
L 84 346.356858 
L 95.999998 353.283653 
L 108 344.65423 
L 120.000002 321.125543 
L 131.999999 332.567157 
L 143.999999 366.046878 
L 156 355.300115 
L 168 366.248966 
L 180 346.553589 
L 192 369.047548 
L 204 359.551225 
L 216 361.272575 
L 228 352.978597 
L 240.000001 349.256696 
L 252.000001 324.705706 
L 263.999998 339.046541 
L 276 355.554492 
L 288.000002 325.02866 
L 300 351.486215 
L 311.999997 353.071528 
L 323.999999 342.342521 
L 336.000001 318.002051 
L 348.000003 344.17348 
L 360.000001 334.315546 
L 371.999998 348.272544 
L 384.000005 343.948367 
L 396.000002 360.550663 
L 408 331.593135 
L 419.999997 314.113774 
L 431.999995 327.152776 
L 444.000001 319.977268 
L 455.999999 336.996486 
L 467.999996 342.352859 
L 480.000003 346.371311 
L 492 363.82667 
L 503.999989 314.144457 
L 515.999995 302.988918 
L 528.000001 314.615522 
L 539.99999 322.898063 
L 551.999996 350.072587 
L 564.000003 346.030147 
L 575.999991 335.263004 
L 587.999998 339.768248 
L 600.000004 363.824074 
L 611.999993 276.108802 
L 623.999999 320.146062 
L 636.000006 366.482608 
L 647.999994 304.185021 
L 660.000001 342.365913 
L 672.000007 357.519838 
L 683.999996 316.560261 
L 696.000002 296.765513 
L 708.000009 305.319047 
L 719.999997 350.358611 
L 732.000004 330.170197 
L 744.00001 332.991931 
L 755.999999 269.193726 
L 768.000005 339.511625 
L 780.000011 345.691978 
L 792 332.60609 
L 803.999989 305.620809 
L 815.999977 317.847468 
L 828.000001 290.748705 
L 840.000026 314.598402 
L 852.000014 349.081562 
L 864.000003 340.01796 
L 875.999991 366.443373 
L 887.99998 335.699913 
L 900.000004 349.550116 
L 912.000029 369.618333 
L 924.000017 347.754772 
L 936.000006 372.061996 
L 947.999994 376.38655 
L 959.999983 356.107167 
L 971.999971 318.630461 
L 983.999996 364.886932 
L 996.00002 319.213412 
L 1008.000009 326.53692 
L 1019.999997 371.418696 
L 1031.999986 335.498874 
L 1043.999974 345.96017 
L 1055.999999 378.236899 
L 1068.000023 340.174454 
L 1080.000011 352.521523 
L 1092 356.03875 
L 1103.999989 350.822328 
L 1115.999977 324.179055 
L 1128.000001 361.157609 
L 1140.000026 333.326371 
L 1140.000026 312.267808 
L 1140.000026 312.267808 
L 1128.000001 336.450626 
L 1115.999977 293.339244 
L 1103.999989 308.304702 
L 1092 321.688372 
L 1080.000011 298.522631 
L 1068.000023 321.587316 
L 1055.999999 353.431176 
L 1043.999974 330.324906 
L 1031.999986 315.289186 
L 1019.999997 337.470596 
L 1008.000009 293.199545 
L 996.00002 253.561513 
L 983.999996 316.85419 
L 971.999971 213.63907 
L 959.999983 331.480334 
L 947.999994 334.704191 
L 936.000006 344.681907 
L 924.000017 309.256124 
L 912.000029 323.932733 
L 900.000004 273.406695 
L 887.99998 286.412351 
L 875.999991 334.336947 
L 864.000003 301.985644 
L 852.000014 306.923141 
L 840.000026 256.972058 
L 828.000001 180.62614 
L 815.999977 242.875689 
L 803.999989 251.004784 
L 792 256.983596 
L 780.000011 239.943442 
L 768.000005 256.598871 
L 755.999999 215.925637 
L 744.00001 276.260687 
L 732.000004 256.425646 
L 719.999997 320.098433 
L 708.000009 262.842546 
L 696.000002 226.856716 
L 683.999996 257.457784 
L 672.000007 299.070882 
L 660.000001 274.31563 
L 647.999994 276.727779 
L 636.000006 335.717903 
L 623.999999 265.535738 
L 611.999993 229.104029 
L 600.000004 320.150879 
L 587.999998 302.997612 
L 575.999991 293.996701 
L 564.000003 312.831548 
L 551.999996 309.748201 
L 539.99999 288.528154 
L 528.000001 244.43373 
L 515.999995 236.273849 
L 503.999989 266.749166 
L 492 284.511033 
L 480.000003 256.988299 
L 467.999996 307.373614 
L 455.999999 302.871176 
L 444.000001 270.051243 
L 431.999995 283.371738 
L 419.999997 271.592503 
L 408 277.161763 
L 396.000002 307.346732 
L 384.000005 309.160559 
L 371.999998 308.633473 
L 360.000001 272.611189 
L 348.000003 331.226702 
L 336.000001 272.337058 
L 323.999999 312.182119 
L 311.999997 322.794961 
L 300 316.121613 
L 288.000002 283.757316 
L 276 328.14679 
L 263.999998 312.608019 
L 252.000001 304.659512 
L 240.000001 317.29888 
L 228 322.873727 
L 216 312.07519 
L 204 308.894065 
L 192 336.929964 
L 180 316.369772 
L 168 337.753426 
L 156 337.498522 
L 143.999999 348.754456 
L 131.999999 275.704983 
L 120.000002 247.794233 
L 108 311.191573 
L 95.999998 319.152415 
L 84 319.34185 
L 72.000003 335.607063 
L 60.000001 304.951921 
L 47.999999 291.364739 
L 35.999997 287.897166 
L 23.999999 290.778963 
L 12.000002 291.101233 
L -0.000005 312.722569 
L -12.000002 319.974995 
L -24 330.119278 
L -35.999997 352.102339 
L -47.999995 301.902287 
z
" clip-path="url(#pfbd419080d)" style="fill: #7b4fa3; fill-opacity: 0.25"/>
   </g>
   <g id="PolyCollection_2">
    <path d="M -47.999995 311.493284 
L -47.999995 339.667853 
L -35.999997 357.188409 
L -24 370.982769 
L -12.000002 354.376917 
L -0.000005 367.049509 
L 12.000002 340.353111 
L 23.999999 379.636364 
L 35.999997 347.68583 
L 47.999999 335.776294 
L 60.000001 360.700263 
L 72.000003 320.597364 
L 84 326.608236 
L 95.999998 355.160232 
L 108 344.23785 
L 120.000002 355.784862 
L 131.999999 357.283591 
L 143.999999 319.301567 
L 156 346.617944 
L 168 356.085288 
L 180 358.571829 
L 192 369.356166 
L 204 330.49491 
L 216 345.403005 
L 228 325.625332 
L 240.000001 336.765702 
L 252.000001 332.191264 
L 263.999998 336.327743 
L 276 355.475583 
L 288.000002 337.354752 
L 300 317.597806 
L 311.999997 338.872197 
L 323.999999 335.431804 
L 336.000001 352.980221 
L 348.000003 356.545819 
L 360.000001 320.623552 
L 371.999998 331.891976 
L 384.000005 316.521504 
L 396.000002 355.656948 
L 408 263.302513 
L 419.999997 342.689179 
L 431.999995 335.428055 
L 444.000001 346.350336 
L 455.999999 322.769898 
L 467.999996 300.280038 
L 480.000003 337.580009 
L 492 298.320364 
L 503.999989 232.565254 
L 515.999995 255.107162 
L 528.000001 203.334943 
L 539.99999 269.988403 
L 551.999996 257.571748 
L 564.000003 286.387907 
L 575.999991 321.9965 
L 587.999998 242.457355 
L 600.000004 224.411454 
L 611.999993 236.271494 
L 623.999999 308.205468 
L 636.000006 224.877072 
L 647.999994 299.037734 
L 660.000001 323.65193 
L 672.000007 278.002618 
L 683.999996 315.326417 
L 696.000002 319.415948 
L 708.000009 252.781249 
L 719.999997 281.312983 
L 732.000004 288.813693 
L 744.00001 350.32668 
L 755.999999 331.225343 
L 768.000005 341.121044 
L 780.000011 326.72585 
L 792 336.827933 
L 803.999989 344.329252 
L 815.999977 326.101476 
L 828.000001 298.860766 
L 840.000026 314.160744 
L 852.000014 349.81992 
L 864.000003 342.214844 
L 875.999991 323.723796 
L 887.99998 338.79459 
L 900.000004 353.504845 
L 912.000029 360.394179 
L 924.000017 332.70431 
L 936.000006 324.265988 
L 947.999994 361.11641 
L 959.999983 346.77236 
L 971.999971 351.67839 
L 983.999996 332.599791 
L 996.00002 343.571896 
L 1008.000009 339.993409 
L 1019.999997 341.197773 
L 1031.999986 341.237235 
L 1043.999974 362.368849 
L 1055.999999 365.817971 
L 1068.000023 355.853436 
L 1080.000011 330.865334 
L 1092 376.90512 
L 1103.999989 359.695914 
L 1115.999977 356.649537 
L 1128.000001 349.786207 
L 1140.000026 340.720178 
L 1140.000026 300.504606 
L 1140.000026 300.504606 
L 1128.000001 310.260587 
L 1115.999977 337.138581 
L 1103.999989 332.847306 
L 1092 324.251187 
L 1080.000011 309.121949 
L 1068.000023 319.871507 
L 1055.999999 343.626167 
L 1043.999974 330.377729 
L 1031.999986 294.392569 
L 1019.999997 291.384677 
L 1008.000009 306.38656 
L 996.00002 307.83305 
L 983.999996 300.313081 
L 971.999971 308.665291 
L 959.999983 302.754726 
L 947.999994 299.44342 
L 936.000006 302.32256 
L 924.000017 247.707758 
L 912.000029 305.276174 
L 900.000004 323.031727 
L 887.99998 296.03353 
L 875.999991 270.536487 
L 864.000003 305.705132 
L 852.000014 312.514948 
L 840.000026 280.889541 
L 828.000001 265.447921 
L 815.999977 232.208349 
L 803.999989 318.45949 
L 792 277.824569 
L 780.000011 280.366926 
L 768.000005 280.732994 
L 755.999999 244.867936 
L 744.00001 303.180369 
L 732.000004 230.315617 
L 719.999997 185.45952 
L 708.000009 173.670549 
L 696.000002 280.032708 
L 683.999996 271.688379 
L 672.000007 173.188845 
L 660.000001 252.953147 
L 647.999994 202.398769 
L 636.000006 159.531579 
L 623.999999 267.14704 
L 611.999993 115.227575 
L 600.000004 140.503571 
L 587.999998 146.079839 
L 575.999991 268.767872 
L 564.000003 194.240752 
L 551.999996 167.24478 
L 539.99999 152.520044 
L 528.000001 52.363636 
L 515.999995 165.653366 
L 503.999989 128.489561 
L 492 195.990597 
L 480.000003 299.899119 
L 467.999996 194.780734 
L 455.999999 225.346648 
L 444.000001 314.698905 
L 431.999995 271.744127 
L 419.999997 231.124112 
L 408 208.147024 
L 396.000002 324.755992 
L 384.000005 201.49774 
L 371.999998 283.072525 
L 360.000001 269.977885 
L 348.000003 312.723618 
L 336.000001 319.205795 
L 323.999999 280.34745 
L 311.999997 302.963366 
L 300 279.980104 
L 288.000002 308.996034 
L 276 309.946654 
L 263.999998 284.557091 
L 252.000001 299.334194 
L 240.000001 301.89587 
L 228 242.349922 
L 216 285.112606 
L 204 282.614846 
L 192 346.829667 
L 180 321.364625 
L 168 319.07326 
L 156 319.512287 
L 143.999999 266.27026 
L 131.999999 316.83054 
L 120.000002 319.153384 
L 108 296.9506 
L 95.999998 319.062615 
L 84 261.009962 
L 72.000003 248.435091 
L 60.000001 310.27499 
L 47.999999 287.994422 
L 35.999997 325.808116 
L 23.999999 354.090129 
L 12.000002 307.131303 
L -0.000005 336.405658 
L -12.000002 290.699963 
L -24 348.996623 
L -35.999997 332.447714 
L -47.999995 311.493284 
z
" clip-path="url(#pfbd419080d)" style="fill: #0e87cc; fill-opacity: 0.25"/>
   </g>
   <g id="matplotlib.axis_1">
    <g id="xtick_1">
     <g id="line2d_1">
      <defs>
       <path id="mf65182d870" d="M 0 0 
L 0 3.5 
" style="stroke: #000000; stroke-width: 0.8"/>
      </defs>
      <g>
       <use xlink:href="#mf65182d870" x="72" y="396" style="stroke: #000000; stroke-width: 0.8"/>
      </g>
     </g>
     <g id="text_1">
      <!-- −100 -->
      <g transform="translate(50.02625 415.1575) scale(0.16 -0.16)">
       <defs>
        <path id="DejaVuSans-2212" d="M 678 2272 
L 4684 2272 
L 4684 1741 
L 678 1741 
L 678 2272 
z
" transform="scale(0.015625)"/>
        <path id="DejaVuSans-31" d="M 794 531 
L 1825 531 
L 1825 4091 
L 703 3866 
L 703 4441 
L 1819 4666 
L 2450 4666 
L 2450 531 
L 3481 531 
L 3481 0 
L 794 0 
L 794 531 
z
" transform="scale(0.015625)"/>
        <path id="DejaVuSans-30" d="M 2034 4250 
Q 1547 4250 1301 3770 
Q 1056 3291 1056 2328 
Q 1056 1369 1301 889 
Q 1547 409 2034 409 
Q 2525 409 2770 889 
Q 3016 1369 3016 2328 
Q 3016 3291 2770 3770 
Q 2525 4250 2034 4250 
z
M 2034 4750 
Q 2819 4750 3233 4129 
Q 3647 3509 3647 2328 
Q 3647 1150 3233 529 
Q 2819 -91 2034 -91 
Q 1250 -91 836 529 
Q 422 1150 422 2328 
Q 422 3509 836 4129 
Q 1250 4750 2034 4750 
z
" transform="scale(0.015625)"/>
       </defs>
       <use xlink:href="#DejaVuSans-2212"/>
       <use xlink:href="#DejaVuSans-31" x="83.789062"/>
       <use xlink:href="#DejaVuSans-30" x="147.412109"/>
       <use xlink:href="#DejaVuSans-30" x="211.035156"/>
      </g>
     </g>
    </g>
    <g id="xtick_2">
     <g id="line2d_2">
      <g>
       <use xlink:href="#mf65182d870" x="192" y="396" style="stroke: #000000; stroke-width: 0.8"/>
      </g>
     </g>
     <g id="text_2">
      <!-- 0 -->
      <g transform="translate(186.91 415.1575) scale(0.16 -0.16)">
       <use xlink:href="#DejaVuSans-30"/>
      </g>
     </g>
    </g>
    <g id="xtick_3">
     <g id="line2d_3">
      <g>
       <use xlink:href="#mf65182d870" x="312" y="396" style="stroke: #000000; stroke-width: 0.8"/>
      </g>
     </g>
     <g id="text_3">
      <!-- 100 -->
      <g transform="translate(296.73 415.1575) scale(0.16 -0.16)">
       <use xlink:href="#DejaVuSans-31"/>
       <use xlink:href="#DejaVuSans-30" x="63.623047"/>
       <use xlink:href="#DejaVuSans-30" x="127.246094"/>
      </g>
     </g>
    </g>
    <g id="xtick_4">
     <g id="line2d_4">
      <g>
       <use xlink:href="#mf65182d870" x="432" y="396" style="stroke: #000000; stroke-width: 0.8"/>
      </g>
     </g>
     <g id="text_4">
      <!-- 200 -->
      <g transform="translate(416.73 415.1575) scale(0.16 -0.16)">
       <defs>
        <path id="DejaVuSans-32" d="M 1228 531 
L 3431 531 
L 3431 0 
L 469 0 
L 469 531 
Q 828 903 1448 1529 
Q 2069 2156 2228 2338 
Q 2531 2678 2651 2914 
Q 2772 3150 2772 3378 
Q 2772 3750 2511 3984 
Q 2250 4219 1831 4219 
Q 1534 4219 1204 4116 
Q 875 4013 500 3803 
L 500 4441 
Q 881 4594 1212 4672 
Q 1544 4750 1819 4750 
Q 2544 4750 2975 4387 
Q 3406 4025 3406 3419 
Q 3406 3131 3298 2873 
Q 3191 2616 2906 2266 
Q 2828 2175 2409 1742 
Q 1991 1309 1228 531 
z
" transform="scale(0.015625)"/>
       </defs>
       <use xlink:href="#DejaVuSans-32"/>
       <use xlink:href="#DejaVuSans-30" x="63.623047"/>
       <use xlink:href="#DejaVuSans-30" x="127.246094"/>
      </g>
     </g>
    </g>
    <g id="xtick_5">
     <g id="line2d_5">
      <g>
       <use xlink:href="#mf65182d870" x="552" y="396" style="stroke: #000000; stroke-width: 0.8"/>
      </g>
     </g>
     <g id="text_5">
      <!-- 300 -->
      <g transform="translate(536.73 415.1575) scale(0.16 -0.16)">
       <defs>
        <path id="DejaVuSans-33" d="M 2597 2516 
Q 3050 2419 3304 2112 
Q 3559 1806 3559 1356 
Q 3559 666 3084 287 
Q 2609 -91 1734 -91 
Q 1441 -91 1130 -33 
Q 819 25 488 141 
L 488 750 
Q 750 597 1062 519 
Q 1375 441 1716 441 
Q 2309 441 2620 675 
Q 2931 909 2931 1356 
Q 2931 1769 2642 2001 
Q 2353 2234 1838 2234 
L 1294 2234 
L 1294 2753 
L 1863 2753 
Q 2328 2753 2575 2939 
Q 2822 3125 2822 3475 
Q 2822 3834 2567 4026 
Q 2313 4219 1838 4219 
Q 1578 4219 1281 4162 
Q 984 4106 628 3988 
L 628 4550 
Q 988 4650 1302 4700 
Q 1616 4750 1894 4750 
Q 2613 4750 3031 4423 
Q 3450 4097 3450 3541 
Q 3450 3153 3228 2886 
Q 3006 2619 2597 2516 
z
" transform="scale(0.015625)"/>
       </defs>
       <use xlink:href="#DejaVuSans-33"/>
       <use xlink:href="#DejaVuSans-30" x="63.623047"/>
       <use xlink:href="#DejaVuSans-30" x="127.246094"/>
      </g>
     </g>
    </g>
    <g id="xtick_6">
     <g id="line2d_6">
      <g>
       <use xlink:href="#mf65182d870" x="672" y="396" style="stroke: #000000; stroke-width: 0.8"/>
      </g>
     </g>
     <g id="text_6">
      <!-- 400 -->
      <g transform="translate(656.73 415.1575) scale(0.16 -0.16)">
       <defs>
        <path id="DejaVuSans-34" d="M 2419 4116 
L 825 1625 
L 2419 1625 
L 2419 4116 
z
M 2253 4666 
L 3047 4666 
L 3047 1625 
L 3713 1625 
L 3713 1100 
L 3047 1100 
L 3047 0 
L 2419 0 
L 2419 1100 
L 313 1100 
L 313 1709 
L 2253 4666 
z
" transform="scale(0.015625)"/>
       </defs>
       <use xlink:href="#DejaVuSans-34"/>
       <use xlink:href="#DejaVuSans-30" x="63.623047"/>
       <use xlink:href="#DejaVuSans-30" x="127.246094"/>
      </g>
     </g>
    </g>
    <g id="xtick_7">
     <g id="line2d_7">
      <g>
       <use xlink:href="#mf65182d870" x="792" y="396" style="stroke: #000000; stroke-width: 0.8"/>
      </g>
     </g>
     <g id="text_7">
      <!-- 500 -->
      <g transform="translate(776.73 415.1575) scale(0.16 -0.16)">
       <defs>
        <path id="DejaVuSans-35" d="M 691 4666 
L 3169 4666 
L 3169 4134 
L 1269 4134 
L 1269 2991 
Q 1406 3038 1543 3061 
Q 1681 3084 1819 3084 
Q 2600 3084 3056 2656 
Q 3513 2228 3513 1497 
Q 3513 744 3044 326 
Q 2575 -91 1722 -91 
Q 1428 -91 1123 -41 
Q 819 9 494 109 
L 494 744 
Q 775 591 1075 516 
Q 1375 441 1709 441 
Q 2250 441 2565 725 
Q 2881 1009 2881 1497 
Q 2881 1984 2565 2268 
Q 2250 2553 1709 2553 
Q 1456 2553 1204 2497 
Q 953 2441 691 2322 
L 691 4666 
z
" transform="scale(0.015625)"/>
       </defs>
       <use xlink:href="#DejaVuSans-35"/>
       <use xlink:href="#DejaVuSans-30" x="63.623047"/>
       <use xlink:href="#DejaVuSans-30" x="127.246094"/>
      </g>
     </g>
    </g>
    <g id="text_8">
     <!-- Time from Stimulus Onset (ms) -->
     <g transform="translate(291.473438 436.162187) scale(0.18 -0.18)">
      <defs>
       <path id="DejaVuSans-54" d="M -19 4666 
L 3928 4666 
L 3928 4134 
L 2272 4134 
L 2272 0 
L 1638 0 
L 1638 4134 
L -19 4134 
L -19 4666 
z
" transform="scale(0.015625)"/>
       <path id="DejaVuSans-69" d="M 603 3500 
L 1178 3500 
L 1178 0 
L 603 0 
L 603 3500 
z
M 603 4863 
L 1178 4863 
L 1178 4134 
L 603 4134 
L 603 4863 
z
" transform="scale(0.015625)"/>
       <path id="DejaVuSans-6d" d="M 3328 2828 
Q 3544 3216 3844 3400 
Q 4144 3584 4550 3584 
Q 5097 3584 5394 3201 
Q 5691 2819 5691 2113 
L 5691 0 
L 5113 0 
L 5113 2094 
Q 5113 2597 4934 2840 
Q 4756 3084 4391 3084 
Q 3944 3084 3684 2787 
Q 3425 2491 3425 1978 
L 3425 0 
L 2847 0 
L 2847 2094 
Q 2847 2600 2669 2842 
Q 2491 3084 2119 3084 
Q 1678 3084 1418 2786 
Q 1159 2488 1159 1978 
L 1159 0 
L 581 0 
L 581 3500 
L 1159 3500 
L 1159 2956 
Q 1356 3278 1631 3431 
Q 1906 3584 2284 3584 
Q 2666 3584 2933 3390 
Q 3200 3197 3328 2828 
z
" transform="scale(0.015625)"/>
       <path id="DejaVuSans-65" d="M 3597 1894 
L 3597 1613 
L 953 1613 
Q 991 1019 1311 708 
Q 1631 397 2203 397 
Q 2534 397 2845 478 
Q 3156 559 3463 722 
L 3463 178 
Q 3153 47 2828 -22 
Q 2503 -91 2169 -91 
Q 1331 -91 842 396 
Q 353 884 353 1716 
Q 353 2575 817 3079 
Q 1281 3584 2069 3584 
Q 2775 3584 3186 3129 
Q 3597 2675 3597 1894 
z
M 3022 2063 
Q 3016 2534 2758 2815 
Q 2500 3097 2075 3097 
Q 1594 3097 1305 2825 
Q 1016 2553 972 2059 
L 3022 2063 
z
" transform="scale(0.015625)"/>
       <path id="DejaVuSans-20" transform="scale(0.015625)"/>
       <path id="DejaVuSans-66" d="M 2375 4863 
L 2375 4384 
L 1825 4384 
Q 1516 4384 1395 4259 
Q 1275 4134 1275 3809 
L 1275 3500 
L 2222 3500 
L 2222 3053 
L 1275 3053 
L 1275 0 
L 697 0 
L 697 3053 
L 147 3053 
L 147 3500 
L 697 3500 
L 697 3744 
Q 697 4328 969 4595 
Q 1241 4863 1831 4863 
L 2375 4863 
z
" transform="scale(0.015625)"/>
       <path id="DejaVuSans-72" d="M 2631 2963 
Q 2534 3019 2420 3045 
Q 2306 3072 2169 3072 
Q 1681 3072 1420 2755 
Q 1159 2438 1159 1844 
L 1159 0 
L 581 0 
L 581 3500 
L 1159 3500 
L 1159 2956 
Q 1341 3275 1631 3429 
Q 1922 3584 2338 3584 
Q 2397 3584 2469 3576 
Q 2541 3569 2628 3553 
L 2631 2963 
z
" transform="scale(0.015625)"/>
       <path id="DejaVuSans-6f" d="M 1959 3097 
Q 1497 3097 1228 2736 
Q 959 2375 959 1747 
Q 959 1119 1226 758 
Q 1494 397 1959 397 
Q 2419 397 2687 759 
Q 2956 1122 2956 1747 
Q 2956 2369 2687 2733 
Q 2419 3097 1959 3097 
z
M 1959 3584 
Q 2709 3584 3137 3096 
Q 3566 2609 3566 1747 
Q 3566 888 3137 398 
Q 2709 -91 1959 -91 
Q 1206 -91 779 398 
Q 353 888 353 1747 
Q 353 2609 779 3096 
Q 1206 3584 1959 3584 
z
" transform="scale(0.015625)"/>
       <path id="DejaVuSans-53" d="M 3425 4513 
L 3425 3897 
Q 3066 4069 2747 4153 
Q 2428 4238 2131 4238 
Q 1616 4238 1336 4038 
Q 1056 3838 1056 3469 
Q 1056 3159 1242 3001 
Q 1428 2844 1947 2747 
L 2328 2669 
Q 3034 2534 3370 2195 
Q 3706 1856 3706 1288 
Q 3706 609 3251 259 
Q 2797 -91 1919 -91 
Q 1588 -91 1214 -16 
Q 841 59 441 206 
L 441 856 
Q 825 641 1194 531 
Q 1563 422 1919 422 
Q 2459 422 2753 634 
Q 3047 847 3047 1241 
Q 3047 1584 2836 1778 
Q 2625 1972 2144 2069 
L 1759 2144 
Q 1053 2284 737 2584 
Q 422 2884 422 3419 
Q 422 4038 858 4394 
Q 1294 4750 2059 4750 
Q 2388 4750 2728 4690 
Q 3069 4631 3425 4513 
z
" transform="scale(0.015625)"/>
       <path id="DejaVuSans-74" d="M 1172 4494 
L 1172 3500 
L 2356 3500 
L 2356 3053 
L 1172 3053 
L 1172 1153 
Q 1172 725 1289 603 
Q 1406 481 1766 481 
L 2356 481 
L 2356 0 
L 1766 0 
Q 1100 0 847 248 
Q 594 497 594 1153 
L 594 3053 
L 172 3053 
L 172 3500 
L 594 3500 
L 594 4494 
L 1172 4494 
z
" transform="scale(0.015625)"/>
       <path id="DejaVuSans-75" d="M 544 1381 
L 544 3500 
L 1119 3500 
L 1119 1403 
Q 1119 906 1312 657 
Q 1506 409 1894 409 
Q 2359 409 2629 706 
Q 2900 1003 2900 1516 
L 2900 3500 
L 3475 3500 
L 3475 0 
L 2900 0 
L 2900 538 
Q 2691 219 2414 64 
Q 2138 -91 1772 -91 
Q 1169 -91 856 284 
Q 544 659 544 1381 
z
M 1991 3584 
L 1991 3584 
z
" transform="scale(0.015625)"/>
       <path id="DejaVuSans-6c" d="M 603 4863 
L 1178 4863 
L 1178 0 
L 603 0 
L 603 4863 
z
" transform="scale(0.015625)"/>
       <path id="DejaVuSans-73" d="M 2834 3397 
L 2834 2853 
Q 2591 2978 2328 3040 
Q 2066 3103 1784 3103 
Q 1356 3103 1142 2972 
Q 928 2841 928 2578 
Q 928 2378 1081 2264 
Q 1234 2150 1697 2047 
L 1894 2003 
Q 2506 1872 2764 1633 
Q 3022 1394 3022 966 
Q 3022 478 2636 193 
Q 2250 -91 1575 -91 
Q 1294 -91 989 -36 
Q 684 19 347 128 
L 347 722 
Q 666 556 975 473 
Q 1284 391 1588 391 
Q 1994 391 2212 530 
Q 2431 669 2431 922 
Q 2431 1156 2273 1281 
Q 2116 1406 1581 1522 
L 1381 1569 
Q 847 1681 609 1914 
Q 372 2147 372 2553 
Q 372 3047 722 3315 
Q 1072 3584 1716 3584 
Q 2034 3584 2315 3537 
Q 2597 3491 2834 3397 
z
" transform="scale(0.015625)"/>
       <path id="DejaVuSans-4f" d="M 2522 4238 
Q 1834 4238 1429 3725 
Q 1025 3213 1025 2328 
Q 1025 1447 1429 934 
Q 1834 422 2522 422 
Q 3209 422 3611 934 
Q 4013 1447 4013 2328 
Q 4013 3213 3611 3725 
Q 3209 4238 2522 4238 
z
M 2522 4750 
Q 3503 4750 4090 4092 
Q 4678 3434 4678 2328 
Q 4678 1225 4090 567 
Q 3503 -91 2522 -91 
Q 1538 -91 948 565 
Q 359 1222 359 2328 
Q 359 3434 948 4092 
Q 1538 4750 2522 4750 
z
" transform="scale(0.015625)"/>
       <path id="DejaVuSans-6e" d="M 3513 2113 
L 3513 0 
L 2938 0 
L 2938 2094 
Q 2938 2591 2744 2837 
Q 2550 3084 2163 3084 
Q 1697 3084 1428 2787 
Q 1159 2491 1159 1978 
L 1159 0 
L 581 0 
L 581 3500 
L 1159 3500 
L 1159 2956 
Q 1366 3272 1645 3428 
Q 1925 3584 2291 3584 
Q 2894 3584 3203 3211 
Q 3513 2838 3513 2113 
z
" transform="scale(0.015625)"/>
       <path id="DejaVuSans-28" d="M 1984 4856 
Q 1566 4138 1362 3434 
Q 1159 2731 1159 2009 
Q 1159 1288 1364 580 
Q 1569 -128 1984 -844 
L 1484 -844 
Q 1016 -109 783 600 
Q 550 1309 550 2009 
Q 550 2706 781 3412 
Q 1013 4119 1484 4856 
L 1984 4856 
z
" transform="scale(0.015625)"/>
       <path id="DejaVuSans-29" d="M 513 4856 
L 1013 4856 
Q 1481 4119 1714 3412 
Q 1947 2706 1947 2009 
Q 1947 1309 1714 600 
Q 1481 -109 1013 -844 
L 513 -844 
Q 928 -128 1133 580 
Q 1338 1288 1338 2009 
Q 1338 2731 1133 3434 
Q 928 4138 513 4856 
z
" transform="scale(0.015625)"/>
      </defs>
      <use xlink:href="#DejaVuSans-54"/>
      <use xlink:href="#DejaVuSans-69" x="57.958984"/>
      <use xlink:href="#DejaVuSans-6d" x="85.742188"/>
      <use xlink:href="#DejaVuSans-65" x="183.154297"/>
      <use xlink:href="#DejaVuSans-20" x="244.677734"/>
      <use xlink:href="#DejaVuSans-66" x="276.464844"/>
      <use xlink:href="#DejaVuSans-72" x="311.669922"/>
      <use xlink:href="#DejaVuSans-6f" x="350.533203"/>
      <use xlink:href="#DejaVuSans-6d" x="411.714844"/>
      <use xlink:href="#DejaVuSans-20" x="509.126953"/>
      <use xlink:href="#DejaVuSans-53" x="540.914062"/>
      <use xlink:href="#DejaVuSans-74" x="604.390625"/>
      <use xlink:href="#DejaVuSans-69" x="643.599609"/>
      <use xlink:href="#DejaVuSans-6d" x="671.382812"/>
      <use xlink:href="#DejaVuSans-75" x="768.794922"/>
      <use xlink:href="#DejaVuSans-6c" x="832.173828"/>
      <use xlink:href="#DejaVuSans-75" x="859.957031"/>
      <use xlink:href="#DejaVuSans-73" x="923.335938"/>
      <use xlink:href="#DejaVuSans-20" x="975.435547"/>
      <use xlink:href="#DejaVuSans-4f" x="1007.222656"/>
      <use xlink:href="#DejaVuSans-6e" x="1085.933594"/>
      <use xlink:href="#DejaVuSans-73" x="1149.3125"/>
      <use xlink:href="#DejaVuSans-65" x="1201.412109"/>
      <use xlink:href="#DejaVuSans-74" x="1262.935547"/>
      <use xlink:href="#DejaVuSans-20" x="1302.144531"/>
      <use xlink:href="#DejaVuSans-28" x="1333.931641"/>
      <use xlink:href="#DejaVuSans-6d" x="1372.945312"/>
      <use xlink:href="#DejaVuSans-73" x="1470.357422"/>
      <use xlink:href="#DejaVuSans-29" x="1522.457031"/>
     </g>
    </g>
   </g>
   <g id="matplotlib.axis_2">
    <g id="ytick_1">
     <g id="line2d_8">
      <defs>
       <path id="mb9580d956c" d="M 0 0 
L -3.5 0 
" style="stroke: #000000; stroke-width: 0.8"/>
      </defs>
      <g>
       <use xlink:href="#mb9580d956c" x="72" y="353.436314" style="stroke: #000000; stroke-width: 0.8"/>
      </g>
     </g>
     <g id="text_9">
      <!-- 2 -->
      <g transform="translate(54.82 359.515064) scale(0.16 -0.16)">
       <use xlink:href="#DejaVuSans-32"/>
      </g>
     </g>
    </g>
    <g id="ytick_2">
     <g id="line2d_9">
      <g>
       <use xlink:href="#mb9580d956c" x="72" y="303.885784" style="stroke: #000000; stroke-width: 0.8"/>
      </g>
     </g>
     <g id="text_10">
      <!-- 4 -->
      <g transform="translate(54.82 309.964534) scale(0.16 -0.16)">
       <use xlink:href="#DejaVuSans-34"/>
      </g>
     </g>
    </g>
    <g id="ytick_3">
     <g id="line2d_10">
      <g>
       <use xlink:href="#mb9580d956c" x="72" y="254.335254" style="stroke: #000000; stroke-width: 0.8"/>
      </g>
     </g>
     <g id="text_11">
      <!-- 6 -->
      <g transform="translate(54.82 260.414004) scale(0.16 -0.16)">
       <defs>
        <path id="DejaVuSans-36" d="M 2113 2584 
Q 1688 2584 1439 2293 
Q 1191 2003 1191 1497 
Q 1191 994 1439 701 
Q 1688 409 2113 409 
Q 2538 409 2786 701 
Q 3034 994 3034 1497 
Q 3034 2003 2786 2293 
Q 2538 2584 2113 2584 
z
M 3366 4563 
L 3366 3988 
Q 3128 4100 2886 4159 
Q 2644 4219 2406 4219 
Q 1781 4219 1451 3797 
Q 1122 3375 1075 2522 
Q 1259 2794 1537 2939 
Q 1816 3084 2150 3084 
Q 2853 3084 3261 2657 
Q 3669 2231 3669 1497 
Q 3669 778 3244 343 
Q 2819 -91 2113 -91 
Q 1303 -91 875 529 
Q 447 1150 447 2328 
Q 447 3434 972 4092 
Q 1497 4750 2381 4750 
Q 2619 4750 2861 4703 
Q 3103 4656 3366 4563 
z
" transform="scale(0.015625)"/>
       </defs>
       <use xlink:href="#DejaVuSans-36"/>
      </g>
     </g>
    </g>
    <g id="ytick_4">
     <g id="line2d_11">
      <g>
       <use xlink:href="#mb9580d956c" x="72" y="204.784724" style="stroke: #000000; stroke-width: 0.8"/>
      </g>
     </g>
     <g id="text_12">
      <!-- 8 -->
      <g transform="translate(54.82 210.863474) scale(0.16 -0.16)">
       <defs>
        <path id="DejaVuSans-38" d="M 2034 2216 
Q 1584 2216 1326 1975 
Q 1069 1734 1069 1313 
Q 1069 891 1326 650 
Q 1584 409 2034 409 
Q 2484 409 2743 651 
Q 3003 894 3003 1313 
Q 3003 1734 2745 1975 
Q 2488 2216 2034 2216 
z
M 1403 2484 
Q 997 2584 770 2862 
Q 544 3141 544 3541 
Q 544 4100 942 4425 
Q 1341 4750 2034 4750 
Q 2731 4750 3128 4425 
Q 3525 4100 3525 3541 
Q 3525 3141 3298 2862 
Q 3072 2584 2669 2484 
Q 3125 2378 3379 2068 
Q 3634 1759 3634 1313 
Q 3634 634 3220 271 
Q 2806 -91 2034 -91 
Q 1263 -91 848 271 
Q 434 634 434 1313 
Q 434 1759 690 2068 
Q 947 2378 1403 2484 
z
M 1172 3481 
Q 1172 3119 1398 2916 
Q 1625 2713 2034 2713 
Q 2441 2713 2670 2916 
Q 2900 3119 2900 3481 
Q 2900 3844 2670 4047 
Q 2441 4250 2034 4250 
Q 1625 4250 1398 4047 
Q 1172 3844 1172 3481 
z
" transform="scale(0.015625)"/>
       </defs>
       <use xlink:href="#DejaVuSans-38"/>
      </g>
     </g>
    </g>
    <g id="ytick_5">
     <g id="line2d_12">
      <g>
       <use xlink:href="#mb9580d956c" x="72" y="155.234194" style="stroke: #000000; stroke-width: 0.8"/>
      </g>
     </g>
     <g id="text_13">
      <!-- 10 -->
      <g transform="translate(44.64 161.312944) scale(0.16 -0.16)">
       <use xlink:href="#DejaVuSans-31"/>
       <use xlink:href="#DejaVuSans-30" x="63.623047"/>
      </g>
     </g>
    </g>
    <g id="ytick_6">
     <g id="line2d_13">
      <g>
       <use xlink:href="#mb9580d956c" x="72" y="105.683663" style="stroke: #000000; stroke-width: 0.8"/>
      </g>
     </g>
     <g id="text_14">
      <!-- 12 -->
      <g transform="translate(44.64 111.762413) scale(0.16 -0.16)">
       <use xlink:href="#DejaVuSans-31"/>
       <use xlink:href="#DejaVuSans-32" x="63.623047"/>
      </g>
     </g>
    </g>
    <g id="ytick_7">
     <g id="line2d_14">
      <g>
       <use xlink:href="#mb9580d956c" x="72" y="56.133133" style="stroke: #000000; stroke-width: 0.8"/>
      </g>
     </g>
     <g id="text_15">
      <!-- 14 -->
      <g transform="translate(44.64 62.211883) scale(0.16 -0.16)">
       <use xlink:href="#DejaVuSans-31"/>
       <use xlink:href="#DejaVuSans-34" x="63.623047"/>
      </g>
     </g>
    </g>
    <g id="text_16">
     <!-- ΔLL (bits) -->
     <g transform="translate(36.896563 258.499687) rotate(-90) scale(0.18 -0.18)">
      <defs>
       <path id="DejaVuSans-394" d="M 2188 4044 
L 906 525 
L 3472 525 
L 2188 4044 
z
M 50 0 
L 1831 4666 
L 2547 4666 
L 4325 0 
L 50 0 
z
" transform="scale(0.015625)"/>
       <path id="DejaVuSans-4c" d="M 628 4666 
L 1259 4666 
L 1259 531 
L 3531 531 
L 3531 0 
L 628 0 
L 628 4666 
z
" transform="scale(0.015625)"/>
       <path id="DejaVuSans-62" d="M 3116 1747 
Q 3116 2381 2855 2742 
Q 2594 3103 2138 3103 
Q 1681 3103 1420 2742 
Q 1159 2381 1159 1747 
Q 1159 1113 1420 752 
Q 1681 391 2138 391 
Q 2594 391 2855 752 
Q 3116 1113 3116 1747 
z
M 1159 2969 
Q 1341 3281 1617 3432 
Q 1894 3584 2278 3584 
Q 2916 3584 3314 3078 
Q 3713 2572 3713 1747 
Q 3713 922 3314 415 
Q 2916 -91 2278 -91 
Q 1894 -91 1617 61 
Q 1341 213 1159 525 
L 1159 0 
L 581 0 
L 581 4863 
L 1159 4863 
L 1159 2969 
z
" transform="scale(0.015625)"/>
      </defs>
      <use xlink:href="#DejaVuSans-394"/>
      <use xlink:href="#DejaVuSans-4c" x="68.408203"/>
      <use xlink:href="#DejaVuSans-4c" x="124.121094"/>
      <use xlink:href="#DejaVuSans-20" x="179.833984"/>
      <use xlink:href="#DejaVuSans-28" x="211.621094"/>
      <use xlink:href="#DejaVuSans-62" x="250.634766"/>
      <use xlink:href="#DejaVuSans-69" x="314.111328"/>
      <use xlink:href="#DejaVuSans-74" x="341.894531"/>
      <use xlink:href="#DejaVuSans-73" x="381.103516"/>
      <use xlink:href="#DejaVuSans-29" x="433.203125"/>
     </g>
    </g>
   </g>
   <g id="line2d_15">
    <path d="M 192 396 
L 192 36 
" clip-path="url(#pfbd419080d)" style="fill: none; stroke-dasharray: 2.96,1.28; stroke-dashoffset: 0; stroke: #000000; stroke-width: 0.8"/>
   </g>
   <g id="line2d_16">
    <path d="M -1 326.931129 
L -0.000005 325.737464 
L 12.000002 317.391759 
L 23.999999 319.437582 
L 35.999997 311.267377 
L 47.999999 321.467891 
L 60.000001 329.458068 
L 72.000003 348.037151 
L 84 332.849354 
L 95.999998 336.218034 
L 108 327.922902 
L 120.000002 284.459888 
L 131.999999 304.13607 
L 143.999999 357.400667 
L 156 346.399319 
L 168 352.001196 
L 180 331.461681 
L 192 352.988756 
L 204 334.222645 
L 216 336.673883 
L 228 337.926162 
L 240.000001 333.277788 
L 252.000001 314.682609 
L 263.999998 325.82728 
L 276 341.850641 
L 288.000002 304.392988 
L 300 333.803914 
L 311.999997 337.933245 
L 323.999999 327.26232 
L 336.000001 295.169554 
L 348.000003 337.700091 
L 360.000001 303.463368 
L 371.999998 328.453008 
L 384.000005 326.554463 
L 396.000002 333.948698 
L 408 304.377449 
L 419.999997 292.853139 
L 431.999995 305.262257 
L 444.000001 295.014255 
L 455.999999 319.933831 
L 467.999996 324.863237 
L 480.000003 301.679805 
L 492 324.168851 
L 503.999989 290.446812 
L 515.999995 269.631383 
L 528.000001 279.524626 
L 539.99999 305.713109 
L 551.999996 329.910394 
L 564.000003 329.430847 
L 575.999991 314.629852 
L 587.999998 321.38293 
L 600.000004 341.987476 
L 611.999993 252.606416 
L 623.999999 292.8409 
L 636.000006 351.100256 
L 647.999994 290.4564 
L 660.000001 308.340772 
L 672.000007 328.29536 
L 683.999996 287.009023 
L 696.000002 261.811115 
L 708.000009 284.080797 
L 719.999997 335.228522 
L 732.000004 293.297921 
L 744.00001 304.626309 
L 755.999999 242.559681 
L 768.000005 298.055248 
L 780.000011 292.81771 
L 792 294.794843 
L 803.999989 278.312796 
L 815.999977 280.361579 
L 828.000001 235.687423 
L 829 239.862225 
" clip-path="url(#pfbd419080d)" style="fill: none; stroke: #7b4fa3; stroke-width: 2; stroke-linecap: square"/>
   </g>
   <g id="line2d_17">
    <path d="M -1 349.295166 
L -0.000005 351.727584 
L 12.000002 323.742207 
L 23.999999 366.863246 
L 35.999997 336.746973 
L 47.999999 311.885358 
L 60.000001 335.487627 
L 72.000003 284.516228 
L 84 293.809099 
L 95.999998 337.111424 
L 108 320.594225 
L 120.000002 337.469123 
L 131.999999 337.057065 
L 143.999999 292.785913 
L 156 333.065116 
L 168 337.579274 
L 180 339.968227 
L 192 358.092916 
L 204 306.554878 
L 216 315.257805 
L 228 283.987627 
L 240.000001 319.330786 
L 252.000001 315.762729 
L 263.999998 310.442417 
L 276 332.711118 
L 288.000002 323.175393 
L 300 298.788955 
L 311.999997 320.917782 
L 323.999999 307.889627 
L 336.000001 336.093008 
L 348.000003 334.634718 
L 360.000001 295.300718 
L 371.999998 307.482251 
L 384.000005 259.009622 
L 396.000002 340.20647 
L 408 235.724768 
L 419.999997 286.906646 
L 431.999995 303.586091 
L 444.000001 330.52462 
L 455.999999 274.058273 
L 467.999996 247.530386 
L 480.000003 318.739564 
L 492 247.155481 
L 503.999989 180.527407 
L 515.999995 210.380264 
L 528.000001 127.84929 
L 539.99999 211.254223 
L 551.999996 212.408264 
L 564.000003 240.31433 
L 575.999991 295.382186 
L 587.999998 194.268597 
L 600.000004 182.457513 
L 611.999993 175.749535 
L 623.999999 287.676254 
L 636.000006 192.204326 
L 647.999994 250.718251 
L 660.000001 288.302539 
L 672.000007 225.595732 
L 683.999996 293.507398 
L 696.000002 299.724328 
L 708.000009 213.225899 
L 719.999997 233.386252 
L 732.000004 259.564655 
L 744.00001 326.753525 
L 755.999999 288.04664 
L 768.000005 310.927019 
L 780.000011 303.546388 
L 792 307.326251 
L 803.999989 331.394371 
L 815.999977 279.154912 
L 828.000001 282.154343 
L 829 283.435239 
" clip-path="url(#pfbd419080d)" style="fill: none; stroke: #0e87cc; stroke-width: 2; stroke-linecap: square"/>
   </g>
   <g id="patch_3">
    <path d="M 72 396 
L 72 36 
" style="fill: none; stroke: #000000; stroke-width: 0.8; stroke-linejoin: miter; stroke-linecap: square"/>
   </g>
   <g id="patch_4">
    <path d="M 792 396 
L 792 36 
" style="fill: none; stroke: #000000; stroke-width: 0.8; stroke-linejoin: miter; stroke-linecap: square"/>
   </g>
   <g id="patch_5">
    <path d="M 72 396 
L 792 396 
" style="fill: none; stroke: #000000; stroke-width: 0.8; stroke-linejoin: miter; stroke-linecap: square"/>
   </g>
   <g id="patch_6">
    <path d="M 72 36 
L 792 36 
" style="fill: none; stroke: #000000; stroke-width: 0.8; stroke-linejoin: miter; stroke-linecap: square"/>
   </g>
   <g id="legend_1">
    <g id="line2d_18">
     <path d="M 85.5 55.647656 
L 100.5 55.647656 
L 115.5 55.647656 
" style="fill: none; stroke: #7b4fa3; stroke-width: 2; stroke-linecap: square"/>
    </g>
    <g id="text_17">
     <!-- MSC→MFEF -->
     <g transform="translate(127.5 60.897656) scale(0.15 -0.15)">
      <defs>
       <path id="DejaVuSans-4d" d="M 628 4666 
L 1569 4666 
L 2759 1491 
L 3956 4666 
L 4897 4666 
L 4897 0 
L 4281 0 
L 4281 4097 
L 3078 897 
L 2444 897 
L 1241 4097 
L 1241 0 
L 628 0 
L 628 4666 
z
" transform="scale(0.015625)"/>
       <path id="DejaVuSans-43" d="M 4122 4306 
L 4122 3641 
Q 3803 3938 3442 4084 
Q 3081 4231 2675 4231 
Q 1875 4231 1450 3742 
Q 1025 3253 1025 2328 
Q 1025 1406 1450 917 
Q 1875 428 2675 428 
Q 3081 428 3442 575 
Q 3803 722 4122 1019 
L 4122 359 
Q 3791 134 3420 21 
Q 3050 -91 2638 -91 
Q 1578 -91 968 557 
Q 359 1206 359 2328 
Q 359 3453 968 4101 
Q 1578 4750 2638 4750 
Q 3056 4750 3426 4639 
Q 3797 4528 4122 4306 
z
" transform="scale(0.015625)"/>
       <path id="DejaVuSans-2192" d="M 5050 2147 
L 5050 1866 
L 3822 638 
L 3447 1013 
L 4175 1741 
L 366 1741 
L 366 2272 
L 4175 2272 
L 3447 3000 
L 3822 3375 
L 5050 2147 
z
" transform="scale(0.015625)"/>
       <path id="DejaVuSans-46" d="M 628 4666 
L 3309 4666 
L 3309 4134 
L 1259 4134 
L 1259 2759 
L 3109 2759 
L 3109 2228 
L 1259 2228 
L 1259 0 
L 628 0 
L 628 4666 
z
" transform="scale(0.015625)"/>
       <path id="DejaVuSans-45" d="M 628 4666 
L 3578 4666 
L 3578 4134 
L 1259 4134 
L 1259 2753 
L 3481 2753 
L 3481 2222 
L 1259 2222 
L 1259 531 
L 3634 531 
L 3634 0 
L 628 0 
L 628 4666 
z
" transform="scale(0.015625)"/>
      </defs>
      <use xlink:href="#DejaVuSans-4d"/>
      <use xlink:href="#DejaVuSans-53" x="86.279297"/>
      <use xlink:href="#DejaVuSans-43" x="149.755859"/>
      <use xlink:href="#DejaVuSans-2192" x="219.580078"/>
      <use xlink:href="#DejaVuSans-4d" x="303.369141"/>
      <use xlink:href="#DejaVuSans-46" x="389.648438"/>
      <use xlink:href="#DejaVuSans-45" x="447.167969"/>
      <use xlink:href="#DejaVuSans-46" x="510.351562"/>
     </g>
    </g>
    <g id="line2d_19">
     <path d="M 85.5 77.664844 
L 100.5 77.664844 
L 115.5 77.664844 
" style="fill: none; stroke: #0e87cc; stroke-width: 2; stroke-linecap: square"/>
    </g>
    <g id="text_18">
     <!-- MFEF→MSC -->
     <g transform="translate(127.5 82.914844) scale(0.15 -0.15)">
      <use xlink:href="#DejaVuSans-4d"/>
      <use xlink:href="#DejaVuSans-46" x="86.279297"/>
      <use xlink:href="#DejaVuSans-45" x="143.798828"/>
      <use xlink:href="#DejaVuSans-46" x="206.982422"/>
      <use xlink:href="#DejaVuSans-2192" x="264.501953"/>
      <use xlink:href="#DejaVuSans-4d" x="348.291016"/>
      <use xlink:href="#DejaVuSans-53" x="434.570312"/>
      <use xlink:href="#DejaVuSans-43" x="498.046875"/>
     </g>
    </g>
   </g>
  </g>
 </g>
 <defs>
  <clipPath id="pfbd419080d">
   <rect x="72" y="36" width="720" height="360"/>
  </clipPath>
 </defs>
</svg>
