<?xml version="1.0" encoding="utf-8" standalone="no"?>
<!DOCTYPE svg PUBLIC "-//W3C//DTD SVG 1.1//EN"
  "http://www.w3.org/Graphics/SVG/1.1/DTD/svg11.dtd">
<svg xmlns:xlink="http://www.w3.org/1999/xlink" width="561.6pt" height="561.6pt" viewBox="0 0 561.6 561.6" xmlns="http://www.w3.org/2000/svg" version="1.1">
 <metadata>
  <rdf:RDF xmlns:dc="http://purl.org/dc/elements/1.1/" xmlns:cc="http://creativecommons.org/ns#" xmlns:rdf="http://www.w3.org/1999/02/22-rdf-syntax-ns#">
   <cc:Work>
    <dc:type rdf:resource="http://purl.org/dc/dcmitype/StillImage"/>
    <dc:date>2025-12-07T13:55:13.573374</dc:date>
    <dc:format>image/svg+xml</dc:format>
    <dc:creator>
     <cc:Agent>
      <dc:title>Matplotlib v3.10.5, https://matplotlib.org/</dc:title>
     </cc:Agent>
    </dc:creator>
   </cc:Work>
  </rdf:RDF>
 </metadata>
 <defs>
  <style type="text/css">*{stroke-linejoin: round; stroke-linecap: butt}</style>
 </defs>
 <g id="figure_1">
  <g id="patch_1">
   <path d="M 0 561.6 
L 561.6 561.6 
L 561.6 0 
L 0 0 
z
" style="fill: #ffffff"/>
  </g>
  <g id="axes_1">
   <g id="patch_2">
    <path d="M 70.2 206.388 
L 505.44 206.388 
L 505.44 67.392 
L 70.2 67.392 
z
" style="fill: #ffffff"/>
   </g>
   <g id="FillBetweenPolyCollection_1">
    <defs>
     <path id="m0ccf4a9328" d="M 89.983636 -425.93097 
L 89.983636 -386.988456 
L 93.980327 -386.867644 
L 97.977023 -386.923915 
L 101.973713 -387.888111 
L 105.97041 -388.927744 
L 109.967106 -387.164845 
L 113.963796 -386.701598 
L 117.960493 -387.690196 
L 121.957186 -386.793711 
L 125.953882 -385.115383 
L 129.950576 -385.704888 
L 133.947269 -386.763325 
L 137.943962 -387.380536 
L 141.940659 -386.722294 
L 145.937352 -386.700871 
L 149.934045 -386.896876 
L 153.93074 -386.030935 
L 157.927434 -388.785843 
L 161.924129 -386.450406 
L 165.920823 -387.925049 
L 169.917517 -386.574381 
L 173.914211 -386.964174 
L 177.910906 -387.551114 
L 181.9076 -385.893669 
L 185.904294 -387.133881 
L 189.900988 -386.582141 
L 193.897681 -387.916292 
L 197.894377 -388.929233 
L 201.891071 -387.259844 
L 205.887764 -388.242447 
L 209.884457 -387.786655 
L 213.881154 -391.881284 
L 217.877847 -392.207703 
L 221.874543 -388.227451 
L 225.871234 -389.6348 
L 229.86793 -390.31745 
L 233.864626 -389.102595 
L 237.861317 -389.55153 
L 241.858013 -391.889048 
L 245.854704 -391.722792 
L 249.8514 -387.299653 
L 253.848096 -388.529263 
L 257.844787 -386.636924 
L 261.841483 -390.429956 
L 265.838179 -389.77267 
L 269.83487 -387.7936 
L 273.83156 -388.283266 
L 277.828262 -387.297185 
L 281.824953 -388.12496 
L 285.821643 -387.590256 
L 289.818345 -386.636143 
L 293.815036 -386.414758 
L 297.811726 -386.390932 
L 301.808428 -384.505235 
L 305.805119 -388.225694 
L 309.801809 -389.297576 
L 313.798511 -389.882742 
L 317.795202 -388.102866 
L 321.791892 -386.967255 
L 325.788594 -389.802846 
L 329.785285 -388.449804 
L 333.781975 -389.252853 
L 337.778677 -389.165884 
L 341.775368 -386.822189 
L 345.772058 -390.093192 
L 349.76876 -387.690289 
L 353.765451 -389.151787 
L 357.762141 -385.848236 
L 361.758843 -387.944484 
L 365.755534 -384.697204 
L 369.752224 -387.581546 
L 373.748914 -387.116561 
L 377.745605 -389.590563 
L 381.742319 -388.954291 
L 385.739009 -386.25869 
L 389.7357 -385.224457 
L 393.73239 -386.097124 
L 397.72908 -387.291708 
L 401.725771 -387.685089 
L 405.722485 -386.31601 
L 409.719175 -385.458539 
L 413.715866 -388.305105 
L 417.712556 -386.349587 
L 421.709246 -386.546446 
L 425.705937 -387.786162 
L 429.702627 -390.247365 
L 433.699341 -386.854696 
L 437.696032 -388.44667 
L 441.692722 -388.671409 
L 445.689412 -385.716145 
L 449.686103 -387.717749 
L 453.682793 -387.360238 
L 457.679507 -386.951992 
L 461.676198 -386.665391 
L 465.672888 -384.779288 
L 469.669578 -388.038964 
L 473.666269 -386.520312 
L 477.662959 -389.241656 
L 481.659673 -386.997045 
L 485.656364 -387.086948 
L 485.656364 -427.497469 
L 485.656364 -427.497469 
L 481.659673 -431.226672 
L 477.662959 -428.543079 
L 473.666269 -430.827625 
L 469.669578 -429.716344 
L 465.672888 -425.709902 
L 461.676198 -426.097754 
L 457.679507 -427.847561 
L 453.682793 -428.365382 
L 449.686103 -430.559451 
L 445.689412 -429.58187 
L 441.692722 -428.203881 
L 437.696032 -430.25456 
L 433.699341 -427.752997 
L 429.702627 -430.815297 
L 425.705937 -428.897261 
L 421.709246 -429.669701 
L 417.712556 -425.105915 
L 413.715866 -429.849894 
L 409.719175 -430.284161 
L 405.722485 -426.391101 
L 401.725771 -429.329436 
L 397.72908 -427.477679 
L 393.73239 -427.475548 
L 389.7357 -426.410756 
L 385.739009 -430.39964 
L 381.742319 -431.191192 
L 377.745605 -430.27803 
L 373.748914 -427.261541 
L 369.752224 -427.332406 
L 365.755534 -426.999983 
L 361.758843 -431.066554 
L 357.762141 -427.498724 
L 353.765451 -429.055225 
L 349.76876 -429.250498 
L 345.772058 -428.393418 
L 341.775368 -428.370297 
L 337.778677 -432.262526 
L 333.781975 -432.528955 
L 329.785285 -429.54663 
L 325.788594 -433.908046 
L 321.791892 -428.136187 
L 317.795202 -430.448964 
L 313.798511 -431.32805 
L 309.801809 -432.261304 
L 305.805119 -432.000658 
L 301.808428 -428.737642 
L 297.811726 -427.506844 
L 293.815036 -429.651355 
L 289.818345 -427.433722 
L 285.821643 -429.188194 
L 281.824953 -430.894 
L 277.828262 -430.2237 
L 273.83156 -427.417533 
L 269.83487 -431.536955 
L 265.838179 -431.16966 
L 261.841483 -430.665387 
L 257.844787 -428.665928 
L 253.848096 -431.812692 
L 249.8514 -428.419499 
L 245.854704 -435.409324 
L 241.858013 -434.84707 
L 237.861317 -431.784943 
L 233.864626 -431.348084 
L 229.86793 -431.087454 
L 225.871234 -429.851141 
L 221.874543 -429.967376 
L 217.877847 -431.642757 
L 213.881154 -434.225955 
L 209.884457 -429.037456 
L 205.887764 -429.53835 
L 201.891071 -427.545322 
L 197.894377 -428.728024 
L 193.897681 -427.488928 
L 189.900988 -429.766622 
L 185.904294 -426.667572 
L 181.9076 -425.826236 
L 177.910906 -426.912943 
L 173.914211 -427.913404 
L 169.917517 -428.799896 
L 165.920823 -427.263124 
L 161.924129 -426.437985 
L 157.927434 -430.339658 
L 153.93074 -427.77731 
L 149.934045 -425.342001 
L 145.937352 -427.817865 
L 141.940659 -427.63903 
L 137.943962 -428.504167 
L 133.947269 -426.724448 
L 129.950576 -429.053978 
L 125.953882 -427.312527 
L 121.957186 -427.732634 
L 117.960493 -428.516146 
L 113.963796 -428.854966 
L 109.967106 -427.097207 
L 105.97041 -430.70641 
L 101.973713 -429.053704 
L 97.977023 -430.158046 
L 93.980327 -426.950193 
L 89.983636 -425.93097 
z
"/>
    </defs>
    <g clip-path="url(#pf7fda2701c)">
     <use xlink:href="#m0ccf4a9328" x="0" y="561.6" style="fill: #1f77b4; fill-opacity: 0.15"/>
    </g>
   </g>
   <g id="FillBetweenPolyCollection_2">
    <defs>
     <path id="m7ea8741f51" d="M 89.983636 -429.300437 
L 89.983636 -386.912967 
L 93.980327 -386.506987 
L 97.977023 -388.053831 
L 101.973713 -389.987527 
L 105.97041 -388.044907 
L 109.967106 -386.488887 
L 113.963796 -386.61116 
L 117.960493 -387.07727 
L 121.957186 -385.491266 
L 125.953882 -389.151528 
L 129.950576 -387.327284 
L 133.947269 -387.1032 
L 137.943962 -388.386606 
L 141.940659 -386.49273 
L 145.937352 -389.011318 
L 149.934045 -384.489424 
L 153.93074 -386.646874 
L 157.927434 -387.630823 
L 161.924129 -387.144285 
L 165.920823 -387.610731 
L 169.917517 -387.529937 
L 173.914211 -386.298418 
L 177.910906 -386.687287 
L 181.9076 -387.143478 
L 185.904294 -386.679932 
L 189.900988 -388.129884 
L 193.897681 -385.687075 
L 197.894377 -387.628177 
L 201.891071 -390.041962 
L 205.887764 -386.650935 
L 209.884457 -388.990451 
L 213.881154 -388.272984 
L 217.877847 -389.827694 
L 221.874543 -390.182782 
L 225.871234 -392.254406 
L 229.86793 -393.236908 
L 233.864626 -390.430371 
L 237.861317 -393.007991 
L 241.858013 -390.945504 
L 245.854704 -391.609157 
L 249.8514 -390.564529 
L 253.848096 -389.60865 
L 257.844787 -387.190931 
L 261.841483 -388.331967 
L 265.838179 -389.409828 
L 269.83487 -387.846034 
L 273.83156 -388.780743 
L 277.828262 -386.496218 
L 281.824953 -386.57939 
L 285.821643 -388.635936 
L 289.818345 -389.040749 
L 293.815036 -387.868807 
L 297.811726 -389.551297 
L 301.808428 -386.864845 
L 305.805119 -386.869602 
L 309.801809 -387.169535 
L 313.798511 -389.756915 
L 317.795202 -388.781616 
L 321.791892 -385.801537 
L 325.788594 -389.14504 
L 329.785285 -388.296592 
L 333.781975 -387.661917 
L 337.778677 -388.144954 
L 341.775368 -387.779719 
L 345.772058 -389.198198 
L 349.76876 -390.138004 
L 353.765451 -388.033793 
L 357.762141 -388.413951 
L 361.758843 -387.778293 
L 365.755534 -388.073414 
L 369.752224 -386.490206 
L 373.748914 -386.945588 
L 377.745605 -387.451583 
L 381.742319 -387.487787 
L 385.739009 -388.940153 
L 389.7357 -388.283555 
L 393.73239 -387.243895 
L 397.72908 -388.32325 
L 401.725771 -386.253035 
L 405.722485 -385.83436 
L 409.719175 -388.088886 
L 413.715866 -387.394302 
L 417.712556 -388.987882 
L 421.709246 -387.158642 
L 425.705937 -386.767064 
L 429.702627 -385.810508 
L 433.699341 -386.666044 
L 437.696032 -388.533781 
L 441.692722 -387.308569 
L 445.689412 -388.684106 
L 449.686103 -386.524295 
L 453.682793 -387.280868 
L 457.679507 -387.876765 
L 461.676198 -388.289987 
L 465.672888 -385.749692 
L 469.669578 -386.553565 
L 473.666269 -388.034648 
L 477.662959 -388.751836 
L 481.659673 -386.584387 
L 485.656364 -386.864274 
L 485.656364 -429.605533 
L 485.656364 -429.605533 
L 481.659673 -428.292287 
L 477.662959 -428.464806 
L 473.666269 -427.098469 
L 469.669578 -429.516689 
L 465.672888 -429.115205 
L 461.676198 -428.81397 
L 457.679507 -430.837713 
L 453.682793 -428.392698 
L 449.686103 -429.050887 
L 445.689412 -430.371326 
L 441.692722 -428.948633 
L 437.696032 -426.5997 
L 433.699341 -428.838542 
L 429.702627 -428.945728 
L 425.705937 -428.000518 
L 421.709246 -430.008863 
L 417.712556 -428.689636 
L 413.715866 -427.330415 
L 409.719175 -427.096551 
L 405.722485 -428.318623 
L 401.725771 -428.11414 
L 397.72908 -426.6256 
L 393.73239 -426.833969 
L 389.7357 -430.166627 
L 385.739009 -428.339463 
L 381.742319 -427.689091 
L 377.745605 -428.539252 
L 373.748914 -428.432937 
L 369.752224 -429.830258 
L 365.755534 -429.221409 
L 361.758843 -429.796081 
L 357.762141 -429.13145 
L 353.765451 -430.693241 
L 349.76876 -431.202247 
L 345.772058 -431.654681 
L 341.775368 -430.313632 
L 337.778677 -429.581585 
L 333.781975 -430.331426 
L 329.785285 -432.11196 
L 325.788594 -431.525559 
L 321.791892 -428.961227 
L 317.795202 -429.549182 
L 313.798511 -430.744607 
L 309.801809 -428.137046 
L 305.805119 -429.313678 
L 301.808428 -430.647552 
L 297.811726 -428.803346 
L 293.815036 -429.209516 
L 289.818345 -428.999549 
L 285.821643 -429.264756 
L 281.824953 -429.578289 
L 277.828262 -429.304904 
L 273.83156 -428.585425 
L 269.83487 -430.96443 
L 265.838179 -429.271429 
L 261.841483 -430.872463 
L 257.844787 -427.756227 
L 253.848096 -429.648476 
L 249.8514 -431.305266 
L 245.854704 -434.80379 
L 241.858013 -430.091796 
L 237.861317 -434.478407 
L 233.864626 -432.302511 
L 229.86793 -437.027115 
L 225.871234 -436.761548 
L 221.874543 -429.805382 
L 217.877847 -432.04411 
L 213.881154 -428.895764 
L 209.884457 -431.320932 
L 205.887764 -426.419717 
L 201.891071 -429.861245 
L 197.894377 -429.762836 
L 193.897681 -424.795907 
L 189.900988 -427.291712 
L 185.904294 -426.627913 
L 181.9076 -428.399605 
L 177.910906 -425.217103 
L 173.914211 -428.788484 
L 169.917517 -428.733484 
L 165.920823 -427.220169 
L 161.924129 -428.300201 
L 157.927434 -427.642699 
L 153.93074 -428.256645 
L 149.934045 -428.106526 
L 145.937352 -428.890614 
L 141.940659 -427.549033 
L 137.943962 -429.004706 
L 133.947269 -427.025978 
L 129.950576 -426.708316 
L 125.953882 -427.985441 
L 121.957186 -427.872481 
L 117.960493 -427.312604 
L 113.963796 -428.208219 
L 109.967106 -425.666855 
L 105.97041 -428.657795 
L 101.973713 -431.994744 
L 97.977023 -428.864626 
L 93.980327 -429.048196 
L 89.983636 -429.300437 
z
"/>
    </defs>
    <g clip-path="url(#pf7fda2701c)">
     <use xlink:href="#m7ea8741f51" x="0" y="561.6" style="fill: #ff7f0e; fill-opacity: 0.15"/>
    </g>
   </g>
   <g id="matplotlib.axis_1">
    <g id="xtick_1">
     <g id="line2d_1">
      <defs>
       <path id="ma100c1908e" d="M 0 0 
L 0 3.5 
" style="stroke: #000000; stroke-width: 0.8"/>
      </defs>
      <g>
       <use xlink:href="#ma100c1908e" x="87.985286" y="206.388" style="stroke: #000000; stroke-width: 0.8"/>
      </g>
     </g>
     <g id="text_1">
      <!-- −200 -->
      <g transform="translate(74.251693 220.986437) scale(0.1 -0.1)">
       <defs>
        <path id="DejaVuSans-2212" d="M 678 2272 
L 4684 2272 
L 4684 1741 
L 678 1741 
L 678 2272 
z
" transform="scale(0.015625)"/>
        <path id="DejaVuSans-32" d="M 1228 531 
L 3431 531 
L 3431 0 
L 469 0 
L 469 531 
Q 828 903 1448 1529 
Q 2069 2156 2228 2338 
Q 2531 2678 2651 2914 
Q 2772 3150 2772 3378 
Q 2772 3750 2511 3984 
Q 2250 4219 1831 4219 
Q 1534 4219 1204 4116 
Q 875 4013 500 3803 
L 500 4441 
Q 881 4594 1212 4672 
Q 1544 4750 1819 4750 
Q 2544 4750 2975 4387 
Q 3406 4025 3406 3419 
Q 3406 3131 3298 2873 
Q 3191 2616 2906 2266 
Q 2828 2175 2409 1742 
Q 1991 1309 1228 531 
z
" transform="scale(0.015625)"/>
        <path id="DejaVuSans-30" d="M 2034 4250 
Q 1547 4250 1301 3770 
Q 1056 3291 1056 2328 
Q 1056 1369 1301 889 
Q 1547 409 2034 409 
Q 2525 409 2770 889 
Q 3016 1369 3016 2328 
Q 3016 3291 2770 3770 
Q 2525 4250 2034 4250 
z
M 2034 4750 
Q 2819 4750 3233 4129 
Q 3647 3509 3647 2328 
Q 3647 1150 3233 529 
Q 2819 -91 2034 -91 
Q 1250 -91 836 529 
Q 422 1150 422 2328 
Q 422 3509 836 4129 
Q 1250 4750 2034 4750 
z
" transform="scale(0.015625)"/>
       </defs>
       <use xlink:href="#DejaVuSans-2212"/>
       <use xlink:href="#DejaVuSans-32" transform="translate(83.789062 0)"/>
       <use xlink:href="#DejaVuSans-30" transform="translate(147.412109 0)"/>
       <use xlink:href="#DejaVuSans-30" transform="translate(211.035156 0)"/>
      </g>
     </g>
    </g>
    <g id="xtick_2">
     <g id="line2d_2">
      <g>
       <use xlink:href="#ma100c1908e" x="167.91917" y="206.388" style="stroke: #000000; stroke-width: 0.8"/>
      </g>
     </g>
     <g id="text_2">
      <!-- 0 -->
      <g transform="translate(164.73792 220.986437) scale(0.1 -0.1)">
       <use xlink:href="#DejaVuSans-30"/>
      </g>
     </g>
    </g>
    <g id="xtick_3">
     <g id="line2d_3">
      <g>
       <use xlink:href="#ma100c1908e" x="247.853053" y="206.388" style="stroke: #000000; stroke-width: 0.8"/>
      </g>
     </g>
     <g id="text_3">
      <!-- 200 -->
      <g transform="translate(238.309303 220.986437) scale(0.1 -0.1)">
       <use xlink:href="#DejaVuSans-32"/>
       <use xlink:href="#DejaVuSans-30" transform="translate(63.623047 0)"/>
       <use xlink:href="#DejaVuSans-30" transform="translate(127.246094 0)"/>
      </g>
     </g>
    </g>
    <g id="xtick_4">
     <g id="line2d_4">
      <g>
       <use xlink:href="#ma100c1908e" x="327.786937" y="206.388" style="stroke: #000000; stroke-width: 0.8"/>
      </g>
     </g>
     <g id="text_4">
      <!-- 400 -->
      <g transform="translate(318.243187 220.986437) scale(0.1 -0.1)">
       <defs>
        <path id="DejaVuSans-34" d="M 2419 4116 
L 825 1625 
L 2419 1625 
L 2419 4116 
z
M 2253 4666 
L 3047 4666 
L 3047 1625 
L 3713 1625 
L 3713 1100 
L 3047 1100 
L 3047 0 
L 2419 0 
L 2419 1100 
L 313 1100 
L 313 1709 
L 2253 4666 
z
" transform="scale(0.015625)"/>
       </defs>
       <use xlink:href="#DejaVuSans-34"/>
       <use xlink:href="#DejaVuSans-30" transform="translate(63.623047 0)"/>
       <use xlink:href="#DejaVuSans-30" transform="translate(127.246094 0)"/>
      </g>
     </g>
    </g>
    <g id="xtick_5">
     <g id="line2d_5">
      <g>
       <use xlink:href="#ma100c1908e" x="407.720821" y="206.388" style="stroke: #000000; stroke-width: 0.8"/>
      </g>
     </g>
     <g id="text_5">
      <!-- 600 -->
      <g transform="translate(398.177071 220.986437) scale(0.1 -0.1)">
       <defs>
        <path id="DejaVuSans-36" d="M 2113 2584 
Q 1688 2584 1439 2293 
Q 1191 2003 1191 1497 
Q 1191 994 1439 701 
Q 1688 409 2113 409 
Q 2538 409 2786 701 
Q 3034 994 3034 1497 
Q 3034 2003 2786 2293 
Q 2538 2584 2113 2584 
z
M 3366 4563 
L 3366 3988 
Q 3128 4100 2886 4159 
Q 2644 4219 2406 4219 
Q 1781 4219 1451 3797 
Q 1122 3375 1075 2522 
Q 1259 2794 1537 2939 
Q 1816 3084 2150 3084 
Q 2853 3084 3261 2657 
Q 3669 2231 3669 1497 
Q 3669 778 3244 343 
Q 2819 -91 2113 -91 
Q 1303 -91 875 529 
Q 447 1150 447 2328 
Q 447 3434 972 4092 
Q 1497 4750 2381 4750 
Q 2619 4750 2861 4703 
Q 3103 4656 3366 4563 
z
" transform="scale(0.015625)"/>
       </defs>
       <use xlink:href="#DejaVuSans-36"/>
       <use xlink:href="#DejaVuSans-30" transform="translate(63.623047 0)"/>
       <use xlink:href="#DejaVuSans-30" transform="translate(127.246094 0)"/>
      </g>
     </g>
    </g>
    <g id="xtick_6">
     <g id="line2d_6">
      <g>
       <use xlink:href="#ma100c1908e" x="487.654704" y="206.388" style="stroke: #000000; stroke-width: 0.8"/>
      </g>
     </g>
     <g id="text_6">
      <!-- 800 -->
      <g transform="translate(478.110954 220.986437) scale(0.1 -0.1)">
       <defs>
        <path id="DejaVuSans-38" d="M 2034 2216 
Q 1584 2216 1326 1975 
Q 1069 1734 1069 1313 
Q 1069 891 1326 650 
Q 1584 409 2034 409 
Q 2484 409 2743 651 
Q 3003 894 3003 1313 
Q 3003 1734 2745 1975 
Q 2488 2216 2034 2216 
z
M 1403 2484 
Q 997 2584 770 2862 
Q 544 3141 544 3541 
Q 544 4100 942 4425 
Q 1341 4750 2034 4750 
Q 2731 4750 3128 4425 
Q 3525 4100 3525 3541 
Q 3525 3141 3298 2862 
Q 3072 2584 2669 2484 
Q 3125 2378 3379 2068 
Q 3634 1759 3634 1313 
Q 3634 634 3220 271 
Q 2806 -91 2034 -91 
Q 1263 -91 848 271 
Q 434 634 434 1313 
Q 434 1759 690 2068 
Q 947 2378 1403 2484 
z
M 1172 3481 
Q 1172 3119 1398 2916 
Q 1625 2713 2034 2713 
Q 2441 2713 2670 2916 
Q 2900 3119 2900 3481 
Q 2900 3844 2670 4047 
Q 2441 4250 2034 4250 
Q 1625 4250 1398 4047 
Q 1172 3844 1172 3481 
z
" transform="scale(0.015625)"/>
       </defs>
       <use xlink:href="#DejaVuSans-38"/>
       <use xlink:href="#DejaVuSans-30" transform="translate(63.623047 0)"/>
       <use xlink:href="#DejaVuSans-30" transform="translate(127.246094 0)"/>
      </g>
     </g>
    </g>
   </g>
   <g id="matplotlib.axis_2">
    <g id="ytick_1">
     <g id="line2d_7">
      <defs>
       <path id="m1a549b96b4" d="M 0 0 
L -3.5 0 
" style="stroke: #000000; stroke-width: 0.8"/>
      </defs>
      <g>
       <use xlink:href="#m1a549b96b4" x="70.2" y="198.684197" style="stroke: #000000; stroke-width: 0.8"/>
      </g>
     </g>
     <g id="text_7">
      <!-- 10 -->
      <g transform="translate(50.475 202.483416) scale(0.1 -0.1)">
       <defs>
        <path id="DejaVuSans-31" d="M 794 531 
L 1825 531 
L 1825 4091 
L 703 3866 
L 703 4441 
L 1819 4666 
L 2450 4666 
L 2450 531 
L 3481 531 
L 3481 0 
L 794 0 
L 794 531 
z
" transform="scale(0.015625)"/>
       </defs>
       <use xlink:href="#DejaVuSans-31"/>
       <use xlink:href="#DejaVuSans-30" transform="translate(63.623047 0)"/>
      </g>
     </g>
    </g>
    <g id="ytick_2">
     <g id="line2d_8">
      <g>
       <use xlink:href="#m1a549b96b4" x="70.2" y="156.877488" style="stroke: #000000; stroke-width: 0.8"/>
      </g>
     </g>
     <g id="text_8">
      <!-- 15 -->
      <g transform="translate(50.475 160.676707) scale(0.1 -0.1)">
       <defs>
        <path id="DejaVuSans-35" d="M 691 4666 
L 3169 4666 
L 3169 4134 
L 1269 4134 
L 1269 2991 
Q 1406 3038 1543 3061 
Q 1681 3084 1819 3084 
Q 2600 3084 3056 2656 
Q 3513 2228 3513 1497 
Q 3513 744 3044 326 
Q 2575 -91 1722 -91 
Q 1428 -91 1123 -41 
Q 819 9 494 109 
L 494 744 
Q 775 591 1075 516 
Q 1375 441 1709 441 
Q 2250 441 2565 725 
Q 2881 1009 2881 1497 
Q 2881 1984 2565 2268 
Q 2250 2553 1709 2553 
Q 1456 2553 1204 2497 
Q 953 2441 691 2322 
L 691 4666 
z
" transform="scale(0.015625)"/>
       </defs>
       <use xlink:href="#DejaVuSans-31"/>
       <use xlink:href="#DejaVuSans-35" transform="translate(63.623047 0)"/>
      </g>
     </g>
    </g>
    <g id="ytick_3">
     <g id="line2d_9">
      <g>
       <use xlink:href="#m1a549b96b4" x="70.2" y="115.07078" style="stroke: #000000; stroke-width: 0.8"/>
      </g>
     </g>
     <g id="text_9">
      <!-- 20 -->
      <g transform="translate(50.475 118.869998) scale(0.1 -0.1)">
       <use xlink:href="#DejaVuSans-32"/>
       <use xlink:href="#DejaVuSans-30" transform="translate(63.623047 0)"/>
      </g>
     </g>
    </g>
    <g id="ytick_4">
     <g id="line2d_10">
      <g>
       <use xlink:href="#m1a549b96b4" x="70.2" y="73.264071" style="stroke: #000000; stroke-width: 0.8"/>
      </g>
     </g>
     <g id="text_10">
      <!-- 25 -->
      <g transform="translate(50.475 77.06329) scale(0.1 -0.1)">
       <use xlink:href="#DejaVuSans-32"/>
       <use xlink:href="#DejaVuSans-35" transform="translate(63.623047 0)"/>
      </g>
     </g>
    </g>
    <g id="text_11">
     <!-- ΔLL (bits) -->
     <g transform="translate(44.395313 160.500937) rotate(-90) scale(0.1 -0.1)">
      <defs>
       <path id="DejaVuSans-394" d="M 2188 4044 
L 906 525 
L 3472 525 
L 2188 4044 
z
M 50 0 
L 1831 4666 
L 2547 4666 
L 4325 0 
L 50 0 
z
" transform="scale(0.015625)"/>
       <path id="DejaVuSans-4c" d="M 628 4666 
L 1259 4666 
L 1259 531 
L 3531 531 
L 3531 0 
L 628 0 
L 628 4666 
z
" transform="scale(0.015625)"/>
       <path id="DejaVuSans-20" transform="scale(0.015625)"/>
       <path id="DejaVuSans-28" d="M 1984 4856 
Q 1566 4138 1362 3434 
Q 1159 2731 1159 2009 
Q 1159 1288 1364 580 
Q 1569 -128 1984 -844 
L 1484 -844 
Q 1016 -109 783 600 
Q 550 1309 550 2009 
Q 550 2706 781 3412 
Q 1013 4119 1484 4856 
L 1984 4856 
z
" transform="scale(0.015625)"/>
       <path id="DejaVuSans-62" d="M 3116 1747 
Q 3116 2381 2855 2742 
Q 2594 3103 2138 3103 
Q 1681 3103 1420 2742 
Q 1159 2381 1159 1747 
Q 1159 1113 1420 752 
Q 1681 391 2138 391 
Q 2594 391 2855 752 
Q 3116 1113 3116 1747 
z
M 1159 2969 
Q 1341 3281 1617 3432 
Q 1894 3584 2278 3584 
Q 2916 3584 3314 3078 
Q 3713 2572 3713 1747 
Q 3713 922 3314 415 
Q 2916 -91 2278 -91 
Q 1894 -91 1617 61 
Q 1341 213 1159 525 
L 1159 0 
L 581 0 
L 581 4863 
L 1159 4863 
L 1159 2969 
z
" transform="scale(0.015625)"/>
       <path id="DejaVuSans-69" d="M 603 3500 
L 1178 3500 
L 1178 0 
L 603 0 
L 603 3500 
z
M 603 4863 
L 1178 4863 
L 1178 4134 
L 603 4134 
L 603 4863 
z
" transform="scale(0.015625)"/>
       <path id="DejaVuSans-74" d="M 1172 4494 
L 1172 3500 
L 2356 3500 
L 2356 3053 
L 1172 3053 
L 1172 1153 
Q 1172 725 1289 603 
Q 1406 481 1766 481 
L 2356 481 
L 2356 0 
L 1766 0 
Q 1100 0 847 248 
Q 594 497 594 1153 
L 594 3053 
L 172 3053 
L 172 3500 
L 594 3500 
L 594 4494 
L 1172 4494 
z
" transform="scale(0.015625)"/>
       <path id="DejaVuSans-73" d="M 2834 3397 
L 2834 2853 
Q 2591 2978 2328 3040 
Q 2066 3103 1784 3103 
Q 1356 3103 1142 2972 
Q 928 2841 928 2578 
Q 928 2378 1081 2264 
Q 1234 2150 1697 2047 
L 1894 2003 
Q 2506 1872 2764 1633 
Q 3022 1394 3022 966 
Q 3022 478 2636 193 
Q 2250 -91 1575 -91 
Q 1294 -91 989 -36 
Q 684 19 347 128 
L 347 722 
Q 666 556 975 473 
Q 1284 391 1588 391 
Q 1994 391 2212 530 
Q 2431 669 2431 922 
Q 2431 1156 2273 1281 
Q 2116 1406 1581 1522 
L 1381 1569 
Q 847 1681 609 1914 
Q 372 2147 372 2553 
Q 372 3047 722 3315 
Q 1072 3584 1716 3584 
Q 2034 3584 2315 3537 
Q 2597 3491 2834 3397 
z
" transform="scale(0.015625)"/>
       <path id="DejaVuSans-29" d="M 513 4856 
L 1013 4856 
Q 1481 4119 1714 3412 
Q 1947 2706 1947 2009 
Q 1947 1309 1714 600 
Q 1481 -109 1013 -844 
L 513 -844 
Q 928 -128 1133 580 
Q 1338 1288 1338 2009 
Q 1338 2731 1133 3434 
Q 928 4138 513 4856 
z
" transform="scale(0.015625)"/>
      </defs>
      <use xlink:href="#DejaVuSans-394"/>
      <use xlink:href="#DejaVuSans-4c" transform="translate(68.408203 0)"/>
      <use xlink:href="#DejaVuSans-4c" transform="translate(124.121094 0)"/>
      <use xlink:href="#DejaVuSans-20" transform="translate(179.833984 0)"/>
      <use xlink:href="#DejaVuSans-28" transform="translate(211.621094 0)"/>
      <use xlink:href="#DejaVuSans-62" transform="translate(250.634766 0)"/>
      <use xlink:href="#DejaVuSans-69" transform="translate(314.111328 0)"/>
      <use xlink:href="#DejaVuSans-74" transform="translate(341.894531 0)"/>
      <use xlink:href="#DejaVuSans-73" transform="translate(381.103516 0)"/>
      <use xlink:href="#DejaVuSans-29" transform="translate(433.203125 0)"/>
     </g>
    </g>
   </g>
   <g id="line2d_11">
    <path d="M 167.91917 206.388 
L 167.91917 67.392 
" clip-path="url(#pf7fda2701c)" style="fill: none; stroke-dasharray: 2.96,1.28; stroke-dashoffset: 0; stroke: #000000; stroke-width: 0.8"/>
   </g>
   <g id="line2d_12">
    <path d="M 89.983636 155.140287 
L 93.980327 154.691082 
L 97.977023 153.05902 
L 101.973713 153.129092 
L 105.97041 151.782923 
L 109.967106 154.468974 
L 113.963796 153.821718 
L 117.960493 153.496829 
L 121.957186 154.336828 
L 125.953882 155.386045 
L 129.950576 154.220567 
L 133.947269 154.856113 
L 137.943962 153.657649 
L 141.940659 154.419338 
L 145.937352 154.340632 
L 149.934045 155.480562 
L 153.93074 154.695877 
L 157.927434 152.037249 
L 161.924129 155.155805 
L 165.920823 154.005914 
L 169.917517 153.912861 
L 173.914211 154.161211 
L 177.910906 154.367972 
L 181.9076 155.740048 
L 185.904294 154.699273 
L 189.900988 153.425619 
L 193.897681 153.89739 
L 197.894377 152.771371 
L 201.891071 154.197417 
L 205.887764 152.709602 
L 209.884457 153.187945 
L 213.881154 148.54638 
L 217.877847 149.67477 
L 221.874543 152.502587 
L 225.871234 151.857029 
L 229.86793 150.897548 
L 233.864626 151.374661 
L 237.861317 150.931764 
L 241.858013 148.231941 
L 245.854704 148.033942 
L 249.8514 153.740424 
L 253.848096 151.429022 
L 257.844787 153.948574 
L 261.841483 151.052329 
L 265.838179 151.128835 
L 269.83487 151.934723 
L 273.83156 153.7496 
L 277.828262 152.839558 
L 281.824953 152.09052 
L 285.821643 153.210775 
L 289.818345 154.565068 
L 293.815036 153.566944 
L 297.811726 154.651112 
L 301.808428 154.978562 
L 305.805119 151.486824 
L 309.801809 150.82056 
L 313.798511 150.994604 
L 317.795202 152.324085 
L 321.791892 154.048279 
L 325.788594 149.744554 
L 329.785285 152.601783 
L 333.781975 150.709096 
L 337.778677 150.885795 
L 341.775368 154.003757 
L 345.772058 152.356695 
L 349.76876 153.129607 
L 353.765451 152.496494 
L 357.762141 154.92652 
L 361.758843 152.094481 
L 365.755534 155.751407 
L 369.752224 154.143024 
L 373.748914 154.410949 
L 377.745605 151.665704 
L 381.742319 151.527259 
L 385.739009 153.270835 
L 389.7357 155.782394 
L 393.73239 154.813664 
L 397.72908 154.215306 
L 401.725771 153.092737 
L 405.722485 155.246444 
L 409.719175 153.72865 
L 413.715866 152.522501 
L 417.712556 155.872249 
L 421.709246 153.491927 
L 425.705937 153.258289 
L 429.702627 151.068669 
L 433.699341 154.296153 
L 437.696032 152.249385 
L 441.692722 153.162355 
L 445.689412 153.950992 
L 449.686103 152.4614 
L 453.682793 153.73719 
L 457.679507 154.200223 
L 461.676198 155.218427 
L 465.672888 156.355405 
L 469.669578 152.722346 
L 473.666269 152.926031 
L 477.662959 152.707632 
L 481.659673 152.488141 
L 485.656364 154.307792 
" clip-path="url(#pf7fda2701c)" style="fill: none; stroke-dasharray: 1,1.65; stroke-dashoffset: 0; stroke: #1f77b4"/>
   </g>
   <g id="line2d_13">
    <path d="M 89.983636 153.493298 
L 93.980327 153.822408 
L 97.977023 153.140772 
L 101.973713 150.608865 
L 105.97041 153.248649 
L 109.967106 155.522129 
L 113.963796 154.19031 
L 117.960493 154.405063 
L 121.957186 154.918127 
L 125.953882 153.031515 
L 129.950576 154.5822 
L 133.947269 154.535411 
L 137.943962 152.904344 
L 141.940659 154.579118 
L 145.937352 152.649034 
L 149.934045 155.302025 
L 153.93074 154.148241 
L 157.927434 153.963239 
L 161.924129 153.877757 
L 165.920823 154.18455 
L 169.917517 153.468289 
L 173.914211 154.056549 
L 177.910906 155.647805 
L 181.9076 153.828458 
L 185.904294 154.946078 
L 189.900988 153.889202 
L 193.897681 156.358509 
L 197.894377 152.904493 
L 201.891071 151.648397 
L 205.887764 155.064674 
L 209.884457 151.444308 
L 213.881154 153.015626 
L 217.877847 150.664098 
L 221.874543 151.605918 
L 225.871234 147.092023 
L 229.86793 146.467989 
L 233.864626 150.233559 
L 237.861317 147.856801 
L 241.858013 151.08135 
L 245.854704 148.393526 
L 249.8514 150.665103 
L 253.848096 151.971437 
L 257.844787 154.126421 
L 261.841483 151.997785 
L 265.838179 152.259371 
L 269.83487 152.194768 
L 273.83156 152.916916 
L 277.828262 153.699439 
L 281.824953 153.521161 
L 285.821643 152.649654 
L 289.818345 152.579851 
L 293.815036 153.060838 
L 297.811726 152.422678 
L 301.808428 152.843801 
L 305.805119 153.50836 
L 309.801809 153.94671 
L 313.798511 151.349239 
L 317.795202 152.434601 
L 321.791892 154.218618 
L 325.788594 151.264701 
L 329.785285 151.395724 
L 333.781975 152.603329 
L 337.778677 152.73673 
L 341.775368 152.553325 
L 345.772058 151.17356 
L 349.76876 150.929875 
L 353.765451 152.236483 
L 357.762141 152.8273 
L 361.758843 152.812813 
L 365.755534 152.952588 
L 369.752224 153.439768 
L 373.748914 153.910738 
L 377.745605 153.604582 
L 381.742319 154.011561 
L 385.739009 152.960192 
L 389.7357 152.374909 
L 393.73239 154.561068 
L 397.72908 154.125575 
L 401.725771 154.416412 
L 405.722485 154.523508 
L 409.719175 154.007281 
L 413.715866 154.237641 
L 417.712556 152.761241 
L 421.709246 153.016248 
L 425.705937 154.216209 
L 429.702627 154.221882 
L 433.699341 153.847707 
L 437.696032 154.03326 
L 441.692722 153.471399 
L 445.689412 152.072284 
L 449.686103 153.812409 
L 453.682793 153.763217 
L 457.679507 152.242761 
L 461.676198 153.048022 
L 465.672888 154.167552 
L 469.669578 153.564873 
L 473.666269 154.033442 
L 477.662959 152.991679 
L 481.659673 154.161663 
L 485.656364 153.365096 
" clip-path="url(#pf7fda2701c)" style="fill: none; stroke-dasharray: 1,1.65; stroke-dashoffset: 0; stroke: #ff7f0e"/>
   </g>
   <g id="line2d_14">
    <path d="M 89.983636 181.858582 
L 93.980327 105.967009 
L 97.977023 80.881295 
L 101.973713 170.016386 
L 105.97041 148.704269 
L 109.967106 185.546966 
L 113.963796 127.54717 
L 117.960493 158.10185 
L 121.957186 177.871145 
L 125.953882 124.97371 
L 129.950576 143.970073 
L 133.947269 119.521129 
L 137.943962 159.491367 
L 141.940659 152.283312 
L 145.937352 159.663841 
L 149.934045 184.596651 
L 153.93074 132.312861 
L 157.927434 153.068856 
L 161.924129 159.941633 
L 165.920823 156.06145 
L 169.917517 143.274959 
L 173.914211 139.618343 
L 177.910906 176.949915 
L 181.9076 165.96141 
L 185.904294 159.841634 
L 189.900988 156.378671 
L 193.897681 163.112978 
L 197.894377 154.112571 
L 201.891071 143.225201 
L 205.887764 171.080282 
L 209.884457 132.673014 
L 213.881154 117.093462 
L 217.877847 129.573662 
L 221.874543 171.959188 
L 225.871234 171.643676 
L 229.86793 134.75424 
L 233.864626 177.968603 
L 237.861317 128.58854 
L 241.858013 145.209137 
L 245.854704 105.912508 
L 249.8514 156.127202 
L 253.848096 112.415338 
L 257.844787 144.77167 
L 261.841483 174.312463 
L 265.838179 125.709124 
L 269.83487 165.697269 
L 273.83156 112.582178 
L 277.828262 131.374209 
L 281.824953 135.45275 
L 285.821643 120.456538 
L 289.818345 135.617903 
L 293.815036 160.100832 
L 297.811726 148.415327 
L 301.808428 140.296064 
L 305.805119 184.105456 
L 309.801809 151.431005 
L 313.798511 96.538323 
L 317.795202 148.232169 
L 321.791892 104.615438 
L 325.788594 138.777479 
L 329.785285 137.576371 
L 333.781975 141.958096 
L 337.778677 127.392863 
L 341.775368 151.952323 
L 345.772058 136.834895 
L 349.76876 112.264423 
L 353.765451 100.785669 
L 357.762141 136.831276 
L 361.758843 114.301137 
L 365.755534 110.948426 
L 369.752224 123.340368 
L 373.748914 135.503052 
L 377.745605 188.057235 
L 381.742319 143.466843 
L 385.739009 169.126643 
L 389.7357 167.212384 
L 393.73239 162.723558 
L 397.72908 152.914944 
L 401.725771 144.313907 
L 405.722485 140.222777 
L 409.719175 139.818722 
L 413.715866 118.882078 
L 417.712556 154.761462 
L 421.709246 167.542646 
L 425.705937 125.261372 
L 429.702627 156.691775 
L 433.699341 168.810717 
L 437.696032 134.708345 
L 441.692722 125.779591 
L 445.689412 175.467843 
L 449.686103 130.275896 
L 453.682793 108.538049 
L 457.679507 162.338078 
L 461.676198 124.156443 
L 465.672888 143.136691 
L 469.669578 141.656991 
L 473.666269 186.098082 
L 477.662959 145.787437 
L 481.659673 145.002806 
L 485.656364 163.826198 
" clip-path="url(#pf7fda2701c)" style="fill: none; stroke: #1f77b4; stroke-width: 2.2; stroke-linecap: square"/>
   </g>
   <g id="line2d_15">
    <path d="M 89.983636 142.710301 
L 93.980327 144.961798 
L 97.977023 149.118485 
L 101.973713 159.113266 
L 105.97041 169.359476 
L 109.967106 156.133826 
L 113.963796 140.568077 
L 117.960493 189.317074 
L 121.957186 171.358417 
L 125.953882 89.645892 
L 129.950576 144.350745 
L 133.947269 132.977116 
L 137.943962 168.929635 
L 141.940659 127.643319 
L 145.937352 118.539873 
L 149.934045 170.515415 
L 153.93074 163.309212 
L 157.927434 174.594436 
L 161.924129 111.57065 
L 165.920823 73.71 
L 169.917517 141.020696 
L 173.914211 118.590685 
L 177.910906 192.093836 
L 181.9076 138.705824 
L 185.904294 164.800437 
L 189.900988 171.878831 
L 193.897681 180.85613 
L 197.894377 137.676295 
L 201.891071 155.706785 
L 205.887764 150.765534 
L 209.884457 168.429104 
L 213.881154 147.009009 
L 217.877847 162.710871 
L 221.874543 108.823759 
L 225.871234 183.036157 
L 229.86793 173.74828 
L 233.864626 133.741038 
L 237.861317 151.419113 
L 241.858013 142.737586 
L 245.854704 143.402795 
L 249.8514 108.712859 
L 253.848096 177.412976 
L 257.844787 157.733264 
L 261.841483 127.869765 
L 265.838179 151.787082 
L 269.83487 146.611713 
L 273.83156 144.759653 
L 277.828262 153.139572 
L 281.824953 164.909969 
L 285.821643 157.83354 
L 289.818345 131.39916 
L 293.815036 157.038238 
L 297.811726 138.784541 
L 301.808428 173.118607 
L 305.805119 136.742161 
L 309.801809 113.763998 
L 313.798511 150.151233 
L 317.795202 135.16616 
L 321.791892 161.746652 
L 325.788594 122.864489 
L 329.785285 115.377981 
L 333.781975 156.798702 
L 337.778677 126.962754 
L 341.775368 158.495649 
L 345.772058 162.633996 
L 349.76876 126.796803 
L 353.765451 151.639385 
L 357.762141 140.447843 
L 361.758843 131.341032 
L 365.755534 174.295279 
L 369.752224 200.07 
L 373.748914 149.228377 
L 377.745605 168.555501 
L 381.742319 121.634399 
L 385.739009 138.606345 
L 389.7357 160.664941 
L 393.73239 146.271048 
L 397.72908 129.983961 
L 401.725771 142.033455 
L 405.722485 153.129106 
L 409.719175 131.432834 
L 413.715866 139.062197 
L 417.712556 148.671241 
L 421.709246 153.462934 
L 425.705937 153.564586 
L 429.702627 126.815645 
L 433.699341 128.361414 
L 437.696032 182.845725 
L 441.692722 179.103371 
L 445.689412 167.392012 
L 449.686103 182.916374 
L 453.682793 100.132466 
L 457.679507 129.658126 
L 461.676198 141.927621 
L 465.672888 168.797608 
L 469.669578 131.188232 
L 473.666269 88.50648 
L 477.662959 121.159031 
L 481.659673 177.052792 
L 485.656364 160.179577 
" clip-path="url(#pf7fda2701c)" style="fill: none; stroke: #ff7f0e; stroke-width: 2.2; stroke-linecap: square"/>
   </g>
   <g id="patch_3">
    <path d="M 70.2 206.388 
L 70.2 67.392 
" style="fill: none; stroke: #000000; stroke-width: 0.8; stroke-linejoin: miter; stroke-linecap: square"/>
   </g>
   <g id="patch_4">
    <path d="M 505.44 206.388 
L 505.44 67.392 
" style="fill: none; stroke: #000000; stroke-width: 0.8; stroke-linejoin: miter; stroke-linecap: square"/>
   </g>
   <g id="patch_5">
    <path d="M 70.2 206.388 
L 505.44 206.388 
" style="fill: none; stroke: #000000; stroke-width: 0.8; stroke-linejoin: miter; stroke-linecap: square"/>
   </g>
   <g id="patch_6">
    <path d="M 70.2 67.392 
L 505.44 67.392 
" style="fill: none; stroke: #000000; stroke-width: 0.8; stroke-linejoin: miter; stroke-linecap: square"/>
   </g>
   <g id="text_12">
    <!-- (MFEF vs MLIP) — R-flow — Panel A: overlay + null bands -->
    <g transform="translate(116.584688 61.392) scale(0.12 -0.12)">
     <defs>
      <path id="DejaVuSans-4d" d="M 628 4666 
L 1569 4666 
L 2759 1491 
L 3956 4666 
L 4897 4666 
L 4897 0 
L 4281 0 
L 4281 4097 
L 3078 897 
L 2444 897 
L 1241 4097 
L 1241 0 
L 628 0 
L 628 4666 
z
" transform="scale(0.015625)"/>
      <path id="DejaVuSans-46" d="M 628 4666 
L 3309 4666 
L 3309 4134 
L 1259 4134 
L 1259 2759 
L 3109 2759 
L 3109 2228 
L 1259 2228 
L 1259 0 
L 628 0 
L 628 4666 
z
" transform="scale(0.015625)"/>
      <path id="DejaVuSans-45" d="M 628 4666 
L 3578 4666 
L 3578 4134 
L 1259 4134 
L 1259 2753 
L 3481 2753 
L 3481 2222 
L 1259 2222 
L 1259 531 
L 3634 531 
L 3634 0 
L 628 0 
L 628 4666 
z
" transform="scale(0.015625)"/>
      <path id="DejaVuSans-76" d="M 191 3500 
L 800 3500 
L 1894 563 
L 2988 3500 
L 3597 3500 
L 2284 0 
L 1503 0 
L 191 3500 
z
" transform="scale(0.015625)"/>
      <path id="DejaVuSans-49" d="M 628 4666 
L 1259 4666 
L 1259 0 
L 628 0 
L 628 4666 
z
" transform="scale(0.015625)"/>
      <path id="DejaVuSans-50" d="M 1259 4147 
L 1259 2394 
L 2053 2394 
Q 2494 2394 2734 2622 
Q 2975 2850 2975 3272 
Q 2975 3691 2734 3919 
Q 2494 4147 2053 4147 
L 1259 4147 
z
M 628 4666 
L 2053 4666 
Q 2838 4666 3239 4311 
Q 3641 3956 3641 3272 
Q 3641 2581 3239 2228 
Q 2838 1875 2053 1875 
L 1259 1875 
L 1259 0 
L 628 0 
L 628 4666 
z
" transform="scale(0.015625)"/>
      <path id="DejaVuSans-2014" d="M 313 1978 
L 6088 1978 
L 6088 1528 
L 313 1528 
L 313 1978 
z
" transform="scale(0.015625)"/>
      <path id="DejaVuSans-52" d="M 2841 2188 
Q 3044 2119 3236 1894 
Q 3428 1669 3622 1275 
L 4263 0 
L 3584 0 
L 2988 1197 
Q 2756 1666 2539 1819 
Q 2322 1972 1947 1972 
L 1259 1972 
L 1259 0 
L 628 0 
L 628 4666 
L 2053 4666 
Q 2853 4666 3247 4331 
Q 3641 3997 3641 3322 
Q 3641 2881 3436 2590 
Q 3231 2300 2841 2188 
z
M 1259 4147 
L 1259 2491 
L 2053 2491 
Q 2509 2491 2742 2702 
Q 2975 2913 2975 3322 
Q 2975 3731 2742 3939 
Q 2509 4147 2053 4147 
L 1259 4147 
z
" transform="scale(0.015625)"/>
      <path id="DejaVuSans-2d" d="M 313 2009 
L 1997 2009 
L 1997 1497 
L 313 1497 
L 313 2009 
z
" transform="scale(0.015625)"/>
      <path id="DejaVuSans-66" d="M 2375 4863 
L 2375 4384 
L 1825 4384 
Q 1516 4384 1395 4259 
Q 1275 4134 1275 3809 
L 1275 3500 
L 2222 3500 
L 2222 3053 
L 1275 3053 
L 1275 0 
L 697 0 
L 697 3053 
L 147 3053 
L 147 3500 
L 697 3500 
L 697 3744 
Q 697 4328 969 4595 
Q 1241 4863 1831 4863 
L 2375 4863 
z
" transform="scale(0.015625)"/>
      <path id="DejaVuSans-6c" d="M 603 4863 
L 1178 4863 
L 1178 0 
L 603 0 
L 603 4863 
z
" transform="scale(0.015625)"/>
      <path id="DejaVuSans-6f" d="M 1959 3097 
Q 1497 3097 1228 2736 
Q 959 2375 959 1747 
Q 959 1119 1226 758 
Q 1494 397 1959 397 
Q 2419 397 2687 759 
Q 2956 1122 2956 1747 
Q 2956 2369 2687 2733 
Q 2419 3097 1959 3097 
z
M 1959 3584 
Q 2709 3584 3137 3096 
Q 3566 2609 3566 1747 
Q 3566 888 3137 398 
Q 2709 -91 1959 -91 
Q 1206 -91 779 398 
Q 353 888 353 1747 
Q 353 2609 779 3096 
Q 1206 3584 1959 3584 
z
" transform="scale(0.015625)"/>
      <path id="DejaVuSans-77" d="M 269 3500 
L 844 3500 
L 1563 769 
L 2278 3500 
L 2956 3500 
L 3675 769 
L 4391 3500 
L 4966 3500 
L 4050 0 
L 3372 0 
L 2619 2869 
L 1863 0 
L 1184 0 
L 269 3500 
z
" transform="scale(0.015625)"/>
      <path id="DejaVuSans-61" d="M 2194 1759 
Q 1497 1759 1228 1600 
Q 959 1441 959 1056 
Q 959 750 1161 570 
Q 1363 391 1709 391 
Q 2188 391 2477 730 
Q 2766 1069 2766 1631 
L 2766 1759 
L 2194 1759 
z
M 3341 1997 
L 3341 0 
L 2766 0 
L 2766 531 
Q 2569 213 2275 61 
Q 1981 -91 1556 -91 
Q 1019 -91 701 211 
Q 384 513 384 1019 
Q 384 1609 779 1909 
Q 1175 2209 1959 2209 
L 2766 2209 
L 2766 2266 
Q 2766 2663 2505 2880 
Q 2244 3097 1772 3097 
Q 1472 3097 1187 3025 
Q 903 2953 641 2809 
L 641 3341 
Q 956 3463 1253 3523 
Q 1550 3584 1831 3584 
Q 2591 3584 2966 3190 
Q 3341 2797 3341 1997 
z
" transform="scale(0.015625)"/>
      <path id="DejaVuSans-6e" d="M 3513 2113 
L 3513 0 
L 2938 0 
L 2938 2094 
Q 2938 2591 2744 2837 
Q 2550 3084 2163 3084 
Q 1697 3084 1428 2787 
Q 1159 2491 1159 1978 
L 1159 0 
L 581 0 
L 581 3500 
L 1159 3500 
L 1159 2956 
Q 1366 3272 1645 3428 
Q 1925 3584 2291 3584 
Q 2894 3584 3203 3211 
Q 3513 2838 3513 2113 
z
" transform="scale(0.015625)"/>
      <path id="DejaVuSans-65" d="M 3597 1894 
L 3597 1613 
L 953 1613 
Q 991 1019 1311 708 
Q 1631 397 2203 397 
Q 2534 397 2845 478 
Q 3156 559 3463 722 
L 3463 178 
Q 3153 47 2828 -22 
Q 2503 -91 2169 -91 
Q 1331 -91 842 396 
Q 353 884 353 1716 
Q 353 2575 817 3079 
Q 1281 3584 2069 3584 
Q 2775 3584 3186 3129 
Q 3597 2675 3597 1894 
z
M 3022 2063 
Q 3016 2534 2758 2815 
Q 2500 3097 2075 3097 
Q 1594 3097 1305 2825 
Q 1016 2553 972 2059 
L 3022 2063 
z
" transform="scale(0.015625)"/>
      <path id="DejaVuSans-41" d="M 2188 4044 
L 1331 1722 
L 3047 1722 
L 2188 4044 
z
M 1831 4666 
L 2547 4666 
L 4325 0 
L 3669 0 
L 3244 1197 
L 1141 1197 
L 716 0 
L 50 0 
L 1831 4666 
z
" transform="scale(0.015625)"/>
      <path id="DejaVuSans-3a" d="M 750 794 
L 1409 794 
L 1409 0 
L 750 0 
L 750 794 
z
M 750 3309 
L 1409 3309 
L 1409 2516 
L 750 2516 
L 750 3309 
z
" transform="scale(0.015625)"/>
      <path id="DejaVuSans-72" d="M 2631 2963 
Q 2534 3019 2420 3045 
Q 2306 3072 2169 3072 
Q 1681 3072 1420 2755 
Q 1159 2438 1159 1844 
L 1159 0 
L 581 0 
L 581 3500 
L 1159 3500 
L 1159 2956 
Q 1341 3275 1631 3429 
Q 1922 3584 2338 3584 
Q 2397 3584 2469 3576 
Q 2541 3569 2628 3553 
L 2631 2963 
z
" transform="scale(0.015625)"/>
      <path id="DejaVuSans-79" d="M 2059 -325 
Q 1816 -950 1584 -1140 
Q 1353 -1331 966 -1331 
L 506 -1331 
L 506 -850 
L 844 -850 
Q 1081 -850 1212 -737 
Q 1344 -625 1503 -206 
L 1606 56 
L 191 3500 
L 800 3500 
L 1894 763 
L 2988 3500 
L 3597 3500 
L 2059 -325 
z
" transform="scale(0.015625)"/>
      <path id="DejaVuSans-2b" d="M 2944 4013 
L 2944 2272 
L 4684 2272 
L 4684 1741 
L 2944 1741 
L 2944 0 
L 2419 0 
L 2419 1741 
L 678 1741 
L 678 2272 
L 2419 2272 
L 2419 4013 
L 2944 4013 
z
" transform="scale(0.015625)"/>
      <path id="DejaVuSans-75" d="M 544 1381 
L 544 3500 
L 1119 3500 
L 1119 1403 
Q 1119 906 1312 657 
Q 1506 409 1894 409 
Q 2359 409 2629 706 
Q 2900 1003 2900 1516 
L 2900 3500 
L 3475 3500 
L 3475 0 
L 2900 0 
L 2900 538 
Q 2691 219 2414 64 
Q 2138 -91 1772 -91 
Q 1169 -91 856 284 
Q 544 659 544 1381 
z
M 1991 3584 
L 1991 3584 
z
" transform="scale(0.015625)"/>
      <path id="DejaVuSans-64" d="M 2906 2969 
L 2906 4863 
L 3481 4863 
L 3481 0 
L 2906 0 
L 2906 525 
Q 2725 213 2448 61 
Q 2172 -91 1784 -91 
Q 1150 -91 751 415 
Q 353 922 353 1747 
Q 353 2572 751 3078 
Q 1150 3584 1784 3584 
Q 2172 3584 2448 3432 
Q 2725 3281 2906 2969 
z
M 947 1747 
Q 947 1113 1208 752 
Q 1469 391 1925 391 
Q 2381 391 2643 752 
Q 2906 1113 2906 1747 
Q 2906 2381 2643 2742 
Q 2381 3103 1925 3103 
Q 1469 3103 1208 2742 
Q 947 2381 947 1747 
z
" transform="scale(0.015625)"/>
     </defs>
     <use xlink:href="#DejaVuSans-28"/>
     <use xlink:href="#DejaVuSans-4d" transform="translate(39.013672 0)"/>
     <use xlink:href="#DejaVuSans-46" transform="translate(125.292969 0)"/>
     <use xlink:href="#DejaVuSans-45" transform="translate(182.8125 0)"/>
     <use xlink:href="#DejaVuSans-46" transform="translate(245.996094 0)"/>
     <use xlink:href="#DejaVuSans-20" transform="translate(303.515625 0)"/>
     <use xlink:href="#DejaVuSans-76" transform="translate(335.302734 0)"/>
     <use xlink:href="#DejaVuSans-73" transform="translate(394.482422 0)"/>
     <use xlink:href="#DejaVuSans-20" transform="translate(446.582031 0)"/>
     <use xlink:href="#DejaVuSans-4d" transform="translate(478.369141 0)"/>
     <use xlink:href="#DejaVuSans-4c" transform="translate(564.648438 0)"/>
     <use xlink:href="#DejaVuSans-49" transform="translate(620.361328 0)"/>
     <use xlink:href="#DejaVuSans-50" transform="translate(649.853516 0)"/>
     <use xlink:href="#DejaVuSans-29" transform="translate(710.15625 0)"/>
     <use xlink:href="#DejaVuSans-20" transform="translate(749.169922 0)"/>
     <use xlink:href="#DejaVuSans-2014" transform="translate(780.957031 0)"/>
     <use xlink:href="#DejaVuSans-20" transform="translate(880.957031 0)"/>
     <use xlink:href="#DejaVuSans-52" transform="translate(912.744141 0)"/>
     <use xlink:href="#DejaVuSans-2d" transform="translate(978.226562 0)"/>
     <use xlink:href="#DejaVuSans-66" transform="translate(1014.310547 0)"/>
     <use xlink:href="#DejaVuSans-6c" transform="translate(1049.515625 0)"/>
     <use xlink:href="#DejaVuSans-6f" transform="translate(1077.298828 0)"/>
     <use xlink:href="#DejaVuSans-77" transform="translate(1138.480469 0)"/>
     <use xlink:href="#DejaVuSans-20" transform="translate(1220.267578 0)"/>
     <use xlink:href="#DejaVuSans-2014" transform="translate(1252.054688 0)"/>
     <use xlink:href="#DejaVuSans-20" transform="translate(1352.054688 0)"/>
     <use xlink:href="#DejaVuSans-50" transform="translate(1383.841797 0)"/>
     <use xlink:href="#DejaVuSans-61" transform="translate(1439.644531 0)"/>
     <use xlink:href="#DejaVuSans-6e" transform="translate(1500.923828 0)"/>
     <use xlink:href="#DejaVuSans-65" transform="translate(1564.302734 0)"/>
     <use xlink:href="#DejaVuSans-6c" transform="translate(1625.826172 0)"/>
     <use xlink:href="#DejaVuSans-20" transform="translate(1653.609375 0)"/>
     <use xlink:href="#DejaVuSans-41" transform="translate(1685.396484 0)"/>
     <use xlink:href="#DejaVuSans-3a" transform="translate(1752.054688 0)"/>
     <use xlink:href="#DejaVuSans-20" transform="translate(1785.746094 0)"/>
     <use xlink:href="#DejaVuSans-6f" transform="translate(1817.533203 0)"/>
     <use xlink:href="#DejaVuSans-76" transform="translate(1878.714844 0)"/>
     <use xlink:href="#DejaVuSans-65" transform="translate(1937.894531 0)"/>
     <use xlink:href="#DejaVuSans-72" transform="translate(1999.417969 0)"/>
     <use xlink:href="#DejaVuSans-6c" transform="translate(2040.53125 0)"/>
     <use xlink:href="#DejaVuSans-61" transform="translate(2068.314453 0)"/>
     <use xlink:href="#DejaVuSans-79" transform="translate(2129.59375 0)"/>
     <use xlink:href="#DejaVuSans-20" transform="translate(2188.773438 0)"/>
     <use xlink:href="#DejaVuSans-2b" transform="translate(2220.560547 0)"/>
     <use xlink:href="#DejaVuSans-20" transform="translate(2304.349609 0)"/>
     <use xlink:href="#DejaVuSans-6e" transform="translate(2336.136719 0)"/>
     <use xlink:href="#DejaVuSans-75" transform="translate(2399.515625 0)"/>
     <use xlink:href="#DejaVuSans-6c" transform="translate(2462.894531 0)"/>
     <use xlink:href="#DejaVuSans-6c" transform="translate(2490.677734 0)"/>
     <use xlink:href="#DejaVuSans-20" transform="translate(2518.460938 0)"/>
     <use xlink:href="#DejaVuSans-62" transform="translate(2550.248047 0)"/>
     <use xlink:href="#DejaVuSans-61" transform="translate(2613.724609 0)"/>
     <use xlink:href="#DejaVuSans-6e" transform="translate(2675.003906 0)"/>
     <use xlink:href="#DejaVuSans-64" transform="translate(2738.382812 0)"/>
     <use xlink:href="#DejaVuSans-73" transform="translate(2801.859375 0)"/>
    </g>
   </g>
   <g id="legend_1">
    <g id="patch_7">
     <path d="M 79.2 83.990437 
L 99.2 83.990437 
L 99.2 76.990437 
L 79.2 76.990437 
z
" style="fill: #1f77b4; fill-opacity: 0.15"/>
    </g>
    <g id="text_13">
     <!-- MFEF→MLIP null μ±σ -->
     <g transform="translate(107.2 83.990437) scale(0.1 -0.1)">
      <defs>
       <path id="DejaVuSans-2192" d="M 5050 2147 
L 5050 1866 
L 3822 638 
L 3447 1013 
L 4175 1741 
L 366 1741 
L 366 2272 
L 4175 2272 
L 3447 3000 
L 3822 3375 
L 5050 2147 
z
" transform="scale(0.015625)"/>
       <path id="DejaVuSans-3bc" d="M 544 -1331 
L 544 3500 
L 1119 3500 
L 1119 1325 
Q 1119 872 1334 640 
Q 1550 409 1972 409 
Q 2434 409 2667 671 
Q 2900 934 2900 1459 
L 2900 3500 
L 3475 3500 
L 3475 806 
Q 3475 619 3529 530 
Q 3584 441 3700 441 
Q 3728 441 3778 458 
Q 3828 475 3916 513 
L 3916 50 
Q 3788 -22 3673 -56 
Q 3559 -91 3450 -91 
Q 3234 -91 3106 31 
Q 2978 153 2931 403 
Q 2775 156 2548 32 
Q 2322 -91 2016 -91 
Q 1697 -91 1473 31 
Q 1250 153 1119 397 
L 1119 -1331 
L 544 -1331 
z
" transform="scale(0.015625)"/>
       <path id="DejaVuSans-b1" d="M 2944 4013 
L 2944 2803 
L 4684 2803 
L 4684 2272 
L 2944 2272 
L 2944 1063 
L 2419 1063 
L 2419 2272 
L 678 2272 
L 678 2803 
L 2419 2803 
L 2419 4013 
L 2944 4013 
z
M 678 531 
L 4684 531 
L 4684 0 
L 678 0 
L 678 531 
z
" transform="scale(0.015625)"/>
       <path id="DejaVuSans-3c3" d="M 1959 3044 
Q 1484 3044 1228 2700 
Q 959 2341 959 1747 
Q 959 1119 1226 758 
Q 1494 397 1959 397 
Q 2419 397 2687 759 
Q 2956 1122 2956 1747 
Q 2956 2319 2688 2700 
Q 2441 3044 1959 3044 
z
M 1959 3500 
L 3869 3500 
L 3869 2925 
L 3225 2925 
Q 3566 2438 3566 1747 
Q 3566 888 3138 400 
Q 2709 -91 1959 -91 
Q 1206 -91 781 400 
Q 353 888 353 1747 
Q 353 2613 781 3097 
Q 1134 3500 1959 3500 
z
" transform="scale(0.015625)"/>
      </defs>
      <use xlink:href="#DejaVuSans-4d"/>
      <use xlink:href="#DejaVuSans-46" transform="translate(86.279297 0)"/>
      <use xlink:href="#DejaVuSans-45" transform="translate(143.798828 0)"/>
      <use xlink:href="#DejaVuSans-46" transform="translate(206.982422 0)"/>
      <use xlink:href="#DejaVuSans-2192" transform="translate(264.501953 0)"/>
      <use xlink:href="#DejaVuSans-4d" transform="translate(348.291016 0)"/>
      <use xlink:href="#DejaVuSans-4c" transform="translate(434.570312 0)"/>
      <use xlink:href="#DejaVuSans-49" transform="translate(490.283203 0)"/>
      <use xlink:href="#DejaVuSans-50" transform="translate(519.775391 0)"/>
      <use xlink:href="#DejaVuSans-20" transform="translate(580.078125 0)"/>
      <use xlink:href="#DejaVuSans-6e" transform="translate(611.865234 0)"/>
      <use xlink:href="#DejaVuSans-75" transform="translate(675.244141 0)"/>
      <use xlink:href="#DejaVuSans-6c" transform="translate(738.623047 0)"/>
      <use xlink:href="#DejaVuSans-6c" transform="translate(766.40625 0)"/>
      <use xlink:href="#DejaVuSans-20" transform="translate(794.189453 0)"/>
      <use xlink:href="#DejaVuSans-3bc" transform="translate(825.976562 0)"/>
      <use xlink:href="#DejaVuSans-b1" transform="translate(889.599609 0)"/>
      <use xlink:href="#DejaVuSans-3c3" transform="translate(973.388672 0)"/>
     </g>
    </g>
    <g id="patch_8">
     <path d="M 79.2 98.668563 
L 99.2 98.668563 
L 99.2 91.668563 
L 79.2 91.668563 
z
" style="fill: #ff7f0e; fill-opacity: 0.15"/>
    </g>
    <g id="text_14">
     <!-- MLIP→MFEF null μ±σ -->
     <g transform="translate(107.2 98.668563) scale(0.1 -0.1)">
      <use xlink:href="#DejaVuSans-4d"/>
      <use xlink:href="#DejaVuSans-4c" transform="translate(86.279297 0)"/>
      <use xlink:href="#DejaVuSans-49" transform="translate(141.992188 0)"/>
      <use xlink:href="#DejaVuSans-50" transform="translate(171.484375 0)"/>
      <use xlink:href="#DejaVuSans-2192" transform="translate(231.787109 0)"/>
      <use xlink:href="#DejaVuSans-4d" transform="translate(315.576172 0)"/>
      <use xlink:href="#DejaVuSans-46" transform="translate(401.855469 0)"/>
      <use xlink:href="#DejaVuSans-45" transform="translate(459.375 0)"/>
      <use xlink:href="#DejaVuSans-46" transform="translate(522.558594 0)"/>
      <use xlink:href="#DejaVuSans-20" transform="translate(580.078125 0)"/>
      <use xlink:href="#DejaVuSans-6e" transform="translate(611.865234 0)"/>
      <use xlink:href="#DejaVuSans-75" transform="translate(675.244141 0)"/>
      <use xlink:href="#DejaVuSans-6c" transform="translate(738.623047 0)"/>
      <use xlink:href="#DejaVuSans-6c" transform="translate(766.40625 0)"/>
      <use xlink:href="#DejaVuSans-20" transform="translate(794.189453 0)"/>
      <use xlink:href="#DejaVuSans-3bc" transform="translate(825.976562 0)"/>
      <use xlink:href="#DejaVuSans-b1" transform="translate(889.599609 0)"/>
      <use xlink:href="#DejaVuSans-3c3" transform="translate(973.388672 0)"/>
     </g>
    </g>
    <g id="line2d_16">
     <path d="M 230.876562 80.490437 
L 240.876562 80.490437 
L 250.876562 80.490437 
" style="fill: none; stroke: #1f77b4; stroke-width: 2.2; stroke-linecap: square"/>
    </g>
    <g id="text_15">
     <!-- MFEF→MLIP -->
     <g transform="translate(258.876562 83.990437) scale(0.1 -0.1)">
      <use xlink:href="#DejaVuSans-4d"/>
      <use xlink:href="#DejaVuSans-46" transform="translate(86.279297 0)"/>
      <use xlink:href="#DejaVuSans-45" transform="translate(143.798828 0)"/>
      <use xlink:href="#DejaVuSans-46" transform="translate(206.982422 0)"/>
      <use xlink:href="#DejaVuSans-2192" transform="translate(264.501953 0)"/>
      <use xlink:href="#DejaVuSans-4d" transform="translate(348.291016 0)"/>
      <use xlink:href="#DejaVuSans-4c" transform="translate(434.570312 0)"/>
      <use xlink:href="#DejaVuSans-49" transform="translate(490.283203 0)"/>
      <use xlink:href="#DejaVuSans-50" transform="translate(519.775391 0)"/>
     </g>
    </g>
    <g id="line2d_17">
     <path d="M 230.876562 95.168563 
L 240.876562 95.168563 
L 250.876562 95.168563 
" style="fill: none; stroke: #ff7f0e; stroke-width: 2.2; stroke-linecap: square"/>
    </g>
    <g id="text_16">
     <!-- MLIP→MFEF -->
     <g transform="translate(258.876562 98.668563) scale(0.1 -0.1)">
      <use xlink:href="#DejaVuSans-4d"/>
      <use xlink:href="#DejaVuSans-4c" transform="translate(86.279297 0)"/>
      <use xlink:href="#DejaVuSans-49" transform="translate(141.992188 0)"/>
      <use xlink:href="#DejaVuSans-50" transform="translate(171.484375 0)"/>
      <use xlink:href="#DejaVuSans-2192" transform="translate(231.787109 0)"/>
      <use xlink:href="#DejaVuSans-4d" transform="translate(315.576172 0)"/>
      <use xlink:href="#DejaVuSans-46" transform="translate(401.855469 0)"/>
      <use xlink:href="#DejaVuSans-45" transform="translate(459.375 0)"/>
      <use xlink:href="#DejaVuSans-46" transform="translate(522.558594 0)"/>
     </g>
    </g>
   </g>
  </g>
  <g id="axes_2">
   <g id="patch_9">
    <path d="M 70.2 353.106 
L 505.44 353.106 
L 505.44 237.276 
L 70.2 237.276 
z
" style="fill: #ffffff"/>
   </g>
   <g id="matplotlib.axis_3">
    <g id="xtick_7">
     <g id="line2d_18">
      <g>
       <use xlink:href="#ma100c1908e" x="87.985286" y="353.106" style="stroke: #000000; stroke-width: 0.8"/>
      </g>
     </g>
     <g id="text_17">
      <!-- −200 -->
      <g transform="translate(74.251693 367.704438) scale(0.1 -0.1)">
       <use xlink:href="#DejaVuSans-2212"/>
       <use xlink:href="#DejaVuSans-32" transform="translate(83.789062 0)"/>
       <use xlink:href="#DejaVuSans-30" transform="translate(147.412109 0)"/>
       <use xlink:href="#DejaVuSans-30" transform="translate(211.035156 0)"/>
      </g>
     </g>
    </g>
    <g id="xtick_8">
     <g id="line2d_19">
      <g>
       <use xlink:href="#ma100c1908e" x="167.91917" y="353.106" style="stroke: #000000; stroke-width: 0.8"/>
      </g>
     </g>
     <g id="text_18">
      <!-- 0 -->
      <g transform="translate(164.73792 367.704438) scale(0.1 -0.1)">
       <use xlink:href="#DejaVuSans-30"/>
      </g>
     </g>
    </g>
    <g id="xtick_9">
     <g id="line2d_20">
      <g>
       <use xlink:href="#ma100c1908e" x="247.853053" y="353.106" style="stroke: #000000; stroke-width: 0.8"/>
      </g>
     </g>
     <g id="text_19">
      <!-- 200 -->
      <g transform="translate(238.309303 367.704438) scale(0.1 -0.1)">
       <use xlink:href="#DejaVuSans-32"/>
       <use xlink:href="#DejaVuSans-30" transform="translate(63.623047 0)"/>
       <use xlink:href="#DejaVuSans-30" transform="translate(127.246094 0)"/>
      </g>
     </g>
    </g>
    <g id="xtick_10">
     <g id="line2d_21">
      <g>
       <use xlink:href="#ma100c1908e" x="327.786937" y="353.106" style="stroke: #000000; stroke-width: 0.8"/>
      </g>
     </g>
     <g id="text_20">
      <!-- 400 -->
      <g transform="translate(318.243187 367.704438) scale(0.1 -0.1)">
       <use xlink:href="#DejaVuSans-34"/>
       <use xlink:href="#DejaVuSans-30" transform="translate(63.623047 0)"/>
       <use xlink:href="#DejaVuSans-30" transform="translate(127.246094 0)"/>
      </g>
     </g>
    </g>
    <g id="xtick_11">
     <g id="line2d_22">
      <g>
       <use xlink:href="#ma100c1908e" x="407.720821" y="353.106" style="stroke: #000000; stroke-width: 0.8"/>
      </g>
     </g>
     <g id="text_21">
      <!-- 600 -->
      <g transform="translate(398.177071 367.704438) scale(0.1 -0.1)">
       <use xlink:href="#DejaVuSans-36"/>
       <use xlink:href="#DejaVuSans-30" transform="translate(63.623047 0)"/>
       <use xlink:href="#DejaVuSans-30" transform="translate(127.246094 0)"/>
      </g>
     </g>
    </g>
    <g id="xtick_12">
     <g id="line2d_23">
      <g>
       <use xlink:href="#ma100c1908e" x="487.654704" y="353.106" style="stroke: #000000; stroke-width: 0.8"/>
      </g>
     </g>
     <g id="text_22">
      <!-- 800 -->
      <g transform="translate(478.110954 367.704438) scale(0.1 -0.1)">
       <use xlink:href="#DejaVuSans-38"/>
       <use xlink:href="#DejaVuSans-30" transform="translate(63.623047 0)"/>
       <use xlink:href="#DejaVuSans-30" transform="translate(127.246094 0)"/>
      </g>
     </g>
    </g>
   </g>
   <g id="matplotlib.axis_4">
    <g id="ytick_5">
     <g id="line2d_24">
      <g>
       <use xlink:href="#m1a549b96b4" x="70.2" y="339.397377" style="stroke: #000000; stroke-width: 0.8"/>
      </g>
     </g>
     <g id="text_23">
      <!-- −10 -->
      <g transform="translate(42.095313 343.196596) scale(0.1 -0.1)">
       <use xlink:href="#DejaVuSans-2212"/>
       <use xlink:href="#DejaVuSans-31" transform="translate(83.789062 0)"/>
       <use xlink:href="#DejaVuSans-30" transform="translate(147.412109 0)"/>
      </g>
     </g>
    </g>
    <g id="ytick_6">
     <g id="line2d_25">
      <g>
       <use xlink:href="#m1a549b96b4" x="70.2" y="314.143732" style="stroke: #000000; stroke-width: 0.8"/>
      </g>
     </g>
     <g id="text_24">
      <!-- −5 -->
      <g transform="translate(48.457813 317.942951) scale(0.1 -0.1)">
       <use xlink:href="#DejaVuSans-2212"/>
       <use xlink:href="#DejaVuSans-35" transform="translate(83.789062 0)"/>
      </g>
     </g>
    </g>
    <g id="ytick_7">
     <g id="line2d_26">
      <g>
       <use xlink:href="#m1a549b96b4" x="70.2" y="288.890088" style="stroke: #000000; stroke-width: 0.8"/>
      </g>
     </g>
     <g id="text_25">
      <!-- 0 -->
      <g transform="translate(56.8375 292.689307) scale(0.1 -0.1)">
       <use xlink:href="#DejaVuSans-30"/>
      </g>
     </g>
    </g>
    <g id="ytick_8">
     <g id="line2d_27">
      <g>
       <use xlink:href="#m1a549b96b4" x="70.2" y="263.636444" style="stroke: #000000; stroke-width: 0.8"/>
      </g>
     </g>
     <g id="text_26">
      <!-- 5 -->
      <g transform="translate(56.8375 267.435663) scale(0.1 -0.1)">
       <use xlink:href="#DejaVuSans-35"/>
      </g>
     </g>
    </g>
    <g id="ytick_9">
     <g id="line2d_28">
      <g>
       <use xlink:href="#m1a549b96b4" x="70.2" y="238.382799" style="stroke: #000000; stroke-width: 0.8"/>
      </g>
     </g>
     <g id="text_27">
      <!-- 10 -->
      <g transform="translate(50.475 242.182018) scale(0.1 -0.1)">
       <use xlink:href="#DejaVuSans-31"/>
       <use xlink:href="#DejaVuSans-30" transform="translate(63.623047 0)"/>
      </g>
     </g>
    </g>
    <g id="text_28">
     <!-- ΔΔLL (bits) -->
     <g transform="translate(36.015625 322.22225) rotate(-90) scale(0.1 -0.1)">
      <use xlink:href="#DejaVuSans-394"/>
      <use xlink:href="#DejaVuSans-394" transform="translate(68.408203 0)"/>
      <use xlink:href="#DejaVuSans-4c" transform="translate(136.816406 0)"/>
      <use xlink:href="#DejaVuSans-4c" transform="translate(192.529297 0)"/>
      <use xlink:href="#DejaVuSans-20" transform="translate(248.242188 0)"/>
      <use xlink:href="#DejaVuSans-28" transform="translate(280.029297 0)"/>
      <use xlink:href="#DejaVuSans-62" transform="translate(319.042969 0)"/>
      <use xlink:href="#DejaVuSans-69" transform="translate(382.519531 0)"/>
      <use xlink:href="#DejaVuSans-74" transform="translate(410.302734 0)"/>
      <use xlink:href="#DejaVuSans-73" transform="translate(449.511719 0)"/>
      <use xlink:href="#DejaVuSans-29" transform="translate(501.611328 0)"/>
     </g>
    </g>
   </g>
   <g id="line2d_29">
    <path d="M 167.91917 353.106 
L 167.91917 237.276 
" clip-path="url(#pdf56dee666)" style="fill: none; stroke-dasharray: 2.96,1.28; stroke-dashoffset: 0; stroke: #000000; stroke-width: 0.8"/>
   </g>
   <g id="line2d_30">
    <path d="M 70.2 288.890088 
L 505.44 288.890088 
" clip-path="url(#pdf56dee666)" style="fill: none; stroke-dasharray: 0.8,1.32; stroke-dashoffset: 0; stroke: #000000; stroke-width: 0.8"/>
   </g>
   <g id="line2d_31">
    <path d="M 89.983636 312.53789 
L 93.980327 265.335004 
L 97.977023 247.670921 
L 101.973713 295.476197 
L 105.97041 276.413161 
L 109.967106 306.657308 
L 113.963796 281.024715 
L 117.960493 270.034307 
L 121.957186 292.824149 
L 125.953882 310.230112 
L 129.950576 288.66014 
L 133.947269 280.761902 
L 137.943962 283.188834 
L 141.940659 303.774054 
L 145.937352 313.731318 
L 149.934045 297.395961 
L 153.93074 270.166518 
L 157.927434 275.887406 
L 161.924129 318.108929 
L 165.920823 338.635076 
L 169.917517 290.251793 
L 173.914211 301.591997 
L 177.910906 279.742293 
L 181.9076 305.354022 
L 185.904294 285.894687 
L 189.900988 279.527105 
L 193.897681 278.172209 
L 197.894377 298.818539 
L 201.891071 281.350497 
L 205.887764 301.161358 
L 209.884457 267.291364 
L 213.881154 270.819386 
L 217.877847 268.873318 
L 221.874543 327.0275 
L 225.871234 282.008377 
L 229.86793 265.335457 
L 233.864626 315.606068 
L 237.861317 275.099116 
L 241.858013 290.383047 
L 245.854704 266.243809 
L 249.8514 317.531065 
L 253.848096 249.627796 
L 257.844787 281.060544 
L 261.841483 316.944135 
L 265.838179 273.137509 
L 269.83487 300.418856 
L 273.83156 269.453052 
L 277.828262 275.742563 
L 281.824953 271.096242 
L 285.821643 266.31224 
L 289.818345 291.438451 
L 293.815036 290.74007 
L 297.811726 294.707634 
L 301.808428 269.063394 
L 305.805119 317.500228 
L 309.801809 311.643116 
L 313.798511 256.504823 
L 317.795202 296.782706 
L 321.791892 254.379566 
L 325.788594 298.502445 
L 329.785285 302.299186 
L 333.781975 279.925513 
L 337.778677 289.149899 
L 341.775368 284.937545 
L 345.772058 273.305955 
L 349.76876 280.111699 
L 353.765451 258.171534 
L 357.762141 286.705475 
L 361.758843 278.597016 
L 365.755534 250.624964 
L 369.752224 242.541 
L 373.748914 280.599207 
L 377.745605 300.670251 
L 381.742319 302.078134 
L 385.739009 307.326095 
L 389.7357 292.845118 
L 393.73239 298.828345 
L 397.72908 302.741714 
L 401.725771 290.267612 
L 405.722485 281.093927 
L 409.719175 293.955645 
L 413.715866 276.700142 
L 417.712556 292.56893 
L 421.709246 297.395039 
L 425.705937 271.793328 
L 429.702627 306.93698 
L 433.699341 313.323782 
L 437.696032 259.812356 
L 441.692722 256.679474 
L 445.689412 293.768352 
L 449.686103 257.092228 
L 453.682793 293.967541 
L 457.679507 308.630649 
L 461.676198 278.15528 
L 465.672888 273.389426 
L 469.669578 295.213818 
L 473.666269 347.841 
L 477.662959 303.767055 
L 481.659673 269.530063 
L 485.656364 291.092856 
" clip-path="url(#pdf56dee666)" style="fill: none; stroke: #d62728; stroke-width: 2.2; stroke-linecap: square"/>
   </g>
   <g id="line2d_32">
    <defs>
     <path id="m68e391b851" d="M 0 1.25 
C 0.331504 1.25 0.649475 1.118292 0.883883 0.883883 
C 1.118292 0.649475 1.25 0.331504 1.25 0 
C 1.25 -0.331504 1.118292 -0.649475 0.883883 -0.883883 
C 0.649475 -1.118292 0.331504 -1.25 0 -1.25 
C -0.331504 -1.25 -0.649475 -1.118292 -0.883883 -0.883883 
C -1.118292 -0.649475 -1.25 -0.331504 -1.25 0 
C -1.25 0.331504 -1.118292 0.649475 -0.883883 0.883883 
C -0.649475 1.118292 -0.331504 1.25 0 1.25 
z
" style="stroke: #000000"/>
    </defs>
    <g clip-path="url(#pdf56dee666)">
     <use xlink:href="#m68e391b851" x="93.980327" y="265.335004" style="stroke: #000000"/>
     <use xlink:href="#m68e391b851" x="97.977023" y="247.670921" style="stroke: #000000"/>
     <use xlink:href="#m68e391b851" x="125.953882" y="310.230112" style="stroke: #000000"/>
     <use xlink:href="#m68e391b851" x="133.947269" y="280.761902" style="stroke: #000000"/>
     <use xlink:href="#m68e391b851" x="161.924129" y="318.108929" style="stroke: #000000"/>
     <use xlink:href="#m68e391b851" x="165.920823" y="338.635076" style="stroke: #000000"/>
     <use xlink:href="#m68e391b851" x="173.914211" y="301.591997" style="stroke: #000000"/>
     <use xlink:href="#m68e391b851" x="221.874543" y="327.0275" style="stroke: #000000"/>
     <use xlink:href="#m68e391b851" x="245.854704" y="266.243809" style="stroke: #000000"/>
     <use xlink:href="#m68e391b851" x="249.8514" y="317.531065" style="stroke: #000000"/>
     <use xlink:href="#m68e391b851" x="253.848096" y="249.627796" style="stroke: #000000"/>
     <use xlink:href="#m68e391b851" x="273.83156" y="269.453052" style="stroke: #000000"/>
     <use xlink:href="#m68e391b851" x="309.801809" y="311.643116" style="stroke: #000000"/>
     <use xlink:href="#m68e391b851" x="313.798511" y="256.504823" style="stroke: #000000"/>
     <use xlink:href="#m68e391b851" x="321.791892" y="254.379566" style="stroke: #000000"/>
     <use xlink:href="#m68e391b851" x="349.76876" y="280.111699" style="stroke: #000000"/>
     <use xlink:href="#m68e391b851" x="353.765451" y="258.171534" style="stroke: #000000"/>
     <use xlink:href="#m68e391b851" x="361.758843" y="278.597016" style="stroke: #000000"/>
     <use xlink:href="#m68e391b851" x="365.755534" y="250.624964" style="stroke: #000000"/>
     <use xlink:href="#m68e391b851" x="473.666269" y="347.841" style="stroke: #000000"/>
    </g>
   </g>
   <g id="patch_10">
    <path d="M 70.2 353.106 
L 70.2 237.276 
" style="fill: none; stroke: #000000; stroke-width: 0.8; stroke-linejoin: miter; stroke-linecap: square"/>
   </g>
   <g id="patch_11">
    <path d="M 505.44 353.106 
L 505.44 237.276 
" style="fill: none; stroke: #000000; stroke-width: 0.8; stroke-linejoin: miter; stroke-linecap: square"/>
   </g>
   <g id="patch_12">
    <path d="M 70.2 353.106 
L 505.44 353.106 
" style="fill: none; stroke: #000000; stroke-width: 0.8; stroke-linejoin: miter; stroke-linecap: square"/>
   </g>
   <g id="patch_13">
    <path d="M 70.2 237.276 
L 505.44 237.276 
" style="fill: none; stroke: #000000; stroke-width: 0.8; stroke-linejoin: miter; stroke-linecap: square"/>
   </g>
   <g id="text_29">
    <!-- Panel B: pair-diff with significance dots -->
    <g transform="translate(171.554063 231.276) scale(0.12 -0.12)">
     <defs>
      <path id="DejaVuSans-42" d="M 1259 2228 
L 1259 519 
L 2272 519 
Q 2781 519 3026 730 
Q 3272 941 3272 1375 
Q 3272 1813 3026 2020 
Q 2781 2228 2272 2228 
L 1259 2228 
z
M 1259 4147 
L 1259 2741 
L 2194 2741 
Q 2656 2741 2882 2914 
Q 3109 3088 3109 3444 
Q 3109 3797 2882 3972 
Q 2656 4147 2194 4147 
L 1259 4147 
z
M 628 4666 
L 2241 4666 
Q 2963 4666 3353 4366 
Q 3744 4066 3744 3513 
Q 3744 3084 3544 2831 
Q 3344 2578 2956 2516 
Q 3422 2416 3680 2098 
Q 3938 1781 3938 1306 
Q 3938 681 3513 340 
Q 3088 0 2303 0 
L 628 0 
L 628 4666 
z
" transform="scale(0.015625)"/>
      <path id="DejaVuSans-70" d="M 1159 525 
L 1159 -1331 
L 581 -1331 
L 581 3500 
L 1159 3500 
L 1159 2969 
Q 1341 3281 1617 3432 
Q 1894 3584 2278 3584 
Q 2916 3584 3314 3078 
Q 3713 2572 3713 1747 
Q 3713 922 3314 415 
Q 2916 -91 2278 -91 
Q 1894 -91 1617 61 
Q 1341 213 1159 525 
z
M 3116 1747 
Q 3116 2381 2855 2742 
Q 2594 3103 2138 3103 
Q 1681 3103 1420 2742 
Q 1159 2381 1159 1747 
Q 1159 1113 1420 752 
Q 1681 391 2138 391 
Q 2594 391 2855 752 
Q 3116 1113 3116 1747 
z
" transform="scale(0.015625)"/>
      <path id="DejaVuSans-68" d="M 3513 2113 
L 3513 0 
L 2938 0 
L 2938 2094 
Q 2938 2591 2744 2837 
Q 2550 3084 2163 3084 
Q 1697 3084 1428 2787 
Q 1159 2491 1159 1978 
L 1159 0 
L 581 0 
L 581 4863 
L 1159 4863 
L 1159 2956 
Q 1366 3272 1645 3428 
Q 1925 3584 2291 3584 
Q 2894 3584 3203 3211 
Q 3513 2838 3513 2113 
z
" transform="scale(0.015625)"/>
      <path id="DejaVuSans-67" d="M 2906 1791 
Q 2906 2416 2648 2759 
Q 2391 3103 1925 3103 
Q 1463 3103 1205 2759 
Q 947 2416 947 1791 
Q 947 1169 1205 825 
Q 1463 481 1925 481 
Q 2391 481 2648 825 
Q 2906 1169 2906 1791 
z
M 3481 434 
Q 3481 -459 3084 -895 
Q 2688 -1331 1869 -1331 
Q 1566 -1331 1297 -1286 
Q 1028 -1241 775 -1147 
L 775 -588 
Q 1028 -725 1275 -790 
Q 1522 -856 1778 -856 
Q 2344 -856 2625 -561 
Q 2906 -266 2906 331 
L 2906 616 
Q 2728 306 2450 153 
Q 2172 0 1784 0 
Q 1141 0 747 490 
Q 353 981 353 1791 
Q 353 2603 747 3093 
Q 1141 3584 1784 3584 
Q 2172 3584 2450 3431 
Q 2728 3278 2906 2969 
L 2906 3500 
L 3481 3500 
L 3481 434 
z
" transform="scale(0.015625)"/>
      <path id="DejaVuSans-63" d="M 3122 3366 
L 3122 2828 
Q 2878 2963 2633 3030 
Q 2388 3097 2138 3097 
Q 1578 3097 1268 2742 
Q 959 2388 959 1747 
Q 959 1106 1268 751 
Q 1578 397 2138 397 
Q 2388 397 2633 464 
Q 2878 531 3122 666 
L 3122 134 
Q 2881 22 2623 -34 
Q 2366 -91 2075 -91 
Q 1284 -91 818 406 
Q 353 903 353 1747 
Q 353 2603 823 3093 
Q 1294 3584 2113 3584 
Q 2378 3584 2631 3529 
Q 2884 3475 3122 3366 
z
" transform="scale(0.015625)"/>
     </defs>
     <use xlink:href="#DejaVuSans-50"/>
     <use xlink:href="#DejaVuSans-61" transform="translate(55.802734 0)"/>
     <use xlink:href="#DejaVuSans-6e" transform="translate(117.082031 0)"/>
     <use xlink:href="#DejaVuSans-65" transform="translate(180.460938 0)"/>
     <use xlink:href="#DejaVuSans-6c" transform="translate(241.984375 0)"/>
     <use xlink:href="#DejaVuSans-20" transform="translate(269.767578 0)"/>
     <use xlink:href="#DejaVuSans-42" transform="translate(301.554688 0)"/>
     <use xlink:href="#DejaVuSans-3a" transform="translate(370.158203 0)"/>
     <use xlink:href="#DejaVuSans-20" transform="translate(403.849609 0)"/>
     <use xlink:href="#DejaVuSans-70" transform="translate(435.636719 0)"/>
     <use xlink:href="#DejaVuSans-61" transform="translate(499.113281 0)"/>
     <use xlink:href="#DejaVuSans-69" transform="translate(560.392578 0)"/>
     <use xlink:href="#DejaVuSans-72" transform="translate(588.175781 0)"/>
     <use xlink:href="#DejaVuSans-2d" transform="translate(622.914062 0)"/>
     <use xlink:href="#DejaVuSans-64" transform="translate(658.998047 0)"/>
     <use xlink:href="#DejaVuSans-69" transform="translate(722.474609 0)"/>
     <use xlink:href="#DejaVuSans-66" transform="translate(750.257812 0)"/>
     <use xlink:href="#DejaVuSans-66" transform="translate(785.462891 0)"/>
     <use xlink:href="#DejaVuSans-20" transform="translate(820.667969 0)"/>
     <use xlink:href="#DejaVuSans-77" transform="translate(852.455078 0)"/>
     <use xlink:href="#DejaVuSans-69" transform="translate(934.242188 0)"/>
     <use xlink:href="#DejaVuSans-74" transform="translate(962.025391 0)"/>
     <use xlink:href="#DejaVuSans-68" transform="translate(1001.234375 0)"/>
     <use xlink:href="#DejaVuSans-20" transform="translate(1064.613281 0)"/>
     <use xlink:href="#DejaVuSans-73" transform="translate(1096.400391 0)"/>
     <use xlink:href="#DejaVuSans-69" transform="translate(1148.5 0)"/>
     <use xlink:href="#DejaVuSans-67" transform="translate(1176.283203 0)"/>
     <use xlink:href="#DejaVuSans-6e" transform="translate(1239.759766 0)"/>
     <use xlink:href="#DejaVuSans-69" transform="translate(1303.138672 0)"/>
     <use xlink:href="#DejaVuSans-66" transform="translate(1330.921875 0)"/>
     <use xlink:href="#DejaVuSans-69" transform="translate(1366.126953 0)"/>
     <use xlink:href="#DejaVuSans-63" transform="translate(1393.910156 0)"/>
     <use xlink:href="#DejaVuSans-61" transform="translate(1448.890625 0)"/>
     <use xlink:href="#DejaVuSans-6e" transform="translate(1510.169922 0)"/>
     <use xlink:href="#DejaVuSans-63" transform="translate(1573.548828 0)"/>
     <use xlink:href="#DejaVuSans-65" transform="translate(1628.529297 0)"/>
     <use xlink:href="#DejaVuSans-20" transform="translate(1690.052734 0)"/>
     <use xlink:href="#DejaVuSans-64" transform="translate(1721.839844 0)"/>
     <use xlink:href="#DejaVuSans-6f" transform="translate(1785.316406 0)"/>
     <use xlink:href="#DejaVuSans-74" transform="translate(1846.498047 0)"/>
     <use xlink:href="#DejaVuSans-73" transform="translate(1885.707031 0)"/>
    </g>
   </g>
   <g id="legend_2">
    <g id="line2d_33">
     <path d="M 79.2 250.374437 
L 89.2 250.374437 
L 99.2 250.374437 
" style="fill: none; stroke: #d62728; stroke-width: 2.2; stroke-linecap: square"/>
    </g>
    <g id="text_30">
     <!-- (A→B − B→A) -->
     <g transform="translate(107.2 253.874437) scale(0.1 -0.1)">
      <use xlink:href="#DejaVuSans-28"/>
      <use xlink:href="#DejaVuSans-41" transform="translate(39.013672 0)"/>
      <use xlink:href="#DejaVuSans-2192" transform="translate(107.421875 0)"/>
      <use xlink:href="#DejaVuSans-42" transform="translate(191.210938 0)"/>
      <use xlink:href="#DejaVuSans-20" transform="translate(259.814453 0)"/>
      <use xlink:href="#DejaVuSans-2212" transform="translate(291.601562 0)"/>
      <use xlink:href="#DejaVuSans-20" transform="translate(375.390625 0)"/>
      <use xlink:href="#DejaVuSans-42" transform="translate(407.177734 0)"/>
      <use xlink:href="#DejaVuSans-2192" transform="translate(475.78125 0)"/>
      <use xlink:href="#DejaVuSans-41" transform="translate(559.570312 0)"/>
      <use xlink:href="#DejaVuSans-29" transform="translate(627.978516 0)"/>
     </g>
    </g>
    <g id="line2d_34">
     <g>
      <use xlink:href="#m68e391b851" x="89.2" y="265.052563" style="stroke: #000000"/>
     </g>
    </g>
    <g id="text_31">
     <!-- p&lt;0.05 (one-sided) -->
     <g transform="translate(107.2 268.552563) scale(0.1 -0.1)">
      <defs>
       <path id="DejaVuSans-3c" d="M 4684 3150 
L 1459 2003 
L 4684 863 
L 4684 294 
L 678 1747 
L 678 2266 
L 4684 3719 
L 4684 3150 
z
" transform="scale(0.015625)"/>
       <path id="DejaVuSans-2e" d="M 684 794 
L 1344 794 
L 1344 0 
L 684 0 
L 684 794 
z
" transform="scale(0.015625)"/>
      </defs>
      <use xlink:href="#DejaVuSans-70"/>
      <use xlink:href="#DejaVuSans-3c" transform="translate(63.476562 0)"/>
      <use xlink:href="#DejaVuSans-30" transform="translate(147.265625 0)"/>
      <use xlink:href="#DejaVuSans-2e" transform="translate(210.888672 0)"/>
      <use xlink:href="#DejaVuSans-30" transform="translate(242.675781 0)"/>
      <use xlink:href="#DejaVuSans-35" transform="translate(306.298828 0)"/>
      <use xlink:href="#DejaVuSans-20" transform="translate(369.921875 0)"/>
      <use xlink:href="#DejaVuSans-28" transform="translate(401.708984 0)"/>
      <use xlink:href="#DejaVuSans-6f" transform="translate(440.722656 0)"/>
      <use xlink:href="#DejaVuSans-6e" transform="translate(501.904297 0)"/>
      <use xlink:href="#DejaVuSans-65" transform="translate(565.283203 0)"/>
      <use xlink:href="#DejaVuSans-2d" transform="translate(626.806641 0)"/>
      <use xlink:href="#DejaVuSans-73" transform="translate(662.890625 0)"/>
      <use xlink:href="#DejaVuSans-69" transform="translate(714.990234 0)"/>
      <use xlink:href="#DejaVuSans-64" transform="translate(742.773438 0)"/>
      <use xlink:href="#DejaVuSans-65" transform="translate(806.25 0)"/>
      <use xlink:href="#DejaVuSans-64" transform="translate(867.773438 0)"/>
      <use xlink:href="#DejaVuSans-29" transform="translate(931.25 0)"/>
     </g>
    </g>
   </g>
  </g>
  <g id="axes_3">
   <g id="patch_14">
    <path d="M 70.2 499.824 
L 505.44 499.824 
L 505.44 383.994 
L 70.2 383.994 
z
" style="fill: #ffffff"/>
   </g>
   <g id="matplotlib.axis_5">
    <g id="xtick_13">
     <g id="line2d_35">
      <g>
       <use xlink:href="#ma100c1908e" x="87.985286" y="499.824" style="stroke: #000000; stroke-width: 0.8"/>
      </g>
     </g>
     <g id="text_32">
      <!-- −200 -->
      <g transform="translate(74.251693 514.422438) scale(0.1 -0.1)">
       <use xlink:href="#DejaVuSans-2212"/>
       <use xlink:href="#DejaVuSans-32" transform="translate(83.789062 0)"/>
       <use xlink:href="#DejaVuSans-30" transform="translate(147.412109 0)"/>
       <use xlink:href="#DejaVuSans-30" transform="translate(211.035156 0)"/>
      </g>
     </g>
    </g>
    <g id="xtick_14">
     <g id="line2d_36">
      <g>
       <use xlink:href="#ma100c1908e" x="167.91917" y="499.824" style="stroke: #000000; stroke-width: 0.8"/>
      </g>
     </g>
     <g id="text_33">
      <!-- 0 -->
      <g transform="translate(164.73792 514.422438) scale(0.1 -0.1)">
       <use xlink:href="#DejaVuSans-30"/>
      </g>
     </g>
    </g>
    <g id="xtick_15">
     <g id="line2d_37">
      <g>
       <use xlink:href="#ma100c1908e" x="247.853053" y="499.824" style="stroke: #000000; stroke-width: 0.8"/>
      </g>
     </g>
     <g id="text_34">
      <!-- 200 -->
      <g transform="translate(238.309303 514.422438) scale(0.1 -0.1)">
       <use xlink:href="#DejaVuSans-32"/>
       <use xlink:href="#DejaVuSans-30" transform="translate(63.623047 0)"/>
       <use xlink:href="#DejaVuSans-30" transform="translate(127.246094 0)"/>
      </g>
     </g>
    </g>
    <g id="xtick_16">
     <g id="line2d_38">
      <g>
       <use xlink:href="#ma100c1908e" x="327.786937" y="499.824" style="stroke: #000000; stroke-width: 0.8"/>
      </g>
     </g>
     <g id="text_35">
      <!-- 400 -->
      <g transform="translate(318.243187 514.422438) scale(0.1 -0.1)">
       <use xlink:href="#DejaVuSans-34"/>
       <use xlink:href="#DejaVuSans-30" transform="translate(63.623047 0)"/>
       <use xlink:href="#DejaVuSans-30" transform="translate(127.246094 0)"/>
      </g>
     </g>
    </g>
    <g id="xtick_17">
     <g id="line2d_39">
      <g>
       <use xlink:href="#ma100c1908e" x="407.720821" y="499.824" style="stroke: #000000; stroke-width: 0.8"/>
      </g>
     </g>
     <g id="text_36">
      <!-- 600 -->
      <g transform="translate(398.177071 514.422438) scale(0.1 -0.1)">
       <use xlink:href="#DejaVuSans-36"/>
       <use xlink:href="#DejaVuSans-30" transform="translate(63.623047 0)"/>
       <use xlink:href="#DejaVuSans-30" transform="translate(127.246094 0)"/>
      </g>
     </g>
    </g>
    <g id="xtick_18">
     <g id="line2d_40">
      <g>
       <use xlink:href="#ma100c1908e" x="487.654704" y="499.824" style="stroke: #000000; stroke-width: 0.8"/>
      </g>
     </g>
     <g id="text_37">
      <!-- 800 -->
      <g transform="translate(478.110954 514.422438) scale(0.1 -0.1)">
       <use xlink:href="#DejaVuSans-38"/>
       <use xlink:href="#DejaVuSans-30" transform="translate(63.623047 0)"/>
       <use xlink:href="#DejaVuSans-30" transform="translate(127.246094 0)"/>
      </g>
     </g>
    </g>
    <g id="text_38">
     <!-- Time (ms) -->
     <g transform="translate(262.620781 528.100563) scale(0.1 -0.1)">
      <defs>
       <path id="DejaVuSans-54" d="M -19 4666 
L 3928 4666 
L 3928 4134 
L 2272 4134 
L 2272 0 
L 1638 0 
L 1638 4134 
L -19 4134 
L -19 4666 
z
" transform="scale(0.015625)"/>
       <path id="DejaVuSans-6d" d="M 3328 2828 
Q 3544 3216 3844 3400 
Q 4144 3584 4550 3584 
Q 5097 3584 5394 3201 
Q 5691 2819 5691 2113 
L 5691 0 
L 5113 0 
L 5113 2094 
Q 5113 2597 4934 2840 
Q 4756 3084 4391 3084 
Q 3944 3084 3684 2787 
Q 3425 2491 3425 1978 
L 3425 0 
L 2847 0 
L 2847 2094 
Q 2847 2600 2669 2842 
Q 2491 3084 2119 3084 
Q 1678 3084 1418 2786 
Q 1159 2488 1159 1978 
L 1159 0 
L 581 0 
L 581 3500 
L 1159 3500 
L 1159 2956 
Q 1356 3278 1631 3431 
Q 1906 3584 2284 3584 
Q 2666 3584 2933 3390 
Q 3200 3197 3328 2828 
z
" transform="scale(0.015625)"/>
      </defs>
      <use xlink:href="#DejaVuSans-54"/>
      <use xlink:href="#DejaVuSans-69" transform="translate(57.958984 0)"/>
      <use xlink:href="#DejaVuSans-6d" transform="translate(85.742188 0)"/>
      <use xlink:href="#DejaVuSans-65" transform="translate(183.154297 0)"/>
      <use xlink:href="#DejaVuSans-20" transform="translate(244.677734 0)"/>
      <use xlink:href="#DejaVuSans-28" transform="translate(276.464844 0)"/>
      <use xlink:href="#DejaVuSans-6d" transform="translate(315.478516 0)"/>
      <use xlink:href="#DejaVuSans-73" transform="translate(412.890625 0)"/>
      <use xlink:href="#DejaVuSans-29" transform="translate(464.990234 0)"/>
     </g>
    </g>
   </g>
   <g id="matplotlib.axis_6">
    <g id="ytick_10">
     <g id="line2d_41">
      <g>
       <use xlink:href="#m1a549b96b4" x="70.2" y="491.986644" style="stroke: #000000; stroke-width: 0.8"/>
      </g>
     </g>
     <g id="text_39">
      <!-- −2 -->
      <g transform="translate(48.457813 495.785863) scale(0.1 -0.1)">
       <use xlink:href="#DejaVuSans-2212"/>
       <use xlink:href="#DejaVuSans-32" transform="translate(83.789062 0)"/>
      </g>
     </g>
    </g>
    <g id="ytick_11">
     <g id="line2d_42">
      <g>
       <use xlink:href="#m1a549b96b4" x="70.2" y="458.102158" style="stroke: #000000; stroke-width: 0.8"/>
      </g>
     </g>
     <g id="text_40">
      <!-- 0 -->
      <g transform="translate(56.8375 461.901376) scale(0.1 -0.1)">
       <use xlink:href="#DejaVuSans-30"/>
      </g>
     </g>
    </g>
    <g id="ytick_12">
     <g id="line2d_43">
      <g>
       <use xlink:href="#m1a549b96b4" x="70.2" y="424.217672" style="stroke: #000000; stroke-width: 0.8"/>
      </g>
     </g>
     <g id="text_41">
      <!-- 2 -->
      <g transform="translate(56.8375 428.01689) scale(0.1 -0.1)">
       <use xlink:href="#DejaVuSans-32"/>
      </g>
     </g>
    </g>
    <g id="ytick_13">
     <g id="line2d_44">
      <g>
       <use xlink:href="#m1a549b96b4" x="70.2" y="390.333186" style="stroke: #000000; stroke-width: 0.8"/>
      </g>
     </g>
     <g id="text_42">
      <!-- 4 -->
      <g transform="translate(56.8375 394.132404) scale(0.1 -0.1)">
       <use xlink:href="#DejaVuSans-34"/>
      </g>
     </g>
    </g>
    <g id="text_43">
     <!-- Z (σ from null) -->
     <g transform="translate(42.378125 477.919938) rotate(-90) scale(0.1 -0.1)">
      <defs>
       <path id="DejaVuSans-5a" d="M 359 4666 
L 4025 4666 
L 4025 4184 
L 1075 531 
L 4097 531 
L 4097 0 
L 288 0 
L 288 481 
L 3238 4134 
L 359 4134 
L 359 4666 
z
" transform="scale(0.015625)"/>
      </defs>
      <use xlink:href="#DejaVuSans-5a"/>
      <use xlink:href="#DejaVuSans-20" transform="translate(68.505859 0)"/>
      <use xlink:href="#DejaVuSans-28" transform="translate(100.292969 0)"/>
      <use xlink:href="#DejaVuSans-3c3" transform="translate(139.306641 0)"/>
      <use xlink:href="#DejaVuSans-20" transform="translate(202.685547 0)"/>
      <use xlink:href="#DejaVuSans-66" transform="translate(234.472656 0)"/>
      <use xlink:href="#DejaVuSans-72" transform="translate(269.677734 0)"/>
      <use xlink:href="#DejaVuSans-6f" transform="translate(308.541016 0)"/>
      <use xlink:href="#DejaVuSans-6d" transform="translate(369.722656 0)"/>
      <use xlink:href="#DejaVuSans-20" transform="translate(467.134766 0)"/>
      <use xlink:href="#DejaVuSans-6e" transform="translate(498.921875 0)"/>
      <use xlink:href="#DejaVuSans-75" transform="translate(562.300781 0)"/>
      <use xlink:href="#DejaVuSans-6c" transform="translate(625.679688 0)"/>
      <use xlink:href="#DejaVuSans-6c" transform="translate(653.462891 0)"/>
      <use xlink:href="#DejaVuSans-29" transform="translate(681.246094 0)"/>
     </g>
    </g>
   </g>
   <g id="line2d_45">
    <path d="M 167.91917 499.824 
L 167.91917 383.994 
" clip-path="url(#p8b3596b882)" style="fill: none; stroke-dasharray: 2.96,1.28; stroke-dashoffset: 0; stroke: #000000; stroke-width: 0.8"/>
   </g>
   <g id="line2d_46">
    <path d="M 89.983636 481.350161 
L 93.980327 416.912407 
L 97.977023 401.533307 
L 101.973713 472.002535 
L 105.97041 455.605223 
L 109.967106 484.473295 
L 113.963796 436.981673 
L 117.960493 461.924207 
L 121.957186 477.581133 
L 125.953882 433.680923 
L 129.950576 450.089701 
L 133.947269 428.140343 
L 137.943962 462.908945 
L 141.940659 456.333245 
L 145.937352 462.48901 
L 149.934045 483.764286 
L 153.93074 439.934425 
L 157.927434 458.943367 
L 161.924129 462.15755 
L 165.920823 459.872727 
L 169.917517 449.565617 
L 173.914211 446.068291 
L 177.910906 477.54174 
L 181.9076 466.775419 
L 185.904294 462.509696 
L 189.900988 460.419256 
L 193.897681 465.993102 
L 197.894377 459.244048 
L 201.891071 448.873327 
L 205.887764 473.175834 
L 209.884457 441.250657 
L 213.881154 432.933324 
L 217.877847 440.830324 
L 221.874543 473.897033 
L 225.871234 474.773499 
L 229.86793 444.685242 
L 233.864626 479.432769 
L 237.861317 440.175862 
L 241.858013 455.717826 
L 245.854704 425.431605 
L 249.8514 460.068963 
L 253.848096 427.560246 
L 257.844787 450.703584 
L 261.841483 477.690806 
L 265.838179 437.29548 
L 269.83487 468.762904 
L 273.83156 422.45726 
L 277.828262 441.158264 
L 281.824953 444.920607 
L 285.821643 431.421497 
L 289.818345 442.365564 
L 293.815036 463.222761 
L 297.811726 452.963116 
L 301.808428 446.854547 
L 305.805119 483.350964 
L 309.801809 458.583601 
L 313.798511 413.580276 
L 317.795202 454.82789 
L 321.791892 417.415982 
L 325.788594 449.676537 
L 329.785285 445.713649 
L 333.781975 451.250267 
L 337.778677 439.630976 
L 341.775368 456.429114 
L 345.772058 444.369909 
L 349.76876 424.784333 
L 353.765451 414.191287 
L 357.762141 443.380888 
L 361.758843 428.40488 
L 365.755534 422.215012 
L 369.752224 431.845313 
L 373.748914 442.142893 
L 377.745605 488.408992 
L 381.742319 451.635703 
L 385.739009 470.273756 
L 389.7357 467.505755 
L 393.73239 464.579511 
L 397.72908 457.005703 
L 401.725771 450.959144 
L 405.722485 445.399273 
L 409.719175 447.587396 
L 413.715866 430.664579 
L 417.712556 457.131001 
L 421.709246 469.142637 
L 425.705937 435.02661 
L 429.702627 462.798873 
L 433.699341 470.127561 
L 437.696032 443.885484 
L 441.692722 434.631557 
L 445.689412 474.723048 
L 449.686103 440.555133 
L 453.682793 420.751974 
L 457.679507 464.844869 
L 461.676198 431.410392 
L 465.672888 447.159021 
L 469.669578 449.105818 
L 473.666269 483.470834 
L 477.662959 452.135777 
L 481.659673 452.367614 
L 485.656364 466.083404 
" clip-path="url(#p8b3596b882)" style="fill: none; stroke: #1f77b4; stroke-width: 2; stroke-linecap: square"/>
   </g>
   <g id="line2d_47">
    <path d="M 89.983636 449.482244 
L 93.980327 451.044596 
L 97.977023 454.762524 
L 101.973713 464.962105 
L 105.97041 471.543878 
L 109.967106 458.631206 
L 113.963796 447.005643 
L 117.960493 487.503568 
L 121.957186 471.246443 
L 125.953882 402.795105 
L 129.950576 449.298742 
L 133.947269 439.804539 
L 137.943962 471.470798 
L 141.940659 435.87157 
L 145.937352 429.120418 
L 149.934045 469.920868 
L 153.93074 465.5623 
L 157.927434 475.573908 
L 161.924129 423.269874 
L 165.920823 389.259 
L 169.917517 447.865653 
L 173.914211 429.819251 
L 177.910906 490.154089 
L 181.9076 445.681634 
L 185.904294 466.460776 
L 189.900988 473.667553 
L 193.897681 479.327269 
L 197.894377 445.855715 
L 201.891071 461.555671 
L 205.887764 454.43913 
L 209.884457 471.69806 
L 213.881154 453.091887 
L 217.877847 467.771352 
L 221.874543 421.515677 
L 225.871234 485.467396 
L 229.86793 479.211413 
L 233.864626 444.755799 
L 237.861317 461.012838 
L 241.858013 450.879911 
L 245.854704 454.187126 
L 249.8514 423.210048 
L 253.848096 479.632557 
L 257.844787 461.11498 
L 261.841483 438.883634 
L 265.838179 457.700687 
L 269.83487 453.714727 
L 273.83156 451.158133 
L 277.828262 457.659005 
L 281.824953 467.076898 
L 285.821643 462.425525 
L 289.818345 440.141237 
L 293.815036 461.362192 
L 297.811726 446.328982 
L 301.808428 473.793315 
L 305.805119 444.717156 
L 309.801809 424.866784 
L 313.798511 457.111768 
L 317.795202 443.749271 
L 321.791892 464.012385 
L 325.788594 435.395343 
L 329.785285 430.247942 
L 333.781975 461.433766 
L 337.778677 437.025687 
L 341.775368 462.836088 
L 345.772058 467.248722 
L 349.76876 438.188563 
L 353.765451 457.627881 
L 357.762141 447.800161 
L 361.758843 440.786628 
L 365.755534 475.677403 
L 369.752224 494.559 
L 373.748914 454.277874 
L 377.745605 470.431993 
L 381.742319 430.812408 
L 385.739009 445.757456 
L 389.7357 464.809008 
L 393.73239 451.006868 
L 397.72908 436.745083 
L 401.725771 448.078769 
L 405.722485 456.990014 
L 409.719175 438.492587 
L 413.715866 445.226289 
L 417.712556 454.611442 
L 421.709246 458.455382 
L 425.705937 457.566672 
L 429.702627 436.573433 
L 433.699341 437.624596 
L 437.696032 483.749655 
L 441.692722 478.960104 
L 445.689412 470.554442 
L 449.686103 481.291716 
L 453.682793 413.899542 
L 457.679507 440.289032 
L 461.676198 448.803736 
L 465.672888 469.533637 
L 469.669578 440.453977 
L 473.666269 401.263186 
L 477.662959 430.941436 
L 481.659673 476.699453 
L 485.656364 463.504553 
" clip-path="url(#p8b3596b882)" style="fill: none; stroke: #ff7f0e; stroke-width: 2; stroke-linecap: square"/>
   </g>
   <g id="patch_15">
    <path d="M 70.2 499.824 
L 70.2 383.994 
" style="fill: none; stroke: #000000; stroke-width: 0.8; stroke-linejoin: miter; stroke-linecap: square"/>
   </g>
   <g id="patch_16">
    <path d="M 505.44 499.824 
L 505.44 383.994 
" style="fill: none; stroke: #000000; stroke-width: 0.8; stroke-linejoin: miter; stroke-linecap: square"/>
   </g>
   <g id="patch_17">
    <path d="M 70.2 499.824 
L 505.44 499.824 
" style="fill: none; stroke: #000000; stroke-width: 0.8; stroke-linejoin: miter; stroke-linecap: square"/>
   </g>
   <g id="patch_18">
    <path d="M 70.2 383.994 
L 505.44 383.994 
" style="fill: none; stroke: #000000; stroke-width: 0.8; stroke-linejoin: miter; stroke-linecap: square"/>
   </g>
   <g id="text_44">
    <!-- Panel C: evidence strength vs null -->
    <g transform="translate(185.80125 377.994) scale(0.12 -0.12)">
     <defs>
      <path id="DejaVuSans-43" d="M 4122 4306 
L 4122 3641 
Q 3803 3938 3442 4084 
Q 3081 4231 2675 4231 
Q 1875 4231 1450 3742 
Q 1025 3253 1025 2328 
Q 1025 1406 1450 917 
Q 1875 428 2675 428 
Q 3081 428 3442 575 
Q 3803 722 4122 1019 
L 4122 359 
Q 3791 134 3420 21 
Q 3050 -91 2638 -91 
Q 1578 -91 968 557 
Q 359 1206 359 2328 
Q 359 3453 968 4101 
Q 1578 4750 2638 4750 
Q 3056 4750 3426 4639 
Q 3797 4528 4122 4306 
z
" transform="scale(0.015625)"/>
     </defs>
     <use xlink:href="#DejaVuSans-50"/>
     <use xlink:href="#DejaVuSans-61" transform="translate(55.802734 0)"/>
     <use xlink:href="#DejaVuSans-6e" transform="translate(117.082031 0)"/>
     <use xlink:href="#DejaVuSans-65" transform="translate(180.460938 0)"/>
     <use xlink:href="#DejaVuSans-6c" transform="translate(241.984375 0)"/>
     <use xlink:href="#DejaVuSans-20" transform="translate(269.767578 0)"/>
     <use xlink:href="#DejaVuSans-43" transform="translate(301.554688 0)"/>
     <use xlink:href="#DejaVuSans-3a" transform="translate(371.378906 0)"/>
     <use xlink:href="#DejaVuSans-20" transform="translate(405.070312 0)"/>
     <use xlink:href="#DejaVuSans-65" transform="translate(436.857422 0)"/>
     <use xlink:href="#DejaVuSans-76" transform="translate(498.380859 0)"/>
     <use xlink:href="#DejaVuSans-69" transform="translate(557.560547 0)"/>
     <use xlink:href="#DejaVuSans-64" transform="translate(585.34375 0)"/>
     <use xlink:href="#DejaVuSans-65" transform="translate(648.820312 0)"/>
     <use xlink:href="#DejaVuSans-6e" transform="translate(710.34375 0)"/>
     <use xlink:href="#DejaVuSans-63" transform="translate(773.722656 0)"/>
     <use xlink:href="#DejaVuSans-65" transform="translate(828.703125 0)"/>
     <use xlink:href="#DejaVuSans-20" transform="translate(890.226562 0)"/>
     <use xlink:href="#DejaVuSans-73" transform="translate(922.013672 0)"/>
     <use xlink:href="#DejaVuSans-74" transform="translate(974.113281 0)"/>
     <use xlink:href="#DejaVuSans-72" transform="translate(1013.322266 0)"/>
     <use xlink:href="#DejaVuSans-65" transform="translate(1052.185547 0)"/>
     <use xlink:href="#DejaVuSans-6e" transform="translate(1113.708984 0)"/>
     <use xlink:href="#DejaVuSans-67" transform="translate(1177.087891 0)"/>
     <use xlink:href="#DejaVuSans-74" transform="translate(1240.564453 0)"/>
     <use xlink:href="#DejaVuSans-68" transform="translate(1279.773438 0)"/>
     <use xlink:href="#DejaVuSans-20" transform="translate(1343.152344 0)"/>
     <use xlink:href="#DejaVuSans-76" transform="translate(1374.939453 0)"/>
     <use xlink:href="#DejaVuSans-73" transform="translate(1434.119141 0)"/>
     <use xlink:href="#DejaVuSans-20" transform="translate(1486.21875 0)"/>
     <use xlink:href="#DejaVuSans-6e" transform="translate(1518.005859 0)"/>
     <use xlink:href="#DejaVuSans-75" transform="translate(1581.384766 0)"/>
     <use xlink:href="#DejaVuSans-6c" transform="translate(1644.763672 0)"/>
     <use xlink:href="#DejaVuSans-6c" transform="translate(1672.546875 0)"/>
    </g>
   </g>
   <g id="legend_3">
    <g id="line2d_48">
     <path d="M 79.2 397.092438 
L 89.2 397.092438 
L 99.2 397.092438 
" style="fill: none; stroke: #1f77b4; stroke-width: 2; stroke-linecap: square"/>
    </g>
    <g id="text_45">
     <!-- z(MFEF→MLIP) -->
     <g transform="translate(107.2 400.592438) scale(0.1 -0.1)">
      <defs>
       <path id="DejaVuSans-7a" d="M 353 3500 
L 3084 3500 
L 3084 2975 
L 922 459 
L 3084 459 
L 3084 0 
L 275 0 
L 275 525 
L 2438 3041 
L 353 3041 
L 353 3500 
z
" transform="scale(0.015625)"/>
      </defs>
      <use xlink:href="#DejaVuSans-7a"/>
      <use xlink:href="#DejaVuSans-28" transform="translate(52.490234 0)"/>
      <use xlink:href="#DejaVuSans-4d" transform="translate(91.503906 0)"/>
      <use xlink:href="#DejaVuSans-46" transform="translate(177.783203 0)"/>
      <use xlink:href="#DejaVuSans-45" transform="translate(235.302734 0)"/>
      <use xlink:href="#DejaVuSans-46" transform="translate(298.486328 0)"/>
      <use xlink:href="#DejaVuSans-2192" transform="translate(356.005859 0)"/>
      <use xlink:href="#DejaVuSans-4d" transform="translate(439.794922 0)"/>
      <use xlink:href="#DejaVuSans-4c" transform="translate(526.074219 0)"/>
      <use xlink:href="#DejaVuSans-49" transform="translate(581.787109 0)"/>
      <use xlink:href="#DejaVuSans-50" transform="translate(611.279297 0)"/>
      <use xlink:href="#DejaVuSans-29" transform="translate(671.582031 0)"/>
     </g>
    </g>
    <g id="line2d_49">
     <path d="M 79.2 411.770563 
L 89.2 411.770563 
L 99.2 411.770563 
" style="fill: none; stroke: #ff7f0e; stroke-width: 2; stroke-linecap: square"/>
    </g>
    <g id="text_46">
     <!-- z(MLIP→MFEF) -->
     <g transform="translate(107.2 415.270563) scale(0.1 -0.1)">
      <use xlink:href="#DejaVuSans-7a"/>
      <use xlink:href="#DejaVuSans-28" transform="translate(52.490234 0)"/>
      <use xlink:href="#DejaVuSans-4d" transform="translate(91.503906 0)"/>
      <use xlink:href="#DejaVuSans-4c" transform="translate(177.783203 0)"/>
      <use xlink:href="#DejaVuSans-49" transform="translate(233.496094 0)"/>
      <use xlink:href="#DejaVuSans-50" transform="translate(262.988281 0)"/>
      <use xlink:href="#DejaVuSans-2192" transform="translate(323.291016 0)"/>
      <use xlink:href="#DejaVuSans-4d" transform="translate(407.080078 0)"/>
      <use xlink:href="#DejaVuSans-46" transform="translate(493.359375 0)"/>
      <use xlink:href="#DejaVuSans-45" transform="translate(550.878906 0)"/>
      <use xlink:href="#DejaVuSans-46" transform="translate(614.0625 0)"/>
      <use xlink:href="#DejaVuSans-29" transform="translate(671.582031 0)"/>
     </g>
    </g>
   </g>
  </g>
 </g>
 <defs>
  <clipPath id="pf7fda2701c">
   <rect x="70.2" y="67.392" width="435.24" height="138.996"/>
  </clipPath>
  <clipPath id="pdf56dee666">
   <rect x="70.2" y="237.276" width="435.24" height="115.83"/>
  </clipPath>
  <clipPath id="p8b3596b882">
   <rect x="70.2" y="383.994" width="435.24" height="115.83"/>
  </clipPath>
 </defs>
</svg>
