<?xml version="1.0" encoding="utf-8" standalone="no"?>
<!DOCTYPE svg PUBLIC "-//W3C//DTD SVG 1.1//EN"
  "http://www.w3.org/Graphics/SVG/1.1/DTD/svg11.dtd">
<svg xmlns:xlink="http://www.w3.org/1999/xlink" width="561.6pt" height="561.6pt" viewBox="0 0 561.6 561.6" xmlns="http://www.w3.org/2000/svg" version="1.1">
 <metadata>
  <rdf:RDF xmlns:dc="http://purl.org/dc/elements/1.1/" xmlns:cc="http://creativecommons.org/ns#" xmlns:rdf="http://www.w3.org/1999/02/22-rdf-syntax-ns#">
   <cc:Work>
    <dc:type rdf:resource="http://purl.org/dc/dcmitype/StillImage"/>
    <dc:date>2025-12-08T02:12:32.305127</dc:date>
    <dc:format>image/svg+xml</dc:format>
    <dc:creator>
     <cc:Agent>
      <dc:title>Matplotlib v3.10.5, https://matplotlib.org/</dc:title>
     </cc:Agent>
    </dc:creator>
   </cc:Work>
  </rdf:RDF>
 </metadata>
 <defs>
  <style type="text/css">*{stroke-linejoin: round; stroke-linecap: butt}</style>
 </defs>
 <g id="figure_1">
  <g id="patch_1">
   <path d="M 0 561.6 
L 561.6 561.6 
L 561.6 0 
L 0 0 
z
" style="fill: #ffffff"/>
  </g>
  <g id="axes_1">
   <g id="patch_2">
    <path d="M 70.2 206.388 
L 505.44 206.388 
L 505.44 67.392 
L 70.2 67.392 
z
" style="fill: #ffffff"/>
   </g>
   <g id="FillBetweenPolyCollection_1">
    <defs>
     <path id="m57e6421dc6" d="M 89.983636 -422.718662 
L 89.983636 -375.331631 
L 93.980327 -374.333432 
L 97.977023 -375.534 
L 101.973713 -374.130881 
L 105.97041 -373.028118 
L 109.967106 -375.169729 
L 113.963796 -375.812773 
L 117.960493 -375.106547 
L 121.957186 -375.584727 
L 125.953882 -374.222973 
L 129.950576 -375.06836 
L 133.947269 -375.167049 
L 137.943962 -374.707199 
L 141.940659 -376.87004 
L 145.937352 -376.770598 
L 149.934045 -375.122901 
L 153.93074 -376.168857 
L 157.927434 -371.116301 
L 161.924129 -375.283599 
L 165.920823 -374.347697 
L 169.917517 -378.295962 
L 173.914211 -374.286667 
L 177.910906 -374.672591 
L 181.9076 -372.379027 
L 185.904294 -377.400699 
L 189.900988 -372.699415 
L 193.897681 -373.683834 
L 197.894377 -375.23654 
L 201.891071 -375.576678 
L 205.887764 -372.411435 
L 209.884457 -375.508038 
L 213.881154 -373.983794 
L 217.877847 -374.498571 
L 221.874543 -376.354172 
L 225.871234 -373.960945 
L 229.86793 -375.362326 
L 233.864626 -373.795144 
L 237.861317 -374.900059 
L 241.858013 -375.86845 
L 245.854704 -374.585686 
L 249.8514 -373.116802 
L 253.848096 -373.835787 
L 257.844787 -376.448917 
L 261.841483 -375.173113 
L 265.838179 -376.022783 
L 269.83487 -380.634057 
L 273.83156 -375.655969 
L 277.828262 -375.935476 
L 281.824953 -373.093297 
L 285.821643 -378.519207 
L 289.818345 -379.30568 
L 293.815036 -381.424505 
L 297.811726 -375.514452 
L 301.808428 -376.279857 
L 305.805119 -378.766537 
L 309.801809 -374.547103 
L 313.798511 -376.048794 
L 317.795202 -376.000042 
L 321.791892 -374.199216 
L 325.788594 -373.368805 
L 329.785285 -375.254683 
L 333.781975 -374.633376 
L 337.778677 -374.77908 
L 341.775368 -374.019037 
L 345.772058 -373.772169 
L 349.76876 -375.011262 
L 353.765451 -372.478515 
L 357.762141 -372.448826 
L 361.758843 -375.138998 
L 365.755534 -373.628593 
L 369.752224 -377.254967 
L 373.748914 -372.556623 
L 377.745605 -374.469835 
L 381.742319 -376.007495 
L 385.739009 -376.832737 
L 389.7357 -373.948777 
L 393.73239 -373.568658 
L 397.72908 -374.300389 
L 401.725771 -372.273638 
L 405.722485 -372.681527 
L 409.719175 -375.094606 
L 413.715866 -374.048861 
L 417.712556 -370.831227 
L 421.709246 -373.463937 
L 425.705937 -375.455417 
L 429.702627 -374.619958 
L 433.699341 -372.990312 
L 437.696032 -374.526864 
L 441.692722 -373.461527 
L 445.689412 -374.876823 
L 449.686103 -373.255796 
L 453.682793 -375.570164 
L 457.679507 -373.013066 
L 461.676198 -375.302291 
L 465.672888 -373.890252 
L 469.669578 -375.282526 
L 473.666269 -373.038304 
L 477.662959 -372.331109 
L 481.659673 -374.556106 
L 485.656364 -373.309222 
L 485.656364 -421.849435 
L 485.656364 -421.849435 
L 481.659673 -421.883864 
L 477.662959 -418.919915 
L 473.666269 -421.575928 
L 469.669578 -424.621264 
L 465.672888 -416.173917 
L 461.676198 -425.279531 
L 457.679507 -419.926069 
L 453.682793 -420.020232 
L 449.686103 -423.076824 
L 445.689412 -424.701934 
L 441.692722 -423.622326 
L 437.696032 -421.454177 
L 433.699341 -421.60965 
L 429.702627 -420.758094 
L 425.705937 -424.925675 
L 421.709246 -420.967713 
L 417.712556 -414.423215 
L 413.715866 -425.615183 
L 409.719175 -426.359784 
L 405.722485 -425.064197 
L 401.725771 -422.346836 
L 397.72908 -418.104933 
L 393.73239 -421.027373 
L 389.7357 -426.746415 
L 385.739009 -426.374503 
L 381.742319 -430.057312 
L 377.745605 -421.630689 
L 373.748914 -421.829242 
L 369.752224 -426.539756 
L 365.755534 -424.92637 
L 361.758843 -425.996318 
L 357.762141 -430.801831 
L 353.765451 -415.686632 
L 349.76876 -425.77641 
L 345.772058 -421.56118 
L 341.775368 -426.51097 
L 337.778677 -422.582918 
L 333.781975 -422.267719 
L 329.785285 -424.96196 
L 325.788594 -420.600536 
L 321.791892 -424.506922 
L 317.795202 -433.975839 
L 313.798511 -432.653973 
L 309.801809 -422.295679 
L 305.805119 -438.908454 
L 301.808428 -433.934522 
L 297.811726 -427.48015 
L 293.815036 -435.381333 
L 289.818345 -434.893283 
L 285.821643 -430.412599 
L 281.824953 -419.559108 
L 277.828262 -430.444002 
L 273.83156 -423.595761 
L 269.83487 -439.131206 
L 265.838179 -428.527559 
L 261.841483 -427.495007 
L 257.844787 -428.062471 
L 253.848096 -423.510558 
L 249.8514 -422.182625 
L 245.854704 -422.201 
L 241.858013 -420.892165 
L 237.861317 -423.151819 
L 233.864626 -423.31242 
L 229.86793 -425.526426 
L 225.871234 -423.321004 
L 221.874543 -426.321345 
L 217.877847 -422.729716 
L 213.881154 -429.206381 
L 209.884457 -430.872226 
L 205.887764 -430.364387 
L 201.891071 -426.472002 
L 197.894377 -430.233522 
L 193.897681 -427.905737 
L 189.900988 -424.069733 
L 185.904294 -431.419565 
L 181.9076 -426.328547 
L 177.910906 -429.698208 
L 173.914211 -427.931489 
L 169.917517 -433.739421 
L 165.920823 -426.573449 
L 161.924129 -426.849133 
L 157.927434 -426.3076 
L 153.93074 -431.116736 
L 149.934045 -426.865458 
L 145.937352 -429.785912 
L 141.940659 -425.993767 
L 137.943962 -423.924746 
L 133.947269 -431.326241 
L 129.950576 -427.7818 
L 125.953882 -428.049836 
L 121.957186 -430.647982 
L 117.960493 -425.968813 
L 113.963796 -434.978961 
L 109.967106 -424.125212 
L 105.97041 -425.119936 
L 101.973713 -422.537021 
L 97.977023 -424.493061 
L 93.980327 -424.186725 
L 89.983636 -422.718662 
z
"/>
    </defs>
    <g clip-path="url(#p9a9d22765a)">
     <use xlink:href="#m57e6421dc6" x="0" y="561.6" style="fill: #1f77b4; fill-opacity: 0.15"/>
    </g>
   </g>
   <g id="FillBetweenPolyCollection_2">
    <defs>
     <path id="m3fe2bd1918" d="M 89.983636 -418.888762 
L 89.983636 -374.555149 
L 93.980327 -373.682489 
L 97.977023 -374.880092 
L 101.973713 -376.019036 
L 105.97041 -372.529246 
L 109.967106 -372.542245 
L 113.963796 -373.423365 
L 117.960493 -372.681254 
L 121.957186 -374.325496 
L 125.953882 -375.155115 
L 129.950576 -373.110418 
L 133.947269 -374.448231 
L 137.943962 -373.639859 
L 141.940659 -372.8769 
L 145.937352 -376.727652 
L 149.934045 -374.452009 
L 153.93074 -373.398201 
L 157.927434 -372.761307 
L 161.924129 -372.846012 
L 165.920823 -374.123814 
L 169.917517 -372.045028 
L 173.914211 -373.121075 
L 177.910906 -372.530951 
L 181.9076 -373.016429 
L 185.904294 -372.714054 
L 189.900988 -371.252212 
L 193.897681 -373.791467 
L 197.894377 -372.973188 
L 201.891071 -374.032656 
L 205.887764 -372.909348 
L 209.884457 -372.691545 
L 213.881154 -372.910685 
L 217.877847 -375.078356 
L 221.874543 -373.10387 
L 225.871234 -373.827408 
L 229.86793 -374.330497 
L 233.864626 -374.895786 
L 237.861317 -376.553948 
L 241.858013 -372.833873 
L 245.854704 -373.010278 
L 249.8514 -374.289948 
L 253.848096 -374.414314 
L 257.844787 -373.778477 
L 261.841483 -372.037664 
L 265.838179 -374.443596 
L 269.83487 -373.235506 
L 273.83156 -373.360683 
L 277.828262 -373.427251 
L 281.824953 -373.346685 
L 285.821643 -376.3308 
L 289.818345 -374.796394 
L 293.815036 -377.845807 
L 297.811726 -378.525529 
L 301.808428 -377.816602 
L 305.805119 -375.054989 
L 309.801809 -374.917087 
L 313.798511 -375.960563 
L 317.795202 -377.035679 
L 321.791892 -374.33251 
L 325.788594 -374.933831 
L 329.785285 -376.900327 
L 333.781975 -373.061631 
L 337.778677 -374.782226 
L 341.775368 -374.82484 
L 345.772058 -372.494895 
L 349.76876 -374.836431 
L 353.765451 -374.994478 
L 357.762141 -376.29077 
L 361.758843 -373.837263 
L 365.755534 -378.448016 
L 369.752224 -375.767285 
L 373.748914 -376.864272 
L 377.745605 -376.178342 
L 381.742319 -375.199685 
L 385.739009 -376.047195 
L 389.7357 -375.645783 
L 393.73239 -372.78275 
L 397.72908 -373.297089 
L 401.725771 -373.592347 
L 405.722485 -375.1162 
L 409.719175 -375.652069 
L 413.715866 -376.713263 
L 417.712556 -376.534875 
L 421.709246 -373.348283 
L 425.705937 -375.963899 
L 429.702627 -376.003908 
L 433.699341 -375.266949 
L 437.696032 -375.73293 
L 441.692722 -375.774219 
L 445.689412 -373.399211 
L 449.686103 -377.276028 
L 453.682793 -379.883612 
L 457.679507 -373.793138 
L 461.676198 -374.550438 
L 465.672888 -375.402913 
L 469.669578 -376.68502 
L 473.666269 -376.028495 
L 477.662959 -376.564176 
L 481.659673 -376.942117 
L 485.656364 -374.565079 
L 485.656364 -434.44244 
L 485.656364 -434.44244 
L 481.659673 -425.812479 
L 477.662959 -431.487724 
L 473.666269 -430.87592 
L 469.669578 -436.880273 
L 465.672888 -429.058344 
L 461.676198 -425.412574 
L 457.679507 -429.426861 
L 453.682793 -440.317604 
L 449.686103 -431.265533 
L 445.689412 -422.041189 
L 441.692722 -429.726916 
L 437.696032 -424.833076 
L 433.699341 -426.286053 
L 429.702627 -430.341555 
L 425.705937 -430.251706 
L 421.709246 -435.372466 
L 417.712556 -429.465256 
L 413.715866 -427.923752 
L 409.719175 -429.937417 
L 405.722485 -427.508262 
L 401.725771 -425.664505 
L 397.72908 -425.346129 
L 393.73239 -424.048592 
L 389.7357 -427.362243 
L 385.739009 -427.867496 
L 381.742319 -431.508799 
L 377.745605 -427.734633 
L 373.748914 -433.080781 
L 369.752224 -428.853871 
L 365.755534 -440.499513 
L 361.758843 -421.219555 
L 357.762141 -425.87877 
L 353.765451 -432.79802 
L 349.76876 -432.277032 
L 345.772058 -423.650703 
L 341.775368 -426.566162 
L 337.778677 -423.9148 
L 333.781975 -426.041031 
L 329.785285 -427.852328 
L 325.788594 -428.587829 
L 321.791892 -436.163662 
L 317.795202 -427.14437 
L 313.798511 -429.417887 
L 309.801809 -428.213295 
L 305.805119 -425.33658 
L 301.808428 -434.401372 
L 297.811726 -429.410732 
L 293.815036 -437.616621 
L 289.818345 -422.92609 
L 285.821643 -428.874331 
L 281.824953 -427.905239 
L 277.828262 -424.897735 
L 273.83156 -423.100897 
L 269.83487 -425.301673 
L 265.838179 -424.177065 
L 261.841483 -428.046736 
L 257.844787 -421.799585 
L 253.848096 -419.685343 
L 249.8514 -421.301696 
L 245.854704 -423.627017 
L 241.858013 -417.20143 
L 237.861317 -426.777704 
L 233.864626 -423.678049 
L 229.86793 -422.962745 
L 225.871234 -418.85796 
L 221.874543 -423.03294 
L 217.877847 -428.1527 
L 213.881154 -419.424917 
L 209.884457 -415.159936 
L 205.887764 -415.853394 
L 201.891071 -416.303639 
L 197.894377 -420.448394 
L 193.897681 -420.634493 
L 189.900988 -423.167052 
L 185.904294 -422.305855 
L 181.9076 -418.84383 
L 177.910906 -417.269134 
L 173.914211 -419.878423 
L 169.917517 -416.209379 
L 165.920823 -419.807424 
L 161.924129 -419.507593 
L 157.927434 -418.290459 
L 153.93074 -424.069508 
L 149.934045 -422.376093 
L 145.937352 -428.036476 
L 141.940659 -421.042743 
L 137.943962 -422.920679 
L 133.947269 -429.216919 
L 129.950576 -422.661193 
L 125.953882 -425.453535 
L 121.957186 -419.214414 
L 117.960493 -415.465313 
L 113.963796 -418.677405 
L 109.967106 -419.789273 
L 105.97041 -421.592328 
L 101.973713 -424.518967 
L 97.977023 -421.399641 
L 93.980327 -423.07596 
L 89.983636 -418.888762 
z
"/>
    </defs>
    <g clip-path="url(#p9a9d22765a)">
     <use xlink:href="#m3fe2bd1918" x="0" y="561.6" style="fill: #ff7f0e; fill-opacity: 0.15"/>
    </g>
   </g>
   <g id="matplotlib.axis_1">
    <g id="xtick_1">
     <g id="line2d_1">
      <defs>
       <path id="ma9d70d968f" d="M 0 0 
L 0 3.5 
" style="stroke: #000000; stroke-width: 0.8"/>
      </defs>
      <g>
       <use xlink:href="#ma9d70d968f" x="87.985286" y="206.388" style="stroke: #000000; stroke-width: 0.8"/>
      </g>
     </g>
     <g id="text_1">
      <!-- −200 -->
      <g transform="translate(74.251693 220.986437) scale(0.1 -0.1)">
       <defs>
        <path id="DejaVuSans-2212" d="M 678 2272 
L 4684 2272 
L 4684 1741 
L 678 1741 
L 678 2272 
z
" transform="scale(0.015625)"/>
        <path id="DejaVuSans-32" d="M 1228 531 
L 3431 531 
L 3431 0 
L 469 0 
L 469 531 
Q 828 903 1448 1529 
Q 2069 2156 2228 2338 
Q 2531 2678 2651 2914 
Q 2772 3150 2772 3378 
Q 2772 3750 2511 3984 
Q 2250 4219 1831 4219 
Q 1534 4219 1204 4116 
Q 875 4013 500 3803 
L 500 4441 
Q 881 4594 1212 4672 
Q 1544 4750 1819 4750 
Q 2544 4750 2975 4387 
Q 3406 4025 3406 3419 
Q 3406 3131 3298 2873 
Q 3191 2616 2906 2266 
Q 2828 2175 2409 1742 
Q 1991 1309 1228 531 
z
" transform="scale(0.015625)"/>
        <path id="DejaVuSans-30" d="M 2034 4250 
Q 1547 4250 1301 3770 
Q 1056 3291 1056 2328 
Q 1056 1369 1301 889 
Q 1547 409 2034 409 
Q 2525 409 2770 889 
Q 3016 1369 3016 2328 
Q 3016 3291 2770 3770 
Q 2525 4250 2034 4250 
z
M 2034 4750 
Q 2819 4750 3233 4129 
Q 3647 3509 3647 2328 
Q 3647 1150 3233 529 
Q 2819 -91 2034 -91 
Q 1250 -91 836 529 
Q 422 1150 422 2328 
Q 422 3509 836 4129 
Q 1250 4750 2034 4750 
z
" transform="scale(0.015625)"/>
       </defs>
       <use xlink:href="#DejaVuSans-2212"/>
       <use xlink:href="#DejaVuSans-32" transform="translate(83.789062 0)"/>
       <use xlink:href="#DejaVuSans-30" transform="translate(147.412109 0)"/>
       <use xlink:href="#DejaVuSans-30" transform="translate(211.035156 0)"/>
      </g>
     </g>
    </g>
    <g id="xtick_2">
     <g id="line2d_2">
      <g>
       <use xlink:href="#ma9d70d968f" x="167.91917" y="206.388" style="stroke: #000000; stroke-width: 0.8"/>
      </g>
     </g>
     <g id="text_2">
      <!-- 0 -->
      <g transform="translate(164.73792 220.986437) scale(0.1 -0.1)">
       <use xlink:href="#DejaVuSans-30"/>
      </g>
     </g>
    </g>
    <g id="xtick_3">
     <g id="line2d_3">
      <g>
       <use xlink:href="#ma9d70d968f" x="247.853053" y="206.388" style="stroke: #000000; stroke-width: 0.8"/>
      </g>
     </g>
     <g id="text_3">
      <!-- 200 -->
      <g transform="translate(238.309303 220.986437) scale(0.1 -0.1)">
       <use xlink:href="#DejaVuSans-32"/>
       <use xlink:href="#DejaVuSans-30" transform="translate(63.623047 0)"/>
       <use xlink:href="#DejaVuSans-30" transform="translate(127.246094 0)"/>
      </g>
     </g>
    </g>
    <g id="xtick_4">
     <g id="line2d_4">
      <g>
       <use xlink:href="#ma9d70d968f" x="327.786937" y="206.388" style="stroke: #000000; stroke-width: 0.8"/>
      </g>
     </g>
     <g id="text_4">
      <!-- 400 -->
      <g transform="translate(318.243187 220.986437) scale(0.1 -0.1)">
       <defs>
        <path id="DejaVuSans-34" d="M 2419 4116 
L 825 1625 
L 2419 1625 
L 2419 4116 
z
M 2253 4666 
L 3047 4666 
L 3047 1625 
L 3713 1625 
L 3713 1100 
L 3047 1100 
L 3047 0 
L 2419 0 
L 2419 1100 
L 313 1100 
L 313 1709 
L 2253 4666 
z
" transform="scale(0.015625)"/>
       </defs>
       <use xlink:href="#DejaVuSans-34"/>
       <use xlink:href="#DejaVuSans-30" transform="translate(63.623047 0)"/>
       <use xlink:href="#DejaVuSans-30" transform="translate(127.246094 0)"/>
      </g>
     </g>
    </g>
    <g id="xtick_5">
     <g id="line2d_5">
      <g>
       <use xlink:href="#ma9d70d968f" x="407.720821" y="206.388" style="stroke: #000000; stroke-width: 0.8"/>
      </g>
     </g>
     <g id="text_5">
      <!-- 600 -->
      <g transform="translate(398.177071 220.986437) scale(0.1 -0.1)">
       <defs>
        <path id="DejaVuSans-36" d="M 2113 2584 
Q 1688 2584 1439 2293 
Q 1191 2003 1191 1497 
Q 1191 994 1439 701 
Q 1688 409 2113 409 
Q 2538 409 2786 701 
Q 3034 994 3034 1497 
Q 3034 2003 2786 2293 
Q 2538 2584 2113 2584 
z
M 3366 4563 
L 3366 3988 
Q 3128 4100 2886 4159 
Q 2644 4219 2406 4219 
Q 1781 4219 1451 3797 
Q 1122 3375 1075 2522 
Q 1259 2794 1537 2939 
Q 1816 3084 2150 3084 
Q 2853 3084 3261 2657 
Q 3669 2231 3669 1497 
Q 3669 778 3244 343 
Q 2819 -91 2113 -91 
Q 1303 -91 875 529 
Q 447 1150 447 2328 
Q 447 3434 972 4092 
Q 1497 4750 2381 4750 
Q 2619 4750 2861 4703 
Q 3103 4656 3366 4563 
z
" transform="scale(0.015625)"/>
       </defs>
       <use xlink:href="#DejaVuSans-36"/>
       <use xlink:href="#DejaVuSans-30" transform="translate(63.623047 0)"/>
       <use xlink:href="#DejaVuSans-30" transform="translate(127.246094 0)"/>
      </g>
     </g>
    </g>
    <g id="xtick_6">
     <g id="line2d_6">
      <g>
       <use xlink:href="#ma9d70d968f" x="487.654704" y="206.388" style="stroke: #000000; stroke-width: 0.8"/>
      </g>
     </g>
     <g id="text_6">
      <!-- 800 -->
      <g transform="translate(478.110954 220.986437) scale(0.1 -0.1)">
       <defs>
        <path id="DejaVuSans-38" d="M 2034 2216 
Q 1584 2216 1326 1975 
Q 1069 1734 1069 1313 
Q 1069 891 1326 650 
Q 1584 409 2034 409 
Q 2484 409 2743 651 
Q 3003 894 3003 1313 
Q 3003 1734 2745 1975 
Q 2488 2216 2034 2216 
z
M 1403 2484 
Q 997 2584 770 2862 
Q 544 3141 544 3541 
Q 544 4100 942 4425 
Q 1341 4750 2034 4750 
Q 2731 4750 3128 4425 
Q 3525 4100 3525 3541 
Q 3525 3141 3298 2862 
Q 3072 2584 2669 2484 
Q 3125 2378 3379 2068 
Q 3634 1759 3634 1313 
Q 3634 634 3220 271 
Q 2806 -91 2034 -91 
Q 1263 -91 848 271 
Q 434 634 434 1313 
Q 434 1759 690 2068 
Q 947 2378 1403 2484 
z
M 1172 3481 
Q 1172 3119 1398 2916 
Q 1625 2713 2034 2713 
Q 2441 2713 2670 2916 
Q 2900 3119 2900 3481 
Q 2900 3844 2670 4047 
Q 2441 4250 2034 4250 
Q 1625 4250 1398 4047 
Q 1172 3844 1172 3481 
z
" transform="scale(0.015625)"/>
       </defs>
       <use xlink:href="#DejaVuSans-38"/>
       <use xlink:href="#DejaVuSans-30" transform="translate(63.623047 0)"/>
       <use xlink:href="#DejaVuSans-30" transform="translate(127.246094 0)"/>
      </g>
     </g>
    </g>
   </g>
   <g id="matplotlib.axis_2">
    <g id="ytick_1">
     <g id="line2d_7">
      <defs>
       <path id="m797d3dcc63" d="M 0 0 
L -3.5 0 
" style="stroke: #000000; stroke-width: 0.8"/>
      </defs>
      <g>
       <use xlink:href="#m797d3dcc63" x="70.2" y="201.584102" style="stroke: #000000; stroke-width: 0.8"/>
      </g>
     </g>
     <g id="text_7">
      <!-- 0 -->
      <g transform="translate(56.8375 205.383321) scale(0.1 -0.1)">
       <use xlink:href="#DejaVuSans-30"/>
      </g>
     </g>
    </g>
    <g id="ytick_2">
     <g id="line2d_8">
      <g>
       <use xlink:href="#m797d3dcc63" x="70.2" y="177.494384" style="stroke: #000000; stroke-width: 0.8"/>
      </g>
     </g>
     <g id="text_8">
      <!-- 2 -->
      <g transform="translate(56.8375 181.293602) scale(0.1 -0.1)">
       <use xlink:href="#DejaVuSans-32"/>
      </g>
     </g>
    </g>
    <g id="ytick_3">
     <g id="line2d_9">
      <g>
       <use xlink:href="#m797d3dcc63" x="70.2" y="153.404665" style="stroke: #000000; stroke-width: 0.8"/>
      </g>
     </g>
     <g id="text_9">
      <!-- 4 -->
      <g transform="translate(56.8375 157.203884) scale(0.1 -0.1)">
       <use xlink:href="#DejaVuSans-34"/>
      </g>
     </g>
    </g>
    <g id="ytick_4">
     <g id="line2d_10">
      <g>
       <use xlink:href="#m797d3dcc63" x="70.2" y="129.314946" style="stroke: #000000; stroke-width: 0.8"/>
      </g>
     </g>
     <g id="text_10">
      <!-- 6 -->
      <g transform="translate(56.8375 133.114165) scale(0.1 -0.1)">
       <use xlink:href="#DejaVuSans-36"/>
      </g>
     </g>
    </g>
    <g id="ytick_5">
     <g id="line2d_11">
      <g>
       <use xlink:href="#m797d3dcc63" x="70.2" y="105.225228" style="stroke: #000000; stroke-width: 0.8"/>
      </g>
     </g>
     <g id="text_11">
      <!-- 8 -->
      <g transform="translate(56.8375 109.024447) scale(0.1 -0.1)">
       <use xlink:href="#DejaVuSans-38"/>
      </g>
     </g>
    </g>
    <g id="ytick_6">
     <g id="line2d_12">
      <g>
       <use xlink:href="#m797d3dcc63" x="70.2" y="81.135509" style="stroke: #000000; stroke-width: 0.8"/>
      </g>
     </g>
     <g id="text_12">
      <!-- 10 -->
      <g transform="translate(50.475 84.934728) scale(0.1 -0.1)">
       <defs>
        <path id="DejaVuSans-31" d="M 794 531 
L 1825 531 
L 1825 4091 
L 703 3866 
L 703 4441 
L 1819 4666 
L 2450 4666 
L 2450 531 
L 3481 531 
L 3481 0 
L 794 0 
L 794 531 
z
" transform="scale(0.015625)"/>
       </defs>
       <use xlink:href="#DejaVuSans-31"/>
       <use xlink:href="#DejaVuSans-30" transform="translate(63.623047 0)"/>
      </g>
     </g>
    </g>
    <g id="text_13">
     <!-- ΔLL (bits) -->
     <g transform="translate(44.395313 160.500937) rotate(-90) scale(0.1 -0.1)">
      <defs>
       <path id="DejaVuSans-394" d="M 2188 4044 
L 906 525 
L 3472 525 
L 2188 4044 
z
M 50 0 
L 1831 4666 
L 2547 4666 
L 4325 0 
L 50 0 
z
" transform="scale(0.015625)"/>
       <path id="DejaVuSans-4c" d="M 628 4666 
L 1259 4666 
L 1259 531 
L 3531 531 
L 3531 0 
L 628 0 
L 628 4666 
z
" transform="scale(0.015625)"/>
       <path id="DejaVuSans-20" transform="scale(0.015625)"/>
       <path id="DejaVuSans-28" d="M 1984 4856 
Q 1566 4138 1362 3434 
Q 1159 2731 1159 2009 
Q 1159 1288 1364 580 
Q 1569 -128 1984 -844 
L 1484 -844 
Q 1016 -109 783 600 
Q 550 1309 550 2009 
Q 550 2706 781 3412 
Q 1013 4119 1484 4856 
L 1984 4856 
z
" transform="scale(0.015625)"/>
       <path id="DejaVuSans-62" d="M 3116 1747 
Q 3116 2381 2855 2742 
Q 2594 3103 2138 3103 
Q 1681 3103 1420 2742 
Q 1159 2381 1159 1747 
Q 1159 1113 1420 752 
Q 1681 391 2138 391 
Q 2594 391 2855 752 
Q 3116 1113 3116 1747 
z
M 1159 2969 
Q 1341 3281 1617 3432 
Q 1894 3584 2278 3584 
Q 2916 3584 3314 3078 
Q 3713 2572 3713 1747 
Q 3713 922 3314 415 
Q 2916 -91 2278 -91 
Q 1894 -91 1617 61 
Q 1341 213 1159 525 
L 1159 0 
L 581 0 
L 581 4863 
L 1159 4863 
L 1159 2969 
z
" transform="scale(0.015625)"/>
       <path id="DejaVuSans-69" d="M 603 3500 
L 1178 3500 
L 1178 0 
L 603 0 
L 603 3500 
z
M 603 4863 
L 1178 4863 
L 1178 4134 
L 603 4134 
L 603 4863 
z
" transform="scale(0.015625)"/>
       <path id="DejaVuSans-74" d="M 1172 4494 
L 1172 3500 
L 2356 3500 
L 2356 3053 
L 1172 3053 
L 1172 1153 
Q 1172 725 1289 603 
Q 1406 481 1766 481 
L 2356 481 
L 2356 0 
L 1766 0 
Q 1100 0 847 248 
Q 594 497 594 1153 
L 594 3053 
L 172 3053 
L 172 3500 
L 594 3500 
L 594 4494 
L 1172 4494 
z
" transform="scale(0.015625)"/>
       <path id="DejaVuSans-73" d="M 2834 3397 
L 2834 2853 
Q 2591 2978 2328 3040 
Q 2066 3103 1784 3103 
Q 1356 3103 1142 2972 
Q 928 2841 928 2578 
Q 928 2378 1081 2264 
Q 1234 2150 1697 2047 
L 1894 2003 
Q 2506 1872 2764 1633 
Q 3022 1394 3022 966 
Q 3022 478 2636 193 
Q 2250 -91 1575 -91 
Q 1294 -91 989 -36 
Q 684 19 347 128 
L 347 722 
Q 666 556 975 473 
Q 1284 391 1588 391 
Q 1994 391 2212 530 
Q 2431 669 2431 922 
Q 2431 1156 2273 1281 
Q 2116 1406 1581 1522 
L 1381 1569 
Q 847 1681 609 1914 
Q 372 2147 372 2553 
Q 372 3047 722 3315 
Q 1072 3584 1716 3584 
Q 2034 3584 2315 3537 
Q 2597 3491 2834 3397 
z
" transform="scale(0.015625)"/>
       <path id="DejaVuSans-29" d="M 513 4856 
L 1013 4856 
Q 1481 4119 1714 3412 
Q 1947 2706 1947 2009 
Q 1947 1309 1714 600 
Q 1481 -109 1013 -844 
L 513 -844 
Q 928 -128 1133 580 
Q 1338 1288 1338 2009 
Q 1338 2731 1133 3434 
Q 928 4138 513 4856 
z
" transform="scale(0.015625)"/>
      </defs>
      <use xlink:href="#DejaVuSans-394"/>
      <use xlink:href="#DejaVuSans-4c" transform="translate(68.408203 0)"/>
      <use xlink:href="#DejaVuSans-4c" transform="translate(124.121094 0)"/>
      <use xlink:href="#DejaVuSans-20" transform="translate(179.833984 0)"/>
      <use xlink:href="#DejaVuSans-28" transform="translate(211.621094 0)"/>
      <use xlink:href="#DejaVuSans-62" transform="translate(250.634766 0)"/>
      <use xlink:href="#DejaVuSans-69" transform="translate(314.111328 0)"/>
      <use xlink:href="#DejaVuSans-74" transform="translate(341.894531 0)"/>
      <use xlink:href="#DejaVuSans-73" transform="translate(381.103516 0)"/>
      <use xlink:href="#DejaVuSans-29" transform="translate(433.203125 0)"/>
     </g>
    </g>
   </g>
   <g id="line2d_13">
    <path d="M 167.91917 206.388 
L 167.91917 67.392 
" clip-path="url(#p9a9d22765a)" style="fill: none; stroke-dasharray: 2.96,1.28; stroke-dashoffset: 0; stroke: #000000; stroke-width: 0.8"/>
   </g>
   <g id="line2d_14">
    <path d="M 89.983636 162.574853 
L 93.980327 162.339922 
L 97.977023 161.58647 
L 101.973713 163.266049 
L 105.97041 162.525973 
L 109.967106 161.952529 
L 113.963796 156.204133 
L 117.960493 161.06232 
L 121.957186 158.483646 
L 125.953882 160.463595 
L 129.950576 160.17492 
L 133.947269 158.353355 
L 137.943962 162.284028 
L 141.940659 160.168096 
L 145.937352 158.321745 
L 149.934045 160.605821 
L 153.93074 157.957203 
L 157.927434 162.88805 
L 161.924129 160.533634 
L 165.920823 161.139427 
L 169.917517 155.582308 
L 173.914211 160.490922 
L 177.910906 159.4146 
L 181.9076 162.246213 
L 185.904294 157.189868 
L 189.900988 163.215426 
L 193.897681 160.805215 
L 197.894377 158.864969 
L 201.891071 160.57566 
L 205.887764 160.212089 
L 209.884457 158.409868 
L 213.881154 160.004912 
L 217.877847 162.985856 
L 221.874543 160.262242 
L 225.871234 162.959026 
L 229.86793 161.155624 
L 233.864626 163.046218 
L 237.861317 162.574061 
L 241.858013 163.219692 
L 245.854704 163.206657 
L 249.8514 163.950287 
L 253.848096 162.926827 
L 257.844787 159.344306 
L 261.841483 160.26594 
L 265.838179 159.324829 
L 269.83487 151.717369 
L 273.83156 161.974135 
L 277.828262 158.410261 
L 281.824953 165.273797 
L 285.821643 157.134097 
L 289.818345 154.500519 
L 293.815036 153.197081 
L 297.811726 160.102699 
L 301.808428 156.49281 
L 305.805119 152.762505 
L 309.801809 163.178609 
L 313.798511 157.248617 
L 317.795202 156.612059 
L 321.791892 162.246931 
L 325.788594 164.61533 
L 329.785285 161.491679 
L 333.781975 163.149452 
L 337.778677 162.919001 
L 341.775368 161.334997 
L 345.772058 163.933325 
L 349.76876 161.206164 
L 353.765451 167.517426 
L 357.762141 159.974672 
L 361.758843 161.032342 
L 365.755534 162.322518 
L 369.752224 159.702638 
L 373.748914 164.407067 
L 377.745605 163.549738 
L 381.742319 158.567596 
L 385.739009 159.99638 
L 389.7357 161.252404 
L 393.73239 164.301984 
L 397.72908 165.397339 
L 401.725771 164.289763 
L 405.722485 162.727138 
L 409.719175 160.872805 
L 413.715866 161.767978 
L 417.712556 168.972779 
L 421.709246 164.384175 
L 425.705937 161.409454 
L 429.702627 163.910974 
L 433.699341 164.300019 
L 437.696032 163.60948 
L 441.692722 163.058073 
L 445.689412 161.810621 
L 449.686103 163.43369 
L 453.682793 163.804802 
L 457.679507 165.130432 
L 461.676198 161.309089 
L 465.672888 166.567915 
L 469.669578 161.648105 
L 473.666269 164.292884 
L 477.662959 165.974488 
L 481.659673 163.380015 
L 485.656364 164.020672 
" clip-path="url(#p9a9d22765a)" style="fill: none; stroke-dasharray: 1,1.65; stroke-dashoffset: 0; stroke: #1f77b4"/>
   </g>
   <g id="line2d_15">
    <path d="M 89.983636 164.878044 
L 93.980327 163.220775 
L 97.977023 163.460133 
L 101.973713 161.330999 
L 105.97041 164.539213 
L 109.967106 165.434241 
L 113.963796 165.549615 
L 117.960493 167.526716 
L 121.957186 164.830045 
L 125.953882 161.295675 
L 129.950576 163.714194 
L 133.947269 159.767425 
L 137.943962 163.319731 
L 141.940659 164.640178 
L 145.937352 159.217936 
L 149.934045 163.185949 
L 153.93074 162.866146 
L 157.927434 166.074117 
L 161.924129 165.423197 
L 165.920823 164.634381 
L 169.917517 167.472797 
L 173.914211 165.100251 
L 177.910906 166.699958 
L 181.9076 165.66987 
L 185.904294 164.090046 
L 189.900988 164.390368 
L 193.897681 164.38702 
L 197.894377 164.889209 
L 201.891071 166.431852 
L 205.887764 167.218629 
L 209.884457 167.67426 
L 213.881154 165.432199 
L 217.877847 159.984472 
L 221.874543 163.531595 
L 225.871234 165.257316 
L 229.86793 162.953379 
L 233.864626 162.313083 
L 237.861317 159.934174 
L 241.858013 166.582349 
L 245.854704 163.281352 
L 249.8514 163.804178 
L 253.848096 164.550172 
L 257.844787 163.810969 
L 261.841483 161.5578 
L 265.838179 162.28967 
L 269.83487 162.33141 
L 273.83156 163.36921 
L 277.828262 162.437507 
L 281.824953 160.974038 
L 285.821643 158.997435 
L 289.818345 162.738758 
L 293.815036 153.868786 
L 297.811726 157.63187 
L 301.808428 155.491013 
L 305.805119 161.404215 
L 309.801809 160.034809 
L 313.798511 158.910775 
L 317.795202 159.509975 
L 321.791892 156.351914 
L 325.788594 159.83917 
L 329.785285 159.223673 
L 333.781975 162.048669 
L 337.778677 162.251487 
L 341.775368 160.904499 
L 345.772058 163.527201 
L 349.76876 158.043269 
L 353.765451 157.703751 
L 357.762141 160.51523 
L 361.758843 164.071591 
L 365.755534 152.126236 
L 369.752224 159.289422 
L 373.748914 156.627473 
L 377.745605 159.643512 
L 381.742319 158.245758 
L 385.739009 159.642654 
L 389.7357 160.095987 
L 393.73239 163.184329 
L 397.72908 162.278391 
L 401.725771 161.971574 
L 405.722485 160.287769 
L 409.719175 158.805257 
L 413.715866 159.281493 
L 417.712556 158.599935 
L 421.709246 157.239625 
L 425.705937 158.492197 
L 429.702627 158.427269 
L 433.699341 160.823499 
L 437.696032 161.316997 
L 441.692722 158.849433 
L 445.689412 163.8798 
L 449.686103 157.32922 
L 453.682793 151.499392 
L 457.679507 159.990001 
L 461.676198 161.618494 
L 465.672888 159.369371 
L 469.669578 154.817354 
L 473.666269 158.147792 
L 477.662959 157.57405 
L 481.659673 160.222702 
L 485.656364 157.096241 
" clip-path="url(#p9a9d22765a)" style="fill: none; stroke-dasharray: 1,1.65; stroke-dashoffset: 0; stroke: #ff7f0e"/>
   </g>
   <g id="line2d_16">
    <path d="M 89.983636 183.242617 
L 93.980327 192.269284 
L 97.977023 181.075631 
L 101.973713 168.545425 
L 105.97041 173.128476 
L 109.967106 165.675437 
L 113.963796 194.490288 
L 117.960493 133.15197 
L 121.957186 179.944507 
L 125.953882 163.46535 
L 129.950576 194.493013 
L 133.947269 112.524736 
L 137.943962 175.644289 
L 141.940659 172.376239 
L 145.937352 119.796807 
L 149.934045 99.985543 
L 153.93074 142.550624 
L 157.927434 184.402227 
L 161.924129 173.639011 
L 165.920823 145.918426 
L 169.917517 189.150173 
L 173.914211 94.746588 
L 177.910906 165.629766 
L 181.9076 155.930312 
L 185.904294 143.159148 
L 189.900988 98.887343 
L 193.897681 164.669135 
L 197.894377 170.846686 
L 201.891071 171.854545 
L 205.887764 128.678086 
L 209.884457 101.037668 
L 213.881154 169.213832 
L 217.877847 127.685839 
L 221.874543 149.286782 
L 225.871234 161.902785 
L 229.86793 174.156364 
L 233.864626 162.37028 
L 237.861317 182.757136 
L 241.858013 174.688165 
L 245.854704 189.696421 
L 249.8514 189.754998 
L 253.848096 173.558212 
L 257.844787 125.470482 
L 261.841483 131.774309 
L 265.838179 184.343496 
L 269.83487 140.840852 
L 273.83156 139.180292 
L 277.828262 184.042461 
L 281.824953 178.850739 
L 285.821643 175.28945 
L 289.818345 119.51476 
L 293.815036 165.847985 
L 297.811726 189.789881 
L 301.808428 137.700079 
L 305.805119 150.038343 
L 309.801809 106.578914 
L 313.798511 92.798542 
L 317.795202 98.827896 
L 321.791892 150.914584 
L 325.788594 160.402129 
L 329.785285 134.891019 
L 333.781975 153.600309 
L 337.778677 135.938634 
L 341.775368 145.307537 
L 345.772058 177.623835 
L 349.76876 184.364363 
L 353.765451 186.867997 
L 357.762141 183.298331 
L 361.758843 154.594264 
L 365.755534 189.110629 
L 369.752224 192.246851 
L 373.748914 158.690518 
L 377.745605 161.338007 
L 381.742319 143.041115 
L 385.739009 172.519307 
L 389.7357 142.41236 
L 393.73239 126.061951 
L 397.72908 146.387205 
L 401.725771 179.297426 
L 405.722485 158.149382 
L 409.719175 168.209911 
L 413.715866 105.462124 
L 417.712556 134.685068 
L 421.709246 162.689056 
L 425.705937 175.588334 
L 429.702627 142.454714 
L 433.699341 116.671111 
L 437.696032 143.49674 
L 441.692722 138.542326 
L 445.689412 181.072336 
L 449.686103 187.744676 
L 453.682793 150.93861 
L 457.679507 141.317947 
L 461.676198 93.123046 
L 465.672888 184.864907 
L 469.669578 174.954796 
L 473.666269 143.408342 
L 477.662959 174.644455 
L 481.659673 141.726891 
L 485.656364 164.391116 
" clip-path="url(#p9a9d22765a)" style="fill: none; stroke: #1f77b4; stroke-width: 2.2; stroke-linecap: square"/>
   </g>
   <g id="line2d_17">
    <path d="M 89.983636 123.240877 
L 93.980327 182.136799 
L 97.977023 185.595434 
L 101.973713 196.745586 
L 105.97041 140.690979 
L 109.967106 131.878811 
L 113.963796 188.110971 
L 117.960493 166.328822 
L 121.957186 146.92566 
L 125.953882 168.487585 
L 129.950576 194.995104 
L 133.947269 175.126674 
L 137.943962 166.418144 
L 141.940659 179.214968 
L 145.937352 186.904723 
L 149.934045 163.445947 
L 153.93074 172.732995 
L 157.927434 179.754074 
L 161.924129 132.587234 
L 165.920823 147.679936 
L 169.917517 167.26646 
L 173.914211 155.35311 
L 177.910906 178.397984 
L 181.9076 138.624927 
L 185.904294 190.635288 
L 189.900988 73.71 
L 193.897681 197.722601 
L 197.894377 135.072522 
L 201.891071 139.150267 
L 205.887764 183.313778 
L 209.884457 174.847816 
L 213.881154 117.872429 
L 217.877847 183.105163 
L 221.874543 141.647936 
L 225.871234 184.74011 
L 229.86793 200.07 
L 233.864626 128.176859 
L 237.861317 188.706957 
L 241.858013 177.143479 
L 245.854704 145.275376 
L 249.8514 155.769094 
L 253.848096 189.590856 
L 257.844787 147.821408 
L 261.841483 179.544403 
L 265.838179 186.364804 
L 269.83487 123.767892 
L 273.83156 187.805398 
L 277.828262 172.307642 
L 281.824953 188.480271 
L 285.821643 169.863928 
L 289.818345 168.610007 
L 293.815036 122.549828 
L 297.811726 189.808386 
L 301.808428 158.8338 
L 305.805119 182.211511 
L 309.801809 133.357844 
L 313.798511 166.149438 
L 317.795202 149.996726 
L 321.791892 120.00417 
L 325.788594 150.567268 
L 329.785285 166.867967 
L 333.781975 170.985152 
L 337.778677 179.678585 
L 341.775368 183.353915 
L 345.772058 175.952477 
L 349.76876 174.785092 
L 353.765451 184.257339 
L 357.762141 188.973986 
L 361.758843 160.160478 
L 365.755534 116.103295 
L 369.752224 187.214949 
L 373.748914 163.686772 
L 377.745605 101.453851 
L 381.742319 175.715736 
L 385.739009 167.173105 
L 389.7357 180.400902 
L 393.73239 135.009015 
L 397.72908 177.701023 
L 401.725771 184.299794 
L 405.722485 181.250602 
L 409.719175 164.202996 
L 413.715866 180.982202 
L 417.712556 164.384764 
L 421.709246 162.508606 
L 425.705937 175.112558 
L 429.702627 116.45696 
L 433.699341 183.171404 
L 437.696032 186.801079 
L 441.692722 179.924033 
L 445.689412 161.268219 
L 449.686103 175.142946 
L 453.682793 195.23219 
L 457.679507 174.295617 
L 461.676198 155.170123 
L 465.672888 148.141462 
L 469.669578 153.228029 
L 473.666269 178.049854 
L 477.662959 178.150856 
L 481.659673 74.277966 
L 485.656364 138.615772 
" clip-path="url(#p9a9d22765a)" style="fill: none; stroke: #ff7f0e; stroke-width: 2.2; stroke-linecap: square"/>
   </g>
   <g id="patch_3">
    <path d="M 70.2 206.388 
L 70.2 67.392 
" style="fill: none; stroke: #000000; stroke-width: 0.8; stroke-linejoin: miter; stroke-linecap: square"/>
   </g>
   <g id="patch_4">
    <path d="M 505.44 206.388 
L 505.44 67.392 
" style="fill: none; stroke: #000000; stroke-width: 0.8; stroke-linejoin: miter; stroke-linecap: square"/>
   </g>
   <g id="patch_5">
    <path d="M 70.2 206.388 
L 505.44 206.388 
" style="fill: none; stroke: #000000; stroke-width: 0.8; stroke-linejoin: miter; stroke-linecap: square"/>
   </g>
   <g id="patch_6">
    <path d="M 70.2 67.392 
L 505.44 67.392 
" style="fill: none; stroke: #000000; stroke-width: 0.8; stroke-linejoin: miter; stroke-linecap: square"/>
   </g>
   <g id="text_14">
    <!-- (SLIP vs SSC) — C-flow — Panel A: overlay + null bands -->
    <g transform="translate(121.754063 61.392) scale(0.12 -0.12)">
     <defs>
      <path id="DejaVuSans-53" d="M 3425 4513 
L 3425 3897 
Q 3066 4069 2747 4153 
Q 2428 4238 2131 4238 
Q 1616 4238 1336 4038 
Q 1056 3838 1056 3469 
Q 1056 3159 1242 3001 
Q 1428 2844 1947 2747 
L 2328 2669 
Q 3034 2534 3370 2195 
Q 3706 1856 3706 1288 
Q 3706 609 3251 259 
Q 2797 -91 1919 -91 
Q 1588 -91 1214 -16 
Q 841 59 441 206 
L 441 856 
Q 825 641 1194 531 
Q 1563 422 1919 422 
Q 2459 422 2753 634 
Q 3047 847 3047 1241 
Q 3047 1584 2836 1778 
Q 2625 1972 2144 2069 
L 1759 2144 
Q 1053 2284 737 2584 
Q 422 2884 422 3419 
Q 422 4038 858 4394 
Q 1294 4750 2059 4750 
Q 2388 4750 2728 4690 
Q 3069 4631 3425 4513 
z
" transform="scale(0.015625)"/>
      <path id="DejaVuSans-49" d="M 628 4666 
L 1259 4666 
L 1259 0 
L 628 0 
L 628 4666 
z
" transform="scale(0.015625)"/>
      <path id="DejaVuSans-50" d="M 1259 4147 
L 1259 2394 
L 2053 2394 
Q 2494 2394 2734 2622 
Q 2975 2850 2975 3272 
Q 2975 3691 2734 3919 
Q 2494 4147 2053 4147 
L 1259 4147 
z
M 628 4666 
L 2053 4666 
Q 2838 4666 3239 4311 
Q 3641 3956 3641 3272 
Q 3641 2581 3239 2228 
Q 2838 1875 2053 1875 
L 1259 1875 
L 1259 0 
L 628 0 
L 628 4666 
z
" transform="scale(0.015625)"/>
      <path id="DejaVuSans-76" d="M 191 3500 
L 800 3500 
L 1894 563 
L 2988 3500 
L 3597 3500 
L 2284 0 
L 1503 0 
L 191 3500 
z
" transform="scale(0.015625)"/>
      <path id="DejaVuSans-43" d="M 4122 4306 
L 4122 3641 
Q 3803 3938 3442 4084 
Q 3081 4231 2675 4231 
Q 1875 4231 1450 3742 
Q 1025 3253 1025 2328 
Q 1025 1406 1450 917 
Q 1875 428 2675 428 
Q 3081 428 3442 575 
Q 3803 722 4122 1019 
L 4122 359 
Q 3791 134 3420 21 
Q 3050 -91 2638 -91 
Q 1578 -91 968 557 
Q 359 1206 359 2328 
Q 359 3453 968 4101 
Q 1578 4750 2638 4750 
Q 3056 4750 3426 4639 
Q 3797 4528 4122 4306 
z
" transform="scale(0.015625)"/>
      <path id="DejaVuSans-2014" d="M 313 1978 
L 6088 1978 
L 6088 1528 
L 313 1528 
L 313 1978 
z
" transform="scale(0.015625)"/>
      <path id="DejaVuSans-2d" d="M 313 2009 
L 1997 2009 
L 1997 1497 
L 313 1497 
L 313 2009 
z
" transform="scale(0.015625)"/>
      <path id="DejaVuSans-66" d="M 2375 4863 
L 2375 4384 
L 1825 4384 
Q 1516 4384 1395 4259 
Q 1275 4134 1275 3809 
L 1275 3500 
L 2222 3500 
L 2222 3053 
L 1275 3053 
L 1275 0 
L 697 0 
L 697 3053 
L 147 3053 
L 147 3500 
L 697 3500 
L 697 3744 
Q 697 4328 969 4595 
Q 1241 4863 1831 4863 
L 2375 4863 
z
" transform="scale(0.015625)"/>
      <path id="DejaVuSans-6c" d="M 603 4863 
L 1178 4863 
L 1178 0 
L 603 0 
L 603 4863 
z
" transform="scale(0.015625)"/>
      <path id="DejaVuSans-6f" d="M 1959 3097 
Q 1497 3097 1228 2736 
Q 959 2375 959 1747 
Q 959 1119 1226 758 
Q 1494 397 1959 397 
Q 2419 397 2687 759 
Q 2956 1122 2956 1747 
Q 2956 2369 2687 2733 
Q 2419 3097 1959 3097 
z
M 1959 3584 
Q 2709 3584 3137 3096 
Q 3566 2609 3566 1747 
Q 3566 888 3137 398 
Q 2709 -91 1959 -91 
Q 1206 -91 779 398 
Q 353 888 353 1747 
Q 353 2609 779 3096 
Q 1206 3584 1959 3584 
z
" transform="scale(0.015625)"/>
      <path id="DejaVuSans-77" d="M 269 3500 
L 844 3500 
L 1563 769 
L 2278 3500 
L 2956 3500 
L 3675 769 
L 4391 3500 
L 4966 3500 
L 4050 0 
L 3372 0 
L 2619 2869 
L 1863 0 
L 1184 0 
L 269 3500 
z
" transform="scale(0.015625)"/>
      <path id="DejaVuSans-61" d="M 2194 1759 
Q 1497 1759 1228 1600 
Q 959 1441 959 1056 
Q 959 750 1161 570 
Q 1363 391 1709 391 
Q 2188 391 2477 730 
Q 2766 1069 2766 1631 
L 2766 1759 
L 2194 1759 
z
M 3341 1997 
L 3341 0 
L 2766 0 
L 2766 531 
Q 2569 213 2275 61 
Q 1981 -91 1556 -91 
Q 1019 -91 701 211 
Q 384 513 384 1019 
Q 384 1609 779 1909 
Q 1175 2209 1959 2209 
L 2766 2209 
L 2766 2266 
Q 2766 2663 2505 2880 
Q 2244 3097 1772 3097 
Q 1472 3097 1187 3025 
Q 903 2953 641 2809 
L 641 3341 
Q 956 3463 1253 3523 
Q 1550 3584 1831 3584 
Q 2591 3584 2966 3190 
Q 3341 2797 3341 1997 
z
" transform="scale(0.015625)"/>
      <path id="DejaVuSans-6e" d="M 3513 2113 
L 3513 0 
L 2938 0 
L 2938 2094 
Q 2938 2591 2744 2837 
Q 2550 3084 2163 3084 
Q 1697 3084 1428 2787 
Q 1159 2491 1159 1978 
L 1159 0 
L 581 0 
L 581 3500 
L 1159 3500 
L 1159 2956 
Q 1366 3272 1645 3428 
Q 1925 3584 2291 3584 
Q 2894 3584 3203 3211 
Q 3513 2838 3513 2113 
z
" transform="scale(0.015625)"/>
      <path id="DejaVuSans-65" d="M 3597 1894 
L 3597 1613 
L 953 1613 
Q 991 1019 1311 708 
Q 1631 397 2203 397 
Q 2534 397 2845 478 
Q 3156 559 3463 722 
L 3463 178 
Q 3153 47 2828 -22 
Q 2503 -91 2169 -91 
Q 1331 -91 842 396 
Q 353 884 353 1716 
Q 353 2575 817 3079 
Q 1281 3584 2069 3584 
Q 2775 3584 3186 3129 
Q 3597 2675 3597 1894 
z
M 3022 2063 
Q 3016 2534 2758 2815 
Q 2500 3097 2075 3097 
Q 1594 3097 1305 2825 
Q 1016 2553 972 2059 
L 3022 2063 
z
" transform="scale(0.015625)"/>
      <path id="DejaVuSans-41" d="M 2188 4044 
L 1331 1722 
L 3047 1722 
L 2188 4044 
z
M 1831 4666 
L 2547 4666 
L 4325 0 
L 3669 0 
L 3244 1197 
L 1141 1197 
L 716 0 
L 50 0 
L 1831 4666 
z
" transform="scale(0.015625)"/>
      <path id="DejaVuSans-3a" d="M 750 794 
L 1409 794 
L 1409 0 
L 750 0 
L 750 794 
z
M 750 3309 
L 1409 3309 
L 1409 2516 
L 750 2516 
L 750 3309 
z
" transform="scale(0.015625)"/>
      <path id="DejaVuSans-72" d="M 2631 2963 
Q 2534 3019 2420 3045 
Q 2306 3072 2169 3072 
Q 1681 3072 1420 2755 
Q 1159 2438 1159 1844 
L 1159 0 
L 581 0 
L 581 3500 
L 1159 3500 
L 1159 2956 
Q 1341 3275 1631 3429 
Q 1922 3584 2338 3584 
Q 2397 3584 2469 3576 
Q 2541 3569 2628 3553 
L 2631 2963 
z
" transform="scale(0.015625)"/>
      <path id="DejaVuSans-79" d="M 2059 -325 
Q 1816 -950 1584 -1140 
Q 1353 -1331 966 -1331 
L 506 -1331 
L 506 -850 
L 844 -850 
Q 1081 -850 1212 -737 
Q 1344 -625 1503 -206 
L 1606 56 
L 191 3500 
L 800 3500 
L 1894 763 
L 2988 3500 
L 3597 3500 
L 2059 -325 
z
" transform="scale(0.015625)"/>
      <path id="DejaVuSans-2b" d="M 2944 4013 
L 2944 2272 
L 4684 2272 
L 4684 1741 
L 2944 1741 
L 2944 0 
L 2419 0 
L 2419 1741 
L 678 1741 
L 678 2272 
L 2419 2272 
L 2419 4013 
L 2944 4013 
z
" transform="scale(0.015625)"/>
      <path id="DejaVuSans-75" d="M 544 1381 
L 544 3500 
L 1119 3500 
L 1119 1403 
Q 1119 906 1312 657 
Q 1506 409 1894 409 
Q 2359 409 2629 706 
Q 2900 1003 2900 1516 
L 2900 3500 
L 3475 3500 
L 3475 0 
L 2900 0 
L 2900 538 
Q 2691 219 2414 64 
Q 2138 -91 1772 -91 
Q 1169 -91 856 284 
Q 544 659 544 1381 
z
M 1991 3584 
L 1991 3584 
z
" transform="scale(0.015625)"/>
      <path id="DejaVuSans-64" d="M 2906 2969 
L 2906 4863 
L 3481 4863 
L 3481 0 
L 2906 0 
L 2906 525 
Q 2725 213 2448 61 
Q 2172 -91 1784 -91 
Q 1150 -91 751 415 
Q 353 922 353 1747 
Q 353 2572 751 3078 
Q 1150 3584 1784 3584 
Q 2172 3584 2448 3432 
Q 2725 3281 2906 2969 
z
M 947 1747 
Q 947 1113 1208 752 
Q 1469 391 1925 391 
Q 2381 391 2643 752 
Q 2906 1113 2906 1747 
Q 2906 2381 2643 2742 
Q 2381 3103 1925 3103 
Q 1469 3103 1208 2742 
Q 947 2381 947 1747 
z
" transform="scale(0.015625)"/>
     </defs>
     <use xlink:href="#DejaVuSans-28"/>
     <use xlink:href="#DejaVuSans-53" transform="translate(39.013672 0)"/>
     <use xlink:href="#DejaVuSans-4c" transform="translate(102.490234 0)"/>
     <use xlink:href="#DejaVuSans-49" transform="translate(158.203125 0)"/>
     <use xlink:href="#DejaVuSans-50" transform="translate(187.695312 0)"/>
     <use xlink:href="#DejaVuSans-20" transform="translate(247.998047 0)"/>
     <use xlink:href="#DejaVuSans-76" transform="translate(279.785156 0)"/>
     <use xlink:href="#DejaVuSans-73" transform="translate(338.964844 0)"/>
     <use xlink:href="#DejaVuSans-20" transform="translate(391.064453 0)"/>
     <use xlink:href="#DejaVuSans-53" transform="translate(422.851562 0)"/>
     <use xlink:href="#DejaVuSans-53" transform="translate(486.328125 0)"/>
     <use xlink:href="#DejaVuSans-43" transform="translate(549.804688 0)"/>
     <use xlink:href="#DejaVuSans-29" transform="translate(619.628906 0)"/>
     <use xlink:href="#DejaVuSans-20" transform="translate(658.642578 0)"/>
     <use xlink:href="#DejaVuSans-2014" transform="translate(690.429688 0)"/>
     <use xlink:href="#DejaVuSans-20" transform="translate(790.429688 0)"/>
     <use xlink:href="#DejaVuSans-43" transform="translate(822.216797 0)"/>
     <use xlink:href="#DejaVuSans-2d" transform="translate(892.041016 0)"/>
     <use xlink:href="#DejaVuSans-66" transform="translate(928.125 0)"/>
     <use xlink:href="#DejaVuSans-6c" transform="translate(963.330078 0)"/>
     <use xlink:href="#DejaVuSans-6f" transform="translate(991.113281 0)"/>
     <use xlink:href="#DejaVuSans-77" transform="translate(1052.294922 0)"/>
     <use xlink:href="#DejaVuSans-20" transform="translate(1134.082031 0)"/>
     <use xlink:href="#DejaVuSans-2014" transform="translate(1165.869141 0)"/>
     <use xlink:href="#DejaVuSans-20" transform="translate(1265.869141 0)"/>
     <use xlink:href="#DejaVuSans-50" transform="translate(1297.65625 0)"/>
     <use xlink:href="#DejaVuSans-61" transform="translate(1353.458984 0)"/>
     <use xlink:href="#DejaVuSans-6e" transform="translate(1414.738281 0)"/>
     <use xlink:href="#DejaVuSans-65" transform="translate(1478.117188 0)"/>
     <use xlink:href="#DejaVuSans-6c" transform="translate(1539.640625 0)"/>
     <use xlink:href="#DejaVuSans-20" transform="translate(1567.423828 0)"/>
     <use xlink:href="#DejaVuSans-41" transform="translate(1599.210938 0)"/>
     <use xlink:href="#DejaVuSans-3a" transform="translate(1665.869141 0)"/>
     <use xlink:href="#DejaVuSans-20" transform="translate(1699.560547 0)"/>
     <use xlink:href="#DejaVuSans-6f" transform="translate(1731.347656 0)"/>
     <use xlink:href="#DejaVuSans-76" transform="translate(1792.529297 0)"/>
     <use xlink:href="#DejaVuSans-65" transform="translate(1851.708984 0)"/>
     <use xlink:href="#DejaVuSans-72" transform="translate(1913.232422 0)"/>
     <use xlink:href="#DejaVuSans-6c" transform="translate(1954.345703 0)"/>
     <use xlink:href="#DejaVuSans-61" transform="translate(1982.128906 0)"/>
     <use xlink:href="#DejaVuSans-79" transform="translate(2043.408203 0)"/>
     <use xlink:href="#DejaVuSans-20" transform="translate(2102.587891 0)"/>
     <use xlink:href="#DejaVuSans-2b" transform="translate(2134.375 0)"/>
     <use xlink:href="#DejaVuSans-20" transform="translate(2218.164062 0)"/>
     <use xlink:href="#DejaVuSans-6e" transform="translate(2249.951172 0)"/>
     <use xlink:href="#DejaVuSans-75" transform="translate(2313.330078 0)"/>
     <use xlink:href="#DejaVuSans-6c" transform="translate(2376.708984 0)"/>
     <use xlink:href="#DejaVuSans-6c" transform="translate(2404.492188 0)"/>
     <use xlink:href="#DejaVuSans-20" transform="translate(2432.275391 0)"/>
     <use xlink:href="#DejaVuSans-62" transform="translate(2464.0625 0)"/>
     <use xlink:href="#DejaVuSans-61" transform="translate(2527.539062 0)"/>
     <use xlink:href="#DejaVuSans-6e" transform="translate(2588.818359 0)"/>
     <use xlink:href="#DejaVuSans-64" transform="translate(2652.197266 0)"/>
     <use xlink:href="#DejaVuSans-73" transform="translate(2715.673828 0)"/>
    </g>
   </g>
   <g id="legend_1">
    <g id="patch_7">
     <path d="M 79.2 83.990437 
L 99.2 83.990437 
L 99.2 76.990437 
L 79.2 76.990437 
z
" style="fill: #1f77b4; fill-opacity: 0.15"/>
    </g>
    <g id="text_15">
     <!-- SLIP→SSC null μ±σ -->
     <g transform="translate(107.2 83.990437) scale(0.1 -0.1)">
      <defs>
       <path id="DejaVuSans-2192" d="M 5050 2147 
L 5050 1866 
L 3822 638 
L 3447 1013 
L 4175 1741 
L 366 1741 
L 366 2272 
L 4175 2272 
L 3447 3000 
L 3822 3375 
L 5050 2147 
z
" transform="scale(0.015625)"/>
       <path id="DejaVuSans-3bc" d="M 544 -1331 
L 544 3500 
L 1119 3500 
L 1119 1325 
Q 1119 872 1334 640 
Q 1550 409 1972 409 
Q 2434 409 2667 671 
Q 2900 934 2900 1459 
L 2900 3500 
L 3475 3500 
L 3475 806 
Q 3475 619 3529 530 
Q 3584 441 3700 441 
Q 3728 441 3778 458 
Q 3828 475 3916 513 
L 3916 50 
Q 3788 -22 3673 -56 
Q 3559 -91 3450 -91 
Q 3234 -91 3106 31 
Q 2978 153 2931 403 
Q 2775 156 2548 32 
Q 2322 -91 2016 -91 
Q 1697 -91 1473 31 
Q 1250 153 1119 397 
L 1119 -1331 
L 544 -1331 
z
" transform="scale(0.015625)"/>
       <path id="DejaVuSans-b1" d="M 2944 4013 
L 2944 2803 
L 4684 2803 
L 4684 2272 
L 2944 2272 
L 2944 1063 
L 2419 1063 
L 2419 2272 
L 678 2272 
L 678 2803 
L 2419 2803 
L 2419 4013 
L 2944 4013 
z
M 678 531 
L 4684 531 
L 4684 0 
L 678 0 
L 678 531 
z
" transform="scale(0.015625)"/>
       <path id="DejaVuSans-3c3" d="M 1959 3044 
Q 1484 3044 1228 2700 
Q 959 2341 959 1747 
Q 959 1119 1226 758 
Q 1494 397 1959 397 
Q 2419 397 2687 759 
Q 2956 1122 2956 1747 
Q 2956 2319 2688 2700 
Q 2441 3044 1959 3044 
z
M 1959 3500 
L 3869 3500 
L 3869 2925 
L 3225 2925 
Q 3566 2438 3566 1747 
Q 3566 888 3138 400 
Q 2709 -91 1959 -91 
Q 1206 -91 781 400 
Q 353 888 353 1747 
Q 353 2613 781 3097 
Q 1134 3500 1959 3500 
z
" transform="scale(0.015625)"/>
      </defs>
      <use xlink:href="#DejaVuSans-53"/>
      <use xlink:href="#DejaVuSans-4c" transform="translate(63.476562 0)"/>
      <use xlink:href="#DejaVuSans-49" transform="translate(119.189453 0)"/>
      <use xlink:href="#DejaVuSans-50" transform="translate(148.681641 0)"/>
      <use xlink:href="#DejaVuSans-2192" transform="translate(208.984375 0)"/>
      <use xlink:href="#DejaVuSans-53" transform="translate(292.773438 0)"/>
      <use xlink:href="#DejaVuSans-53" transform="translate(356.25 0)"/>
      <use xlink:href="#DejaVuSans-43" transform="translate(419.726562 0)"/>
      <use xlink:href="#DejaVuSans-20" transform="translate(489.550781 0)"/>
      <use xlink:href="#DejaVuSans-6e" transform="translate(521.337891 0)"/>
      <use xlink:href="#DejaVuSans-75" transform="translate(584.716797 0)"/>
      <use xlink:href="#DejaVuSans-6c" transform="translate(648.095703 0)"/>
      <use xlink:href="#DejaVuSans-6c" transform="translate(675.878906 0)"/>
      <use xlink:href="#DejaVuSans-20" transform="translate(703.662109 0)"/>
      <use xlink:href="#DejaVuSans-3bc" transform="translate(735.449219 0)"/>
      <use xlink:href="#DejaVuSans-b1" transform="translate(799.072266 0)"/>
      <use xlink:href="#DejaVuSans-3c3" transform="translate(882.861328 0)"/>
     </g>
    </g>
    <g id="patch_8">
     <path d="M 79.2 98.668563 
L 99.2 98.668563 
L 99.2 91.668563 
L 79.2 91.668563 
z
" style="fill: #ff7f0e; fill-opacity: 0.15"/>
    </g>
    <g id="text_16">
     <!-- SSC→SLIP null μ±σ -->
     <g transform="translate(107.2 98.668563) scale(0.1 -0.1)">
      <use xlink:href="#DejaVuSans-53"/>
      <use xlink:href="#DejaVuSans-53" transform="translate(63.476562 0)"/>
      <use xlink:href="#DejaVuSans-43" transform="translate(126.953125 0)"/>
      <use xlink:href="#DejaVuSans-2192" transform="translate(196.777344 0)"/>
      <use xlink:href="#DejaVuSans-53" transform="translate(280.566406 0)"/>
      <use xlink:href="#DejaVuSans-4c" transform="translate(344.042969 0)"/>
      <use xlink:href="#DejaVuSans-49" transform="translate(399.755859 0)"/>
      <use xlink:href="#DejaVuSans-50" transform="translate(429.248047 0)"/>
      <use xlink:href="#DejaVuSans-20" transform="translate(489.550781 0)"/>
      <use xlink:href="#DejaVuSans-6e" transform="translate(521.337891 0)"/>
      <use xlink:href="#DejaVuSans-75" transform="translate(584.716797 0)"/>
      <use xlink:href="#DejaVuSans-6c" transform="translate(648.095703 0)"/>
      <use xlink:href="#DejaVuSans-6c" transform="translate(675.878906 0)"/>
      <use xlink:href="#DejaVuSans-20" transform="translate(703.662109 0)"/>
      <use xlink:href="#DejaVuSans-3bc" transform="translate(735.449219 0)"/>
      <use xlink:href="#DejaVuSans-b1" transform="translate(799.072266 0)"/>
      <use xlink:href="#DejaVuSans-3c3" transform="translate(882.861328 0)"/>
     </g>
    </g>
    <g id="line2d_18">
     <path d="M 221.826563 80.490437 
L 231.826563 80.490437 
L 241.826563 80.490437 
" style="fill: none; stroke: #1f77b4; stroke-width: 2.2; stroke-linecap: square"/>
    </g>
    <g id="text_17">
     <!-- SLIP→SSC -->
     <g transform="translate(249.826563 83.990437) scale(0.1 -0.1)">
      <use xlink:href="#DejaVuSans-53"/>
      <use xlink:href="#DejaVuSans-4c" transform="translate(63.476562 0)"/>
      <use xlink:href="#DejaVuSans-49" transform="translate(119.189453 0)"/>
      <use xlink:href="#DejaVuSans-50" transform="translate(148.681641 0)"/>
      <use xlink:href="#DejaVuSans-2192" transform="translate(208.984375 0)"/>
      <use xlink:href="#DejaVuSans-53" transform="translate(292.773438 0)"/>
      <use xlink:href="#DejaVuSans-53" transform="translate(356.25 0)"/>
      <use xlink:href="#DejaVuSans-43" transform="translate(419.726562 0)"/>
     </g>
    </g>
    <g id="line2d_19">
     <path d="M 221.826563 95.168563 
L 231.826563 95.168563 
L 241.826563 95.168563 
" style="fill: none; stroke: #ff7f0e; stroke-width: 2.2; stroke-linecap: square"/>
    </g>
    <g id="text_18">
     <!-- SSC→SLIP -->
     <g transform="translate(249.826563 98.668563) scale(0.1 -0.1)">
      <use xlink:href="#DejaVuSans-53"/>
      <use xlink:href="#DejaVuSans-53" transform="translate(63.476562 0)"/>
      <use xlink:href="#DejaVuSans-43" transform="translate(126.953125 0)"/>
      <use xlink:href="#DejaVuSans-2192" transform="translate(196.777344 0)"/>
      <use xlink:href="#DejaVuSans-53" transform="translate(280.566406 0)"/>
      <use xlink:href="#DejaVuSans-4c" transform="translate(344.042969 0)"/>
      <use xlink:href="#DejaVuSans-49" transform="translate(399.755859 0)"/>
      <use xlink:href="#DejaVuSans-50" transform="translate(429.248047 0)"/>
     </g>
    </g>
   </g>
  </g>
  <g id="axes_2">
   <g id="patch_9">
    <path d="M 70.2 353.106 
L 505.44 353.106 
L 505.44 237.276 
L 70.2 237.276 
z
" style="fill: #ffffff"/>
   </g>
   <g id="matplotlib.axis_3">
    <g id="xtick_7">
     <g id="line2d_20">
      <g>
       <use xlink:href="#ma9d70d968f" x="87.985286" y="353.106" style="stroke: #000000; stroke-width: 0.8"/>
      </g>
     </g>
     <g id="text_19">
      <!-- −200 -->
      <g transform="translate(74.251693 367.704438) scale(0.1 -0.1)">
       <use xlink:href="#DejaVuSans-2212"/>
       <use xlink:href="#DejaVuSans-32" transform="translate(83.789062 0)"/>
       <use xlink:href="#DejaVuSans-30" transform="translate(147.412109 0)"/>
       <use xlink:href="#DejaVuSans-30" transform="translate(211.035156 0)"/>
      </g>
     </g>
    </g>
    <g id="xtick_8">
     <g id="line2d_21">
      <g>
       <use xlink:href="#ma9d70d968f" x="167.91917" y="353.106" style="stroke: #000000; stroke-width: 0.8"/>
      </g>
     </g>
     <g id="text_20">
      <!-- 0 -->
      <g transform="translate(164.73792 367.704438) scale(0.1 -0.1)">
       <use xlink:href="#DejaVuSans-30"/>
      </g>
     </g>
    </g>
    <g id="xtick_9">
     <g id="line2d_22">
      <g>
       <use xlink:href="#ma9d70d968f" x="247.853053" y="353.106" style="stroke: #000000; stroke-width: 0.8"/>
      </g>
     </g>
     <g id="text_21">
      <!-- 200 -->
      <g transform="translate(238.309303 367.704438) scale(0.1 -0.1)">
       <use xlink:href="#DejaVuSans-32"/>
       <use xlink:href="#DejaVuSans-30" transform="translate(63.623047 0)"/>
       <use xlink:href="#DejaVuSans-30" transform="translate(127.246094 0)"/>
      </g>
     </g>
    </g>
    <g id="xtick_10">
     <g id="line2d_23">
      <g>
       <use xlink:href="#ma9d70d968f" x="327.786937" y="353.106" style="stroke: #000000; stroke-width: 0.8"/>
      </g>
     </g>
     <g id="text_22">
      <!-- 400 -->
      <g transform="translate(318.243187 367.704438) scale(0.1 -0.1)">
       <use xlink:href="#DejaVuSans-34"/>
       <use xlink:href="#DejaVuSans-30" transform="translate(63.623047 0)"/>
       <use xlink:href="#DejaVuSans-30" transform="translate(127.246094 0)"/>
      </g>
     </g>
    </g>
    <g id="xtick_11">
     <g id="line2d_24">
      <g>
       <use xlink:href="#ma9d70d968f" x="407.720821" y="353.106" style="stroke: #000000; stroke-width: 0.8"/>
      </g>
     </g>
     <g id="text_23">
      <!-- 600 -->
      <g transform="translate(398.177071 367.704438) scale(0.1 -0.1)">
       <use xlink:href="#DejaVuSans-36"/>
       <use xlink:href="#DejaVuSans-30" transform="translate(63.623047 0)"/>
       <use xlink:href="#DejaVuSans-30" transform="translate(127.246094 0)"/>
      </g>
     </g>
    </g>
    <g id="xtick_12">
     <g id="line2d_25">
      <g>
       <use xlink:href="#ma9d70d968f" x="487.654704" y="353.106" style="stroke: #000000; stroke-width: 0.8"/>
      </g>
     </g>
     <g id="text_24">
      <!-- 800 -->
      <g transform="translate(478.110954 367.704438) scale(0.1 -0.1)">
       <use xlink:href="#DejaVuSans-38"/>
       <use xlink:href="#DejaVuSans-30" transform="translate(63.623047 0)"/>
       <use xlink:href="#DejaVuSans-30" transform="translate(127.246094 0)"/>
      </g>
     </g>
    </g>
   </g>
   <g id="matplotlib.axis_4">
    <g id="ytick_7">
     <g id="line2d_26">
      <g>
       <use xlink:href="#m797d3dcc63" x="70.2" y="338.778337" style="stroke: #000000; stroke-width: 0.8"/>
      </g>
     </g>
     <g id="text_25">
      <!-- −5 -->
      <g transform="translate(48.457813 342.577556) scale(0.1 -0.1)">
       <defs>
        <path id="DejaVuSans-35" d="M 691 4666 
L 3169 4666 
L 3169 4134 
L 1269 4134 
L 1269 2991 
Q 1406 3038 1543 3061 
Q 1681 3084 1819 3084 
Q 2600 3084 3056 2656 
Q 3513 2228 3513 1497 
Q 3513 744 3044 326 
Q 2575 -91 1722 -91 
Q 1428 -91 1123 -41 
Q 819 9 494 109 
L 494 744 
Q 775 591 1075 516 
Q 1375 441 1709 441 
Q 2250 441 2565 725 
Q 2881 1009 2881 1497 
Q 2881 1984 2565 2268 
Q 2250 2553 1709 2553 
Q 1456 2553 1204 2497 
Q 953 2441 691 2322 
L 691 4666 
z
" transform="scale(0.015625)"/>
       </defs>
       <use xlink:href="#DejaVuSans-2212"/>
       <use xlink:href="#DejaVuSans-35" transform="translate(83.789062 0)"/>
      </g>
     </g>
    </g>
    <g id="ytick_8">
     <g id="line2d_27">
      <g>
       <use xlink:href="#m797d3dcc63" x="70.2" y="296.081718" style="stroke: #000000; stroke-width: 0.8"/>
      </g>
     </g>
     <g id="text_26">
      <!-- 0 -->
      <g transform="translate(56.8375 299.880936) scale(0.1 -0.1)">
       <use xlink:href="#DejaVuSans-30"/>
      </g>
     </g>
    </g>
    <g id="ytick_9">
     <g id="line2d_28">
      <g>
       <use xlink:href="#m797d3dcc63" x="70.2" y="253.385098" style="stroke: #000000; stroke-width: 0.8"/>
      </g>
     </g>
     <g id="text_27">
      <!-- 5 -->
      <g transform="translate(56.8375 257.184316) scale(0.1 -0.1)">
       <use xlink:href="#DejaVuSans-35"/>
      </g>
     </g>
    </g>
    <g id="text_28">
     <!-- ΔΔLL (bits) -->
     <g transform="translate(42.378125 322.22225) rotate(-90) scale(0.1 -0.1)">
      <use xlink:href="#DejaVuSans-394"/>
      <use xlink:href="#DejaVuSans-394" transform="translate(68.408203 0)"/>
      <use xlink:href="#DejaVuSans-4c" transform="translate(136.816406 0)"/>
      <use xlink:href="#DejaVuSans-4c" transform="translate(192.529297 0)"/>
      <use xlink:href="#DejaVuSans-20" transform="translate(248.242188 0)"/>
      <use xlink:href="#DejaVuSans-28" transform="translate(280.029297 0)"/>
      <use xlink:href="#DejaVuSans-62" transform="translate(319.042969 0)"/>
      <use xlink:href="#DejaVuSans-69" transform="translate(382.519531 0)"/>
      <use xlink:href="#DejaVuSans-74" transform="translate(410.302734 0)"/>
      <use xlink:href="#DejaVuSans-73" transform="translate(449.511719 0)"/>
      <use xlink:href="#DejaVuSans-29" transform="translate(501.611328 0)"/>
     </g>
    </g>
   </g>
   <g id="line2d_29">
    <path d="M 167.91917 353.106 
L 167.91917 237.276 
" clip-path="url(#pee0881805a)" style="fill: none; stroke-dasharray: 2.96,1.28; stroke-dashoffset: 0; stroke: #000000; stroke-width: 0.8"/>
   </g>
   <g id="line2d_30">
    <path d="M 70.2 296.081718 
L 505.44 296.081718 
" clip-path="url(#pee0881805a)" style="fill: none; stroke-dasharray: 0.8,1.32; stroke-dashoffset: 0; stroke: #000000; stroke-width: 0.8"/>
   </g>
   <g id="line2d_31">
    <path d="M 89.983636 338.620554 
L 93.980327 303.265244 
L 97.977023 292.877358 
L 101.973713 276.08893 
L 105.97041 319.078607 
L 109.967106 320.042175 
L 113.963796 300.604398 
L 117.960493 272.560655 
L 121.957186 319.49076 
L 125.953882 292.521154 
L 129.950576 295.725754 
L 133.947269 251.699445 
L 137.943962 302.622686 
L 141.940659 291.233332 
L 145.937352 248.504886 
L 149.934045 251.090827 
L 153.93074 274.683622 
L 157.927434 299.377072 
L 161.924129 325.185787 
L 165.920823 294.832878 
L 169.917517 311.596395 
L 173.914211 253.114116 
L 177.910906 287.029561 
L 181.9076 308.350544 
L 185.904294 262.423031 
L 189.900988 313.931448 
L 193.897681 272.648131 
L 197.894377 321.444171 
L 201.891071 319.267743 
L 205.887764 257.347195 
L 209.884457 243.753272 
L 213.881154 332.480721 
L 217.877847 256.791631 
L 221.874543 301.497354 
L 225.871234 279.890967 
L 229.86793 277.709985 
L 233.864626 320.323487 
L 237.861317 291.863532 
L 241.858013 294.340998 
L 245.854704 327.574464 
L 249.8514 320.176366 
L 253.848096 284.715213 
L 257.844787 280.235804 
L 261.841483 262.21463 
L 265.838179 294.648691 
L 269.83487 308.185764 
L 273.83156 261.60846 
L 277.828262 304.401235 
L 281.824953 289.254764 
L 285.821643 299.928196 
L 289.818345 261.275149 
L 293.815036 326.778381 
L 297.811726 296.068598 
L 301.808428 281.098754 
L 305.805119 273.272227 
L 309.801809 277.096527 
L 313.798511 244.078864 
L 317.795202 259.805062 
L 321.791892 317.995966 
L 325.788594 303.054241 
L 329.785285 273.411339 
L 333.781975 283.756559 
L 337.778677 265.07184 
L 341.775368 269.108356 
L 345.772058 297.266644 
L 349.76876 302.873038 
L 353.765451 297.93257 
L 357.762141 292.057905 
L 361.758843 292.135495 
L 365.755534 347.841 
L 369.752224 299.649135 
L 373.748914 292.539573 
L 377.745605 338.537192 
L 381.742319 272.916717 
L 385.739009 299.871961 
L 389.7357 269.149359 
L 393.73239 289.738607 
L 397.72908 273.881471 
L 401.725771 292.535239 
L 405.722485 279.703876 
L 409.719175 298.922461 
L 413.715866 242.541 
L 417.712556 275.02582 
L 421.709246 296.209649 
L 425.705937 296.419024 
L 429.702627 314.513086 
L 433.699341 248.935667 
L 437.696032 265.380672 
L 441.692722 266.743741 
L 445.689412 310.122045 
L 449.686103 305.015841 
L 453.682793 264.679339 
L 457.679507 272.701867 
L 461.676198 252.092819 
L 465.672888 322.117173 
L 469.669578 311.485128 
L 473.666269 271.52227 
L 477.662959 293.595819 
L 481.659673 343.90031 
L 485.656364 314.355407 
" clip-path="url(#pee0881805a)" style="fill: none; stroke: #d62728; stroke-width: 2.2; stroke-linecap: square"/>
   </g>
   <g id="line2d_32">
    <defs>
     <path id="m7d0cda5a1c" d="M 0 1.25 
C 0.331504 1.25 0.649475 1.118292 0.883883 0.883883 
C 1.118292 0.649475 1.25 0.331504 1.25 0 
C 1.25 -0.331504 1.118292 -0.649475 0.883883 -0.883883 
C 0.649475 -1.118292 0.331504 -1.25 0 -1.25 
C -0.331504 -1.25 -0.649475 -1.118292 -0.883883 -0.883883 
C -1.118292 -0.649475 -1.25 -0.331504 -1.25 0 
C -1.25 0.331504 -1.118292 0.649475 -0.883883 0.883883 
C -0.649475 1.118292 -0.331504 1.25 0 1.25 
z
" style="stroke: #000000"/>
    </defs>
    <g clip-path="url(#pee0881805a)">
     <use xlink:href="#m7d0cda5a1c" x="89.983636" y="338.620554" style="stroke: #000000"/>
     <use xlink:href="#m7d0cda5a1c" x="149.934045" y="251.090827" style="stroke: #000000"/>
     <use xlink:href="#m7d0cda5a1c" x="173.914211" y="253.114116" style="stroke: #000000"/>
     <use xlink:href="#m7d0cda5a1c" x="209.884457" y="243.753272" style="stroke: #000000"/>
     <use xlink:href="#m7d0cda5a1c" x="213.881154" y="332.480721" style="stroke: #000000"/>
     <use xlink:href="#m7d0cda5a1c" x="309.801809" y="277.096527" style="stroke: #000000"/>
     <use xlink:href="#m7d0cda5a1c" x="313.798511" y="244.078864" style="stroke: #000000"/>
     <use xlink:href="#m7d0cda5a1c" x="317.795202" y="259.805062" style="stroke: #000000"/>
     <use xlink:href="#m7d0cda5a1c" x="377.745605" y="338.537192" style="stroke: #000000"/>
     <use xlink:href="#m7d0cda5a1c" x="413.715866" y="242.541" style="stroke: #000000"/>
     <use xlink:href="#m7d0cda5a1c" x="433.699341" y="248.935667" style="stroke: #000000"/>
     <use xlink:href="#m7d0cda5a1c" x="461.676198" y="252.092819" style="stroke: #000000"/>
     <use xlink:href="#m7d0cda5a1c" x="481.659673" y="343.90031" style="stroke: #000000"/>
    </g>
   </g>
   <g id="patch_10">
    <path d="M 70.2 353.106 
L 70.2 237.276 
" style="fill: none; stroke: #000000; stroke-width: 0.8; stroke-linejoin: miter; stroke-linecap: square"/>
   </g>
   <g id="patch_11">
    <path d="M 505.44 353.106 
L 505.44 237.276 
" style="fill: none; stroke: #000000; stroke-width: 0.8; stroke-linejoin: miter; stroke-linecap: square"/>
   </g>
   <g id="patch_12">
    <path d="M 70.2 353.106 
L 505.44 353.106 
" style="fill: none; stroke: #000000; stroke-width: 0.8; stroke-linejoin: miter; stroke-linecap: square"/>
   </g>
   <g id="patch_13">
    <path d="M 70.2 237.276 
L 505.44 237.276 
" style="fill: none; stroke: #000000; stroke-width: 0.8; stroke-linejoin: miter; stroke-linecap: square"/>
   </g>
   <g id="text_29">
    <!-- Panel B: pair-diff with significance dots -->
    <g transform="translate(171.554063 231.276) scale(0.12 -0.12)">
     <defs>
      <path id="DejaVuSans-42" d="M 1259 2228 
L 1259 519 
L 2272 519 
Q 2781 519 3026 730 
Q 3272 941 3272 1375 
Q 3272 1813 3026 2020 
Q 2781 2228 2272 2228 
L 1259 2228 
z
M 1259 4147 
L 1259 2741 
L 2194 2741 
Q 2656 2741 2882 2914 
Q 3109 3088 3109 3444 
Q 3109 3797 2882 3972 
Q 2656 4147 2194 4147 
L 1259 4147 
z
M 628 4666 
L 2241 4666 
Q 2963 4666 3353 4366 
Q 3744 4066 3744 3513 
Q 3744 3084 3544 2831 
Q 3344 2578 2956 2516 
Q 3422 2416 3680 2098 
Q 3938 1781 3938 1306 
Q 3938 681 3513 340 
Q 3088 0 2303 0 
L 628 0 
L 628 4666 
z
" transform="scale(0.015625)"/>
      <path id="DejaVuSans-70" d="M 1159 525 
L 1159 -1331 
L 581 -1331 
L 581 3500 
L 1159 3500 
L 1159 2969 
Q 1341 3281 1617 3432 
Q 1894 3584 2278 3584 
Q 2916 3584 3314 3078 
Q 3713 2572 3713 1747 
Q 3713 922 3314 415 
Q 2916 -91 2278 -91 
Q 1894 -91 1617 61 
Q 1341 213 1159 525 
z
M 3116 1747 
Q 3116 2381 2855 2742 
Q 2594 3103 2138 3103 
Q 1681 3103 1420 2742 
Q 1159 2381 1159 1747 
Q 1159 1113 1420 752 
Q 1681 391 2138 391 
Q 2594 391 2855 752 
Q 3116 1113 3116 1747 
z
" transform="scale(0.015625)"/>
      <path id="DejaVuSans-68" d="M 3513 2113 
L 3513 0 
L 2938 0 
L 2938 2094 
Q 2938 2591 2744 2837 
Q 2550 3084 2163 3084 
Q 1697 3084 1428 2787 
Q 1159 2491 1159 1978 
L 1159 0 
L 581 0 
L 581 4863 
L 1159 4863 
L 1159 2956 
Q 1366 3272 1645 3428 
Q 1925 3584 2291 3584 
Q 2894 3584 3203 3211 
Q 3513 2838 3513 2113 
z
" transform="scale(0.015625)"/>
      <path id="DejaVuSans-67" d="M 2906 1791 
Q 2906 2416 2648 2759 
Q 2391 3103 1925 3103 
Q 1463 3103 1205 2759 
Q 947 2416 947 1791 
Q 947 1169 1205 825 
Q 1463 481 1925 481 
Q 2391 481 2648 825 
Q 2906 1169 2906 1791 
z
M 3481 434 
Q 3481 -459 3084 -895 
Q 2688 -1331 1869 -1331 
Q 1566 -1331 1297 -1286 
Q 1028 -1241 775 -1147 
L 775 -588 
Q 1028 -725 1275 -790 
Q 1522 -856 1778 -856 
Q 2344 -856 2625 -561 
Q 2906 -266 2906 331 
L 2906 616 
Q 2728 306 2450 153 
Q 2172 0 1784 0 
Q 1141 0 747 490 
Q 353 981 353 1791 
Q 353 2603 747 3093 
Q 1141 3584 1784 3584 
Q 2172 3584 2450 3431 
Q 2728 3278 2906 2969 
L 2906 3500 
L 3481 3500 
L 3481 434 
z
" transform="scale(0.015625)"/>
      <path id="DejaVuSans-63" d="M 3122 3366 
L 3122 2828 
Q 2878 2963 2633 3030 
Q 2388 3097 2138 3097 
Q 1578 3097 1268 2742 
Q 959 2388 959 1747 
Q 959 1106 1268 751 
Q 1578 397 2138 397 
Q 2388 397 2633 464 
Q 2878 531 3122 666 
L 3122 134 
Q 2881 22 2623 -34 
Q 2366 -91 2075 -91 
Q 1284 -91 818 406 
Q 353 903 353 1747 
Q 353 2603 823 3093 
Q 1294 3584 2113 3584 
Q 2378 3584 2631 3529 
Q 2884 3475 3122 3366 
z
" transform="scale(0.015625)"/>
     </defs>
     <use xlink:href="#DejaVuSans-50"/>
     <use xlink:href="#DejaVuSans-61" transform="translate(55.802734 0)"/>
     <use xlink:href="#DejaVuSans-6e" transform="translate(117.082031 0)"/>
     <use xlink:href="#DejaVuSans-65" transform="translate(180.460938 0)"/>
     <use xlink:href="#DejaVuSans-6c" transform="translate(241.984375 0)"/>
     <use xlink:href="#DejaVuSans-20" transform="translate(269.767578 0)"/>
     <use xlink:href="#DejaVuSans-42" transform="translate(301.554688 0)"/>
     <use xlink:href="#DejaVuSans-3a" transform="translate(370.158203 0)"/>
     <use xlink:href="#DejaVuSans-20" transform="translate(403.849609 0)"/>
     <use xlink:href="#DejaVuSans-70" transform="translate(435.636719 0)"/>
     <use xlink:href="#DejaVuSans-61" transform="translate(499.113281 0)"/>
     <use xlink:href="#DejaVuSans-69" transform="translate(560.392578 0)"/>
     <use xlink:href="#DejaVuSans-72" transform="translate(588.175781 0)"/>
     <use xlink:href="#DejaVuSans-2d" transform="translate(622.914062 0)"/>
     <use xlink:href="#DejaVuSans-64" transform="translate(658.998047 0)"/>
     <use xlink:href="#DejaVuSans-69" transform="translate(722.474609 0)"/>
     <use xlink:href="#DejaVuSans-66" transform="translate(750.257812 0)"/>
     <use xlink:href="#DejaVuSans-66" transform="translate(785.462891 0)"/>
     <use xlink:href="#DejaVuSans-20" transform="translate(820.667969 0)"/>
     <use xlink:href="#DejaVuSans-77" transform="translate(852.455078 0)"/>
     <use xlink:href="#DejaVuSans-69" transform="translate(934.242188 0)"/>
     <use xlink:href="#DejaVuSans-74" transform="translate(962.025391 0)"/>
     <use xlink:href="#DejaVuSans-68" transform="translate(1001.234375 0)"/>
     <use xlink:href="#DejaVuSans-20" transform="translate(1064.613281 0)"/>
     <use xlink:href="#DejaVuSans-73" transform="translate(1096.400391 0)"/>
     <use xlink:href="#DejaVuSans-69" transform="translate(1148.5 0)"/>
     <use xlink:href="#DejaVuSans-67" transform="translate(1176.283203 0)"/>
     <use xlink:href="#DejaVuSans-6e" transform="translate(1239.759766 0)"/>
     <use xlink:href="#DejaVuSans-69" transform="translate(1303.138672 0)"/>
     <use xlink:href="#DejaVuSans-66" transform="translate(1330.921875 0)"/>
     <use xlink:href="#DejaVuSans-69" transform="translate(1366.126953 0)"/>
     <use xlink:href="#DejaVuSans-63" transform="translate(1393.910156 0)"/>
     <use xlink:href="#DejaVuSans-61" transform="translate(1448.890625 0)"/>
     <use xlink:href="#DejaVuSans-6e" transform="translate(1510.169922 0)"/>
     <use xlink:href="#DejaVuSans-63" transform="translate(1573.548828 0)"/>
     <use xlink:href="#DejaVuSans-65" transform="translate(1628.529297 0)"/>
     <use xlink:href="#DejaVuSans-20" transform="translate(1690.052734 0)"/>
     <use xlink:href="#DejaVuSans-64" transform="translate(1721.839844 0)"/>
     <use xlink:href="#DejaVuSans-6f" transform="translate(1785.316406 0)"/>
     <use xlink:href="#DejaVuSans-74" transform="translate(1846.498047 0)"/>
     <use xlink:href="#DejaVuSans-73" transform="translate(1885.707031 0)"/>
    </g>
   </g>
   <g id="legend_2">
    <g id="line2d_33">
     <path d="M 79.2 250.374437 
L 89.2 250.374437 
L 99.2 250.374437 
" style="fill: none; stroke: #d62728; stroke-width: 2.2; stroke-linecap: square"/>
    </g>
    <g id="text_30">
     <!-- (A→B − B→A) -->
     <g transform="translate(107.2 253.874437) scale(0.1 -0.1)">
      <use xlink:href="#DejaVuSans-28"/>
      <use xlink:href="#DejaVuSans-41" transform="translate(39.013672 0)"/>
      <use xlink:href="#DejaVuSans-2192" transform="translate(107.421875 0)"/>
      <use xlink:href="#DejaVuSans-42" transform="translate(191.210938 0)"/>
      <use xlink:href="#DejaVuSans-20" transform="translate(259.814453 0)"/>
      <use xlink:href="#DejaVuSans-2212" transform="translate(291.601562 0)"/>
      <use xlink:href="#DejaVuSans-20" transform="translate(375.390625 0)"/>
      <use xlink:href="#DejaVuSans-42" transform="translate(407.177734 0)"/>
      <use xlink:href="#DejaVuSans-2192" transform="translate(475.78125 0)"/>
      <use xlink:href="#DejaVuSans-41" transform="translate(559.570312 0)"/>
      <use xlink:href="#DejaVuSans-29" transform="translate(627.978516 0)"/>
     </g>
    </g>
    <g id="line2d_34">
     <g>
      <use xlink:href="#m7d0cda5a1c" x="89.2" y="265.052563" style="stroke: #000000"/>
     </g>
    </g>
    <g id="text_31">
     <!-- p&lt;0.05 (one-sided) -->
     <g transform="translate(107.2 268.552563) scale(0.1 -0.1)">
      <defs>
       <path id="DejaVuSans-3c" d="M 4684 3150 
L 1459 2003 
L 4684 863 
L 4684 294 
L 678 1747 
L 678 2266 
L 4684 3719 
L 4684 3150 
z
" transform="scale(0.015625)"/>
       <path id="DejaVuSans-2e" d="M 684 794 
L 1344 794 
L 1344 0 
L 684 0 
L 684 794 
z
" transform="scale(0.015625)"/>
      </defs>
      <use xlink:href="#DejaVuSans-70"/>
      <use xlink:href="#DejaVuSans-3c" transform="translate(63.476562 0)"/>
      <use xlink:href="#DejaVuSans-30" transform="translate(147.265625 0)"/>
      <use xlink:href="#DejaVuSans-2e" transform="translate(210.888672 0)"/>
      <use xlink:href="#DejaVuSans-30" transform="translate(242.675781 0)"/>
      <use xlink:href="#DejaVuSans-35" transform="translate(306.298828 0)"/>
      <use xlink:href="#DejaVuSans-20" transform="translate(369.921875 0)"/>
      <use xlink:href="#DejaVuSans-28" transform="translate(401.708984 0)"/>
      <use xlink:href="#DejaVuSans-6f" transform="translate(440.722656 0)"/>
      <use xlink:href="#DejaVuSans-6e" transform="translate(501.904297 0)"/>
      <use xlink:href="#DejaVuSans-65" transform="translate(565.283203 0)"/>
      <use xlink:href="#DejaVuSans-2d" transform="translate(626.806641 0)"/>
      <use xlink:href="#DejaVuSans-73" transform="translate(662.890625 0)"/>
      <use xlink:href="#DejaVuSans-69" transform="translate(714.990234 0)"/>
      <use xlink:href="#DejaVuSans-64" transform="translate(742.773438 0)"/>
      <use xlink:href="#DejaVuSans-65" transform="translate(806.25 0)"/>
      <use xlink:href="#DejaVuSans-64" transform="translate(867.773438 0)"/>
      <use xlink:href="#DejaVuSans-29" transform="translate(931.25 0)"/>
     </g>
    </g>
   </g>
  </g>
  <g id="axes_3">
   <g id="patch_14">
    <path d="M 70.2 499.824 
L 505.44 499.824 
L 505.44 383.994 
L 70.2 383.994 
z
" style="fill: #ffffff"/>
   </g>
   <g id="matplotlib.axis_5">
    <g id="xtick_13">
     <g id="line2d_35">
      <g>
       <use xlink:href="#ma9d70d968f" x="87.985286" y="499.824" style="stroke: #000000; stroke-width: 0.8"/>
      </g>
     </g>
     <g id="text_32">
      <!-- −200 -->
      <g transform="translate(74.251693 514.422438) scale(0.1 -0.1)">
       <use xlink:href="#DejaVuSans-2212"/>
       <use xlink:href="#DejaVuSans-32" transform="translate(83.789062 0)"/>
       <use xlink:href="#DejaVuSans-30" transform="translate(147.412109 0)"/>
       <use xlink:href="#DejaVuSans-30" transform="translate(211.035156 0)"/>
      </g>
     </g>
    </g>
    <g id="xtick_14">
     <g id="line2d_36">
      <g>
       <use xlink:href="#ma9d70d968f" x="167.91917" y="499.824" style="stroke: #000000; stroke-width: 0.8"/>
      </g>
     </g>
     <g id="text_33">
      <!-- 0 -->
      <g transform="translate(164.73792 514.422438) scale(0.1 -0.1)">
       <use xlink:href="#DejaVuSans-30"/>
      </g>
     </g>
    </g>
    <g id="xtick_15">
     <g id="line2d_37">
      <g>
       <use xlink:href="#ma9d70d968f" x="247.853053" y="499.824" style="stroke: #000000; stroke-width: 0.8"/>
      </g>
     </g>
     <g id="text_34">
      <!-- 200 -->
      <g transform="translate(238.309303 514.422438) scale(0.1 -0.1)">
       <use xlink:href="#DejaVuSans-32"/>
       <use xlink:href="#DejaVuSans-30" transform="translate(63.623047 0)"/>
       <use xlink:href="#DejaVuSans-30" transform="translate(127.246094 0)"/>
      </g>
     </g>
    </g>
    <g id="xtick_16">
     <g id="line2d_38">
      <g>
       <use xlink:href="#ma9d70d968f" x="327.786937" y="499.824" style="stroke: #000000; stroke-width: 0.8"/>
      </g>
     </g>
     <g id="text_35">
      <!-- 400 -->
      <g transform="translate(318.243187 514.422438) scale(0.1 -0.1)">
       <use xlink:href="#DejaVuSans-34"/>
       <use xlink:href="#DejaVuSans-30" transform="translate(63.623047 0)"/>
       <use xlink:href="#DejaVuSans-30" transform="translate(127.246094 0)"/>
      </g>
     </g>
    </g>
    <g id="xtick_17">
     <g id="line2d_39">
      <g>
       <use xlink:href="#ma9d70d968f" x="407.720821" y="499.824" style="stroke: #000000; stroke-width: 0.8"/>
      </g>
     </g>
     <g id="text_36">
      <!-- 600 -->
      <g transform="translate(398.177071 514.422438) scale(0.1 -0.1)">
       <use xlink:href="#DejaVuSans-36"/>
       <use xlink:href="#DejaVuSans-30" transform="translate(63.623047 0)"/>
       <use xlink:href="#DejaVuSans-30" transform="translate(127.246094 0)"/>
      </g>
     </g>
    </g>
    <g id="xtick_18">
     <g id="line2d_40">
      <g>
       <use xlink:href="#ma9d70d968f" x="487.654704" y="499.824" style="stroke: #000000; stroke-width: 0.8"/>
      </g>
     </g>
     <g id="text_37">
      <!-- 800 -->
      <g transform="translate(478.110954 514.422438) scale(0.1 -0.1)">
       <use xlink:href="#DejaVuSans-38"/>
       <use xlink:href="#DejaVuSans-30" transform="translate(63.623047 0)"/>
       <use xlink:href="#DejaVuSans-30" transform="translate(127.246094 0)"/>
      </g>
     </g>
    </g>
    <g id="text_38">
     <!-- Time (ms) -->
     <g transform="translate(262.620781 528.100563) scale(0.1 -0.1)">
      <defs>
       <path id="DejaVuSans-54" d="M -19 4666 
L 3928 4666 
L 3928 4134 
L 2272 4134 
L 2272 0 
L 1638 0 
L 1638 4134 
L -19 4134 
L -19 4666 
z
" transform="scale(0.015625)"/>
       <path id="DejaVuSans-6d" d="M 3328 2828 
Q 3544 3216 3844 3400 
Q 4144 3584 4550 3584 
Q 5097 3584 5394 3201 
Q 5691 2819 5691 2113 
L 5691 0 
L 5113 0 
L 5113 2094 
Q 5113 2597 4934 2840 
Q 4756 3084 4391 3084 
Q 3944 3084 3684 2787 
Q 3425 2491 3425 1978 
L 3425 0 
L 2847 0 
L 2847 2094 
Q 2847 2600 2669 2842 
Q 2491 3084 2119 3084 
Q 1678 3084 1418 2786 
Q 1159 2488 1159 1978 
L 1159 0 
L 581 0 
L 581 3500 
L 1159 3500 
L 1159 2956 
Q 1356 3278 1631 3431 
Q 1906 3584 2284 3584 
Q 2666 3584 2933 3390 
Q 3200 3197 3328 2828 
z
" transform="scale(0.015625)"/>
      </defs>
      <use xlink:href="#DejaVuSans-54"/>
      <use xlink:href="#DejaVuSans-69" transform="translate(57.958984 0)"/>
      <use xlink:href="#DejaVuSans-6d" transform="translate(85.742188 0)"/>
      <use xlink:href="#DejaVuSans-65" transform="translate(183.154297 0)"/>
      <use xlink:href="#DejaVuSans-20" transform="translate(244.677734 0)"/>
      <use xlink:href="#DejaVuSans-28" transform="translate(276.464844 0)"/>
      <use xlink:href="#DejaVuSans-6d" transform="translate(315.478516 0)"/>
      <use xlink:href="#DejaVuSans-73" transform="translate(412.890625 0)"/>
      <use xlink:href="#DejaVuSans-29" transform="translate(464.990234 0)"/>
     </g>
    </g>
   </g>
   <g id="matplotlib.axis_6">
    <g id="ytick_10">
     <g id="line2d_41">
      <g>
       <use xlink:href="#m797d3dcc63" x="70.2" y="462.690953" style="stroke: #000000; stroke-width: 0.8"/>
      </g>
     </g>
     <g id="text_39">
      <!-- 0 -->
      <g transform="translate(56.8375 466.490172) scale(0.1 -0.1)">
       <use xlink:href="#DejaVuSans-30"/>
      </g>
     </g>
    </g>
    <g id="ytick_11">
     <g id="line2d_42">
      <g>
       <use xlink:href="#m797d3dcc63" x="70.2" y="420.935677" style="stroke: #000000; stroke-width: 0.8"/>
      </g>
     </g>
     <g id="text_40">
      <!-- 2 -->
      <g transform="translate(56.8375 424.734896) scale(0.1 -0.1)">
       <use xlink:href="#DejaVuSans-32"/>
      </g>
     </g>
    </g>
    <g id="text_41">
     <!-- Z (σ from null) -->
     <g transform="translate(50.757812 477.919938) rotate(-90) scale(0.1 -0.1)">
      <defs>
       <path id="DejaVuSans-5a" d="M 359 4666 
L 4025 4666 
L 4025 4184 
L 1075 531 
L 4097 531 
L 4097 0 
L 288 0 
L 288 481 
L 3238 4134 
L 359 4134 
L 359 4666 
z
" transform="scale(0.015625)"/>
      </defs>
      <use xlink:href="#DejaVuSans-5a"/>
      <use xlink:href="#DejaVuSans-20" transform="translate(68.505859 0)"/>
      <use xlink:href="#DejaVuSans-28" transform="translate(100.292969 0)"/>
      <use xlink:href="#DejaVuSans-3c3" transform="translate(139.306641 0)"/>
      <use xlink:href="#DejaVuSans-20" transform="translate(202.685547 0)"/>
      <use xlink:href="#DejaVuSans-66" transform="translate(234.472656 0)"/>
      <use xlink:href="#DejaVuSans-72" transform="translate(269.677734 0)"/>
      <use xlink:href="#DejaVuSans-6f" transform="translate(308.541016 0)"/>
      <use xlink:href="#DejaVuSans-6d" transform="translate(369.722656 0)"/>
      <use xlink:href="#DejaVuSans-20" transform="translate(467.134766 0)"/>
      <use xlink:href="#DejaVuSans-6e" transform="translate(498.921875 0)"/>
      <use xlink:href="#DejaVuSans-75" transform="translate(562.300781 0)"/>
      <use xlink:href="#DejaVuSans-6c" transform="translate(625.679688 0)"/>
      <use xlink:href="#DejaVuSans-6c" transform="translate(653.462891 0)"/>
      <use xlink:href="#DejaVuSans-29" transform="translate(681.246094 0)"/>
     </g>
    </g>
   </g>
   <g id="line2d_43">
    <path d="M 167.91917 499.824 
L 167.91917 383.994 
" clip-path="url(#p941f6436b9)" style="fill: none; stroke-dasharray: 2.96,1.28; stroke-dashoffset: 0; stroke: #000000; stroke-width: 0.8"/>
   </g>
   <g id="line2d_44">
    <path d="M 89.983636 480.902438 
L 93.980327 487.75868 
L 97.977023 479.312499 
L 101.973713 467.244958 
L 105.97041 471.189609 
L 109.967106 465.866308 
L 113.963796 489.710591 
L 117.960493 439.778007 
L 121.957186 478.96504 
L 125.953882 465.019514 
L 129.950576 489.874939 
L 133.947269 428.616627 
L 137.943962 474.025557 
L 141.940659 473.067901 
L 145.937352 432.34841 
L 149.934045 413.771522 
L 153.93074 450.983386 
L 157.927434 478.96762 
L 161.924129 473.303054 
L 165.920823 450.521533 
L 169.917517 487.9714 
L 173.914211 411.517835 
L 177.910906 467.407228 
L 181.9076 457.802639 
L 185.904294 451.845546 
L 189.900988 410.403232 
L 193.897681 465.666486 
L 197.894377 471.787814 
L 201.891071 471.944317 
L 205.887764 439.970609 
L 209.884457 419.421249 
L 213.881154 469.654064 
L 217.877847 432.130576 
L 221.874543 453.519265 
L 225.871234 461.797445 
L 229.86793 473.512426 
L 233.864626 462.12097 
L 237.861317 480.156634 
L 241.858013 473.326887 
L 245.854704 485.920609 
L 249.8514 484.650899 
L 253.848096 471.627409 
L 257.844787 435.287088 
L 261.841483 439.953322 
L 265.838179 482.587454 
L 269.83487 454.927293 
L 273.83156 442.837651 
L 277.828262 482.326038 
L 281.824953 474.891513 
L 285.821643 477.299398 
L 289.818345 436.410992 
L 293.815036 472.481039 
L 297.811726 486.545082 
L 301.808428 449.080681 
L 305.805119 460.799625 
L 309.801809 413.195532 
L 313.798511 415.148826 
L 317.795202 421.073696 
L 321.791892 453.285132 
L 325.788594 458.966267 
L 329.785285 440.345776 
L 333.781975 454.320373 
L 337.778677 439.124379 
L 341.775368 449.941737 
L 345.772058 474.652929 
L 349.76876 481.739001 
L 353.765451 481.390875 
L 357.762141 479.38051 
L 361.758843 457.405112 
L 365.755534 484.495893 
L 369.752224 490.263204 
L 373.748914 457.846556 
L 377.745605 460.732731 
L 381.742319 450.696232 
L 385.739009 473.245649 
L 389.7357 447.79121 
L 393.73239 429.046487 
L 397.72908 444.570152 
L 401.725771 475.205615 
L 405.722485 459.041932 
L 409.719175 468.666996 
L 413.715866 417.097891 
L 417.712556 429.847927 
L 421.709246 461.200963 
L 425.705937 474.658609 
L 429.702627 443.272915 
L 433.699341 421.786279 
L 437.696032 444.794915 
L 441.692722 442.283348 
L 445.689412 478.832978 
L 449.686103 483.066123 
L 453.682793 450.604776 
L 457.679507 441.496469 
L 461.676198 405.72248 
L 465.672888 480.759301 
L 469.669578 473.952379 
L 473.666269 444.724688 
L 477.662959 470.461422 
L 481.659673 443.587319 
L 485.656364 463.009617 
" clip-path="url(#p941f6436b9)" style="fill: none; stroke: #1f77b4; stroke-width: 2; stroke-linecap: square"/>
   </g>
   <g id="line2d_45">
    <path d="M 89.983636 423.475304 
L 93.980327 478.681807 
L 97.977023 482.55928 
L 101.973713 493.180602 
L 105.97041 442.394846 
L 109.967106 433.035834 
L 113.963796 483.508004 
L 117.960493 461.521863 
L 121.957186 446.036452 
L 125.953882 468.661324 
L 129.950576 489.050642 
L 133.947269 474.40074 
L 137.943962 465.316216 
L 141.940659 475.325931 
L 145.937352 485.222544 
L 149.934045 462.917484 
L 153.93074 470.82165 
L 157.927434 475.236989 
L 161.924129 433.307578 
L 165.920823 447.194421 
L 169.917517 462.495871 
L 173.914211 453.986555 
L 177.910906 473.609017 
L 181.9076 438.049165 
L 185.904294 485.041501 
L 189.900988 389.756435 
L 193.897681 492.405865 
L 197.894377 436.466654 
L 201.891071 435.742204 
L 205.887764 478.340559 
L 209.884457 469.744054 
L 213.881154 419.99711 
L 217.877847 480.880737 
L 221.874543 444.389827 
L 225.871234 480.756676 
L 229.86793 494.559 
L 233.864626 433.471984 
L 237.861317 486.612213 
L 241.858013 472.630263 
L 245.854704 447.837279 
L 249.8514 455.554287 
L 253.848096 485.786976 
L 257.844787 448.787722 
L 261.841483 476.10013 
L 265.838179 482.903979 
L 269.83487 431.764337 
L 273.83156 483.20433 
L 277.828262 470.69807 
L 281.824953 483.742286 
L 285.821643 471.326334 
L 289.818345 467.784599 
L 293.815036 440.811851 
L 297.811726 489.094293 
L 301.808428 465.157676 
L 305.805119 479.969928 
L 309.801809 441.790704 
L 313.798511 468.34504 
L 317.795202 454.763619 
L 321.791892 438.144911 
L 325.788594 455.475259 
L 329.785285 468.955469 
L 333.781975 469.734168 
L 337.778677 477.501357 
L 341.775368 480.807644 
L 345.772058 472.832926 
L 349.76876 474.861081 
L 353.765451 481.872345 
L 357.762141 486.654476 
L 361.758843 459.244315 
L 365.755534 438.450638 
L 369.752224 484.655788 
L 373.748914 467.934305 
L 377.745605 415.563331 
L 381.742319 475.645583 
L 385.739009 468.758769 
L 389.7357 479.084908 
L 393.73239 439.742573 
L 397.72908 475.063444 
L 401.725771 480.595357 
L 405.722485 479.397852 
L 409.719175 466.842793 
L 413.715866 480.384966 
L 417.712556 467.254441 
L 421.709246 466.238082 
L 425.705937 475.474445 
L 429.702627 430.439247 
L 433.699341 480.981022 
L 437.696032 484.362882 
L 441.692722 479.001088 
L 445.689412 460.449118 
L 449.686103 476.468021 
L 453.682793 492.906979 
L 457.679507 473.427875 
L 461.676198 457.397162 
L 465.672888 453.953264 
L 469.669578 461.588496 
L 473.666269 477.842368 
L 477.662959 478.334338 
L 481.659673 389.259 
L 485.656364 449.80366 
" clip-path="url(#p941f6436b9)" style="fill: none; stroke: #ff7f0e; stroke-width: 2; stroke-linecap: square"/>
   </g>
   <g id="patch_15">
    <path d="M 70.2 499.824 
L 70.2 383.994 
" style="fill: none; stroke: #000000; stroke-width: 0.8; stroke-linejoin: miter; stroke-linecap: square"/>
   </g>
   <g id="patch_16">
    <path d="M 505.44 499.824 
L 505.44 383.994 
" style="fill: none; stroke: #000000; stroke-width: 0.8; stroke-linejoin: miter; stroke-linecap: square"/>
   </g>
   <g id="patch_17">
    <path d="M 70.2 499.824 
L 505.44 499.824 
" style="fill: none; stroke: #000000; stroke-width: 0.8; stroke-linejoin: miter; stroke-linecap: square"/>
   </g>
   <g id="patch_18">
    <path d="M 70.2 383.994 
L 505.44 383.994 
" style="fill: none; stroke: #000000; stroke-width: 0.8; stroke-linejoin: miter; stroke-linecap: square"/>
   </g>
   <g id="text_42">
    <!-- Panel C: evidence strength vs null -->
    <g transform="translate(185.80125 377.994) scale(0.12 -0.12)">
     <use xlink:href="#DejaVuSans-50"/>
     <use xlink:href="#DejaVuSans-61" transform="translate(55.802734 0)"/>
     <use xlink:href="#DejaVuSans-6e" transform="translate(117.082031 0)"/>
     <use xlink:href="#DejaVuSans-65" transform="translate(180.460938 0)"/>
     <use xlink:href="#DejaVuSans-6c" transform="translate(241.984375 0)"/>
     <use xlink:href="#DejaVuSans-20" transform="translate(269.767578 0)"/>
     <use xlink:href="#DejaVuSans-43" transform="translate(301.554688 0)"/>
     <use xlink:href="#DejaVuSans-3a" transform="translate(371.378906 0)"/>
     <use xlink:href="#DejaVuSans-20" transform="translate(405.070312 0)"/>
     <use xlink:href="#DejaVuSans-65" transform="translate(436.857422 0)"/>
     <use xlink:href="#DejaVuSans-76" transform="translate(498.380859 0)"/>
     <use xlink:href="#DejaVuSans-69" transform="translate(557.560547 0)"/>
     <use xlink:href="#DejaVuSans-64" transform="translate(585.34375 0)"/>
     <use xlink:href="#DejaVuSans-65" transform="translate(648.820312 0)"/>
     <use xlink:href="#DejaVuSans-6e" transform="translate(710.34375 0)"/>
     <use xlink:href="#DejaVuSans-63" transform="translate(773.722656 0)"/>
     <use xlink:href="#DejaVuSans-65" transform="translate(828.703125 0)"/>
     <use xlink:href="#DejaVuSans-20" transform="translate(890.226562 0)"/>
     <use xlink:href="#DejaVuSans-73" transform="translate(922.013672 0)"/>
     <use xlink:href="#DejaVuSans-74" transform="translate(974.113281 0)"/>
     <use xlink:href="#DejaVuSans-72" transform="translate(1013.322266 0)"/>
     <use xlink:href="#DejaVuSans-65" transform="translate(1052.185547 0)"/>
     <use xlink:href="#DejaVuSans-6e" transform="translate(1113.708984 0)"/>
     <use xlink:href="#DejaVuSans-67" transform="translate(1177.087891 0)"/>
     <use xlink:href="#DejaVuSans-74" transform="translate(1240.564453 0)"/>
     <use xlink:href="#DejaVuSans-68" transform="translate(1279.773438 0)"/>
     <use xlink:href="#DejaVuSans-20" transform="translate(1343.152344 0)"/>
     <use xlink:href="#DejaVuSans-76" transform="translate(1374.939453 0)"/>
     <use xlink:href="#DejaVuSans-73" transform="translate(1434.119141 0)"/>
     <use xlink:href="#DejaVuSans-20" transform="translate(1486.21875 0)"/>
     <use xlink:href="#DejaVuSans-6e" transform="translate(1518.005859 0)"/>
     <use xlink:href="#DejaVuSans-75" transform="translate(1581.384766 0)"/>
     <use xlink:href="#DejaVuSans-6c" transform="translate(1644.763672 0)"/>
     <use xlink:href="#DejaVuSans-6c" transform="translate(1672.546875 0)"/>
    </g>
   </g>
   <g id="legend_3">
    <g id="line2d_46">
     <path d="M 79.2 397.092438 
L 89.2 397.092438 
L 99.2 397.092438 
" style="fill: none; stroke: #1f77b4; stroke-width: 2; stroke-linecap: square"/>
    </g>
    <g id="text_43">
     <!-- z(SLIP→SSC) -->
     <g transform="translate(107.2 400.592438) scale(0.1 -0.1)">
      <defs>
       <path id="DejaVuSans-7a" d="M 353 3500 
L 3084 3500 
L 3084 2975 
L 922 459 
L 3084 459 
L 3084 0 
L 275 0 
L 275 525 
L 2438 3041 
L 353 3041 
L 353 3500 
z
" transform="scale(0.015625)"/>
      </defs>
      <use xlink:href="#DejaVuSans-7a"/>
      <use xlink:href="#DejaVuSans-28" transform="translate(52.490234 0)"/>
      <use xlink:href="#DejaVuSans-53" transform="translate(91.503906 0)"/>
      <use xlink:href="#DejaVuSans-4c" transform="translate(154.980469 0)"/>
      <use xlink:href="#DejaVuSans-49" transform="translate(210.693359 0)"/>
      <use xlink:href="#DejaVuSans-50" transform="translate(240.185547 0)"/>
      <use xlink:href="#DejaVuSans-2192" transform="translate(300.488281 0)"/>
      <use xlink:href="#DejaVuSans-53" transform="translate(384.277344 0)"/>
      <use xlink:href="#DejaVuSans-53" transform="translate(447.753906 0)"/>
      <use xlink:href="#DejaVuSans-43" transform="translate(511.230469 0)"/>
      <use xlink:href="#DejaVuSans-29" transform="translate(581.054688 0)"/>
     </g>
    </g>
    <g id="line2d_47">
     <path d="M 79.2 411.770563 
L 89.2 411.770563 
L 99.2 411.770563 
" style="fill: none; stroke: #ff7f0e; stroke-width: 2; stroke-linecap: square"/>
    </g>
    <g id="text_44">
     <!-- z(SSC→SLIP) -->
     <g transform="translate(107.2 415.270563) scale(0.1 -0.1)">
      <use xlink:href="#DejaVuSans-7a"/>
      <use xlink:href="#DejaVuSans-28" transform="translate(52.490234 0)"/>
      <use xlink:href="#DejaVuSans-53" transform="translate(91.503906 0)"/>
      <use xlink:href="#DejaVuSans-53" transform="translate(154.980469 0)"/>
      <use xlink:href="#DejaVuSans-43" transform="translate(218.457031 0)"/>
      <use xlink:href="#DejaVuSans-2192" transform="translate(288.28125 0)"/>
      <use xlink:href="#DejaVuSans-53" transform="translate(372.070312 0)"/>
      <use xlink:href="#DejaVuSans-4c" transform="translate(435.546875 0)"/>
      <use xlink:href="#DejaVuSans-49" transform="translate(491.259766 0)"/>
      <use xlink:href="#DejaVuSans-50" transform="translate(520.751953 0)"/>
      <use xlink:href="#DejaVuSans-29" transform="translate(581.054688 0)"/>
     </g>
    </g>
   </g>
  </g>
 </g>
 <defs>
  <clipPath id="p9a9d22765a">
   <rect x="70.2" y="67.392" width="435.24" height="138.996"/>
  </clipPath>
  <clipPath id="pee0881805a">
   <rect x="70.2" y="237.276" width="435.24" height="115.83"/>
  </clipPath>
  <clipPath id="p941f6436b9">
   <rect x="70.2" y="383.994" width="435.24" height="115.83"/>
  </clipPath>
 </defs>
</svg>
