<?xml version="1.0" encoding="utf-8" standalone="no"?>
<!DOCTYPE svg PUBLIC "-//W3C//DTD SVG 1.1//EN"
  "http://www.w3.org/Graphics/SVG/1.1/DTD/svg11.dtd">
<svg xmlns:xlink="http://www.w3.org/1999/xlink" width="828pt" height="453.6pt" viewBox="0 0 828 453.6" xmlns="http://www.w3.org/2000/svg" version="1.1">
 <metadata>
  <rdf:RDF xmlns:dc="http://purl.org/dc/elements/1.1/" xmlns:cc="http://creativecommons.org/ns#" xmlns:rdf="http://www.w3.org/1999/02/22-rdf-syntax-ns#">
   <cc:Work>
    <dc:type rdf:resource="http://purl.org/dc/dcmitype/StillImage"/>
    <dc:date>2025-12-31T02:50:15.013454</dc:date>
    <dc:format>image/svg+xml</dc:format>
    <dc:creator>
     <cc:Agent>
      <dc:title>Matplotlib v3.9.2, https://matplotlib.org/</dc:title>
     </cc:Agent>
    </dc:creator>
   </cc:Work>
  </rdf:RDF>
 </metadata>
 <defs>
  <style type="text/css">*{stroke-linejoin: round; stroke-linecap: butt}</style>
 </defs>
 <g id="figure_1">
  <g id="patch_1">
   <path d="M 0 453.6 
L 828 453.6 
L 828 0 
L 0 0 
z
" style="fill: #ffffff"/>
  </g>
  <g id="axes_1">
   <g id="patch_2">
    <path d="M 72 396 
L 792 396 
L 792 36 
L 72 36 
z
" style="fill: #ffffff"/>
   </g>
   <g id="PolyCollection_1">
    <path d="M -41.999991 303.006676 
L -41.999991 350.983963 
L -30.000003 344.568511 
L -17.999996 364.295914 
L -6.000008 369.213167 
L 5.999999 315.495785 
L 18.000005 285.98471 
L 29.999994 309.287203 
L 42 336.162437 
L 53.999997 363.205941 
L 66.000004 332.595094 
L 78.000001 302.779179 
L 89.999999 316.327263 
L 101.999996 291.054373 
L 114.000003 357.161823 
L 126 336.874518 
L 137.999998 340.319636 
L 150 333.238393 
L 162 323.488284 
L 174 317.465993 
L 186 310.923652 
L 198 335.724601 
L 210 332.783594 
L 222 344.617207 
L 234 355.708753 
L 246.000002 343.837103 
L 258 297.718671 
L 269.999997 322.972441 
L 282.000004 344.115024 
L 294.000001 350.531791 
L 305.999999 326.806166 
L 317.999996 332.558741 
L 330.000003 308.606563 
L 342 359.063131 
L 354.000006 330.283511 
L 365.999995 339.723048 
L 378.000001 334.103612 
L 390.000008 329.071426 
L 401.999996 307.646998 
L 414.000003 293.00293 
L 425.999991 356.711742 
L 437.999998 295.494523 
L 450.000004 239.405973 
L 461.999993 263.54318 
L 473.999999 281.311932 
L 486.000006 276.283417 
L 497.999994 348.053341 
L 509.999983 293.654005 
L 522.000007 351.692457 
L 533.999996 324.05917 
L 545.999984 357.136043 
L 558.000009 318.912104 
L 569.999997 338.88529 
L 581.999986 351.561867 
L 594.00001 314.099226 
L 605.999999 365.543942 
L 617.999987 357.792624 
L 630.000011 332.703198 
L 642 318.313103 
L 653.999989 361.628857 
L 666.000013 325.390341 
L 678.000001 343.836404 
L 689.99999 321.122349 
L 702.000014 319.416717 
L 714.000003 348.489453 
L 725.999991 291.780379 
L 738.000016 320.772712 
L 750.000004 343.333341 
L 761.999993 342.333491 
L 774.000017 348.158583 
L 786.000006 351.080249 
L 797.999994 326.187828 
L 809.999983 364.577689 
L 821.999971 311.947728 
L 834.000031 359.85417 
L 846.00002 328.527424 
L 858.000009 321.331748 
L 869.999997 370.092334 
L 881.999986 359.842667 
L 893.999974 319.673847 
L 906.000034 369.640769 
L 918.000023 291.326125 
L 930.000011 368.354223 
L 942 348.284616 
L 953.999989 367.654334 
L 965.999977 349.981607 
L 977.999966 341.257018 
L 990.000026 359.197566 
L 1002.000014 353.665302 
L 1014.000003 337.474917 
L 1025.999991 279.975668 
L 1037.99998 321.049421 
L 1049.999969 329.178985 
L 1062.000029 363.739064 
L 1074.000017 340.770332 
L 1086.000006 314.131415 
L 1097.999994 364.815682 
L 1109.999983 343.474046 
L 1121.999971 334.743865 
L 1134.000031 371.141583 
L 1146.00002 372.074325 
L 1146.00002 330.827488 
L 1146.00002 330.827488 
L 1134.000031 335.904107 
L 1121.999971 318.477238 
L 1109.999983 279.438506 
L 1097.999994 333.819478 
L 1086.000006 253.307964 
L 1074.000017 299.280487 
L 1062.000029 337.735091 
L 1049.999969 285.685014 
L 1037.99998 272.836474 
L 1025.999991 187.74339 
L 1014.000003 291.15519 
L 1002.000014 295.167745 
L 990.000026 326.541429 
L 977.999966 296.80142 
L 965.999977 318.034056 
L 953.999989 335.241399 
L 942 313.062249 
L 930.000011 322.748026 
L 918.000023 259.305103 
L 906.000034 294.712167 
L 893.999974 290.462532 
L 881.999986 320.928119 
L 869.999997 323.891317 
L 858.000009 237.875535 
L 846.00002 289.205617 
L 834.000031 304.043429 
L 821.999971 281.674067 
L 809.999983 348.94461 
L 797.999994 256.406584 
L 786.000006 309.85007 
L 774.000017 315.253465 
L 761.999993 303.333448 
L 750.000004 299.389157 
L 738.000016 199.054739 
L 725.999991 277.25923 
L 714.000003 316.405531 
L 702.000014 279.975309 
L 689.99999 271.524795 
L 678.000001 296.267347 
L 666.000013 267.460878 
L 653.999989 336.849728 
L 642 273.596692 
L 630.000011 267.998627 
L 617.999987 318.060816 
L 605.999999 315.946296 
L 594.00001 261.860048 
L 581.999986 320.171657 
L 569.999997 268.837549 
L 558.000009 221.482876 
L 545.999984 306.159409 
L 533.999996 254.866574 
L 522.000007 306.371406 
L 509.999983 169.473432 
L 497.999994 313.953503 
L 486.000006 188.238724 
L 473.999999 189.364395 
L 461.999993 196.125625 
L 450.000004 126.192035 
L 437.999998 179.960518 
L 425.999991 280.025067 
L 414.000003 200.086182 
L 401.999996 246.47866 
L 390.000008 231.079749 
L 378.000001 268.541652 
L 365.999995 279.491858 
L 354.000006 283.858985 
L 342 336.492902 
L 330.000003 272.887963 
L 317.999996 280.397642 
L 305.999999 267.058088 
L 294.000001 310.971779 
L 282.000004 291.95808 
L 269.999997 293.07444 
L 258 206.930233 
L 246.000002 299.138293 
L 234 339.651514 
L 222 294.510275 
L 210 268.078109 
L 198 305.993168 
L 186 261.640782 
L 174 304.57865 
L 162 304.287647 
L 150 283.615993 
L 137.999998 272.497179 
L 126 284.72293 
L 114.000003 324.447348 
L 101.999996 234.88604 
L 89.999999 250.312722 
L 78.000001 262.805995 
L 66.000004 262.987861 
L 53.999997 302.101844 
L 42 294.641289 
L 29.999994 275.64775 
L 18.000005 261.800125 
L 5.999999 271.747762 
L -6.000008 345.906411 
L -17.999996 317.839698 
L -30.000003 254.520263 
L -41.999991 303.006676 
z
" clip-path="url(#p5552e664cc)" style="fill: #1f77b4; fill-opacity: 0.25"/>
   </g>
   <g id="PolyCollection_2">
    <path d="M -41.999991 265.55407 
L -41.999991 296.926271 
L -30.000003 347.427045 
L -17.999996 340.551977 
L -6.000008 279.948817 
L 5.999999 325.707784 
L 18.000005 368.549139 
L 29.999994 338.184521 
L 42 308.540955 
L 53.999997 298.672129 
L 66.000004 358.41375 
L 78.000001 342.407678 
L 89.999999 329.29424 
L 101.999996 308.47656 
L 114.000003 326.677062 
L 126 332.649282 
L 137.999998 344.574989 
L 150 354.335523 
L 162 357.781164 
L 174 354.871691 
L 186 333.809295 
L 198 334.861747 
L 210 368.479869 
L 222 334.023056 
L 234 362.99512 
L 246.000002 339.326029 
L 258 314.469025 
L 269.999997 338.017942 
L 282.000004 336.3095 
L 294.000001 329.602874 
L 305.999999 352.698734 
L 317.999996 346.669467 
L 330.000003 319.82707 
L 342 292.3615 
L 354.000006 344.868172 
L 365.999995 309.537206 
L 378.000001 332.443467 
L 390.000008 349.435193 
L 401.999996 295.219636 
L 414.000003 289.356302 
L 425.999991 271.955037 
L 437.999998 318.129643 
L 450.000004 229.684454 
L 461.999993 280.478841 
L 473.999999 273.566276 
L 486.000006 234.896755 
L 497.999994 306.692226 
L 509.999983 238.866734 
L 522.000007 294.85876 
L 533.999996 243.968994 
L 545.999984 292.353424 
L 558.000009 264.649428 
L 569.999997 269.795905 
L 581.999986 268.234447 
L 594.00001 317.606039 
L 605.999999 313.454498 
L 617.999987 111.516758 
L 630.000011 300.936161 
L 642 297.355788 
L 653.999989 324.230972 
L 666.000013 340.514354 
L 678.000001 324.300032 
L 689.99999 314.467593 
L 702.000014 314.096061 
L 714.000003 320.137873 
L 725.999991 342.610048 
L 738.000016 292.105481 
L 750.000004 306.904939 
L 761.999993 266.804579 
L 774.000017 309.970644 
L 786.000006 320.15106 
L 797.999994 344.140843 
L 809.999983 314.88491 
L 821.999971 318.51344 
L 834.000031 312.089928 
L 846.00002 363.792547 
L 858.000009 361.128721 
L 869.999997 339.793008 
L 881.999986 303.418292 
L 893.999974 337.528381 
L 906.000034 325.957645 
L 918.000023 341.834356 
L 930.000011 365.615033 
L 942 313.749775 
L 953.999989 336.298285 
L 965.999977 344.43552 
L 977.999966 360.821961 
L 990.000026 364.654781 
L 1002.000014 305.029634 
L 1014.000003 333.882755 
L 1025.999991 307.709826 
L 1037.99998 379.636364 
L 1049.999969 362.31176 
L 1062.000029 353.972034 
L 1074.000017 349.980354 
L 1086.000006 344.089258 
L 1097.999994 332.079577 
L 1109.999983 304.290532 
L 1121.999971 276.874091 
L 1134.000031 344.059429 
L 1146.00002 370.366008 
L 1146.00002 290.726648 
L 1146.00002 290.726648 
L 1134.000031 279.400937 
L 1121.999971 209.625141 
L 1109.999983 268.880758 
L 1097.999994 282.320067 
L 1086.000006 298.831493 
L 1074.000017 289.227861 
L 1062.000029 275.479201 
L 1049.999969 305.83274 
L 1037.99998 330.293427 
L 1025.999991 270.081257 
L 1014.000003 303.864412 
L 1002.000014 271.478157 
L 990.000026 350.204474 
L 977.999966 311.744688 
L 965.999977 285.034806 
L 953.999989 271.251708 
L 942 247.330435 
L 930.000011 277.309139 
L 918.000023 230.317722 
L 906.000034 265.792176 
L 893.999974 309.785844 
L 881.999986 271.713204 
L 869.999997 298.23161 
L 858.000009 281.04211 
L 846.00002 326.190345 
L 834.000031 241.834138 
L 821.999971 187.603497 
L 809.999983 210.921076 
L 797.999994 264.866256 
L 786.000006 238.616395 
L 774.000017 243.25638 
L 761.999993 244.34628 
L 750.000004 248.021393 
L 738.000016 196.446681 
L 725.999991 278.792544 
L 714.000003 265.518154 
L 702.000014 146.390891 
L 689.99999 123.225939 
L 678.000001 249.505055 
L 666.000013 293.817978 
L 653.999989 266.618947 
L 642 263.700191 
L 630.000011 251.77653 
L 617.999987 56.52376 
L 605.999999 232.167411 
L 594.00001 240.409963 
L 581.999986 194.891355 
L 569.999997 148.326452 
L 558.000009 194.542524 
L 545.999984 258.990866 
L 533.999996 130.039447 
L 522.000007 146.474553 
L 509.999983 87.083988 
L 497.999994 267.490951 
L 486.000006 115.919913 
L 473.999999 241.823956 
L 461.999993 52.363636 
L 450.000004 157.170569 
L 437.999998 240.236323 
L 425.999991 151.880378 
L 414.000003 221.646134 
L 401.999996 214.613649 
L 390.000008 263.079932 
L 378.000001 283.738105 
L 365.999995 267.649838 
L 354.000006 309.342639 
L 342 241.836135 
L 330.000003 271.749141 
L 317.999996 291.409788 
L 305.999999 275.690635 
L 294.000001 257.373388 
L 282.000004 290.635095 
L 269.999997 282.250507 
L 258 253.521763 
L 246.000002 232.298249 
L 234 324.565336 
L 222 269.494827 
L 210 330.076816 
L 198 275.925476 
L 186 302.490048 
L 174 323.206593 
L 162 315.731501 
L 150 279.496448 
L 137.999998 283.826257 
L 126 274.84941 
L 114.000003 266.242832 
L 101.999996 240.961384 
L 89.999999 263.132516 
L 78.000001 250.345422 
L 66.000004 283.026791 
L 53.999997 253.174686 
L 42 216.75202 
L 29.999994 276.496214 
L 18.000005 318.058075 
L 5.999999 286.157351 
L -6.000008 207.734662 
L -17.999996 255.517296 
L -30.000003 313.599824 
L -41.999991 265.55407 
z
" clip-path="url(#p5552e664cc)" style="fill: #ff7f0e; fill-opacity: 0.25"/>
   </g>
   <g id="matplotlib.axis_1">
    <g id="xtick_1">
     <g id="line2d_1">
      <defs>
       <path id="m8d6e7a8a0a" d="M 0 0 
L 0 3.5 
" style="stroke: #000000; stroke-width: 0.8"/>
      </defs>
      <g>
       <use xlink:href="#m8d6e7a8a0a" x="72" y="396" style="stroke: #000000; stroke-width: 0.8"/>
      </g>
     </g>
     <g id="text_1">
      <!-- −100 -->
      <g transform="translate(50.02625 415.1575) scale(0.16 -0.16)">
       <defs>
        <path id="DejaVuSans-2212" d="M 678 2272 
L 4684 2272 
L 4684 1741 
L 678 1741 
L 678 2272 
z
" transform="scale(0.015625)"/>
        <path id="DejaVuSans-31" d="M 794 531 
L 1825 531 
L 1825 4091 
L 703 3866 
L 703 4441 
L 1819 4666 
L 2450 4666 
L 2450 531 
L 3481 531 
L 3481 0 
L 794 0 
L 794 531 
z
" transform="scale(0.015625)"/>
        <path id="DejaVuSans-30" d="M 2034 4250 
Q 1547 4250 1301 3770 
Q 1056 3291 1056 2328 
Q 1056 1369 1301 889 
Q 1547 409 2034 409 
Q 2525 409 2770 889 
Q 3016 1369 3016 2328 
Q 3016 3291 2770 3770 
Q 2525 4250 2034 4250 
z
M 2034 4750 
Q 2819 4750 3233 4129 
Q 3647 3509 3647 2328 
Q 3647 1150 3233 529 
Q 2819 -91 2034 -91 
Q 1250 -91 836 529 
Q 422 1150 422 2328 
Q 422 3509 836 4129 
Q 1250 4750 2034 4750 
z
" transform="scale(0.015625)"/>
       </defs>
       <use xlink:href="#DejaVuSans-2212"/>
       <use xlink:href="#DejaVuSans-31" x="83.789062"/>
       <use xlink:href="#DejaVuSans-30" x="147.412109"/>
       <use xlink:href="#DejaVuSans-30" x="211.035156"/>
      </g>
     </g>
    </g>
    <g id="xtick_2">
     <g id="line2d_2">
      <g>
       <use xlink:href="#m8d6e7a8a0a" x="192" y="396" style="stroke: #000000; stroke-width: 0.8"/>
      </g>
     </g>
     <g id="text_2">
      <!-- 0 -->
      <g transform="translate(186.91 415.1575) scale(0.16 -0.16)">
       <use xlink:href="#DejaVuSans-30"/>
      </g>
     </g>
    </g>
    <g id="xtick_3">
     <g id="line2d_3">
      <g>
       <use xlink:href="#m8d6e7a8a0a" x="312" y="396" style="stroke: #000000; stroke-width: 0.8"/>
      </g>
     </g>
     <g id="text_3">
      <!-- 100 -->
      <g transform="translate(296.73 415.1575) scale(0.16 -0.16)">
       <use xlink:href="#DejaVuSans-31"/>
       <use xlink:href="#DejaVuSans-30" x="63.623047"/>
       <use xlink:href="#DejaVuSans-30" x="127.246094"/>
      </g>
     </g>
    </g>
    <g id="xtick_4">
     <g id="line2d_4">
      <g>
       <use xlink:href="#m8d6e7a8a0a" x="432" y="396" style="stroke: #000000; stroke-width: 0.8"/>
      </g>
     </g>
     <g id="text_4">
      <!-- 200 -->
      <g transform="translate(416.73 415.1575) scale(0.16 -0.16)">
       <defs>
        <path id="DejaVuSans-32" d="M 1228 531 
L 3431 531 
L 3431 0 
L 469 0 
L 469 531 
Q 828 903 1448 1529 
Q 2069 2156 2228 2338 
Q 2531 2678 2651 2914 
Q 2772 3150 2772 3378 
Q 2772 3750 2511 3984 
Q 2250 4219 1831 4219 
Q 1534 4219 1204 4116 
Q 875 4013 500 3803 
L 500 4441 
Q 881 4594 1212 4672 
Q 1544 4750 1819 4750 
Q 2544 4750 2975 4387 
Q 3406 4025 3406 3419 
Q 3406 3131 3298 2873 
Q 3191 2616 2906 2266 
Q 2828 2175 2409 1742 
Q 1991 1309 1228 531 
z
" transform="scale(0.015625)"/>
       </defs>
       <use xlink:href="#DejaVuSans-32"/>
       <use xlink:href="#DejaVuSans-30" x="63.623047"/>
       <use xlink:href="#DejaVuSans-30" x="127.246094"/>
      </g>
     </g>
    </g>
    <g id="xtick_5">
     <g id="line2d_5">
      <g>
       <use xlink:href="#m8d6e7a8a0a" x="552" y="396" style="stroke: #000000; stroke-width: 0.8"/>
      </g>
     </g>
     <g id="text_5">
      <!-- 300 -->
      <g transform="translate(536.73 415.1575) scale(0.16 -0.16)">
       <defs>
        <path id="DejaVuSans-33" d="M 2597 2516 
Q 3050 2419 3304 2112 
Q 3559 1806 3559 1356 
Q 3559 666 3084 287 
Q 2609 -91 1734 -91 
Q 1441 -91 1130 -33 
Q 819 25 488 141 
L 488 750 
Q 750 597 1062 519 
Q 1375 441 1716 441 
Q 2309 441 2620 675 
Q 2931 909 2931 1356 
Q 2931 1769 2642 2001 
Q 2353 2234 1838 2234 
L 1294 2234 
L 1294 2753 
L 1863 2753 
Q 2328 2753 2575 2939 
Q 2822 3125 2822 3475 
Q 2822 3834 2567 4026 
Q 2313 4219 1838 4219 
Q 1578 4219 1281 4162 
Q 984 4106 628 3988 
L 628 4550 
Q 988 4650 1302 4700 
Q 1616 4750 1894 4750 
Q 2613 4750 3031 4423 
Q 3450 4097 3450 3541 
Q 3450 3153 3228 2886 
Q 3006 2619 2597 2516 
z
" transform="scale(0.015625)"/>
       </defs>
       <use xlink:href="#DejaVuSans-33"/>
       <use xlink:href="#DejaVuSans-30" x="63.623047"/>
       <use xlink:href="#DejaVuSans-30" x="127.246094"/>
      </g>
     </g>
    </g>
    <g id="xtick_6">
     <g id="line2d_6">
      <g>
       <use xlink:href="#m8d6e7a8a0a" x="672" y="396" style="stroke: #000000; stroke-width: 0.8"/>
      </g>
     </g>
     <g id="text_6">
      <!-- 400 -->
      <g transform="translate(656.73 415.1575) scale(0.16 -0.16)">
       <defs>
        <path id="DejaVuSans-34" d="M 2419 4116 
L 825 1625 
L 2419 1625 
L 2419 4116 
z
M 2253 4666 
L 3047 4666 
L 3047 1625 
L 3713 1625 
L 3713 1100 
L 3047 1100 
L 3047 0 
L 2419 0 
L 2419 1100 
L 313 1100 
L 313 1709 
L 2253 4666 
z
" transform="scale(0.015625)"/>
       </defs>
       <use xlink:href="#DejaVuSans-34"/>
       <use xlink:href="#DejaVuSans-30" x="63.623047"/>
       <use xlink:href="#DejaVuSans-30" x="127.246094"/>
      </g>
     </g>
    </g>
    <g id="xtick_7">
     <g id="line2d_7">
      <g>
       <use xlink:href="#m8d6e7a8a0a" x="792" y="396" style="stroke: #000000; stroke-width: 0.8"/>
      </g>
     </g>
     <g id="text_7">
      <!-- 500 -->
      <g transform="translate(776.73 415.1575) scale(0.16 -0.16)">
       <defs>
        <path id="DejaVuSans-35" d="M 691 4666 
L 3169 4666 
L 3169 4134 
L 1269 4134 
L 1269 2991 
Q 1406 3038 1543 3061 
Q 1681 3084 1819 3084 
Q 2600 3084 3056 2656 
Q 3513 2228 3513 1497 
Q 3513 744 3044 326 
Q 2575 -91 1722 -91 
Q 1428 -91 1123 -41 
Q 819 9 494 109 
L 494 744 
Q 775 591 1075 516 
Q 1375 441 1709 441 
Q 2250 441 2565 725 
Q 2881 1009 2881 1497 
Q 2881 1984 2565 2268 
Q 2250 2553 1709 2553 
Q 1456 2553 1204 2497 
Q 953 2441 691 2322 
L 691 4666 
z
" transform="scale(0.015625)"/>
       </defs>
       <use xlink:href="#DejaVuSans-35"/>
       <use xlink:href="#DejaVuSans-30" x="63.623047"/>
       <use xlink:href="#DejaVuSans-30" x="127.246094"/>
      </g>
     </g>
    </g>
    <g id="text_8">
     <!-- Time (ms) -->
     <g transform="translate(386.641406 436.162187) scale(0.18 -0.18)">
      <defs>
       <path id="DejaVuSans-54" d="M -19 4666 
L 3928 4666 
L 3928 4134 
L 2272 4134 
L 2272 0 
L 1638 0 
L 1638 4134 
L -19 4134 
L -19 4666 
z
" transform="scale(0.015625)"/>
       <path id="DejaVuSans-69" d="M 603 3500 
L 1178 3500 
L 1178 0 
L 603 0 
L 603 3500 
z
M 603 4863 
L 1178 4863 
L 1178 4134 
L 603 4134 
L 603 4863 
z
" transform="scale(0.015625)"/>
       <path id="DejaVuSans-6d" d="M 3328 2828 
Q 3544 3216 3844 3400 
Q 4144 3584 4550 3584 
Q 5097 3584 5394 3201 
Q 5691 2819 5691 2113 
L 5691 0 
L 5113 0 
L 5113 2094 
Q 5113 2597 4934 2840 
Q 4756 3084 4391 3084 
Q 3944 3084 3684 2787 
Q 3425 2491 3425 1978 
L 3425 0 
L 2847 0 
L 2847 2094 
Q 2847 2600 2669 2842 
Q 2491 3084 2119 3084 
Q 1678 3084 1418 2786 
Q 1159 2488 1159 1978 
L 1159 0 
L 581 0 
L 581 3500 
L 1159 3500 
L 1159 2956 
Q 1356 3278 1631 3431 
Q 1906 3584 2284 3584 
Q 2666 3584 2933 3390 
Q 3200 3197 3328 2828 
z
" transform="scale(0.015625)"/>
       <path id="DejaVuSans-65" d="M 3597 1894 
L 3597 1613 
L 953 1613 
Q 991 1019 1311 708 
Q 1631 397 2203 397 
Q 2534 397 2845 478 
Q 3156 559 3463 722 
L 3463 178 
Q 3153 47 2828 -22 
Q 2503 -91 2169 -91 
Q 1331 -91 842 396 
Q 353 884 353 1716 
Q 353 2575 817 3079 
Q 1281 3584 2069 3584 
Q 2775 3584 3186 3129 
Q 3597 2675 3597 1894 
z
M 3022 2063 
Q 3016 2534 2758 2815 
Q 2500 3097 2075 3097 
Q 1594 3097 1305 2825 
Q 1016 2553 972 2059 
L 3022 2063 
z
" transform="scale(0.015625)"/>
       <path id="DejaVuSans-20" transform="scale(0.015625)"/>
       <path id="DejaVuSans-28" d="M 1984 4856 
Q 1566 4138 1362 3434 
Q 1159 2731 1159 2009 
Q 1159 1288 1364 580 
Q 1569 -128 1984 -844 
L 1484 -844 
Q 1016 -109 783 600 
Q 550 1309 550 2009 
Q 550 2706 781 3412 
Q 1013 4119 1484 4856 
L 1984 4856 
z
" transform="scale(0.015625)"/>
       <path id="DejaVuSans-73" d="M 2834 3397 
L 2834 2853 
Q 2591 2978 2328 3040 
Q 2066 3103 1784 3103 
Q 1356 3103 1142 2972 
Q 928 2841 928 2578 
Q 928 2378 1081 2264 
Q 1234 2150 1697 2047 
L 1894 2003 
Q 2506 1872 2764 1633 
Q 3022 1394 3022 966 
Q 3022 478 2636 193 
Q 2250 -91 1575 -91 
Q 1294 -91 989 -36 
Q 684 19 347 128 
L 347 722 
Q 666 556 975 473 
Q 1284 391 1588 391 
Q 1994 391 2212 530 
Q 2431 669 2431 922 
Q 2431 1156 2273 1281 
Q 2116 1406 1581 1522 
L 1381 1569 
Q 847 1681 609 1914 
Q 372 2147 372 2553 
Q 372 3047 722 3315 
Q 1072 3584 1716 3584 
Q 2034 3584 2315 3537 
Q 2597 3491 2834 3397 
z
" transform="scale(0.015625)"/>
       <path id="DejaVuSans-29" d="M 513 4856 
L 1013 4856 
Q 1481 4119 1714 3412 
Q 1947 2706 1947 2009 
Q 1947 1309 1714 600 
Q 1481 -109 1013 -844 
L 513 -844 
Q 928 -128 1133 580 
Q 1338 1288 1338 2009 
Q 1338 2731 1133 3434 
Q 928 4138 513 4856 
z
" transform="scale(0.015625)"/>
      </defs>
      <use xlink:href="#DejaVuSans-54"/>
      <use xlink:href="#DejaVuSans-69" x="57.958984"/>
      <use xlink:href="#DejaVuSans-6d" x="85.742188"/>
      <use xlink:href="#DejaVuSans-65" x="183.154297"/>
      <use xlink:href="#DejaVuSans-20" x="244.677734"/>
      <use xlink:href="#DejaVuSans-28" x="276.464844"/>
      <use xlink:href="#DejaVuSans-6d" x="315.478516"/>
      <use xlink:href="#DejaVuSans-73" x="412.890625"/>
      <use xlink:href="#DejaVuSans-29" x="464.990234"/>
     </g>
    </g>
   </g>
   <g id="matplotlib.axis_2">
    <g id="ytick_1">
     <g id="line2d_8">
      <defs>
       <path id="mdfc810b0eb" d="M 0 0 
L -3.5 0 
" style="stroke: #000000; stroke-width: 0.8"/>
      </defs>
      <g>
       <use xlink:href="#mdfc810b0eb" x="72" y="357.061759" style="stroke: #000000; stroke-width: 0.8"/>
      </g>
     </g>
     <g id="text_9">
      <!-- 2 -->
      <g transform="translate(54.82 363.140509) scale(0.16 -0.16)">
       <use xlink:href="#DejaVuSans-32"/>
      </g>
     </g>
    </g>
    <g id="ytick_2">
     <g id="line2d_9">
      <g>
       <use xlink:href="#mdfc810b0eb" x="72" y="304.983365" style="stroke: #000000; stroke-width: 0.8"/>
      </g>
     </g>
     <g id="text_10">
      <!-- 4 -->
      <g transform="translate(54.82 311.062115) scale(0.16 -0.16)">
       <use xlink:href="#DejaVuSans-34"/>
      </g>
     </g>
    </g>
    <g id="ytick_3">
     <g id="line2d_10">
      <g>
       <use xlink:href="#mdfc810b0eb" x="72" y="252.904971" style="stroke: #000000; stroke-width: 0.8"/>
      </g>
     </g>
     <g id="text_11">
      <!-- 6 -->
      <g transform="translate(54.82 258.983721) scale(0.16 -0.16)">
       <defs>
        <path id="DejaVuSans-36" d="M 2113 2584 
Q 1688 2584 1439 2293 
Q 1191 2003 1191 1497 
Q 1191 994 1439 701 
Q 1688 409 2113 409 
Q 2538 409 2786 701 
Q 3034 994 3034 1497 
Q 3034 2003 2786 2293 
Q 2538 2584 2113 2584 
z
M 3366 4563 
L 3366 3988 
Q 3128 4100 2886 4159 
Q 2644 4219 2406 4219 
Q 1781 4219 1451 3797 
Q 1122 3375 1075 2522 
Q 1259 2794 1537 2939 
Q 1816 3084 2150 3084 
Q 2853 3084 3261 2657 
Q 3669 2231 3669 1497 
Q 3669 778 3244 343 
Q 2819 -91 2113 -91 
Q 1303 -91 875 529 
Q 447 1150 447 2328 
Q 447 3434 972 4092 
Q 1497 4750 2381 4750 
Q 2619 4750 2861 4703 
Q 3103 4656 3366 4563 
z
" transform="scale(0.015625)"/>
       </defs>
       <use xlink:href="#DejaVuSans-36"/>
      </g>
     </g>
    </g>
    <g id="ytick_4">
     <g id="line2d_11">
      <g>
       <use xlink:href="#mdfc810b0eb" x="72" y="200.826576" style="stroke: #000000; stroke-width: 0.8"/>
      </g>
     </g>
     <g id="text_12">
      <!-- 8 -->
      <g transform="translate(54.82 206.905326) scale(0.16 -0.16)">
       <defs>
        <path id="DejaVuSans-38" d="M 2034 2216 
Q 1584 2216 1326 1975 
Q 1069 1734 1069 1313 
Q 1069 891 1326 650 
Q 1584 409 2034 409 
Q 2484 409 2743 651 
Q 3003 894 3003 1313 
Q 3003 1734 2745 1975 
Q 2488 2216 2034 2216 
z
M 1403 2484 
Q 997 2584 770 2862 
Q 544 3141 544 3541 
Q 544 4100 942 4425 
Q 1341 4750 2034 4750 
Q 2731 4750 3128 4425 
Q 3525 4100 3525 3541 
Q 3525 3141 3298 2862 
Q 3072 2584 2669 2484 
Q 3125 2378 3379 2068 
Q 3634 1759 3634 1313 
Q 3634 634 3220 271 
Q 2806 -91 2034 -91 
Q 1263 -91 848 271 
Q 434 634 434 1313 
Q 434 1759 690 2068 
Q 947 2378 1403 2484 
z
M 1172 3481 
Q 1172 3119 1398 2916 
Q 1625 2713 2034 2713 
Q 2441 2713 2670 2916 
Q 2900 3119 2900 3481 
Q 2900 3844 2670 4047 
Q 2441 4250 2034 4250 
Q 1625 4250 1398 4047 
Q 1172 3844 1172 3481 
z
" transform="scale(0.015625)"/>
       </defs>
       <use xlink:href="#DejaVuSans-38"/>
      </g>
     </g>
    </g>
    <g id="ytick_5">
     <g id="line2d_12">
      <g>
       <use xlink:href="#mdfc810b0eb" x="72" y="148.748182" style="stroke: #000000; stroke-width: 0.8"/>
      </g>
     </g>
     <g id="text_13">
      <!-- 10 -->
      <g transform="translate(44.64 154.826932) scale(0.16 -0.16)">
       <use xlink:href="#DejaVuSans-31"/>
       <use xlink:href="#DejaVuSans-30" x="63.623047"/>
      </g>
     </g>
    </g>
    <g id="ytick_6">
     <g id="line2d_13">
      <g>
       <use xlink:href="#mdfc810b0eb" x="72" y="96.669788" style="stroke: #000000; stroke-width: 0.8"/>
      </g>
     </g>
     <g id="text_14">
      <!-- 12 -->
      <g transform="translate(44.64 102.748538) scale(0.16 -0.16)">
       <use xlink:href="#DejaVuSans-31"/>
       <use xlink:href="#DejaVuSans-32" x="63.623047"/>
      </g>
     </g>
    </g>
    <g id="ytick_7">
     <g id="line2d_14">
      <g>
       <use xlink:href="#mdfc810b0eb" x="72" y="44.591394" style="stroke: #000000; stroke-width: 0.8"/>
      </g>
     </g>
     <g id="text_15">
      <!-- 14 -->
      <g transform="translate(44.64 50.670144) scale(0.16 -0.16)">
       <use xlink:href="#DejaVuSans-31"/>
       <use xlink:href="#DejaVuSans-34" x="63.623047"/>
      </g>
     </g>
    </g>
    <g id="text_16">
     <!-- ΔLL (bits) -->
     <g transform="translate(36.896563 258.499687) rotate(-90) scale(0.18 -0.18)">
      <defs>
       <path id="DejaVuSans-394" d="M 2188 4044 
L 906 525 
L 3472 525 
L 2188 4044 
z
M 50 0 
L 1831 4666 
L 2547 4666 
L 4325 0 
L 50 0 
z
" transform="scale(0.015625)"/>
       <path id="DejaVuSans-4c" d="M 628 4666 
L 1259 4666 
L 1259 531 
L 3531 531 
L 3531 0 
L 628 0 
L 628 4666 
z
" transform="scale(0.015625)"/>
       <path id="DejaVuSans-62" d="M 3116 1747 
Q 3116 2381 2855 2742 
Q 2594 3103 2138 3103 
Q 1681 3103 1420 2742 
Q 1159 2381 1159 1747 
Q 1159 1113 1420 752 
Q 1681 391 2138 391 
Q 2594 391 2855 752 
Q 3116 1113 3116 1747 
z
M 1159 2969 
Q 1341 3281 1617 3432 
Q 1894 3584 2278 3584 
Q 2916 3584 3314 3078 
Q 3713 2572 3713 1747 
Q 3713 922 3314 415 
Q 2916 -91 2278 -91 
Q 1894 -91 1617 61 
Q 1341 213 1159 525 
L 1159 0 
L 581 0 
L 581 4863 
L 1159 4863 
L 1159 2969 
z
" transform="scale(0.015625)"/>
       <path id="DejaVuSans-74" d="M 1172 4494 
L 1172 3500 
L 2356 3500 
L 2356 3053 
L 1172 3053 
L 1172 1153 
Q 1172 725 1289 603 
Q 1406 481 1766 481 
L 2356 481 
L 2356 0 
L 1766 0 
Q 1100 0 847 248 
Q 594 497 594 1153 
L 594 3053 
L 172 3053 
L 172 3500 
L 594 3500 
L 594 4494 
L 1172 4494 
z
" transform="scale(0.015625)"/>
      </defs>
      <use xlink:href="#DejaVuSans-394"/>
      <use xlink:href="#DejaVuSans-4c" x="68.408203"/>
      <use xlink:href="#DejaVuSans-4c" x="124.121094"/>
      <use xlink:href="#DejaVuSans-20" x="179.833984"/>
      <use xlink:href="#DejaVuSans-28" x="211.621094"/>
      <use xlink:href="#DejaVuSans-62" x="250.634766"/>
      <use xlink:href="#DejaVuSans-69" x="314.111328"/>
      <use xlink:href="#DejaVuSans-74" x="341.894531"/>
      <use xlink:href="#DejaVuSans-73" x="381.103516"/>
      <use xlink:href="#DejaVuSans-29" x="433.203125"/>
     </g>
    </g>
   </g>
   <g id="line2d_15">
    <path d="M 192 396 
L 192 36 
" clip-path="url(#p5552e664cc)" style="fill: none; stroke-dasharray: 2.96,1.28; stroke-dashoffset: 0; stroke: #000000; stroke-width: 0.8"/>
   </g>
   <g id="line2d_16">
    <path d="M -1 330.918922 
L 5.999999 293.621774 
L 18.000005 273.892417 
L 29.999994 292.467477 
L 42 315.401863 
L 53.999997 332.653893 
L 66.000004 297.791478 
L 78.000001 282.792587 
L 89.999999 283.319992 
L 101.999996 262.970206 
L 114.000003 340.804585 
L 126 310.798724 
L 137.999998 306.408408 
L 150 308.427193 
L 162 313.887965 
L 174 311.022322 
L 186 286.282217 
L 198 320.858885 
L 210 300.430852 
L 222 319.563741 
L 234 347.680133 
L 246.000002 321.487698 
L 258 252.324452 
L 269.999997 308.02344 
L 282.000004 318.036552 
L 294.000001 330.751785 
L 305.999999 296.932127 
L 317.999996 306.478191 
L 330.000003 290.747263 
L 342 347.778016 
L 354.000006 307.071248 
L 365.999995 309.607453 
L 378.000001 301.322632 
L 390.000008 280.075587 
L 401.999996 277.062829 
L 414.000003 246.544556 
L 425.999991 318.368405 
L 437.999998 237.72752 
L 450.000004 182.799004 
L 461.999993 229.834403 
L 473.999999 235.338164 
L 486.000006 232.261071 
L 497.999994 331.003422 
L 509.999983 231.563718 
L 522.000007 329.031931 
L 533.999996 289.462872 
L 545.999984 331.647726 
L 558.000009 270.19749 
L 569.999997 303.861419 
L 581.999986 335.866762 
L 594.00001 287.979637 
L 605.999999 340.745119 
L 617.999987 337.92672 
L 630.000011 300.350913 
L 642 295.954898 
L 653.999989 349.239293 
L 666.000013 296.42561 
L 678.000001 320.051876 
L 689.99999 296.323572 
L 702.000014 299.696013 
L 714.000003 332.447492 
L 725.999991 284.519804 
L 738.000016 259.913726 
L 750.000004 321.361249 
L 761.999993 322.83347 
L 774.000017 331.706024 
L 786.000006 330.46516 
L 797.999994 291.297206 
L 809.999983 356.761149 
L 821.999971 296.810898 
L 829 317.307988 
" clip-path="url(#p5552e664cc)" style="fill: none; stroke: #1f77b4; stroke-width: 2; stroke-linecap: square"/>
   </g>
   <g id="line2d_17">
    <path d="M -1 269.712945 
L 5.999999 305.932567 
L 18.000005 343.303607 
L 29.999994 307.340367 
L 42 262.646487 
L 53.999997 275.923408 
L 66.000004 320.72027 
L 78.000001 296.37655 
L 89.999999 296.213378 
L 101.999996 274.718972 
L 114.000003 296.459947 
L 126 303.749346 
L 137.999998 314.200623 
L 150 316.915986 
L 162 336.756333 
L 174 339.039142 
L 186 318.149672 
L 198 305.393611 
L 210 349.278343 
L 222 301.758941 
L 234 343.780228 
L 246.000002 285.812139 
L 258 283.995394 
L 269.999997 310.134225 
L 282.000004 313.472297 
L 294.000001 293.488131 
L 305.999999 314.194685 
L 317.999996 319.039627 
L 330.000003 295.788105 
L 342 267.098817 
L 354.000006 327.105405 
L 365.999995 288.593522 
L 378.000001 308.090786 
L 390.000008 306.257562 
L 401.999996 254.916643 
L 414.000003 255.501218 
L 425.999991 211.917707 
L 437.999998 279.182983 
L 450.000004 193.427512 
L 461.999993 166.421239 
L 473.999999 257.695116 
L 486.000006 175.408334 
L 497.999994 287.091589 
L 509.999983 162.975361 
L 522.000007 220.666656 
L 533.999996 187.00422 
L 545.999984 275.672145 
L 558.000009 229.595976 
L 569.999997 209.061178 
L 581.999986 231.562901 
L 594.00001 279.008001 
L 605.999999 272.810954 
L 617.999987 84.020259 
L 630.000011 276.356345 
L 642 280.52799 
L 653.999989 295.424959 
L 666.000013 317.166166 
L 678.000001 286.902543 
L 689.99999 218.846766 
L 702.000014 230.243476 
L 714.000003 292.828014 
L 725.999991 310.701296 
L 738.000016 244.276081 
L 750.000004 277.463166 
L 761.999993 255.57543 
L 774.000017 276.613512 
L 786.000006 279.383728 
L 797.999994 304.50355 
L 809.999983 262.902993 
L 821.999971 253.058469 
L 829 267.002202 
" clip-path="url(#p5552e664cc)" style="fill: none; stroke: #ff7f0e; stroke-width: 2; stroke-linecap: square"/>
   </g>
   <g id="patch_3">
    <path d="M 72 396 
L 72 36 
" style="fill: none; stroke: #000000; stroke-width: 0.8; stroke-linejoin: miter; stroke-linecap: square"/>
   </g>
   <g id="patch_4">
    <path d="M 792 396 
L 792 36 
" style="fill: none; stroke: #000000; stroke-width: 0.8; stroke-linejoin: miter; stroke-linecap: square"/>
   </g>
   <g id="patch_5">
    <path d="M 72 396 
L 792 396 
" style="fill: none; stroke: #000000; stroke-width: 0.8; stroke-linejoin: miter; stroke-linecap: square"/>
   </g>
   <g id="patch_6">
    <path d="M 72 36 
L 792 36 
" style="fill: none; stroke: #000000; stroke-width: 0.8; stroke-linejoin: miter; stroke-linecap: square"/>
   </g>
   <g id="legend_1">
    <g id="line2d_18">
     <path d="M 85.5 55.647656 
L 100.5 55.647656 
L 115.5 55.647656 
" style="fill: none; stroke: #1f77b4; stroke-width: 2; stroke-linecap: square"/>
    </g>
    <g id="text_17">
     <!-- SSC→SFEF -->
     <g transform="translate(127.5 60.897656) scale(0.15 -0.15)">
      <defs>
       <path id="DejaVuSans-53" d="M 3425 4513 
L 3425 3897 
Q 3066 4069 2747 4153 
Q 2428 4238 2131 4238 
Q 1616 4238 1336 4038 
Q 1056 3838 1056 3469 
Q 1056 3159 1242 3001 
Q 1428 2844 1947 2747 
L 2328 2669 
Q 3034 2534 3370 2195 
Q 3706 1856 3706 1288 
Q 3706 609 3251 259 
Q 2797 -91 1919 -91 
Q 1588 -91 1214 -16 
Q 841 59 441 206 
L 441 856 
Q 825 641 1194 531 
Q 1563 422 1919 422 
Q 2459 422 2753 634 
Q 3047 847 3047 1241 
Q 3047 1584 2836 1778 
Q 2625 1972 2144 2069 
L 1759 2144 
Q 1053 2284 737 2584 
Q 422 2884 422 3419 
Q 422 4038 858 4394 
Q 1294 4750 2059 4750 
Q 2388 4750 2728 4690 
Q 3069 4631 3425 4513 
z
" transform="scale(0.015625)"/>
       <path id="DejaVuSans-43" d="M 4122 4306 
L 4122 3641 
Q 3803 3938 3442 4084 
Q 3081 4231 2675 4231 
Q 1875 4231 1450 3742 
Q 1025 3253 1025 2328 
Q 1025 1406 1450 917 
Q 1875 428 2675 428 
Q 3081 428 3442 575 
Q 3803 722 4122 1019 
L 4122 359 
Q 3791 134 3420 21 
Q 3050 -91 2638 -91 
Q 1578 -91 968 557 
Q 359 1206 359 2328 
Q 359 3453 968 4101 
Q 1578 4750 2638 4750 
Q 3056 4750 3426 4639 
Q 3797 4528 4122 4306 
z
" transform="scale(0.015625)"/>
       <path id="DejaVuSans-2192" d="M 5050 2147 
L 5050 1866 
L 3822 638 
L 3447 1013 
L 4175 1741 
L 366 1741 
L 366 2272 
L 4175 2272 
L 3447 3000 
L 3822 3375 
L 5050 2147 
z
" transform="scale(0.015625)"/>
       <path id="DejaVuSans-46" d="M 628 4666 
L 3309 4666 
L 3309 4134 
L 1259 4134 
L 1259 2759 
L 3109 2759 
L 3109 2228 
L 1259 2228 
L 1259 0 
L 628 0 
L 628 4666 
z
" transform="scale(0.015625)"/>
       <path id="DejaVuSans-45" d="M 628 4666 
L 3578 4666 
L 3578 4134 
L 1259 4134 
L 1259 2753 
L 3481 2753 
L 3481 2222 
L 1259 2222 
L 1259 531 
L 3634 531 
L 3634 0 
L 628 0 
L 628 4666 
z
" transform="scale(0.015625)"/>
      </defs>
      <use xlink:href="#DejaVuSans-53"/>
      <use xlink:href="#DejaVuSans-53" x="63.476562"/>
      <use xlink:href="#DejaVuSans-43" x="126.953125"/>
      <use xlink:href="#DejaVuSans-2192" x="196.777344"/>
      <use xlink:href="#DejaVuSans-53" x="280.566406"/>
      <use xlink:href="#DejaVuSans-46" x="344.042969"/>
      <use xlink:href="#DejaVuSans-45" x="401.5625"/>
      <use xlink:href="#DejaVuSans-46" x="464.746094"/>
     </g>
    </g>
    <g id="line2d_19">
     <path d="M 85.5 77.664844 
L 100.5 77.664844 
L 115.5 77.664844 
" style="fill: none; stroke: #ff7f0e; stroke-width: 2; stroke-linecap: square"/>
    </g>
    <g id="text_18">
     <!-- SFEF→SSC -->
     <g transform="translate(127.5 82.914844) scale(0.15 -0.15)">
      <use xlink:href="#DejaVuSans-53"/>
      <use xlink:href="#DejaVuSans-46" x="63.476562"/>
      <use xlink:href="#DejaVuSans-45" x="120.996094"/>
      <use xlink:href="#DejaVuSans-46" x="184.179688"/>
      <use xlink:href="#DejaVuSans-2192" x="241.699219"/>
      <use xlink:href="#DejaVuSans-53" x="325.488281"/>
      <use xlink:href="#DejaVuSans-53" x="388.964844"/>
      <use xlink:href="#DejaVuSans-43" x="452.441406"/>
     </g>
    </g>
   </g>
  </g>
 </g>
 <defs>
  <clipPath id="p5552e664cc">
   <rect x="72" y="36" width="720" height="360"/>
  </clipPath>
 </defs>
</svg>
