<?xml version="1.0" encoding="utf-8" standalone="no"?>
<!DOCTYPE svg PUBLIC "-//W3C//DTD SVG 1.1//EN"
  "http://www.w3.org/Graphics/SVG/1.1/DTD/svg11.dtd">
<svg xmlns:xlink="http://www.w3.org/1999/xlink" width="856.8pt" height="453.6pt" viewBox="0 0 856.8 453.6" xmlns="http://www.w3.org/2000/svg" version="1.1">
 <metadata>
  <rdf:RDF xmlns:dc="http://purl.org/dc/elements/1.1/" xmlns:cc="http://creativecommons.org/ns#" xmlns:rdf="http://www.w3.org/1999/02/22-rdf-syntax-ns#">
   <cc:Work>
    <dc:type rdf:resource="http://purl.org/dc/dcmitype/StillImage"/>
    <dc:date>2026-01-28T21:14:26.560302</dc:date>
    <dc:format>image/svg+xml</dc:format>
    <dc:creator>
     <cc:Agent>
      <dc:title>Matplotlib v3.10.5, https://matplotlib.org/</dc:title>
     </cc:Agent>
    </dc:creator>
   </cc:Work>
  </rdf:RDF>
 </metadata>
 <defs>
  <style type="text/css">*{stroke-linejoin: round; stroke-linecap: butt}</style>
 </defs>
 <g id="figure_1">
  <g id="patch_1">
   <path d="M 0 453.6 
L 856.8 453.6 
L 856.8 0 
L 0 0 
z
" style="fill: #ffffff"/>
  </g>
  <g id="axes_1">
   <g id="patch_2">
    <path d="M 100.8 396 
L 820.8 396 
L 820.8 36 
L 100.8 36 
z
" style="fill: #ffffff"/>
   </g>
   <g id="FillBetweenPolyCollection_1">
    <path d="M -19.199995 327.976191 
L -19.199995 379.636364 
L -7.199997 359.413322 
L 4.8 329.463896 
L 16.799998 305.83173 
L 28.799995 317.704268 
L 40.800002 328.528113 
L 52.799999 318.092368 
L 64.799997 290.754505 
L 76.799999 309.25681 
L 88.800001 308.142029 
L 100.800003 312.625057 
L 112.8 292.666709 
L 124.799998 302.845161 
L 136.8 316.105694 
L 148.800002 326.159253 
L 160.799999 332.233243 
L 172.799999 315.958852 
L 184.8 340.53258 
L 196.8 329.283762 
L 208.8 321.910567 
L 220.8 299.536751 
L 232.8 299.204768 
L 244.8 318.481778 
L 256.8 323.194876 
L 268.800001 334.838875 
L 280.800001 325.304997 
L 292.799998 328.373931 
L 304.8 327.067955 
L 316.800002 320.376142 
L 328.8 316.339433 
L 340.799997 299.6548 
L 352.799999 307.098071 
L 364.800001 295.825563 
L 376.800003 322.842116 
L 388.800001 321.088399 
L 400.799998 334.422094 
L 412.800005 310.576456 
L 424.800002 295.278261 
L 436.8 286.673475 
L 448.799997 291.172246 
L 460.799995 284.71069 
L 472.800001 258.054842 
L 484.799999 239.07549 
L 496.799996 234.40712 
L 508.800003 237.512331 
L 520.8 248.222263 
L 532.799989 252.770451 
L 544.799995 245.268693 
L 556.800001 265.614461 
L 568.79999 278.483612 
L 580.799996 301.99953 
L 592.800003 276.359123 
L 604.799991 265.363868 
L 616.799998 248.838854 
L 628.800004 237.050287 
L 640.799993 235.564335 
L 652.799999 232.513938 
L 664.800006 228.610422 
L 676.799994 254.571912 
L 688.800001 238.54398 
L 700.800007 244.602475 
L 712.799996 226.055283 
L 724.800002 256.811749 
L 736.800009 245.511187 
L 748.799997 239.387465 
L 760.800004 231.552724 
L 772.80001 250.648391 
L 784.799999 246.116455 
L 796.800005 262.016836 
L 808.800011 258.544736 
L 820.8 273.060552 
L 832.799989 276.048531 
L 844.799977 312.615363 
L 856.800001 318.838575 
L 868.800026 300.273078 
L 880.800014 287.725535 
L 892.800003 281.182106 
L 904.799991 291.354647 
L 916.79998 289.318163 
L 928.800004 308.320761 
L 940.800029 307.291746 
L 952.800017 302.072107 
L 964.800006 319.508744 
L 976.799994 326.366946 
L 988.799983 312.848682 
L 1000.799971 268.72261 
L 1012.799996 253.411532 
L 1024.80002 271.952266 
L 1036.800009 295.986877 
L 1048.799997 301.42171 
L 1060.799986 318.103878 
L 1072.799974 306.408193 
L 1084.799999 302.971726 
L 1096.800023 282.498385 
L 1108.800011 282.141363 
L 1120.8 311.606698 
L 1132.799989 320.18973 
L 1144.799977 332.71855 
L 1156.800001 331.208973 
L 1168.800026 339.222956 
L 1168.800026 243.879361 
L 1168.800026 243.879361 
L 1156.800001 211.790018 
L 1144.799977 210.261704 
L 1132.799989 205.519384 
L 1120.8 242.966044 
L 1108.800011 120.597771 
L 1096.800023 119.03584 
L 1084.799999 102.55383 
L 1072.799974 166.751883 
L 1060.799986 179.234247 
L 1048.799997 180.448526 
L 1036.800009 215.99627 
L 1024.80002 175.460034 
L 1012.799996 164.223102 
L 1000.799971 161.74769 
L 988.799983 219.420118 
L 976.799994 214.804113 
L 964.800006 153.582589 
L 952.800017 136.256297 
L 940.800029 168.337979 
L 928.800004 217.320947 
L 916.79998 212.395813 
L 904.799991 137.458631 
L 892.800003 148.375292 
L 880.800014 159.867147 
L 868.800026 241.341385 
L 856.800001 256.943432 
L 844.799977 227.885301 
L 832.799989 190.327755 
L 820.8 169.49876 
L 808.800011 123.226875 
L 796.800005 100.594619 
L 784.799999 52.363636 
L 772.80001 89.779987 
L 760.800004 78.189076 
L 748.799997 130.20429 
L 736.800009 128.291562 
L 724.800002 150.18724 
L 712.799996 85.206334 
L 700.800007 117.014692 
L 688.800001 101.597127 
L 676.799994 100.315244 
L 664.800006 59.575244 
L 652.799999 67.238931 
L 640.799993 114.184859 
L 628.800004 124.628751 
L 616.799998 137.321997 
L 604.799991 135.549237 
L 592.800003 156.02067 
L 580.799996 175.696499 
L 568.79999 151.263572 
L 556.800001 150.506638 
L 544.799995 131.313353 
L 532.799989 157.339932 
L 520.8 114.404516 
L 508.800003 106.537465 
L 496.799996 114.25595 
L 484.799999 139.713572 
L 472.800001 162.986844 
L 460.799995 188.217998 
L 448.799997 200.000645 
L 436.8 217.816516 
L 424.800002 213.645811 
L 412.800005 238.693998 
L 400.799998 234.675679 
L 388.800001 247.471602 
L 376.800003 234.597892 
L 364.800001 207.04356 
L 352.799999 203.316875 
L 340.799997 211.750096 
L 328.8 249.799907 
L 316.800002 250.862573 
L 304.8 256.68896 
L 292.799998 255.807119 
L 280.800001 261.731366 
L 268.800001 261.315552 
L 256.8 231.352898 
L 244.8 233.988902 
L 232.8 205.768691 
L 220.8 234.286848 
L 208.8 242.922054 
L 196.8 281.188292 
L 184.8 278.160263 
L 172.799999 263.982128 
L 160.799999 256.085868 
L 148.800002 233.930276 
L 136.8 210.306504 
L 124.799998 185.439215 
L 112.8 188.305086 
L 100.800003 202.696735 
L 88.800001 217.379611 
L 76.799999 219.639128 
L 64.799997 198.18864 
L 52.799999 224.281595 
L 40.800002 213.992861 
L 28.799995 223.095246 
L 16.799998 218.786531 
L 4.8 271.400596 
L -7.199997 301.564919 
L -19.199995 327.976191 
z
" clip-path="url(#p276ac4881e)" style="fill: #0e87cc; fill-opacity: 0.25"/>
   </g>
   <g id="FillBetweenPolyCollection_2">
    <path d="M -19.199995 263.090788 
L -19.199995 305.158228 
L -7.199997 284.850375 
L 4.8 301.935014 
L 16.799998 279.960129 
L 28.799995 307.591991 
L 40.800002 296.806401 
L 52.799999 324.997957 
L 64.799997 318.165922 
L 76.799999 334.954965 
L 88.800001 312.529128 
L 100.800003 331.117535 
L 112.8 314.20224 
L 124.799998 346.324952 
L 136.8 329.316284 
L 148.800002 312.915528 
L 160.799999 291.097857 
L 172.799999 286.526025 
L 184.8 307.011948 
L 196.8 330.683566 
L 208.8 337.180453 
L 220.8 321.574082 
L 232.8 307.081401 
L 244.8 310.119031 
L 256.8 314.20765 
L 268.800001 300.90232 
L 280.800001 286.853662 
L 292.799998 280.322825 
L 304.8 292.66455 
L 316.800002 283.595438 
L 328.8 292.049597 
L 340.799997 291.980131 
L 352.799999 296.847486 
L 364.800001 321.212023 
L 376.800003 333.105962 
L 388.800001 317.287891 
L 400.799998 301.997193 
L 412.800005 278.138412 
L 424.800002 312.747919 
L 436.8 290.993404 
L 448.799997 296.463057 
L 460.799995 269.669523 
L 472.800001 281.773011 
L 484.799999 292.106341 
L 496.799996 291.943487 
L 508.800003 279.534644 
L 520.8 259.573714 
L 532.799989 270.158938 
L 544.799995 301.876225 
L 556.800001 313.772391 
L 568.79999 308.957334 
L 580.799996 274.594039 
L 592.800003 266.998206 
L 604.799991 259.534069 
L 616.799998 280.24382 
L 628.800004 278.869689 
L 640.799993 297.271146 
L 652.799999 268.888019 
L 664.800006 266.093708 
L 676.799994 265.885279 
L 688.800001 299.468016 
L 700.800007 314.30552 
L 712.799996 323.990103 
L 724.800002 330.440435 
L 736.800009 322.638168 
L 748.799997 318.875203 
L 760.800004 301.35212 
L 772.80001 304.450819 
L 784.799999 284.977223 
L 796.800005 283.730856 
L 808.800011 294.526637 
L 820.8 305.81179 
L 832.799989 322.486066 
L 844.799977 312.204107 
L 856.800001 305.495066 
L 868.800026 314.996184 
L 880.800014 303.174258 
L 892.800003 300.119277 
L 904.799991 299.631384 
L 916.79998 321.132732 
L 928.800004 350.660577 
L 940.800029 284.684743 
L 952.800017 275.325257 
L 964.800006 251.415299 
L 976.799994 309.6676 
L 988.799983 317.318439 
L 1000.799971 343.401343 
L 1012.799996 328.107449 
L 1024.80002 336.977482 
L 1036.800009 298.213242 
L 1048.799997 304.467671 
L 1060.799986 285.013223 
L 1072.799974 309.154993 
L 1084.799999 317.396012 
L 1096.800023 303.351637 
L 1108.800011 269.69975 
L 1120.8 267.272752 
L 1132.799989 293.90354 
L 1144.799977 342.370982 
L 1156.800001 310.502951 
L 1168.800026 302.86825 
L 1168.800026 178.910709 
L 1168.800026 178.910709 
L 1156.800001 204.372767 
L 1144.799977 263.877527 
L 1132.799989 195.643519 
L 1120.8 170.556321 
L 1108.800011 179.93531 
L 1096.800023 234.172999 
L 1084.799999 257.193813 
L 1072.799974 219.545284 
L 1060.799986 196.446396 
L 1048.799997 192.122675 
L 1036.800009 216.557421 
L 1024.80002 262.304702 
L 1012.799996 265.497003 
L 1000.799971 271.548385 
L 988.799983 220.813187 
L 976.799994 224.544812 
L 964.800006 114.632979 
L 952.800017 164.733362 
L 940.800029 164.877242 
L 928.800004 248.158291 
L 916.79998 208.554496 
L 904.799991 166.46731 
L 892.800003 202.243227 
L 880.800014 214.344316 
L 868.800026 242.14768 
L 856.800001 234.014665 
L 844.799977 239.414141 
L 832.799989 261.04696 
L 820.8 236.916224 
L 808.800011 233.563805 
L 796.800005 211.529462 
L 784.799999 229.670691 
L 772.80001 251.094964 
L 760.800004 254.414802 
L 748.799997 268.816806 
L 736.800009 251.736563 
L 724.800002 249.266524 
L 712.799996 237.134805 
L 700.800007 234.967709 
L 688.800001 216.481301 
L 676.799994 173.267505 
L 664.800006 172.835171 
L 652.799999 187.654765 
L 640.799993 164.508837 
L 628.800004 142.034018 
L 616.799998 136.924612 
L 604.799991 169.19676 
L 592.800003 177.862462 
L 580.799996 189.245468 
L 568.79999 231.74083 
L 556.800001 219.131821 
L 544.799995 207.798595 
L 532.799989 157.164753 
L 520.8 162.896491 
L 508.800003 179.830933 
L 496.799996 211.461822 
L 484.799999 171.58543 
L 472.800001 169.393432 
L 460.799995 131.970358 
L 448.799997 182.634499 
L 436.8 181.621454 
L 424.800002 179.901045 
L 412.800005 174.375418 
L 400.799998 188.909424 
L 388.800001 251.782272 
L 376.800003 187.135064 
L 364.800001 176.789235 
L 352.799999 129.531157 
L 340.799997 194.101204 
L 328.8 186.727913 
L 316.800002 190.544711 
L 304.8 202.445291 
L 292.799998 197.640282 
L 280.800001 193.682264 
L 268.800001 219.463325 
L 256.8 238.461634 
L 244.8 227.964505 
L 232.8 197.113799 
L 220.8 202.926945 
L 208.8 239.333354 
L 196.8 248.982574 
L 184.8 221.385484 
L 172.799999 201.585283 
L 160.799999 201.072285 
L 148.800002 236.751246 
L 136.8 256.600292 
L 124.799998 272.009237 
L 112.8 229.215231 
L 100.800003 233.14816 
L 88.800001 222.123987 
L 76.799999 235.892312 
L 64.799997 238.821562 
L 52.799999 245.700098 
L 40.800002 211.638171 
L 28.799995 226.400048 
L 16.799998 164.584166 
L 4.8 213.521426 
L -7.199997 173.948779 
L -19.199995 263.090788 
z
" clip-path="url(#p276ac4881e)" style="fill: #c00a37; fill-opacity: 0.25"/>
   </g>
   <g id="matplotlib.axis_1">
    <g id="xtick_1">
     <g id="line2d_1">
      <defs>
       <path id="m0508f5dfc4" d="M 0 0 
L 0 3.5 
" style="stroke: #000000; stroke-width: 0.8"/>
      </defs>
      <g>
       <use xlink:href="#m0508f5dfc4" x="100.8" y="396" style="stroke: #000000; stroke-width: 0.8"/>
      </g>
     </g>
     <g id="text_1">
      <!-- −100 -->
      <g transform="translate(78.82625 415.1575) scale(0.16 -0.16)">
       <defs>
        <path id="DejaVuSans-2212" d="M 678 2272 
L 4684 2272 
L 4684 1741 
L 678 1741 
L 678 2272 
z
" transform="scale(0.015625)"/>
        <path id="DejaVuSans-31" d="M 794 531 
L 1825 531 
L 1825 4091 
L 703 3866 
L 703 4441 
L 1819 4666 
L 2450 4666 
L 2450 531 
L 3481 531 
L 3481 0 
L 794 0 
L 794 531 
z
" transform="scale(0.015625)"/>
        <path id="DejaVuSans-30" d="M 2034 4250 
Q 1547 4250 1301 3770 
Q 1056 3291 1056 2328 
Q 1056 1369 1301 889 
Q 1547 409 2034 409 
Q 2525 409 2770 889 
Q 3016 1369 3016 2328 
Q 3016 3291 2770 3770 
Q 2525 4250 2034 4250 
z
M 2034 4750 
Q 2819 4750 3233 4129 
Q 3647 3509 3647 2328 
Q 3647 1150 3233 529 
Q 2819 -91 2034 -91 
Q 1250 -91 836 529 
Q 422 1150 422 2328 
Q 422 3509 836 4129 
Q 1250 4750 2034 4750 
z
" transform="scale(0.015625)"/>
       </defs>
       <use xlink:href="#DejaVuSans-2212"/>
       <use xlink:href="#DejaVuSans-31" transform="translate(83.789062 0)"/>
       <use xlink:href="#DejaVuSans-30" transform="translate(147.412109 0)"/>
       <use xlink:href="#DejaVuSans-30" transform="translate(211.035156 0)"/>
      </g>
     </g>
    </g>
    <g id="xtick_2">
     <g id="line2d_2">
      <g>
       <use xlink:href="#m0508f5dfc4" x="220.8" y="396" style="stroke: #000000; stroke-width: 0.8"/>
      </g>
     </g>
     <g id="text_2">
      <!-- 0 -->
      <g transform="translate(215.71 415.1575) scale(0.16 -0.16)">
       <use xlink:href="#DejaVuSans-30"/>
      </g>
     </g>
    </g>
    <g id="xtick_3">
     <g id="line2d_3">
      <g>
       <use xlink:href="#m0508f5dfc4" x="340.8" y="396" style="stroke: #000000; stroke-width: 0.8"/>
      </g>
     </g>
     <g id="text_3">
      <!-- 100 -->
      <g transform="translate(325.53 415.1575) scale(0.16 -0.16)">
       <use xlink:href="#DejaVuSans-31"/>
       <use xlink:href="#DejaVuSans-30" transform="translate(63.623047 0)"/>
       <use xlink:href="#DejaVuSans-30" transform="translate(127.246094 0)"/>
      </g>
     </g>
    </g>
    <g id="xtick_4">
     <g id="line2d_4">
      <g>
       <use xlink:href="#m0508f5dfc4" x="460.8" y="396" style="stroke: #000000; stroke-width: 0.8"/>
      </g>
     </g>
     <g id="text_4">
      <!-- 200 -->
      <g transform="translate(445.53 415.1575) scale(0.16 -0.16)">
       <defs>
        <path id="DejaVuSans-32" d="M 1228 531 
L 3431 531 
L 3431 0 
L 469 0 
L 469 531 
Q 828 903 1448 1529 
Q 2069 2156 2228 2338 
Q 2531 2678 2651 2914 
Q 2772 3150 2772 3378 
Q 2772 3750 2511 3984 
Q 2250 4219 1831 4219 
Q 1534 4219 1204 4116 
Q 875 4013 500 3803 
L 500 4441 
Q 881 4594 1212 4672 
Q 1544 4750 1819 4750 
Q 2544 4750 2975 4387 
Q 3406 4025 3406 3419 
Q 3406 3131 3298 2873 
Q 3191 2616 2906 2266 
Q 2828 2175 2409 1742 
Q 1991 1309 1228 531 
z
" transform="scale(0.015625)"/>
       </defs>
       <use xlink:href="#DejaVuSans-32"/>
       <use xlink:href="#DejaVuSans-30" transform="translate(63.623047 0)"/>
       <use xlink:href="#DejaVuSans-30" transform="translate(127.246094 0)"/>
      </g>
     </g>
    </g>
    <g id="xtick_5">
     <g id="line2d_5">
      <g>
       <use xlink:href="#m0508f5dfc4" x="580.8" y="396" style="stroke: #000000; stroke-width: 0.8"/>
      </g>
     </g>
     <g id="text_5">
      <!-- 300 -->
      <g transform="translate(565.53 415.1575) scale(0.16 -0.16)">
       <defs>
        <path id="DejaVuSans-33" d="M 2597 2516 
Q 3050 2419 3304 2112 
Q 3559 1806 3559 1356 
Q 3559 666 3084 287 
Q 2609 -91 1734 -91 
Q 1441 -91 1130 -33 
Q 819 25 488 141 
L 488 750 
Q 750 597 1062 519 
Q 1375 441 1716 441 
Q 2309 441 2620 675 
Q 2931 909 2931 1356 
Q 2931 1769 2642 2001 
Q 2353 2234 1838 2234 
L 1294 2234 
L 1294 2753 
L 1863 2753 
Q 2328 2753 2575 2939 
Q 2822 3125 2822 3475 
Q 2822 3834 2567 4026 
Q 2313 4219 1838 4219 
Q 1578 4219 1281 4162 
Q 984 4106 628 3988 
L 628 4550 
Q 988 4650 1302 4700 
Q 1616 4750 1894 4750 
Q 2613 4750 3031 4423 
Q 3450 4097 3450 3541 
Q 3450 3153 3228 2886 
Q 3006 2619 2597 2516 
z
" transform="scale(0.015625)"/>
       </defs>
       <use xlink:href="#DejaVuSans-33"/>
       <use xlink:href="#DejaVuSans-30" transform="translate(63.623047 0)"/>
       <use xlink:href="#DejaVuSans-30" transform="translate(127.246094 0)"/>
      </g>
     </g>
    </g>
    <g id="xtick_6">
     <g id="line2d_6">
      <g>
       <use xlink:href="#m0508f5dfc4" x="700.8" y="396" style="stroke: #000000; stroke-width: 0.8"/>
      </g>
     </g>
     <g id="text_6">
      <!-- 400 -->
      <g transform="translate(685.53 415.1575) scale(0.16 -0.16)">
       <defs>
        <path id="DejaVuSans-34" d="M 2419 4116 
L 825 1625 
L 2419 1625 
L 2419 4116 
z
M 2253 4666 
L 3047 4666 
L 3047 1625 
L 3713 1625 
L 3713 1100 
L 3047 1100 
L 3047 0 
L 2419 0 
L 2419 1100 
L 313 1100 
L 313 1709 
L 2253 4666 
z
" transform="scale(0.015625)"/>
       </defs>
       <use xlink:href="#DejaVuSans-34"/>
       <use xlink:href="#DejaVuSans-30" transform="translate(63.623047 0)"/>
       <use xlink:href="#DejaVuSans-30" transform="translate(127.246094 0)"/>
      </g>
     </g>
    </g>
    <g id="xtick_7">
     <g id="line2d_7">
      <g>
       <use xlink:href="#m0508f5dfc4" x="820.8" y="396" style="stroke: #000000; stroke-width: 0.8"/>
      </g>
     </g>
     <g id="text_7">
      <!-- 500 -->
      <g transform="translate(805.53 415.1575) scale(0.16 -0.16)">
       <defs>
        <path id="DejaVuSans-35" d="M 691 4666 
L 3169 4666 
L 3169 4134 
L 1269 4134 
L 1269 2991 
Q 1406 3038 1543 3061 
Q 1681 3084 1819 3084 
Q 2600 3084 3056 2656 
Q 3513 2228 3513 1497 
Q 3513 744 3044 326 
Q 2575 -91 1722 -91 
Q 1428 -91 1123 -41 
Q 819 9 494 109 
L 494 744 
Q 775 591 1075 516 
Q 1375 441 1709 441 
Q 2250 441 2565 725 
Q 2881 1009 2881 1497 
Q 2881 1984 2565 2268 
Q 2250 2553 1709 2553 
Q 1456 2553 1204 2497 
Q 953 2441 691 2322 
L 691 4666 
z
" transform="scale(0.015625)"/>
       </defs>
       <use xlink:href="#DejaVuSans-35"/>
       <use xlink:href="#DejaVuSans-30" transform="translate(63.623047 0)"/>
       <use xlink:href="#DejaVuSans-30" transform="translate(127.246094 0)"/>
      </g>
     </g>
    </g>
    <g id="text_8">
     <!-- Time from Stimulus Onset (ms) -->
     <g transform="translate(320.273438 436.162187) scale(0.18 -0.18)">
      <defs>
       <path id="DejaVuSans-54" d="M -19 4666 
L 3928 4666 
L 3928 4134 
L 2272 4134 
L 2272 0 
L 1638 0 
L 1638 4134 
L -19 4134 
L -19 4666 
z
" transform="scale(0.015625)"/>
       <path id="DejaVuSans-69" d="M 603 3500 
L 1178 3500 
L 1178 0 
L 603 0 
L 603 3500 
z
M 603 4863 
L 1178 4863 
L 1178 4134 
L 603 4134 
L 603 4863 
z
" transform="scale(0.015625)"/>
       <path id="DejaVuSans-6d" d="M 3328 2828 
Q 3544 3216 3844 3400 
Q 4144 3584 4550 3584 
Q 5097 3584 5394 3201 
Q 5691 2819 5691 2113 
L 5691 0 
L 5113 0 
L 5113 2094 
Q 5113 2597 4934 2840 
Q 4756 3084 4391 3084 
Q 3944 3084 3684 2787 
Q 3425 2491 3425 1978 
L 3425 0 
L 2847 0 
L 2847 2094 
Q 2847 2600 2669 2842 
Q 2491 3084 2119 3084 
Q 1678 3084 1418 2786 
Q 1159 2488 1159 1978 
L 1159 0 
L 581 0 
L 581 3500 
L 1159 3500 
L 1159 2956 
Q 1356 3278 1631 3431 
Q 1906 3584 2284 3584 
Q 2666 3584 2933 3390 
Q 3200 3197 3328 2828 
z
" transform="scale(0.015625)"/>
       <path id="DejaVuSans-65" d="M 3597 1894 
L 3597 1613 
L 953 1613 
Q 991 1019 1311 708 
Q 1631 397 2203 397 
Q 2534 397 2845 478 
Q 3156 559 3463 722 
L 3463 178 
Q 3153 47 2828 -22 
Q 2503 -91 2169 -91 
Q 1331 -91 842 396 
Q 353 884 353 1716 
Q 353 2575 817 3079 
Q 1281 3584 2069 3584 
Q 2775 3584 3186 3129 
Q 3597 2675 3597 1894 
z
M 3022 2063 
Q 3016 2534 2758 2815 
Q 2500 3097 2075 3097 
Q 1594 3097 1305 2825 
Q 1016 2553 972 2059 
L 3022 2063 
z
" transform="scale(0.015625)"/>
       <path id="DejaVuSans-20" transform="scale(0.015625)"/>
       <path id="DejaVuSans-66" d="M 2375 4863 
L 2375 4384 
L 1825 4384 
Q 1516 4384 1395 4259 
Q 1275 4134 1275 3809 
L 1275 3500 
L 2222 3500 
L 2222 3053 
L 1275 3053 
L 1275 0 
L 697 0 
L 697 3053 
L 147 3053 
L 147 3500 
L 697 3500 
L 697 3744 
Q 697 4328 969 4595 
Q 1241 4863 1831 4863 
L 2375 4863 
z
" transform="scale(0.015625)"/>
       <path id="DejaVuSans-72" d="M 2631 2963 
Q 2534 3019 2420 3045 
Q 2306 3072 2169 3072 
Q 1681 3072 1420 2755 
Q 1159 2438 1159 1844 
L 1159 0 
L 581 0 
L 581 3500 
L 1159 3500 
L 1159 2956 
Q 1341 3275 1631 3429 
Q 1922 3584 2338 3584 
Q 2397 3584 2469 3576 
Q 2541 3569 2628 3553 
L 2631 2963 
z
" transform="scale(0.015625)"/>
       <path id="DejaVuSans-6f" d="M 1959 3097 
Q 1497 3097 1228 2736 
Q 959 2375 959 1747 
Q 959 1119 1226 758 
Q 1494 397 1959 397 
Q 2419 397 2687 759 
Q 2956 1122 2956 1747 
Q 2956 2369 2687 2733 
Q 2419 3097 1959 3097 
z
M 1959 3584 
Q 2709 3584 3137 3096 
Q 3566 2609 3566 1747 
Q 3566 888 3137 398 
Q 2709 -91 1959 -91 
Q 1206 -91 779 398 
Q 353 888 353 1747 
Q 353 2609 779 3096 
Q 1206 3584 1959 3584 
z
" transform="scale(0.015625)"/>
       <path id="DejaVuSans-53" d="M 3425 4513 
L 3425 3897 
Q 3066 4069 2747 4153 
Q 2428 4238 2131 4238 
Q 1616 4238 1336 4038 
Q 1056 3838 1056 3469 
Q 1056 3159 1242 3001 
Q 1428 2844 1947 2747 
L 2328 2669 
Q 3034 2534 3370 2195 
Q 3706 1856 3706 1288 
Q 3706 609 3251 259 
Q 2797 -91 1919 -91 
Q 1588 -91 1214 -16 
Q 841 59 441 206 
L 441 856 
Q 825 641 1194 531 
Q 1563 422 1919 422 
Q 2459 422 2753 634 
Q 3047 847 3047 1241 
Q 3047 1584 2836 1778 
Q 2625 1972 2144 2069 
L 1759 2144 
Q 1053 2284 737 2584 
Q 422 2884 422 3419 
Q 422 4038 858 4394 
Q 1294 4750 2059 4750 
Q 2388 4750 2728 4690 
Q 3069 4631 3425 4513 
z
" transform="scale(0.015625)"/>
       <path id="DejaVuSans-74" d="M 1172 4494 
L 1172 3500 
L 2356 3500 
L 2356 3053 
L 1172 3053 
L 1172 1153 
Q 1172 725 1289 603 
Q 1406 481 1766 481 
L 2356 481 
L 2356 0 
L 1766 0 
Q 1100 0 847 248 
Q 594 497 594 1153 
L 594 3053 
L 172 3053 
L 172 3500 
L 594 3500 
L 594 4494 
L 1172 4494 
z
" transform="scale(0.015625)"/>
       <path id="DejaVuSans-75" d="M 544 1381 
L 544 3500 
L 1119 3500 
L 1119 1403 
Q 1119 906 1312 657 
Q 1506 409 1894 409 
Q 2359 409 2629 706 
Q 2900 1003 2900 1516 
L 2900 3500 
L 3475 3500 
L 3475 0 
L 2900 0 
L 2900 538 
Q 2691 219 2414 64 
Q 2138 -91 1772 -91 
Q 1169 -91 856 284 
Q 544 659 544 1381 
z
M 1991 3584 
L 1991 3584 
z
" transform="scale(0.015625)"/>
       <path id="DejaVuSans-6c" d="M 603 4863 
L 1178 4863 
L 1178 0 
L 603 0 
L 603 4863 
z
" transform="scale(0.015625)"/>
       <path id="DejaVuSans-73" d="M 2834 3397 
L 2834 2853 
Q 2591 2978 2328 3040 
Q 2066 3103 1784 3103 
Q 1356 3103 1142 2972 
Q 928 2841 928 2578 
Q 928 2378 1081 2264 
Q 1234 2150 1697 2047 
L 1894 2003 
Q 2506 1872 2764 1633 
Q 3022 1394 3022 966 
Q 3022 478 2636 193 
Q 2250 -91 1575 -91 
Q 1294 -91 989 -36 
Q 684 19 347 128 
L 347 722 
Q 666 556 975 473 
Q 1284 391 1588 391 
Q 1994 391 2212 530 
Q 2431 669 2431 922 
Q 2431 1156 2273 1281 
Q 2116 1406 1581 1522 
L 1381 1569 
Q 847 1681 609 1914 
Q 372 2147 372 2553 
Q 372 3047 722 3315 
Q 1072 3584 1716 3584 
Q 2034 3584 2315 3537 
Q 2597 3491 2834 3397 
z
" transform="scale(0.015625)"/>
       <path id="DejaVuSans-4f" d="M 2522 4238 
Q 1834 4238 1429 3725 
Q 1025 3213 1025 2328 
Q 1025 1447 1429 934 
Q 1834 422 2522 422 
Q 3209 422 3611 934 
Q 4013 1447 4013 2328 
Q 4013 3213 3611 3725 
Q 3209 4238 2522 4238 
z
M 2522 4750 
Q 3503 4750 4090 4092 
Q 4678 3434 4678 2328 
Q 4678 1225 4090 567 
Q 3503 -91 2522 -91 
Q 1538 -91 948 565 
Q 359 1222 359 2328 
Q 359 3434 948 4092 
Q 1538 4750 2522 4750 
z
" transform="scale(0.015625)"/>
       <path id="DejaVuSans-6e" d="M 3513 2113 
L 3513 0 
L 2938 0 
L 2938 2094 
Q 2938 2591 2744 2837 
Q 2550 3084 2163 3084 
Q 1697 3084 1428 2787 
Q 1159 2491 1159 1978 
L 1159 0 
L 581 0 
L 581 3500 
L 1159 3500 
L 1159 2956 
Q 1366 3272 1645 3428 
Q 1925 3584 2291 3584 
Q 2894 3584 3203 3211 
Q 3513 2838 3513 2113 
z
" transform="scale(0.015625)"/>
       <path id="DejaVuSans-28" d="M 1984 4856 
Q 1566 4138 1362 3434 
Q 1159 2731 1159 2009 
Q 1159 1288 1364 580 
Q 1569 -128 1984 -844 
L 1484 -844 
Q 1016 -109 783 600 
Q 550 1309 550 2009 
Q 550 2706 781 3412 
Q 1013 4119 1484 4856 
L 1984 4856 
z
" transform="scale(0.015625)"/>
       <path id="DejaVuSans-29" d="M 513 4856 
L 1013 4856 
Q 1481 4119 1714 3412 
Q 1947 2706 1947 2009 
Q 1947 1309 1714 600 
Q 1481 -109 1013 -844 
L 513 -844 
Q 928 -128 1133 580 
Q 1338 1288 1338 2009 
Q 1338 2731 1133 3434 
Q 928 4138 513 4856 
z
" transform="scale(0.015625)"/>
      </defs>
      <use xlink:href="#DejaVuSans-54"/>
      <use xlink:href="#DejaVuSans-69" transform="translate(57.958984 0)"/>
      <use xlink:href="#DejaVuSans-6d" transform="translate(85.742188 0)"/>
      <use xlink:href="#DejaVuSans-65" transform="translate(183.154297 0)"/>
      <use xlink:href="#DejaVuSans-20" transform="translate(244.677734 0)"/>
      <use xlink:href="#DejaVuSans-66" transform="translate(276.464844 0)"/>
      <use xlink:href="#DejaVuSans-72" transform="translate(311.669922 0)"/>
      <use xlink:href="#DejaVuSans-6f" transform="translate(350.533203 0)"/>
      <use xlink:href="#DejaVuSans-6d" transform="translate(411.714844 0)"/>
      <use xlink:href="#DejaVuSans-20" transform="translate(509.126953 0)"/>
      <use xlink:href="#DejaVuSans-53" transform="translate(540.914062 0)"/>
      <use xlink:href="#DejaVuSans-74" transform="translate(604.390625 0)"/>
      <use xlink:href="#DejaVuSans-69" transform="translate(643.599609 0)"/>
      <use xlink:href="#DejaVuSans-6d" transform="translate(671.382812 0)"/>
      <use xlink:href="#DejaVuSans-75" transform="translate(768.794922 0)"/>
      <use xlink:href="#DejaVuSans-6c" transform="translate(832.173828 0)"/>
      <use xlink:href="#DejaVuSans-75" transform="translate(859.957031 0)"/>
      <use xlink:href="#DejaVuSans-73" transform="translate(923.335938 0)"/>
      <use xlink:href="#DejaVuSans-20" transform="translate(975.435547 0)"/>
      <use xlink:href="#DejaVuSans-4f" transform="translate(1007.222656 0)"/>
      <use xlink:href="#DejaVuSans-6e" transform="translate(1085.933594 0)"/>
      <use xlink:href="#DejaVuSans-73" transform="translate(1149.3125 0)"/>
      <use xlink:href="#DejaVuSans-65" transform="translate(1201.412109 0)"/>
      <use xlink:href="#DejaVuSans-74" transform="translate(1262.935547 0)"/>
      <use xlink:href="#DejaVuSans-20" transform="translate(1302.144531 0)"/>
      <use xlink:href="#DejaVuSans-28" transform="translate(1333.931641 0)"/>
      <use xlink:href="#DejaVuSans-6d" transform="translate(1372.945312 0)"/>
      <use xlink:href="#DejaVuSans-73" transform="translate(1470.357422 0)"/>
      <use xlink:href="#DejaVuSans-29" transform="translate(1522.457031 0)"/>
     </g>
    </g>
   </g>
   <g id="matplotlib.axis_2">
    <g id="ytick_1">
     <g id="line2d_8">
      <defs>
       <path id="me9a60afc7b" d="M 0 0 
L -3.5 0 
" style="stroke: #000000; stroke-width: 0.8"/>
      </defs>
      <g>
       <use xlink:href="#me9a60afc7b" x="100.8" y="383.945533" style="stroke: #000000; stroke-width: 0.8"/>
      </g>
     </g>
     <g id="text_9">
      <!-- −0.010 -->
      <g transform="translate(34.5875 390.024283) scale(0.16 -0.16)">
       <defs>
        <path id="DejaVuSans-2e" d="M 684 794 
L 1344 794 
L 1344 0 
L 684 0 
L 684 794 
z
" transform="scale(0.015625)"/>
       </defs>
       <use xlink:href="#DejaVuSans-2212"/>
       <use xlink:href="#DejaVuSans-30" transform="translate(83.789062 0)"/>
       <use xlink:href="#DejaVuSans-2e" transform="translate(147.412109 0)"/>
       <use xlink:href="#DejaVuSans-30" transform="translate(179.199219 0)"/>
       <use xlink:href="#DejaVuSans-31" transform="translate(242.822266 0)"/>
       <use xlink:href="#DejaVuSans-30" transform="translate(306.445312 0)"/>
      </g>
     </g>
    </g>
    <g id="ytick_2">
     <g id="line2d_9">
      <g>
       <use xlink:href="#me9a60afc7b" x="100.8" y="332.047943" style="stroke: #000000; stroke-width: 0.8"/>
      </g>
     </g>
     <g id="text_10">
      <!-- −0.005 -->
      <g transform="translate(34.5875 338.126693) scale(0.16 -0.16)">
       <use xlink:href="#DejaVuSans-2212"/>
       <use xlink:href="#DejaVuSans-30" transform="translate(83.789062 0)"/>
       <use xlink:href="#DejaVuSans-2e" transform="translate(147.412109 0)"/>
       <use xlink:href="#DejaVuSans-30" transform="translate(179.199219 0)"/>
       <use xlink:href="#DejaVuSans-30" transform="translate(242.822266 0)"/>
       <use xlink:href="#DejaVuSans-35" transform="translate(306.445312 0)"/>
      </g>
     </g>
    </g>
    <g id="ytick_3">
     <g id="line2d_10">
      <g>
       <use xlink:href="#me9a60afc7b" x="100.8" y="280.150352" style="stroke: #000000; stroke-width: 0.8"/>
      </g>
     </g>
     <g id="text_11">
      <!-- 0.000 -->
      <g transform="translate(47.995 286.229102) scale(0.16 -0.16)">
       <use xlink:href="#DejaVuSans-30"/>
       <use xlink:href="#DejaVuSans-2e" transform="translate(63.623047 0)"/>
       <use xlink:href="#DejaVuSans-30" transform="translate(95.410156 0)"/>
       <use xlink:href="#DejaVuSans-30" transform="translate(159.033203 0)"/>
       <use xlink:href="#DejaVuSans-30" transform="translate(222.65625 0)"/>
      </g>
     </g>
    </g>
    <g id="ytick_4">
     <g id="line2d_11">
      <g>
       <use xlink:href="#me9a60afc7b" x="100.8" y="228.252761" style="stroke: #000000; stroke-width: 0.8"/>
      </g>
     </g>
     <g id="text_12">
      <!-- 0.005 -->
      <g transform="translate(47.995 234.331511) scale(0.16 -0.16)">
       <use xlink:href="#DejaVuSans-30"/>
       <use xlink:href="#DejaVuSans-2e" transform="translate(63.623047 0)"/>
       <use xlink:href="#DejaVuSans-30" transform="translate(95.410156 0)"/>
       <use xlink:href="#DejaVuSans-30" transform="translate(159.033203 0)"/>
       <use xlink:href="#DejaVuSans-35" transform="translate(222.65625 0)"/>
      </g>
     </g>
    </g>
    <g id="ytick_5">
     <g id="line2d_12">
      <g>
       <use xlink:href="#me9a60afc7b" x="100.8" y="176.355171" style="stroke: #000000; stroke-width: 0.8"/>
      </g>
     </g>
     <g id="text_13">
      <!-- 0.010 -->
      <g transform="translate(47.995 182.433921) scale(0.16 -0.16)">
       <use xlink:href="#DejaVuSans-30"/>
       <use xlink:href="#DejaVuSans-2e" transform="translate(63.623047 0)"/>
       <use xlink:href="#DejaVuSans-30" transform="translate(95.410156 0)"/>
       <use xlink:href="#DejaVuSans-31" transform="translate(159.033203 0)"/>
       <use xlink:href="#DejaVuSans-30" transform="translate(222.65625 0)"/>
      </g>
     </g>
    </g>
    <g id="ytick_6">
     <g id="line2d_13">
      <g>
       <use xlink:href="#me9a60afc7b" x="100.8" y="124.45758" style="stroke: #000000; stroke-width: 0.8"/>
      </g>
     </g>
     <g id="text_14">
      <!-- 0.015 -->
      <g transform="translate(47.995 130.53633) scale(0.16 -0.16)">
       <use xlink:href="#DejaVuSans-30"/>
       <use xlink:href="#DejaVuSans-2e" transform="translate(63.623047 0)"/>
       <use xlink:href="#DejaVuSans-30" transform="translate(95.410156 0)"/>
       <use xlink:href="#DejaVuSans-31" transform="translate(159.033203 0)"/>
       <use xlink:href="#DejaVuSans-35" transform="translate(222.65625 0)"/>
      </g>
     </g>
    </g>
    <g id="ytick_7">
     <g id="line2d_14">
      <g>
       <use xlink:href="#me9a60afc7b" x="100.8" y="72.55999" style="stroke: #000000; stroke-width: 0.8"/>
      </g>
     </g>
     <g id="text_15">
      <!-- 0.020 -->
      <g transform="translate(47.995 78.63874) scale(0.16 -0.16)">
       <use xlink:href="#DejaVuSans-30"/>
       <use xlink:href="#DejaVuSans-2e" transform="translate(63.623047 0)"/>
       <use xlink:href="#DejaVuSans-30" transform="translate(95.410156 0)"/>
       <use xlink:href="#DejaVuSans-32" transform="translate(159.033203 0)"/>
       <use xlink:href="#DejaVuSans-30" transform="translate(222.65625 0)"/>
      </g>
     </g>
    </g>
    <g id="text_16">
     <!-- Directed predictability gain (bits) -->
     <g transform="translate(26.844062 364.685625) rotate(-90) scale(0.18 -0.18)">
      <defs>
       <path id="DejaVuSans-44" d="M 1259 4147 
L 1259 519 
L 2022 519 
Q 2988 519 3436 956 
Q 3884 1394 3884 2338 
Q 3884 3275 3436 3711 
Q 2988 4147 2022 4147 
L 1259 4147 
z
M 628 4666 
L 1925 4666 
Q 3281 4666 3915 4102 
Q 4550 3538 4550 2338 
Q 4550 1131 3912 565 
Q 3275 0 1925 0 
L 628 0 
L 628 4666 
z
" transform="scale(0.015625)"/>
       <path id="DejaVuSans-63" d="M 3122 3366 
L 3122 2828 
Q 2878 2963 2633 3030 
Q 2388 3097 2138 3097 
Q 1578 3097 1268 2742 
Q 959 2388 959 1747 
Q 959 1106 1268 751 
Q 1578 397 2138 397 
Q 2388 397 2633 464 
Q 2878 531 3122 666 
L 3122 134 
Q 2881 22 2623 -34 
Q 2366 -91 2075 -91 
Q 1284 -91 818 406 
Q 353 903 353 1747 
Q 353 2603 823 3093 
Q 1294 3584 2113 3584 
Q 2378 3584 2631 3529 
Q 2884 3475 3122 3366 
z
" transform="scale(0.015625)"/>
       <path id="DejaVuSans-64" d="M 2906 2969 
L 2906 4863 
L 3481 4863 
L 3481 0 
L 2906 0 
L 2906 525 
Q 2725 213 2448 61 
Q 2172 -91 1784 -91 
Q 1150 -91 751 415 
Q 353 922 353 1747 
Q 353 2572 751 3078 
Q 1150 3584 1784 3584 
Q 2172 3584 2448 3432 
Q 2725 3281 2906 2969 
z
M 947 1747 
Q 947 1113 1208 752 
Q 1469 391 1925 391 
Q 2381 391 2643 752 
Q 2906 1113 2906 1747 
Q 2906 2381 2643 2742 
Q 2381 3103 1925 3103 
Q 1469 3103 1208 2742 
Q 947 2381 947 1747 
z
" transform="scale(0.015625)"/>
       <path id="DejaVuSans-70" d="M 1159 525 
L 1159 -1331 
L 581 -1331 
L 581 3500 
L 1159 3500 
L 1159 2969 
Q 1341 3281 1617 3432 
Q 1894 3584 2278 3584 
Q 2916 3584 3314 3078 
Q 3713 2572 3713 1747 
Q 3713 922 3314 415 
Q 2916 -91 2278 -91 
Q 1894 -91 1617 61 
Q 1341 213 1159 525 
z
M 3116 1747 
Q 3116 2381 2855 2742 
Q 2594 3103 2138 3103 
Q 1681 3103 1420 2742 
Q 1159 2381 1159 1747 
Q 1159 1113 1420 752 
Q 1681 391 2138 391 
Q 2594 391 2855 752 
Q 3116 1113 3116 1747 
z
" transform="scale(0.015625)"/>
       <path id="DejaVuSans-61" d="M 2194 1759 
Q 1497 1759 1228 1600 
Q 959 1441 959 1056 
Q 959 750 1161 570 
Q 1363 391 1709 391 
Q 2188 391 2477 730 
Q 2766 1069 2766 1631 
L 2766 1759 
L 2194 1759 
z
M 3341 1997 
L 3341 0 
L 2766 0 
L 2766 531 
Q 2569 213 2275 61 
Q 1981 -91 1556 -91 
Q 1019 -91 701 211 
Q 384 513 384 1019 
Q 384 1609 779 1909 
Q 1175 2209 1959 2209 
L 2766 2209 
L 2766 2266 
Q 2766 2663 2505 2880 
Q 2244 3097 1772 3097 
Q 1472 3097 1187 3025 
Q 903 2953 641 2809 
L 641 3341 
Q 956 3463 1253 3523 
Q 1550 3584 1831 3584 
Q 2591 3584 2966 3190 
Q 3341 2797 3341 1997 
z
" transform="scale(0.015625)"/>
       <path id="DejaVuSans-62" d="M 3116 1747 
Q 3116 2381 2855 2742 
Q 2594 3103 2138 3103 
Q 1681 3103 1420 2742 
Q 1159 2381 1159 1747 
Q 1159 1113 1420 752 
Q 1681 391 2138 391 
Q 2594 391 2855 752 
Q 3116 1113 3116 1747 
z
M 1159 2969 
Q 1341 3281 1617 3432 
Q 1894 3584 2278 3584 
Q 2916 3584 3314 3078 
Q 3713 2572 3713 1747 
Q 3713 922 3314 415 
Q 2916 -91 2278 -91 
Q 1894 -91 1617 61 
Q 1341 213 1159 525 
L 1159 0 
L 581 0 
L 581 4863 
L 1159 4863 
L 1159 2969 
z
" transform="scale(0.015625)"/>
       <path id="DejaVuSans-79" d="M 2059 -325 
Q 1816 -950 1584 -1140 
Q 1353 -1331 966 -1331 
L 506 -1331 
L 506 -850 
L 844 -850 
Q 1081 -850 1212 -737 
Q 1344 -625 1503 -206 
L 1606 56 
L 191 3500 
L 800 3500 
L 1894 763 
L 2988 3500 
L 3597 3500 
L 2059 -325 
z
" transform="scale(0.015625)"/>
       <path id="DejaVuSans-67" d="M 2906 1791 
Q 2906 2416 2648 2759 
Q 2391 3103 1925 3103 
Q 1463 3103 1205 2759 
Q 947 2416 947 1791 
Q 947 1169 1205 825 
Q 1463 481 1925 481 
Q 2391 481 2648 825 
Q 2906 1169 2906 1791 
z
M 3481 434 
Q 3481 -459 3084 -895 
Q 2688 -1331 1869 -1331 
Q 1566 -1331 1297 -1286 
Q 1028 -1241 775 -1147 
L 775 -588 
Q 1028 -725 1275 -790 
Q 1522 -856 1778 -856 
Q 2344 -856 2625 -561 
Q 2906 -266 2906 331 
L 2906 616 
Q 2728 306 2450 153 
Q 2172 0 1784 0 
Q 1141 0 747 490 
Q 353 981 353 1791 
Q 353 2603 747 3093 
Q 1141 3584 1784 3584 
Q 2172 3584 2450 3431 
Q 2728 3278 2906 2969 
L 2906 3500 
L 3481 3500 
L 3481 434 
z
" transform="scale(0.015625)"/>
      </defs>
      <use xlink:href="#DejaVuSans-44"/>
      <use xlink:href="#DejaVuSans-69" transform="translate(77.001953 0)"/>
      <use xlink:href="#DejaVuSans-72" transform="translate(104.785156 0)"/>
      <use xlink:href="#DejaVuSans-65" transform="translate(143.648438 0)"/>
      <use xlink:href="#DejaVuSans-63" transform="translate(205.171875 0)"/>
      <use xlink:href="#DejaVuSans-74" transform="translate(260.152344 0)"/>
      <use xlink:href="#DejaVuSans-65" transform="translate(299.361328 0)"/>
      <use xlink:href="#DejaVuSans-64" transform="translate(360.884766 0)"/>
      <use xlink:href="#DejaVuSans-20" transform="translate(424.361328 0)"/>
      <use xlink:href="#DejaVuSans-70" transform="translate(456.148438 0)"/>
      <use xlink:href="#DejaVuSans-72" transform="translate(519.625 0)"/>
      <use xlink:href="#DejaVuSans-65" transform="translate(558.488281 0)"/>
      <use xlink:href="#DejaVuSans-64" transform="translate(620.011719 0)"/>
      <use xlink:href="#DejaVuSans-69" transform="translate(683.488281 0)"/>
      <use xlink:href="#DejaVuSans-63" transform="translate(711.271484 0)"/>
      <use xlink:href="#DejaVuSans-74" transform="translate(766.251953 0)"/>
      <use xlink:href="#DejaVuSans-61" transform="translate(805.460938 0)"/>
      <use xlink:href="#DejaVuSans-62" transform="translate(866.740234 0)"/>
      <use xlink:href="#DejaVuSans-69" transform="translate(930.216797 0)"/>
      <use xlink:href="#DejaVuSans-6c" transform="translate(958 0)"/>
      <use xlink:href="#DejaVuSans-69" transform="translate(985.783203 0)"/>
      <use xlink:href="#DejaVuSans-74" transform="translate(1013.566406 0)"/>
      <use xlink:href="#DejaVuSans-79" transform="translate(1052.775391 0)"/>
      <use xlink:href="#DejaVuSans-20" transform="translate(1111.955078 0)"/>
      <use xlink:href="#DejaVuSans-67" transform="translate(1143.742188 0)"/>
      <use xlink:href="#DejaVuSans-61" transform="translate(1207.21875 0)"/>
      <use xlink:href="#DejaVuSans-69" transform="translate(1268.498047 0)"/>
      <use xlink:href="#DejaVuSans-6e" transform="translate(1296.28125 0)"/>
      <use xlink:href="#DejaVuSans-20" transform="translate(1359.660156 0)"/>
      <use xlink:href="#DejaVuSans-28" transform="translate(1391.447266 0)"/>
      <use xlink:href="#DejaVuSans-62" transform="translate(1430.460938 0)"/>
      <use xlink:href="#DejaVuSans-69" transform="translate(1493.9375 0)"/>
      <use xlink:href="#DejaVuSans-74" transform="translate(1521.720703 0)"/>
      <use xlink:href="#DejaVuSans-73" transform="translate(1560.929688 0)"/>
      <use xlink:href="#DejaVuSans-29" transform="translate(1613.029297 0)"/>
     </g>
    </g>
   </g>
   <g id="line2d_15">
    <path d="M 220.8 396 
L 220.8 36 
" clip-path="url(#p276ac4881e)" style="fill: none; stroke-dasharray: 2.96,1.28; stroke-dashoffset: 0; stroke: #000000; stroke-width: 0.8"/>
   </g>
   <g id="line2d_16">
    <path d="M 100.8 280.150352 
L 820.8 280.150352 
" clip-path="url(#p276ac4881e)" style="fill: none; stroke-dasharray: 0.8,1.32; stroke-dashoffset: 0; stroke: #000000; stroke-width: 0.8"/>
   </g>
   <g id="line2d_17">
    <path d="M -1 314.959739 
L 4.8 300.432246 
L 16.799998 262.309131 
L 28.799995 270.399757 
L 40.800002 271.260487 
L 52.799999 271.186982 
L 64.799997 244.471573 
L 76.799999 264.447969 
L 88.800001 262.76082 
L 100.800003 257.660896 
L 112.8 240.485898 
L 124.799998 244.142188 
L 136.8 263.206099 
L 148.800002 280.044765 
L 160.799999 294.159555 
L 172.799999 289.97049 
L 184.8 309.346421 
L 196.8 305.236027 
L 208.8 282.416311 
L 220.8 266.911799 
L 232.8 252.486729 
L 244.8 276.23534 
L 256.8 277.273887 
L 268.800001 298.077214 
L 280.800001 293.518182 
L 292.799998 292.090525 
L 304.8 291.878457 
L 316.800002 285.619358 
L 328.8 283.06967 
L 340.799997 255.702448 
L 352.799999 255.207473 
L 364.800001 251.434561 
L 376.800003 278.720004 
L 388.800001 284.280001 
L 400.799998 284.548887 
L 412.800005 274.635227 
L 424.800002 254.462036 
L 436.8 252.244995 
L 448.799997 245.586445 
L 460.799995 236.464344 
L 472.800001 210.520843 
L 484.799999 189.394531 
L 496.799996 174.331535 
L 508.800003 172.024898 
L 520.8 181.31339 
L 532.799989 205.055191 
L 544.799995 188.291023 
L 556.800001 208.06055 
L 568.79999 214.873592 
L 580.799996 238.848014 
L 592.800003 216.189897 
L 604.799991 200.456552 
L 616.799998 193.080426 
L 628.800004 180.839519 
L 640.799993 174.874597 
L 652.799999 149.876434 
L 664.800006 144.092833 
L 676.799994 177.443578 
L 688.800001 170.070553 
L 700.800007 180.808583 
L 712.799996 155.630808 
L 724.800002 203.499495 
L 736.800009 186.901375 
L 748.799997 184.795878 
L 760.800004 154.8709 
L 772.80001 170.214189 
L 784.799999 149.240046 
L 796.800005 181.305727 
L 808.800011 190.885806 
L 820.8 221.279656 
L 832.799989 233.188143 
L 844.799977 270.250332 
L 856.800001 287.891004 
L 857.8 286.467361 
" clip-path="url(#p276ac4881e)" style="fill: none; stroke: #0e87cc; stroke-width: 2.5; stroke-linecap: square"/>
   </g>
   <g id="line2d_18">
    <path d="M -1 244.036039 
L 4.8 257.72822 
L 16.799998 222.272148 
L 28.799995 266.996019 
L 40.800002 254.222286 
L 52.799999 285.349028 
L 64.799997 278.493742 
L 76.799999 285.423638 
L 88.800001 267.326558 
L 100.800003 282.132847 
L 112.8 271.708736 
L 124.799998 309.167095 
L 136.8 292.958288 
L 148.800002 274.833387 
L 160.799999 246.085071 
L 172.799999 244.055654 
L 184.8 264.198716 
L 196.8 289.83307 
L 208.8 288.256904 
L 220.8 262.250514 
L 232.8 252.0976 
L 244.8 269.041768 
L 256.8 276.334642 
L 268.800001 260.182823 
L 280.800001 240.267963 
L 292.799998 238.981554 
L 304.8 247.55492 
L 316.800002 237.070074 
L 328.8 239.388755 
L 340.799997 243.040668 
L 352.799999 213.189322 
L 364.800001 249.000629 
L 376.800003 260.120513 
L 388.800001 284.535082 
L 400.799998 245.453309 
L 412.800005 226.256915 
L 424.800002 246.324482 
L 436.8 236.307429 
L 448.799997 239.548778 
L 460.799995 200.81994 
L 472.800001 225.583222 
L 484.799999 231.845886 
L 496.799996 251.702654 
L 508.800003 229.682789 
L 520.8 211.235103 
L 532.799989 213.661846 
L 544.799995 254.83741 
L 556.800001 266.452106 
L 568.79999 270.349082 
L 580.799996 231.919753 
L 592.800003 222.430334 
L 604.799991 214.365415 
L 616.799998 208.584216 
L 628.800004 210.451854 
L 640.799993 230.889992 
L 652.799999 228.271392 
L 664.800006 219.464439 
L 676.799994 219.576392 
L 688.800001 257.974659 
L 700.800007 274.636614 
L 712.799996 280.562454 
L 724.800002 289.853479 
L 736.800009 287.187366 
L 748.799997 293.846004 
L 760.800004 277.883461 
L 772.80001 277.772891 
L 784.799999 257.323957 
L 796.800005 247.630159 
L 808.800011 264.045221 
L 820.8 271.364007 
L 832.799989 291.766513 
L 844.799977 275.809124 
L 856.800001 269.754866 
L 857.8 270.489619 
" clip-path="url(#p276ac4881e)" style="fill: none; stroke: #c00a37; stroke-width: 2.5; stroke-linecap: square"/>
   </g>
   <g id="patch_3">
    <path d="M 100.8 396 
L 100.8 36 
" style="fill: none; stroke: #000000; stroke-width: 0.8; stroke-linejoin: miter; stroke-linecap: square"/>
   </g>
   <g id="patch_4">
    <path d="M 820.8 396 
L 820.8 36 
" style="fill: none; stroke: #000000; stroke-width: 0.8; stroke-linejoin: miter; stroke-linecap: square"/>
   </g>
   <g id="patch_5">
    <path d="M 100.8 396 
L 820.8 396 
" style="fill: none; stroke: #000000; stroke-width: 0.8; stroke-linejoin: miter; stroke-linecap: square"/>
   </g>
   <g id="patch_6">
    <path d="M 100.8 36 
L 820.8 36 
" style="fill: none; stroke: #000000; stroke-width: 0.8; stroke-linejoin: miter; stroke-linecap: square"/>
   </g>
   <g id="PathCollection_1">
    <defs>
     <path id="mf52e32126c" d="M 0 1.870829 
C 0.49615 1.870829 0.972045 1.673706 1.322876 1.322876 
C 1.673706 0.972045 1.870829 0.49615 1.870829 0 
C 1.870829 -0.49615 1.673706 -0.972045 1.322876 -1.322876 
C 0.972045 -1.673706 0.49615 -1.870829 0 -1.870829 
C -0.49615 -1.870829 -0.972045 -1.673706 -1.322876 -1.322876 
C -1.673706 -0.972045 -1.870829 -0.49615 -1.870829 0 
C -1.870829 0.49615 -1.673706 0.972045 -1.322876 1.322876 
C -0.972045 1.673706 -0.49615 1.870829 0 1.870829 
z
" style="stroke: #000000"/>
    </defs>
    <g clip-path="url(#p276ac4881e)">
     <use xlink:href="#mf52e32126c" x="808.800011" y="378" style="stroke: #000000"/>
     <use xlink:href="#mf52e32126c" x="1000.799971" y="378" style="stroke: #000000"/>
     <use xlink:href="#mf52e32126c" x="1012.799996" y="378" style="stroke: #000000"/>
     <use xlink:href="#mf52e32126c" x="1024.80002" y="378" style="stroke: #000000"/>
    </g>
   </g>
   <g id="legend_1">
    <g id="line2d_19">
     <path d="M 114.3 55.647656 
L 129.3 55.647656 
L 144.3 55.647656 
" style="fill: none; stroke: #0e87cc; stroke-width: 2.5; stroke-linecap: square"/>
    </g>
    <g id="text_17">
     <!-- SFEF→SLIP -->
     <g transform="translate(156.3 60.897656) scale(0.15 -0.15)">
      <defs>
       <path id="DejaVuSans-46" d="M 628 4666 
L 3309 4666 
L 3309 4134 
L 1259 4134 
L 1259 2759 
L 3109 2759 
L 3109 2228 
L 1259 2228 
L 1259 0 
L 628 0 
L 628 4666 
z
" transform="scale(0.015625)"/>
       <path id="DejaVuSans-45" d="M 628 4666 
L 3578 4666 
L 3578 4134 
L 1259 4134 
L 1259 2753 
L 3481 2753 
L 3481 2222 
L 1259 2222 
L 1259 531 
L 3634 531 
L 3634 0 
L 628 0 
L 628 4666 
z
" transform="scale(0.015625)"/>
       <path id="DejaVuSans-2192" d="M 5050 2147 
L 5050 1866 
L 3822 638 
L 3447 1013 
L 4175 1741 
L 366 1741 
L 366 2272 
L 4175 2272 
L 3447 3000 
L 3822 3375 
L 5050 2147 
z
" transform="scale(0.015625)"/>
       <path id="DejaVuSans-4c" d="M 628 4666 
L 1259 4666 
L 1259 531 
L 3531 531 
L 3531 0 
L 628 0 
L 628 4666 
z
" transform="scale(0.015625)"/>
       <path id="DejaVuSans-49" d="M 628 4666 
L 1259 4666 
L 1259 0 
L 628 0 
L 628 4666 
z
" transform="scale(0.015625)"/>
       <path id="DejaVuSans-50" d="M 1259 4147 
L 1259 2394 
L 2053 2394 
Q 2494 2394 2734 2622 
Q 2975 2850 2975 3272 
Q 2975 3691 2734 3919 
Q 2494 4147 2053 4147 
L 1259 4147 
z
M 628 4666 
L 2053 4666 
Q 2838 4666 3239 4311 
Q 3641 3956 3641 3272 
Q 3641 2581 3239 2228 
Q 2838 1875 2053 1875 
L 1259 1875 
L 1259 0 
L 628 0 
L 628 4666 
z
" transform="scale(0.015625)"/>
      </defs>
      <use xlink:href="#DejaVuSans-53"/>
      <use xlink:href="#DejaVuSans-46" transform="translate(63.476562 0)"/>
      <use xlink:href="#DejaVuSans-45" transform="translate(120.996094 0)"/>
      <use xlink:href="#DejaVuSans-46" transform="translate(184.179688 0)"/>
      <use xlink:href="#DejaVuSans-2192" transform="translate(241.699219 0)"/>
      <use xlink:href="#DejaVuSans-53" transform="translate(325.488281 0)"/>
      <use xlink:href="#DejaVuSans-4c" transform="translate(388.964844 0)"/>
      <use xlink:href="#DejaVuSans-49" transform="translate(444.677734 0)"/>
      <use xlink:href="#DejaVuSans-50" transform="translate(474.169922 0)"/>
     </g>
    </g>
    <g id="line2d_20">
     <path d="M 114.3 77.664844 
L 129.3 77.664844 
L 144.3 77.664844 
" style="fill: none; stroke: #c00a37; stroke-width: 2.5; stroke-linecap: square"/>
    </g>
    <g id="text_18">
     <!-- SLIP→SFEF -->
     <g transform="translate(156.3 82.914844) scale(0.15 -0.15)">
      <use xlink:href="#DejaVuSans-53"/>
      <use xlink:href="#DejaVuSans-4c" transform="translate(63.476562 0)"/>
      <use xlink:href="#DejaVuSans-49" transform="translate(119.189453 0)"/>
      <use xlink:href="#DejaVuSans-50" transform="translate(148.681641 0)"/>
      <use xlink:href="#DejaVuSans-2192" transform="translate(208.984375 0)"/>
      <use xlink:href="#DejaVuSans-53" transform="translate(292.773438 0)"/>
      <use xlink:href="#DejaVuSans-46" transform="translate(356.25 0)"/>
      <use xlink:href="#DejaVuSans-45" transform="translate(413.769531 0)"/>
      <use xlink:href="#DejaVuSans-46" transform="translate(476.953125 0)"/>
     </g>
    </g>
    <g id="PathCollection_2">
     <g>
      <use xlink:href="#mf52e32126c" x="129.3" y="100.994531" style="stroke: #000000"/>
     </g>
    </g>
    <g id="text_19">
     <!-- p&lt;α -->
     <g transform="translate(156.3 104.932031) scale(0.15 -0.15)">
      <defs>
       <path id="DejaVuSans-3c" d="M 4684 3150 
L 1459 2003 
L 4684 863 
L 4684 294 
L 678 1747 
L 678 2266 
L 4684 3719 
L 4684 3150 
z
" transform="scale(0.015625)"/>
       <path id="DejaVuSans-3b1" d="M 2644 1628 
L 2506 2350 
Q 2366 3091 1809 3091 
Q 1391 3091 1200 2747 
Q 959 2316 959 1747 
Q 959 1059 1194 731 
Q 1431 397 1809 397 
Q 2228 397 2453 1063 
L 2644 1628 
z
M 2966 2584 
L 3275 3500 
L 3788 3500 
L 3147 1603 
L 3272 919 
Q 3300 766 3409 638 
Q 3538 488 3638 488 
L 3913 488 
L 3913 0 
L 3569 0 
Q 3275 0 3013 263 
Q 2884 394 2831 669 
Q 2688 322 2394 50 
Q 2256 -78 1809 -78 
Q 1075 -78 719 397 
Q 353 888 353 1747 
Q 353 2666 750 3097 
Q 1191 3578 1809 3578 
Q 2781 3578 2966 2584 
z
" transform="scale(0.015625)"/>
      </defs>
      <use xlink:href="#DejaVuSans-70"/>
      <use xlink:href="#DejaVuSans-3c" transform="translate(63.476562 0)"/>
      <use xlink:href="#DejaVuSans-3b1" transform="translate(147.265625 0)"/>
     </g>
    </g>
   </g>
  </g>
 </g>
 <defs>
  <clipPath id="p276ac4881e">
   <rect x="100.8" y="36" width="720" height="360"/>
  </clipPath>
 </defs>
</svg>
