<?xml version="1.0" encoding="utf-8" standalone="no"?>
<!DOCTYPE svg PUBLIC "-//W3C//DTD SVG 1.1//EN"
  "http://www.w3.org/Graphics/SVG/1.1/DTD/svg11.dtd">
<svg xmlns:xlink="http://www.w3.org/1999/xlink" width="561.6pt" height="561.6pt" viewBox="0 0 561.6 561.6" xmlns="http://www.w3.org/2000/svg" version="1.1">
 <metadata>
  <rdf:RDF xmlns:dc="http://purl.org/dc/elements/1.1/" xmlns:cc="http://creativecommons.org/ns#" xmlns:rdf="http://www.w3.org/1999/02/22-rdf-syntax-ns#">
   <cc:Work>
    <dc:type rdf:resource="http://purl.org/dc/dcmitype/StillImage"/>
    <dc:date>2025-12-06T19:29:40.353094</dc:date>
    <dc:format>image/svg+xml</dc:format>
    <dc:creator>
     <cc:Agent>
      <dc:title>Matplotlib v3.10.5, https://matplotlib.org/</dc:title>
     </cc:Agent>
    </dc:creator>
   </cc:Work>
  </rdf:RDF>
 </metadata>
 <defs>
  <style type="text/css">*{stroke-linejoin: round; stroke-linecap: butt}</style>
 </defs>
 <g id="figure_1">
  <g id="patch_1">
   <path d="M 0 561.6 
L 561.6 561.6 
L 561.6 0 
L 0 0 
z
" style="fill: #ffffff"/>
  </g>
  <g id="axes_1">
   <g id="patch_2">
    <path d="M 70.2 206.388 
L 505.44 206.388 
L 505.44 67.392 
L 70.2 67.392 
z
" style="fill: #ffffff"/>
   </g>
   <g id="FillBetweenPolyCollection_1">
    <defs>
     <path id="mb71b3253d9" d="M 89.983636 -426.796459 
L 89.983636 -390.677215 
L 93.980327 -393.417884 
L 97.977023 -394.132535 
L 101.973713 -389.260788 
L 105.97041 -388.700622 
L 109.967106 -391.999456 
L 113.963796 -394.594243 
L 117.960493 -394.289241 
L 121.957186 -390.199207 
L 125.953882 -393.062797 
L 129.950576 -390.835176 
L 133.947269 -394.315254 
L 137.943962 -393.548707 
L 141.940659 -390.30145 
L 145.937352 -395.243091 
L 149.934045 -392.077876 
L 153.93074 -390.82381 
L 157.927434 -391.729744 
L 161.924129 -390.855618 
L 165.920823 -394.544632 
L 169.917517 -390.527042 
L 173.914211 -392.061658 
L 177.910906 -394.155753 
L 181.9076 -390.610205 
L 185.904294 -390.331265 
L 189.900988 -391.014107 
L 193.897681 -390.315837 
L 197.894377 -390.738663 
L 201.891071 -388.846587 
L 205.887764 -390.20567 
L 209.884457 -391.31399 
L 213.881154 -387.467855 
L 217.877847 -393.341075 
L 221.874543 -391.770151 
L 225.871234 -389.513203 
L 229.86793 -389.870249 
L 233.864626 -389.883684 
L 237.861317 -393.007316 
L 241.858013 -392.144845 
L 245.854704 -390.673509 
L 249.8514 -392.741539 
L 253.848096 -390.336121 
L 257.844787 -393.827303 
L 261.841483 -393.232437 
L 265.838179 -388.979276 
L 269.83487 -393.126853 
L 273.83156 -391.976171 
L 277.828262 -391.708284 
L 281.824953 -394.758131 
L 285.821643 -391.186534 
L 289.818345 -391.532276 
L 293.815036 -390.307012 
L 297.811726 -391.597965 
L 301.808428 -389.452093 
L 305.805119 -392.00767 
L 309.801809 -394.255044 
L 313.798511 -391.805986 
L 317.795202 -390.134799 
L 321.791892 -387.821377 
L 325.788594 -389.141269 
L 329.785285 -390.105976 
L 333.781975 -393.821421 
L 337.778677 -392.59002 
L 341.775368 -387.527204 
L 345.772058 -378.742959 
L 349.76876 -390.62748 
L 353.765451 -394.010824 
L 357.762141 -389.911415 
L 361.758843 -390.717685 
L 365.755534 -391.843558 
L 369.752224 -388.48727 
L 373.748914 -390.745734 
L 377.745605 -390.464454 
L 381.742319 -391.633852 
L 385.739009 -394.162266 
L 389.7357 -393.11647 
L 393.73239 -392.628042 
L 397.72908 -394.413696 
L 401.725771 -391.37185 
L 405.722485 -389.488594 
L 409.719175 -388.096161 
L 413.715866 -388.040856 
L 417.712556 -391.593236 
L 421.709246 -389.137049 
L 425.705937 -393.411161 
L 429.702627 -388.521002 
L 433.699341 -387.455873 
L 437.696032 -389.263827 
L 441.692722 -389.136312 
L 445.689412 -387.838805 
L 449.686103 -388.724063 
L 453.682793 -393.512783 
L 457.679507 -389.534171 
L 461.676198 -392.59759 
L 465.672888 -390.931903 
L 469.669578 -388.641856 
L 473.666269 -389.551297 
L 477.662959 -398.656845 
L 481.659673 -394.143636 
L 485.656364 -393.868103 
L 485.656364 -430.826043 
L 485.656364 -430.826043 
L 481.659673 -429.856315 
L 477.662959 -438.11772 
L 473.666269 -434.832498 
L 469.669578 -427.563902 
L 465.672888 -429.984125 
L 461.676198 -430.482384 
L 457.679507 -431.478156 
L 453.682793 -436.635992 
L 449.686103 -427.047935 
L 445.689412 -426.874627 
L 441.692722 -424.15248 
L 437.696032 -431.210789 
L 433.699341 -424.784733 
L 429.702627 -426.370128 
L 425.705937 -430.45722 
L 421.709246 -427.573057 
L 417.712556 -428.587883 
L 413.715866 -426.016342 
L 409.719175 -426.207209 
L 405.722485 -428.204421 
L 401.725771 -428.839001 
L 397.72908 -432.673233 
L 393.73239 -433.358236 
L 389.7357 -436.240939 
L 385.739009 -430.889073 
L 381.742319 -428.533132 
L 377.745605 -427.347794 
L 373.748914 -429.385621 
L 369.752224 -428.835585 
L 365.755534 -429.08897 
L 361.758843 -430.182508 
L 357.762141 -430.093584 
L 353.765451 -431.307052 
L 349.76876 -428.161262 
L 345.772058 -425.912127 
L 341.775368 -423.185693 
L 337.778677 -432.623497 
L 333.781975 -432.409291 
L 329.785285 -426.998717 
L 325.788594 -424.38421 
L 321.791892 -425.639215 
L 317.795202 -427.195871 
L 313.798511 -432.979606 
L 309.801809 -431.118941 
L 305.805119 -428.353601 
L 301.808428 -430.747241 
L 297.811726 -427.350692 
L 293.815036 -427.765285 
L 289.818345 -429.753758 
L 285.821643 -429.512666 
L 281.824953 -431.876005 
L 277.828262 -428.671208 
L 273.83156 -430.618677 
L 269.83487 -432.987199 
L 265.838179 -425.776328 
L 261.841483 -432.289592 
L 257.844787 -428.964492 
L 253.848096 -426.598431 
L 249.8514 -428.304147 
L 245.854704 -429.054413 
L 241.858013 -430.237137 
L 237.861317 -430.687724 
L 233.864626 -427.124309 
L 229.86793 -426.438268 
L 225.871234 -427.096534 
L 221.874543 -429.947306 
L 217.877847 -433.63706 
L 213.881154 -426.273462 
L 209.884457 -428.650787 
L 205.887764 -426.888553 
L 201.891071 -426.263135 
L 197.894377 -430.013027 
L 193.897681 -428.258398 
L 189.900988 -429.376106 
L 185.904294 -430.025045 
L 181.9076 -429.371282 
L 177.910906 -435.172604 
L 173.914211 -428.489563 
L 169.917517 -427.584528 
L 165.920823 -435.330283 
L 161.924129 -431.279369 
L 157.927434 -429.804911 
L 153.93074 -425.397891 
L 149.934045 -430.375212 
L 145.937352 -432.894901 
L 141.940659 -427.048192 
L 137.943962 -431.825165 
L 133.947269 -431.643365 
L 129.950576 -430.587308 
L 125.953882 -431.375953 
L 121.957186 -425.567692 
L 117.960493 -432.25106 
L 113.963796 -432.878417 
L 109.967106 -427.813311 
L 105.97041 -425.219415 
L 101.973713 -426.984667 
L 97.977023 -431.963627 
L 93.980327 -431.421181 
L 89.983636 -426.796459 
z
"/>
    </defs>
    <g clip-path="url(#p9b20ab387f)">
     <use xlink:href="#mb71b3253d9" x="0" y="561.6" style="fill: #1f77b4; fill-opacity: 0.15"/>
    </g>
   </g>
   <g id="FillBetweenPolyCollection_2">
    <defs>
     <path id="m2e00cc05e8" d="M 89.983636 -432.341142 
L 89.983636 -393.710084 
L 93.980327 -392.516414 
L 97.977023 -389.553797 
L 101.973713 -388.633368 
L 105.97041 -392.233138 
L 109.967106 -390.866796 
L 113.963796 -395.219792 
L 117.960493 -394.33971 
L 121.957186 -390.630136 
L 125.953882 -394.099044 
L 129.950576 -391.199377 
L 133.947269 -388.73149 
L 137.943962 -388.870121 
L 141.940659 -389.969593 
L 145.937352 -390.339198 
L 149.934045 -391.446924 
L 153.93074 -393.709577 
L 157.927434 -392.001604 
L 161.924129 -389.063223 
L 165.920823 -387.496819 
L 169.917517 -393.060246 
L 173.914211 -389.388362 
L 177.910906 -394.764873 
L 181.9076 -392.238926 
L 185.904294 -391.095201 
L 189.900988 -388.024909 
L 193.897681 -389.815095 
L 197.894377 -395.312057 
L 201.891071 -388.67303 
L 205.887764 -393.785573 
L 209.884457 -393.974589 
L 213.881154 -387.965997 
L 217.877847 -390.49165 
L 221.874543 -394.030826 
L 225.871234 -395.061952 
L 229.86793 -391.128055 
L 233.864626 -390.006101 
L 237.861317 -390.898871 
L 241.858013 -389.337781 
L 245.854704 -388.71749 
L 249.8514 -391.341909 
L 253.848096 -389.087896 
L 257.844787 -388.152051 
L 261.841483 -387.91247 
L 265.838179 -386.712851 
L 269.83487 -388.475634 
L 273.83156 -393.850465 
L 277.828262 -390.668018 
L 281.824953 -388.430316 
L 285.821643 -396.30036 
L 289.818345 -391.024287 
L 293.815036 -390.992597 
L 297.811726 -394.398709 
L 301.808428 -394.930319 
L 305.805119 -390.008834 
L 309.801809 -393.41689 
L 313.798511 -388.844608 
L 317.795202 -392.281695 
L 321.791892 -391.562413 
L 325.788594 -392.610161 
L 329.785285 -394.547869 
L 333.781975 -393.165339 
L 337.778677 -389.474619 
L 341.775368 -390.688983 
L 345.772058 -388.003898 
L 349.76876 -387.759885 
L 353.765451 -391.160623 
L 357.762141 -390.54405 
L 361.758843 -391.265202 
L 365.755534 -389.431402 
L 369.752224 -396.626544 
L 373.748914 -392.679383 
L 377.745605 -388.598012 
L 381.742319 -389.654156 
L 385.739009 -392.501699 
L 389.7357 -390.545871 
L 393.73239 -393.537075 
L 397.72908 -393.837792 
L 401.725771 -392.045831 
L 405.722485 -393.395206 
L 409.719175 -397.778446 
L 413.715866 -391.609332 
L 417.712556 -387.669799 
L 421.709246 -392.216887 
L 425.705937 -393.641981 
L 429.702627 -395.956352 
L 433.699341 -391.519945 
L 437.696032 -397.022261 
L 441.692722 -391.408778 
L 445.689412 -390.167537 
L 449.686103 -391.535201 
L 453.682793 -393.0421 
L 457.679507 -392.813104 
L 461.676198 -389.347813 
L 465.672888 -389.403287 
L 469.669578 -390.672778 
L 473.666269 -393.842383 
L 477.662959 -392.004861 
L 481.659673 -391.790064 
L 485.656364 -389.468675 
L 485.656364 -428.660302 
L 485.656364 -428.660302 
L 481.659673 -431.11268 
L 477.662959 -431.395633 
L 473.666269 -432.111721 
L 469.669578 -427.475253 
L 465.672888 -425.460103 
L 461.676198 -427.650914 
L 457.679507 -432.507277 
L 453.682793 -429.979725 
L 449.686103 -429.513482 
L 445.689412 -427.644399 
L 441.692722 -427.620714 
L 437.696032 -437.192201 
L 433.699341 -430.106783 
L 429.702627 -433.745097 
L 425.705937 -431.260719 
L 421.709246 -431.281761 
L 417.712556 -422.862699 
L 413.715866 -427.855443 
L 409.719175 -436.391255 
L 405.722485 -429.371619 
L 401.725771 -431.474393 
L 397.72908 -431.035957 
L 393.73239 -432.07464 
L 389.7357 -429.37514 
L 385.739009 -432.396724 
L 381.742319 -425.814301 
L 377.745605 -429.436799 
L 373.748914 -429.199154 
L 369.752224 -435.298235 
L 365.755534 -425.105359 
L 361.758843 -427.393421 
L 357.762141 -427.394078 
L 353.765451 -429.797306 
L 349.76876 -425.053191 
L 345.772058 -426.242602 
L 341.775368 -425.722853 
L 337.778677 -427.192995 
L 333.781975 -434.746075 
L 329.785285 -435.979232 
L 325.788594 -431.649197 
L 321.791892 -429.158728 
L 317.795202 -430.284958 
L 313.798511 -424.065912 
L 309.801809 -432.68016 
L 305.805119 -426.735826 
L 301.808428 -433.519426 
L 297.811726 -432.523212 
L 293.815036 -427.542616 
L 289.818345 -426.733189 
L 285.821643 -441.114221 
L 281.824953 -427.30104 
L 277.828262 -429.337936 
L 273.83156 -432.995053 
L 269.83487 -428.617083 
L 265.838179 -422.688592 
L 261.841483 -425.698072 
L 257.844787 -425.198432 
L 253.848096 -427.369699 
L 249.8514 -430.826673 
L 245.854704 -429.646434 
L 241.858013 -425.289241 
L 237.861317 -429.002664 
L 233.864626 -428.796414 
L 229.86793 -429.513191 
L 225.871234 -433.744031 
L 221.874543 -431.466724 
L 217.877847 -427.068171 
L 213.881154 -427.468091 
L 209.884457 -433.965295 
L 205.887764 -430.281343 
L 201.891071 -426.712337 
L 197.894377 -434.474517 
L 193.897681 -427.89293 
L 189.900988 -426.704729 
L 185.904294 -427.074646 
L 181.9076 -429.693382 
L 177.910906 -431.872586 
L 173.914211 -427.104924 
L 169.917517 -429.888134 
L 165.920823 -424.917494 
L 161.924129 -428.046608 
L 157.927434 -432.263951 
L 153.93074 -432.648433 
L 149.934045 -431.392409 
L 145.937352 -430.538023 
L 141.940659 -428.317142 
L 137.943962 -424.575338 
L 133.947269 -425.535024 
L 129.950576 -430.793751 
L 125.953882 -432.989217 
L 121.957186 -427.61228 
L 117.960493 -429.796538 
L 113.963796 -433.745387 
L 109.967106 -430.303525 
L 105.97041 -429.755637 
L 101.973713 -426.643835 
L 97.977023 -428.398769 
L 93.980327 -432.12396 
L 89.983636 -432.341142 
z
"/>
    </defs>
    <g clip-path="url(#p9b20ab387f)">
     <use xlink:href="#m2e00cc05e8" x="0" y="561.6" style="fill: #ff7f0e; fill-opacity: 0.15"/>
    </g>
   </g>
   <g id="matplotlib.axis_1">
    <g id="xtick_1">
     <g id="line2d_1">
      <defs>
       <path id="mc45bd326aa" d="M 0 0 
L 0 3.5 
" style="stroke: #000000; stroke-width: 0.8"/>
      </defs>
      <g>
       <use xlink:href="#mc45bd326aa" x="87.985286" y="206.388" style="stroke: #000000; stroke-width: 0.8"/>
      </g>
     </g>
     <g id="text_1">
      <!-- −200 -->
      <g transform="translate(74.251693 220.986437) scale(0.1 -0.1)">
       <defs>
        <path id="DejaVuSans-2212" d="M 678 2272 
L 4684 2272 
L 4684 1741 
L 678 1741 
L 678 2272 
z
" transform="scale(0.015625)"/>
        <path id="DejaVuSans-32" d="M 1228 531 
L 3431 531 
L 3431 0 
L 469 0 
L 469 531 
Q 828 903 1448 1529 
Q 2069 2156 2228 2338 
Q 2531 2678 2651 2914 
Q 2772 3150 2772 3378 
Q 2772 3750 2511 3984 
Q 2250 4219 1831 4219 
Q 1534 4219 1204 4116 
Q 875 4013 500 3803 
L 500 4441 
Q 881 4594 1212 4672 
Q 1544 4750 1819 4750 
Q 2544 4750 2975 4387 
Q 3406 4025 3406 3419 
Q 3406 3131 3298 2873 
Q 3191 2616 2906 2266 
Q 2828 2175 2409 1742 
Q 1991 1309 1228 531 
z
" transform="scale(0.015625)"/>
        <path id="DejaVuSans-30" d="M 2034 4250 
Q 1547 4250 1301 3770 
Q 1056 3291 1056 2328 
Q 1056 1369 1301 889 
Q 1547 409 2034 409 
Q 2525 409 2770 889 
Q 3016 1369 3016 2328 
Q 3016 3291 2770 3770 
Q 2525 4250 2034 4250 
z
M 2034 4750 
Q 2819 4750 3233 4129 
Q 3647 3509 3647 2328 
Q 3647 1150 3233 529 
Q 2819 -91 2034 -91 
Q 1250 -91 836 529 
Q 422 1150 422 2328 
Q 422 3509 836 4129 
Q 1250 4750 2034 4750 
z
" transform="scale(0.015625)"/>
       </defs>
       <use xlink:href="#DejaVuSans-2212"/>
       <use xlink:href="#DejaVuSans-32" transform="translate(83.789062 0)"/>
       <use xlink:href="#DejaVuSans-30" transform="translate(147.412109 0)"/>
       <use xlink:href="#DejaVuSans-30" transform="translate(211.035156 0)"/>
      </g>
     </g>
    </g>
    <g id="xtick_2">
     <g id="line2d_2">
      <g>
       <use xlink:href="#mc45bd326aa" x="167.91917" y="206.388" style="stroke: #000000; stroke-width: 0.8"/>
      </g>
     </g>
     <g id="text_2">
      <!-- 0 -->
      <g transform="translate(164.73792 220.986437) scale(0.1 -0.1)">
       <use xlink:href="#DejaVuSans-30"/>
      </g>
     </g>
    </g>
    <g id="xtick_3">
     <g id="line2d_3">
      <g>
       <use xlink:href="#mc45bd326aa" x="247.853053" y="206.388" style="stroke: #000000; stroke-width: 0.8"/>
      </g>
     </g>
     <g id="text_3">
      <!-- 200 -->
      <g transform="translate(238.309303 220.986437) scale(0.1 -0.1)">
       <use xlink:href="#DejaVuSans-32"/>
       <use xlink:href="#DejaVuSans-30" transform="translate(63.623047 0)"/>
       <use xlink:href="#DejaVuSans-30" transform="translate(127.246094 0)"/>
      </g>
     </g>
    </g>
    <g id="xtick_4">
     <g id="line2d_4">
      <g>
       <use xlink:href="#mc45bd326aa" x="327.786937" y="206.388" style="stroke: #000000; stroke-width: 0.8"/>
      </g>
     </g>
     <g id="text_4">
      <!-- 400 -->
      <g transform="translate(318.243187 220.986437) scale(0.1 -0.1)">
       <defs>
        <path id="DejaVuSans-34" d="M 2419 4116 
L 825 1625 
L 2419 1625 
L 2419 4116 
z
M 2253 4666 
L 3047 4666 
L 3047 1625 
L 3713 1625 
L 3713 1100 
L 3047 1100 
L 3047 0 
L 2419 0 
L 2419 1100 
L 313 1100 
L 313 1709 
L 2253 4666 
z
" transform="scale(0.015625)"/>
       </defs>
       <use xlink:href="#DejaVuSans-34"/>
       <use xlink:href="#DejaVuSans-30" transform="translate(63.623047 0)"/>
       <use xlink:href="#DejaVuSans-30" transform="translate(127.246094 0)"/>
      </g>
     </g>
    </g>
    <g id="xtick_5">
     <g id="line2d_5">
      <g>
       <use xlink:href="#mc45bd326aa" x="407.720821" y="206.388" style="stroke: #000000; stroke-width: 0.8"/>
      </g>
     </g>
     <g id="text_5">
      <!-- 600 -->
      <g transform="translate(398.177071 220.986437) scale(0.1 -0.1)">
       <defs>
        <path id="DejaVuSans-36" d="M 2113 2584 
Q 1688 2584 1439 2293 
Q 1191 2003 1191 1497 
Q 1191 994 1439 701 
Q 1688 409 2113 409 
Q 2538 409 2786 701 
Q 3034 994 3034 1497 
Q 3034 2003 2786 2293 
Q 2538 2584 2113 2584 
z
M 3366 4563 
L 3366 3988 
Q 3128 4100 2886 4159 
Q 2644 4219 2406 4219 
Q 1781 4219 1451 3797 
Q 1122 3375 1075 2522 
Q 1259 2794 1537 2939 
Q 1816 3084 2150 3084 
Q 2853 3084 3261 2657 
Q 3669 2231 3669 1497 
Q 3669 778 3244 343 
Q 2819 -91 2113 -91 
Q 1303 -91 875 529 
Q 447 1150 447 2328 
Q 447 3434 972 4092 
Q 1497 4750 2381 4750 
Q 2619 4750 2861 4703 
Q 3103 4656 3366 4563 
z
" transform="scale(0.015625)"/>
       </defs>
       <use xlink:href="#DejaVuSans-36"/>
       <use xlink:href="#DejaVuSans-30" transform="translate(63.623047 0)"/>
       <use xlink:href="#DejaVuSans-30" transform="translate(127.246094 0)"/>
      </g>
     </g>
    </g>
    <g id="xtick_6">
     <g id="line2d_6">
      <g>
       <use xlink:href="#mc45bd326aa" x="487.654704" y="206.388" style="stroke: #000000; stroke-width: 0.8"/>
      </g>
     </g>
     <g id="text_6">
      <!-- 800 -->
      <g transform="translate(478.110954 220.986437) scale(0.1 -0.1)">
       <defs>
        <path id="DejaVuSans-38" d="M 2034 2216 
Q 1584 2216 1326 1975 
Q 1069 1734 1069 1313 
Q 1069 891 1326 650 
Q 1584 409 2034 409 
Q 2484 409 2743 651 
Q 3003 894 3003 1313 
Q 3003 1734 2745 1975 
Q 2488 2216 2034 2216 
z
M 1403 2484 
Q 997 2584 770 2862 
Q 544 3141 544 3541 
Q 544 4100 942 4425 
Q 1341 4750 2034 4750 
Q 2731 4750 3128 4425 
Q 3525 4100 3525 3541 
Q 3525 3141 3298 2862 
Q 3072 2584 2669 2484 
Q 3125 2378 3379 2068 
Q 3634 1759 3634 1313 
Q 3634 634 3220 271 
Q 2806 -91 2034 -91 
Q 1263 -91 848 271 
Q 434 634 434 1313 
Q 434 1759 690 2068 
Q 947 2378 1403 2484 
z
M 1172 3481 
Q 1172 3119 1398 2916 
Q 1625 2713 2034 2713 
Q 2441 2713 2670 2916 
Q 2900 3119 2900 3481 
Q 2900 3844 2670 4047 
Q 2441 4250 2034 4250 
Q 1625 4250 1398 4047 
Q 1172 3844 1172 3481 
z
" transform="scale(0.015625)"/>
       </defs>
       <use xlink:href="#DejaVuSans-38"/>
       <use xlink:href="#DejaVuSans-30" transform="translate(63.623047 0)"/>
       <use xlink:href="#DejaVuSans-30" transform="translate(127.246094 0)"/>
      </g>
     </g>
    </g>
   </g>
   <g id="matplotlib.axis_2">
    <g id="ytick_1">
     <g id="line2d_7">
      <defs>
       <path id="mb149f23419" d="M 0 0 
L -3.5 0 
" style="stroke: #000000; stroke-width: 0.8"/>
      </defs>
      <g>
       <use xlink:href="#mb149f23419" x="70.2" y="195.000308" style="stroke: #000000; stroke-width: 0.8"/>
      </g>
     </g>
     <g id="text_7">
      <!-- 10 -->
      <g transform="translate(50.475 198.799527) scale(0.1 -0.1)">
       <defs>
        <path id="DejaVuSans-31" d="M 794 531 
L 1825 531 
L 1825 4091 
L 703 3866 
L 703 4441 
L 1819 4666 
L 2450 4666 
L 2450 531 
L 3481 531 
L 3481 0 
L 794 0 
L 794 531 
z
" transform="scale(0.015625)"/>
       </defs>
       <use xlink:href="#DejaVuSans-31"/>
       <use xlink:href="#DejaVuSans-30" transform="translate(63.623047 0)"/>
      </g>
     </g>
    </g>
    <g id="ytick_2">
     <g id="line2d_8">
      <g>
       <use xlink:href="#mb149f23419" x="70.2" y="159.683108" style="stroke: #000000; stroke-width: 0.8"/>
      </g>
     </g>
     <g id="text_8">
      <!-- 15 -->
      <g transform="translate(50.475 163.482327) scale(0.1 -0.1)">
       <defs>
        <path id="DejaVuSans-35" d="M 691 4666 
L 3169 4666 
L 3169 4134 
L 1269 4134 
L 1269 2991 
Q 1406 3038 1543 3061 
Q 1681 3084 1819 3084 
Q 2600 3084 3056 2656 
Q 3513 2228 3513 1497 
Q 3513 744 3044 326 
Q 2575 -91 1722 -91 
Q 1428 -91 1123 -41 
Q 819 9 494 109 
L 494 744 
Q 775 591 1075 516 
Q 1375 441 1709 441 
Q 2250 441 2565 725 
Q 2881 1009 2881 1497 
Q 2881 1984 2565 2268 
Q 2250 2553 1709 2553 
Q 1456 2553 1204 2497 
Q 953 2441 691 2322 
L 691 4666 
z
" transform="scale(0.015625)"/>
       </defs>
       <use xlink:href="#DejaVuSans-31"/>
       <use xlink:href="#DejaVuSans-35" transform="translate(63.623047 0)"/>
      </g>
     </g>
    </g>
    <g id="ytick_3">
     <g id="line2d_9">
      <g>
       <use xlink:href="#mb149f23419" x="70.2" y="124.365909" style="stroke: #000000; stroke-width: 0.8"/>
      </g>
     </g>
     <g id="text_9">
      <!-- 20 -->
      <g transform="translate(50.475 128.165127) scale(0.1 -0.1)">
       <use xlink:href="#DejaVuSans-32"/>
       <use xlink:href="#DejaVuSans-30" transform="translate(63.623047 0)"/>
      </g>
     </g>
    </g>
    <g id="ytick_4">
     <g id="line2d_10">
      <g>
       <use xlink:href="#mb149f23419" x="70.2" y="89.048709" style="stroke: #000000; stroke-width: 0.8"/>
      </g>
     </g>
     <g id="text_10">
      <!-- 25 -->
      <g transform="translate(50.475 92.847928) scale(0.1 -0.1)">
       <use xlink:href="#DejaVuSans-32"/>
       <use xlink:href="#DejaVuSans-35" transform="translate(63.623047 0)"/>
      </g>
     </g>
    </g>
    <g id="text_11">
     <!-- ΔLL (bits) -->
     <g transform="translate(44.395313 160.500937) rotate(-90) scale(0.1 -0.1)">
      <defs>
       <path id="DejaVuSans-394" d="M 2188 4044 
L 906 525 
L 3472 525 
L 2188 4044 
z
M 50 0 
L 1831 4666 
L 2547 4666 
L 4325 0 
L 50 0 
z
" transform="scale(0.015625)"/>
       <path id="DejaVuSans-4c" d="M 628 4666 
L 1259 4666 
L 1259 531 
L 3531 531 
L 3531 0 
L 628 0 
L 628 4666 
z
" transform="scale(0.015625)"/>
       <path id="DejaVuSans-20" transform="scale(0.015625)"/>
       <path id="DejaVuSans-28" d="M 1984 4856 
Q 1566 4138 1362 3434 
Q 1159 2731 1159 2009 
Q 1159 1288 1364 580 
Q 1569 -128 1984 -844 
L 1484 -844 
Q 1016 -109 783 600 
Q 550 1309 550 2009 
Q 550 2706 781 3412 
Q 1013 4119 1484 4856 
L 1984 4856 
z
" transform="scale(0.015625)"/>
       <path id="DejaVuSans-62" d="M 3116 1747 
Q 3116 2381 2855 2742 
Q 2594 3103 2138 3103 
Q 1681 3103 1420 2742 
Q 1159 2381 1159 1747 
Q 1159 1113 1420 752 
Q 1681 391 2138 391 
Q 2594 391 2855 752 
Q 3116 1113 3116 1747 
z
M 1159 2969 
Q 1341 3281 1617 3432 
Q 1894 3584 2278 3584 
Q 2916 3584 3314 3078 
Q 3713 2572 3713 1747 
Q 3713 922 3314 415 
Q 2916 -91 2278 -91 
Q 1894 -91 1617 61 
Q 1341 213 1159 525 
L 1159 0 
L 581 0 
L 581 4863 
L 1159 4863 
L 1159 2969 
z
" transform="scale(0.015625)"/>
       <path id="DejaVuSans-69" d="M 603 3500 
L 1178 3500 
L 1178 0 
L 603 0 
L 603 3500 
z
M 603 4863 
L 1178 4863 
L 1178 4134 
L 603 4134 
L 603 4863 
z
" transform="scale(0.015625)"/>
       <path id="DejaVuSans-74" d="M 1172 4494 
L 1172 3500 
L 2356 3500 
L 2356 3053 
L 1172 3053 
L 1172 1153 
Q 1172 725 1289 603 
Q 1406 481 1766 481 
L 2356 481 
L 2356 0 
L 1766 0 
Q 1100 0 847 248 
Q 594 497 594 1153 
L 594 3053 
L 172 3053 
L 172 3500 
L 594 3500 
L 594 4494 
L 1172 4494 
z
" transform="scale(0.015625)"/>
       <path id="DejaVuSans-73" d="M 2834 3397 
L 2834 2853 
Q 2591 2978 2328 3040 
Q 2066 3103 1784 3103 
Q 1356 3103 1142 2972 
Q 928 2841 928 2578 
Q 928 2378 1081 2264 
Q 1234 2150 1697 2047 
L 1894 2003 
Q 2506 1872 2764 1633 
Q 3022 1394 3022 966 
Q 3022 478 2636 193 
Q 2250 -91 1575 -91 
Q 1294 -91 989 -36 
Q 684 19 347 128 
L 347 722 
Q 666 556 975 473 
Q 1284 391 1588 391 
Q 1994 391 2212 530 
Q 2431 669 2431 922 
Q 2431 1156 2273 1281 
Q 2116 1406 1581 1522 
L 1381 1569 
Q 847 1681 609 1914 
Q 372 2147 372 2553 
Q 372 3047 722 3315 
Q 1072 3584 1716 3584 
Q 2034 3584 2315 3537 
Q 2597 3491 2834 3397 
z
" transform="scale(0.015625)"/>
       <path id="DejaVuSans-29" d="M 513 4856 
L 1013 4856 
Q 1481 4119 1714 3412 
Q 1947 2706 1947 2009 
Q 1947 1309 1714 600 
Q 1481 -109 1013 -844 
L 513 -844 
Q 928 -128 1133 580 
Q 1338 1288 1338 2009 
Q 1338 2731 1133 3434 
Q 928 4138 513 4856 
z
" transform="scale(0.015625)"/>
      </defs>
      <use xlink:href="#DejaVuSans-394"/>
      <use xlink:href="#DejaVuSans-4c" transform="translate(68.408203 0)"/>
      <use xlink:href="#DejaVuSans-4c" transform="translate(124.121094 0)"/>
      <use xlink:href="#DejaVuSans-20" transform="translate(179.833984 0)"/>
      <use xlink:href="#DejaVuSans-28" transform="translate(211.621094 0)"/>
      <use xlink:href="#DejaVuSans-62" transform="translate(250.634766 0)"/>
      <use xlink:href="#DejaVuSans-69" transform="translate(314.111328 0)"/>
      <use xlink:href="#DejaVuSans-74" transform="translate(341.894531 0)"/>
      <use xlink:href="#DejaVuSans-73" transform="translate(381.103516 0)"/>
      <use xlink:href="#DejaVuSans-29" transform="translate(433.203125 0)"/>
     </g>
    </g>
   </g>
   <g id="line2d_11">
    <path d="M 167.91917 206.388 
L 167.91917 67.392 
" clip-path="url(#p9b20ab387f)" style="fill: none; stroke-dasharray: 2.96,1.28; stroke-dashoffset: 0; stroke: #000000; stroke-width: 0.8"/>
   </g>
   <g id="line2d_12">
    <path d="M 89.983636 152.863163 
L 93.980327 149.180468 
L 97.977023 148.551919 
L 101.973713 153.477272 
L 105.97041 154.639981 
L 109.967106 151.693616 
L 113.963796 147.86367 
L 117.960493 148.32985 
L 121.957186 153.716551 
L 125.953882 149.380625 
L 129.950576 150.888758 
L 133.947269 148.62069 
L 137.943962 148.913064 
L 141.940659 152.925179 
L 145.937352 147.531004 
L 149.934045 150.373456 
L 153.93074 153.489149 
L 157.927434 150.832672 
L 161.924129 150.532506 
L 165.920823 146.662542 
L 169.917517 152.544215 
L 173.914211 151.324389 
L 177.910906 146.935822 
L 181.9076 151.609256 
L 185.904294 151.421845 
L 189.900988 151.404893 
L 193.897681 152.312883 
L 197.894377 151.224155 
L 201.891071 154.045139 
L 205.887764 153.052888 
L 209.884457 151.617612 
L 213.881154 154.729341 
L 217.877847 148.110933 
L 221.874543 150.741272 
L 225.871234 153.295132 
L 229.86793 153.445742 
L 233.864626 153.096004 
L 237.861317 149.75248 
L 241.858013 150.409009 
L 245.854704 151.736039 
L 249.8514 151.077157 
L 253.848096 153.132724 
L 257.844787 150.204102 
L 261.841483 148.838985 
L 265.838179 154.222198 
L 269.83487 148.542974 
L 273.83156 150.302576 
L 277.828262 151.410254 
L 281.824953 148.282932 
L 285.821643 151.2504 
L 289.818345 150.956983 
L 293.815036 152.563851 
L 297.811726 152.125672 
L 301.808428 151.500333 
L 305.805119 151.419365 
L 309.801809 148.913007 
L 313.798511 149.207204 
L 317.795202 152.934665 
L 321.791892 154.869704 
L 325.788594 154.83726 
L 329.785285 153.047653 
L 333.781975 148.484644 
L 337.778677 148.993242 
L 341.775368 156.243551 
L 345.772058 159.272457 
L 349.76876 152.205629 
L 353.765451 148.941062 
L 357.762141 151.5975 
L 361.758843 151.149904 
L 365.755534 151.133736 
L 369.752224 152.938572 
L 373.748914 151.534322 
L 377.745605 152.693876 
L 381.742319 151.516508 
L 385.739009 149.074331 
L 389.7357 146.921296 
L 393.73239 148.606861 
L 397.72908 148.056535 
L 401.725771 151.494575 
L 405.722485 152.753492 
L 409.719175 154.448315 
L 413.715866 154.571401 
L 417.712556 151.509441 
L 421.709246 153.244947 
L 425.705937 149.665809 
L 429.702627 154.154435 
L 433.699341 155.479697 
L 437.696032 151.362692 
L 441.692722 154.955604 
L 445.689412 154.243284 
L 449.686103 153.714001 
L 453.682793 146.525612 
L 457.679507 151.093837 
L 461.676198 150.060013 
L 465.672888 151.141986 
L 469.669578 153.497121 
L 473.666269 149.408103 
L 477.662959 143.212717 
L 481.659673 149.600024 
L 485.656364 149.252927 
" clip-path="url(#p9b20ab387f)" style="fill: none; stroke-dasharray: 1,1.65; stroke-dashoffset: 0; stroke: #1f77b4"/>
   </g>
   <g id="line2d_13">
    <path d="M 89.983636 148.574387 
L 93.980327 149.279813 
L 97.977023 152.623717 
L 101.973713 153.961399 
L 105.97041 150.605613 
L 109.967106 151.014839 
L 113.963796 147.11741 
L 117.960493 149.531876 
L 121.957186 152.478792 
L 125.953882 148.05587 
L 129.950576 150.603436 
L 133.947269 154.466743 
L 137.943962 154.87727 
L 141.940659 152.456633 
L 145.937352 151.161389 
L 149.934045 150.180334 
L 153.93074 148.420995 
L 157.927434 149.467222 
L 161.924129 153.045085 
L 165.920823 155.392843 
L 169.917517 150.12581 
L 173.914211 153.353357 
L 177.910906 148.281271 
L 181.9076 150.633846 
L 185.904294 152.515077 
L 189.900988 154.235181 
L 193.897681 152.745988 
L 197.894377 146.706713 
L 201.891071 153.907317 
L 205.887764 149.566542 
L 209.884457 147.630058 
L 213.881154 153.882956 
L 217.877847 152.820089 
L 221.874543 148.851225 
L 225.871234 147.197008 
L 229.86793 151.279377 
L 233.864626 152.198742 
L 237.861317 151.649232 
L 241.858013 154.286489 
L 245.854704 152.418038 
L 249.8514 150.515709 
L 253.848096 153.371203 
L 257.844787 154.924758 
L 261.841483 154.794729 
L 265.838179 156.899279 
L 269.83487 153.053641 
L 273.83156 148.177241 
L 277.828262 151.597023 
L 281.824953 153.734322 
L 285.821643 142.89271 
L 289.818345 152.721262 
L 293.815036 152.332394 
L 297.811726 148.139039 
L 301.808428 147.375127 
L 305.805119 153.22767 
L 309.801809 148.551475 
L 313.798511 155.14474 
L 317.795202 150.316673 
L 321.791892 151.23943 
L 325.788594 149.470321 
L 329.785285 146.33645 
L 333.781975 147.644293 
L 337.778677 153.266193 
L 341.775368 153.394082 
L 345.772058 154.47675 
L 349.76876 155.193462 
L 353.765451 151.121036 
L 357.762141 152.630936 
L 361.758843 152.270688 
L 365.755534 154.331619 
L 369.752224 145.63761 
L 373.748914 150.660731 
L 377.745605 152.582595 
L 381.742319 153.865771 
L 385.739009 149.150788 
L 389.7357 151.639494 
L 393.73239 148.794143 
L 397.72908 149.163126 
L 401.725771 149.839888 
L 405.722485 150.216588 
L 409.719175 144.51515 
L 413.715866 151.867613 
L 417.712556 156.333751 
L 421.709246 149.850676 
L 425.705937 149.14865 
L 429.702627 146.749275 
L 433.699341 150.786636 
L 437.696032 144.492769 
L 441.692722 152.085254 
L 445.689412 152.694032 
L 449.686103 151.075658 
L 453.682793 150.089088 
L 457.679507 148.93981 
L 461.676198 153.100637 
L 465.672888 154.168305 
L 469.669578 152.525985 
L 473.666269 148.622948 
L 477.662959 149.899753 
L 481.659673 150.148628 
L 485.656364 152.535511 
" clip-path="url(#p9b20ab387f)" style="fill: none; stroke-dasharray: 1,1.65; stroke-dashoffset: 0; stroke: #ff7f0e"/>
   </g>
   <g id="line2d_14">
    <path d="M 89.983636 130.082271 
L 93.980327 175.130023 
L 97.977023 116.606255 
L 101.973713 169.268615 
L 105.97041 133.167914 
L 109.967106 139.878768 
L 113.963796 142.038293 
L 117.960493 168.553521 
L 121.957186 136.431561 
L 125.953882 160.013725 
L 129.950576 173.220732 
L 133.947269 147.090214 
L 137.943962 138.182454 
L 141.940659 140.743714 
L 145.937352 152.247213 
L 149.934045 173.179791 
L 153.93074 127.85021 
L 157.927434 153.849262 
L 161.924129 140.549909 
L 165.920823 108.850669 
L 169.917517 117.344495 
L 173.914211 152.824742 
L 177.910906 125.470725 
L 181.9076 149.964245 
L 185.904294 157.613729 
L 189.900988 122.467531 
L 193.897681 153.195879 
L 197.894377 130.911424 
L 201.891071 143.597202 
L 205.887764 158.64192 
L 209.884457 160.622999 
L 213.881154 172.155461 
L 217.877847 163.798174 
L 221.874543 152.343807 
L 225.871234 141.783201 
L 229.86793 138.348446 
L 233.864626 139.336404 
L 237.861317 163.077758 
L 241.858013 155.280223 
L 245.854704 157.973791 
L 249.8514 158.265518 
L 253.848096 176.704092 
L 257.844787 146.332563 
L 261.841483 88.077338 
L 265.838179 157.496861 
L 269.83487 144.952918 
L 273.83156 146.305389 
L 277.828262 153.137437 
L 281.824953 128.731498 
L 285.821643 158.104768 
L 289.818345 161.521801 
L 293.815036 164.65866 
L 297.811726 136.048211 
L 301.808428 139.894297 
L 305.805119 142.337565 
L 309.801809 141.569303 
L 313.798511 125.874919 
L 317.795202 124.913895 
L 321.791892 166.210809 
L 325.788594 154.542073 
L 329.785285 165.480983 
L 333.781975 146.67645 
L 337.778677 129.405179 
L 341.775368 137.528107 
L 345.772058 180.521483 
L 349.76876 165.703137 
L 353.765451 73.71 
L 357.762141 151.918665 
L 361.758843 160.179652 
L 365.755534 153.949132 
L 369.752224 166.986089 
L 373.748914 150.306015 
L 377.745605 156.357844 
L 381.742319 138.150697 
L 385.739009 113.799749 
L 389.7357 170.193574 
L 393.73239 152.136561 
L 397.72908 162.871341 
L 401.725771 136.38394 
L 405.722485 199.357239 
L 409.719175 176.824285 
L 413.715866 160.624315 
L 417.712556 168.373626 
L 421.709246 151.349962 
L 425.705937 151.382654 
L 429.702627 166.014314 
L 433.699341 125.258608 
L 437.696032 179.848325 
L 441.692722 132.844897 
L 445.689412 142.604406 
L 449.686103 172.097566 
L 453.682793 152.90945 
L 457.679507 172.731798 
L 461.676198 171.549864 
L 465.672888 130.516168 
L 469.669578 119.755311 
L 473.666269 88.546039 
L 477.662959 129.677387 
L 481.659673 154.245554 
L 485.656364 160.528642 
" clip-path="url(#p9b20ab387f)" style="fill: none; stroke: #1f77b4; stroke-width: 2.2; stroke-linecap: square"/>
   </g>
   <g id="line2d_15">
    <path d="M 89.983636 129.694572 
L 93.980327 187.399785 
L 97.977023 143.062388 
L 101.973713 156.067413 
L 105.97041 155.894924 
L 109.967106 165.093994 
L 113.963796 140.934058 
L 117.960493 168.479364 
L 121.957186 130.254891 
L 125.953882 140.004316 
L 129.950576 125.10706 
L 133.947269 158.680665 
L 137.943962 138.793853 
L 141.940659 165.274843 
L 145.937352 144.930395 
L 149.934045 124.950406 
L 153.93074 169.252059 
L 157.927434 163.736229 
L 161.924129 148.340641 
L 165.920823 163.700948 
L 169.917517 144.463424 
L 173.914211 144.634288 
L 177.910906 150.131974 
L 181.9076 146.761351 
L 185.904294 116.844201 
L 189.900988 156.923967 
L 193.897681 166.863398 
L 197.894377 153.513987 
L 201.891071 167.828729 
L 205.887764 136.078604 
L 209.884457 111.853427 
L 213.881154 150.303708 
L 217.877847 200.07 
L 221.874543 162.895847 
L 225.871234 130.074571 
L 229.86793 153.151239 
L 233.864626 160.396365 
L 237.861317 169.015264 
L 241.858013 143.779433 
L 245.854704 133.928125 
L 249.8514 180.584584 
L 253.848096 137.052578 
L 257.844787 153.88456 
L 261.841483 142.887632 
L 265.838179 159.355222 
L 269.83487 148.786676 
L 273.83156 153.932113 
L 277.828262 162.026082 
L 281.824953 159.097941 
L 285.821643 179.571561 
L 289.818345 182.051043 
L 293.815036 172.54612 
L 297.811726 146.8921 
L 301.808428 151.082313 
L 305.805119 183.376126 
L 309.801809 154.415226 
L 313.798511 151.473637 
L 317.795202 150.488612 
L 321.791892 156.690498 
L 325.788594 151.496287 
L 329.785285 161.331772 
L 333.781975 128.496354 
L 337.778677 161.383195 
L 341.775368 166.859307 
L 345.772058 140.929788 
L 349.76876 146.200366 
L 353.765451 149.038909 
L 357.762141 191.565271 
L 361.758843 163.081793 
L 365.755534 156.378855 
L 369.752224 129.989601 
L 373.748914 174.758027 
L 377.745605 130.274881 
L 381.742319 164.083383 
L 385.739009 166.53865 
L 389.7357 143.01511 
L 393.73239 106.568444 
L 397.72908 159.205728 
L 401.725771 180.785324 
L 405.722485 152.435526 
L 409.719175 141.315841 
L 413.715866 162.919495 
L 417.712556 143.552324 
L 421.709246 151.323395 
L 425.705937 187.162536 
L 429.702627 170.137943 
L 433.699341 138.754315 
L 437.696032 145.128493 
L 441.692722 149.959383 
L 445.689412 153.085361 
L 449.686103 124.924594 
L 453.682793 134.564889 
L 457.679507 158.468081 
L 461.676198 154.672486 
L 465.672888 184.583195 
L 469.669578 139.049965 
L 473.666269 146.956847 
L 477.662959 147.181475 
L 481.659673 142.924123 
L 485.656364 153.627739 
" clip-path="url(#p9b20ab387f)" style="fill: none; stroke: #ff7f0e; stroke-width: 2.2; stroke-linecap: square"/>
   </g>
   <g id="patch_3">
    <path d="M 70.2 206.388 
L 70.2 67.392 
" style="fill: none; stroke: #000000; stroke-width: 0.8; stroke-linejoin: miter; stroke-linecap: square"/>
   </g>
   <g id="patch_4">
    <path d="M 505.44 206.388 
L 505.44 67.392 
" style="fill: none; stroke: #000000; stroke-width: 0.8; stroke-linejoin: miter; stroke-linecap: square"/>
   </g>
   <g id="patch_5">
    <path d="M 70.2 206.388 
L 505.44 206.388 
" style="fill: none; stroke: #000000; stroke-width: 0.8; stroke-linejoin: miter; stroke-linecap: square"/>
   </g>
   <g id="patch_6">
    <path d="M 70.2 67.392 
L 505.44 67.392 
" style="fill: none; stroke: #000000; stroke-width: 0.8; stroke-linejoin: miter; stroke-linecap: square"/>
   </g>
   <g id="text_12">
    <!-- (MFEF vs MSC) — R-flow — Panel A: overlay + null bands -->
    <g transform="translate(117.316875 61.392) scale(0.12 -0.12)">
     <defs>
      <path id="DejaVuSans-4d" d="M 628 4666 
L 1569 4666 
L 2759 1491 
L 3956 4666 
L 4897 4666 
L 4897 0 
L 4281 0 
L 4281 4097 
L 3078 897 
L 2444 897 
L 1241 4097 
L 1241 0 
L 628 0 
L 628 4666 
z
" transform="scale(0.015625)"/>
      <path id="DejaVuSans-46" d="M 628 4666 
L 3309 4666 
L 3309 4134 
L 1259 4134 
L 1259 2759 
L 3109 2759 
L 3109 2228 
L 1259 2228 
L 1259 0 
L 628 0 
L 628 4666 
z
" transform="scale(0.015625)"/>
      <path id="DejaVuSans-45" d="M 628 4666 
L 3578 4666 
L 3578 4134 
L 1259 4134 
L 1259 2753 
L 3481 2753 
L 3481 2222 
L 1259 2222 
L 1259 531 
L 3634 531 
L 3634 0 
L 628 0 
L 628 4666 
z
" transform="scale(0.015625)"/>
      <path id="DejaVuSans-76" d="M 191 3500 
L 800 3500 
L 1894 563 
L 2988 3500 
L 3597 3500 
L 2284 0 
L 1503 0 
L 191 3500 
z
" transform="scale(0.015625)"/>
      <path id="DejaVuSans-53" d="M 3425 4513 
L 3425 3897 
Q 3066 4069 2747 4153 
Q 2428 4238 2131 4238 
Q 1616 4238 1336 4038 
Q 1056 3838 1056 3469 
Q 1056 3159 1242 3001 
Q 1428 2844 1947 2747 
L 2328 2669 
Q 3034 2534 3370 2195 
Q 3706 1856 3706 1288 
Q 3706 609 3251 259 
Q 2797 -91 1919 -91 
Q 1588 -91 1214 -16 
Q 841 59 441 206 
L 441 856 
Q 825 641 1194 531 
Q 1563 422 1919 422 
Q 2459 422 2753 634 
Q 3047 847 3047 1241 
Q 3047 1584 2836 1778 
Q 2625 1972 2144 2069 
L 1759 2144 
Q 1053 2284 737 2584 
Q 422 2884 422 3419 
Q 422 4038 858 4394 
Q 1294 4750 2059 4750 
Q 2388 4750 2728 4690 
Q 3069 4631 3425 4513 
z
" transform="scale(0.015625)"/>
      <path id="DejaVuSans-43" d="M 4122 4306 
L 4122 3641 
Q 3803 3938 3442 4084 
Q 3081 4231 2675 4231 
Q 1875 4231 1450 3742 
Q 1025 3253 1025 2328 
Q 1025 1406 1450 917 
Q 1875 428 2675 428 
Q 3081 428 3442 575 
Q 3803 722 4122 1019 
L 4122 359 
Q 3791 134 3420 21 
Q 3050 -91 2638 -91 
Q 1578 -91 968 557 
Q 359 1206 359 2328 
Q 359 3453 968 4101 
Q 1578 4750 2638 4750 
Q 3056 4750 3426 4639 
Q 3797 4528 4122 4306 
z
" transform="scale(0.015625)"/>
      <path id="DejaVuSans-2014" d="M 313 1978 
L 6088 1978 
L 6088 1528 
L 313 1528 
L 313 1978 
z
" transform="scale(0.015625)"/>
      <path id="DejaVuSans-52" d="M 2841 2188 
Q 3044 2119 3236 1894 
Q 3428 1669 3622 1275 
L 4263 0 
L 3584 0 
L 2988 1197 
Q 2756 1666 2539 1819 
Q 2322 1972 1947 1972 
L 1259 1972 
L 1259 0 
L 628 0 
L 628 4666 
L 2053 4666 
Q 2853 4666 3247 4331 
Q 3641 3997 3641 3322 
Q 3641 2881 3436 2590 
Q 3231 2300 2841 2188 
z
M 1259 4147 
L 1259 2491 
L 2053 2491 
Q 2509 2491 2742 2702 
Q 2975 2913 2975 3322 
Q 2975 3731 2742 3939 
Q 2509 4147 2053 4147 
L 1259 4147 
z
" transform="scale(0.015625)"/>
      <path id="DejaVuSans-2d" d="M 313 2009 
L 1997 2009 
L 1997 1497 
L 313 1497 
L 313 2009 
z
" transform="scale(0.015625)"/>
      <path id="DejaVuSans-66" d="M 2375 4863 
L 2375 4384 
L 1825 4384 
Q 1516 4384 1395 4259 
Q 1275 4134 1275 3809 
L 1275 3500 
L 2222 3500 
L 2222 3053 
L 1275 3053 
L 1275 0 
L 697 0 
L 697 3053 
L 147 3053 
L 147 3500 
L 697 3500 
L 697 3744 
Q 697 4328 969 4595 
Q 1241 4863 1831 4863 
L 2375 4863 
z
" transform="scale(0.015625)"/>
      <path id="DejaVuSans-6c" d="M 603 4863 
L 1178 4863 
L 1178 0 
L 603 0 
L 603 4863 
z
" transform="scale(0.015625)"/>
      <path id="DejaVuSans-6f" d="M 1959 3097 
Q 1497 3097 1228 2736 
Q 959 2375 959 1747 
Q 959 1119 1226 758 
Q 1494 397 1959 397 
Q 2419 397 2687 759 
Q 2956 1122 2956 1747 
Q 2956 2369 2687 2733 
Q 2419 3097 1959 3097 
z
M 1959 3584 
Q 2709 3584 3137 3096 
Q 3566 2609 3566 1747 
Q 3566 888 3137 398 
Q 2709 -91 1959 -91 
Q 1206 -91 779 398 
Q 353 888 353 1747 
Q 353 2609 779 3096 
Q 1206 3584 1959 3584 
z
" transform="scale(0.015625)"/>
      <path id="DejaVuSans-77" d="M 269 3500 
L 844 3500 
L 1563 769 
L 2278 3500 
L 2956 3500 
L 3675 769 
L 4391 3500 
L 4966 3500 
L 4050 0 
L 3372 0 
L 2619 2869 
L 1863 0 
L 1184 0 
L 269 3500 
z
" transform="scale(0.015625)"/>
      <path id="DejaVuSans-50" d="M 1259 4147 
L 1259 2394 
L 2053 2394 
Q 2494 2394 2734 2622 
Q 2975 2850 2975 3272 
Q 2975 3691 2734 3919 
Q 2494 4147 2053 4147 
L 1259 4147 
z
M 628 4666 
L 2053 4666 
Q 2838 4666 3239 4311 
Q 3641 3956 3641 3272 
Q 3641 2581 3239 2228 
Q 2838 1875 2053 1875 
L 1259 1875 
L 1259 0 
L 628 0 
L 628 4666 
z
" transform="scale(0.015625)"/>
      <path id="DejaVuSans-61" d="M 2194 1759 
Q 1497 1759 1228 1600 
Q 959 1441 959 1056 
Q 959 750 1161 570 
Q 1363 391 1709 391 
Q 2188 391 2477 730 
Q 2766 1069 2766 1631 
L 2766 1759 
L 2194 1759 
z
M 3341 1997 
L 3341 0 
L 2766 0 
L 2766 531 
Q 2569 213 2275 61 
Q 1981 -91 1556 -91 
Q 1019 -91 701 211 
Q 384 513 384 1019 
Q 384 1609 779 1909 
Q 1175 2209 1959 2209 
L 2766 2209 
L 2766 2266 
Q 2766 2663 2505 2880 
Q 2244 3097 1772 3097 
Q 1472 3097 1187 3025 
Q 903 2953 641 2809 
L 641 3341 
Q 956 3463 1253 3523 
Q 1550 3584 1831 3584 
Q 2591 3584 2966 3190 
Q 3341 2797 3341 1997 
z
" transform="scale(0.015625)"/>
      <path id="DejaVuSans-6e" d="M 3513 2113 
L 3513 0 
L 2938 0 
L 2938 2094 
Q 2938 2591 2744 2837 
Q 2550 3084 2163 3084 
Q 1697 3084 1428 2787 
Q 1159 2491 1159 1978 
L 1159 0 
L 581 0 
L 581 3500 
L 1159 3500 
L 1159 2956 
Q 1366 3272 1645 3428 
Q 1925 3584 2291 3584 
Q 2894 3584 3203 3211 
Q 3513 2838 3513 2113 
z
" transform="scale(0.015625)"/>
      <path id="DejaVuSans-65" d="M 3597 1894 
L 3597 1613 
L 953 1613 
Q 991 1019 1311 708 
Q 1631 397 2203 397 
Q 2534 397 2845 478 
Q 3156 559 3463 722 
L 3463 178 
Q 3153 47 2828 -22 
Q 2503 -91 2169 -91 
Q 1331 -91 842 396 
Q 353 884 353 1716 
Q 353 2575 817 3079 
Q 1281 3584 2069 3584 
Q 2775 3584 3186 3129 
Q 3597 2675 3597 1894 
z
M 3022 2063 
Q 3016 2534 2758 2815 
Q 2500 3097 2075 3097 
Q 1594 3097 1305 2825 
Q 1016 2553 972 2059 
L 3022 2063 
z
" transform="scale(0.015625)"/>
      <path id="DejaVuSans-41" d="M 2188 4044 
L 1331 1722 
L 3047 1722 
L 2188 4044 
z
M 1831 4666 
L 2547 4666 
L 4325 0 
L 3669 0 
L 3244 1197 
L 1141 1197 
L 716 0 
L 50 0 
L 1831 4666 
z
" transform="scale(0.015625)"/>
      <path id="DejaVuSans-3a" d="M 750 794 
L 1409 794 
L 1409 0 
L 750 0 
L 750 794 
z
M 750 3309 
L 1409 3309 
L 1409 2516 
L 750 2516 
L 750 3309 
z
" transform="scale(0.015625)"/>
      <path id="DejaVuSans-72" d="M 2631 2963 
Q 2534 3019 2420 3045 
Q 2306 3072 2169 3072 
Q 1681 3072 1420 2755 
Q 1159 2438 1159 1844 
L 1159 0 
L 581 0 
L 581 3500 
L 1159 3500 
L 1159 2956 
Q 1341 3275 1631 3429 
Q 1922 3584 2338 3584 
Q 2397 3584 2469 3576 
Q 2541 3569 2628 3553 
L 2631 2963 
z
" transform="scale(0.015625)"/>
      <path id="DejaVuSans-79" d="M 2059 -325 
Q 1816 -950 1584 -1140 
Q 1353 -1331 966 -1331 
L 506 -1331 
L 506 -850 
L 844 -850 
Q 1081 -850 1212 -737 
Q 1344 -625 1503 -206 
L 1606 56 
L 191 3500 
L 800 3500 
L 1894 763 
L 2988 3500 
L 3597 3500 
L 2059 -325 
z
" transform="scale(0.015625)"/>
      <path id="DejaVuSans-2b" d="M 2944 4013 
L 2944 2272 
L 4684 2272 
L 4684 1741 
L 2944 1741 
L 2944 0 
L 2419 0 
L 2419 1741 
L 678 1741 
L 678 2272 
L 2419 2272 
L 2419 4013 
L 2944 4013 
z
" transform="scale(0.015625)"/>
      <path id="DejaVuSans-75" d="M 544 1381 
L 544 3500 
L 1119 3500 
L 1119 1403 
Q 1119 906 1312 657 
Q 1506 409 1894 409 
Q 2359 409 2629 706 
Q 2900 1003 2900 1516 
L 2900 3500 
L 3475 3500 
L 3475 0 
L 2900 0 
L 2900 538 
Q 2691 219 2414 64 
Q 2138 -91 1772 -91 
Q 1169 -91 856 284 
Q 544 659 544 1381 
z
M 1991 3584 
L 1991 3584 
z
" transform="scale(0.015625)"/>
      <path id="DejaVuSans-64" d="M 2906 2969 
L 2906 4863 
L 3481 4863 
L 3481 0 
L 2906 0 
L 2906 525 
Q 2725 213 2448 61 
Q 2172 -91 1784 -91 
Q 1150 -91 751 415 
Q 353 922 353 1747 
Q 353 2572 751 3078 
Q 1150 3584 1784 3584 
Q 2172 3584 2448 3432 
Q 2725 3281 2906 2969 
z
M 947 1747 
Q 947 1113 1208 752 
Q 1469 391 1925 391 
Q 2381 391 2643 752 
Q 2906 1113 2906 1747 
Q 2906 2381 2643 2742 
Q 2381 3103 1925 3103 
Q 1469 3103 1208 2742 
Q 947 2381 947 1747 
z
" transform="scale(0.015625)"/>
     </defs>
     <use xlink:href="#DejaVuSans-28"/>
     <use xlink:href="#DejaVuSans-4d" transform="translate(39.013672 0)"/>
     <use xlink:href="#DejaVuSans-46" transform="translate(125.292969 0)"/>
     <use xlink:href="#DejaVuSans-45" transform="translate(182.8125 0)"/>
     <use xlink:href="#DejaVuSans-46" transform="translate(245.996094 0)"/>
     <use xlink:href="#DejaVuSans-20" transform="translate(303.515625 0)"/>
     <use xlink:href="#DejaVuSans-76" transform="translate(335.302734 0)"/>
     <use xlink:href="#DejaVuSans-73" transform="translate(394.482422 0)"/>
     <use xlink:href="#DejaVuSans-20" transform="translate(446.582031 0)"/>
     <use xlink:href="#DejaVuSans-4d" transform="translate(478.369141 0)"/>
     <use xlink:href="#DejaVuSans-53" transform="translate(564.648438 0)"/>
     <use xlink:href="#DejaVuSans-43" transform="translate(628.125 0)"/>
     <use xlink:href="#DejaVuSans-29" transform="translate(697.949219 0)"/>
     <use xlink:href="#DejaVuSans-20" transform="translate(736.962891 0)"/>
     <use xlink:href="#DejaVuSans-2014" transform="translate(768.75 0)"/>
     <use xlink:href="#DejaVuSans-20" transform="translate(868.75 0)"/>
     <use xlink:href="#DejaVuSans-52" transform="translate(900.537109 0)"/>
     <use xlink:href="#DejaVuSans-2d" transform="translate(966.019531 0)"/>
     <use xlink:href="#DejaVuSans-66" transform="translate(1002.103516 0)"/>
     <use xlink:href="#DejaVuSans-6c" transform="translate(1037.308594 0)"/>
     <use xlink:href="#DejaVuSans-6f" transform="translate(1065.091797 0)"/>
     <use xlink:href="#DejaVuSans-77" transform="translate(1126.273438 0)"/>
     <use xlink:href="#DejaVuSans-20" transform="translate(1208.060547 0)"/>
     <use xlink:href="#DejaVuSans-2014" transform="translate(1239.847656 0)"/>
     <use xlink:href="#DejaVuSans-20" transform="translate(1339.847656 0)"/>
     <use xlink:href="#DejaVuSans-50" transform="translate(1371.634766 0)"/>
     <use xlink:href="#DejaVuSans-61" transform="translate(1427.4375 0)"/>
     <use xlink:href="#DejaVuSans-6e" transform="translate(1488.716797 0)"/>
     <use xlink:href="#DejaVuSans-65" transform="translate(1552.095703 0)"/>
     <use xlink:href="#DejaVuSans-6c" transform="translate(1613.619141 0)"/>
     <use xlink:href="#DejaVuSans-20" transform="translate(1641.402344 0)"/>
     <use xlink:href="#DejaVuSans-41" transform="translate(1673.189453 0)"/>
     <use xlink:href="#DejaVuSans-3a" transform="translate(1739.847656 0)"/>
     <use xlink:href="#DejaVuSans-20" transform="translate(1773.539062 0)"/>
     <use xlink:href="#DejaVuSans-6f" transform="translate(1805.326172 0)"/>
     <use xlink:href="#DejaVuSans-76" transform="translate(1866.507812 0)"/>
     <use xlink:href="#DejaVuSans-65" transform="translate(1925.6875 0)"/>
     <use xlink:href="#DejaVuSans-72" transform="translate(1987.210938 0)"/>
     <use xlink:href="#DejaVuSans-6c" transform="translate(2028.324219 0)"/>
     <use xlink:href="#DejaVuSans-61" transform="translate(2056.107422 0)"/>
     <use xlink:href="#DejaVuSans-79" transform="translate(2117.386719 0)"/>
     <use xlink:href="#DejaVuSans-20" transform="translate(2176.566406 0)"/>
     <use xlink:href="#DejaVuSans-2b" transform="translate(2208.353516 0)"/>
     <use xlink:href="#DejaVuSans-20" transform="translate(2292.142578 0)"/>
     <use xlink:href="#DejaVuSans-6e" transform="translate(2323.929688 0)"/>
     <use xlink:href="#DejaVuSans-75" transform="translate(2387.308594 0)"/>
     <use xlink:href="#DejaVuSans-6c" transform="translate(2450.6875 0)"/>
     <use xlink:href="#DejaVuSans-6c" transform="translate(2478.470703 0)"/>
     <use xlink:href="#DejaVuSans-20" transform="translate(2506.253906 0)"/>
     <use xlink:href="#DejaVuSans-62" transform="translate(2538.041016 0)"/>
     <use xlink:href="#DejaVuSans-61" transform="translate(2601.517578 0)"/>
     <use xlink:href="#DejaVuSans-6e" transform="translate(2662.796875 0)"/>
     <use xlink:href="#DejaVuSans-64" transform="translate(2726.175781 0)"/>
     <use xlink:href="#DejaVuSans-73" transform="translate(2789.652344 0)"/>
    </g>
   </g>
   <g id="legend_1">
    <g id="patch_7">
     <path d="M 79.2 83.990437 
L 99.2 83.990437 
L 99.2 76.990437 
L 79.2 76.990437 
z
" style="fill: #1f77b4; fill-opacity: 0.15"/>
    </g>
    <g id="text_13">
     <!-- MFEF→MSC null μ±σ -->
     <g transform="translate(107.2 83.990437) scale(0.1 -0.1)">
      <defs>
       <path id="DejaVuSans-2192" d="M 5050 2147 
L 5050 1866 
L 3822 638 
L 3447 1013 
L 4175 1741 
L 366 1741 
L 366 2272 
L 4175 2272 
L 3447 3000 
L 3822 3375 
L 5050 2147 
z
" transform="scale(0.015625)"/>
       <path id="DejaVuSans-3bc" d="M 544 -1331 
L 544 3500 
L 1119 3500 
L 1119 1325 
Q 1119 872 1334 640 
Q 1550 409 1972 409 
Q 2434 409 2667 671 
Q 2900 934 2900 1459 
L 2900 3500 
L 3475 3500 
L 3475 806 
Q 3475 619 3529 530 
Q 3584 441 3700 441 
Q 3728 441 3778 458 
Q 3828 475 3916 513 
L 3916 50 
Q 3788 -22 3673 -56 
Q 3559 -91 3450 -91 
Q 3234 -91 3106 31 
Q 2978 153 2931 403 
Q 2775 156 2548 32 
Q 2322 -91 2016 -91 
Q 1697 -91 1473 31 
Q 1250 153 1119 397 
L 1119 -1331 
L 544 -1331 
z
" transform="scale(0.015625)"/>
       <path id="DejaVuSans-b1" d="M 2944 4013 
L 2944 2803 
L 4684 2803 
L 4684 2272 
L 2944 2272 
L 2944 1063 
L 2419 1063 
L 2419 2272 
L 678 2272 
L 678 2803 
L 2419 2803 
L 2419 4013 
L 2944 4013 
z
M 678 531 
L 4684 531 
L 4684 0 
L 678 0 
L 678 531 
z
" transform="scale(0.015625)"/>
       <path id="DejaVuSans-3c3" d="M 1959 3044 
Q 1484 3044 1228 2700 
Q 959 2341 959 1747 
Q 959 1119 1226 758 
Q 1494 397 1959 397 
Q 2419 397 2687 759 
Q 2956 1122 2956 1747 
Q 2956 2319 2688 2700 
Q 2441 3044 1959 3044 
z
M 1959 3500 
L 3869 3500 
L 3869 2925 
L 3225 2925 
Q 3566 2438 3566 1747 
Q 3566 888 3138 400 
Q 2709 -91 1959 -91 
Q 1206 -91 781 400 
Q 353 888 353 1747 
Q 353 2613 781 3097 
Q 1134 3500 1959 3500 
z
" transform="scale(0.015625)"/>
      </defs>
      <use xlink:href="#DejaVuSans-4d"/>
      <use xlink:href="#DejaVuSans-46" transform="translate(86.279297 0)"/>
      <use xlink:href="#DejaVuSans-45" transform="translate(143.798828 0)"/>
      <use xlink:href="#DejaVuSans-46" transform="translate(206.982422 0)"/>
      <use xlink:href="#DejaVuSans-2192" transform="translate(264.501953 0)"/>
      <use xlink:href="#DejaVuSans-4d" transform="translate(348.291016 0)"/>
      <use xlink:href="#DejaVuSans-53" transform="translate(434.570312 0)"/>
      <use xlink:href="#DejaVuSans-43" transform="translate(498.046875 0)"/>
      <use xlink:href="#DejaVuSans-20" transform="translate(567.871094 0)"/>
      <use xlink:href="#DejaVuSans-6e" transform="translate(599.658203 0)"/>
      <use xlink:href="#DejaVuSans-75" transform="translate(663.037109 0)"/>
      <use xlink:href="#DejaVuSans-6c" transform="translate(726.416016 0)"/>
      <use xlink:href="#DejaVuSans-6c" transform="translate(754.199219 0)"/>
      <use xlink:href="#DejaVuSans-20" transform="translate(781.982422 0)"/>
      <use xlink:href="#DejaVuSans-3bc" transform="translate(813.769531 0)"/>
      <use xlink:href="#DejaVuSans-b1" transform="translate(877.392578 0)"/>
      <use xlink:href="#DejaVuSans-3c3" transform="translate(961.181641 0)"/>
     </g>
    </g>
    <g id="patch_8">
     <path d="M 79.2 98.668563 
L 99.2 98.668563 
L 99.2 91.668563 
L 79.2 91.668563 
z
" style="fill: #ff7f0e; fill-opacity: 0.15"/>
    </g>
    <g id="text_14">
     <!-- MSC→MFEF null μ±σ -->
     <g transform="translate(107.2 98.668563) scale(0.1 -0.1)">
      <use xlink:href="#DejaVuSans-4d"/>
      <use xlink:href="#DejaVuSans-53" transform="translate(86.279297 0)"/>
      <use xlink:href="#DejaVuSans-43" transform="translate(149.755859 0)"/>
      <use xlink:href="#DejaVuSans-2192" transform="translate(219.580078 0)"/>
      <use xlink:href="#DejaVuSans-4d" transform="translate(303.369141 0)"/>
      <use xlink:href="#DejaVuSans-46" transform="translate(389.648438 0)"/>
      <use xlink:href="#DejaVuSans-45" transform="translate(447.167969 0)"/>
      <use xlink:href="#DejaVuSans-46" transform="translate(510.351562 0)"/>
      <use xlink:href="#DejaVuSans-20" transform="translate(567.871094 0)"/>
      <use xlink:href="#DejaVuSans-6e" transform="translate(599.658203 0)"/>
      <use xlink:href="#DejaVuSans-75" transform="translate(663.037109 0)"/>
      <use xlink:href="#DejaVuSans-6c" transform="translate(726.416016 0)"/>
      <use xlink:href="#DejaVuSans-6c" transform="translate(754.199219 0)"/>
      <use xlink:href="#DejaVuSans-20" transform="translate(781.982422 0)"/>
      <use xlink:href="#DejaVuSans-3bc" transform="translate(813.769531 0)"/>
      <use xlink:href="#DejaVuSans-b1" transform="translate(877.392578 0)"/>
      <use xlink:href="#DejaVuSans-3c3" transform="translate(961.181641 0)"/>
     </g>
    </g>
    <g id="line2d_16">
     <path d="M 229.65625 80.490437 
L 239.65625 80.490437 
L 249.65625 80.490437 
" style="fill: none; stroke: #1f77b4; stroke-width: 2.2; stroke-linecap: square"/>
    </g>
    <g id="text_15">
     <!-- MFEF→MSC -->
     <g transform="translate(257.65625 83.990437) scale(0.1 -0.1)">
      <use xlink:href="#DejaVuSans-4d"/>
      <use xlink:href="#DejaVuSans-46" transform="translate(86.279297 0)"/>
      <use xlink:href="#DejaVuSans-45" transform="translate(143.798828 0)"/>
      <use xlink:href="#DejaVuSans-46" transform="translate(206.982422 0)"/>
      <use xlink:href="#DejaVuSans-2192" transform="translate(264.501953 0)"/>
      <use xlink:href="#DejaVuSans-4d" transform="translate(348.291016 0)"/>
      <use xlink:href="#DejaVuSans-53" transform="translate(434.570312 0)"/>
      <use xlink:href="#DejaVuSans-43" transform="translate(498.046875 0)"/>
     </g>
    </g>
    <g id="line2d_17">
     <path d="M 229.65625 95.168563 
L 239.65625 95.168563 
L 249.65625 95.168563 
" style="fill: none; stroke: #ff7f0e; stroke-width: 2.2; stroke-linecap: square"/>
    </g>
    <g id="text_16">
     <!-- MSC→MFEF -->
     <g transform="translate(257.65625 98.668563) scale(0.1 -0.1)">
      <use xlink:href="#DejaVuSans-4d"/>
      <use xlink:href="#DejaVuSans-53" transform="translate(86.279297 0)"/>
      <use xlink:href="#DejaVuSans-43" transform="translate(149.755859 0)"/>
      <use xlink:href="#DejaVuSans-2192" transform="translate(219.580078 0)"/>
      <use xlink:href="#DejaVuSans-4d" transform="translate(303.369141 0)"/>
      <use xlink:href="#DejaVuSans-46" transform="translate(389.648438 0)"/>
      <use xlink:href="#DejaVuSans-45" transform="translate(447.167969 0)"/>
      <use xlink:href="#DejaVuSans-46" transform="translate(510.351562 0)"/>
     </g>
    </g>
   </g>
  </g>
  <g id="axes_2">
   <g id="patch_9">
    <path d="M 70.2 353.106 
L 505.44 353.106 
L 505.44 237.276 
L 70.2 237.276 
z
" style="fill: #ffffff"/>
   </g>
   <g id="matplotlib.axis_3">
    <g id="xtick_7">
     <g id="line2d_18">
      <g>
       <use xlink:href="#mc45bd326aa" x="87.985286" y="353.106" style="stroke: #000000; stroke-width: 0.8"/>
      </g>
     </g>
     <g id="text_17">
      <!-- −200 -->
      <g transform="translate(74.251693 367.704438) scale(0.1 -0.1)">
       <use xlink:href="#DejaVuSans-2212"/>
       <use xlink:href="#DejaVuSans-32" transform="translate(83.789062 0)"/>
       <use xlink:href="#DejaVuSans-30" transform="translate(147.412109 0)"/>
       <use xlink:href="#DejaVuSans-30" transform="translate(211.035156 0)"/>
      </g>
     </g>
    </g>
    <g id="xtick_8">
     <g id="line2d_19">
      <g>
       <use xlink:href="#mc45bd326aa" x="167.91917" y="353.106" style="stroke: #000000; stroke-width: 0.8"/>
      </g>
     </g>
     <g id="text_18">
      <!-- 0 -->
      <g transform="translate(164.73792 367.704438) scale(0.1 -0.1)">
       <use xlink:href="#DejaVuSans-30"/>
      </g>
     </g>
    </g>
    <g id="xtick_9">
     <g id="line2d_20">
      <g>
       <use xlink:href="#mc45bd326aa" x="247.853053" y="353.106" style="stroke: #000000; stroke-width: 0.8"/>
      </g>
     </g>
     <g id="text_19">
      <!-- 200 -->
      <g transform="translate(238.309303 367.704438) scale(0.1 -0.1)">
       <use xlink:href="#DejaVuSans-32"/>
       <use xlink:href="#DejaVuSans-30" transform="translate(63.623047 0)"/>
       <use xlink:href="#DejaVuSans-30" transform="translate(127.246094 0)"/>
      </g>
     </g>
    </g>
    <g id="xtick_10">
     <g id="line2d_21">
      <g>
       <use xlink:href="#mc45bd326aa" x="327.786937" y="353.106" style="stroke: #000000; stroke-width: 0.8"/>
      </g>
     </g>
     <g id="text_20">
      <!-- 400 -->
      <g transform="translate(318.243187 367.704438) scale(0.1 -0.1)">
       <use xlink:href="#DejaVuSans-34"/>
       <use xlink:href="#DejaVuSans-30" transform="translate(63.623047 0)"/>
       <use xlink:href="#DejaVuSans-30" transform="translate(127.246094 0)"/>
      </g>
     </g>
    </g>
    <g id="xtick_11">
     <g id="line2d_22">
      <g>
       <use xlink:href="#mc45bd326aa" x="407.720821" y="353.106" style="stroke: #000000; stroke-width: 0.8"/>
      </g>
     </g>
     <g id="text_21">
      <!-- 600 -->
      <g transform="translate(398.177071 367.704438) scale(0.1 -0.1)">
       <use xlink:href="#DejaVuSans-36"/>
       <use xlink:href="#DejaVuSans-30" transform="translate(63.623047 0)"/>
       <use xlink:href="#DejaVuSans-30" transform="translate(127.246094 0)"/>
      </g>
     </g>
    </g>
    <g id="xtick_12">
     <g id="line2d_23">
      <g>
       <use xlink:href="#mc45bd326aa" x="487.654704" y="353.106" style="stroke: #000000; stroke-width: 0.8"/>
      </g>
     </g>
     <g id="text_22">
      <!-- 800 -->
      <g transform="translate(478.110954 367.704438) scale(0.1 -0.1)">
       <use xlink:href="#DejaVuSans-38"/>
       <use xlink:href="#DejaVuSans-30" transform="translate(63.623047 0)"/>
       <use xlink:href="#DejaVuSans-30" transform="translate(127.246094 0)"/>
      </g>
     </g>
    </g>
   </g>
   <g id="matplotlib.axis_4">
    <g id="ytick_5">
     <g id="line2d_24">
      <g>
       <use xlink:href="#mb149f23419" x="70.2" y="336.426397" style="stroke: #000000; stroke-width: 0.8"/>
      </g>
     </g>
     <g id="text_23">
      <!-- −5 -->
      <g transform="translate(48.457813 340.225616) scale(0.1 -0.1)">
       <use xlink:href="#DejaVuSans-2212"/>
       <use xlink:href="#DejaVuSans-35" transform="translate(83.789062 0)"/>
      </g>
     </g>
    </g>
    <g id="ytick_6">
     <g id="line2d_25">
      <g>
       <use xlink:href="#mb149f23419" x="70.2" y="306.459059" style="stroke: #000000; stroke-width: 0.8"/>
      </g>
     </g>
     <g id="text_24">
      <!-- 0 -->
      <g transform="translate(56.8375 310.258278) scale(0.1 -0.1)">
       <use xlink:href="#DejaVuSans-30"/>
      </g>
     </g>
    </g>
    <g id="ytick_7">
     <g id="line2d_26">
      <g>
       <use xlink:href="#mb149f23419" x="70.2" y="276.491721" style="stroke: #000000; stroke-width: 0.8"/>
      </g>
     </g>
     <g id="text_25">
      <!-- 5 -->
      <g transform="translate(56.8375 280.29094) scale(0.1 -0.1)">
       <use xlink:href="#DejaVuSans-35"/>
      </g>
     </g>
    </g>
    <g id="ytick_8">
     <g id="line2d_27">
      <g>
       <use xlink:href="#mb149f23419" x="70.2" y="246.524383" style="stroke: #000000; stroke-width: 0.8"/>
      </g>
     </g>
     <g id="text_26">
      <!-- 10 -->
      <g transform="translate(50.475 250.323602) scale(0.1 -0.1)">
       <use xlink:href="#DejaVuSans-31"/>
       <use xlink:href="#DejaVuSans-30" transform="translate(63.623047 0)"/>
      </g>
     </g>
    </g>
    <g id="text_27">
     <!-- ΔΔLL (bits) -->
     <g transform="translate(42.378125 322.22225) rotate(-90) scale(0.1 -0.1)">
      <use xlink:href="#DejaVuSans-394"/>
      <use xlink:href="#DejaVuSans-394" transform="translate(68.408203 0)"/>
      <use xlink:href="#DejaVuSans-4c" transform="translate(136.816406 0)"/>
      <use xlink:href="#DejaVuSans-4c" transform="translate(192.529297 0)"/>
      <use xlink:href="#DejaVuSans-20" transform="translate(248.242188 0)"/>
      <use xlink:href="#DejaVuSans-28" transform="translate(280.029297 0)"/>
      <use xlink:href="#DejaVuSans-62" transform="translate(319.042969 0)"/>
      <use xlink:href="#DejaVuSans-69" transform="translate(382.519531 0)"/>
      <use xlink:href="#DejaVuSans-74" transform="translate(410.302734 0)"/>
      <use xlink:href="#DejaVuSans-73" transform="translate(449.511719 0)"/>
      <use xlink:href="#DejaVuSans-29" transform="translate(501.611328 0)"/>
     </g>
    </g>
   </g>
   <g id="line2d_28">
    <path d="M 167.91917 353.106 
L 167.91917 237.276 
" clip-path="url(#p2967f9fe8d)" style="fill: none; stroke-dasharray: 2.96,1.28; stroke-dashoffset: 0; stroke: #000000; stroke-width: 0.8"/>
   </g>
   <g id="line2d_29">
    <path d="M 70.2 306.459059 
L 505.44 306.459059 
" clip-path="url(#p2967f9fe8d)" style="fill: none; stroke-dasharray: 0.8,1.32; stroke-dashoffset: 0; stroke: #000000; stroke-width: 0.8"/>
   </g>
   <g id="line2d_30">
    <path d="M 89.983636 306.78803 
L 93.980327 296.047925 
L 97.977023 284.01051 
L 101.973713 317.660539 
L 105.97041 287.174744 
L 109.967106 285.063445 
L 113.963796 307.396025 
L 117.960493 306.521983 
L 121.957186 311.700085 
L 125.953882 323.437436 
L 129.950576 347.284456 
L 133.947269 296.624333 
L 137.943962 305.940275 
L 141.940659 285.643914 
L 145.937352 312.667523 
L 149.934045 347.38264 
L 153.93074 271.328777 
L 157.927434 298.069773 
L 161.924129 299.84847 
L 165.920823 259.917519 
L 169.917517 283.448115 
L 173.914211 313.408821 
L 177.910906 285.533506 
L 181.9076 309.176778 
L 185.904294 341.052805 
L 189.900988 277.222096 
L 193.897681 294.861901 
L 197.894377 287.280341 
L 201.891071 285.898132 
L 205.887764 325.604477 
L 209.884457 347.841 
L 213.881154 325.000701 
L 217.877847 275.681703 
L 221.874543 297.505446 
L 225.871234 316.394062 
L 229.86793 293.898599 
L 233.864626 288.589268 
L 237.861317 301.420969 
L 241.858013 316.217705 
L 245.854704 326.86228 
L 249.8514 287.520894 
L 253.848096 340.104148 
L 257.844787 300.051042 
L 261.841483 259.951447 
L 265.838179 304.882204 
L 269.83487 303.206041 
L 273.83156 299.987634 
L 277.828262 298.91687 
L 281.824953 280.692536 
L 285.821643 288.244063 
L 289.818345 289.039594 
L 293.815036 299.766394 
L 297.811726 297.257806 
L 301.808428 296.965808 
L 305.805119 271.637034 
L 309.801809 295.559041 
L 313.798511 284.738043 
L 317.795202 284.75841 
L 321.791892 314.53723 
L 325.788594 309.043469 
L 329.785285 309.979746 
L 333.781975 321.885228 
L 337.778677 279.325084 
L 341.775368 281.57096 
L 345.772058 340.053391 
L 349.76876 323.007544 
L 353.765451 242.541 
L 357.762141 272.818135 
L 361.758843 303.996536 
L 365.755534 304.397392 
L 369.752224 337.851307 
L 373.748914 285.711046 
L 377.745605 328.590966 
L 381.742319 284.454666 
L 385.739009 261.709066 
L 389.7357 329.52052 
L 393.73239 345.124502 
L 397.72908 309.569404 
L 401.725771 268.783613 
L 405.722485 346.273055 
L 409.719175 336.588672 
L 413.715866 304.511554 
L 417.712556 327.520422 
L 421.709246 306.481602 
L 425.705937 276.099127 
L 429.702627 302.960079 
L 433.699341 295.007687 
L 437.696032 335.919519 
L 441.692722 291.937082 
L 445.689412 297.565763 
L 449.686103 346.486253 
L 453.682793 322.02478 
L 457.679507 318.562103 
L 461.676198 320.779847 
L 465.672888 260.582125 
L 469.669578 290.087166 
L 473.666269 256.896341 
L 477.662959 291.606497 
L 481.659673 316.065517 
L 485.656364 312.314611 
" clip-path="url(#p2967f9fe8d)" style="fill: none; stroke: #d62728; stroke-width: 2.2; stroke-linecap: square"/>
   </g>
   <g id="line2d_31">
    <defs>
     <path id="m59fbff1547" d="M 0 1.25 
C 0.331504 1.25 0.649475 1.118292 0.883883 0.883883 
C 1.118292 0.649475 1.25 0.331504 1.25 0 
C 1.25 -0.331504 1.118292 -0.649475 0.883883 -0.883883 
C 0.649475 -1.118292 0.331504 -1.25 0 -1.25 
C -0.331504 -1.25 -0.649475 -1.118292 -0.883883 -0.883883 
C -1.118292 -0.649475 -1.25 -0.331504 -1.25 0 
C -1.25 0.331504 -1.118292 0.649475 -0.883883 0.883883 
C -0.649475 1.118292 -0.331504 1.25 0 1.25 
z
" style="stroke: #000000"/>
    </defs>
    <g clip-path="url(#p2967f9fe8d)">
     <use xlink:href="#m59fbff1547" x="97.977023" y="284.01051" style="stroke: #000000"/>
     <use xlink:href="#m59fbff1547" x="165.920823" y="259.917519" style="stroke: #000000"/>
     <use xlink:href="#m59fbff1547" x="169.917517" y="283.448115" style="stroke: #000000"/>
     <use xlink:href="#m59fbff1547" x="185.904294" y="341.052805" style="stroke: #000000"/>
     <use xlink:href="#m59fbff1547" x="209.884457" y="347.841" style="stroke: #000000"/>
     <use xlink:href="#m59fbff1547" x="261.841483" y="259.951447" style="stroke: #000000"/>
     <use xlink:href="#m59fbff1547" x="353.765451" y="242.541" style="stroke: #000000"/>
     <use xlink:href="#m59fbff1547" x="385.739009" y="261.709066" style="stroke: #000000"/>
     <use xlink:href="#m59fbff1547" x="393.73239" y="345.124502" style="stroke: #000000"/>
     <use xlink:href="#m59fbff1547" x="473.666269" y="256.896341" style="stroke: #000000"/>
    </g>
   </g>
   <g id="patch_10">
    <path d="M 70.2 353.106 
L 70.2 237.276 
" style="fill: none; stroke: #000000; stroke-width: 0.8; stroke-linejoin: miter; stroke-linecap: square"/>
   </g>
   <g id="patch_11">
    <path d="M 505.44 353.106 
L 505.44 237.276 
" style="fill: none; stroke: #000000; stroke-width: 0.8; stroke-linejoin: miter; stroke-linecap: square"/>
   </g>
   <g id="patch_12">
    <path d="M 70.2 353.106 
L 505.44 353.106 
" style="fill: none; stroke: #000000; stroke-width: 0.8; stroke-linejoin: miter; stroke-linecap: square"/>
   </g>
   <g id="patch_13">
    <path d="M 70.2 237.276 
L 505.44 237.276 
" style="fill: none; stroke: #000000; stroke-width: 0.8; stroke-linejoin: miter; stroke-linecap: square"/>
   </g>
   <g id="text_28">
    <!-- Panel B: pair-diff with significance dots -->
    <g transform="translate(171.554063 231.276) scale(0.12 -0.12)">
     <defs>
      <path id="DejaVuSans-42" d="M 1259 2228 
L 1259 519 
L 2272 519 
Q 2781 519 3026 730 
Q 3272 941 3272 1375 
Q 3272 1813 3026 2020 
Q 2781 2228 2272 2228 
L 1259 2228 
z
M 1259 4147 
L 1259 2741 
L 2194 2741 
Q 2656 2741 2882 2914 
Q 3109 3088 3109 3444 
Q 3109 3797 2882 3972 
Q 2656 4147 2194 4147 
L 1259 4147 
z
M 628 4666 
L 2241 4666 
Q 2963 4666 3353 4366 
Q 3744 4066 3744 3513 
Q 3744 3084 3544 2831 
Q 3344 2578 2956 2516 
Q 3422 2416 3680 2098 
Q 3938 1781 3938 1306 
Q 3938 681 3513 340 
Q 3088 0 2303 0 
L 628 0 
L 628 4666 
z
" transform="scale(0.015625)"/>
      <path id="DejaVuSans-70" d="M 1159 525 
L 1159 -1331 
L 581 -1331 
L 581 3500 
L 1159 3500 
L 1159 2969 
Q 1341 3281 1617 3432 
Q 1894 3584 2278 3584 
Q 2916 3584 3314 3078 
Q 3713 2572 3713 1747 
Q 3713 922 3314 415 
Q 2916 -91 2278 -91 
Q 1894 -91 1617 61 
Q 1341 213 1159 525 
z
M 3116 1747 
Q 3116 2381 2855 2742 
Q 2594 3103 2138 3103 
Q 1681 3103 1420 2742 
Q 1159 2381 1159 1747 
Q 1159 1113 1420 752 
Q 1681 391 2138 391 
Q 2594 391 2855 752 
Q 3116 1113 3116 1747 
z
" transform="scale(0.015625)"/>
      <path id="DejaVuSans-68" d="M 3513 2113 
L 3513 0 
L 2938 0 
L 2938 2094 
Q 2938 2591 2744 2837 
Q 2550 3084 2163 3084 
Q 1697 3084 1428 2787 
Q 1159 2491 1159 1978 
L 1159 0 
L 581 0 
L 581 4863 
L 1159 4863 
L 1159 2956 
Q 1366 3272 1645 3428 
Q 1925 3584 2291 3584 
Q 2894 3584 3203 3211 
Q 3513 2838 3513 2113 
z
" transform="scale(0.015625)"/>
      <path id="DejaVuSans-67" d="M 2906 1791 
Q 2906 2416 2648 2759 
Q 2391 3103 1925 3103 
Q 1463 3103 1205 2759 
Q 947 2416 947 1791 
Q 947 1169 1205 825 
Q 1463 481 1925 481 
Q 2391 481 2648 825 
Q 2906 1169 2906 1791 
z
M 3481 434 
Q 3481 -459 3084 -895 
Q 2688 -1331 1869 -1331 
Q 1566 -1331 1297 -1286 
Q 1028 -1241 775 -1147 
L 775 -588 
Q 1028 -725 1275 -790 
Q 1522 -856 1778 -856 
Q 2344 -856 2625 -561 
Q 2906 -266 2906 331 
L 2906 616 
Q 2728 306 2450 153 
Q 2172 0 1784 0 
Q 1141 0 747 490 
Q 353 981 353 1791 
Q 353 2603 747 3093 
Q 1141 3584 1784 3584 
Q 2172 3584 2450 3431 
Q 2728 3278 2906 2969 
L 2906 3500 
L 3481 3500 
L 3481 434 
z
" transform="scale(0.015625)"/>
      <path id="DejaVuSans-63" d="M 3122 3366 
L 3122 2828 
Q 2878 2963 2633 3030 
Q 2388 3097 2138 3097 
Q 1578 3097 1268 2742 
Q 959 2388 959 1747 
Q 959 1106 1268 751 
Q 1578 397 2138 397 
Q 2388 397 2633 464 
Q 2878 531 3122 666 
L 3122 134 
Q 2881 22 2623 -34 
Q 2366 -91 2075 -91 
Q 1284 -91 818 406 
Q 353 903 353 1747 
Q 353 2603 823 3093 
Q 1294 3584 2113 3584 
Q 2378 3584 2631 3529 
Q 2884 3475 3122 3366 
z
" transform="scale(0.015625)"/>
     </defs>
     <use xlink:href="#DejaVuSans-50"/>
     <use xlink:href="#DejaVuSans-61" transform="translate(55.802734 0)"/>
     <use xlink:href="#DejaVuSans-6e" transform="translate(117.082031 0)"/>
     <use xlink:href="#DejaVuSans-65" transform="translate(180.460938 0)"/>
     <use xlink:href="#DejaVuSans-6c" transform="translate(241.984375 0)"/>
     <use xlink:href="#DejaVuSans-20" transform="translate(269.767578 0)"/>
     <use xlink:href="#DejaVuSans-42" transform="translate(301.554688 0)"/>
     <use xlink:href="#DejaVuSans-3a" transform="translate(370.158203 0)"/>
     <use xlink:href="#DejaVuSans-20" transform="translate(403.849609 0)"/>
     <use xlink:href="#DejaVuSans-70" transform="translate(435.636719 0)"/>
     <use xlink:href="#DejaVuSans-61" transform="translate(499.113281 0)"/>
     <use xlink:href="#DejaVuSans-69" transform="translate(560.392578 0)"/>
     <use xlink:href="#DejaVuSans-72" transform="translate(588.175781 0)"/>
     <use xlink:href="#DejaVuSans-2d" transform="translate(622.914062 0)"/>
     <use xlink:href="#DejaVuSans-64" transform="translate(658.998047 0)"/>
     <use xlink:href="#DejaVuSans-69" transform="translate(722.474609 0)"/>
     <use xlink:href="#DejaVuSans-66" transform="translate(750.257812 0)"/>
     <use xlink:href="#DejaVuSans-66" transform="translate(785.462891 0)"/>
     <use xlink:href="#DejaVuSans-20" transform="translate(820.667969 0)"/>
     <use xlink:href="#DejaVuSans-77" transform="translate(852.455078 0)"/>
     <use xlink:href="#DejaVuSans-69" transform="translate(934.242188 0)"/>
     <use xlink:href="#DejaVuSans-74" transform="translate(962.025391 0)"/>
     <use xlink:href="#DejaVuSans-68" transform="translate(1001.234375 0)"/>
     <use xlink:href="#DejaVuSans-20" transform="translate(1064.613281 0)"/>
     <use xlink:href="#DejaVuSans-73" transform="translate(1096.400391 0)"/>
     <use xlink:href="#DejaVuSans-69" transform="translate(1148.5 0)"/>
     <use xlink:href="#DejaVuSans-67" transform="translate(1176.283203 0)"/>
     <use xlink:href="#DejaVuSans-6e" transform="translate(1239.759766 0)"/>
     <use xlink:href="#DejaVuSans-69" transform="translate(1303.138672 0)"/>
     <use xlink:href="#DejaVuSans-66" transform="translate(1330.921875 0)"/>
     <use xlink:href="#DejaVuSans-69" transform="translate(1366.126953 0)"/>
     <use xlink:href="#DejaVuSans-63" transform="translate(1393.910156 0)"/>
     <use xlink:href="#DejaVuSans-61" transform="translate(1448.890625 0)"/>
     <use xlink:href="#DejaVuSans-6e" transform="translate(1510.169922 0)"/>
     <use xlink:href="#DejaVuSans-63" transform="translate(1573.548828 0)"/>
     <use xlink:href="#DejaVuSans-65" transform="translate(1628.529297 0)"/>
     <use xlink:href="#DejaVuSans-20" transform="translate(1690.052734 0)"/>
     <use xlink:href="#DejaVuSans-64" transform="translate(1721.839844 0)"/>
     <use xlink:href="#DejaVuSans-6f" transform="translate(1785.316406 0)"/>
     <use xlink:href="#DejaVuSans-74" transform="translate(1846.498047 0)"/>
     <use xlink:href="#DejaVuSans-73" transform="translate(1885.707031 0)"/>
    </g>
   </g>
   <g id="legend_2">
    <g id="line2d_32">
     <path d="M 79.2 250.374437 
L 89.2 250.374437 
L 99.2 250.374437 
" style="fill: none; stroke: #d62728; stroke-width: 2.2; stroke-linecap: square"/>
    </g>
    <g id="text_29">
     <!-- (A→B − B→A) -->
     <g transform="translate(107.2 253.874437) scale(0.1 -0.1)">
      <use xlink:href="#DejaVuSans-28"/>
      <use xlink:href="#DejaVuSans-41" transform="translate(39.013672 0)"/>
      <use xlink:href="#DejaVuSans-2192" transform="translate(107.421875 0)"/>
      <use xlink:href="#DejaVuSans-42" transform="translate(191.210938 0)"/>
      <use xlink:href="#DejaVuSans-20" transform="translate(259.814453 0)"/>
      <use xlink:href="#DejaVuSans-2212" transform="translate(291.601562 0)"/>
      <use xlink:href="#DejaVuSans-20" transform="translate(375.390625 0)"/>
      <use xlink:href="#DejaVuSans-42" transform="translate(407.177734 0)"/>
      <use xlink:href="#DejaVuSans-2192" transform="translate(475.78125 0)"/>
      <use xlink:href="#DejaVuSans-41" transform="translate(559.570312 0)"/>
      <use xlink:href="#DejaVuSans-29" transform="translate(627.978516 0)"/>
     </g>
    </g>
    <g id="line2d_33">
     <g>
      <use xlink:href="#m59fbff1547" x="89.2" y="265.052563" style="stroke: #000000"/>
     </g>
    </g>
    <g id="text_30">
     <!-- p&lt;0.05 (one-sided) -->
     <g transform="translate(107.2 268.552563) scale(0.1 -0.1)">
      <defs>
       <path id="DejaVuSans-3c" d="M 4684 3150 
L 1459 2003 
L 4684 863 
L 4684 294 
L 678 1747 
L 678 2266 
L 4684 3719 
L 4684 3150 
z
" transform="scale(0.015625)"/>
       <path id="DejaVuSans-2e" d="M 684 794 
L 1344 794 
L 1344 0 
L 684 0 
L 684 794 
z
" transform="scale(0.015625)"/>
      </defs>
      <use xlink:href="#DejaVuSans-70"/>
      <use xlink:href="#DejaVuSans-3c" transform="translate(63.476562 0)"/>
      <use xlink:href="#DejaVuSans-30" transform="translate(147.265625 0)"/>
      <use xlink:href="#DejaVuSans-2e" transform="translate(210.888672 0)"/>
      <use xlink:href="#DejaVuSans-30" transform="translate(242.675781 0)"/>
      <use xlink:href="#DejaVuSans-35" transform="translate(306.298828 0)"/>
      <use xlink:href="#DejaVuSans-20" transform="translate(369.921875 0)"/>
      <use xlink:href="#DejaVuSans-28" transform="translate(401.708984 0)"/>
      <use xlink:href="#DejaVuSans-6f" transform="translate(440.722656 0)"/>
      <use xlink:href="#DejaVuSans-6e" transform="translate(501.904297 0)"/>
      <use xlink:href="#DejaVuSans-65" transform="translate(565.283203 0)"/>
      <use xlink:href="#DejaVuSans-2d" transform="translate(626.806641 0)"/>
      <use xlink:href="#DejaVuSans-73" transform="translate(662.890625 0)"/>
      <use xlink:href="#DejaVuSans-69" transform="translate(714.990234 0)"/>
      <use xlink:href="#DejaVuSans-64" transform="translate(742.773438 0)"/>
      <use xlink:href="#DejaVuSans-65" transform="translate(806.25 0)"/>
      <use xlink:href="#DejaVuSans-64" transform="translate(867.773438 0)"/>
      <use xlink:href="#DejaVuSans-29" transform="translate(931.25 0)"/>
     </g>
    </g>
   </g>
  </g>
  <g id="axes_3">
   <g id="patch_14">
    <path d="M 70.2 499.824 
L 505.44 499.824 
L 505.44 383.994 
L 70.2 383.994 
z
" style="fill: #ffffff"/>
   </g>
   <g id="matplotlib.axis_5">
    <g id="xtick_13">
     <g id="line2d_34">
      <g>
       <use xlink:href="#mc45bd326aa" x="87.985286" y="499.824" style="stroke: #000000; stroke-width: 0.8"/>
      </g>
     </g>
     <g id="text_31">
      <!-- −200 -->
      <g transform="translate(74.251693 514.422438) scale(0.1 -0.1)">
       <use xlink:href="#DejaVuSans-2212"/>
       <use xlink:href="#DejaVuSans-32" transform="translate(83.789062 0)"/>
       <use xlink:href="#DejaVuSans-30" transform="translate(147.412109 0)"/>
       <use xlink:href="#DejaVuSans-30" transform="translate(211.035156 0)"/>
      </g>
     </g>
    </g>
    <g id="xtick_14">
     <g id="line2d_35">
      <g>
       <use xlink:href="#mc45bd326aa" x="167.91917" y="499.824" style="stroke: #000000; stroke-width: 0.8"/>
      </g>
     </g>
     <g id="text_32">
      <!-- 0 -->
      <g transform="translate(164.73792 514.422438) scale(0.1 -0.1)">
       <use xlink:href="#DejaVuSans-30"/>
      </g>
     </g>
    </g>
    <g id="xtick_15">
     <g id="line2d_36">
      <g>
       <use xlink:href="#mc45bd326aa" x="247.853053" y="499.824" style="stroke: #000000; stroke-width: 0.8"/>
      </g>
     </g>
     <g id="text_33">
      <!-- 200 -->
      <g transform="translate(238.309303 514.422438) scale(0.1 -0.1)">
       <use xlink:href="#DejaVuSans-32"/>
       <use xlink:href="#DejaVuSans-30" transform="translate(63.623047 0)"/>
       <use xlink:href="#DejaVuSans-30" transform="translate(127.246094 0)"/>
      </g>
     </g>
    </g>
    <g id="xtick_16">
     <g id="line2d_37">
      <g>
       <use xlink:href="#mc45bd326aa" x="327.786937" y="499.824" style="stroke: #000000; stroke-width: 0.8"/>
      </g>
     </g>
     <g id="text_34">
      <!-- 400 -->
      <g transform="translate(318.243187 514.422438) scale(0.1 -0.1)">
       <use xlink:href="#DejaVuSans-34"/>
       <use xlink:href="#DejaVuSans-30" transform="translate(63.623047 0)"/>
       <use xlink:href="#DejaVuSans-30" transform="translate(127.246094 0)"/>
      </g>
     </g>
    </g>
    <g id="xtick_17">
     <g id="line2d_38">
      <g>
       <use xlink:href="#mc45bd326aa" x="407.720821" y="499.824" style="stroke: #000000; stroke-width: 0.8"/>
      </g>
     </g>
     <g id="text_35">
      <!-- 600 -->
      <g transform="translate(398.177071 514.422438) scale(0.1 -0.1)">
       <use xlink:href="#DejaVuSans-36"/>
       <use xlink:href="#DejaVuSans-30" transform="translate(63.623047 0)"/>
       <use xlink:href="#DejaVuSans-30" transform="translate(127.246094 0)"/>
      </g>
     </g>
    </g>
    <g id="xtick_18">
     <g id="line2d_39">
      <g>
       <use xlink:href="#mc45bd326aa" x="487.654704" y="499.824" style="stroke: #000000; stroke-width: 0.8"/>
      </g>
     </g>
     <g id="text_36">
      <!-- 800 -->
      <g transform="translate(478.110954 514.422438) scale(0.1 -0.1)">
       <use xlink:href="#DejaVuSans-38"/>
       <use xlink:href="#DejaVuSans-30" transform="translate(63.623047 0)"/>
       <use xlink:href="#DejaVuSans-30" transform="translate(127.246094 0)"/>
      </g>
     </g>
    </g>
    <g id="text_37">
     <!-- Time (ms) -->
     <g transform="translate(262.620781 528.100563) scale(0.1 -0.1)">
      <defs>
       <path id="DejaVuSans-54" d="M -19 4666 
L 3928 4666 
L 3928 4134 
L 2272 4134 
L 2272 0 
L 1638 0 
L 1638 4134 
L -19 4134 
L -19 4666 
z
" transform="scale(0.015625)"/>
       <path id="DejaVuSans-6d" d="M 3328 2828 
Q 3544 3216 3844 3400 
Q 4144 3584 4550 3584 
Q 5097 3584 5394 3201 
Q 5691 2819 5691 2113 
L 5691 0 
L 5113 0 
L 5113 2094 
Q 5113 2597 4934 2840 
Q 4756 3084 4391 3084 
Q 3944 3084 3684 2787 
Q 3425 2491 3425 1978 
L 3425 0 
L 2847 0 
L 2847 2094 
Q 2847 2600 2669 2842 
Q 2491 3084 2119 3084 
Q 1678 3084 1418 2786 
Q 1159 2488 1159 1978 
L 1159 0 
L 581 0 
L 581 3500 
L 1159 3500 
L 1159 2956 
Q 1356 3278 1631 3431 
Q 1906 3584 2284 3584 
Q 2666 3584 2933 3390 
Q 3200 3197 3328 2828 
z
" transform="scale(0.015625)"/>
      </defs>
      <use xlink:href="#DejaVuSans-54"/>
      <use xlink:href="#DejaVuSans-69" transform="translate(57.958984 0)"/>
      <use xlink:href="#DejaVuSans-6d" transform="translate(85.742188 0)"/>
      <use xlink:href="#DejaVuSans-65" transform="translate(183.154297 0)"/>
      <use xlink:href="#DejaVuSans-20" transform="translate(244.677734 0)"/>
      <use xlink:href="#DejaVuSans-28" transform="translate(276.464844 0)"/>
      <use xlink:href="#DejaVuSans-6d" transform="translate(315.478516 0)"/>
      <use xlink:href="#DejaVuSans-73" transform="translate(412.890625 0)"/>
      <use xlink:href="#DejaVuSans-29" transform="translate(464.990234 0)"/>
     </g>
    </g>
   </g>
   <g id="matplotlib.axis_6">
    <g id="ytick_9">
     <g id="line2d_40">
      <g>
       <use xlink:href="#mb149f23419" x="70.2" y="485.272748" style="stroke: #000000; stroke-width: 0.8"/>
      </g>
     </g>
     <g id="text_38">
      <!-- −2 -->
      <g transform="translate(48.457813 489.071967) scale(0.1 -0.1)">
       <use xlink:href="#DejaVuSans-2212"/>
       <use xlink:href="#DejaVuSans-32" transform="translate(83.789062 0)"/>
      </g>
     </g>
    </g>
    <g id="ytick_10">
     <g id="line2d_41">
      <g>
       <use xlink:href="#mb149f23419" x="70.2" y="453.449796" style="stroke: #000000; stroke-width: 0.8"/>
      </g>
     </g>
     <g id="text_39">
      <!-- 0 -->
      <g transform="translate(56.8375 457.249014) scale(0.1 -0.1)">
       <use xlink:href="#DejaVuSans-30"/>
      </g>
     </g>
    </g>
    <g id="ytick_11">
     <g id="line2d_42">
      <g>
       <use xlink:href="#mb149f23419" x="70.2" y="421.626843" style="stroke: #000000; stroke-width: 0.8"/>
      </g>
     </g>
     <g id="text_40">
      <!-- 2 -->
      <g transform="translate(56.8375 425.426062) scale(0.1 -0.1)">
       <use xlink:href="#DejaVuSans-32"/>
      </g>
     </g>
    </g>
    <g id="ytick_12">
     <g id="line2d_43">
      <g>
       <use xlink:href="#mb149f23419" x="70.2" y="389.80389" style="stroke: #000000; stroke-width: 0.8"/>
      </g>
     </g>
     <g id="text_41">
      <!-- 4 -->
      <g transform="translate(56.8375 393.603109) scale(0.1 -0.1)">
       <use xlink:href="#DejaVuSans-34"/>
      </g>
     </g>
    </g>
    <g id="text_42">
     <!-- Z (σ from null) -->
     <g transform="translate(42.378125 477.919938) rotate(-90) scale(0.1 -0.1)">
      <defs>
       <path id="DejaVuSans-5a" d="M 359 4666 
L 4025 4666 
L 4025 4184 
L 1075 531 
L 4097 531 
L 4097 0 
L 288 0 
L 288 481 
L 3238 4134 
L 359 4134 
L 359 4666 
z
" transform="scale(0.015625)"/>
      </defs>
      <use xlink:href="#DejaVuSans-5a"/>
      <use xlink:href="#DejaVuSans-20" transform="translate(68.505859 0)"/>
      <use xlink:href="#DejaVuSans-28" transform="translate(100.292969 0)"/>
      <use xlink:href="#DejaVuSans-3c3" transform="translate(139.306641 0)"/>
      <use xlink:href="#DejaVuSans-20" transform="translate(202.685547 0)"/>
      <use xlink:href="#DejaVuSans-66" transform="translate(234.472656 0)"/>
      <use xlink:href="#DejaVuSans-72" transform="translate(269.677734 0)"/>
      <use xlink:href="#DejaVuSans-6f" transform="translate(308.541016 0)"/>
      <use xlink:href="#DejaVuSans-6d" transform="translate(369.722656 0)"/>
      <use xlink:href="#DejaVuSans-20" transform="translate(467.134766 0)"/>
      <use xlink:href="#DejaVuSans-6e" transform="translate(498.921875 0)"/>
      <use xlink:href="#DejaVuSans-75" transform="translate(562.300781 0)"/>
      <use xlink:href="#DejaVuSans-6c" transform="translate(625.679688 0)"/>
      <use xlink:href="#DejaVuSans-6c" transform="translate(653.462891 0)"/>
      <use xlink:href="#DejaVuSans-29" transform="translate(681.246094 0)"/>
     </g>
    </g>
   </g>
   <g id="line2d_44">
    <path d="M 167.91917 499.824 
L 167.91917 383.994 
" clip-path="url(#pe04205d36f)" style="fill: none; stroke-dasharray: 2.96,1.28; stroke-dashoffset: 0; stroke: #000000; stroke-width: 0.8"/>
   </g>
   <g id="line2d_45">
    <path d="M 89.983636 433.378632 
L 93.980327 475.179265 
L 97.977023 426.577578 
L 101.973713 466.770991 
L 105.97041 434.738756 
L 109.967106 442.95153 
L 113.963796 448.607568 
L 117.960493 470.403065 
L 121.957186 437.897549 
L 125.953882 462.281661 
L 129.950576 471.327311 
L 133.947269 452.145034 
L 137.943962 444.528393 
L 141.940659 442.900556 
L 145.937352 457.435891 
L 149.934045 472.40059 
L 153.93074 429.850998 
L 157.927434 455.971039 
L 161.924129 445.591155 
L 165.920823 423.947129 
L 169.917517 423.222191 
L 173.914211 454.760485 
L 177.910906 436.796086 
L 181.9076 452.099237 
L 185.904294 458.413899 
L 189.900988 429.44499 
L 193.897681 454.190377 
L 197.894377 436.990941 
L 201.891071 444.563776 
L 205.887764 458.298365 
L 209.884457 461.125281 
L 213.881154 467.740272 
L 217.877847 465.838483 
L 221.874543 454.785605 
L 225.871234 443.702293 
L 229.86793 440.311525 
L 233.864626 441.691908 
L 237.861317 464.703647 
L 241.858013 457.519291 
L 245.854704 458.621734 
L 249.8514 459.882251 
L 253.848096 474.135475 
L 257.844787 449.943431 
L 261.841483 403.942477 
L 265.838179 456.281801 
L 269.83487 450.583634 
L 273.83156 450.158025 
L 277.828262 454.936801 
L 281.824953 436.687403 
L 285.821643 459.141114 
L 289.818345 462.245993 
L 293.815036 463.72503 
L 297.811726 439.139495 
L 301.808428 444.505928 
L 305.805119 445.498158 
L 309.801809 447.110305 
L 313.798511 435.41635 
L 317.795202 429.389411 
L 321.791892 462.993108 
L 325.788594 453.183253 
L 329.785285 464.174541 
L 333.781975 451.9586 
L 337.778677 437.879078 
L 341.775368 436.747442 
L 345.772058 467.785575 
L 349.76876 464.893635 
L 353.765451 389.259 
L 357.762141 453.704147 
L 361.758843 460.731046 
L 365.755534 455.855306 
L 369.752224 464.529154 
L 373.748914 452.438189 
L 377.745605 456.611068 
L 381.742319 441.922754 
L 385.739009 422.885164 
L 389.7357 470.623169 
L 393.73239 456.207589 
L 397.72908 465.772236 
L 401.725771 440.615487 
L 405.722485 491.756321 
L 409.719175 472.133864 
L 413.715866 458.522057 
L 417.712556 467.95644 
L 421.709246 451.880849 
L 425.705937 454.924583 
L 429.702627 463.421396 
L 433.699341 427.686237 
L 437.696032 475.060346 
L 441.692722 433.355422 
L 445.689412 443.961499 
L 449.686103 468.714937 
L 453.682793 458.160775 
L 457.679507 469.866543 
L 461.676198 471.501115 
L 465.672888 436.642188 
L 469.669578 425.862243 
L 473.666269 410.676846 
L 477.662959 442.534322 
L 481.659673 457.589348 
L 485.656364 463.158847 
" clip-path="url(#pe04205d36f)" style="fill: none; stroke: #1f77b4; stroke-width: 2; stroke-linecap: square"/>
   </g>
   <g id="line2d_46">
    <path d="M 89.983636 437.897246 
L 93.980327 484.077547 
L 97.977023 445.616872 
L 101.973713 455.212984 
L 105.97041 457.935678 
L 109.967106 464.810785 
L 113.963796 448.342216 
L 117.960493 470.455407 
L 121.957186 434.326238 
L 125.953882 446.861391 
L 129.950576 432.957743 
L 133.947269 457.093453 
L 137.943962 439.115145 
L 141.940659 464.087068 
L 145.937352 448.517099 
L 149.934045 433.350133 
L 153.93074 470.474075 
L 157.927434 464.727875 
L 161.924129 449.60946 
L 165.920823 460.515099 
L 169.917517 448.556932 
L 173.914211 446.093173 
L 177.910906 455.036928 
L 181.9076 450.159553 
L 185.904294 421.899765 
L 189.900988 455.661934 
L 193.897681 465.2482 
L 197.894377 458.981306 
L 201.891071 465.096182 
L 205.887764 441.688815 
L 209.884457 424.980229 
L 213.881154 450.566348 
L 217.877847 494.559 
L 221.874543 465.38864 
L 225.871234 439.363518 
L 229.86793 455.001651 
L 233.864626 460.174994 
L 237.861317 467.953296 
L 241.858013 444.149324 
L 245.854704 439.073572 
L 249.8514 477.683963 
L 253.848096 439.884426 
L 257.844787 452.556262 
L 261.841483 443.421665 
L 265.838179 455.622242 
L 269.83487 450.067072 
L 273.83156 458.128272 
L 277.828262 462.032267 
L 281.824953 457.84092 
L 285.821643 479.495964 
L 289.818345 479.587823 
L 293.815036 471.049252 
L 297.811726 452.408961 
L 301.808428 456.506969 
L 305.805119 479.572624 
L 309.801809 458.202377 
L 313.798511 450.132902 
L 317.795202 453.593772 
L 321.791892 458.063787 
L 325.788594 455.101276 
L 329.785285 464.96753 
L 333.781975 438.795318 
L 337.778677 460.298102 
L 341.775368 465.680908 
L 345.772058 442.175764 
L 349.76876 445.775849 
L 353.765451 451.73486 
L 357.762141 487.072714 
L 361.758843 462.972581 
L 365.755534 455.276032 
L 369.752224 440.573041 
L 373.748914 474.447931 
L 377.745605 436.066877 
L 381.742319 462.441866 
L 385.739009 467.319522 
L 389.7357 446.381587 
L 393.73239 418.581313 
L 397.72908 462.041221 
L 401.725771 478.425983 
L 405.722485 455.412559 
L 409.719175 450.813069 
L 413.715866 463.153002 
L 417.712556 441.892273 
L 421.709246 454.649499 
L 425.705937 485.607017 
L 429.702627 473.146043 
L 433.699341 443.52662 
L 437.696032 453.953422 
L 441.692722 451.581586 
L 445.689412 453.782088 
L 449.686103 431.537164 
L 453.682793 440.075199 
L 457.679507 461.088643 
L 461.676198 454.755718 
L 465.672888 480.293308 
L 469.669578 441.797135 
L 473.666269 452.064346 
L 477.662959 451.253757 
L 481.659673 447.603158 
L 485.656364 454.336666 
" clip-path="url(#pe04205d36f)" style="fill: none; stroke: #ff7f0e; stroke-width: 2; stroke-linecap: square"/>
   </g>
   <g id="patch_15">
    <path d="M 70.2 499.824 
L 70.2 383.994 
" style="fill: none; stroke: #000000; stroke-width: 0.8; stroke-linejoin: miter; stroke-linecap: square"/>
   </g>
   <g id="patch_16">
    <path d="M 505.44 499.824 
L 505.44 383.994 
" style="fill: none; stroke: #000000; stroke-width: 0.8; stroke-linejoin: miter; stroke-linecap: square"/>
   </g>
   <g id="patch_17">
    <path d="M 70.2 499.824 
L 505.44 499.824 
" style="fill: none; stroke: #000000; stroke-width: 0.8; stroke-linejoin: miter; stroke-linecap: square"/>
   </g>
   <g id="patch_18">
    <path d="M 70.2 383.994 
L 505.44 383.994 
" style="fill: none; stroke: #000000; stroke-width: 0.8; stroke-linejoin: miter; stroke-linecap: square"/>
   </g>
   <g id="text_43">
    <!-- Panel C: evidence strength vs null -->
    <g transform="translate(185.80125 377.994) scale(0.12 -0.12)">
     <use xlink:href="#DejaVuSans-50"/>
     <use xlink:href="#DejaVuSans-61" transform="translate(55.802734 0)"/>
     <use xlink:href="#DejaVuSans-6e" transform="translate(117.082031 0)"/>
     <use xlink:href="#DejaVuSans-65" transform="translate(180.460938 0)"/>
     <use xlink:href="#DejaVuSans-6c" transform="translate(241.984375 0)"/>
     <use xlink:href="#DejaVuSans-20" transform="translate(269.767578 0)"/>
     <use xlink:href="#DejaVuSans-43" transform="translate(301.554688 0)"/>
     <use xlink:href="#DejaVuSans-3a" transform="translate(371.378906 0)"/>
     <use xlink:href="#DejaVuSans-20" transform="translate(405.070312 0)"/>
     <use xlink:href="#DejaVuSans-65" transform="translate(436.857422 0)"/>
     <use xlink:href="#DejaVuSans-76" transform="translate(498.380859 0)"/>
     <use xlink:href="#DejaVuSans-69" transform="translate(557.560547 0)"/>
     <use xlink:href="#DejaVuSans-64" transform="translate(585.34375 0)"/>
     <use xlink:href="#DejaVuSans-65" transform="translate(648.820312 0)"/>
     <use xlink:href="#DejaVuSans-6e" transform="translate(710.34375 0)"/>
     <use xlink:href="#DejaVuSans-63" transform="translate(773.722656 0)"/>
     <use xlink:href="#DejaVuSans-65" transform="translate(828.703125 0)"/>
     <use xlink:href="#DejaVuSans-20" transform="translate(890.226562 0)"/>
     <use xlink:href="#DejaVuSans-73" transform="translate(922.013672 0)"/>
     <use xlink:href="#DejaVuSans-74" transform="translate(974.113281 0)"/>
     <use xlink:href="#DejaVuSans-72" transform="translate(1013.322266 0)"/>
     <use xlink:href="#DejaVuSans-65" transform="translate(1052.185547 0)"/>
     <use xlink:href="#DejaVuSans-6e" transform="translate(1113.708984 0)"/>
     <use xlink:href="#DejaVuSans-67" transform="translate(1177.087891 0)"/>
     <use xlink:href="#DejaVuSans-74" transform="translate(1240.564453 0)"/>
     <use xlink:href="#DejaVuSans-68" transform="translate(1279.773438 0)"/>
     <use xlink:href="#DejaVuSans-20" transform="translate(1343.152344 0)"/>
     <use xlink:href="#DejaVuSans-76" transform="translate(1374.939453 0)"/>
     <use xlink:href="#DejaVuSans-73" transform="translate(1434.119141 0)"/>
     <use xlink:href="#DejaVuSans-20" transform="translate(1486.21875 0)"/>
     <use xlink:href="#DejaVuSans-6e" transform="translate(1518.005859 0)"/>
     <use xlink:href="#DejaVuSans-75" transform="translate(1581.384766 0)"/>
     <use xlink:href="#DejaVuSans-6c" transform="translate(1644.763672 0)"/>
     <use xlink:href="#DejaVuSans-6c" transform="translate(1672.546875 0)"/>
    </g>
   </g>
   <g id="legend_3">
    <g id="line2d_47">
     <path d="M 79.2 397.092438 
L 89.2 397.092438 
L 99.2 397.092438 
" style="fill: none; stroke: #1f77b4; stroke-width: 2; stroke-linecap: square"/>
    </g>
    <g id="text_44">
     <!-- z(MFEF→MSC) -->
     <g transform="translate(107.2 400.592438) scale(0.1 -0.1)">
      <defs>
       <path id="DejaVuSans-7a" d="M 353 3500 
L 3084 3500 
L 3084 2975 
L 922 459 
L 3084 459 
L 3084 0 
L 275 0 
L 275 525 
L 2438 3041 
L 353 3041 
L 353 3500 
z
" transform="scale(0.015625)"/>
      </defs>
      <use xlink:href="#DejaVuSans-7a"/>
      <use xlink:href="#DejaVuSans-28" transform="translate(52.490234 0)"/>
      <use xlink:href="#DejaVuSans-4d" transform="translate(91.503906 0)"/>
      <use xlink:href="#DejaVuSans-46" transform="translate(177.783203 0)"/>
      <use xlink:href="#DejaVuSans-45" transform="translate(235.302734 0)"/>
      <use xlink:href="#DejaVuSans-46" transform="translate(298.486328 0)"/>
      <use xlink:href="#DejaVuSans-2192" transform="translate(356.005859 0)"/>
      <use xlink:href="#DejaVuSans-4d" transform="translate(439.794922 0)"/>
      <use xlink:href="#DejaVuSans-53" transform="translate(526.074219 0)"/>
      <use xlink:href="#DejaVuSans-43" transform="translate(589.550781 0)"/>
      <use xlink:href="#DejaVuSans-29" transform="translate(659.375 0)"/>
     </g>
    </g>
    <g id="line2d_48">
     <path d="M 79.2 411.770563 
L 89.2 411.770563 
L 99.2 411.770563 
" style="fill: none; stroke: #ff7f0e; stroke-width: 2; stroke-linecap: square"/>
    </g>
    <g id="text_45">
     <!-- z(MSC→MFEF) -->
     <g transform="translate(107.2 415.270563) scale(0.1 -0.1)">
      <use xlink:href="#DejaVuSans-7a"/>
      <use xlink:href="#DejaVuSans-28" transform="translate(52.490234 0)"/>
      <use xlink:href="#DejaVuSans-4d" transform="translate(91.503906 0)"/>
      <use xlink:href="#DejaVuSans-53" transform="translate(177.783203 0)"/>
      <use xlink:href="#DejaVuSans-43" transform="translate(241.259766 0)"/>
      <use xlink:href="#DejaVuSans-2192" transform="translate(311.083984 0)"/>
      <use xlink:href="#DejaVuSans-4d" transform="translate(394.873047 0)"/>
      <use xlink:href="#DejaVuSans-46" transform="translate(481.152344 0)"/>
      <use xlink:href="#DejaVuSans-45" transform="translate(538.671875 0)"/>
      <use xlink:href="#DejaVuSans-46" transform="translate(601.855469 0)"/>
      <use xlink:href="#DejaVuSans-29" transform="translate(659.375 0)"/>
     </g>
    </g>
   </g>
  </g>
 </g>
 <defs>
  <clipPath id="p9b20ab387f">
   <rect x="70.2" y="67.392" width="435.24" height="138.996"/>
  </clipPath>
  <clipPath id="p2967f9fe8d">
   <rect x="70.2" y="237.276" width="435.24" height="115.83"/>
  </clipPath>
  <clipPath id="pe04205d36f">
   <rect x="70.2" y="383.994" width="435.24" height="115.83"/>
  </clipPath>
 </defs>
</svg>
