<?xml version="1.0" encoding="utf-8" standalone="no"?>
<!DOCTYPE svg PUBLIC "-//W3C//DTD SVG 1.1//EN"
  "http://www.w3.org/Graphics/SVG/1.1/DTD/svg11.dtd">
<svg xmlns:xlink="http://www.w3.org/1999/xlink" width="561.6pt" height="561.6pt" viewBox="0 0 561.6 561.6" xmlns="http://www.w3.org/2000/svg" version="1.1">
 <metadata>
  <rdf:RDF xmlns:dc="http://purl.org/dc/elements/1.1/" xmlns:cc="http://creativecommons.org/ns#" xmlns:rdf="http://www.w3.org/1999/02/22-rdf-syntax-ns#">
   <cc:Work>
    <dc:type rdf:resource="http://purl.org/dc/dcmitype/StillImage"/>
    <dc:date>2025-12-08T02:04:43.693812</dc:date>
    <dc:format>image/svg+xml</dc:format>
    <dc:creator>
     <cc:Agent>
      <dc:title>Matplotlib v3.10.5, https://matplotlib.org/</dc:title>
     </cc:Agent>
    </dc:creator>
   </cc:Work>
  </rdf:RDF>
 </metadata>
 <defs>
  <style type="text/css">*{stroke-linejoin: round; stroke-linecap: butt}</style>
 </defs>
 <g id="figure_1">
  <g id="patch_1">
   <path d="M 0 561.6 
L 561.6 561.6 
L 561.6 0 
L 0 0 
z
" style="fill: #ffffff"/>
  </g>
  <g id="axes_1">
   <g id="patch_2">
    <path d="M 70.2 206.388 
L 505.44 206.388 
L 505.44 67.392 
L 70.2 67.392 
z
" style="fill: #ffffff"/>
   </g>
   <g id="FillBetweenPolyCollection_1">
    <defs>
     <path id="m1507f70f6a" d="M 89.983636 -417.083443 
L 89.983636 -367.926956 
L 93.980327 -369.634813 
L 97.977023 -369.576965 
L 101.973713 -369.32187 
L 105.97041 -369.019339 
L 109.967106 -369.479596 
L 113.963796 -367.696763 
L 117.960493 -368.035711 
L 121.957186 -366.600707 
L 125.953882 -367.558805 
L 129.950576 -367.566524 
L 133.947269 -370.249676 
L 137.943962 -367.640082 
L 141.940659 -367.721023 
L 145.937352 -369.674225 
L 149.934045 -370.585037 
L 153.93074 -365.986536 
L 157.927434 -369.129279 
L 161.924129 -366.760875 
L 165.920823 -372.225812 
L 169.917517 -368.959684 
L 173.914211 -369.034546 
L 177.910906 -368.968044 
L 181.9076 -368.751041 
L 185.904294 -369.738411 
L 189.900988 -368.832795 
L 193.897681 -367.382752 
L 197.894377 -368.283486 
L 201.891071 -367.822305 
L 205.887764 -367.879677 
L 209.884457 -371.389064 
L 213.881154 -368.536774 
L 217.877847 -367.211436 
L 221.874543 -367.521281 
L 225.871234 -370.600374 
L 229.86793 -368.865842 
L 233.864626 -370.878463 
L 237.861317 -367.960427 
L 241.858013 -366.267541 
L 245.854704 -369.445572 
L 249.8514 -369.319739 
L 253.848096 -367.759854 
L 257.844787 -368.401962 
L 261.841483 -368.189011 
L 265.838179 -369.200535 
L 269.83487 -369.145108 
L 273.83156 -368.496767 
L 277.828262 -368.567705 
L 281.824953 -366.981549 
L 285.821643 -368.141478 
L 289.818345 -368.929116 
L 293.815036 -369.451851 
L 297.811726 -368.967311 
L 301.808428 -370.349444 
L 305.805119 -368.985992 
L 309.801809 -367.381859 
L 313.798511 -368.195003 
L 317.795202 -369.438542 
L 321.791892 -369.998884 
L 325.788594 -371.020218 
L 329.785285 -368.206466 
L 333.781975 -368.325702 
L 337.778677 -369.640478 
L 341.775368 -368.233703 
L 345.772058 -368.126079 
L 349.76876 -367.857538 
L 353.765451 -369.474556 
L 357.762141 -368.903181 
L 361.758843 -367.122522 
L 365.755534 -369.629302 
L 369.752224 -369.914269 
L 373.748914 -368.820072 
L 377.745605 -368.326951 
L 381.742319 -370.143467 
L 385.739009 -369.517602 
L 389.7357 -369.237512 
L 393.73239 -369.868841 
L 397.72908 -371.791632 
L 401.725771 -367.254141 
L 405.722485 -368.233862 
L 409.719175 -371.04616 
L 413.715866 -370.111205 
L 417.712556 -371.05879 
L 421.709246 -367.223354 
L 425.705937 -368.941315 
L 429.702627 -367.900575 
L 433.699341 -368.479625 
L 437.696032 -369.630829 
L 441.692722 -368.740094 
L 445.689412 -367.498135 
L 449.686103 -368.849569 
L 453.682793 -369.154706 
L 457.679507 -372.416025 
L 461.676198 -369.698462 
L 465.672888 -368.485064 
L 469.669578 -370.291258 
L 473.666269 -368.356207 
L 477.662959 -369.873707 
L 481.659673 -370.03757 
L 485.656364 -369.370799 
L 485.656364 -416.94409 
L 485.656364 -416.94409 
L 481.659673 -417.901983 
L 477.662959 -417.59067 
L 473.666269 -412.701895 
L 469.669578 -418.927515 
L 465.672888 -415.878527 
L 461.676198 -416.191939 
L 457.679507 -426.487206 
L 453.682793 -419.700216 
L 449.686103 -411.95861 
L 445.689412 -418.093051 
L 441.692722 -413.853016 
L 437.696032 -413.706575 
L 433.699341 -418.276445 
L 429.702627 -415.646759 
L 425.705937 -418.960692 
L 421.709246 -410.360726 
L 417.712556 -421.98796 
L 413.715866 -412.088442 
L 409.719175 -419.474554 
L 405.722485 -418.979325 
L 401.725771 -411.731107 
L 397.72908 -420.308079 
L 393.73239 -423.167534 
L 389.7357 -416.774638 
L 385.739009 -414.696606 
L 381.742319 -420.089083 
L 377.745605 -411.561921 
L 373.748914 -412.676426 
L 369.752224 -424.536698 
L 365.755534 -413.785215 
L 361.758843 -410.418186 
L 357.762141 -411.867972 
L 353.765451 -416.76559 
L 349.76876 -412.855627 
L 345.772058 -416.141272 
L 341.775368 -411.080688 
L 337.778677 -419.375203 
L 333.781975 -418.685699 
L 329.785285 -418.860212 
L 325.788594 -434.109097 
L 321.791892 -418.198077 
L 317.795202 -413.964274 
L 313.798511 -422.293023 
L 309.801809 -414.227191 
L 305.805119 -419.053191 
L 301.808428 -425.104878 
L 297.811726 -415.813894 
L 293.815036 -420.753289 
L 289.818345 -420.615472 
L 285.821643 -416.128712 
L 281.824953 -411.763901 
L 277.828262 -418.611669 
L 273.83156 -414.851887 
L 269.83487 -412.67317 
L 265.838179 -414.313166 
L 261.841483 -413.904518 
L 257.844787 -414.265577 
L 253.848096 -417.055258 
L 249.8514 -418.243304 
L 245.854704 -413.85775 
L 241.858013 -409.552474 
L 237.861317 -410.315579 
L 233.864626 -421.763735 
L 229.86793 -416.8482 
L 225.871234 -416.313388 
L 221.874543 -413.510817 
L 217.877847 -418.563981 
L 213.881154 -420.53536 
L 209.884457 -411.624581 
L 205.887764 -411.722628 
L 201.891071 -411.653258 
L 197.894377 -412.770036 
L 193.897681 -406.456613 
L 189.900988 -416.74818 
L 185.904294 -415.211923 
L 181.9076 -416.682999 
L 177.910906 -412.304983 
L 173.914211 -414.241897 
L 169.917517 -416.100064 
L 165.920823 -418.149554 
L 161.924129 -418.65782 
L 157.927434 -414.418956 
L 153.93074 -410.204929 
L 149.934045 -416.930124 
L 145.937352 -422.859998 
L 141.940659 -413.707352 
L 137.943962 -409.982925 
L 133.947269 -423.306893 
L 129.950576 -410.217026 
L 125.953882 -411.343196 
L 121.957186 -413.752236 
L 117.960493 -412.740283 
L 113.963796 -412.249827 
L 109.967106 -432.918971 
L 105.97041 -415.251919 
L 101.973713 -420.610191 
L 97.977023 -413.545535 
L 93.980327 -410.013626 
L 89.983636 -417.083443 
z
"/>
    </defs>
    <g clip-path="url(#p2f856987c5)">
     <use xlink:href="#m1507f70f6a" x="0" y="561.6" style="fill: #1f77b4; fill-opacity: 0.15"/>
    </g>
   </g>
   <g id="FillBetweenPolyCollection_2">
    <defs>
     <path id="m360cf1bd93" d="M 89.983636 -413.754959 
L 89.983636 -369.507458 
L 93.980327 -367.571049 
L 97.977023 -369.384423 
L 101.973713 -367.483509 
L 105.97041 -370.738725 
L 109.967106 -368.906735 
L 113.963796 -367.943718 
L 117.960493 -368.393205 
L 121.957186 -366.424455 
L 125.953882 -368.548298 
L 129.950576 -369.612488 
L 133.947269 -369.117874 
L 137.943962 -368.957846 
L 141.940659 -370.945564 
L 145.937352 -369.445901 
L 149.934045 -368.47778 
L 153.93074 -366.768582 
L 157.927434 -368.947567 
L 161.924129 -370.425972 
L 165.920823 -370.116658 
L 169.917517 -366.612249 
L 173.914211 -367.931528 
L 177.910906 -367.612949 
L 181.9076 -368.045456 
L 185.904294 -369.019753 
L 189.900988 -368.912091 
L 193.897681 -367.83468 
L 197.894377 -369.263173 
L 201.891071 -369.257217 
L 205.887764 -369.966863 
L 209.884457 -370.6702 
L 213.881154 -370.548591 
L 217.877847 -369.862242 
L 221.874543 -369.472369 
L 225.871234 -371.777297 
L 229.86793 -369.467351 
L 233.864626 -367.706275 
L 237.861317 -371.372663 
L 241.858013 -370.373356 
L 245.854704 -369.478491 
L 249.8514 -368.805835 
L 253.848096 -368.274876 
L 257.844787 -369.468809 
L 261.841483 -368.404159 
L 265.838179 -368.214832 
L 269.83487 -367.06568 
L 273.83156 -370.376023 
L 277.828262 -369.805225 
L 281.824953 -368.311028 
L 285.821643 -367.900879 
L 289.818345 -368.338553 
L 293.815036 -367.171191 
L 297.811726 -370.333448 
L 301.808428 -369.91234 
L 305.805119 -370.42035 
L 309.801809 -369.509841 
L 313.798511 -368.51739 
L 317.795202 -367.115983 
L 321.791892 -367.878092 
L 325.788594 -367.333318 
L 329.785285 -368.520436 
L 333.781975 -367.179793 
L 337.778677 -368.757204 
L 341.775368 -370.595047 
L 345.772058 -369.405635 
L 349.76876 -369.168713 
L 353.765451 -369.272032 
L 357.762141 -368.598563 
L 361.758843 -366.503776 
L 365.755534 -367.510352 
L 369.752224 -365.617935 
L 373.748914 -368.876944 
L 377.745605 -368.346363 
L 381.742319 -370.464434 
L 385.739009 -369.965237 
L 389.7357 -369.587196 
L 393.73239 -369.064473 
L 397.72908 -369.67455 
L 401.725771 -368.654083 
L 405.722485 -369.217846 
L 409.719175 -368.253157 
L 413.715866 -368.749204 
L 417.712556 -368.020072 
L 421.709246 -370.927073 
L 425.705937 -368.782489 
L 429.702627 -368.314722 
L 433.699341 -368.75442 
L 437.696032 -370.501869 
L 441.692722 -368.856347 
L 445.689412 -366.929514 
L 449.686103 -369.224152 
L 453.682793 -371.344738 
L 457.679507 -368.707043 
L 461.676198 -369.684354 
L 465.672888 -370.692855 
L 469.669578 -368.839912 
L 473.666269 -370.310463 
L 477.662959 -369.298114 
L 481.659673 -370.558798 
L 485.656364 -369.83975 
L 485.656364 -415.228614 
L 485.656364 -415.228614 
L 481.659673 -417.698482 
L 477.662959 -411.562526 
L 473.666269 -420.849371 
L 469.669578 -409.765597 
L 465.672888 -420.380557 
L 461.676198 -412.828802 
L 457.679507 -413.9756 
L 453.682793 -422.364279 
L 449.686103 -414.529115 
L 445.689412 -412.495361 
L 441.692722 -412.43711 
L 437.696032 -422.226064 
L 433.699341 -419.967015 
L 429.702627 -416.932989 
L 425.705937 -414.539108 
L 421.709246 -417.976039 
L 417.712556 -412.543472 
L 413.715866 -416.336736 
L 409.719175 -410.657536 
L 405.722485 -416.045601 
L 401.725771 -419.13866 
L 397.72908 -416.631461 
L 393.73239 -409.415421 
L 389.7357 -417.839906 
L 385.739009 -415.154027 
L 381.742319 -413.831891 
L 377.745605 -411.164653 
L 373.748914 -412.779295 
L 369.752224 -410.443167 
L 365.755534 -411.730151 
L 361.758843 -414.454005 
L 357.762141 -415.220632 
L 353.765451 -415.624913 
L 349.76876 -413.658576 
L 345.772058 -415.797065 
L 341.775368 -415.758832 
L 337.778677 -415.390782 
L 333.781975 -410.29953 
L 329.785285 -416.883784 
L 325.788594 -418.227172 
L 321.791892 -411.18074 
L 317.795202 -413.180907 
L 313.798511 -414.770092 
L 309.801809 -416.435717 
L 305.805119 -419.569154 
L 301.808428 -413.28621 
L 297.811726 -417.073818 
L 293.815036 -414.613735 
L 289.818345 -414.052933 
L 285.821643 -414.213836 
L 281.824953 -415.916734 
L 277.828262 -413.209562 
L 273.83156 -417.302904 
L 269.83487 -412.977696 
L 265.838179 -416.03971 
L 261.841483 -417.127417 
L 257.844787 -418.062296 
L 253.848096 -419.660681 
L 249.8514 -411.082091 
L 245.854704 -413.865756 
L 241.858013 -416.78466 
L 237.861317 -418.561926 
L 233.864626 -410.96875 
L 229.86793 -415.657607 
L 225.871234 -416.764475 
L 221.874543 -412.112415 
L 217.877847 -421.436874 
L 213.881154 -415.912371 
L 209.884457 -419.693972 
L 205.887764 -417.827464 
L 201.891071 -417.563096 
L 197.894377 -410.374796 
L 193.897681 -416.707218 
L 189.900988 -413.465717 
L 185.904294 -415.645946 
L 181.9076 -419.702914 
L 177.910906 -413.736221 
L 173.914211 -411.602304 
L 169.917517 -412.928009 
L 165.920823 -418.216474 
L 161.924129 -422.36271 
L 157.927434 -413.971574 
L 153.93074 -413.655019 
L 149.934045 -418.775297 
L 145.937352 -414.065387 
L 141.940659 -415.364223 
L 137.943962 -417.811635 
L 133.947269 -421.458415 
L 129.950576 -415.490592 
L 125.953882 -408.573333 
L 121.957186 -412.955982 
L 117.960493 -417.957576 
L 113.963796 -416.075459 
L 109.967106 -416.988154 
L 105.97041 -423.48245 
L 101.973713 -406.671489 
L 97.977023 -420.307087 
L 93.980327 -418.400922 
L 89.983636 -413.754959 
z
"/>
    </defs>
    <g clip-path="url(#p2f856987c5)">
     <use xlink:href="#m360cf1bd93" x="0" y="561.6" style="fill: #ff7f0e; fill-opacity: 0.15"/>
    </g>
   </g>
   <g id="matplotlib.axis_1">
    <g id="xtick_1">
     <g id="line2d_1">
      <defs>
       <path id="mdeaedb23dc" d="M 0 0 
L 0 3.5 
" style="stroke: #000000; stroke-width: 0.8"/>
      </defs>
      <g>
       <use xlink:href="#mdeaedb23dc" x="87.985286" y="206.388" style="stroke: #000000; stroke-width: 0.8"/>
      </g>
     </g>
     <g id="text_1">
      <!-- −200 -->
      <g transform="translate(74.251693 220.986437) scale(0.1 -0.1)">
       <defs>
        <path id="DejaVuSans-2212" d="M 678 2272 
L 4684 2272 
L 4684 1741 
L 678 1741 
L 678 2272 
z
" transform="scale(0.015625)"/>
        <path id="DejaVuSans-32" d="M 1228 531 
L 3431 531 
L 3431 0 
L 469 0 
L 469 531 
Q 828 903 1448 1529 
Q 2069 2156 2228 2338 
Q 2531 2678 2651 2914 
Q 2772 3150 2772 3378 
Q 2772 3750 2511 3984 
Q 2250 4219 1831 4219 
Q 1534 4219 1204 4116 
Q 875 4013 500 3803 
L 500 4441 
Q 881 4594 1212 4672 
Q 1544 4750 1819 4750 
Q 2544 4750 2975 4387 
Q 3406 4025 3406 3419 
Q 3406 3131 3298 2873 
Q 3191 2616 2906 2266 
Q 2828 2175 2409 1742 
Q 1991 1309 1228 531 
z
" transform="scale(0.015625)"/>
        <path id="DejaVuSans-30" d="M 2034 4250 
Q 1547 4250 1301 3770 
Q 1056 3291 1056 2328 
Q 1056 1369 1301 889 
Q 1547 409 2034 409 
Q 2525 409 2770 889 
Q 3016 1369 3016 2328 
Q 3016 3291 2770 3770 
Q 2525 4250 2034 4250 
z
M 2034 4750 
Q 2819 4750 3233 4129 
Q 3647 3509 3647 2328 
Q 3647 1150 3233 529 
Q 2819 -91 2034 -91 
Q 1250 -91 836 529 
Q 422 1150 422 2328 
Q 422 3509 836 4129 
Q 1250 4750 2034 4750 
z
" transform="scale(0.015625)"/>
       </defs>
       <use xlink:href="#DejaVuSans-2212"/>
       <use xlink:href="#DejaVuSans-32" transform="translate(83.789062 0)"/>
       <use xlink:href="#DejaVuSans-30" transform="translate(147.412109 0)"/>
       <use xlink:href="#DejaVuSans-30" transform="translate(211.035156 0)"/>
      </g>
     </g>
    </g>
    <g id="xtick_2">
     <g id="line2d_2">
      <g>
       <use xlink:href="#mdeaedb23dc" x="167.91917" y="206.388" style="stroke: #000000; stroke-width: 0.8"/>
      </g>
     </g>
     <g id="text_2">
      <!-- 0 -->
      <g transform="translate(164.73792 220.986437) scale(0.1 -0.1)">
       <use xlink:href="#DejaVuSans-30"/>
      </g>
     </g>
    </g>
    <g id="xtick_3">
     <g id="line2d_3">
      <g>
       <use xlink:href="#mdeaedb23dc" x="247.853053" y="206.388" style="stroke: #000000; stroke-width: 0.8"/>
      </g>
     </g>
     <g id="text_3">
      <!-- 200 -->
      <g transform="translate(238.309303 220.986437) scale(0.1 -0.1)">
       <use xlink:href="#DejaVuSans-32"/>
       <use xlink:href="#DejaVuSans-30" transform="translate(63.623047 0)"/>
       <use xlink:href="#DejaVuSans-30" transform="translate(127.246094 0)"/>
      </g>
     </g>
    </g>
    <g id="xtick_4">
     <g id="line2d_4">
      <g>
       <use xlink:href="#mdeaedb23dc" x="327.786937" y="206.388" style="stroke: #000000; stroke-width: 0.8"/>
      </g>
     </g>
     <g id="text_4">
      <!-- 400 -->
      <g transform="translate(318.243187 220.986437) scale(0.1 -0.1)">
       <defs>
        <path id="DejaVuSans-34" d="M 2419 4116 
L 825 1625 
L 2419 1625 
L 2419 4116 
z
M 2253 4666 
L 3047 4666 
L 3047 1625 
L 3713 1625 
L 3713 1100 
L 3047 1100 
L 3047 0 
L 2419 0 
L 2419 1100 
L 313 1100 
L 313 1709 
L 2253 4666 
z
" transform="scale(0.015625)"/>
       </defs>
       <use xlink:href="#DejaVuSans-34"/>
       <use xlink:href="#DejaVuSans-30" transform="translate(63.623047 0)"/>
       <use xlink:href="#DejaVuSans-30" transform="translate(127.246094 0)"/>
      </g>
     </g>
    </g>
    <g id="xtick_5">
     <g id="line2d_5">
      <g>
       <use xlink:href="#mdeaedb23dc" x="407.720821" y="206.388" style="stroke: #000000; stroke-width: 0.8"/>
      </g>
     </g>
     <g id="text_5">
      <!-- 600 -->
      <g transform="translate(398.177071 220.986437) scale(0.1 -0.1)">
       <defs>
        <path id="DejaVuSans-36" d="M 2113 2584 
Q 1688 2584 1439 2293 
Q 1191 2003 1191 1497 
Q 1191 994 1439 701 
Q 1688 409 2113 409 
Q 2538 409 2786 701 
Q 3034 994 3034 1497 
Q 3034 2003 2786 2293 
Q 2538 2584 2113 2584 
z
M 3366 4563 
L 3366 3988 
Q 3128 4100 2886 4159 
Q 2644 4219 2406 4219 
Q 1781 4219 1451 3797 
Q 1122 3375 1075 2522 
Q 1259 2794 1537 2939 
Q 1816 3084 2150 3084 
Q 2853 3084 3261 2657 
Q 3669 2231 3669 1497 
Q 3669 778 3244 343 
Q 2819 -91 2113 -91 
Q 1303 -91 875 529 
Q 447 1150 447 2328 
Q 447 3434 972 4092 
Q 1497 4750 2381 4750 
Q 2619 4750 2861 4703 
Q 3103 4656 3366 4563 
z
" transform="scale(0.015625)"/>
       </defs>
       <use xlink:href="#DejaVuSans-36"/>
       <use xlink:href="#DejaVuSans-30" transform="translate(63.623047 0)"/>
       <use xlink:href="#DejaVuSans-30" transform="translate(127.246094 0)"/>
      </g>
     </g>
    </g>
    <g id="xtick_6">
     <g id="line2d_6">
      <g>
       <use xlink:href="#mdeaedb23dc" x="487.654704" y="206.388" style="stroke: #000000; stroke-width: 0.8"/>
      </g>
     </g>
     <g id="text_6">
      <!-- 800 -->
      <g transform="translate(478.110954 220.986437) scale(0.1 -0.1)">
       <defs>
        <path id="DejaVuSans-38" d="M 2034 2216 
Q 1584 2216 1326 1975 
Q 1069 1734 1069 1313 
Q 1069 891 1326 650 
Q 1584 409 2034 409 
Q 2484 409 2743 651 
Q 3003 894 3003 1313 
Q 3003 1734 2745 1975 
Q 2488 2216 2034 2216 
z
M 1403 2484 
Q 997 2584 770 2862 
Q 544 3141 544 3541 
Q 544 4100 942 4425 
Q 1341 4750 2034 4750 
Q 2731 4750 3128 4425 
Q 3525 4100 3525 3541 
Q 3525 3141 3298 2862 
Q 3072 2584 2669 2484 
Q 3125 2378 3379 2068 
Q 3634 1759 3634 1313 
Q 3634 634 3220 271 
Q 2806 -91 2034 -91 
Q 1263 -91 848 271 
Q 434 634 434 1313 
Q 434 1759 690 2068 
Q 947 2378 1403 2484 
z
M 1172 3481 
Q 1172 3119 1398 2916 
Q 1625 2713 2034 2713 
Q 2441 2713 2670 2916 
Q 2900 3119 2900 3481 
Q 2900 3844 2670 4047 
Q 2441 4250 2034 4250 
Q 1625 4250 1398 4047 
Q 1172 3844 1172 3481 
z
" transform="scale(0.015625)"/>
       </defs>
       <use xlink:href="#DejaVuSans-38"/>
       <use xlink:href="#DejaVuSans-30" transform="translate(63.623047 0)"/>
       <use xlink:href="#DejaVuSans-30" transform="translate(127.246094 0)"/>
      </g>
     </g>
    </g>
   </g>
   <g id="matplotlib.axis_2">
    <g id="ytick_1">
     <g id="line2d_7">
      <defs>
       <path id="mb08bc62f35" d="M 0 0 
L -3.5 0 
" style="stroke: #000000; stroke-width: 0.8"/>
      </defs>
      <g>
       <use xlink:href="#mb08bc62f35" x="70.2" y="205.796093" style="stroke: #000000; stroke-width: 0.8"/>
      </g>
     </g>
     <g id="text_7">
      <!-- 0.0 -->
      <g transform="translate(47.296875 209.595311) scale(0.1 -0.1)">
       <defs>
        <path id="DejaVuSans-2e" d="M 684 794 
L 1344 794 
L 1344 0 
L 684 0 
L 684 794 
z
" transform="scale(0.015625)"/>
       </defs>
       <use xlink:href="#DejaVuSans-30"/>
       <use xlink:href="#DejaVuSans-2e" transform="translate(63.623047 0)"/>
       <use xlink:href="#DejaVuSans-30" transform="translate(95.410156 0)"/>
      </g>
     </g>
    </g>
    <g id="ytick_2">
     <g id="line2d_8">
      <g>
       <use xlink:href="#mb08bc62f35" x="70.2" y="181.183475" style="stroke: #000000; stroke-width: 0.8"/>
      </g>
     </g>
     <g id="text_8">
      <!-- 2.5 -->
      <g transform="translate(47.296875 184.982693) scale(0.1 -0.1)">
       <defs>
        <path id="DejaVuSans-35" d="M 691 4666 
L 3169 4666 
L 3169 4134 
L 1269 4134 
L 1269 2991 
Q 1406 3038 1543 3061 
Q 1681 3084 1819 3084 
Q 2600 3084 3056 2656 
Q 3513 2228 3513 1497 
Q 3513 744 3044 326 
Q 2575 -91 1722 -91 
Q 1428 -91 1123 -41 
Q 819 9 494 109 
L 494 744 
Q 775 591 1075 516 
Q 1375 441 1709 441 
Q 2250 441 2565 725 
Q 2881 1009 2881 1497 
Q 2881 1984 2565 2268 
Q 2250 2553 1709 2553 
Q 1456 2553 1204 2497 
Q 953 2441 691 2322 
L 691 4666 
z
" transform="scale(0.015625)"/>
       </defs>
       <use xlink:href="#DejaVuSans-32"/>
       <use xlink:href="#DejaVuSans-2e" transform="translate(63.623047 0)"/>
       <use xlink:href="#DejaVuSans-35" transform="translate(95.410156 0)"/>
      </g>
     </g>
    </g>
    <g id="ytick_3">
     <g id="line2d_9">
      <g>
       <use xlink:href="#mb08bc62f35" x="70.2" y="156.570857" style="stroke: #000000; stroke-width: 0.8"/>
      </g>
     </g>
     <g id="text_9">
      <!-- 5.0 -->
      <g transform="translate(47.296875 160.370075) scale(0.1 -0.1)">
       <use xlink:href="#DejaVuSans-35"/>
       <use xlink:href="#DejaVuSans-2e" transform="translate(63.623047 0)"/>
       <use xlink:href="#DejaVuSans-30" transform="translate(95.410156 0)"/>
      </g>
     </g>
    </g>
    <g id="ytick_4">
     <g id="line2d_10">
      <g>
       <use xlink:href="#mb08bc62f35" x="70.2" y="131.958239" style="stroke: #000000; stroke-width: 0.8"/>
      </g>
     </g>
     <g id="text_10">
      <!-- 7.5 -->
      <g transform="translate(47.296875 135.757457) scale(0.1 -0.1)">
       <defs>
        <path id="DejaVuSans-37" d="M 525 4666 
L 3525 4666 
L 3525 4397 
L 1831 0 
L 1172 0 
L 2766 4134 
L 525 4134 
L 525 4666 
z
" transform="scale(0.015625)"/>
       </defs>
       <use xlink:href="#DejaVuSans-37"/>
       <use xlink:href="#DejaVuSans-2e" transform="translate(63.623047 0)"/>
       <use xlink:href="#DejaVuSans-35" transform="translate(95.410156 0)"/>
      </g>
     </g>
    </g>
    <g id="ytick_5">
     <g id="line2d_11">
      <g>
       <use xlink:href="#mb08bc62f35" x="70.2" y="107.345621" style="stroke: #000000; stroke-width: 0.8"/>
      </g>
     </g>
     <g id="text_11">
      <!-- 10.0 -->
      <g transform="translate(40.934375 111.144839) scale(0.1 -0.1)">
       <defs>
        <path id="DejaVuSans-31" d="M 794 531 
L 1825 531 
L 1825 4091 
L 703 3866 
L 703 4441 
L 1819 4666 
L 2450 4666 
L 2450 531 
L 3481 531 
L 3481 0 
L 794 0 
L 794 531 
z
" transform="scale(0.015625)"/>
       </defs>
       <use xlink:href="#DejaVuSans-31"/>
       <use xlink:href="#DejaVuSans-30" transform="translate(63.623047 0)"/>
       <use xlink:href="#DejaVuSans-2e" transform="translate(127.246094 0)"/>
       <use xlink:href="#DejaVuSans-30" transform="translate(159.033203 0)"/>
      </g>
     </g>
    </g>
    <g id="ytick_6">
     <g id="line2d_12">
      <g>
       <use xlink:href="#mb08bc62f35" x="70.2" y="82.733003" style="stroke: #000000; stroke-width: 0.8"/>
      </g>
     </g>
     <g id="text_12">
      <!-- 12.5 -->
      <g transform="translate(40.934375 86.532221) scale(0.1 -0.1)">
       <use xlink:href="#DejaVuSans-31"/>
       <use xlink:href="#DejaVuSans-32" transform="translate(63.623047 0)"/>
       <use xlink:href="#DejaVuSans-2e" transform="translate(127.246094 0)"/>
       <use xlink:href="#DejaVuSans-35" transform="translate(159.033203 0)"/>
      </g>
     </g>
    </g>
    <g id="text_13">
     <!-- ΔLL (bits) -->
     <g transform="translate(34.854687 160.500937) rotate(-90) scale(0.1 -0.1)">
      <defs>
       <path id="DejaVuSans-394" d="M 2188 4044 
L 906 525 
L 3472 525 
L 2188 4044 
z
M 50 0 
L 1831 4666 
L 2547 4666 
L 4325 0 
L 50 0 
z
" transform="scale(0.015625)"/>
       <path id="DejaVuSans-4c" d="M 628 4666 
L 1259 4666 
L 1259 531 
L 3531 531 
L 3531 0 
L 628 0 
L 628 4666 
z
" transform="scale(0.015625)"/>
       <path id="DejaVuSans-20" transform="scale(0.015625)"/>
       <path id="DejaVuSans-28" d="M 1984 4856 
Q 1566 4138 1362 3434 
Q 1159 2731 1159 2009 
Q 1159 1288 1364 580 
Q 1569 -128 1984 -844 
L 1484 -844 
Q 1016 -109 783 600 
Q 550 1309 550 2009 
Q 550 2706 781 3412 
Q 1013 4119 1484 4856 
L 1984 4856 
z
" transform="scale(0.015625)"/>
       <path id="DejaVuSans-62" d="M 3116 1747 
Q 3116 2381 2855 2742 
Q 2594 3103 2138 3103 
Q 1681 3103 1420 2742 
Q 1159 2381 1159 1747 
Q 1159 1113 1420 752 
Q 1681 391 2138 391 
Q 2594 391 2855 752 
Q 3116 1113 3116 1747 
z
M 1159 2969 
Q 1341 3281 1617 3432 
Q 1894 3584 2278 3584 
Q 2916 3584 3314 3078 
Q 3713 2572 3713 1747 
Q 3713 922 3314 415 
Q 2916 -91 2278 -91 
Q 1894 -91 1617 61 
Q 1341 213 1159 525 
L 1159 0 
L 581 0 
L 581 4863 
L 1159 4863 
L 1159 2969 
z
" transform="scale(0.015625)"/>
       <path id="DejaVuSans-69" d="M 603 3500 
L 1178 3500 
L 1178 0 
L 603 0 
L 603 3500 
z
M 603 4863 
L 1178 4863 
L 1178 4134 
L 603 4134 
L 603 4863 
z
" transform="scale(0.015625)"/>
       <path id="DejaVuSans-74" d="M 1172 4494 
L 1172 3500 
L 2356 3500 
L 2356 3053 
L 1172 3053 
L 1172 1153 
Q 1172 725 1289 603 
Q 1406 481 1766 481 
L 2356 481 
L 2356 0 
L 1766 0 
Q 1100 0 847 248 
Q 594 497 594 1153 
L 594 3053 
L 172 3053 
L 172 3500 
L 594 3500 
L 594 4494 
L 1172 4494 
z
" transform="scale(0.015625)"/>
       <path id="DejaVuSans-73" d="M 2834 3397 
L 2834 2853 
Q 2591 2978 2328 3040 
Q 2066 3103 1784 3103 
Q 1356 3103 1142 2972 
Q 928 2841 928 2578 
Q 928 2378 1081 2264 
Q 1234 2150 1697 2047 
L 1894 2003 
Q 2506 1872 2764 1633 
Q 3022 1394 3022 966 
Q 3022 478 2636 193 
Q 2250 -91 1575 -91 
Q 1294 -91 989 -36 
Q 684 19 347 128 
L 347 722 
Q 666 556 975 473 
Q 1284 391 1588 391 
Q 1994 391 2212 530 
Q 2431 669 2431 922 
Q 2431 1156 2273 1281 
Q 2116 1406 1581 1522 
L 1381 1569 
Q 847 1681 609 1914 
Q 372 2147 372 2553 
Q 372 3047 722 3315 
Q 1072 3584 1716 3584 
Q 2034 3584 2315 3537 
Q 2597 3491 2834 3397 
z
" transform="scale(0.015625)"/>
       <path id="DejaVuSans-29" d="M 513 4856 
L 1013 4856 
Q 1481 4119 1714 3412 
Q 1947 2706 1947 2009 
Q 1947 1309 1714 600 
Q 1481 -109 1013 -844 
L 513 -844 
Q 928 -128 1133 580 
Q 1338 1288 1338 2009 
Q 1338 2731 1133 3434 
Q 928 4138 513 4856 
z
" transform="scale(0.015625)"/>
      </defs>
      <use xlink:href="#DejaVuSans-394"/>
      <use xlink:href="#DejaVuSans-4c" transform="translate(68.408203 0)"/>
      <use xlink:href="#DejaVuSans-4c" transform="translate(124.121094 0)"/>
      <use xlink:href="#DejaVuSans-20" transform="translate(179.833984 0)"/>
      <use xlink:href="#DejaVuSans-28" transform="translate(211.621094 0)"/>
      <use xlink:href="#DejaVuSans-62" transform="translate(250.634766 0)"/>
      <use xlink:href="#DejaVuSans-69" transform="translate(314.111328 0)"/>
      <use xlink:href="#DejaVuSans-74" transform="translate(341.894531 0)"/>
      <use xlink:href="#DejaVuSans-73" transform="translate(381.103516 0)"/>
      <use xlink:href="#DejaVuSans-29" transform="translate(433.203125 0)"/>
     </g>
    </g>
   </g>
   <g id="line2d_13">
    <path d="M 167.91917 206.388 
L 167.91917 67.392 
" clip-path="url(#p2f856987c5)" style="fill: none; stroke-dasharray: 2.96,1.28; stroke-dashoffset: 0; stroke: #000000; stroke-width: 0.8"/>
   </g>
   <g id="line2d_14">
    <path d="M 89.983636 169.0948 
L 93.980327 171.77578 
L 97.977023 170.03875 
L 101.973713 166.63397 
L 105.97041 169.464371 
L 109.967106 160.400717 
L 113.963796 171.626705 
L 117.960493 171.212003 
L 121.957186 171.423528 
L 125.953882 172.149 
L 129.950576 172.708225 
L 133.947269 164.821716 
L 137.943962 172.788497 
L 141.940659 170.885812 
L 145.937352 165.332888 
L 149.934045 167.842419 
L 153.93074 173.504268 
L 157.927434 169.825883 
L 161.924129 168.890652 
L 165.920823 166.412317 
L 169.917517 169.070126 
L 173.914211 169.961779 
L 177.910906 170.963487 
L 181.9076 168.88298 
L 185.904294 169.124833 
L 189.900988 168.809512 
L 193.897681 174.680317 
L 197.894377 171.073239 
L 201.891071 171.862219 
L 205.887764 171.798848 
L 209.884457 170.093178 
L 213.881154 167.063933 
L 217.877847 168.712292 
L 221.874543 171.083951 
L 225.871234 168.143119 
L 229.86793 168.742979 
L 233.864626 165.278901 
L 237.861317 172.461997 
L 241.858013 173.689992 
L 245.854704 169.948339 
L 249.8514 167.818479 
L 253.848096 169.192444 
L 257.844787 170.26623 
L 261.841483 170.553235 
L 265.838179 169.843149 
L 269.83487 170.690861 
L 273.83156 169.925673 
L 277.828262 168.010313 
L 281.824953 172.227275 
L 285.821643 169.464905 
L 289.818345 166.827706 
L 293.815036 166.49743 
L 297.811726 169.209397 
L 301.808428 163.872839 
L 305.805119 167.580409 
L 309.801809 170.795475 
L 313.798511 166.355987 
L 317.795202 169.898592 
L 321.791892 167.50152 
L 325.788594 159.035342 
L 329.785285 168.066661 
L 333.781975 168.0943 
L 337.778677 167.092159 
L 341.775368 171.942805 
L 345.772058 169.466325 
L 349.76876 171.243417 
L 353.765451 168.479927 
L 357.762141 171.214423 
L 361.758843 172.829646 
L 365.755534 169.892741 
L 369.752224 164.374517 
L 373.748914 170.851751 
L 377.745605 171.655564 
L 381.742319 166.483725 
L 385.739009 169.492896 
L 389.7357 168.593925 
L 393.73239 165.081812 
L 397.72908 165.550144 
L 401.725771 172.107376 
L 405.722485 167.993407 
L 409.719175 166.339643 
L 413.715866 170.500177 
L 417.712556 165.076625 
L 421.709246 172.80796 
L 425.705937 167.648996 
L 429.702627 169.826333 
L 433.699341 168.221965 
L 437.696032 169.931298 
L 441.692722 170.303445 
L 445.689412 168.804407 
L 449.686103 171.19591 
L 453.682793 167.172539 
L 457.679507 162.148384 
L 461.676198 168.654799 
L 465.672888 169.418205 
L 469.669578 166.990614 
L 473.666269 171.070949 
L 477.662959 167.867811 
L 481.659673 167.630224 
L 485.656364 168.442556 
" clip-path="url(#p2f856987c5)" style="fill: none; stroke-dasharray: 1,1.65; stroke-dashoffset: 0; stroke: #1f77b4"/>
   </g>
   <g id="line2d_15">
    <path d="M 89.983636 169.968791 
L 93.980327 168.614015 
L 97.977023 166.754245 
L 101.973713 174.522501 
L 105.97041 164.489413 
L 109.967106 168.652556 
L 113.963796 169.590412 
L 117.960493 168.42461 
L 121.957186 171.909782 
L 125.953882 173.039185 
L 129.950576 169.04846 
L 133.947269 166.311855 
L 137.943962 168.215259 
L 141.940659 168.445106 
L 145.937352 169.844356 
L 149.934045 167.973461 
L 153.93074 171.388199 
L 157.927434 170.14043 
L 161.924129 165.205659 
L 165.920823 167.433434 
L 169.917517 171.829871 
L 173.914211 171.833084 
L 177.910906 170.925415 
L 181.9076 167.725815 
L 185.904294 169.26715 
L 189.900988 170.411096 
L 193.897681 169.329051 
L 197.894377 171.781016 
L 201.891071 168.189843 
L 205.887764 167.702837 
L 209.884457 166.417914 
L 213.881154 168.369519 
L 217.877847 165.950442 
L 221.874543 170.807608 
L 225.871234 167.329114 
L 229.86793 169.037521 
L 233.864626 172.262488 
L 237.861317 166.632706 
L 241.858013 168.020992 
L 245.854704 169.927876 
L 249.8514 171.656037 
L 253.848096 167.632221 
L 257.844787 167.834448 
L 261.841483 168.834212 
L 265.838179 169.472729 
L 269.83487 171.578312 
L 273.83156 167.760536 
L 277.828262 170.092607 
L 281.824953 169.486119 
L 285.821643 170.542642 
L 289.818345 170.404257 
L 293.815036 170.707537 
L 297.811726 167.896367 
L 301.808428 170.000725 
L 305.805119 166.605248 
L 309.801809 168.627221 
L 313.798511 169.956259 
L 317.795202 171.451555 
L 321.791892 172.070584 
L 325.788594 168.819755 
L 329.785285 168.89789 
L 333.781975 172.860339 
L 337.778677 169.526007 
L 341.775368 168.42306 
L 345.772058 168.99865 
L 349.76876 170.186355 
L 353.765451 169.151528 
L 357.762141 169.690402 
L 361.758843 171.12111 
L 365.755534 171.979748 
L 369.752224 173.569449 
L 373.748914 170.771881 
L 377.745605 171.844492 
L 381.742319 169.451837 
L 385.739009 169.040368 
L 389.7357 167.886449 
L 393.73239 172.360053 
L 397.72908 168.446994 
L 401.725771 167.703628 
L 405.722485 168.968276 
L 409.719175 172.144653 
L 413.715866 169.05703 
L 417.712556 171.318228 
L 421.709246 167.148444 
L 425.705937 169.939202 
L 429.702627 168.976144 
L 433.699341 167.239283 
L 437.696032 165.236034 
L 441.692722 170.953272 
L 445.689412 171.887563 
L 449.686103 169.723366 
L 453.682793 164.745492 
L 457.679507 170.258679 
L 461.676198 170.343422 
L 465.672888 166.063294 
L 469.669578 172.297246 
L 473.666269 166.020083 
L 477.662959 171.16968 
L 481.659673 167.47136 
L 485.656364 169.065818 
" clip-path="url(#p2f856987c5)" style="fill: none; stroke-dasharray: 1,1.65; stroke-dashoffset: 0; stroke: #ff7f0e"/>
   </g>
   <g id="line2d_16">
    <path d="M 89.983636 167.387322 
L 93.980327 190.425313 
L 97.977023 160.572915 
L 101.973713 168.063354 
L 105.97041 187.830715 
L 109.967106 135.060577 
L 113.963796 185.945672 
L 117.960493 167.231576 
L 121.957186 170.362873 
L 125.953882 173.910121 
L 129.950576 195.3532 
L 133.947269 174.415738 
L 137.943962 186.304058 
L 141.940659 136.06436 
L 145.937352 186.073726 
L 149.934045 135.012766 
L 153.93074 169.254934 
L 157.927434 182.329954 
L 161.924129 162.217877 
L 165.920823 146.777572 
L 169.917517 194.351845 
L 173.914211 200.07 
L 177.910906 138.813088 
L 181.9076 176.131608 
L 185.904294 145.835041 
L 189.900988 199.182683 
L 193.897681 162.605905 
L 197.894377 139.656693 
L 201.891071 159.754762 
L 205.887764 132.316374 
L 209.884457 196.820624 
L 213.881154 187.142152 
L 217.877847 174.454093 
L 221.874543 184.575129 
L 225.871234 182.86812 
L 229.86793 162.860914 
L 233.864626 186.04545 
L 237.861317 156.627727 
L 241.858013 191.078195 
L 245.854704 193.365166 
L 249.8514 167.696089 
L 253.848096 190.886952 
L 257.844787 152.667537 
L 261.841483 174.247363 
L 265.838179 181.787652 
L 269.83487 197.207382 
L 273.83156 167.972972 
L 277.828262 181.621116 
L 281.824953 137.651876 
L 285.821643 149.642457 
L 289.818345 188.158714 
L 293.815036 126.998595 
L 297.811726 177.039773 
L 301.808428 167.315062 
L 305.805119 85.690433 
L 309.801809 175.919119 
L 313.798511 160.96444 
L 317.795202 197.260306 
L 321.791892 182.213717 
L 325.788594 140.039867 
L 329.785285 194.856799 
L 333.781975 173.647431 
L 337.778677 186.74844 
L 341.775368 174.844357 
L 345.772058 183.182333 
L 349.76876 168.009871 
L 353.765451 111.841225 
L 357.762141 156.183072 
L 361.758843 166.299414 
L 365.755534 125.235608 
L 369.752224 166.092509 
L 373.748914 193.295066 
L 377.745605 193.112883 
L 381.742319 164.84736 
L 385.739009 174.161257 
L 389.7357 185.976979 
L 393.73239 190.107664 
L 397.72908 164.680525 
L 401.725771 79.759566 
L 405.722485 133.024887 
L 409.719175 167.132619 
L 413.715866 148.540755 
L 417.712556 160.443475 
L 421.709246 194.702721 
L 425.705937 179.040744 
L 429.702627 188.500781 
L 433.699341 170.586081 
L 437.696032 191.692578 
L 441.692722 146.386334 
L 445.689412 162.302926 
L 449.686103 143.834234 
L 453.682793 166.29725 
L 457.679507 197.650755 
L 461.676198 195.149051 
L 465.672888 178.12198 
L 469.669578 73.71 
L 473.666269 182.262123 
L 477.662959 163.402164 
L 481.659673 175.776809 
L 485.656364 152.150039 
" clip-path="url(#p2f856987c5)" style="fill: none; stroke: #1f77b4; stroke-width: 2.2; stroke-linecap: square"/>
   </g>
   <g id="line2d_17">
    <path d="M 89.983636 195.719137 
L 93.980327 199.76362 
L 97.977023 188.407188 
L 101.973713 176.328248 
L 105.97041 185.859345 
L 109.967106 184.055777 
L 113.963796 193.311277 
L 117.960493 172.41374 
L 121.957186 193.732399 
L 125.953882 196.04935 
L 129.950576 115.857712 
L 133.947269 186.178952 
L 137.943962 158.516346 
L 141.940659 190.409243 
L 145.937352 171.879332 
L 149.934045 173.300908 
L 153.93074 174.871413 
L 157.927434 174.013563 
L 161.924129 186.605971 
L 165.920823 169.989054 
L 169.917517 188.718987 
L 173.914211 165.665133 
L 177.910906 167.55546 
L 181.9076 171.760568 
L 185.904294 180.552516 
L 189.900988 189.083703 
L 193.897681 146.707219 
L 197.894377 157.751798 
L 201.891071 167.754884 
L 205.887764 188.259309 
L 209.884457 132.961378 
L 213.881154 138.365377 
L 217.877847 156.878667 
L 221.874543 188.838559 
L 225.871234 166.881542 
L 229.86793 184.98739 
L 233.864626 192.445758 
L 237.861317 160.205299 
L 241.858013 179.635888 
L 245.854704 159.698896 
L 249.8514 153.248343 
L 253.848096 124.504062 
L 257.844787 164.211149 
L 261.841483 176.532129 
L 265.838179 173.441018 
L 269.83487 125.640207 
L 273.83156 183.4712 
L 277.828262 163.068999 
L 281.824953 194.966986 
L 285.821643 169.823579 
L 289.818345 176.294779 
L 293.815036 161.427789 
L 297.811726 188.680774 
L 301.808428 168.421338 
L 305.805119 199.680474 
L 309.801809 170.422178 
L 313.798511 161.130088 
L 317.795202 152.619177 
L 321.791892 164.942062 
L 325.788594 171.715882 
L 329.785285 159.906802 
L 333.781975 184.570176 
L 337.778677 139.162242 
L 341.775368 168.321287 
L 345.772058 161.639263 
L 349.76876 183.265082 
L 353.765451 198.333172 
L 357.762141 136.856874 
L 361.758843 186.713094 
L 365.755534 172.149174 
L 369.752224 178.576242 
L 373.748914 89.939053 
L 377.745605 171.815246 
L 381.742319 158.792852 
L 385.739009 199.932869 
L 389.7357 165.983685 
L 393.73239 149.976936 
L 397.72908 172.668117 
L 401.725771 107.484011 
L 405.722485 174.132336 
L 409.719175 163.335862 
L 413.715866 166.213982 
L 417.712556 98.731955 
L 421.709246 174.759771 
L 425.705937 128.291755 
L 429.702627 183.556445 
L 433.699341 130.139539 
L 437.696032 159.025352 
L 441.692722 152.276341 
L 445.689412 191.096892 
L 449.686103 139.911696 
L 453.682793 191.815703 
L 457.679507 168.572242 
L 461.676198 102.37736 
L 465.672888 192.63241 
L 469.669578 140.520662 
L 473.666269 174.500129 
L 477.662959 163.828987 
L 481.659673 169.475022 
L 485.656364 176.64436 
" clip-path="url(#p2f856987c5)" style="fill: none; stroke: #ff7f0e; stroke-width: 2.2; stroke-linecap: square"/>
   </g>
   <g id="patch_3">
    <path d="M 70.2 206.388 
L 70.2 67.392 
" style="fill: none; stroke: #000000; stroke-width: 0.8; stroke-linejoin: miter; stroke-linecap: square"/>
   </g>
   <g id="patch_4">
    <path d="M 505.44 206.388 
L 505.44 67.392 
" style="fill: none; stroke: #000000; stroke-width: 0.8; stroke-linejoin: miter; stroke-linecap: square"/>
   </g>
   <g id="patch_5">
    <path d="M 70.2 206.388 
L 505.44 206.388 
" style="fill: none; stroke: #000000; stroke-width: 0.8; stroke-linejoin: miter; stroke-linecap: square"/>
   </g>
   <g id="patch_6">
    <path d="M 70.2 67.392 
L 505.44 67.392 
" style="fill: none; stroke: #000000; stroke-width: 0.8; stroke-linejoin: miter; stroke-linecap: square"/>
   </g>
   <g id="text_14">
    <!-- (SFEF vs SLIP) — C-flow — Panel A: overlay + null bands -->
    <g transform="translate(119.059688 61.392) scale(0.12 -0.12)">
     <defs>
      <path id="DejaVuSans-53" d="M 3425 4513 
L 3425 3897 
Q 3066 4069 2747 4153 
Q 2428 4238 2131 4238 
Q 1616 4238 1336 4038 
Q 1056 3838 1056 3469 
Q 1056 3159 1242 3001 
Q 1428 2844 1947 2747 
L 2328 2669 
Q 3034 2534 3370 2195 
Q 3706 1856 3706 1288 
Q 3706 609 3251 259 
Q 2797 -91 1919 -91 
Q 1588 -91 1214 -16 
Q 841 59 441 206 
L 441 856 
Q 825 641 1194 531 
Q 1563 422 1919 422 
Q 2459 422 2753 634 
Q 3047 847 3047 1241 
Q 3047 1584 2836 1778 
Q 2625 1972 2144 2069 
L 1759 2144 
Q 1053 2284 737 2584 
Q 422 2884 422 3419 
Q 422 4038 858 4394 
Q 1294 4750 2059 4750 
Q 2388 4750 2728 4690 
Q 3069 4631 3425 4513 
z
" transform="scale(0.015625)"/>
      <path id="DejaVuSans-46" d="M 628 4666 
L 3309 4666 
L 3309 4134 
L 1259 4134 
L 1259 2759 
L 3109 2759 
L 3109 2228 
L 1259 2228 
L 1259 0 
L 628 0 
L 628 4666 
z
" transform="scale(0.015625)"/>
      <path id="DejaVuSans-45" d="M 628 4666 
L 3578 4666 
L 3578 4134 
L 1259 4134 
L 1259 2753 
L 3481 2753 
L 3481 2222 
L 1259 2222 
L 1259 531 
L 3634 531 
L 3634 0 
L 628 0 
L 628 4666 
z
" transform="scale(0.015625)"/>
      <path id="DejaVuSans-76" d="M 191 3500 
L 800 3500 
L 1894 563 
L 2988 3500 
L 3597 3500 
L 2284 0 
L 1503 0 
L 191 3500 
z
" transform="scale(0.015625)"/>
      <path id="DejaVuSans-49" d="M 628 4666 
L 1259 4666 
L 1259 0 
L 628 0 
L 628 4666 
z
" transform="scale(0.015625)"/>
      <path id="DejaVuSans-50" d="M 1259 4147 
L 1259 2394 
L 2053 2394 
Q 2494 2394 2734 2622 
Q 2975 2850 2975 3272 
Q 2975 3691 2734 3919 
Q 2494 4147 2053 4147 
L 1259 4147 
z
M 628 4666 
L 2053 4666 
Q 2838 4666 3239 4311 
Q 3641 3956 3641 3272 
Q 3641 2581 3239 2228 
Q 2838 1875 2053 1875 
L 1259 1875 
L 1259 0 
L 628 0 
L 628 4666 
z
" transform="scale(0.015625)"/>
      <path id="DejaVuSans-2014" d="M 313 1978 
L 6088 1978 
L 6088 1528 
L 313 1528 
L 313 1978 
z
" transform="scale(0.015625)"/>
      <path id="DejaVuSans-43" d="M 4122 4306 
L 4122 3641 
Q 3803 3938 3442 4084 
Q 3081 4231 2675 4231 
Q 1875 4231 1450 3742 
Q 1025 3253 1025 2328 
Q 1025 1406 1450 917 
Q 1875 428 2675 428 
Q 3081 428 3442 575 
Q 3803 722 4122 1019 
L 4122 359 
Q 3791 134 3420 21 
Q 3050 -91 2638 -91 
Q 1578 -91 968 557 
Q 359 1206 359 2328 
Q 359 3453 968 4101 
Q 1578 4750 2638 4750 
Q 3056 4750 3426 4639 
Q 3797 4528 4122 4306 
z
" transform="scale(0.015625)"/>
      <path id="DejaVuSans-2d" d="M 313 2009 
L 1997 2009 
L 1997 1497 
L 313 1497 
L 313 2009 
z
" transform="scale(0.015625)"/>
      <path id="DejaVuSans-66" d="M 2375 4863 
L 2375 4384 
L 1825 4384 
Q 1516 4384 1395 4259 
Q 1275 4134 1275 3809 
L 1275 3500 
L 2222 3500 
L 2222 3053 
L 1275 3053 
L 1275 0 
L 697 0 
L 697 3053 
L 147 3053 
L 147 3500 
L 697 3500 
L 697 3744 
Q 697 4328 969 4595 
Q 1241 4863 1831 4863 
L 2375 4863 
z
" transform="scale(0.015625)"/>
      <path id="DejaVuSans-6c" d="M 603 4863 
L 1178 4863 
L 1178 0 
L 603 0 
L 603 4863 
z
" transform="scale(0.015625)"/>
      <path id="DejaVuSans-6f" d="M 1959 3097 
Q 1497 3097 1228 2736 
Q 959 2375 959 1747 
Q 959 1119 1226 758 
Q 1494 397 1959 397 
Q 2419 397 2687 759 
Q 2956 1122 2956 1747 
Q 2956 2369 2687 2733 
Q 2419 3097 1959 3097 
z
M 1959 3584 
Q 2709 3584 3137 3096 
Q 3566 2609 3566 1747 
Q 3566 888 3137 398 
Q 2709 -91 1959 -91 
Q 1206 -91 779 398 
Q 353 888 353 1747 
Q 353 2609 779 3096 
Q 1206 3584 1959 3584 
z
" transform="scale(0.015625)"/>
      <path id="DejaVuSans-77" d="M 269 3500 
L 844 3500 
L 1563 769 
L 2278 3500 
L 2956 3500 
L 3675 769 
L 4391 3500 
L 4966 3500 
L 4050 0 
L 3372 0 
L 2619 2869 
L 1863 0 
L 1184 0 
L 269 3500 
z
" transform="scale(0.015625)"/>
      <path id="DejaVuSans-61" d="M 2194 1759 
Q 1497 1759 1228 1600 
Q 959 1441 959 1056 
Q 959 750 1161 570 
Q 1363 391 1709 391 
Q 2188 391 2477 730 
Q 2766 1069 2766 1631 
L 2766 1759 
L 2194 1759 
z
M 3341 1997 
L 3341 0 
L 2766 0 
L 2766 531 
Q 2569 213 2275 61 
Q 1981 -91 1556 -91 
Q 1019 -91 701 211 
Q 384 513 384 1019 
Q 384 1609 779 1909 
Q 1175 2209 1959 2209 
L 2766 2209 
L 2766 2266 
Q 2766 2663 2505 2880 
Q 2244 3097 1772 3097 
Q 1472 3097 1187 3025 
Q 903 2953 641 2809 
L 641 3341 
Q 956 3463 1253 3523 
Q 1550 3584 1831 3584 
Q 2591 3584 2966 3190 
Q 3341 2797 3341 1997 
z
" transform="scale(0.015625)"/>
      <path id="DejaVuSans-6e" d="M 3513 2113 
L 3513 0 
L 2938 0 
L 2938 2094 
Q 2938 2591 2744 2837 
Q 2550 3084 2163 3084 
Q 1697 3084 1428 2787 
Q 1159 2491 1159 1978 
L 1159 0 
L 581 0 
L 581 3500 
L 1159 3500 
L 1159 2956 
Q 1366 3272 1645 3428 
Q 1925 3584 2291 3584 
Q 2894 3584 3203 3211 
Q 3513 2838 3513 2113 
z
" transform="scale(0.015625)"/>
      <path id="DejaVuSans-65" d="M 3597 1894 
L 3597 1613 
L 953 1613 
Q 991 1019 1311 708 
Q 1631 397 2203 397 
Q 2534 397 2845 478 
Q 3156 559 3463 722 
L 3463 178 
Q 3153 47 2828 -22 
Q 2503 -91 2169 -91 
Q 1331 -91 842 396 
Q 353 884 353 1716 
Q 353 2575 817 3079 
Q 1281 3584 2069 3584 
Q 2775 3584 3186 3129 
Q 3597 2675 3597 1894 
z
M 3022 2063 
Q 3016 2534 2758 2815 
Q 2500 3097 2075 3097 
Q 1594 3097 1305 2825 
Q 1016 2553 972 2059 
L 3022 2063 
z
" transform="scale(0.015625)"/>
      <path id="DejaVuSans-41" d="M 2188 4044 
L 1331 1722 
L 3047 1722 
L 2188 4044 
z
M 1831 4666 
L 2547 4666 
L 4325 0 
L 3669 0 
L 3244 1197 
L 1141 1197 
L 716 0 
L 50 0 
L 1831 4666 
z
" transform="scale(0.015625)"/>
      <path id="DejaVuSans-3a" d="M 750 794 
L 1409 794 
L 1409 0 
L 750 0 
L 750 794 
z
M 750 3309 
L 1409 3309 
L 1409 2516 
L 750 2516 
L 750 3309 
z
" transform="scale(0.015625)"/>
      <path id="DejaVuSans-72" d="M 2631 2963 
Q 2534 3019 2420 3045 
Q 2306 3072 2169 3072 
Q 1681 3072 1420 2755 
Q 1159 2438 1159 1844 
L 1159 0 
L 581 0 
L 581 3500 
L 1159 3500 
L 1159 2956 
Q 1341 3275 1631 3429 
Q 1922 3584 2338 3584 
Q 2397 3584 2469 3576 
Q 2541 3569 2628 3553 
L 2631 2963 
z
" transform="scale(0.015625)"/>
      <path id="DejaVuSans-79" d="M 2059 -325 
Q 1816 -950 1584 -1140 
Q 1353 -1331 966 -1331 
L 506 -1331 
L 506 -850 
L 844 -850 
Q 1081 -850 1212 -737 
Q 1344 -625 1503 -206 
L 1606 56 
L 191 3500 
L 800 3500 
L 1894 763 
L 2988 3500 
L 3597 3500 
L 2059 -325 
z
" transform="scale(0.015625)"/>
      <path id="DejaVuSans-2b" d="M 2944 4013 
L 2944 2272 
L 4684 2272 
L 4684 1741 
L 2944 1741 
L 2944 0 
L 2419 0 
L 2419 1741 
L 678 1741 
L 678 2272 
L 2419 2272 
L 2419 4013 
L 2944 4013 
z
" transform="scale(0.015625)"/>
      <path id="DejaVuSans-75" d="M 544 1381 
L 544 3500 
L 1119 3500 
L 1119 1403 
Q 1119 906 1312 657 
Q 1506 409 1894 409 
Q 2359 409 2629 706 
Q 2900 1003 2900 1516 
L 2900 3500 
L 3475 3500 
L 3475 0 
L 2900 0 
L 2900 538 
Q 2691 219 2414 64 
Q 2138 -91 1772 -91 
Q 1169 -91 856 284 
Q 544 659 544 1381 
z
M 1991 3584 
L 1991 3584 
z
" transform="scale(0.015625)"/>
      <path id="DejaVuSans-64" d="M 2906 2969 
L 2906 4863 
L 3481 4863 
L 3481 0 
L 2906 0 
L 2906 525 
Q 2725 213 2448 61 
Q 2172 -91 1784 -91 
Q 1150 -91 751 415 
Q 353 922 353 1747 
Q 353 2572 751 3078 
Q 1150 3584 1784 3584 
Q 2172 3584 2448 3432 
Q 2725 3281 2906 2969 
z
M 947 1747 
Q 947 1113 1208 752 
Q 1469 391 1925 391 
Q 2381 391 2643 752 
Q 2906 1113 2906 1747 
Q 2906 2381 2643 2742 
Q 2381 3103 1925 3103 
Q 1469 3103 1208 2742 
Q 947 2381 947 1747 
z
" transform="scale(0.015625)"/>
     </defs>
     <use xlink:href="#DejaVuSans-28"/>
     <use xlink:href="#DejaVuSans-53" transform="translate(39.013672 0)"/>
     <use xlink:href="#DejaVuSans-46" transform="translate(102.490234 0)"/>
     <use xlink:href="#DejaVuSans-45" transform="translate(160.009766 0)"/>
     <use xlink:href="#DejaVuSans-46" transform="translate(223.193359 0)"/>
     <use xlink:href="#DejaVuSans-20" transform="translate(280.712891 0)"/>
     <use xlink:href="#DejaVuSans-76" transform="translate(312.5 0)"/>
     <use xlink:href="#DejaVuSans-73" transform="translate(371.679688 0)"/>
     <use xlink:href="#DejaVuSans-20" transform="translate(423.779297 0)"/>
     <use xlink:href="#DejaVuSans-53" transform="translate(455.566406 0)"/>
     <use xlink:href="#DejaVuSans-4c" transform="translate(519.042969 0)"/>
     <use xlink:href="#DejaVuSans-49" transform="translate(574.755859 0)"/>
     <use xlink:href="#DejaVuSans-50" transform="translate(604.248047 0)"/>
     <use xlink:href="#DejaVuSans-29" transform="translate(664.550781 0)"/>
     <use xlink:href="#DejaVuSans-20" transform="translate(703.564453 0)"/>
     <use xlink:href="#DejaVuSans-2014" transform="translate(735.351562 0)"/>
     <use xlink:href="#DejaVuSans-20" transform="translate(835.351562 0)"/>
     <use xlink:href="#DejaVuSans-43" transform="translate(867.138672 0)"/>
     <use xlink:href="#DejaVuSans-2d" transform="translate(936.962891 0)"/>
     <use xlink:href="#DejaVuSans-66" transform="translate(973.046875 0)"/>
     <use xlink:href="#DejaVuSans-6c" transform="translate(1008.251953 0)"/>
     <use xlink:href="#DejaVuSans-6f" transform="translate(1036.035156 0)"/>
     <use xlink:href="#DejaVuSans-77" transform="translate(1097.216797 0)"/>
     <use xlink:href="#DejaVuSans-20" transform="translate(1179.003906 0)"/>
     <use xlink:href="#DejaVuSans-2014" transform="translate(1210.791016 0)"/>
     <use xlink:href="#DejaVuSans-20" transform="translate(1310.791016 0)"/>
     <use xlink:href="#DejaVuSans-50" transform="translate(1342.578125 0)"/>
     <use xlink:href="#DejaVuSans-61" transform="translate(1398.380859 0)"/>
     <use xlink:href="#DejaVuSans-6e" transform="translate(1459.660156 0)"/>
     <use xlink:href="#DejaVuSans-65" transform="translate(1523.039062 0)"/>
     <use xlink:href="#DejaVuSans-6c" transform="translate(1584.5625 0)"/>
     <use xlink:href="#DejaVuSans-20" transform="translate(1612.345703 0)"/>
     <use xlink:href="#DejaVuSans-41" transform="translate(1644.132812 0)"/>
     <use xlink:href="#DejaVuSans-3a" transform="translate(1710.791016 0)"/>
     <use xlink:href="#DejaVuSans-20" transform="translate(1744.482422 0)"/>
     <use xlink:href="#DejaVuSans-6f" transform="translate(1776.269531 0)"/>
     <use xlink:href="#DejaVuSans-76" transform="translate(1837.451172 0)"/>
     <use xlink:href="#DejaVuSans-65" transform="translate(1896.630859 0)"/>
     <use xlink:href="#DejaVuSans-72" transform="translate(1958.154297 0)"/>
     <use xlink:href="#DejaVuSans-6c" transform="translate(1999.267578 0)"/>
     <use xlink:href="#DejaVuSans-61" transform="translate(2027.050781 0)"/>
     <use xlink:href="#DejaVuSans-79" transform="translate(2088.330078 0)"/>
     <use xlink:href="#DejaVuSans-20" transform="translate(2147.509766 0)"/>
     <use xlink:href="#DejaVuSans-2b" transform="translate(2179.296875 0)"/>
     <use xlink:href="#DejaVuSans-20" transform="translate(2263.085938 0)"/>
     <use xlink:href="#DejaVuSans-6e" transform="translate(2294.873047 0)"/>
     <use xlink:href="#DejaVuSans-75" transform="translate(2358.251953 0)"/>
     <use xlink:href="#DejaVuSans-6c" transform="translate(2421.630859 0)"/>
     <use xlink:href="#DejaVuSans-6c" transform="translate(2449.414062 0)"/>
     <use xlink:href="#DejaVuSans-20" transform="translate(2477.197266 0)"/>
     <use xlink:href="#DejaVuSans-62" transform="translate(2508.984375 0)"/>
     <use xlink:href="#DejaVuSans-61" transform="translate(2572.460938 0)"/>
     <use xlink:href="#DejaVuSans-6e" transform="translate(2633.740234 0)"/>
     <use xlink:href="#DejaVuSans-64" transform="translate(2697.119141 0)"/>
     <use xlink:href="#DejaVuSans-73" transform="translate(2760.595703 0)"/>
    </g>
   </g>
   <g id="legend_1">
    <g id="patch_7">
     <path d="M 79.2 83.990437 
L 99.2 83.990437 
L 99.2 76.990437 
L 79.2 76.990437 
z
" style="fill: #1f77b4; fill-opacity: 0.15"/>
    </g>
    <g id="text_15">
     <!-- SFEF→SLIP null μ±σ -->
     <g transform="translate(107.2 83.990437) scale(0.1 -0.1)">
      <defs>
       <path id="DejaVuSans-2192" d="M 5050 2147 
L 5050 1866 
L 3822 638 
L 3447 1013 
L 4175 1741 
L 366 1741 
L 366 2272 
L 4175 2272 
L 3447 3000 
L 3822 3375 
L 5050 2147 
z
" transform="scale(0.015625)"/>
       <path id="DejaVuSans-3bc" d="M 544 -1331 
L 544 3500 
L 1119 3500 
L 1119 1325 
Q 1119 872 1334 640 
Q 1550 409 1972 409 
Q 2434 409 2667 671 
Q 2900 934 2900 1459 
L 2900 3500 
L 3475 3500 
L 3475 806 
Q 3475 619 3529 530 
Q 3584 441 3700 441 
Q 3728 441 3778 458 
Q 3828 475 3916 513 
L 3916 50 
Q 3788 -22 3673 -56 
Q 3559 -91 3450 -91 
Q 3234 -91 3106 31 
Q 2978 153 2931 403 
Q 2775 156 2548 32 
Q 2322 -91 2016 -91 
Q 1697 -91 1473 31 
Q 1250 153 1119 397 
L 1119 -1331 
L 544 -1331 
z
" transform="scale(0.015625)"/>
       <path id="DejaVuSans-b1" d="M 2944 4013 
L 2944 2803 
L 4684 2803 
L 4684 2272 
L 2944 2272 
L 2944 1063 
L 2419 1063 
L 2419 2272 
L 678 2272 
L 678 2803 
L 2419 2803 
L 2419 4013 
L 2944 4013 
z
M 678 531 
L 4684 531 
L 4684 0 
L 678 0 
L 678 531 
z
" transform="scale(0.015625)"/>
       <path id="DejaVuSans-3c3" d="M 1959 3044 
Q 1484 3044 1228 2700 
Q 959 2341 959 1747 
Q 959 1119 1226 758 
Q 1494 397 1959 397 
Q 2419 397 2687 759 
Q 2956 1122 2956 1747 
Q 2956 2319 2688 2700 
Q 2441 3044 1959 3044 
z
M 1959 3500 
L 3869 3500 
L 3869 2925 
L 3225 2925 
Q 3566 2438 3566 1747 
Q 3566 888 3138 400 
Q 2709 -91 1959 -91 
Q 1206 -91 781 400 
Q 353 888 353 1747 
Q 353 2613 781 3097 
Q 1134 3500 1959 3500 
z
" transform="scale(0.015625)"/>
      </defs>
      <use xlink:href="#DejaVuSans-53"/>
      <use xlink:href="#DejaVuSans-46" transform="translate(63.476562 0)"/>
      <use xlink:href="#DejaVuSans-45" transform="translate(120.996094 0)"/>
      <use xlink:href="#DejaVuSans-46" transform="translate(184.179688 0)"/>
      <use xlink:href="#DejaVuSans-2192" transform="translate(241.699219 0)"/>
      <use xlink:href="#DejaVuSans-53" transform="translate(325.488281 0)"/>
      <use xlink:href="#DejaVuSans-4c" transform="translate(388.964844 0)"/>
      <use xlink:href="#DejaVuSans-49" transform="translate(444.677734 0)"/>
      <use xlink:href="#DejaVuSans-50" transform="translate(474.169922 0)"/>
      <use xlink:href="#DejaVuSans-20" transform="translate(534.472656 0)"/>
      <use xlink:href="#DejaVuSans-6e" transform="translate(566.259766 0)"/>
      <use xlink:href="#DejaVuSans-75" transform="translate(629.638672 0)"/>
      <use xlink:href="#DejaVuSans-6c" transform="translate(693.017578 0)"/>
      <use xlink:href="#DejaVuSans-6c" transform="translate(720.800781 0)"/>
      <use xlink:href="#DejaVuSans-20" transform="translate(748.583984 0)"/>
      <use xlink:href="#DejaVuSans-3bc" transform="translate(780.371094 0)"/>
      <use xlink:href="#DejaVuSans-b1" transform="translate(843.994141 0)"/>
      <use xlink:href="#DejaVuSans-3c3" transform="translate(927.783203 0)"/>
     </g>
    </g>
    <g id="patch_8">
     <path d="M 79.2 98.668563 
L 99.2 98.668563 
L 99.2 91.668563 
L 79.2 91.668563 
z
" style="fill: #ff7f0e; fill-opacity: 0.15"/>
    </g>
    <g id="text_16">
     <!-- SLIP→SFEF null μ±σ -->
     <g transform="translate(107.2 98.668563) scale(0.1 -0.1)">
      <use xlink:href="#DejaVuSans-53"/>
      <use xlink:href="#DejaVuSans-4c" transform="translate(63.476562 0)"/>
      <use xlink:href="#DejaVuSans-49" transform="translate(119.189453 0)"/>
      <use xlink:href="#DejaVuSans-50" transform="translate(148.681641 0)"/>
      <use xlink:href="#DejaVuSans-2192" transform="translate(208.984375 0)"/>
      <use xlink:href="#DejaVuSans-53" transform="translate(292.773438 0)"/>
      <use xlink:href="#DejaVuSans-46" transform="translate(356.25 0)"/>
      <use xlink:href="#DejaVuSans-45" transform="translate(413.769531 0)"/>
      <use xlink:href="#DejaVuSans-46" transform="translate(476.953125 0)"/>
      <use xlink:href="#DejaVuSans-20" transform="translate(534.472656 0)"/>
      <use xlink:href="#DejaVuSans-6e" transform="translate(566.259766 0)"/>
      <use xlink:href="#DejaVuSans-75" transform="translate(629.638672 0)"/>
      <use xlink:href="#DejaVuSans-6c" transform="translate(693.017578 0)"/>
      <use xlink:href="#DejaVuSans-6c" transform="translate(720.800781 0)"/>
      <use xlink:href="#DejaVuSans-20" transform="translate(748.583984 0)"/>
      <use xlink:href="#DejaVuSans-3bc" transform="translate(780.371094 0)"/>
      <use xlink:href="#DejaVuSans-b1" transform="translate(843.994141 0)"/>
      <use xlink:href="#DejaVuSans-3c3" transform="translate(927.783203 0)"/>
     </g>
    </g>
    <g id="line2d_18">
     <path d="M 226.317187 80.490437 
L 236.317187 80.490437 
L 246.317187 80.490437 
" style="fill: none; stroke: #1f77b4; stroke-width: 2.2; stroke-linecap: square"/>
    </g>
    <g id="text_17">
     <!-- SFEF→SLIP -->
     <g transform="translate(254.317187 83.990437) scale(0.1 -0.1)">
      <use xlink:href="#DejaVuSans-53"/>
      <use xlink:href="#DejaVuSans-46" transform="translate(63.476562 0)"/>
      <use xlink:href="#DejaVuSans-45" transform="translate(120.996094 0)"/>
      <use xlink:href="#DejaVuSans-46" transform="translate(184.179688 0)"/>
      <use xlink:href="#DejaVuSans-2192" transform="translate(241.699219 0)"/>
      <use xlink:href="#DejaVuSans-53" transform="translate(325.488281 0)"/>
      <use xlink:href="#DejaVuSans-4c" transform="translate(388.964844 0)"/>
      <use xlink:href="#DejaVuSans-49" transform="translate(444.677734 0)"/>
      <use xlink:href="#DejaVuSans-50" transform="translate(474.169922 0)"/>
     </g>
    </g>
    <g id="line2d_19">
     <path d="M 226.317187 95.168563 
L 236.317187 95.168563 
L 246.317187 95.168563 
" style="fill: none; stroke: #ff7f0e; stroke-width: 2.2; stroke-linecap: square"/>
    </g>
    <g id="text_18">
     <!-- SLIP→SFEF -->
     <g transform="translate(254.317187 98.668563) scale(0.1 -0.1)">
      <use xlink:href="#DejaVuSans-53"/>
      <use xlink:href="#DejaVuSans-4c" transform="translate(63.476562 0)"/>
      <use xlink:href="#DejaVuSans-49" transform="translate(119.189453 0)"/>
      <use xlink:href="#DejaVuSans-50" transform="translate(148.681641 0)"/>
      <use xlink:href="#DejaVuSans-2192" transform="translate(208.984375 0)"/>
      <use xlink:href="#DejaVuSans-53" transform="translate(292.773438 0)"/>
      <use xlink:href="#DejaVuSans-46" transform="translate(356.25 0)"/>
      <use xlink:href="#DejaVuSans-45" transform="translate(413.769531 0)"/>
      <use xlink:href="#DejaVuSans-46" transform="translate(476.953125 0)"/>
     </g>
    </g>
   </g>
  </g>
  <g id="axes_2">
   <g id="patch_9">
    <path d="M 70.2 353.106 
L 505.44 353.106 
L 505.44 237.276 
L 70.2 237.276 
z
" style="fill: #ffffff"/>
   </g>
   <g id="matplotlib.axis_3">
    <g id="xtick_7">
     <g id="line2d_20">
      <g>
       <use xlink:href="#mdeaedb23dc" x="87.985286" y="353.106" style="stroke: #000000; stroke-width: 0.8"/>
      </g>
     </g>
     <g id="text_19">
      <!-- −200 -->
      <g transform="translate(74.251693 367.704438) scale(0.1 -0.1)">
       <use xlink:href="#DejaVuSans-2212"/>
       <use xlink:href="#DejaVuSans-32" transform="translate(83.789062 0)"/>
       <use xlink:href="#DejaVuSans-30" transform="translate(147.412109 0)"/>
       <use xlink:href="#DejaVuSans-30" transform="translate(211.035156 0)"/>
      </g>
     </g>
    </g>
    <g id="xtick_8">
     <g id="line2d_21">
      <g>
       <use xlink:href="#mdeaedb23dc" x="167.91917" y="353.106" style="stroke: #000000; stroke-width: 0.8"/>
      </g>
     </g>
     <g id="text_20">
      <!-- 0 -->
      <g transform="translate(164.73792 367.704438) scale(0.1 -0.1)">
       <use xlink:href="#DejaVuSans-30"/>
      </g>
     </g>
    </g>
    <g id="xtick_9">
     <g id="line2d_22">
      <g>
       <use xlink:href="#mdeaedb23dc" x="247.853053" y="353.106" style="stroke: #000000; stroke-width: 0.8"/>
      </g>
     </g>
     <g id="text_21">
      <!-- 200 -->
      <g transform="translate(238.309303 367.704438) scale(0.1 -0.1)">
       <use xlink:href="#DejaVuSans-32"/>
       <use xlink:href="#DejaVuSans-30" transform="translate(63.623047 0)"/>
       <use xlink:href="#DejaVuSans-30" transform="translate(127.246094 0)"/>
      </g>
     </g>
    </g>
    <g id="xtick_10">
     <g id="line2d_23">
      <g>
       <use xlink:href="#mdeaedb23dc" x="327.786937" y="353.106" style="stroke: #000000; stroke-width: 0.8"/>
      </g>
     </g>
     <g id="text_22">
      <!-- 400 -->
      <g transform="translate(318.243187 367.704438) scale(0.1 -0.1)">
       <use xlink:href="#DejaVuSans-34"/>
       <use xlink:href="#DejaVuSans-30" transform="translate(63.623047 0)"/>
       <use xlink:href="#DejaVuSans-30" transform="translate(127.246094 0)"/>
      </g>
     </g>
    </g>
    <g id="xtick_11">
     <g id="line2d_24">
      <g>
       <use xlink:href="#mdeaedb23dc" x="407.720821" y="353.106" style="stroke: #000000; stroke-width: 0.8"/>
      </g>
     </g>
     <g id="text_23">
      <!-- 600 -->
      <g transform="translate(398.177071 367.704438) scale(0.1 -0.1)">
       <use xlink:href="#DejaVuSans-36"/>
       <use xlink:href="#DejaVuSans-30" transform="translate(63.623047 0)"/>
       <use xlink:href="#DejaVuSans-30" transform="translate(127.246094 0)"/>
      </g>
     </g>
    </g>
    <g id="xtick_12">
     <g id="line2d_25">
      <g>
       <use xlink:href="#mdeaedb23dc" x="487.654704" y="353.106" style="stroke: #000000; stroke-width: 0.8"/>
      </g>
     </g>
     <g id="text_24">
      <!-- 800 -->
      <g transform="translate(478.110954 367.704438) scale(0.1 -0.1)">
       <use xlink:href="#DejaVuSans-38"/>
       <use xlink:href="#DejaVuSans-30" transform="translate(63.623047 0)"/>
       <use xlink:href="#DejaVuSans-30" transform="translate(127.246094 0)"/>
      </g>
     </g>
    </g>
   </g>
   <g id="matplotlib.axis_4">
    <g id="ytick_7">
     <g id="line2d_26">
      <g>
       <use xlink:href="#mb08bc62f35" x="70.2" y="345.464359" style="stroke: #000000; stroke-width: 0.8"/>
      </g>
     </g>
     <g id="text_25">
      <!-- −10 -->
      <g transform="translate(42.095313 349.263578) scale(0.1 -0.1)">
       <use xlink:href="#DejaVuSans-2212"/>
       <use xlink:href="#DejaVuSans-31" transform="translate(83.789062 0)"/>
       <use xlink:href="#DejaVuSans-30" transform="translate(147.412109 0)"/>
      </g>
     </g>
    </g>
    <g id="ytick_8">
     <g id="line2d_27">
      <g>
       <use xlink:href="#mb08bc62f35" x="70.2" y="321.615675" style="stroke: #000000; stroke-width: 0.8"/>
      </g>
     </g>
     <g id="text_26">
      <!-- −5 -->
      <g transform="translate(48.457813 325.414894) scale(0.1 -0.1)">
       <use xlink:href="#DejaVuSans-2212"/>
       <use xlink:href="#DejaVuSans-35" transform="translate(83.789062 0)"/>
      </g>
     </g>
    </g>
    <g id="ytick_9">
     <g id="line2d_28">
      <g>
       <use xlink:href="#mb08bc62f35" x="70.2" y="297.766991" style="stroke: #000000; stroke-width: 0.8"/>
      </g>
     </g>
     <g id="text_27">
      <!-- 0 -->
      <g transform="translate(56.8375 301.56621) scale(0.1 -0.1)">
       <use xlink:href="#DejaVuSans-30"/>
      </g>
     </g>
    </g>
    <g id="ytick_10">
     <g id="line2d_29">
      <g>
       <use xlink:href="#mb08bc62f35" x="70.2" y="273.918307" style="stroke: #000000; stroke-width: 0.8"/>
      </g>
     </g>
     <g id="text_28">
      <!-- 5 -->
      <g transform="translate(56.8375 277.717526) scale(0.1 -0.1)">
       <use xlink:href="#DejaVuSans-35"/>
      </g>
     </g>
    </g>
    <g id="ytick_11">
     <g id="line2d_30">
      <g>
       <use xlink:href="#mb08bc62f35" x="70.2" y="250.069623" style="stroke: #000000; stroke-width: 0.8"/>
      </g>
     </g>
     <g id="text_29">
      <!-- 10 -->
      <g transform="translate(50.475 253.868842) scale(0.1 -0.1)">
       <use xlink:href="#DejaVuSans-31"/>
       <use xlink:href="#DejaVuSans-30" transform="translate(63.623047 0)"/>
      </g>
     </g>
    </g>
    <g id="text_30">
     <!-- ΔΔLL (bits) -->
     <g transform="translate(36.015625 322.22225) rotate(-90) scale(0.1 -0.1)">
      <use xlink:href="#DejaVuSans-394"/>
      <use xlink:href="#DejaVuSans-394" transform="translate(68.408203 0)"/>
      <use xlink:href="#DejaVuSans-4c" transform="translate(136.816406 0)"/>
      <use xlink:href="#DejaVuSans-4c" transform="translate(192.529297 0)"/>
      <use xlink:href="#DejaVuSans-20" transform="translate(248.242188 0)"/>
      <use xlink:href="#DejaVuSans-28" transform="translate(280.029297 0)"/>
      <use xlink:href="#DejaVuSans-62" transform="translate(319.042969 0)"/>
      <use xlink:href="#DejaVuSans-69" transform="translate(382.519531 0)"/>
      <use xlink:href="#DejaVuSans-74" transform="translate(410.302734 0)"/>
      <use xlink:href="#DejaVuSans-73" transform="translate(449.511719 0)"/>
      <use xlink:href="#DejaVuSans-29" transform="translate(501.611328 0)"/>
     </g>
    </g>
   </g>
   <g id="line2d_31">
    <path d="M 167.91917 353.106 
L 167.91917 237.276 
" clip-path="url(#pee15f0d778)" style="fill: none; stroke-dasharray: 2.96,1.28; stroke-dashoffset: 0; stroke: #000000; stroke-width: 0.8"/>
   </g>
   <g id="line2d_32">
    <path d="M 70.2 297.766991 
L 505.44 297.766991 
" clip-path="url(#pee15f0d778)" style="fill: none; stroke-dasharray: 0.8,1.32; stroke-dashoffset: 0; stroke: #000000; stroke-width: 0.8"/>
   </g>
   <g id="line2d_33">
    <path d="M 89.983636 284.04077 
L 93.980327 293.24276 
L 97.977023 284.281819 
L 101.973713 293.762808 
L 105.97041 298.722082 
L 109.967106 274.029755 
L 113.963796 294.198497 
L 117.960493 295.256332 
L 121.957186 286.444904 
L 125.953882 287.040959 
L 129.950576 336.281033 
L 133.947269 292.06794 
L 137.943962 311.229606 
L 141.940659 271.437936 
L 145.937352 304.643903 
L 149.934045 279.21712 
L 153.93074 295.045915 
L 157.927434 301.796124 
L 161.924129 285.951427 
L 165.920823 286.521473 
L 169.917517 300.496003 
L 173.914211 314.43549 
L 177.910906 283.841863 
L 181.9076 299.884677 
L 185.904294 280.94704 
L 189.900988 302.659754 
L 193.897681 305.469601 
L 197.894377 289.000259 
L 201.891071 293.891086 
L 205.887764 270.663711 
L 209.884457 328.705573 
L 213.881154 321.398404 
L 217.877847 306.281948 
L 221.874543 295.701441 
L 225.871234 305.512182 
L 229.86793 287.047138 
L 233.864626 294.666164 
L 237.861317 296.033726 
L 241.858013 303.31057 
L 245.854704 314.077654 
L 249.8514 304.766648 
L 253.848096 329.92823 
L 257.844787 292.174332 
L 261.841483 296.660066 
L 265.838179 301.810775 
L 269.83487 332.439917 
L 273.83156 290.258397 
L 277.828262 306.755137 
L 281.824953 269.998918 
L 285.821643 287.989625 
L 289.818345 303.514841 
L 293.815036 281.086706 
L 297.811726 292.127149 
L 301.808428 297.231022 
L 305.805119 242.541 
L 309.801809 300.430154 
L 313.798511 297.686738 
L 317.795202 319.394763 
L 321.791892 306.134778 
L 325.788594 282.420569 
L 329.785285 314.699595 
L 333.781975 292.475131 
L 337.778677 320.821593 
L 341.775368 300.927294 
L 345.772058 308.204196 
L 349.76876 290.376134 
L 353.765451 255.8633 
L 357.762141 307.130164 
L 361.758843 287.876954 
L 365.755534 275.038267 
L 369.752224 291.718862 
L 373.748914 347.841 
L 377.745605 308.085288 
L 381.742319 300.700285 
L 385.739009 285.281139 
L 389.7357 307.453359 
L 393.73239 317.209561 
L 397.72908 293.897156 
L 401.725771 284.335029 
L 405.722485 277.85122 
L 409.719175 299.606447 
L 413.715866 289.204652 
L 417.712556 327.665041 
L 421.709246 307.428968 
L 425.705937 322.353904 
L 429.702627 300.162427 
L 433.699341 317.362566 
L 437.696032 313.593637 
L 441.692722 294.913396 
L 445.689412 283.816866 
L 449.686103 299.667386 
L 453.682793 285.40379 
L 457.679507 311.854974 
L 461.676198 342.713099 
L 465.672888 290.736966 
L 469.669578 265.398505 
L 473.666269 301.527529 
L 477.662959 297.560204 
L 481.659673 300.820087 
L 485.656364 285.899962 
" clip-path="url(#pee15f0d778)" style="fill: none; stroke: #d62728; stroke-width: 2.2; stroke-linecap: square"/>
   </g>
   <g id="line2d_34">
    <defs>
     <path id="mb7035244b5" d="M 0 1.25 
C 0.331504 1.25 0.649475 1.118292 0.883883 0.883883 
C 1.118292 0.649475 1.25 0.331504 1.25 0 
C 1.25 -0.331504 1.118292 -0.649475 0.883883 -0.883883 
C 0.649475 -1.118292 0.331504 -1.25 0 -1.25 
C -0.331504 -1.25 -0.649475 -1.118292 -0.883883 -0.883883 
C -1.118292 -0.649475 -1.25 -0.331504 -1.25 0 
C -1.25 0.331504 -1.118292 0.649475 -0.883883 0.883883 
C -0.649475 1.118292 -0.331504 1.25 0 1.25 
z
" style="stroke: #000000"/>
    </defs>
    <g clip-path="url(#pee15f0d778)">
     <use xlink:href="#mb7035244b5" x="129.950576" y="336.281033" style="stroke: #000000"/>
     <use xlink:href="#mb7035244b5" x="269.83487" y="332.439917" style="stroke: #000000"/>
     <use xlink:href="#mb7035244b5" x="305.805119" y="242.541" style="stroke: #000000"/>
     <use xlink:href="#mb7035244b5" x="353.765451" y="255.8633" style="stroke: #000000"/>
     <use xlink:href="#mb7035244b5" x="365.755534" y="275.038267" style="stroke: #000000"/>
     <use xlink:href="#mb7035244b5" x="373.748914" y="347.841" style="stroke: #000000"/>
     <use xlink:href="#mb7035244b5" x="417.712556" y="327.665041" style="stroke: #000000"/>
     <use xlink:href="#mb7035244b5" x="461.676198" y="342.713099" style="stroke: #000000"/>
     <use xlink:href="#mb7035244b5" x="469.669578" y="265.398505" style="stroke: #000000"/>
    </g>
   </g>
   <g id="patch_10">
    <path d="M 70.2 353.106 
L 70.2 237.276 
" style="fill: none; stroke: #000000; stroke-width: 0.8; stroke-linejoin: miter; stroke-linecap: square"/>
   </g>
   <g id="patch_11">
    <path d="M 505.44 353.106 
L 505.44 237.276 
" style="fill: none; stroke: #000000; stroke-width: 0.8; stroke-linejoin: miter; stroke-linecap: square"/>
   </g>
   <g id="patch_12">
    <path d="M 70.2 353.106 
L 505.44 353.106 
" style="fill: none; stroke: #000000; stroke-width: 0.8; stroke-linejoin: miter; stroke-linecap: square"/>
   </g>
   <g id="patch_13">
    <path d="M 70.2 237.276 
L 505.44 237.276 
" style="fill: none; stroke: #000000; stroke-width: 0.8; stroke-linejoin: miter; stroke-linecap: square"/>
   </g>
   <g id="text_31">
    <!-- Panel B: pair-diff with significance dots -->
    <g transform="translate(171.554063 231.276) scale(0.12 -0.12)">
     <defs>
      <path id="DejaVuSans-42" d="M 1259 2228 
L 1259 519 
L 2272 519 
Q 2781 519 3026 730 
Q 3272 941 3272 1375 
Q 3272 1813 3026 2020 
Q 2781 2228 2272 2228 
L 1259 2228 
z
M 1259 4147 
L 1259 2741 
L 2194 2741 
Q 2656 2741 2882 2914 
Q 3109 3088 3109 3444 
Q 3109 3797 2882 3972 
Q 2656 4147 2194 4147 
L 1259 4147 
z
M 628 4666 
L 2241 4666 
Q 2963 4666 3353 4366 
Q 3744 4066 3744 3513 
Q 3744 3084 3544 2831 
Q 3344 2578 2956 2516 
Q 3422 2416 3680 2098 
Q 3938 1781 3938 1306 
Q 3938 681 3513 340 
Q 3088 0 2303 0 
L 628 0 
L 628 4666 
z
" transform="scale(0.015625)"/>
      <path id="DejaVuSans-70" d="M 1159 525 
L 1159 -1331 
L 581 -1331 
L 581 3500 
L 1159 3500 
L 1159 2969 
Q 1341 3281 1617 3432 
Q 1894 3584 2278 3584 
Q 2916 3584 3314 3078 
Q 3713 2572 3713 1747 
Q 3713 922 3314 415 
Q 2916 -91 2278 -91 
Q 1894 -91 1617 61 
Q 1341 213 1159 525 
z
M 3116 1747 
Q 3116 2381 2855 2742 
Q 2594 3103 2138 3103 
Q 1681 3103 1420 2742 
Q 1159 2381 1159 1747 
Q 1159 1113 1420 752 
Q 1681 391 2138 391 
Q 2594 391 2855 752 
Q 3116 1113 3116 1747 
z
" transform="scale(0.015625)"/>
      <path id="DejaVuSans-68" d="M 3513 2113 
L 3513 0 
L 2938 0 
L 2938 2094 
Q 2938 2591 2744 2837 
Q 2550 3084 2163 3084 
Q 1697 3084 1428 2787 
Q 1159 2491 1159 1978 
L 1159 0 
L 581 0 
L 581 4863 
L 1159 4863 
L 1159 2956 
Q 1366 3272 1645 3428 
Q 1925 3584 2291 3584 
Q 2894 3584 3203 3211 
Q 3513 2838 3513 2113 
z
" transform="scale(0.015625)"/>
      <path id="DejaVuSans-67" d="M 2906 1791 
Q 2906 2416 2648 2759 
Q 2391 3103 1925 3103 
Q 1463 3103 1205 2759 
Q 947 2416 947 1791 
Q 947 1169 1205 825 
Q 1463 481 1925 481 
Q 2391 481 2648 825 
Q 2906 1169 2906 1791 
z
M 3481 434 
Q 3481 -459 3084 -895 
Q 2688 -1331 1869 -1331 
Q 1566 -1331 1297 -1286 
Q 1028 -1241 775 -1147 
L 775 -588 
Q 1028 -725 1275 -790 
Q 1522 -856 1778 -856 
Q 2344 -856 2625 -561 
Q 2906 -266 2906 331 
L 2906 616 
Q 2728 306 2450 153 
Q 2172 0 1784 0 
Q 1141 0 747 490 
Q 353 981 353 1791 
Q 353 2603 747 3093 
Q 1141 3584 1784 3584 
Q 2172 3584 2450 3431 
Q 2728 3278 2906 2969 
L 2906 3500 
L 3481 3500 
L 3481 434 
z
" transform="scale(0.015625)"/>
      <path id="DejaVuSans-63" d="M 3122 3366 
L 3122 2828 
Q 2878 2963 2633 3030 
Q 2388 3097 2138 3097 
Q 1578 3097 1268 2742 
Q 959 2388 959 1747 
Q 959 1106 1268 751 
Q 1578 397 2138 397 
Q 2388 397 2633 464 
Q 2878 531 3122 666 
L 3122 134 
Q 2881 22 2623 -34 
Q 2366 -91 2075 -91 
Q 1284 -91 818 406 
Q 353 903 353 1747 
Q 353 2603 823 3093 
Q 1294 3584 2113 3584 
Q 2378 3584 2631 3529 
Q 2884 3475 3122 3366 
z
" transform="scale(0.015625)"/>
     </defs>
     <use xlink:href="#DejaVuSans-50"/>
     <use xlink:href="#DejaVuSans-61" transform="translate(55.802734 0)"/>
     <use xlink:href="#DejaVuSans-6e" transform="translate(117.082031 0)"/>
     <use xlink:href="#DejaVuSans-65" transform="translate(180.460938 0)"/>
     <use xlink:href="#DejaVuSans-6c" transform="translate(241.984375 0)"/>
     <use xlink:href="#DejaVuSans-20" transform="translate(269.767578 0)"/>
     <use xlink:href="#DejaVuSans-42" transform="translate(301.554688 0)"/>
     <use xlink:href="#DejaVuSans-3a" transform="translate(370.158203 0)"/>
     <use xlink:href="#DejaVuSans-20" transform="translate(403.849609 0)"/>
     <use xlink:href="#DejaVuSans-70" transform="translate(435.636719 0)"/>
     <use xlink:href="#DejaVuSans-61" transform="translate(499.113281 0)"/>
     <use xlink:href="#DejaVuSans-69" transform="translate(560.392578 0)"/>
     <use xlink:href="#DejaVuSans-72" transform="translate(588.175781 0)"/>
     <use xlink:href="#DejaVuSans-2d" transform="translate(622.914062 0)"/>
     <use xlink:href="#DejaVuSans-64" transform="translate(658.998047 0)"/>
     <use xlink:href="#DejaVuSans-69" transform="translate(722.474609 0)"/>
     <use xlink:href="#DejaVuSans-66" transform="translate(750.257812 0)"/>
     <use xlink:href="#DejaVuSans-66" transform="translate(785.462891 0)"/>
     <use xlink:href="#DejaVuSans-20" transform="translate(820.667969 0)"/>
     <use xlink:href="#DejaVuSans-77" transform="translate(852.455078 0)"/>
     <use xlink:href="#DejaVuSans-69" transform="translate(934.242188 0)"/>
     <use xlink:href="#DejaVuSans-74" transform="translate(962.025391 0)"/>
     <use xlink:href="#DejaVuSans-68" transform="translate(1001.234375 0)"/>
     <use xlink:href="#DejaVuSans-20" transform="translate(1064.613281 0)"/>
     <use xlink:href="#DejaVuSans-73" transform="translate(1096.400391 0)"/>
     <use xlink:href="#DejaVuSans-69" transform="translate(1148.5 0)"/>
     <use xlink:href="#DejaVuSans-67" transform="translate(1176.283203 0)"/>
     <use xlink:href="#DejaVuSans-6e" transform="translate(1239.759766 0)"/>
     <use xlink:href="#DejaVuSans-69" transform="translate(1303.138672 0)"/>
     <use xlink:href="#DejaVuSans-66" transform="translate(1330.921875 0)"/>
     <use xlink:href="#DejaVuSans-69" transform="translate(1366.126953 0)"/>
     <use xlink:href="#DejaVuSans-63" transform="translate(1393.910156 0)"/>
     <use xlink:href="#DejaVuSans-61" transform="translate(1448.890625 0)"/>
     <use xlink:href="#DejaVuSans-6e" transform="translate(1510.169922 0)"/>
     <use xlink:href="#DejaVuSans-63" transform="translate(1573.548828 0)"/>
     <use xlink:href="#DejaVuSans-65" transform="translate(1628.529297 0)"/>
     <use xlink:href="#DejaVuSans-20" transform="translate(1690.052734 0)"/>
     <use xlink:href="#DejaVuSans-64" transform="translate(1721.839844 0)"/>
     <use xlink:href="#DejaVuSans-6f" transform="translate(1785.316406 0)"/>
     <use xlink:href="#DejaVuSans-74" transform="translate(1846.498047 0)"/>
     <use xlink:href="#DejaVuSans-73" transform="translate(1885.707031 0)"/>
    </g>
   </g>
   <g id="legend_2">
    <g id="line2d_35">
     <path d="M 79.2 250.374437 
L 89.2 250.374437 
L 99.2 250.374437 
" style="fill: none; stroke: #d62728; stroke-width: 2.2; stroke-linecap: square"/>
    </g>
    <g id="text_32">
     <!-- (A→B − B→A) -->
     <g transform="translate(107.2 253.874437) scale(0.1 -0.1)">
      <use xlink:href="#DejaVuSans-28"/>
      <use xlink:href="#DejaVuSans-41" transform="translate(39.013672 0)"/>
      <use xlink:href="#DejaVuSans-2192" transform="translate(107.421875 0)"/>
      <use xlink:href="#DejaVuSans-42" transform="translate(191.210938 0)"/>
      <use xlink:href="#DejaVuSans-20" transform="translate(259.814453 0)"/>
      <use xlink:href="#DejaVuSans-2212" transform="translate(291.601562 0)"/>
      <use xlink:href="#DejaVuSans-20" transform="translate(375.390625 0)"/>
      <use xlink:href="#DejaVuSans-42" transform="translate(407.177734 0)"/>
      <use xlink:href="#DejaVuSans-2192" transform="translate(475.78125 0)"/>
      <use xlink:href="#DejaVuSans-41" transform="translate(559.570312 0)"/>
      <use xlink:href="#DejaVuSans-29" transform="translate(627.978516 0)"/>
     </g>
    </g>
    <g id="line2d_36">
     <g>
      <use xlink:href="#mb7035244b5" x="89.2" y="265.052563" style="stroke: #000000"/>
     </g>
    </g>
    <g id="text_33">
     <!-- p&lt;0.05 (one-sided) -->
     <g transform="translate(107.2 268.552563) scale(0.1 -0.1)">
      <defs>
       <path id="DejaVuSans-3c" d="M 4684 3150 
L 1459 2003 
L 4684 863 
L 4684 294 
L 678 1747 
L 678 2266 
L 4684 3719 
L 4684 3150 
z
" transform="scale(0.015625)"/>
      </defs>
      <use xlink:href="#DejaVuSans-70"/>
      <use xlink:href="#DejaVuSans-3c" transform="translate(63.476562 0)"/>
      <use xlink:href="#DejaVuSans-30" transform="translate(147.265625 0)"/>
      <use xlink:href="#DejaVuSans-2e" transform="translate(210.888672 0)"/>
      <use xlink:href="#DejaVuSans-30" transform="translate(242.675781 0)"/>
      <use xlink:href="#DejaVuSans-35" transform="translate(306.298828 0)"/>
      <use xlink:href="#DejaVuSans-20" transform="translate(369.921875 0)"/>
      <use xlink:href="#DejaVuSans-28" transform="translate(401.708984 0)"/>
      <use xlink:href="#DejaVuSans-6f" transform="translate(440.722656 0)"/>
      <use xlink:href="#DejaVuSans-6e" transform="translate(501.904297 0)"/>
      <use xlink:href="#DejaVuSans-65" transform="translate(565.283203 0)"/>
      <use xlink:href="#DejaVuSans-2d" transform="translate(626.806641 0)"/>
      <use xlink:href="#DejaVuSans-73" transform="translate(662.890625 0)"/>
      <use xlink:href="#DejaVuSans-69" transform="translate(714.990234 0)"/>
      <use xlink:href="#DejaVuSans-64" transform="translate(742.773438 0)"/>
      <use xlink:href="#DejaVuSans-65" transform="translate(806.25 0)"/>
      <use xlink:href="#DejaVuSans-64" transform="translate(867.773438 0)"/>
      <use xlink:href="#DejaVuSans-29" transform="translate(931.25 0)"/>
     </g>
    </g>
   </g>
  </g>
  <g id="axes_3">
   <g id="patch_14">
    <path d="M 70.2 499.824 
L 505.44 499.824 
L 505.44 383.994 
L 70.2 383.994 
z
" style="fill: #ffffff"/>
   </g>
   <g id="matplotlib.axis_5">
    <g id="xtick_13">
     <g id="line2d_37">
      <g>
       <use xlink:href="#mdeaedb23dc" x="87.985286" y="499.824" style="stroke: #000000; stroke-width: 0.8"/>
      </g>
     </g>
     <g id="text_34">
      <!-- −200 -->
      <g transform="translate(74.251693 514.422438) scale(0.1 -0.1)">
       <use xlink:href="#DejaVuSans-2212"/>
       <use xlink:href="#DejaVuSans-32" transform="translate(83.789062 0)"/>
       <use xlink:href="#DejaVuSans-30" transform="translate(147.412109 0)"/>
       <use xlink:href="#DejaVuSans-30" transform="translate(211.035156 0)"/>
      </g>
     </g>
    </g>
    <g id="xtick_14">
     <g id="line2d_38">
      <g>
       <use xlink:href="#mdeaedb23dc" x="167.91917" y="499.824" style="stroke: #000000; stroke-width: 0.8"/>
      </g>
     </g>
     <g id="text_35">
      <!-- 0 -->
      <g transform="translate(164.73792 514.422438) scale(0.1 -0.1)">
       <use xlink:href="#DejaVuSans-30"/>
      </g>
     </g>
    </g>
    <g id="xtick_15">
     <g id="line2d_39">
      <g>
       <use xlink:href="#mdeaedb23dc" x="247.853053" y="499.824" style="stroke: #000000; stroke-width: 0.8"/>
      </g>
     </g>
     <g id="text_36">
      <!-- 200 -->
      <g transform="translate(238.309303 514.422438) scale(0.1 -0.1)">
       <use xlink:href="#DejaVuSans-32"/>
       <use xlink:href="#DejaVuSans-30" transform="translate(63.623047 0)"/>
       <use xlink:href="#DejaVuSans-30" transform="translate(127.246094 0)"/>
      </g>
     </g>
    </g>
    <g id="xtick_16">
     <g id="line2d_40">
      <g>
       <use xlink:href="#mdeaedb23dc" x="327.786937" y="499.824" style="stroke: #000000; stroke-width: 0.8"/>
      </g>
     </g>
     <g id="text_37">
      <!-- 400 -->
      <g transform="translate(318.243187 514.422438) scale(0.1 -0.1)">
       <use xlink:href="#DejaVuSans-34"/>
       <use xlink:href="#DejaVuSans-30" transform="translate(63.623047 0)"/>
       <use xlink:href="#DejaVuSans-30" transform="translate(127.246094 0)"/>
      </g>
     </g>
    </g>
    <g id="xtick_17">
     <g id="line2d_41">
      <g>
       <use xlink:href="#mdeaedb23dc" x="407.720821" y="499.824" style="stroke: #000000; stroke-width: 0.8"/>
      </g>
     </g>
     <g id="text_38">
      <!-- 600 -->
      <g transform="translate(398.177071 514.422438) scale(0.1 -0.1)">
       <use xlink:href="#DejaVuSans-36"/>
       <use xlink:href="#DejaVuSans-30" transform="translate(63.623047 0)"/>
       <use xlink:href="#DejaVuSans-30" transform="translate(127.246094 0)"/>
      </g>
     </g>
    </g>
    <g id="xtick_18">
     <g id="line2d_42">
      <g>
       <use xlink:href="#mdeaedb23dc" x="487.654704" y="499.824" style="stroke: #000000; stroke-width: 0.8"/>
      </g>
     </g>
     <g id="text_39">
      <!-- 800 -->
      <g transform="translate(478.110954 514.422438) scale(0.1 -0.1)">
       <use xlink:href="#DejaVuSans-38"/>
       <use xlink:href="#DejaVuSans-30" transform="translate(63.623047 0)"/>
       <use xlink:href="#DejaVuSans-30" transform="translate(127.246094 0)"/>
      </g>
     </g>
    </g>
    <g id="text_40">
     <!-- Time (ms) -->
     <g transform="translate(262.620781 528.100563) scale(0.1 -0.1)">
      <defs>
       <path id="DejaVuSans-54" d="M -19 4666 
L 3928 4666 
L 3928 4134 
L 2272 4134 
L 2272 0 
L 1638 0 
L 1638 4134 
L -19 4134 
L -19 4666 
z
" transform="scale(0.015625)"/>
       <path id="DejaVuSans-6d" d="M 3328 2828 
Q 3544 3216 3844 3400 
Q 4144 3584 4550 3584 
Q 5097 3584 5394 3201 
Q 5691 2819 5691 2113 
L 5691 0 
L 5113 0 
L 5113 2094 
Q 5113 2597 4934 2840 
Q 4756 3084 4391 3084 
Q 3944 3084 3684 2787 
Q 3425 2491 3425 1978 
L 3425 0 
L 2847 0 
L 2847 2094 
Q 2847 2600 2669 2842 
Q 2491 3084 2119 3084 
Q 1678 3084 1418 2786 
Q 1159 2488 1159 1978 
L 1159 0 
L 581 0 
L 581 3500 
L 1159 3500 
L 1159 2956 
Q 1356 3278 1631 3431 
Q 1906 3584 2284 3584 
Q 2666 3584 2933 3390 
Q 3200 3197 3328 2828 
z
" transform="scale(0.015625)"/>
      </defs>
      <use xlink:href="#DejaVuSans-54"/>
      <use xlink:href="#DejaVuSans-69" transform="translate(57.958984 0)"/>
      <use xlink:href="#DejaVuSans-6d" transform="translate(85.742188 0)"/>
      <use xlink:href="#DejaVuSans-65" transform="translate(183.154297 0)"/>
      <use xlink:href="#DejaVuSans-20" transform="translate(244.677734 0)"/>
      <use xlink:href="#DejaVuSans-28" transform="translate(276.464844 0)"/>
      <use xlink:href="#DejaVuSans-6d" transform="translate(315.478516 0)"/>
      <use xlink:href="#DejaVuSans-73" transform="translate(412.890625 0)"/>
      <use xlink:href="#DejaVuSans-29" transform="translate(464.990234 0)"/>
     </g>
    </g>
   </g>
   <g id="matplotlib.axis_6">
    <g id="ytick_12">
     <g id="line2d_43">
      <g>
       <use xlink:href="#mb08bc62f35" x="70.2" y="468.476372" style="stroke: #000000; stroke-width: 0.8"/>
      </g>
     </g>
     <g id="text_41">
      <!-- 0 -->
      <g transform="translate(56.8375 472.275591) scale(0.1 -0.1)">
       <use xlink:href="#DejaVuSans-30"/>
      </g>
     </g>
    </g>
    <g id="ytick_13">
     <g id="line2d_44">
      <g>
       <use xlink:href="#mb08bc62f35" x="70.2" y="430.323346" style="stroke: #000000; stroke-width: 0.8"/>
      </g>
     </g>
     <g id="text_42">
      <!-- 2 -->
      <g transform="translate(56.8375 434.122565) scale(0.1 -0.1)">
       <use xlink:href="#DejaVuSans-32"/>
      </g>
     </g>
    </g>
    <g id="ytick_14">
     <g id="line2d_45">
      <g>
       <use xlink:href="#mb08bc62f35" x="70.2" y="392.17032" style="stroke: #000000; stroke-width: 0.8"/>
      </g>
     </g>
     <g id="text_43">
      <!-- 4 -->
      <g transform="translate(56.8375 395.969539) scale(0.1 -0.1)">
       <use xlink:href="#DejaVuSans-34"/>
      </g>
     </g>
    </g>
    <g id="text_44">
     <!-- Z (σ from null) -->
     <g transform="translate(50.757812 477.919938) rotate(-90) scale(0.1 -0.1)">
      <defs>
       <path id="DejaVuSans-5a" d="M 359 4666 
L 4025 4666 
L 4025 4184 
L 1075 531 
L 4097 531 
L 4097 0 
L 288 0 
L 288 481 
L 3238 4134 
L 359 4134 
L 359 4666 
z
" transform="scale(0.015625)"/>
      </defs>
      <use xlink:href="#DejaVuSans-5a"/>
      <use xlink:href="#DejaVuSans-20" transform="translate(68.505859 0)"/>
      <use xlink:href="#DejaVuSans-28" transform="translate(100.292969 0)"/>
      <use xlink:href="#DejaVuSans-3c3" transform="translate(139.306641 0)"/>
      <use xlink:href="#DejaVuSans-20" transform="translate(202.685547 0)"/>
      <use xlink:href="#DejaVuSans-66" transform="translate(234.472656 0)"/>
      <use xlink:href="#DejaVuSans-72" transform="translate(269.677734 0)"/>
      <use xlink:href="#DejaVuSans-6f" transform="translate(308.541016 0)"/>
      <use xlink:href="#DejaVuSans-6d" transform="translate(369.722656 0)"/>
      <use xlink:href="#DejaVuSans-20" transform="translate(467.134766 0)"/>
      <use xlink:href="#DejaVuSans-6e" transform="translate(498.921875 0)"/>
      <use xlink:href="#DejaVuSans-75" transform="translate(562.300781 0)"/>
      <use xlink:href="#DejaVuSans-6c" transform="translate(625.679688 0)"/>
      <use xlink:href="#DejaVuSans-6c" transform="translate(653.462891 0)"/>
      <use xlink:href="#DejaVuSans-29" transform="translate(681.246094 0)"/>
     </g>
    </g>
   </g>
   <g id="line2d_46">
    <path d="M 167.91917 499.824 
L 167.91917 383.994 
" clip-path="url(#p358f443497)" style="fill: none; stroke-dasharray: 2.96,1.28; stroke-dashoffset: 0; stroke: #000000; stroke-width: 0.8"/>
   </g>
   <g id="line2d_47">
    <path d="M 89.983636 467.151106 
L 93.980327 486.097893 
L 97.977023 460.262545 
L 101.973713 469.539681 
L 105.97041 483.633034 
L 109.967106 453.236578 
L 113.963796 480.738423 
L 117.960493 465.079285 
L 121.957186 467.618135 
L 125.953882 470.010985 
L 129.950576 488.733446 
L 133.947269 475.375358 
L 137.943962 480.654572 
L 141.940659 439.586399 
L 145.937352 483.354894 
L 149.934045 441.449762 
L 153.93074 464.809913 
L 157.927434 479.010078 
L 161.924129 463.570755 
L 165.920823 452.164005 
L 169.917517 488.93811 
L 173.914211 493.886394 
L 177.910906 440.171766 
L 181.9076 474.246158 
L 185.904294 448.935853 
L 189.900988 492.661264 
L 193.897681 456.686512 
L 197.894377 441.532581 
L 201.891071 457.937334 
L 205.887764 434.117922 
L 209.884457 493.820472 
L 213.881154 483.208403 
L 217.877847 472.742317 
L 221.874543 479.668685 
L 225.871234 480.766162 
L 229.86793 463.799266 
L 233.864626 484.046824 
L 237.861317 454.213047 
L 241.858013 483.803011 
L 245.854704 488.59299 
L 249.8514 468.380927 
L 253.848096 485.26721 
L 257.844787 453.83637 
L 261.841483 471.559399 
L 265.838179 478.578175 
L 269.83487 491.718517 
L 273.83156 466.869183 
L 277.828262 478.853115 
L 281.824953 439.01932 
L 285.821643 452.716215 
L 289.818345 484.222162 
L 293.815036 439.100976 
L 297.811726 474.853626 
L 301.808428 470.874878 
L 305.805119 406.073234 
L 309.801809 472.649308 
L 313.798511 464.673944 
L 317.795202 491.921964 
L 321.791892 480.122104 
L 325.788594 456.988851 
L 329.785285 488.655035 
L 333.781975 472.683457 
L 337.778677 483.555305 
L 341.775368 471.060055 
L 345.772058 479.375157 
L 349.76876 465.73471 
L 353.765451 422.78192 
L 357.762141 455.12843 
L 361.758843 462.721799 
L 365.755534 429.890266 
L 369.752224 469.676367 
L 373.748914 488.001032 
L 377.745605 487.411545 
L 381.742319 467.226368 
L 385.739009 472.418737 
L 389.7357 482.427912 
L 393.73239 486.390733 
L 397.72908 467.792509 
L 401.725771 389.259 
L 405.722485 442.185257 
L 409.719175 469.101097 
L 413.715866 448.517498 
L 417.712556 465.005499 
L 421.709246 487.841283 
L 425.705937 477.165598 
L 429.702627 483.398752 
L 433.699341 470.287696 
L 437.696032 487.313459 
L 441.692722 448.249127 
L 445.689412 463.573683 
L 449.686103 444.26032 
L 453.682793 467.815682 
L 457.679507 493.527108 
L 461.676198 490.217828 
L 465.672888 475.483148 
L 469.669578 395.301792 
L 473.666269 478.104753 
L 477.662959 464.905777 
L 481.659673 474.970067 
L 485.656364 455.410032 
" clip-path="url(#p358f443497)" style="fill: none; stroke: #1f77b4; stroke-width: 2; stroke-linecap: square"/>
   </g>
   <g id="line2d_48">
    <path d="M 89.983636 490.679968 
L 93.980327 491.857342 
L 97.977023 484.699508 
L 101.973713 470.23443 
L 105.97041 483.934659 
L 109.967106 480.698964 
L 113.963796 487.279407 
L 117.960493 471.547074 
L 121.957186 486.369594 
L 125.953882 490.410331 
L 129.950576 424.242025 
L 133.947269 482.95826 
L 137.943962 460.901875 
L 141.940659 487.342279 
L 145.937352 470.21643 
L 149.934045 472.517491 
L 153.93074 471.310778 
L 157.927434 471.758438 
L 161.924129 484.197165 
L 165.920823 470.503504 
L 169.917517 482.388934 
L 173.914211 463.087734 
L 177.910906 465.688756 
L 181.9076 471.456349 
L 185.904294 477.7109 
L 189.900988 484.466462 
L 193.897681 450.816325 
L 197.894377 455.456767 
L 201.891071 468.132832 
L 205.887764 484.863372 
L 209.884457 442.438635 
L 213.881154 443.241508 
L 217.877847 461.765406 
L 221.874543 484.609923 
L 225.871234 468.096792 
L 229.86793 481.650921 
L 233.864626 486.275928 
L 237.861317 463.279745 
L 241.858013 478.024551 
L 245.854704 459.684064 
L 249.8514 451.863992 
L 253.848096 436.454498 
L 257.844787 465.631551 
L 261.841483 474.50427 
L 265.838179 471.642136 
L 269.83487 430.301666 
L 273.83156 481.249635 
L 277.828262 462.302522 
L 281.824953 488.89771 
L 285.821643 467.884001 
L 289.818345 473.392577 
L 293.815036 461.013651 
L 297.811726 485.442178 
L 301.808428 467.087093 
L 305.805119 494.151869 
L 309.801809 469.93576 
L 313.798511 461.195822 
L 317.795202 452.878556 
L 321.791892 462.195586 
L 325.788594 470.647479 
L 329.785285 461.383456 
L 333.781975 478.837422 
L 337.778677 443.634412 
L 341.775368 468.390397 
L 345.772058 462.423899 
L 349.76876 479.692253 
L 353.765451 492.495765 
L 357.762141 441.607156 
L 361.758843 480.882599 
L 365.755534 468.622554 
L 369.752224 472.737908 
L 373.748914 398.229178 
L 377.745605 468.450313 
L 381.742319 459.099006 
L 385.739009 494.559 
L 389.7357 466.971872 
L 393.73239 447.312467 
L 397.72908 471.906083 
L 401.725771 422.966223 
L 405.722485 472.683802 
L 409.719175 460.550728 
L 413.715866 466.196975 
L 417.712556 406.275689 
L 421.709246 474.648563 
L 425.705937 433.749678 
L 429.702627 479.918215 
L 433.699341 440.837323 
L 437.696032 463.895222 
L 441.692722 452.125547 
L 445.689412 484.560657 
L 449.686103 443.370835 
L 453.682793 488.719801 
L 457.679507 467.055018 
L 461.676198 408.373369 
L 465.672888 488.877641 
L 469.669578 438.852608 
L 473.666269 474.878161 
L 477.662959 461.849765 
L 481.659673 470.098058 
L 485.656364 474.846753 
" clip-path="url(#p358f443497)" style="fill: none; stroke: #ff7f0e; stroke-width: 2; stroke-linecap: square"/>
   </g>
   <g id="patch_15">
    <path d="M 70.2 499.824 
L 70.2 383.994 
" style="fill: none; stroke: #000000; stroke-width: 0.8; stroke-linejoin: miter; stroke-linecap: square"/>
   </g>
   <g id="patch_16">
    <path d="M 505.44 499.824 
L 505.44 383.994 
" style="fill: none; stroke: #000000; stroke-width: 0.8; stroke-linejoin: miter; stroke-linecap: square"/>
   </g>
   <g id="patch_17">
    <path d="M 70.2 499.824 
L 505.44 499.824 
" style="fill: none; stroke: #000000; stroke-width: 0.8; stroke-linejoin: miter; stroke-linecap: square"/>
   </g>
   <g id="patch_18">
    <path d="M 70.2 383.994 
L 505.44 383.994 
" style="fill: none; stroke: #000000; stroke-width: 0.8; stroke-linejoin: miter; stroke-linecap: square"/>
   </g>
   <g id="text_45">
    <!-- Panel C: evidence strength vs null -->
    <g transform="translate(185.80125 377.994) scale(0.12 -0.12)">
     <use xlink:href="#DejaVuSans-50"/>
     <use xlink:href="#DejaVuSans-61" transform="translate(55.802734 0)"/>
     <use xlink:href="#DejaVuSans-6e" transform="translate(117.082031 0)"/>
     <use xlink:href="#DejaVuSans-65" transform="translate(180.460938 0)"/>
     <use xlink:href="#DejaVuSans-6c" transform="translate(241.984375 0)"/>
     <use xlink:href="#DejaVuSans-20" transform="translate(269.767578 0)"/>
     <use xlink:href="#DejaVuSans-43" transform="translate(301.554688 0)"/>
     <use xlink:href="#DejaVuSans-3a" transform="translate(371.378906 0)"/>
     <use xlink:href="#DejaVuSans-20" transform="translate(405.070312 0)"/>
     <use xlink:href="#DejaVuSans-65" transform="translate(436.857422 0)"/>
     <use xlink:href="#DejaVuSans-76" transform="translate(498.380859 0)"/>
     <use xlink:href="#DejaVuSans-69" transform="translate(557.560547 0)"/>
     <use xlink:href="#DejaVuSans-64" transform="translate(585.34375 0)"/>
     <use xlink:href="#DejaVuSans-65" transform="translate(648.820312 0)"/>
     <use xlink:href="#DejaVuSans-6e" transform="translate(710.34375 0)"/>
     <use xlink:href="#DejaVuSans-63" transform="translate(773.722656 0)"/>
     <use xlink:href="#DejaVuSans-65" transform="translate(828.703125 0)"/>
     <use xlink:href="#DejaVuSans-20" transform="translate(890.226562 0)"/>
     <use xlink:href="#DejaVuSans-73" transform="translate(922.013672 0)"/>
     <use xlink:href="#DejaVuSans-74" transform="translate(974.113281 0)"/>
     <use xlink:href="#DejaVuSans-72" transform="translate(1013.322266 0)"/>
     <use xlink:href="#DejaVuSans-65" transform="translate(1052.185547 0)"/>
     <use xlink:href="#DejaVuSans-6e" transform="translate(1113.708984 0)"/>
     <use xlink:href="#DejaVuSans-67" transform="translate(1177.087891 0)"/>
     <use xlink:href="#DejaVuSans-74" transform="translate(1240.564453 0)"/>
     <use xlink:href="#DejaVuSans-68" transform="translate(1279.773438 0)"/>
     <use xlink:href="#DejaVuSans-20" transform="translate(1343.152344 0)"/>
     <use xlink:href="#DejaVuSans-76" transform="translate(1374.939453 0)"/>
     <use xlink:href="#DejaVuSans-73" transform="translate(1434.119141 0)"/>
     <use xlink:href="#DejaVuSans-20" transform="translate(1486.21875 0)"/>
     <use xlink:href="#DejaVuSans-6e" transform="translate(1518.005859 0)"/>
     <use xlink:href="#DejaVuSans-75" transform="translate(1581.384766 0)"/>
     <use xlink:href="#DejaVuSans-6c" transform="translate(1644.763672 0)"/>
     <use xlink:href="#DejaVuSans-6c" transform="translate(1672.546875 0)"/>
    </g>
   </g>
   <g id="legend_3">
    <g id="line2d_49">
     <path d="M 79.2 397.092438 
L 89.2 397.092438 
L 99.2 397.092438 
" style="fill: none; stroke: #1f77b4; stroke-width: 2; stroke-linecap: square"/>
    </g>
    <g id="text_46">
     <!-- z(SFEF→SLIP) -->
     <g transform="translate(107.2 400.592438) scale(0.1 -0.1)">
      <defs>
       <path id="DejaVuSans-7a" d="M 353 3500 
L 3084 3500 
L 3084 2975 
L 922 459 
L 3084 459 
L 3084 0 
L 275 0 
L 275 525 
L 2438 3041 
L 353 3041 
L 353 3500 
z
" transform="scale(0.015625)"/>
      </defs>
      <use xlink:href="#DejaVuSans-7a"/>
      <use xlink:href="#DejaVuSans-28" transform="translate(52.490234 0)"/>
      <use xlink:href="#DejaVuSans-53" transform="translate(91.503906 0)"/>
      <use xlink:href="#DejaVuSans-46" transform="translate(154.980469 0)"/>
      <use xlink:href="#DejaVuSans-45" transform="translate(212.5 0)"/>
      <use xlink:href="#DejaVuSans-46" transform="translate(275.683594 0)"/>
      <use xlink:href="#DejaVuSans-2192" transform="translate(333.203125 0)"/>
      <use xlink:href="#DejaVuSans-53" transform="translate(416.992188 0)"/>
      <use xlink:href="#DejaVuSans-4c" transform="translate(480.46875 0)"/>
      <use xlink:href="#DejaVuSans-49" transform="translate(536.181641 0)"/>
      <use xlink:href="#DejaVuSans-50" transform="translate(565.673828 0)"/>
      <use xlink:href="#DejaVuSans-29" transform="translate(625.976562 0)"/>
     </g>
    </g>
    <g id="line2d_50">
     <path d="M 79.2 411.770563 
L 89.2 411.770563 
L 99.2 411.770563 
" style="fill: none; stroke: #ff7f0e; stroke-width: 2; stroke-linecap: square"/>
    </g>
    <g id="text_47">
     <!-- z(SLIP→SFEF) -->
     <g transform="translate(107.2 415.270563) scale(0.1 -0.1)">
      <use xlink:href="#DejaVuSans-7a"/>
      <use xlink:href="#DejaVuSans-28" transform="translate(52.490234 0)"/>
      <use xlink:href="#DejaVuSans-53" transform="translate(91.503906 0)"/>
      <use xlink:href="#DejaVuSans-4c" transform="translate(154.980469 0)"/>
      <use xlink:href="#DejaVuSans-49" transform="translate(210.693359 0)"/>
      <use xlink:href="#DejaVuSans-50" transform="translate(240.185547 0)"/>
      <use xlink:href="#DejaVuSans-2192" transform="translate(300.488281 0)"/>
      <use xlink:href="#DejaVuSans-53" transform="translate(384.277344 0)"/>
      <use xlink:href="#DejaVuSans-46" transform="translate(447.753906 0)"/>
      <use xlink:href="#DejaVuSans-45" transform="translate(505.273438 0)"/>
      <use xlink:href="#DejaVuSans-46" transform="translate(568.457031 0)"/>
      <use xlink:href="#DejaVuSans-29" transform="translate(625.976562 0)"/>
     </g>
    </g>
   </g>
  </g>
 </g>
 <defs>
  <clipPath id="p2f856987c5">
   <rect x="70.2" y="67.392" width="435.24" height="138.996"/>
  </clipPath>
  <clipPath id="pee15f0d778">
   <rect x="70.2" y="237.276" width="435.24" height="115.83"/>
  </clipPath>
  <clipPath id="p358f443497">
   <rect x="70.2" y="383.994" width="435.24" height="115.83"/>
  </clipPath>
 </defs>
</svg>
