<?xml version="1.0" encoding="utf-8" standalone="no"?>
<!DOCTYPE svg PUBLIC "-//W3C//DTD SVG 1.1//EN"
  "http://www.w3.org/Graphics/SVG/1.1/DTD/svg11.dtd">
<svg xmlns:xlink="http://www.w3.org/1999/xlink" width="828pt" height="453.6pt" viewBox="0 0 828 453.6" xmlns="http://www.w3.org/2000/svg" version="1.1">
 <metadata>
  <rdf:RDF xmlns:dc="http://purl.org/dc/elements/1.1/" xmlns:cc="http://creativecommons.org/ns#" xmlns:rdf="http://www.w3.org/1999/02/22-rdf-syntax-ns#">
   <cc:Work>
    <dc:type rdf:resource="http://purl.org/dc/dcmitype/StillImage"/>
    <dc:date>2026-01-28T18:02:25.342536</dc:date>
    <dc:format>image/svg+xml</dc:format>
    <dc:creator>
     <cc:Agent>
      <dc:title>Matplotlib v3.9.4, https://matplotlib.org/</dc:title>
     </cc:Agent>
    </dc:creator>
   </cc:Work>
  </rdf:RDF>
 </metadata>
 <defs>
  <style type="text/css">*{stroke-linejoin: round; stroke-linecap: butt}</style>
 </defs>
 <g id="figure_1">
  <g id="patch_1">
   <path d="M 0 453.6 
L 828 453.6 
L 828 0 
L 0 0 
z
" style="fill: #ffffff"/>
  </g>
  <g id="axes_1">
   <g id="patch_2">
    <path d="M 72 396 
L 792 396 
L 792 36 
L 72 36 
z
" style="fill: #ffffff"/>
   </g>
   <g id="PolyCollection_1">
    <path d="M 23.999999 318.888224 
L 23.999999 348.276901 
L 35.999997 349.870702 
L 47.999999 365.935954 
L 60.000001 338.777127 
L 72.000003 265.187121 
L 84 329.953826 
L 95.999998 336.581491 
L 108 343.283305 
L 120.000002 280.807396 
L 131.999999 319.088304 
L 143.999999 330.784296 
L 156 331.437685 
L 168 286.535662 
L 180 359.501733 
L 192 337.804229 
L 204 314.435771 
L 216 325.126609 
L 228 310.714125 
L 240.000001 331.768029 
L 252.000001 335.396836 
L 263.999998 291.13769 
L 276 348.032846 
L 288.000002 292.538772 
L 300 326.964576 
L 311.999997 314.722061 
L 323.999999 312.398892 
L 336.000001 339.817578 
L 348.000003 297.079967 
L 360.000001 337.364323 
L 371.999998 322.965489 
L 384.000005 379.636364 
L 396.000002 315.120702 
L 408 339.08722 
L 419.999997 353.250421 
L 431.999995 329.779594 
L 444.000001 274.112466 
L 455.999999 328.343187 
L 467.999996 322.017281 
L 480.000003 273.1191 
L 492 321.115224 
L 503.999989 297.960586 
L 515.999995 294.935765 
L 528.000001 301.826121 
L 539.99999 288.831752 
L 551.999996 242.224457 
L 564.000003 259.251303 
L 575.999991 199.558076 
L 587.999998 266.227514 
L 600.000004 221.03762 
L 611.999993 217.3952 
L 623.999999 255.594742 
L 636.000006 229.184308 
L 647.999994 299.50468 
L 660.000001 266.496136 
L 672.000007 230.418485 
L 683.999996 269.651712 
L 696.000002 284.417978 
L 708.000009 253.300687 
L 719.999997 306.70512 
L 732.000004 305.285847 
L 744.00001 329.355694 
L 755.999999 223.078016 
L 768.000005 334.141247 
L 780.000011 309.663533 
L 792 315.004144 
L 803.999989 329.283952 
L 815.999977 311.059098 
L 828.000001 284.311697 
L 840.000026 333.207074 
L 852.000014 308.754543 
L 864.000003 334.942215 
L 875.999991 317.893515 
L 887.99998 308.998768 
L 900.000004 313.694843 
L 912.000029 316.570163 
L 924.000017 318.198943 
L 936.000006 315.973849 
L 947.999994 358.950673 
L 959.999983 316.409658 
L 971.999971 333.78099 
L 983.999996 361.845967 
L 996.00002 323.539796 
L 1008.000009 315.197297 
L 1019.999997 335.004202 
L 1031.999986 355.003097 
L 1043.999974 306.961339 
L 1055.999999 308.102698 
L 1068.000023 340.514622 
L 1080.000011 334.601101 
L 1092 329.616318 
L 1103.999989 310.376162 
L 1115.999977 325.873631 
L 1128.000001 303.651907 
L 1140.000026 325.654754 
L 1140.000026 270.328086 
L 1140.000026 270.328086 
L 1128.000001 238.385592 
L 1115.999977 291.896776 
L 1103.999989 265.855228 
L 1092 289.768847 
L 1080.000011 282.381894 
L 1068.000023 283.151263 
L 1055.999999 253.673264 
L 1043.999974 210.881237 
L 1031.999986 298.21101 
L 1019.999997 278.29041 
L 1008.000009 248.238375 
L 996.00002 265.557211 
L 983.999996 304.261825 
L 971.999971 276.94946 
L 959.999983 288.782665 
L 947.999994 268.99122 
L 936.000006 247.789925 
L 924.000017 275.970112 
L 912.000029 238.922876 
L 900.000004 237.758026 
L 887.99998 233.217164 
L 875.999991 257.932303 
L 864.000003 256.554901 
L 852.000014 231.866883 
L 840.000026 264.187037 
L 828.000001 234.238545 
L 815.999977 249.261073 
L 803.999989 194.665637 
L 792 264.895148 
L 780.000011 248.462228 
L 768.000005 271.203688 
L 755.999999 166.958376 
L 744.00001 286.923393 
L 732.000004 238.017335 
L 719.999997 240.95232 
L 708.000009 178.949472 
L 696.000002 78.059904 
L 683.999996 176.609729 
L 672.000007 52.363636 
L 660.000001 149.716499 
L 647.999994 274.784642 
L 636.000006 131.946725 
L 623.999999 144.064016 
L 611.999993 127.923814 
L 600.000004 70.2383 
L 587.999998 93.815345 
L 575.999991 94.646869 
L 564.000003 128.454879 
L 551.999996 115.163921 
L 539.99999 138.621864 
L 528.000001 237.703328 
L 515.999995 214.686618 
L 503.999989 251.359657 
L 492 251.171742 
L 480.000003 194.679243 
L 467.999996 238.418241 
L 455.999999 252.237308 
L 444.000001 249.988419 
L 431.999995 265.691474 
L 419.999997 312.383737 
L 408 263.824995 
L 396.000002 270.337325 
L 384.000005 334.323765 
L 371.999998 252.904041 
L 360.000001 243.545794 
L 348.000003 231.433282 
L 336.000001 281.835949 
L 323.999999 226.777028 
L 311.999997 223.111636 
L 300 265.282412 
L 288.000002 231.8223 
L 276 260.829765 
L 263.999998 220.709485 
L 252.000001 292.854938 
L 240.000001 275.179008 
L 228 220.53799 
L 216 290.645434 
L 204 254.19234 
L 192 283.843728 
L 180 313.540735 
L 168 227.261841 
L 156 277.207676 
L 143.999999 270.992671 
L 131.999999 269.014444 
L 120.000002 189.755062 
L 108 296.947789 
L 95.999998 276.844847 
L 84 284.71296 
L 72.000003 220.554593 
L 60.000001 297.159283 
L 47.999999 346.300565 
L 35.999997 302.411204 
L 23.999999 318.888224 
z
" clip-path="url(#p2bda6ef645)" style="fill: #7b4fa3; fill-opacity: 0.25"/>
   </g>
   <g id="PolyCollection_2">
    <path d="M 23.999999 290.426947 
L 23.999999 338.3972 
L 35.999997 312.801549 
L 47.999999 332.256282 
L 60.000001 356.921616 
L 72.000003 354.423239 
L 84 309.03309 
L 95.999998 306.475685 
L 108 341.885247 
L 120.000002 294.465419 
L 131.999999 312.865132 
L 143.999999 305.389589 
L 156 344.631489 
L 168 367.054516 
L 180 313.829095 
L 192 317.378243 
L 204 355.642728 
L 216 325.515451 
L 228 301.963591 
L 240.000001 343.146836 
L 252.000001 299.953119 
L 263.999998 344.402791 
L 276 338.201001 
L 288.000002 309.380951 
L 300 315.303952 
L 311.999997 349.483341 
L 323.999999 248.871406 
L 336.000001 335.939629 
L 348.000003 333.231171 
L 360.000001 340.269077 
L 371.999998 323.68721 
L 384.000005 368.024162 
L 396.000002 373.201418 
L 408 337.611277 
L 419.999997 305.958088 
L 431.999995 360.357923 
L 444.000001 289.94064 
L 455.999999 298.001912 
L 467.999996 344.106151 
L 480.000003 285.699217 
L 492 222.93101 
L 503.999989 303.571914 
L 515.999995 292.61216 
L 528.000001 330.647382 
L 539.99999 335.724452 
L 551.999996 323.7349 
L 564.000003 322.258016 
L 575.999991 314.177334 
L 587.999998 312.538829 
L 600.000004 300.817449 
L 611.999993 316.584871 
L 623.999999 308.651086 
L 636.000006 340.295762 
L 647.999994 363.421386 
L 660.000001 262.762191 
L 672.000007 350.591146 
L 683.999996 287.316765 
L 696.000002 285.254593 
L 708.000009 315.018952 
L 719.999997 271.342226 
L 732.000004 299.481234 
L 744.00001 327.133771 
L 755.999999 309.11708 
L 768.000005 281.589415 
L 780.000011 290.647235 
L 792 305.163495 
L 803.999989 309.499074 
L 815.999977 299.812437 
L 828.000001 357.88481 
L 840.000026 346.921754 
L 852.000014 307.291035 
L 864.000003 296.283816 
L 875.999991 257.320647 
L 887.99998 326.678994 
L 900.000004 334.951754 
L 912.000029 332.744557 
L 924.000017 333.866147 
L 936.000006 309.927772 
L 947.999994 287.179721 
L 959.999983 317.338233 
L 971.999971 309.759215 
L 983.999996 293.985862 
L 996.00002 336.412841 
L 1008.000009 366.590893 
L 1019.999997 311.950612 
L 1031.999986 325.317791 
L 1043.999974 296.12361 
L 1055.999999 286.782031 
L 1068.000023 313.149908 
L 1080.000011 270.441549 
L 1092 320.728701 
L 1103.999989 335.318026 
L 1115.999977 298.714169 
L 1128.000001 354.595849 
L 1140.000026 313.991363 
L 1140.000026 260.152287 
L 1140.000026 260.152287 
L 1128.000001 282.723236 
L 1115.999977 246.486563 
L 1103.999989 257.140436 
L 1092 248.045596 
L 1080.000011 227.920786 
L 1068.000023 240.744698 
L 1055.999999 207.813421 
L 1043.999974 230.105627 
L 1031.999986 261.676753 
L 1019.999997 266.09484 
L 1008.000009 304.547013 
L 996.00002 254.662741 
L 983.999996 229.440766 
L 971.999971 233.323169 
L 959.999983 255.507252 
L 947.999994 198.127627 
L 936.000006 260.601106 
L 924.000017 281.442175 
L 912.000029 281.955028 
L 900.000004 252.332514 
L 887.99998 269.399992 
L 875.999991 177.292682 
L 864.000003 230.209717 
L 852.000014 276.09345 
L 840.000026 301.945397 
L 828.000001 315.440334 
L 815.999977 198.912081 
L 803.999989 256.285421 
L 792 244.654328 
L 780.000011 229.460794 
L 768.000005 241.000047 
L 755.999999 233.831218 
L 744.00001 241.448491 
L 732.000004 251.568882 
L 719.999997 184.30194 
L 708.000009 253.425328 
L 696.000002 203.374234 
L 683.999996 219.327694 
L 672.000007 267.186932 
L 660.000001 186.780506 
L 647.999994 320.494089 
L 636.000006 270.313638 
L 623.999999 259.691568 
L 611.999993 271.936335 
L 600.000004 237.639468 
L 587.999998 256.144007 
L 575.999991 250.919685 
L 564.000003 259.777303 
L 551.999996 272.426462 
L 539.99999 257.528863 
L 528.000001 282.368166 
L 515.999995 233.828173 
L 503.999989 199.363763 
L 492 185.832803 
L 480.000003 199.125225 
L 467.999996 278.89148 
L 455.999999 249.64362 
L 444.000001 242.52363 
L 431.999995 327.294258 
L 419.999997 217.105956 
L 408 303.376374 
L 396.000002 323.294433 
L 384.000005 316.027181 
L 371.999998 275.752806 
L 360.000001 275.581505 
L 348.000003 235.423743 
L 336.000001 303.493628 
L 323.999999 197.305446 
L 311.999997 300.945366 
L 300 290.687143 
L 288.000002 261.50286 
L 276 293.067225 
L 263.999998 304.74031 
L 252.000001 226.754834 
L 240.000001 290.696403 
L 228 239.561375 
L 216 260.268543 
L 204 313.055619 
L 192 270.662566 
L 180 249.447611 
L 168 319.916158 
L 156 297.476033 
L 143.999999 240.151953 
L 131.999999 276.263044 
L 120.000002 208.426297 
L 108 240.913643 
L 95.999998 239.546851 
L 84 253.256078 
L 72.000003 295.223329 
L 60.000001 279.9272 
L 47.999999 275.520425 
L 35.999997 245.077458 
L 23.999999 290.426947 
z
" clip-path="url(#p2bda6ef645)" style="fill: #c00a37; fill-opacity: 0.25"/>
   </g>
   <g id="matplotlib.axis_1">
    <g id="xtick_1">
     <g id="line2d_1">
      <defs>
       <path id="mc155fee04c" d="M 0 0 
L 0 3.5 
" style="stroke: #000000; stroke-width: 0.8"/>
      </defs>
      <g>
       <use xlink:href="#mc155fee04c" x="72" y="396" style="stroke: #000000; stroke-width: 0.8"/>
      </g>
     </g>
     <g id="text_1">
      <!-- −100 -->
      <g transform="translate(50.02625 415.1575) scale(0.16 -0.16)">
       <defs>
        <path id="DejaVuSans-2212" d="M 678 2272 
L 4684 2272 
L 4684 1741 
L 678 1741 
L 678 2272 
z
" transform="scale(0.015625)"/>
        <path id="DejaVuSans-31" d="M 794 531 
L 1825 531 
L 1825 4091 
L 703 3866 
L 703 4441 
L 1819 4666 
L 2450 4666 
L 2450 531 
L 3481 531 
L 3481 0 
L 794 0 
L 794 531 
z
" transform="scale(0.015625)"/>
        <path id="DejaVuSans-30" d="M 2034 4250 
Q 1547 4250 1301 3770 
Q 1056 3291 1056 2328 
Q 1056 1369 1301 889 
Q 1547 409 2034 409 
Q 2525 409 2770 889 
Q 3016 1369 3016 2328 
Q 3016 3291 2770 3770 
Q 2525 4250 2034 4250 
z
M 2034 4750 
Q 2819 4750 3233 4129 
Q 3647 3509 3647 2328 
Q 3647 1150 3233 529 
Q 2819 -91 2034 -91 
Q 1250 -91 836 529 
Q 422 1150 422 2328 
Q 422 3509 836 4129 
Q 1250 4750 2034 4750 
z
" transform="scale(0.015625)"/>
       </defs>
       <use xlink:href="#DejaVuSans-2212"/>
       <use xlink:href="#DejaVuSans-31" x="83.789062"/>
       <use xlink:href="#DejaVuSans-30" x="147.412109"/>
       <use xlink:href="#DejaVuSans-30" x="211.035156"/>
      </g>
     </g>
    </g>
    <g id="xtick_2">
     <g id="line2d_2">
      <g>
       <use xlink:href="#mc155fee04c" x="192" y="396" style="stroke: #000000; stroke-width: 0.8"/>
      </g>
     </g>
     <g id="text_2">
      <!-- 0 -->
      <g transform="translate(186.91 415.1575) scale(0.16 -0.16)">
       <use xlink:href="#DejaVuSans-30"/>
      </g>
     </g>
    </g>
    <g id="xtick_3">
     <g id="line2d_3">
      <g>
       <use xlink:href="#mc155fee04c" x="312" y="396" style="stroke: #000000; stroke-width: 0.8"/>
      </g>
     </g>
     <g id="text_3">
      <!-- 100 -->
      <g transform="translate(296.73 415.1575) scale(0.16 -0.16)">
       <use xlink:href="#DejaVuSans-31"/>
       <use xlink:href="#DejaVuSans-30" x="63.623047"/>
       <use xlink:href="#DejaVuSans-30" x="127.246094"/>
      </g>
     </g>
    </g>
    <g id="xtick_4">
     <g id="line2d_4">
      <g>
       <use xlink:href="#mc155fee04c" x="432" y="396" style="stroke: #000000; stroke-width: 0.8"/>
      </g>
     </g>
     <g id="text_4">
      <!-- 200 -->
      <g transform="translate(416.73 415.1575) scale(0.16 -0.16)">
       <defs>
        <path id="DejaVuSans-32" d="M 1228 531 
L 3431 531 
L 3431 0 
L 469 0 
L 469 531 
Q 828 903 1448 1529 
Q 2069 2156 2228 2338 
Q 2531 2678 2651 2914 
Q 2772 3150 2772 3378 
Q 2772 3750 2511 3984 
Q 2250 4219 1831 4219 
Q 1534 4219 1204 4116 
Q 875 4013 500 3803 
L 500 4441 
Q 881 4594 1212 4672 
Q 1544 4750 1819 4750 
Q 2544 4750 2975 4387 
Q 3406 4025 3406 3419 
Q 3406 3131 3298 2873 
Q 3191 2616 2906 2266 
Q 2828 2175 2409 1742 
Q 1991 1309 1228 531 
z
" transform="scale(0.015625)"/>
       </defs>
       <use xlink:href="#DejaVuSans-32"/>
       <use xlink:href="#DejaVuSans-30" x="63.623047"/>
       <use xlink:href="#DejaVuSans-30" x="127.246094"/>
      </g>
     </g>
    </g>
    <g id="xtick_5">
     <g id="line2d_5">
      <g>
       <use xlink:href="#mc155fee04c" x="552" y="396" style="stroke: #000000; stroke-width: 0.8"/>
      </g>
     </g>
     <g id="text_5">
      <!-- 300 -->
      <g transform="translate(536.73 415.1575) scale(0.16 -0.16)">
       <defs>
        <path id="DejaVuSans-33" d="M 2597 2516 
Q 3050 2419 3304 2112 
Q 3559 1806 3559 1356 
Q 3559 666 3084 287 
Q 2609 -91 1734 -91 
Q 1441 -91 1130 -33 
Q 819 25 488 141 
L 488 750 
Q 750 597 1062 519 
Q 1375 441 1716 441 
Q 2309 441 2620 675 
Q 2931 909 2931 1356 
Q 2931 1769 2642 2001 
Q 2353 2234 1838 2234 
L 1294 2234 
L 1294 2753 
L 1863 2753 
Q 2328 2753 2575 2939 
Q 2822 3125 2822 3475 
Q 2822 3834 2567 4026 
Q 2313 4219 1838 4219 
Q 1578 4219 1281 4162 
Q 984 4106 628 3988 
L 628 4550 
Q 988 4650 1302 4700 
Q 1616 4750 1894 4750 
Q 2613 4750 3031 4423 
Q 3450 4097 3450 3541 
Q 3450 3153 3228 2886 
Q 3006 2619 2597 2516 
z
" transform="scale(0.015625)"/>
       </defs>
       <use xlink:href="#DejaVuSans-33"/>
       <use xlink:href="#DejaVuSans-30" x="63.623047"/>
       <use xlink:href="#DejaVuSans-30" x="127.246094"/>
      </g>
     </g>
    </g>
    <g id="xtick_6">
     <g id="line2d_6">
      <g>
       <use xlink:href="#mc155fee04c" x="672" y="396" style="stroke: #000000; stroke-width: 0.8"/>
      </g>
     </g>
     <g id="text_6">
      <!-- 400 -->
      <g transform="translate(656.73 415.1575) scale(0.16 -0.16)">
       <defs>
        <path id="DejaVuSans-34" d="M 2419 4116 
L 825 1625 
L 2419 1625 
L 2419 4116 
z
M 2253 4666 
L 3047 4666 
L 3047 1625 
L 3713 1625 
L 3713 1100 
L 3047 1100 
L 3047 0 
L 2419 0 
L 2419 1100 
L 313 1100 
L 313 1709 
L 2253 4666 
z
" transform="scale(0.015625)"/>
       </defs>
       <use xlink:href="#DejaVuSans-34"/>
       <use xlink:href="#DejaVuSans-30" x="63.623047"/>
       <use xlink:href="#DejaVuSans-30" x="127.246094"/>
      </g>
     </g>
    </g>
    <g id="xtick_7">
     <g id="line2d_7">
      <g>
       <use xlink:href="#mc155fee04c" x="792" y="396" style="stroke: #000000; stroke-width: 0.8"/>
      </g>
     </g>
     <g id="text_7">
      <!-- 500 -->
      <g transform="translate(776.73 415.1575) scale(0.16 -0.16)">
       <defs>
        <path id="DejaVuSans-35" d="M 691 4666 
L 3169 4666 
L 3169 4134 
L 1269 4134 
L 1269 2991 
Q 1406 3038 1543 3061 
Q 1681 3084 1819 3084 
Q 2600 3084 3056 2656 
Q 3513 2228 3513 1497 
Q 3513 744 3044 326 
Q 2575 -91 1722 -91 
Q 1428 -91 1123 -41 
Q 819 9 494 109 
L 494 744 
Q 775 591 1075 516 
Q 1375 441 1709 441 
Q 2250 441 2565 725 
Q 2881 1009 2881 1497 
Q 2881 1984 2565 2268 
Q 2250 2553 1709 2553 
Q 1456 2553 1204 2497 
Q 953 2441 691 2322 
L 691 4666 
z
" transform="scale(0.015625)"/>
       </defs>
       <use xlink:href="#DejaVuSans-35"/>
       <use xlink:href="#DejaVuSans-30" x="63.623047"/>
       <use xlink:href="#DejaVuSans-30" x="127.246094"/>
      </g>
     </g>
    </g>
    <g id="text_8">
     <!-- Time from Stimulus Onset (ms) -->
     <g transform="translate(291.473438 436.162187) scale(0.18 -0.18)">
      <defs>
       <path id="DejaVuSans-54" d="M -19 4666 
L 3928 4666 
L 3928 4134 
L 2272 4134 
L 2272 0 
L 1638 0 
L 1638 4134 
L -19 4134 
L -19 4666 
z
" transform="scale(0.015625)"/>
       <path id="DejaVuSans-69" d="M 603 3500 
L 1178 3500 
L 1178 0 
L 603 0 
L 603 3500 
z
M 603 4863 
L 1178 4863 
L 1178 4134 
L 603 4134 
L 603 4863 
z
" transform="scale(0.015625)"/>
       <path id="DejaVuSans-6d" d="M 3328 2828 
Q 3544 3216 3844 3400 
Q 4144 3584 4550 3584 
Q 5097 3584 5394 3201 
Q 5691 2819 5691 2113 
L 5691 0 
L 5113 0 
L 5113 2094 
Q 5113 2597 4934 2840 
Q 4756 3084 4391 3084 
Q 3944 3084 3684 2787 
Q 3425 2491 3425 1978 
L 3425 0 
L 2847 0 
L 2847 2094 
Q 2847 2600 2669 2842 
Q 2491 3084 2119 3084 
Q 1678 3084 1418 2786 
Q 1159 2488 1159 1978 
L 1159 0 
L 581 0 
L 581 3500 
L 1159 3500 
L 1159 2956 
Q 1356 3278 1631 3431 
Q 1906 3584 2284 3584 
Q 2666 3584 2933 3390 
Q 3200 3197 3328 2828 
z
" transform="scale(0.015625)"/>
       <path id="DejaVuSans-65" d="M 3597 1894 
L 3597 1613 
L 953 1613 
Q 991 1019 1311 708 
Q 1631 397 2203 397 
Q 2534 397 2845 478 
Q 3156 559 3463 722 
L 3463 178 
Q 3153 47 2828 -22 
Q 2503 -91 2169 -91 
Q 1331 -91 842 396 
Q 353 884 353 1716 
Q 353 2575 817 3079 
Q 1281 3584 2069 3584 
Q 2775 3584 3186 3129 
Q 3597 2675 3597 1894 
z
M 3022 2063 
Q 3016 2534 2758 2815 
Q 2500 3097 2075 3097 
Q 1594 3097 1305 2825 
Q 1016 2553 972 2059 
L 3022 2063 
z
" transform="scale(0.015625)"/>
       <path id="DejaVuSans-20" transform="scale(0.015625)"/>
       <path id="DejaVuSans-66" d="M 2375 4863 
L 2375 4384 
L 1825 4384 
Q 1516 4384 1395 4259 
Q 1275 4134 1275 3809 
L 1275 3500 
L 2222 3500 
L 2222 3053 
L 1275 3053 
L 1275 0 
L 697 0 
L 697 3053 
L 147 3053 
L 147 3500 
L 697 3500 
L 697 3744 
Q 697 4328 969 4595 
Q 1241 4863 1831 4863 
L 2375 4863 
z
" transform="scale(0.015625)"/>
       <path id="DejaVuSans-72" d="M 2631 2963 
Q 2534 3019 2420 3045 
Q 2306 3072 2169 3072 
Q 1681 3072 1420 2755 
Q 1159 2438 1159 1844 
L 1159 0 
L 581 0 
L 581 3500 
L 1159 3500 
L 1159 2956 
Q 1341 3275 1631 3429 
Q 1922 3584 2338 3584 
Q 2397 3584 2469 3576 
Q 2541 3569 2628 3553 
L 2631 2963 
z
" transform="scale(0.015625)"/>
       <path id="DejaVuSans-6f" d="M 1959 3097 
Q 1497 3097 1228 2736 
Q 959 2375 959 1747 
Q 959 1119 1226 758 
Q 1494 397 1959 397 
Q 2419 397 2687 759 
Q 2956 1122 2956 1747 
Q 2956 2369 2687 2733 
Q 2419 3097 1959 3097 
z
M 1959 3584 
Q 2709 3584 3137 3096 
Q 3566 2609 3566 1747 
Q 3566 888 3137 398 
Q 2709 -91 1959 -91 
Q 1206 -91 779 398 
Q 353 888 353 1747 
Q 353 2609 779 3096 
Q 1206 3584 1959 3584 
z
" transform="scale(0.015625)"/>
       <path id="DejaVuSans-53" d="M 3425 4513 
L 3425 3897 
Q 3066 4069 2747 4153 
Q 2428 4238 2131 4238 
Q 1616 4238 1336 4038 
Q 1056 3838 1056 3469 
Q 1056 3159 1242 3001 
Q 1428 2844 1947 2747 
L 2328 2669 
Q 3034 2534 3370 2195 
Q 3706 1856 3706 1288 
Q 3706 609 3251 259 
Q 2797 -91 1919 -91 
Q 1588 -91 1214 -16 
Q 841 59 441 206 
L 441 856 
Q 825 641 1194 531 
Q 1563 422 1919 422 
Q 2459 422 2753 634 
Q 3047 847 3047 1241 
Q 3047 1584 2836 1778 
Q 2625 1972 2144 2069 
L 1759 2144 
Q 1053 2284 737 2584 
Q 422 2884 422 3419 
Q 422 4038 858 4394 
Q 1294 4750 2059 4750 
Q 2388 4750 2728 4690 
Q 3069 4631 3425 4513 
z
" transform="scale(0.015625)"/>
       <path id="DejaVuSans-74" d="M 1172 4494 
L 1172 3500 
L 2356 3500 
L 2356 3053 
L 1172 3053 
L 1172 1153 
Q 1172 725 1289 603 
Q 1406 481 1766 481 
L 2356 481 
L 2356 0 
L 1766 0 
Q 1100 0 847 248 
Q 594 497 594 1153 
L 594 3053 
L 172 3053 
L 172 3500 
L 594 3500 
L 594 4494 
L 1172 4494 
z
" transform="scale(0.015625)"/>
       <path id="DejaVuSans-75" d="M 544 1381 
L 544 3500 
L 1119 3500 
L 1119 1403 
Q 1119 906 1312 657 
Q 1506 409 1894 409 
Q 2359 409 2629 706 
Q 2900 1003 2900 1516 
L 2900 3500 
L 3475 3500 
L 3475 0 
L 2900 0 
L 2900 538 
Q 2691 219 2414 64 
Q 2138 -91 1772 -91 
Q 1169 -91 856 284 
Q 544 659 544 1381 
z
M 1991 3584 
L 1991 3584 
z
" transform="scale(0.015625)"/>
       <path id="DejaVuSans-6c" d="M 603 4863 
L 1178 4863 
L 1178 0 
L 603 0 
L 603 4863 
z
" transform="scale(0.015625)"/>
       <path id="DejaVuSans-73" d="M 2834 3397 
L 2834 2853 
Q 2591 2978 2328 3040 
Q 2066 3103 1784 3103 
Q 1356 3103 1142 2972 
Q 928 2841 928 2578 
Q 928 2378 1081 2264 
Q 1234 2150 1697 2047 
L 1894 2003 
Q 2506 1872 2764 1633 
Q 3022 1394 3022 966 
Q 3022 478 2636 193 
Q 2250 -91 1575 -91 
Q 1294 -91 989 -36 
Q 684 19 347 128 
L 347 722 
Q 666 556 975 473 
Q 1284 391 1588 391 
Q 1994 391 2212 530 
Q 2431 669 2431 922 
Q 2431 1156 2273 1281 
Q 2116 1406 1581 1522 
L 1381 1569 
Q 847 1681 609 1914 
Q 372 2147 372 2553 
Q 372 3047 722 3315 
Q 1072 3584 1716 3584 
Q 2034 3584 2315 3537 
Q 2597 3491 2834 3397 
z
" transform="scale(0.015625)"/>
       <path id="DejaVuSans-4f" d="M 2522 4238 
Q 1834 4238 1429 3725 
Q 1025 3213 1025 2328 
Q 1025 1447 1429 934 
Q 1834 422 2522 422 
Q 3209 422 3611 934 
Q 4013 1447 4013 2328 
Q 4013 3213 3611 3725 
Q 3209 4238 2522 4238 
z
M 2522 4750 
Q 3503 4750 4090 4092 
Q 4678 3434 4678 2328 
Q 4678 1225 4090 567 
Q 3503 -91 2522 -91 
Q 1538 -91 948 565 
Q 359 1222 359 2328 
Q 359 3434 948 4092 
Q 1538 4750 2522 4750 
z
" transform="scale(0.015625)"/>
       <path id="DejaVuSans-6e" d="M 3513 2113 
L 3513 0 
L 2938 0 
L 2938 2094 
Q 2938 2591 2744 2837 
Q 2550 3084 2163 3084 
Q 1697 3084 1428 2787 
Q 1159 2491 1159 1978 
L 1159 0 
L 581 0 
L 581 3500 
L 1159 3500 
L 1159 2956 
Q 1366 3272 1645 3428 
Q 1925 3584 2291 3584 
Q 2894 3584 3203 3211 
Q 3513 2838 3513 2113 
z
" transform="scale(0.015625)"/>
       <path id="DejaVuSans-28" d="M 1984 4856 
Q 1566 4138 1362 3434 
Q 1159 2731 1159 2009 
Q 1159 1288 1364 580 
Q 1569 -128 1984 -844 
L 1484 -844 
Q 1016 -109 783 600 
Q 550 1309 550 2009 
Q 550 2706 781 3412 
Q 1013 4119 1484 4856 
L 1984 4856 
z
" transform="scale(0.015625)"/>
       <path id="DejaVuSans-29" d="M 513 4856 
L 1013 4856 
Q 1481 4119 1714 3412 
Q 1947 2706 1947 2009 
Q 1947 1309 1714 600 
Q 1481 -109 1013 -844 
L 513 -844 
Q 928 -128 1133 580 
Q 1338 1288 1338 2009 
Q 1338 2731 1133 3434 
Q 928 4138 513 4856 
z
" transform="scale(0.015625)"/>
      </defs>
      <use xlink:href="#DejaVuSans-54"/>
      <use xlink:href="#DejaVuSans-69" x="57.958984"/>
      <use xlink:href="#DejaVuSans-6d" x="85.742188"/>
      <use xlink:href="#DejaVuSans-65" x="183.154297"/>
      <use xlink:href="#DejaVuSans-20" x="244.677734"/>
      <use xlink:href="#DejaVuSans-66" x="276.464844"/>
      <use xlink:href="#DejaVuSans-72" x="311.669922"/>
      <use xlink:href="#DejaVuSans-6f" x="350.533203"/>
      <use xlink:href="#DejaVuSans-6d" x="411.714844"/>
      <use xlink:href="#DejaVuSans-20" x="509.126953"/>
      <use xlink:href="#DejaVuSans-53" x="540.914062"/>
      <use xlink:href="#DejaVuSans-74" x="604.390625"/>
      <use xlink:href="#DejaVuSans-69" x="643.599609"/>
      <use xlink:href="#DejaVuSans-6d" x="671.382812"/>
      <use xlink:href="#DejaVuSans-75" x="768.794922"/>
      <use xlink:href="#DejaVuSans-6c" x="832.173828"/>
      <use xlink:href="#DejaVuSans-75" x="859.957031"/>
      <use xlink:href="#DejaVuSans-73" x="923.335938"/>
      <use xlink:href="#DejaVuSans-20" x="975.435547"/>
      <use xlink:href="#DejaVuSans-4f" x="1007.222656"/>
      <use xlink:href="#DejaVuSans-6e" x="1085.933594"/>
      <use xlink:href="#DejaVuSans-73" x="1149.3125"/>
      <use xlink:href="#DejaVuSans-65" x="1201.412109"/>
      <use xlink:href="#DejaVuSans-74" x="1262.935547"/>
      <use xlink:href="#DejaVuSans-20" x="1302.144531"/>
      <use xlink:href="#DejaVuSans-28" x="1333.931641"/>
      <use xlink:href="#DejaVuSans-6d" x="1372.945312"/>
      <use xlink:href="#DejaVuSans-73" x="1470.357422"/>
      <use xlink:href="#DejaVuSans-29" x="1522.457031"/>
     </g>
    </g>
   </g>
   <g id="matplotlib.axis_2">
    <g id="ytick_1">
     <g id="line2d_8">
      <defs>
       <path id="mea5ada95b9" d="M 0 0 
L -3.5 0 
" style="stroke: #000000; stroke-width: 0.8"/>
      </defs>
      <g>
       <use xlink:href="#mea5ada95b9" x="72" y="383.942928" style="stroke: #000000; stroke-width: 0.8"/>
      </g>
     </g>
     <g id="text_9">
      <!-- 4 -->
      <g transform="translate(54.82 390.021678) scale(0.16 -0.16)">
       <use xlink:href="#DejaVuSans-34"/>
      </g>
     </g>
    </g>
    <g id="ytick_2">
     <g id="line2d_9">
      <g>
       <use xlink:href="#mea5ada95b9" x="72" y="341.510725" style="stroke: #000000; stroke-width: 0.8"/>
      </g>
     </g>
     <g id="text_10">
      <!-- 6 -->
      <g transform="translate(54.82 347.589475) scale(0.16 -0.16)">
       <defs>
        <path id="DejaVuSans-36" d="M 2113 2584 
Q 1688 2584 1439 2293 
Q 1191 2003 1191 1497 
Q 1191 994 1439 701 
Q 1688 409 2113 409 
Q 2538 409 2786 701 
Q 3034 994 3034 1497 
Q 3034 2003 2786 2293 
Q 2538 2584 2113 2584 
z
M 3366 4563 
L 3366 3988 
Q 3128 4100 2886 4159 
Q 2644 4219 2406 4219 
Q 1781 4219 1451 3797 
Q 1122 3375 1075 2522 
Q 1259 2794 1537 2939 
Q 1816 3084 2150 3084 
Q 2853 3084 3261 2657 
Q 3669 2231 3669 1497 
Q 3669 778 3244 343 
Q 2819 -91 2113 -91 
Q 1303 -91 875 529 
Q 447 1150 447 2328 
Q 447 3434 972 4092 
Q 1497 4750 2381 4750 
Q 2619 4750 2861 4703 
Q 3103 4656 3366 4563 
z
" transform="scale(0.015625)"/>
       </defs>
       <use xlink:href="#DejaVuSans-36"/>
      </g>
     </g>
    </g>
    <g id="ytick_3">
     <g id="line2d_10">
      <g>
       <use xlink:href="#mea5ada95b9" x="72" y="299.078523" style="stroke: #000000; stroke-width: 0.8"/>
      </g>
     </g>
     <g id="text_11">
      <!-- 8 -->
      <g transform="translate(54.82 305.157273) scale(0.16 -0.16)">
       <defs>
        <path id="DejaVuSans-38" d="M 2034 2216 
Q 1584 2216 1326 1975 
Q 1069 1734 1069 1313 
Q 1069 891 1326 650 
Q 1584 409 2034 409 
Q 2484 409 2743 651 
Q 3003 894 3003 1313 
Q 3003 1734 2745 1975 
Q 2488 2216 2034 2216 
z
M 1403 2484 
Q 997 2584 770 2862 
Q 544 3141 544 3541 
Q 544 4100 942 4425 
Q 1341 4750 2034 4750 
Q 2731 4750 3128 4425 
Q 3525 4100 3525 3541 
Q 3525 3141 3298 2862 
Q 3072 2584 2669 2484 
Q 3125 2378 3379 2068 
Q 3634 1759 3634 1313 
Q 3634 634 3220 271 
Q 2806 -91 2034 -91 
Q 1263 -91 848 271 
Q 434 634 434 1313 
Q 434 1759 690 2068 
Q 947 2378 1403 2484 
z
M 1172 3481 
Q 1172 3119 1398 2916 
Q 1625 2713 2034 2713 
Q 2441 2713 2670 2916 
Q 2900 3119 2900 3481 
Q 2900 3844 2670 4047 
Q 2441 4250 2034 4250 
Q 1625 4250 1398 4047 
Q 1172 3844 1172 3481 
z
" transform="scale(0.015625)"/>
       </defs>
       <use xlink:href="#DejaVuSans-38"/>
      </g>
     </g>
    </g>
    <g id="ytick_4">
     <g id="line2d_11">
      <g>
       <use xlink:href="#mea5ada95b9" x="72" y="256.64632" style="stroke: #000000; stroke-width: 0.8"/>
      </g>
     </g>
     <g id="text_12">
      <!-- 10 -->
      <g transform="translate(44.64 262.72507) scale(0.16 -0.16)">
       <use xlink:href="#DejaVuSans-31"/>
       <use xlink:href="#DejaVuSans-30" x="63.623047"/>
      </g>
     </g>
    </g>
    <g id="ytick_5">
     <g id="line2d_12">
      <g>
       <use xlink:href="#mea5ada95b9" x="72" y="214.214117" style="stroke: #000000; stroke-width: 0.8"/>
      </g>
     </g>
     <g id="text_13">
      <!-- 12 -->
      <g transform="translate(44.64 220.292867) scale(0.16 -0.16)">
       <use xlink:href="#DejaVuSans-31"/>
       <use xlink:href="#DejaVuSans-32" x="63.623047"/>
      </g>
     </g>
    </g>
    <g id="ytick_6">
     <g id="line2d_13">
      <g>
       <use xlink:href="#mea5ada95b9" x="72" y="171.781914" style="stroke: #000000; stroke-width: 0.8"/>
      </g>
     </g>
     <g id="text_14">
      <!-- 14 -->
      <g transform="translate(44.64 177.860664) scale(0.16 -0.16)">
       <use xlink:href="#DejaVuSans-31"/>
       <use xlink:href="#DejaVuSans-34" x="63.623047"/>
      </g>
     </g>
    </g>
    <g id="ytick_7">
     <g id="line2d_14">
      <g>
       <use xlink:href="#mea5ada95b9" x="72" y="129.349711" style="stroke: #000000; stroke-width: 0.8"/>
      </g>
     </g>
     <g id="text_15">
      <!-- 16 -->
      <g transform="translate(44.64 135.428461) scale(0.16 -0.16)">
       <use xlink:href="#DejaVuSans-31"/>
       <use xlink:href="#DejaVuSans-36" x="63.623047"/>
      </g>
     </g>
    </g>
    <g id="ytick_8">
     <g id="line2d_15">
      <g>
       <use xlink:href="#mea5ada95b9" x="72" y="86.917508" style="stroke: #000000; stroke-width: 0.8"/>
      </g>
     </g>
     <g id="text_16">
      <!-- 18 -->
      <g transform="translate(44.64 92.996258) scale(0.16 -0.16)">
       <use xlink:href="#DejaVuSans-31"/>
       <use xlink:href="#DejaVuSans-38" x="63.623047"/>
      </g>
     </g>
    </g>
    <g id="ytick_9">
     <g id="line2d_16">
      <g>
       <use xlink:href="#mea5ada95b9" x="72" y="44.485305" style="stroke: #000000; stroke-width: 0.8"/>
      </g>
     </g>
     <g id="text_17">
      <!-- 20 -->
      <g transform="translate(44.64 50.564055) scale(0.16 -0.16)">
       <use xlink:href="#DejaVuSans-32"/>
       <use xlink:href="#DejaVuSans-30" x="63.623047"/>
      </g>
     </g>
    </g>
    <g id="text_18">
     <!-- ΔLL (bits) -->
     <g transform="translate(36.896563 258.499687) rotate(-90) scale(0.18 -0.18)">
      <defs>
       <path id="DejaVuSans-394" d="M 2188 4044 
L 906 525 
L 3472 525 
L 2188 4044 
z
M 50 0 
L 1831 4666 
L 2547 4666 
L 4325 0 
L 50 0 
z
" transform="scale(0.015625)"/>
       <path id="DejaVuSans-4c" d="M 628 4666 
L 1259 4666 
L 1259 531 
L 3531 531 
L 3531 0 
L 628 0 
L 628 4666 
z
" transform="scale(0.015625)"/>
       <path id="DejaVuSans-62" d="M 3116 1747 
Q 3116 2381 2855 2742 
Q 2594 3103 2138 3103 
Q 1681 3103 1420 2742 
Q 1159 2381 1159 1747 
Q 1159 1113 1420 752 
Q 1681 391 2138 391 
Q 2594 391 2855 752 
Q 3116 1113 3116 1747 
z
M 1159 2969 
Q 1341 3281 1617 3432 
Q 1894 3584 2278 3584 
Q 2916 3584 3314 3078 
Q 3713 2572 3713 1747 
Q 3713 922 3314 415 
Q 2916 -91 2278 -91 
Q 1894 -91 1617 61 
Q 1341 213 1159 525 
L 1159 0 
L 581 0 
L 581 4863 
L 1159 4863 
L 1159 2969 
z
" transform="scale(0.015625)"/>
      </defs>
      <use xlink:href="#DejaVuSans-394"/>
      <use xlink:href="#DejaVuSans-4c" x="68.408203"/>
      <use xlink:href="#DejaVuSans-4c" x="124.121094"/>
      <use xlink:href="#DejaVuSans-20" x="179.833984"/>
      <use xlink:href="#DejaVuSans-28" x="211.621094"/>
      <use xlink:href="#DejaVuSans-62" x="250.634766"/>
      <use xlink:href="#DejaVuSans-69" x="314.111328"/>
      <use xlink:href="#DejaVuSans-74" x="341.894531"/>
      <use xlink:href="#DejaVuSans-73" x="381.103516"/>
      <use xlink:href="#DejaVuSans-29" x="433.203125"/>
     </g>
    </g>
   </g>
   <g id="line2d_17">
    <path d="M 192 396 
L 192 36 
" clip-path="url(#p2bda6ef645)" style="fill: none; stroke-dasharray: 2.96,1.28; stroke-dashoffset: 0; stroke: #000000; stroke-width: 0.8"/>
   </g>
   <g id="line2d_18">
    <path d="M 23.999999 333.582563 
L 35.999997 326.140953 
L 47.999999 356.11826 
L 60.000001 317.968205 
L 72.000003 242.870857 
L 84 307.333393 
L 95.999998 306.713169 
L 108 320.115547 
L 120.000002 235.281229 
L 131.999999 294.051374 
L 143.999999 300.888484 
L 156 304.32268 
L 168 256.898751 
L 180 336.521234 
L 192 310.823979 
L 204 284.314055 
L 216 307.886022 
L 228 265.626057 
L 240.000001 303.473519 
L 252.000001 314.125887 
L 263.999998 255.923587 
L 276 304.431305 
L 288.000002 262.180536 
L 300 296.123494 
L 311.999997 268.916848 
L 323.999999 269.58796 
L 336.000001 310.826763 
L 348.000003 264.256625 
L 360.000001 290.455058 
L 371.999998 287.934765 
L 384.000005 356.980064 
L 396.000002 292.729014 
L 408 301.456107 
L 419.999997 332.817079 
L 431.999995 297.735534 
L 444.000001 262.050443 
L 455.999999 290.290247 
L 467.999996 280.217761 
L 480.000003 233.899171 
L 492 286.143483 
L 503.999989 274.660122 
L 515.999995 254.811191 
L 528.000001 269.764725 
L 539.99999 213.726808 
L 551.999996 178.694189 
L 564.000003 193.853091 
L 575.999991 147.102472 
L 587.999998 180.02143 
L 600.000004 145.63796 
L 611.999993 172.659507 
L 623.999999 199.829379 
L 636.000006 180.565516 
L 647.999994 287.144661 
L 660.000001 208.106318 
L 672.000007 141.391061 
L 683.999996 223.130721 
L 696.000002 181.238941 
L 708.000009 216.125079 
L 719.999997 273.82872 
L 732.000004 271.651591 
L 744.00001 308.139543 
L 755.999999 195.018196 
L 768.000005 302.672467 
L 780.000011 279.062881 
L 792 289.949646 
L 803.999989 261.974795 
L 815.999977 280.160086 
L 828.000001 259.275121 
L 829 262.560271 
" clip-path="url(#p2bda6ef645)" style="fill: none; stroke: #7b4fa3; stroke-width: 2; stroke-linecap: square"/>
   </g>
   <g id="line2d_19">
    <path d="M 23.999999 314.412074 
L 35.999997 278.939503 
L 47.999999 303.888354 
L 60.000001 318.424408 
L 72.000003 324.823284 
L 84 281.144584 
L 95.999998 273.011268 
L 108 291.399445 
L 120.000002 251.445858 
L 131.999999 294.564088 
L 143.999999 272.770771 
L 156 321.053761 
L 168 343.485337 
L 180 281.638353 
L 192 294.020404 
L 204 334.349174 
L 216 292.891997 
L 228 270.762483 
L 240.000001 316.92162 
L 252.000001 263.353977 
L 263.999998 324.57155 
L 276 315.634113 
L 288.000002 285.441905 
L 300 302.995548 
L 311.999997 325.214354 
L 323.999999 223.088426 
L 336.000001 319.716628 
L 348.000003 284.327457 
L 360.000001 307.925291 
L 371.999998 299.720008 
L 384.000005 342.025671 
L 396.000002 348.247925 
L 408 320.493826 
L 419.999997 261.532022 
L 431.999995 343.826091 
L 444.000001 266.232135 
L 455.999999 273.822766 
L 467.999996 311.498816 
L 480.000003 242.412221 
L 492 204.381906 
L 503.999989 251.467838 
L 515.999995 263.220167 
L 528.000001 306.507774 
L 539.99999 296.626657 
L 551.999996 298.080681 
L 564.000003 291.01766 
L 575.999991 282.548509 
L 587.999998 284.341418 
L 600.000004 269.228458 
L 611.999993 294.260603 
L 623.999999 284.171327 
L 636.000006 305.3047 
L 647.999994 341.957737 
L 660.000001 224.771349 
L 672.000007 308.889039 
L 683.999996 253.32223 
L 696.000002 244.314414 
L 708.000009 284.22214 
L 719.999997 227.822083 
L 732.000004 275.525058 
L 744.00001 284.291131 
L 755.999999 271.474149 
L 768.000005 261.294731 
L 780.000011 260.054014 
L 792 274.908912 
L 803.999989 282.892247 
L 815.999977 249.362259 
L 828.000001 336.662572 
L 829 335.643492 
" clip-path="url(#p2bda6ef645)" style="fill: none; stroke: #c00a37; stroke-width: 2; stroke-linecap: square"/>
   </g>
   <g id="patch_3">
    <path d="M 72 396 
L 72 36 
" style="fill: none; stroke: #000000; stroke-width: 0.8; stroke-linejoin: miter; stroke-linecap: square"/>
   </g>
   <g id="patch_4">
    <path d="M 792 396 
L 792 36 
" style="fill: none; stroke: #000000; stroke-width: 0.8; stroke-linejoin: miter; stroke-linecap: square"/>
   </g>
   <g id="patch_5">
    <path d="M 72 396 
L 792 396 
" style="fill: none; stroke: #000000; stroke-width: 0.8; stroke-linejoin: miter; stroke-linecap: square"/>
   </g>
   <g id="patch_6">
    <path d="M 72 36 
L 792 36 
" style="fill: none; stroke: #000000; stroke-width: 0.8; stroke-linejoin: miter; stroke-linecap: square"/>
   </g>
   <g id="legend_1">
    <g id="line2d_20">
     <path d="M 85.5 55.647656 
L 100.5 55.647656 
L 115.5 55.647656 
" style="fill: none; stroke: #7b4fa3; stroke-width: 2; stroke-linecap: square"/>
    </g>
    <g id="text_19">
     <!-- SSC→SLIP -->
     <g transform="translate(127.5 60.897656) scale(0.15 -0.15)">
      <defs>
       <path id="DejaVuSans-43" d="M 4122 4306 
L 4122 3641 
Q 3803 3938 3442 4084 
Q 3081 4231 2675 4231 
Q 1875 4231 1450 3742 
Q 1025 3253 1025 2328 
Q 1025 1406 1450 917 
Q 1875 428 2675 428 
Q 3081 428 3442 575 
Q 3803 722 4122 1019 
L 4122 359 
Q 3791 134 3420 21 
Q 3050 -91 2638 -91 
Q 1578 -91 968 557 
Q 359 1206 359 2328 
Q 359 3453 968 4101 
Q 1578 4750 2638 4750 
Q 3056 4750 3426 4639 
Q 3797 4528 4122 4306 
z
" transform="scale(0.015625)"/>
       <path id="DejaVuSans-2192" d="M 5050 2147 
L 5050 1866 
L 3822 638 
L 3447 1013 
L 4175 1741 
L 366 1741 
L 366 2272 
L 4175 2272 
L 3447 3000 
L 3822 3375 
L 5050 2147 
z
" transform="scale(0.015625)"/>
       <path id="DejaVuSans-49" d="M 628 4666 
L 1259 4666 
L 1259 0 
L 628 0 
L 628 4666 
z
" transform="scale(0.015625)"/>
       <path id="DejaVuSans-50" d="M 1259 4147 
L 1259 2394 
L 2053 2394 
Q 2494 2394 2734 2622 
Q 2975 2850 2975 3272 
Q 2975 3691 2734 3919 
Q 2494 4147 2053 4147 
L 1259 4147 
z
M 628 4666 
L 2053 4666 
Q 2838 4666 3239 4311 
Q 3641 3956 3641 3272 
Q 3641 2581 3239 2228 
Q 2838 1875 2053 1875 
L 1259 1875 
L 1259 0 
L 628 0 
L 628 4666 
z
" transform="scale(0.015625)"/>
      </defs>
      <use xlink:href="#DejaVuSans-53"/>
      <use xlink:href="#DejaVuSans-53" x="63.476562"/>
      <use xlink:href="#DejaVuSans-43" x="126.953125"/>
      <use xlink:href="#DejaVuSans-2192" x="196.777344"/>
      <use xlink:href="#DejaVuSans-53" x="280.566406"/>
      <use xlink:href="#DejaVuSans-4c" x="344.042969"/>
      <use xlink:href="#DejaVuSans-49" x="399.755859"/>
      <use xlink:href="#DejaVuSans-50" x="429.248047"/>
     </g>
    </g>
    <g id="line2d_21">
     <path d="M 85.5 77.664844 
L 100.5 77.664844 
L 115.5 77.664844 
" style="fill: none; stroke: #c00a37; stroke-width: 2; stroke-linecap: square"/>
    </g>
    <g id="text_20">
     <!-- SLIP→SSC -->
     <g transform="translate(127.5 82.914844) scale(0.15 -0.15)">
      <use xlink:href="#DejaVuSans-53"/>
      <use xlink:href="#DejaVuSans-4c" x="63.476562"/>
      <use xlink:href="#DejaVuSans-49" x="119.189453"/>
      <use xlink:href="#DejaVuSans-50" x="148.681641"/>
      <use xlink:href="#DejaVuSans-2192" x="208.984375"/>
      <use xlink:href="#DejaVuSans-53" x="292.773438"/>
      <use xlink:href="#DejaVuSans-53" x="356.25"/>
      <use xlink:href="#DejaVuSans-43" x="419.726562"/>
     </g>
    </g>
   </g>
  </g>
 </g>
 <defs>
  <clipPath id="p2bda6ef645">
   <rect x="72" y="36" width="720" height="360"/>
  </clipPath>
 </defs>
</svg>
