<?xml version="1.0" encoding="utf-8" standalone="no"?>
<!DOCTYPE svg PUBLIC "-//W3C//DTD SVG 1.1//EN"
  "http://www.w3.org/Graphics/SVG/1.1/DTD/svg11.dtd">
<svg xmlns:xlink="http://www.w3.org/1999/xlink" width="561.6pt" height="561.6pt" viewBox="0 0 561.6 561.6" xmlns="http://www.w3.org/2000/svg" version="1.1">
 <metadata>
  <rdf:RDF xmlns:dc="http://purl.org/dc/elements/1.1/" xmlns:cc="http://creativecommons.org/ns#" xmlns:rdf="http://www.w3.org/1999/02/22-rdf-syntax-ns#">
   <cc:Work>
    <dc:type rdf:resource="http://purl.org/dc/dcmitype/StillImage"/>
    <dc:date>2025-12-08T01:56:43.622845</dc:date>
    <dc:format>image/svg+xml</dc:format>
    <dc:creator>
     <cc:Agent>
      <dc:title>Matplotlib v3.10.5, https://matplotlib.org/</dc:title>
     </cc:Agent>
    </dc:creator>
   </cc:Work>
  </rdf:RDF>
 </metadata>
 <defs>
  <style type="text/css">*{stroke-linejoin: round; stroke-linecap: butt}</style>
 </defs>
 <g id="figure_1">
  <g id="patch_1">
   <path d="M 0 561.6 
L 561.6 561.6 
L 561.6 0 
L 0 0 
z
" style="fill: #ffffff"/>
  </g>
  <g id="axes_1">
   <g id="patch_2">
    <path d="M 70.2 206.388 
L 505.44 206.388 
L 505.44 67.392 
L 70.2 67.392 
z
" style="fill: #ffffff"/>
   </g>
   <g id="FillBetweenPolyCollection_1">
    <defs>
     <path id="m6619fba294" d="M 89.983636 -427.010339 
L 89.983636 -380.468576 
L 93.980327 -383.058224 
L 97.977023 -381.990237 
L 101.973713 -383.304378 
L 105.97041 -385.93355 
L 109.967106 -385.187815 
L 113.963796 -381.321401 
L 117.960493 -382.290956 
L 121.957186 -380.218319 
L 125.953882 -381.364198 
L 129.950576 -385.727152 
L 133.947269 -384.025012 
L 137.943962 -384.218283 
L 141.940659 -383.854023 
L 145.937352 -385.256191 
L 149.934045 -385.25418 
L 153.93074 -378.323673 
L 157.927434 -383.507675 
L 161.924129 -381.24763 
L 165.920823 -383.387775 
L 169.917517 -380.510551 
L 173.914211 -381.566824 
L 177.910906 -377.948532 
L 181.9076 -385.185415 
L 185.904294 -383.474078 
L 189.900988 -382.642603 
L 193.897681 -384.715628 
L 197.894377 -385.00866 
L 201.891071 -384.216991 
L 205.887764 -381.231368 
L 209.884457 -383.21616 
L 213.881154 -383.157644 
L 217.877847 -386.33913 
L 221.874543 -387.602343 
L 225.871234 -382.479153 
L 229.86793 -382.589625 
L 233.864626 -381.112934 
L 237.861317 -387.788362 
L 241.858013 -381.711237 
L 245.854704 -385.449796 
L 249.8514 -384.368703 
L 253.848096 -385.576098 
L 257.844787 -387.820398 
L 261.841483 -388.385409 
L 265.838179 -382.691811 
L 269.83487 -385.699525 
L 273.83156 -384.501661 
L 277.828262 -383.194556 
L 281.824953 -384.89585 
L 285.821643 -384.322068 
L 289.818345 -380.831744 
L 293.815036 -386.175681 
L 297.811726 -388.806739 
L 301.808428 -387.254057 
L 305.805119 -388.167279 
L 309.801809 -387.262164 
L 313.798511 -382.388874 
L 317.795202 -384.109886 
L 321.791892 -382.473221 
L 325.788594 -383.634017 
L 329.785285 -383.553268 
L 333.781975 -386.23905 
L 337.778677 -385.323442 
L 341.775368 -382.029202 
L 345.772058 -385.608397 
L 349.76876 -385.500711 
L 353.765451 -384.883798 
L 357.762141 -385.542652 
L 361.758843 -384.728668 
L 365.755534 -384.556739 
L 369.752224 -383.857993 
L 373.748914 -385.330964 
L 377.745605 -387.886128 
L 381.742319 -387.157198 
L 385.739009 -383.311974 
L 389.7357 -386.7359 
L 393.73239 -383.8104 
L 397.72908 -385.013513 
L 401.725771 -383.576356 
L 405.722485 -384.92085 
L 409.719175 -384.181249 
L 413.715866 -383.351293 
L 417.712556 -384.328514 
L 421.709246 -382.468658 
L 425.705937 -382.21324 
L 429.702627 -386.692685 
L 433.699341 -386.383079 
L 437.696032 -385.52145 
L 441.692722 -381.966439 
L 445.689412 -385.030061 
L 449.686103 -385.470108 
L 453.682793 -386.633913 
L 457.679507 -383.231716 
L 461.676198 -383.870953 
L 465.672888 -387.777505 
L 469.669578 -387.144401 
L 473.666269 -386.162322 
L 477.662959 -386.972025 
L 481.659673 -386.522731 
L 485.656364 -381.395362 
L 485.656364 -428.694196 
L 485.656364 -428.694196 
L 481.659673 -430.196891 
L 477.662959 -433.581832 
L 473.666269 -432.297712 
L 469.669578 -434.82695 
L 465.672888 -436.188577 
L 461.676198 -430.322599 
L 457.679507 -431.204066 
L 453.682793 -435.023068 
L 449.686103 -432.002724 
L 445.689412 -431.513665 
L 441.692722 -426.321431 
L 437.696032 -433.09436 
L 433.699341 -434.371278 
L 429.702627 -434.444065 
L 425.705937 -429.027972 
L 421.709246 -428.9735 
L 417.712556 -432.575277 
L 413.715866 -427.944917 
L 409.719175 -431.297114 
L 405.722485 -428.017216 
L 401.725771 -431.088375 
L 397.72908 -431.947583 
L 393.73239 -427.549814 
L 389.7357 -430.331136 
L 385.739009 -428.284935 
L 381.742319 -433.364498 
L 377.745605 -432.359417 
L 373.748914 -431.50239 
L 369.752224 -428.23184 
L 365.755534 -427.812815 
L 361.758843 -430.83519 
L 357.762141 -431.895252 
L 353.765451 -428.749653 
L 349.76876 -433.834366 
L 345.772058 -431.772941 
L 341.775368 -427.356108 
L 337.778677 -428.279031 
L 333.781975 -433.183887 
L 329.785285 -427.831599 
L 325.788594 -430.492601 
L 321.791892 -428.03328 
L 317.795202 -429.685659 
L 313.798511 -427.187878 
L 309.801809 -432.375865 
L 305.805119 -431.584791 
L 301.808428 -431.164754 
L 297.811726 -435.561759 
L 293.815036 -430.220365 
L 289.818345 -424.802445 
L 285.821643 -429.090021 
L 281.824953 -430.459335 
L 277.828262 -429.478136 
L 273.83156 -435.098083 
L 269.83487 -431.794097 
L 265.838179 -425.877993 
L 261.841483 -430.252315 
L 257.844787 -432.167269 
L 253.848096 -431.25434 
L 249.8514 -429.813449 
L 245.854704 -430.330971 
L 241.858013 -427.07962 
L 237.861317 -433.401379 
L 233.864626 -425.712402 
L 229.86793 -427.078156 
L 225.871234 -428.297592 
L 221.874543 -433.580178 
L 217.877847 -429.823599 
L 213.881154 -430.257183 
L 209.884457 -427.574365 
L 205.887764 -426.226216 
L 201.891071 -432.793321 
L 197.894377 -430.793402 
L 193.897681 -428.824722 
L 189.900988 -428.820885 
L 185.904294 -431.812814 
L 181.9076 -429.574989 
L 177.910906 -424.317729 
L 173.914211 -427.520848 
L 169.917517 -427.917539 
L 165.920823 -429.867773 
L 161.924129 -426.066783 
L 157.927434 -431.43843 
L 153.93074 -425.164077 
L 149.934045 -428.230017 
L 145.937352 -431.253324 
L 141.940659 -432.227764 
L 137.943962 -429.301626 
L 133.947269 -429.203912 
L 129.950576 -428.764264 
L 125.953882 -426.622337 
L 121.957186 -427.07658 
L 117.960493 -431.236554 
L 113.963796 -427.777486 
L 109.967106 -432.229959 
L 105.97041 -434.82401 
L 101.973713 -432.420049 
L 97.977023 -427.607745 
L 93.980327 -430.704024 
L 89.983636 -427.010339 
z
"/>
    </defs>
    <g clip-path="url(#p2c8a773cd5)">
     <use xlink:href="#m6619fba294" x="0" y="561.6" style="fill: #1f77b4; fill-opacity: 0.15"/>
    </g>
   </g>
   <g id="FillBetweenPolyCollection_2">
    <defs>
     <path id="m2471c4f87b" d="M 89.983636 -430.899976 
L 89.983636 -382.55227 
L 93.980327 -384.498509 
L 97.977023 -381.76533 
L 101.973713 -382.126373 
L 105.97041 -381.134414 
L 109.967106 -385.481552 
L 113.963796 -381.299291 
L 117.960493 -383.373115 
L 121.957186 -382.552175 
L 125.953882 -381.652739 
L 129.950576 -389.158406 
L 133.947269 -385.368259 
L 137.943962 -383.879365 
L 141.940659 -388.124784 
L 145.937352 -381.664259 
L 149.934045 -382.771793 
L 153.93074 -384.856938 
L 157.927434 -382.008771 
L 161.924129 -388.158751 
L 165.920823 -381.206675 
L 169.917517 -385.211926 
L 173.914211 -386.090306 
L 177.910906 -386.114231 
L 181.9076 -384.097368 
L 185.904294 -381.724146 
L 189.900988 -382.499694 
L 193.897681 -383.713931 
L 197.894377 -382.204303 
L 201.891071 -383.325343 
L 205.887764 -387.136922 
L 209.884457 -386.444843 
L 213.881154 -387.046228 
L 217.877847 -382.03893 
L 221.874543 -381.011827 
L 225.871234 -385.675292 
L 229.86793 -387.619786 
L 233.864626 -389.116631 
L 237.861317 -384.950382 
L 241.858013 -388.552563 
L 245.854704 -382.408599 
L 249.8514 -383.418404 
L 253.848096 -385.255423 
L 257.844787 -384.766949 
L 261.841483 -386.683503 
L 265.838179 -386.74688 
L 269.83487 -389.258633 
L 273.83156 -384.455346 
L 277.828262 -383.645207 
L 281.824953 -387.31748 
L 285.821643 -382.975947 
L 289.818345 -381.445982 
L 293.815036 -383.88653 
L 297.811726 -381.709245 
L 301.808428 -384.149228 
L 305.805119 -383.789257 
L 309.801809 -383.380908 
L 313.798511 -383.245711 
L 317.795202 -386.607628 
L 321.791892 -380.66348 
L 325.788594 -384.409016 
L 329.785285 -380.332432 
L 333.781975 -387.721414 
L 337.778677 -384.574402 
L 341.775368 -383.596439 
L 345.772058 -384.529002 
L 349.76876 -386.265665 
L 353.765451 -383.019436 
L 357.762141 -384.948774 
L 361.758843 -382.634823 
L 365.755534 -383.931625 
L 369.752224 -387.568003 
L 373.748914 -380.390203 
L 377.745605 -386.343891 
L 381.742319 -381.741469 
L 385.739009 -382.898577 
L 389.7357 -382.352294 
L 393.73239 -385.505447 
L 397.72908 -383.262701 
L 401.725771 -383.13402 
L 405.722485 -384.682041 
L 409.719175 -382.357587 
L 413.715866 -381.462064 
L 417.712556 -383.65774 
L 421.709246 -383.671151 
L 425.705937 -384.804331 
L 429.702627 -382.322218 
L 433.699341 -383.672379 
L 437.696032 -381.678496 
L 441.692722 -383.113391 
L 445.689412 -385.777482 
L 449.686103 -382.575623 
L 453.682793 -386.172902 
L 457.679507 -383.09358 
L 461.676198 -382.058208 
L 465.672888 -384.164588 
L 469.669578 -382.680456 
L 473.666269 -382.968779 
L 477.662959 -381.866296 
L 481.659673 -384.652325 
L 485.656364 -380.400924 
L 485.656364 -426.142457 
L 485.656364 -426.142457 
L 481.659673 -428.526166 
L 477.662959 -428.137131 
L 473.666269 -429.755243 
L 469.669578 -427.237433 
L 465.672888 -427.048944 
L 461.676198 -428.582813 
L 457.679507 -428.923855 
L 453.682793 -428.901624 
L 449.686103 -426.932986 
L 445.689412 -430.684637 
L 441.692722 -426.540211 
L 437.696032 -427.508892 
L 433.699341 -426.505549 
L 429.702627 -428.914724 
L 425.705937 -432.981871 
L 421.709246 -429.820732 
L 417.712556 -432.543005 
L 413.715866 -426.90135 
L 409.719175 -428.657371 
L 405.722485 -434.582144 
L 401.725771 -429.560528 
L 397.72908 -427.536943 
L 393.73239 -429.772649 
L 389.7357 -430.592443 
L 385.739009 -430.305955 
L 381.742319 -426.308858 
L 377.745605 -430.320625 
L 373.748914 -423.947792 
L 369.752224 -430.429398 
L 365.755534 -431.428388 
L 361.758843 -426.186848 
L 357.762141 -430.945632 
L 353.765451 -427.487753 
L 349.76876 -431.89359 
L 345.772058 -428.620472 
L 341.775368 -429.944774 
L 337.778677 -430.602404 
L 333.781975 -434.515929 
L 329.785285 -426.401391 
L 325.788594 -428.515431 
L 321.791892 -427.505182 
L 317.795202 -432.390124 
L 313.798511 -429.218549 
L 309.801809 -430.778084 
L 305.805119 -431.508157 
L 301.808428 -427.202172 
L 297.811726 -427.317705 
L 293.815036 -429.21801 
L 289.818345 -428.433277 
L 285.821643 -428.921624 
L 281.824953 -430.902401 
L 277.828262 -429.236991 
L 273.83156 -431.22549 
L 269.83487 -434.452321 
L 265.838179 -434.563858 
L 261.841483 -438.141486 
L 257.844787 -431.566338 
L 253.848096 -432.077404 
L 249.8514 -428.679415 
L 245.854704 -431.893758 
L 241.858013 -436.309164 
L 237.861317 -431.694141 
L 233.864626 -438.953338 
L 229.86793 -436.273491 
L 225.871234 -434.187535 
L 221.874543 -425.412496 
L 217.877847 -429.46211 
L 213.881154 -436.085176 
L 209.884457 -431.494643 
L 205.887764 -435.819193 
L 201.891071 -429.56784 
L 197.894377 -426.573875 
L 193.897681 -427.997261 
L 189.900988 -426.139649 
L 185.904294 -429.395216 
L 181.9076 -430.918769 
L 177.910906 -435.369895 
L 173.914211 -434.836153 
L 169.917517 -430.012012 
L 165.920823 -428.425448 
L 161.924129 -435.306128 
L 157.927434 -429.037243 
L 153.93074 -428.963929 
L 149.934045 -428.51333 
L 145.937352 -424.088842 
L 141.940659 -433.780481 
L 137.943962 -427.657663 
L 133.947269 -434.017769 
L 129.950576 -437.735455 
L 125.953882 -429.017771 
L 121.957186 -426.849919 
L 117.960493 -429.522701 
L 113.963796 -426.750669 
L 109.967106 -431.726295 
L 105.97041 -429.268942 
L 101.973713 -425.446337 
L 97.977023 -426.615879 
L 93.980327 -433.03147 
L 89.983636 -430.899976 
z
"/>
    </defs>
    <g clip-path="url(#p2c8a773cd5)">
     <use xlink:href="#m2471c4f87b" x="0" y="561.6" style="fill: #ff7f0e; fill-opacity: 0.15"/>
    </g>
   </g>
   <g id="matplotlib.axis_1">
    <g id="xtick_1">
     <g id="line2d_1">
      <defs>
       <path id="m8ab2a5c9aa" d="M 0 0 
L 0 3.5 
" style="stroke: #000000; stroke-width: 0.8"/>
      </defs>
      <g>
       <use xlink:href="#m8ab2a5c9aa" x="87.985286" y="206.388" style="stroke: #000000; stroke-width: 0.8"/>
      </g>
     </g>
     <g id="text_1">
      <!-- −200 -->
      <g transform="translate(74.251693 220.986437) scale(0.1 -0.1)">
       <defs>
        <path id="DejaVuSans-2212" d="M 678 2272 
L 4684 2272 
L 4684 1741 
L 678 1741 
L 678 2272 
z
" transform="scale(0.015625)"/>
        <path id="DejaVuSans-32" d="M 1228 531 
L 3431 531 
L 3431 0 
L 469 0 
L 469 531 
Q 828 903 1448 1529 
Q 2069 2156 2228 2338 
Q 2531 2678 2651 2914 
Q 2772 3150 2772 3378 
Q 2772 3750 2511 3984 
Q 2250 4219 1831 4219 
Q 1534 4219 1204 4116 
Q 875 4013 500 3803 
L 500 4441 
Q 881 4594 1212 4672 
Q 1544 4750 1819 4750 
Q 2544 4750 2975 4387 
Q 3406 4025 3406 3419 
Q 3406 3131 3298 2873 
Q 3191 2616 2906 2266 
Q 2828 2175 2409 1742 
Q 1991 1309 1228 531 
z
" transform="scale(0.015625)"/>
        <path id="DejaVuSans-30" d="M 2034 4250 
Q 1547 4250 1301 3770 
Q 1056 3291 1056 2328 
Q 1056 1369 1301 889 
Q 1547 409 2034 409 
Q 2525 409 2770 889 
Q 3016 1369 3016 2328 
Q 3016 3291 2770 3770 
Q 2525 4250 2034 4250 
z
M 2034 4750 
Q 2819 4750 3233 4129 
Q 3647 3509 3647 2328 
Q 3647 1150 3233 529 
Q 2819 -91 2034 -91 
Q 1250 -91 836 529 
Q 422 1150 422 2328 
Q 422 3509 836 4129 
Q 1250 4750 2034 4750 
z
" transform="scale(0.015625)"/>
       </defs>
       <use xlink:href="#DejaVuSans-2212"/>
       <use xlink:href="#DejaVuSans-32" transform="translate(83.789062 0)"/>
       <use xlink:href="#DejaVuSans-30" transform="translate(147.412109 0)"/>
       <use xlink:href="#DejaVuSans-30" transform="translate(211.035156 0)"/>
      </g>
     </g>
    </g>
    <g id="xtick_2">
     <g id="line2d_2">
      <g>
       <use xlink:href="#m8ab2a5c9aa" x="167.91917" y="206.388" style="stroke: #000000; stroke-width: 0.8"/>
      </g>
     </g>
     <g id="text_2">
      <!-- 0 -->
      <g transform="translate(164.73792 220.986437) scale(0.1 -0.1)">
       <use xlink:href="#DejaVuSans-30"/>
      </g>
     </g>
    </g>
    <g id="xtick_3">
     <g id="line2d_3">
      <g>
       <use xlink:href="#m8ab2a5c9aa" x="247.853053" y="206.388" style="stroke: #000000; stroke-width: 0.8"/>
      </g>
     </g>
     <g id="text_3">
      <!-- 200 -->
      <g transform="translate(238.309303 220.986437) scale(0.1 -0.1)">
       <use xlink:href="#DejaVuSans-32"/>
       <use xlink:href="#DejaVuSans-30" transform="translate(63.623047 0)"/>
       <use xlink:href="#DejaVuSans-30" transform="translate(127.246094 0)"/>
      </g>
     </g>
    </g>
    <g id="xtick_4">
     <g id="line2d_4">
      <g>
       <use xlink:href="#m8ab2a5c9aa" x="327.786937" y="206.388" style="stroke: #000000; stroke-width: 0.8"/>
      </g>
     </g>
     <g id="text_4">
      <!-- 400 -->
      <g transform="translate(318.243187 220.986437) scale(0.1 -0.1)">
       <defs>
        <path id="DejaVuSans-34" d="M 2419 4116 
L 825 1625 
L 2419 1625 
L 2419 4116 
z
M 2253 4666 
L 3047 4666 
L 3047 1625 
L 3713 1625 
L 3713 1100 
L 3047 1100 
L 3047 0 
L 2419 0 
L 2419 1100 
L 313 1100 
L 313 1709 
L 2253 4666 
z
" transform="scale(0.015625)"/>
       </defs>
       <use xlink:href="#DejaVuSans-34"/>
       <use xlink:href="#DejaVuSans-30" transform="translate(63.623047 0)"/>
       <use xlink:href="#DejaVuSans-30" transform="translate(127.246094 0)"/>
      </g>
     </g>
    </g>
    <g id="xtick_5">
     <g id="line2d_5">
      <g>
       <use xlink:href="#m8ab2a5c9aa" x="407.720821" y="206.388" style="stroke: #000000; stroke-width: 0.8"/>
      </g>
     </g>
     <g id="text_5">
      <!-- 600 -->
      <g transform="translate(398.177071 220.986437) scale(0.1 -0.1)">
       <defs>
        <path id="DejaVuSans-36" d="M 2113 2584 
Q 1688 2584 1439 2293 
Q 1191 2003 1191 1497 
Q 1191 994 1439 701 
Q 1688 409 2113 409 
Q 2538 409 2786 701 
Q 3034 994 3034 1497 
Q 3034 2003 2786 2293 
Q 2538 2584 2113 2584 
z
M 3366 4563 
L 3366 3988 
Q 3128 4100 2886 4159 
Q 2644 4219 2406 4219 
Q 1781 4219 1451 3797 
Q 1122 3375 1075 2522 
Q 1259 2794 1537 2939 
Q 1816 3084 2150 3084 
Q 2853 3084 3261 2657 
Q 3669 2231 3669 1497 
Q 3669 778 3244 343 
Q 2819 -91 2113 -91 
Q 1303 -91 875 529 
Q 447 1150 447 2328 
Q 447 3434 972 4092 
Q 1497 4750 2381 4750 
Q 2619 4750 2861 4703 
Q 3103 4656 3366 4563 
z
" transform="scale(0.015625)"/>
       </defs>
       <use xlink:href="#DejaVuSans-36"/>
       <use xlink:href="#DejaVuSans-30" transform="translate(63.623047 0)"/>
       <use xlink:href="#DejaVuSans-30" transform="translate(127.246094 0)"/>
      </g>
     </g>
    </g>
    <g id="xtick_6">
     <g id="line2d_6">
      <g>
       <use xlink:href="#m8ab2a5c9aa" x="487.654704" y="206.388" style="stroke: #000000; stroke-width: 0.8"/>
      </g>
     </g>
     <g id="text_6">
      <!-- 800 -->
      <g transform="translate(478.110954 220.986437) scale(0.1 -0.1)">
       <defs>
        <path id="DejaVuSans-38" d="M 2034 2216 
Q 1584 2216 1326 1975 
Q 1069 1734 1069 1313 
Q 1069 891 1326 650 
Q 1584 409 2034 409 
Q 2484 409 2743 651 
Q 3003 894 3003 1313 
Q 3003 1734 2745 1975 
Q 2488 2216 2034 2216 
z
M 1403 2484 
Q 997 2584 770 2862 
Q 544 3141 544 3541 
Q 544 4100 942 4425 
Q 1341 4750 2034 4750 
Q 2731 4750 3128 4425 
Q 3525 4100 3525 3541 
Q 3525 3141 3298 2862 
Q 3072 2584 2669 2484 
Q 3125 2378 3379 2068 
Q 3634 1759 3634 1313 
Q 3634 634 3220 271 
Q 2806 -91 2034 -91 
Q 1263 -91 848 271 
Q 434 634 434 1313 
Q 434 1759 690 2068 
Q 947 2378 1403 2484 
z
M 1172 3481 
Q 1172 3119 1398 2916 
Q 1625 2713 2034 2713 
Q 2441 2713 2670 2916 
Q 2900 3119 2900 3481 
Q 2900 3844 2670 4047 
Q 2441 4250 2034 4250 
Q 1625 4250 1398 4047 
Q 1172 3844 1172 3481 
z
" transform="scale(0.015625)"/>
       </defs>
       <use xlink:href="#DejaVuSans-38"/>
       <use xlink:href="#DejaVuSans-30" transform="translate(63.623047 0)"/>
       <use xlink:href="#DejaVuSans-30" transform="translate(127.246094 0)"/>
      </g>
     </g>
    </g>
   </g>
   <g id="matplotlib.axis_2">
    <g id="ytick_1">
     <g id="line2d_7">
      <defs>
       <path id="mbb0de3c60f" d="M 0 0 
L -3.5 0 
" style="stroke: #000000; stroke-width: 0.8"/>
      </defs>
      <g>
       <use xlink:href="#mbb0de3c60f" x="70.2" y="167.140823" style="stroke: #000000; stroke-width: 0.8"/>
      </g>
     </g>
     <g id="text_7">
      <!-- 15 -->
      <g transform="translate(50.475 170.940042) scale(0.1 -0.1)">
       <defs>
        <path id="DejaVuSans-31" d="M 794 531 
L 1825 531 
L 1825 4091 
L 703 3866 
L 703 4441 
L 1819 4666 
L 2450 4666 
L 2450 531 
L 3481 531 
L 3481 0 
L 794 0 
L 794 531 
z
" transform="scale(0.015625)"/>
        <path id="DejaVuSans-35" d="M 691 4666 
L 3169 4666 
L 3169 4134 
L 1269 4134 
L 1269 2991 
Q 1406 3038 1543 3061 
Q 1681 3084 1819 3084 
Q 2600 3084 3056 2656 
Q 3513 2228 3513 1497 
Q 3513 744 3044 326 
Q 2575 -91 1722 -91 
Q 1428 -91 1123 -41 
Q 819 9 494 109 
L 494 744 
Q 775 591 1075 516 
Q 1375 441 1709 441 
Q 2250 441 2565 725 
Q 2881 1009 2881 1497 
Q 2881 1984 2565 2268 
Q 2250 2553 1709 2553 
Q 1456 2553 1204 2497 
Q 953 2441 691 2322 
L 691 4666 
z
" transform="scale(0.015625)"/>
       </defs>
       <use xlink:href="#DejaVuSans-31"/>
       <use xlink:href="#DejaVuSans-35" transform="translate(63.623047 0)"/>
      </g>
     </g>
    </g>
    <g id="ytick_2">
     <g id="line2d_8">
      <g>
       <use xlink:href="#mbb0de3c60f" x="70.2" y="124.052777" style="stroke: #000000; stroke-width: 0.8"/>
      </g>
     </g>
     <g id="text_8">
      <!-- 20 -->
      <g transform="translate(50.475 127.851995) scale(0.1 -0.1)">
       <use xlink:href="#DejaVuSans-32"/>
       <use xlink:href="#DejaVuSans-30" transform="translate(63.623047 0)"/>
      </g>
     </g>
    </g>
    <g id="ytick_3">
     <g id="line2d_9">
      <g>
       <use xlink:href="#mbb0de3c60f" x="70.2" y="80.96473" style="stroke: #000000; stroke-width: 0.8"/>
      </g>
     </g>
     <g id="text_9">
      <!-- 25 -->
      <g transform="translate(50.475 84.763949) scale(0.1 -0.1)">
       <use xlink:href="#DejaVuSans-32"/>
       <use xlink:href="#DejaVuSans-35" transform="translate(63.623047 0)"/>
      </g>
     </g>
    </g>
    <g id="text_10">
     <!-- ΔLL (bits) -->
     <g transform="translate(44.395313 160.500937) rotate(-90) scale(0.1 -0.1)">
      <defs>
       <path id="DejaVuSans-394" d="M 2188 4044 
L 906 525 
L 3472 525 
L 2188 4044 
z
M 50 0 
L 1831 4666 
L 2547 4666 
L 4325 0 
L 50 0 
z
" transform="scale(0.015625)"/>
       <path id="DejaVuSans-4c" d="M 628 4666 
L 1259 4666 
L 1259 531 
L 3531 531 
L 3531 0 
L 628 0 
L 628 4666 
z
" transform="scale(0.015625)"/>
       <path id="DejaVuSans-20" transform="scale(0.015625)"/>
       <path id="DejaVuSans-28" d="M 1984 4856 
Q 1566 4138 1362 3434 
Q 1159 2731 1159 2009 
Q 1159 1288 1364 580 
Q 1569 -128 1984 -844 
L 1484 -844 
Q 1016 -109 783 600 
Q 550 1309 550 2009 
Q 550 2706 781 3412 
Q 1013 4119 1484 4856 
L 1984 4856 
z
" transform="scale(0.015625)"/>
       <path id="DejaVuSans-62" d="M 3116 1747 
Q 3116 2381 2855 2742 
Q 2594 3103 2138 3103 
Q 1681 3103 1420 2742 
Q 1159 2381 1159 1747 
Q 1159 1113 1420 752 
Q 1681 391 2138 391 
Q 2594 391 2855 752 
Q 3116 1113 3116 1747 
z
M 1159 2969 
Q 1341 3281 1617 3432 
Q 1894 3584 2278 3584 
Q 2916 3584 3314 3078 
Q 3713 2572 3713 1747 
Q 3713 922 3314 415 
Q 2916 -91 2278 -91 
Q 1894 -91 1617 61 
Q 1341 213 1159 525 
L 1159 0 
L 581 0 
L 581 4863 
L 1159 4863 
L 1159 2969 
z
" transform="scale(0.015625)"/>
       <path id="DejaVuSans-69" d="M 603 3500 
L 1178 3500 
L 1178 0 
L 603 0 
L 603 3500 
z
M 603 4863 
L 1178 4863 
L 1178 4134 
L 603 4134 
L 603 4863 
z
" transform="scale(0.015625)"/>
       <path id="DejaVuSans-74" d="M 1172 4494 
L 1172 3500 
L 2356 3500 
L 2356 3053 
L 1172 3053 
L 1172 1153 
Q 1172 725 1289 603 
Q 1406 481 1766 481 
L 2356 481 
L 2356 0 
L 1766 0 
Q 1100 0 847 248 
Q 594 497 594 1153 
L 594 3053 
L 172 3053 
L 172 3500 
L 594 3500 
L 594 4494 
L 1172 4494 
z
" transform="scale(0.015625)"/>
       <path id="DejaVuSans-73" d="M 2834 3397 
L 2834 2853 
Q 2591 2978 2328 3040 
Q 2066 3103 1784 3103 
Q 1356 3103 1142 2972 
Q 928 2841 928 2578 
Q 928 2378 1081 2264 
Q 1234 2150 1697 2047 
L 1894 2003 
Q 2506 1872 2764 1633 
Q 3022 1394 3022 966 
Q 3022 478 2636 193 
Q 2250 -91 1575 -91 
Q 1294 -91 989 -36 
Q 684 19 347 128 
L 347 722 
Q 666 556 975 473 
Q 1284 391 1588 391 
Q 1994 391 2212 530 
Q 2431 669 2431 922 
Q 2431 1156 2273 1281 
Q 2116 1406 1581 1522 
L 1381 1569 
Q 847 1681 609 1914 
Q 372 2147 372 2553 
Q 372 3047 722 3315 
Q 1072 3584 1716 3584 
Q 2034 3584 2315 3537 
Q 2597 3491 2834 3397 
z
" transform="scale(0.015625)"/>
       <path id="DejaVuSans-29" d="M 513 4856 
L 1013 4856 
Q 1481 4119 1714 3412 
Q 1947 2706 1947 2009 
Q 1947 1309 1714 600 
Q 1481 -109 1013 -844 
L 513 -844 
Q 928 -128 1133 580 
Q 1338 1288 1338 2009 
Q 1338 2731 1133 3434 
Q 928 4138 513 4856 
z
" transform="scale(0.015625)"/>
      </defs>
      <use xlink:href="#DejaVuSans-394"/>
      <use xlink:href="#DejaVuSans-4c" transform="translate(68.408203 0)"/>
      <use xlink:href="#DejaVuSans-4c" transform="translate(124.121094 0)"/>
      <use xlink:href="#DejaVuSans-20" transform="translate(179.833984 0)"/>
      <use xlink:href="#DejaVuSans-28" transform="translate(211.621094 0)"/>
      <use xlink:href="#DejaVuSans-62" transform="translate(250.634766 0)"/>
      <use xlink:href="#DejaVuSans-69" transform="translate(314.111328 0)"/>
      <use xlink:href="#DejaVuSans-74" transform="translate(341.894531 0)"/>
      <use xlink:href="#DejaVuSans-73" transform="translate(381.103516 0)"/>
      <use xlink:href="#DejaVuSans-29" transform="translate(433.203125 0)"/>
     </g>
    </g>
   </g>
   <g id="line2d_10">
    <path d="M 167.91917 206.388 
L 167.91917 67.392 
" clip-path="url(#p2c8a773cd5)" style="fill: none; stroke-dasharray: 2.96,1.28; stroke-dashoffset: 0; stroke: #000000; stroke-width: 0.8"/>
   </g>
   <g id="line2d_11">
    <path d="M 89.983636 157.860542 
L 93.980327 154.718876 
L 97.977023 156.801009 
L 101.973713 153.737786 
L 105.97041 151.22122 
L 109.967106 152.891113 
L 113.963796 157.050557 
L 117.960493 154.836245 
L 121.957186 157.95255 
L 125.953882 157.606733 
L 129.950576 154.354292 
L 133.947269 154.985538 
L 137.943962 154.840045 
L 141.940659 153.559107 
L 145.937352 153.345243 
L 149.934045 154.857901 
L 153.93074 159.856125 
L 157.927434 154.126947 
L 161.924129 157.942793 
L 165.920823 154.972226 
L 169.917517 157.385955 
L 173.914211 157.056164 
L 177.910906 160.46687 
L 181.9076 154.219798 
L 185.904294 153.956554 
L 189.900988 155.868256 
L 193.897681 154.829825 
L 197.894377 153.698969 
L 201.891071 153.094844 
L 205.887764 157.871208 
L 209.884457 156.204738 
L 213.881154 154.892587 
L 217.877847 153.518636 
L 221.874543 151.008739 
L 225.871234 156.211627 
L 229.86793 156.766109 
L 233.864626 158.187332 
L 237.861317 151.005129 
L 241.858013 157.204571 
L 245.854704 153.709617 
L 249.8514 154.508924 
L 253.848096 153.184781 
L 257.844787 151.606166 
L 261.841483 152.281138 
L 265.838179 157.315098 
L 269.83487 152.853189 
L 273.83156 151.800128 
L 277.828262 155.263654 
L 281.824953 153.922407 
L 285.821643 154.893955 
L 289.818345 158.782905 
L 293.815036 153.401977 
L 297.811726 149.415751 
L 301.808428 152.390595 
L 305.805119 151.723965 
L 309.801809 151.780985 
L 313.798511 156.811624 
L 317.795202 154.702228 
L 321.791892 156.34675 
L 325.788594 154.536691 
L 329.785285 155.907566 
L 333.781975 151.888531 
L 337.778677 154.798763 
L 341.775368 156.907345 
L 345.772058 152.909331 
L 349.76876 151.932462 
L 353.765451 154.783275 
L 357.762141 152.881048 
L 361.758843 153.818071 
L 365.755534 155.415223 
L 369.752224 155.555083 
L 373.748914 153.183323 
L 377.745605 151.477228 
L 381.742319 151.339152 
L 385.739009 155.801546 
L 389.7357 153.066482 
L 393.73239 155.919893 
L 397.72908 153.119452 
L 401.725771 154.267634 
L 405.722485 155.130967 
L 409.719175 153.860818 
L 413.715866 155.951895 
L 417.712556 153.148104 
L 421.709246 155.878921 
L 425.705937 155.979394 
L 429.702627 151.031625 
L 433.699341 151.222821 
L 437.696032 152.292095 
L 441.692722 157.456065 
L 445.689412 153.328137 
L 449.686103 152.863584 
L 453.682793 150.77151 
L 457.679507 154.382109 
L 461.676198 154.503224 
L 465.672888 149.616959 
L 469.669578 150.614324 
L 473.666269 152.369983 
L 477.662959 151.323072 
L 481.659673 153.240189 
L 485.656364 156.555221 
" clip-path="url(#p2c8a773cd5)" style="fill: none; stroke-dasharray: 1,1.65; stroke-dashoffset: 0; stroke: #1f77b4"/>
   </g>
   <g id="line2d_12">
    <path d="M 89.983636 154.873877 
L 93.980327 152.83501 
L 97.977023 157.409395 
L 101.973713 157.813645 
L 105.97041 156.398322 
L 109.967106 152.996076 
L 113.963796 157.57502 
L 117.960493 155.152092 
L 121.957186 156.898953 
L 125.953882 156.264745 
L 129.950576 148.153069 
L 133.947269 151.906986 
L 137.943962 155.831486 
L 141.940659 150.647367 
L 145.937352 158.723449 
L 149.934045 155.957438 
L 153.93074 154.689566 
L 157.927434 156.076993 
L 161.924129 149.86756 
L 165.920823 156.783938 
L 169.917517 153.988031 
L 173.914211 151.13677 
L 177.910906 150.857937 
L 181.9076 154.091931 
L 185.904294 156.040319 
L 189.900988 157.280329 
L 193.897681 155.744404 
L 197.894377 157.210911 
L 201.891071 155.153409 
L 205.887764 150.121943 
L 209.884457 152.630257 
L 213.881154 150.034298 
L 217.877847 155.84948 
L 221.874543 158.387838 
L 225.871234 151.668587 
L 229.86793 149.653362 
L 233.864626 147.565016 
L 237.861317 153.277739 
L 241.858013 149.169136 
L 245.854704 154.448821 
L 249.8514 155.551091 
L 253.848096 152.933586 
L 257.844787 153.433357 
L 261.841483 149.187506 
L 265.838179 150.944631 
L 269.83487 149.744523 
L 273.83156 153.759582 
L 277.828262 155.158901 
L 281.824953 152.490059 
L 285.821643 155.651214 
L 289.818345 156.66037 
L 293.815036 155.04773 
L 297.811726 157.086525 
L 301.808428 155.9243 
L 305.805119 153.951293 
L 309.801809 154.520504 
L 313.798511 155.36787 
L 317.795202 152.101124 
L 321.791892 157.515669 
L 325.788594 155.137776 
L 329.785285 158.233088 
L 333.781975 150.481329 
L 337.778677 154.011597 
L 341.775368 154.829393 
L 345.772058 155.025263 
L 349.76876 152.520372 
L 353.765451 156.346405 
L 357.762141 153.652797 
L 361.758843 157.189164 
L 365.755534 153.919994 
L 369.752224 152.601299 
L 373.748914 159.431002 
L 377.745605 153.267742 
L 381.742319 157.574836 
L 385.739009 154.997734 
L 389.7357 155.127631 
L 393.73239 153.960952 
L 397.72908 156.200178 
L 401.725771 155.252726 
L 405.722485 151.967907 
L 409.719175 156.092521 
L 413.715866 157.418293 
L 417.712556 153.499627 
L 421.709246 154.854059 
L 425.705937 152.706899 
L 429.702627 155.981529 
L 433.699341 156.511036 
L 437.696032 157.006306 
L 441.692722 156.773199 
L 445.689412 153.368941 
L 449.686103 156.845696 
L 453.682793 154.062737 
L 457.679507 155.591282 
L 461.676198 156.279489 
L 465.672888 155.993234 
L 469.669578 156.641055 
L 473.666269 155.237989 
L 477.662959 156.598286 
L 481.659673 155.010754 
L 485.656364 158.32831 
" clip-path="url(#p2c8a773cd5)" style="fill: none; stroke-dasharray: 1,1.65; stroke-dashoffset: 0; stroke: #ff7f0e"/>
   </g>
   <g id="line2d_13">
    <path d="M 89.983636 179.140458 
L 93.980327 172.291437 
L 97.977023 136.269481 
L 101.973713 166.795308 
L 105.97041 134.868224 
L 109.967106 121.419341 
L 113.963796 158.932342 
L 117.960493 139.914884 
L 121.957186 139.87284 
L 125.953882 138.720763 
L 129.950576 125.193401 
L 133.947269 132.246445 
L 137.943962 108.358915 
L 141.940659 164.407063 
L 145.937352 166.634315 
L 149.934045 105.872675 
L 153.93074 172.61502 
L 157.927434 171.862001 
L 161.924129 122.455927 
L 165.920823 150.608818 
L 169.917517 183.689496 
L 173.914211 167.917574 
L 177.910906 149.741747 
L 181.9076 181.595425 
L 185.904294 118.961365 
L 189.900988 198.63321 
L 193.897681 165.372168 
L 197.894377 177.31523 
L 201.891071 163.961412 
L 205.887764 153.045508 
L 209.884457 149.710829 
L 213.881154 130.13483 
L 217.877847 133.801959 
L 221.874543 177.274218 
L 225.871234 139.051386 
L 229.86793 137.986586 
L 233.864626 94.712031 
L 237.861317 149.800918 
L 241.858013 140.043832 
L 245.854704 135.786967 
L 249.8514 142.183148 
L 253.848096 97.142994 
L 257.844787 148.661807 
L 261.841483 89.497839 
L 265.838179 182.108162 
L 269.83487 149.078654 
L 273.83156 184.871377 
L 277.828262 160.3253 
L 281.824953 165.128643 
L 285.821643 172.318469 
L 289.818345 160.565939 
L 293.815036 148.198651 
L 297.811726 117.518861 
L 301.808428 109.777871 
L 305.805119 171.289154 
L 309.801809 167.70115 
L 313.798511 146.647059 
L 317.795202 153.210402 
L 321.791892 167.426357 
L 325.788594 169.319075 
L 329.785285 171.864375 
L 333.781975 154.914438 
L 337.778677 134.446249 
L 341.775368 173.407654 
L 345.772058 157.107713 
L 349.76876 140.508532 
L 353.765451 149.51107 
L 357.762141 168.197284 
L 361.758843 168.909378 
L 365.755534 140.912719 
L 369.752224 171.887876 
L 373.748914 109.395246 
L 377.745605 156.1518 
L 381.742319 178.865236 
L 385.739009 143.803922 
L 389.7357 181.639344 
L 393.73239 176.705316 
L 397.72908 115.808283 
L 401.725771 150.956 
L 405.722485 166.280431 
L 409.719175 133.463639 
L 413.715866 146.077465 
L 417.712556 135.478423 
L 421.709246 134.368196 
L 425.705937 126.882419 
L 429.702627 165.374461 
L 433.699341 166.665847 
L 437.696032 197.848957 
L 441.692722 106.429036 
L 445.689412 166.375341 
L 449.686103 192.777699 
L 453.682793 188.111212 
L 457.679507 164.739171 
L 461.676198 180.401199 
L 465.672888 138.117873 
L 469.669578 143.700927 
L 473.666269 184.312441 
L 477.662959 172.02276 
L 481.659673 105.253539 
L 485.656364 175.987122 
" clip-path="url(#p2c8a773cd5)" style="fill: none; stroke: #1f77b4; stroke-width: 2.2; stroke-linecap: square"/>
   </g>
   <g id="line2d_14">
    <path d="M 89.983636 152.050923 
L 93.980327 175.369729 
L 97.977023 175.438226 
L 101.973713 181.665547 
L 105.97041 152.247382 
L 109.967106 151.749754 
L 113.963796 130.973561 
L 117.960493 168.521638 
L 121.957186 155.960761 
L 125.953882 106.607206 
L 129.950576 179.589604 
L 133.947269 189.50589 
L 137.943962 176.462113 
L 141.940659 168.708265 
L 145.937352 115.702089 
L 149.934045 141.662514 
L 153.93074 132.147796 
L 157.927434 170.814069 
L 161.924129 109.315727 
L 165.920823 145.037567 
L 169.917517 160.568788 
L 173.914211 173.956872 
L 177.910906 142.899561 
L 181.9076 187.907841 
L 185.904294 145.454609 
L 189.900988 128.892602 
L 193.897681 180.019277 
L 197.894377 156.288055 
L 201.891071 162.841207 
L 205.887764 134.684661 
L 209.884457 151.529211 
L 213.881154 164.460639 
L 217.877847 181.399726 
L 221.874543 126.26348 
L 225.871234 171.473715 
L 229.86793 144.889647 
L 233.864626 122.176195 
L 237.861317 105.821683 
L 241.858013 119.964422 
L 245.854704 125.517557 
L 249.8514 120.775698 
L 253.848096 142.375539 
L 257.844787 127.06885 
L 261.841483 148.407318 
L 265.838179 141.912491 
L 269.83487 139.99692 
L 273.83156 167.541249 
L 277.828262 192.975463 
L 281.824953 132.536616 
L 285.821643 89.817912 
L 289.818345 169.655084 
L 293.815036 184.532304 
L 297.811726 112.822722 
L 301.808428 138.733328 
L 305.805119 132.369919 
L 309.801809 122.39294 
L 313.798511 167.492327 
L 317.795202 175.593157 
L 321.791892 150.165257 
L 325.788594 134.764034 
L 329.785285 137.314567 
L 333.781975 115.970464 
L 337.778677 161.177843 
L 341.775368 200.07 
L 345.772058 166.52768 
L 349.76876 73.71 
L 353.765451 163.468606 
L 357.762141 161.14519 
L 361.758843 114.408395 
L 365.755534 117.718704 
L 369.752224 124.625666 
L 373.748914 157.008099 
L 377.745605 152.675723 
L 381.742319 166.51952 
L 385.739009 164.967793 
L 389.7357 165.468062 
L 393.73239 134.01264 
L 397.72908 118.566588 
L 401.725771 149.60754 
L 405.722485 119.674705 
L 409.719175 152.51878 
L 413.715866 184.353689 
L 417.712556 120.694452 
L 421.709246 123.635493 
L 425.705937 134.890787 
L 429.702627 152.023345 
L 433.699341 145.46745 
L 437.696032 160.041927 
L 441.692722 174.539976 
L 445.689412 150.215512 
L 449.686103 147.76182 
L 453.682793 83.428743 
L 457.679507 127.638792 
L 461.676198 135.592329 
L 465.672888 132.562872 
L 469.669578 172.768335 
L 473.666269 164.9502 
L 477.662959 173.949938 
L 481.659673 169.758696 
L 485.656364 98.747519 
" clip-path="url(#p2c8a773cd5)" style="fill: none; stroke: #ff7f0e; stroke-width: 2.2; stroke-linecap: square"/>
   </g>
   <g id="patch_3">
    <path d="M 70.2 206.388 
L 70.2 67.392 
" style="fill: none; stroke: #000000; stroke-width: 0.8; stroke-linejoin: miter; stroke-linecap: square"/>
   </g>
   <g id="patch_4">
    <path d="M 505.44 206.388 
L 505.44 67.392 
" style="fill: none; stroke: #000000; stroke-width: 0.8; stroke-linejoin: miter; stroke-linecap: square"/>
   </g>
   <g id="patch_5">
    <path d="M 70.2 206.388 
L 505.44 206.388 
" style="fill: none; stroke: #000000; stroke-width: 0.8; stroke-linejoin: miter; stroke-linecap: square"/>
   </g>
   <g id="patch_6">
    <path d="M 70.2 67.392 
L 505.44 67.392 
" style="fill: none; stroke: #000000; stroke-width: 0.8; stroke-linejoin: miter; stroke-linecap: square"/>
   </g>
   <g id="text_11">
    <!-- (MFEF vs MLIP) — R-flow — Panel A: overlay + null bands -->
    <g transform="translate(116.584688 61.392) scale(0.12 -0.12)">
     <defs>
      <path id="DejaVuSans-4d" d="M 628 4666 
L 1569 4666 
L 2759 1491 
L 3956 4666 
L 4897 4666 
L 4897 0 
L 4281 0 
L 4281 4097 
L 3078 897 
L 2444 897 
L 1241 4097 
L 1241 0 
L 628 0 
L 628 4666 
z
" transform="scale(0.015625)"/>
      <path id="DejaVuSans-46" d="M 628 4666 
L 3309 4666 
L 3309 4134 
L 1259 4134 
L 1259 2759 
L 3109 2759 
L 3109 2228 
L 1259 2228 
L 1259 0 
L 628 0 
L 628 4666 
z
" transform="scale(0.015625)"/>
      <path id="DejaVuSans-45" d="M 628 4666 
L 3578 4666 
L 3578 4134 
L 1259 4134 
L 1259 2753 
L 3481 2753 
L 3481 2222 
L 1259 2222 
L 1259 531 
L 3634 531 
L 3634 0 
L 628 0 
L 628 4666 
z
" transform="scale(0.015625)"/>
      <path id="DejaVuSans-76" d="M 191 3500 
L 800 3500 
L 1894 563 
L 2988 3500 
L 3597 3500 
L 2284 0 
L 1503 0 
L 191 3500 
z
" transform="scale(0.015625)"/>
      <path id="DejaVuSans-49" d="M 628 4666 
L 1259 4666 
L 1259 0 
L 628 0 
L 628 4666 
z
" transform="scale(0.015625)"/>
      <path id="DejaVuSans-50" d="M 1259 4147 
L 1259 2394 
L 2053 2394 
Q 2494 2394 2734 2622 
Q 2975 2850 2975 3272 
Q 2975 3691 2734 3919 
Q 2494 4147 2053 4147 
L 1259 4147 
z
M 628 4666 
L 2053 4666 
Q 2838 4666 3239 4311 
Q 3641 3956 3641 3272 
Q 3641 2581 3239 2228 
Q 2838 1875 2053 1875 
L 1259 1875 
L 1259 0 
L 628 0 
L 628 4666 
z
" transform="scale(0.015625)"/>
      <path id="DejaVuSans-2014" d="M 313 1978 
L 6088 1978 
L 6088 1528 
L 313 1528 
L 313 1978 
z
" transform="scale(0.015625)"/>
      <path id="DejaVuSans-52" d="M 2841 2188 
Q 3044 2119 3236 1894 
Q 3428 1669 3622 1275 
L 4263 0 
L 3584 0 
L 2988 1197 
Q 2756 1666 2539 1819 
Q 2322 1972 1947 1972 
L 1259 1972 
L 1259 0 
L 628 0 
L 628 4666 
L 2053 4666 
Q 2853 4666 3247 4331 
Q 3641 3997 3641 3322 
Q 3641 2881 3436 2590 
Q 3231 2300 2841 2188 
z
M 1259 4147 
L 1259 2491 
L 2053 2491 
Q 2509 2491 2742 2702 
Q 2975 2913 2975 3322 
Q 2975 3731 2742 3939 
Q 2509 4147 2053 4147 
L 1259 4147 
z
" transform="scale(0.015625)"/>
      <path id="DejaVuSans-2d" d="M 313 2009 
L 1997 2009 
L 1997 1497 
L 313 1497 
L 313 2009 
z
" transform="scale(0.015625)"/>
      <path id="DejaVuSans-66" d="M 2375 4863 
L 2375 4384 
L 1825 4384 
Q 1516 4384 1395 4259 
Q 1275 4134 1275 3809 
L 1275 3500 
L 2222 3500 
L 2222 3053 
L 1275 3053 
L 1275 0 
L 697 0 
L 697 3053 
L 147 3053 
L 147 3500 
L 697 3500 
L 697 3744 
Q 697 4328 969 4595 
Q 1241 4863 1831 4863 
L 2375 4863 
z
" transform="scale(0.015625)"/>
      <path id="DejaVuSans-6c" d="M 603 4863 
L 1178 4863 
L 1178 0 
L 603 0 
L 603 4863 
z
" transform="scale(0.015625)"/>
      <path id="DejaVuSans-6f" d="M 1959 3097 
Q 1497 3097 1228 2736 
Q 959 2375 959 1747 
Q 959 1119 1226 758 
Q 1494 397 1959 397 
Q 2419 397 2687 759 
Q 2956 1122 2956 1747 
Q 2956 2369 2687 2733 
Q 2419 3097 1959 3097 
z
M 1959 3584 
Q 2709 3584 3137 3096 
Q 3566 2609 3566 1747 
Q 3566 888 3137 398 
Q 2709 -91 1959 -91 
Q 1206 -91 779 398 
Q 353 888 353 1747 
Q 353 2609 779 3096 
Q 1206 3584 1959 3584 
z
" transform="scale(0.015625)"/>
      <path id="DejaVuSans-77" d="M 269 3500 
L 844 3500 
L 1563 769 
L 2278 3500 
L 2956 3500 
L 3675 769 
L 4391 3500 
L 4966 3500 
L 4050 0 
L 3372 0 
L 2619 2869 
L 1863 0 
L 1184 0 
L 269 3500 
z
" transform="scale(0.015625)"/>
      <path id="DejaVuSans-61" d="M 2194 1759 
Q 1497 1759 1228 1600 
Q 959 1441 959 1056 
Q 959 750 1161 570 
Q 1363 391 1709 391 
Q 2188 391 2477 730 
Q 2766 1069 2766 1631 
L 2766 1759 
L 2194 1759 
z
M 3341 1997 
L 3341 0 
L 2766 0 
L 2766 531 
Q 2569 213 2275 61 
Q 1981 -91 1556 -91 
Q 1019 -91 701 211 
Q 384 513 384 1019 
Q 384 1609 779 1909 
Q 1175 2209 1959 2209 
L 2766 2209 
L 2766 2266 
Q 2766 2663 2505 2880 
Q 2244 3097 1772 3097 
Q 1472 3097 1187 3025 
Q 903 2953 641 2809 
L 641 3341 
Q 956 3463 1253 3523 
Q 1550 3584 1831 3584 
Q 2591 3584 2966 3190 
Q 3341 2797 3341 1997 
z
" transform="scale(0.015625)"/>
      <path id="DejaVuSans-6e" d="M 3513 2113 
L 3513 0 
L 2938 0 
L 2938 2094 
Q 2938 2591 2744 2837 
Q 2550 3084 2163 3084 
Q 1697 3084 1428 2787 
Q 1159 2491 1159 1978 
L 1159 0 
L 581 0 
L 581 3500 
L 1159 3500 
L 1159 2956 
Q 1366 3272 1645 3428 
Q 1925 3584 2291 3584 
Q 2894 3584 3203 3211 
Q 3513 2838 3513 2113 
z
" transform="scale(0.015625)"/>
      <path id="DejaVuSans-65" d="M 3597 1894 
L 3597 1613 
L 953 1613 
Q 991 1019 1311 708 
Q 1631 397 2203 397 
Q 2534 397 2845 478 
Q 3156 559 3463 722 
L 3463 178 
Q 3153 47 2828 -22 
Q 2503 -91 2169 -91 
Q 1331 -91 842 396 
Q 353 884 353 1716 
Q 353 2575 817 3079 
Q 1281 3584 2069 3584 
Q 2775 3584 3186 3129 
Q 3597 2675 3597 1894 
z
M 3022 2063 
Q 3016 2534 2758 2815 
Q 2500 3097 2075 3097 
Q 1594 3097 1305 2825 
Q 1016 2553 972 2059 
L 3022 2063 
z
" transform="scale(0.015625)"/>
      <path id="DejaVuSans-41" d="M 2188 4044 
L 1331 1722 
L 3047 1722 
L 2188 4044 
z
M 1831 4666 
L 2547 4666 
L 4325 0 
L 3669 0 
L 3244 1197 
L 1141 1197 
L 716 0 
L 50 0 
L 1831 4666 
z
" transform="scale(0.015625)"/>
      <path id="DejaVuSans-3a" d="M 750 794 
L 1409 794 
L 1409 0 
L 750 0 
L 750 794 
z
M 750 3309 
L 1409 3309 
L 1409 2516 
L 750 2516 
L 750 3309 
z
" transform="scale(0.015625)"/>
      <path id="DejaVuSans-72" d="M 2631 2963 
Q 2534 3019 2420 3045 
Q 2306 3072 2169 3072 
Q 1681 3072 1420 2755 
Q 1159 2438 1159 1844 
L 1159 0 
L 581 0 
L 581 3500 
L 1159 3500 
L 1159 2956 
Q 1341 3275 1631 3429 
Q 1922 3584 2338 3584 
Q 2397 3584 2469 3576 
Q 2541 3569 2628 3553 
L 2631 2963 
z
" transform="scale(0.015625)"/>
      <path id="DejaVuSans-79" d="M 2059 -325 
Q 1816 -950 1584 -1140 
Q 1353 -1331 966 -1331 
L 506 -1331 
L 506 -850 
L 844 -850 
Q 1081 -850 1212 -737 
Q 1344 -625 1503 -206 
L 1606 56 
L 191 3500 
L 800 3500 
L 1894 763 
L 2988 3500 
L 3597 3500 
L 2059 -325 
z
" transform="scale(0.015625)"/>
      <path id="DejaVuSans-2b" d="M 2944 4013 
L 2944 2272 
L 4684 2272 
L 4684 1741 
L 2944 1741 
L 2944 0 
L 2419 0 
L 2419 1741 
L 678 1741 
L 678 2272 
L 2419 2272 
L 2419 4013 
L 2944 4013 
z
" transform="scale(0.015625)"/>
      <path id="DejaVuSans-75" d="M 544 1381 
L 544 3500 
L 1119 3500 
L 1119 1403 
Q 1119 906 1312 657 
Q 1506 409 1894 409 
Q 2359 409 2629 706 
Q 2900 1003 2900 1516 
L 2900 3500 
L 3475 3500 
L 3475 0 
L 2900 0 
L 2900 538 
Q 2691 219 2414 64 
Q 2138 -91 1772 -91 
Q 1169 -91 856 284 
Q 544 659 544 1381 
z
M 1991 3584 
L 1991 3584 
z
" transform="scale(0.015625)"/>
      <path id="DejaVuSans-64" d="M 2906 2969 
L 2906 4863 
L 3481 4863 
L 3481 0 
L 2906 0 
L 2906 525 
Q 2725 213 2448 61 
Q 2172 -91 1784 -91 
Q 1150 -91 751 415 
Q 353 922 353 1747 
Q 353 2572 751 3078 
Q 1150 3584 1784 3584 
Q 2172 3584 2448 3432 
Q 2725 3281 2906 2969 
z
M 947 1747 
Q 947 1113 1208 752 
Q 1469 391 1925 391 
Q 2381 391 2643 752 
Q 2906 1113 2906 1747 
Q 2906 2381 2643 2742 
Q 2381 3103 1925 3103 
Q 1469 3103 1208 2742 
Q 947 2381 947 1747 
z
" transform="scale(0.015625)"/>
     </defs>
     <use xlink:href="#DejaVuSans-28"/>
     <use xlink:href="#DejaVuSans-4d" transform="translate(39.013672 0)"/>
     <use xlink:href="#DejaVuSans-46" transform="translate(125.292969 0)"/>
     <use xlink:href="#DejaVuSans-45" transform="translate(182.8125 0)"/>
     <use xlink:href="#DejaVuSans-46" transform="translate(245.996094 0)"/>
     <use xlink:href="#DejaVuSans-20" transform="translate(303.515625 0)"/>
     <use xlink:href="#DejaVuSans-76" transform="translate(335.302734 0)"/>
     <use xlink:href="#DejaVuSans-73" transform="translate(394.482422 0)"/>
     <use xlink:href="#DejaVuSans-20" transform="translate(446.582031 0)"/>
     <use xlink:href="#DejaVuSans-4d" transform="translate(478.369141 0)"/>
     <use xlink:href="#DejaVuSans-4c" transform="translate(564.648438 0)"/>
     <use xlink:href="#DejaVuSans-49" transform="translate(620.361328 0)"/>
     <use xlink:href="#DejaVuSans-50" transform="translate(649.853516 0)"/>
     <use xlink:href="#DejaVuSans-29" transform="translate(710.15625 0)"/>
     <use xlink:href="#DejaVuSans-20" transform="translate(749.169922 0)"/>
     <use xlink:href="#DejaVuSans-2014" transform="translate(780.957031 0)"/>
     <use xlink:href="#DejaVuSans-20" transform="translate(880.957031 0)"/>
     <use xlink:href="#DejaVuSans-52" transform="translate(912.744141 0)"/>
     <use xlink:href="#DejaVuSans-2d" transform="translate(978.226562 0)"/>
     <use xlink:href="#DejaVuSans-66" transform="translate(1014.310547 0)"/>
     <use xlink:href="#DejaVuSans-6c" transform="translate(1049.515625 0)"/>
     <use xlink:href="#DejaVuSans-6f" transform="translate(1077.298828 0)"/>
     <use xlink:href="#DejaVuSans-77" transform="translate(1138.480469 0)"/>
     <use xlink:href="#DejaVuSans-20" transform="translate(1220.267578 0)"/>
     <use xlink:href="#DejaVuSans-2014" transform="translate(1252.054688 0)"/>
     <use xlink:href="#DejaVuSans-20" transform="translate(1352.054688 0)"/>
     <use xlink:href="#DejaVuSans-50" transform="translate(1383.841797 0)"/>
     <use xlink:href="#DejaVuSans-61" transform="translate(1439.644531 0)"/>
     <use xlink:href="#DejaVuSans-6e" transform="translate(1500.923828 0)"/>
     <use xlink:href="#DejaVuSans-65" transform="translate(1564.302734 0)"/>
     <use xlink:href="#DejaVuSans-6c" transform="translate(1625.826172 0)"/>
     <use xlink:href="#DejaVuSans-20" transform="translate(1653.609375 0)"/>
     <use xlink:href="#DejaVuSans-41" transform="translate(1685.396484 0)"/>
     <use xlink:href="#DejaVuSans-3a" transform="translate(1752.054688 0)"/>
     <use xlink:href="#DejaVuSans-20" transform="translate(1785.746094 0)"/>
     <use xlink:href="#DejaVuSans-6f" transform="translate(1817.533203 0)"/>
     <use xlink:href="#DejaVuSans-76" transform="translate(1878.714844 0)"/>
     <use xlink:href="#DejaVuSans-65" transform="translate(1937.894531 0)"/>
     <use xlink:href="#DejaVuSans-72" transform="translate(1999.417969 0)"/>
     <use xlink:href="#DejaVuSans-6c" transform="translate(2040.53125 0)"/>
     <use xlink:href="#DejaVuSans-61" transform="translate(2068.314453 0)"/>
     <use xlink:href="#DejaVuSans-79" transform="translate(2129.59375 0)"/>
     <use xlink:href="#DejaVuSans-20" transform="translate(2188.773438 0)"/>
     <use xlink:href="#DejaVuSans-2b" transform="translate(2220.560547 0)"/>
     <use xlink:href="#DejaVuSans-20" transform="translate(2304.349609 0)"/>
     <use xlink:href="#DejaVuSans-6e" transform="translate(2336.136719 0)"/>
     <use xlink:href="#DejaVuSans-75" transform="translate(2399.515625 0)"/>
     <use xlink:href="#DejaVuSans-6c" transform="translate(2462.894531 0)"/>
     <use xlink:href="#DejaVuSans-6c" transform="translate(2490.677734 0)"/>
     <use xlink:href="#DejaVuSans-20" transform="translate(2518.460938 0)"/>
     <use xlink:href="#DejaVuSans-62" transform="translate(2550.248047 0)"/>
     <use xlink:href="#DejaVuSans-61" transform="translate(2613.724609 0)"/>
     <use xlink:href="#DejaVuSans-6e" transform="translate(2675.003906 0)"/>
     <use xlink:href="#DejaVuSans-64" transform="translate(2738.382812 0)"/>
     <use xlink:href="#DejaVuSans-73" transform="translate(2801.859375 0)"/>
    </g>
   </g>
   <g id="legend_1">
    <g id="patch_7">
     <path d="M 79.2 83.990437 
L 99.2 83.990437 
L 99.2 76.990437 
L 79.2 76.990437 
z
" style="fill: #1f77b4; fill-opacity: 0.15"/>
    </g>
    <g id="text_12">
     <!-- MFEF→MLIP null μ±σ -->
     <g transform="translate(107.2 83.990437) scale(0.1 -0.1)">
      <defs>
       <path id="DejaVuSans-2192" d="M 5050 2147 
L 5050 1866 
L 3822 638 
L 3447 1013 
L 4175 1741 
L 366 1741 
L 366 2272 
L 4175 2272 
L 3447 3000 
L 3822 3375 
L 5050 2147 
z
" transform="scale(0.015625)"/>
       <path id="DejaVuSans-3bc" d="M 544 -1331 
L 544 3500 
L 1119 3500 
L 1119 1325 
Q 1119 872 1334 640 
Q 1550 409 1972 409 
Q 2434 409 2667 671 
Q 2900 934 2900 1459 
L 2900 3500 
L 3475 3500 
L 3475 806 
Q 3475 619 3529 530 
Q 3584 441 3700 441 
Q 3728 441 3778 458 
Q 3828 475 3916 513 
L 3916 50 
Q 3788 -22 3673 -56 
Q 3559 -91 3450 -91 
Q 3234 -91 3106 31 
Q 2978 153 2931 403 
Q 2775 156 2548 32 
Q 2322 -91 2016 -91 
Q 1697 -91 1473 31 
Q 1250 153 1119 397 
L 1119 -1331 
L 544 -1331 
z
" transform="scale(0.015625)"/>
       <path id="DejaVuSans-b1" d="M 2944 4013 
L 2944 2803 
L 4684 2803 
L 4684 2272 
L 2944 2272 
L 2944 1063 
L 2419 1063 
L 2419 2272 
L 678 2272 
L 678 2803 
L 2419 2803 
L 2419 4013 
L 2944 4013 
z
M 678 531 
L 4684 531 
L 4684 0 
L 678 0 
L 678 531 
z
" transform="scale(0.015625)"/>
       <path id="DejaVuSans-3c3" d="M 1959 3044 
Q 1484 3044 1228 2700 
Q 959 2341 959 1747 
Q 959 1119 1226 758 
Q 1494 397 1959 397 
Q 2419 397 2687 759 
Q 2956 1122 2956 1747 
Q 2956 2319 2688 2700 
Q 2441 3044 1959 3044 
z
M 1959 3500 
L 3869 3500 
L 3869 2925 
L 3225 2925 
Q 3566 2438 3566 1747 
Q 3566 888 3138 400 
Q 2709 -91 1959 -91 
Q 1206 -91 781 400 
Q 353 888 353 1747 
Q 353 2613 781 3097 
Q 1134 3500 1959 3500 
z
" transform="scale(0.015625)"/>
      </defs>
      <use xlink:href="#DejaVuSans-4d"/>
      <use xlink:href="#DejaVuSans-46" transform="translate(86.279297 0)"/>
      <use xlink:href="#DejaVuSans-45" transform="translate(143.798828 0)"/>
      <use xlink:href="#DejaVuSans-46" transform="translate(206.982422 0)"/>
      <use xlink:href="#DejaVuSans-2192" transform="translate(264.501953 0)"/>
      <use xlink:href="#DejaVuSans-4d" transform="translate(348.291016 0)"/>
      <use xlink:href="#DejaVuSans-4c" transform="translate(434.570312 0)"/>
      <use xlink:href="#DejaVuSans-49" transform="translate(490.283203 0)"/>
      <use xlink:href="#DejaVuSans-50" transform="translate(519.775391 0)"/>
      <use xlink:href="#DejaVuSans-20" transform="translate(580.078125 0)"/>
      <use xlink:href="#DejaVuSans-6e" transform="translate(611.865234 0)"/>
      <use xlink:href="#DejaVuSans-75" transform="translate(675.244141 0)"/>
      <use xlink:href="#DejaVuSans-6c" transform="translate(738.623047 0)"/>
      <use xlink:href="#DejaVuSans-6c" transform="translate(766.40625 0)"/>
      <use xlink:href="#DejaVuSans-20" transform="translate(794.189453 0)"/>
      <use xlink:href="#DejaVuSans-3bc" transform="translate(825.976562 0)"/>
      <use xlink:href="#DejaVuSans-b1" transform="translate(889.599609 0)"/>
      <use xlink:href="#DejaVuSans-3c3" transform="translate(973.388672 0)"/>
     </g>
    </g>
    <g id="patch_8">
     <path d="M 79.2 98.668563 
L 99.2 98.668563 
L 99.2 91.668563 
L 79.2 91.668563 
z
" style="fill: #ff7f0e; fill-opacity: 0.15"/>
    </g>
    <g id="text_13">
     <!-- MLIP→MFEF null μ±σ -->
     <g transform="translate(107.2 98.668563) scale(0.1 -0.1)">
      <use xlink:href="#DejaVuSans-4d"/>
      <use xlink:href="#DejaVuSans-4c" transform="translate(86.279297 0)"/>
      <use xlink:href="#DejaVuSans-49" transform="translate(141.992188 0)"/>
      <use xlink:href="#DejaVuSans-50" transform="translate(171.484375 0)"/>
      <use xlink:href="#DejaVuSans-2192" transform="translate(231.787109 0)"/>
      <use xlink:href="#DejaVuSans-4d" transform="translate(315.576172 0)"/>
      <use xlink:href="#DejaVuSans-46" transform="translate(401.855469 0)"/>
      <use xlink:href="#DejaVuSans-45" transform="translate(459.375 0)"/>
      <use xlink:href="#DejaVuSans-46" transform="translate(522.558594 0)"/>
      <use xlink:href="#DejaVuSans-20" transform="translate(580.078125 0)"/>
      <use xlink:href="#DejaVuSans-6e" transform="translate(611.865234 0)"/>
      <use xlink:href="#DejaVuSans-75" transform="translate(675.244141 0)"/>
      <use xlink:href="#DejaVuSans-6c" transform="translate(738.623047 0)"/>
      <use xlink:href="#DejaVuSans-6c" transform="translate(766.40625 0)"/>
      <use xlink:href="#DejaVuSans-20" transform="translate(794.189453 0)"/>
      <use xlink:href="#DejaVuSans-3bc" transform="translate(825.976562 0)"/>
      <use xlink:href="#DejaVuSans-b1" transform="translate(889.599609 0)"/>
      <use xlink:href="#DejaVuSans-3c3" transform="translate(973.388672 0)"/>
     </g>
    </g>
    <g id="line2d_15">
     <path d="M 230.876562 80.490437 
L 240.876562 80.490437 
L 250.876562 80.490437 
" style="fill: none; stroke: #1f77b4; stroke-width: 2.2; stroke-linecap: square"/>
    </g>
    <g id="text_14">
     <!-- MFEF→MLIP -->
     <g transform="translate(258.876562 83.990437) scale(0.1 -0.1)">
      <use xlink:href="#DejaVuSans-4d"/>
      <use xlink:href="#DejaVuSans-46" transform="translate(86.279297 0)"/>
      <use xlink:href="#DejaVuSans-45" transform="translate(143.798828 0)"/>
      <use xlink:href="#DejaVuSans-46" transform="translate(206.982422 0)"/>
      <use xlink:href="#DejaVuSans-2192" transform="translate(264.501953 0)"/>
      <use xlink:href="#DejaVuSans-4d" transform="translate(348.291016 0)"/>
      <use xlink:href="#DejaVuSans-4c" transform="translate(434.570312 0)"/>
      <use xlink:href="#DejaVuSans-49" transform="translate(490.283203 0)"/>
      <use xlink:href="#DejaVuSans-50" transform="translate(519.775391 0)"/>
     </g>
    </g>
    <g id="line2d_16">
     <path d="M 230.876562 95.168563 
L 240.876562 95.168563 
L 250.876562 95.168563 
" style="fill: none; stroke: #ff7f0e; stroke-width: 2.2; stroke-linecap: square"/>
    </g>
    <g id="text_15">
     <!-- MLIP→MFEF -->
     <g transform="translate(258.876562 98.668563) scale(0.1 -0.1)">
      <use xlink:href="#DejaVuSans-4d"/>
      <use xlink:href="#DejaVuSans-4c" transform="translate(86.279297 0)"/>
      <use xlink:href="#DejaVuSans-49" transform="translate(141.992188 0)"/>
      <use xlink:href="#DejaVuSans-50" transform="translate(171.484375 0)"/>
      <use xlink:href="#DejaVuSans-2192" transform="translate(231.787109 0)"/>
      <use xlink:href="#DejaVuSans-4d" transform="translate(315.576172 0)"/>
      <use xlink:href="#DejaVuSans-46" transform="translate(401.855469 0)"/>
      <use xlink:href="#DejaVuSans-45" transform="translate(459.375 0)"/>
      <use xlink:href="#DejaVuSans-46" transform="translate(522.558594 0)"/>
     </g>
    </g>
   </g>
  </g>
  <g id="axes_2">
   <g id="patch_9">
    <path d="M 70.2 353.106 
L 505.44 353.106 
L 505.44 237.276 
L 70.2 237.276 
z
" style="fill: #ffffff"/>
   </g>
   <g id="matplotlib.axis_3">
    <g id="xtick_7">
     <g id="line2d_17">
      <g>
       <use xlink:href="#m8ab2a5c9aa" x="87.985286" y="353.106" style="stroke: #000000; stroke-width: 0.8"/>
      </g>
     </g>
     <g id="text_16">
      <!-- −200 -->
      <g transform="translate(74.251693 367.704438) scale(0.1 -0.1)">
       <use xlink:href="#DejaVuSans-2212"/>
       <use xlink:href="#DejaVuSans-32" transform="translate(83.789062 0)"/>
       <use xlink:href="#DejaVuSans-30" transform="translate(147.412109 0)"/>
       <use xlink:href="#DejaVuSans-30" transform="translate(211.035156 0)"/>
      </g>
     </g>
    </g>
    <g id="xtick_8">
     <g id="line2d_18">
      <g>
       <use xlink:href="#m8ab2a5c9aa" x="167.91917" y="353.106" style="stroke: #000000; stroke-width: 0.8"/>
      </g>
     </g>
     <g id="text_17">
      <!-- 0 -->
      <g transform="translate(164.73792 367.704438) scale(0.1 -0.1)">
       <use xlink:href="#DejaVuSans-30"/>
      </g>
     </g>
    </g>
    <g id="xtick_9">
     <g id="line2d_19">
      <g>
       <use xlink:href="#m8ab2a5c9aa" x="247.853053" y="353.106" style="stroke: #000000; stroke-width: 0.8"/>
      </g>
     </g>
     <g id="text_18">
      <!-- 200 -->
      <g transform="translate(238.309303 367.704438) scale(0.1 -0.1)">
       <use xlink:href="#DejaVuSans-32"/>
       <use xlink:href="#DejaVuSans-30" transform="translate(63.623047 0)"/>
       <use xlink:href="#DejaVuSans-30" transform="translate(127.246094 0)"/>
      </g>
     </g>
    </g>
    <g id="xtick_10">
     <g id="line2d_20">
      <g>
       <use xlink:href="#m8ab2a5c9aa" x="327.786937" y="353.106" style="stroke: #000000; stroke-width: 0.8"/>
      </g>
     </g>
     <g id="text_19">
      <!-- 400 -->
      <g transform="translate(318.243187 367.704438) scale(0.1 -0.1)">
       <use xlink:href="#DejaVuSans-34"/>
       <use xlink:href="#DejaVuSans-30" transform="translate(63.623047 0)"/>
       <use xlink:href="#DejaVuSans-30" transform="translate(127.246094 0)"/>
      </g>
     </g>
    </g>
    <g id="xtick_11">
     <g id="line2d_21">
      <g>
       <use xlink:href="#m8ab2a5c9aa" x="407.720821" y="353.106" style="stroke: #000000; stroke-width: 0.8"/>
      </g>
     </g>
     <g id="text_20">
      <!-- 600 -->
      <g transform="translate(398.177071 367.704438) scale(0.1 -0.1)">
       <use xlink:href="#DejaVuSans-36"/>
       <use xlink:href="#DejaVuSans-30" transform="translate(63.623047 0)"/>
       <use xlink:href="#DejaVuSans-30" transform="translate(127.246094 0)"/>
      </g>
     </g>
    </g>
    <g id="xtick_12">
     <g id="line2d_22">
      <g>
       <use xlink:href="#m8ab2a5c9aa" x="487.654704" y="353.106" style="stroke: #000000; stroke-width: 0.8"/>
      </g>
     </g>
     <g id="text_21">
      <!-- 800 -->
      <g transform="translate(478.110954 367.704438) scale(0.1 -0.1)">
       <use xlink:href="#DejaVuSans-38"/>
       <use xlink:href="#DejaVuSans-30" transform="translate(63.623047 0)"/>
       <use xlink:href="#DejaVuSans-30" transform="translate(127.246094 0)"/>
      </g>
     </g>
    </g>
   </g>
   <g id="matplotlib.axis_4">
    <g id="ytick_4">
     <g id="line2d_23">
      <g>
       <use xlink:href="#mbb0de3c60f" x="70.2" y="336.563248" style="stroke: #000000; stroke-width: 0.8"/>
      </g>
     </g>
     <g id="text_22">
      <!-- −10 -->
      <g transform="translate(42.095313 340.362466) scale(0.1 -0.1)">
       <use xlink:href="#DejaVuSans-2212"/>
       <use xlink:href="#DejaVuSans-31" transform="translate(83.789062 0)"/>
       <use xlink:href="#DejaVuSans-30" transform="translate(147.412109 0)"/>
      </g>
     </g>
    </g>
    <g id="ytick_5">
     <g id="line2d_24">
      <g>
       <use xlink:href="#mbb0de3c60f" x="70.2" y="310.305467" style="stroke: #000000; stroke-width: 0.8"/>
      </g>
     </g>
     <g id="text_23">
      <!-- −5 -->
      <g transform="translate(48.457813 314.104686) scale(0.1 -0.1)">
       <use xlink:href="#DejaVuSans-2212"/>
       <use xlink:href="#DejaVuSans-35" transform="translate(83.789062 0)"/>
      </g>
     </g>
    </g>
    <g id="ytick_6">
     <g id="line2d_25">
      <g>
       <use xlink:href="#mbb0de3c60f" x="70.2" y="284.047687" style="stroke: #000000; stroke-width: 0.8"/>
      </g>
     </g>
     <g id="text_24">
      <!-- 0 -->
      <g transform="translate(56.8375 287.846906) scale(0.1 -0.1)">
       <use xlink:href="#DejaVuSans-30"/>
      </g>
     </g>
    </g>
    <g id="ytick_7">
     <g id="line2d_26">
      <g>
       <use xlink:href="#mbb0de3c60f" x="70.2" y="257.789907" style="stroke: #000000; stroke-width: 0.8"/>
      </g>
     </g>
     <g id="text_25">
      <!-- 5 -->
      <g transform="translate(56.8375 261.589126) scale(0.1 -0.1)">
       <use xlink:href="#DejaVuSans-35"/>
      </g>
     </g>
    </g>
    <g id="text_26">
     <!-- ΔΔLL (bits) -->
     <g transform="translate(36.015625 322.22225) rotate(-90) scale(0.1 -0.1)">
      <use xlink:href="#DejaVuSans-394"/>
      <use xlink:href="#DejaVuSans-394" transform="translate(68.408203 0)"/>
      <use xlink:href="#DejaVuSans-4c" transform="translate(136.816406 0)"/>
      <use xlink:href="#DejaVuSans-4c" transform="translate(192.529297 0)"/>
      <use xlink:href="#DejaVuSans-20" transform="translate(248.242188 0)"/>
      <use xlink:href="#DejaVuSans-28" transform="translate(280.029297 0)"/>
      <use xlink:href="#DejaVuSans-62" transform="translate(319.042969 0)"/>
      <use xlink:href="#DejaVuSans-69" transform="translate(382.519531 0)"/>
      <use xlink:href="#DejaVuSans-74" transform="translate(410.302734 0)"/>
      <use xlink:href="#DejaVuSans-73" transform="translate(449.511719 0)"/>
      <use xlink:href="#DejaVuSans-29" transform="translate(501.611328 0)"/>
     </g>
    </g>
   </g>
   <g id="line2d_27">
    <path d="M 167.91917 353.106 
L 167.91917 237.276 
" clip-path="url(#pa08364108a)" style="fill: none; stroke-dasharray: 2.96,1.28; stroke-dashoffset: 0; stroke: #000000; stroke-width: 0.8"/>
   </g>
   <g id="line2d_28">
    <path d="M 70.2 284.047687 
L 505.44 284.047687 
" clip-path="url(#pa08364108a)" style="fill: none; stroke-dasharray: 0.8,1.32; stroke-dashoffset: 0; stroke: #000000; stroke-width: 0.8"/>
   </g>
   <g id="line2d_29">
    <path d="M 89.983636 300.556002 
L 93.980327 282.171781 
L 97.977023 260.178322 
L 101.973713 274.98579 
L 105.97041 273.456859 
L 109.967106 265.564387 
L 113.963796 301.08572 
L 117.960493 266.614782 
L 121.957186 274.243736 
L 125.953882 303.617632 
L 129.950576 250.898737 
L 133.947269 249.153882 
L 137.943962 242.545718 
L 141.940659 281.426543 
L 145.937352 315.085697 
L 149.934045 262.237422 
L 153.93074 308.708343 
L 157.927434 284.686295 
L 161.924129 292.055302 
L 165.920823 287.442798 
L 169.917517 298.137406 
L 173.914211 280.36735 
L 177.910906 288.217303 
L 181.9076 280.200912 
L 185.904294 267.902751 
L 189.900988 326.547492 
L 193.897681 275.121765 
L 197.894377 296.861611 
L 201.891071 284.730339 
L 205.887764 295.236756 
L 209.884457 282.939569 
L 213.881154 263.1296 
L 217.877847 255.041692 
L 221.874543 315.133542 
L 225.871234 264.289577 
L 229.86793 279.840974 
L 233.864626 267.311074 
L 237.861317 310.848556 
L 241.858013 296.284044 
L 245.854704 290.305848 
L 249.8514 297.09335 
L 253.848096 256.483053 
L 257.844787 297.206397 
L 261.841483 248.148354 
L 265.838179 308.542859 
L 269.83487 289.58208 
L 273.83156 294.608637 
L 277.828262 264.150735 
L 281.824953 303.909212 
L 285.821643 334.323382 
L 289.818345 278.508778 
L 293.815036 261.906023 
L 297.811726 286.909506 
L 301.808428 266.402283 
L 305.805119 307.765001 
L 309.801809 311.658431 
L 313.798511 271.344618 
L 317.795202 270.407676 
L 321.791892 294.566571 
L 325.788594 305.105469 
L 329.785285 305.10228 
L 333.781975 307.780076 
L 337.778677 267.757501 
L 341.775368 267.7997 
L 345.772058 278.307176 
L 349.76876 324.754595 
L 353.765451 275.54199 
L 357.762141 288.345221 
L 361.758843 317.260491 
L 365.755534 298.182079 
L 369.752224 312.849196 
L 373.748914 255.032498 
L 377.745605 286.166003 
L 381.742319 291.571145 
L 385.739009 271.150462 
L 389.7357 293.902438 
L 393.73239 310.06453 
L 397.72908 282.366781 
L 401.725771 284.869437 
L 405.722485 312.449135 
L 409.719175 272.435518 
L 413.715866 260.722224 
L 417.712556 293.057013 
L 421.709246 290.588178 
L 425.705937 279.167402 
L 429.702627 292.183834 
L 433.699341 296.965953 
L 437.696032 307.087225 
L 441.692722 242.541 
L 445.689412 293.895459 
L 449.686103 311.480285 
L 453.682793 347.841 
L 457.679507 306.656593 
L 461.676198 311.354134 
L 465.672888 287.432895 
L 469.669578 266.33406 
L 473.666269 295.847003 
L 477.662959 282.873268 
L 481.659673 244.738358 
L 485.656364 331.117366 
" clip-path="url(#pa08364108a)" style="fill: none; stroke: #d62728; stroke-width: 2.2; stroke-linecap: square"/>
   </g>
   <g id="line2d_30">
    <defs>
     <path id="m5853ee6928" d="M 0 1.25 
C 0.331504 1.25 0.649475 1.118292 0.883883 0.883883 
C 1.118292 0.649475 1.25 0.331504 1.25 0 
C 1.25 -0.331504 1.118292 -0.649475 0.883883 -0.883883 
C 0.649475 -1.118292 0.331504 -1.25 0 -1.25 
C -0.331504 -1.25 -0.649475 -1.118292 -0.883883 -0.883883 
C -1.118292 -0.649475 -1.25 -0.331504 -1.25 0 
C -1.25 0.331504 -1.118292 0.649475 -0.883883 0.883883 
C -0.649475 1.118292 -0.331504 1.25 0 1.25 
z
" style="stroke: #000000"/>
    </defs>
    <g clip-path="url(#pa08364108a)">
     <use xlink:href="#m5853ee6928" x="125.953882" y="303.617632" style="stroke: #000000"/>
     <use xlink:href="#m5853ee6928" x="137.943962" y="242.545718" style="stroke: #000000"/>
     <use xlink:href="#m5853ee6928" x="145.937352" y="315.085697" style="stroke: #000000"/>
     <use xlink:href="#m5853ee6928" x="149.934045" y="262.237422" style="stroke: #000000"/>
     <use xlink:href="#m5853ee6928" x="233.864626" y="267.311074" style="stroke: #000000"/>
     <use xlink:href="#m5853ee6928" x="237.861317" y="310.848556" style="stroke: #000000"/>
     <use xlink:href="#m5853ee6928" x="253.848096" y="256.483053" style="stroke: #000000"/>
     <use xlink:href="#m5853ee6928" x="261.841483" y="248.148354" style="stroke: #000000"/>
     <use xlink:href="#m5853ee6928" x="285.821643" y="334.323382" style="stroke: #000000"/>
     <use xlink:href="#m5853ee6928" x="297.811726" y="286.909506" style="stroke: #000000"/>
     <use xlink:href="#m5853ee6928" x="301.808428" y="266.402283" style="stroke: #000000"/>
     <use xlink:href="#m5853ee6928" x="349.76876" y="324.754595" style="stroke: #000000"/>
     <use xlink:href="#m5853ee6928" x="361.758843" y="317.260491" style="stroke: #000000"/>
     <use xlink:href="#m5853ee6928" x="373.748914" y="255.032498" style="stroke: #000000"/>
     <use xlink:href="#m5853ee6928" x="441.692722" y="242.541" style="stroke: #000000"/>
     <use xlink:href="#m5853ee6928" x="453.682793" y="347.841" style="stroke: #000000"/>
     <use xlink:href="#m5853ee6928" x="481.659673" y="244.738358" style="stroke: #000000"/>
     <use xlink:href="#m5853ee6928" x="485.656364" y="331.117366" style="stroke: #000000"/>
    </g>
   </g>
   <g id="patch_10">
    <path d="M 70.2 353.106 
L 70.2 237.276 
" style="fill: none; stroke: #000000; stroke-width: 0.8; stroke-linejoin: miter; stroke-linecap: square"/>
   </g>
   <g id="patch_11">
    <path d="M 505.44 353.106 
L 505.44 237.276 
" style="fill: none; stroke: #000000; stroke-width: 0.8; stroke-linejoin: miter; stroke-linecap: square"/>
   </g>
   <g id="patch_12">
    <path d="M 70.2 353.106 
L 505.44 353.106 
" style="fill: none; stroke: #000000; stroke-width: 0.8; stroke-linejoin: miter; stroke-linecap: square"/>
   </g>
   <g id="patch_13">
    <path d="M 70.2 237.276 
L 505.44 237.276 
" style="fill: none; stroke: #000000; stroke-width: 0.8; stroke-linejoin: miter; stroke-linecap: square"/>
   </g>
   <g id="text_27">
    <!-- Panel B: pair-diff with significance dots -->
    <g transform="translate(171.554063 231.276) scale(0.12 -0.12)">
     <defs>
      <path id="DejaVuSans-42" d="M 1259 2228 
L 1259 519 
L 2272 519 
Q 2781 519 3026 730 
Q 3272 941 3272 1375 
Q 3272 1813 3026 2020 
Q 2781 2228 2272 2228 
L 1259 2228 
z
M 1259 4147 
L 1259 2741 
L 2194 2741 
Q 2656 2741 2882 2914 
Q 3109 3088 3109 3444 
Q 3109 3797 2882 3972 
Q 2656 4147 2194 4147 
L 1259 4147 
z
M 628 4666 
L 2241 4666 
Q 2963 4666 3353 4366 
Q 3744 4066 3744 3513 
Q 3744 3084 3544 2831 
Q 3344 2578 2956 2516 
Q 3422 2416 3680 2098 
Q 3938 1781 3938 1306 
Q 3938 681 3513 340 
Q 3088 0 2303 0 
L 628 0 
L 628 4666 
z
" transform="scale(0.015625)"/>
      <path id="DejaVuSans-70" d="M 1159 525 
L 1159 -1331 
L 581 -1331 
L 581 3500 
L 1159 3500 
L 1159 2969 
Q 1341 3281 1617 3432 
Q 1894 3584 2278 3584 
Q 2916 3584 3314 3078 
Q 3713 2572 3713 1747 
Q 3713 922 3314 415 
Q 2916 -91 2278 -91 
Q 1894 -91 1617 61 
Q 1341 213 1159 525 
z
M 3116 1747 
Q 3116 2381 2855 2742 
Q 2594 3103 2138 3103 
Q 1681 3103 1420 2742 
Q 1159 2381 1159 1747 
Q 1159 1113 1420 752 
Q 1681 391 2138 391 
Q 2594 391 2855 752 
Q 3116 1113 3116 1747 
z
" transform="scale(0.015625)"/>
      <path id="DejaVuSans-68" d="M 3513 2113 
L 3513 0 
L 2938 0 
L 2938 2094 
Q 2938 2591 2744 2837 
Q 2550 3084 2163 3084 
Q 1697 3084 1428 2787 
Q 1159 2491 1159 1978 
L 1159 0 
L 581 0 
L 581 4863 
L 1159 4863 
L 1159 2956 
Q 1366 3272 1645 3428 
Q 1925 3584 2291 3584 
Q 2894 3584 3203 3211 
Q 3513 2838 3513 2113 
z
" transform="scale(0.015625)"/>
      <path id="DejaVuSans-67" d="M 2906 1791 
Q 2906 2416 2648 2759 
Q 2391 3103 1925 3103 
Q 1463 3103 1205 2759 
Q 947 2416 947 1791 
Q 947 1169 1205 825 
Q 1463 481 1925 481 
Q 2391 481 2648 825 
Q 2906 1169 2906 1791 
z
M 3481 434 
Q 3481 -459 3084 -895 
Q 2688 -1331 1869 -1331 
Q 1566 -1331 1297 -1286 
Q 1028 -1241 775 -1147 
L 775 -588 
Q 1028 -725 1275 -790 
Q 1522 -856 1778 -856 
Q 2344 -856 2625 -561 
Q 2906 -266 2906 331 
L 2906 616 
Q 2728 306 2450 153 
Q 2172 0 1784 0 
Q 1141 0 747 490 
Q 353 981 353 1791 
Q 353 2603 747 3093 
Q 1141 3584 1784 3584 
Q 2172 3584 2450 3431 
Q 2728 3278 2906 2969 
L 2906 3500 
L 3481 3500 
L 3481 434 
z
" transform="scale(0.015625)"/>
      <path id="DejaVuSans-63" d="M 3122 3366 
L 3122 2828 
Q 2878 2963 2633 3030 
Q 2388 3097 2138 3097 
Q 1578 3097 1268 2742 
Q 959 2388 959 1747 
Q 959 1106 1268 751 
Q 1578 397 2138 397 
Q 2388 397 2633 464 
Q 2878 531 3122 666 
L 3122 134 
Q 2881 22 2623 -34 
Q 2366 -91 2075 -91 
Q 1284 -91 818 406 
Q 353 903 353 1747 
Q 353 2603 823 3093 
Q 1294 3584 2113 3584 
Q 2378 3584 2631 3529 
Q 2884 3475 3122 3366 
z
" transform="scale(0.015625)"/>
     </defs>
     <use xlink:href="#DejaVuSans-50"/>
     <use xlink:href="#DejaVuSans-61" transform="translate(55.802734 0)"/>
     <use xlink:href="#DejaVuSans-6e" transform="translate(117.082031 0)"/>
     <use xlink:href="#DejaVuSans-65" transform="translate(180.460938 0)"/>
     <use xlink:href="#DejaVuSans-6c" transform="translate(241.984375 0)"/>
     <use xlink:href="#DejaVuSans-20" transform="translate(269.767578 0)"/>
     <use xlink:href="#DejaVuSans-42" transform="translate(301.554688 0)"/>
     <use xlink:href="#DejaVuSans-3a" transform="translate(370.158203 0)"/>
     <use xlink:href="#DejaVuSans-20" transform="translate(403.849609 0)"/>
     <use xlink:href="#DejaVuSans-70" transform="translate(435.636719 0)"/>
     <use xlink:href="#DejaVuSans-61" transform="translate(499.113281 0)"/>
     <use xlink:href="#DejaVuSans-69" transform="translate(560.392578 0)"/>
     <use xlink:href="#DejaVuSans-72" transform="translate(588.175781 0)"/>
     <use xlink:href="#DejaVuSans-2d" transform="translate(622.914062 0)"/>
     <use xlink:href="#DejaVuSans-64" transform="translate(658.998047 0)"/>
     <use xlink:href="#DejaVuSans-69" transform="translate(722.474609 0)"/>
     <use xlink:href="#DejaVuSans-66" transform="translate(750.257812 0)"/>
     <use xlink:href="#DejaVuSans-66" transform="translate(785.462891 0)"/>
     <use xlink:href="#DejaVuSans-20" transform="translate(820.667969 0)"/>
     <use xlink:href="#DejaVuSans-77" transform="translate(852.455078 0)"/>
     <use xlink:href="#DejaVuSans-69" transform="translate(934.242188 0)"/>
     <use xlink:href="#DejaVuSans-74" transform="translate(962.025391 0)"/>
     <use xlink:href="#DejaVuSans-68" transform="translate(1001.234375 0)"/>
     <use xlink:href="#DejaVuSans-20" transform="translate(1064.613281 0)"/>
     <use xlink:href="#DejaVuSans-73" transform="translate(1096.400391 0)"/>
     <use xlink:href="#DejaVuSans-69" transform="translate(1148.5 0)"/>
     <use xlink:href="#DejaVuSans-67" transform="translate(1176.283203 0)"/>
     <use xlink:href="#DejaVuSans-6e" transform="translate(1239.759766 0)"/>
     <use xlink:href="#DejaVuSans-69" transform="translate(1303.138672 0)"/>
     <use xlink:href="#DejaVuSans-66" transform="translate(1330.921875 0)"/>
     <use xlink:href="#DejaVuSans-69" transform="translate(1366.126953 0)"/>
     <use xlink:href="#DejaVuSans-63" transform="translate(1393.910156 0)"/>
     <use xlink:href="#DejaVuSans-61" transform="translate(1448.890625 0)"/>
     <use xlink:href="#DejaVuSans-6e" transform="translate(1510.169922 0)"/>
     <use xlink:href="#DejaVuSans-63" transform="translate(1573.548828 0)"/>
     <use xlink:href="#DejaVuSans-65" transform="translate(1628.529297 0)"/>
     <use xlink:href="#DejaVuSans-20" transform="translate(1690.052734 0)"/>
     <use xlink:href="#DejaVuSans-64" transform="translate(1721.839844 0)"/>
     <use xlink:href="#DejaVuSans-6f" transform="translate(1785.316406 0)"/>
     <use xlink:href="#DejaVuSans-74" transform="translate(1846.498047 0)"/>
     <use xlink:href="#DejaVuSans-73" transform="translate(1885.707031 0)"/>
    </g>
   </g>
   <g id="legend_2">
    <g id="line2d_31">
     <path d="M 79.2 250.374437 
L 89.2 250.374437 
L 99.2 250.374437 
" style="fill: none; stroke: #d62728; stroke-width: 2.2; stroke-linecap: square"/>
    </g>
    <g id="text_28">
     <!-- (A→B − B→A) -->
     <g transform="translate(107.2 253.874437) scale(0.1 -0.1)">
      <use xlink:href="#DejaVuSans-28"/>
      <use xlink:href="#DejaVuSans-41" transform="translate(39.013672 0)"/>
      <use xlink:href="#DejaVuSans-2192" transform="translate(107.421875 0)"/>
      <use xlink:href="#DejaVuSans-42" transform="translate(191.210938 0)"/>
      <use xlink:href="#DejaVuSans-20" transform="translate(259.814453 0)"/>
      <use xlink:href="#DejaVuSans-2212" transform="translate(291.601562 0)"/>
      <use xlink:href="#DejaVuSans-20" transform="translate(375.390625 0)"/>
      <use xlink:href="#DejaVuSans-42" transform="translate(407.177734 0)"/>
      <use xlink:href="#DejaVuSans-2192" transform="translate(475.78125 0)"/>
      <use xlink:href="#DejaVuSans-41" transform="translate(559.570312 0)"/>
      <use xlink:href="#DejaVuSans-29" transform="translate(627.978516 0)"/>
     </g>
    </g>
    <g id="line2d_32">
     <g>
      <use xlink:href="#m5853ee6928" x="89.2" y="265.052563" style="stroke: #000000"/>
     </g>
    </g>
    <g id="text_29">
     <!-- p&lt;0.05 (one-sided) -->
     <g transform="translate(107.2 268.552563) scale(0.1 -0.1)">
      <defs>
       <path id="DejaVuSans-3c" d="M 4684 3150 
L 1459 2003 
L 4684 863 
L 4684 294 
L 678 1747 
L 678 2266 
L 4684 3719 
L 4684 3150 
z
" transform="scale(0.015625)"/>
       <path id="DejaVuSans-2e" d="M 684 794 
L 1344 794 
L 1344 0 
L 684 0 
L 684 794 
z
" transform="scale(0.015625)"/>
      </defs>
      <use xlink:href="#DejaVuSans-70"/>
      <use xlink:href="#DejaVuSans-3c" transform="translate(63.476562 0)"/>
      <use xlink:href="#DejaVuSans-30" transform="translate(147.265625 0)"/>
      <use xlink:href="#DejaVuSans-2e" transform="translate(210.888672 0)"/>
      <use xlink:href="#DejaVuSans-30" transform="translate(242.675781 0)"/>
      <use xlink:href="#DejaVuSans-35" transform="translate(306.298828 0)"/>
      <use xlink:href="#DejaVuSans-20" transform="translate(369.921875 0)"/>
      <use xlink:href="#DejaVuSans-28" transform="translate(401.708984 0)"/>
      <use xlink:href="#DejaVuSans-6f" transform="translate(440.722656 0)"/>
      <use xlink:href="#DejaVuSans-6e" transform="translate(501.904297 0)"/>
      <use xlink:href="#DejaVuSans-65" transform="translate(565.283203 0)"/>
      <use xlink:href="#DejaVuSans-2d" transform="translate(626.806641 0)"/>
      <use xlink:href="#DejaVuSans-73" transform="translate(662.890625 0)"/>
      <use xlink:href="#DejaVuSans-69" transform="translate(714.990234 0)"/>
      <use xlink:href="#DejaVuSans-64" transform="translate(742.773438 0)"/>
      <use xlink:href="#DejaVuSans-65" transform="translate(806.25 0)"/>
      <use xlink:href="#DejaVuSans-64" transform="translate(867.773438 0)"/>
      <use xlink:href="#DejaVuSans-29" transform="translate(931.25 0)"/>
     </g>
    </g>
   </g>
  </g>
  <g id="axes_3">
   <g id="patch_14">
    <path d="M 70.2 499.824 
L 505.44 499.824 
L 505.44 383.994 
L 70.2 383.994 
z
" style="fill: #ffffff"/>
   </g>
   <g id="matplotlib.axis_5">
    <g id="xtick_13">
     <g id="line2d_33">
      <g>
       <use xlink:href="#m8ab2a5c9aa" x="87.985286" y="499.824" style="stroke: #000000; stroke-width: 0.8"/>
      </g>
     </g>
     <g id="text_30">
      <!-- −200 -->
      <g transform="translate(74.251693 514.422438) scale(0.1 -0.1)">
       <use xlink:href="#DejaVuSans-2212"/>
       <use xlink:href="#DejaVuSans-32" transform="translate(83.789062 0)"/>
       <use xlink:href="#DejaVuSans-30" transform="translate(147.412109 0)"/>
       <use xlink:href="#DejaVuSans-30" transform="translate(211.035156 0)"/>
      </g>
     </g>
    </g>
    <g id="xtick_14">
     <g id="line2d_34">
      <g>
       <use xlink:href="#m8ab2a5c9aa" x="167.91917" y="499.824" style="stroke: #000000; stroke-width: 0.8"/>
      </g>
     </g>
     <g id="text_31">
      <!-- 0 -->
      <g transform="translate(164.73792 514.422438) scale(0.1 -0.1)">
       <use xlink:href="#DejaVuSans-30"/>
      </g>
     </g>
    </g>
    <g id="xtick_15">
     <g id="line2d_35">
      <g>
       <use xlink:href="#m8ab2a5c9aa" x="247.853053" y="499.824" style="stroke: #000000; stroke-width: 0.8"/>
      </g>
     </g>
     <g id="text_32">
      <!-- 200 -->
      <g transform="translate(238.309303 514.422438) scale(0.1 -0.1)">
       <use xlink:href="#DejaVuSans-32"/>
       <use xlink:href="#DejaVuSans-30" transform="translate(63.623047 0)"/>
       <use xlink:href="#DejaVuSans-30" transform="translate(127.246094 0)"/>
      </g>
     </g>
    </g>
    <g id="xtick_16">
     <g id="line2d_36">
      <g>
       <use xlink:href="#m8ab2a5c9aa" x="327.786937" y="499.824" style="stroke: #000000; stroke-width: 0.8"/>
      </g>
     </g>
     <g id="text_33">
      <!-- 400 -->
      <g transform="translate(318.243187 514.422438) scale(0.1 -0.1)">
       <use xlink:href="#DejaVuSans-34"/>
       <use xlink:href="#DejaVuSans-30" transform="translate(63.623047 0)"/>
       <use xlink:href="#DejaVuSans-30" transform="translate(127.246094 0)"/>
      </g>
     </g>
    </g>
    <g id="xtick_17">
     <g id="line2d_37">
      <g>
       <use xlink:href="#m8ab2a5c9aa" x="407.720821" y="499.824" style="stroke: #000000; stroke-width: 0.8"/>
      </g>
     </g>
     <g id="text_34">
      <!-- 600 -->
      <g transform="translate(398.177071 514.422438) scale(0.1 -0.1)">
       <use xlink:href="#DejaVuSans-36"/>
       <use xlink:href="#DejaVuSans-30" transform="translate(63.623047 0)"/>
       <use xlink:href="#DejaVuSans-30" transform="translate(127.246094 0)"/>
      </g>
     </g>
    </g>
    <g id="xtick_18">
     <g id="line2d_38">
      <g>
       <use xlink:href="#m8ab2a5c9aa" x="487.654704" y="499.824" style="stroke: #000000; stroke-width: 0.8"/>
      </g>
     </g>
     <g id="text_35">
      <!-- 800 -->
      <g transform="translate(478.110954 514.422438) scale(0.1 -0.1)">
       <use xlink:href="#DejaVuSans-38"/>
       <use xlink:href="#DejaVuSans-30" transform="translate(63.623047 0)"/>
       <use xlink:href="#DejaVuSans-30" transform="translate(127.246094 0)"/>
      </g>
     </g>
    </g>
    <g id="text_36">
     <!-- Time (ms) -->
     <g transform="translate(262.620781 528.100563) scale(0.1 -0.1)">
      <defs>
       <path id="DejaVuSans-54" d="M -19 4666 
L 3928 4666 
L 3928 4134 
L 2272 4134 
L 2272 0 
L 1638 0 
L 1638 4134 
L -19 4134 
L -19 4666 
z
" transform="scale(0.015625)"/>
       <path id="DejaVuSans-6d" d="M 3328 2828 
Q 3544 3216 3844 3400 
Q 4144 3584 4550 3584 
Q 5097 3584 5394 3201 
Q 5691 2819 5691 2113 
L 5691 0 
L 5113 0 
L 5113 2094 
Q 5113 2597 4934 2840 
Q 4756 3084 4391 3084 
Q 3944 3084 3684 2787 
Q 3425 2491 3425 1978 
L 3425 0 
L 2847 0 
L 2847 2094 
Q 2847 2600 2669 2842 
Q 2491 3084 2119 3084 
Q 1678 3084 1418 2786 
Q 1159 2488 1159 1978 
L 1159 0 
L 581 0 
L 581 3500 
L 1159 3500 
L 1159 2956 
Q 1356 3278 1631 3431 
Q 1906 3584 2284 3584 
Q 2666 3584 2933 3390 
Q 3200 3197 3328 2828 
z
" transform="scale(0.015625)"/>
      </defs>
      <use xlink:href="#DejaVuSans-54"/>
      <use xlink:href="#DejaVuSans-69" transform="translate(57.958984 0)"/>
      <use xlink:href="#DejaVuSans-6d" transform="translate(85.742188 0)"/>
      <use xlink:href="#DejaVuSans-65" transform="translate(183.154297 0)"/>
      <use xlink:href="#DejaVuSans-20" transform="translate(244.677734 0)"/>
      <use xlink:href="#DejaVuSans-28" transform="translate(276.464844 0)"/>
      <use xlink:href="#DejaVuSans-6d" transform="translate(315.478516 0)"/>
      <use xlink:href="#DejaVuSans-73" transform="translate(412.890625 0)"/>
      <use xlink:href="#DejaVuSans-29" transform="translate(464.990234 0)"/>
     </g>
    </g>
   </g>
   <g id="matplotlib.axis_6">
    <g id="ytick_8">
     <g id="line2d_39">
      <g>
       <use xlink:href="#mbb0de3c60f" x="70.2" y="495.489951" style="stroke: #000000; stroke-width: 0.8"/>
      </g>
     </g>
     <g id="text_37">
      <!-- −2 -->
      <g transform="translate(48.457813 499.28917) scale(0.1 -0.1)">
       <use xlink:href="#DejaVuSans-2212"/>
       <use xlink:href="#DejaVuSans-32" transform="translate(83.789062 0)"/>
      </g>
     </g>
    </g>
    <g id="ytick_9">
     <g id="line2d_40">
      <g>
       <use xlink:href="#mbb0de3c60f" x="70.2" y="456.538134" style="stroke: #000000; stroke-width: 0.8"/>
      </g>
     </g>
     <g id="text_38">
      <!-- 0 -->
      <g transform="translate(56.8375 460.337352) scale(0.1 -0.1)">
       <use xlink:href="#DejaVuSans-30"/>
      </g>
     </g>
    </g>
    <g id="ytick_10">
     <g id="line2d_41">
      <g>
       <use xlink:href="#mbb0de3c60f" x="70.2" y="417.586316" style="stroke: #000000; stroke-width: 0.8"/>
      </g>
     </g>
     <g id="text_39">
      <!-- 2 -->
      <g transform="translate(56.8375 421.385535) scale(0.1 -0.1)">
       <use xlink:href="#DejaVuSans-32"/>
      </g>
     </g>
    </g>
    <g id="text_40">
     <!-- Z (σ from null) -->
     <g transform="translate(42.378125 477.919938) rotate(-90) scale(0.1 -0.1)">
      <defs>
       <path id="DejaVuSans-5a" d="M 359 4666 
L 4025 4666 
L 4025 4184 
L 1075 531 
L 4097 531 
L 4097 0 
L 288 0 
L 288 481 
L 3238 4134 
L 359 4134 
L 359 4666 
z
" transform="scale(0.015625)"/>
      </defs>
      <use xlink:href="#DejaVuSans-5a"/>
      <use xlink:href="#DejaVuSans-20" transform="translate(68.505859 0)"/>
      <use xlink:href="#DejaVuSans-28" transform="translate(100.292969 0)"/>
      <use xlink:href="#DejaVuSans-3c3" transform="translate(139.306641 0)"/>
      <use xlink:href="#DejaVuSans-20" transform="translate(202.685547 0)"/>
      <use xlink:href="#DejaVuSans-66" transform="translate(234.472656 0)"/>
      <use xlink:href="#DejaVuSans-72" transform="translate(269.677734 0)"/>
      <use xlink:href="#DejaVuSans-6f" transform="translate(308.541016 0)"/>
      <use xlink:href="#DejaVuSans-6d" transform="translate(369.722656 0)"/>
      <use xlink:href="#DejaVuSans-20" transform="translate(467.134766 0)"/>
      <use xlink:href="#DejaVuSans-6e" transform="translate(498.921875 0)"/>
      <use xlink:href="#DejaVuSans-75" transform="translate(562.300781 0)"/>
      <use xlink:href="#DejaVuSans-6c" transform="translate(625.679688 0)"/>
      <use xlink:href="#DejaVuSans-6c" transform="translate(653.462891 0)"/>
      <use xlink:href="#DejaVuSans-29" transform="translate(681.246094 0)"/>
     </g>
    </g>
   </g>
   <g id="line2d_42">
    <path d="M 167.91917 499.824 
L 167.91917 383.994 
" clip-path="url(#pacb320ec71)" style="fill: none; stroke-dasharray: 2.96,1.28; stroke-dashoffset: 0; stroke: #000000; stroke-width: 0.8"/>
   </g>
   <g id="line2d_43">
    <path d="M 89.983636 474.347759 
L 93.980327 470.90421 
L 97.977023 439.006699 
L 101.973713 466.89357 
L 105.97041 443.509438 
L 109.967106 430.47889 
L 113.963796 458.115945 
L 117.960493 444.663437 
L 121.957186 441.509032 
L 125.953882 440.283756 
L 129.950576 430.145339 
L 133.947269 436.933208 
L 137.943962 416.378633 
L 141.940659 465.273196 
L 145.937352 467.791738 
L 149.934045 412.139613 
L 153.93074 467.14825 
L 157.927434 470.950854 
L 161.924129 425.696901 
L 165.920823 452.881449 
L 169.917517 478.150364 
L 173.914211 465.744545 
L 177.910906 447.528639 
L 181.9076 480.560226 
L 185.904294 428.338675 
L 189.900988 492.610777 
L 193.897681 465.847856 
L 197.894377 476.629899 
L 201.891071 465.25169 
L 205.887764 452.360549 
L 209.884457 450.835704 
L 213.881154 436.063208 
L 217.877847 438.876647 
L 221.874543 478.789902 
L 225.871234 441.949627 
L 229.86793 440.095771 
L 233.864626 401.100738 
L 237.861317 455.509782 
L 241.858013 441.804481 
L 245.854704 440.983288 
L 249.8514 445.973406 
L 253.848096 408.748872 
L 257.844787 453.951973 
L 261.841483 398.126279 
L 265.838179 478.900261 
L 269.83487 453.348496 
L 273.83156 481.998141 
L 277.828262 460.797966 
L 281.824953 466.118245 
L 285.821643 471.6989 
L 289.818345 458.117649 
L 293.815036 451.936466 
L 297.811726 429.964692 
L 301.808428 418.737708 
L 305.805119 474.090951 
L 309.801809 470.283833 
L 313.798511 447.700252 
L 317.795202 455.263129 
L 321.791892 466.010704 
L 325.788594 468.826186 
L 329.785285 470.575399 
L 333.781975 459.048837 
L 337.778677 438.082621 
L 341.775368 470.717725 
L 345.772058 460.080563 
L 349.76876 447.331654 
L 353.765451 451.856544 
L 357.762141 469.408938 
L 361.758843 469.287606 
L 365.755534 443.478723 
L 369.752224 470.875227 
L 373.748914 419.596993 
L 377.745605 460.632347 
L 381.742319 479.742064 
L 385.739009 446.146795 
L 389.7357 482.067642 
L 393.73239 475.048442 
L 397.72908 425.572615 
L 401.725771 453.823154 
L 405.722485 466.615361 
L 409.719175 439.675296 
L 413.715866 447.912977 
L 417.712556 442.272592 
L 421.709246 438.521046 
L 425.705937 432.328232 
L 429.702627 468.23789 
L 433.699341 469.073172 
L 437.696032 493.839249 
L 441.692722 411.727044 
L 445.689412 467.471286 
L 449.686103 489.949694 
L 453.682793 486.595473 
L 457.679507 464.947694 
L 461.676198 478.254764 
L 465.672888 447.285905 
L 469.669578 450.890588 
L 473.666269 483.506949 
L 477.662959 473.836864 
L 481.659673 413.740122 
L 485.656364 472.540809 
" clip-path="url(#pacb320ec71)" style="fill: none; stroke: #1f77b4; stroke-width: 2; stroke-linecap: square"/>
   </g>
   <g id="line2d_44">
    <path d="M 89.983636 454.263792 
L 93.980327 474.624157 
L 97.977023 472.195818 
L 101.973713 477.984941 
L 105.97041 453.179076 
L 109.967106 455.48836 
L 113.963796 433.740691 
L 117.960493 467.822484 
L 121.957186 455.713165 
L 125.953882 415.701016 
L 129.950576 481.745721 
L 133.947269 486.642151 
L 137.943962 474.894271 
L 141.940659 471.94705 
L 145.937352 417.038389 
L 149.934045 444.365099 
L 153.93074 436.631019 
L 157.927434 468.744269 
L 161.924129 423.035367 
L 165.920823 446.848291 
L 169.917517 462.259829 
L 173.914211 474.773214 
L 177.910906 450.244579 
L 181.9076 484.670379 
L 185.904294 447.888597 
L 189.900988 431.200033 
L 193.897681 477.890422 
L 197.894377 455.727963 
L 201.891071 463.013859 
L 205.887764 444.186405 
L 209.884457 455.586126 
L 213.881154 467.99703 
L 217.877847 477.524253 
L 221.874543 428.356077 
L 225.871234 472.440217 
L 229.86793 452.724336 
L 233.864626 436.694513 
L 237.861317 416.992756 
L 241.858013 432.717831 
L 245.854704 433.765138 
L 249.8514 426.610284 
L 253.848096 447.754756 
L 257.844787 434.594568 
L 261.841483 455.94756 
L 265.838179 449.180533 
L 269.83487 448.136809 
L 273.83156 468.01599 
L 277.828262 488.847109 
L 281.824953 438.705753 
L 285.821643 400.725989 
L 289.818345 467.310572 
L 293.815036 481.873238 
L 297.811726 418.734718 
L 301.808428 440.984734 
L 305.805119 438.921765 
L 309.801809 430.135146 
L 313.798511 466.810931 
L 317.795202 476.525192 
L 321.791892 450.425804 
L 325.788594 438.545416 
L 329.785285 438.85129 
L 333.781975 427.811244 
L 337.778677 462.602667 
L 341.775368 494.559 
L 345.772058 466.699738 
L 349.76876 389.259 
L 353.765451 462.776793 
L 357.762141 462.882966 
L 361.758843 418.276107 
L 365.755534 426.849668 
L 369.752224 431.114281 
L 373.748914 454.371427 
L 377.745605 456.013761 
L 381.742319 464.355771 
L 385.739009 464.729937 
L 389.7357 464.887581 
L 393.73239 438.985115 
L 397.72908 423.428662 
L 401.725771 451.801826 
L 405.722485 431.330192 
L 409.719175 453.53156 
L 413.715866 479.627903 
L 417.712556 430.398944 
L 421.709246 430.188601 
L 425.705937 442.133705 
L 429.702627 453.229051 
L 433.699341 446.495269 
L 437.696032 459.118146 
L 441.692722 472.474098 
L 445.689412 453.802896 
L 449.686103 448.561251 
L 453.682793 392.147665 
L 457.679507 432.780906 
L 461.676198 439.218213 
L 465.672888 435.256359 
L 469.669578 470.636641 
L 473.666269 464.623982 
L 477.662959 471.14514 
L 481.659673 469.631565 
L 485.656364 405.801311 
" clip-path="url(#pacb320ec71)" style="fill: none; stroke: #ff7f0e; stroke-width: 2; stroke-linecap: square"/>
   </g>
   <g id="patch_15">
    <path d="M 70.2 499.824 
L 70.2 383.994 
" style="fill: none; stroke: #000000; stroke-width: 0.8; stroke-linejoin: miter; stroke-linecap: square"/>
   </g>
   <g id="patch_16">
    <path d="M 505.44 499.824 
L 505.44 383.994 
" style="fill: none; stroke: #000000; stroke-width: 0.8; stroke-linejoin: miter; stroke-linecap: square"/>
   </g>
   <g id="patch_17">
    <path d="M 70.2 499.824 
L 505.44 499.824 
" style="fill: none; stroke: #000000; stroke-width: 0.8; stroke-linejoin: miter; stroke-linecap: square"/>
   </g>
   <g id="patch_18">
    <path d="M 70.2 383.994 
L 505.44 383.994 
" style="fill: none; stroke: #000000; stroke-width: 0.8; stroke-linejoin: miter; stroke-linecap: square"/>
   </g>
   <g id="text_41">
    <!-- Panel C: evidence strength vs null -->
    <g transform="translate(185.80125 377.994) scale(0.12 -0.12)">
     <defs>
      <path id="DejaVuSans-43" d="M 4122 4306 
L 4122 3641 
Q 3803 3938 3442 4084 
Q 3081 4231 2675 4231 
Q 1875 4231 1450 3742 
Q 1025 3253 1025 2328 
Q 1025 1406 1450 917 
Q 1875 428 2675 428 
Q 3081 428 3442 575 
Q 3803 722 4122 1019 
L 4122 359 
Q 3791 134 3420 21 
Q 3050 -91 2638 -91 
Q 1578 -91 968 557 
Q 359 1206 359 2328 
Q 359 3453 968 4101 
Q 1578 4750 2638 4750 
Q 3056 4750 3426 4639 
Q 3797 4528 4122 4306 
z
" transform="scale(0.015625)"/>
     </defs>
     <use xlink:href="#DejaVuSans-50"/>
     <use xlink:href="#DejaVuSans-61" transform="translate(55.802734 0)"/>
     <use xlink:href="#DejaVuSans-6e" transform="translate(117.082031 0)"/>
     <use xlink:href="#DejaVuSans-65" transform="translate(180.460938 0)"/>
     <use xlink:href="#DejaVuSans-6c" transform="translate(241.984375 0)"/>
     <use xlink:href="#DejaVuSans-20" transform="translate(269.767578 0)"/>
     <use xlink:href="#DejaVuSans-43" transform="translate(301.554688 0)"/>
     <use xlink:href="#DejaVuSans-3a" transform="translate(371.378906 0)"/>
     <use xlink:href="#DejaVuSans-20" transform="translate(405.070312 0)"/>
     <use xlink:href="#DejaVuSans-65" transform="translate(436.857422 0)"/>
     <use xlink:href="#DejaVuSans-76" transform="translate(498.380859 0)"/>
     <use xlink:href="#DejaVuSans-69" transform="translate(557.560547 0)"/>
     <use xlink:href="#DejaVuSans-64" transform="translate(585.34375 0)"/>
     <use xlink:href="#DejaVuSans-65" transform="translate(648.820312 0)"/>
     <use xlink:href="#DejaVuSans-6e" transform="translate(710.34375 0)"/>
     <use xlink:href="#DejaVuSans-63" transform="translate(773.722656 0)"/>
     <use xlink:href="#DejaVuSans-65" transform="translate(828.703125 0)"/>
     <use xlink:href="#DejaVuSans-20" transform="translate(890.226562 0)"/>
     <use xlink:href="#DejaVuSans-73" transform="translate(922.013672 0)"/>
     <use xlink:href="#DejaVuSans-74" transform="translate(974.113281 0)"/>
     <use xlink:href="#DejaVuSans-72" transform="translate(1013.322266 0)"/>
     <use xlink:href="#DejaVuSans-65" transform="translate(1052.185547 0)"/>
     <use xlink:href="#DejaVuSans-6e" transform="translate(1113.708984 0)"/>
     <use xlink:href="#DejaVuSans-67" transform="translate(1177.087891 0)"/>
     <use xlink:href="#DejaVuSans-74" transform="translate(1240.564453 0)"/>
     <use xlink:href="#DejaVuSans-68" transform="translate(1279.773438 0)"/>
     <use xlink:href="#DejaVuSans-20" transform="translate(1343.152344 0)"/>
     <use xlink:href="#DejaVuSans-76" transform="translate(1374.939453 0)"/>
     <use xlink:href="#DejaVuSans-73" transform="translate(1434.119141 0)"/>
     <use xlink:href="#DejaVuSans-20" transform="translate(1486.21875 0)"/>
     <use xlink:href="#DejaVuSans-6e" transform="translate(1518.005859 0)"/>
     <use xlink:href="#DejaVuSans-75" transform="translate(1581.384766 0)"/>
     <use xlink:href="#DejaVuSans-6c" transform="translate(1644.763672 0)"/>
     <use xlink:href="#DejaVuSans-6c" transform="translate(1672.546875 0)"/>
    </g>
   </g>
   <g id="legend_3">
    <g id="line2d_45">
     <path d="M 79.2 397.092438 
L 89.2 397.092438 
L 99.2 397.092438 
" style="fill: none; stroke: #1f77b4; stroke-width: 2; stroke-linecap: square"/>
    </g>
    <g id="text_42">
     <!-- z(MFEF→MLIP) -->
     <g transform="translate(107.2 400.592438) scale(0.1 -0.1)">
      <defs>
       <path id="DejaVuSans-7a" d="M 353 3500 
L 3084 3500 
L 3084 2975 
L 922 459 
L 3084 459 
L 3084 0 
L 275 0 
L 275 525 
L 2438 3041 
L 353 3041 
L 353 3500 
z
" transform="scale(0.015625)"/>
      </defs>
      <use xlink:href="#DejaVuSans-7a"/>
      <use xlink:href="#DejaVuSans-28" transform="translate(52.490234 0)"/>
      <use xlink:href="#DejaVuSans-4d" transform="translate(91.503906 0)"/>
      <use xlink:href="#DejaVuSans-46" transform="translate(177.783203 0)"/>
      <use xlink:href="#DejaVuSans-45" transform="translate(235.302734 0)"/>
      <use xlink:href="#DejaVuSans-46" transform="translate(298.486328 0)"/>
      <use xlink:href="#DejaVuSans-2192" transform="translate(356.005859 0)"/>
      <use xlink:href="#DejaVuSans-4d" transform="translate(439.794922 0)"/>
      <use xlink:href="#DejaVuSans-4c" transform="translate(526.074219 0)"/>
      <use xlink:href="#DejaVuSans-49" transform="translate(581.787109 0)"/>
      <use xlink:href="#DejaVuSans-50" transform="translate(611.279297 0)"/>
      <use xlink:href="#DejaVuSans-29" transform="translate(671.582031 0)"/>
     </g>
    </g>
    <g id="line2d_46">
     <path d="M 79.2 411.770563 
L 89.2 411.770563 
L 99.2 411.770563 
" style="fill: none; stroke: #ff7f0e; stroke-width: 2; stroke-linecap: square"/>
    </g>
    <g id="text_43">
     <!-- z(MLIP→MFEF) -->
     <g transform="translate(107.2 415.270563) scale(0.1 -0.1)">
      <use xlink:href="#DejaVuSans-7a"/>
      <use xlink:href="#DejaVuSans-28" transform="translate(52.490234 0)"/>
      <use xlink:href="#DejaVuSans-4d" transform="translate(91.503906 0)"/>
      <use xlink:href="#DejaVuSans-4c" transform="translate(177.783203 0)"/>
      <use xlink:href="#DejaVuSans-49" transform="translate(233.496094 0)"/>
      <use xlink:href="#DejaVuSans-50" transform="translate(262.988281 0)"/>
      <use xlink:href="#DejaVuSans-2192" transform="translate(323.291016 0)"/>
      <use xlink:href="#DejaVuSans-4d" transform="translate(407.080078 0)"/>
      <use xlink:href="#DejaVuSans-46" transform="translate(493.359375 0)"/>
      <use xlink:href="#DejaVuSans-45" transform="translate(550.878906 0)"/>
      <use xlink:href="#DejaVuSans-46" transform="translate(614.0625 0)"/>
      <use xlink:href="#DejaVuSans-29" transform="translate(671.582031 0)"/>
     </g>
    </g>
   </g>
  </g>
 </g>
 <defs>
  <clipPath id="p2c8a773cd5">
   <rect x="70.2" y="67.392" width="435.24" height="138.996"/>
  </clipPath>
  <clipPath id="pa08364108a">
   <rect x="70.2" y="237.276" width="435.24" height="115.83"/>
  </clipPath>
  <clipPath id="pacb320ec71">
   <rect x="70.2" y="383.994" width="435.24" height="115.83"/>
  </clipPath>
 </defs>
</svg>
