<?xml version="1.0" encoding="utf-8" standalone="no"?>
<!DOCTYPE svg PUBLIC "-//W3C//DTD SVG 1.1//EN"
  "http://www.w3.org/Graphics/SVG/1.1/DTD/svg11.dtd">
<svg xmlns:xlink="http://www.w3.org/1999/xlink" width="828pt" height="453.6pt" viewBox="0 0 828 453.6" xmlns="http://www.w3.org/2000/svg" version="1.1">
 <metadata>
  <rdf:RDF xmlns:dc="http://purl.org/dc/elements/1.1/" xmlns:cc="http://creativecommons.org/ns#" xmlns:rdf="http://www.w3.org/1999/02/22-rdf-syntax-ns#">
   <cc:Work>
    <dc:type rdf:resource="http://purl.org/dc/dcmitype/StillImage"/>
    <dc:date>2026-01-26T13:57:23.857282</dc:date>
    <dc:format>image/svg+xml</dc:format>
    <dc:creator>
     <cc:Agent>
      <dc:title>Matplotlib v3.9.4, https://matplotlib.org/</dc:title>
     </cc:Agent>
    </dc:creator>
   </cc:Work>
  </rdf:RDF>
 </metadata>
 <defs>
  <style type="text/css">*{stroke-linejoin: round; stroke-linecap: butt}</style>
 </defs>
 <g id="figure_1">
  <g id="patch_1">
   <path d="M 0 453.6 
L 828 453.6 
L 828 0 
L 0 0 
z
" style="fill: #ffffff"/>
  </g>
  <g id="axes_1">
   <g id="patch_2">
    <path d="M 72 396 
L 792 396 
L 792 36 
L 72 36 
z
" style="fill: #ffffff"/>
   </g>
   <g id="PolyCollection_1">
    <path d="M -35.999997 348.152415 
L -35.999997 379.636364 
L -24 353.244094 
L -12.000002 319.299533 
L -0.000005 357.666431 
L 12.000002 303.741836 
L 23.999999 368.994358 
L 35.999997 358.467473 
L 47.999999 332.685314 
L 60.000001 354.020249 
L 72.000003 310.722565 
L 84 332.185639 
L 95.999998 277.955993 
L 108 319.021394 
L 120.000002 360.703539 
L 131.999999 357.362893 
L 143.999999 306.640808 
L 156 325.507523 
L 168 329.637807 
L 180 326.965778 
L 192 336.930825 
L 204 363.361125 
L 216 324.853791 
L 228 350.898736 
L 240.000001 337.00139 
L 252.000001 344.802989 
L 263.999998 306.184604 
L 276 330.993198 
L 288.000002 329.59889 
L 300 312.893609 
L 311.999997 332.062574 
L 323.999999 322.467601 
L 336.000001 338.639458 
L 348.000003 310.362764 
L 360.000001 333.924715 
L 371.999998 342.138047 
L 384.000005 318.557684 
L 396.000002 346.73573 
L 408 337.337875 
L 419.999997 323.932868 
L 431.999995 356.328193 
L 444.000001 378.430177 
L 455.999999 292.240607 
L 467.999996 351.390304 
L 480.000003 325.158039 
L 492 317.456975 
L 503.999989 322.406059 
L 515.999995 306.747467 
L 528.000001 261.260875 
L 539.99999 262.154665 
L 551.999996 297.548183 
L 564.000003 257.95325 
L 575.999991 327.33373 
L 587.999998 299.572929 
L 600.000004 237.36531 
L 611.999993 260.992099 
L 623.999999 304.330778 
L 636.000006 178.781322 
L 647.999994 257.883522 
L 660.000001 326.382031 
L 672.000007 295.591308 
L 683.999996 251.913302 
L 696.000002 297.053956 
L 708.000009 232.45849 
L 719.999997 290.744809 
L 732.000004 289.523123 
L 744.00001 300.619792 
L 755.999999 348.752219 
L 768.000005 272.788993 
L 780.000011 303.066012 
L 792 319.40373 
L 803.999989 285.169227 
L 815.999977 304.214116 
L 828.000001 279.699803 
L 840.000026 332.086163 
L 852.000014 328.35751 
L 864.000003 312.958001 
L 875.999991 313.118942 
L 887.99998 325.753067 
L 900.000004 366.878461 
L 912.000029 326.610797 
L 924.000017 326.481738 
L 936.000006 326.07248 
L 947.999994 283.457022 
L 959.999983 319.739184 
L 971.999971 353.554379 
L 983.999996 278.148248 
L 996.00002 330.211456 
L 1008.000009 347.581502 
L 1019.999997 297.902253 
L 1031.999986 306.596626 
L 1043.999974 322.968283 
L 1055.999999 337.494438 
L 1068.000023 354.287609 
L 1080.000011 303.265049 
L 1092 310.136273 
L 1103.999989 350.781838 
L 1115.999977 328.968146 
L 1128.000001 328.192147 
L 1140.000026 305.992096 
L 1140.000026 210.194161 
L 1140.000026 210.194161 
L 1128.000001 231.499176 
L 1115.999977 263.38604 
L 1103.999989 301.049748 
L 1092 271.405263 
L 1080.000011 253.823816 
L 1068.000023 301.980167 
L 1055.999999 303.332955 
L 1043.999974 296.326059 
L 1031.999986 212.762232 
L 1019.999997 217.730831 
L 1008.000009 246.483316 
L 996.00002 276.550085 
L 983.999996 169.059172 
L 971.999971 307.853362 
L 959.999983 268.459233 
L 947.999994 203.800281 
L 936.000006 286.80076 
L 924.000017 255.550477 
L 912.000029 280.207907 
L 900.000004 236.106047 
L 887.99998 264.87026 
L 875.999991 228.03451 
L 864.000003 286.049983 
L 852.000014 275.931895 
L 840.000026 284.920499 
L 828.000001 225.979606 
L 815.999977 211.232756 
L 803.999989 233.616541 
L 792 249.79553 
L 780.000011 211.890291 
L 768.000005 194.73557 
L 755.999999 221.064021 
L 744.00001 214.823654 
L 732.000004 126.371149 
L 719.999997 190.213131 
L 708.000009 52.363636 
L 696.000002 180.941186 
L 683.999996 147.332616 
L 672.000007 204.162368 
L 660.000001 236.773807 
L 647.999994 157.52555 
L 636.000006 130.465051 
L 623.999999 237.739353 
L 611.999993 98.57973 
L 600.000004 166.111713 
L 587.999998 224.875543 
L 575.999991 277.36495 
L 564.000003 146.210914 
L 551.999996 189.463163 
L 539.99999 206.350746 
L 528.000001 53.544238 
L 515.999995 229.812306 
L 503.999989 255.180095 
L 492 276.383343 
L 480.000003 273.363946 
L 467.999996 307.709284 
L 455.999999 252.601758 
L 444.000001 350.738034 
L 431.999995 308.587013 
L 419.999997 301.036335 
L 408 292.681347 
L 396.000002 314.747077 
L 384.000005 251.841798 
L 371.999998 269.113427 
L 360.000001 249.211441 
L 348.000003 256.708856 
L 336.000001 260.986321 
L 323.999999 280.605655 
L 311.999997 290.078435 
L 300 267.433294 
L 288.000002 281.165133 
L 276 285.133273 
L 263.999998 236.368742 
L 252.000001 310.800333 
L 240.000001 298.735341 
L 228 313.808288 
L 216 273.974395 
L 204 355.002976 
L 192 308.958912 
L 180 267.265462 
L 168 283.440042 
L 156 237.158234 
L 143.999999 272.288141 
L 131.999999 321.91444 
L 120.000002 310.812441 
L 108 261.438369 
L 95.999998 234.543853 
L 84 283.564292 
L 72.000003 283.216866 
L 60.000001 317.474135 
L 47.999999 294.231229 
L 35.999997 284.036661 
L 23.999999 322.431432 
L 12.000002 213.569731 
L -0.000005 314.024585 
L -12.000002 285.145266 
L -24 326.797001 
L -35.999997 348.152415 
z
" clip-path="url(#pf4310c6103)" style="fill: #c00a37; fill-opacity: 0.25"/>
   </g>
   <g id="PolyCollection_2">
    <path d="M -35.999997 258.052403 
L -35.999997 322.799728 
L -24 334.506771 
L -12.000002 304.924189 
L -0.000005 343.342467 
L 12.000002 324.203966 
L 23.999999 343.700409 
L 35.999997 374.705403 
L 47.999999 348.496293 
L 60.000001 318.527198 
L 72.000003 307.395687 
L 84 340.149178 
L 95.999998 340.149928 
L 108 353.004396 
L 120.000002 322.848294 
L 131.999999 347.331108 
L 143.999999 321.351499 
L 156 310.089094 
L 168 305.30851 
L 180 361.609462 
L 192 316.659725 
L 204 346.947567 
L 216 367.787143 
L 228 312.702131 
L 240.000001 319.455711 
L 252.000001 354.639067 
L 263.999998 321.360609 
L 276 303.480949 
L 288.000002 348.425966 
L 300 338.050359 
L 311.999997 249.955003 
L 323.999999 323.200502 
L 336.000001 330.974041 
L 348.000003 352.429441 
L 360.000001 350.184507 
L 371.999998 313.972902 
L 384.000005 345.000154 
L 396.000002 338.576167 
L 408 301.995975 
L 419.999997 348.195694 
L 431.999995 368.980692 
L 444.000001 344.202101 
L 455.999999 355.610523 
L 467.999996 332.143247 
L 480.000003 316.694368 
L 492 295.660846 
L 503.999989 318.114655 
L 515.999995 337.220111 
L 528.000001 337.903546 
L 539.99999 327.090775 
L 551.999996 310.084917 
L 564.000003 259.492534 
L 575.999991 269.740845 
L 587.999998 277.471024 
L 600.000004 281.876347 
L 611.999993 236.808851 
L 623.999999 260.335397 
L 636.000006 273.167163 
L 647.999994 240.134672 
L 660.000001 315.688086 
L 672.000007 334.015853 
L 683.999996 308.736858 
L 696.000002 339.856216 
L 708.000009 318.115443 
L 719.999997 338.934425 
L 732.000004 314.816696 
L 744.00001 233.209069 
L 755.999999 278.407296 
L 768.000005 333.38771 
L 780.000011 319.230095 
L 792 336.166694 
L 803.999989 319.010425 
L 815.999977 331.284933 
L 828.000001 326.384052 
L 840.000026 316.715924 
L 852.000014 358.676348 
L 864.000003 311.322896 
L 875.999991 301.280239 
L 887.99998 308.612724 
L 900.000004 335.605173 
L 912.000029 371.756615 
L 924.000017 307.666367 
L 936.000006 307.653551 
L 947.999994 339.041579 
L 959.999983 343.883775 
L 971.999971 259.123766 
L 983.999996 292.264363 
L 996.00002 327.368818 
L 1008.000009 320.125159 
L 1019.999997 356.137805 
L 1031.999986 316.498258 
L 1043.999974 354.569423 
L 1055.999999 357.977053 
L 1068.000023 311.806343 
L 1080.000011 322.804281 
L 1092 320.27797 
L 1103.999989 342.289816 
L 1115.999977 308.655977 
L 1128.000001 287.812705 
L 1140.000026 340.199355 
L 1140.000026 258.534426 
L 1140.000026 258.534426 
L 1128.000001 241.945509 
L 1115.999977 260.024859 
L 1103.999989 299.898755 
L 1092 262.876487 
L 1080.000011 235.116103 
L 1068.000023 269.105815 
L 1055.999999 306.341915 
L 1043.999974 309.362284 
L 1031.999986 250.486755 
L 1019.999997 309.940934 
L 1008.000009 273.268208 
L 996.00002 206.69634 
L 983.999996 211.993407 
L 971.999971 195.197434 
L 959.999983 286.178977 
L 947.999994 269.895176 
L 936.000006 273.028531 
L 924.000017 278.478293 
L 912.000029 354.068091 
L 900.000004 267.280803 
L 887.99998 260.847191 
L 875.999991 239.601931 
L 864.000003 271.043277 
L 852.000014 298.352243 
L 840.000026 243.973186 
L 828.000001 267.669292 
L 815.999977 282.74445 
L 803.999989 273.130641 
L 792 204.257733 
L 780.000011 202.508818 
L 768.000005 298.939899 
L 755.999999 200.577597 
L 744.00001 142.677909 
L 732.000004 257.991948 
L 719.999997 304.786891 
L 708.000009 258.03054 
L 696.000002 268.544812 
L 683.999996 244.356181 
L 672.000007 268.586457 
L 660.000001 254.353362 
L 647.999994 133.935516 
L 636.000006 201.046641 
L 623.999999 91.269949 
L 611.999993 144.929755 
L 600.000004 161.915676 
L 587.999998 167.909211 
L 575.999991 109.216342 
L 564.000003 136.233759 
L 551.999996 261.315031 
L 539.99999 259.330806 
L 528.000001 307.136862 
L 515.999995 259.434933 
L 503.999989 261.348983 
L 492 238.129832 
L 480.000003 274.471822 
L 467.999996 264.760601 
L 455.999999 294.927045 
L 444.000001 303.050611 
L 431.999995 335.225432 
L 419.999997 305.63668 
L 408 261.295986 
L 396.000002 290.09484 
L 384.000005 295.731373 
L 371.999998 273.357001 
L 360.000001 314.211399 
L 348.000003 327.715066 
L 336.000001 273.382097 
L 323.999999 281.609207 
L 311.999997 187.092549 
L 300 272.763731 
L 288.000002 278.509886 
L 276 257.746657 
L 263.999998 268.829294 
L 252.000001 323.736998 
L 240.000001 236.608657 
L 228 252.522579 
L 216 330.556473 
L 204 314.044906 
L 192 281.769494 
L 180 244.888328 
L 168 238.132531 
L 156 259.953056 
L 143.999999 275.480404 
L 131.999999 302.931459 
L 120.000002 268.29943 
L 108 289.365768 
L 95.999998 305.892752 
L 84 284.446567 
L 72.000003 229.079197 
L 60.000001 285.080658 
L 47.999999 296.665088 
L 35.999997 316.358037 
L 23.999999 314.301424 
L 12.000002 280.206462 
L -0.000005 306.679281 
L -12.000002 253.556495 
L -24 280.441507 
L -35.999997 258.052403 
z
" clip-path="url(#pf4310c6103)" style="fill: #7b4fa3; fill-opacity: 0.25"/>
   </g>
   <g id="matplotlib.axis_1">
    <g id="xtick_1">
     <g id="line2d_1">
      <defs>
       <path id="m05a5fb9ee2" d="M 0 0 
L 0 3.5 
" style="stroke: #000000; stroke-width: 0.8"/>
      </defs>
      <g>
       <use xlink:href="#m05a5fb9ee2" x="72" y="396" style="stroke: #000000; stroke-width: 0.8"/>
      </g>
     </g>
     <g id="text_1">
      <!-- −100 -->
      <g transform="translate(50.02625 415.1575) scale(0.16 -0.16)">
       <defs>
        <path id="DejaVuSans-2212" d="M 678 2272 
L 4684 2272 
L 4684 1741 
L 678 1741 
L 678 2272 
z
" transform="scale(0.015625)"/>
        <path id="DejaVuSans-31" d="M 794 531 
L 1825 531 
L 1825 4091 
L 703 3866 
L 703 4441 
L 1819 4666 
L 2450 4666 
L 2450 531 
L 3481 531 
L 3481 0 
L 794 0 
L 794 531 
z
" transform="scale(0.015625)"/>
        <path id="DejaVuSans-30" d="M 2034 4250 
Q 1547 4250 1301 3770 
Q 1056 3291 1056 2328 
Q 1056 1369 1301 889 
Q 1547 409 2034 409 
Q 2525 409 2770 889 
Q 3016 1369 3016 2328 
Q 3016 3291 2770 3770 
Q 2525 4250 2034 4250 
z
M 2034 4750 
Q 2819 4750 3233 4129 
Q 3647 3509 3647 2328 
Q 3647 1150 3233 529 
Q 2819 -91 2034 -91 
Q 1250 -91 836 529 
Q 422 1150 422 2328 
Q 422 3509 836 4129 
Q 1250 4750 2034 4750 
z
" transform="scale(0.015625)"/>
       </defs>
       <use xlink:href="#DejaVuSans-2212"/>
       <use xlink:href="#DejaVuSans-31" x="83.789062"/>
       <use xlink:href="#DejaVuSans-30" x="147.412109"/>
       <use xlink:href="#DejaVuSans-30" x="211.035156"/>
      </g>
     </g>
    </g>
    <g id="xtick_2">
     <g id="line2d_2">
      <g>
       <use xlink:href="#m05a5fb9ee2" x="192" y="396" style="stroke: #000000; stroke-width: 0.8"/>
      </g>
     </g>
     <g id="text_2">
      <!-- 0 -->
      <g transform="translate(186.91 415.1575) scale(0.16 -0.16)">
       <use xlink:href="#DejaVuSans-30"/>
      </g>
     </g>
    </g>
    <g id="xtick_3">
     <g id="line2d_3">
      <g>
       <use xlink:href="#m05a5fb9ee2" x="312" y="396" style="stroke: #000000; stroke-width: 0.8"/>
      </g>
     </g>
     <g id="text_3">
      <!-- 100 -->
      <g transform="translate(296.73 415.1575) scale(0.16 -0.16)">
       <use xlink:href="#DejaVuSans-31"/>
       <use xlink:href="#DejaVuSans-30" x="63.623047"/>
       <use xlink:href="#DejaVuSans-30" x="127.246094"/>
      </g>
     </g>
    </g>
    <g id="xtick_4">
     <g id="line2d_4">
      <g>
       <use xlink:href="#m05a5fb9ee2" x="432" y="396" style="stroke: #000000; stroke-width: 0.8"/>
      </g>
     </g>
     <g id="text_4">
      <!-- 200 -->
      <g transform="translate(416.73 415.1575) scale(0.16 -0.16)">
       <defs>
        <path id="DejaVuSans-32" d="M 1228 531 
L 3431 531 
L 3431 0 
L 469 0 
L 469 531 
Q 828 903 1448 1529 
Q 2069 2156 2228 2338 
Q 2531 2678 2651 2914 
Q 2772 3150 2772 3378 
Q 2772 3750 2511 3984 
Q 2250 4219 1831 4219 
Q 1534 4219 1204 4116 
Q 875 4013 500 3803 
L 500 4441 
Q 881 4594 1212 4672 
Q 1544 4750 1819 4750 
Q 2544 4750 2975 4387 
Q 3406 4025 3406 3419 
Q 3406 3131 3298 2873 
Q 3191 2616 2906 2266 
Q 2828 2175 2409 1742 
Q 1991 1309 1228 531 
z
" transform="scale(0.015625)"/>
       </defs>
       <use xlink:href="#DejaVuSans-32"/>
       <use xlink:href="#DejaVuSans-30" x="63.623047"/>
       <use xlink:href="#DejaVuSans-30" x="127.246094"/>
      </g>
     </g>
    </g>
    <g id="xtick_5">
     <g id="line2d_5">
      <g>
       <use xlink:href="#m05a5fb9ee2" x="552" y="396" style="stroke: #000000; stroke-width: 0.8"/>
      </g>
     </g>
     <g id="text_5">
      <!-- 300 -->
      <g transform="translate(536.73 415.1575) scale(0.16 -0.16)">
       <defs>
        <path id="DejaVuSans-33" d="M 2597 2516 
Q 3050 2419 3304 2112 
Q 3559 1806 3559 1356 
Q 3559 666 3084 287 
Q 2609 -91 1734 -91 
Q 1441 -91 1130 -33 
Q 819 25 488 141 
L 488 750 
Q 750 597 1062 519 
Q 1375 441 1716 441 
Q 2309 441 2620 675 
Q 2931 909 2931 1356 
Q 2931 1769 2642 2001 
Q 2353 2234 1838 2234 
L 1294 2234 
L 1294 2753 
L 1863 2753 
Q 2328 2753 2575 2939 
Q 2822 3125 2822 3475 
Q 2822 3834 2567 4026 
Q 2313 4219 1838 4219 
Q 1578 4219 1281 4162 
Q 984 4106 628 3988 
L 628 4550 
Q 988 4650 1302 4700 
Q 1616 4750 1894 4750 
Q 2613 4750 3031 4423 
Q 3450 4097 3450 3541 
Q 3450 3153 3228 2886 
Q 3006 2619 2597 2516 
z
" transform="scale(0.015625)"/>
       </defs>
       <use xlink:href="#DejaVuSans-33"/>
       <use xlink:href="#DejaVuSans-30" x="63.623047"/>
       <use xlink:href="#DejaVuSans-30" x="127.246094"/>
      </g>
     </g>
    </g>
    <g id="xtick_6">
     <g id="line2d_6">
      <g>
       <use xlink:href="#m05a5fb9ee2" x="672" y="396" style="stroke: #000000; stroke-width: 0.8"/>
      </g>
     </g>
     <g id="text_6">
      <!-- 400 -->
      <g transform="translate(656.73 415.1575) scale(0.16 -0.16)">
       <defs>
        <path id="DejaVuSans-34" d="M 2419 4116 
L 825 1625 
L 2419 1625 
L 2419 4116 
z
M 2253 4666 
L 3047 4666 
L 3047 1625 
L 3713 1625 
L 3713 1100 
L 3047 1100 
L 3047 0 
L 2419 0 
L 2419 1100 
L 313 1100 
L 313 1709 
L 2253 4666 
z
" transform="scale(0.015625)"/>
       </defs>
       <use xlink:href="#DejaVuSans-34"/>
       <use xlink:href="#DejaVuSans-30" x="63.623047"/>
       <use xlink:href="#DejaVuSans-30" x="127.246094"/>
      </g>
     </g>
    </g>
    <g id="xtick_7">
     <g id="line2d_7">
      <g>
       <use xlink:href="#m05a5fb9ee2" x="792" y="396" style="stroke: #000000; stroke-width: 0.8"/>
      </g>
     </g>
     <g id="text_7">
      <!-- 500 -->
      <g transform="translate(776.73 415.1575) scale(0.16 -0.16)">
       <defs>
        <path id="DejaVuSans-35" d="M 691 4666 
L 3169 4666 
L 3169 4134 
L 1269 4134 
L 1269 2991 
Q 1406 3038 1543 3061 
Q 1681 3084 1819 3084 
Q 2600 3084 3056 2656 
Q 3513 2228 3513 1497 
Q 3513 744 3044 326 
Q 2575 -91 1722 -91 
Q 1428 -91 1123 -41 
Q 819 9 494 109 
L 494 744 
Q 775 591 1075 516 
Q 1375 441 1709 441 
Q 2250 441 2565 725 
Q 2881 1009 2881 1497 
Q 2881 1984 2565 2268 
Q 2250 2553 1709 2553 
Q 1456 2553 1204 2497 
Q 953 2441 691 2322 
L 691 4666 
z
" transform="scale(0.015625)"/>
       </defs>
       <use xlink:href="#DejaVuSans-35"/>
       <use xlink:href="#DejaVuSans-30" x="63.623047"/>
       <use xlink:href="#DejaVuSans-30" x="127.246094"/>
      </g>
     </g>
    </g>
    <g id="text_8">
     <!-- Time from Stimulus Onset (ms) -->
     <g transform="translate(291.473438 436.162187) scale(0.18 -0.18)">
      <defs>
       <path id="DejaVuSans-54" d="M -19 4666 
L 3928 4666 
L 3928 4134 
L 2272 4134 
L 2272 0 
L 1638 0 
L 1638 4134 
L -19 4134 
L -19 4666 
z
" transform="scale(0.015625)"/>
       <path id="DejaVuSans-69" d="M 603 3500 
L 1178 3500 
L 1178 0 
L 603 0 
L 603 3500 
z
M 603 4863 
L 1178 4863 
L 1178 4134 
L 603 4134 
L 603 4863 
z
" transform="scale(0.015625)"/>
       <path id="DejaVuSans-6d" d="M 3328 2828 
Q 3544 3216 3844 3400 
Q 4144 3584 4550 3584 
Q 5097 3584 5394 3201 
Q 5691 2819 5691 2113 
L 5691 0 
L 5113 0 
L 5113 2094 
Q 5113 2597 4934 2840 
Q 4756 3084 4391 3084 
Q 3944 3084 3684 2787 
Q 3425 2491 3425 1978 
L 3425 0 
L 2847 0 
L 2847 2094 
Q 2847 2600 2669 2842 
Q 2491 3084 2119 3084 
Q 1678 3084 1418 2786 
Q 1159 2488 1159 1978 
L 1159 0 
L 581 0 
L 581 3500 
L 1159 3500 
L 1159 2956 
Q 1356 3278 1631 3431 
Q 1906 3584 2284 3584 
Q 2666 3584 2933 3390 
Q 3200 3197 3328 2828 
z
" transform="scale(0.015625)"/>
       <path id="DejaVuSans-65" d="M 3597 1894 
L 3597 1613 
L 953 1613 
Q 991 1019 1311 708 
Q 1631 397 2203 397 
Q 2534 397 2845 478 
Q 3156 559 3463 722 
L 3463 178 
Q 3153 47 2828 -22 
Q 2503 -91 2169 -91 
Q 1331 -91 842 396 
Q 353 884 353 1716 
Q 353 2575 817 3079 
Q 1281 3584 2069 3584 
Q 2775 3584 3186 3129 
Q 3597 2675 3597 1894 
z
M 3022 2063 
Q 3016 2534 2758 2815 
Q 2500 3097 2075 3097 
Q 1594 3097 1305 2825 
Q 1016 2553 972 2059 
L 3022 2063 
z
" transform="scale(0.015625)"/>
       <path id="DejaVuSans-20" transform="scale(0.015625)"/>
       <path id="DejaVuSans-66" d="M 2375 4863 
L 2375 4384 
L 1825 4384 
Q 1516 4384 1395 4259 
Q 1275 4134 1275 3809 
L 1275 3500 
L 2222 3500 
L 2222 3053 
L 1275 3053 
L 1275 0 
L 697 0 
L 697 3053 
L 147 3053 
L 147 3500 
L 697 3500 
L 697 3744 
Q 697 4328 969 4595 
Q 1241 4863 1831 4863 
L 2375 4863 
z
" transform="scale(0.015625)"/>
       <path id="DejaVuSans-72" d="M 2631 2963 
Q 2534 3019 2420 3045 
Q 2306 3072 2169 3072 
Q 1681 3072 1420 2755 
Q 1159 2438 1159 1844 
L 1159 0 
L 581 0 
L 581 3500 
L 1159 3500 
L 1159 2956 
Q 1341 3275 1631 3429 
Q 1922 3584 2338 3584 
Q 2397 3584 2469 3576 
Q 2541 3569 2628 3553 
L 2631 2963 
z
" transform="scale(0.015625)"/>
       <path id="DejaVuSans-6f" d="M 1959 3097 
Q 1497 3097 1228 2736 
Q 959 2375 959 1747 
Q 959 1119 1226 758 
Q 1494 397 1959 397 
Q 2419 397 2687 759 
Q 2956 1122 2956 1747 
Q 2956 2369 2687 2733 
Q 2419 3097 1959 3097 
z
M 1959 3584 
Q 2709 3584 3137 3096 
Q 3566 2609 3566 1747 
Q 3566 888 3137 398 
Q 2709 -91 1959 -91 
Q 1206 -91 779 398 
Q 353 888 353 1747 
Q 353 2609 779 3096 
Q 1206 3584 1959 3584 
z
" transform="scale(0.015625)"/>
       <path id="DejaVuSans-53" d="M 3425 4513 
L 3425 3897 
Q 3066 4069 2747 4153 
Q 2428 4238 2131 4238 
Q 1616 4238 1336 4038 
Q 1056 3838 1056 3469 
Q 1056 3159 1242 3001 
Q 1428 2844 1947 2747 
L 2328 2669 
Q 3034 2534 3370 2195 
Q 3706 1856 3706 1288 
Q 3706 609 3251 259 
Q 2797 -91 1919 -91 
Q 1588 -91 1214 -16 
Q 841 59 441 206 
L 441 856 
Q 825 641 1194 531 
Q 1563 422 1919 422 
Q 2459 422 2753 634 
Q 3047 847 3047 1241 
Q 3047 1584 2836 1778 
Q 2625 1972 2144 2069 
L 1759 2144 
Q 1053 2284 737 2584 
Q 422 2884 422 3419 
Q 422 4038 858 4394 
Q 1294 4750 2059 4750 
Q 2388 4750 2728 4690 
Q 3069 4631 3425 4513 
z
" transform="scale(0.015625)"/>
       <path id="DejaVuSans-74" d="M 1172 4494 
L 1172 3500 
L 2356 3500 
L 2356 3053 
L 1172 3053 
L 1172 1153 
Q 1172 725 1289 603 
Q 1406 481 1766 481 
L 2356 481 
L 2356 0 
L 1766 0 
Q 1100 0 847 248 
Q 594 497 594 1153 
L 594 3053 
L 172 3053 
L 172 3500 
L 594 3500 
L 594 4494 
L 1172 4494 
z
" transform="scale(0.015625)"/>
       <path id="DejaVuSans-75" d="M 544 1381 
L 544 3500 
L 1119 3500 
L 1119 1403 
Q 1119 906 1312 657 
Q 1506 409 1894 409 
Q 2359 409 2629 706 
Q 2900 1003 2900 1516 
L 2900 3500 
L 3475 3500 
L 3475 0 
L 2900 0 
L 2900 538 
Q 2691 219 2414 64 
Q 2138 -91 1772 -91 
Q 1169 -91 856 284 
Q 544 659 544 1381 
z
M 1991 3584 
L 1991 3584 
z
" transform="scale(0.015625)"/>
       <path id="DejaVuSans-6c" d="M 603 4863 
L 1178 4863 
L 1178 0 
L 603 0 
L 603 4863 
z
" transform="scale(0.015625)"/>
       <path id="DejaVuSans-73" d="M 2834 3397 
L 2834 2853 
Q 2591 2978 2328 3040 
Q 2066 3103 1784 3103 
Q 1356 3103 1142 2972 
Q 928 2841 928 2578 
Q 928 2378 1081 2264 
Q 1234 2150 1697 2047 
L 1894 2003 
Q 2506 1872 2764 1633 
Q 3022 1394 3022 966 
Q 3022 478 2636 193 
Q 2250 -91 1575 -91 
Q 1294 -91 989 -36 
Q 684 19 347 128 
L 347 722 
Q 666 556 975 473 
Q 1284 391 1588 391 
Q 1994 391 2212 530 
Q 2431 669 2431 922 
Q 2431 1156 2273 1281 
Q 2116 1406 1581 1522 
L 1381 1569 
Q 847 1681 609 1914 
Q 372 2147 372 2553 
Q 372 3047 722 3315 
Q 1072 3584 1716 3584 
Q 2034 3584 2315 3537 
Q 2597 3491 2834 3397 
z
" transform="scale(0.015625)"/>
       <path id="DejaVuSans-4f" d="M 2522 4238 
Q 1834 4238 1429 3725 
Q 1025 3213 1025 2328 
Q 1025 1447 1429 934 
Q 1834 422 2522 422 
Q 3209 422 3611 934 
Q 4013 1447 4013 2328 
Q 4013 3213 3611 3725 
Q 3209 4238 2522 4238 
z
M 2522 4750 
Q 3503 4750 4090 4092 
Q 4678 3434 4678 2328 
Q 4678 1225 4090 567 
Q 3503 -91 2522 -91 
Q 1538 -91 948 565 
Q 359 1222 359 2328 
Q 359 3434 948 4092 
Q 1538 4750 2522 4750 
z
" transform="scale(0.015625)"/>
       <path id="DejaVuSans-6e" d="M 3513 2113 
L 3513 0 
L 2938 0 
L 2938 2094 
Q 2938 2591 2744 2837 
Q 2550 3084 2163 3084 
Q 1697 3084 1428 2787 
Q 1159 2491 1159 1978 
L 1159 0 
L 581 0 
L 581 3500 
L 1159 3500 
L 1159 2956 
Q 1366 3272 1645 3428 
Q 1925 3584 2291 3584 
Q 2894 3584 3203 3211 
Q 3513 2838 3513 2113 
z
" transform="scale(0.015625)"/>
       <path id="DejaVuSans-28" d="M 1984 4856 
Q 1566 4138 1362 3434 
Q 1159 2731 1159 2009 
Q 1159 1288 1364 580 
Q 1569 -128 1984 -844 
L 1484 -844 
Q 1016 -109 783 600 
Q 550 1309 550 2009 
Q 550 2706 781 3412 
Q 1013 4119 1484 4856 
L 1984 4856 
z
" transform="scale(0.015625)"/>
       <path id="DejaVuSans-29" d="M 513 4856 
L 1013 4856 
Q 1481 4119 1714 3412 
Q 1947 2706 1947 2009 
Q 1947 1309 1714 600 
Q 1481 -109 1013 -844 
L 513 -844 
Q 928 -128 1133 580 
Q 1338 1288 1338 2009 
Q 1338 2731 1133 3434 
Q 928 4138 513 4856 
z
" transform="scale(0.015625)"/>
      </defs>
      <use xlink:href="#DejaVuSans-54"/>
      <use xlink:href="#DejaVuSans-69" x="57.958984"/>
      <use xlink:href="#DejaVuSans-6d" x="85.742188"/>
      <use xlink:href="#DejaVuSans-65" x="183.154297"/>
      <use xlink:href="#DejaVuSans-20" x="244.677734"/>
      <use xlink:href="#DejaVuSans-66" x="276.464844"/>
      <use xlink:href="#DejaVuSans-72" x="311.669922"/>
      <use xlink:href="#DejaVuSans-6f" x="350.533203"/>
      <use xlink:href="#DejaVuSans-6d" x="411.714844"/>
      <use xlink:href="#DejaVuSans-20" x="509.126953"/>
      <use xlink:href="#DejaVuSans-53" x="540.914062"/>
      <use xlink:href="#DejaVuSans-74" x="604.390625"/>
      <use xlink:href="#DejaVuSans-69" x="643.599609"/>
      <use xlink:href="#DejaVuSans-6d" x="671.382812"/>
      <use xlink:href="#DejaVuSans-75" x="768.794922"/>
      <use xlink:href="#DejaVuSans-6c" x="832.173828"/>
      <use xlink:href="#DejaVuSans-75" x="859.957031"/>
      <use xlink:href="#DejaVuSans-73" x="923.335938"/>
      <use xlink:href="#DejaVuSans-20" x="975.435547"/>
      <use xlink:href="#DejaVuSans-4f" x="1007.222656"/>
      <use xlink:href="#DejaVuSans-6e" x="1085.933594"/>
      <use xlink:href="#DejaVuSans-73" x="1149.3125"/>
      <use xlink:href="#DejaVuSans-65" x="1201.412109"/>
      <use xlink:href="#DejaVuSans-74" x="1262.935547"/>
      <use xlink:href="#DejaVuSans-20" x="1302.144531"/>
      <use xlink:href="#DejaVuSans-28" x="1333.931641"/>
      <use xlink:href="#DejaVuSans-6d" x="1372.945312"/>
      <use xlink:href="#DejaVuSans-73" x="1470.357422"/>
      <use xlink:href="#DejaVuSans-29" x="1522.457031"/>
     </g>
    </g>
   </g>
   <g id="matplotlib.axis_2">
    <g id="ytick_1">
     <g id="line2d_8">
      <defs>
       <path id="m3ea9127a35" d="M 0 0 
L -3.5 0 
" style="stroke: #000000; stroke-width: 0.8"/>
      </defs>
      <g>
       <use xlink:href="#m3ea9127a35" x="72" y="361.554929" style="stroke: #000000; stroke-width: 0.8"/>
      </g>
     </g>
     <g id="text_9">
      <!-- 2 -->
      <g transform="translate(54.82 367.633679) scale(0.16 -0.16)">
       <use xlink:href="#DejaVuSans-32"/>
      </g>
     </g>
    </g>
    <g id="ytick_2">
     <g id="line2d_9">
      <g>
       <use xlink:href="#m3ea9127a35" x="72" y="301.584179" style="stroke: #000000; stroke-width: 0.8"/>
      </g>
     </g>
     <g id="text_10">
      <!-- 4 -->
      <g transform="translate(54.82 307.662929) scale(0.16 -0.16)">
       <use xlink:href="#DejaVuSans-34"/>
      </g>
     </g>
    </g>
    <g id="ytick_3">
     <g id="line2d_10">
      <g>
       <use xlink:href="#m3ea9127a35" x="72" y="241.613429" style="stroke: #000000; stroke-width: 0.8"/>
      </g>
     </g>
     <g id="text_11">
      <!-- 6 -->
      <g transform="translate(54.82 247.692179) scale(0.16 -0.16)">
       <defs>
        <path id="DejaVuSans-36" d="M 2113 2584 
Q 1688 2584 1439 2293 
Q 1191 2003 1191 1497 
Q 1191 994 1439 701 
Q 1688 409 2113 409 
Q 2538 409 2786 701 
Q 3034 994 3034 1497 
Q 3034 2003 2786 2293 
Q 2538 2584 2113 2584 
z
M 3366 4563 
L 3366 3988 
Q 3128 4100 2886 4159 
Q 2644 4219 2406 4219 
Q 1781 4219 1451 3797 
Q 1122 3375 1075 2522 
Q 1259 2794 1537 2939 
Q 1816 3084 2150 3084 
Q 2853 3084 3261 2657 
Q 3669 2231 3669 1497 
Q 3669 778 3244 343 
Q 2819 -91 2113 -91 
Q 1303 -91 875 529 
Q 447 1150 447 2328 
Q 447 3434 972 4092 
Q 1497 4750 2381 4750 
Q 2619 4750 2861 4703 
Q 3103 4656 3366 4563 
z
" transform="scale(0.015625)"/>
       </defs>
       <use xlink:href="#DejaVuSans-36"/>
      </g>
     </g>
    </g>
    <g id="ytick_4">
     <g id="line2d_11">
      <g>
       <use xlink:href="#m3ea9127a35" x="72" y="181.64268" style="stroke: #000000; stroke-width: 0.8"/>
      </g>
     </g>
     <g id="text_12">
      <!-- 8 -->
      <g transform="translate(54.82 187.72143) scale(0.16 -0.16)">
       <defs>
        <path id="DejaVuSans-38" d="M 2034 2216 
Q 1584 2216 1326 1975 
Q 1069 1734 1069 1313 
Q 1069 891 1326 650 
Q 1584 409 2034 409 
Q 2484 409 2743 651 
Q 3003 894 3003 1313 
Q 3003 1734 2745 1975 
Q 2488 2216 2034 2216 
z
M 1403 2484 
Q 997 2584 770 2862 
Q 544 3141 544 3541 
Q 544 4100 942 4425 
Q 1341 4750 2034 4750 
Q 2731 4750 3128 4425 
Q 3525 4100 3525 3541 
Q 3525 3141 3298 2862 
Q 3072 2584 2669 2484 
Q 3125 2378 3379 2068 
Q 3634 1759 3634 1313 
Q 3634 634 3220 271 
Q 2806 -91 2034 -91 
Q 1263 -91 848 271 
Q 434 634 434 1313 
Q 434 1759 690 2068 
Q 947 2378 1403 2484 
z
M 1172 3481 
Q 1172 3119 1398 2916 
Q 1625 2713 2034 2713 
Q 2441 2713 2670 2916 
Q 2900 3119 2900 3481 
Q 2900 3844 2670 4047 
Q 2441 4250 2034 4250 
Q 1625 4250 1398 4047 
Q 1172 3844 1172 3481 
z
" transform="scale(0.015625)"/>
       </defs>
       <use xlink:href="#DejaVuSans-38"/>
      </g>
     </g>
    </g>
    <g id="ytick_5">
     <g id="line2d_12">
      <g>
       <use xlink:href="#m3ea9127a35" x="72" y="121.67193" style="stroke: #000000; stroke-width: 0.8"/>
      </g>
     </g>
     <g id="text_13">
      <!-- 10 -->
      <g transform="translate(44.64 127.75068) scale(0.16 -0.16)">
       <use xlink:href="#DejaVuSans-31"/>
       <use xlink:href="#DejaVuSans-30" x="63.623047"/>
      </g>
     </g>
    </g>
    <g id="ytick_6">
     <g id="line2d_13">
      <g>
       <use xlink:href="#m3ea9127a35" x="72" y="61.70118" style="stroke: #000000; stroke-width: 0.8"/>
      </g>
     </g>
     <g id="text_14">
      <!-- 12 -->
      <g transform="translate(44.64 67.77993) scale(0.16 -0.16)">
       <use xlink:href="#DejaVuSans-31"/>
       <use xlink:href="#DejaVuSans-32" x="63.623047"/>
      </g>
     </g>
    </g>
    <g id="text_15">
     <!-- ΔLL (bits) -->
     <g transform="translate(36.896563 258.499687) rotate(-90) scale(0.18 -0.18)">
      <defs>
       <path id="DejaVuSans-394" d="M 2188 4044 
L 906 525 
L 3472 525 
L 2188 4044 
z
M 50 0 
L 1831 4666 
L 2547 4666 
L 4325 0 
L 50 0 
z
" transform="scale(0.015625)"/>
       <path id="DejaVuSans-4c" d="M 628 4666 
L 1259 4666 
L 1259 531 
L 3531 531 
L 3531 0 
L 628 0 
L 628 4666 
z
" transform="scale(0.015625)"/>
       <path id="DejaVuSans-62" d="M 3116 1747 
Q 3116 2381 2855 2742 
Q 2594 3103 2138 3103 
Q 1681 3103 1420 2742 
Q 1159 2381 1159 1747 
Q 1159 1113 1420 752 
Q 1681 391 2138 391 
Q 2594 391 2855 752 
Q 3116 1113 3116 1747 
z
M 1159 2969 
Q 1341 3281 1617 3432 
Q 1894 3584 2278 3584 
Q 2916 3584 3314 3078 
Q 3713 2572 3713 1747 
Q 3713 922 3314 415 
Q 2916 -91 2278 -91 
Q 1894 -91 1617 61 
Q 1341 213 1159 525 
L 1159 0 
L 581 0 
L 581 4863 
L 1159 4863 
L 1159 2969 
z
" transform="scale(0.015625)"/>
      </defs>
      <use xlink:href="#DejaVuSans-394"/>
      <use xlink:href="#DejaVuSans-4c" x="68.408203"/>
      <use xlink:href="#DejaVuSans-4c" x="124.121094"/>
      <use xlink:href="#DejaVuSans-20" x="179.833984"/>
      <use xlink:href="#DejaVuSans-28" x="211.621094"/>
      <use xlink:href="#DejaVuSans-62" x="250.634766"/>
      <use xlink:href="#DejaVuSans-69" x="314.111328"/>
      <use xlink:href="#DejaVuSans-74" x="341.894531"/>
      <use xlink:href="#DejaVuSans-73" x="381.103516"/>
      <use xlink:href="#DejaVuSans-29" x="433.203125"/>
     </g>
    </g>
   </g>
   <g id="line2d_14">
    <path d="M 192 396 
L 192 36 
" clip-path="url(#pf4310c6103)" style="fill: none; stroke-dasharray: 2.96,1.28; stroke-dashoffset: 0; stroke: #000000; stroke-width: 0.8"/>
   </g>
   <g id="line2d_15">
    <path d="M -1 333.043595 
L -0.000005 335.845508 
L 12.000002 258.655783 
L 23.999999 345.712895 
L 35.999997 321.252067 
L 47.999999 313.458272 
L 60.000001 335.747192 
L 72.000003 296.969715 
L 84 307.874966 
L 95.999998 256.249923 
L 108 290.229881 
L 120.000002 335.75799 
L 131.999999 339.638666 
L 143.999999 289.464474 
L 156 281.332878 
L 168 306.538925 
L 180 297.11562 
L 192 322.944869 
L 204 359.18205 
L 216 299.414093 
L 228 332.353512 
L 240.000001 317.868365 
L 252.000001 327.801661 
L 263.999998 271.276673 
L 276 308.063236 
L 288.000002 305.382011 
L 300 290.163452 
L 311.999997 311.070505 
L 323.999999 301.536628 
L 336.000001 299.81289 
L 348.000003 283.53581 
L 360.000001 291.568078 
L 371.999998 305.625737 
L 384.000005 285.199741 
L 396.000002 330.741404 
L 408 315.009611 
L 419.999997 312.484601 
L 431.999995 332.457603 
L 444.000001 364.584106 
L 455.999999 272.421182 
L 467.999996 329.549794 
L 480.000003 299.260992 
L 492 296.920159 
L 503.999989 288.793077 
L 515.999995 268.279887 
L 528.000001 157.402556 
L 539.99999 234.252705 
L 551.999996 243.505673 
L 564.000003 202.082082 
L 575.999991 302.34934 
L 587.999998 262.224236 
L 600.000004 201.738512 
L 611.999993 179.785915 
L 623.999999 271.035065 
L 636.000006 154.623186 
L 647.999994 207.704536 
L 660.000001 281.577919 
L 672.000007 249.876838 
L 683.999996 199.622959 
L 696.000002 238.997571 
L 708.000009 142.411063 
L 719.999997 240.47897 
L 732.000004 207.947136 
L 744.00001 257.721723 
L 755.999999 284.90812 
L 768.000005 233.762281 
L 780.000011 257.478151 
L 792 284.59963 
L 803.999989 259.392884 
L 815.999977 257.723436 
L 828.000001 252.839704 
L 829 257.478324 
" clip-path="url(#pf4310c6103)" style="fill: none; stroke: #c00a37; stroke-width: 2; stroke-linecap: square"/>
   </g>
   <g id="line2d_16">
    <path d="M -1 321.19668 
L -0.000005 325.010874 
L 12.000002 302.205214 
L 23.999999 329.000916 
L 35.999997 345.53172 
L 47.999999 322.580691 
L 60.000001 301.803928 
L 72.000003 268.237442 
L 84 312.297873 
L 95.999998 323.02134 
L 108 321.185082 
L 120.000002 295.573862 
L 131.999999 325.131284 
L 143.999999 298.415951 
L 156 285.021075 
L 168 271.72052 
L 180 303.248895 
L 192 299.214609 
L 204 330.496237 
L 216 349.171808 
L 228 282.612355 
L 240.000001 278.032184 
L 252.000001 339.188033 
L 263.999998 295.094951 
L 276 280.613803 
L 288.000002 313.467926 
L 300 305.407045 
L 311.999997 218.523776 
L 323.999999 302.404855 
L 336.000001 302.178069 
L 348.000003 340.072253 
L 360.000001 332.197953 
L 371.999998 293.664952 
L 384.000005 320.365763 
L 396.000002 314.335504 
L 408 281.645981 
L 419.999997 326.916187 
L 431.999995 352.103062 
L 444.000001 323.626356 
L 455.999999 325.268784 
L 467.999996 298.451924 
L 480.000003 295.583095 
L 492 266.895339 
L 503.999989 289.731819 
L 515.999995 298.327522 
L 528.000001 322.520204 
L 539.99999 293.210791 
L 551.999996 285.699974 
L 564.000003 197.863147 
L 575.999991 189.478594 
L 587.999998 222.690117 
L 600.000004 221.896012 
L 611.999993 190.869303 
L 623.999999 175.802673 
L 636.000006 237.106902 
L 647.999994 187.035094 
L 660.000001 285.020724 
L 672.000007 301.301155 
L 683.999996 276.546519 
L 696.000002 304.200514 
L 708.000009 288.072991 
L 719.999997 321.860658 
L 732.000004 286.404322 
L 744.00001 187.943489 
L 755.999999 239.492447 
L 768.000005 316.163805 
L 780.000011 260.869456 
L 792 270.212213 
L 803.999989 296.070533 
L 815.999977 307.014691 
L 828.000001 297.026672 
L 829 295.6365 
" clip-path="url(#pf4310c6103)" style="fill: none; stroke: #7b4fa3; stroke-width: 2; stroke-linecap: square"/>
   </g>
   <g id="patch_3">
    <path d="M 72 396 
L 72 36 
" style="fill: none; stroke: #000000; stroke-width: 0.8; stroke-linejoin: miter; stroke-linecap: square"/>
   </g>
   <g id="patch_4">
    <path d="M 792 396 
L 792 36 
" style="fill: none; stroke: #000000; stroke-width: 0.8; stroke-linejoin: miter; stroke-linecap: square"/>
   </g>
   <g id="patch_5">
    <path d="M 72 396 
L 792 396 
" style="fill: none; stroke: #000000; stroke-width: 0.8; stroke-linejoin: miter; stroke-linecap: square"/>
   </g>
   <g id="patch_6">
    <path d="M 72 36 
L 792 36 
" style="fill: none; stroke: #000000; stroke-width: 0.8; stroke-linejoin: miter; stroke-linecap: square"/>
   </g>
   <g id="legend_1">
    <g id="line2d_17">
     <path d="M 85.5 55.647656 
L 100.5 55.647656 
L 115.5 55.647656 
" style="fill: none; stroke: #c00a37; stroke-width: 2; stroke-linecap: square"/>
    </g>
    <g id="text_16">
     <!-- MLIP→MSC -->
     <g transform="translate(127.5 60.897656) scale(0.15 -0.15)">
      <defs>
       <path id="DejaVuSans-4d" d="M 628 4666 
L 1569 4666 
L 2759 1491 
L 3956 4666 
L 4897 4666 
L 4897 0 
L 4281 0 
L 4281 4097 
L 3078 897 
L 2444 897 
L 1241 4097 
L 1241 0 
L 628 0 
L 628 4666 
z
" transform="scale(0.015625)"/>
       <path id="DejaVuSans-49" d="M 628 4666 
L 1259 4666 
L 1259 0 
L 628 0 
L 628 4666 
z
" transform="scale(0.015625)"/>
       <path id="DejaVuSans-50" d="M 1259 4147 
L 1259 2394 
L 2053 2394 
Q 2494 2394 2734 2622 
Q 2975 2850 2975 3272 
Q 2975 3691 2734 3919 
Q 2494 4147 2053 4147 
L 1259 4147 
z
M 628 4666 
L 2053 4666 
Q 2838 4666 3239 4311 
Q 3641 3956 3641 3272 
Q 3641 2581 3239 2228 
Q 2838 1875 2053 1875 
L 1259 1875 
L 1259 0 
L 628 0 
L 628 4666 
z
" transform="scale(0.015625)"/>
       <path id="DejaVuSans-2192" d="M 5050 2147 
L 5050 1866 
L 3822 638 
L 3447 1013 
L 4175 1741 
L 366 1741 
L 366 2272 
L 4175 2272 
L 3447 3000 
L 3822 3375 
L 5050 2147 
z
" transform="scale(0.015625)"/>
       <path id="DejaVuSans-43" d="M 4122 4306 
L 4122 3641 
Q 3803 3938 3442 4084 
Q 3081 4231 2675 4231 
Q 1875 4231 1450 3742 
Q 1025 3253 1025 2328 
Q 1025 1406 1450 917 
Q 1875 428 2675 428 
Q 3081 428 3442 575 
Q 3803 722 4122 1019 
L 4122 359 
Q 3791 134 3420 21 
Q 3050 -91 2638 -91 
Q 1578 -91 968 557 
Q 359 1206 359 2328 
Q 359 3453 968 4101 
Q 1578 4750 2638 4750 
Q 3056 4750 3426 4639 
Q 3797 4528 4122 4306 
z
" transform="scale(0.015625)"/>
      </defs>
      <use xlink:href="#DejaVuSans-4d"/>
      <use xlink:href="#DejaVuSans-4c" x="86.279297"/>
      <use xlink:href="#DejaVuSans-49" x="141.992188"/>
      <use xlink:href="#DejaVuSans-50" x="171.484375"/>
      <use xlink:href="#DejaVuSans-2192" x="231.787109"/>
      <use xlink:href="#DejaVuSans-4d" x="315.576172"/>
      <use xlink:href="#DejaVuSans-53" x="401.855469"/>
      <use xlink:href="#DejaVuSans-43" x="465.332031"/>
     </g>
    </g>
    <g id="line2d_18">
     <path d="M 85.5 77.664844 
L 100.5 77.664844 
L 115.5 77.664844 
" style="fill: none; stroke: #7b4fa3; stroke-width: 2; stroke-linecap: square"/>
    </g>
    <g id="text_17">
     <!-- MSC→MLIP -->
     <g transform="translate(127.5 82.914844) scale(0.15 -0.15)">
      <use xlink:href="#DejaVuSans-4d"/>
      <use xlink:href="#DejaVuSans-53" x="86.279297"/>
      <use xlink:href="#DejaVuSans-43" x="149.755859"/>
      <use xlink:href="#DejaVuSans-2192" x="219.580078"/>
      <use xlink:href="#DejaVuSans-4d" x="303.369141"/>
      <use xlink:href="#DejaVuSans-4c" x="389.648438"/>
      <use xlink:href="#DejaVuSans-49" x="445.361328"/>
      <use xlink:href="#DejaVuSans-50" x="474.853516"/>
     </g>
    </g>
   </g>
  </g>
 </g>
 <defs>
  <clipPath id="pf4310c6103">
   <rect x="72" y="36" width="720" height="360"/>
  </clipPath>
 </defs>
</svg>
