<?xml version="1.0" encoding="utf-8" standalone="no"?>
<!DOCTYPE svg PUBLIC "-//W3C//DTD SVG 1.1//EN"
  "http://www.w3.org/Graphics/SVG/1.1/DTD/svg11.dtd">
<svg xmlns:xlink="http://www.w3.org/1999/xlink" width="561.6pt" height="561.6pt" viewBox="0 0 561.6 561.6" xmlns="http://www.w3.org/2000/svg" version="1.1">
 <metadata>
  <rdf:RDF xmlns:dc="http://purl.org/dc/elements/1.1/" xmlns:cc="http://creativecommons.org/ns#" xmlns:rdf="http://www.w3.org/1999/02/22-rdf-syntax-ns#">
   <cc:Work>
    <dc:type rdf:resource="http://purl.org/dc/dcmitype/StillImage"/>
    <dc:date>2025-12-06T19:14:41.776928</dc:date>
    <dc:format>image/svg+xml</dc:format>
    <dc:creator>
     <cc:Agent>
      <dc:title>Matplotlib v3.10.5, https://matplotlib.org/</dc:title>
     </cc:Agent>
    </dc:creator>
   </cc:Work>
  </rdf:RDF>
 </metadata>
 <defs>
  <style type="text/css">*{stroke-linejoin: round; stroke-linecap: butt}</style>
 </defs>
 <g id="figure_1">
  <g id="patch_1">
   <path d="M 0 561.6 
L 561.6 561.6 
L 561.6 0 
L 0 0 
z
" style="fill: #ffffff"/>
  </g>
  <g id="axes_1">
   <g id="patch_2">
    <path d="M 70.2 206.388 
L 505.44 206.388 
L 505.44 67.392 
L 70.2 67.392 
z
" style="fill: #ffffff"/>
   </g>
   <g id="FillBetweenPolyCollection_1">
    <defs>
     <path id="m5224631d57" d="M 89.983636 -429.533316 
L 89.983636 -370.542455 
L 93.980327 -372.695982 
L 97.977023 -371.695662 
L 101.973713 -373.245487 
L 105.97041 -371.654089 
L 109.967106 -373.252685 
L 113.963796 -371.984164 
L 117.960493 -369.422584 
L 121.957186 -371.718626 
L 125.953882 -370.313918 
L 129.950576 -371.849831 
L 133.947269 -369.574118 
L 137.943962 -371.26382 
L 141.940659 -370.515674 
L 145.937352 -372.652513 
L 149.934045 -372.300216 
L 153.93074 -372.043039 
L 157.927434 -372.12168 
L 161.924129 -370.629555 
L 165.920823 -371.94608 
L 169.917517 -371.465978 
L 173.914211 -370.536813 
L 177.910906 -371.589792 
L 181.9076 -370.984532 
L 185.904294 -372.028119 
L 189.900988 -370.271183 
L 193.897681 -372.422998 
L 197.894377 -371.455203 
L 201.891071 -372.52385 
L 205.887764 -372.385731 
L 209.884457 -370.509471 
L 213.881154 -372.008947 
L 217.877847 -370.547297 
L 221.874543 -370.05409 
L 225.871234 -374.394517 
L 229.86793 -370.338605 
L 233.864626 -369.507446 
L 237.861317 -370.960785 
L 241.858013 -370.361425 
L 245.854704 -372.933807 
L 249.8514 -371.118655 
L 253.848096 -371.543515 
L 257.844787 -371.740018 
L 261.841483 -369.961858 
L 265.838179 -371.133469 
L 269.83487 -369.480156 
L 273.83156 -371.504852 
L 277.828262 -370.527636 
L 281.824953 -370.646677 
L 285.821643 -370.971885 
L 289.818345 -368.593089 
L 293.815036 -371.082152 
L 297.811726 -371.313516 
L 301.808428 -369.018639 
L 305.805119 -372.034448 
L 309.801809 -370.804815 
L 313.798511 -371.151532 
L 317.795202 -371.214449 
L 321.791892 -372.987218 
L 325.788594 -372.011441 
L 329.785285 -371.951394 
L 333.781975 -371.213759 
L 337.778677 -371.768627 
L 341.775368 -368.993835 
L 345.772058 -372.207049 
L 349.76876 -370.130648 
L 353.765451 -369.685115 
L 357.762141 -372.897658 
L 361.758843 -373.421782 
L 365.755534 -372.771285 
L 369.752224 -372.711476 
L 373.748914 -373.496092 
L 377.745605 -371.257806 
L 381.742319 -373.072748 
L 385.739009 -371.496512 
L 389.7357 -371.38154 
L 393.73239 -371.065002 
L 397.72908 -371.949289 
L 401.725771 -369.85919 
L 405.722485 -369.149259 
L 409.719175 -371.360182 
L 413.715866 -372.000011 
L 417.712556 -371.434305 
L 421.709246 -371.217413 
L 425.705937 -371.441948 
L 429.702627 -370.345693 
L 433.699341 -371.751683 
L 437.696032 -371.679771 
L 441.692722 -372.278993 
L 445.689412 -370.555665 
L 449.686103 -373.235932 
L 453.682793 -371.330193 
L 457.679507 -369.675153 
L 461.676198 -371.550556 
L 465.672888 -372.05057 
L 469.669578 -372.375348 
L 473.666269 -370.217744 
L 477.662959 -373.894445 
L 481.659673 -371.971745 
L 485.656364 -372.624389 
L 485.656364 -428.540071 
L 485.656364 -428.540071 
L 481.659673 -427.131403 
L 477.662959 -427.736118 
L 473.666269 -426.826842 
L 469.669578 -427.272933 
L 465.672888 -428.070268 
L 461.676198 -430.067263 
L 457.679507 -426.557857 
L 453.682793 -428.408398 
L 449.686103 -429.878618 
L 445.689412 -423.606492 
L 441.692722 -423.040494 
L 437.696032 -429.726817 
L 433.699341 -429.406285 
L 429.702627 -430.587024 
L 425.705937 -428.971275 
L 421.709246 -427.612452 
L 417.712556 -424.834977 
L 413.715866 -427.362921 
L 409.719175 -426.093045 
L 405.722485 -425.500372 
L 401.725771 -426.271933 
L 397.72908 -422.5868 
L 393.73239 -423.801102 
L 389.7357 -428.25533 
L 385.739009 -428.848293 
L 381.742319 -430.920788 
L 377.745605 -423.858369 
L 373.748914 -423.345738 
L 369.752224 -421.88724 
L 365.755534 -424.409943 
L 361.758843 -428.260845 
L 357.762141 -425.191246 
L 353.765451 -424.656079 
L 349.76876 -426.886403 
L 345.772058 -424.018233 
L 341.775368 -423.229966 
L 337.778677 -423.741522 
L 333.781975 -428.817559 
L 329.785285 -428.606482 
L 325.788594 -426.962479 
L 321.791892 -430.384877 
L 317.795202 -425.350551 
L 313.798511 -427.825879 
L 309.801809 -429.812145 
L 305.805119 -425.136216 
L 301.808428 -424.557065 
L 297.811726 -428.705224 
L 293.815036 -422.687022 
L 289.818345 -424.958291 
L 285.821643 -428.084956 
L 281.824953 -422.054243 
L 277.828262 -428.928319 
L 273.83156 -423.018594 
L 269.83487 -426.448725 
L 265.838179 -424.495669 
L 261.841483 -427.516433 
L 257.844787 -428.666142 
L 253.848096 -423.893602 
L 249.8514 -428.171094 
L 245.854704 -424.175216 
L 241.858013 -431.598101 
L 237.861317 -423.757667 
L 233.864626 -426.386304 
L 229.86793 -422.492427 
L 225.871234 -429.490197 
L 221.874543 -425.716542 
L 217.877847 -429.491361 
L 213.881154 -425.666812 
L 209.884457 -427.28548 
L 205.887764 -434.522883 
L 201.891071 -430.996614 
L 197.894377 -432.04034 
L 193.897681 -424.567841 
L 189.900988 -427.872994 
L 185.904294 -426.359385 
L 181.9076 -425.367765 
L 177.910906 -425.945772 
L 173.914211 -422.934606 
L 169.917517 -425.918638 
L 165.920823 -426.945923 
L 161.924129 -432.119598 
L 157.927434 -421.163806 
L 153.93074 -428.079896 
L 149.934045 -422.009022 
L 145.937352 -428.459334 
L 141.940659 -428.623304 
L 137.943962 -425.040059 
L 133.947269 -433.91414 
L 129.950576 -422.602623 
L 125.953882 -431.400416 
L 121.957186 -424.740644 
L 117.960493 -428.759544 
L 113.963796 -421.884258 
L 109.967106 -428.706806 
L 105.97041 -421.833594 
L 101.973713 -426.295224 
L 97.977023 -421.35557 
L 93.980327 -429.216788 
L 89.983636 -429.533316 
z
"/>
    </defs>
    <g clip-path="url(#p65c893a587)">
     <use xlink:href="#m5224631d57" x="0" y="561.6" style="fill: #1f77b4; fill-opacity: 0.15"/>
    </g>
   </g>
   <g id="FillBetweenPolyCollection_2">
    <defs>
     <path id="mac4d337740" d="M 89.983636 -421.348222 
L 89.983636 -373.266517 
L 93.980327 -370.519594 
L 97.977023 -371.916143 
L 101.973713 -370.968387 
L 105.97041 -370.587204 
L 109.967106 -372.811472 
L 113.963796 -372.002024 
L 117.960493 -371.923209 
L 121.957186 -370.380638 
L 125.953882 -370.578951 
L 129.950576 -372.493649 
L 133.947269 -371.16736 
L 137.943962 -372.301059 
L 141.940659 -371.254822 
L 145.937352 -370.663039 
L 149.934045 -373.12598 
L 153.93074 -368.383081 
L 157.927434 -370.783318 
L 161.924129 -368.873044 
L 165.920823 -371.451069 
L 169.917517 -370.740629 
L 173.914211 -371.198051 
L 177.910906 -370.01991 
L 181.9076 -373.267338 
L 185.904294 -369.892981 
L 189.900988 -370.748929 
L 193.897681 -371.376044 
L 197.894377 -372.867885 
L 201.891071 -371.130561 
L 205.887764 -371.43845 
L 209.884457 -370.553221 
L 213.881154 -370.442263 
L 217.877847 -370.966744 
L 221.874543 -371.281108 
L 225.871234 -372.122787 
L 229.86793 -373.376963 
L 233.864626 -370.375885 
L 237.861317 -372.210463 
L 241.858013 -370.17433 
L 245.854704 -371.599215 
L 249.8514 -370.317341 
L 253.848096 -373.117644 
L 257.844787 -370.179697 
L 261.841483 -371.123419 
L 265.838179 -371.576909 
L 269.83487 -372.011588 
L 273.83156 -370.821168 
L 277.828262 -371.006263 
L 281.824953 -374.067943 
L 285.821643 -371.893099 
L 289.818345 -371.747599 
L 293.815036 -371.145252 
L 297.811726 -371.70568 
L 301.808428 -370.413169 
L 305.805119 -371.029295 
L 309.801809 -372.937948 
L 313.798511 -371.415377 
L 317.795202 -370.606949 
L 321.791892 -372.141079 
L 325.788594 -372.096392 
L 329.785285 -369.133279 
L 333.781975 -371.524808 
L 337.778677 -370.468475 
L 341.775368 -372.095903 
L 345.772058 -370.042589 
L 349.76876 -373.243498 
L 353.765451 -370.352708 
L 357.762141 -368.739311 
L 361.758843 -371.777699 
L 365.755534 -373.45229 
L 369.752224 -370.402026 
L 373.748914 -371.159857 
L 377.745605 -370.673125 
L 381.742319 -370.30808 
L 385.739009 -370.078626 
L 389.7357 -369.855426 
L 393.73239 -372.146413 
L 397.72908 -371.348273 
L 401.725771 -372.095764 
L 405.722485 -370.616175 
L 409.719175 -371.591985 
L 413.715866 -371.786103 
L 417.712556 -371.733516 
L 421.709246 -372.591415 
L 425.705937 -370.202586 
L 429.702627 -371.16328 
L 433.699341 -371.476484 
L 437.696032 -371.897293 
L 441.692722 -372.367705 
L 445.689412 -370.790767 
L 449.686103 -371.230449 
L 453.682793 -371.876178 
L 457.679507 -371.717566 
L 461.676198 -370.714723 
L 465.672888 -372.329808 
L 469.669578 -371.402718 
L 473.666269 -372.389789 
L 477.662959 -371.187996 
L 481.659673 -371.032318 
L 485.656364 -371.033018 
L 485.656364 -426.259013 
L 485.656364 -426.259013 
L 481.659673 -424.86131 
L 477.662959 -432.806552 
L 473.666269 -423.29744 
L 469.669578 -424.317049 
L 465.672888 -432.155961 
L 461.676198 -424.506071 
L 457.679507 -425.014076 
L 453.682793 -423.369599 
L 449.686103 -424.683293 
L 445.689412 -437.240956 
L 441.692722 -426.737236 
L 437.696032 -420.624595 
L 433.699341 -431.906772 
L 429.702627 -428.35396 
L 425.705937 -429.013351 
L 421.709246 -425.679829 
L 417.712556 -426.055629 
L 413.715866 -424.396007 
L 409.719175 -427.224195 
L 405.722485 -425.503208 
L 401.725771 -427.895885 
L 397.72908 -426.078169 
L 393.73239 -421.832956 
L 389.7357 -430.575286 
L 385.739009 -425.950063 
L 381.742319 -428.74971 
L 377.745605 -422.356593 
L 373.748914 -425.555868 
L 369.752224 -426.977008 
L 365.755534 -428.955518 
L 361.758843 -423.315089 
L 357.762141 -426.541402 
L 353.765451 -430.428861 
L 349.76876 -427.787398 
L 345.772058 -420.740327 
L 341.775368 -430.847669 
L 337.778677 -424.123267 
L 333.781975 -422.417398 
L 329.785285 -425.173213 
L 325.788594 -430.647898 
L 321.791892 -425.491026 
L 317.795202 -426.159905 
L 313.798511 -428.347412 
L 309.801809 -427.304395 
L 305.805119 -429.133969 
L 301.808428 -430.087647 
L 297.811726 -426.608886 
L 293.815036 -426.13606 
L 289.818345 -426.136742 
L 285.821643 -427.252767 
L 281.824953 -430.288351 
L 277.828262 -426.442434 
L 273.83156 -425.604354 
L 269.83487 -424.385094 
L 265.838179 -431.241802 
L 261.841483 -429.984285 
L 257.844787 -429.30597 
L 253.848096 -430.383625 
L 249.8514 -426.931453 
L 245.854704 -421.692429 
L 241.858013 -426.565914 
L 237.861317 -425.308121 
L 233.864626 -427.48633 
L 229.86793 -428.183779 
L 225.871234 -425.164363 
L 221.874543 -426.292356 
L 217.877847 -432.966485 
L 213.881154 -422.195382 
L 209.884457 -426.411596 
L 205.887764 -427.343817 
L 201.891071 -419.673133 
L 197.894377 -421.35635 
L 193.897681 -424.063089 
L 189.900988 -425.283827 
L 185.904294 -430.387272 
L 181.9076 -427.634319 
L 177.910906 -424.981104 
L 173.914211 -427.316895 
L 169.917517 -429.924836 
L 165.920823 -426.752561 
L 161.924129 -427.045632 
L 157.927434 -422.615776 
L 153.93074 -423.341399 
L 149.934045 -432.861558 
L 145.937352 -427.760715 
L 141.940659 -431.323699 
L 137.943962 -426.507536 
L 133.947269 -426.89664 
L 129.950576 -426.574364 
L 125.953882 -428.213613 
L 121.957186 -425.239617 
L 117.960493 -425.351934 
L 113.963796 -426.616696 
L 109.967106 -424.762527 
L 105.97041 -427.207192 
L 101.973713 -429.694947 
L 97.977023 -426.801756 
L 93.980327 -426.909197 
L 89.983636 -421.348222 
z
"/>
    </defs>
    <g clip-path="url(#p65c893a587)">
     <use xlink:href="#mac4d337740" x="0" y="561.6" style="fill: #ff7f0e; fill-opacity: 0.15"/>
    </g>
   </g>
   <g id="matplotlib.axis_1">
    <g id="xtick_1">
     <g id="line2d_1">
      <defs>
       <path id="mddbd6035d9" d="M 0 0 
L 0 3.5 
" style="stroke: #000000; stroke-width: 0.8"/>
      </defs>
      <g>
       <use xlink:href="#mddbd6035d9" x="87.985286" y="206.388" style="stroke: #000000; stroke-width: 0.8"/>
      </g>
     </g>
     <g id="text_1">
      <!-- −200 -->
      <g transform="translate(74.251693 220.986437) scale(0.1 -0.1)">
       <defs>
        <path id="DejaVuSans-2212" d="M 678 2272 
L 4684 2272 
L 4684 1741 
L 678 1741 
L 678 2272 
z
" transform="scale(0.015625)"/>
        <path id="DejaVuSans-32" d="M 1228 531 
L 3431 531 
L 3431 0 
L 469 0 
L 469 531 
Q 828 903 1448 1529 
Q 2069 2156 2228 2338 
Q 2531 2678 2651 2914 
Q 2772 3150 2772 3378 
Q 2772 3750 2511 3984 
Q 2250 4219 1831 4219 
Q 1534 4219 1204 4116 
Q 875 4013 500 3803 
L 500 4441 
Q 881 4594 1212 4672 
Q 1544 4750 1819 4750 
Q 2544 4750 2975 4387 
Q 3406 4025 3406 3419 
Q 3406 3131 3298 2873 
Q 3191 2616 2906 2266 
Q 2828 2175 2409 1742 
Q 1991 1309 1228 531 
z
" transform="scale(0.015625)"/>
        <path id="DejaVuSans-30" d="M 2034 4250 
Q 1547 4250 1301 3770 
Q 1056 3291 1056 2328 
Q 1056 1369 1301 889 
Q 1547 409 2034 409 
Q 2525 409 2770 889 
Q 3016 1369 3016 2328 
Q 3016 3291 2770 3770 
Q 2525 4250 2034 4250 
z
M 2034 4750 
Q 2819 4750 3233 4129 
Q 3647 3509 3647 2328 
Q 3647 1150 3233 529 
Q 2819 -91 2034 -91 
Q 1250 -91 836 529 
Q 422 1150 422 2328 
Q 422 3509 836 4129 
Q 1250 4750 2034 4750 
z
" transform="scale(0.015625)"/>
       </defs>
       <use xlink:href="#DejaVuSans-2212"/>
       <use xlink:href="#DejaVuSans-32" transform="translate(83.789062 0)"/>
       <use xlink:href="#DejaVuSans-30" transform="translate(147.412109 0)"/>
       <use xlink:href="#DejaVuSans-30" transform="translate(211.035156 0)"/>
      </g>
     </g>
    </g>
    <g id="xtick_2">
     <g id="line2d_2">
      <g>
       <use xlink:href="#mddbd6035d9" x="167.91917" y="206.388" style="stroke: #000000; stroke-width: 0.8"/>
      </g>
     </g>
     <g id="text_2">
      <!-- 0 -->
      <g transform="translate(164.73792 220.986437) scale(0.1 -0.1)">
       <use xlink:href="#DejaVuSans-30"/>
      </g>
     </g>
    </g>
    <g id="xtick_3">
     <g id="line2d_3">
      <g>
       <use xlink:href="#mddbd6035d9" x="247.853053" y="206.388" style="stroke: #000000; stroke-width: 0.8"/>
      </g>
     </g>
     <g id="text_3">
      <!-- 200 -->
      <g transform="translate(238.309303 220.986437) scale(0.1 -0.1)">
       <use xlink:href="#DejaVuSans-32"/>
       <use xlink:href="#DejaVuSans-30" transform="translate(63.623047 0)"/>
       <use xlink:href="#DejaVuSans-30" transform="translate(127.246094 0)"/>
      </g>
     </g>
    </g>
    <g id="xtick_4">
     <g id="line2d_4">
      <g>
       <use xlink:href="#mddbd6035d9" x="327.786937" y="206.388" style="stroke: #000000; stroke-width: 0.8"/>
      </g>
     </g>
     <g id="text_4">
      <!-- 400 -->
      <g transform="translate(318.243187 220.986437) scale(0.1 -0.1)">
       <defs>
        <path id="DejaVuSans-34" d="M 2419 4116 
L 825 1625 
L 2419 1625 
L 2419 4116 
z
M 2253 4666 
L 3047 4666 
L 3047 1625 
L 3713 1625 
L 3713 1100 
L 3047 1100 
L 3047 0 
L 2419 0 
L 2419 1100 
L 313 1100 
L 313 1709 
L 2253 4666 
z
" transform="scale(0.015625)"/>
       </defs>
       <use xlink:href="#DejaVuSans-34"/>
       <use xlink:href="#DejaVuSans-30" transform="translate(63.623047 0)"/>
       <use xlink:href="#DejaVuSans-30" transform="translate(127.246094 0)"/>
      </g>
     </g>
    </g>
    <g id="xtick_5">
     <g id="line2d_5">
      <g>
       <use xlink:href="#mddbd6035d9" x="407.720821" y="206.388" style="stroke: #000000; stroke-width: 0.8"/>
      </g>
     </g>
     <g id="text_5">
      <!-- 600 -->
      <g transform="translate(398.177071 220.986437) scale(0.1 -0.1)">
       <defs>
        <path id="DejaVuSans-36" d="M 2113 2584 
Q 1688 2584 1439 2293 
Q 1191 2003 1191 1497 
Q 1191 994 1439 701 
Q 1688 409 2113 409 
Q 2538 409 2786 701 
Q 3034 994 3034 1497 
Q 3034 2003 2786 2293 
Q 2538 2584 2113 2584 
z
M 3366 4563 
L 3366 3988 
Q 3128 4100 2886 4159 
Q 2644 4219 2406 4219 
Q 1781 4219 1451 3797 
Q 1122 3375 1075 2522 
Q 1259 2794 1537 2939 
Q 1816 3084 2150 3084 
Q 2853 3084 3261 2657 
Q 3669 2231 3669 1497 
Q 3669 778 3244 343 
Q 2819 -91 2113 -91 
Q 1303 -91 875 529 
Q 447 1150 447 2328 
Q 447 3434 972 4092 
Q 1497 4750 2381 4750 
Q 2619 4750 2861 4703 
Q 3103 4656 3366 4563 
z
" transform="scale(0.015625)"/>
       </defs>
       <use xlink:href="#DejaVuSans-36"/>
       <use xlink:href="#DejaVuSans-30" transform="translate(63.623047 0)"/>
       <use xlink:href="#DejaVuSans-30" transform="translate(127.246094 0)"/>
      </g>
     </g>
    </g>
    <g id="xtick_6">
     <g id="line2d_6">
      <g>
       <use xlink:href="#mddbd6035d9" x="487.654704" y="206.388" style="stroke: #000000; stroke-width: 0.8"/>
      </g>
     </g>
     <g id="text_6">
      <!-- 800 -->
      <g transform="translate(478.110954 220.986437) scale(0.1 -0.1)">
       <defs>
        <path id="DejaVuSans-38" d="M 2034 2216 
Q 1584 2216 1326 1975 
Q 1069 1734 1069 1313 
Q 1069 891 1326 650 
Q 1584 409 2034 409 
Q 2484 409 2743 651 
Q 3003 894 3003 1313 
Q 3003 1734 2745 1975 
Q 2488 2216 2034 2216 
z
M 1403 2484 
Q 997 2584 770 2862 
Q 544 3141 544 3541 
Q 544 4100 942 4425 
Q 1341 4750 2034 4750 
Q 2731 4750 3128 4425 
Q 3525 4100 3525 3541 
Q 3525 3141 3298 2862 
Q 3072 2584 2669 2484 
Q 3125 2378 3379 2068 
Q 3634 1759 3634 1313 
Q 3634 634 3220 271 
Q 2806 -91 2034 -91 
Q 1263 -91 848 271 
Q 434 634 434 1313 
Q 434 1759 690 2068 
Q 947 2378 1403 2484 
z
M 1172 3481 
Q 1172 3119 1398 2916 
Q 1625 2713 2034 2713 
Q 2441 2713 2670 2916 
Q 2900 3119 2900 3481 
Q 2900 3844 2670 4047 
Q 2441 4250 2034 4250 
Q 1625 4250 1398 4047 
Q 1172 3844 1172 3481 
z
" transform="scale(0.015625)"/>
       </defs>
       <use xlink:href="#DejaVuSans-38"/>
       <use xlink:href="#DejaVuSans-30" transform="translate(63.623047 0)"/>
       <use xlink:href="#DejaVuSans-30" transform="translate(127.246094 0)"/>
      </g>
     </g>
    </g>
   </g>
   <g id="matplotlib.axis_2">
    <g id="ytick_1">
     <g id="line2d_7">
      <defs>
       <path id="m793aadb76e" d="M 0 0 
L -3.5 0 
" style="stroke: #000000; stroke-width: 0.8"/>
      </defs>
      <g>
       <use xlink:href="#m793aadb76e" x="70.2" y="206.221392" style="stroke: #000000; stroke-width: 0.8"/>
      </g>
     </g>
     <g id="text_7">
      <!-- 0.0 -->
      <g transform="translate(47.296875 210.02061) scale(0.1 -0.1)">
       <defs>
        <path id="DejaVuSans-2e" d="M 684 794 
L 1344 794 
L 1344 0 
L 684 0 
L 684 794 
z
" transform="scale(0.015625)"/>
       </defs>
       <use xlink:href="#DejaVuSans-30"/>
       <use xlink:href="#DejaVuSans-2e" transform="translate(63.623047 0)"/>
       <use xlink:href="#DejaVuSans-30" transform="translate(95.410156 0)"/>
      </g>
     </g>
    </g>
    <g id="ytick_2">
     <g id="line2d_8">
      <g>
       <use xlink:href="#m793aadb76e" x="70.2" y="179.329316" style="stroke: #000000; stroke-width: 0.8"/>
      </g>
     </g>
     <g id="text_8">
      <!-- 2.5 -->
      <g transform="translate(47.296875 183.128535) scale(0.1 -0.1)">
       <defs>
        <path id="DejaVuSans-35" d="M 691 4666 
L 3169 4666 
L 3169 4134 
L 1269 4134 
L 1269 2991 
Q 1406 3038 1543 3061 
Q 1681 3084 1819 3084 
Q 2600 3084 3056 2656 
Q 3513 2228 3513 1497 
Q 3513 744 3044 326 
Q 2575 -91 1722 -91 
Q 1428 -91 1123 -41 
Q 819 9 494 109 
L 494 744 
Q 775 591 1075 516 
Q 1375 441 1709 441 
Q 2250 441 2565 725 
Q 2881 1009 2881 1497 
Q 2881 1984 2565 2268 
Q 2250 2553 1709 2553 
Q 1456 2553 1204 2497 
Q 953 2441 691 2322 
L 691 4666 
z
" transform="scale(0.015625)"/>
       </defs>
       <use xlink:href="#DejaVuSans-32"/>
       <use xlink:href="#DejaVuSans-2e" transform="translate(63.623047 0)"/>
       <use xlink:href="#DejaVuSans-35" transform="translate(95.410156 0)"/>
      </g>
     </g>
    </g>
    <g id="ytick_3">
     <g id="line2d_9">
      <g>
       <use xlink:href="#m793aadb76e" x="70.2" y="152.43724" style="stroke: #000000; stroke-width: 0.8"/>
      </g>
     </g>
     <g id="text_9">
      <!-- 5.0 -->
      <g transform="translate(47.296875 156.236459) scale(0.1 -0.1)">
       <use xlink:href="#DejaVuSans-35"/>
       <use xlink:href="#DejaVuSans-2e" transform="translate(63.623047 0)"/>
       <use xlink:href="#DejaVuSans-30" transform="translate(95.410156 0)"/>
      </g>
     </g>
    </g>
    <g id="ytick_4">
     <g id="line2d_10">
      <g>
       <use xlink:href="#m793aadb76e" x="70.2" y="125.545165" style="stroke: #000000; stroke-width: 0.8"/>
      </g>
     </g>
     <g id="text_10">
      <!-- 7.5 -->
      <g transform="translate(47.296875 129.344383) scale(0.1 -0.1)">
       <defs>
        <path id="DejaVuSans-37" d="M 525 4666 
L 3525 4666 
L 3525 4397 
L 1831 0 
L 1172 0 
L 2766 4134 
L 525 4134 
L 525 4666 
z
" transform="scale(0.015625)"/>
       </defs>
       <use xlink:href="#DejaVuSans-37"/>
       <use xlink:href="#DejaVuSans-2e" transform="translate(63.623047 0)"/>
       <use xlink:href="#DejaVuSans-35" transform="translate(95.410156 0)"/>
      </g>
     </g>
    </g>
    <g id="ytick_5">
     <g id="line2d_11">
      <g>
       <use xlink:href="#m793aadb76e" x="70.2" y="98.653089" style="stroke: #000000; stroke-width: 0.8"/>
      </g>
     </g>
     <g id="text_11">
      <!-- 10.0 -->
      <g transform="translate(40.934375 102.452308) scale(0.1 -0.1)">
       <defs>
        <path id="DejaVuSans-31" d="M 794 531 
L 1825 531 
L 1825 4091 
L 703 3866 
L 703 4441 
L 1819 4666 
L 2450 4666 
L 2450 531 
L 3481 531 
L 3481 0 
L 794 0 
L 794 531 
z
" transform="scale(0.015625)"/>
       </defs>
       <use xlink:href="#DejaVuSans-31"/>
       <use xlink:href="#DejaVuSans-30" transform="translate(63.623047 0)"/>
       <use xlink:href="#DejaVuSans-2e" transform="translate(127.246094 0)"/>
       <use xlink:href="#DejaVuSans-30" transform="translate(159.033203 0)"/>
      </g>
     </g>
    </g>
    <g id="ytick_6">
     <g id="line2d_12">
      <g>
       <use xlink:href="#m793aadb76e" x="70.2" y="71.761013" style="stroke: #000000; stroke-width: 0.8"/>
      </g>
     </g>
     <g id="text_12">
      <!-- 12.5 -->
      <g transform="translate(40.934375 75.560232) scale(0.1 -0.1)">
       <use xlink:href="#DejaVuSans-31"/>
       <use xlink:href="#DejaVuSans-32" transform="translate(63.623047 0)"/>
       <use xlink:href="#DejaVuSans-2e" transform="translate(127.246094 0)"/>
       <use xlink:href="#DejaVuSans-35" transform="translate(159.033203 0)"/>
      </g>
     </g>
    </g>
    <g id="text_13">
     <!-- ΔLL (bits) -->
     <g transform="translate(34.854687 160.500937) rotate(-90) scale(0.1 -0.1)">
      <defs>
       <path id="DejaVuSans-394" d="M 2188 4044 
L 906 525 
L 3472 525 
L 2188 4044 
z
M 50 0 
L 1831 4666 
L 2547 4666 
L 4325 0 
L 50 0 
z
" transform="scale(0.015625)"/>
       <path id="DejaVuSans-4c" d="M 628 4666 
L 1259 4666 
L 1259 531 
L 3531 531 
L 3531 0 
L 628 0 
L 628 4666 
z
" transform="scale(0.015625)"/>
       <path id="DejaVuSans-20" transform="scale(0.015625)"/>
       <path id="DejaVuSans-28" d="M 1984 4856 
Q 1566 4138 1362 3434 
Q 1159 2731 1159 2009 
Q 1159 1288 1364 580 
Q 1569 -128 1984 -844 
L 1484 -844 
Q 1016 -109 783 600 
Q 550 1309 550 2009 
Q 550 2706 781 3412 
Q 1013 4119 1484 4856 
L 1984 4856 
z
" transform="scale(0.015625)"/>
       <path id="DejaVuSans-62" d="M 3116 1747 
Q 3116 2381 2855 2742 
Q 2594 3103 2138 3103 
Q 1681 3103 1420 2742 
Q 1159 2381 1159 1747 
Q 1159 1113 1420 752 
Q 1681 391 2138 391 
Q 2594 391 2855 752 
Q 3116 1113 3116 1747 
z
M 1159 2969 
Q 1341 3281 1617 3432 
Q 1894 3584 2278 3584 
Q 2916 3584 3314 3078 
Q 3713 2572 3713 1747 
Q 3713 922 3314 415 
Q 2916 -91 2278 -91 
Q 1894 -91 1617 61 
Q 1341 213 1159 525 
L 1159 0 
L 581 0 
L 581 4863 
L 1159 4863 
L 1159 2969 
z
" transform="scale(0.015625)"/>
       <path id="DejaVuSans-69" d="M 603 3500 
L 1178 3500 
L 1178 0 
L 603 0 
L 603 3500 
z
M 603 4863 
L 1178 4863 
L 1178 4134 
L 603 4134 
L 603 4863 
z
" transform="scale(0.015625)"/>
       <path id="DejaVuSans-74" d="M 1172 4494 
L 1172 3500 
L 2356 3500 
L 2356 3053 
L 1172 3053 
L 1172 1153 
Q 1172 725 1289 603 
Q 1406 481 1766 481 
L 2356 481 
L 2356 0 
L 1766 0 
Q 1100 0 847 248 
Q 594 497 594 1153 
L 594 3053 
L 172 3053 
L 172 3500 
L 594 3500 
L 594 4494 
L 1172 4494 
z
" transform="scale(0.015625)"/>
       <path id="DejaVuSans-73" d="M 2834 3397 
L 2834 2853 
Q 2591 2978 2328 3040 
Q 2066 3103 1784 3103 
Q 1356 3103 1142 2972 
Q 928 2841 928 2578 
Q 928 2378 1081 2264 
Q 1234 2150 1697 2047 
L 1894 2003 
Q 2506 1872 2764 1633 
Q 3022 1394 3022 966 
Q 3022 478 2636 193 
Q 2250 -91 1575 -91 
Q 1294 -91 989 -36 
Q 684 19 347 128 
L 347 722 
Q 666 556 975 473 
Q 1284 391 1588 391 
Q 1994 391 2212 530 
Q 2431 669 2431 922 
Q 2431 1156 2273 1281 
Q 2116 1406 1581 1522 
L 1381 1569 
Q 847 1681 609 1914 
Q 372 2147 372 2553 
Q 372 3047 722 3315 
Q 1072 3584 1716 3584 
Q 2034 3584 2315 3537 
Q 2597 3491 2834 3397 
z
" transform="scale(0.015625)"/>
       <path id="DejaVuSans-29" d="M 513 4856 
L 1013 4856 
Q 1481 4119 1714 3412 
Q 1947 2706 1947 2009 
Q 1947 1309 1714 600 
Q 1481 -109 1013 -844 
L 513 -844 
Q 928 -128 1133 580 
Q 1338 1288 1338 2009 
Q 1338 2731 1133 3434 
Q 928 4138 513 4856 
z
" transform="scale(0.015625)"/>
      </defs>
      <use xlink:href="#DejaVuSans-394"/>
      <use xlink:href="#DejaVuSans-4c" transform="translate(68.408203 0)"/>
      <use xlink:href="#DejaVuSans-4c" transform="translate(124.121094 0)"/>
      <use xlink:href="#DejaVuSans-20" transform="translate(179.833984 0)"/>
      <use xlink:href="#DejaVuSans-28" transform="translate(211.621094 0)"/>
      <use xlink:href="#DejaVuSans-62" transform="translate(250.634766 0)"/>
      <use xlink:href="#DejaVuSans-69" transform="translate(314.111328 0)"/>
      <use xlink:href="#DejaVuSans-74" transform="translate(341.894531 0)"/>
      <use xlink:href="#DejaVuSans-73" transform="translate(381.103516 0)"/>
      <use xlink:href="#DejaVuSans-29" transform="translate(433.203125 0)"/>
     </g>
    </g>
   </g>
   <g id="line2d_13">
    <path d="M 167.91917 206.388 
L 167.91917 67.392 
" clip-path="url(#p65c893a587)" style="fill: none; stroke-dasharray: 2.96,1.28; stroke-dashoffset: 0; stroke: #000000; stroke-width: 0.8"/>
   </g>
   <g id="line2d_14">
    <path d="M 89.983636 161.562115 
L 93.980327 160.643615 
L 97.977023 165.074384 
L 101.973713 161.829645 
L 105.97041 164.856158 
L 109.967106 160.620255 
L 113.963796 164.665789 
L 117.960493 162.508936 
L 121.957186 163.370365 
L 125.953882 160.742833 
L 129.950576 164.373773 
L 133.947269 159.855871 
L 137.943962 163.448061 
L 141.940659 162.030511 
L 145.937352 161.044077 
L 149.934045 164.445381 
L 153.93074 161.538532 
L 157.927434 164.957257 
L 161.924129 160.225423 
L 165.920823 162.153999 
L 169.917517 162.907692 
L 173.914211 164.86429 
L 177.910906 162.832218 
L 181.9076 163.423852 
L 185.904294 162.406248 
L 189.900988 162.527912 
L 193.897681 163.104581 
L 197.894377 159.852229 
L 201.891071 159.839768 
L 205.887764 158.145693 
L 209.884457 162.702524 
L 213.881154 162.76212 
L 217.877847 161.580671 
L 221.874543 163.714684 
L 225.871234 159.657643 
L 229.86793 165.184484 
L 233.864626 163.653125 
L 237.861317 164.240774 
L 241.858013 160.620237 
L 245.854704 163.045488 
L 249.8514 161.955126 
L 253.848096 163.881441 
L 257.844787 161.39692 
L 261.841483 162.860855 
L 265.838179 163.785431 
L 269.83487 163.635559 
L 273.83156 164.338277 
L 277.828262 161.872023 
L 281.824953 165.24954 
L 285.821643 162.07158 
L 289.818345 164.82431 
L 293.815036 164.715413 
L 297.811726 161.59063 
L 301.808428 164.812148 
L 305.805119 163.014668 
L 309.801809 161.29152 
L 313.798511 162.111295 
L 317.795202 163.3175 
L 321.791892 159.913952 
L 325.788594 162.11304 
L 329.785285 161.321062 
L 333.781975 161.584341 
L 337.778677 163.844926 
L 341.775368 165.4881 
L 345.772058 163.487359 
L 349.76876 163.091474 
L 353.765451 164.429403 
L 357.762141 162.555548 
L 361.758843 160.758686 
L 365.755534 163.009386 
L 369.752224 164.300642 
L 373.748914 163.179085 
L 377.745605 164.041912 
L 381.742319 159.603232 
L 385.739009 161.427598 
L 389.7357 161.781565 
L 393.73239 164.166948 
L 397.72908 164.331955 
L 401.725771 163.534438 
L 405.722485 164.275184 
L 409.719175 162.873387 
L 413.715866 161.918534 
L 417.712556 163.465359 
L 421.709246 162.185067 
L 425.705937 161.393389 
L 429.702627 161.133641 
L 433.699341 161.021016 
L 437.696032 160.896706 
L 441.692722 163.940256 
L 445.689412 164.518921 
L 449.686103 160.042725 
L 453.682793 161.730705 
L 457.679507 163.483495 
L 461.676198 160.79109 
L 465.672888 161.539581 
L 469.669578 161.77586 
L 473.666269 163.077707 
L 477.662959 160.784718 
L 481.659673 162.048426 
L 485.656364 161.01777 
" clip-path="url(#p65c893a587)" style="fill: none; stroke-dasharray: 1,1.65; stroke-dashoffset: 0; stroke: #1f77b4"/>
   </g>
   <g id="line2d_15">
    <path d="M 89.983636 164.292631 
L 93.980327 162.885604 
L 97.977023 162.241051 
L 101.973713 161.268333 
L 105.97041 162.702802 
L 109.967106 162.813001 
L 113.963796 162.29064 
L 117.960493 162.962428 
L 121.957186 163.789872 
L 125.953882 162.203718 
L 129.950576 162.065993 
L 133.947269 162.568 
L 137.943962 162.195702 
L 141.940659 160.31074 
L 145.937352 162.388123 
L 149.934045 158.606231 
L 153.93074 165.73776 
L 157.927434 164.900453 
L 161.924129 163.640662 
L 165.920823 162.498185 
L 169.917517 161.267268 
L 173.914211 162.342527 
L 177.910906 164.099493 
L 181.9076 161.149172 
L 185.904294 161.459873 
L 189.900988 163.583622 
L 193.897681 163.880434 
L 197.894377 164.487883 
L 201.891071 166.198153 
L 205.887764 162.208866 
L 209.884457 163.117591 
L 213.881154 165.281178 
L 217.877847 159.633386 
L 221.874543 162.813268 
L 225.871234 162.956425 
L 229.86793 160.819629 
L 233.864626 162.668892 
L 237.861317 162.840708 
L 241.858013 163.229878 
L 245.854704 164.954178 
L 249.8514 162.975603 
L 253.848096 159.849366 
L 257.844787 161.857167 
L 261.841483 161.046148 
L 265.838179 160.190644 
L 269.83487 163.401659 
L 273.83156 163.387239 
L 277.828262 162.875652 
L 281.824953 159.421853 
L 285.821643 162.027067 
L 289.818345 162.657829 
L 293.815036 162.959344 
L 297.811726 162.442717 
L 301.808428 161.349592 
L 305.805119 161.518368 
L 309.801809 161.478828 
L 313.798511 161.718606 
L 317.795202 163.216573 
L 321.791892 162.783947 
L 325.788594 160.227855 
L 329.785285 164.446754 
L 333.781975 164.628897 
L 337.778677 164.304129 
L 341.775368 160.128214 
L 345.772058 166.208542 
L 349.76876 161.084552 
L 353.765451 161.209216 
L 357.762141 163.959643 
L 361.758843 164.053606 
L 365.755534 160.396096 
L 369.752224 162.910483 
L 373.748914 163.242137 
L 377.745605 165.085141 
L 381.742319 162.071105 
L 385.739009 163.585656 
L 389.7357 161.384644 
L 393.73239 164.610315 
L 397.72908 162.886779 
L 401.725771 161.604175 
L 405.722485 163.540309 
L 409.719175 162.19191 
L 413.715866 163.508945 
L 417.712556 162.705427 
L 421.709246 162.464378 
L 425.705937 161.992031 
L 429.702627 161.84138 
L 433.699341 159.908372 
L 437.696032 165.339056 
L 441.692722 162.047529 
L 445.689412 157.584139 
L 449.686103 163.643129 
L 453.682793 163.977112 
L 457.679507 163.234179 
L 461.676198 163.989603 
L 465.672888 159.357115 
L 469.669578 163.740116 
L 473.666269 163.756386 
L 477.662959 159.602726 
L 481.659673 163.653186 
L 485.656364 162.953984 
" clip-path="url(#p65c893a587)" style="fill: none; stroke-dasharray: 1,1.65; stroke-dashoffset: 0; stroke: #ff7f0e"/>
   </g>
   <g id="line2d_16">
    <path d="M 89.983636 180.335866 
L 93.980327 156.181591 
L 97.977023 181.577745 
L 101.973713 172.945425 
L 105.97041 180.854265 
L 109.967106 191.521946 
L 113.963796 182.147561 
L 117.960493 175.989534 
L 121.957186 174.447196 
L 125.953882 154.917671 
L 129.950576 189.149581 
L 133.947269 142.321899 
L 137.943962 190.686934 
L 141.940659 143.240269 
L 145.937352 193.6073 
L 149.934045 197.972394 
L 153.93074 164.33015 
L 157.927434 151.04934 
L 161.924129 155.845612 
L 165.920823 118.290801 
L 169.917517 161.638103 
L 173.914211 172.176178 
L 177.910906 153.135258 
L 181.9076 169.540585 
L 185.904294 160.92005 
L 189.900988 190.166109 
L 193.897681 161.867298 
L 197.894377 177.874209 
L 201.891071 176.349233 
L 205.887764 123.250666 
L 209.884457 167.580084 
L 213.881154 192.06796 
L 217.877847 192.417697 
L 221.874543 184.314314 
L 225.871234 170.195122 
L 229.86793 149.596374 
L 233.864626 117.827557 
L 237.861317 188.44393 
L 241.858013 163.140041 
L 245.854704 154.051222 
L 249.8514 97.903272 
L 253.848096 196.556748 
L 257.844787 112.38385 
L 261.841483 177.751058 
L 265.838179 131.921524 
L 269.83487 168.786531 
L 273.83156 190.613743 
L 277.828262 193.193568 
L 281.824953 136.318302 
L 285.821643 157.064715 
L 289.818345 196.1941 
L 293.815036 188.519125 
L 297.811726 156.857784 
L 301.808428 186.389521 
L 305.805119 165.341909 
L 309.801809 151.424358 
L 313.798511 145.622663 
L 317.795202 98.962161 
L 321.791892 143.999376 
L 325.788594 198.742459 
L 329.785285 152.629899 
L 333.781975 150.920678 
L 337.778677 197.654917 
L 341.775368 183.625447 
L 345.772058 177.417349 
L 349.76876 174.971079 
L 353.765451 125.928506 
L 357.762141 187.225819 
L 361.758843 177.063089 
L 365.755534 143.469199 
L 369.752224 180.375103 
L 373.748914 181.375258 
L 377.745605 129.776866 
L 381.742319 184.835659 
L 385.739009 189.784173 
L 389.7357 152.624724 
L 393.73239 191.281772 
L 397.72908 195.853994 
L 401.725771 170.84523 
L 405.722485 173.631886 
L 409.719175 171.765559 
L 413.715866 83.440648 
L 417.712556 156.872052 
L 421.709246 150.989588 
L 425.705937 150.096252 
L 429.702627 173.565399 
L 433.699341 118.379322 
L 437.696032 124.732538 
L 441.692722 170.024544 
L 445.689412 185.316418 
L 449.686103 182.145303 
L 453.682793 195.617197 
L 457.679507 180.296856 
L 461.676198 127.072369 
L 465.672888 145.805266 
L 469.669578 193.866612 
L 473.666269 137.405523 
L 477.662959 152.208575 
L 481.659673 164.209057 
L 485.656364 183.123414 
" clip-path="url(#p65c893a587)" style="fill: none; stroke: #1f77b4; stroke-width: 2.2; stroke-linecap: square"/>
   </g>
   <g id="line2d_17">
    <path d="M 89.983636 186.854354 
L 93.980327 160.307855 
L 97.977023 172.39091 
L 101.973713 171.539062 
L 105.97041 114.271071 
L 109.967106 109.924602 
L 113.963796 162.877023 
L 117.960493 139.802336 
L 121.957186 189.352272 
L 125.953882 171.886962 
L 129.950576 148.855713 
L 133.947269 168.918969 
L 137.943962 174.209849 
L 141.940659 186.581803 
L 145.937352 73.71 
L 149.934045 185.725448 
L 153.93074 163.465774 
L 157.927434 194.764037 
L 161.924129 184.818763 
L 165.920823 149.37653 
L 169.917517 174.723501 
L 173.914211 190.691373 
L 177.910906 156.885408 
L 181.9076 107.744681 
L 185.904294 122.7337 
L 189.900988 155.354787 
L 193.897681 167.846102 
L 197.894377 169.054365 
L 201.891071 130.617616 
L 205.887764 112.725485 
L 209.884457 133.869852 
L 213.881154 182.607887 
L 217.877847 189.801429 
L 221.874543 84.707389 
L 225.871234 176.15028 
L 229.86793 148.385058 
L 233.864626 180.259365 
L 237.861317 128.512094 
L 241.858013 144.308325 
L 245.854704 163.776845 
L 249.8514 137.099298 
L 253.848096 156.74717 
L 257.844787 192.22654 
L 261.841483 181.64907 
L 265.838179 132.914541 
L 269.83487 156.031068 
L 273.83156 158.740182 
L 277.828262 189.748404 
L 281.824953 154.656812 
L 285.821643 200.07 
L 289.818345 176.760733 
L 293.815036 171.809293 
L 297.811726 186.891239 
L 301.808428 195.358191 
L 305.805119 176.467765 
L 309.801809 157.435474 
L 313.798511 118.943933 
L 317.795202 132.218727 
L 321.791892 179.46477 
L 325.788594 159.237385 
L 329.785285 101.99586 
L 333.781975 176.525522 
L 337.778677 177.90292 
L 341.775368 182.256197 
L 345.772058 143.258907 
L 349.76876 174.216388 
L 353.765451 166.4194 
L 357.762141 169.529725 
L 361.758843 187.074645 
L 365.755534 131.460214 
L 369.752224 173.846843 
L 373.748914 190.81568 
L 377.745605 137.541571 
L 381.742319 136.786952 
L 385.739009 177.730296 
L 389.7357 123.476409 
L 393.73239 187.519015 
L 397.72908 138.626955 
L 401.725771 176.410499 
L 405.722485 181.684874 
L 409.719175 149.788991 
L 413.715866 156.019022 
L 417.712556 197.682999 
L 421.709246 147.969898 
L 425.705937 116.322753 
L 429.702627 179.076602 
L 433.699341 194.666639 
L 437.696032 176.17844 
L 441.692722 169.944375 
L 445.689412 141.856077 
L 449.686103 163.011423 
L 453.682793 181.92689 
L 457.679507 186.296993 
L 461.676198 157.655153 
L 465.672888 189.787122 
L 469.669578 150.216764 
L 473.666269 165.630275 
L 477.662959 172.539166 
L 481.659673 148.880553 
L 485.656364 147.668524 
" clip-path="url(#p65c893a587)" style="fill: none; stroke: #ff7f0e; stroke-width: 2.2; stroke-linecap: square"/>
   </g>
   <g id="patch_3">
    <path d="M 70.2 206.388 
L 70.2 67.392 
" style="fill: none; stroke: #000000; stroke-width: 0.8; stroke-linejoin: miter; stroke-linecap: square"/>
   </g>
   <g id="patch_4">
    <path d="M 505.44 206.388 
L 505.44 67.392 
" style="fill: none; stroke: #000000; stroke-width: 0.8; stroke-linejoin: miter; stroke-linecap: square"/>
   </g>
   <g id="patch_5">
    <path d="M 70.2 206.388 
L 505.44 206.388 
" style="fill: none; stroke: #000000; stroke-width: 0.8; stroke-linejoin: miter; stroke-linecap: square"/>
   </g>
   <g id="patch_6">
    <path d="M 70.2 67.392 
L 505.44 67.392 
" style="fill: none; stroke: #000000; stroke-width: 0.8; stroke-linejoin: miter; stroke-linecap: square"/>
   </g>
   <g id="text_14">
    <!-- (SFEF vs SLIP) — C-flow — Panel A: overlay + null bands -->
    <g transform="translate(119.059688 61.392) scale(0.12 -0.12)">
     <defs>
      <path id="DejaVuSans-53" d="M 3425 4513 
L 3425 3897 
Q 3066 4069 2747 4153 
Q 2428 4238 2131 4238 
Q 1616 4238 1336 4038 
Q 1056 3838 1056 3469 
Q 1056 3159 1242 3001 
Q 1428 2844 1947 2747 
L 2328 2669 
Q 3034 2534 3370 2195 
Q 3706 1856 3706 1288 
Q 3706 609 3251 259 
Q 2797 -91 1919 -91 
Q 1588 -91 1214 -16 
Q 841 59 441 206 
L 441 856 
Q 825 641 1194 531 
Q 1563 422 1919 422 
Q 2459 422 2753 634 
Q 3047 847 3047 1241 
Q 3047 1584 2836 1778 
Q 2625 1972 2144 2069 
L 1759 2144 
Q 1053 2284 737 2584 
Q 422 2884 422 3419 
Q 422 4038 858 4394 
Q 1294 4750 2059 4750 
Q 2388 4750 2728 4690 
Q 3069 4631 3425 4513 
z
" transform="scale(0.015625)"/>
      <path id="DejaVuSans-46" d="M 628 4666 
L 3309 4666 
L 3309 4134 
L 1259 4134 
L 1259 2759 
L 3109 2759 
L 3109 2228 
L 1259 2228 
L 1259 0 
L 628 0 
L 628 4666 
z
" transform="scale(0.015625)"/>
      <path id="DejaVuSans-45" d="M 628 4666 
L 3578 4666 
L 3578 4134 
L 1259 4134 
L 1259 2753 
L 3481 2753 
L 3481 2222 
L 1259 2222 
L 1259 531 
L 3634 531 
L 3634 0 
L 628 0 
L 628 4666 
z
" transform="scale(0.015625)"/>
      <path id="DejaVuSans-76" d="M 191 3500 
L 800 3500 
L 1894 563 
L 2988 3500 
L 3597 3500 
L 2284 0 
L 1503 0 
L 191 3500 
z
" transform="scale(0.015625)"/>
      <path id="DejaVuSans-49" d="M 628 4666 
L 1259 4666 
L 1259 0 
L 628 0 
L 628 4666 
z
" transform="scale(0.015625)"/>
      <path id="DejaVuSans-50" d="M 1259 4147 
L 1259 2394 
L 2053 2394 
Q 2494 2394 2734 2622 
Q 2975 2850 2975 3272 
Q 2975 3691 2734 3919 
Q 2494 4147 2053 4147 
L 1259 4147 
z
M 628 4666 
L 2053 4666 
Q 2838 4666 3239 4311 
Q 3641 3956 3641 3272 
Q 3641 2581 3239 2228 
Q 2838 1875 2053 1875 
L 1259 1875 
L 1259 0 
L 628 0 
L 628 4666 
z
" transform="scale(0.015625)"/>
      <path id="DejaVuSans-2014" d="M 313 1978 
L 6088 1978 
L 6088 1528 
L 313 1528 
L 313 1978 
z
" transform="scale(0.015625)"/>
      <path id="DejaVuSans-43" d="M 4122 4306 
L 4122 3641 
Q 3803 3938 3442 4084 
Q 3081 4231 2675 4231 
Q 1875 4231 1450 3742 
Q 1025 3253 1025 2328 
Q 1025 1406 1450 917 
Q 1875 428 2675 428 
Q 3081 428 3442 575 
Q 3803 722 4122 1019 
L 4122 359 
Q 3791 134 3420 21 
Q 3050 -91 2638 -91 
Q 1578 -91 968 557 
Q 359 1206 359 2328 
Q 359 3453 968 4101 
Q 1578 4750 2638 4750 
Q 3056 4750 3426 4639 
Q 3797 4528 4122 4306 
z
" transform="scale(0.015625)"/>
      <path id="DejaVuSans-2d" d="M 313 2009 
L 1997 2009 
L 1997 1497 
L 313 1497 
L 313 2009 
z
" transform="scale(0.015625)"/>
      <path id="DejaVuSans-66" d="M 2375 4863 
L 2375 4384 
L 1825 4384 
Q 1516 4384 1395 4259 
Q 1275 4134 1275 3809 
L 1275 3500 
L 2222 3500 
L 2222 3053 
L 1275 3053 
L 1275 0 
L 697 0 
L 697 3053 
L 147 3053 
L 147 3500 
L 697 3500 
L 697 3744 
Q 697 4328 969 4595 
Q 1241 4863 1831 4863 
L 2375 4863 
z
" transform="scale(0.015625)"/>
      <path id="DejaVuSans-6c" d="M 603 4863 
L 1178 4863 
L 1178 0 
L 603 0 
L 603 4863 
z
" transform="scale(0.015625)"/>
      <path id="DejaVuSans-6f" d="M 1959 3097 
Q 1497 3097 1228 2736 
Q 959 2375 959 1747 
Q 959 1119 1226 758 
Q 1494 397 1959 397 
Q 2419 397 2687 759 
Q 2956 1122 2956 1747 
Q 2956 2369 2687 2733 
Q 2419 3097 1959 3097 
z
M 1959 3584 
Q 2709 3584 3137 3096 
Q 3566 2609 3566 1747 
Q 3566 888 3137 398 
Q 2709 -91 1959 -91 
Q 1206 -91 779 398 
Q 353 888 353 1747 
Q 353 2609 779 3096 
Q 1206 3584 1959 3584 
z
" transform="scale(0.015625)"/>
      <path id="DejaVuSans-77" d="M 269 3500 
L 844 3500 
L 1563 769 
L 2278 3500 
L 2956 3500 
L 3675 769 
L 4391 3500 
L 4966 3500 
L 4050 0 
L 3372 0 
L 2619 2869 
L 1863 0 
L 1184 0 
L 269 3500 
z
" transform="scale(0.015625)"/>
      <path id="DejaVuSans-61" d="M 2194 1759 
Q 1497 1759 1228 1600 
Q 959 1441 959 1056 
Q 959 750 1161 570 
Q 1363 391 1709 391 
Q 2188 391 2477 730 
Q 2766 1069 2766 1631 
L 2766 1759 
L 2194 1759 
z
M 3341 1997 
L 3341 0 
L 2766 0 
L 2766 531 
Q 2569 213 2275 61 
Q 1981 -91 1556 -91 
Q 1019 -91 701 211 
Q 384 513 384 1019 
Q 384 1609 779 1909 
Q 1175 2209 1959 2209 
L 2766 2209 
L 2766 2266 
Q 2766 2663 2505 2880 
Q 2244 3097 1772 3097 
Q 1472 3097 1187 3025 
Q 903 2953 641 2809 
L 641 3341 
Q 956 3463 1253 3523 
Q 1550 3584 1831 3584 
Q 2591 3584 2966 3190 
Q 3341 2797 3341 1997 
z
" transform="scale(0.015625)"/>
      <path id="DejaVuSans-6e" d="M 3513 2113 
L 3513 0 
L 2938 0 
L 2938 2094 
Q 2938 2591 2744 2837 
Q 2550 3084 2163 3084 
Q 1697 3084 1428 2787 
Q 1159 2491 1159 1978 
L 1159 0 
L 581 0 
L 581 3500 
L 1159 3500 
L 1159 2956 
Q 1366 3272 1645 3428 
Q 1925 3584 2291 3584 
Q 2894 3584 3203 3211 
Q 3513 2838 3513 2113 
z
" transform="scale(0.015625)"/>
      <path id="DejaVuSans-65" d="M 3597 1894 
L 3597 1613 
L 953 1613 
Q 991 1019 1311 708 
Q 1631 397 2203 397 
Q 2534 397 2845 478 
Q 3156 559 3463 722 
L 3463 178 
Q 3153 47 2828 -22 
Q 2503 -91 2169 -91 
Q 1331 -91 842 396 
Q 353 884 353 1716 
Q 353 2575 817 3079 
Q 1281 3584 2069 3584 
Q 2775 3584 3186 3129 
Q 3597 2675 3597 1894 
z
M 3022 2063 
Q 3016 2534 2758 2815 
Q 2500 3097 2075 3097 
Q 1594 3097 1305 2825 
Q 1016 2553 972 2059 
L 3022 2063 
z
" transform="scale(0.015625)"/>
      <path id="DejaVuSans-41" d="M 2188 4044 
L 1331 1722 
L 3047 1722 
L 2188 4044 
z
M 1831 4666 
L 2547 4666 
L 4325 0 
L 3669 0 
L 3244 1197 
L 1141 1197 
L 716 0 
L 50 0 
L 1831 4666 
z
" transform="scale(0.015625)"/>
      <path id="DejaVuSans-3a" d="M 750 794 
L 1409 794 
L 1409 0 
L 750 0 
L 750 794 
z
M 750 3309 
L 1409 3309 
L 1409 2516 
L 750 2516 
L 750 3309 
z
" transform="scale(0.015625)"/>
      <path id="DejaVuSans-72" d="M 2631 2963 
Q 2534 3019 2420 3045 
Q 2306 3072 2169 3072 
Q 1681 3072 1420 2755 
Q 1159 2438 1159 1844 
L 1159 0 
L 581 0 
L 581 3500 
L 1159 3500 
L 1159 2956 
Q 1341 3275 1631 3429 
Q 1922 3584 2338 3584 
Q 2397 3584 2469 3576 
Q 2541 3569 2628 3553 
L 2631 2963 
z
" transform="scale(0.015625)"/>
      <path id="DejaVuSans-79" d="M 2059 -325 
Q 1816 -950 1584 -1140 
Q 1353 -1331 966 -1331 
L 506 -1331 
L 506 -850 
L 844 -850 
Q 1081 -850 1212 -737 
Q 1344 -625 1503 -206 
L 1606 56 
L 191 3500 
L 800 3500 
L 1894 763 
L 2988 3500 
L 3597 3500 
L 2059 -325 
z
" transform="scale(0.015625)"/>
      <path id="DejaVuSans-2b" d="M 2944 4013 
L 2944 2272 
L 4684 2272 
L 4684 1741 
L 2944 1741 
L 2944 0 
L 2419 0 
L 2419 1741 
L 678 1741 
L 678 2272 
L 2419 2272 
L 2419 4013 
L 2944 4013 
z
" transform="scale(0.015625)"/>
      <path id="DejaVuSans-75" d="M 544 1381 
L 544 3500 
L 1119 3500 
L 1119 1403 
Q 1119 906 1312 657 
Q 1506 409 1894 409 
Q 2359 409 2629 706 
Q 2900 1003 2900 1516 
L 2900 3500 
L 3475 3500 
L 3475 0 
L 2900 0 
L 2900 538 
Q 2691 219 2414 64 
Q 2138 -91 1772 -91 
Q 1169 -91 856 284 
Q 544 659 544 1381 
z
M 1991 3584 
L 1991 3584 
z
" transform="scale(0.015625)"/>
      <path id="DejaVuSans-64" d="M 2906 2969 
L 2906 4863 
L 3481 4863 
L 3481 0 
L 2906 0 
L 2906 525 
Q 2725 213 2448 61 
Q 2172 -91 1784 -91 
Q 1150 -91 751 415 
Q 353 922 353 1747 
Q 353 2572 751 3078 
Q 1150 3584 1784 3584 
Q 2172 3584 2448 3432 
Q 2725 3281 2906 2969 
z
M 947 1747 
Q 947 1113 1208 752 
Q 1469 391 1925 391 
Q 2381 391 2643 752 
Q 2906 1113 2906 1747 
Q 2906 2381 2643 2742 
Q 2381 3103 1925 3103 
Q 1469 3103 1208 2742 
Q 947 2381 947 1747 
z
" transform="scale(0.015625)"/>
     </defs>
     <use xlink:href="#DejaVuSans-28"/>
     <use xlink:href="#DejaVuSans-53" transform="translate(39.013672 0)"/>
     <use xlink:href="#DejaVuSans-46" transform="translate(102.490234 0)"/>
     <use xlink:href="#DejaVuSans-45" transform="translate(160.009766 0)"/>
     <use xlink:href="#DejaVuSans-46" transform="translate(223.193359 0)"/>
     <use xlink:href="#DejaVuSans-20" transform="translate(280.712891 0)"/>
     <use xlink:href="#DejaVuSans-76" transform="translate(312.5 0)"/>
     <use xlink:href="#DejaVuSans-73" transform="translate(371.679688 0)"/>
     <use xlink:href="#DejaVuSans-20" transform="translate(423.779297 0)"/>
     <use xlink:href="#DejaVuSans-53" transform="translate(455.566406 0)"/>
     <use xlink:href="#DejaVuSans-4c" transform="translate(519.042969 0)"/>
     <use xlink:href="#DejaVuSans-49" transform="translate(574.755859 0)"/>
     <use xlink:href="#DejaVuSans-50" transform="translate(604.248047 0)"/>
     <use xlink:href="#DejaVuSans-29" transform="translate(664.550781 0)"/>
     <use xlink:href="#DejaVuSans-20" transform="translate(703.564453 0)"/>
     <use xlink:href="#DejaVuSans-2014" transform="translate(735.351562 0)"/>
     <use xlink:href="#DejaVuSans-20" transform="translate(835.351562 0)"/>
     <use xlink:href="#DejaVuSans-43" transform="translate(867.138672 0)"/>
     <use xlink:href="#DejaVuSans-2d" transform="translate(936.962891 0)"/>
     <use xlink:href="#DejaVuSans-66" transform="translate(973.046875 0)"/>
     <use xlink:href="#DejaVuSans-6c" transform="translate(1008.251953 0)"/>
     <use xlink:href="#DejaVuSans-6f" transform="translate(1036.035156 0)"/>
     <use xlink:href="#DejaVuSans-77" transform="translate(1097.216797 0)"/>
     <use xlink:href="#DejaVuSans-20" transform="translate(1179.003906 0)"/>
     <use xlink:href="#DejaVuSans-2014" transform="translate(1210.791016 0)"/>
     <use xlink:href="#DejaVuSans-20" transform="translate(1310.791016 0)"/>
     <use xlink:href="#DejaVuSans-50" transform="translate(1342.578125 0)"/>
     <use xlink:href="#DejaVuSans-61" transform="translate(1398.380859 0)"/>
     <use xlink:href="#DejaVuSans-6e" transform="translate(1459.660156 0)"/>
     <use xlink:href="#DejaVuSans-65" transform="translate(1523.039062 0)"/>
     <use xlink:href="#DejaVuSans-6c" transform="translate(1584.5625 0)"/>
     <use xlink:href="#DejaVuSans-20" transform="translate(1612.345703 0)"/>
     <use xlink:href="#DejaVuSans-41" transform="translate(1644.132812 0)"/>
     <use xlink:href="#DejaVuSans-3a" transform="translate(1710.791016 0)"/>
     <use xlink:href="#DejaVuSans-20" transform="translate(1744.482422 0)"/>
     <use xlink:href="#DejaVuSans-6f" transform="translate(1776.269531 0)"/>
     <use xlink:href="#DejaVuSans-76" transform="translate(1837.451172 0)"/>
     <use xlink:href="#DejaVuSans-65" transform="translate(1896.630859 0)"/>
     <use xlink:href="#DejaVuSans-72" transform="translate(1958.154297 0)"/>
     <use xlink:href="#DejaVuSans-6c" transform="translate(1999.267578 0)"/>
     <use xlink:href="#DejaVuSans-61" transform="translate(2027.050781 0)"/>
     <use xlink:href="#DejaVuSans-79" transform="translate(2088.330078 0)"/>
     <use xlink:href="#DejaVuSans-20" transform="translate(2147.509766 0)"/>
     <use xlink:href="#DejaVuSans-2b" transform="translate(2179.296875 0)"/>
     <use xlink:href="#DejaVuSans-20" transform="translate(2263.085938 0)"/>
     <use xlink:href="#DejaVuSans-6e" transform="translate(2294.873047 0)"/>
     <use xlink:href="#DejaVuSans-75" transform="translate(2358.251953 0)"/>
     <use xlink:href="#DejaVuSans-6c" transform="translate(2421.630859 0)"/>
     <use xlink:href="#DejaVuSans-6c" transform="translate(2449.414062 0)"/>
     <use xlink:href="#DejaVuSans-20" transform="translate(2477.197266 0)"/>
     <use xlink:href="#DejaVuSans-62" transform="translate(2508.984375 0)"/>
     <use xlink:href="#DejaVuSans-61" transform="translate(2572.460938 0)"/>
     <use xlink:href="#DejaVuSans-6e" transform="translate(2633.740234 0)"/>
     <use xlink:href="#DejaVuSans-64" transform="translate(2697.119141 0)"/>
     <use xlink:href="#DejaVuSans-73" transform="translate(2760.595703 0)"/>
    </g>
   </g>
   <g id="legend_1">
    <g id="patch_7">
     <path d="M 79.2 83.990437 
L 99.2 83.990437 
L 99.2 76.990437 
L 79.2 76.990437 
z
" style="fill: #1f77b4; fill-opacity: 0.15"/>
    </g>
    <g id="text_15">
     <!-- SFEF→SLIP null μ±σ -->
     <g transform="translate(107.2 83.990437) scale(0.1 -0.1)">
      <defs>
       <path id="DejaVuSans-2192" d="M 5050 2147 
L 5050 1866 
L 3822 638 
L 3447 1013 
L 4175 1741 
L 366 1741 
L 366 2272 
L 4175 2272 
L 3447 3000 
L 3822 3375 
L 5050 2147 
z
" transform="scale(0.015625)"/>
       <path id="DejaVuSans-3bc" d="M 544 -1331 
L 544 3500 
L 1119 3500 
L 1119 1325 
Q 1119 872 1334 640 
Q 1550 409 1972 409 
Q 2434 409 2667 671 
Q 2900 934 2900 1459 
L 2900 3500 
L 3475 3500 
L 3475 806 
Q 3475 619 3529 530 
Q 3584 441 3700 441 
Q 3728 441 3778 458 
Q 3828 475 3916 513 
L 3916 50 
Q 3788 -22 3673 -56 
Q 3559 -91 3450 -91 
Q 3234 -91 3106 31 
Q 2978 153 2931 403 
Q 2775 156 2548 32 
Q 2322 -91 2016 -91 
Q 1697 -91 1473 31 
Q 1250 153 1119 397 
L 1119 -1331 
L 544 -1331 
z
" transform="scale(0.015625)"/>
       <path id="DejaVuSans-b1" d="M 2944 4013 
L 2944 2803 
L 4684 2803 
L 4684 2272 
L 2944 2272 
L 2944 1063 
L 2419 1063 
L 2419 2272 
L 678 2272 
L 678 2803 
L 2419 2803 
L 2419 4013 
L 2944 4013 
z
M 678 531 
L 4684 531 
L 4684 0 
L 678 0 
L 678 531 
z
" transform="scale(0.015625)"/>
       <path id="DejaVuSans-3c3" d="M 1959 3044 
Q 1484 3044 1228 2700 
Q 959 2341 959 1747 
Q 959 1119 1226 758 
Q 1494 397 1959 397 
Q 2419 397 2687 759 
Q 2956 1122 2956 1747 
Q 2956 2319 2688 2700 
Q 2441 3044 1959 3044 
z
M 1959 3500 
L 3869 3500 
L 3869 2925 
L 3225 2925 
Q 3566 2438 3566 1747 
Q 3566 888 3138 400 
Q 2709 -91 1959 -91 
Q 1206 -91 781 400 
Q 353 888 353 1747 
Q 353 2613 781 3097 
Q 1134 3500 1959 3500 
z
" transform="scale(0.015625)"/>
      </defs>
      <use xlink:href="#DejaVuSans-53"/>
      <use xlink:href="#DejaVuSans-46" transform="translate(63.476562 0)"/>
      <use xlink:href="#DejaVuSans-45" transform="translate(120.996094 0)"/>
      <use xlink:href="#DejaVuSans-46" transform="translate(184.179688 0)"/>
      <use xlink:href="#DejaVuSans-2192" transform="translate(241.699219 0)"/>
      <use xlink:href="#DejaVuSans-53" transform="translate(325.488281 0)"/>
      <use xlink:href="#DejaVuSans-4c" transform="translate(388.964844 0)"/>
      <use xlink:href="#DejaVuSans-49" transform="translate(444.677734 0)"/>
      <use xlink:href="#DejaVuSans-50" transform="translate(474.169922 0)"/>
      <use xlink:href="#DejaVuSans-20" transform="translate(534.472656 0)"/>
      <use xlink:href="#DejaVuSans-6e" transform="translate(566.259766 0)"/>
      <use xlink:href="#DejaVuSans-75" transform="translate(629.638672 0)"/>
      <use xlink:href="#DejaVuSans-6c" transform="translate(693.017578 0)"/>
      <use xlink:href="#DejaVuSans-6c" transform="translate(720.800781 0)"/>
      <use xlink:href="#DejaVuSans-20" transform="translate(748.583984 0)"/>
      <use xlink:href="#DejaVuSans-3bc" transform="translate(780.371094 0)"/>
      <use xlink:href="#DejaVuSans-b1" transform="translate(843.994141 0)"/>
      <use xlink:href="#DejaVuSans-3c3" transform="translate(927.783203 0)"/>
     </g>
    </g>
    <g id="patch_8">
     <path d="M 79.2 98.668563 
L 99.2 98.668563 
L 99.2 91.668563 
L 79.2 91.668563 
z
" style="fill: #ff7f0e; fill-opacity: 0.15"/>
    </g>
    <g id="text_16">
     <!-- SLIP→SFEF null μ±σ -->
     <g transform="translate(107.2 98.668563) scale(0.1 -0.1)">
      <use xlink:href="#DejaVuSans-53"/>
      <use xlink:href="#DejaVuSans-4c" transform="translate(63.476562 0)"/>
      <use xlink:href="#DejaVuSans-49" transform="translate(119.189453 0)"/>
      <use xlink:href="#DejaVuSans-50" transform="translate(148.681641 0)"/>
      <use xlink:href="#DejaVuSans-2192" transform="translate(208.984375 0)"/>
      <use xlink:href="#DejaVuSans-53" transform="translate(292.773438 0)"/>
      <use xlink:href="#DejaVuSans-46" transform="translate(356.25 0)"/>
      <use xlink:href="#DejaVuSans-45" transform="translate(413.769531 0)"/>
      <use xlink:href="#DejaVuSans-46" transform="translate(476.953125 0)"/>
      <use xlink:href="#DejaVuSans-20" transform="translate(534.472656 0)"/>
      <use xlink:href="#DejaVuSans-6e" transform="translate(566.259766 0)"/>
      <use xlink:href="#DejaVuSans-75" transform="translate(629.638672 0)"/>
      <use xlink:href="#DejaVuSans-6c" transform="translate(693.017578 0)"/>
      <use xlink:href="#DejaVuSans-6c" transform="translate(720.800781 0)"/>
      <use xlink:href="#DejaVuSans-20" transform="translate(748.583984 0)"/>
      <use xlink:href="#DejaVuSans-3bc" transform="translate(780.371094 0)"/>
      <use xlink:href="#DejaVuSans-b1" transform="translate(843.994141 0)"/>
      <use xlink:href="#DejaVuSans-3c3" transform="translate(927.783203 0)"/>
     </g>
    </g>
    <g id="line2d_18">
     <path d="M 226.317187 80.490437 
L 236.317187 80.490437 
L 246.317187 80.490437 
" style="fill: none; stroke: #1f77b4; stroke-width: 2.2; stroke-linecap: square"/>
    </g>
    <g id="text_17">
     <!-- SFEF→SLIP -->
     <g transform="translate(254.317187 83.990437) scale(0.1 -0.1)">
      <use xlink:href="#DejaVuSans-53"/>
      <use xlink:href="#DejaVuSans-46" transform="translate(63.476562 0)"/>
      <use xlink:href="#DejaVuSans-45" transform="translate(120.996094 0)"/>
      <use xlink:href="#DejaVuSans-46" transform="translate(184.179688 0)"/>
      <use xlink:href="#DejaVuSans-2192" transform="translate(241.699219 0)"/>
      <use xlink:href="#DejaVuSans-53" transform="translate(325.488281 0)"/>
      <use xlink:href="#DejaVuSans-4c" transform="translate(388.964844 0)"/>
      <use xlink:href="#DejaVuSans-49" transform="translate(444.677734 0)"/>
      <use xlink:href="#DejaVuSans-50" transform="translate(474.169922 0)"/>
     </g>
    </g>
    <g id="line2d_19">
     <path d="M 226.317187 95.168563 
L 236.317187 95.168563 
L 246.317187 95.168563 
" style="fill: none; stroke: #ff7f0e; stroke-width: 2.2; stroke-linecap: square"/>
    </g>
    <g id="text_18">
     <!-- SLIP→SFEF -->
     <g transform="translate(254.317187 98.668563) scale(0.1 -0.1)">
      <use xlink:href="#DejaVuSans-53"/>
      <use xlink:href="#DejaVuSans-4c" transform="translate(63.476562 0)"/>
      <use xlink:href="#DejaVuSans-49" transform="translate(119.189453 0)"/>
      <use xlink:href="#DejaVuSans-50" transform="translate(148.681641 0)"/>
      <use xlink:href="#DejaVuSans-2192" transform="translate(208.984375 0)"/>
      <use xlink:href="#DejaVuSans-53" transform="translate(292.773438 0)"/>
      <use xlink:href="#DejaVuSans-46" transform="translate(356.25 0)"/>
      <use xlink:href="#DejaVuSans-45" transform="translate(413.769531 0)"/>
      <use xlink:href="#DejaVuSans-46" transform="translate(476.953125 0)"/>
     </g>
    </g>
   </g>
  </g>
  <g id="axes_2">
   <g id="patch_9">
    <path d="M 70.2 353.106 
L 505.44 353.106 
L 505.44 237.276 
L 70.2 237.276 
z
" style="fill: #ffffff"/>
   </g>
   <g id="matplotlib.axis_3">
    <g id="xtick_7">
     <g id="line2d_20">
      <g>
       <use xlink:href="#mddbd6035d9" x="87.985286" y="353.106" style="stroke: #000000; stroke-width: 0.8"/>
      </g>
     </g>
     <g id="text_19">
      <!-- −200 -->
      <g transform="translate(74.251693 367.704438) scale(0.1 -0.1)">
       <use xlink:href="#DejaVuSans-2212"/>
       <use xlink:href="#DejaVuSans-32" transform="translate(83.789062 0)"/>
       <use xlink:href="#DejaVuSans-30" transform="translate(147.412109 0)"/>
       <use xlink:href="#DejaVuSans-30" transform="translate(211.035156 0)"/>
      </g>
     </g>
    </g>
    <g id="xtick_8">
     <g id="line2d_21">
      <g>
       <use xlink:href="#mddbd6035d9" x="167.91917" y="353.106" style="stroke: #000000; stroke-width: 0.8"/>
      </g>
     </g>
     <g id="text_20">
      <!-- 0 -->
      <g transform="translate(164.73792 367.704438) scale(0.1 -0.1)">
       <use xlink:href="#DejaVuSans-30"/>
      </g>
     </g>
    </g>
    <g id="xtick_9">
     <g id="line2d_22">
      <g>
       <use xlink:href="#mddbd6035d9" x="247.853053" y="353.106" style="stroke: #000000; stroke-width: 0.8"/>
      </g>
     </g>
     <g id="text_21">
      <!-- 200 -->
      <g transform="translate(238.309303 367.704438) scale(0.1 -0.1)">
       <use xlink:href="#DejaVuSans-32"/>
       <use xlink:href="#DejaVuSans-30" transform="translate(63.623047 0)"/>
       <use xlink:href="#DejaVuSans-30" transform="translate(127.246094 0)"/>
      </g>
     </g>
    </g>
    <g id="xtick_10">
     <g id="line2d_23">
      <g>
       <use xlink:href="#mddbd6035d9" x="327.786937" y="353.106" style="stroke: #000000; stroke-width: 0.8"/>
      </g>
     </g>
     <g id="text_22">
      <!-- 400 -->
      <g transform="translate(318.243187 367.704438) scale(0.1 -0.1)">
       <use xlink:href="#DejaVuSans-34"/>
       <use xlink:href="#DejaVuSans-30" transform="translate(63.623047 0)"/>
       <use xlink:href="#DejaVuSans-30" transform="translate(127.246094 0)"/>
      </g>
     </g>
    </g>
    <g id="xtick_11">
     <g id="line2d_24">
      <g>
       <use xlink:href="#mddbd6035d9" x="407.720821" y="353.106" style="stroke: #000000; stroke-width: 0.8"/>
      </g>
     </g>
     <g id="text_23">
      <!-- 600 -->
      <g transform="translate(398.177071 367.704438) scale(0.1 -0.1)">
       <use xlink:href="#DejaVuSans-36"/>
       <use xlink:href="#DejaVuSans-30" transform="translate(63.623047 0)"/>
       <use xlink:href="#DejaVuSans-30" transform="translate(127.246094 0)"/>
      </g>
     </g>
    </g>
    <g id="xtick_12">
     <g id="line2d_25">
      <g>
       <use xlink:href="#mddbd6035d9" x="487.654704" y="353.106" style="stroke: #000000; stroke-width: 0.8"/>
      </g>
     </g>
     <g id="text_24">
      <!-- 800 -->
      <g transform="translate(478.110954 367.704438) scale(0.1 -0.1)">
       <use xlink:href="#DejaVuSans-38"/>
       <use xlink:href="#DejaVuSans-30" transform="translate(63.623047 0)"/>
       <use xlink:href="#DejaVuSans-30" transform="translate(127.246094 0)"/>
      </g>
     </g>
    </g>
   </g>
   <g id="matplotlib.axis_4">
    <g id="ytick_7">
     <g id="line2d_26">
      <g>
       <use xlink:href="#m793aadb76e" x="70.2" y="341.341333" style="stroke: #000000; stroke-width: 0.8"/>
      </g>
     </g>
     <g id="text_25">
      <!-- −10 -->
      <g transform="translate(42.095313 345.140552) scale(0.1 -0.1)">
       <use xlink:href="#DejaVuSans-2212"/>
       <use xlink:href="#DejaVuSans-31" transform="translate(83.789062 0)"/>
       <use xlink:href="#DejaVuSans-30" transform="translate(147.412109 0)"/>
      </g>
     </g>
    </g>
    <g id="ytick_8">
     <g id="line2d_27">
      <g>
       <use xlink:href="#m793aadb76e" x="70.2" y="312.987115" style="stroke: #000000; stroke-width: 0.8"/>
      </g>
     </g>
     <g id="text_26">
      <!-- −5 -->
      <g transform="translate(48.457813 316.786334) scale(0.1 -0.1)">
       <use xlink:href="#DejaVuSans-2212"/>
       <use xlink:href="#DejaVuSans-35" transform="translate(83.789062 0)"/>
      </g>
     </g>
    </g>
    <g id="ytick_9">
     <g id="line2d_28">
      <g>
       <use xlink:href="#m793aadb76e" x="70.2" y="284.632898" style="stroke: #000000; stroke-width: 0.8"/>
      </g>
     </g>
     <g id="text_27">
      <!-- 0 -->
      <g transform="translate(56.8375 288.432117) scale(0.1 -0.1)">
       <use xlink:href="#DejaVuSans-30"/>
      </g>
     </g>
    </g>
    <g id="ytick_10">
     <g id="line2d_29">
      <g>
       <use xlink:href="#m793aadb76e" x="70.2" y="256.278681" style="stroke: #000000; stroke-width: 0.8"/>
      </g>
     </g>
     <g id="text_28">
      <!-- 5 -->
      <g transform="translate(56.8375 260.077899) scale(0.1 -0.1)">
       <use xlink:href="#DejaVuSans-35"/>
      </g>
     </g>
    </g>
    <g id="text_29">
     <!-- ΔΔLL (bits) -->
     <g transform="translate(36.015625 322.22225) rotate(-90) scale(0.1 -0.1)">
      <use xlink:href="#DejaVuSans-394"/>
      <use xlink:href="#DejaVuSans-394" transform="translate(68.408203 0)"/>
      <use xlink:href="#DejaVuSans-4c" transform="translate(136.816406 0)"/>
      <use xlink:href="#DejaVuSans-4c" transform="translate(192.529297 0)"/>
      <use xlink:href="#DejaVuSans-20" transform="translate(248.242188 0)"/>
      <use xlink:href="#DejaVuSans-28" transform="translate(280.029297 0)"/>
      <use xlink:href="#DejaVuSans-62" transform="translate(319.042969 0)"/>
      <use xlink:href="#DejaVuSans-69" transform="translate(382.519531 0)"/>
      <use xlink:href="#DejaVuSans-74" transform="translate(410.302734 0)"/>
      <use xlink:href="#DejaVuSans-73" transform="translate(449.511719 0)"/>
      <use xlink:href="#DejaVuSans-29" transform="translate(501.611328 0)"/>
     </g>
    </g>
   </g>
   <g id="line2d_30">
    <path d="M 167.91917 353.106 
L 167.91917 237.276 
" clip-path="url(#p1b2a16d06c)" style="fill: none; stroke-dasharray: 2.96,1.28; stroke-dashoffset: 0; stroke: #000000; stroke-width: 0.8"/>
   </g>
   <g id="line2d_31">
    <path d="M 70.2 284.632898 
L 505.44 284.632898 
" clip-path="url(#p1b2a16d06c)" style="fill: none; stroke-dasharray: 0.8,1.32; stroke-dashoffset: 0; stroke: #000000; stroke-width: 0.8"/>
   </g>
   <g id="line2d_32">
    <path d="M 89.983636 281.196446 
L 93.980327 282.457592 
L 97.977023 289.476063 
L 101.973713 285.374312 
L 105.97041 319.734584 
L 109.967106 327.649824 
L 113.963796 294.792044 
L 117.960493 303.710259 
L 121.957186 276.77516 
L 125.953882 275.686936 
L 129.950576 305.875236 
L 133.947269 270.611312 
L 137.943962 293.319376 
L 141.940659 261.783876 
L 145.937352 347.841 
L 149.934045 291.089309 
L 153.93074 285.088584 
L 157.927434 261.587149 
L 161.924129 269.358677 
L 165.920823 268.244956 
L 169.917517 277.734467 
L 173.914211 274.871958 
L 177.910906 282.655874 
L 181.9076 317.210794 
L 185.904294 304.764183 
L 189.900988 302.984917 
L 193.897681 281.48096 
L 197.894377 289.282591 
L 201.891071 308.741937 
L 205.887764 290.181619 
L 209.884457 302.404439 
L 213.881154 289.62011 
L 217.877847 286.012156 
L 221.874543 337.144211 
L 225.871234 281.493426 
L 229.86793 285.271486 
L 233.864626 251.719763 
L 237.861317 316.228085 
L 241.858013 294.560703 
L 245.854704 279.505692 
L 249.8514 263.969327 
L 253.848096 305.619925 
L 257.844787 242.541 
L 261.841483 282.577923 
L 265.838179 284.109394 
L 269.83487 291.357391 
L 273.83156 301.436173 
L 277.828262 286.449138 
L 281.824953 274.965104 
L 285.821643 261.961141 
L 289.818345 294.877885 
L 293.815036 293.442077 
L 297.811726 268.7997 
L 301.808428 279.904746 
L 305.805119 278.767509 
L 309.801809 281.463926 
L 313.798511 298.697534 
L 317.795202 267.100523 
L 321.791892 265.936062 
L 325.788594 305.459395 
L 329.785285 311.326422 
L 333.781975 271.134399 
L 337.778677 295.045861 
L 341.775368 285.354747 
L 345.772058 302.640729 
L 349.76876 285.03076 
L 353.765451 263.286691 
L 357.762141 293.96202 
L 361.758843 279.354952 
L 365.755534 290.963859 
L 369.752224 288.074501 
L 373.748914 279.656046 
L 377.745605 280.539459 
L 381.742319 309.963473 
L 385.739009 290.987525 
L 389.7357 299.999463 
L 393.73239 286.616568 
L 397.72908 314.802155 
L 401.725771 281.698969 
L 405.722485 280.387481 
L 409.719175 296.218623 
L 413.715866 246.370642 
L 417.712556 263.117964 
L 421.709246 286.224835 
L 425.705937 302.437792 
L 429.702627 281.727472 
L 433.699341 244.415341 
L 437.696032 257.511371 
L 441.692722 284.675162 
L 445.689412 307.544553 
L 449.686103 294.719999 
L 453.682793 291.850228 
L 457.679507 281.469714 
L 461.676198 268.510102 
L 465.672888 261.446307 
L 469.669578 307.644459 
L 473.666269 269.753222 
L 477.662959 273.914908 
L 481.659673 292.713861 
L 485.656364 303.324197 
" clip-path="url(#p1b2a16d06c)" style="fill: none; stroke: #d62728; stroke-width: 2.2; stroke-linecap: square"/>
   </g>
   <g id="line2d_33">
    <defs>
     <path id="ma6a50b6c84" d="M 0 1.25 
C 0.331504 1.25 0.649475 1.118292 0.883883 0.883883 
C 1.118292 0.649475 1.25 0.331504 1.25 0 
C 1.25 -0.331504 1.118292 -0.649475 0.883883 -0.883883 
C 0.649475 -1.118292 0.331504 -1.25 0 -1.25 
C -0.331504 -1.25 -0.649475 -1.118292 -0.883883 -0.883883 
C -1.118292 -0.649475 -1.25 -0.331504 -1.25 0 
C -1.25 0.331504 -1.118292 0.649475 -0.883883 0.883883 
C -0.649475 1.118292 -0.331504 1.25 0 1.25 
z
" style="stroke: #000000"/>
    </defs>
    <g clip-path="url(#p1b2a16d06c)">
     <use xlink:href="#ma6a50b6c84" x="109.967106" y="327.649824" style="stroke: #000000"/>
     <use xlink:href="#ma6a50b6c84" x="145.937352" y="347.841" style="stroke: #000000"/>
     <use xlink:href="#ma6a50b6c84" x="181.9076" y="317.210794" style="stroke: #000000"/>
     <use xlink:href="#ma6a50b6c84" x="221.874543" y="337.144211" style="stroke: #000000"/>
     <use xlink:href="#ma6a50b6c84" x="249.8514" y="263.969327" style="stroke: #000000"/>
     <use xlink:href="#ma6a50b6c84" x="317.795202" y="267.100523" style="stroke: #000000"/>
     <use xlink:href="#ma6a50b6c84" x="413.715866" y="246.370642" style="stroke: #000000"/>
    </g>
   </g>
   <g id="patch_10">
    <path d="M 70.2 353.106 
L 70.2 237.276 
" style="fill: none; stroke: #000000; stroke-width: 0.8; stroke-linejoin: miter; stroke-linecap: square"/>
   </g>
   <g id="patch_11">
    <path d="M 505.44 353.106 
L 505.44 237.276 
" style="fill: none; stroke: #000000; stroke-width: 0.8; stroke-linejoin: miter; stroke-linecap: square"/>
   </g>
   <g id="patch_12">
    <path d="M 70.2 353.106 
L 505.44 353.106 
" style="fill: none; stroke: #000000; stroke-width: 0.8; stroke-linejoin: miter; stroke-linecap: square"/>
   </g>
   <g id="patch_13">
    <path d="M 70.2 237.276 
L 505.44 237.276 
" style="fill: none; stroke: #000000; stroke-width: 0.8; stroke-linejoin: miter; stroke-linecap: square"/>
   </g>
   <g id="text_30">
    <!-- Panel B: pair-diff with significance dots -->
    <g transform="translate(171.554063 231.276) scale(0.12 -0.12)">
     <defs>
      <path id="DejaVuSans-42" d="M 1259 2228 
L 1259 519 
L 2272 519 
Q 2781 519 3026 730 
Q 3272 941 3272 1375 
Q 3272 1813 3026 2020 
Q 2781 2228 2272 2228 
L 1259 2228 
z
M 1259 4147 
L 1259 2741 
L 2194 2741 
Q 2656 2741 2882 2914 
Q 3109 3088 3109 3444 
Q 3109 3797 2882 3972 
Q 2656 4147 2194 4147 
L 1259 4147 
z
M 628 4666 
L 2241 4666 
Q 2963 4666 3353 4366 
Q 3744 4066 3744 3513 
Q 3744 3084 3544 2831 
Q 3344 2578 2956 2516 
Q 3422 2416 3680 2098 
Q 3938 1781 3938 1306 
Q 3938 681 3513 340 
Q 3088 0 2303 0 
L 628 0 
L 628 4666 
z
" transform="scale(0.015625)"/>
      <path id="DejaVuSans-70" d="M 1159 525 
L 1159 -1331 
L 581 -1331 
L 581 3500 
L 1159 3500 
L 1159 2969 
Q 1341 3281 1617 3432 
Q 1894 3584 2278 3584 
Q 2916 3584 3314 3078 
Q 3713 2572 3713 1747 
Q 3713 922 3314 415 
Q 2916 -91 2278 -91 
Q 1894 -91 1617 61 
Q 1341 213 1159 525 
z
M 3116 1747 
Q 3116 2381 2855 2742 
Q 2594 3103 2138 3103 
Q 1681 3103 1420 2742 
Q 1159 2381 1159 1747 
Q 1159 1113 1420 752 
Q 1681 391 2138 391 
Q 2594 391 2855 752 
Q 3116 1113 3116 1747 
z
" transform="scale(0.015625)"/>
      <path id="DejaVuSans-68" d="M 3513 2113 
L 3513 0 
L 2938 0 
L 2938 2094 
Q 2938 2591 2744 2837 
Q 2550 3084 2163 3084 
Q 1697 3084 1428 2787 
Q 1159 2491 1159 1978 
L 1159 0 
L 581 0 
L 581 4863 
L 1159 4863 
L 1159 2956 
Q 1366 3272 1645 3428 
Q 1925 3584 2291 3584 
Q 2894 3584 3203 3211 
Q 3513 2838 3513 2113 
z
" transform="scale(0.015625)"/>
      <path id="DejaVuSans-67" d="M 2906 1791 
Q 2906 2416 2648 2759 
Q 2391 3103 1925 3103 
Q 1463 3103 1205 2759 
Q 947 2416 947 1791 
Q 947 1169 1205 825 
Q 1463 481 1925 481 
Q 2391 481 2648 825 
Q 2906 1169 2906 1791 
z
M 3481 434 
Q 3481 -459 3084 -895 
Q 2688 -1331 1869 -1331 
Q 1566 -1331 1297 -1286 
Q 1028 -1241 775 -1147 
L 775 -588 
Q 1028 -725 1275 -790 
Q 1522 -856 1778 -856 
Q 2344 -856 2625 -561 
Q 2906 -266 2906 331 
L 2906 616 
Q 2728 306 2450 153 
Q 2172 0 1784 0 
Q 1141 0 747 490 
Q 353 981 353 1791 
Q 353 2603 747 3093 
Q 1141 3584 1784 3584 
Q 2172 3584 2450 3431 
Q 2728 3278 2906 2969 
L 2906 3500 
L 3481 3500 
L 3481 434 
z
" transform="scale(0.015625)"/>
      <path id="DejaVuSans-63" d="M 3122 3366 
L 3122 2828 
Q 2878 2963 2633 3030 
Q 2388 3097 2138 3097 
Q 1578 3097 1268 2742 
Q 959 2388 959 1747 
Q 959 1106 1268 751 
Q 1578 397 2138 397 
Q 2388 397 2633 464 
Q 2878 531 3122 666 
L 3122 134 
Q 2881 22 2623 -34 
Q 2366 -91 2075 -91 
Q 1284 -91 818 406 
Q 353 903 353 1747 
Q 353 2603 823 3093 
Q 1294 3584 2113 3584 
Q 2378 3584 2631 3529 
Q 2884 3475 3122 3366 
z
" transform="scale(0.015625)"/>
     </defs>
     <use xlink:href="#DejaVuSans-50"/>
     <use xlink:href="#DejaVuSans-61" transform="translate(55.802734 0)"/>
     <use xlink:href="#DejaVuSans-6e" transform="translate(117.082031 0)"/>
     <use xlink:href="#DejaVuSans-65" transform="translate(180.460938 0)"/>
     <use xlink:href="#DejaVuSans-6c" transform="translate(241.984375 0)"/>
     <use xlink:href="#DejaVuSans-20" transform="translate(269.767578 0)"/>
     <use xlink:href="#DejaVuSans-42" transform="translate(301.554688 0)"/>
     <use xlink:href="#DejaVuSans-3a" transform="translate(370.158203 0)"/>
     <use xlink:href="#DejaVuSans-20" transform="translate(403.849609 0)"/>
     <use xlink:href="#DejaVuSans-70" transform="translate(435.636719 0)"/>
     <use xlink:href="#DejaVuSans-61" transform="translate(499.113281 0)"/>
     <use xlink:href="#DejaVuSans-69" transform="translate(560.392578 0)"/>
     <use xlink:href="#DejaVuSans-72" transform="translate(588.175781 0)"/>
     <use xlink:href="#DejaVuSans-2d" transform="translate(622.914062 0)"/>
     <use xlink:href="#DejaVuSans-64" transform="translate(658.998047 0)"/>
     <use xlink:href="#DejaVuSans-69" transform="translate(722.474609 0)"/>
     <use xlink:href="#DejaVuSans-66" transform="translate(750.257812 0)"/>
     <use xlink:href="#DejaVuSans-66" transform="translate(785.462891 0)"/>
     <use xlink:href="#DejaVuSans-20" transform="translate(820.667969 0)"/>
     <use xlink:href="#DejaVuSans-77" transform="translate(852.455078 0)"/>
     <use xlink:href="#DejaVuSans-69" transform="translate(934.242188 0)"/>
     <use xlink:href="#DejaVuSans-74" transform="translate(962.025391 0)"/>
     <use xlink:href="#DejaVuSans-68" transform="translate(1001.234375 0)"/>
     <use xlink:href="#DejaVuSans-20" transform="translate(1064.613281 0)"/>
     <use xlink:href="#DejaVuSans-73" transform="translate(1096.400391 0)"/>
     <use xlink:href="#DejaVuSans-69" transform="translate(1148.5 0)"/>
     <use xlink:href="#DejaVuSans-67" transform="translate(1176.283203 0)"/>
     <use xlink:href="#DejaVuSans-6e" transform="translate(1239.759766 0)"/>
     <use xlink:href="#DejaVuSans-69" transform="translate(1303.138672 0)"/>
     <use xlink:href="#DejaVuSans-66" transform="translate(1330.921875 0)"/>
     <use xlink:href="#DejaVuSans-69" transform="translate(1366.126953 0)"/>
     <use xlink:href="#DejaVuSans-63" transform="translate(1393.910156 0)"/>
     <use xlink:href="#DejaVuSans-61" transform="translate(1448.890625 0)"/>
     <use xlink:href="#DejaVuSans-6e" transform="translate(1510.169922 0)"/>
     <use xlink:href="#DejaVuSans-63" transform="translate(1573.548828 0)"/>
     <use xlink:href="#DejaVuSans-65" transform="translate(1628.529297 0)"/>
     <use xlink:href="#DejaVuSans-20" transform="translate(1690.052734 0)"/>
     <use xlink:href="#DejaVuSans-64" transform="translate(1721.839844 0)"/>
     <use xlink:href="#DejaVuSans-6f" transform="translate(1785.316406 0)"/>
     <use xlink:href="#DejaVuSans-74" transform="translate(1846.498047 0)"/>
     <use xlink:href="#DejaVuSans-73" transform="translate(1885.707031 0)"/>
    </g>
   </g>
   <g id="legend_2">
    <g id="line2d_34">
     <path d="M 79.2 250.374437 
L 89.2 250.374437 
L 99.2 250.374437 
" style="fill: none; stroke: #d62728; stroke-width: 2.2; stroke-linecap: square"/>
    </g>
    <g id="text_31">
     <!-- (A→B − B→A) -->
     <g transform="translate(107.2 253.874437) scale(0.1 -0.1)">
      <use xlink:href="#DejaVuSans-28"/>
      <use xlink:href="#DejaVuSans-41" transform="translate(39.013672 0)"/>
      <use xlink:href="#DejaVuSans-2192" transform="translate(107.421875 0)"/>
      <use xlink:href="#DejaVuSans-42" transform="translate(191.210938 0)"/>
      <use xlink:href="#DejaVuSans-20" transform="translate(259.814453 0)"/>
      <use xlink:href="#DejaVuSans-2212" transform="translate(291.601562 0)"/>
      <use xlink:href="#DejaVuSans-20" transform="translate(375.390625 0)"/>
      <use xlink:href="#DejaVuSans-42" transform="translate(407.177734 0)"/>
      <use xlink:href="#DejaVuSans-2192" transform="translate(475.78125 0)"/>
      <use xlink:href="#DejaVuSans-41" transform="translate(559.570312 0)"/>
      <use xlink:href="#DejaVuSans-29" transform="translate(627.978516 0)"/>
     </g>
    </g>
    <g id="line2d_35">
     <g>
      <use xlink:href="#ma6a50b6c84" x="89.2" y="265.052563" style="stroke: #000000"/>
     </g>
    </g>
    <g id="text_32">
     <!-- p&lt;0.05 (one-sided) -->
     <g transform="translate(107.2 268.552563) scale(0.1 -0.1)">
      <defs>
       <path id="DejaVuSans-3c" d="M 4684 3150 
L 1459 2003 
L 4684 863 
L 4684 294 
L 678 1747 
L 678 2266 
L 4684 3719 
L 4684 3150 
z
" transform="scale(0.015625)"/>
      </defs>
      <use xlink:href="#DejaVuSans-70"/>
      <use xlink:href="#DejaVuSans-3c" transform="translate(63.476562 0)"/>
      <use xlink:href="#DejaVuSans-30" transform="translate(147.265625 0)"/>
      <use xlink:href="#DejaVuSans-2e" transform="translate(210.888672 0)"/>
      <use xlink:href="#DejaVuSans-30" transform="translate(242.675781 0)"/>
      <use xlink:href="#DejaVuSans-35" transform="translate(306.298828 0)"/>
      <use xlink:href="#DejaVuSans-20" transform="translate(369.921875 0)"/>
      <use xlink:href="#DejaVuSans-28" transform="translate(401.708984 0)"/>
      <use xlink:href="#DejaVuSans-6f" transform="translate(440.722656 0)"/>
      <use xlink:href="#DejaVuSans-6e" transform="translate(501.904297 0)"/>
      <use xlink:href="#DejaVuSans-65" transform="translate(565.283203 0)"/>
      <use xlink:href="#DejaVuSans-2d" transform="translate(626.806641 0)"/>
      <use xlink:href="#DejaVuSans-73" transform="translate(662.890625 0)"/>
      <use xlink:href="#DejaVuSans-69" transform="translate(714.990234 0)"/>
      <use xlink:href="#DejaVuSans-64" transform="translate(742.773438 0)"/>
      <use xlink:href="#DejaVuSans-65" transform="translate(806.25 0)"/>
      <use xlink:href="#DejaVuSans-64" transform="translate(867.773438 0)"/>
      <use xlink:href="#DejaVuSans-29" transform="translate(931.25 0)"/>
     </g>
    </g>
   </g>
  </g>
  <g id="axes_3">
   <g id="patch_14">
    <path d="M 70.2 499.824 
L 505.44 499.824 
L 505.44 383.994 
L 70.2 383.994 
z
" style="fill: #ffffff"/>
   </g>
   <g id="matplotlib.axis_5">
    <g id="xtick_13">
     <g id="line2d_36">
      <g>
       <use xlink:href="#mddbd6035d9" x="87.985286" y="499.824" style="stroke: #000000; stroke-width: 0.8"/>
      </g>
     </g>
     <g id="text_33">
      <!-- −200 -->
      <g transform="translate(74.251693 514.422438) scale(0.1 -0.1)">
       <use xlink:href="#DejaVuSans-2212"/>
       <use xlink:href="#DejaVuSans-32" transform="translate(83.789062 0)"/>
       <use xlink:href="#DejaVuSans-30" transform="translate(147.412109 0)"/>
       <use xlink:href="#DejaVuSans-30" transform="translate(211.035156 0)"/>
      </g>
     </g>
    </g>
    <g id="xtick_14">
     <g id="line2d_37">
      <g>
       <use xlink:href="#mddbd6035d9" x="167.91917" y="499.824" style="stroke: #000000; stroke-width: 0.8"/>
      </g>
     </g>
     <g id="text_34">
      <!-- 0 -->
      <g transform="translate(164.73792 514.422438) scale(0.1 -0.1)">
       <use xlink:href="#DejaVuSans-30"/>
      </g>
     </g>
    </g>
    <g id="xtick_15">
     <g id="line2d_38">
      <g>
       <use xlink:href="#mddbd6035d9" x="247.853053" y="499.824" style="stroke: #000000; stroke-width: 0.8"/>
      </g>
     </g>
     <g id="text_35">
      <!-- 200 -->
      <g transform="translate(238.309303 514.422438) scale(0.1 -0.1)">
       <use xlink:href="#DejaVuSans-32"/>
       <use xlink:href="#DejaVuSans-30" transform="translate(63.623047 0)"/>
       <use xlink:href="#DejaVuSans-30" transform="translate(127.246094 0)"/>
      </g>
     </g>
    </g>
    <g id="xtick_16">
     <g id="line2d_39">
      <g>
       <use xlink:href="#mddbd6035d9" x="327.786937" y="499.824" style="stroke: #000000; stroke-width: 0.8"/>
      </g>
     </g>
     <g id="text_36">
      <!-- 400 -->
      <g transform="translate(318.243187 514.422438) scale(0.1 -0.1)">
       <use xlink:href="#DejaVuSans-34"/>
       <use xlink:href="#DejaVuSans-30" transform="translate(63.623047 0)"/>
       <use xlink:href="#DejaVuSans-30" transform="translate(127.246094 0)"/>
      </g>
     </g>
    </g>
    <g id="xtick_17">
     <g id="line2d_40">
      <g>
       <use xlink:href="#mddbd6035d9" x="407.720821" y="499.824" style="stroke: #000000; stroke-width: 0.8"/>
      </g>
     </g>
     <g id="text_37">
      <!-- 600 -->
      <g transform="translate(398.177071 514.422438) scale(0.1 -0.1)">
       <use xlink:href="#DejaVuSans-36"/>
       <use xlink:href="#DejaVuSans-30" transform="translate(63.623047 0)"/>
       <use xlink:href="#DejaVuSans-30" transform="translate(127.246094 0)"/>
      </g>
     </g>
    </g>
    <g id="xtick_18">
     <g id="line2d_41">
      <g>
       <use xlink:href="#mddbd6035d9" x="487.654704" y="499.824" style="stroke: #000000; stroke-width: 0.8"/>
      </g>
     </g>
     <g id="text_38">
      <!-- 800 -->
      <g transform="translate(478.110954 514.422438) scale(0.1 -0.1)">
       <use xlink:href="#DejaVuSans-38"/>
       <use xlink:href="#DejaVuSans-30" transform="translate(63.623047 0)"/>
       <use xlink:href="#DejaVuSans-30" transform="translate(127.246094 0)"/>
      </g>
     </g>
    </g>
    <g id="text_39">
     <!-- Time (ms) -->
     <g transform="translate(262.620781 528.100563) scale(0.1 -0.1)">
      <defs>
       <path id="DejaVuSans-54" d="M -19 4666 
L 3928 4666 
L 3928 4134 
L 2272 4134 
L 2272 0 
L 1638 0 
L 1638 4134 
L -19 4134 
L -19 4666 
z
" transform="scale(0.015625)"/>
       <path id="DejaVuSans-6d" d="M 3328 2828 
Q 3544 3216 3844 3400 
Q 4144 3584 4550 3584 
Q 5097 3584 5394 3201 
Q 5691 2819 5691 2113 
L 5691 0 
L 5113 0 
L 5113 2094 
Q 5113 2597 4934 2840 
Q 4756 3084 4391 3084 
Q 3944 3084 3684 2787 
Q 3425 2491 3425 1978 
L 3425 0 
L 2847 0 
L 2847 2094 
Q 2847 2600 2669 2842 
Q 2491 3084 2119 3084 
Q 1678 3084 1418 2786 
Q 1159 2488 1159 1978 
L 1159 0 
L 581 0 
L 581 3500 
L 1159 3500 
L 1159 2956 
Q 1356 3278 1631 3431 
Q 1906 3584 2284 3584 
Q 2666 3584 2933 3390 
Q 3200 3197 3328 2828 
z
" transform="scale(0.015625)"/>
      </defs>
      <use xlink:href="#DejaVuSans-54"/>
      <use xlink:href="#DejaVuSans-69" transform="translate(57.958984 0)"/>
      <use xlink:href="#DejaVuSans-6d" transform="translate(85.742188 0)"/>
      <use xlink:href="#DejaVuSans-65" transform="translate(183.154297 0)"/>
      <use xlink:href="#DejaVuSans-20" transform="translate(244.677734 0)"/>
      <use xlink:href="#DejaVuSans-28" transform="translate(276.464844 0)"/>
      <use xlink:href="#DejaVuSans-6d" transform="translate(315.478516 0)"/>
      <use xlink:href="#DejaVuSans-73" transform="translate(412.890625 0)"/>
      <use xlink:href="#DejaVuSans-29" transform="translate(464.990234 0)"/>
     </g>
    </g>
   </g>
   <g id="matplotlib.axis_6">
    <g id="ytick_11">
     <g id="line2d_42">
      <g>
       <use xlink:href="#m793aadb76e" x="70.2" y="485.760267" style="stroke: #000000; stroke-width: 0.8"/>
      </g>
     </g>
     <g id="text_40">
      <!-- −1 -->
      <g transform="translate(48.457813 489.559486) scale(0.1 -0.1)">
       <use xlink:href="#DejaVuSans-2212"/>
       <use xlink:href="#DejaVuSans-31" transform="translate(83.789062 0)"/>
      </g>
     </g>
    </g>
    <g id="ytick_12">
     <g id="line2d_43">
      <g>
       <use xlink:href="#m793aadb76e" x="70.2" y="462.258856" style="stroke: #000000; stroke-width: 0.8"/>
      </g>
     </g>
     <g id="text_41">
      <!-- 0 -->
      <g transform="translate(56.8375 466.058075) scale(0.1 -0.1)">
       <use xlink:href="#DejaVuSans-30"/>
      </g>
     </g>
    </g>
    <g id="ytick_13">
     <g id="line2d_44">
      <g>
       <use xlink:href="#m793aadb76e" x="70.2" y="438.757444" style="stroke: #000000; stroke-width: 0.8"/>
      </g>
     </g>
     <g id="text_42">
      <!-- 1 -->
      <g transform="translate(56.8375 442.556663) scale(0.1 -0.1)">
       <use xlink:href="#DejaVuSans-31"/>
      </g>
     </g>
    </g>
    <g id="ytick_14">
     <g id="line2d_45">
      <g>
       <use xlink:href="#m793aadb76e" x="70.2" y="415.256033" style="stroke: #000000; stroke-width: 0.8"/>
      </g>
     </g>
     <g id="text_43">
      <!-- 2 -->
      <g transform="translate(56.8375 419.055252) scale(0.1 -0.1)">
       <use xlink:href="#DejaVuSans-32"/>
      </g>
     </g>
    </g>
    <g id="ytick_15">
     <g id="line2d_46">
      <g>
       <use xlink:href="#m793aadb76e" x="70.2" y="391.754622" style="stroke: #000000; stroke-width: 0.8"/>
      </g>
     </g>
     <g id="text_44">
      <!-- 3 -->
      <g transform="translate(56.8375 395.553841) scale(0.1 -0.1)">
       <defs>
        <path id="DejaVuSans-33" d="M 2597 2516 
Q 3050 2419 3304 2112 
Q 3559 1806 3559 1356 
Q 3559 666 3084 287 
Q 2609 -91 1734 -91 
Q 1441 -91 1130 -33 
Q 819 25 488 141 
L 488 750 
Q 750 597 1062 519 
Q 1375 441 1716 441 
Q 2309 441 2620 675 
Q 2931 909 2931 1356 
Q 2931 1769 2642 2001 
Q 2353 2234 1838 2234 
L 1294 2234 
L 1294 2753 
L 1863 2753 
Q 2328 2753 2575 2939 
Q 2822 3125 2822 3475 
Q 2822 3834 2567 4026 
Q 2313 4219 1838 4219 
Q 1578 4219 1281 4162 
Q 984 4106 628 3988 
L 628 4550 
Q 988 4650 1302 4700 
Q 1616 4750 1894 4750 
Q 2613 4750 3031 4423 
Q 3450 4097 3450 3541 
Q 3450 3153 3228 2886 
Q 3006 2619 2597 2516 
z
" transform="scale(0.015625)"/>
       </defs>
       <use xlink:href="#DejaVuSans-33"/>
      </g>
     </g>
    </g>
    <g id="text_45">
     <!-- Z (σ from null) -->
     <g transform="translate(42.378125 477.919938) rotate(-90) scale(0.1 -0.1)">
      <defs>
       <path id="DejaVuSans-5a" d="M 359 4666 
L 4025 4666 
L 4025 4184 
L 1075 531 
L 4097 531 
L 4097 0 
L 288 0 
L 288 481 
L 3238 4134 
L 359 4134 
L 359 4666 
z
" transform="scale(0.015625)"/>
      </defs>
      <use xlink:href="#DejaVuSans-5a"/>
      <use xlink:href="#DejaVuSans-20" transform="translate(68.505859 0)"/>
      <use xlink:href="#DejaVuSans-28" transform="translate(100.292969 0)"/>
      <use xlink:href="#DejaVuSans-3c3" transform="translate(139.306641 0)"/>
      <use xlink:href="#DejaVuSans-20" transform="translate(202.685547 0)"/>
      <use xlink:href="#DejaVuSans-66" transform="translate(234.472656 0)"/>
      <use xlink:href="#DejaVuSans-72" transform="translate(269.677734 0)"/>
      <use xlink:href="#DejaVuSans-6f" transform="translate(308.541016 0)"/>
      <use xlink:href="#DejaVuSans-6d" transform="translate(369.722656 0)"/>
      <use xlink:href="#DejaVuSans-20" transform="translate(467.134766 0)"/>
      <use xlink:href="#DejaVuSans-6e" transform="translate(498.921875 0)"/>
      <use xlink:href="#DejaVuSans-75" transform="translate(562.300781 0)"/>
      <use xlink:href="#DejaVuSans-6c" transform="translate(625.679688 0)"/>
      <use xlink:href="#DejaVuSans-6c" transform="translate(653.462891 0)"/>
      <use xlink:href="#DejaVuSans-29" transform="translate(681.246094 0)"/>
     </g>
    </g>
   </g>
   <g id="line2d_47">
    <path d="M 167.91917 499.824 
L 167.91917 383.994 
" clip-path="url(#p304071a1e7)" style="fill: none; stroke-dasharray: 2.96,1.28; stroke-dashoffset: 0; stroke: #000000; stroke-width: 0.8"/>
   </g>
   <g id="line2d_48">
    <path d="M 89.983636 477.217432 
L 93.980327 458.548228 
L 97.977023 477.879194 
L 101.973713 472.107596 
L 105.97041 477.244181 
L 109.967106 488.451079 
L 113.963796 478.725612 
L 117.960493 472.937296 
L 121.957186 472.078217 
L 125.953882 457.776702 
L 129.950576 485.204054 
L 133.947269 449.449625 
L 137.943962 486.066842 
L 141.940659 447.059572 
L 145.937352 489.684956 
L 149.934045 493.960769 
L 153.93074 464.60042 
L 157.927434 448.929267 
L 161.924129 458.91094 
L 165.920823 424.773401 
L 169.917517 461.162963 
L 173.914211 468.817898 
L 177.910906 453.87368 
L 181.9076 467.54548 
L 185.904294 460.973123 
L 189.900988 484.811502 
L 193.897681 461.143582 
L 197.894377 476.240568 
L 201.891071 475.529846 
L 205.887764 435.862976 
L 209.884457 466.296813 
L 213.881154 487.92997 
L 217.877847 486.848733 
L 221.874543 479.65372 
L 225.871234 471.248513 
L 229.86793 448.210314 
L 233.864626 424.39011 
L 237.861317 483.805898 
L 241.858013 464.192957 
L 245.854704 454.008577 
L 249.8514 409.489544 
L 253.848096 491.596565 
L 257.844787 421.789692 
L 261.841483 474.419168 
L 265.838179 434.192292 
L 269.83487 466.508747 
L 273.83156 486.23345 
L 277.828262 487.467483 
L 281.824953 435.806526 
L 285.821643 458.138314 
L 289.818345 488.418058 
L 293.815036 483.939788 
L 297.811726 458.382736 
L 301.808428 480.52004 
L 305.805119 464.318804 
L 309.801809 454.399079 
L 313.798511 448.584023 
L 317.795202 406.383341 
L 321.791892 449.226443 
L 325.788594 493.590131 
L 329.785285 455.048397 
L 333.781975 453.557655 
L 337.778677 492.835659 
L 341.775368 477.977281 
L 345.772058 474.896066 
L 349.76876 472.097065 
L 353.765451 429.338734 
L 357.762141 484.433131 
L 361.758843 476.233437 
L 365.755534 444.47288 
L 369.752224 477.623031 
L 373.748914 479.415878 
L 377.745605 431.640288 
L 381.742319 482.760766 
L 385.739009 485.498571 
L 389.7357 454.691269 
L 393.73239 486.425854 
L 397.72908 491.518287 
L 401.725771 468.350172 
L 405.722485 470.063341 
L 409.719175 469.895168 
L 413.715866 395.63154 
L 417.712556 456.455482 
L 421.709246 452.927909 
L 425.705937 453.028827 
L 429.702627 471.958637 
L 433.699341 427.495282 
L 437.696032 432.975402 
L 441.692722 467.892628 
L 445.689412 480.685355 
L 449.686103 480.599857 
L 453.682793 490.163742 
L 457.679507 476.151927 
L 461.676198 435.174709 
L 465.672888 449.057121 
L 469.669578 489.734671 
L 473.666269 440.943111 
L 477.662959 454.772035 
L 481.659673 464.09998 
L 485.656364 480.8409 
" clip-path="url(#p304071a1e7)" style="fill: none; stroke: #1f77b4; stroke-width: 2; stroke-linecap: square"/>
   </g>
   <g id="line2d_49">
    <path d="M 89.983636 484.314328 
L 93.980327 460.110206 
L 97.977023 470.950971 
L 101.973713 470.479212 
L 105.97041 422.053477 
L 109.967106 414.40797 
L 113.963796 462.763513 
L 117.960493 441.884241 
L 121.957186 484.160557 
L 125.953882 470.155837 
L 129.950576 450.77749 
L 133.947269 467.615348 
L 137.943962 472.676408 
L 141.940659 482.815494 
L 145.937352 389.259 
L 149.934045 483.597559 
L 153.93074 460.315752 
L 157.927434 489.339816 
L 161.924129 479.370532 
L 165.920823 451.106267 
L 169.917517 472.945507 
L 173.914211 486.002677 
L 177.910906 456.089369 
L 181.9076 416.088152 
L 185.904294 432.169413 
L 189.900988 455.166545 
L 193.897681 465.796682 
L 197.894377 466.685425 
L 201.891071 427.806918 
L 205.887764 420.655362 
L 209.884457 437.647931 
L 213.881154 477.995187 
L 217.877847 485.129648 
L 221.874543 395.523472 
L 225.871234 473.950598 
L 229.86793 451.594855 
L 233.864626 476.7361 
L 237.861317 431.870665 
L 241.858013 446.487595 
L 245.854704 461.154156 
L 249.8514 440.775531 
L 253.848096 459.712633 
L 257.844787 486.401191 
L 261.841483 478.711136 
L 265.838179 440.771281 
L 269.83487 455.644088 
L 273.83156 458.271778 
L 277.828262 485.043532 
L 281.824953 458.275064 
L 285.821643 494.559 
L 289.818345 474.446514 
L 293.815036 469.823258 
L 297.811726 483.189319 
L 301.808428 489.045854 
L 305.805119 474.351925 
L 309.801809 458.763151 
L 313.798511 426.944286 
L 317.795202 436.031876 
L 321.791892 476.955135 
L 325.788594 461.463746 
L 329.785285 409.878917 
L 333.781975 473.246211 
L 337.778677 474.171707 
L 341.775368 479.961773 
L 345.772058 440.981819 
L 349.76876 473.575123 
L 353.765451 466.335239 
L 357.762141 466.78827 
L 361.758843 483.254367 
L 365.755534 437.754549 
L 369.752224 471.344847 
L 373.748914 486.084764 
L 377.745605 437.209732 
L 381.742319 441.923582 
L 385.739009 474.158281 
L 389.7357 432.914354 
L 393.73239 483.930188 
L 397.72908 441.42417 
L 401.725771 474.730854 
L 405.722485 477.797057 
L 409.719175 451.779815 
L 413.715866 455.567197 
L 417.712556 492.523596 
L 421.709246 449.425896 
L 425.705937 425.758991 
L 429.702627 476.423823 
L 433.699341 489.293919 
L 437.696032 472.71463 
L 441.692722 469.085731 
L 445.689412 451.133782 
L 449.686103 461.703376 
L 453.682793 478.643284 
L 457.679507 482.598225 
L 461.676198 456.723819 
L 465.672888 486.166397 
L 469.669578 450.246312 
L 473.666269 463.98901 
L 477.662959 472.126812 
L 481.659673 449.359572 
L 485.656364 449.249407 
" clip-path="url(#p304071a1e7)" style="fill: none; stroke: #ff7f0e; stroke-width: 2; stroke-linecap: square"/>
   </g>
   <g id="patch_15">
    <path d="M 70.2 499.824 
L 70.2 383.994 
" style="fill: none; stroke: #000000; stroke-width: 0.8; stroke-linejoin: miter; stroke-linecap: square"/>
   </g>
   <g id="patch_16">
    <path d="M 505.44 499.824 
L 505.44 383.994 
" style="fill: none; stroke: #000000; stroke-width: 0.8; stroke-linejoin: miter; stroke-linecap: square"/>
   </g>
   <g id="patch_17">
    <path d="M 70.2 499.824 
L 505.44 499.824 
" style="fill: none; stroke: #000000; stroke-width: 0.8; stroke-linejoin: miter; stroke-linecap: square"/>
   </g>
   <g id="patch_18">
    <path d="M 70.2 383.994 
L 505.44 383.994 
" style="fill: none; stroke: #000000; stroke-width: 0.8; stroke-linejoin: miter; stroke-linecap: square"/>
   </g>
   <g id="text_46">
    <!-- Panel C: evidence strength vs null -->
    <g transform="translate(185.80125 377.994) scale(0.12 -0.12)">
     <use xlink:href="#DejaVuSans-50"/>
     <use xlink:href="#DejaVuSans-61" transform="translate(55.802734 0)"/>
     <use xlink:href="#DejaVuSans-6e" transform="translate(117.082031 0)"/>
     <use xlink:href="#DejaVuSans-65" transform="translate(180.460938 0)"/>
     <use xlink:href="#DejaVuSans-6c" transform="translate(241.984375 0)"/>
     <use xlink:href="#DejaVuSans-20" transform="translate(269.767578 0)"/>
     <use xlink:href="#DejaVuSans-43" transform="translate(301.554688 0)"/>
     <use xlink:href="#DejaVuSans-3a" transform="translate(371.378906 0)"/>
     <use xlink:href="#DejaVuSans-20" transform="translate(405.070312 0)"/>
     <use xlink:href="#DejaVuSans-65" transform="translate(436.857422 0)"/>
     <use xlink:href="#DejaVuSans-76" transform="translate(498.380859 0)"/>
     <use xlink:href="#DejaVuSans-69" transform="translate(557.560547 0)"/>
     <use xlink:href="#DejaVuSans-64" transform="translate(585.34375 0)"/>
     <use xlink:href="#DejaVuSans-65" transform="translate(648.820312 0)"/>
     <use xlink:href="#DejaVuSans-6e" transform="translate(710.34375 0)"/>
     <use xlink:href="#DejaVuSans-63" transform="translate(773.722656 0)"/>
     <use xlink:href="#DejaVuSans-65" transform="translate(828.703125 0)"/>
     <use xlink:href="#DejaVuSans-20" transform="translate(890.226562 0)"/>
     <use xlink:href="#DejaVuSans-73" transform="translate(922.013672 0)"/>
     <use xlink:href="#DejaVuSans-74" transform="translate(974.113281 0)"/>
     <use xlink:href="#DejaVuSans-72" transform="translate(1013.322266 0)"/>
     <use xlink:href="#DejaVuSans-65" transform="translate(1052.185547 0)"/>
     <use xlink:href="#DejaVuSans-6e" transform="translate(1113.708984 0)"/>
     <use xlink:href="#DejaVuSans-67" transform="translate(1177.087891 0)"/>
     <use xlink:href="#DejaVuSans-74" transform="translate(1240.564453 0)"/>
     <use xlink:href="#DejaVuSans-68" transform="translate(1279.773438 0)"/>
     <use xlink:href="#DejaVuSans-20" transform="translate(1343.152344 0)"/>
     <use xlink:href="#DejaVuSans-76" transform="translate(1374.939453 0)"/>
     <use xlink:href="#DejaVuSans-73" transform="translate(1434.119141 0)"/>
     <use xlink:href="#DejaVuSans-20" transform="translate(1486.21875 0)"/>
     <use xlink:href="#DejaVuSans-6e" transform="translate(1518.005859 0)"/>
     <use xlink:href="#DejaVuSans-75" transform="translate(1581.384766 0)"/>
     <use xlink:href="#DejaVuSans-6c" transform="translate(1644.763672 0)"/>
     <use xlink:href="#DejaVuSans-6c" transform="translate(1672.546875 0)"/>
    </g>
   </g>
   <g id="legend_3">
    <g id="line2d_50">
     <path d="M 79.2 397.092438 
L 89.2 397.092438 
L 99.2 397.092438 
" style="fill: none; stroke: #1f77b4; stroke-width: 2; stroke-linecap: square"/>
    </g>
    <g id="text_47">
     <!-- z(SFEF→SLIP) -->
     <g transform="translate(107.2 400.592438) scale(0.1 -0.1)">
      <defs>
       <path id="DejaVuSans-7a" d="M 353 3500 
L 3084 3500 
L 3084 2975 
L 922 459 
L 3084 459 
L 3084 0 
L 275 0 
L 275 525 
L 2438 3041 
L 353 3041 
L 353 3500 
z
" transform="scale(0.015625)"/>
      </defs>
      <use xlink:href="#DejaVuSans-7a"/>
      <use xlink:href="#DejaVuSans-28" transform="translate(52.490234 0)"/>
      <use xlink:href="#DejaVuSans-53" transform="translate(91.503906 0)"/>
      <use xlink:href="#DejaVuSans-46" transform="translate(154.980469 0)"/>
      <use xlink:href="#DejaVuSans-45" transform="translate(212.5 0)"/>
      <use xlink:href="#DejaVuSans-46" transform="translate(275.683594 0)"/>
      <use xlink:href="#DejaVuSans-2192" transform="translate(333.203125 0)"/>
      <use xlink:href="#DejaVuSans-53" transform="translate(416.992188 0)"/>
      <use xlink:href="#DejaVuSans-4c" transform="translate(480.46875 0)"/>
      <use xlink:href="#DejaVuSans-49" transform="translate(536.181641 0)"/>
      <use xlink:href="#DejaVuSans-50" transform="translate(565.673828 0)"/>
      <use xlink:href="#DejaVuSans-29" transform="translate(625.976562 0)"/>
     </g>
    </g>
    <g id="line2d_51">
     <path d="M 79.2 411.770563 
L 89.2 411.770563 
L 99.2 411.770563 
" style="fill: none; stroke: #ff7f0e; stroke-width: 2; stroke-linecap: square"/>
    </g>
    <g id="text_48">
     <!-- z(SLIP→SFEF) -->
     <g transform="translate(107.2 415.270563) scale(0.1 -0.1)">
      <use xlink:href="#DejaVuSans-7a"/>
      <use xlink:href="#DejaVuSans-28" transform="translate(52.490234 0)"/>
      <use xlink:href="#DejaVuSans-53" transform="translate(91.503906 0)"/>
      <use xlink:href="#DejaVuSans-4c" transform="translate(154.980469 0)"/>
      <use xlink:href="#DejaVuSans-49" transform="translate(210.693359 0)"/>
      <use xlink:href="#DejaVuSans-50" transform="translate(240.185547 0)"/>
      <use xlink:href="#DejaVuSans-2192" transform="translate(300.488281 0)"/>
      <use xlink:href="#DejaVuSans-53" transform="translate(384.277344 0)"/>
      <use xlink:href="#DejaVuSans-46" transform="translate(447.753906 0)"/>
      <use xlink:href="#DejaVuSans-45" transform="translate(505.273438 0)"/>
      <use xlink:href="#DejaVuSans-46" transform="translate(568.457031 0)"/>
      <use xlink:href="#DejaVuSans-29" transform="translate(625.976562 0)"/>
     </g>
    </g>
   </g>
  </g>
 </g>
 <defs>
  <clipPath id="p65c893a587">
   <rect x="70.2" y="67.392" width="435.24" height="138.996"/>
  </clipPath>
  <clipPath id="p1b2a16d06c">
   <rect x="70.2" y="237.276" width="435.24" height="115.83"/>
  </clipPath>
  <clipPath id="p304071a1e7">
   <rect x="70.2" y="383.994" width="435.24" height="115.83"/>
  </clipPath>
 </defs>
</svg>
